<?xml version="1.0" encoding="UTF-8"?>
<svg id="B" xmlns="http://www.w3.org/2000/svg" viewBox="0 0 25.332 35.875">
  <defs>
    <style>
      .cls-1 {
        stroke-miterlimit: 10;
      }

      .cls-1, .cls-2 {
        fill: none;
        stroke: #000;
        stroke-linecap: round;
        stroke-width: 2.5px;
      }
    </style>
  </defs>
  <path id="_3" data-name="3" class="cls-2" d="M1.543,34.625h12.516c2.137,0,3.951-.365,5.444-1.094,1.492-.729,2.629-1.738,3.409-3.027.78-1.289,1.17-2.764,1.17-4.426,0-1.594-.339-3.027-1.018-4.299-.678-1.272-1.772-2.281-3.282-3.027-1.509-.746-3.502-1.119-5.978-1.119H1.543"/>
  <path id="_2" data-name="2" class="cls-2" d="M1.543,16.513h12.414c2.544,0,4.553-.721,6.029-2.162,1.475-1.442,2.213-3.197,2.213-5.266,0-1.458-.382-2.781-1.145-3.968-.763-1.187-1.781-2.128-3.053-2.824-1.272-.695-2.671-1.043-4.197-1.043H1.543"/>
  <line id="_1" data-name="1" class="cls-1" x1="1.25" y1="1.25" x2="1.25" y2="34.625"/>
</svg>