<?xml version="1.0" encoding="UTF-8"?>
<svg id="G" xmlns="http://www.w3.org/2000/svg" viewBox="0 0 33.561 36.029">
  <defs>
    <style>
      .cls-1 {
        fill: none;
        stroke: #000;
        stroke-linecap: round;
        stroke-width: 2.5px;
      }
    </style>
  </defs>
  <g id="_1" data-name="1">
    <path class="cls-1" d="M29.796,7.304c-.993-1.211-2.127-2.274-3.399-3.19s-2.67-1.622-4.191-2.119c-1.521-.497-3.167-.745-4.936-.745-2.328,0-4.471.419-6.426,1.257-1.956.838-3.656,2.01-5.099,3.516-1.444,1.506-2.553,3.291-3.33,5.355-.776,2.065-1.164,4.339-1.164,6.822,0,2.422.396,4.649,1.187,6.683.792,2.033,1.902,3.788,3.33,5.262s3.128,2.616,5.099,3.423c1.971.807,4.121,1.211,6.45,1.211s4.416-.349,6.263-1.048,3.423-1.731,4.727-3.097c1.304-1.366,2.297-3.066,2.98-5.099.683-2.033,1.024-4.37,1.024-7.008v-.885h-14.576" vector-effect="non-scaling-stroke"/>
  </g>
</svg>