<?xml version="1.0" encoding="UTF-8"?>
<svg id="S" xmlns="http://www.w3.org/2000/svg" version="1.1" viewBox="0 0 25 35.9">
  <!-- Generator: Adobe Illustrator 29.2.1, SVG Export Plug-In . SVG Version: 2.1.0 Build 116)  -->
  <defs>
    <style>
      .st0 {
        fill: none;
        stroke: #d40065;
        stroke-linecap: round;
        stroke-width: 2.5px;
      }
    </style>
  </defs>
  <path id="_1" class="st0" d="M23.6,6.3c-.9-1.1-1.9-2-3.1-2.7-1.1-.8-2.4-1.3-3.7-1.7s-2.6-.6-4-.6-3,.2-4.3.6c-1.3.4-2.4.9-3.3,1.7-.9.7-1.6,1.6-2.1,2.6s-.7,2.1-.7,3.3.2,1.8.6,2.6,1,1.5,1.8,2.2c.9.7,2,1.3,3.3,1.9,1.4.6,2.9,1,4.7,1.5h.2c1.8.5,3.3.9,4.6,1.4,1.3.5,2.4,1.1,3.3,1.7.9.7,1.6,1.5,2,2.4s.7,2,.7,3.2-.4,3.2-1.2,4.5c-.8,1.3-2,2.3-3.6,3-1.6.7-3.5,1-5.6,1s-5-.5-7.1-1.5c-2.1-1-3.8-2.3-4.9-3.9" vector-effect="non-scaling-stroke"/>
</svg>