<svg width="360" xmlns="http://www.w3.org/2000/svg" height="640" id="screenshot-bf1c0094-aa02-8040-8005-f70255b867bb" fill="none" version="1.1"><style>/* latin-ext */
@font-face {
  font-family: &apos;Sora&apos;;
  font-style: normal;
  font-weight: 400;
  font-display: block;
  src: url(https://design.penpot.app/internal/gfonts/font/sora/v12/xMQOuFFYT72X5wkB_18qmnndmSdSnk-DKQJRBg.woff2) format(&apos;woff2&apos;);
  unicode-range: U+0100-02BA, U+02BD-02C5, U+02C7-02CC, U+02CE-02D7, U+02DD-02FF, U+0304, U+0308, U+0329, U+1D00-1DBF, U+1E00-1E9F, U+1EF2-1EFF, U+2020, U+20A0-20AB, U+20AD-20C0, U+2113, U+2C60-2C7F, U+A720-A7FF;
}
/* latin */
@font-face {
  font-family: &apos;Sora&apos;;
  font-style: normal;
  font-weight: 400;
  font-display: block;
  src: url(https://design.penpot.app/internal/gfonts/font/sora/v12/xMQOuFFYT72X5wkB_18qmnndmSdSnk-NKQI.woff2) format(&apos;woff2&apos;);
  unicode-range: U+0000-00FF, U+0131, U+0152-0153, U+02BB-02BC, U+02C6, U+02DA, U+02DC, U+0304, U+0308, U+0329, U+2000-206F, U+20AC, U+2122, U+2191, U+2193, U+2212, U+2215, U+FEFF, U+FFFD;
}</style><g id="shape-bf1c0094-aa02-8040-8005-f70255b867bb"><defs><clipPath id="frame-clip-bf1c0094-aa02-8040-8005-f70255b867bb-render-1" class="frame-clip frame-clip-def"><rect rx="0" ry="0" width="360" height="640" transform="matrix(1.000000, 0.000000, 0.000000, 1.000000, 0.000000, 0.000000)"/></clipPath></defs><g clip-path="url(#frame-clip-bf1c0094-aa02-8040-8005-f70255b867bb-render-1)"><g class="fills" id="fills-bf1c0094-aa02-8040-8005-f70255b867bb"><rect width="360" height="640" class="frame-background" transform="matrix(1.000000, 0.000000, 0.000000, 1.000000, 0.000000, 0.000000)" style="fill: rgb(243, 243, 243); fill-opacity: 1;" ry="0" rx="0"/></g><g class="frame-children"><g id="shape-bf1c0094-aa02-8040-8005-f706b880825b"><defs><clipPath id="frame-clip-bf1c0094-aa02-8040-8005-f706b880825b-render-2" class="frame-clip frame-clip-def"><rect rx="0" ry="0" x="-43" width="418" height="73" transform="matrix(1.000000, 0.000000, 0.000000, 1.000000, 0.000000, 0.000000)"/></clipPath></defs><defs><filter id="filter-shadow-render-2" x="-.108" y="-.616" width="1.215" height="2.274" filterUnits="objectBoundingBox" color-interpolation-filters="sRGB"><feFlood flood-opacity="0" result="BackgroundImageFix"/><feColorMatrix in="SourceAlpha" values="0 0 0 0 0 0 0 0 0 0 0 0 0 0 0 0 0 0 127 0"/><feOffset dy="1"/><feGaussianBlur stdDeviation="5"/><feColorMatrix values="0 0 0 0 0 0 0 0 0 0 0 0 0 0 0 0 0 0 0.1 0"/><feBlend in2="BackgroundImageFix" result="filter_bf1c0094-aa02-8040-8005-f71bafe1d122"/><feBlend in="SourceGraphic" in2="filter_bf1c0094-aa02-8040-8005-f71bafe1d122" result="shape"/></filter></defs><g filter="url(#filter-shadow-render-2)"><g clip-path="url(#frame-clip-bf1c0094-aa02-8040-8005-f706b880825b-render-2)"><g class="fills" id="fills-bf1c0094-aa02-8040-8005-f706b880825b"><rect width="418" height="73" class="frame-background" x="-43" transform="matrix(1.000000, 0.000000, 0.000000, 1.000000, 0.000000, 0.000000)" style="fill: rgb(255, 255, 255); fill-opacity: 1;" ry="0" rx="0"/></g><g class="frame-children"><g id="shape-bf1c0094-aa02-8040-8005-f71e675af966"><g id="shape-bf1c0094-aa02-8040-8005-f71a8f89879b"><defs><clipPath id="frame-clip-bf1c0094-aa02-8040-8005-f71a8f89879b-render-4" class="frame-clip frame-clip-def"><rect rx="8" ry="8" x="303" y="17" width="42" height="42" transform="matrix(1.000000, 0.000000, 0.000000, 1.000000, 0.000000, 0.000000)"/></clipPath></defs><g clip-path="url(#frame-clip-bf1c0094-aa02-8040-8005-f71a8f89879b-render-4)"><g class="fills" id="fills-bf1c0094-aa02-8040-8005-f71a8f89879b"><rect width="42" height="42" class="frame-background" x="303" transform="matrix(1.000000, 0.000000, 0.000000, 1.000000, 0.000000, 0.000000)" style="fill: rgb(255, 255, 255); fill-opacity: 1;" ry="8" rx="8" y="17"/></g><g class="frame-children"><g id="shape-bf1c0094-aa02-8040-8005-f71b5ca31c91" style="fill: rgb(0, 0, 0);"><g id="shape-bf1c0094-aa02-8040-8005-f71b5ca34fc1"><path d="M311.875,48.750L311.875,45.333L335.125,45.333L335.125,48.750L311.875,48.750ZL311.875,48.750ZM311.875,40.208L311.875,36.792L335.125,36.792L335.125,40.208L311.875,40.208ZL311.875,40.208ZM311.875,31.667L311.875,28.250L335.125,28.250L335.125,31.667L311.875,31.667ZL311.875,31.667Z" fill="#00000" style="fill: rgb(114, 114, 114); fill-opacity: 1;" class="fills" id="fills-bf1c0094-aa02-8040-8005-f71b5ca34fc1"/></g></g></g></g><g id="strokes-8daa1605-2175-8094-8005-f732fbdcada8-bf1c0094-aa02-8040-8005-f71a8f89879b" class="strokes"><g class="outer-stroke-shape"><defs><mask id="outer-stroke-render-4-bf1c0094-aa02-8040-8005-f71a8f89879b-0" x="301.586" y="15.586" width="44.828" height="44.828" maskUnits="userSpaceOnUse"><use href="#stroke-shape-render-4-bf1c0094-aa02-8040-8005-f71a8f89879b-0" style="fill: none; stroke: white; stroke-width: 2;"/><use href="#stroke-shape-render-4-bf1c0094-aa02-8040-8005-f71a8f89879b-0" style="fill: black; stroke: none;"/></mask><rect width="42" height="42" class="frame-background" x="303" id="stroke-shape-render-4-bf1c0094-aa02-8040-8005-f71a8f89879b-0" transform="matrix(1.000000, 0.000000, 0.000000, 1.000000, 0.000000, 0.000000)" ry="8" rx="8" y="17"/></defs><use href="#stroke-shape-render-4-bf1c0094-aa02-8040-8005-f71a8f89879b-0" mask="url(#outer-stroke-render-4-bf1c0094-aa02-8040-8005-f71a8f89879b-0)" style="fill: none; stroke-width: 2; stroke: rgb(236, 236, 236); stroke-opacity: 1;"/><use href="#stroke-shape-render-4-bf1c0094-aa02-8040-8005-f71a8f89879b-0" style="fill: none; stroke-width: 1; stroke: none; stroke-opacity: 1;"/></g></g></g><g id="shape-bf1c0094-aa02-8040-8005-f7196e5d8f8e"><defs><clipPath id="frame-clip-bf1c0094-aa02-8040-8005-f7196e5d8f8e-render-8" class="frame-clip frame-clip-def"><rect rx="8" ry="8" x="251" y="17" width="42" height="42" transform="matrix(1.000000, 0.000000, 0.000000, 1.000000, 0.000000, 0.000000)"/></clipPath></defs><g clip-path="url(#frame-clip-bf1c0094-aa02-8040-8005-f7196e5d8f8e-render-8)"><g class="fills" id="fills-bf1c0094-aa02-8040-8005-f7196e5d8f8e"><rect width="42" height="42" class="frame-background" x="251" transform="matrix(1.000000, 0.000000, 0.000000, 1.000000, 0.000000, 0.000000)" style="fill: rgb(255, 255, 255); fill-opacity: 1;" ry="8" rx="8" y="17"/></g><g class="frame-children"><g id="shape-bf1c0094-aa02-8040-8005-f71a8f89879c" style="fill: rgb(0, 0, 0);"><g id="shape-bf1c0094-aa02-8040-8005-f71a8f89879e"><path d="M284.657,42.315C284.501,42.386,284.357,42.480,284.229,42.595C284.108,42.681,283.997,42.780,283.897,42.891C283.897,43.197,283.986,43.561,284.021,43.972C284.120,44.809,284.005,45.657,283.689,46.435C283.547,46.795,283.381,47.134,283.286,47.422C283.367,47.579,283.466,47.726,283.579,47.862L283.579,47.862C283.662,47.990,283.765,48.105,283.883,48.200C284.368,48.068,284.799,47.782,285.113,47.383C286.024,46.283,286.227,44.744,285.632,43.438C285.434,42.966,285.092,42.573,284.657,42.315ZZ" style="fill: rgb(114, 114, 114); fill-opacity: 1;" class="fills" id="fills-bf1c0094-aa02-8040-8005-f71a8f89879e"/></g><g id="shape-bf1c0094-aa02-8040-8005-f71a8f89879f"><path d="M286.837,48.254C286.503,48.862,286.135,49.450,285.735,50.016C285.791,50.187,285.883,50.345,286.003,50.477C286.155,50.675,286.293,50.813,286.329,50.798C287.093,50.442,287.757,49.896,288.258,49.209C289.696,47.298,290.034,44.753,289.145,42.521C288.840,41.723,288.342,41.016,287.696,40.467C287.664,40.442,287.463,40.558,287.254,40.727C287.046,40.895,286.929,41.014,286.940,41.044C287.176,41.699,287.375,42.368,287.537,43.046C287.928,44.813,287.677,46.663,286.837,48.254ZL286.837,48.254ZZ" style="fill: rgb(114, 114, 114); fill-opacity: 1;" class="fills" id="fills-bf1c0094-aa02-8040-8005-f71a8f89879f"/></g><g id="shape-bf1c0094-aa02-8040-8005-f71a8f8987a0"><path d="M283.682,36.332C283.638,36.255,283.590,36.182,283.537,36.112C283.433,35.978,283.314,35.857,283.184,35.752C282.996,35.605,282.797,35.475,282.586,35.363L282.187,35.115C281.935,34.940,281.698,34.744,281.480,34.527C281.266,34.308,281.074,34.066,280.908,33.806C280.745,33.548,280.607,33.274,280.494,32.989C280.384,32.700,280.302,32.401,280.251,32.096C280.225,31.944,280.207,31.791,280.198,31.638L280.148,31.051C280.098,30.229,279.960,29.416,279.734,28.627C279.516,27.813,279.197,27.031,278.784,26.300C278.573,25.923,278.336,25.562,278.077,25.219C277.811,24.882,277.522,24.566,277.211,24.272C275.973,23.140,274.464,22.358,272.837,22.006C272.643,21.951,272.446,21.909,272.246,21.880L271.653,21.775C271.257,21.710,270.865,21.688,270.469,21.645C269.686,21.598,268.900,21.598,268.115,21.645C264.964,21.804,261.965,23.078,259.635,25.247C258.533,26.307,257.647,27.579,257.027,28.989C255.586,32.292,255.664,36.078,257.239,39.316C257.381,39.612,257.535,39.899,257.702,40.177L258.140,40.934C259.156,42.762,259.724,44.813,259.798,46.913C259.855,48.619,259.572,50.320,258.967,51.913C258.839,52.179,258.948,52.500,259.209,52.631C259.211,52.631,259.213,52.633,259.214,52.633C259.472,52.702,259.740,52.561,259.833,52.306C260.612,50.614,261.024,48.771,261.041,46.902C261.064,44.573,260.517,42.274,259.451,40.214L259.013,39.400C258.877,39.159,258.749,38.905,258.632,38.636C257.350,35.815,257.350,32.563,258.632,29.742C259.180,28.560,259.951,27.497,260.900,26.616C262.927,24.778,265.512,23.706,268.222,23.579C268.928,23.544,269.637,23.552,270.342,23.601C270.695,23.644,271.049,23.659,271.381,23.720L271.894,23.810C272.065,23.836,272.234,23.873,272.399,23.922C273.708,24.206,274.921,24.836,275.915,25.748C276.154,25.972,276.377,26.213,276.583,26.469C276.783,26.734,276.964,27.014,277.128,27.304C277.462,27.895,277.721,28.527,277.898,29.184C278.091,29.853,278.209,30.542,278.251,31.238L278.276,31.497C278.276,31.587,278.294,31.656,278.301,31.782C278.316,32.005,278.343,32.227,278.382,32.448C278.457,32.884,278.575,33.311,278.735,33.723C278.899,34.134,279.101,34.528,279.339,34.901C279.583,35.266,279.862,35.605,280.173,35.913C280.479,36.215,280.811,36.487,281.166,36.727L281.700,37.052C281.812,37.109,281.919,37.175,282.021,37.250L282.064,37.290L282.064,37.290C282.064,37.301,282.064,37.311,282.064,37.322C282.084,37.365,282.095,37.412,282.096,37.459C282.096,37.507,282.086,37.553,282.068,37.596C282.040,37.647,282.068,37.647,281.944,37.758C281.539,38.140,281.046,38.411,280.510,38.543L280.510,38.543C280.095,38.661,279.818,39.056,279.841,39.494L279.951,41.554L279.718,41.605C279.407,41.666,279.096,41.717,278.785,41.749C278.475,41.782,278.163,41.800,277.856,41.803L277.502,41.803C277.413,41.797,277.323,41.797,277.234,41.803C276.850,41.853,276.499,42.047,276.248,42.347C276.006,42.636,275.872,43.002,275.870,43.381C275.869,43.560,275.896,43.737,275.951,43.907C275.986,44.011,276.022,44.115,276.068,44.217C276.237,44.618,276.476,44.984,276.774,45.297C277.338,45.885,278.046,46.308,278.824,46.522C278.987,46.566,279.149,46.609,279.312,46.641L279.312,46.641L279.259,46.879C279.238,46.980,279.220,47.070,279.206,47.160C279.178,47.340,279.156,47.520,279.146,47.700C279.130,47.900,279.130,48.101,279.146,48.302C279.146,48.363,279.146,48.420,279.174,48.493L279.174,48.532L279.206,48.640L279.206,48.640L279.206,48.676C279.223,48.721,279.238,48.769,279.249,48.816C279.425,49.603,278.955,50.390,278.188,50.592C278.134,50.609,278.079,50.622,278.022,50.632L277.828,50.668L277.443,50.733C277.186,50.774,276.931,50.806,276.679,50.830C276.174,50.881,275.672,50.905,275.181,50.905C274.251,50.917,273.322,50.827,272.411,50.635C271.606,50.469,270.825,50.196,270.089,49.825C269.449,49.506,268.867,49.079,268.369,48.560C268.187,48.343,267.876,48.297,267.641,48.452C267.437,48.658,267.435,48.993,267.637,49.201C267.638,49.202,267.639,49.204,267.641,49.205C268.179,49.857,268.828,50.404,269.556,50.822C270.195,51.200,270.873,51.506,271.577,51.733C271.167,52.655,271.241,54.352,271.803,54.975C271.975,54.997,272.150,55.004,272.323,54.997C272.474,55.003,272.625,54.995,272.776,54.975C273.263,54.435,273.383,53.073,273.129,52.123C273.801,52.239,274.480,52.310,275.160,52.335C275.705,52.356,276.252,52.349,276.796,52.314C277.074,52.297,277.356,52.270,277.641,52.234L278.069,52.176L278.284,52.144C278.351,52.144,278.429,52.119,278.524,52.097C279.275,51.932,279.933,51.475,280.358,50.822C280.806,50.144,280.968,49.311,280.807,48.510C280.789,48.408,280.764,48.309,280.733,48.211L280.733,48.192L280.733,48.192L280.733,48.157C280.726,48.050,280.726,47.943,280.733,47.836C280.733,47.714,280.761,47.580,280.786,47.454C280.786,47.393,280.811,47.328,280.825,47.277L280.882,47.058L280.942,46.831C280.986,46.658,280.998,46.479,280.981,46.301C280.943,45.923,280.760,45.574,280.472,45.333C280.324,45.209,280.154,45.117,279.970,45.062L279.684,44.994C279.549,44.969,279.423,44.926,279.292,44.889C278.814,44.755,278.379,44.496,278.030,44.137C277.891,43.983,277.779,43.807,277.698,43.614L277.854,43.614C278.207,43.614,278.589,43.614,278.956,43.568C279.323,43.521,279.691,43.485,280.055,43.416C280.437,43.346,280.815,43.252,281.186,43.135C281.559,43.017,281.811,42.659,281.800,42.260L281.800,42.232L281.716,40.142C282.299,39.916,282.832,39.572,283.281,39.130C283.376,39.035,283.465,38.934,283.547,38.827C283.636,38.694,283.712,38.552,283.773,38.402C284.037,37.812,284.037,37.134,283.773,36.544C283.747,36.471,283.717,36.400,283.682,36.332ZZM279.353,46.417L279.353,46.417ZC279.353,46.417,279.353,46.410,279.353,46.417ZZ" style="fill: rgb(114, 114, 114); fill-opacity: 1;" class="fills" id="fills-bf1c0094-aa02-8040-8005-f71a8f8987a0"/></g></g></g></g><g id="strokes-8daa1605-2175-8094-8005-f732fbdfbdd5-bf1c0094-aa02-8040-8005-f7196e5d8f8e" class="strokes"><g class="outer-stroke-shape"><defs><mask id="outer-stroke-render-8-bf1c0094-aa02-8040-8005-f7196e5d8f8e-0" x="249.586" y="15.586" width="44.828" height="44.828" maskUnits="userSpaceOnUse"><use href="#stroke-shape-render-8-bf1c0094-aa02-8040-8005-f7196e5d8f8e-0" style="fill: none; stroke: white; stroke-width: 2;"/><use href="#stroke-shape-render-8-bf1c0094-aa02-8040-8005-f7196e5d8f8e-0" style="fill: black; stroke: none;"/></mask><rect width="42" height="42" class="frame-background" x="251" id="stroke-shape-render-8-bf1c0094-aa02-8040-8005-f7196e5d8f8e-0" transform="matrix(1.000000, 0.000000, 0.000000, 1.000000, 0.000000, 0.000000)" ry="8" rx="8" y="17"/></defs><use href="#stroke-shape-render-8-bf1c0094-aa02-8040-8005-f7196e5d8f8e-0" mask="url(#outer-stroke-render-8-bf1c0094-aa02-8040-8005-f7196e5d8f8e-0)" style="fill: none; stroke-width: 2; stroke: rgb(236, 236, 236); stroke-opacity: 1;"/><use href="#stroke-shape-render-8-bf1c0094-aa02-8040-8005-f7196e5d8f8e-0" style="fill: none; stroke-width: 1; stroke: none; stroke-opacity: 1;"/></g></g></g><g id="shape-bf1c0094-aa02-8040-8005-f71c854d9e54"><defs><clipPath id="frame-clip-bf1c0094-aa02-8040-8005-f71c854d9e54-render-14" class="frame-clip frame-clip-def"><rect rx="8" ry="8" x="199" y="17" width="42" height="42" transform="matrix(1.000000, 0.000000, 0.000000, 1.000000, 0.000000, 0.000000)"/></clipPath></defs><g clip-path="url(#frame-clip-bf1c0094-aa02-8040-8005-f71c854d9e54-render-14)"><g class="fills" id="fills-bf1c0094-aa02-8040-8005-f71c854d9e54"><rect width="42" height="42" class="frame-background" x="199" transform="matrix(1.000000, 0.000000, 0.000000, 1.000000, 0.000000, 0.000000)" style="fill: rgb(255, 255, 255); fill-opacity: 1;" ry="8" rx="8" y="17"/></g><g class="frame-children"><g id="shape-bf1c0094-aa02-8040-8005-f71d55674338" style="fill: rgb(0, 0, 0);"><g id="shape-bf1c0094-aa02-8040-8005-f71d5567f9bc" style="fill: rgb(0, 0, 0);"><g id="shape-bf1c0094-aa02-8040-8005-f71d55682d04"><path d="M235.380,49.954L229.571,44.163C231.445,41.775,232.462,38.827,232.458,35.792C232.458,28.244,226.340,22.125,218.792,22.125C211.244,22.125,205.125,28.244,205.125,35.792C205.125,43.340,211.244,49.458,218.792,49.458C221.827,49.462,224.775,48.445,227.162,46.571L232.954,52.380C233.275,52.703,233.711,52.885,234.167,52.885C234.622,52.885,235.059,52.703,235.380,52.380C235.703,52.059,235.885,51.622,235.885,51.167C235.885,50.711,235.703,50.275,235.380,49.954ZZM208.542,35.792C208.542,30.131,213.131,25.542,218.792,25.542C224.453,25.542,229.042,30.131,229.042,35.792C229.042,41.453,224.453,46.042,218.792,46.042C213.131,46.042,208.542,41.453,208.542,35.792ZZ" style="fill: rgb(114, 114, 114); fill-opacity: 1;" class="fills" id="fills-bf1c0094-aa02-8040-8005-f71d55682d04"/></g></g></g></g></g><g id="strokes-8daa1605-2175-8094-8005-f732fbe0ec2b-bf1c0094-aa02-8040-8005-f71c854d9e54" class="strokes"><g class="inner-stroke-shape" transform="matrix(1.000000, 0.000000, 0.000000, 1.000000, 0.000000, 0.000000)"><defs><clipPath id="inner-stroke-render-14-bf1c0094-aa02-8040-8005-f71c854d9e54-0"><use href="#stroke-shape-render-14-bf1c0094-aa02-8040-8005-f71c854d9e54-0"/></clipPath><rect width="42" height="42" class="frame-background" x="199" id="stroke-shape-render-14-bf1c0094-aa02-8040-8005-f71c854d9e54-0" style="fill: none; stroke-width: 2; stroke: rgb(236, 236, 236); stroke-opacity: 1;" ry="8" rx="8" y="17"/></defs><use href="#stroke-shape-render-14-bf1c0094-aa02-8040-8005-f71c854d9e54-0" clip-path="url('#inner-stroke-render-14-bf1c0094-aa02-8040-8005-f71c854d9e54-0')"/></g></g></g></g><g id="shape-bf1c0094-aa02-8040-8005-f70714c4f4bf"><defs><clipPath id="frame-clip-bf1c0094-aa02-8040-8005-f70714c4f4bf-render-19" class="frame-clip frame-clip-def"><rect rx="8" ry="8" x="24" width="94" height="73" transform="matrix(1.000000, 0.000000, 0.000000, 1.000000, 0.000000, 0.000000)"/></clipPath></defs><g clip-path="url(#frame-clip-bf1c0094-aa02-8040-8005-f70714c4f4bf-render-19)"><g class="fills" id="fills-bf1c0094-aa02-8040-8005-f70714c4f4bf"><rect width="94" height="73" class="frame-background" x="24" transform="matrix(1.000000, 0.000000, 0.000000, 1.000000, 0.000000, 0.000000)" style="fill: rgb(214, 0, 0); fill-opacity: 0;" ry="8" rx="8"/></g><g class="frame-children"><g transform="matrix(1.000000, 0.000000, 0.000000, 1.000000, 0.000000, 0.000000)" class="text-container" id="shape-bf1c0094-aa02-8040-8005-f724a0623180"><defs><pattern patternUnits="userSpaceOnUse" x="29" y="41" width="56.932" height="24.545" id="fill-0-render-20-0"><rect width="56.932" height="24.545" style="fill: rgb(160, 158, 158); fill-opacity: 1;"/></pattern></defs><text x="29" y="64.636" dominant-baseline="ideographic" textLength="56.932" lengthAdjust="spacingAndGlyphs" style="text-transform: none; font-family: Sora; letter-spacing: normal; font-style: normal; font-weight: 400; white-space: pre; font-size: 20px; text-decoration: none solid rgb(160, 158, 158); direction: ltr; fill: rgb(160, 158, 158); fill-opacity: 1;" class="fills" id="fills-bf1c0094-aa02-8040-8005-f724a0623180">inicio</text></g><g id="shape-bf1c0094-aa02-8040-8005-f724798c26be"><rect rx="0" ry="0" x="29" y="36" transform="matrix(1.000000, 0.000000, 0.000000, 1.000000, 0.000000, 0.000000)" width="58" height="2" style="fill: rgb(177, 178, 181); fill-opacity: 1;" class="fills" id="fills-bf1c0094-aa02-8040-8005-f724798c26be"/></g><g transform="matrix(1.000000, 0.000000, 0.000000, 1.000000, 0.000000, 0.000000)" class="text-container" id="shape-bf1c0094-aa02-8040-8005-f706d3643f1b"><defs><pattern patternUnits="userSpaceOnUse" x="29" y="13" width="57.926" height="24.545" id="fill-0-render-22-0"><rect width="57.926" height="24.545" style="fill: rgb(114, 114, 114); fill-opacity: 1;"/></pattern></defs><text x="29" y="36.636" dominant-baseline="ideographic" textLength="57.926" lengthAdjust="spacingAndGlyphs" style="text-transform: none; font-family: Sora; letter-spacing: normal; font-style: normal; font-weight: 400; white-space: pre; font-size: 20px; text-decoration: none solid rgb(114, 114, 114); direction: ltr; fill: rgb(114, 114, 114); fill-opacity: 1;" class="fills" id="fills-bf1c0094-aa02-8040-8005-f706d3643f1b">home</text></g></g></g></g><g id="shape-bf1c0094-aa02-8040-8005-f722d2179c9a" style="fill: rgb(0, 0, 0);"><g id="shape-bf1c0094-aa02-8040-8005-f722d218b7e1" style="fill: rgb(0, 0, 0);"><g id="shape-bf1c0094-aa02-8040-8005-f722d21921c8"><path d="M49.208,39.542L25.983,39.542L33.091,31.003C33.539,30.465,33.665,29.728,33.423,29.071C33.180,28.414,32.605,27.936,31.915,27.817C31.224,27.699,30.523,27.958,30.075,28.497L20.284,40.247C20.218,40.340,20.159,40.438,20.108,40.540C20.108,40.638,20.108,40.697,19.970,40.795C19.882,41.020,19.835,41.259,19.833,41.500C19.835,41.741,19.882,41.980,19.970,42.205C19.970,42.303,19.970,42.362,20.108,42.460C20.159,42.562,20.218,42.660,20.284,42.753L30.075,54.503C30.448,54.951,31.001,55.209,31.583,55.208C32.041,55.209,32.484,55.050,32.837,54.758C33.237,54.426,33.489,53.948,33.537,53.430C33.585,52.912,33.424,52.396,33.091,51.997L25.983,43.458L49.208,43.458C50.290,43.458,51.167,42.582,51.167,41.500C51.167,40.418,50.290,39.542,49.208,39.542ZZ" style="fill: rgb(114, 114, 114); fill-opacity: 0;" class="fills" id="fills-bf1c0094-aa02-8040-8005-f722d21921c8"/></g></g></g></g></g></g></g><g id="shape-bf1c0094-aa02-8040-8005-f72a14e0e623"><g class="fills" id="fills-bf1c0094-aa02-8040-8005-f72a14e0e623"><rect width="322" height="69" class="frame-background" x="19" transform="matrix(1.000000, 0.000000, 0.000000, 1.000000, 0.000000, 0.000000)" style="fill: rgb(255, 255, 255); fill-opacity: 1;" ry="8" rx="8" y="104"/></g><g class="frame-children"><g transform="matrix(1.000000, 0.000000, 0.000000, 1.000000, 0.000000, 0.000000)" class="text-container" id="shape-bf1c0094-aa02-8040-8005-f72a0ab9a32a"><defs><pattern patternUnits="userSpaceOnUse" x="88" y="143" width="198.466" height="24.545" id="fill-0-render-28-0"><rect width="198.466" height="24.545" style="fill: rgb(160, 158, 158); fill-opacity: 1;"/></pattern></defs><text x="88" y="166.636" dominant-baseline="ideographic" textLength="198.466" lengthAdjust="spacingAndGlyphs" style="text-transform: none; font-family: Sora; letter-spacing: normal; font-style: normal; font-weight: 400; white-space: pre; font-size: 20px; text-decoration: none solid rgb(160, 158, 158); direction: ltr; fill: rgb(160, 158, 158); fill-opacity: 1;" class="fills" id="fills-bf1c0094-aa02-8040-8005-f72a0ab9a32a">números cardinales</text></g><g id="shape-bf1c0094-aa02-8040-8005-f72a0ab9a32b"><rect rx="0" ry="0" x="88" y="138" transform="matrix(1.000000, 0.000000, 0.000000, 1.000000, 0.000000, 0.000000)" width="197" height="2" style="fill: rgb(177, 178, 181); fill-opacity: 1;" class="fills" id="fills-bf1c0094-aa02-8040-8005-f72a0ab9a32b"/></g><g transform="matrix(1.000000, 0.000000, 0.000000, 1.000000, 0.000000, 0.000000)" class="text-container" id="shape-bf1c0094-aa02-8040-8005-f72a0ab9a32c"><defs><pattern patternUnits="userSpaceOnUse" x="88" y="113" width="175.881" height="24.545" id="fill-0-render-30-0"><rect width="175.881" height="24.545" style="fill: rgb(114, 114, 114); fill-opacity: 1;"/></pattern></defs><text x="88" y="136.636" dominant-baseline="ideographic" textLength="175.881" lengthAdjust="spacingAndGlyphs" style="text-transform: none; font-family: Sora; letter-spacing: normal; font-style: normal; font-weight: 400; white-space: pre; font-size: 20px; text-decoration: none solid rgb(114, 114, 114); direction: ltr; fill: rgb(114, 114, 114); fill-opacity: 1;" class="fills" id="fills-bf1c0094-aa02-8040-8005-f72a0ab9a32c">cardinal numbers</text></g><g id="shape-bf1c0094-aa02-8040-8005-f72ad19d3522"><rect rx="0" ry="0" x="77" y="104" transform="matrix(1.000000, 0.000000, 0.000000, 1.000000, 0.000000, 0.000000)" width="1" height="69" style="fill: rgb(230, 230, 230); fill-opacity: 1;" class="fills" id="fills-bf1c0094-aa02-8040-8005-f72ad19d3522"/></g><g transform="matrix(1.000000, 0.000000, 0.000000, 1.000000, 0.000000, 0.000000)" class="text-container" id="shape-bf1c0094-aa02-8040-8005-f72bc6047e37"><defs><pattern patternUnits="userSpaceOnUse" x="30" y="125" width="39.659" height="30.909" id="fill-0-render-32-0"><rect width="39.659" height="30.909" style="fill: rgb(160, 158, 158); fill-opacity: 1;"/></pattern></defs><text x="30" y="154.091" dominant-baseline="ideographic" textLength="39.659" lengthAdjust="spacingAndGlyphs" style="text-transform: none; font-family: Sora; letter-spacing: normal; font-style: normal; font-weight: 400; white-space: pre; font-size: 24px; text-decoration: none solid rgb(160, 158, 158); direction: ltr; fill: rgb(160, 158, 158); fill-opacity: 1;" class="fills" id="fills-bf1c0094-aa02-8040-8005-f72bc6047e37">123</text></g></g><g id="strokes-8daa1605-2175-8094-8005-f732fbe5b397-bf1c0094-aa02-8040-8005-f72a14e0e623" class="strokes"><g class="inner-stroke-shape" transform="matrix(1.000000, 0.000000, 0.000000, 1.000000, 0.000000, 0.000000)"><defs><clipPath id="inner-stroke-render-27-bf1c0094-aa02-8040-8005-f72a14e0e623-0"><use href="#stroke-shape-render-27-bf1c0094-aa02-8040-8005-f72a14e0e623-0"/></clipPath><rect width="322" height="69" class="frame-background" x="19" id="stroke-shape-render-27-bf1c0094-aa02-8040-8005-f72a14e0e623-0" style="fill: none; stroke-width: 2; stroke: rgb(230, 230, 230); stroke-opacity: 1;" ry="8" rx="8" y="104"/></defs><use href="#stroke-shape-render-27-bf1c0094-aa02-8040-8005-f72a14e0e623-0" clip-path="url('#inner-stroke-render-27-bf1c0094-aa02-8040-8005-f72a14e0e623-0')"/></g></g></g><g id="shape-bf1c0094-aa02-8040-8005-f72e766edd56"><g class="fills" id="fills-bf1c0094-aa02-8040-8005-f72e766edd56"><rect width="322" height="69" class="frame-background" x="19" transform="matrix(1.000000, 0.000000, 0.000000, 1.000000, 0.000000, 0.000000)" style="fill: rgb(255, 255, 255); fill-opacity: 1;" ry="8" rx="8" y="187"/></g><g class="frame-children"><g transform="matrix(1.000000, 0.000000, 0.000000, 1.000000, 0.000000, 0.000000)" class="text-container" id="shape-bf1c0094-aa02-8040-8005-f72e766edd57"><defs><pattern patternUnits="userSpaceOnUse" x="88" y="226" width="198.466" height="24.545" id="fill-0-render-34-0"><rect width="198.466" height="24.545" style="fill: rgb(160, 158, 158); fill-opacity: 1;"/></pattern></defs><text x="88" y="249.636" dominant-baseline="ideographic" textLength="198.466" lengthAdjust="spacingAndGlyphs" style="text-transform: none; font-family: Sora; letter-spacing: normal; font-style: normal; font-weight: 400; white-space: pre; font-size: 20px; text-decoration: none solid rgb(160, 158, 158); direction: ltr; fill: rgb(160, 158, 158); fill-opacity: 1;" class="fills" id="fills-bf1c0094-aa02-8040-8005-f72e766edd57">números cardinales</text></g><g id="shape-bf1c0094-aa02-8040-8005-f72e766edd58"><rect rx="0" ry="0" x="88" y="221" transform="matrix(1.000000, 0.000000, 0.000000, 1.000000, 0.000000, 0.000000)" width="197" height="2" style="fill: rgb(177, 178, 181); fill-opacity: 1;" class="fills" id="fills-bf1c0094-aa02-8040-8005-f72e766edd58"/></g><g transform="matrix(1.000000, 0.000000, 0.000000, 1.000000, 0.000000, 0.000000)" class="text-container" id="shape-bf1c0094-aa02-8040-8005-f72e766edd59"><defs><pattern patternUnits="userSpaceOnUse" x="88" y="196" width="175.881" height="24.545" id="fill-0-render-36-0"><rect width="175.881" height="24.545" style="fill: rgb(114, 114, 114); fill-opacity: 1;"/></pattern></defs><text x="88" y="219.636" dominant-baseline="ideographic" textLength="175.881" lengthAdjust="spacingAndGlyphs" style="text-transform: none; font-family: Sora; letter-spacing: normal; font-style: normal; font-weight: 400; white-space: pre; font-size: 20px; text-decoration: none solid rgb(114, 114, 114); direction: ltr; fill: rgb(114, 114, 114); fill-opacity: 1;" class="fills" id="fills-bf1c0094-aa02-8040-8005-f72e766edd59">cardinal numbers</text></g><g id="shape-bf1c0094-aa02-8040-8005-f72e766edd5a"><rect rx="0" ry="0" x="77" y="187" transform="matrix(1.000000, 0.000000, 0.000000, 1.000000, 0.000000, 0.000000)" width="1" height="69" style="fill: rgb(230, 230, 230); fill-opacity: 1;" class="fills" id="fills-bf1c0094-aa02-8040-8005-f72e766edd5a"/></g><g transform="matrix(1.000000, 0.000000, 0.000000, 1.000000, 0.000000, 0.000000)" class="text-container" id="shape-bf1c0094-aa02-8040-8005-f72e766edd5b"><defs><pattern patternUnits="userSpaceOnUse" x="30" y="208" width="39.659" height="30.909" id="fill-0-render-38-0"><rect width="39.659" height="30.909" style="fill: rgb(160, 158, 158); fill-opacity: 1;"/></pattern></defs><text x="30" y="237.091" dominant-baseline="ideographic" textLength="39.659" lengthAdjust="spacingAndGlyphs" style="text-transform: none; font-family: Sora; letter-spacing: normal; font-style: normal; font-weight: 400; white-space: pre; font-size: 24px; text-decoration: none solid rgb(160, 158, 158); direction: ltr; fill: rgb(160, 158, 158); fill-opacity: 1;" class="fills" id="fills-bf1c0094-aa02-8040-8005-f72e766edd5b">123</text></g></g><g id="strokes-8daa1605-2175-8094-8005-f732fbe75685-bf1c0094-aa02-8040-8005-f72e766edd56" class="strokes"><g class="inner-stroke-shape" transform="matrix(1.000000, 0.000000, 0.000000, 1.000000, 0.000000, 0.000000)"><defs><clipPath id="inner-stroke-render-33-bf1c0094-aa02-8040-8005-f72e766edd56-0"><use href="#stroke-shape-render-33-bf1c0094-aa02-8040-8005-f72e766edd56-0"/></clipPath><rect width="322" height="69" class="frame-background" x="19" id="stroke-shape-render-33-bf1c0094-aa02-8040-8005-f72e766edd56-0" style="fill: none; stroke-width: 2; stroke: rgb(230, 230, 230); stroke-opacity: 1;" ry="8" rx="8" y="187"/></defs><use href="#stroke-shape-render-33-bf1c0094-aa02-8040-8005-f72e766edd56-0" clip-path="url('#inner-stroke-render-33-bf1c0094-aa02-8040-8005-f72e766edd56-0')"/></g></g></g></g></g></g></svg>