<?xml version="1.0" encoding="UTF-8"?>
<svg id="Layer_1" data-name="Layer 1" xmlns="http://www.w3.org/2000/svg" viewBox="0 0 1150.148 1118.127">
  <defs>
    <style>
      .cls-1 {
        fill: none;
      }

      .cls-2 {
        fill-rule: evenodd;
      }
    </style>
  </defs>
  <path class="cls-2" d="M417.819,1010.682h-101.86c-8.438,0-16.594-3.328-22.594-9.328s-9.375-14.156-9.375-22.641v-249.84c0-8.484,3.375-16.641,9.375-22.641,6-5.953,14.156-9.328,22.594-9.328h287.11c-5.016-12.188-8.578-25.125-10.547-38.625h-38.203c-20.062,0-39.281-7.969-53.438-22.125-14.203-14.203-22.172-33.422-22.172-53.484v-52.969c0-20.062,7.969-39.281,22.172-53.484,5.109-5.109,10.922-9.422,17.156-12.844v-20.438c0-58.969,23.438-115.5,65.109-157.18,41.719-41.672,98.25-65.109,157.18-65.109h47.859c58.922,0,115.45,23.438,157.18,65.109,41.672,41.672,65.062,98.203,65.062,157.18v20.438c6.281,3.422,12.094,7.734,17.203,12.844,14.203,14.203,22.172,33.422,22.172,53.484v52.969c0,20.062-7.969,39.281-22.172,53.484-9.375,9.375-20.953,16.031-33.562,19.453v42.703c0,9.891-8.016,17.906-17.906,17.906h-60.188c-5.719,9.891-12.422,19.125-19.969,27.562l46.125,115.17.422.281c95.062,17.344,167.16,100.59,167.16,200.68v40.312c0,9.891-8.016,17.906-17.906,17.906H425.286c-5.109,0-9.984-2.203-13.359-6-3.422-3.844-5.016-8.906-4.406-14.016l10.298-87.429ZM642.719,696.902h45.141c8.484,0,16.641,3.375,22.641,9.328,3.703,3.75,6.422,8.344,7.922,13.312.938,3,1.406,6.141,1.406,9.328v28.641c10.828,3,22.219,4.594,33.938,4.594h20.906c33.984,0,65.062-13.359,87.984-35.344,3.469-3.328,6.75-6.844,9.844-10.547h-106.59c-9.844,0-17.906-8.016-17.906-17.906s8.062-17.906,17.906-17.906h127.55c4.219-10.969,6.938-22.688,7.922-34.922l11.344-136.78c-26.859,30.188-62.062,44.203-109.41,34.547-.469-.094-.938-.188-1.453-.328-29.719-8.719-52.688-32.766-67.219-72.703-16.594,17.859-34.875,27.938-54.141,32.25-20.531,4.641-42.562,2.578-65.625-4.547l12.188,147.56c1.594,18.609,7.078,36,15.656,51.422h-.004ZM719.828,794.355v9.375l44.391,63.797,52.266-75.047c-13.359,3.562-27.375,5.438-41.812,5.438h-20.906c-11.625,0-22.969-1.219-33.938-3.562h0ZM719.828,866.402v64.922l22.594-32.484-22.594-32.438ZM679.375,1010.682h-93.375l8.484,71.625h138.28l-53.389-71.625ZM581.781,974.916h102.28v-242.26h-364.26v242.26h102.28l9.047-76.5c1.078-9,8.719-15.797,17.766-15.797h106.03c9.094,0,16.734,6.797,17.812,15.797l9.045,76.5ZM589.281,622.466l-10.266-124.13c-.281-2.812-.422-5.625-.516-8.438h-24.188c-4.359,0-8.625.703-12.656,2.062-5.766,1.922-11.109,5.203-15.469,9.562-7.5,7.5-11.672,17.578-11.672,28.172v52.969c0,10.547,4.172,20.719,11.672,28.172,7.453,7.453,17.578,11.625,28.125,11.625l34.97.005ZM553.843,454.096h27.516c5.672-29.438,19.453-57.047,40.125-79.547,30.891-33.516,74.344-52.547,119.91-52.547h45.703c45.562,0,89.016,19.031,119.86,52.547,18.984,20.625,32.109,45.516,38.531,72.188.609,2.438,1.125,4.875,1.594,7.359h27.562v-11.156c0-49.453-19.641-96.891-54.609-131.86-34.969-34.969-82.406-54.609-131.86-54.609h-47.859c-49.453,0-96.891,19.641-131.86,54.609-34.969,34.969-54.609,82.406-54.609,131.86l-.004,11.156ZM994.053,617.176c3-1.734,5.766-3.844,8.25-6.328,7.5-7.453,11.672-17.625,11.672-28.172v-52.969c0-10.594-4.172-20.672-11.672-28.172-4.359-4.359-9.703-7.641-15.469-9.562-4.031-1.359-8.344-2.062-12.656-2.062h-24.188c-.094,2.812-.281,5.625-.516,8.438l-10.266,124.13h19.078v-39.984c0-9.891,7.969-17.906,17.859-17.906s17.906,8.016,17.906,17.906l.002,34.683ZM931.194,680.41h27.094v-22.125h-22.359c-1.078,7.594-2.672,14.953-4.734,22.125h0ZM938.6,894.96l-142.55,187.36h277.82v-22.406c0-81.656-58.172-149.72-135.28-164.95l.01-.004ZM715.86,999.73l48.516,65.109,48.891-64.219-49.031-70.453-48.376,69.563ZM836.05,970.668l73.547-96.703-38.812-96.797-84.703,121.69,49.968,71.81ZM445.44,1082.328h113.02l-19.406-163.87h-74.25l-19.364,163.87ZM616.58,460.768c19.781,7.453,38.578,10.734,56.062,6.797,20.391-4.594,38.203-19.406,53.859-46.922,3.656-6.516,11.016-10.031,18.422-8.859,7.359,1.219,13.219,6.891,14.672,14.203,8.906,45.094,24.422,73.969,51.656,82.359,47.672,9.375,76.922-16.734,97.875-59.156-5.438-18.562-15.094-35.859-28.453-50.391-24.094-26.156-58.031-41.016-93.562-41.016h-45.703c-35.578,0-69.469,14.859-93.562,41.016-16.125,17.531-26.812,39.047-31.266,61.969h0ZM419.29,8.478c9.375,0,18.375,3.703,24.984,10.359,6.609,6.609,10.359,15.609,10.359,24.984v579.05c0,9.422-3.75,18.375-10.359,25.031-6.609,6.609-15.609,10.312-24.984,10.312H35.39c-9.375,0-18.375-3.703-25.031-10.312-6.609-6.656-10.359-15.609-10.359-25.031V43.821c0-9.375,3.75-18.375,10.359-24.984,6.656-6.656,15.656-10.359,25.031-10.359h383.9ZM35.81,44.29v578.16h383.02V44.29H35.81ZM62.669,154.68c-6.984-6.984-6.984-18.328,0-25.312,6.984-6.984,18.328-6.984,25.312,0l19.828,19.828,39.562-60.891c5.344-8.297,16.453-10.641,24.75-5.25,8.297,5.344,10.641,16.453,5.25,24.75l-51.562,79.406c-2.953,4.547-7.781,7.5-13.172,8.062-5.344.562-10.688-1.312-14.531-5.156l-35.437-35.437ZM215.529,121.446c-9.891,0-17.906-8.016-17.906-17.906s8.016-17.906,17.906-17.906h105.09c9.891,0,17.906,8.016,17.906,17.906s-8.016,17.906-17.906,17.906h-105.09ZM215.529,189.93c-9.891,0-17.906-8.062-17.906-17.906s8.016-17.906,17.906-17.906h148.6c9.891,0,17.906,8.016,17.906,17.906s-8.016,17.906-17.906,17.906h-148.6ZM62.669,347.53c-6.984-6.984-6.984-18.328,0-25.312s18.328-6.984,25.312,0l19.828,19.828,39.562-60.891c5.344-8.297,16.453-10.641,24.75-5.297,8.297,5.391,10.641,16.5,5.25,24.797l-51.562,79.406c-2.953,4.547-7.781,7.5-13.172,8.062-5.344.562-10.688-1.312-14.531-5.109l-35.437-35.484ZM215.529,308.811c-9.891,0-17.906-8.016-17.906-17.906s8.016-17.906,17.906-17.906h105.09c9.891,0,17.906,8.016,17.906,17.906s-8.016,17.906-17.906,17.906h-105.09ZM215.529,377.249c-9.891,0-17.906-8.016-17.906-17.859s8.016-17.906,17.906-17.906h148.6c9.891,0,17.906,8.016,17.906,17.906s-8.016,17.859-17.906,17.859h-148.6ZM62.669,545.859c-6.984-6.984-6.984-18.328,0-25.312s18.328-6.984,25.312,0l19.828,19.828,39.562-60.891c5.344-8.297,16.453-10.641,24.75-5.297,8.297,5.391,10.641,16.5,5.25,24.797l-51.562,79.406c-2.953,4.547-7.781,7.5-13.172,8.062-5.344.562-10.688-1.312-14.531-5.109l-35.437-35.484ZM215.529,570.093c-9.891,0-17.906-8.016-17.906-17.859s8.016-17.906,17.906-17.906h148.6c9.891,0,17.906,8.016,17.906,17.906s-8.016,17.859-17.906,17.859h-148.6ZM215.529,501.655c-9.891,0-17.906-8.062-17.906-17.906s8.016-17.906,17.906-17.906h105.09c9.891,0,17.906,8.016,17.906,17.906s-8.016,17.906-17.906,17.906h-105.09Z"/>
  <g>
    <rect class="cls-1" x="526.242" y="23.54" width="623.906" height="160"/>
    <path d="M575.035,181.898l-.856-2.14,44.513-94.588.641,17.762c-2.567,4.28-5.387,8.062-8.452,11.342-3.069,3.284-6.421,6.099-10.058,8.453-3.639,2.354-7.384,4.14-11.235,5.35-3.853,1.213-7.778,1.819-11.771,1.819-8.132,0-15.621-2.14-22.47-6.42-6.848-4.28-12.342-9.984-16.478-17.12-4.14-7.132-6.206-14.906-6.206-23.326,0-10.128,2.28-19.223,6.848-27.285,4.564-8.059,10.807-14.445,18.726-19.153,7.918-4.708,16.799-7.062,26.643-7.062,7.132,0,13.836,1.284,20.115,3.852,6.277,2.568,11.771,6.173,16.479,10.807,4.708,4.638,8.416,9.988,11.128,16.05,2.708,6.066,4.065,12.519,4.065,19.367,0,3.568-.357,7.383-1.069,11.449-.716,4.066-1.893,8.633-3.53,13.696-1.643,5.066-3.819,10.844-6.527,17.334-2.713,6.494-6.066,14.017-10.059,22.577l-17.762,37.236h-22.684ZM582.738,108.496c5.564,0,10.557-1.248,14.98-3.745,4.42-2.495,7.881-5.848,10.379-10.058,2.494-4.207,3.745-8.951,3.745-14.231,0-5.564-1.214-10.593-3.638-15.087-2.428-4.494-5.814-8.025-10.166-10.593-4.354-2.568-9.309-3.852-14.873-3.852-5.135,0-9.703,1.25-13.695,3.745-3.996,2.498-7.169,5.922-9.523,10.272-2.354,4.354-3.531,9.453-3.531,15.301,0,4.996,1.178,9.63,3.531,13.91,2.354,4.28,5.527,7.741,9.523,10.379,3.992,2.642,8.416,3.959,13.268,3.959Z"/>
    <path d="M655.498,131.608v-21.828h61.632v21.828h-61.632Z"/>
    <path d="M774.909,171.412V49.86l7.918,5.992-29.532,15.622-6.205-20.116,40.018-21.4h11.128v141.454h-23.326ZM751.155,181.898v-22.256h71.476v22.256h-71.476Z"/>
    <path d="M846.812,131.608v-21.828h61.633v21.828h-61.633Z"/>
    <path d="M966.224,171.412V49.86l7.918,5.992-29.531,15.622-6.207-20.116,40.019-21.4h11.128v141.454h-23.326ZM942.47,181.898v-22.256h71.477v22.256h-71.477Z"/>
  </g>
</svg>