<?xml version="1.0" encoding="UTF-8"?>
<svg id="Layer_1" data-name="Layer 1" xmlns="http://www.w3.org/2000/svg" viewBox="0 0 1427.355 1275.076">
  <defs>
    <style>
      .cls-1 {
        fill: #f4ff6a;
      }
    </style>
  </defs>
  <path d="M923.434,1275.076c-134.53,0-261.1-52.5-356.26-147.66s-147.66-221.72-147.66-356.26,52.5-261.1,147.66-356.26,221.72-147.66,356.26-147.66,261.1,52.5,356.26,147.66,147.66,221.72,147.66,356.26-52.5,261.1-147.66,356.26-221.72,147.66-356.26,147.66ZM923.434,290.236c-265.31,0-480.94,215.63-480.94,480.94s215.63,480.94,480.94,480.94,480.94-215.63,480.94-480.94-215.63-480.94-480.94-480.94h0Z"/>
  <path d="M923.434,361.016c-6.328,0-11.484-5.156-11.484-11.484v-70.781c0-6.328,5.156-11.484,11.484-11.484s11.484,5.156,11.484,11.484v70.781c0,6.328-5.156,11.484-11.484,11.484Z"/>
  <path d="M1134.374,417.276c-1.875,0-3.984-.469-5.859-1.641-5.391-3.281-7.266-10.312-4.219-15.703l35.625-60.938c3.281-5.391,10.312-7.266,15.703-4.219,5.391,3.281,7.266,10.312,4.219,15.703l-35.625,60.938c-1.875,3.984-5.859,5.859-9.844,5.859h0Z"/>
  <path d="M1288.824,571.956c-3.984,0-7.734-2.109-9.844-5.625-3.281-5.391-1.406-12.422,4.219-15.703l61.406-35.625c5.391-3.281,12.422-1.406,15.703,4.219s1.406,12.422-4.219,15.703l-61.406,35.625c-2.109.938-3.984,1.406-5.859,1.406h0Z"/>
  <path d="M1415.834,782.656h-70.781c-6.328,0-11.484-5.156-11.484-11.484s5.156-11.484,11.484-11.484h70.781c6.328,0,11.484,5.156,11.484,11.484s-5.156,11.484-11.484,11.484Z"/>
  <path d="M1350.034,1028.756c-1.875,0-3.984-.469-5.625-1.641l-61.406-35.625c-5.391-3.281-7.266-10.078-4.219-15.703,3.281-5.391,10.078-7.266,15.703-4.219l61.406,35.625c5.391,3.281,7.266,10.078,4.219,15.703-2.109,3.75-6.094,5.859-10.078,5.859h0Z"/>
  <path d="M1169.994,1208.776c-3.984,0-7.734-2.109-9.844-5.625l-35.625-60.938c-3.281-5.391-1.406-12.422,4.219-15.703,5.391-3.281,12.422-1.406,15.703,4.219l35.625,60.938c3.281,5.391,1.406,12.422-4.219,15.703-1.875.938-3.984,1.406-5.859,1.406h0Z"/>
  <path d="M923.434,1275.076c-6.328,0-11.484-5.156-11.484-11.484v-70.781c0-6.328,5.156-11.484,11.484-11.484s11.484,5.156,11.484,11.484v70.781c0,6.328-5.156,11.484-11.484,11.484Z"/>
  <path d="M677.114,1208.976c-1.875,0-3.984-.469-5.859-1.641-5.391-3.281-7.266-10.312-4.219-15.703l35.859-61.172c3.281-5.391,10.312-7.266,15.703-4.219,5.391,3.281,7.266,10.312,4.219,15.703l-35.859,61.172c-2.109,3.984-5.859,5.859-9.844,5.859h0Z"/>
  <path d="M497.114,1028.986c-3.984,0-7.734-2.109-9.844-5.625-3.281-5.391-1.406-12.422,4.219-15.703l61.641-35.859c5.391-3.281,12.422-1.406,15.703,4.219,3.281,5.391,1.406,12.422-4.219,15.703l-61.641,35.859c-2.109.938-3.984,1.406-5.859,1.406h0Z"/>
  <path d="M502.254,782.656h-71.25c-6.328,0-11.484-5.156-11.484-11.484s5.156-11.484,11.484-11.484h71.25c6.328,0,11.484,5.156,11.484,11.484s-5.156,11.484-11.484,11.484Z"/>
  <path d="M558.514,571.956c-1.875,0-3.984-.469-5.625-1.641l-61.641-35.859c-5.391-3.281-7.266-10.078-4.219-15.703,3.281-5.391,10.078-7.266,15.703-4.219l61.641,35.859c5.391,3.281,7.266,10.078,4.219,15.703-2.109,3.984-6.094,5.859-10.078,5.859Z"/>
  <path d="M712.964,417.276c-3.984,0-7.734-2.109-9.844-5.625l-35.859-61.172c-3.281-5.391-1.406-12.422,4.219-15.703,5.391-3.281,12.422-1.406,15.703,4.219l35.859,61.172c3.281,5.391,1.406,12.422-4.219,15.703-2.109.938-3.984,1.406-5.859,1.406h0Z"/>
  <path d="M923.434,822.966c-28.594,0-51.797-23.203-51.797-51.797s23.203-51.797,51.797-51.797,51.797,23.203,51.797,51.797-23.203,51.797-51.797,51.797ZM923.434,742.341c-15.938,0-28.828,12.891-28.828,28.828s12.891,28.828,28.828,28.828,28.828-12.891,28.828-28.828-12.891-28.828-28.828-28.828Z"/>
  <path d="M1232.574,782.656h-269.06c-6.328,0-11.484-5.156-11.484-11.484s5.156-11.484,11.484-11.484h269.06c6.328,0,11.484,5.156,11.484,11.484s-5.156,11.484-11.484,11.484Z"/>
  <path d="M923.434,742.356c-6.328,0-11.484-5.156-11.484-11.484v-241.87c0-6.328,5.156-11.484,11.484-11.484s11.484,5.156,11.484,11.484v241.64c0,6.562-5.156,11.719-11.484,11.719v-.005Z"/>
  <polygon class="cls-1" points="115.298 356.094 135.34 253.203 217.52 167.986 322.521 143.632 428.645 171.993 495.457 249.864 523.756 356.094 115.298 356.094"/>
  <path d="M557.184,348.539h-28.468c-.157-116.413-94.926-211.019-211.333-211.019s-211.179,94.612-211.333,211.019h-31.913c-4.416,0-8.018,3.602-8.018,8.018s3.602,8.018,8.018,8.018h483.05c4.416,0,8.018-3.602,8.018-8.018s-3.602-8.018-8.018-8.018h-.003ZM317.384,153.553c107.607,0,195.144,87.47,195.298,194.984H122.078c.157-107.607,87.717-194.984,195.298-194.984h.007Z"/>
  <path d="M322.521,113.934c4.416,0,8.018-3.602,8.018-8.018V8.018c0-4.416-3.602-8.018-8.018-8.018s-8.018,3.602-8.018,8.018v97.9c0,4.416,3.602,8.018,8.018,8.018h0Z"/>
  <path d="M233.2,124.203c1.19,3.288,4.259,5.293,7.548,5.293.877,0,1.848-.157,2.725-.47,4.165-1.535,6.326-6.106,4.823-10.273l-22.518-61.884c-1.535-4.165-6.106-6.326-10.273-4.823-4.165,1.535-6.326,6.106-4.823,10.273l22.517,61.884h.001Z"/>
  <path d="M163.141,169.268c1.597,1.754,3.758,2.725,6.013,2.725,1.848,0,3.758-.627,5.293-2.005,3.383-2.975,3.696-8.018.72-11.306l-58.377-66.457c-2.975-3.288-8.018-3.602-11.306-.72-3.383,2.975-3.696,8.018-.72,11.306,0,0,58.377,66.457,58.377,66.457Z"/>
  <path d="M55.374,202.533l56.999,32.947c1.285.72,2.63,1.033,4.008,1.033,2.818,0,5.45-1.44,6.984-4.008,2.255-3.853.877-8.738-2.975-10.993l-56.999-32.947c-3.853-2.255-8.738-.877-10.993,2.975-2.255,3.853-.877,8.738,2.975,10.993h.001Z"/>
  <path d="M88.98,315.092c3.602,0,6.89-2.475,7.767-6.17,1.033-4.322-1.597-8.645-5.92-9.709l-80.895-19.479c-4.322-1.033-8.645,1.597-9.709,5.92-1.033,4.322,1.597,8.645,5.92,9.709l80.895,19.479c.627.157,1.285.25,1.848.25,0,0,.093,0,.093,0Z"/>
  <path d="M649.86,279.668c-1.033-4.322-5.386-6.984-9.709-5.92l-80.895,19.479c-4.322,1.033-6.984,5.386-5.92,9.709.877,3.696,4.165,6.17,7.767,6.17.627,0,1.285,0,1.848-.25l80.895-19.479c4.322-1.033,6.984-5.386,5.92-9.709h.093Z"/>
  <path d="M524.801,227.053c1.535,2.568,4.165,4.008,6.984,4.008,1.378,0,2.725-.313,4.008-1.033l56.999-32.947c3.853-2.255,5.136-7.141,2.975-10.993-2.255-3.853-7.141-5.136-10.993-2.975l-56.999,32.947c-3.853,2.255-5.136,7.141-2.975,10.993h.001Z"/>
  <path d="M477.325,167.986c2.255,0,4.416-.971,6.013-2.725l58.377-66.457c2.881-3.383,2.568-8.424-.72-11.306-3.383-2.881-8.424-2.568-11.306.72l-58.377,66.457c-2.881,3.383-2.568,8.424.72,11.306,1.535,1.378,3.445,2.005,5.293,2.005h0Z"/>
  <path d="M401.974,126.836c.877.313,1.848.47,2.725.47,3.288,0,6.326-2.005,7.548-5.293l22.518-61.884c1.535-4.165-.627-8.738-4.823-10.273-4.165-1.535-8.738.627-10.273,4.823l-22.518,61.884c-1.535,4.165.627,8.738,4.823,10.273h0Z"/>
  <path d="M322.521,328.572c4.613,0,8.354-3.741,8.354-8.354v-91.228l30.308,30.308c1.611,1.611,3.786,2.458,5.896,2.458s4.287-.827,5.896-2.458c3.285-3.285,3.285-8.572,0-11.814l-44.558-44.558c-.784-.784-1.719-1.393-2.719-1.827-.065,0-.108,0-.108-.065-.957-.391-1.957-.609-3.067-.609s-2.11.218-3.067.609c-.065,0-.108,0-.108.065-1.065.436-1.957,1.065-2.719,1.827l-44.558,44.558c-3.285,3.285-3.285,8.572,0,11.814,3.285,3.285,8.572,3.285,11.814,0l30.308-30.308-.022,91.228c0,4.613,3.741,8.354,8.354,8.354h-.003Z"/>
</svg>