<?xml version="1.0" encoding="UTF-8"?>
<svg id="Layer_1" data-name="Layer 1" xmlns="http://www.w3.org/2000/svg" viewBox="0 0 1100.242 1100.32">
  <path d="M938.767,161.42c-61.551-61.812-136.96-108.04-219.96-134.86C635.802-.256,547.596-6.889,461.517,7.22c-111.02,18.648-213.72,70.688-294.42,149.18C86.397,234.892,31.536,336.11,9.816,446.57c-21.883,114.04-6.965,232.09,42.602,337.1l-30.551,151.65c-7.906,39.82,4.582,80.957,33.289,109.66,28.703,28.707,69.84,41.195,109.66,33.289l151.45-30.301c73.016,34.523,152.79,52.406,233.55,52.352,34.824-.016,69.574-3.262,103.8-9.699,110.51-21.75,211.77-76.668,290.27-157.43,78.504-80.762,130.53-183.54,149.13-294.62,14.117-86.07,7.484-174.27-19.344-257.25-26.828-82.988-73.078-158.38-134.91-219.89l.004-.011ZM994.119,623.17c-15.234,93.52-59.637,179.84-126.86,246.61-67.227,66.777-153.84,110.6-247.46,125.21-93.621,14.609-189.46-.746-273.84-43.867-7.02-3.617-14.801-5.504-22.699-5.5-3.359,0-6.707.336-10,1l-168,33.602v-.004c-7.102,1.406-14.438-.82-19.555-5.941-5.121-5.121-7.352-12.453-5.945-19.559l33.602-168.05v.004c2.223-11.031.637-22.488-4.5-32.5-43.094-84.391-58.422-180.24-43.789-273.86,14.633-93.617,58.469-180.22,125.26-247.44,66.785-67.219,153.11-111.61,246.63-126.85,94.359-15.359,191.16-.312,276.4,42.965,85.242,43.277,154.51,112.55,197.79,197.79,43.277,85.242,58.324,182.04,42.965,276.4v-.01Z"/>
  <path d="M599.817,700.32v-200c0-13.262-5.269-25.98-14.645-35.355s-22.094-14.645-35.355-14.645h-50c-17.863,0-34.371,9.531-43.301,25-8.934,15.469-8.934,34.531,0,50,8.93,15.469,25.438,25,43.301,25v200c0,13.262,5.269,25.98,14.645,35.355s22.094,14.645,35.355,14.645h50c17.863,0,34.371-9.531,43.301-25,8.934-15.469,8.934-34.531,0-50-8.93-15.469-25.438-25-43.301-25Z"/>
  <path d="M599.817,350.32c0,27.613-22.387,50-50,50s-50-22.387-50-50,22.387-50,50-50,50,22.387,50,50Z"/>
</svg>