<?xml version="1.0" encoding="UTF-8"?>
<svg xmlns="http://www.w3.org/2000/svg" viewBox="0 0 744.111 1051.627">
  <defs>
    <style>
      .cls-1 {
        fill: red;
      }
    </style>
  </defs>
  <g id="Layer_2" data-name="Layer 2">
    <circle class="cls-1" cx="401.875" cy="124.334" r="118.295"/>
  </g>
  <g id="Layer_1" data-name="Layer 1">
    <path d="M718.487,347.005l-161.25,164.12c4.293,7.184,6.766,15.57,6.766,24.512v318.01h8.629c7.828.047,7.984,11.949,0,12h-8.629v123.9l124.04-123.9h-19.41c-7.828-.047-7.984-11.949,0-12h24c1.981.012,3.766.941,4.894,2.527l13.668-13.652c5.5-5.469,8.918-10.535,8.918-18.875v-468c0-3.039-.578-5.953-1.625-8.641v-.002ZM446.017,75.255c-5.852-5.266,2.164-14.172,8.016-8.906,53.449,48.105,18.316,135.98-52.156,135.98-7.891,0-7.891-12,0-12,59.629,0,89.391-74.355,44.141-115.08v.006ZM489.935,36.275c48.367,48.367,48.367,127.75,0,176.12-48.367,48.37-127.75,48.367-176.12,0-48.367-48.367-48.367-127.75,0-176.12,48.367-48.367,127.75-48.367,176.12,0h0ZM472.966,53.244c-39.043-39.043-103.14-39.043-142.18,0-39.043,39.043-39.043,103.14,0,142.18,39.043,39.043,103.14,39.043,142.18,0,39.043-39.047,39.043-103.14,0-142.18ZM212.266,337.644l-17.625,17.605c1.984.93,3.453,2.93,3.469,5.438v24c-.047,7.828-11.949,7.984-12,0v-20.914l-124,123.87h124v-6.949c.047-7.828,11.949-7.984,12,0v6.949h317.89c8.84,0,17.137,2.414,24.262,6.617l159.49-162.33c-1.188-.184-2.406-.277-3.641-.277H228.111c-5.879,0-11.441,2.117-15.844,6v-.008ZM24.536,491.374c55.336-54.84,116.52-111.93,168.29-168.18,9.09-9.879,21.848-15.559,35.285-15.559h468c26.426,0,48,21.574,48,48v468c0,14.617-5.992,25.855-16.043,35.844l-169.49,169.3c-12.719,12.703-21.707,22.848-42.578,22.848H48c-26.426,0-48-21.574-48-48v-468c0-21.602,11.246-31.09,24.531-44.258l.005.005ZM516.006,511.632H48.006c-13.176,0-24,10.824-24,24v468c0,13.176,10.824,24,24,24h468c13.176,0,24-10.824,24-24v-468c0-13.176-10.824-24-24-24ZM198.116,420.683c-.051-7.984-11.953-7.828-12,0v24c.051,7.984,11.953,7.828,12,0v-24ZM198.116,540.683c-.051-7.984-11.953-7.828-12,0v24c.051,7.984,11.953,7.828,12,0v-24ZM198.116,600.683c-.051-7.984-11.953-7.828-12,0v24c.051,7.984,11.953,7.828,12,0v-24ZM198.116,660.683c-.051-7.984-11.953-7.828-12,0v24c.051,7.984,11.953,7.828,12,0v-24ZM198.116,720.683c-.051-7.984-11.953-7.828-12,0v24c.051,7.984,11.953,7.828,12,0v-24ZM198.116,780.683c-.051-7.984-11.953-7.828-12,0v24c.051,7.984,11.953,7.828,12,0v-24ZM201.417,837.273c-3.699-7.051-14.227-1.434-10.641,5.547,4.324,8.367,11.293,15.008,19.828,18.977,7.188,3.277,12.195-7.578,5.023-10.898-6.129-2.848-11.109-7.621-14.211-13.629v.003ZM248.636,853.644c-7.984.051-7.828,11.953,0,12h24c7.984-.051,7.828-11.953,0-12h-24ZM308.636,853.644c-7.984.051-7.828,11.953,0,12h24c7.984-.051,7.828-11.953,0-12h-24ZM368.636,853.644c-7.984.051-7.828,11.953,0,12h24c7.984-.051,7.828-11.953,0-12h-24ZM428.636,853.644c-7.984.051-7.828,11.953,0,12h24c7.984-.051,7.828-11.953,0-12h-24ZM488.636,853.644c-7.984.051-7.828,11.953,0,12h24c7.984-.051,7.828-11.953,0-12h-24ZM608.636,853.644c-7.984.051-7.828,11.953,0,12h24c7.984-.051,7.828-11.953,0-12h-24ZM191.796,870.218c5.66-5.66-2.922-14-8.457-8.512l-17.023,16.914c-5.66,5.66,2.922,14,8.457,8.512l17.023-16.914ZM38.626,1005.488c-5.66,5.66,2.922,14,8.457,8.512l17.023-16.914c5.66-5.66-2.922-14-8.457-8.512l-17.023,16.914ZM81.188,963.199c-5.66,5.66,2.922,14,8.457,8.512l17.023-16.914c5.66-5.66-2.922-14-8.457-8.512l-17.023,16.914ZM123.75,920.91c-5.66,5.66,2.922,14,8.457,8.512l17.023-16.914c5.66-5.66-2.922-14-8.457-8.512l-17.023,16.914Z"/>
  </g>
</svg>