<?xml version="1.0" encoding="UTF-8"?>
<svg xmlns="http://www.w3.org/2000/svg" viewBox="0 0 639.261 277.163">
  <defs>
    <style>
      .cls-1 {
        fill: #fff;
      }

      .cls-2 {
        fill: #606060;
      }

      .cls-3 {
        fill: red;
      }

      .cls-4 {
        fill: none;
        stroke: #000;
        stroke-miterlimit: 10;
        stroke-width: 19px;
      }
    </style>
  </defs>
  <g id="Layer_1" data-name="Layer 1">
    <path class="cls-2" d="M371.167,102.983l-150.334,151.206h33.747l149.873-150.743c-11.081-.151-22.19-.472-33.286-.463Z"/>
    <path class="cls-2" d="M373.755,105.681l-16.108.05c-15.723,0-15.723-23.906,0-23.906l59.602-.16.609,55.379c.121,15.723-23.785,15.91-23.906.188l-.195-17.719"/>
    <polygon class="cls-4" points="424.152 251.25 28.864 254.695 266.245 76.872 614.781 77.621 424.152 251.25"/>
  </g>
  <g id="Layer_3" data-name="Layer 3">
    <polygon class="cls-1" points="241.073 274.805 268.938 246.33 268.938 175.147 262.271 173.027 195.604 173.027 166.715 201.694 166.715 271.027 169.767 274.805 241.073 274.805"/>
    <path d="M266.362,177.322l-22.848,23.255c.608,1.018.959,2.206.959,3.473v45.06h1.223c1.109.007,1.131,1.693,0,1.7h-1.223v17.556l17.576-17.556h-2.75c-1.109-.007-1.131-1.693,0-1.7h3.401c.281.002.534.133.694.358l1.937-1.934c.779-.775,1.264-1.493,1.264-2.674v-66.313c0-.431-.082-.844-.23-1.224h0ZM194.634,175.996l-2.497,2.495c.281.132.489.415.492.77v3.401c-.007,1.109-1.693,1.131-1.7,0v-2.963l-17.57,17.552h17.57v-.985c.007-1.109,1.693-1.131,1.7,0v.985h45.043c1.253,0,2.428.342,3.438.938l22.599-23.001c-.168-.026-.341-.039-.516-.039h-66.313c-.833,0-1.621.3-2.245.85h0ZM168.034,197.778c7.841-7.77,16.51-15.86,23.846-23.83,1.288-1.4,3.096-2.205,5-2.205h66.313c3.744,0,6.801,3.057,6.801,6.801v66.313c0,2.071-.849,3.663-2.273,5.079l-24.016,23.989c-1.802,1.8-3.076,3.237-6.033,3.237h-66.313c-3.744,0-6.801-3.057-6.801-6.801v-66.313c0-3.061,1.593-4.405,3.476-6.271h0ZM237.672,200.649h-66.313c-1.867,0-3.401,1.534-3.401,3.401v66.313c0,1.867,1.534,3.401,3.401,3.401h66.313c1.867,0,3.401-1.534,3.401-3.401v-66.313c0-1.867-1.534-3.401-3.401-3.401ZM192.629,187.762c-.007-1.131-1.694-1.109-1.7,0v3.401c.007,1.131,1.694,1.109,1.7,0v-3.401ZM192.629,204.765c-.007-1.131-1.694-1.109-1.7,0v3.401c.007,1.131,1.694,1.109,1.7,0v-3.401ZM192.629,213.267c-.007-1.131-1.694-1.109-1.7,0v3.401c.007,1.131,1.694,1.109,1.7,0v-3.401ZM192.629,221.768c-.007-1.131-1.694-1.109-1.7,0v3.401c.007,1.131,1.694,1.109,1.7,0v-3.401ZM192.629,230.27c-.007-1.131-1.694-1.109-1.7,0v3.401c.007,1.131,1.694,1.109,1.7,0v-3.401ZM192.629,238.772c-.007-1.131-1.694-1.109-1.7,0v3.401c.007,1.131,1.694,1.109,1.7,0v-3.401ZM193.097,246.79c-.524-.999-2.016-.203-1.508.786.613,1.186,1.6,2.127,2.81,2.689,1.018.464,1.728-1.074.712-1.544-.868-.404-1.574-1.08-2.014-1.931h0ZM199.787,249.11c-1.131.007-1.109,1.694,0,1.7h3.401c1.131-.007,1.109-1.694,0-1.7h-3.401ZM208.289,249.11c-1.131.007-1.109,1.694,0,1.7h3.401c1.131-.007,1.109-1.694,0-1.7h-3.401ZM216.791,249.11c-1.131.007-1.109,1.694,0,1.7h3.401c1.131-.007,1.109-1.694,0-1.7h-3.401ZM225.292,249.11c-1.131.007-1.109,1.694,0,1.7h3.401c1.131-.007,1.109-1.694,0-1.7h-3.401ZM233.794,249.11c-1.131.007-1.109,1.694,0,1.7h3.401c1.131-.007,1.109-1.694,0-1.7h-3.401ZM250.797,249.11c-1.131.007-1.109,1.694,0,1.7h3.401c1.131-.007,1.109-1.694,0-1.7h-3.401ZM191.733,251.458c.802-.802-.414-1.984-1.198-1.206l-2.412,2.397c-.802.802.414,1.984,1.198,1.206l2.412-2.397ZM170.03,270.625c-.802.802.414,1.984,1.198,1.206l2.412-2.397c.802-.802-.414-1.984-1.198-1.206l-2.412,2.397ZM176.061,264.633c-.802.802.414,1.984,1.198,1.206l2.412-2.397c.802-.802-.414-1.984-1.198-1.206l-2.412,2.397ZM182.092,258.641c-.802.802.414,1.984,1.198,1.206l2.412-2.397c.802-.802-.414-1.984-1.198-1.206l-2.412,2.397Z"/>
  </g>
  <g id="Layer_2" data-name="Layer 2">
    <circle class="cls-3" cx="424.961" cy="41.488" r="40.177"/>
    <path d="M425.338,64.684c2.67-.141,2.884,3.923.214,4.064-24.389,1.283-37.055-28.258-20.131-45.182,1.895-1.895,4.777.987,2.882,2.882-14.32,14.32-3.611,39.325,17.036,38.238v-.002ZM424.152,84.592c-23.231,0-42.296-19.064-42.296-42.296,0-23.232,19.064-42.296,42.296-42.296,23.231,0,42.296,19.064,42.296,42.296,0,23.231-19.064,42.296-42.296,42.296h0ZM424.152,76.442c18.753,0,34.146-15.393,34.145-34.145,0-18.753-15.393-34.146-34.145-34.145-18.753,0-34.146,15.393-34.145,34.145,0,18.754,15.393,34.146,34.145,34.145Z"/>
  </g>
</svg>