<?xml version="1.0" encoding="UTF-8"?>
<svg width="1200pt" height="1200pt" version="1.1" viewBox="0 0 1200 1200" xmlns="http://www.w3.org/2000/svg">
 <path d="m600 1055.4c-5.4375 0-10.688-2.4375-14.25-6.75l-306-381.94c-99.562-124.31-118.5-290.63-49.688-434.06 69-143.44 210.74-232.69 369.94-232.69 159.19 0 300.94 89.25 369.74 232.69 69 143.44 49.875 309.94-49.688 434.06l-305.81 381.94c-3.5625 4.3125-8.8125 6.75-14.25 6.75zm0-1019.1c-145.13 0-274.31 81.188-337.13 212.06-62.82 130.88-45.375 282.37 45.188 395.63l291.94 364.13 291.74-364.13c90.75-113.25 108-264.74 45.188-395.63-62.625-130.87-191.81-212.06-336.94-212.06z"/>
 <path d="m600 598.87c-109.31 0-198.19-88.875-198.19-198.19 0-109.32 88.875-198.19 198.19-198.19s198.19 88.875 198.19 198.19c0 109.32-88.875 198.19-198.19 198.19zm0-360c-89.25 0-161.81 72.562-161.81 161.81 0 89.246 72.562 161.81 161.81 161.81s161.81-72.562 161.81-161.81c0-89.246-72.562-161.81-161.81-161.81z"/>
 <path d="m1083.2 1200h-966.37c-6.1875 0-11.812-3.1875-15.188-8.25s-3.9375-11.625-1.5-17.25l156.94-356.63c2.8125-6.5625 9.375-10.875 16.688-10.875h156.37c10.125 0 18.188 8.0625 18.188 18.188s-8.0625 18.188-18.188 18.188h-144.56l-141 320.26h910.69l-141-320.26h-144.56c-10.125 0-18.188-8.0625-18.188-18.188s8.0625-18.188 18.188-18.188h156.37c7.125 0 13.688 4.3125 16.688 10.875l156.94 356.63c2.4375 5.625 1.875 12.188-1.5 17.25-3.1875 5.0625-8.8125 8.25-15 8.25z"/>
</svg>
