<?xml version="1.0" encoding="UTF-8"?>
<svg id="Layer_1" xmlns="http://www.w3.org/2000/svg" version="1.1" viewBox="0 0 347.3 365.6">
  <!-- Generator: Adobe Illustrator 29.2.1, SVG Export Plug-In . SVG Version: 2.1.0 Build 116)  -->
  <defs>
    <style>
      .st0 {
        fill: #f4ff6a;
        stroke: #000;
        stroke-miterlimit: 10;
        stroke-width: 12px;
      }
    </style>
  </defs>
  <path d="M173.9,60.4c2.3,0,4.2-1.9,4.2-4.2V4.2c0-2.3-1.9-4.2-4.2-4.2s-4.2,1.9-4.2,4.2v51.9c0,2.3,1.9,4.2,4.2,4.2Z"/>
  <path d="M126.6,65.8c.6,1.7,2.3,2.8,4,2.8s1,0,1.4-.2c2.2-.8,3.4-3.2,2.6-5.4l-11.9-32.8c-.8-2.2-3.2-3.4-5.4-2.6-2.2.8-3.4,3.2-2.6,5.4l11.9,32.8h0Z"/>
  <path d="M89.4,89.7c.8.9,2,1.4,3.2,1.4s2-.3,2.8-1.1c1.8-1.6,2-4.2.4-6l-30.9-35.2c-1.6-1.7-4.2-1.9-6-.4-1.8,1.6-2,4.2-.4,6l30.9,35.2h0Z"/>
  <path d="M32.4,107.3l30.2,17.5c.7.4,1.4.5,2.1.5,1.5,0,2.9-.8,3.7-2.1,1.2-2,.5-4.6-1.6-5.8l-30.2-17.5c-2-1.2-4.6-.5-5.8,1.6s-.5,4.6,1.6,5.8h0Z"/>
  <path d="M50.2,166.9c1.9,0,3.7-1.3,4.1-3.3.5-2.3-.8-4.6-3.1-5.1l-42.9-10.3c-2.3-.5-4.6.8-5.1,3.1-.5,2.3.8,4.6,3.1,5.1l42.9,10.3c.3,0,.7.1,1,.1h0Z"/>
  <path d="M347.3,148.1c-.5-2.3-2.9-3.7-5.1-3.1l-42.9,10.3c-2.3.5-3.7,2.9-3.1,5.1.5,2,2.2,3.3,4.1,3.3s.7,0,1-.1l42.9-10.3c2.3-.5,3.7-2.9,3.1-5.1h0Z"/>
  <path d="M281,120.3c.8,1.4,2.2,2.1,3.7,2.1s1.4-.2,2.1-.5l30.2-17.5c2-1.2,2.7-3.8,1.6-5.8-1.2-2-3.8-2.7-5.8-1.6l-30.2,17.5c-2,1.2-2.7,3.8-1.6,5.8h0Z"/>
  <path d="M255.9,89c1.2,0,2.3-.5,3.2-1.4l30.9-35.2c1.5-1.8,1.4-4.5-.4-6-1.8-1.5-4.5-1.4-6,.4l-30.9,35.2c-1.5,1.8-1.4,4.5.4,6,.8.7,1.8,1.1,2.8,1.1h0Z"/>
  <path d="M216,67.2c.5.2,1,.2,1.4.2,1.7,0,3.4-1.1,4-2.8l11.9-32.8c.8-2.2-.3-4.6-2.6-5.4-2.2-.8-4.6.3-5.4,2.6l-11.9,32.8c-.8,2.2.3,4.6,2.6,5.4h0Z"/>
  <circle class="st0" cx="170.2" cy="183.5" r="106.9"/>
  <path d="M173.6,305.2c-2.3,0-4.2,1.9-4.2,4.2v51.9c0,2.3,1.9,4.2,4.2,4.2s4.2-1.9,4.2-4.2v-51.9c0-2.3-1.9-4.2-4.2-4.2Z"/>
  <path d="M220.9,299.7c-.6-1.7-2.3-2.8-4-2.8s-1,0-1.4.2c-2.2.8-3.4,3.2-2.6,5.4l11.9,32.8c.8,2.2,3.2,3.4,5.4,2.6,2.2-.8,3.4-3.2,2.6-5.4l-11.9-32.8Z"/>
  <path d="M258.1,275.8c-.8-.9-2-1.4-3.2-1.4s-2,.3-2.8,1.1c-1.8,1.6-2,4.2-.4,6l30.9,35.2c1.6,1.7,4.2,1.9,6,.4,1.8-1.6,2-4.2.4-6l-30.9-35.2h0Z"/>
  <path d="M315.2,258.2l-30.2-17.5c-.7-.4-1.4-.5-2.1-.5-1.5,0-2.9.8-3.7,2.1-1.2,2-.5,4.6,1.6,5.8l30.2,17.5c2,1.2,4.6.5,5.8-1.6s.5-4.6-1.6-5.8h0Z"/>
  <path d="M297.4,198.5c-1.9,0-3.7,1.3-4.1,3.3-.5,2.3.8,4.6,3.1,5.1l42.9,10.3c2.3.5,4.6-.8,5.1-3.1.5-2.3-.8-4.6-3.1-5.1l-42.9-10.3c-.3,0-.7-.1-1-.1h0Z"/>
  <path d="M0,217.3c.5,2.3,2.9,3.7,5.1,3.1l42.9-10.3c2.3-.5,3.7-2.9,3.1-5.1-.5-2-2.2-3.3-4.1-3.3s-.7,0-1,.1l-42.9,10.3c-2.3.5-3.7,2.9-3.1,5.1h0Z"/>
  <path d="M66.4,245.2c-.8-1.4-2.2-2.1-3.7-2.1s-1.4.2-2.1.5l-30.2,17.5c-2,1.2-2.7,3.8-1.6,5.8,1.2,2,3.8,2.7,5.8,1.6l30.2-17.5c2-1.2,2.7-3.8,1.6-5.8Z"/>
  <path d="M91.5,276.5c-1.2,0-2.3.5-3.2,1.4l-30.9,35.2c-1.5,1.8-1.4,4.5.4,6,1.8,1.5,4.5,1.4,6-.4l30.9-35.2c1.5-1.8,1.4-4.5-.4-6-.8-.7-1.8-1.1-2.8-1.1h0Z"/>
  <path d="M131.5,298.3c-.5-.2-1-.2-1.4-.2-1.7,0-3.4,1.1-4,2.8l-11.9,32.8c-.8,2.2.3,4.6,2.6,5.4,2.2.8,4.6-.3,5.4-2.6l11.9-32.8c.8-2.2-.3-4.6-2.6-5.4h0Z"/>
  <g>
    <path d="M103,223.7v-74.5h10.4v12l-1.6-.9c.4-2,1.5-3.9,3.4-5.8,1.9-1.8,4.1-3.3,6.9-4.5,2.7-1.2,5.5-1.8,8.4-1.8,4.7,0,8.9,1.2,12.6,3.5,3.7,2.3,6.6,5.5,8.7,9.6,2.1,4.1,3.2,8.7,3.2,14s-1.1,9.9-3.1,13.9c-2.1,4.1-5,7.3-8.7,9.7-3.7,2.4-7.8,3.5-12.4,3.5s-6-.6-8.9-1.8c-2.9-1.2-5.3-2.8-7.3-4.8-2-1.9-3.2-3.9-3.7-6l2.6-1.4v35.1h-10.4ZM129,193.1c3.1,0,5.8-.8,8.2-2.3,2.4-1.5,4.3-3.6,5.7-6.3,1.4-2.7,2.1-5.7,2.1-9.1s-.7-6.4-2.1-9.1c-1.4-2.6-3.2-4.7-5.6-6.2-2.4-1.5-5.2-2.3-8.3-2.3s-5.9.8-8.3,2.2-4.3,3.6-5.7,6.2c-1.4,2.7-2.1,5.7-2.1,9.1s.7,6.4,2.1,9.1c1.4,2.7,3.3,4.8,5.7,6.3,2.4,1.5,5.2,2.3,8.3,2.3Z"/>
    <path d="M165.9,201.7v-52.5h10.4v11.2l-1.9,1.2c.5-1.7,1.4-3.4,2.5-5,1.2-1.6,2.6-3,4.3-4.2,1.7-1.2,3.5-2.2,5.5-2.9,2-.7,4-1.1,6.1-1.1,3,0,5.6.5,7.9,1.5,2.3,1,4.1,2.5,5.6,4.5,1.5,2,2.5,4.5,3.2,7.5l-1.6-.4.7-1.7c.7-1.5,1.8-3,3-4.4,1.3-1.4,2.8-2.6,4.5-3.6,1.7-1.1,3.4-1.9,5.3-2.5,1.9-.6,3.7-.9,5.5-.9,3.9,0,7.2.8,9.8,2.4,2.6,1.6,4.5,4,5.8,7.3,1.3,3.3,2,7.3,2,12.2v31.5h-10.4v-30.9c0-3-.4-5.5-1.1-7.4-.8-1.9-1.9-3.3-3.5-4.2-1.5-.9-3.5-1.4-5.9-1.4s-3.6.3-5.2.9c-1.6.6-3,1.5-4.2,2.7-1.2,1.1-2.1,2.4-2.8,3.9-.7,1.5-1,3.1-1,5v31.4h-10.4v-31.1c0-2.7-.4-5-1.2-6.9-.8-1.9-2-3.4-3.5-4.4-1.5-1-3.4-1.5-5.6-1.5s-3.6.3-5.2.9c-1.6.6-3,1.5-4.2,2.6s-2.1,2.4-2.8,3.9c-.7,1.5-1,3.1-1,4.9v31.6h-10.4Z"/>
  </g>
</svg>