<?xml version="1.0" encoding="UTF-8"?>
<svg id="Layer_1" data-name="Layer 1" xmlns="http://www.w3.org/2000/svg" viewBox="0 0 948.092 516.87">
  <defs>
    <style>
      .cls-1 {
        fill-rule: evenodd;
      }
    </style>
  </defs>
  <path class="cls-1" d="M829.881,141.401c10.969-5.953,13.969-7.734,24.891-13.969-56.578,52.125-143.72,120.37-220.26,135.47-115.31,22.734-208.5-10.875-303.19-74.438-42.375-28.453-85.266-60.422-127.78-89.859-73.312-50.812-117.33-19.172-169.78,38.766C81.574,52.246,137.542,12.111,237.242,60.355c35.344,17.109,96.422,67.547,134.21,91.969,79.734,51.562,157.22,78.188,252.98,59.297,86.625-17.062,126.66-27.516,205.5-70.172l-.051-.048ZM602.541,338.271c-85.828,10.594-150.14-8.531-223.36-52.453-41.766-25.031-128.72-93.656-165.05-106.97-98.203-35.953-147.61,8.344-192.24,88.547,42.703-46.875,89.156-88.219,154.74-52.828,15,8.062,43.828,26.531,58.547,36.422,109.92,73.828,194.76,148.74,338.76,142.36,63.938-2.812,115.08-27.375,168.05-61.406,28.828-18.516,53.906-38.297,79.922-60.516-19.219,9.938-37.734,18.984-57.703,27.375-61.547,25.875-94.828,31.172-161.68,39.422l.014.047ZM580.65,461.411c-85.828,10.594-150.14-8.531-223.36-52.453-41.766-25.031-128.72-93.656-165.05-106.97-98.203-35.953-147.61,8.344-192.24,88.547,42.703-46.875,89.156-88.219,154.74-52.828,15,8.062,43.828,26.531,58.547,36.422,109.92,73.828,194.76,148.74,338.76,142.36,63.938-2.812,115.08-27.375,168.05-61.406,28.828-18.516,53.906-38.297,79.922-60.516-19.219,9.938-37.734,18.984-57.703,27.375-61.547,25.875-94.828,31.172-161.68,39.422l.014.047ZM521.962,177.911c104.2,17.531,184.82-42.375,268.31-93.281,65.062-39.656,75.234-65.016,157.82-82.406-63.656-7.641-130.08,4.266-185.11,37.828-73.5,44.812-141.71,99.281-232.97,86.25-70.922-10.125-94.453-16.078-159.47-51.281,38.766,41.812,93.047,93.047,151.36,102.89h.06Z"/>
</svg>