<?xml version="1.0" encoding="UTF-8"?>
<svg id="Layer_1" data-name="Layer 1" xmlns="http://www.w3.org/2000/svg" viewBox="0 0 1133.389 1133.37">
  <path d="M1116.688,1133.37H16.688c-9.188,0-16.688-7.453-16.688-16.688v-66.656c0-9.188,7.453-16.688,16.688-16.688h1100c9.188,0,16.688,7.453,16.688,16.688v66.656c0,9.234-7.453,16.688-16.688,16.688ZM33.388,1100.042h1066.7v-33.328H33.388v33.328Z"/>
  <path d="M333.348,1066.67H100.008c-9.188,0-16.688-7.453-16.688-16.688V416.662c0-9.188,7.453-16.688,16.688-16.688h233.34c9.188,0,16.688,7.453,16.688,16.688v633.32c0,9.234-7.5,16.688-16.688,16.688ZM116.688,1033.342h200.02l-.047-600H116.641l.047,600Z"/>
  <path d="M333.348,433.36H100.008c-5.25,0-10.172-2.484-13.312-6.656l-50.016-66.656c-8.203-10.969-.375-26.672,13.312-26.672h333.32c13.688,0,21.562,15.703,13.312,26.672l-50.016,66.656c-3.094,4.172-8.016,6.656-13.266,6.656h.006ZM108.348,399.985h216.66l24.984-33.328H83.312l25.036,33.328Z"/>
  <path d="M383.368,366.65H50.048c-9.188,0-16.688-7.453-16.688-16.688v-166.69c0-9.188,7.453-16.688,16.688-16.688h333.32c9.188,0,16.688,7.453,16.688,16.688v166.69c-.047,9.234-7.5,16.688-16.688,16.688ZM66.678,333.322h300v-133.31H66.678v133.31Z"/>
  <path d="M300.008,200.01h-166.69c-9.188,0-16.688-7.453-16.688-16.688v-66.656c0-9.188,7.453-16.688,16.688-16.688h166.69c9.188,0,16.688,7.453,16.688,16.688v66.656c-.047,9.234-7.5,16.688-16.688,16.688h0ZM150.008,166.682h133.31v-33.328h-133.31v33.328Z"/>
  <path d="M216.668,133.36c-9.188,0-16.688-7.453-16.688-16.688V16.688c0-9.188,7.453-16.688,16.688-16.688,9.187,0,16.688,7.453,16.688,16.688v99.984c0,9.188-7.453,16.688-16.688,16.688Z"/>
  <path d="M249.998,683.35h-66.656c-9.188,0-16.688-7.453-16.688-16.688v-66.656c0-9.188,7.453-16.688,16.688-16.688h66.656c9.188,0,16.688,7.453,16.688,16.688v66.656c0,9.234-7.453,16.688-16.688,16.688ZM200.029,650.022h33.328v-33.328h-33.328v33.328Z"/>
  <path d="M249.998,833.35h-66.656c-9.188,0-16.688-7.453-16.688-16.688v-66.656c0-9.188,7.453-16.688,16.688-16.688h66.656c9.188,0,16.688,7.453,16.688,16.688v66.656c0,9.234-7.453,16.688-16.688,16.688ZM200.029,800.022h33.328v-33.328h-33.328v33.328Z"/>
  <path d="M249.998,983.37h-66.656c-9.188,0-16.688-7.453-16.688-16.688v-66.656c0-9.188,7.453-16.688,16.688-16.688h66.656c9.188,0,16.688,7.453,16.688,16.688v66.656c0,9.234-7.453,16.688-16.688,16.688ZM200.029,950.042h33.328v-33.328h-33.328v33.328Z"/>
  <path d="M333.348,533.35H100.008c-9.188,0-16.688-7.453-16.688-16.688,0-9.188,7.453-16.688,16.688-16.688h233.34c9.188,0,16.688,7.453,16.688,16.688s-7.5,16.688-16.688,16.688Z"/>
  <path d="M1066.688,1066.67H333.378c-9.188,0-16.688-7.453-16.688-16.688v-450c0-9.188,7.453-16.688,16.688-16.688h733.31c9.188,0,16.688,7.453,16.688,16.688v450c0,9.234-7.453,16.688-16.688,16.688ZM350.058,1033.342h699.98v-416.68H350.058v416.68Z"/>
  <path d="M1066.688,616.69H333.378c-9.188,0-16.688-7.453-16.688-16.688v-83.344c0-9.188,7.453-16.688,16.688-16.688h783.32c12.938,0,20.953,14.156,14.297,25.266l-50.016,83.344c-3,5.016-8.438,8.109-14.297,8.109h.006ZM350.058,583.362h707.21l30-50.016H350.058v50.016Z"/>
  <path d="M558.348,800.01h-141.66c-9.188,0-16.688-7.453-16.688-16.688v-99.984c0-9.188,7.453-16.688,16.688-16.688h141.66c9.188,0,16.688,7.453,16.688,16.688v99.984c0,9.234-7.5,16.688-16.688,16.688ZM433.328,766.682h108.33v-66.656h-108.33v66.656Z"/>
  <path d="M699.998,800.01h-141.66c-9.188,0-16.688-7.453-16.688-16.688v-99.984c0-9.188,7.453-16.688,16.688-16.688h141.66c9.188,0,16.688,7.453,16.688,16.688v99.984c0,9.234-7.453,16.688-16.688,16.688h0ZM575.028,766.682h108.33v-66.656h-108.33v66.656Z"/>
  <path d="M841.658,800.01h-141.66c-9.188,0-16.688-7.453-16.688-16.688v-99.984c0-9.188,7.453-16.688,16.688-16.688h141.66c9.188,0,16.688,7.453,16.688,16.688v99.984c0,9.234-7.453,16.688-16.688,16.688ZM716.688,766.682h108.33v-66.656h-108.33v66.656Z"/>
  <path d="M983.388,800.01h-141.66c-9.188,0-16.688-7.453-16.688-16.688v-99.984c0-9.188,7.453-16.688,16.688-16.688h141.66c9.188,0,16.688,7.453,16.688,16.688v99.984c-.047,9.234-7.5,16.688-16.688,16.688h0ZM858.368,766.682h108.33v-66.656h-108.33v66.656Z"/>
  <path d="M558.348,983.37h-141.66c-9.188,0-16.688-7.453-16.688-16.688v-99.984c0-9.188,7.453-16.688,16.688-16.688h141.66c9.188,0,16.688,7.453,16.688,16.688v99.984c0,9.234-7.5,16.688-16.688,16.688ZM433.328,950.042h108.33v-66.656h-108.33v66.656Z"/>
  <path d="M699.998,983.37h-141.66c-9.188,0-16.688-7.453-16.688-16.688v-99.984c0-9.188,7.453-16.688,16.688-16.688h141.66c9.188,0,16.688,7.453,16.688,16.688v99.984c0,9.234-7.453,16.688-16.688,16.688h0ZM575.028,950.042h108.33v-66.656h-108.33v66.656Z"/>
  <path d="M841.658,983.37h-141.66c-9.188,0-16.688-7.453-16.688-16.688v-99.984c0-9.188,7.453-16.688,16.688-16.688h141.66c9.188,0,16.688,7.453,16.688,16.688v99.984c0,9.234-7.453,16.688-16.688,16.688ZM716.688,950.042h108.33v-66.656h-108.33v66.656Z"/>
  <path d="M983.388,983.37h-141.66c-9.188,0-16.688-7.453-16.688-16.688v-99.984c0-9.188,7.453-16.688,16.688-16.688h141.66c9.188,0,16.688,7.453,16.688,16.688v99.984c-.047,9.234-7.5,16.688-16.688,16.688h0ZM858.368,950.042h108.33v-66.656h-108.33v66.656Z"/>
  <path d="M543.818,379.73l-63.797-58.266c-8.906-8.109-6.469-22.734,4.547-27.562l41.625-18.234c22.734-9.938,48.844-7.875,69.703,5.531l12.844,8.25,73.734-32.25-91.875-65.297c-10.547-7.5-8.859-23.672,3-28.875l55.828-24.422c4.031-1.781,8.625-1.875,12.75-.234l154.08,60.281,63.469-27.75c31.594-13.828,68.344.562,82.125,32.156,13.828,31.594-.562,68.344-32.156,82.125l-262.74,114.94c-41.156,18.047-89.578,10.266-123.14-20.391l.003-.002ZM521.459,314.152l44.859,40.969c23.719,21.656,57.984,27.328,87.422,14.438l262.74-114.94c14.719-6.422,21.422-23.531,14.953-38.25-6.422-14.719-23.531-21.422-38.25-14.953l-69.797,30.516c-4.031,1.781-8.625,1.875-12.75.234l-154.13-60.281-22.547,9.844,91.875,65.297c10.547,7.5,8.859,23.672-3,28.875l-108.89,47.625c-5.109,2.25-10.969,1.781-15.703-1.266l-20.344-13.078c-11.484-7.359-25.828-8.531-38.344-3.047l-18.094,8.016Z"/>
</svg>