<?xml version="1.0" encoding="UTF-8"?>
<svg id="Layer_1" data-name="Layer 1" xmlns="http://www.w3.org/2000/svg" viewBox="0 0 773.62 402.057">
  <path d="M55.124,238.556c.234.188.375.375.562.609l6.703,9.188-26.766,59.531c-2.016,4.453-.328,9.422,4.125,12.094,1.969,1.172,4.266,1.781,6.609,1.781.891,0,1.781-.094,2.672-.234l26.297-5.016c3.938-.75,6.141-2.859,7.266-4.453l16.641-23.672c.75.094,1.453.281,2.25.281,1.641,0,3.328-.234,4.969-.656,46.922-12.188,167.58-43.875,302.76-79.547l-48.188,174.61c-1.5,5.344,0,10.875,4.031,14.766,2.859,2.766,6.516,4.219,10.312,4.219,1.5,0,3.047-.234,4.547-.703l48.375-15.094c4.219-1.312,7.547-4.266,9.281-8.344l84.562-195.74c36.938-13.594,71.438-25.359,101.91-35.766,88.266-30.094,141.52-48.234,147.74-73.453,4.781-19.219.188-35.859-13.266-48.141-2.953-2.719-6.422-5.062-10.125-7.312-.328-.188-.609-.375-.938-.516-46.031-26.672-143.16-18.562-199.55,1.172-.047,0-.141.047-.188.047,0,0-.188.047-.188.094l-113.91,42.469-125.58-45.75c-4.172-1.547-8.625-1.172-12.516,1.031l-37.359,21.141c-4.828,2.766-7.688,7.734-7.594,13.312.094,5.578,3.094,10.453,8.016,13.031l69.703,36.469-203.81,75.984c-1.172.469-2.156.422-3.281-.141l-58.125-28.125c-5.016-2.438-10.406-2.625-15.609-.562l-35.203,13.969c-6.328,2.531-10.688,7.781-11.906,14.484-1.266,6.703.891,13.172,5.906,17.812l48.797,45.094.066.038ZM71.202,301.744l-17.672,3.375,28.172-62.672,37.641-9.047-48.094,68.344h-.047ZM423.702,371.728l-47.906,14.906,60.938-220.87,91.453-35.859-104.53,241.82.045.003ZM650.672,15.618c28.312-1.078,55.641,1.219,75.891,8.391-40.172,17.25-64.781,22.641-73.125,15.75-5.062-4.172-4.547-14.531-2.719-24.094l-.047-.047ZM266.112,50.212l36.891-20.906,108.75,39.609-64.172,23.953-81.469-42.656ZM17.952,175.272l35.203-13.969c1.219-.469,2.203-.422,3.375.141l58.125,28.125c4.875,2.344,10.172,2.625,15.234.703L552.989,32.492c21.891-7.641,51.844-13.547,82.125-15.938-2.484,16.594.328,28.078,8.578,34.922,5.062,4.172,11.766,6.328,20.672,6.328,17.203,0,42.656-8.109,79.734-24.938,1.453,1.031,3,2.016,4.219,3.141,9.328,8.484,12.188,19.359,8.766,33.234-4.266,17.156-66.188,38.25-137.9,62.719-26.812,9.141-56.766,19.406-88.688,30.984l11.906-27.516c2.391-5.578,1.219-12-3-16.359s-10.594-5.766-16.266-3.516l-92.062,36.094c-4.453,1.734-7.688,5.391-9,9.984l-8.25,29.812c-130.82,34.5-249.24,65.625-302.39,79.5l28.031-39.844c1.5-2.109,2.062-4.641,1.547-7.125-.516-2.578-2.109-4.828-4.5-6.328-2.906-1.828-6.609-2.391-10.219-1.547l-50.016,12.047c-2.953.703-5.109,2.438-6.562,4.641l-1.875-2.531c-.75-1.031-1.547-1.922-2.484-2.812l-48.797-45.094c-1.125-1.078-1.547-2.344-1.266-3.844.281-1.547,1.125-2.578,2.578-3.141l.083-.093ZM517.872,98.397c9.656,0,17.484-7.828,17.484-17.484s-7.828-17.484-17.484-17.484-17.484,7.828-17.484,17.484,7.828,17.484,17.484,17.484ZM517.872,78.616c1.266,0,2.297,1.031,2.297,2.297s-1.031,2.297-2.297,2.297-2.297-1.031-2.297-2.297,1.031-2.297,2.297-2.297ZM455.763,119.538c9.656,0,17.484-7.828,17.484-17.484s-7.828-17.484-17.484-17.484-17.484,7.828-17.484,17.484,7.828,17.484,17.484,17.484ZM455.763,99.757c1.266,0,2.297,1.031,2.297,2.297s-1.031,2.297-2.297,2.297-2.297-1.031-2.297-2.297,1.031-2.297,2.297-2.297ZM399.279,140.726c9.656,0,17.484-7.828,17.484-17.484s-7.828-17.484-17.484-17.484-17.484,7.828-17.484,17.484,7.828,17.484,17.484,17.484ZM399.279,120.945c1.266,0,2.297,1.031,2.297,2.297s-1.031,2.297-2.297,2.297-2.297-1.031-2.297-2.297,1.031-2.297,2.297-2.297ZM344.201,161.914c9.656,0,17.484-7.828,17.484-17.484s-7.828-17.484-17.484-17.484-17.484,7.828-17.484,17.484,7.828,17.484,17.484,17.484ZM344.201,142.133c1.266,0,2.297,1.031,2.297,2.297s-1.031,2.297-2.297,2.297-2.297-1.031-2.297-2.297,1.031-2.297,2.297-2.297ZM282.092,183.102c9.656,0,17.484-7.828,17.484-17.484s-7.828-17.484-17.484-17.484-17.484,7.828-17.484,17.484,7.828,17.484,17.484,17.484ZM282.092,163.321c1.266,0,2.297,1.031,2.297,2.297s-1.031,2.297-2.297,2.297-2.297-1.031-2.297-2.297,1.031-2.297,2.297-2.297ZM579.982,77.212c9.656,0,17.484-7.828,17.484-17.484s-7.828-17.484-17.484-17.484-17.484,7.828-17.484,17.484,7.828,17.484,17.484,17.484ZM579.982,57.431c1.266,0,2.297,1.031,2.297,2.297s-1.031,2.297-2.297,2.297-2.297-1.031-2.297-2.297,1.031-2.297,2.297-2.297Z"/>
</svg>