<?xml version="1.0" encoding="UTF-8"?><svg id="Layer_1" xmlns="http://www.w3.org/2000/svg" viewBox="0 0 1010.805 978.267"><defs><style>.cls-1{fill-rule:evenodd;}</style></defs><path class="cls-1" d="M1.522,576.828c-3.229-18.245-1.246-36.608,5.237-53.22,6.481-16.632,17.444-31.491,32.168-42.767l.056-.046,2.417-1.785c.076-.048.151-.096.225-.165,26.192-18.763,48.408-37.758,65.878-60.053,17.419-22.229,30.169-47.825,37.544-79.925.084-.352.209-.708.357-1.026,1.719-4.032,3.714-7.932,5.948-11.674.083-.17.186-.342.292-.494,6.076-10.054,13.919-19.02,23.198-26.4,12.484-9.933,27.546-16.987,44.324-19.963,26.92-4.777,53.248,1.825,74.027,16.348,2.327,1.614,4.564,3.338,6.729,5.151.897.673,1.741,1.413,2.548,2.196,15.99,14.274,27.485,33.818,31.505,56.56,3.282,18.562,1.169,36.838-5.217,53.218-6.612,16.928-17.794,31.81-32.297,42.881l-.169.118c-67.931,52.317-70.785,59.053-99.858,127.862-1.393,3.292-2.864,6.794-6.32,14.88-3.28,7.644-7.497,14.821-12.542,21.399-.141.196-.282.392-.445.571-4.825,6.171-10.374,11.792-16.56,16.712-12.468,9.891-27.493,16.921-44.234,19.873-26.92,4.777-53.248-1.825-74.027-16.348-2.327-1.614-4.564-3.338-6.729-5.151-.897-.673-1.741-1.413-2.549-2.196-15.97-14.277-27.465-33.82-31.505-56.56v.004ZM246.195,484.882c-6.295-8.928-12.758-17.334-19.362-25.161-23.279,24.27-33.882,38.507-51.025,65.889,9.355,5.18,19.262,10.04,29.727,14.641,11.122-23.409,20.884-37.397,40.662-55.373l-.002.004ZM220.876,452.876c-8.379-9.377-17.029-17.858-25.924-25.407-7.344-6.217-14.866-11.809-22.561-16.738-8.466,13.449-17.559,26.117-27.32,38.369-8.764,10.979-18.068,21.61-27.947,32.14,6.399,6.819,13.446,13.288,21.126,19.43,9.068,7.268,18.994,14.063,29.726,20.452,17.777-28.479,28.557-42.956,52.898-68.244h.003ZM164.642,406.05c-9.29-5.328-18.865-9.719-28.701-13.114-.292-.091-.548-.225-.804-.36-5.917,11.389-12.772,21.906-20.519,31.791-6.626,8.456-13.903,16.456-21.762,24.113,5.148,9.148,11.234,17.815,18.199,26.008,9.511-10.189,18.492-20.444,26.934-31.026,9.53-11.946,18.392-24.307,26.653-37.412h0ZM139.117,384.476c10.403,3.619,20.469,8.261,30.253,13.88,5.431-9.078,10.58-18.531,15.459-28.46.067-.128.117-.234.204-.364,7.64-12.476,17.032-24.589,27.416-35.312-16.307-4.518-34.457-5.031-54.24-1.843-1.638,2.874-3.124,5.853-4.441,8.895-3.645,15.772-8.554,30.062-14.651,43.205h0ZM177.098,403.02c8.103,5.169,15.975,11.028,23.673,17.531,9.072,7.691,17.877,16.318,26.411,25.82,7.587-7.749,16.399-16.514,26.92-26.889l.109-.112c8.64-8.484,16.644-18.032,23.577-27.993-8.982-17.303-19.824-30.762-32.342-40.557-7.227-5.664-15.053-10.115-23.407-13.423-.366.361-.75.744-1.116,1.105-10.652,10.671-20.291,22.931-28.071,35.603-5.003,10.083-10.237,19.706-15.755,28.915h0ZM233.14,453.218c6.785,8.01,13.404,16.561,19.859,25.674,9.963-8.561,22.193-18.226,37.771-30.216l.205-.163c1.945-1.473,3.82-3.04,5.628-4.661-.081-.193-.141-.389-.182-.586-3.841-15.982-8.584-30.156-14.156-42.608-6.534,8.951-13.897,17.484-21.712,25.177l-.091.09c-10.742,10.579-19.664,19.456-27.322,27.293h0ZM164.871,322.302c19.976-2.3,38.387-.825,54.997,4.649,9.328-8.657,19.286-16.108,29.319-21.671,9.615-5.317,18.49-8.44,26.322-9.557-16.418-7.915-35.393-10.925-54.725-7.502-15.274,2.698-28.952,9.104-40.281,18.11-5.889,4.668-11.12,10.054-15.628,15.97h-.003ZM229.285,330.592c7.677,3.398,14.908,7.75,21.696,13.076,12.432,9.742,23.284,22.715,32.412,39.096.569-.927,1.139-1.853,1.688-2.778,7.961-13.457,13.691-27.227,16.089-39.864,1.604-8.438,1.574-15.517.124-21.115-1.042-4.007-2.83-7.231-5.258-9.621-.511-.451-1.022-.902-1.551-1.332-.24-.177-.481-.354-.719-.51-3.688-2.481-8.562-3.568-14.409-3.141-7.328.54-16.048,3.404-25.816,8.798-8.22,4.567-16.419,10.504-24.256,17.392h0ZM288.232,392.044c6.225,12.91,11.511,27.652,15.804,44.292,6.945-7.905,12.496-16.996,16.334-26.836,5.797-14.866,7.722-31.468,4.734-48.365-2.24-12.618-6.99-24.148-13.661-34.167.106,4.508-.328,9.456-1.345,14.807-2.593,13.666-8.724,28.426-17.217,42.785-1.493,2.516-3.049,5.018-4.648,7.484h0ZM201.75,548.457c-10.803-4.747-21.052-9.794-30.707-15.144-3.764,6.101-7.884,12.844-12.502,20.426-2.551,4.179-5.275,8.639-8.153,13.356-8.144,13.254-18.266,26.109-29.429,37.297-.714.7-1.408,1.397-2.122,2.097,15.343,3.791,32.899,5.959,52.776,6.393,4.083-5.549,7.514-11.555,10.244-17.891,1.019-2.426,3.723-8.82,6.283-14.856,5.158-12.278,9.546-22.66,13.611-31.677h0ZM163.19,528.803c-11.052-6.557-21.263-13.565-30.597-21.067-7.858-6.304-15.107-12.954-21.723-19.932-8.683,9.034-17.815,18.033-27.394,27.18l-.165.158-2.108,2.035c-12.061,11.866-22.609,25.472-30.741,39.229-.514.881-1.009,1.739-1.503,2.618,5.177,8.843,11.717,16.636,19.636,23.337,10.706,9.054,24.017,16.183,40.08,21.271,1.989-1.821,3.953-3.7,5.87-5.634,10.672-10.673,20.329-22.955,28.109-35.627,2.896-4.739,5.602-9.177,8.153-13.356,4.569-7.476,8.635-14.153,12.383-20.212h0ZM104.801,481.069c-7.093-8.26-13.347-16.991-18.705-26.218-11.863,10.857-24.976,21.138-39.208,31.334l-2.528,1.877c-4.035,3.103-7.757,6.496-11.171,10.139.214.502.352,1.053.37,1.616.66,18.754,4.084,35.385,10.476,49.709,8.324-13.657,18.873-27.06,30.824-38.814l.018-.022,2.106-2.055.221-.205c9.675-9.197,18.858-18.283,27.597-27.362h0ZM164.198,621.701c-20.044-.881-37.775-3.576-53.302-7.972-7.923,6.836-16.185,12.759-24.54,17.381-9.615,5.317-18.49,8.44-26.322,9.557,16.418,7.915,35.393,10.925,54.725,7.502,15.234-2.694,28.874-9.076,40.187-18.04,3.302-2.583,6.378-5.405,9.251-8.427h.001ZM100.694,610.492c-14.916-5.308-27.518-12.41-37.936-21.212-7.321-6.179-13.536-13.178-18.702-20.953-4.684,9.667-8.014,19.152-9.701,27.962-1.604,8.438-1.574,15.517-.124,21.115,1.044,4.027,2.83,7.231,5.258,9.621.511.451,1.022.902,1.551,1.332.24.177.481.354.719.51,3.688,2.481,8.562,3.568,14.409,3.141,7.328-.54,16.048-3.404,25.816-8.798,6.314-3.501,12.604-7.807,18.71-12.719h0ZM38.596,559.09c-7.631-14.599-12.078-31.548-13.605-50.696-3.999,5.782-7.268,11.973-9.798,18.49-5.874,15.096-7.671,31.766-4.734,48.365,2.24,12.618,6.99,24.148,13.661,34.167-.106-4.508.328-9.456,1.345-14.807,2.124-11.196,6.69-23.352,13.131-35.521v.002Z"/><path d="M560.476,148.628c-2.136-21.041-17.12-42.55-35.146-52.986-25.212-14.603-52.355-9.365-78.885-1.873-6.131-22.958-24.626-41.32-46.518-49.749,2.209-9.072,9.204-16.871,17.968-20.149,6.862-2.561,16.564-1.492,18.1-11.165,1.492-9.335-6.351-13.286-14.603-12.438-18.276,1.961-33.697,15.935-40.899,32.249-.644,1.449-1.873,6.775-2.136,7.024-.644.556-8.048-.249-9.716.132C364.061,19.979,342.551-.373,321.758.005c-8.648.176-14.223,8.692-9.76,16.403,3.614,6.263,10.74,5.195,16.695,7.448,8.779,3.278,15.759,11.077,17.968,20.149-21.846,8.179-40.384,26.924-46.518,49.749-29.089-8.384-58.486-13.169-84.589,5.707-46.693,33.741-35.658,106.143,18.656,124.329,21.041,7.068,41.411,2.209,62.276-2.722,0,12.73-.717,25.007,2.429,37.49,7.199,28.753,33.654,53.204,63.387,56.188-.088,8.867-2.166,23.178,10.608,23.471,13.374.337,11.501-14.267,11.325-23.471,31.475-3.322,57.799-29.089,64.105-59.847,2.341-11.369,1.697-22.271,1.697-33.772,8.004,1.492,15.803,3.834,23.895,4.99,40.812,5.838,81.695-17.208,86.508-60.609.468-4.053.424-12.73,0-16.827l.033-.052ZM417.473,83.543c2.209,3.029,8.179,13.242,8.355,16.564.088,1.697-7.155,3.878-8.941,4.726-13.374,6.438-28.284,14.954-38.118,26.236-1.273,1.449-4.434,7.024-4.77,7.331-.424.337-1.024.088-1.492-.468-1.273-1.449-2.766-4.638-4.346-6.468-12.613-14.486-30.421-22.754-47.454-30.801,12.306-43.062,70.12-53.626,96.735-17.076l.031-.044ZM401.802,201.317h-57.037c10.272-7.711,21.802-14.735,28.153-26.368l5.107,6.599c7.024,8.004,15.291,13.506,23.763,19.768h.015ZM248.12,204.771c-54.653-9.496-51.244-90.27,1.492-96.226,26.075-2.941,72.883,13.462,93.663,29.47,14.442,11.165,18.481,20.91,3.702,34.328-19.168,17.427-73.644,36.757-98.913,32.368l.056.061ZM326.537,267.162h93.588c-19.973,35.57-73.601,35.57-93.588,0ZM428.129,244.116s-1.024,1.112-1.112,1.112h-107.473s-1.112-1.024-1.112-1.112v-20.866h109.683v20.866h.014ZM498.496,204.768c-25.431,4.434-78.97-14.823-98.476-32.031-11.925-10.521-13.506-19.168-1.449-30.714,17.252-16.52,59.934-31.519,83.537-33.479,68.715-5.663,74.493,86.081,16.403,96.179l-.014.044Z"/><path d="M373.485,550.791c0,14.74,11.979,26.719,26.719,26.719s26.719-11.979,26.719-26.719-11.979-26.719-26.719-26.719-26.719,11.979-26.719,26.719ZM400.204,541.885c4.898,0,8.906,4.008,8.906,8.906s-4.008,8.906-8.906,8.906-8.906-4.008-8.906-8.906,4.008-8.906,8.906-8.906Z"/><path d="M355.673,506.264c14.74,0,26.719-11.979,26.719-26.719s-11.979-26.719-26.719-26.719-26.719,11.979-26.719,26.719,11.979,26.719,26.719,26.719ZM355.673,470.639c4.898,0,8.906,4.008,8.906,8.906s-4.008,8.906-8.906,8.906-8.906-4.008-8.906-8.906,4.008-8.906,8.906-8.906Z"/><path d="M435.834,461.728c14.74,0,26.719-11.979,26.719-26.719s-11.979-26.719-26.719-26.719-26.719,11.979-26.719,26.719,11.979,26.719,26.719,26.719ZM435.834,426.104c4.898,0,8.906,4.008,8.906,8.906s-4.008,8.906-8.906,8.906-8.906-4.008-8.906-8.906,4.008-8.906,8.906-8.906Z"/><path d="M400.209,844.692c-21.82,0-40.835,12.112-53.437,22.867v-58.335c21.731-.178,75.772-4.141,110.974-37.183,20.929-19.661,31.528-46.179,31.528-78.774,0-56.62-36.07-101.688-37.629-103.578-2.627-3.251-7.17-4.23-10.888-2.36-.913.445-20.396,10.376-42.928,33.154-21.486-34.601-52.725-57.665-54.706-59.114-3.117-2.271-7.348-2.271-10.465,0-2.004,1.447-33.22,24.492-54.706,59.114-22.533-22.8-42.037-32.686-42.928-33.154-3.741-1.87-8.261-.891-10.888,2.36-1.536,1.893-37.629,46.98-37.629,103.578,0,32.597,10.598,59.09,31.528,78.774,35.179,33.042,89.195,37.005,110.974,37.183v160.136c0,4.921,3.986,8.906,8.906,8.906s8.906-3.986,8.906-8.906v-58.491c12.602,10.732,31.617,22.867,53.437,22.867,38.341,0,68.11-37.451,69.359-39.054,2.538-3.229,2.538-7.748,0-10.977-1.247-1.603-31.038-39.054-69.359-39.054l-.051.04ZM442.291,607.069c9.151,13.448,29.168,47.292,29.168,86.212,0,27.476-8.706,49.585-25.873,65.726-23.824,22.399-59.228,29.435-82.764,31.528,22.221-21.175,55.195-60.296,55.195-106.162,0-16.922-4.498-32.931-11.289-47.47,14.383-15.319,27.899-24.982,35.536-29.836l.027.002ZM337.867,579.949c15.898,13.092,62.348,55.618,62.348,104.424s-46.468,91.333-62.348,104.424c-15.898-13.092-62.348-55.618-62.348-104.424s46.468-91.333,62.348-104.424h0ZM204.269,693.284c0-38.92,20.039-72.789,29.168-86.212,7.637,4.854,21.13,14.517,35.536,29.836-6.769,14.517-11.289,30.548-11.289,47.47,0,45.867,32.975,84.987,55.195,106.162-23.512-2.093-58.962-9.129-82.764-31.528-17.167-16.165-25.873-38.274-25.873-65.726l.027-.002ZM400.206,915.935c-15.92,0-30.637-9.218-40.902-17.812h49.808c4.921,0,8.906-3.986,8.906-8.906s-3.986-8.906-8.906-8.906h-49.875c10.242-8.595,24.96-17.812,40.969-17.812,21.954,0,41.637,17.546,50.454,26.719-8.773,9.218-28.411,26.719-50.454,26.719h0Z"/><path class="cls-1" d="M749.728,425.718c0,5.178-4.184,9.362-9.362,9.362s-9.362-4.184-9.362-9.362V160.395c0-9.445-3.852-18.02-10.108-24.274-6.255-6.213-14.829-10.108-24.274-10.108v-.041h-.166c-9.403.041-17.937,3.935-24.191,10.148-6.172,6.172-10.025,14.706-10.025,24.067h-.041c.373,111.346,1.036,222.737,1.533,334.128,0,2.858-1.284,5.675-3.728,7.498-4.101,3.107-9.942,2.237-13.049-1.864-11.723-15.575-21.872-33.263-31.938-50.702-27.298-47.513-53.726-93.452-107.37-80.776-.828.207-1.491.497-2.071.953-.539.414-1.036,1.036-1.408,1.823-.414.787-.621,1.533-.621,2.195-.041.704.124,1.491.456,2.278,26.884,63.833,54.927,123.648,86.617,178.084,31.523,54.099,66.651,102.854,107.997,144.945,3.397,3.438,5.965,7.332,7.705,11.557s2.61,8.782,2.651,13.628l.621,124.602h235.162l.787-109.853c.041-3.107.373-6.048,1.118-8.864s1.823-5.551,3.314-8.243l39.973-73.32c.787-1.45,1.326-2.858,1.698-4.267.331-1.408.497-2.941.456-4.557l-9.942-420.289c-.207-9.072-3.977-17.357-9.942-23.363-5.841-5.841-13.794-9.445-22.659-9.445-8.947,0-17.108,3.687-22.99,9.569-5.924,5.924-9.569,14.043-9.569,22.99v206.786c0,5.178-4.184,9.362-9.362,9.362s-9.362-4.184-9.362-9.362V145.572c0-8.947-3.687-17.108-9.569-22.99-5.924-5.924-14.043-9.569-22.99-9.569s-17.108,3.687-22.99,9.569c-5.924,5.924-9.569,14.043-9.569,22.99v280.107c0,5.178-4.184,9.362-9.362,9.362s-9.362-4.184-9.362-9.362l-.041-280.107v-50.785c0-8.864-3.645-16.984-9.527-22.824-5.882-5.882-13.96-9.527-22.824-9.527s-16.984,3.645-22.824,9.527c-5.882,5.882-9.527,13.96-9.527,22.824v65.573l.038,265.357ZM942.145,497.67c-10.315,0-18.724-8.368-18.724-18.724s8.368-18.724,18.724-18.724,18.724,8.368,18.724,18.724-8.368,18.724-18.724,18.724ZM772.563,811.128c-10.356,0-18.724-8.368-18.724-18.724s8.368-18.724,18.724-18.724,18.724,8.368,18.724,18.724-8.368,18.724-18.724,18.724ZM821.691,642.695c-10.315,0-18.724-8.368-18.724-18.724s8.368-18.724,18.724-18.724,18.724,8.368,18.724,18.724-8.368,18.724-18.724,18.724ZM817.217,545.267c-10.315,0-18.724-8.368-18.724-18.724s8.368-18.724,18.724-18.724,18.724,8.368,18.724,18.724-8.368,18.724-18.724,18.724ZM900.893,693.684c-2.568,0-4.929-1.036-6.628-2.734s-2.734-4.018-2.734-6.628c0-2.568,1.036-4.929,2.734-6.628s4.018-2.734,6.628-2.734c2.568,0,4.929,1.036,6.628,2.734s2.734,4.018,2.734,6.628c0,2.568-1.036,4.929-2.734,6.628s-4.018,2.734-6.628,2.734ZM920.735,704.164c-5.095,5.095-12.096,8.202-19.842,8.202s-14.788-3.148-19.842-8.202c-5.095-5.095-8.243-12.096-8.243-19.842s3.148-14.747,8.243-19.842,12.096-8.202,19.842-8.202,14.747,3.148,19.842,8.202c5.095,5.095,8.202,12.096,8.202,19.842.041,7.746-3.107,14.788-8.202,19.842ZM873.264,789.083c-2.568,0-4.929-1.036-6.628-2.734s-2.734-4.018-2.734-6.628c0-2.568,1.036-4.929,2.734-6.628s4.018-2.734,6.628-2.734c2.568,0,4.929,1.036,6.628,2.734s2.734,4.018,2.734,6.628c0,2.568-1.036,4.929-2.734,6.628-1.698,1.657-4.06,2.734-6.628,2.734ZM893.105,799.563c-5.095,5.095-12.096,8.202-19.842,8.202s-14.747-3.148-19.842-8.202c-5.095-5.095-8.243-12.096-8.243-19.842s3.148-14.747,8.243-19.842,12.096-8.243,19.842-8.243,14.747,3.148,19.842,8.243,8.243,12.096,8.243,19.842c-.041,7.746-3.19,14.747-8.243,19.842ZM757.899,702.55c-2.568,0-4.929-1.036-6.628-2.734s-2.734-4.018-2.734-6.628c0-2.568,1.036-4.929,2.734-6.628s4.018-2.734,6.628-2.734c2.568,0,4.929,1.036,6.628,2.734s2.734,4.018,2.734,6.628c0,2.568-1.036,4.929-2.734,6.628s-4.018,2.734-6.628,2.734ZM777.782,713.03c-5.095,5.095-12.096,8.243-19.842,8.243s-14.788-3.148-19.842-8.243c-5.095-5.095-8.202-12.096-8.202-19.842s3.148-14.747,8.202-19.842c5.095-5.095,12.096-8.243,19.842-8.243s14.747,3.148,19.842,8.243,8.202,12.096,8.202,19.842-3.148,14.747-8.202,19.842ZM942.151,578.778c-2.568,0-4.929-1.036-6.628-2.734s-2.734-4.018-2.734-6.628c0-2.568,1.036-4.929,2.734-6.628s4.018-2.734,6.628-2.734c2.568,0,4.929,1.036,6.628,2.734s2.734,4.018,2.734,6.628c0,2.568-1.036,4.929-2.734,6.628-1.698,1.657-4.06,2.734-6.628,2.734ZM961.993,589.257c-5.095,5.095-12.096,8.202-19.842,8.202s-14.747-3.148-19.842-8.202c-5.095-5.095-8.202-12.096-8.202-19.842s3.148-14.747,8.202-19.842c5.095-5.095,12.096-8.243,19.842-8.243s14.788,3.148,19.842,8.243c5.095,5.095,8.202,12.096,8.202,19.842.041,7.746-3.107,14.747-8.202,19.842ZM688.063,603.134c-2.568,0-4.929-1.036-6.628-2.734s-2.734-4.018-2.734-6.628c0-2.568,1.036-4.929,2.734-6.628s4.018-2.734,6.628-2.734c2.568,0,4.929,1.036,6.628,2.734s2.734,4.018,2.734,6.628c0,2.568-1.036,4.929-2.734,6.628-1.698,1.657-4.06,2.734-6.628,2.734ZM707.904,613.614c-5.095,5.095-12.096,8.202-19.842,8.202s-14.747-3.148-19.842-8.202c-5.095-5.095-8.202-12.096-8.202-19.842s3.148-14.788,8.202-19.842c5.095-5.095,12.096-8.202,19.842-8.202s14.747,3.148,19.842,8.202c5.095,5.095,8.202,12.096,8.202,19.842s-3.107,14.747-8.202,19.842ZM690.962,848.449l-.621-124.514c0-2.403-.414-4.598-1.243-6.628-.828-1.988-2.071-3.852-3.77-5.551-42.501-43.287-78.581-93.248-110.807-148.674-32.062-55.052-60.437-115.571-87.653-180.187-1.408-3.314-2.03-6.752-1.905-10.148.124-3.438.994-6.793,2.61-9.983v-.041c1.615-3.19,3.811-5.882,6.545-8.036,2.693-2.113,5.841-3.645,9.362-4.474,67.065-15.865,96.889,36.038,127.748,89.678,4.515,7.87,9.072,15.782,13.752,23.487-.456-101.078-.828-202.138-1.367-303.269h-.041c0-14.498,5.965-27.712,15.575-37.282,9.569-9.527,22.741-15.492,37.282-15.534h.249-.041c13.089,0,25.102,4.805,34.381,12.717v-25.186c0-14.043,5.758-26.801,14.996-36.08,9.237-9.237,22.038-14.996,36.08-14.996s26.801,5.758,36.08,14.996c9.237,9.237,14.996,21.996,14.996,36.08v11.226c8.864-7.332,20.215-11.723,32.559-11.723,14.125,0,26.926,5.758,36.246,15.037,9.279,9.279,15.078,22.12,15.078,36.246v33.802c8.864-7.332,20.215-11.723,32.559-11.723,14.043,0,26.677,5.716,35.873,14.912,9.237,9.237,15.037,22.038,15.368,36.121l9.942,420.245c.083,3.272-.249,6.379-.953,9.403-.746,3.024-1.864,5.924-3.438,8.782l-39.973,73.32c-.746,1.367-1.284,2.651-1.616,4.018-.331,1.326-.497,2.734-.539,4.267l-.787,109.774h25.931c5.178,0,9.362,4.184,9.362,9.362v93.372c0,5.178-4.184,9.362-9.362,9.362l-333.341-.083c-5.178,0-9.362-4.184-9.362-9.362v-93.372c0-5.178,4.184-9.362,9.362-9.362h34.885ZM980.021,867.173h-314.616v74.646h314.572l.044-74.646Z"/></svg>