<?xml version="1.0" encoding="UTF-8"?>
<svg id="Layer_1" data-name="Layer 1" xmlns="http://www.w3.org/2000/svg" viewBox="0 0 1106.063 721.681">
  <path d="M1090.132,592.12c.938-44.438-4.125-81.562-16.125-112.69-4.125-11.062-12.562-20.25-24-25.875l-84-41.812c-2.625-1.312-5.062-3.188-8.062-6.188-3.375-3-6-7.312-7.312-11.25-21.375-101.25-53.25-146.44-76.312-166.5-9.188-8.062-21-12.375-33.375-12.375h-147.38v-84.375c0-5.25-4.125-9.375-9.375-9.375h-10.875c.938-2.625,1.5-5.812,1.5-9.375,0-22.5-20.625-46.875-65.625-46.875s-65.625,24.375-65.625,46.875c0,3.562.562,6.75,1.5,9.375H65.625c-5.25,0-9.375,4.125-9.375,9.375v443.25l-49.875,16.688c-3.75,1.312-6.375,4.875-6.375,8.812v37.5c0,5.25,4.125,9.375,9.375,9.375h161.25c8.625,42.75,46.5,75,91.875,75s83.062-32.25,91.875-75h472.5c8.625,42.75,46.5,75,91.875,75s83.062-32.25,91.875-75h7.875c.75,3.188,1.875,6.188,3.75,9,4.312,6.188,11.438,9.75,19.125,9.75h41.25c12.938,0,23.438-10.5,23.438-23.438v-28.125c0-10.312-6.75-18.938-16.125-21.938l.194.19ZM1033.32,515.62h31.688c1.875,8.25,3.375,16.875,4.312,26.062-18.188.938-32.812-8.812-36.938-25.5,0,0,.375-.562.938-.562h0ZM1056.382,485.995c1.312,3.375,2.25,7.312,3.375,10.875h-366.19v-37.5h325.88l22.125,11.062c7.125,3.375,12.188,9,14.625,15.562h.185ZM75.002,459.37h525v37.5H75.002v-37.5ZM618.752,506.245V234.365h56.25v337.5h-56.25v-65.62ZM693.752,515.62h164.44c-39.562,22.875-67.125,64.312-70.312,112.5h-94.312v-112.5h.184ZM886.502,271.87c14.062,22.312,29.812,57.562,42.75,112.5h-5.438c-6.75,0-12.562-4.688-14.438-11.062l-25.688-101.44,2.813.002ZM862.127,242.245c3.188,2.812,6.75,6.375,10.688,10.875h-1.125c-2.812,0-5.625,1.312-7.312,3.562s-2.438,5.25-1.688,8.062l28.688,113.06c3.938,14.812,17.25,25.125,32.438,25.125h10.5c2.625,6.188,6.188,11.812,10.5,15.75,3.938,4.312,8.25,7.5,12.938,9.562l24.188,12h-288.19v-206.25h147.38c7.875,0,15.375,2.812,21,7.875l-.005.378ZM562.317,112.495c0-9.75,9.75-28.125,46.875-28.125s46.875,18.375,46.875,28.125c0,5.062-3.562,9.375-46.875,9.375s-46.875-4.312-46.875-9.375ZM674.817,140.62v75h-65.625c-5.25,0-9.375,4.125-9.375,9.375v215.62H75.007V140.615h600l-.19.005ZM18.757,606.74l37.5-12.562v33.938H18.757v-21.376ZM262.507,703.115c-41.438,0-75-33.562-75-75s33.562-75,75-75,75,33.562,75,75-33.562,75-75,75ZM262.507,534.365c-51.75,0-93.75,42-93.75,93.75h-93.75v-112.5h525v65.625c0,5.25,4.125,9.375,9.375,9.375h65.625v37.5h-318.75c0-51.75-42-93.75-93.75-93.75ZM918.757,703.115c-41.438,0-75-33.562-75-75s33.562-75,75-75,75,33.562,75,75-33.562,75-75,75ZM918.757,534.365c-51.75,0-93.75,42-93.75,93.75h-18.188c4.875-62.812,57.375-112.5,121.31-112.5h86.062c0,1.688-.375,3.562,0,5.25,6,24.375,27.375,39.562,53.062,39.562,1.125,0,2.438-.375,3.75-.375.562,9.75.75,19.875.562,30.562h-20.625c-10.125,0-19.125,6.375-22.312,16.125l-7.125,21.375h-8.812c0-51.75-42-93.75-93.75-93.75h-.184ZM1087.507,642.175c0,2.625-2.062,4.688-4.688,4.688h-41.25c-2.062,0-3.375-1.312-3.75-1.875-.562-.75-1.312-2.25-.562-4.312l9.375-28.125c.562-1.875,2.438-3.188,4.5-3.188h32.062c2.625,0,4.688,2.062,4.688,4.688v28.125h-.375Z"/>
  <path d="M304.342,366.75l33.188-22.312v39.938h37.5v-39.938l33.188,22.312,20.812-31.125-39-26.25,39-26.25-20.812-31.125-33.188,22.312v-39.938h-37.5v39.938l-33.188-22.312-20.812,31.125,39,26.25-39,26.25,20.812,31.125Z"/>
  <path d="M103.152,159.37h56.25c5.176,0,9.375,5.176,9.375,9.375v18.75c0,5.176-4.199,9.375-9.375,9.375h-56.25c-5.176,0-9.375-5.176-9.375-9.375v-18.75c0-5.176,4.199-9.375,9.375-9.375Z"/>
  <path d="M196.912,159.37h56.25c5.176,0,9.375,5.176,9.375,9.375v18.75c0,5.176-4.199,9.375-9.375,9.375h-56.25c-5.176,0-9.375-5.176-9.375-9.375v-18.75c0-5.176,4.199-9.375,9.375-9.375Z"/>
  <path d="M590.652,159.37h56.25c5.176,0,9.375,5.176,9.375,9.375v18.75c0,5.176-4.199,9.375-9.375,9.375h-56.25c-5.176,0-9.375-5.176-9.375-9.375v-18.75c0-5.176,4.199-9.375,9.375-9.375Z"/>
  <path d="M721.912,403.12h126c7.5,0,14.625-3.375,19.312-9.375s6.188-13.688,4.312-21l-24-93.562c-3.938-15.375-17.812-26.062-33.562-26.062h-92.062c-5.25,0-9.375,4.125-9.375,9.375v131.25c0,5.25,4.125,9.375,9.375,9.375h0ZM731.287,271.87h82.688c7.312,0,13.688,4.875,15.375,12l24,93.562c.562,2.25-.375,3.938-.938,4.875-.562.75-2.062,2.25-4.5,2.25h-116.62l-.005-112.687Z"/>
  <path d="M262.532,590.62c-20.625,0-37.5,16.875-37.5,37.5s16.875,37.5,37.5,37.5,37.5-16.875,37.5-37.5-16.875-37.5-37.5-37.5ZM262.532,646.87c-10.312,0-18.75-8.438-18.75-18.75s8.438-18.75,18.75-18.75,18.75,8.438,18.75,18.75-8.438,18.75-18.75,18.75Z"/>
  <path d="M918.782,590.62c-20.625,0-37.5,16.875-37.5,37.5s16.875,37.5,37.5,37.5,37.5-16.875,37.5-37.5-16.875-37.5-37.5-37.5ZM918.782,646.87c-10.312,0-18.75-8.438-18.75-18.75s8.438-18.75,18.75-18.75,18.75,8.438,18.75,18.75-8.438,18.75-18.75,18.75Z"/>
  <path d="M609.412,56.25c5.25,0,9.375-4.125,9.375-9.375V9.375c0-5.25-4.125-9.375-9.375-9.375s-9.375,4.125-9.375,9.375v37.5c0,5.25,4.125,9.375,9.375,9.375Z"/>
  <path d="M558.782,54.37c1.875,2.438,4.688,3.75,7.5,3.75,1.875,0,3.938-.562,5.625-1.875,4.125-3.188,5.062-9,1.875-13.125l-22.5-30c-3.188-4.125-9-5.062-13.125-1.875s-5.062,9-1.875,13.125l22.5,30Z"/>
  <path d="M652.532,58.12c2.812,0,5.625-1.312,7.5-3.75l22.5-30c3.188-4.125,2.25-9.938-1.875-13.125s-9.938-2.25-13.125,1.875l-22.5,30c-3.188,4.125-2.25,9.938,1.875,13.125,1.688,1.312,3.562,1.875,5.625,1.875Z"/>
</svg>