<?xml version="1.0" encoding="UTF-8"?>
<svg id="Layer_1" data-name="Layer 1" xmlns="http://www.w3.org/2000/svg" xmlns:xlink="http://www.w3.org/1999/xlink" viewBox="0 0 1023.413 651.616">
  <defs>
    <style>
      .cls-1 {
        fill: #46467f;
      }

      .cls-2 {
        fill: #d02f44;
      }

      .cls-2, .cls-3 {
        fill-rule: evenodd;
      }

      .cls-4 {
        fill: #fff;
      }

      .cls-5 {
        mask: url(#mask);
      }

      .cls-6 {
        fill: none;
      }

      .cls-3 {
        fill: url(#linear-gradient);
      }

      .cls-7 {
        clip-path: url(#clippath);
      }
    </style>
    <clipPath id="clippath">
      <rect class="cls-6" x="93.637" y="82.893" width="451.586" height="322.561" rx="32.256" ry="32.256"/>
    </clipPath>
    <mask id="mask" x="93.637" y="82.893" width="451.586" height="322.561" maskUnits="userSpaceOnUse">
      <g id="mask0_503_3486" data-name="mask0 503 3486">
        <rect class="cls-4" x="93.637" y="82.893" width="451.586" height="322.561" rx="57.143" ry="57.143"/>
      </g>
    </mask>
    <linearGradient id="linear-gradient" x1="469.296" y1="387.744" x2="469.296" y2="383.98" gradientTransform="translate(-13218.062 11182.784) scale(28.571 -28.571)" gradientUnits="userSpaceOnUse">
      <stop offset="0" stop-color="#fff"/>
      <stop offset="1" stop-color="#f0f0f0"/>
    </linearGradient>
  </defs>
  <path d="M1021.612,98.237c-3.84-4.922-8.398-9-12.719-12.961-2.52-2.281-5.039-4.559-7.441-6.961-4.32-4.559-6-8.641-8.039-13.801-1.199-3.121-2.52-6.238-4.441-9.719-4.32-7.922-12.84-11.762-22.68-10.078-12.238,2.039-22.801,11.52-24.719,22.199-1.078,6.359-.48,12.359.121,17.641,1.078,9.719,1.441,15.48-4.922,21.602-7.559,7.32-18.48,9.602-30.121,11.879-4.68.961-9.238,1.922-13.559,3.121-20.16,5.879-32.039,18.238-35.398,36.719-.359,1.68-.48,3.48-.602,5.398-.48,4.68-.84,7.559-2.762,9.359-2.641,2.52-6.719,2.52-13.078,2.039-3.481-.238-6.961-.48-10.441.121-14.52,2.16-15.238,13.441-15.719,20.16-.238,3.719-.48,7.199-2.16,9.602-2.762,3.961-10.32,7.559-16.441,10.441-2.398,1.078-4.68,2.16-6.602,3.238-6.602,3.602-14.281,7.32-22.559,9.238.238-1.68.602-3.238.961-4.922,2.519-12.961,5.281-27.48-3.238-40.801-2.879-4.441-7.68-12-16.199-10.078.121-.359.121-.719.238-1.078.602-5.039.238-16.68-2.519-22.32-3.481-6.961-8.762-8.52-13.078-9.602.238,0,.48,0,.602-.121,2.762-.359,4.922-2.52,5.281-5.281s-1.32-5.398-3.961-6.359c-4.441-1.559-8.641-4.199-13.078-7.078-9.84-6.238-22.078-14.039-37.559-5.281-7.441,4.199-9.121,4.922-15.602,2.879-1.441-.48-2.762-1.078-4.199-1.68-1.441-.602-3-1.32-4.68-1.922,1.078-.719,2.16-1.922,2.879-3.48,2.641-6.121.84-9.602-1.078-11.398-4.922-4.559-12.359-.719-16.32,1.32-4.441,2.281-8.16,5.641-11.762,8.879-5.16,4.68-9.359,8.52-14.879,8.52-1.922-.121-3.481-.48-5.281-1.078-2.762-.719-5.762-1.559-9.84-1.199h-.121c4.32-4.199,14.039-9.359,18.84-11.879,4.441-2.398,8.281-4.32,10.68-6.238,1.68-1.32,2.519-3.238,2.281-5.398-.238-2.039-1.441-3.84-3.359-4.801-7.199-3.48-14.641-3.359-21.961-3.359-4.199,0-8.16.121-12-.602-8.281-1.441-16.68-4.32-24.719-6.961l-3.359-1.078c-20.762-6.961-42.359-10.68-70.32-12.121-47.762-2.398-103.2-5.641-157.44-13.801-47.879-7.199-97.68-17.16-152.16-30.359-13.078-3.121-26.16-6.48-39.238-9.84-2.762-.719-6-1.801-9.48-3-9.238-3.238-19.801-6.84-28.441-5.762-9.84,1.199-12.602,8.398-13.559,14.762-2.281-1.801-5.281-3.238-9-4.559-1.559-.48-3.238-.961-4.922-1.441-5.398-1.441-7.801-2.281-9-5.039-.84-1.801-2.52-3.121-4.441-3.48s-3.961.238-5.398,1.68c-5.398,5.52-4.559,11.762-4.078,15.961.121,1.199.359,2.398.359,3.602,0,3.238-.602,5.52-1.441,8.641-.359,1.32-.719,2.641-.961,4.078-.961,4.078-.121,7.441.48,9.961.359,1.32.48,2.281.48,3-.238,1.801-3.238,6.359-4.801,8.879-1.199,1.922-2.281,3.602-3,4.922-3.602,6.719-6.719,13.922-9.719,20.879-6.121,14.039-12.48,28.68-22.559,39.359-8.398,9-8.641,13.68-8.52,23.52v4.199c0,10.559-2.039,17.879-7.922,28.078-5.281,9.238-4.32,16.199-3.359,22.801.359,2.879.84,6,.719,9.359-.121,3.602-.719,6.961-1.32,10.199-1.441,8.281-3,16.801,3.719,27.84,1.922,3,4.078,5.281,6,7.32,2.039,2.039,3,3.238,3.48,4.199-2.16,2.519-3.48,5.641-3.48,5.762-2.641,6.719-.961,15.48.961,23.039,1.801,6.961,4.801,13.199,7.801,19.32,1.922,3.961,3.961,7.922,5.52,12.121,1.078,3,1.199,6.602,1.32,10.441.238,5.281.359,11.398,3.48,16.922,4.559,8.281,12.602,11.398,19.801,14.039,4.801,1.801,9.238,3.481,12.121,6.481,1.68,1.801,3,3.84,4.32,5.762,2.039,3,4.32,6.359,7.68,9.481l2.641,2.281c4.801,4.078,7.441,6.481,7.559,10.68.121,2.039-.121,3.719-.359,5.281-.84,6.961-.602,13.441,12.48,17.16,5.641,1.559,11.039,2.16,16.199,2.879,6.961.84,13.559,1.68,20.16,4.559,10.68,4.68,20.281,11.16,30.48,18.121,9.961,6.719,20.281,13.801,31.68,18.84,12.359,5.519,25.801,8.519,37.199,10.801,1.801.359,4.199.961,6.84,1.559,13.32,3.359,24.961,5.879,32.398,2.16,2.762-1.441,4.199-3.84,5.039-5.519.238-.359.602-1.078.359-.961,1.559-.961,3.84-.48,7.441.238l1.559.359c8.879,1.801,17.52,6,24.121,12.121,5.398,4.922,10.199,11.52,14.398,20.039,1.559,3.121,2.641,6.481,3.84,9.84,2.52,7.441,5.281,15.121,11.16,21,2.641,2.641,18.48,14.879,27,14.52,8.16-.602,10.922-7.441,12.719-11.879,1.078-2.519,2.039-5.039,3.359-5.762,3.121-1.68,13.559.48,20.762,4.441,7.68,4.199,12.238,13.32,16.68,22.078,1.199,2.398,2.398,4.801,3.602,7.078,2.039,3.602,3.961,7.801,6.121,12.121,10.199,20.762,22.801,46.559,46.559,51.121,8.641,1.559,14.641.602,18.719-3.238,6-5.641,4.801-15,3.602-23.879-.84-6.481-1.801-13.32,0-17.52,4.559-10.559,21.961-20.039,36.719-25.441,1.32-.48,2.519-.84,3.481-1.199,6-1.922,9.238-3.961,10.441-9.121,6.961,1.68,11.762-2.879,15-5.879,1.199-1.199,2.641-2.519,3.602-2.879,5.762-2.281,13.559-.121,21.719,2.039,6.481,1.801,13.078,3.481,19.559,3.359.48,0,1.078-.121,1.559-.238.238.238.602.48.961.719,6.238,4.559,15.719,7.078,23.52,4.32,3.84,1.441,8.519.238,11.281-.602.238-.121.602-.121.961-.238.602,1.922,1.801,4.32,4.559,5.641,3.84,1.68,7.68,0,10.32-1.441,1.078-.602,4.559-2.641,5.519-6.481.961-3.719-1.078-6.719-2.398-8.762-.359-.602-.84-1.199-1.199-1.922-.961-1.922-2.039-3.121-3-4.32.121-.48.238-1.078.602-2.16,1.441-4.922,3.359-6.238,4.922-6.84,3.719-1.441,6.481-1.32,9.238-1.078.602,0,1.32.121,2.039.121.961,1.922,3,3.121,5.039,3.238,6.602.238,12.84-1.441,18.961-3,7.801-2.039,15-3.961,21.359-1.559,3.602,1.32,6.481,3.359,9.359,5.398,6.719,4.801,14.281,10.199,28.078,2.281,1.559-.961,3-1.922,4.199-2.879,2.879-2.16,3-2.039,4.32-1.559,1.32.48,3.359,3.121,4.922,5.039,1.559,2.039,3.238,4.078,5.16,5.762,11.641,9.84,14.762,13.32,9.602,26.879-.602,1.68-.48,3.602.48,5.16s2.519,2.641,4.32,2.879c1.078.121,1.68.359,1.922.359,0,.719-.121,1.801-.121,2.762-.121,1.922-.359,3.961-.121,6.121.48,5.16,1.441,10.801,8.519,11.641q.719.121,1.199.48c.238.121.359.359.48.48-.121,1.441-.359,3.84.719,7.199,2.519,7.68,11.52,12.602,20.641,17.039l1.559.84c.238.121.48.238.602.238-.121.84-.238,1.801,0,2.762.48,5.519,1.32,11.641,6.121,14.398,2.641,1.559,5.398,2.281,8.039,2.281,2.879,0,5.519-.84,8.039-2.641,13.32-9.602,14.398-43.801,12.961-50.762-2.641-13.441-10.441-27.48-18.719-42.238-15.719-28.199-30.719-54.719-11.039-77.52,2.281-2.641,4.801-4.922,7.441-7.199,3.84-3.481,7.801-6.961,11.16-11.762,2.039-2.879,3.84-6,5.762-9,3.121-5.281,6.121-10.199,10.078-14.039,2.039-1.922,4.68-3.481,7.441-5.039,3.238-1.801,6.961-3.961,10.078-7.078,3.481-3.481,5.641-7.559,7.68-11.398,1.441-2.641,2.762-5.16,4.441-7.199,1.922-2.398,4.441-3.359,7.559-4.68,2.879-1.199,6.238-2.398,9.121-5.039,4.559-3.961,7.32-11.641,8.641-23.762.602-5.398,1.68-23.641-8.762-30.84-3-2.039-6.121-2.398-8.281-2.398-1.441-4.68-2.762-9.961-4.078-15.359,1.441.961,1.68,1.32,1.68,1.68,0,2.039,1.199,4.078,3,5.039,1.801,1.078,4.078,1.078,5.879,0l3.359-1.801c7.199-3.719,16.922-8.762,14.281-23.52-1.199-6.602-5.762-12.719-10.32-18.238,3.359-2.519,4.801-6.84,5.879-11.16.602-2.762.961-5.281,1.199-7.559.48-4.199.84-6.961,3.359-10.559,3.602-4.922,8.879-8.281,14.52-11.879,5.879-3.719,11.879-7.559,16.68-13.559.359-.48.602-.961.84-1.441,1.32.719,2.762.961,4.199.602,3.121-.961,5.039-3.719,4.078-6.961,1.078-3.121,12.719-9.602,16.441-11.641,2.398-1.32,4.32-2.398,5.52-3.238,1.32-.961,2.281-2.398,2.52-3.961.238-1.559-.121-3.238-1.078-4.559-.48-.602-.961-1.441-1.441-2.281-1.559-2.52-3.238-5.281-5.641-7.078-3.238-2.398-6-1.922-7.32-1.32-1.68.602-2.879,1.801-3.602,3.48-1.441-1.68-2.762-3.359-3.121-4.32-.84-3.359.961-14.039,2.762-19.078.961-2.762,1.441-3,3-4.078,1.32-.961,3.121-2.16,5.281-4.441,3-3.359,4.32-7.078,5.281-10.078.48-1.68.961-3.121,1.68-4.441,1.559-2.879,1.801-2.879,4.32-3.719,1.32-.48,2.879-.961,4.801-1.801,6.84-3,11.16-7.559,15.359-11.879,1.68-1.801,3.48-3.602,5.398-5.398,1.32-1.078,2.039-3.961,2.039-5.641-.48-1.34-.961-2.66-1.801-3.621h0ZM1006.853,104.596c-3.84,3.961-6.84,7.078-11.52,9.238-1.441.602-2.641.961-3.602,1.32-4.32,1.441-7.441,2.762-11.039,9.238-1.32,2.281-2.039,4.559-2.641,6.602-.719,2.398-1.32,4.199-2.641,5.641-1.199,1.32-2.16,1.922-3.238,2.641-2.879,2.039-5.281,3.961-7.441,9.961-1.68,4.559-4.922,18.602-3.121,26.039.961,4.078,6.359,11.039,11.762,14.762-3.238,2.039-6.359,4.199-8.762,6.48-.602-.238-1.32-.48-2.039-.602-5.16-.719-8.16,3.719-9.961,6.359v.121h-.48c-1.922,0-3.719.961-4.801,2.52l-2.039,2.879c-1.32,2.039-1.441,4.559-.238,6.48-2.039,1.441-4.199,2.762-6.359,4.199-6.359,4.078-12.84,8.16-17.762,15-4.441,6.121-5.039,11.52-5.641,16.199-.238,1.922-.48,3.961-.961,6.121-.48,2.039-.961,3.238-1.199,3.84-.48-.121-1.32-.359-2.641-.961-2.398-1.078-5.281-.359-6.961,1.68-1.68,2.039-1.922,4.922-.359,7.078,1.68,2.519,3.84,5.16,6.121,7.922,3.961,4.801,8.519,10.32,9.359,14.641.961,5.16-.359,6.602-5.879,9.481-1.801-2.16-4.199-3.481-5.879-4.559-1.32-.719-2.762-1.68-3.238-2.281-1.32-1.922-1.441-5.281-1.801-8.879-.238-3.961-.602-8.519-2.519-12.84-.84-1.801-2.519-3.121-4.441-3.481-2.039-.359-3.961.359-5.398,1.801-6.84,7.078-1.441,31.922,2.762,47.641-.961-.359-1.801-.719-2.762-.961-3-1.078-6.359.359-7.559,3.359-1.199,2.879,0,6.359,2.879,7.68,1.199.602,2.398,1.441,3.602,2.16,2.641,1.68,5.519,3.602,9.121,4.441,2.762.602,5.039.48,6.961.238,2.039-.238,2.519-.121,3,.121,3,2.16,4.559,10.559,3.602,19.68-1.078,10.441-3.359,15-4.559,15.961-1.441,1.199-3.481,2.039-5.762,3-3.84,1.559-8.641,3.481-12.602,8.398-2.281,2.879-3.961,6-5.641,9.121-1.68,3.238-3.359,6.359-5.641,8.641-2.039,2.039-4.68,3.481-7.559,5.16-3.121,1.801-6.719,3.84-9.84,6.84-5.16,4.922-8.641,10.801-12,16.559-1.68,2.762-3.359,5.641-5.16,8.281-2.519,3.602-5.879,6.602-9.359,9.719-2.879,2.641-5.879,5.281-8.519,8.281-25.199,29.039-6.719,62.039,9.602,91.199,7.801,13.922,15.121,27,17.398,38.641,1.199,6.238-1.32,33.84-8.281,38.762-.359.238-.961.719-2.281.121-.238-.602-.48-1.68-.602-3.481,3.481-3.121,3-6.481,2.281-8.16-1.801-4.68-6.238-5.641-8.398-6.121-.48-.121-.84-.121-1.199-.238l-1.68-.84c-3.125-2.043-12.727-6.844-13.926-10.324-.359-1.078-.238-1.441-.238-2.281.48-3.719-.121-6.719-4.559-10.559-2.039-1.801-3.961-2.641-5.519-3,0-.359-.121-.719-.121-1.199-.121-1.441,0-2.879.121-4.078.359-3.602.84-10.199-5.281-13.801,4.32-16.441-3-24.238-15-34.32-.961-.84-2.16-2.398-3.359-3.961-2.641-3.481-5.641-7.32-10.32-9-7.559-2.762-12.121.719-15.48,3.238-.961.719-1.922,1.441-3,2.039-7.199,4.078-9.238,2.641-15.238-1.68-3.121-2.16-6.961-4.922-12.121-6.84-9.84-3.602-19.801-1.078-28.559,1.199-2.879.719-5.641,1.441-8.398,1.922.238-3.602,0-7.199-.48-9.481-.719-2.879-2.039-4.922-3.961-6-1.922-1.199-4.32-1.199-6.121,0-1.922,1.078-3,3.238-2.879,5.398.238,3.961.121,6.238,0,7.559h-.48c-3.238-.238-8.16-.48-14.398,1.922-8.762,3.481-11.281,11.879-12,14.641-1.441,4.68-1.559,7.68-.238,10.441-2.039-.238-4.559.602-6.84,1.199-.961.238-2.16.602-3.238.719-.719-.719-1.559-1.199-2.398-1.441-1.801-.602-3.719-.238-5.16.84-3.481,2.519-9.961.961-13.922-1.922-.719-.48-1.68-1.922-2.519-3.121-2.398-3.481-7.441-10.559-16.199-7.441-1.922.719-3.359,2.281-3.84,4.32-.121.48-.121,1.078-.121,1.559-1.078-.238-2.16-.602-3.238-.84-9.238-2.519-19.68-5.398-29.16-1.68-3,1.199-5.398,3.359-7.441,5.281-.961.84-2.398,2.16-3.359,2.762-.238-.48-.359-.961-.48-1.32-.961-2.519-3.238-7.441-8.641-7.32-3.961.238-5.879,2.519-6.602,3.84-2.16,3.719-.48,7.801.84,10.801,0,1.68,0,2.519.121,2.641-.602.238-1.801.602-2.762.961-1.078.359-2.398.719-3.84,1.32-10.68,3.84-36.359,14.762-43.68,31.922-3.121,7.32-2.039,16.078-.961,23.879.602,4.801,1.68,12.121.121,13.559-.48.48-2.879,1.199-8.16.121-17.879-3.359-29.039-26.281-38.039-44.641-2.16-4.559-4.32-8.762-6.359-12.602-1.199-2.16-2.281-4.441-3.481-6.719-5.039-9.961-10.68-21.238-21.719-27.238-5.641-3.121-22.441-9.84-32.281-4.441-5.039,2.879-7.078,7.801-8.641,11.762-.602,1.441-1.68,3.961-2.281,4.441-3-.238-14.281-7.32-17.762-10.922-3.961-4.078-6.121-10.078-8.398-16.559-1.32-3.84-2.762-7.68-4.441-11.281-4.922-9.961-10.559-17.641-17.039-23.641-8.398-7.68-18.719-12.84-29.879-15l-1.441-.238c-4.32-.84-10.199-2.16-15.84,1.078-2.641,1.441-3.961,3.961-4.922,5.519-.238.359-.48.84,0,.602-3.961,2.039-17.52-1.441-24.121-3.121-2.879-.719-5.52-1.32-7.441-1.801-10.801-2.039-23.281-4.922-34.559-9.961-10.441-4.68-19.922-11.039-29.879-17.879-10.078-6.84-20.641-14.039-32.281-19.199-8.16-3.602-15.961-4.559-23.52-5.519-5.039-.602-9.719-1.199-14.52-2.519-2.883-.836-3.723-1.438-4.082-1.438,0-.602.121-1.801.238-2.762.238-2.039.48-4.441.48-7.199-.359-9.719-6.719-15-11.762-19.32l-2.398-2.16c-2.281-2.039-3.961-4.559-5.762-7.199-1.68-2.519-3.359-5.039-5.52-7.32-4.68-5.039-11.039-7.441-16.559-9.481-6-2.281-11.039-4.199-13.559-8.641-1.68-3-1.801-7.078-1.922-11.52-.121-4.441-.359-9.359-2.039-14.16-1.68-4.559-3.84-9-6-13.32-2.879-5.637-5.641-11.156-7.082-16.918-.84-3.238-3-11.762-1.922-15,.602-.961,3-3.961,3.48-4.559.84-.961,1.32-2.039,1.441-3.238.84-7.441-3.602-12-7.078-15.602-1.68-1.68-3.238-3.359-4.441-5.281-4.32-7.078-3.48-12-2.16-19.441.602-3.48,1.32-7.441,1.441-11.879.121-4.441-.359-8.16-.84-11.398-.84-6-1.32-9.602,1.922-15.238,6.961-12.121,9.48-21.359,9.48-34.078v-4.32c-.121-8.16-.121-9.359,5.281-15.238,11.398-12.238,18.238-27.719,24.719-42.719,3.121-7.078,6-13.68,9.359-20.039.602-1.078,1.441-2.52,2.52-4.078,2.879-4.441,6.121-9.48,6.719-13.922.359-2.879-.238-5.281-.602-7.32-.48-2.039-.719-3.238-.359-4.559.238-1.32.602-2.52.961-3.719.84-3.359,1.801-6.84,1.801-11.52,0-1.32-.121-2.52-.238-3.84,2.641,1.199,5.398,1.922,7.68,2.52,1.32.359,2.762.719,4.078,1.199,6.602,2.281,7.922,3.602,10.559,11.52.84,2.281,2.879,3.961,5.281,4.078,2.398.238,4.68-1.199,5.762-3.359,2.039-4.199,2.398-8.879,2.641-12.961.602-8.16,1.32-8.641,3.602-8.879,5.879-.719,15.359,2.52,23.039,5.16,3.84,1.32,7.32,2.52,10.441,3.359,13.078,3.359,26.281,6.719,39.48,9.84,54.84,13.199,105,23.281,153.24,30.48,54.84,8.281,110.64,11.52,158.64,13.922,26.762,1.32,47.398,4.922,67.078,11.52l3.359,1.078c8.519,2.879,17.281,5.879,26.52,7.441,3.84.719,7.68.84,11.398.84h4.078c-11.16,6.121-22.078,13.199-22.199,23.16,0,2.16-.121,7.68,4.199,10.32,3.961,2.398,7.922.121,10.078-.961.48-.238.961-.602,1.078-.719,1.801-.238,3.359.238,5.519.84,2.039.602,4.68,1.32,8.039,1.441,9.961.602,17.281-6,23.52-11.641.48-.359.84-.84,1.32-1.199,0,.238-.121.48-.238.84-.602,2.16.121,4.441,1.68,6,1.68,1.559,3.961,2.039,6,1.199,2.519-.961,5.039.121,9.121,1.922,1.801.719,3.481,1.559,5.281,2.16,11.16,3.602,16.68,1.078,25.199-3.84,8.398-4.801,14.52-1.68,24.359,4.441-1.199.359-2.281.961-3.481,1.559-.121,0-.238.121-.359.121-1.922-2.039-4.078-3.238-6.481-3.719-6.961-1.32-12.48,4.441-16.922,8.879-1.441,1.441-2.762,2.879-3.961,3.719-1.078.84-2.641,1.078-5.16,1.32-2.879.359-6.481.84-9.719,3.121-5.16,3.719-7.078,11.039-8.762,17.52-.602,2.281-1.078,4.32-1.801,5.762-1.199,2.762-.121,6,2.398,7.559.961.602,1.68.84,3.238.84-4.441,12.84-7.922,26.879-1.68,41.16.121,6,1.922,17.52,7.801,23.879,2.641,2.879,6,4.441,9.602,4.559h.359c13.078,0,20.16-18.961,20.879-27,.84-9-1.559-16.922-3.719-23.879-3.238-10.68-5.519-18.48,2.281-28.199,1.441-1.801,3.359-3.359,5.398-5.039,4.68-3.961,11.039-9.48,11.52-17.039,3,1.68,5.879,3.121,10.199,4.559,1.199.359,2.281.719,3.359.961,3.84,1.078,4.68,1.32,5.762,3.48,1.199,2.52,1.922,11.398,1.32,15.359-.238,1.199-2.519,4.922-3.602,6.84-3,4.922-4.68,7.68-3.719,11.039,1.32,5.16,4.68,6.48,6.481,6.84,5.762,1.199,9.719-4.32,12.719-8.281.48-.602.84-1.199.359-.84,1.199-.84,1.922-.961,1.922-.961.719.359,1.922,2.039,3.719,4.801,5.879,9.238,3.84,20.281,1.559,32.039-.84,4.68-1.68,9.238-2.16,13.801-.121,1.801.48,3.48,1.68,4.801,1.199,1.199,3,1.922,4.801,1.801,13.441-1.078,25.199-6.48,34.922-11.762,1.68-.961,3.84-1.922,6-2.879,7.801-3.602,16.559-7.801,21.238-14.398,3.602-5.16,3.961-10.922,4.32-15.719.48-7.32.84-8.398,5.519-9.121,2.16-.359,5.039-.121,7.922,0,6.961.48,15.602.961,22.199-5.398,5.16-5.039,5.762-11.641,6.238-16.922.121-1.441.238-3,.48-4.32,2.519-14.039,11.039-22.68,26.879-27.238,4.078-1.199,8.281-2.039,12.602-2.879,12.121-2.52,25.922-5.281,36-15,10.801-10.441,9.602-21.602,8.52-31.441-.602-4.922-1.078-9.602-.238-14.16.961-5.762,7.68-11.281,14.879-12.48,3.359-.602,7.801-.238,10.199,4.078,1.559,3,2.762,5.762,3.84,8.398,2.281,5.641,4.559,11.52,10.68,17.641,2.52,2.641,5.281,5.039,7.922,7.559,3,2.641,5.762,5.281,8.398,8.039-.707.23-1.547,1.07-2.266,1.91v-.004ZM685.853,198.076c2.039,6.48,3.84,12.719,3.238,19.32-.48,5.879-5.762,16.078-8.879,16.078-.602,0-.719-.238-1.199-.719-3-3.238-4.801-12.238-4.559-16.68,0-.961-.121-1.922-.602-2.879-6-12.48-1.32-25.32,3.602-38.879,2.398-6.84,4.922-13.801,6.121-20.879,0-.359.121-.602.121-.961,2.281-.48,4.801-1.32,7.199-3,1.68-1.199,3.602-3,5.519-5.039,1.801-1.801,5.16-5.281,6-5.641,0,0,.719.48,1.801,2.762,1.32,2.879,0,4.801-6.84,10.68-2.398,2.039-4.922,4.199-6.961,6.719-12.004,14.637-8.043,27.715-4.562,39.117h0Z"/>
  <path d="M255.092,612.864c-3.238-3-6.359-5.879-8.16-9.121l-.602-1.199c-2.641-5.16-6.961-13.68-18.719-13.68h-.121c-9.961,0-15.121-2.398-19.199-16.078-2.641-9,.48-19.922,3.84-31.441,6.48-22.68,14.52-50.879-28.078-65.398-3.84-1.32-7.801-3.84-12-6.602-10.441-6.84-23.398-15.238-39.359-3.961-1.68,1.199-4.559,1.801-7.68,2.519-6.84,1.441-17.281,3.719-18.48,16.922-.359,3.84,1.801,6.84,3.359,9q-.121,0-.238.121c-3.602,1.199-7.559,1.801-11.762,2.398-2.039.238-4.078.602-6,.961s-3.602,1.68-4.441,3.481c-.84,1.801-.719,3.84.359,5.519.602.961.84,2.879.961,4.922.48,5.281,1.441,14.281,12.961,17.52l1.68.359c-2.281.602-4.68,1.68-6.719,3.481-4.559-1.559-9.961-2.519-14.52.238-5.641,3.481-6,10.199-6.238,15.602-.121,2.16-.238,4.559-.719,5.879-1.32,3.719.961,6.84,2.398,8.641.238.359.602.719.719,1.078.961,1.559,2.16,3.359,3.359,5.039.84,1.199,2.039,2.879,2.762,4.078-2.039,4.078-3.84,8.762-1.078,12.602,2.879,3.961,7.441,3.359,13.559,2.398,1.199.84,3.238,3,4.559,4.441-10.32,9-23.398,10.559-37.32,12.238l-3,.359c-3.238.359-5.52,2.519-7.199,3.961-.48.359-.84.84-1.32,1.078-1.441,1.078-2.039,3-2.281,4.801-.238,1.801.84,3.84,2.16,5.039,1.199,1.441,3.961,4.68,8.281,3.121,5.762-2.039,12.238-2.039,19.078-1.922,10.199.121,21.48.238,31.68-6.961,1.559-1.078,3.48-1.922,5.52-2.762.359,1.32.961,2.641,1.801,3.961.961,1.68,2.762,2.762,4.68,2.879h.719c6.84,0,19.32-6.602,21.719-14.398.602-1.922.602-4.078-.238-6.359.359-.121.84-.121,1.199-.121,1.559-.238,3-.48,3.961-.359,7.32,1.199,12.121-3.719,15.602-7.199,3.84-3.84,3.961-3.719,5.398-2.641,6.359,4.559,13.559,7.199,20.398,9.719,12,4.441,22.441,8.281,27.48,20.879,3.359,8.398,9.121,15.48,14.641,22.32,2.398,2.879,4.68,5.879,6.84,8.879,1.078,1.559,3,2.519,4.922,2.519h5.762c1.199,0,2.281-.359,3.238-.961.84-.602,2.039-1.078,3.121-1.68,4.078-2.039,8.641-4.199,9.238-9.238,2.281-13.309-5.879-20.75-12.48-26.871l-.002-.002ZM196.772,576.145c1.32,4.32,2.762,8.039,4.559,11.16-1.559-.602-3-1.199-4.559-1.68-6.48-2.398-12.602-4.559-17.52-8.16-9.84-7.078-17.398.359-20.879,3.961-2.398,2.398-4.078,3.961-5.281,3.84-.84-.121-1.68-.238-2.52-.238.48-1.199.961-2.281,1.441-3.359l1.199-2.762c.961-2.281-.121-4.68-1.922-6.359-1.801-1.68-4.801-1.922-7.078-.84-3.121,1.441-4.68,3.359-4.801,6-.121,0-.238.121-.359.121-3.238,1.199-9.961,3.481-10.559,12.719-.238,3.481-3.84,5.16-11.52,8.039-2.52.961-5.039,1.922-7.559,3.121.238-.238.602-.48.84-.719,1.32-1.078,4.922-5.641,5.039-9.238,0-1.68-.719-3.359-1.922-4.559-.84-.84-1.801-1.801-2.762-2.762-3.719-3.961-7.801-8.398-13.199-8.398h-.84c1.801-4.68-1.559-9.481-4.922-14.039-.961-1.441-2.039-2.762-2.762-4.078-.359-.719-.961-1.441-1.559-2.281.48-2.16.602-4.559.719-6.719.121-2.039.238-5.398.359-6,0,0,1.68-.48,6.84,1.801,2.16.961,4.801.602,6.359-.121,1.441-.602,2.641-1.801,3.238-3.359.48-.48,2.641-.961,3.84-1.32,3.602-.84,8.398-2.16,11.039-6.602,1.801-3.121,2.16-6.84.961-11.52-.48-1.801-1.801-3.359-3.48-4.078-1.801-.719-3.719-.602-5.398.48-.719.359-.84.48-3.961-.48-.84-.238-1.801-.602-2.641-.84-3.48-.961-3.719-2.039-4.199-7.078,0-.602-.121-1.32-.238-2.039,4.199-.602,8.52-1.32,12.84-2.641,1.922-.602,7.559-2.519,9.238-7.559,1.559-4.68-1.199-8.519-3.121-11.039-.48-.602-1.078-1.559-1.199-.84.359-3.719,1.559-4.559,9-6.121,3.961-.84,8.398-1.801,12.121-4.441,8.762-6.238,15.238-2.641,25.801,4.199,4.559,3,9.359,6.121,14.641,7.922,31.801,10.801,27,27.48,20.398,50.641-3.473,12.824-7.312,26.023-3.715,38.266h0ZM253.413,638.063c-.961.48-1.801.961-2.762,1.441h-1.078c-1.801-2.281-3.602-4.559-5.398-6.84-5.16-6.481-10.078-12.602-12.84-19.32-2.039-5.16-4.801-9.238-7.922-12.602,1.32.121,2.52.238,4.199.121,3.961,0,5.52,2.039,8.039,7.078l.719,1.32c2.641,5.039,6.719,8.762,10.559,12.359,6,5.519,9.48,9.121,9.238,14.879-.715.605-1.914,1.203-2.754,1.562h0Z"/>
  <path d="M357.332,589.104q-.121,0,0,0c-3.602,0-8.52,1.32-12.48,7.441-4.68,7.441-4.078,19.199-1.441,27,2.398,7.078,6.602,12,11.762,14.039.719.238,1.441.359,2.039.359,1.078,0,2.281-.359,3.238-.961l24.238-15.238c1.32-.84,2.281-2.281,2.641-3.84s0-3.238-.84-4.559c-7.199-11.043-18.238-24.242-29.156-24.242h0ZM357.449,624.741c-.961-1.199-1.922-2.879-2.641-5.039-2.16-6.481-1.68-13.801.121-16.68,1.32-2.039,2.281-1.922,2.281-1.922,2.879,0,9,4.68,15.719,13.801l-15.481,9.84Z"/>
  <path d="M345.572,592.104l7.801-7.078c1.441-1.32,2.16-3.238,1.922-5.16-.238-1.922-1.32-3.602-3-4.559-.602-.359-1.559-.961-2.52-1.559-3.84-2.519-8.641-5.641-13.078-6.481-.602-1.68-2.039-3-3.84-3.602l-11.762-3.602c-1.559-.48-3.359-.238-4.801.602l-6.238,3.719c0-.84.121-1.68-.121-2.641-1.078-5.398-6-12.238-12-13.922-4.078-1.078-8.039.121-11.039,3.481-5.039,5.641-3.238,10.801-2.16,12.719,3,5.641,11.039,8.039,17.039,8.039.84,0,1.68,0,2.398-.121.84-.121,1.441-.48,2.16-.84.238,1.441.719,2.762,1.801,3.719,1.199,1.078,2.52,2.398,3.719,3.719,3.602,3.961,7.68,8.398,13.32,9h1.078c2.398,0,3.961-.961,4.922-1.801,1.32,1.441,2.641,2.879,4.199,4.32l1.68,1.68c1.078,1.199,2.52,1.922,4.199,2.039h.359c1.441-.113,2.879-.594,3.961-1.672h0ZM291.451,555.143l3.961,3.481v.121l-3.961-3.602Z"/>
  <path d="M265.292,550.704c2.52-2.519,5.52-8.281-2.641-19.199-.961-1.32-2.52-2.16-4.078-2.398-1.68-.238-3.238.238-4.559,1.32l-9.48,7.922c-1.441,1.199-2.16,2.879-2.16,4.68s.961,3.481,2.398,4.68c4.922,3.719,9.602,5.641,13.68,5.641,2.641-.004,5.039-.844,6.84-2.644h0Z"/>
  <g class="cls-7">
    <g>
      <rect class="cls-4" x="93.637" y="82.893" width="451.586" height="322.561" rx="57.143" ry="57.143"/>
      <g class="cls-5">
        <g>
          <path class="cls-2" d="M545.222,82.893H93.637v21.504h451.586v-21.504ZM545.222,125.901H93.637v21.504h451.586v-21.504ZM93.637,168.909h451.586v21.504H93.637v-21.504ZM545.222,211.917H93.637v21.504h451.586v-21.504ZM93.637,254.926h451.586v21.504H93.637v-21.504ZM545.222,297.933H93.637v21.505h451.586v-21.505ZM93.637,340.941h451.586v21.504H93.637v-21.504ZM545.222,383.95H93.637v21.504h451.586v-21.504Z"/>
          <rect class="cls-1" x="93.637" y="82.893" width="193.537" height="150.529"/>
          <path class="cls-3" d="M136.645,115.148c0,5.938-4.814,10.752-10.752,10.752s-10.752-4.814-10.752-10.752,4.814-10.752,10.752-10.752,10.752,4.814,10.752,10.752ZM179.653,115.148c0,5.938-4.814,10.752-10.752,10.752s-10.752-4.814-10.752-10.752,4.814-10.752,10.752-10.752,10.752,4.814,10.752,10.752ZM211.909,125.901c5.938,0,10.752-4.814,10.752-10.752s-4.814-10.752-10.752-10.752-10.752,4.814-10.752,10.752,4.814,10.752,10.752,10.752ZM265.668,115.148c0,5.938-4.813,10.752-10.751,10.752s-10.752-4.814-10.752-10.752,4.814-10.752,10.752-10.752,10.751,4.814,10.751,10.752ZM147.396,147.405c5.938,0,10.752-4.814,10.752-10.752s-4.814-10.752-10.752-10.752-10.752,4.814-10.752,10.752,4.814,10.752,10.752,10.752ZM201.157,136.653c0,5.938-4.814,10.752-10.752,10.752s-10.752-4.814-10.752-10.752,4.814-10.752,10.752-10.752,10.752,4.814,10.752,10.752ZM233.413,147.405c5.938,0,10.752-4.814,10.752-10.752s-4.814-10.752-10.752-10.752-10.752,4.814-10.752,10.752,4.814,10.752,10.752,10.752ZM265.668,158.157c0,5.938-4.813,10.752-10.751,10.752s-10.752-4.814-10.752-10.752,4.814-10.752,10.752-10.752,10.751,4.814,10.751,10.752ZM211.909,168.909c5.938,0,10.752-4.814,10.752-10.752s-4.814-10.752-10.752-10.752-10.752,4.814-10.752,10.752,4.814,10.752,10.752,10.752ZM179.653,158.157c0,5.938-4.814,10.752-10.752,10.752s-10.752-4.814-10.752-10.752,4.814-10.752,10.752-10.752,10.752,4.814,10.752,10.752ZM125.892,168.909c5.938,0,10.752-4.814,10.752-10.752s-4.814-10.752-10.752-10.752-10.752,4.814-10.752,10.752,4.814,10.752,10.752,10.752ZM158.149,179.661c0,5.938-4.814,10.752-10.752,10.752s-10.752-4.814-10.752-10.752,4.814-10.752,10.752-10.752,10.752,4.814,10.752,10.752ZM190.405,190.413c5.938,0,10.752-4.814,10.752-10.752s-4.814-10.752-10.752-10.752-10.752,4.814-10.752,10.752,4.814,10.752,10.752,10.752ZM244.165,179.661c0,5.938-4.814,10.752-10.752,10.752s-10.752-4.814-10.752-10.752,4.814-10.752,10.752-10.752,10.752,4.814,10.752,10.752ZM254.917,211.917c5.939,0,10.751-4.814,10.751-10.752s-4.813-10.752-10.751-10.752-10.752,4.814-10.752,10.752,4.814,10.752,10.752,10.752ZM222.661,201.165c0,5.938-4.814,10.752-10.752,10.752s-10.752-4.814-10.752-10.752,4.814-10.752,10.752-10.752,10.752,4.814,10.752,10.752ZM168.901,211.917c5.938,0,10.752-4.814,10.752-10.752s-4.814-10.752-10.752-10.752-10.752,4.814-10.752,10.752,4.814,10.752,10.752,10.752ZM136.645,201.165c0,5.938-4.814,10.752-10.752,10.752s-10.752-4.814-10.752-10.752,4.814-10.752,10.752-10.752,10.752,4.814,10.752,10.752Z"/>
        </g>
      </g>
    </g>
  </g>
</svg>