<?xml version="1.0" encoding="UTF-8"?>
<svg id="Layer_1" data-name="Layer 1" xmlns="http://www.w3.org/2000/svg" viewBox="0 0 960 600">
  <path d="M660,0c-67.828,0-129.71,23.438-180.05,61.547C429.653,23.485,367.73,0,299.9,0,134.58,0,0,134.58,0,300s134.58,300,299.95,300c67.828,0,129.71-23.438,180.05-61.547,50.297,38.062,112.22,61.547,180.05,61.547,165.37,0,299.95-134.58,299.95-300S825.42,0,660,0ZM299.95,565.36c-146.29,0-265.26-119.02-265.26-265.36S153.71,34.64,299.95,34.64c57.047,0,109.64,18.469,152.95,49.219-23.531,22.547-42.562,49.172-57.797,78.281-.75,1.078-1.219,1.969-1.734,3.188-20.672,40.688-33.375,86.016-33.375,134.68,0,26.953,4.734,52.641,11.438,77.531.094.75-.469,1.359-.281,2.062.281,1.031,1.219,1.547,1.688,2.438,14.812,51.656,42.281,97.828,80.062,134.06-43.312,30.75-95.906,49.266-152.95,49.266v-.005ZM500.58,128.3l-53.531,14.859c9.844-13.312,20.766-25.688,32.906-36.938,7.406,6.891,14.062,14.391,20.625,22.078h0ZM479.955,493.78c-7.312-6.797-13.828-14.156-20.344-21.75l52.594-14.438c-9.656,13.031-20.344,25.125-32.25,36.188ZM538.267,414.468l-101.48,27.844c-11.016-17.203-19.547-35.953-26.391-55.594l150.28-41.484c-4.172,24.469-11.906,47.531-22.406,69.234h-.003ZM565.314,299.998c0,2.812-.75,5.438-.844,8.25l-164.34,45.375c-3.609-17.344-5.484-35.25-5.484-53.625,0-2.719.703-5.25.797-7.969l164.44-45.375c3.562,17.25,5.438,35.062,5.438,53.344h-.006ZM399.184,254.998c4.172-24.234,11.719-47.062,21.984-68.578l102.14-28.453c10.969,17.203,19.5,35.953,26.297,55.547l-150.421,41.484ZM659.994,565.358c-57.047,0-109.64-18.469-152.95-49.219,23.25-22.266,42.094-48.609,57.281-77.344.797-1.125,1.266-2.062,1.828-3.328,20.859-40.875,33.797-86.484,33.797-135.47,0-26.766-4.641-52.266-11.25-76.969-.094-.844.516-1.547.281-2.344-.281-.984-1.312-1.312-1.734-2.203-14.766-51.891-42.281-98.203-80.203-134.58,43.312-30.75,95.906-49.219,152.95-49.219,146.34,0,265.36,119.02,265.36,265.36s-119.02,265.31-265.36,265.31v.006Z"/>
</svg>