<?xml version="1.0" encoding="UTF-8"?>
<svg id="Layer_1" xmlns="http://www.w3.org/2000/svg" version="1.1" viewBox="0 0 1075.5 1075.5">
  <!-- Generator: Adobe Illustrator 29.2.1, SVG Export Plug-In . SVG Version: 2.1.0 Build 116)  -->
  <path d="M94.6,270.2c-18.2,15.9-30.9,34.4-38,55.4-1.5,4.5-1,9.5,1.3,13.7s6.3,7.2,11,8.2c12.8,3,26.1,4.5,39.8,4.5s28.4-1.6,43.1-4.7c5.5,38.2,22.6,75.4,37.9,108.6,3,6.6,5.9,12.8,8.7,18.9-5.6,10.6-8.8,22.6-8.8,34.9,0,41.4,33.8,75.2,75.2,75.2h71.6c41.4,0,75.2-33.8,75.2-75.2s-3.1-24.2-8.8-34.9c2.7-6.1,5.6-12.4,8.7-18.9,15.3-33.2,32.4-70.4,37.9-108.6,14.7,3.1,29.2,4.7,43.1,4.7s26.9-1.5,39.8-4.5c4.6-1.1,8.7-4.1,11-8.2,2.3-4.2,2.8-9.1,1.3-13.7-7-21-19.7-39.5-38-55.4,55.4-21,94.5-74.8,94.5-136.6S568.5,26.4,518.2,2.2c-9-4.3-19.5-1.8-25.5,6-6,7.7-5.8,18.8.6,26.2,13.5,15.8,20.9,35.9,20.9,56.6,0,44.6-33.8,81.7-77,87-15.5-24.1-42.5-40.1-73.2-40.1s-27.4,2.4-38.1,4.5c-8.9,1.8-16.6,3.3-25.3,3.3s-16.4-1.5-25.3-3.3c-10.6-2.1-22.6-4.5-38.1-4.5-30.7,0-57.7,16-73.2,40.1-43.3-5.3-77-42.4-77-87s7.4-40.7,20.9-56.6c6.3-7.5,6.6-18.5.6-26.2-6.1-7.9-16.6-10.3-25.5-6C32.5,26.4,0,78.1,0,133.7s39.2,115.5,94.5,136.6h0ZM450.9,312.7v-38.7c24,12,41.6,26.6,52.5,43.5-16.6,1.2-34.2-.5-52.5-4.9ZM548.2,91c0-7.5-.7-15-2.1-22.3,13.4,18.7,21.1,41.4,21.1,65.1,0,56.6-43,104.5-98.7,111.1-5.6-2.9-11.4-5.6-17.6-8.2v-11.9c0-4.9-.4-9.7-1.2-14.3,56-10.9,98.5-60.5,98.5-119.4h0ZM184.4,224.7c0-29.2,23.7-52.9,52.9-52.9s21.5,1.9,31.4,3.8c9.8,1.9,19.9,3.9,32,3.9s22.2-2,32-3.9c9.9-2,19.4-3.8,31.4-3.8,29.2,0,52.9,23.7,52.9,52.9v108.4c-2.8,36.2-20.6,74.6-36.2,108.6-.9,1.9-1.7,3.8-2.6,5.6-.9-.7-1.9-1.3-2.9-1.9-2.4-1.5-3.5-3.8-3-6.6,1.6-9.2-4.5-18-13.8-19.7-9.2-1.6-18,4.5-19.7,13.8-2.9,16.5,4.5,32.9,18.9,41.5,12.4,7.5,20,21,20,35.3s-9.4,30.2-23.1,36.9l1.8-3c4.7-8.2,1.9-18.5-6.2-23.2s-18.5-1.9-23.2,6.2l-14.1,24.3h-24.4l-14.1-24.3c-4.7-8.2-15.1-10.9-23.2-6.2-8.2,4.7-10.9,15.1-6.2,23.2l1.8,3c-13.6-6.7-23.1-20.7-23.1-36.9s7.7-27.8,20-35.3c14.4-8.7,21.8-25,18.9-41.5-1.6-9.2-10.4-15.4-19.7-13.8-9.2,1.6-15.4,10.5-13.8,19.7.5,2.8-.6,5.1-3,6.6-1,.6-1.9,1.3-2.9,1.9-.8-1.9-1.7-3.7-2.6-5.6-15.7-33.9-33.4-72.4-36.2-108.6v-108.4h0ZM97.9,317.6c10.9-17,28.5-31.5,52.5-43.5v38.7c-18.3,4.4-35.9,6.1-52.5,4.9ZM55.1,68.6c-1.4,7.3-2.1,14.8-2.1,22.3,0,58.9,42.6,108.5,98.5,119.4-.8,4.7-1.2,9.5-1.2,14.3v11.9c-6.1,2.6-12,5.3-17.6,8.2-55.7-6.6-98.7-54.6-98.7-111.1s7.7-46.4,21.1-65.1h0ZM356.6,318.2c-6.7-6.7-6.7-17.4,0-24l19.6-19.6c6.7-6.7,17.4-6.7,24,0s6.7,17.4,0,24l-19.6,19.6c-3.3,3.3-7.7,5-12,5s-8.7-1.6-12-5h0ZM232.6,323.2c-4.4,0-8.7-1.6-12-5l-19.6-19.6c-6.7-6.7-6.7-17.4,0-24s17.4-6.7,24,0l19.6,19.6c6.7,6.7,6.7,17.4,0,24-3.3,3.3-7.7,5-12,5h0ZM631.8,550.9c9.4,0,17-7.6,17-17v-58.8l36.2-20.9c26.8,48.5,78.5,81.3,137.7,81.3s110.9-32.9,137.7-81.3l36.2,20.9v58.8c0,9.4,7.6,17,17,17s17-7.6,17-17v-68.6c0-6.1-3.2-11.7-8.5-14.7l-48.6-28c4.1-14.1,6.4-28.9,6.4-44.3v-22.7h30.1c9.4,0,17-7.6,17-17s-7.6-17-17-17h-30.1v-.7c0-25.5-6.1-49.5-16.9-70.8l45.9-26.5c5.2-3,8.5-8.7,8.5-14.7v-48.5c0-9.4-7.6-17-17-17s-17,7.6-17,17v38.6l-39,22.5c-8.2-10-17.5-18.9-27.8-26.7v-25.4c0-34.4-18.5-64.4-46.1-80.8l36.3-63c4.7-8.2,1.9-18.5-6.2-23.2s-18.5-1.9-23.2,6.2l-39.3,68.1c-5-.8-10.2-1.3-15.4-1.3s-10.4.5-15.4,1.3l-39.3-68.1c-4.7-8.2-15.1-10.9-23.2-6.2-8.2,4.7-10.9,15.1-6.2,23.2l36.3,63c-27.6,16.4-46.1,46.5-46.1,80.8v25.4c-10.3,7.7-19.7,16.7-27.8,26.7l-39-22.5v-38.6c0-9.4-7.6-17-17-17s-17,7.6-17,17v48.5c0,6.1,3.2,11.7,8.5,14.7l45.9,26.5c-10.8,21.3-16.9,45.4-16.9,70.8v.7h-30.1c-9.4,0-17,7.6-17,17s7.6,17,17,17h30.1v22.7c0,15.4,2.2,30.2,6.4,44.3l-48.6,28c-5.2,3-8.5,8.7-8.5,14.7v68.6c0,9.4,7.6,17,17,17h0ZM839.7,500.2v-183.4c0-9.4-7.6-17-17-17s-17,7.6-17,17v183.4c-44.4-6.1-81.3-36.1-97.5-76.5,0-.2-.1-.4-.2-.6-5.5-14-8.6-29.2-8.6-45v-57.4c0-24.5,7.2-47.4,19.6-66.6.5-.6.9-1.3,1.3-1.9,0-.1.1-.3.2-.4,22.2-32.8,59.7-54.3,102.1-54.3s79.9,21.6,102.1,54.3c0,.1.1.3.2.4.4.7.8,1.4,1.3,2,12.4,19.2,19.6,42.1,19.6,66.6v57.4c0,15.9-3,31.1-8.6,45,0,.2-.1.4-.2.6-16.1,40.4-53.1,70.3-97.5,76.5h0ZM762.8,169.3c0-33,26.9-60,60-60s60,26.9,60,60v6.1c-18.5-7.6-38.7-11.9-60-11.9s-41.4,4.3-60,11.9v-6.1ZM1075,778c-2.8-25.2-18.3-46.2-40.1-56.7,5.5-18,2.7-38.2-8.6-54.1-11.4-16.2-29.7-25.6-48.8-26.3-2.9-23.2-16.5-44.4-37.5-56.4-21.1-12.1-46.5-13-68.1-3.6-10.9-16.5-28.8-26.6-49.2-26.6s-38.3,10.1-49.2,26.6c-21.6-9.5-47-8.5-68.1,3.6-21,12-34.6,33.2-37.5,56.4-19.1.7-37.3,10.1-48.8,26.3-11.3,16-14.1,36.1-8.6,54.1-21.8,10.5-37.3,31.5-40.1,56.7-2.8,25,7.5,48.8,26.3,63.8-12.8,20-15.7,45.2-6.7,68.2,9.5,24.3,30.4,41.4,55.1,46.5,1,18.4,10.1,35.9,25.4,47.2,12.7,9.4,28.3,13.4,43.5,11.9,3,21.6,16.1,41.3,36.4,51.9,10.1,5.2,21,7.8,31.8,7.8s28.7-4.5,40.6-13.1c20.8,15,48.8,17.6,72.4,5.2,20.2-10.6,33.4-30.3,36.4-51.9,15.2,1.5,30.8-2.5,43.5-11.9,15.2-11.2,24.3-28.8,25.4-47.2,24.7-5.1,45.6-22.2,55.1-46.5,9-23,6.1-48.2-6.7-68.2,18.8-15,29.1-38.8,26.3-63.8h0ZM1016.6,821.4c-5.7,2.1-9.9,7.1-11,13.1s1.2,12.1,5.9,16c13.9,11.5,18.8,30.4,12.2,47.2s-23,27.4-41,26.4c-5.4-.3-10.7,2.1-14.2,6.3s-4.6,9.9-3.1,15.2c3.1,11.4-1.1,23.8-10.6,30.8s-22.6,7.5-32.6,1.1c-6-3.8-13.7-3.5-19.4.8s-8.1,11.6-6.1,18.4c4.7,15.9-2.6,33.1-17.3,40.8s-33,3.9-43.4-9c-3.2-4-8.1-6.3-13.2-6.3s-10,2.3-13.2,6.3c-10.4,12.9-28.7,16.7-43.4,9s-22-24.8-17.3-40.8c2-6.8-.4-14.1-6.1-18.4-3-2.2-6.6-3.4-10.2-3.4s-6.3.9-9.1,2.7c-10,6.4-23.1,5.9-32.6-1.1s-13.8-19.4-10.6-30.8c1.5-5.3.3-10.9-3.1-15.2s-8.7-6.6-14.2-6.3c-18,1-34.5-9.6-41-26.4s-1.6-35.7,12.2-47.2c4.7-3.9,6.9-10,5.9-16s-5.2-11-11-13.1c-16.5-6-26.6-22.2-24.7-39.6,1.9-17.4,15.4-31.1,32.8-33.2,6.1-.8,11.3-4.8,13.7-10.5,2.3-5.7,1.3-12.3-2.6-17.1-8-9.8-8.4-23.9-1.2-34.2s20.7-14.6,32.6-10.4c5.7,2,12,.8,16.6-3s6.8-10,5.8-15.9c-3-17.3,5.2-34.8,20.4-43.5,15.2-8.7,34.5-6.9,47.8,4.5,4.5,3.8,10.6,5.1,16.3,3.2s9.9-6.4,11.3-12.1c3.8-15.7,15.4-21.2,25-21.2s21.2,5.6,25.1,21.2c1.4,5.7,5.7,10.3,11.3,12.1s11.8.6,16.3-3.2c13.4-11.4,32.6-13.2,47.8-4.5s23.4,26.2,20.4,43.5c-1.1,6,1.1,12,5.8,15.9,4.6,3.9,11,5.1,16.6,3,11.9-4.2,25.3,0,32.6,10.4s6.8,24.4-1.2,34.2c-3.9,4.8-4.9,11.3-2.6,17.1s7.5,9.8,13.7,10.5c17.3,2.2,30.8,15.8,32.8,33.2,1.9,17.4-8.2,33.7-24.7,39.6h-.2ZM959,729.8c-1.6-7-3.8-13.6-6.8-19.6-9.6-19-25.6-30.3-46.5-32.6-7.1-.8-14,3-17.1,9.4-4.8,9.7-14.4,15.8-25.2,15.8h-.3c-10.7,0-20.3-5.9-25.2-15.4-2.9-5.7-8.8-9.2-15.1-9.2s-12.2,3.6-15.1,9.2c-4.9,9.5-14.5,15.4-25.2,15.4h-.3c-10.8,0-20.4-6.2-25.2-15.8-3.1-6.4-10-10.2-17.1-9.4-20.8,2.3-36.9,13.5-46.5,32.6-3,6-5.2,12.6-6.8,19.6-32.6,8.1-54.3,28.1-54.1,51.2,0,14.6,8.9,39.8,64.4,49.8,6.7,20.1,15.5,39.6,25.5,56.7,31.1,53.4,64.7,81.1,99.8,82.5h1.3c35.1-1.4,68.7-29.1,99.8-82.5,9.9-17.1,18.8-36.6,25.5-56.7,55.5-10,64.3-35.2,64.4-49.8.1-23.1-21.6-43.1-54.2-51.2h.1ZM666.3,780.8c0-2.7,5.5-9.4,17.5-14.4.5,8.9,1.6,18,3.3,27.2-16.6-5.2-20.8-11.3-20.8-12.8h0ZM893.8,870.4c-18.2,31.3-36.7,51.9-54.1,60.7v-28.5c6.7-3.6,13.2-9,19.6-16.5,6.1-7.1,5.2-17.9-1.9-24s-17.9-5.2-24,1.9c-6.6,7.8-10.9,9.4-11.8,9.3-.7,0-3.6-1.5-7.8-7.7-5.2-7.8-15.8-9.8-23.6-4.6-7.8,5.2-9.8,15.8-4.6,23.6,6,8.9,12.7,15.3,20.1,18.9v27.7c-17.5-8.9-35.9-29.4-54.1-60.7-30.3-52-42.6-115.7-27.9-144.9,2.7-5.3,6.1-9,10.5-11.3,11.6,14.1,28.8,22.5,47.6,22.7,15.3.2,29.7-5.2,40.9-14.8,11.2,9.5,25.6,14.9,40.9,14.8,18.8-.2,36.1-8.6,47.6-22.7,4.4,2.3,7.8,6,10.5,11.3,14.7,29.2,2.4,92.8-27.9,144.9h0ZM958.3,793.6c1.7-9.2,2.8-18.4,3.3-27.2,12,5.1,17.5,11.7,17.5,14.4s-4.2,7.6-20.8,12.8h0ZM591.6,952.1c-140.6-41.1-241.2-107.8-299.1-198.4-9.4-14.7-15.8-31.5-22.1-47.6-14.5-37.8-31-80.7-88-88.5-44.3-6.1-87,18.4-104.3,59l-68.2,32c-6.2,2.9-10.1,9.4-9.8,16.3.3,6.9,4.8,12.9,11.3,15.2l57.4,20.2c-4.8,38.6.2,77.9,14.5,114.2,16.1,41,43.4,76.4,78.8,102.5,19,14,39.9,24.9,62,32.6v49c0,9.4,7.6,17,17,17s17-7.6,17-17v-39.9c2.3.4,4.6.8,6.9,1.2v38.8c0,9.4,7.6,17,17,17s17-7.6,17-17v-36c35.3.3,70.2-7.5,102.1-22.6,34.3,21,68,38.8,102.1,38.8s2.5,0,3.8,0c34.2-1.4,64.7-21,93.5-60,3.3-4.5,4.2-10.3,2.4-15.5s-6-9.3-11.3-10.9h0ZM505.7,1004.5c-28.3,1.1-60.9-17.6-94.6-38.6-2.8-1.7-5.9-2.6-9-2.6s-5.4.7-7.9,2c-32.2,17-68.1,24.5-103.5,22.6-2.5-1.5-5.4-2.3-8.5-2.3s-4,.4-5.9,1.1c-33.5-4.1-66-16.6-93.9-37.2-61.3-45.2-91.9-122.8-77.9-197.6,1.5-8.2-3.2-16.4-11.1-19.2l-31.5-11.1,36.8-17.2c4.2-2,7.4-5.5,8.9-9.9,10-29.3,39.5-47.5,70.2-43.3,35.4,4.9,45.8,27.5,61,67.1,6.8,17.8,13.9,36.1,25.1,53.8,32,50,75.7,93.2,130.7,129.2-29.3,14.7-75.3,15.5-113.8,0-26.1-10.5-69.8-37.4-69.4-99,0-9.4-7.5-17.1-16.9-17.1h0c-9.3,0-16.9,7.5-17,16.9-.4,59.7,32.7,107.4,90.7,130.8,23.3,9.4,48.3,14,72.2,14s64.7-8.9,86.6-25.8c38.8,21.8,82.3,40.6,130.6,56.2-22.1,23.2-39.7,26.9-51.8,27.4h0ZM172.5,706.2c0,9.4-7.6,17-17,17h-2.6c-9.4,0-17-7.6-17-17s7.6-17,17-17h2.6c9.4,0,17,7.6,17,17ZM792.6,797.8c0,11.7-9.5,21.2-21.2,21.2s-21.2-9.5-21.2-21.2,9.5-21.2,21.2-21.2,21.2,9.5,21.2,21.2ZM895.1,797.8c0,11.7-9.5,21.2-21.2,21.2s-21.2-9.5-21.2-21.2,9.5-21.2,21.2-21.2,21.2,9.5,21.2,21.2Z"/>
</svg>