<?xml version="1.0" encoding="UTF-8"?><svg id="Layer_1" xmlns="http://www.w3.org/2000/svg" viewBox="0 0 630.949 975.012"><defs><style>.cls-1{fill:none;}</style></defs><path d="M522.882,0H105.692C58.583,0,20.145,45.386,20.145,101.01v829.386c2.578-6.918,8.438-11.623,15-11.623h3.75V101.006c0-43.448,30-78.871,66.797-78.871h417.19c36.797,0,66.797,35.423,66.797,78.871v817.768h6.094c5.156,0,9.609,2.767,12.656,7.195V101.01c0-55.624-38.438-101.01-85.547-101.01h0ZM20.152,945.892v3.321h1.641c-.703-1.107-1.172-2.214-1.641-3.321Z"/><path d="M499.682,44.5H128.902c-31.406,0-56.953,30.915-56.953,68.919v810.024h18.75V113.419c0-25.526,17.109-46.23,38.203-46.23h370.78c21.094,0,38.203,20.704,38.203,46.23v810.024h18.75V113.419c0-38.005-25.547-68.919-56.953-68.919Z"/><path d="M90.702,904.7v18.75h465.94v-18.75H90.702ZM90.702,904.7v18.75h498.98v-18.75H90.702ZM608.432,907.044c-3.984-1.641-8.203-2.344-12.656-2.344H35.156c-5.391,0-10.547,1.172-15,3.281-11.953,5.625-20.156,17.812-20.156,31.875,0,19.453,15.703,35.156,35.156,35.156h560.86c9.609,0,18.281-3.75,25.078-10.547,6.562-6.562,10.078-15.469,9.844-24.609,0-15-9.375-27.656-22.5-32.812h-.006ZM607.729,951.341c-3.047,3.047-7.266,4.922-11.719,4.922H35.15c-5.625,0-10.547-2.812-13.359-7.031-.703-.938-1.172-1.875-1.641-2.812-.938-2.109-1.406-4.219-1.406-6.562s.469-4.688,1.406-6.562c2.578-5.859,8.438-9.844,15-9.844h560.62c5.156,0,9.609,2.344,12.656,6.094,2.344,2.812,3.75,6.562,3.75,10.547,0,4.219-1.641,8.203-4.453,11.25h.006ZM90.699,904.7v18.75h498.98v-18.75H90.699Z"/><path d="M196.402,451.64h-43.359c-19.453,0-35.156,15.703-35.156,35.156v158.44c0,19.453,15.703,35.156,35.156,35.156h43.359c19.453,0,35.156-15.703,35.156-35.156v-70.078h-18.047c.469-2.578.703-5.156.703-7.734,0-3.75-.469-7.266-1.406-10.547v88.359c0,9.141-7.266,16.406-16.406,16.406h-43.359c-9.141,0-16.406-7.266-16.406-16.406v-158.44c0-9.141,7.266-16.406,16.406-16.406h43.359c9.141,0,16.406,7.266,16.406,16.406v69.844h18.75v-69.844c0-19.453-15.703-35.156-35.156-35.156h0Z"/><path d="M297.652,537.89h-103.12c-7.031,0-13.594,2.578-18.984,7.5,7.5.703,13.828,5.156,17.109,11.484.469-.234,1.172-.234,1.641-.234h103.12c5.156,0,9.375,4.219,9.375,9.375,0,2.344-.938,4.688-2.578,6.562l-.234.234c-1.406,1.641-3.75,2.344-6.328,2.344h-103.589c-2.578,6.797-8.203,11.953-15.469,13.828,4.453,3.047,10.078,4.922,15.938,4.922h103.36c7.734,0,14.766-3.047,19.922-8.203s7.969-12.422,7.969-19.688c0-15.469-12.656-28.125-28.125-28.125h-.006Z"/><path d="M212.812,556.88h0c-2.109-7.5-5.859-13.828-11.25-18.984-7.5-7.031-17.344-11.484-28.359-11.484-15.938,0-29.766,9.141-36.562,22.5-2.812,5.625-4.453,11.953-4.453,18.516,0,6.797,1.641,12.891,4.453,18.516,6.797,13.359,20.625,22.5,36.562,22.5,12.422,0,23.672-5.625,31.172-14.531,3.984-4.453,6.797-9.844,8.203-15.938l.703-2.812c.469-2.578.703-5.156.703-7.734.234-3.75-.234-7.266-1.172-10.547h0ZM173.203,589.692c-12.188,0-22.266-10.078-22.266-22.266s10.078-22.266,22.266-22.266c.703,0,1.641,0,2.344.234,7.5.703,13.828,5.156,17.109,11.484,1.641,3.047,2.578,6.797,2.578,10.547,0,2.812-.469,5.391-1.406,7.734-2.578,6.797-8.203,11.953-15.469,13.828-1.406.469-3.281.703-5.156.703h0Z"/><rect class="cls-1" x="127.402" y="156.5" width="380" height="244"/><path d="M168.102,266.058l-15.4,46.64h-19.8l50.38-148.281h23.1l50.6,148.281h-20.46l-15.84-46.64h-52.58ZM216.722,251.098l-14.52-42.68c-3.3-9.68-5.5-18.48-7.7-27.06h-.44c-2.2,8.8-4.62,17.82-7.48,26.84l-14.52,42.9h44.66Z"/><path d="M313.962,187.737h-.44l-24.86,13.42-3.74-14.74,31.24-16.72h16.5v143.001h-18.7v-124.961Z"/><path d="M389.419,290.478c5.5,3.52,18.26,9.02,31.68,9.02,24.86,0,32.561-15.84,32.34-27.72-.22-20.02-18.26-28.6-36.96-28.6h-10.78v-14.52h10.78c14.08,0,31.9-7.26,31.9-24.2,0-11.44-7.26-21.56-25.08-21.56-11.44,0-22.44,5.06-28.601,9.46l-5.06-14.08c7.479-5.5,22-11,37.4-11,28.16,0,40.92,16.72,40.92,34.1,0,14.74-8.8,27.28-26.4,33.66v.44c17.601,3.52,31.9,16.72,31.9,36.74,0,22.88-17.82,42.9-52.141,42.9-16.06,0-30.14-5.06-37.18-9.68l5.28-14.96Z"/></svg>