<?xml version="1.0" encoding="UTF-8"?>
<svg id="Layer_1" data-name="Layer 1" xmlns="http://www.w3.org/2000/svg" viewBox="0 0 798 570.321">
  <defs>
    <style>
      .cls-1, .cls-2 {
        fill: none;
        stroke: #bfbfbf;
        stroke-miterlimit: 10;
        stroke-width: 6px;
      }

      .cls-2 {
        stroke-dasharray: 12.099 12.099;
      }

      .cls-3 {
        fill: #bfbfbf;
      }

      .cls-4 {
        fill: #ff1717;
        fill-rule: evenodd;
      }
    </style>
  </defs>
  <path class="cls-3" d="M9.296,560.542v-80.077h90.487V80.077H9.296V0h267.458v80.077h-90.487v400.387h90.487v80.077H9.296Z"/>
  <g>
    <line class="cls-1" y1="567.321" x2="6" y2="567.321"/>
    <line class="cls-2" x1="18.099" y1="567.321" x2="798" y2="567.321"/>
    <line class="cls-1" x1="429.461" y1="567.321" x2="435.461" y2="567.321"/>
  </g>
  <path class="cls-4" d="M342.754,235.983l-31.907,32.62c-1.653,1.69-4.362,1.719-6.051.067l-16.1-15.749c-1.69-1.653-1.719-4.362-.067-6.051l66.012-67.485c1.653-1.69,4.362-1.719,6.051-.067l67.485,66.012c1.69,1.653,1.719,4.362.067,6.051l-15.749,16.1c-1.653,1.69-4.362,1.719-6.051.067l-32.62-31.907,1.287,116.635c.026,2.369-1.871,4.3-4.231,4.326l-22.513.249c-2.361.026-4.3-1.864-4.326-4.231l-1.286-116.635h0Z"/>
  <path d="M389.995,79.271c-1.979-5.08-5.278-8.313-9.764-9.5-1.517-.396-3.365-.594-5.608-.594-1.715,0-3.563.132-5.674.33-6.334.396-11.282.132-14.844-.792-8.313-2.177-14.778-7.191-19.596-15.24-4.816-7.983-5.938-16.494-3.431-25.929,2.837-10.82,8.115-18.012,16.098-22.101,11.348-5.674,23.223-6.927,35.363-3.695,14.515,3.827,25.994,13.525,34.175,28.832,8.181,15.372,9.896,32.393,5.08,50.669-6.861,25.994-23.091,47.37-48.227,63.667-14.449,9.237-33.12,15.504-55.486,18.605-1.451.198-2.903-.33-3.827-1.385s-1.32-2.507-.924-3.827c.396-1.385,1.451-2.507,2.903-2.969,25.203-7.785,43.741-16.56,55.155-26.126,8.973-7.653,15.24-18.012,18.605-30.679,2.111-8.115,2.111-14.449,0-19.265h.002Z"/>
  <path class="cls-3" d="M403.819,561.995v-262.5h52v56l-9.5,6c2.664-8.664,6.914-17,12.75-25,5.828-8,13-15.078,21.5-21.25,8.5-6.164,17.664-11.078,27.5-14.75,9.828-3.664,19.914-5.5,30.25-5.5,15,0,28.164,2.5,39.5,7.5,11.328,5,20.664,12.5,28,22.5,7.328,10,12.664,22.5,16,37.5l-8-2,3.5-8.5c3.664-7.664,8.75-14.914,15.25-21.75,6.5-6.828,13.914-12.914,22.25-18.25,8.328-5.328,17.164-9.5,26.5-12.5,9.328-3,18.5-4.5,27.5-4.5,19.664,0,35.914,4,48.75,12,12.828,8,22.5,20.172,29,36.5,6.5,16.336,9.75,36.672,9.75,61v157.5h-52v-154.5c0-15-1.922-27.25-5.75-36.75-3.836-9.5-9.586-16.578-17.25-21.25-7.672-4.664-17.5-7-29.5-7-9.336,0-18.086,1.586-26.25,4.75-8.172,3.172-15.25,7.586-21.25,13.25-6,5.672-10.672,12.25-14,19.75-3.336,7.5-5,15.75-5,24.75v157h-52v-155.5c0-13.664-2-25.25-6-34.75s-9.836-16.75-17.5-21.75c-7.672-5-17-7.5-28-7.5-9.336,0-18,1.586-26,4.75-8,3.172-15,7.5-21,13s-10.672,12-14,19.5c-3.336,7.5-5,15.586-5,24.25v158h-52Z"/>
</svg>