<?xml version="1.0" encoding="UTF-8"?>
<svg width="1200pt" height="1200pt" version="1.1" viewBox="0 0 1200 1200" xmlns="http://www.w3.org/2000/svg">
 <path d="m486.41 267.7c-6.1602 0.58594-11.707 5.3359-13.227 11.336-12.941 50.223-7.9648 91.879 14.168 124.46 3.9336 5.7891 8.3633 11.355 13.227 16.531-10.719-1.2539-21.035-1.8828-30.938-1.8906-50.195-0.039063-90.004 15.469-119.02 42.273-51.59 47.648-67.277 126.15-58.094 204.28 9.1836 78.133 43.348 157.44 97.535 209.95 52.914 51.273 127.42 75.355 209.95 42.98 82.527 32.371 157.03 8.293 209.95-42.98 54.184-52.504 88.352-131.82 97.535-209.95s-6.5039-156.63-58.098-204.28c-29.02-26.805-68.828-42.312-119.02-42.273-33.652 0.023437-71.953 7.0977-115.01 22.434 0-3.9727 0.082032-7.918 0-11.809-0.003906-0.078125 0.003907-0.15625 0-0.23438 3.0625-36.848 14.93-55.965 34.48-71.086 19.863-15.359 49.555-25.793 86.199-38.258 6.7578-2.1406 11.406-9.5469 10.398-16.562-1.0117-7.0156-7.5586-12.809-14.648-12.957-1.8477-0.023437-3.6992 0.30078-5.4336 0.94531-36.586 12.445-69.352 23.016-95.172 42.98-9.8633 7.6289-18.238 16.793-25.27 27.629-3.7852-12.27-8.9922-23.578-16.059-34.242-18.949-28.609-51.121-49.078-98.949-59.039-1.0117-0.18359-2.043-0.26172-3.0703-0.23438-0.46875-0.023437-0.94531-0.023437-1.418 0zm12.754 33.297c33.621 9.2617 53.004 23.773 65.418 42.508 13.898 20.977 19.523 49.391 20.547 84.547v1.418 1.6523c0.074219 2.9883 0 5.918 0 8.9727-34.316-15.246-58.586-32.781-72.738-53.609-14.91-21.945-20.316-48.445-13.227-85.488zm-28.812 146.89c33.594 0.23828 74.082 8.7578 122.33 28.102 5.3555 2.0273 9.5508 1.6211 14.879 0 110.89-44.406 180.05-31.465 221.28 6.6133 41.465 38.297 56.848 106.77 48.414 178.54-8.4336 71.762-40.645 145.56-88.324 191.76-47.469 45.996-107.74 66.031-182.08 34.953-4.8594-2.4023-8.6055-1.5547-14.168 0.23438-74.113 30.785-134.24 10.707-181.61-35.188-47.68-46.199-80.125-120-88.559-191.76-8.4336-71.762 7.1836-140.24 48.648-178.54 23.324-21.543 55.488-35.027 99.188-34.715z" fill-rule="evenodd"/>
 <path d="m417.12 529.11c-4.9805-0.18359-9.7344 2.0977-12.703 6.1016-37.867 49.586-34.293 109.08-14.793 159.81 19.5 50.734 54.145 94.672 83.035 121.08 2.9453 2.7852 6.8867 4.2734 10.938 4.1289 4.0508-0.14844 7.875-1.918 10.609-4.9102 2.7344-2.9922 4.1523-6.957 3.9336-11.008-0.21484-4.0469-2.0508-7.8398-5.0898-10.52-25.293-23.117-57.984-64.781-75.211-109.61-17.23-44.828-19.77-90.855 10.602-130.62 2.3086-2.9375 3.4453-6.625 3.1953-10.352-0.25-3.7305-1.8711-7.2344-4.5508-9.8359-2.6836-2.6016-6.2305-4.1172-9.9648-4.2578z" fill-rule="evenodd"/>
</svg>
