<svg xmlns:dc="http://purl.org/dc/elements/1.1/" xmlns:cc="http://creativecommons.org/ns#" xmlns:rdf="http://www.w3.org/1999/02/22-rdf-syntax-ns#" xmlns:svg="http://www.w3.org/2000/svg" xmlns="http://www.w3.org/2000/svg" xmlns:sodipodi="http://sodipodi.sourceforge.net/DTD/sodipodi-0.dtd" xmlns:inkscape="http://www.inkscape.org/namespaces/inkscape" version="1.1" x="0px" y="0px" viewBox="0 0 100 125"><g transform="translate(0,-952.36218)"><path style="text-indent:0;text-transform:none;direction:ltr;block-progression:tb;baseline-shift:baseline;color:#000000;enable-background:accumulate;" d="m 34.968744,958.39043 c -0.8151,0.0773 -1.549,0.70627 -1.75,1.5 -1.7124,6.6459 -1.0538,12.15797 1.875,16.46875 0.5205,0.76615 1.1069,1.50244 1.75,2.1875 -1.4182,-0.16584 -2.7836,-0.24899 -4.0938,-0.25 -6.6422,-0.005 -11.9099,2.04705 -15.75,5.59375 -6.826799,6.30524 -8.9026995,16.69257 -7.6873995,27.03117 1.2150005,10.3387 5.7361005,20.8336 12.9061995,27.7813 7.0021,6.785 16.8609,9.9712 27.7812,5.6875 10.9203,4.2837 20.7792,1.0975 27.7813,-5.6875 7.17,-6.9477 11.6911,-17.4426 12.9063,-27.7813 1.2151,-10.3386 -0.8608,-20.72593 -7.6876,-27.03117 -3.84,-3.5467 -9.1078,-5.59888 -15.75,-5.59375 -4.4532,0.003 -9.521,0.93916 -15.2187,2.96875 0,-0.52564 0.011,-1.04789 0,-1.5625 -3e-4,-0.0105 3e-4,-0.0207 0,-0.0312 0.4055,-4.8758 1.9754,-7.40571 4.5625,-9.40625 2.6283,-2.03236 6.5575,-3.41296 11.4062,-5.0625 0.8943,-0.28321 1.5094,-1.2632 1.3758,-2.19168 -0.1337,-0.92849 -1.0003,-1.69514 -1.9382,-1.71457 -0.2445,-0.003 -0.4895,0.0399 -0.7188,0.125 -4.8414,1.64706 -9.177,3.04549 -12.5938,5.6875 -1.3053,1.00937 -2.4135,2.22221 -3.3437,3.65625 -0.5011,-1.62336 -1.1901,-3.11993 -2.125,-4.53125 -2.5076,-3.78552 -6.7646,-6.49437 -13.0937,-7.8125 -0.1339,-0.0242 -0.2703,-0.0347 -0.4063,-0.0312 -0.062,-0.003 -0.125,-0.003 -0.1875,0 z m 1.6875,4.40625 c 4.4488,1.22547 7.0139,3.14558 8.6563,5.625 1.8389,2.77595 2.5832,6.53561 2.7187,11.1875 0,0.063 0,0.1242 0,0.1875 0,0.0728 0,0.14591 0,0.21875 0.01,0.39558 0,0.7829 0,1.1875 -4.5411,-2.01744 -7.7525,-4.33769 -9.625,-7.09375 -1.9728,-2.90373 -2.6882,-6.41052 -1.75,-11.3125 z m -3.8125,19.4375 c 4.4451,0.0316 9.803,1.15911 16.1875,3.71875 0.7086,0.26841 1.2636,0.21444 1.9687,0 14.6737,-5.87613 23.826,-4.16358 29.2813,0.875 5.4867,5.06755 7.5224,14.12897 6.4063,23.62497 -1.1161,9.496 -5.3785,19.2615 -11.6876,25.375 -6.2814,6.0866 -14.2568,8.7377 -24.0937,4.625 -0.6428,-0.3181 -1.1387,-0.2056 -1.875,0.031 -9.807,4.0738 -17.7637,1.417 -24.0313,-4.6562 -6.3092,-6.1135 -10.602599,-15.879 -11.718699,-25.375 -1.1161,-9.496 0.9507,-18.55742 6.437499,-23.62497 3.0863,-2.8505 7.3426,-4.63491 13.125,-4.59375 z" fill="#000000" fill-opacity="1" fill-rule="evenodd" stroke="none" marker="none" visibility="visible" display="inline" overflow="visible"/><path style="text-indent:0;text-transform:none;direction:ltr;block-progression:tb;baseline-shift:baseline;color:#000000;enable-background:accumulate;" d="m 25.799644,992.98137 a 2.000005,2.000005 0 0 0 -1.6809,0.80719 c -5.011,6.56124 -4.5377,14.43374 -1.9575,21.14714 2.5802,6.7134 7.1647,12.5277 10.9878,16.0219 a 2.000005,2.000005 0 1 0 2.6981,-2.9522 c -3.3468,-3.0589 -7.6726,-8.5724 -9.9525,-14.5044 -2.2798,-5.932 -2.6162,-12.0225 1.4029,-17.28489 a 2.000005,2.000005 0 0 0 -1.4979,-3.23474 z" fill="#000000" fill-opacity="1" fill-rule="evenodd" stroke="none" marker="none" visibility="visible" display="inline" overflow="visible"/></g><text x="0" y="115" fill="#000000" font-size="5px" font-weight="bold" font-family="'Helvetica Neue', Helvetica, Arial-Unicode, Arial, Sans-serif">Created by andriwidodo</text><text x="0" y="120" fill="#000000" font-size="5px" font-weight="bold" font-family="'Helvetica Neue', Helvetica, Arial-Unicode, Arial, Sans-serif">from the Noun Project</text></svg>