<?xml version="1.0" encoding="UTF-8"?>
<svg id="Layer_1" xmlns="http://www.w3.org/2000/svg" version="1.1" viewBox="0 0 619.9 664.6">
  <!-- Generator: Adobe Illustrator 29.2.1, SVG Export Plug-In . SVG Version: 2.1.0 Build 116)  -->
  <defs>
    <style>
      .st0 {
        fill-rule: evenodd;
      }
    </style>
  </defs>
  <path class="st0" d="M196.4,0c-6.2.6-11.7,5.3-13.2,11.3-12.9,50.2-8,91.9,14.2,124.5,3.9,5.8,8.4,11.4,13.2,16.5-10.7-1.3-21-1.9-30.9-1.9-50.2,0-90,15.5-119,42.3C9,240.4-6.7,318.9,2.5,397c9.2,78.1,43.3,157.4,97.5,210,52.9,51.3,127.4,75.4,210,43,82.5,32.4,157,8.3,210-43,54.2-52.5,88.4-131.8,97.5-210s-6.5-156.6-58.1-204.3c-29-26.8-68.8-42.3-119-42.3-33.7,0-72,7.1-115,22.4,0-4,0-7.9,0-11.8,0,0,0-.2,0-.2,3.1-36.8,14.9-56,34.5-71.1,19.9-15.4,49.6-25.8,86.2-38.3,6.8-2.1,11.4-9.5,10.4-16.6-1-7-7.6-12.8-14.6-13-1.8,0-3.7.3-5.4.9-36.6,12.4-69.4,23-95.2,43-9.9,7.6-18.2,16.8-25.3,27.6-3.8-12.3-9-23.6-16.1-34.2C280.9,30.7,248.7,10.2,200.9.3c-1-.2-2-.3-3.1-.2-.5,0-.9,0-1.4,0h0ZM209.1,33.3c33.6,9.3,53,23.8,65.4,42.5,13.9,21,19.5,49.4,20.5,84.5v3.1c0,3,0,5.9,0,9-34.3-15.2-58.6-32.8-72.7-53.6-14.9-21.9-20.3-48.4-13.2-85.5h0ZM180.3,180.2c33.6.2,74.1,8.8,122.3,28.1,5.4,2,9.6,1.6,14.9,0,110.9-44.4,180-31.5,221.3,6.6,41.5,38.3,56.8,106.8,48.4,178.5-8.4,71.8-40.6,145.6-88.3,191.8-47.5,46-107.7,66-182.1,35-4.9-2.4-8.6-1.6-14.2.2-74.1,30.8-134.2,10.7-181.6-35.2-47.7-46.2-80.1-120-88.6-191.8-8.4-71.8,7.2-140.2,48.6-178.5,23.3-21.5,55.5-35,99.2-34.7h0Z"/>
  <path class="st0" d="M127.1,261.4c-5-.2-9.7,2.1-12.7,6.1-37.9,49.6-34.3,109.1-14.8,159.8,19.5,50.7,54.1,94.7,83,121.1,2.9,2.8,6.9,4.3,10.9,4.1,4.1-.1,7.9-1.9,10.6-4.9,2.7-3,4.2-7,3.9-11-.2-4-2.1-7.8-5.1-10.5-25.3-23.1-58-64.8-75.2-109.6-17.2-44.8-19.8-90.9,10.6-130.6,2.3-2.9,3.4-6.6,3.2-10.4-.2-3.7-1.9-7.2-4.6-9.8-2.7-2.6-6.2-4.1-10-4.3h0Z"/>
</svg>