<?xml version="1.0" encoding="UTF-8"?>
<svg id="Layer_1" data-name="Layer 1" xmlns="http://www.w3.org/2000/svg" viewBox="0 0 1139.625 896.205">
  <defs>
    <style>
      .cls-1 {
        fill: red;
        stroke: #000;
        stroke-miterlimit: 10;
      }
    </style>
  </defs>
  <polygon class="cls-1" points="549.421 8.101 549.421 161.101 399.809 161.101 337.8 226.101 129.809 295.192 80.809 328.101 168.809 466.101 61.809 595.192 61.809 535.268 10.809 448.101 10.809 243.101 61.809 151.101 170.809 87.101 331.809 35.101 549.421 8.101"/>
  <polygon class="cls-1" points="705.281 14.101 906.855 50.101 1060.323 120.101 1127.809 200.101 1121.809 475.192 969.302 595.192 969.302 637.262 807.351 524.101 969.302 330.101 969.302 397.262 1074.809 325.681 1021.809 286.101 930.831 247.101 906.855 169.715 705.281 156.101 705.281 14.101"/>
  <path d="M905.229,191.571l-161.25,164.12c4.293,7.184,6.766,15.57,6.766,24.512v318.01h8.629c7.828.047,7.984,11.949,0,12h-8.629v123.9l124.04-123.9h-19.41c-7.828-.047-7.984-11.949,0-12h24c1.981.012,3.766.941,4.894,2.527,9.195-9.184,22.586-18.812,22.586-32.527v-55.117l-118.89-91.141,118.89-133.63v-188.11c0-3.039-.578-5.953-1.625-8.641v-.004ZM.729,238.852c6.918-62.629,67.586-119.29,162.68-161.68C271.409,29.031,426.799,1.082,549.569,0c6.629,0,12,5.371,12,12v140.21h124.42V14.78c0-6.629,5.371-12,12-12,136.82,9.586,443.16,73.059,441.63,229.51,0,1.109-.016,2.219-.051,3.324l-.215,171.64c-.055,45.613-7.355,72.848-44.91,111.38-27.527,28.246-67.016,53.957-115.77,75.949l.121,73.66-47.938-36.746v36.723c0,20.215-9.894,29.703-22.191,41.984l-160.49,160.31c-13.625,13.609-23.152,25.691-45.426,25.691H234.749c-26.426,0-48-21.574-48-48v-468c0-22.723,12.949-32.723,26.953-46.711l87.98-87.883c-39.434,9.75-75.883,21.395-108.59,34.613-38.043,15.379-70.875,32.828-97.277,51.82l89.102,141.76-132.91,149.07.141-80.434c-16.02-14.918-29.012-31.27-38.02-48.441C5.401,477.362.062,459.358.062,440.534v-172.99c0-9.367-.363-19.359.668-28.695v.003ZM24.061,319.676v120.86c0,14.273,4,28.574,11.254,42.402,7.875,15.012,19.613,29.559,34.293,43.031,3.582,3.297,6.453,5.754,6.453,11.145l-.039,22.805,79.035-88.652-79.348-126.24v.258c.582,3.387-.293,6.996-2.699,9.812-4.297,5.023-11.852,5.609-16.875,1.312-11.258-9.66-22.602-22.457-32.07-36.734h-.004ZM1115.461,408.774l.129-105.07c-5.934,8.574-12.906,16.957-20.859,25.117-39.129,40.141-88.898,64.309-139.51,86.395l-.207-44.93-132,148.36,131.81,101.04-.066-40.727c43.969-19.152,88.707-42.297,122.54-77.012,29.992-30.773,38.109-53.434,38.16-93.168l.004-.005ZM51.961,317.458l.344-54.609,30.746,48.914c27.805-19.82,61.914-37.914,101.12-53.762,43.805-17.707,94.141-32.668,149.28-44.145l46.105-46.09c9.09-9.879,21.848-15.559,35.285-15.559h122.71V23.677c-143.07,5.812-271.33,33.844-364.41,75.336C80.825,140.165,24.051,193.837,24.051,250.873c0,23.25,13.715,48.559,27.914,66.578l-.004.007ZM709.961,27.848v124.37h172.87c13.211,0,25.215,5.398,33.91,14.09,8.695,8.695,14.09,20.699,14.09,33.91v36.438c31.957,10.48,60.793,22.258,86.176,35.348,23.426,12.078,43.863,25.266,61.059,39.578,24.191-25.008,37.523-51.805,37.523-79.289,0-141.62-303.02-195.08-405.63-204.44l.002-.005ZM414.831,176.218c-5.879,0-11.441,2.117-15.844,6l-17.625,17.605c1.984.93,3.453,2.93,3.469,5.438v24c-.047,7.828-11.949,7.984-12,0v-20.914l-124,123.87h124v-6.949c.047-7.828,11.949-7.984,12,0v6.949h317.89c8.84,0,17.137,2.414,24.262,6.617l159.49-162.33c-1.188-.184-2.406-.277-3.641-.277h-468v-.008ZM930.831,261.941v99.414l47.754-53.672.328,70.75c32.234-15.316,59.699-32.262,81.41-50.422-15.359-12.445-33.523-24.02-54.285-34.727-22.148-11.422-47.305-21.867-75.207-31.344h0ZM702.721,356.211H234.721c-13.176,0-24,10.824-24,24v468c0,13.176,10.824,24,24,24h468c13.176,0,24-10.824,24-24v-468c0-13.176-10.824-24-24-24h0ZM384.831,265.262c-.051-7.984-11.953-7.828-12,0v24c.051,7.984,11.953,7.828,12,0v-24ZM384.831,385.262c-.051-7.984-11.953-7.828-12,0v24c.051,7.984,11.953,7.828,12,0v-24ZM384.831,445.262c-.051-7.984-11.953-7.828-12,0v24c.051,7.984,11.953,7.828,12,0v-24ZM384.831,505.262c-.051-7.984-11.953-7.828-12,0v24c.027,4.598,4.934,7.477,8.957,5.223,1.898-1.086,3.031-3.035,3.043-5.223v-24ZM384.831,565.262c-.051-7.984-11.953-7.828-12,0v24c.051,7.984,11.953,7.828,12,0v-24ZM384.831,625.262c-.051-7.984-11.953-7.828-12,0v24c.051,7.984,11.953,7.828,12,0v-24ZM388.132,681.852c-3.699-7.051-14.227-1.434-10.641,5.547,4.324,8.367,11.293,15.008,19.828,18.977,7.188,3.277,12.195-7.578,5.023-10.898-6.129-2.848-11.109-7.621-14.211-13.629v.003ZM435.351,698.223c-7.984.051-7.828,11.953,0,12h24c7.984-.051,7.828-11.953,0-12h-24ZM495.351,698.223c-7.984.051-7.828,11.953,0,12h24c7.984-.051,7.828-11.953,0-12h-24ZM555.351,698.223c-7.984.051-7.828,11.953,0,12h24c7.984-.051,7.828-11.953,0-12h-24ZM615.351,698.223c-7.984.051-7.828,11.953,0,12h24c7.984-.051,7.828-11.953,0-12h-24ZM675.351,698.223c-7.984.051-7.828,11.953,0,12h24c7.984-.051,7.828-11.953,0-12h-24ZM795.351,698.223c-7.984.051-7.828,11.953,0,12h24c7.984-.051,7.828-11.953,0-12h-24ZM378.511,714.797c5.66-5.66-2.922-14-8.457-8.512l-17.023,16.914c-5.66,5.66,2.922,14,8.457,8.512l17.023-16.914ZM225.341,850.067c-5.66,5.66,2.922,14,8.457,8.512l17.023-16.914c5.66-5.66-2.922-14-8.457-8.512l-17.023,16.914ZM267.903,807.778c-5.66,5.66,2.922,14,8.457,8.512l17.023-16.914c5.66-5.66-2.922-14-8.457-8.512l-17.023,16.914ZM310.465,765.489c-5.66,5.66,2.922,14,8.457,8.512l17.023-16.914c5.66-5.66-2.922-14-8.457-8.512l-17.023,16.914Z"/>
</svg>