<?xml version="1.0" encoding="UTF-8"?>
<svg width="1200pt" height="1200pt" version="1.1" viewBox="0 0 1200 1200" xmlns="http://www.w3.org/2000/svg">
 <path d="m750.55 281.21c18.555-14.84 38.801-27.43 60.32-37.5h-215.42c4.8945 12.238 9.043 24.762 12.426 37.5z"/>
 <path d="m1118.5 754.68c-10.629 8.0469-21.781 15.383-33.383 21.953l72.531 310.86-1115.2 0.003906 38.051-163.09c-15.277-16.859-23.867-38.719-24.16-61.465l-55.773 239.04c-1.3047 5.5703 0.011718 11.434 3.5664 15.914 3.5586 4.4844 8.9648 7.0977 14.688 7.0977h1162.5c5.7227 0 11.129-2.6133 14.688-7.0977 3.5547-4.4805 4.8711-10.344 3.5664-15.914z"/>
 <path d="m139.41 671.62c-2.8594-7.9844-5.4062-15.148-7.5586-21.234-7.832-4.3086-15.395-8.957-22.766-13.828l-43.348 185.8c11.609-21.527 29.113-39.301 50.457-51.246z"/>
 <path d="m162.3 623.96c7.8555 22.422 31.797 90.145 55.609 151.22-68.02 12.293-124.16 42.016-124.16 87.305 0 60.895 101.43 93.754 196.88 93.754s196.88-32.859 196.88-93.754c0-45.879-57.621-75.773-126.84-87.758l57.969-150.61c57.074-27.707 103.43-73.445 131.91-130.14 28.473-56.691 37.48-121.19 25.629-183.52-11.855-62.324-43.906-119.01-91.203-161.3-52.98-47.48-121.52-73.906-192.66-74.281-71.141-0.37891-139.96 25.32-193.44 72.238-53.48 46.914-87.922 111.8-96.812 182.38-7.1641 59.645 4.418 120.04 33.133 172.8s73.145 95.281 127.12 121.65zm287.7 238.52c0 22.934-62.082 56.254-159.38 56.254s-159.38-33.316-159.38-56.254c0-17.898 37.977-42.02 100.84-51.785 7.2695 17.719 14.207 33.773 20.301 46.492h-0.003906c4.6445 9.6562 12.766 17.199 22.738 21.113 9.9727 3.9141 21.059 3.9102 31.027-0.011719s18.086-11.473 22.719-21.133c0.21094-0.44531 0.41016-0.90234 0.58594-1.3633l17.496-45.457c64.199 9.5352 103.04 34.035 103.04 52.145zm-410.71-528.61c7.0938-56.258 32.871-108.5 73.199-148.36 40.324-39.863 92.867-65.027 149.2-71.469 9.7266-1.0742 19.508-1.6133 29.297-1.6172 57.602-0.24219 113.55 19.277 158.49 55.309 44.949 36.031 76.172 86.387 88.469 142.66 12.293 56.277 4.9102 115.07-20.918 166.56-25.828 51.488-68.535 92.562-121 116.36-4.4609 2.0391-7.9453 5.7422-9.7031 10.32l-91.508 237.75c-0.94531 1.5234-2.6367 2.4141-4.4258 2.332-1.7891-0.085937-3.3945-1.1289-4.1914-2.7344-31.969-66.75-90.488-235.07-91.074-236.77-1.6836-4.8359-5.2656-8.7773-9.9258-10.906-48.723-22.145-89.129-59.223-115.36-105.87-26.238-46.645-36.938-100.43-30.555-153.57z"/>
 <path d="m290.62 524.98c42.27 0 82.812-16.789 112.7-46.68 29.891-29.887 46.684-70.43 46.684-112.7 0.003906-42.27-16.789-82.812-46.68-112.7-29.887-29.891-70.426-46.684-112.7-46.684-42.27 0-82.809 16.793-112.7 46.684-29.891 29.887-46.684 70.43-46.684 112.7 0.046875 42.254 16.852 82.766 46.73 112.64 29.879 29.883 70.391 46.688 112.64 46.738zm0-281.26c32.324-0.003906 63.328 12.836 86.184 35.695 22.859 22.855 35.699 53.855 35.703 86.18 0 32.324-12.84 63.328-35.699 86.184-22.855 22.859-53.855 35.699-86.18 35.699-32.324 0-63.328-12.84-86.184-35.695-22.859-22.859-35.699-53.859-35.699-86.184 0.035156-32.312 12.887-63.293 35.734-86.141s53.828-35.703 86.141-35.738z"/>
 <path d="m675 515.6c0.003906 69.617 27.66 136.38 76.891 185.61 49.23 49.227 116 76.879 185.62 76.879 69.617-0.003906 136.38-27.66 185.61-76.891 49.227-49.227 76.879-116 76.879-185.61 0-69.621-27.656-136.39-76.887-185.61-49.227-49.227-116-76.883-185.61-76.883-69.598 0.078125-136.32 27.762-185.53 76.977-49.211 49.211-76.891 115.94-76.969 185.54zm262.5-225.01v-0.003906c44.504 0 88.008 13.195 125.01 37.918 37.004 24.723 65.844 59.863 82.875 100.98 17.035 41.117 21.492 86.359 12.809 130.01-8.6797 43.648-30.109 83.742-61.578 115.21-31.465 31.469-71.559 52.898-115.21 61.582-43.648 8.6836-88.891 4.2266-130.01-12.805-41.113-17.027-76.258-45.867-100.98-82.871-24.727-37.004-37.922-80.508-37.922-125.01 0.066406-59.656 23.793-116.85 65.973-159.03 42.184-42.184 99.375-65.91 159.03-65.98z"/>
 <path d="m783.62 556.98 75 75.004v-0.003906c3.6758 3.5273 8.6055 5.4453 13.699 5.3242s9.9258-2.2695 13.43-5.9688l187.5-206.26c4.5039-4.9531 6.0234-11.938 3.9883-18.316-2.0391-6.3828-7.3281-11.188-13.871-12.613-6.5469-1.4258-13.352 0.75-17.859 5.707l-174.28 191.7-61.094-61.094c-4.7422-4.7188-11.637-6.5547-18.094-4.8203-6.4609 1.7383-11.504 6.7812-13.242 13.242-1.7344 6.457 0.10156 13.352 4.8203 18.094z"/>
</svg>
