<?xml version="1.0" encoding="UTF-8"?>
<svg id="Layer_1" data-name="Layer 1" xmlns="http://www.w3.org/2000/svg" viewBox="0 0 731.645 1191.057">
  <defs>
    <style>
      .cls-1 {
        stroke: #000;
        stroke-miterlimit: 10;
      }
    </style>
  </defs>
  <path d="M656.644,244.177c-41.766.422-75.328,34.641-75,76.406v83.391c14.156,9.516,26.812,21.094,37.5,34.359v-117.75c-.375-21.094,16.406-38.484,37.5-38.906,9.938,0,19.406,4.031,26.297,11.203,7.219,7.406,11.25,17.344,11.203,27.703v337.13c0,7.688-2.344,15.188-6.797,21.469l-45.281,64.734c-8.859,12.562-13.594,27.609-13.547,42.984v216.66h-253.13v-170.63c0-10.359-8.391-18.75-18.75-18.75s-18.75,8.391-18.75,18.75v281.72c.375,21.094-16.406,38.484-37.5,38.906-9.938,0-19.406-4.031-26.297-11.203-7.219-7.406-11.25-17.344-11.203-27.703v-354.84c.047-41.391,33.609-74.953,75-75h16.734c-8.953-11.391-16.359-23.906-22.078-37.219-59.906,2.859-107.06,52.219-107.16,112.22v354.84c-.047,20.109,7.781,39.469,21.797,53.859,13.922,14.438,33.141,22.594,53.203,22.547,41.25-.422,74.578-33.75,75-75h206.26v56.25c0,10.359,8.391,18.75,18.75,18.75s18.75-8.391,18.75-18.75v-57.094c27.047-4.594,46.828-27.984,46.875-55.406v-272.9c0-7.688,2.344-15.188,6.797-21.469l45.281-64.688v-.047c8.859-12.562,13.594-27.609,13.547-42.984v-337.13c.047-20.109-7.781-39.469-21.797-53.859-13.922-14.438-33.141-22.594-53.203-22.547v-.006ZM628.519,1059.807c0,10.359-8.391,18.75-18.75,18.75h-234.37v-37.5h253.13l-.01,18.75Z"/>
  <path d="M356.644,581.677c0,72.469,58.781,131.26,131.26,131.26s131.26-58.781,131.26-131.26v-37.5c0-72.469-58.781-131.26-131.26-131.26s-131.26,58.781-131.26,131.26v37.5ZM394.144,544.177c0-51.797,41.953-93.75,93.75-93.75s93.75,41.953,93.75,93.75v37.5c0,51.797-41.953,93.75-93.75,93.75s-93.75-41.953-93.75-93.75v-37.5Z"/>
  <path d="M348.254,448.455c5.812,2.906,12.703,2.578,18.234-.844s8.906-9.422,8.906-15.938v-70.5c47.719-52.453,66.703-124.97,50.672-194.02-15.984-69.094-64.875-125.9-130.78-152.02C229.333-10.929,154.806-3.008,95.886,36.414,36.917,75.789,1.105,141.644.027,212.524c-1.125,70.875,32.719,137.81,90.422,178.97,57.703,41.203,131.95,51.422,198.66,27.375l59.145,29.586ZM216.014,394.174c-55.359.047-107.58-25.547-141.42-69.375-33.797-43.828-45.375-100.83-31.266-154.36,14.109-53.531,52.219-97.5,103.27-118.97,51-21.469,109.08-18.047,157.22,9.234,48.141,27.328,80.859,75.422,88.594,130.26,7.734,54.797-10.453,110.06-49.172,149.63-3.422,3.516-5.344,8.203-5.344,13.125v47.625l-39.422-19.734c-4.828-2.391-10.453-2.625-15.469-.562-21.234,8.672-44.016,13.125-66.984,13.125l-.007.002Z"/>
  <path d="M215.802,80.545c-41.391.047-74.953,33.609-75,75,0,10.359,8.391,18.75,18.75,18.75s18.75-8.391,18.75-18.75c0-15.188,9.141-28.828,23.156-34.641s30.141-2.578,40.875,8.109c10.688,10.734,13.922,26.859,8.109,40.875s-19.453,23.156-34.641,23.156c-10.359,0-18.75,8.391-18.75,18.75v65.625c0,10.359,8.391,18.75,18.75,18.75s18.75-8.391,18.75-18.75v-49.266c36.562-9.422,60.422-44.578,55.641-82.031-4.734-37.5-36.609-65.578-74.391-65.578h0Z"/>
  <circle class="cls-1" cx="215.824" cy="334.675" r="16.75"/>
  <path d="M439.119,533.438c1.925,0,3.85-.435,5.557-1.304l12.418-6.209c2.949-1.49,5.185-4.067,6.24-7.171,1.025-3.136.776-6.551-.683-9.5-1.49-2.949-4.067-5.185-7.171-6.24-3.136-1.025-6.551-.776-9.5.683l-12.418,6.209c-5.154,2.577-7.854,8.351-6.52,13.971,1.304,5.619,6.333,9.562,12.076,9.562h0Z"/>
  <path d="M514.284,525.928l12.418,6.209c2.949,1.459,6.364,1.707,9.5.683,3.105-1.056,5.681-3.291,7.171-6.24,1.459-2.949,1.708-6.364.683-9.5-1.056-3.105-3.291-5.681-6.24-7.171l-12.418-6.209c-6.147-3.073-13.598-.59-16.672,5.557-3.074,6.147-.59,13.598,5.557,16.672h0Z"/>
  <path d="M454.643,611.054c0,6.861,5.557,12.418,12.418,12.418h37.255c6.861,0,12.418-5.557,12.418-12.418s-5.557-12.418-12.418-12.418h-37.255c-6.861,0-12.418,5.557-12.418,12.418Z"/>
  <path d="M473.274,555.162c0,16.547-24.836,16.547-24.836,0s24.836-16.547,24.836,0"/>
  <path d="M522.947,555.162c0,16.547-24.836,16.547-24.836,0s24.836-16.547,24.836,0"/>
</svg>