<?xml version="1.0" encoding="UTF-8"?>
<svg id="Layer_1" data-name="Layer 1" xmlns="http://www.w3.org/2000/svg" viewBox="0 0 682.783 748">
  <path d="M96.064,520.213c-53.005,0-96.064,43.059-96.064,96.064s43.059,96.064,96.064,96.064,96.064-43.059,96.064-96.064-43.059-96.064-96.064-96.064ZM96.064,528.752c48.389,0,87.524,39.135,87.524,87.524s-39.135,87.524-87.524,87.524-87.524-39.135-87.524-87.524,39.135-87.524,87.524-87.524ZM96.064,547.966c-2.358,0-4.269,1.911-4.269,4.269v64.042c0,2.358,1.911,4.269,4.269,4.269h59.773c2.358,0,4.269-1.911,4.269-4.269s-1.911-4.269-4.269-4.269h-55.502v-59.773c0-2.358-1.911-4.269-4.269-4.269h-.002Z"/>
  <path d="M341.725,476.949c-3.329,0-6.022,2.706-6.022,6.022v30.124c0,3.329,2.694,6.022,6.022,6.022s6.022-2.694,6.022-6.022v-30.124c0-3.316-2.694-6.022-6.022-6.022ZM250.171,514.873c-1.601.013-3.138.635-4.269,1.766-2.35,2.35-2.35,6.162-.013,8.525l21.307,21.294c2.35,2.35,6.162,2.35,8.525,0,2.35-2.35,2.35-6.175,0-8.525l-21.294-21.294c-1.131-1.131-2.668-1.753-4.256-1.766h0ZM433.305,514.873h-.013c-1.588.013-3.125.635-4.256,1.766l-21.294,21.294c-2.35,2.35-2.35,6.175,0,8.525,2.35,2.35,6.175,2.35,8.525,0l21.294-21.294c2.35-2.35,2.35-6.162,0-8.525-1.131-1.131-2.668-1.753-4.269-1.766h.013ZM341.741,534.173c-43.172,0-78.302,35.13-78.302,78.302s35.13,78.302,78.302,78.302,78.302-35.13,78.302-78.302-35.13-78.302-78.302-78.302ZM341.741,546.217c36.667,0,66.257,29.59,66.257,66.257s-29.59,66.257-66.257,66.257-66.257-29.59-66.257-66.257,29.59-66.257,66.257-66.257h0ZM212.225,606.454c-3.316,0-6.022,2.694-6.022,6.022s2.706,6.022,6.022,6.022h30.124c3.329,0,6.022-2.694,6.022-6.022s-2.694-6.022-6.022-6.022h-30.124ZM441.122,606.454c-1.601,0-3.125.635-4.256,1.766s-1.766,2.655-1.766,4.256.635,3.125,1.766,4.256,2.655,1.766,4.256,1.766h30.11c1.588,0,3.125-.635,4.256-1.766s1.766-2.655,1.766-4.256-.635-3.125-1.766-4.256-2.668-1.766-4.256-1.766h-30.11ZM271.456,676.725c-1.588,0-3.125.635-4.256,1.766l-21.307,21.294c-2.338,2.363-2.338,6.175.013,8.525s6.175,2.35,8.525,0l21.294-21.294c2.35-2.35,2.35-6.175,0-8.525-1.131-1.131-2.668-1.766-4.269-1.766h0ZM412.001,676.725c-1.588,0-3.125.635-4.256,1.766-2.35,2.35-2.35,6.175,0,8.525l21.294,21.294c2.35,2.35,6.162,2.35,8.525,0,2.35-2.363,2.35-6.175,0-8.525l-21.294-21.294c-1.131-1.131-2.668-1.766-4.269-1.766h0ZM341.73,705.832c-1.601,0-3.125.635-4.256,1.766s-1.766,2.655-1.766,4.256v30.124c0,1.588.635,3.125,1.766,4.256s2.655,1.766,4.256,1.766,3.125-.635,4.256-1.766,1.766-2.668,1.766-4.256v-30.124c0-1.601-.635-3.125-1.766-4.256s-2.655-1.766-4.256-1.766h0Z"/>
  <path d="M678.503,645.788c-1.372-.968-3.124-1.85-5.463-1.874h-1.017c-3.724.478-7.435.698-11.074.698-45.128,0-84.263-33.697-89.861-79.622-.429-3.418-.563-6.872-.563-10.118,0-4.667.319-8.93.661-11.955.171-1.543.319-2.756.453-3.601.073-.416.11-.735.147-.943v-.245l.037-.024c.625-3.528,1.543-7.399,2.866-11.551.735-2.364,1.543-4.569,2.389-6.627.208-.514.343-1.115.38-1.703v-.6c0-.723-.037-1.837-.453-3.234s-1.262-3.075-2.842-4.508c-1.96-1.739-4.447-2.572-6.86-2.572-1.409,0-2.805.343-4.14.906-8.342,2.401-22.245,7.742-35.205,19.881-.882.833-6.627,6.235-12.053,14.148-16.745,24.352-19.06,50.885-19.06,64.212,0,5.365.38,8.611.38,8.783.245,1.96,2.254,16.635,10.62,33.904,4.165,8.611,9.983,17.884,17.97,26.435,7.987,8.538,18.227,16.39,31.15,22,13.695,6.002,26.974,8.023,38.71,8.023,10.265,0,19.379-1.568,26.631-3.381s12.678-3.944,15.483-5.059c16.01-6.247,26.874-15.067,33.773-22.772,3.479-3.834,5.965-7.435,7.681-10.253.833-1.433,1.507-2.683,1.997-3.699.49-1.041.808-1.776,1.053-2.646.343-1.262.49-2.474.49-3.528,0-2.609-.845-4.324-1.127-4.851-.808-1.494-1.85-2.646-3.222-3.663l.069.038h0ZM661.085,670.238c-5.99,5.929-14.712,12.347-27.107,17.198-2.768,1.078-7.681,2.964-14.271,4.63-6.578,1.678-14.81,3.075-24.034,3.075-10.51,0-22.282-1.813-34.508-7.154-11.527-5.022-20.53-11.919-27.671-19.562-10.73-11.441-17.174-24.548-20.922-35.119-3.748-10.534-4.839-18.484-4.9-19.317,0-.208-.318-2.964-.318-7.533,0-12.139,2.242-36.627,17.137-58.246,4.728-6.897,10.02-11.894,10.571-12.445,11.282-10.608,23.544-15.312,30.98-17.468.171-.037.306-.147.453-.22-.661,1.678-1.298,3.454-1.899,5.341-1.47,4.643-2.487,8.966-3.185,12.899,0,.22-1.433,8.268-1.433,18.595,0,3.589.171,7.46.661,11.368,6.272,51.227,49.855,88.821,100.311,88.821,3.748,0,7.57-.233,11.38-.661l-.061.453s-.22.6-.6,1.335c-1.298,2.646-4.557,8.121-10.547,14.013h-.038v-.003Z"/>
  <g>
    <path d="M165.686,469.043c-30.389,0-58.083-8.414-83.082-25.239-25.01-16.827-44.991-39.723-59.945-68.71C7.695,346.118.224,313.396.224,276.938c0-36.918,7.592-69.76,22.786-98.506,15.184-28.745,35.757-51.29,61.697-67.656,25.941-16.356,55.038-24.539,87.288-24.539,19.161,0,36.688,2.804,52.583,8.412,15.885,5.61,29.797,13.443,41.716,23.488,11.919,10.057,21.734,21.624,29.447,34.705,7.712,13.091,12.499,27.113,14.373,42.067l-16.125-5.61v-95.35h72.915v368.083h-72.915v-87.639l16.826-4.908c-2.804,12.62-8.533,24.889-17.176,36.808-8.654,11.919-19.632,22.557-32.952,31.9-13.322,9.356-28.044,16.827-44.17,22.436-16.126,5.609-33.073,8.414-50.83,8.414ZM184.615,402.438c21.964,0,41.366-5.368,58.193-16.125,16.826-10.747,30.027-25.591,39.612-44.521,9.575-18.929,14.373-40.543,14.373-64.853,0-23.837-4.797-45.101-14.373-63.801-9.585-18.689-22.786-33.412-39.612-44.17-16.827-10.747-36.229-16.125-58.193-16.125-21.503,0-40.555,5.378-57.14,16.125-16.597,10.757-29.688,25.48-39.263,44.17-9.585,18.7-14.373,39.963-14.373,63.801,0,24.309,4.787,45.924,14.373,64.853,9.575,18.93,22.666,33.774,39.263,44.521,16.585,10.757,35.636,16.125,57.14,16.125Z"/>
    <path d="M437.011,164.06v-70.111h234.171v70.111h-234.171ZM513.433,462.032V0h72.214v462.032h-72.214Z"/>
  </g>
</svg>