<?xml version="1.0" encoding="UTF-8"?>
<svg id="Layer_1" xmlns="http://www.w3.org/2000/svg" version="1.1" viewBox="0 0 1152 1167">
  <!-- Generator: Adobe Illustrator 29.2.1, SVG Export Plug-In . SVG Version: 2.1.0 Build 116)  -->
  <defs>
    <style>
      .st0 {
        fill: red;
      }

      .st0, .st1, .st2 {
        fill-rule: evenodd;
      }

      .st1, .st3 {
        fill: #ffd4fc;
      }
    </style>
  </defs>
  <path class="st2" d="M1051.1,753c0,49-39.7,88.7-88.7,88.7s-88.7-39.7-88.7-88.7,39.7-88.7,88.7-88.7,88.7,39.7,88.7,88.7Z"/>
  <path class="st2" d="M962.4,662.3c-50.1,0-90.7,40.6-90.7,90.7s40.6,90.7,90.7,90.7,90.7-40.6,90.7-90.7-40.6-90.7-90.7-90.7h0ZM962.4,666.3c47.8,0,86.7,38.8,86.7,86.7s-38.8,86.7-86.7,86.7-86.7-38.8-86.7-86.7,38.8-86.7,86.7-86.7Z"/>
  <path d="M775.1,1165h76.8v-122.3c0-7.3,12.9-7.3,12.9,0v122.3h195v-122.3c0-7.3,13.2-7.3,13.2,0v122.3h76.7l.2-144.3c0-100.8-89.8-155.8-187.6-155.8-97.8,0-187.3,55-187.3,155.8v144.3s0,0,0,0Z"/>
  <path class="st2" d="M773.1,1165c0,1.1.9,2,2,2h76.8c1.1,0,2-.9,2-2v-122.3c0-2.4,2.3-3.5,4.5-3.5s4.5,1,4.5,3.5v122.3c0,1.1.9,2,2,2h195c1.1,0,2-.9,2-2v-122.3c0-2.5,2.4-3.5,4.6-3.5s4.6,1,4.6,3.5v122.3c0,1.1.9,2,2,2h76.7c1.1,0,2-.9,2-2l.2-144.3c0-102-90.7-157.8-189.6-157.8-98.9,0-189.3,55.8-189.3,157.8v144.3s0,0,0,0h0ZM777.1,1163v-142.3c0-99.6,88.6-153.8,185.3-153.8,96.7,0,185.6,54.1,185.6,153.8l-.2,142.3h-72.7v-120.3c0-4.9-4.2-7.5-8.6-7.5s-8.6,2.6-8.6,7.5v120.3h-191v-120.3c0-4.9-4.2-7.5-8.5-7.5s-8.5,2.6-8.5,7.5v120.3h-72.8,0Z"/>
  <path class="st2" d="M739.5,250.7c0,49-39.7,88.7-88.7,88.7s-88.7-39.7-88.7-88.7,39.7-88.7,88.7-88.7,88.7,39.7,88.7,88.7Z"/>
  <path class="st2" d="M650.8,160c-50.1,0-90.7,40.6-90.7,90.7s40.6,90.7,90.7,90.7,90.7-40.6,90.7-90.7-40.6-90.7-90.7-90.7h0ZM650.8,164c47.8,0,86.7,38.8,86.7,86.7s-38.8,86.7-86.7,86.7-86.7-38.8-86.7-86.7,38.8-86.7,86.7-86.7h0Z"/>
  <path class="st1" d="M302.1,250.7c0,49-39.7,88.7-88.7,88.7s-88.7-39.7-88.7-88.7,39.7-88.7,88.7-88.7,88.7,39.7,88.7,88.7Z"/>
  <path class="st2" d="M213.4,160c-50.1,0-90.7,40.6-90.7,90.7s40.6,90.7,90.7,90.7,90.7-40.6,90.7-90.7-40.6-90.7-90.7-90.7h0ZM213.4,164c47.8,0,86.7,38.8,86.7,86.7s-38.8,86.7-86.7,86.7-86.7-38.8-86.7-86.7,38.8-86.7,86.7-86.7h0Z"/>
  <path class="st2" d="M225.5,123.8v-55.6c0-6.6-5.4-12-12-12s-12,5.4-12,12v55.6c0,6.6,5.4,12,12,12s12-5.4,12-12Z"/>
  <path class="st2" d="M213.5,80.2h437.4c6.6,0,12-5.4,12-12s-5.4-12-12-12H213.5c-6.6,0-12,5.4-12,12s5.4,12,12,12Z"/>
  <path class="st2" d="M638.9,68.2v55.6c0,6.6,5.4,12,12,12s12-5.4,12-12v-55.6c0-6.6-5.4-12-12-12s-12,5.4-12,12Z"/>
  <path class="st2" d="M420.2,12v56.2c0,6.6,5.4,12,12,12s12-5.4,12-12V12c0-6.6-5.4-12-12-12s-12,5.4-12,12Z"/>
  <path class="st2" d="M864.7,548.9h186.2c6.6,0,12-5.4,12-12s-5.4-12-12-12h-186.2c-6.6,0-12,5.4-12,12s5.4,12,12,12h0Z"/>
  <path class="st2" d="M950.6,536.9v88c0,6.6,5.4,12,12,12s12-5.4,12-12v-88c0-6.6-5.4-12-12-12s-12,5.4-12,12Z"/>
  <path d="M439.4,662.6h73.7l40.2-131.8v69.7c0,0-19.5,62.1-19.5,62.1h234.3l-19.5-62.1v-69.7c.1,0,40.1,131.8,40.1,131.8h73.6c-16.7-69-49-191.7-82.4-257.8-11.1-22-44.8-37-69.5-37h-119.2c-24.7,0-58.3,15-69.5,37-33.4,66.1-65.7,188.8-82.4,257.8h0Z"/>
  <path class="st2" d="M437.5,662.1c-.1.6,0,1.2.4,1.7s1,.8,1.6.8h73.7c.9,0,1.7-.6,1.9-1.4l36.3-119v56c0,0-19.4,61.9-19.4,61.9-.2.6,0,1.3.3,1.8.4.5,1,.8,1.6.8h234.3c.6,0,1.2-.3,1.6-.8.4-.5.5-1.2.3-1.8l-19.4-61.8v-56c0,0,36.2,119,36.2,119,.3.8,1,1.4,1.9,1.4h73.6c.6,0,1.2-.3,1.6-.8.4-.5.5-1.1.4-1.7-16.7-69.1-49.1-192-82.6-258.2-11.4-22.6-45.9-38.1-71.3-38.1h-119.2c-25.3,0-59.8,15.5-71.3,38.1-33.5,66.2-65.9,189.1-82.6,258.2h0s0,0,0,0ZM442,660.6c16.8-69.3,48.7-189.7,81.6-254.9,10.8-21.5,43.7-35.9,67.7-35.9h119.2c24,0,56.9,14.4,67.7,35.9,32.9,65.2,64.8,185.6,81.7,254.9h-69.6c-4.3-14.2-39.5-130.4-39.5-130.4-.3-.9-1.2-1.5-2.2-1.4s-1.7,1-1.7,2v69.7c-.1.2,0,.4,0,.6l18.7,59.5h-228.9l18.7-59.5c0-.2,0-.4,0-.6v-69.7c0-1-.8-1.8-1.8-2s-1.9.4-2.2,1.4l-39.8,130.4h-69.7,0s0,0,0,0Z"/>
  <path class="st3" d="M2,662.6h73.7l40.2-131.8v69.7c0,0-19.5,62.1-19.5,62.1h234.3l-19.5-62.1v-69.7c.1,0,40.1,131.8,40.1,131.8h73.6c-16.7-69-49-191.7-82.4-257.8-11.1-22-44.8-37-69.5-37h-119.2c-24.7,0-58.3,15-69.5,37C51,470.9,18.7,593.6,2,662.6h0,0Z"/>
  <path class="st2" d="M0,662.1c-.1.6,0,1.2.4,1.7.4.5,1,.8,1.6.8h73.7c.9,0,1.7-.6,1.9-1.4l36.3-119v56c0,0-19.4,61.9-19.4,61.9-.2.6,0,1.3.3,1.8.4.5,1,.8,1.6.8h234.3c.6,0,1.2-.3,1.6-.8s.5-1.2.3-1.8l-19.4-61.8v-56c0,0,36.2,119,36.2,119,.3.8,1,1.4,1.9,1.4h73.6c.6,0,1.2-.3,1.6-.8.4-.5.5-1.1.4-1.7-16.7-69.1-49.1-192-82.6-258.2-11.4-22.6-45.9-38.1-71.3-38.1h-119.2c-25.3,0-59.8,15.5-71.3,38.1C49.1,470.1,16.8,593,0,662.1h0s0,0,0,0ZM4.5,660.6c16.8-69.3,48.7-189.7,81.6-254.9,10.8-21.5,43.7-35.9,67.7-35.9h119.2c24,0,56.9,14.4,67.7,35.9,32.9,65.2,64.8,185.6,81.7,254.9h-69.6l-39.5-130.4c-.3-.9-1.2-1.5-2.2-1.4s-1.7,1-1.7,2v69.7c-.1.2,0,.4,0,.6l18.7,59.5H99.2l18.7-59.5c0-.2,0-.4,0-.6v-69.7c0-1-.8-1.8-1.8-2s-1.9.4-2.2,1.4c0,0-35.4,116.2-39.8,130.4H4.5s0,0,0,0Z"/>
  <path class="st0" d="M371.4,906.7l-62.7,89.9-41.9-234.8,234.8-41.9-62.7,89.9,255.5,178.1-67.5,96.9-255.5-178.1h0s0,0,0,0Z"/>
</svg>