<?xml version="1.0" encoding="UTF-8"?>
<svg id="Layer_1" data-name="Layer 1" xmlns="http://www.w3.org/2000/svg" viewBox="0 0 1151.962 1166.982">
  <defs>
    <style>
      .cls-1 {
        fill: #ff1f0a;
      }

      .cls-1, .cls-2, .cls-3 {
        fill-rule: evenodd;
      }

      .cls-2, .cls-4 {
        fill: #ffd4fc;
      }
    </style>
  </defs>
  <path class="cls-3" d="M1051.076,753.032c0,48.988-39.711,88.699-88.699,88.699s-88.699-39.711-88.699-88.699,39.711-88.699,88.699-88.699,88.699,39.715,88.699,88.699Z"/>
  <path class="cls-3" d="M962.366,662.342c-50.059,0-90.699,40.641-90.699,90.699s40.641,90.699,90.699,90.699,90.699-40.641,90.699-90.699-40.641-90.699-90.699-90.699h0ZM962.366,666.346c47.848,0,86.695,38.848,86.695,86.695s-38.848,86.695-86.695,86.695-86.695-38.848-86.695-86.695,38.848-86.695,86.695-86.695Z"/>
  <path d="M775.066,1164.982h76.836v-122.32c0-7.332,12.945-7.332,12.945,0v122.32h195.04v-122.32c0-7.332,13.242-7.332,13.242,0v122.32h76.652l.18-144.27c0-100.81-89.801-155.78-187.6-155.78-97.797-.012-187.34,54.969-187.34,155.78l.047,144.27h-.002Z"/>
  <path class="cls-3" d="M773.066,1164.982c0,1.105.895,2,2,2h76.836c1.106,0,2-.895,2-2v-122.32c0-2.449,2.309-3.5,4.473-3.5s4.473,1.047,4.473,3.5v122.32c0,1.105.895,2,2,2h195.04c1.105,0,2-.895,2-2v-122.32c0-2.469,2.391-3.5,4.621-3.5s4.621,1.031,4.621,3.5v122.32c0,1.105.895,2,2,2h76.652c1.105,0,2-.895,2-2l.18-144.27c0-101.98-90.672-157.78-189.6-157.78-98.93-.012-189.34,55.801-189.34,157.78l.047,144.27h-.002ZM777.07,1162.982l-.047-142.27c0-99.645,88.672-153.79,185.34-153.78,96.668,0,185.6,54.129,185.6,153.78l-.176,142.27h-72.652v-120.32c0-4.867-4.227-7.5-8.621-7.5s-8.621,2.633-8.621,7.5v120.32h-191.04v-120.32c0-4.887-4.16-7.5-8.473-7.5s-8.473,2.617-8.473,7.5v120.32h-72.838Z"/>
  <path class="cls-3" d="M739.516,250.672c0,48.984-39.711,88.695-88.699,88.695s-88.699-39.711-88.699-88.695,39.711-88.699,88.699-88.699,88.699,39.711,88.699,88.699Z"/>
  <path class="cls-3" d="M650.816,159.972c-50.059,0-90.699,40.641-90.699,90.699s40.641,90.699,90.699,90.699,90.699-40.641,90.699-90.699-40.641-90.699-90.699-90.699h0ZM650.816,163.976c47.848,0,86.695,38.848,86.695,86.695s-38.848,86.695-86.695,86.695-86.695-38.848-86.695-86.695,38.848-86.695,86.695-86.695h0Z"/>
  <path class="cls-2" d="M302.086,250.672c0,48.984-39.711,88.695-88.699,88.695s-88.695-39.711-88.695-88.695,39.711-88.699,88.695-88.699,88.699,39.711,88.699,88.699Z"/>
  <path class="cls-3" d="M213.386,159.972c-50.059,0-90.699,40.641-90.699,90.699s40.641,90.699,90.699,90.699,90.699-40.641,90.699-90.699-40.641-90.699-90.699-90.699h0ZM213.386,163.976c47.848,0,86.695,38.848,86.695,86.695s-38.848,86.695-86.695,86.695-86.695-38.848-86.695-86.695,38.848-86.695,86.695-86.695h0Z"/>
  <path class="cls-3" d="M225.506,123.832v-55.594c0-6.621-5.375-11.996-11.996-11.996s-12,5.375-12,11.996v55.594c0,6.621,5.375,12,12,12s11.996-5.375,11.996-12Z"/>
  <path class="cls-3" d="M213.506,80.238h437.43c6.621,0,11.996-5.375,11.996-12s-5.375-11.996-11.996-11.996H213.506c-6.621,0-12,5.375-12,11.996s5.375,12,12,12Z"/>
  <path class="cls-3" d="M638.936,68.242v55.594c0,6.621,5.375,12,12,12s11.996-5.375,11.996-12v-55.594c0-6.621-5.375-11.996-11.996-11.996s-12,5.375-12,11.996Z"/>
  <path class="cls-3" d="M420.226,12v56.238c0,6.621,5.375,12,11.996,12s12-5.375,12-12V12c0-6.621-5.375-12-12-12s-11.996,5.375-11.996,12Z"/>
  <path class="cls-3" d="M864.656,548.912h186.21c6.621,0,11.996-5.375,11.996-11.996s-5.375-12-11.996-12h-186.21c-6.621,0-12,5.375-12,12s5.375,11.996,12,11.996Z"/>
  <path class="cls-3" d="M950.566,536.912v87.961c0,6.621,5.375,11.996,12,11.996s11.996-5.375,11.996-11.996v-87.961c0-6.621-5.375-12-11.996-12s-12,5.375-12,12Z"/>
  <path class="cls-1" d="M469.657,863.819l-48.284,69.276-32.296-180.866,180.866-32.296-48.284,69.276,196.802,137.163-51.997,74.604-196.802-137.163-.005.007Z"/>
  <path d="M439.426,662.592h73.719l40.195-131.84.074,69.695-19.547,62.148h234.34l-19.469-62.125.121-69.719,39.969,131.84h73.605c-16.688-69.031-49.016-191.72-82.418-257.8-11.129-22.023-44.789-36.969-69.484-36.98h-119.24c-24.688,0-58.344,14.953-69.473,36.992-33.426,66.082-65.734,188.76-82.406,257.79h.014Z"/>
  <path class="cls-3" d="M437.486,662.122c-.145.598-.008,1.227.371,1.707.379.48.961.762,1.574.762h73.719c.879,0,1.656-.574,1.914-1.418l36.297-119.05.059,56.008-19.453,61.855c-.191.609-.082,1.269.297,1.785.379.512.977.816,1.613.816h234.34c.637,0,1.234-.305,1.613-.816.375-.512.488-1.176.297-1.785l-19.375-61.832.098-55.992,36.074,119c.254.844,1.035,1.422,1.914,1.422h73.605c.613,0,1.191-.281,1.574-.766.379-.48.516-1.113.371-1.707-16.715-69.148-49.117-192.04-82.574-258.23-11.426-22.609-45.914-38.066-71.27-38.078h-119.24c-25.344,0-59.836,15.469-71.258,38.09-33.484,66.191-65.863,189.07-82.562,258.22l.002.009ZM441.975,660.591c16.809-69.332,48.672-189.7,81.645-254.88,10.832-21.453,43.656-35.895,67.688-35.895h119.23c24.043.012,56.867,14.441,67.699,35.883,32.949,65.188,64.836,185.55,81.66,254.89h-69.578c-4.312-14.223-39.539-130.42-39.539-130.42-.289-.949-1.227-1.543-2.207-1.398-.98.145-1.707.984-1.711,1.977l-.121,69.719c0,.203.031.406.09.602l18.652,59.527h-228.89l18.73-59.547c.062-.195.094-.398.094-.602l-.074-69.695c0-.992-.727-1.832-1.707-1.977-.98-.145-1.918.449-2.207,1.394l-39.766,130.43h-69.695l.008-.008Z"/>
  <path class="cls-4" d="M2.002,662.592h73.719l40.195-131.84.074,69.695-19.547,62.148h234.34l-19.469-62.125.121-69.719,39.969,131.84h73.605c-16.688-69.031-49.016-191.72-82.418-257.8-11.129-22.023-44.789-36.969-69.484-36.98h-119.24c-24.684,0-58.344,14.953-69.473,36.992C50.969,470.885,18.661,593.563,1.993,662.593h.01Z"/>
  <path class="cls-3" d="M.056,662.122c-.145.598-.008,1.227.371,1.707.379.48.961.762,1.574.762h73.719c.879,0,1.656-.574,1.914-1.418l36.297-119.05.059,56.008-19.453,61.855c-.191.609-.082,1.269.297,1.785.375.512.977.816,1.613.816h234.34c.637,0,1.234-.305,1.613-.816s.488-1.176.297-1.785l-19.375-61.832.098-55.992,36.074,119c.258.844,1.035,1.422,1.914,1.422h73.605c.613,0,1.191-.281,1.574-.766.379-.48.516-1.113.371-1.707-16.715-69.148-49.117-192.04-82.574-258.23-11.426-22.609-45.914-38.066-71.27-38.078h-119.24c-25.34,0-59.832,15.469-71.258,38.09C49.133,470.084,16.75,592.963.055,662.113l.002.009ZM4.545,660.591c16.809-69.332,48.672-189.7,81.645-254.88,10.832-21.453,43.656-35.895,67.688-35.895h119.24c24.043.012,56.867,14.441,67.699,35.883,32.949,65.188,64.836,185.55,81.66,254.89h-69.578l-39.539-130.42c-.289-.949-1.227-1.543-2.207-1.398s-1.707.984-1.711,1.977l-.121,69.719c0,.203.031.406.09.602l18.652,59.527H99.173l18.73-59.547c.062-.195.094-.398.094-.602l-.074-69.695c0-.992-.727-1.832-1.707-1.977-.98-.145-1.918.449-2.207,1.394,0,0-35.434,116.22-39.766,130.43H4.547l-.002-.008Z"/>
</svg>