<?xml version="1.0" encoding="UTF-8"?><svg id="Layer_2" xmlns="http://www.w3.org/2000/svg" viewBox="0 0 406.305 462.232"><defs><style>.cls-1{fill:#ff9815;}</style></defs><g id="Layer_3"><path d="M203.046,368.232c-2.109,0-4.219-.75-5.906-2.297-43.688-39.516-108.28-40.781-114.14-39.75-3.281,1.266-6.656.328-9.094-2.25-2.484-2.578-2.719-6.469-1.312-9.75l15.094-35.156c-36.938-1.922-70.594-21.047-72.188-21.984-2.859-1.641-4.594-4.781-4.406-8.109s2.203-6.234,5.25-7.594l28.875-12.75L2.14,178.717c-2.484-2.906-2.859-7.078-.844-10.359,1.969-3.281,5.859-4.922,9.562-3.984l46.5,11.016-11.062-46.688c-1.031-4.453,1.5-9,5.859-10.406,4.359-1.453,9.094.703,10.875,4.922,10.969,25.875,42.375,36.469,59.484,40.359-7.875-34.875-36.938-65.484-37.266-65.812-2.438-2.531-3.141-6.328-1.781-9.562,1.406-3.234,4.594-5.391,8.109-5.391,19.875,0,35.766,4.312,46.453,8.438,3.938-38.578,52.781-83.297,59.156-89.016,3.328-2.953,8.391-3,11.766,0,6.375,5.672,55.359,50.438,59.344,89.016,10.641-4.125,26.531-8.438,46.453-8.438,3.516,0,6.75,2.109,8.109,5.344,1.406,3.234.703,7.031-1.734,9.562-.328.328-29.391,30.984-37.312,65.812,17.109-3.938,48.469-14.484,59.297-40.359,1.781-4.219,6.469-6.422,10.875-4.969,4.359,1.406,6.891,5.953,5.859,10.406l-11.062,46.688,46.688-11.062c3.75-.891,7.594.75,9.562,4.031s1.641,7.453-.891,10.359l-43.219,49.828,29.016,12.75c3.047,1.312,5.062,4.266,5.25,7.594s-1.547,6.469-4.406,8.109c-1.594.938-35.297,20.062-72.188,21.984l15.094,35.156c1.406,3.234.703,7.031-1.734,9.609-2.484,2.578-6.234,3.422-9.516,2.109-5.062-.75-69.609.516-113.48,39.984-1.688,1.688-3.797,2.484-5.906,2.484h-.006Z"/><path class="cls-1" d="M94.246,308.42c25.312,1.125,72.562,10.078,108.8,39.375,36.375-29.25,83.625-38.25,108.94-39.375l-14.953-34.875c-1.219-2.859-.844-6.141.938-8.625,1.781-2.531,4.781-3.844,7.875-3.656,21.75,1.781,44.438-5.391,59.344-11.531l-22.312-9.844c-2.578-1.125-4.453-3.422-5.062-6.141s.094-5.578,1.922-7.734l33.141-38.203-33.984,8.062c-3,.75-6.141-.188-8.25-2.344-2.156-2.156-3.047-5.297-2.344-8.25l5.766-24.281c-25.547,18.469-58.031,22.078-59.906,22.312-2.625.281-5.203-.609-7.078-2.438s-2.859-4.359-2.625-6.984c2.156-28.5,18.094-55.125,30.188-71.531-19.781,3.469-31.453,11.016-31.594,11.109-3.141,2.062-7.312,1.922-10.266-.422-3-2.344-4.172-6.281-2.906-9.844,7.312-20.906-22.734-59.203-46.734-82.172-23.906,22.969-53.859,61.312-46.547,82.172,1.266,3.562.047,7.547-2.906,9.891-3,2.344-7.172,2.484-10.266.375-.141-.094-11.859-7.594-31.594-11.109,12.094,16.406,27.984,43.031,30.141,71.531.188,2.625-.797,5.156-2.625,6.984-1.875,1.828-4.453,2.766-7.078,2.438-1.922-.188-34.5-3.844-60.141-22.406l5.766,24.375c.703,3-.188,6.094-2.344,8.25s-5.297,3.094-8.25,2.344l-33.891-8.016,33,38.25c1.828,2.109,2.531,4.969,1.922,7.688s-2.484,5.016-5.062,6.141l-22.172,9.797c14.906,6.141,37.641,13.406,59.391,11.578,3-.234,6.094,1.125,7.875,3.656,1.828,2.531,2.156,5.812.938,8.625l-15.054,34.828Z"/><path d="M203.136,462.232c-4.875,0-8.812-3.938-8.812-8.812V179.339c0-4.875,3.938-8.812,8.812-8.812s8.812,3.938,8.812,8.812v274.03c0,4.922-3.938,8.859-8.812,8.859v.003Z"/></g></svg>