<?xml version="1.0" encoding="UTF-8"?>
<svg id="Layer_1" data-name="Layer 1" xmlns="http://www.w3.org/2000/svg" viewBox="0 0 797.96 1265.75">
  <path d="M176.059,1177.782c-7.558-7.558-14.717-15.512-21.479-23.799-88.991-109.409-116.178-287.213-74.515-487.904,5.005-24.097,19.755-45.012,40.769-57.806,20.683-12.728,45.774-16.208,69.109-9.579,67.915,20.319,138.284,31.224,209.113,32.449,70.832-1.226,141.199-12.13,209.042-32.449,23.367-6.662,48.426-3.215,69.109,9.513,20.981,12.827,35.731,33.742,40.769,57.806,41.627,200.726,14.517,378.521-74.515,487.904-59.695,73.218-150.085,114.486-244.483,111.701-83.162,2.221-163.642-29.469-222.93-87.829l.011-.007ZM667.514,647.878c-2.917-2.917-6.198-5.469-9.711-7.59-11.833-7.325-26.218-9.314-39.576-5.502-71.164,21.246-144.947,32.65-219.224,33.878-74.279-1.16-148.027-12.529-219.224-33.807-13.358-3.812-27.709-1.79-39.543,5.535-12.164,7.325-20.716,19.456-23.534,33.411-39.273,189.49-14.849,355.986,66.956,456.487,52.37,64.766,132.18,101.024,215.379,97.912,83.229,3.149,163.048-33.117,215.412-97.878,81.836-100.597,106.193-267.018,66.857-456.657-1.989-9.745-6.795-18.727-13.788-25.787h-.003Z"/>
  <path d="M119.83,407.424c-4.541-4.541-6.43-11.071-5.038-17.369,19.622-86.577,77.661-159.531,157.675-198.113,79.98-38.548,173.187-38.549,253.201.028,79.98,38.614,137.987,111.537,157.608,198.179,1.26,4.906.464,10.143-2.188,14.452-2.652,4.309-6.961,7.358-11.866,8.486-4.972,1.127-10.176.166-14.418-2.619s-7.159-7.159-8.121-12.165c-17.103-75.44-67.65-138.98-137.355-172.556-69.672-33.609-150.877-33.607-220.547-.071-69.672,33.609-120.278,97.143-137.39,172.591-1.492,6.662-6.53,11.966-13.092,13.888-6.53,1.889-13.623.099-18.462-4.74l-.006.007Z"/>
  <path d="M159.28,619.747c-.829-.762-1.558-1.69-2.254-2.652-14.153-20.849-25.489-43.52-33.61-67.418-3.348-9.778,1.856-20.484,11.667-23.865,9.844-3.348,20.517,1.889,23.865,11.667,7.093,20.683,16.904,40.305,29.168,58.336,5.502,8.021,3.977,18.827-3.48,25.025s-18.396,5.668-25.224-1.16l-.132.067Z"/>
  <path d="M612.344,619.782c-6.364-6.43-7.292-16.44-2.188-23.865,12.297-18.065,22.108-37.687,29.168-58.336,3.381-9.811,14.054-15.048,23.865-11.667s15.048,14.054,11.667,23.865c-8.154,23.865-19.49,46.537-33.709,67.384-2.784,4.11-7.126,6.927-12.032,7.855-4.872.895-9.944-.199-14.054-2.983-.994-.663-1.889-1.425-2.718-2.254h0Z"/>
  <path d="M148.998,921.449c-6.165-6.165-7.325-15.81-2.685-23.235s13.822-10.64,22.075-7.756c139.313,47.433,266.756,124.232,373.748,225.256,7.325,7.259,7.524,18.992.53,26.517-3.447,3.58-8.187,5.668-13.125,5.767-5.005.099-9.811-1.79-13.391-5.237-103.086-97.252-225.887-171.196-360.023-216.834-2.652-.928-5.104-2.453-7.126-4.475l-.003-.002Z"/>
  <path d="M159.866,711.629c-6.165-6.099-7.292-15.645-2.717-23.069,4.508-7.425,13.556-10.706,21.843-7.988,169.608,55.521,326.514,144.08,461.712,260.583,3.779,3.248,6.132,7.856,6.464,12.828.365,5.005-1.359,9.911-4.674,13.623-6.828,7.822-18.661,8.585-26.451,1.79-131.717-112.758-284.154-198.771-448.787-253.229-2.817-.895-5.336-2.42-7.391-4.541v.004Z"/>
  <path d="M33.811,542.686c-11.269-11.336-20.086-24.859-25.887-39.808-10.872-27.312-10.54-57.806.894-84.886,9.579-22.44,27.71-40.173,50.448-49.188,27.842-10.408,58.966-6.861,83.792,9.546,6.762,4.243,10.076,12.33,8.253,20.119-10.607,46.072-8.021,94.2,7.491,138.88,2.917,8.087-.1,17.137-7.292,21.876-4.773,3.182-9.943,5.834-15.346,7.855-22.705,8.651-47.995,7.889-70.136-2.188-12.032-5.336-22.936-12.86-32.217-22.207h0ZM111.836,404.337c-12.463-5.105-26.384-5.303-38.979-.596-13.424,5.402-24.097,16.009-29.699,29.367-14.981,37.388,1.657,80.013,38.018,97.415,11.634,5.336,24.759,6.397,37.123,3.049-7.259-25.754-10.938-52.37-10.839-79.118-.033-16.804,1.426-33.576,4.375-50.116h0Z"/>
  <path d="M643.704,556.871c-5.104-5.104-6.795-12.695-4.375-19.49,15.545-44.647,18.131-92.775,7.491-138.88-1.823-7.789,1.491-15.877,8.286-20.152,24.759-16.407,55.95-19.954,83.792-9.546,22.671,9.015,40.836,26.716,50.381,49.188,23.335,56.414-1.923,121.18-57.272,146.898-22.207,10.076-47.498,10.839-70.269,2.121-5.336-2.022-10.474-4.641-15.214-7.789-1.028-.696-1.956-1.492-2.817-2.353l-.003.004ZM686.296,404.301c7.59,43.056,5.402,87.206-6.43,129.268,12.363,3.347,25.489,2.287,37.156-3.016,17.666-8.187,31.422-23.003,38.25-41.299,7.292-18.031,7.192-38.217-.298-56.182-5.568-13.324-16.241-23.931-29.666-29.334-12.595-4.706-26.549-4.541-39.012.563h0Z"/>
  <path d="M385.822,194.861l-1.127-1.127-33.444-39.742c-3.414-4.011-4.972-9.281-4.276-14.485.696-5.27,3.513-9.944,7.856-12.96,17.833-12.529,54.16-45.542,52.37-67.75-.663-8.353-8.12-16.075-22.208-22.87-4.674-2.022-8.286-5.9-10.043-10.706s-1.491-10.109.762-14.684c2.221-4.607,6.265-8.054,11.104-9.646,4.872-1.558,10.143-1.061,14.651,1.392,23.335,8.352,40.007,29.135,43.122,53.729,2.851,36.062-30.859,70.634-52.138,88.797l20.882,24.793c7.027,7.623,6.497,19.49-1.127,26.517s-19.49,6.497-26.517-1.127l.132-.131Z"/>
  <path d="M337.039,507.154c-1.492-1.492-3.016-3.016-4.475-4.674l.033.033c-7.027-7.623-6.563-19.49,1.061-26.517,7.59-7.06,19.49-6.563,26.517,1.061,9.314,12.496,23.401,20.617,38.913,22.473,15.545-1.823,29.599-9.977,38.946-22.506,7.06-7.59,18.926-8.054,26.55-1.027,7.624,7.027,8.087,18.893,1.027,26.483-16.242,20.484-40.372,33.08-66.457,34.637-23.898-1.16-46.304-11.966-62.114-29.964h0Z"/>
  <path d="M244.691,423.291c-3.547-3.48-5.502-8.286-5.502-13.259-.995-21.545,9.844-41.929,28.339-53.132,17.136-9.844,38.25-9.878,55.42,0,18.462,11.236,29.301,31.621,28.306,53.165-.166,10.242-8.485,18.429-18.761,18.429-10.209,0-18.529-8.187-18.694-18.429.829-8.121-2.817-16.075-9.612-20.683-5.535-3.149-12.363-3.149-17.965,0-6.729,4.607-10.408,12.529-9.546,20.683,0,7.557-4.541,14.418-11.535,17.302-7.027,2.917-15.081,1.293-20.451-4.077h0Z"/>
  <path d="M452.34,423.334c-3.513-3.513-5.502-8.286-5.469-13.292-.995-21.545,9.844-41.929,28.273-53.132,17.203-9.911,38.349-9.911,55.518-.033,18.429,11.203,29.267,31.588,28.306,53.165.099,5.005-1.856,9.877-5.369,13.457-3.513,3.58-8.32,5.602-13.358,5.601s-9.844-2.022-13.391-5.568c-3.547-3.613-5.469-8.452-5.369-13.523.862-8.088-2.817-16.075-9.546-20.683-5.602-3.149-12.397-3.116-17.998.033-6.729,4.607-10.408,12.529-9.546,20.683,0,7.557-4.574,14.385-11.568,17.269-6.994,2.95-15.048,1.326-20.418-4.044l-.066.066Z"/>
</svg>