<?xml version="1.0" encoding="UTF-8"?>
<svg width="1200pt" height="1200pt" version="1.1" viewBox="0 0 1200 1200" xmlns="http://www.w3.org/2000/svg">
 <path d="m801 274.68c-7.2695-29.105-24.895-54.562-49.578-71.609-24.684-17.051-54.73-24.52-84.523-21.012-29.793 3.5078-57.289 17.75-77.34 40.062l-88.559 1.9219v-0.003907c-21.5 0.5625-41.93 9.4922-56.945 24.891-15.016 15.395-23.43 36.043-23.453 57.551v153.96c-0.023437 10.711 2.9258 21.219 8.5195 30.359l-19.32 33c-27.816 47.23-28.953 105.56-3 153.84l118.2 221.16-45.961 237.72c-1.0391 5.2773 0.33594 10.746 3.75 14.902 3.4141 4.1602 8.5117 6.5703 13.891 6.5781h102.36c4.0781-0.007812 8.0352-1.4023 11.219-3.9531 3.1836-2.5508 5.4062-6.1094 6.3008-10.086l55.441-244.92c0.78125-3.0703 0.78125-6.2891 0-9.3594l-69.961-221.4 184.2-299.16c17.504-28.184 22.832-62.262 14.762-94.441zm-45 75.602-188.88 306.12c-2.7773 4.4453-3.4766 9.8789-1.9219 14.883l70.801 224.52-51.359 226.2h-66.121l43.082-222c0.82422-4.0859 0.1875-8.3359-1.8008-12l-120.72-227.28c-20.059-37.23-19.195-82.242 2.2812-118.68l16.078-27.48h0.003906c7.1211 3.0938 14.793 4.7266 22.559 4.8008 4.0273 0.042969 8.0469-0.31641 12-1.0781 13.504-2.5938 25.684-9.8125 34.441-20.41 8.7617-10.602 13.555-23.922 13.559-37.672v-85.559l5.1602-8.8789 80.762 12.719c6.4297 1.0078 12.91-1.4922 16.996-6.5586 4.0898-5.0664 5.1641-11.926 2.8203-18s-7.7461-10.434-14.18-11.441l-87.84-13.68c-9.9297-1.582-20.059 1.2695-27.703 7.8047-7.6445 6.5391-12.035 16.098-12.016 26.156v97.078c0.015625 5.3516-1.832 10.543-5.2266 14.684-3.3906 4.1367-8.1211 6.9648-13.375 7.9961-6.75 1.3281-13.738-0.43359-19.059-4.8008-5.3164-4.3633-8.4062-10.879-8.418-17.758v-153.96c0.023437-12.07 4.75-23.656 13.172-32.305 8.4219-8.6445 19.879-13.672 31.945-14.016l179.04-3.9609c6.4336-0.12891 12.305-3.6758 15.41-9.3086 3.1055-5.6367 2.9688-12.496-0.35938-18-3.3281-5.5078-9.3398-8.8203-15.77-8.6914h-22.68 1.9219c22.578-5.793 46.535-2.3125 66.531 9.6719 19.996 11.98 34.363 31.469 39.898 54.113 5.5352 22.641 1.7812 46.559-10.43 66.418z"/>
 <path d="m903 290.52c32.98 0 64.605-13.102 87.922-36.426s36.41-54.957 36.398-87.934c-0.011718-32.98-13.125-64.602-36.457-87.91-23.328-23.309-54.965-36.391-87.941-36.371-32.98 0.023438-64.598 13.145-87.898 36.484-23.301 23.34-36.375 54.977-36.344 87.957 0.03125 32.949 13.145 64.543 36.457 87.828 23.309 23.289 54.914 36.371 87.863 36.371zm0-212.52c23.426 0 45.887 9.3047 62.453 25.867 16.562 16.562 25.867 39.027 25.867 62.453 0 23.422-9.3047 45.887-25.867 62.453-16.566 16.562-39.027 25.867-62.453 25.867s-45.887-9.3047-62.453-25.867c-16.562-16.566-25.867-39.031-25.867-62.453 0-23.426 9.3047-45.891 25.867-62.453 16.566-16.562 39.027-25.867 62.453-25.867z"/>
 <path d="m235.56 187.08c-1.0508 4.6445-0.25 9.5156 2.2422 13.574 2.4883 4.0586 6.4648 6.9805 11.078 8.1484 1.8008 0 43.68 11.039 43.559 42.84 0 49.078 44.398 69.602 68.039 73.559h0.003907c0.99609 0.125 2.0039 0.125 3 0 6.4297 0.53516 12.66-2.3984 16.34-7.6992 3.6758-5.3008 4.25-12.164 1.5-18-2.7539-5.8398-8.4102-9.7656-14.84-10.301-3.8398-0.71875-38.16-7.8008-38.039-38.039 0-60-68.281-77.281-71.281-78-4.7148-1.0664-9.6602-0.19141-13.723 2.4258-4.0625 2.6172-6.9023 6.7617-7.8789 11.492z"/>
 <path d="m396 228c3.0664 2.2461 6.7617 3.4648 10.559 3.4805 5.7188-0.046875 11.086-2.7539 14.52-7.3203 2.8242-3.8438 4.0117-8.6484 3.3164-13.363-0.69531-4.7188-3.2227-8.9727-7.0352-11.836-3.2383-2.3984-30.719-24-16.922-51 27.484-53.883-26.156-99.961-28.438-101.76-4.9297-4.1367-11.691-5.3281-17.742-3.1289-6.0469 2.2031-10.461 7.4609-11.578 13.801-1.1172 6.3398 1.2305 12.793 6.1602 16.93 1.4414 1.0781 34.078 29.52 19.68 57.84-22.32 43.801 8.2812 82.078 27.48 96.359z"/>
 <path d="m185.16 331.56c-6.1289 1.9727-10.742 7.0664-12.102 13.363-1.3555 6.293 0.74609 12.836 5.5195 17.16 4.7734 4.3203 11.492 5.7695 17.621 3.7969 1.8008 0 43.199-13.199 60 13.922 6.3633 10.742 15.508 19.566 26.473 25.543 10.961 5.9766 23.332 8.8867 35.809 8.418 11.457 0.12891 22.84-1.8242 33.598-5.7617 4.6172-1.7266 8.3164-5.2812 10.223-9.8242 1.9102-4.543 1.8594-9.6719-0.14062-14.176-1.7422-4.4375-5.1641-8.0078-9.5234-9.9375-4.3555-1.9336-9.3008-2.0703-13.758-0.38281-3.7188 1.4414-36.719 13.32-52.32-12.602-31.078-51.598-98.52-30.359-101.4-29.52z"/>
</svg>
