<?xml version="1.0" encoding="UTF-8"?>
<svg id="Layer_1" data-name="Layer 1" xmlns="http://www.w3.org/2000/svg" viewBox="0 0 1129.18 1162.511">
  <path d="M1125.693,298.874c-37.453-52.594-97.734-122.53-188.86-122.53-1.969,0-3.938.047-5.953.094-31.734-29.953-84.656-47.625-143.9-47.625-11.25,0-22.266.656-32.906,1.969-2.156-39.656-8.25-82.734-27.703-120.61-3.234-6.234-9.656-10.172-16.688-10.172h-290.16c-7.031,0-13.453,3.938-16.688,10.172-19.406,37.688-25.594,80.812-27.75,120.61-10.688-1.312-21.656-1.969-32.906-1.969-59.25,0-112.17,17.672-143.95,47.625-93.844-2.953-156.52,68.672-194.76,122.44-2.25,3.188-3.469,6.984-3.469,10.875v298.22c0,5.109,2.062,9.984,5.766,13.5,3.656,3.516,8.672,5.344,13.734,5.203,38.391-1.5,79.969-4.453,112.78-17.625-3.938,101.44,39.094,250.78,91.969,307.5v227.21c0,10.359,8.391,18.75,18.75,18.75h643.18c10.359,0,18.75-8.391,18.75-18.75v-227.16c52.922-56.719,95.906-206.06,91.922-307.5,32.859,13.172,74.438,16.125,112.83,17.625,4.969.094,10.031-1.688,13.734-5.203,3.656-3.516,5.766-8.438,5.766-13.5v-298.26c0-3.891-1.172-7.688-3.469-10.875l-.018-.014ZM1091.662,588.274c-42.656-2.578-84.984-9-104.53-28.734-5.859-5.906-14.906-7.266-22.219-3.281-7.312,3.938-11.156,12.281-9.422,20.438,19.312,90-28.312,257.76-75.938,311.76-85.359-17.156-148.97-85.969-162.05-145.31-2.203-10.125-12.375-16.547-22.312-14.297-10.125,2.203-16.5,12.188-14.297,22.312,17.766,81,96.469,153,186.52,173.16v200.68h-284.06V451.782c0-10.359-8.391-18.75-18.75-18.75s-18.75,8.391-18.75,18.75v673.22h-284.06v-200.68c90-20.156,168.66-92.156,186.52-173.16,2.25-10.125-4.172-20.109-14.297-22.359-10.125-2.297-20.109,4.125-22.312,14.25-13.078,59.391-76.734,128.26-162.05,145.36-47.625-54-95.25-221.76-76.031-311.81,1.734-8.156-2.062-16.453-9.422-20.438-7.359-3.938-16.406-2.625-22.266,3.328-19.5,19.734-61.828,26.109-104.44,28.734v-272.44c43.828-60.234,84.75-91.641,130.82-99.562-20.625,35.062-29.625,71.953-27.75,113.77.469,10.078,8.766,17.906,18.703,17.906h.844c10.359-.469,18.375-9.234,17.906-19.594-2.016-45.562,10.828-82.688,41.672-120.28,23.438-25.734,70.312-41.719,122.44-41.719,16.406,0,32.156,1.594,46.781,4.781,5.438,1.219,11.156-.094,15.562-3.562s7.031-8.672,7.219-14.25c1.031-37.406,4.312-79.875,19.688-115.78h266.34c15.469,36.094,18.656,78.469,19.641,115.78.141,5.578,2.766,10.828,7.172,14.25,4.406,3.469,10.125,4.781,15.562,3.562,14.625-3.188,30.375-4.781,46.828-4.781,52.125,0,98.953,15.984,122.34,41.719,30.891,37.688,43.781,74.812,41.719,120.28-.469,10.359,7.5,19.125,17.859,19.594h.891c9.938,0,18.281-7.828,18.703-17.906,1.922-41.812-7.031-78.75-27.75-113.86,46.125,7.875,87.094,39.375,130.92,99.562l.057,272.577Z"/>
  <path d="M472.253,310.724c-10.359,0-18.75,8.391-18.75,18.75,0,67.969-41.109,208.31-168.14,208.31-10.359,0-18.75,8.391-18.75,18.75s8.391,18.75,18.75,18.75c155.39,0,205.64-165.61,205.64-245.81,0-10.359-8.391-18.75-18.75-18.75h0Z"/>
  <path d="M843.833,537.844c-127.08,0-168.24-140.34-168.24-208.31,0-10.359-8.391-18.75-18.75-18.75s-18.75,8.391-18.75,18.75c0,80.203,50.297,245.81,205.74,245.81,10.359,0,18.75-8.391,18.75-18.75s-8.391-18.75-18.75-18.75Z"/>
</svg>