<?xml version="1.0" encoding="UTF-8"?>
<svg id="Layer_1" data-name="Layer 1" xmlns="http://www.w3.org/2000/svg" viewBox="0 0 780.492 930.523">
  <path d="M401.57,84.056h3.562l3.562.234v.047l3.516.516,3.469.797,3.422,1.031,3.328,1.312,3.234,1.547,3.094,1.781,2.906,1.969v.047l2.812,2.203,2.625,2.438,2.438,2.578,1.078,1.359c-13.734-.328-27.281-.562-40.828-.562-11.344,0-22.641.188-33.844.609v.047l1.359-1.688,2.438-2.578,2.578-2.391,2.812-2.203,2.953-1.969,3.047-1.734,3.234-1.547,3.281-1.266,3.422-1.031,3.422-.797,3.516-.516,3.563-.234ZM400.961,33.384l9.047.047v.047l9,.75v.047l8.906,1.5,8.766,2.203,8.531,2.906,8.297,3.562,7.969,4.219,7.641,4.875,7.219,5.391,6.75,6,6.281,6.516,5.719,6.984,5.156,7.453,4.5,7.781,3.938,8.156,1.172,3.094v.047c-10.078-.891-20.344-1.5-30.562-1.922h-.047l-1.359-3.375c-.141-.375-.281-.75-.469-1.125l-2.109-4.312c-.188-.375-.375-.75-.609-1.125l-2.391-4.125c-.234-.375-.469-.703-.703-1.078l-2.719-3.938c-.234-.328-.469-.703-.75-.984l-3-3.75c-.234-.328-.516-.656-.797-.938l-3.281-3.516c-.281-.328-.562-.609-.891-.891l-3.516-3.281c-.328-.281-.656-.516-.938-.797l-3.797-3c-.328-.234-.656-.516-.984-.703l-3.984-2.719c-.328-.234-.703-.469-1.078-.656l-4.125-2.391c-.375-.234-.75-.422-1.125-.609l-4.312-2.062c-.375-.188-.75-.328-1.172-.516l-4.453-1.734c-.422-.141-.797-.281-1.172-.422l-4.594-1.406c-.422-.141-.797-.234-1.219-.328l-4.688-1.078c-.422-.094-.797-.141-1.219-.188l-4.781-.75c-.375-.047-.797-.094-1.219-.141l-4.781-.328c-.422-.047-.844-.047-1.266-.047l-4.781-.047c-.422,0-.844.047-1.266.047l-4.734.375c-.422.047-.844.094-1.219.141l-4.734.703c-.422.047-.797.141-1.219.234l-4.641,1.031c-.422.094-.797.188-1.219.328l-4.547,1.359c-.422.141-.797.281-1.172.422l-4.453,1.734c-.375.141-.75.281-1.125.469l-4.312,2.062-1.125.562-4.125,2.344c-.375.234-.703.422-1.078.656l-3.938,2.672c-.375.234-.703.469-1.031.75l-3.75,2.906c-.328.281-.609.516-.938.797l-3.516,3.234c-.328.281-.609.562-.891.844l-3.281,3.469c-.281.328-.562.609-.797.938l-3.047,3.703c-.234.328-.516.656-.75.984l-2.719,3.938c-.234.328-.469.656-.656,1.031l-2.438,4.078c-.234.375-.422.75-.609,1.125l-2.109,4.266c-.188.375-.375.75-.516,1.125l-1.828,4.406c-.141.375-.281.75-.422,1.172l-.047.188-.047.047c-9.75,1.031-19.5,2.391-29.109,4.219l.094-.281,3.375-8.438v.047l4.031-8.156,4.641-7.734,5.297-7.359,5.812-6.938,6.375-6.422,6.891-5.906,7.312-5.344,7.734-4.734,8.062-4.125,8.391-3.422,8.625-2.766,8.812-2.109v.047l8.953-1.406v.047l8.999-.656ZM399.789,134.724c14.953,0,30.047.281,45.703.656,39.234.891,77.812,2.25,107.86,9.938,29.109,7.453,50.578,21.094,68.297,37.172,17.906,16.172,31.359,34.266,39.938,53.625,5.625,12.797,9.281,26.297,11.062,39.422h-.047c.047.703.188,1.406.328,2.109,0,.047.047.094.047.188h-.047c.75,6.094,1.078,12.094.984,17.906-.141,18.375-4.219,34.219-13.828,50.625-9.984,17.016-25.781,34.312-43.172,45.141-17.203,10.734-36.984,15.797-57.516,19.453-14.156,2.531-27.75,4.266-41.391,5.766-.141-4.359-.328-8.672-.656-12.938-1.031-14.297-3.703-35.859-22.078-47.391-6.562-4.125-14.109-6.234-21-7.312-4.641-.703-9.422-.984-14.156-.984-7.078,0-14.109.656-20.391,1.781-16.078,2.812-35.531,9.703-42.984,29.766-4.781,12.891-3.094,29.484-.891,43.312-24.281-2.953-47.766-6.188-70.359-11.672-27.469-6.609-52.453-16.266-70.359-29.25-17.484-12.703-29.391-29.438-38.719-48.656-9.328-19.266-15.516-39.844-17.859-60.422-2.391-20.531-.891-40.5,6.609-60.141,7.594-19.922,21.234-39.188,42.469-51.891,1.688-1.031,3.375-1.969,5.156-2.906,1.125-.422,2.297-.844,3.469-1.266,1.781-.609,3.422-1.5,4.828-2.625h-.047c20.438-8.859,46.406-14.016,74.766-16.781,20.625-2.016,41.906-2.625,63.984-2.625h-.001ZM460.117,381.434c3.188,0,6.281.188,9.047.609,4.312.656,7.031,1.734,8.391,2.578,2.719,1.734,5.438,6.188,6.562,21.656.422,5.812.609,12.047.656,18.703.047,4.5.047,9.094.047,13.828s0,9.656.047,14.531c0,1.359.047,2.719.047,4.031.234,17.859-.516,24.938-2.344,27.375-.938,1.266-5.719,3.469-21.656,3.797-1.312.047-2.578.047-3.75.047-3.328,0-6.094-.141-8.484-.516-4.922-.75-6.891-2.109-8.438-4.641-5.203-8.297-7.312-27.562-9.562-54.234-.047-.469-.141-.938-.188-1.359-3.281-19.078-4.688-30.656-2.484-36.609.844-2.344,3.844-6.141,17.438-8.531,4.781-.797,9.891-1.266,14.672-1.266h0ZM175.637,196.834v.047c-.562,1.312-1.078,2.672-1.594,4.031-6.891,17.906-9.75,35.766-9.844,53.344h-.047c-.047.188-.094.422-.094.609l-.375,2.906c-6.141,48.328-12.234,96.281-16.5,128.63-.562,4.125-1.125,8.25-1.594,11.906-.469,3.562-.891,6.516-1.312,9.797-2.719,20.672-4.688,36.703-6.844,62.203-1.406,16.406-2.906,36.703-4.406,57.984-.516,6.656-.984,13.406-1.5,20.156-10.734-2.953-22.031-6.188-35.297-10.266-.609-.188-1.125-.375-1.781-.562v.047c-.797-.281-1.031-.375-1.875-.609-4.219-1.312-8.812-2.719-13.594-3.938-.984-.234-2.016-.516-3.094-.797l-.047.047c3.984-31.828,7.922-63.141,10.828-88.594.656-5.578,1.219-10.875,1.828-15.938.516-4.781,1.031-9.328,1.547-13.828,1.734-15.328,3.562-29.625,6.234-46.078,4.312-26.578,10.781-58.078,23.719-89.297,13.031-31.453,32.344-61.828,55.219-81.469.141-.094.234-.188.375-.328l.047-.003ZM530.617,590.674c9.609,0,18.703.094,27.094.422,23.953.797,40.312,3.047,54.469,8.531,13.875,5.391,25.125,13.734,32.531,28.266,5.016,9.891,8.531,23.016,11.062,37.266h-.047l-26.719,3.188-35.016,3.328-35.062,2.531-35.156,1.641-35.156.797-35.203-.047-35.016-.891-35.062-1.734v.047l-34.969-2.578-34.875-3.422-34.828-4.266v.047l-23.016-3.422-.047.047c.469-2.062.984-4.031,1.5-5.953,1.5-5.297,3.281-9.984,5.25-14.109,5.625-11.672,13.125-19.359,21.562-24.609,11.625-7.266,25.875-10.453,49.266-13.781,22.922-3.281,51.75-6.328,76.125-8.062,24.234-1.734,44.062-2.062,64.266-2.438h.047c19.734-.422,39.234-.797,57-.797v-.002ZM53.937,562.69c3.938,0,9.281.75,16.688,2.672v.047c3.938.984,7.969,2.203,12.141,3.516.703.188,1.125.328,1.828.562.656.188,1.219.375,1.828.562,16.312,5.016,29.812,8.766,42.562,12.281-.375,4.453-.75,8.906-1.078,13.266-1.078,12.656-2.156,24.656-3.234,36.328-.984,10.875-1.922,21.375-2.766,31.828-1.312,15.469-2.391,30.656-3.094,46.266-1.688,36.609-1.5,78.75,11.859,111.52.656,1.641,1.359,3.281,2.109,4.875-.844-.234-1.688-.422-2.531-.656-12.562-3.281-24.141-7.453-34.594-13.5-21.328-12.281-39.891-33.188-49.594-52.266-9.375-18.375-10.781-35.438-11.672-54.281-.938-18.75-1.312-36.516-.891-65.297.422-32.344,2.484-64.453,11.016-74.578,1.453-1.734,4.125-3.141,9.422-3.141v-.005ZM251.147,693.43l22.875,3.375c.141,0,.281,0,.422.047l35.203,4.266c.141.047.281.047.422.047l35.297,3.469h.375l35.391,2.625h.375l35.438,1.781h.422l35.438.891h.422l35.531.047h.422l35.578-.797c.094,0,.234-.047.375-.047l35.531-1.641c.141,0,.281-.047.422-.047l35.484-2.531h.375l35.438-3.422h.375l27.094-3.281h.047c1.781,20.672,1.969,38.859.844,57.047-.891,14.719-2.531,26.906-7.406,37.078-1.875,3.891-4.266,7.547-7.312,10.875-11.297,12.375-33.984,23.203-66.703,29.438-32.391,6.188-72.047,7.453-110.2,7.781-7.219.047-14.344.094-21.328.094-29.625,0-56.859-.516-79.828-1.125h-.141.047c-28.781-.797-47.719-1.781-66-8.766-18.844-7.266-36.141-20.531-44.25-35.109-8.016-14.297-8.625-31.922-8.156-60.469.234-13.688.609-28.031,1.641-41.625h.042ZM530.567,557.35c-18.328,0-38.109.375-57.609.797-20.25.375-40.828.75-66.047,2.531-25.078,1.734-54.703,4.922-78.422,8.297-23.297,3.328-43.969,7.125-62.156,18.469-13.781,8.531-25.641,21-34.031,38.484-2.906,6-5.344,12.516-7.312,19.594-7.406,26.484-8.391,61.734-8.859,88.969-.422,26.812-.75,53.859,12.375,77.297,12.984,23.203,37.594,40.781,61.453,49.969,24.422,9.328,49.031,10.219,77.109,10.969,23.156.609,50.719,1.125,80.719,1.125,7.078,0,14.297-.047,21.609-.094,38.109-.328,80.531-1.547,116.16-8.391,35.297-6.703,66.562-19.406,85.078-39.703,5.391-5.906,9.562-12.281,12.75-18.891,7.922-16.453,9.75-34.266,10.641-49.5,1.312-21.797.938-43.5-1.5-68.344v.047c-2.344-24.094-6.891-54.141-18.094-76.172-11.906-23.438-30.516-36.609-50.203-44.25-19.406-7.547-40.359-9.938-65.344-10.781-8.812-.328-18.375-.422-28.312-.422h-.004ZM185.937,346.93c.141.328.328.656.469.984,10.875,22.453,25.875,44.25,49.172,61.125,22.875,16.547,52.547,27.516,82.078,34.688,27.094,6.562,55.078,10.078,82.219,13.266h-.047c1.969,16.406,5.203,33,12.094,44.016,8.203,13.266,20.484,18.328,31.688,20.016,4.641.75,9.281.891,13.547.891,1.547,0,3.047,0,4.5-.047,11.719-.234,35.156-.656,47.484-17.016,10.406-13.781,9.281-35.531,9.094-47.906,0-1.312-.047-2.672-.047-3.938v-2.766l-.047.047c15.094-1.688,30.703-3.562,47.109-6.516,21.609-3.844,46.547-9.797,69.281-23.953,22.594-14.062,41.953-35.531,54.281-56.578.938-1.594,1.828-3.188,2.672-4.734h.047c1.875,7.969,3.75,16.078,5.719,24.375l2.109,8.953c8.297,35.016,17.25,72.844,25.125,116.53,8.531,47.531,15.844,102,19.453,143.21,3.562,40.969,3.469,68.812,3,94.688-.469,26.625-1.453,46.828-10.266,64.922-8.953,18.422-26.953,36.234-45.281,48.422-17.438,11.578-34.406,17.531-61.031,22.266-27.141,4.781-63.188,8.156-105.89,11.062-33.75,2.297-70.969,4.219-106.55,4.219v.047c-9.328-.047-18.516-.141-27.469-.469-43.219-1.406-81.938-6.562-111.38-12.188-29.25-5.578-48-11.297-67.688-22.734-20.297-11.766-39.984-28.594-49.875-52.828-10.266-25.219-11.109-60.516-9.422-97.406.703-15.047,1.734-29.859,3-45.047.891-10.312,1.828-20.719,2.812-31.594,1.031-11.625,2.109-23.766,3.188-36.562,1.828-21.703,3.516-45.375,5.156-67.641,1.547-21.375,3-41.438,4.359-57.562,2.109-24.844,4.031-40.359,6.703-60.703.422-3.328.844-6.141,1.312-9.75.469-3.656,1.031-7.781,1.594-11.953,1.641-12.562,3.562-27.469,5.672-43.828l.055-.009ZM400.437.01c-.375,0-.797.047-1.172.047l-10.359.75c-.469.047-.891.094-1.312.141l-10.266,1.594c-.469.047-.891.141-1.312.234l-10.125,2.391c-.422.094-.844.188-1.266.328l-9.891,3.188c-.422.141-.844.281-1.266.469l-9.609,3.938c-.422.188-.797.375-1.219.562l-9.234,4.734c-.422.188-.797.375-1.172.609l-8.859,5.438c-.375.234-.75.516-1.125.75l-8.391,6.141c-.328.234-.703.516-1.031.797l-7.875,6.797c-.328.281-.656.562-.984.891l-7.312,7.406c-.281.281-.609.609-.891.984l-6.703,7.922c-.281.328-.562.703-.797,1.031l-6.047,8.484c-.281.328-.516.703-.75,1.078l-5.344,8.906c-.234.375-.422.797-.656,1.172l-4.594,9.328c-.188.375-.375.797-.562,1.172l-3.844,9.656c-.188.422-.328.844-.469,1.266l-3.094,9.938c-.094.422-.234.844-.328,1.266l-2.062,9.187-.047.047c-7.266,2.484-14.297,5.391-20.859,8.672l-.047.047c-28.5,10.125-59.578,21.797-86.062,44.484-28.125,24.141-50.016,59.578-64.312,94.031-14.391,34.688-21.375,69.141-25.828,96.703-2.812,17.203-4.641,32.062-6.469,47.625-.516,4.594-1.031,9.094-1.547,13.922-.562,5.062-1.172,10.312-1.781,15.844-3,25.875-6.984,57.938-11.109,90.562h-.047c-8.438,1.734-16.641,5.859-23.391,13.828v.047C.875,565.931.5,614.024.172,639.946c-.422,29.391-.047,47.859.891,67.359.938,19.406,2.484,42.656,15.281,67.828,12.469,24.422,35.344,50.297,62.672,66.047,13.875,7.969,28.406,13.078,42.844,16.828v.047c13.219,3.375,26.719,5.766,39.562,7.922h-.047c10.688,10.219,22.312,18.328,33.328,24.703,24.234,14.062,47.062,20.719,78.141,26.625,30.938,5.859,71.344,11.25,116.48,12.75,9.422.328,18.938.422,28.594.422v.047c36.703-.047,74.766-2.016,108.8-4.312,42.844-2.906,80.438-6.375,109.45-11.531,29.531-5.25,51.234-12.422,73.641-27.281,21.469-14.297,44.484-36.234,56.859-61.594,12.516-25.734,13.125-53.25,13.594-78.984.469-26.484.562-55.594-3.141-98.156v.047c-3.703-42.328-11.109-97.828-19.875-146.26-8.016-44.672-17.156-83.344-25.453-118.31v.047l-2.109-8.953c-8.672-36.703-16.266-69.938-23.859-103.22h-.047c-2.109-16.453-6.609-33.328-13.734-49.406-10.734-24.188-27.141-45.984-48.047-64.875-21-18.984-47.156-35.672-82.406-44.719-4.875-1.219-9.891-2.344-15.047-3.281h-.047l-2.812-9.562c-.141-.422-.281-.844-.422-1.266l-3.75-9.656c-.141-.422-.328-.844-.516-1.219l-4.453-9.375c-.234-.375-.422-.75-.656-1.172l-5.203-8.953c-.188-.375-.469-.75-.703-1.125l-5.906-8.484c-.234-.375-.516-.75-.797-1.078l-6.562-8.016c-.281-.328-.562-.656-.891-.984l-7.172-7.5c-.281-.281-.609-.609-.938-.891l-7.781-6.891c-.328-.281-.656-.562-1.031-.844l-8.25-6.234c-.375-.281-.703-.516-1.078-.75l-8.766-5.578c-.375-.234-.75-.422-1.125-.656l-9.188-4.828c-.375-.234-.797-.422-1.172-.562l-9.516-4.125c-.422-.188-.844-.328-1.266-.469l-9.797-3.328c-.422-.141-.844-.281-1.266-.375l-10.031-2.531c-.469-.141-.891-.234-1.312-.281l-10.219-1.734c-.422-.094-.891-.141-1.312-.188l-10.312-.891c-.469-.047-.891-.094-1.359-.094l-10.359-.094h-.141v.01Z"/>
</svg>