<?xml version="1.0" encoding="UTF-8"?>
<svg id="Layer_1" data-name="Layer 1" xmlns="http://www.w3.org/2000/svg" viewBox="0 0 1086.15 1086.15">
  <defs>
    <style>
      .cls-1 {
        fill-rule: evenodd;
      }
    </style>
  </defs>
  <path class="cls-1" d="M543.05,0C243.33,0,0,243.32,0,543.05s243.32,543.1,543.05,543.1,543.1-243.37,543.1-543.1S842.78,0,543.05,0h0ZM43.13,619.13c34.219,226.45,218.95,403.92,448.87,426.98.094-.141.234-.281.328-.422,5.672-8.625,17.297-11.016,25.922-5.344,8.016,5.297,16.266,8.344,24.797,8.344,14.062,0,27.141-7.922,39.797-21.047,15.469-16.031,29.672-39.562,42.562-69,25.734-58.641,45.656-139.92,57-234.32-44.391,3.891-91.125,6-139.36,6-206.95,0-386.44-38.625-475.64-93.891-8.953-5.578-17.062-11.344-24.281-17.297l.005-.003ZM1042.97,619.13c-7.219,5.953-15.328,11.719-24.281,17.297-62.391,38.625-168.98,69.141-298.22,84.047-14.906,129.24-45.422,235.82-84.047,298.22-5.578,8.953-11.344,17.062-17.297,24.281,218.21-32.953,390.84-205.64,423.84-423.84l.005-.005ZM476.29,990.1c-5.484-9.656-10.734-20.297-15.797-31.828-4.125-9.469-15.188-13.781-24.656-9.656s-13.781,15.188-9.656,24.656c5.625,12.797,11.438,24.562,17.484,35.25,5.109,9,16.547,12.188,25.547,7.078,9-5.062,12.141-16.5,7.078-25.5h0ZM436.212,890.02c-3.328-11.344-6.469-23.156-9.422-35.391-2.438-10.031-12.609-16.219-22.641-13.734-10.031,2.438-16.219,12.562-13.781,22.594,3.141,12.797,6.422,25.125,9.891,37.031,2.859,9.891,13.312,15.609,23.203,12.703,9.938-2.906,15.609-13.312,12.75-23.203h0ZM412.071,782.58c-1.969-11.906-3.844-24.047-5.531-36.469-1.406-10.219-10.875-17.391-21.141-15.984-10.219,1.406-17.391,10.828-15.984,21.094,1.734,12.797,3.703,25.312,5.766,37.594,1.688,10.172,11.344,17.062,21.562,15.328,10.172-1.688,17.062-11.391,15.328-21.562h0ZM682.591,363.29c-11.297-95.062-31.312-176.86-57.188-235.82-12.891-29.438-27.094-52.922-42.562-69-12.656-13.078-25.734-21-39.797-21h-.281c-8.531.047-16.781,3.141-24.797,8.484-8.578,5.719-20.203,3.422-25.969-5.203-.141-.234-.281-.469-.469-.703C253.398,64.189,63.888,253.838,39.978,492.018c.141.094.281.234.422.328,8.672,5.672,11.016,17.297,5.344,25.922-5.25,7.922-8.203,16.031-8.297,24.422v.375c0,14.062,7.922,27.141,21,39.797,16.078,15.469,39.562,29.672,69,42.562,58.969,25.828,140.68,45.844,235.6,57.141-1.031-2.062-1.688-4.359-1.875-6.797-1.031-12.422-1.922-25.031-2.672-37.828-.562-10.312,7.312-19.172,17.625-19.781,10.312-.562,19.172,7.312,19.781,17.625.703,12.469,1.594,24.75,2.578,36.891.422,4.969-1.125,9.656-4.031,13.266,47.062,4.547,96.938,6.938,148.6,6.938,49.734,0,97.828-2.25,143.39-6.422,4.172-45.562,6.422-93.656,6.422-143.39,0-51.797-2.438-101.81-6.984-148.97-3.656,3.094-8.484,4.828-13.641,4.406-12.141-1.031-24.469-1.875-36.891-2.625-10.312-.562-18.234-9.422-17.625-19.734.609-10.359,9.469-18.234,19.781-17.625,12.75.75,25.359,1.594,37.828,2.625,2.625.234,5.062.984,7.266,2.156l-.007-.01ZM1046.061,491.55c-23.297-229.74-200.63-414.24-426.94-448.4,5.953,7.219,11.719,15.328,17.297,24.281,55.219,89.203,93.891,268.69,93.891,475.64,0,48.234-2.109,94.969-6,139.36,94.406-11.344,175.69-31.266,234.32-57,29.438-12.891,52.969-27.094,69-42.562,13.125-12.656,21.047-25.734,21.047-39.797v-.281c-.094-8.531-3.188-16.781-8.531-24.797-5.719-8.578-3.422-20.203,5.203-25.969.234-.141.469-.281.703-.469l.01-.006ZM393.321,561.816c-.047-6.234-.094-12.469-.094-18.75,0-6.141.047-12.234.094-18.281.141-10.359-8.156-18.844-18.516-18.938-10.312-.141-18.797,8.156-18.938,18.516-.047,6.188-.094,12.422-.094,18.703,0,6.422.047,12.797.094,19.172.141,10.312,8.625,18.609,18.938,18.516,10.359-.141,18.656-8.625,18.516-18.938ZM96.001,476.316c9.656-5.484,20.297-10.734,31.828-15.797,9.469-4.125,13.781-15.188,9.656-24.656s-15.188-13.781-24.656-9.656c-12.797,5.625-24.562,11.438-35.25,17.484-9,5.109-12.188,16.547-7.078,25.547,5.062,9,16.5,12.188,25.5,7.078h0ZM957.891,460.378c11.531,5.016,22.172,10.266,31.828,15.703,9,5.109,20.438,1.922,25.5-7.078,5.109-9,1.922-20.438-7.078-25.5-10.734-6.047-22.5-11.906-35.297-17.438-9.469-4.172-20.484.188-24.656,9.656-4.125,9.469.234,20.531,9.703,24.656h0ZM395.861,450.769c.75-12.422,1.594-24.75,2.625-36.891.797-10.266-6.844-19.359-17.156-20.203-10.266-.844-19.359,6.844-20.203,17.109-1.031,12.469-1.875,25.078-2.625,37.828-.609,10.359,7.266,19.172,17.578,19.781,10.359.609,19.219-7.312,19.781-17.625h0ZM196.081,436.238c11.344-3.328,23.156-6.469,35.391-9.422,10.031-2.438,16.219-12.562,13.734-22.641-2.438-10.031-12.562-16.219-22.594-13.781-12.797,3.141-25.125,6.422-37.031,9.891-9.891,2.859-15.609,13.312-12.703,23.203,2.906,9.938,13.312,15.609,23.203,12.75h0ZM854.261,426.722c12.188,2.953,24,6.094,35.344,9.375,9.938,2.906,20.344-2.812,23.203-12.75,2.906-9.891-2.812-20.297-12.703-23.203-11.906-3.422-24.234-6.75-37.031-9.844-10.031-2.438-20.203,3.75-22.594,13.781-2.438,10.078,3.703,20.203,13.781,22.641h0ZM303.521,412.097c11.906-1.969,24.047-3.844,36.469-5.531,10.219-1.406,17.391-10.875,15.984-21.141-1.406-10.219-10.828-17.391-21.094-15.984-12.797,1.734-25.312,3.703-37.594,5.766-10.172,1.688-17.062,11.344-15.328,21.562,1.734,10.172,11.391,17.062,21.562,15.328h0ZM745.701,406.519c12.422,1.688,24.562,3.516,36.469,5.531,10.172,1.734,19.875-5.156,21.562-15.375s-5.156-19.875-15.375-21.562c-12.234-2.062-24.797-3.984-37.594-5.719-10.219-1.406-19.688,5.766-21.094,16.031-1.359,10.219,5.812,19.688,16.031,21.094h0ZM413.441,398.503c12.141-.984,24.422-1.875,36.891-2.578,10.312-.609,18.188-9.469,17.625-19.781-.609-10.312-9.469-18.188-19.781-17.625-12.797.75-25.406,1.641-37.828,2.672-10.312.844-17.953,9.891-17.109,20.203s9.891,18,20.203,17.109h0ZM524.351,393.347c6.188-.047,12.422-.094,18.703-.094,6.141,0,12.234.047,18.281.094,10.359.141,18.844-8.156,18.938-18.516.141-10.312-8.156-18.797-18.516-18.938-6.188-.047-12.422-.094-18.703-.094-6.422,0-12.797.047-19.172.094-10.312.141-18.609,8.625-18.516,18.938.141,10.359,8.625,18.656,18.984,18.516h0ZM406.461,340.425c1.734-12.422,3.562-24.562,5.578-36.469,1.688-10.172-5.203-19.875-15.375-21.562-10.219-1.688-19.875,5.156-21.562,15.375-2.062,12.234-3.984,24.797-5.719,37.594-1.406,10.219,5.766,19.688,16.031,21.094,10.219,1.406,19.688-5.766,21.047-16.031h0ZM426.711,231.905c2.953-12.234,6.094-24.047,9.375-35.391,2.906-9.938-2.812-20.344-12.75-23.203-9.891-2.906-20.297,2.812-23.203,12.75-3.422,11.859-6.75,24.188-9.844,36.984-2.438,10.078,3.75,20.203,13.781,22.641s20.203-3.75,22.641-13.781h0ZM460.367,128.215c5.016-11.531,10.266-22.172,15.703-31.828,5.109-9,1.922-20.438-7.078-25.5-9.047-5.109-20.438-1.922-25.5,7.078-6.094,10.734-11.906,22.5-17.438,35.297-4.172,9.469.188,20.531,9.656,24.656s20.531-.234,24.656-9.703h0Z"/>
</svg>