<?xml version="1.0" encoding="UTF-8"?>
<svg id="Layer_1" data-name="Layer 1" xmlns="http://www.w3.org/2000/svg" viewBox="0 0 1062.909 1200.044">
  <path d="M928.834,268.918c-47.109-41.625-45.281-136.13-40.031-188.76v-.328c0-.281.047-.609.047-.891,1.969-27.047-20.25-51.141-61.266-66.281-38.531-14.25-101.62-21.656-121.18,6.469-21.891,31.453-9.422,59.203.984,70.453,35.203,47.25,41.25,146.11,42.234,175.4.188,5.953-1.969,11.625-6.094,16.078-1.828,1.969-3.516,3.984-5.203,6.047-.141.188-.281.328-.375.516-21.094,26.438-30.188,60.938-41.484,103.78-17.391,66.094-41.156,156.66-126.1,268.97-88.828,117.42-258.32,199.4-477.28,230.81-4.828.703-8.344,1.219-10.453,1.594-12.188,2.156-22.969,5.719-32.438,10.594-.938.422-1.781.891-2.625,1.453-25.359,14.203-40.641,38.859-46.266,74.625-9.844,63,39.188,95.719,41.25,97.078,125.76,81.984,255.1,123.52,381.37,123.52,58.453,0,116.3-8.906,172.78-26.859,95.297-30.234,186-86.438,262.36-162.47,69.75-69.469,124.87-152.06,159.37-238.78,81.562-205.08,50.531-379.03-89.719-502.97l.119-.048ZM887.865,274.449c-44.953,33.375-87.562,25.547-110.2,17.156,4.406-8.531,6.609-18,6.234-27.797-1.125-32.906-5.203-83.484-18.562-129.05,8.578,1.5,16.828,2.25,24.609,2.25,25.031,0,45.844-7.172,61.969-16.875-1.219,54.188,6.188,113.3,35.953,154.31l-.003.006ZM734.155,68.059c-.609-.797-.75-1.031-1.406-1.641-2.484-2.812-8.812-12.422,1.734-27.609,7.078-7.453,52.734-7.547,91.172,10.078,16.219,7.453,26.719,16.406,28.734,24.281-9.422,11.625-42.281,43.781-103.73,22.312-4.781-9.938-10.266-19.219-16.5-27.422h-.004ZM56.295,1025.799c-3.984,2.578-8.016,3.938-11.625,4.031-6.797-10.547-12.422-25.641-9.375-45.141,3.844-24.656,13.078-38.719,24.328-46.969,9.375,3.984,24.516,14.391,21.516,39.75-2.578,21.938-11.859,39.984-24.891,48.328h.047ZM986.665,759.219c-70.266,176.72-227.39,326.34-400.22,381.24-52.969,16.828-107.25,25.172-162.24,25.172-115.78,0-234.61-37.078-350.72-110.16.422-.281.891-.516,1.312-.797,21.891-14.016,36.609-40.688,40.453-73.219,3-25.453-4.781-43.875-16.031-56.578,33.469-4.781,119.11-17.344,216.28-52.312,125.21-45.047,220.18-109.5,282.28-191.63,89.016-117.7,113.81-212.06,131.9-280.92,8.812-33.516,15.75-59.859,27.328-79.688,15.656,7.031,36.562,12.703,60.188,12.703,3.469,0,6.984-.141,10.594-.422,6.844,40.688,8.812,82.641,6.938,123.71-2.812,63.469-16.312,126.28-42.141,184.31-18.891,41.906-43.031,82.078-71.672,118.03l-10.781,13.594c-6.891,7.547-15.984,18.844-23.109,25.969-6.844,7.031-17.297,18.281-24.422,24.797-82.547,81.281-187.82,139.87-302.11,160.82-68.719,12.047-139.64,14.438-208.92,6.281-2.766-.469-5.625.984-6.75,3.75-1.219,3.141.281,6.656,3.422,7.875,11.672,4.641,23.25,7.922,35.297,10.781,83.906,19.734,172.26,11.812,254.48-12.516,112.31-32.906,212.68-101.77,289.36-189.52,85.922-96.422,140.76-223.5,139.78-353.68-.516-40.031-6.188-79.969-18.422-118.08-.984-2.859-1.969-5.766-3-8.578,21.281-4.219,43.734-13.641,65.766-30.703,156.19,142.78,127.36,328.4,75.141,459.71l.019.061Z"/>
</svg>