<?xml version="1.0" encoding="UTF-8"?>
<svg id="Layer_1" data-name="Layer 1" xmlns="http://www.w3.org/2000/svg" viewBox="0 0 975.044 975.148">
  <path d="M13.826,975.051h947.39c7.641,0,13.828-6.188,13.828-13.828v-73.5c0-7.641-6.188-13.828-13.828-13.828h-54.375v-39.469c0-7.641-6.188-13.828-13.828-13.828h-14.203v-354.47h14.203c7.641,0,13.828-6.188,13.828-13.828v-39.469h54.375c7.641,0,13.828-6.188,13.828-13.828v-68.109c0-.281-.047-.516-.094-.797,0-.281-.047-.562-.094-.844-.141-1.359-.469-2.672-.984-3.844,0-.047-.047-.094-.094-.141-.562-1.219-1.312-2.344-2.156-3.328-.141-.141-.234-.328-.375-.469-.938-.984-2.016-1.828-3.188-2.484-.094-.047-.188-.141-.281-.188l-331.64-180.19C630.654,61.266,566.155,0,487.499,0s-143.21,61.266-148.64,138.61L7.219,318.85c-.094.047-.141.141-.281.188-1.172.703-2.25,1.5-3.188,2.531-.141.141-.234.281-.375.422-.891,1.031-1.641,2.109-2.156,3.375,0,.047-.047.094-.047.141-.516,1.219-.844,2.531-.984,3.844-.047.281-.047.562-.094.844,0,.281-.094.516-.094.797v68.109c0,7.641,6.188,13.828,13.828,13.828h54.375v39.469c0,7.641,6.188,13.828,13.828,13.828h14.203v354.47h-14.203c-7.641,0-13.828,6.188-13.828,13.828v39.469H13.828c-7.641,0-13.828,6.188-13.828,13.828v73.5c0,7.641,6.188,13.828,13.828,13.828l-.002-.097ZM879.186,873.941h-150.71v-25.641h150.71v25.641ZM625.316,873.941v-221.9c0-75.984-61.828-137.81-137.81-137.81s-137.81,61.828-137.81,137.81v221.9h-75.562v-39.469c0-7.641-6.188-13.828-13.828-13.828h-14.203v-354.47h14.203c7.641,0,13.828-6.188,13.828-13.828v-39.469h426.71v39.469c0,7.641,6.188,13.828,13.828,13.828h14.203v354.47h-14.203c-7.641,0-13.828,6.188-13.828,13.828v39.469h-75.562.034ZM377.346,873.941v-221.9c0-56.062,42.141-102.38,96.375-109.22v331.13l-96.375-.01ZM501.326,542.811c54.234,6.844,96.375,53.156,96.375,109.22v221.9h-96.375v-331.12ZM851.146,820.631h-94.641v-354.47h94.641v354.47ZM879.177,438.551h-150.71v-25.641h150.71v25.641ZM340.817,175.811c.281,1.641.562,3.281.891,4.922.703,3.188,1.547,6.328,2.438,9.422.422,1.453.75,2.906,1.219,4.312,1.078,3.422,2.344,6.703,3.656,10.031.422,1.031.75,2.109,1.219,3.188,3.703,8.625,8.156,16.828,13.312,24.516.75,1.125,1.594,2.156,2.344,3.234,1.875,2.625,3.797,5.25,5.812,7.781,1.172,1.406,2.391,2.766,3.609,4.125,1.828,2.062,3.609,4.125,5.531,6.094,1.406,1.453,2.906,2.812,4.406,4.219,1.828,1.734,3.703,3.469,5.625,5.109,1.641,1.406,3.328,2.719,5.016,4.031,1.875,1.5,3.797,2.953,5.766,4.312,1.828,1.312,3.703,2.531,5.578,3.75,1.969,1.266,3.938,2.484,5.953,3.609,2.016,1.172,4.031,2.25,6.094,3.328,2.016,1.031,4.078,2.016,6.141,2.953,2.156.984,4.312,1.969,6.516,2.859,2.062.844,4.172,1.594,6.328,2.297,2.297.797,4.594,1.641,6.938,2.297,2.109.609,4.266,1.125,6.422,1.641,2.438.609,4.828,1.266,7.312,1.734,2.109.422,4.312.656,6.469.984,2.578.375,5.109.844,7.734,1.078,2.016.188,4.078.188,6.094.328,2.719.141,5.391.422,8.156.422s5.438-.281,8.156-.422c2.016-.094,4.078-.141,6.094-.328,2.625-.234,5.156-.703,7.734-1.078,2.156-.328,4.359-.562,6.469-.984,2.484-.469,4.875-1.125,7.312-1.734,2.156-.516,4.359-1.031,6.469-1.688,2.344-.703,4.594-1.5,6.891-2.297,2.156-.75,4.266-1.5,6.375-2.344,2.203-.891,4.359-1.828,6.469-2.812s4.172-1.922,6.234-3c2.016-1.031,4.031-2.156,6-3.281,2.062-1.172,4.078-2.391,6.047-3.703,1.875-1.172,3.703-2.391,5.484-3.656,2.016-1.406,3.938-2.906,5.906-4.406,1.641-1.312,3.328-2.578,4.922-3.938,1.969-1.688,3.891-3.469,5.766-5.25,1.406-1.359,2.859-2.672,4.219-4.078,1.969-2.016,3.844-4.172,5.719-6.281,1.125-1.312,2.297-2.531,3.422-3.891,2.156-2.625,4.172-5.391,6.141-8.203.656-.938,1.406-1.828,2.062-2.812,5.203-7.734,9.703-15.984,13.406-24.656.375-.891.656-1.828,1.031-2.719,1.406-3.422,2.719-6.938,3.844-10.5.422-1.312.75-2.672,1.125-4.031.938-3.188,1.781-6.422,2.531-9.75.328-1.547.562-3.141.844-4.688.375-2.109.891-4.172,1.172-6.328l271.5,147.52-838.55.094,271.5-147.52c.281,2.109.75,4.125,1.125,6.188h.004ZM487.497,27.631c67.031,0,121.55,54.516,121.55,121.55,0,33.516-13.641,63.891-35.625,85.922-22.031,21.984-52.406,35.625-85.922,35.625-66.844,0-121.26-54.234-121.55-121.6.047-66.984,54.562-121.45,121.55-121.45l-.003-.047ZM27.607,344.791h919.74v40.453H27.607v-40.453ZM95.81,412.853h150.71v25.641H95.81v-25.641ZM123.841,466.15h94.641v354.47h-94.641v-354.47ZM95.81,848.23h150.71v25.641H95.81v-25.641ZM27.607,901.527h919.74v45.844l-919.74.047v-45.891ZM519.047,179.837c0-9.141-6-16.828-13.125-16.828h-36.797c-22.5,0-40.781-19.922-40.781-44.438s18.281-44.438,40.781-44.438h4.594v-21.75c0-7.641,6.188-13.828,13.828-13.828s13.828,6.188,13.828,13.828v21.75h4.594c22.453,0,40.734,19.922,40.734,44.438,0,7.641-6.188,13.828-13.828,13.828s-13.828-6.188-13.828-13.828c0-9.141-6-16.828-13.125-16.828h-36.797c-7.125,0-13.125,7.688-13.125,16.828s6,16.828,13.125,16.828h36.797c22.453,0,40.734,19.922,40.734,44.438s-18.281,44.438-40.734,44.438h-4.594v21.75c0,7.641-6.188,13.828-13.828,13.828s-13.828-6.188-13.828-13.828v-21.75h-4.594c-22.5,0-40.781-19.922-40.781-44.438,0-7.641,6.188-13.828,13.828-13.828s13.828,6.188,13.828,13.828c0,9.141,6,16.828,13.125,16.828h36.797c7.125,0,13.125-7.688,13.125-16.828h.047Z"/>
</svg>