<?xml version="1.0" encoding="UTF-8"?>
<svg id="Layer_1" data-name="Layer 1" xmlns="http://www.w3.org/2000/svg" viewBox="0 0 2322.391 1181.938">
  <defs>
    <style>
      .cls-1, .cls-2 {
        fill: #fff;
      }

      .cls-2, .cls-3 {
        fill-rule: evenodd;
      }
    </style>
  </defs>
  <path d="M2313.769,346.266h-64.698c1.888-3.469,3.304-7.312,3.99-11.438,1.974-11.203-.686-22.547-7.208-31.219-3.561-4.734-8.066-8.344-13.086-10.688,1.373-1.312,2.703-2.672,3.99-4.125,11.412-12.844,17.418-29.766,16.947-47.719-.987-35.062-28.874-63.609-62.21-63.609h-202.805c-16.989,0-31.577,12.703-34.623,30.188-1.973,11.156.686,22.547,7.208,31.219,3.604,4.734,8.109,8.391,13.129,10.688-12.828,12.047-20.98,29.906-20.98,49.781,0,18.375,6.95,34.969,18.105,46.875h-103.91c-4.762,0-8.581,4.219-8.581,9.375v57.141c0,5.156,3.818,9.375,8.581,9.375h446.193c4.762,0,8.581-4.219,8.581-9.375v-57.141c0-5.156-3.818-9.375-8.581-9.375l-.042.047ZM1970.543,299.391c0-25.828,19.264-46.875,42.903-46.875h174.834c4.762,0,8.581-4.219,8.581-9.375s-3.818-9.375-8.581-9.375h-200.572c-5.148,0-9.954-2.484-13.257-6.797-3.304-4.406-4.591-9.984-3.604-15.75,1.502-8.531,9.138-14.953,17.762-14.953h202.805c24.155,0,44.362,20.391,45.049,45.422.343,12.797-3.947,24.891-12.099,34.078-8.152,9.187-19.092,14.25-30.804,14.25h-171.613c-4.762,0-8.581,4.219-8.581,9.375s3.818,9.375,8.581,9.375h197.359c5.148,0,9.954,2.484,13.257,6.797,3.346,4.406,4.591,9.984,3.604,15.75-1.502,8.531-9.138,14.953-17.762,14.953h-204.992c-23.64,0-42.903-21.047-42.903-46.875h.033ZM2305.193,403.411h-429.022v-38.391h429.022v38.391Z"/>
  <path d="M2314.083,579.696h-63.662v-48.375c0-10.125-4.627-19.078-11.609-24.234.95-2.625,1.487-5.438,1.487-8.438v-20.812c0-12.375-8.841-22.406-19.747-22.406h-70.81c-10.907,0-19.747,10.031-19.747,22.406v20.812c0,3,.537,5.812,1.487,8.438-6.982,5.203-11.609,14.109-11.609,24.234v48.375h-34.703v-48.375c0-10.125-4.627-19.078-11.609-24.234.95-2.625,1.487-5.438,1.487-8.438v-20.812c0-12.375-8.841-22.406-19.747-22.406h-70.81c-10.907,0-19.747,10.031-19.747,22.406v20.812c0,3,.537,5.812,1.487,8.438-6.982,5.203-11.609,14.109-11.609,24.234v48.375h-70.19c-4.586,0-8.263,4.219-8.263,9.375v57.141c0,5.156,3.677,9.375,8.263,9.375h429.65c4.586,0,8.263-4.219,8.263-9.375v-57.141c0-5.156-3.677-9.375-8.263-9.375ZM2146.559,477.836c0-2.016,1.446-3.656,3.222-3.656h70.81c1.776,0,3.222,1.641,3.222,3.656v20.812c0,2.016-1.446,3.656-3.222,3.656h-70.81c-1.776,0-3.222-1.641-3.222-3.656v-20.812ZM2136.396,531.32c0-5.672,4.049-10.266,9.048-10.266h79.362c4.999,0,9.048,4.594,9.048,10.266v48.375h-97.493v-48.375h.036ZM1981.308,477.836c0-2.016,1.446-3.656,3.222-3.656h70.81c1.776,0,3.222,1.641,3.222,3.656v20.812c0,2.016-1.446,3.656-3.222,3.656h-70.81c-1.776,0-3.222-1.641-3.222-3.656v-20.812ZM1971.145,531.32c0-5.672,4.049-10.266,9.048-10.266h79.361c4.999,0,9.048,4.594,9.048,10.266v48.375h-97.493v-48.375h.036ZM2305.823,636.88h-413.116v-38.391h413.116v38.391Z"/>
  <path d="M2312.97,84.456h-922.69v-38.391h922.69c5.203,0,9.375-4.219,9.375-9.375s-4.172-9.375-9.375-9.375h-922.69v-9.422c0-5.156-4.219-9.375-9.375-9.375s-9.375,4.219-9.375,9.375v9.422h-52.312v-9.422c0-5.156-4.219-9.375-9.375-9.375s-9.375,4.219-9.375,9.375v9.422h-52.312v-9.422c0-5.156-4.219-9.375-9.375-9.375s-9.375,4.219-9.375,9.375v9.422h-69.562c-5.156,0-9.375,4.219-9.375,9.375s4.219,9.375,9.375,9.375h69.562v38.391h-69.562c-5.156,0-9.375,4.219-9.375,9.375s4.219,9.375,9.375,9.375h69.562v36.609h-26.156c-5.156,0-9.375,4.219-9.375,9.375v146.02c0,5.156,4.219,9.375,9.375,9.375s9.375-4.219,9.375-9.375v-136.64h52.312v900h-52.312V388.96c0-5.156-4.219-9.375-9.375-9.375s-9.375,4.219-9.375,9.375v678.98c0,5.156,4.219,9.375,9.375,9.375h213.19c5.156,0,9.375-4.219,9.375-9.375v-61.172l.047.094c13.922,35.344,44.016,60.281,80.016,67.969-.938,1.547-1.734,3.188-2.391,4.922-4.875,12.75-19.922,36.562-34.219,36.562-18.094,0-32.812,14.719-32.812,32.812s14.719,32.812,32.812,32.812c44.016,0,71.484-34.125,85.219-57.703h22.594c18.094,0,32.812-14.719,32.812-32.812,0-5.062-1.266-9.797-3.281-14.062h348.74c-2.062,4.266-3.281,9-3.281,14.062,0,18.094,14.719,32.812,32.812,32.812h22.594c13.734,23.578,41.203,57.703,85.219,57.703,18.094,0,32.812-14.719,32.812-32.812s-14.719-32.812-32.812-32.812c-14.297,0-29.344-23.812-34.219-36.562-.469-1.266-1.078-2.438-1.688-3.562,37.828-5.531,70.547-30.234,85.969-66.094l64.031-149.02c17.578-3.094,31.031-18.375,31.031-36.844,0-20.672-16.828-37.5-37.5-37.5h-431.06c-23.531,0-53.812-10.547-87.562-30.469-77.578-45.844-165.89-73.359-255.84-80.156l-.047-526.92c0-5.156-4.219-9.375-9.375-9.375h-26.156v-36.609h922.69c5.203,0,9.375-4.219,9.375-9.375s-4.172-9.375-9.375-9.375v.003ZM1371.53,46.065v38.391h-52.312v-38.391h52.312ZM1248.16,46.065h52.312v38.391h-52.312v-38.391ZM1248.16,139.815v-36.609h52.312v36.609h-52.312ZM1283.691,158.565h52.312v900h-52.312V158.565ZM1591.091,1091.375c0,7.734-6.328,14.062-14.062,14.062h-28.078c-3.469,0-6.609,1.875-8.25,4.922-10.641,19.688-34.031,52.781-71.484,52.781-7.734,0-14.062-6.328-14.062-14.062s6.328-14.062,14.062-14.062c32.766,0,51.562-48.094,51.75-48.562,2.109-5.438,7.406-9.094,13.172-9.094h42.891c7.734,0,14.062,6.328,14.062,14.062v-.047ZM2092.651,1134.969c7.734,0,14.062,6.328,14.062,14.062s-6.328,14.062-14.062,14.062c-37.453,0-60.844-33.047-71.484-52.781-1.641-3.047-4.781-4.922-8.25-4.922h-28.078c-7.734,0-14.062-6.328-14.062-14.062s6.328-14.062,14.062-14.062h42.891c5.766,0,11.062,3.656,13.172,9.094.188.469,18.984,48.609,51.75,48.609h0ZM1672.131,772.339c36.609,21.656,70.219,33.094,97.078,33.094h431.06c10.359,0,18.75,8.391,18.75,18.75s-8.391,18.75-18.75,18.75h-173.26c-5.203,0-9.375,4.219-9.375,9.375s4.172,9.375,9.375,9.375h159l-60.562,140.95c-14.578,33.984-47.906,55.922-84.891,55.922h-511.31c-38.25,0-72-22.969-85.969-58.547-5.391-13.734-11.344-28.828-17.484-44.297v-204.42c76.547,6.656,151.69,30.469,217.69,69.469,45.938,27.141,88.219,40.922,125.72,40.922h220.31c5.203,0,9.375-4.219,9.375-9.375s-4.172-9.375-9.375-9.375h-220.31c-34.078,0-73.172-12.891-116.16-38.297-68.906-40.688-147.32-65.484-227.26-72.188v-37.594c86.625,6.75,171.61,33.375,246.32,77.484l.028.002ZM1407.051,1058.559h-52.312V158.559h52.312v900ZM1371.52,139.819h-52.312v-36.609h52.312v36.609Z"/>
  <path d="M1203.215,361.036c5.156,0,9.375-4.219,9.375-9.375v-18.75c0-5.156-4.219-9.375-9.375-9.375s-9.375,4.219-9.375,9.375v18.75c0,5.156,4.219,9.375,9.375,9.375Z"/>
  <path d="M621.246,412.495h431.26c5.156,0,9.375-4.219,9.375-9.375v-135.94c0-5.156-4.219-9.375-9.375-9.375s-9.375,4.219-9.375,9.375v126.56h-412.5v-168.74c0-113.72,92.531-206.26,206.26-206.26s206.26,92.531,206.26,206.26v4.688c0,5.156,4.219,9.375,9.375,9.375s9.375-4.219,9.375-9.375v-4.688c0-124.08-100.92-225-225-225s-225,100.92-225,225v178.13c0,5.156,4.219,9.375,9.375,9.375l-.03-.01Z"/>
  <path d="M836.876,46.873c-98.203,0-178.13,79.922-178.13,178.13v131.26c0,5.156,4.219,9.375,9.375,9.375h337.5c5.156,0,9.375-4.219,9.375-9.375v-131.26c0-98.203-79.922-178.13-178.13-178.13h.01ZM996.246,346.873h-318.74v-121.87c0-87.891,71.484-159.37,159.37-159.37s159.37,71.484,159.37,159.37v121.87Z"/>
  <path d="M1164.996,806.245h-195.71c39.703-30.281,68.016-73.219,79.875-121.87h3.328c20.672,0,37.5-16.828,37.5-37.5s-16.828-37.5-37.5-37.5h-23.391v-37.5c0-5.156-4.219-9.375-9.375-9.375h-28.125v-75c0-5.156-4.219-9.375-9.375-9.375h-23.438v-18.75h.562c5.156,0,9.375-4.219,9.375-9.375s-4.219-9.375-9.375-9.375h-42.75c-5.156,0-9.375,4.219-9.375,9.375s4.219,9.375,9.375,9.375h23.438v18.75h-23.438c-5.156,0-9.375,4.219-9.375,9.375v75h-27.562c-5.156,0-9.375,4.219-9.375,9.375v37.5h-24.047v-71.812c0-40.078-32.578-72.656-72.656-72.656s-72.656,32.578-72.656,72.656c0,5.156,4.219,9.375,9.375,9.375s9.375-4.219,9.375-9.375c0-29.719,24.188-53.906,53.906-53.906s53.906,24.188,53.906,53.906v71.812h-206.26c-20.672,0-37.5,16.828-37.5,37.5s16.828,37.5,37.5,37.5h3.422c11.859,48.656,40.172,91.594,79.875,121.87h-195.79c-5.156,0-9.375,4.219-9.375,9.375v346.87c0,5.156,4.219,9.375,9.375,9.375h656.26c5.156,0,9.375-4.219,9.375-9.375v-201.56c0-5.156-4.219-9.375-9.375-9.375s-9.375,4.219-9.375,9.375v192.19h-309.94v-328.13h309.94v42.188c0,5.156,4.219,9.375,9.375,9.375s9.375-4.219,9.375-9.375v-51.562c0-5.156-4.219-9.375-9.375-9.375v.004ZM925.976,496.875h46.875v65.625h-46.875v-65.625ZM889.038,581.25h121.31v28.125h-121.31v-28.125ZM602.488,646.875c0-10.359,8.391-18.75,18.75-18.75h431.26c10.359,0,18.75,8.391,18.75,18.75s-8.391,18.75-18.75,18.75h-431.26c-10.359,0-18.75-8.391-18.75-18.75ZM643.926,684.375h385.92c-13.781,51.281-47.672,95.25-94.359,121.87h-197.21c-46.734-26.625-80.625-70.594-94.359-121.87h.008ZM826.926,1153.115h-308.81v-328.13h308.81v328.13Z"/>
  <path d="M1164.996,895.305c-5.156,0-9.375,4.219-9.375,9.375v18.75c0,5.156,4.219,9.375,9.375,9.375s9.375-4.219,9.375-9.375v-18.75c0-5.156-4.219-9.375-9.375-9.375Z"/>
  <path d="M770.686,1051.835c5.156,0,9.375-4.219,9.375-9.375v-104.95c0-5.156-4.219-9.375-9.375-9.375s-9.375,4.219-9.375,9.375v104.95c0,5.156,4.219,9.375,9.375,9.375Z"/>
  <path d="M893.686,937.495v104.95c0,5.156,4.219,9.375,9.375,9.375s9.375-4.219,9.375-9.375v-104.95c0-5.156-4.219-9.375-9.375-9.375s-9.375,4.219-9.375,9.375Z"/>
  <path d="M953.32,328.134h-12.651v-18.939c0-5.269-2.72-9.883-6.799-12.578.558-1.36.874-2.817.874-4.371v-10.781c0-6.41-5.196-11.606-11.606-11.606h-22.194c-6.41,0-11.606,5.196-11.606,11.606v10.781c0,1.554.316,3.011.874,4.371-4.104,2.695-6.848,7.309-6.848,12.578v18.939h-21.004l8.353-62.503c.194-1.384-.243-2.792-1.166-3.836-.923-1.044-2.258-1.651-3.642-1.651h-5.536l-1.263-24.525c-.121-2.574-2.258-4.613-4.856-4.613h-2.914v-14.569c0-2.671-2.185-4.856-4.856-4.856h-19.425c-2.671,0-4.856,2.185-4.856,4.856v14.569h-2.914c-2.598,0-4.711,2.04-4.856,4.613l-1.238,24.525h-11.437l-1.093-5.536c-.826-4.201-2.647-8.232-5.294-11.606-1.7-2.185-2.89-4.783-3.424-7.527l-.243-1.214,6.848-1.36c2.622-.51,4.346-3.059,3.836-5.706-.51-2.622-3.059-4.346-5.706-3.836l-6.848,1.36-1.214-6.192,6.848-1.36c2.622-.51,4.346-3.059,3.836-5.706-.51-2.622-3.059-4.346-5.706-3.836l-6.848,1.36-1.263-6.41,6.848-1.36c2.622-.51,4.346-3.059,3.836-5.706-.51-2.622-3.059-4.371-5.706-3.836l-11.631,2.282c-1.263.243-2.38.996-3.084,2.064s-.971,2.38-.728,3.642l7.406,37.636c.826,4.201,2.647,8.232,5.294,11.606,1.7,2.185,2.89,4.783,3.424,7.527l.728,3.642h-8.547c-1.408,0-2.72.607-3.642,1.651s-1.335,2.452-1.166,3.836l8.353,62.503h-18.09c-2.671,0-4.856,2.185-4.856,4.856v29.138c0,2.671,2.185,4.856,4.856,4.856h184.545c2.671,0,4.856-2.185,4.856-4.856v-29.138c0-2.671-2.185-4.856-4.856-4.856l-.004.074ZM899.048,281.464c0-1.044.85-1.894,1.894-1.894h22.194c1.044,0,1.894.85,1.894,1.894v10.781c0,1.044-.85,1.894-1.894,1.894h-22.194c-1.044,0-1.894-.85-1.894-1.894v-10.781ZM893.075,309.194c0-2.938,2.404-5.342,5.342-5.342h27.244c2.914,0,5.294,2.404,5.294,5.342v18.939h-37.879v-18.939ZM831.888,221.293h9.713v9.713h-9.713v-9.713ZM823.875,240.718h25.739l.996,19.425h-27.705l.971-19.425ZM788.861,269.856h71.459l-7.77,58.276h-55.898l-7.791-58.276ZM948.464,357.265h-174.828v-19.425h174.828v19.425Z"/>
  <path d="M446.36,401.098c-5.156,0-9.375,4.219-9.375,9.375v18.75c0,5.156,4.219,9.375,9.375,9.375s9.375-4.219,9.375-9.375v-18.75c0-5.156-4.219-9.375-9.375-9.375Z"/>
  <path d="M232.22,319.958c-5.156,0-9.375,4.219-9.375,9.375s4.219,9.375,9.375,9.375h34.875c5.156,0,9.375-4.219,9.375-9.375s-4.219-9.375-9.375-9.375h-34.875Z"/>
  <path d="M499.36,685.678c0-22.172-18.047-40.219-40.219-40.219h-3.328v-178.78c0-5.156-4.219-9.375-9.375-9.375s-9.375,4.219-9.375,9.375v178.78H62.253v-353.29h374.81v80.766c0,5.156,4.219,9.375,9.375,9.375s9.375-4.219,9.375-9.375v-89.953c0-.047.047-.141.047-.188s-.047-.141-.047-.188v-21.797c0-35.766-29.109-64.875-64.875-64.875h-85.547c-2.672-21.797-21.094-38.766-43.594-38.766h-24.234c-22.5,0-40.922,17.016-43.594,38.766h-85.547c-35.812,0-64.969,29.109-64.969,64.875v384.66h-3.234c-22.172,0-40.219,18.047-40.219,40.547,0,18.984,13.266,34.828,30.984,39.047v7.359c0,71.578,34.594,135.24,87.938,175.18l-39.375,185.76h-4.734c-22.266,0-40.359,18.094-40.359,40.359s18.094,40.359,40.359,40.359h349.64c22.266,0,40.359-18.094,40.359-40.359s-18.094-40.359-40.359-40.359h-4.734l-39.328-185.68c8.344-6.234,16.312-13.125,23.812-20.625,41.297-41.297,64.078-96.188,64.078-154.55v-7.359c17.719-4.219,30.984-20.109,30.984-39.375l.096-.096ZM237.57,175.958h24.234c12.141,0,22.312,8.625,24.797,20.016h-73.781c2.438-11.438,12.609-20.016,24.797-20.016h-.047ZM108.47,214.724h282.47c25.453,0,46.125,20.672,46.125,46.125v12.609H62.255v-12.609c0-25.453,20.719-46.125,46.219-46.125h-.004ZM446.161,1133.704c0,11.906-9.703,21.609-21.609,21.609H74.911c-11.906,0-21.609-9.703-21.609-21.609s9.703-21.609,21.609-21.609h11.953c.141,0,.234.047.375.047.094,0,.141-.047.234-.047h324.61c.094,0,.141.047.234.047s.234-.047.375-.047h11.953c11.906,0,21.609,9.703,21.609,21.609h-.095ZM400.645,1093.298H98.775l36.938-174.37c33.188,20.344,72.234,32.109,113.95,32.109,40.922,0,80.062-11.203,114.05-32.062l36.932,174.323ZM391.082,873.738c-37.781,37.781-87.984,58.547-141.42,58.547-110.2,0-199.87-89.672-199.87-199.87v-6.188h399.84v6.188c0,53.344-20.812,103.55-58.547,141.32l-.003.003ZM459.144,707.478H40.274c-11.859,0-21.469-9.609-21.469-21.797,0-11.812,9.609-21.469,21.469-21.469h418.78c11.859,0,21.469,9.609,21.469,21.797,0,11.812-9.609,21.469-21.469,21.469h.09Z"/>
  <path class="cls-3" d="M1573.959,383.051c2.129-6.429,9.059-9.936,15.488-7.806s9.936,9.059,7.807,15.488l-9.101,27.511c-2.129,6.429-9.059,9.936-15.488,7.806s-9.936-9.059-7.807-15.488l9.101-27.511Z"/>
  <path class="cls-3" d="M1472.762,690.68V227.301c0-23.378,9.56-44.626,25.006-60.073,15.446-15.446,36.695-25.006,60.073-25.006,23.378,0,44.626,9.56,60.073,25.006,12.858,12.857,21.667,29.806,24.213,48.634-23.044,2.964-43.708,13.609-59.363,29.264-17.325,17.366-28.554,40.912-29.932,66.919-.083.584-.125,1.252-.125,1.879,0,.292,0,.626.042.918-.042.918-.042,1.795-.042,2.672v33.439c0,6.804,5.51,12.273,12.273,12.273h180.432c6.804,0,12.273-5.51,12.273-12.273v-33.439c0-.918,0-1.795-.042-2.672l-.014.004c.042-.292.042-.584-.042-.877,0-.626-.042-1.252-.125-1.879-1.378-26.05-12.565-49.553-29.932-66.919-15.989-15.989-37.154-26.718-60.74-29.431-2.714-25.549-14.278-48.551-31.56-65.834-19.829-19.872-47.256-32.187-77.397-32.187-30.141,0-57.526,12.316-77.397,32.187-19.872,19.829-32.187,47.256-32.187,77.397v463.379"/>
  <path class="cls-2" d="M1578.928,301.651c3.13-15.112,10.687-28.638,21.248-39.2,14.11-14.152,33.605-22.918,55.021-22.918,21.416,0,40.911,8.766,55.021,22.918,10.561,10.562,18.118,24.088,21.29,39.2h-152.581Z"/>
  <rect class="cls-1" x="1577.251" y="326.218" width="155.879" height="12.441"/>
  <path class="cls-3" d="M1645.091,574.336c0-6.804,5.51-12.273,12.273-12.273,6.804,0,12.273,5.51,12.273,12.273v28.972c0,6.804-5.51,12.273-12.273,12.273-6.804,0-12.273-5.51-12.273-12.273v-28.972Z"/>
  <path class="cls-3" d="M1644.339,514.514c0-6.763,5.51-12.273,12.273-12.273,6.804,0,12.273,5.51,12.273,12.273v29.013c0,6.804-5.51,12.273-12.273,12.273-6.804,0-12.273-5.51-12.273-12.273v-29.013Z"/>
  <path class="cls-3" d="M1643.588,454.775c0-6.804,5.51-12.273,12.273-12.273,6.804,0,12.273,5.51,12.273,12.273v29.013c0,6.804-5.51,12.273-12.273,12.273-6.804,0-12.273-5.51-12.273-12.273v-29.013Z"/>
  <path class="cls-3" d="M1642.795,395.036c0-6.804,5.51-12.273,12.273-12.273,6.804,0,12.273,5.51,12.273,12.273l.042,29.013c0,6.804-5.51,12.273-12.273,12.273-6.804,0-12.273-5.51-12.273-12.273l-.042-29.013Z"/>
  <path class="cls-3" d="M1707.209,571.872c-1.085-6.679,3.465-12.941,10.145-13.985,6.679-1.085,12.941,3.465,13.985,10.145l4.592,28.638c1.085,6.679-3.465,12.941-10.145,13.985-6.679,1.085-12.941-3.465-13.985-10.145l-4.592-28.638Z"/>
  <path class="cls-3" d="M1696.94,513.01c-1.085-6.679,3.465-12.941,10.145-13.985,6.679-1.085,12.941,3.465,13.985,10.145l4.634,28.638c1.085,6.679-3.465,12.941-10.145,13.985-6.679,1.085-12.941-3.465-13.985-10.145l-4.634-28.638Z"/>
  <path class="cls-3" d="M1686.713,454.148c-1.085-6.679,3.465-12.941,10.145-13.985,6.679-1.085,12.941,3.465,13.985,10.145l4.592,28.638c1.085,6.679-3.465,12.941-10.145,13.985-6.679,1.085-12.941-3.465-13.985-10.145l-4.592-28.638Z"/>
  <path class="cls-3" d="M1676.485,395.286c-1.085-6.679,3.465-12.941,10.145-13.985,6.679-1.085,12.941,3.465,13.985,10.145l4.592,28.638c1.085,6.679-3.465,12.941-10.145,13.985-6.679,1.085-12.941-3.465-13.985-10.145l-4.592-28.638Z"/>
  <path class="cls-3" d="M1771.205,560.182c-2.129-6.429,1.377-13.359,7.807-15.488s13.359,1.378,15.488,7.807l9.101,27.511c2.129,6.429-1.377,13.359-7.807,15.488-6.429,2.129-13.359-1.378-15.488-7.807l-9.101-27.511Z"/>
  <path class="cls-3" d="M1751.751,503.699c-2.129-6.429,1.377-13.359,7.807-15.488s13.359,1.378,15.488,7.806l9.101,27.511c2.129,6.429-1.377,13.359-7.807,15.488s-13.359-1.378-15.488-7.807l-9.101-27.511Z"/>
  <path class="cls-3" d="M1732.255,447.217c-2.129-6.429,1.377-13.359,7.807-15.488s13.359,1.378,15.488,7.806l9.101,27.511c2.129,6.429-1.377,13.359-7.807,15.488s-13.359-1.378-15.488-7.806l-9.101-27.511Z"/>
  <path class="cls-3" d="M1712.802,390.734c-2.129-6.429,1.377-13.359,7.807-15.488s13.359,1.378,15.488,7.806l9.101,27.511c2.129,6.429-1.377,13.359-7.807,15.488-6.429,2.129-13.359-1.378-15.488-7.806l-9.101-27.511Z"/>
  <path class="cls-3" d="M1578.675,568.027c1.044-6.638,7.305-11.188,13.985-10.145,6.68,1.044,11.188,7.305,10.145,13.985l-4.592,28.638c-1.044,6.68-7.305,11.188-13.985,10.145-6.638-1.044-11.188-7.305-10.145-13.985l4.592-28.638Z"/>
  <path class="cls-3" d="M1588.987,509.165c1.044-6.68,7.305-11.188,13.985-10.145s11.188,7.305,10.145,13.985l-4.634,28.638c-1.044,6.68-7.305,11.188-13.985,10.145-6.638-1.044-11.188-7.305-10.145-13.985l4.634-28.638Z"/>
  <path class="cls-3" d="M1599.172,450.303c1.044-6.638,7.305-11.188,13.985-10.145s11.188,7.305,10.145,13.985l-4.592,28.638c-1.044,6.68-7.305,11.188-13.985,10.145s-11.188-7.305-10.145-13.985l4.592-28.638Z"/>
  <path class="cls-3" d="M1609.4,391.44c1.044-6.638,7.305-11.188,13.985-10.145s11.188,7.305,10.145,13.985l-4.592,28.638c-1.044,6.68-7.305,11.188-13.985,10.145s-11.188-7.305-10.145-13.985l4.592-28.638Z"/>
  <path class="cls-3" d="M1515.553,552.498c2.129-6.429,9.059-9.936,15.488-7.807s9.936,9.059,7.807,15.488l-9.101,27.511c-2.129,6.429-9.059,9.936-15.488,7.807s-9.936-9.059-7.807-15.488l9.101-27.511Z"/>
  <path class="cls-3" d="M1535.006,496.015c2.129-6.429,9.059-9.936,15.488-7.806s9.936,9.059,7.807,15.488l-9.101,27.511c-2.129,6.429-9.059,9.936-15.488,7.807s-9.936-9.059-7.807-15.488l9.101-27.511Z"/>
  <path class="cls-3" d="M1554.502,439.533c2.129-6.429,9.059-9.936,15.488-7.806s9.936,9.059,7.807,15.488l-9.101,27.511c-2.129,6.429-9.059,9.936-15.488,7.806s-9.936-9.059-7.807-15.488l9.101-27.511Z"/>
</svg>