<?xml version="1.0" encoding="UTF-8"?>
<svg id="Layer_1" data-name="Layer 1" xmlns="http://www.w3.org/2000/svg" viewBox="0 0 1079.993 533.627">
  <defs>
    <style>
      .cls-1 {
        fill-rule: evenodd;
      }
    </style>
  </defs>
  <path class="cls-1" d="M113.898,442.925h295.08v16.312c0,11.438,5.484,22.125,14.719,28.781s21.141,8.484,31.969,4.875c.234-.094.469-.141.656-.234,15.562-6.188,35.109-12.328,50.625-12.328,28.688,0,61.734,7.594,85.688,14.344.047,0,.094.047.141.047,11.531,3.141,23.906.188,32.812-7.828,3.609-3.234,6.469-7.078,8.438-11.344,52.312-8.531,167.63-26.016,231.61-25.125,27.375.375,65.062,5.953,100.45,12.562v35.953c0,19.172,15.516,34.688,34.688,34.688h44.531c19.172,0,34.688-15.516,34.688-34.688v-225.89c0-19.172-15.516-34.688-34.688-34.688h-44.531c-.75,0-1.453.047-2.156.094-.469-17.859-7.594-34.922-20.156-47.766-13.359-13.734-31.688-21.469-50.812-21.469-84.281-.562-228.28-.75-294.98-.75-1.031-1.969-2.297-3.844-3.703-5.625-6.703-8.391-16.875-13.266-27.656-13.266-32.625-.094-86.25-.094-126.42-.094-17.484,0-34.266,6.938-46.641,19.312-8.672,8.719-14.719,19.594-17.484,31.406h-57.141l1.406-.75c9.234-4.969,15.281-14.578,15.75-25.172.422-10.547-4.688-20.578-13.5-26.438-17.203-11.719-40.969-30.188-62.109-54.609-32.906-37.969-64.078-54.234-80.672-61.266-.469-.188-.938-.328-1.406-.516-11.297-3.281-23.484-1.5-33.328,4.922-15.047,9.797-43.078,28.078-62.953,41.203-.984.656-1.969,1.359-2.906,2.109v-46.828C113.906,14.718,99.187,0,81,0h-48.141C14.718,0,0,14.719,0,32.859v467.9c0,18.141,14.719,32.859,32.859,32.859h48.141c18.188,0,32.906-14.719,32.906-32.859l-.008-57.834ZM1007.188,471.191l-15.422-3.188v30.938c0,4.969,4.031,9,9,9h44.531c4.969,0,9-4.031,9-9v-225.89c0-4.969-4.031-9-9-9h-44.531c-.984,0-1.922.188-2.812.469-.141,20.625,1.312,42.609,5.906,62.344l.094.562.141.469.141.516.141.609.047.281.188.656.188.703.141.609.141.562c4.734,17.766,25.266,52.688,43.641,82.219.141.234.281.422.375.656,7.172,13.172,6.094,29.297-2.719,41.391-7.359,10.031-18.891,15.844-31.031,15.938h-.328c-2.438-.047-4.828-.234-7.266-.703l-.234-.094-.329-.049ZM88.208,32.871v467.9c0,3.984-3.234,7.172-7.219,7.172h-48.141c-3.984,0-7.172-3.188-7.172-7.172V32.871c0-3.984,3.188-7.172,7.172-7.172h48.141c3.984,0,7.219,3.188,7.219,7.172h0ZM609.838,180.341c-.234-.516-.562-.984-.938-1.453-1.828-2.297-4.641-3.609-7.594-3.609-32.672-.047-86.25-.047-126.42-.047-10.688,0-20.906,4.219-28.453,11.766-6.469,6.469-10.5,14.859-11.531,23.859.234,1.266.281,2.531.094,3.797-.234,1.828-.328,3.703-.328,5.578v239.02c0,3.141,1.5,6.094,4.078,7.922,2.438,1.781,5.578,2.344,8.531,1.453,18.375-7.266,41.438-13.969,59.672-13.969,30.984,0,66.703,7.969,92.625,15.281,3.141.844,6.469.047,8.859-2.156.75-.656,1.406-1.453,1.922-2.344-.141-1.5,0-3,.422-4.5.422-1.594.516-3.234.234-4.875v-.094c-5.391-36.188-12.562-92.203-14.109-147.05v-.984l-.047-1.594-.094-3.281-.047-1.594v-1.641l-.047-1.594v-3.234l-.047-.984v-11.859l.047-1.266v-3.234l.047-.234v-1.406l.047-1.594v-1.641l.094-1.688v-1.594l.047-1.547c.047-.516.047-1.031.094-1.594v-.984l.094-1.031v-.656l.047-.797.047-.75.047-.797.094-.797.047-.797.047-.516.047-.281c.047-.703.094-1.406.188-2.109l.094-.891.094-1.125.141-1.125.141-1.172.141-1.125.141-1.172.094-.609c2.438-19.031,7.406-42.047,11.766-60.281.328-1.688.281-3.422-.094-5.062-.328-1.266-.422-2.625-.328-3.938h-.003ZM635.291,195.107l-.047.234c-4.266,17.812-9.281,40.641-11.484,58.969l-.281,2.062v.234c-.141,1.359-.281,2.672-.422,3.984l-.047.516v.516l-.188,2.062v.469l-.047.516-.047.469v.75l-.047.469v.938l-.094,1.5-.094,3.094v1.547l-.047.656v1.547l-.047.844v.75l-.047.797v3.094l-.047.797v12.516l.047,1.594v1.547l.047,1.594v1.547l.047,1.594.047,1.547v1.594l.188,6.375.047.656v.938l.047.609.047.984v.609l.047.984.047.609v1.031l.047.562.047,1.031v.516l.047,1.125.047.469.047,1.172v.422l.094,1.547.047,1.594.094,1.547c2.344,45.562,8.062,90.094,12.609,120.98,55.734-8.953,167.16-25.312,229.97-24.469,31.172.422,75.281,7.266,114.98,14.953.141,0,.281,0,.422.047,6.094,1.172,12.094,2.391,17.953,3.562,4.641.938,9.141,1.922,13.5,2.812.797.141,1.547.188,2.297.188h.234c4.031-.094,7.828-2.016,10.266-5.344,2.953-3.984,3.328-9.281,1.078-13.688-19.828-31.828-41.297-69.656-46.406-88.781l-.188-.703-.422-1.688-.141-.516c-6.141-24.562-7.734-52.547-7.219-78.094,0-.141.047-.234.047-.375.094-5.438.328-10.734.609-15.891.234-12.141-4.406-23.906-12.891-32.625-8.531-8.766-20.297-13.688-32.531-13.688h-.047c-83.062-.562-224.06-.703-291.98-.75l-.236.943ZM368.051,368.217h40.922v49.031H113.893v-49.031h254.158ZM224.711,225.907h-46.219c-35.672,0-64.594,28.922-64.594,64.594v52.031h295.08v-116.62h-102.94c-1.5.797-2.906,1.547-4.219,2.25l-1.266.703c-11.906,6.375-25.547,8.625-38.859,6.422-.797-.094-1.594-.234-2.344-.375h-.094c-12.094-2.203-23.344-5.203-33.938-8.812l-.608-.193ZM113.901,142.61v84.797c15.328-15.703,36.422-25.875,59.812-27.094-23.203-15.844-42.422-35.625-59.812-57.703ZM295.871,202.188c13.828-7.453,32.062-17.25,46.828-25.312h.094c1.359-.75,2.203-2.156,2.297-3.703.047-1.5-.703-3-1.969-3.844-.094-.047-.141-.094-.234-.141-18.609-12.703-44.297-32.719-67.125-59.109-28.641-33.047-55.641-47.672-70.594-54.094-3.891-.984-8.016-.281-11.391,1.969-15,9.75-42.984,27.984-62.766,41.062q-.047.047-.094.047c-3.094,2.016-5.203,5.203-5.812,8.812-.656,3.609.188,7.359,2.391,10.312,33.047,44.109,72.375,80.109,138.1,91.734,8.25,1.078,16.688-.422,24.047-4.406l.75-.375,5.479-2.952Z"/>
</svg>