<?xml version="1.0" encoding="UTF-8"?>
<svg id="Layer_1" data-name="Layer 1" xmlns="http://www.w3.org/2000/svg" viewBox="0 0 1125.02 937.49">
  <path d="M1087.5,581.24h-37.5v-75c0-20.625-16.875-37.5-37.5-37.5h-37.5c-20.625,0-37.5,16.875-37.5,37.5v75h-37.5v-112.5c0-41.438-33.562-75-75-75H300c-41.438,0-75,33.562-75,75v112.5h-37.5v-75c0-20.625-16.875-37.5-37.5-37.5h-37.5c-20.625,0-37.5,16.875-37.5,37.5v75h-37.5c-20.625,0-37.5,16.875-37.5,37.5v187.5c0,20.625,16.875,37.5,37.5,37.5h131.26v56.25c0,20.625,16.875,37.5,37.5,37.5h37.5c20.625,0,37.5-16.875,37.5-37.5v-18.75c0-10.312,8.438-18.75,18.75-18.75h525c10.312,0,18.75,8.438,18.75,18.75v18.75c0,20.625,16.875,37.5,37.5,37.5h37.5c20.625,0,37.5-16.875,37.5-37.5v-56.25h131.26c20.625,0,37.5-16.875,37.5-37.5v-187.5c0-20.625-16.875-37.5-37.5-37.5h-.02ZM975,506.24h37.5v75h-37.5v-75ZM956.25,618.74h131.26v37.5h-187.5v-37.5h56.24ZM918.75,731.24v18.75H206.25v-18.75c0-20.625,16.875-37.5,37.5-37.5h637.5c20.625,0,37.5,16.875,37.5,37.5ZM506.25,656.24h-168.74v-18.75c0-10.312,8.438-18.75,18.75-18.75h131.26c10.312,0,18.75,8.438,18.75,18.75l-.02,18.75ZM787.51,656.24h-168.74v-18.75c0-10.312,8.438-18.75,18.75-18.75h131.26c10.312,0,18.75,8.438,18.75,18.75l-.02,18.75ZM262.51,468.74c0-20.625,16.875-37.5,37.5-37.5h525c20.625,0,37.5,16.875,37.5,37.5v187.5h-37.5v-18.75c0-30.938-25.312-56.25-56.25-56.25h-131.26c-30.938,0-56.25,25.312-56.25,56.25v18.75h-37.5v-18.75c0-30.938-25.312-56.25-56.25-56.25h-131.26c-30.938,0-56.25,25.312-56.25,56.25v18.75h-37.5l.02-187.5ZM112.51,506.24h37.5v75h-37.5v-75ZM37.51,618.74h187.5v37.5H37.51v-37.5ZM37.51,806.24v-112.5h141.74c-6.375,11.062-10.5,23.812-10.5,37.5v75H37.51ZM918.77,899.99h-37.5v-18.75c0-30.938-25.312-56.25-56.25-56.25H300.02c-30.938,0-56.25,25.312-56.25,56.25v18.75h-37.5v-112.5h712.5v112.5ZM1087.51,806.24h-131.26v-75c0-13.688-3.938-26.438-10.5-37.5h141.74l.02,112.5Z"/>
  <path d="M506.24,300h112.5c20.625,0,37.5-16.875,37.5-37.5V37.5c0-20.625-16.875-37.5-37.5-37.5h-112.5c-20.625,0-37.5,16.875-37.5,37.5v225c0,20.625,16.875,37.5,37.5,37.5ZM506.24,262.5v-122.06c17.062,8.812,33.188,18.75,48.75,28.688,20.062,12.75,40.875,25.5,63.75,35.812v57.562l-112.5-.002ZM618.74,37.5v125.81c-14.625-7.688-28.875-16.5-43.688-25.875-21.375-13.5-43.5-27.188-68.812-38.438v-61.5l112.5.003Z"/>
  <path d="M731.24,300h112.5c20.625,0,37.5-16.875,37.5-37.5V37.5c0-20.625-16.875-37.5-37.5-37.5h-112.5c-20.625,0-37.5,16.875-37.5,37.5v225c0,20.625,16.875,37.5,37.5,37.5ZM731.24,262.5v-38.062c54.188-2.625,79.5-14.625,102-25.312,3.562-1.688,6.938-3.375,10.5-4.875v68.25h-112.5ZM843.74,37.5v116.25c-9.938,3.562-18.562,7.688-26.812,11.625-20.625,9.938-40.5,19.312-85.688,21.562V37.497l112.5.003Z"/>
  <path d="M281.24,300h112.5c20.625,0,37.5-16.875,37.5-37.5V37.5c0-20.625-16.875-37.5-37.5-37.5h-112.5c-20.625,0-37.5,16.875-37.5,37.5v225c0,20.625,16.875,37.5,37.5,37.5ZM281.24,262.5v-130.87c31.312-12.375,68.812-18.938,112.5-18.938v150h-112.5v-.192ZM393.74,37.5v37.5c-42.188,0-79.875,5.625-112.5,16.5v-54h112.5Z"/>
</svg>