<?xml version="1.0" encoding="UTF-8"?>
<svg id="Layer_1" data-name="Layer 1" xmlns="http://www.w3.org/2000/svg" viewBox="0 0 974.699 975.05">
  <path d="M911.047,446.673h-41.531v-56.203c22.125-11.672,38.484-33.562,42-58.922,4.406-31.688-10.547-62.672-37.5-78.984-11.156-28.5-37.453-47.859-68.016-50.016-16.734-22.734-42.891-36.047-71.438-36.047-.984,0-2.016,0-3,.047-18.609-15.328-41.766-23.719-65.906-23.719-19.359,0-37.969,5.297-54.328,15.422-17.25-10.125-36.656-15.422-56.766-15.422-37.969,0-72.656,18.797-93.422,49.875-11.578-4.172-23.906-5.812-36.281-4.781-40.594,3.422-74.484,36.469-78.797,76.922-.938,8.859-.562,17.672,1.172,26.297-14.391,14.719-22.453,34.359-22.453,55.219v96c0,29.766,17.719,55.875,42.797,67.312v401.57c0,35.156,28.594,63.75,63.75,63.75h374.34c35.156,0,63.75-28.594,63.75-63.75v-108.28h41.531c35.156,0,63.75-28.594,63.75-63.75v-228.74c0-35.156-28.594-63.75-63.75-63.75l.098-.05ZM396.407,515.814c18.422-.141,35.719-7.172,49.031-20.062,13.922-13.5,21.609-31.641,21.609-51.047v-34.219c0-1.312.422-2.391,1.359-3.281,1.172-1.172,2.906-1.828,5.109-1.828h.047c12.844,0,25.078-4.453,34.922-12.422,23.531,10.172,52.031,7.922,73.688-5.859,11.203,5.859,23.625,8.906,36.422,8.906,18.281,0,35.625-6.188,49.641-17.531,14.438,2.297,28.781.047,41.484-6.094,21.375,17.109,51.703,22.031,77.484,12.281,15.469,11.016,34.406,16.125,53.531,14.297v473.06h-444.28v-356.29l-.048.089ZM869.517,524.814h27.141v199.92h-27.141v-199.92ZM353.617,442.361v-96c0-15.281,6.844-29.578,18.797-39.234,4.594-3.703,6.469-9.891,4.688-15.562-2.438-7.641-3.188-15.609-2.344-23.672,2.859-26.953,25.453-48.984,52.547-51.281,1.594-.141,3.188-.188,4.828-.188,9.75,0,19.312,2.484,27.938,7.312,3.422,1.922,7.453,2.344,11.203,1.172,3.75-1.125,6.844-3.75,8.625-7.266,14.391-28.406,43.031-46.031,74.719-46.031,17.484,0,34.312,5.391,48.609,15.656,5.156,3.656,12.047,3.562,17.109-.234,13.219-10.078,28.875-15.375,45.375-15.375,18.984,0,37.125,7.172,51.141,20.25,3.047,2.859,7.219,4.219,11.344,3.797,2.109-.234,4.266-.375,6.422-.375,21.188,0,40.406,10.875,51.422,29.062,2.672,4.453,7.688,7.078,12.75,6.938.609,0,1.266-.047,1.594-.141,22.266,0,41.625,14.297,48.188,35.578,1.172,3.75,3.797,6.844,7.266,8.625,19.594,9.891,30.281,30.422,27.234,52.266-3.047,21.984-21.328,39.984-43.453,42.703-15,1.828-29.344-2.719-40.453-12.891-4.5-4.125-11.109-4.969-16.453-2.109-7.312,3.844-15.188,5.812-23.484,5.812-14.156,0-27.281-5.766-36.938-16.219-4.875-5.297-12.984-6.141-18.891-1.969-10.125,7.172-22.688,9.656-35.391,6.141-4.969-1.359-10.312,0-13.969,3.656-9.516,9.375-22.078,14.578-35.438,14.578-10.359,0-20.344-3.141-28.875-9.141-5.344-3.75-12.562-3.422-17.531.75-16.219,13.641-40.781,15.422-58.828,4.266-6.188-3.844-14.25-2.438-18.797,3.234-5.25,6.516-12.891,10.266-21.141,10.266h-.234c-9.422,0-18.562,3.703-25.078,10.172-6.375,6.328-9.844,14.719-9.844,23.719v34.219c0,11.531-4.547,22.312-12.844,30.375-8.297,8.016-19.312,12.188-30.75,11.906-22.594-.656-40.969-20.719-40.969-44.672l-.093-.094ZM805.777,946.171h-374.34c-19.266,0-34.969-15.703-34.969-34.969v-10.266h444.28v10.266c0,19.266-15.703,34.969-34.969,34.969h-.002ZM946.067,739.171c0,19.266-15.703,34.969-34.969,34.969h-41.531v-20.578h41.531c7.969,0,14.391-6.469,14.391-14.391v-228.74c0-7.969-6.422-14.391-14.391-14.391h-41.531v-20.578h41.531c19.266,0,34.969,15.703,34.969,34.969v228.74ZM534.277,555.381v197.48c0,7.969-6.422,14.391-14.391,14.391s-14.391-6.469-14.391-14.391v-197.48c0-7.969,6.422-14.391,14.391-14.391s14.391,6.469,14.391,14.391ZM632.996,555.381v197.48c0,7.969-6.422,14.391-14.391,14.391s-14.391-6.469-14.391-14.391v-197.48c0-7.969,6.422-14.391,14.391-14.391s14.391,6.469,14.391,14.391ZM731.715,555.381v197.48c0,7.969-6.422,14.391-14.391,14.391s-14.391-6.469-14.391-14.391v-197.48c0-7.969,6.422-14.391,14.391-14.391s14.391,6.469,14.391,14.391ZM293.955,501.662l-46.781-65.484c-9.234-12.984-14.625-28.219-15.516-44.062l-18.562-315.1c5.156-2.203,8.812-7.312,8.812-13.266V14.391c0-7.969-6.469-14.391-14.391-14.391h-98.719c-7.969,0-14.391,6.469-14.391,14.391v49.359c0,5.953,3.609,11.062,8.766,13.266l-18.516,315.14c-.891,15.844-6.281,31.078-15.609,44.062l-46.688,65.484c-13.734,19.125-21.047,41.719-21.141,65.344L0,911.066c-.047,17.062,6.562,33.141,18.609,45.234s28.078,18.75,45.141,18.75h188.9c17.062,0,33.094-6.656,45.141-18.75s18.656-28.172,18.609-45.234l-1.219-344.02c-.094-23.625-7.406-46.219-21.094-65.344l-.132-.04ZM123.055,28.792h69.938v20.578h-69.938v-20.578ZM277.235,935.922c-6.609,6.656-15.422,10.266-24.75,10.266H63.585c-9.328,0-18.141-3.656-24.75-10.266-6.609-6.656-10.266-15.469-10.219-24.797l1.219-344.02c.094-17.344,5.672-34.641,15.75-48.703l46.688-65.484c12.469-17.391,19.734-37.828,20.953-59.156l18.562-315.66h52.406l18.609,315.61c1.219,21.234,8.438,41.672,20.859,59.156l46.828,65.531c10.078,14.016,15.656,31.312,15.75,48.656l1.219,344.02c.047,9.375-3.609,18.188-10.219,24.797l-.005.05ZM266.594,833.032l.141,43.219c.047,7.969-6.375,14.438-14.344,14.438h-.047c-7.922,0-14.391-6.422-14.391-14.344l-.141-43.219c-.047-7.969,6.375-14.438,14.344-14.438h.047c7.922,0,14.391,6.422,14.391,14.344ZM158.034,601.892c-48.75,0-88.453,39.656-88.453,88.453s39.656,88.453,88.453,88.453,88.453-39.656,88.453-88.453-39.656-88.453-88.453-88.453ZM158.034,749.972c-32.906,0-59.672-26.766-59.672-59.672s26.766-59.672,59.672-59.672,59.672,26.766,59.672,59.672-26.766,59.672-59.672,59.672Z"/>
</svg>