<?xml version="1.0" encoding="UTF-8"?>
<svg id="Layer_1" data-name="Layer 1" xmlns="http://www.w3.org/2000/svg" viewBox="0 0 856.617 743.996">
  <defs>
    <style>
      .cls-1 {
        fill: red;
        stroke: #000;
        stroke-miterlimit: 10;
      }
    </style>
  </defs>
  <polyline class="cls-1" points="732.308 414 732.308 178 808.308 208 848.308 287.119 808.308 382.979 732.308 419"/>
  <path d="M744.108,172.8c29.598,2.832,56.176,16.02,76.062,35.902,74.738,74.738,27.199,202.15-76.062,212.03v95.277c0,14.344-5.953,25.816-16.043,35.844l-159.62,159.44c-15.477,15.461-28.027,32.703-52.445,32.703H48c-26.426,0-48-21.574-48-48V227.996c0-20.66,10.047-29.879,22.738-42.477,55.805-55.383,117.75-113.11,170.09-169.96,9.09-9.879,21.848-15.559,35.285-15.559h468c26.426,0,48,21.574,48,48v124.79l-.005.01ZM62.108,179.999h124v-6.949c.047-7.828,11.949-7.984,12,0v6.949h317.89c8.84,0,17.137,2.414,24.262,6.617L699.75,24.286c-1.188-.184-2.406-.277-3.641-.277H228.109c-5.875,0-11.438,2.117-15.844,6l-17.625,17.605c1.984.93,3.453,2.93,3.469,5.438v24c-.047,7.828-11.949,7.984-12,0v-20.914l-124,123.87v-.008ZM563.998,681.909l124.04-123.9h-19.41c-7.828-.047-7.984-11.949,0-12h24c1.981.012,3.766.941,4.894,2.527l13.668-13.652c5.629-5.598,8.918-10.73,8.918-18.875V48.009c0-3.039-.578-5.953-1.625-8.641l-161.25,164.12c4.293,7.184,6.766,15.57,6.766,24.512v318.01h8.629c7.828.047,7.984,11.949,0,12h-8.629v123.9-.002ZM515.998,203.999H47.998c-13.176,0-24,10.824-24,24v468c0,13.176,10.824,24,24,24h468c13.176,0,24-10.824,24-24V227.999c0-13.176-10.824-24-24-24h0ZM744.108,396.589c82.082-9.762,118.67-111.34,59.094-170.92-15.531-15.531-36.125-26.004-59.094-28.734v164.74c54.09-9.934,72.312-77.836,32.141-113.99-5.852-5.266,2.164-14.172,8.016-8.906,48.156,43.34,25.145,124.98-40.156,135.07v22.746-.006ZM198.108,113.049c-.051-7.984-11.953-7.828-12,0v24c.051,7.984,11.953,7.828,12,0v-24ZM198.108,233.049c-.051-7.984-11.953-7.828-12,0v24c.051,7.984,11.953,7.828,12,0v-24ZM198.108,293.049c-.051-7.984-11.953-7.828-12,0v24c.051,7.984,11.953,7.828,12,0v-24ZM198.108,353.049c-.051-7.984-11.953-7.828-12,0v24c.051,7.984,11.953,7.828,12,0v-24ZM198.108,413.049c-.051-7.984-11.953-7.828-12,0v24c.051,7.984,11.953,7.828,12,0v-24ZM198.108,473.049c-.051-7.984-11.953-7.828-12,0v24c.051,7.984,11.953,7.828,12,0v-24ZM201.409,529.639c-3.699-7.051-14.227-1.434-10.641,5.547,4.324,8.367,11.293,15.008,19.828,18.977,7.188,3.277,12.195-7.578,5.023-10.898-6.129-2.848-11.109-7.621-14.211-13.629v.003ZM248.628,546.01c-7.984.051-7.828,11.953,0,12h24c7.984-.051,7.828-11.953,0-12h-24ZM308.628,546.01c-7.984.051-7.828,11.953,0,12h24c7.984-.051,7.828-11.953,0-12h-24ZM368.628,546.01c-7.984.051-7.828,11.953,0,12h24c7.984-.051,7.828-11.953,0-12h-24ZM428.628,546.01c-7.984.051-7.828,11.953,0,12h24c7.984-.051,7.828-11.953,0-12h-24ZM488.628,546.01c-7.984.051-7.828,11.953,0,12h24c7.984-.051,7.828-11.953,0-12h-24ZM608.628,546.01c-7.984.051-7.828,11.953,0,12h24c7.984-.051,7.828-11.953,0-12h-24ZM191.788,562.584c5.66-5.66-2.922-14-8.457-8.512l-17.023,16.914c-5.66,5.66,2.922,14,8.457,8.512l17.023-16.914ZM38.618,697.854c-5.66,5.66,2.922,14,8.457,8.512l17.023-16.914c5.66-5.66-2.922-14-8.457-8.512l-17.023,16.914ZM81.18,655.565c-5.66,5.66,2.922,14,8.457,8.512l17.023-16.914c5.66-5.66-2.922-14-8.457-8.512l-17.023,16.914ZM123.742,613.276c-5.66,5.66,2.922,14,8.457,8.512l17.023-16.914c5.66-5.66-2.922-14-8.457-8.512l-17.023,16.914Z"/>
</svg>