<?xml version="1.0" encoding="UTF-8"?>
<svg xmlns="http://www.w3.org/2000/svg" viewBox="0 0 744.111 931.243">
  <defs>
    <style>
      .cls-1 {
        fill: red;
      }
    </style>
  </defs>
  <g id="Layer_2" data-name="Layer 2">
    <path class="cls-1" d="M433.939,723.458c-16.452,2.54-33.044,4.258-49.521,3.86-25.599,5.186-51.472,9.635-77.36,6.862-3.171-.34-4.843-2.631-4.837-4.979-7.713.332-15.433.381-23.163-.021-1.582-.082-2.831-.873-3.679-1.967-40.037,46.475-38.018,116.684,6.061,160.763,46.197,46.197,121.097,46.197,167.294,0,45.063-45.063,46.161-117.433,3.31-163.836-6.007-.09-12.048-.363-18.105-.681Z"/>
    <path d="M366.827,884.591c7.861-.414,7.231-12.38-.63-11.966l.004.005c-60.793,3.2-92.326-70.422-50.161-112.586,5.58-5.58-2.906-14.065-8.485-8.485-49.831,49.831-12.537,136.811,59.273,133.032Z"/>
    <path d="M455.057,724.18c-6.998-.024-14.048-.35-21.118-.722-4.195.648-8.399,1.24-12.608,1.759,25.324,18.318,41.911,48.093,41.911,81.492.002,55.213-45.321,100.536-100.536,100.536-55.213.002-100.534-45.319-100.536-100.536-.001-31.01,14.297-58.9,36.614-77.393-6.569.208-13.144.207-19.726-.136-1.866-.097-3.276-1.176-4.101-2.581-2.473.046-4.946.076-7.417.093-18.295,21.694-29.369,49.642-29.368,80.016.002,68.403,56.134,124.536,124.536,124.536,68.403-.002,124.536-56.134,124.536-124.536,0-31.573-11.967-60.526-31.572-82.558-.197.02-.401.031-.612.03Z"/>
  </g>
  <g id="Layer_1" data-name="Layer 1">
    <path d="M718.487,39.37l-161.25,164.12c4.293,7.184,6.766,15.57,6.766,24.512v318.01h8.629c7.828.047,7.984,11.949,0,12h-8.629v123.9l124.04-123.9h-19.41c-7.828-.047-7.984-11.949,0-12h24c1.981.012,3.766.941,4.894,2.527l13.668-13.652c5.5-5.469,8.918-10.535,8.918-18.875V48.012c0-3.039-.578-5.953-1.625-8.641v-.002ZM212.266,30.009l-17.625,17.605c1.984.93,3.453,2.93,3.469,5.438v24c-.047,7.828-11.949,7.984-12,0v-20.914l-124,123.87h124v-6.949c.047-7.828,11.949-7.984,12,0v6.949h317.89c8.84,0,17.137,2.414,24.262,6.617L699.752,24.295c-1.188-.184-2.406-.277-3.641-.277H228.111c-5.879,0-11.441,2.117-15.844,6v-.008ZM24.536,183.739c55.336-54.84,116.52-111.93,168.29-168.18,9.09-9.879,21.848-15.559,35.285-15.559h468c26.426,0,48,21.574,48,48v468c0,14.617-5.992,25.855-16.043,35.844l-169.49,169.3c-12.719,12.703-21.707,22.848-42.578,22.848H48c-26.426,0-48-21.574-48-48V227.992c0-21.602,11.246-31.09,24.531-44.258l.005.005ZM516.006,203.997H48.006c-13.176,0-24,10.824-24,24v468c0,13.176,10.824,24,24,24h468c13.176,0,24-10.824,24-24V227.997c0-13.176-10.824-24-24-24ZM198.116,113.048c-.051-7.984-11.953-7.828-12,0v24c.051,7.984,11.953,7.828,12,0v-24ZM198.116,233.048c-.051-7.984-11.953-7.828-12,0v24c.051,7.984,11.953,7.828,12,0v-24ZM198.116,293.048c-.051-7.984-11.953-7.828-12,0v24c.051,7.984,11.953,7.828,12,0v-24ZM198.116,353.048c-.051-7.984-11.953-7.828-12,0v24c.051,7.984,11.953,7.828,12,0v-24ZM198.116,413.048c-.051-7.984-11.953-7.828-12,0v24c.051,7.984,11.953,7.828,12,0v-24ZM198.116,473.048c-.051-7.984-11.953-7.828-12,0v24c.051,7.984,11.953,7.828,12,0v-24ZM201.417,529.638c-3.699-7.051-14.227-1.434-10.641,5.547,4.324,8.367,11.293,15.008,19.828,18.977,7.188,3.277,12.195-7.578,5.023-10.898-6.129-2.848-11.109-7.621-14.211-13.629v.003ZM248.636,546.009c-7.984.051-7.828,11.953,0,12h24c7.984-.051,7.828-11.953,0-12h-24ZM308.636,546.009c-7.984.051-7.828,11.953,0,12h24c7.984-.051,7.828-11.953,0-12h-24ZM368.636,546.009c-7.984.051-7.828,11.953,0,12h24c7.984-.051,7.828-11.953,0-12h-24ZM428.636,546.009c-7.984.051-7.828,11.953,0,12h24c7.984-.051,7.828-11.953,0-12h-24ZM488.636,546.009c-7.984.051-7.828,11.953,0,12h24c7.984-.051,7.828-11.953,0-12h-24ZM608.636,546.009c-7.984.051-7.828,11.953,0,12h24c7.984-.051,7.828-11.953,0-12h-24ZM191.796,562.583c5.66-5.66-2.922-14-8.457-8.512l-17.023,16.914c-5.66,5.66,2.922,14,8.457,8.512l17.023-16.914ZM38.626,697.853c-5.66,5.66,2.922,14,8.457,8.512l17.023-16.914c5.66-5.66-2.922-14-8.457-8.512l-17.023,16.914ZM81.188,655.564c-5.66,5.66,2.922,14,8.457,8.512l17.023-16.914c5.66-5.66-2.922-14-8.457-8.512l-17.023,16.914ZM123.75,613.275c-5.66,5.66,2.922,14,8.457,8.512l17.023-16.914c5.66-5.66-2.922-14-8.457-8.512l-17.023,16.914Z"/>
  </g>
</svg>