<?xml version="1.0" encoding="UTF-8"?>
<svg width="1200pt" height="1200pt" version="1.1" viewBox="0 0 1200 1200" xmlns="http://www.w3.org/2000/svg">
 <path d="m647.81 240c-114.89 0-233.11 11.812-324.1 47.297-45.469 17.719-84.375 41.391-112.17 73.172-25.781 29.531-41.391 66.281-43.5 109.55-0.9375 50.625-0.375 102.38-0.375 153.47-14.438-6.2344-29.906-8.5312-42.75-4.875-16.219 5.5312-27.562 16.641-29.25 41.625v73.172c-5.1562-0.84375-9.6094-0.84375-14.25-1.125-5.4844 1.2188-9.6562 6.7031-9.375 12.281s4.9688 10.641 10.5 11.344c4.5 0.46875 8.8125 0.98438 13.125 1.5v22.875c0 24.797 3 44.859 12 61.172 13.922 18.375 28.266 28.359 44.25 34.125 59.766 23.906 97.688 36.375 181.92 48.422 6.75 1.0781 13.734-4.7812 13.875-11.625v-0.75c14.672 3.1875 30.047 6.375 45.75 9.375 0.70312 5.625 1.4062 11.062 2.25 16.875 0.75 5.0625 5.0625 9.375 10.125 10.125l84 12c12.656 0.14062 14.156-10.125 12.75-21.75 52.125 6.5156 105.89 10.688 157.18 10.125 116.16 0 225.79-30.469 310.22-76.547 84.422-46.078 144.42-107.62 157.55-173.34 0.70312-80.25 0.375-162.56 0.375-231.52-3.2812-42.609-25.547-78.656-58.5-107.67s-76.734-51.422-124.92-69.047c-98.344-36.141-202.26-49.641-296.72-50.297zm0 24c82.594 0 195.79 14.953 288.47 48.797 46.312 16.922 87.328 38.391 117.05 64.547 29.484 25.969 47.719 55.688 50.625 90.797 1.875 23.719-5.3906 47.859-14.25 67.547-31.359-57.188-90.656-79.453-124.55-90.797-18.844-42.938-64.312-69.375-101.3-84.047-63.703-24.844-148.97-36.75-240.05-36.75-143.58 0-231.24 36-282.47 97.547-59.438 15.422-98.859 55.125-127.18 98.672-10.734-15.703-18.328-32.719-22.125-50.672 2.1562-37.406 15.609-67.922 37.875-93.422 24.375-27.844 59.766-50.016 102.8-66.797 117.94-40.922 219.84-45 315.1-45.375zm-24 84.047c88.969 0 171.74 11.719 231.05 34.875 44.016 17.812 92.344 49.969 93.047 97.172 1.2656 23.531-4.5 49.172-15 66.797-63.516-45.375-157.87-66.797-273.1-66.797-98.016 0-155.44 24.234-229.92 36-19.969 3.0938-42.422 3.0469-58.875-4.875-32.531-19.312-26.062-52.078-12.375-73.547 73.406-85.031 184.31-88.922 265.18-89.672zm60 48.047c-13.266 0-24 10.734-24 24s10.734 24 24 24 24-10.734 24-24-10.734-24-24-24zm72 0c-13.266 0-24 10.734-24 24s10.734 24 24 24 24-10.734 24-24-10.734-24-24-24zm-72 12c6.6094 0 12 5.3906 12 12s-5.3906 12-12 12-12-5.3906-12-12 5.3906-12 12-12zm72 0c6.6094 0 12 5.3906 12 12s-5.3906 12-12 12-12-5.3906-12-12 5.3906-12 12-12zm72 12c-13.266 0-24 10.734-24 24s10.734 24 24 24 24-10.734 24-24-10.734-24-24-24zm0 12c6.6094 0 12 5.3906 12 12s-5.3906 12-12 12-12-5.3906-12-12 5.3906-12 12-12zm-498.89 19.125c-11.625 33.047 4.3594 67.312 31.5 81.422 27.703 12.234 52.125 11.859 74.25 7.125v-0.375c76.875-12.281 131.53-35.25 225.05-35.25 111.61 0 201.1 21.516 258.42 61.922-19.406 21.281-47.484 39.047-81.375 52.922-71.156 29.062-166.18 41.25-249.05 41.25-88.406 0-183.19-18.141-257.68-51.797-41.109-18.562-75.516-41.531-100.17-68.672 27.141-45 61.875-72.516 99.047-88.547zm642.56 22.125c32.531 13.875 79.781 42.75 102.8 90.422-24 36.375-59.484 65.719-102.42 89.297 0.28125-62.297-0.9375-124.78-0.375-179.72zm-779.81 55.922c27.234 42.656 73.547 76.453 128.68 101.3 78.516 35.438 175.82 53.672 267.47 53.672 85.172 0 182.21-12.188 258.05-43.125 39.188-16.266 76.125-41.109 102.05-73.172v97.172c-10.266 4.8281-20.625 9.6094-31.5 13.875-96.938 38.203-215.72 53.297-316.6 53.297-31.875 0-64.172-1.125-96.797-3.75 2.5781-12.375-1.2188-18.234-9.375-20.25l-84-12c-10.781-1.5469-13.359 7.3594-14.625 16.125-15.703-3.5625-31.453-7.5-47.25-12.375v-15.75c0.09375-5.625-4.2656-10.969-9.75-12-51.516-10.312-97.594-26.438-146.29-41.25zm912.24 30.75v134.68c-11.391 54.047-65.062 112.03-145.18 155.72-80.625 43.969-187.03 73.922-298.97 73.922-51.984 0.60937-106.97-3.9844-160.18-10.875-6.2812-57.891-6.1406-109.92 0-161.34 33.938 2.9062 67.453 4.125 100.17 4.125 103.22 0 224.44-15.328 325.6-55.172 77.156-30.422 143.16-76.125 178.55-141.1zm-939.98 87.422c56.672 15.141 112.03 35.156 159.79 45.75v22.125l-164.29-54.797c-6.2812-2.0156-13.828 2.2031-15.375 8.625-4.9688 19.359-8.25 43.125-8.25 70.547-5.2031-0.98438-10.594-2.1562-16.125-3v-74.297c1.125-11.578 5.2969-17.484 12.75-21 10.922-1.125 23.531 3.375 31.5 6zm1.875 40.5 14.625 4.875c25.125 30.797 62.203 57.938 107.3 81.797v13.5c-40.547-15-76.594-31.641-127.18-43.5-0.046875-21.516 2.0625-40.547 5.25-56.672zm66.375 22.125 55.5 18.75v18.75c-21.047-11.906-39.703-24.375-55.5-37.5zm186.42 11.625 60 8.625c-9.5625 64.5-9.2812 130.31 0 203.72l-59.625-8.25c-12.375-82.547-7.8281-145.78-0.375-204.1zm-70.875 2.625c14.766 4.4062 29.625 7.9219 44.25 11.25-6.5625 56.672-7.125 104.81-1.5 160.22-14.719-2.9062-29.062-5.9531-42.75-9v-10.5c0.09375-5.7188-4.5-11.109-10.125-12-9-1.5-17.578-3.375-25.875-5.25v-37.875c6.8438 2.1562 13.594 4.3594 21 6.375 6.3281 2.9062 14.812-1.125 16.594-7.875s-3.6562-14.438-10.594-15c-9.4688-2.5781-18.375-5.3906-27-8.25v-59.625l20.25 6.75c7.125 2.3438 15.656-3.75 15.75-11.25zm-228.05 36.375c5.9531 0.98438 11.672 2.2969 17.25 3.375 1.125 17.062 3.2812 35.203 7.125 54.422 0.79687 3.7969 3.5625 7.125 7.125 8.625 56.391 22.547 105 45.328 172.55 58.172v12.375c-71.297-11.062-108.05-22.453-163.55-44.625-13.031-5.625-25.688-13.078-31.5-23.25-6-10.781-9-26.719-9-49.547zm42 8.625c48.234 12.094 83.438 28.688 126.05 43.875v39.75c-42.984-12-79.031-28.312-121.18-45.375-2.4844-13.453-3.9375-26.203-4.875-38.25z"/>
</svg>
