<?xml version="1.0" encoding="UTF-8"?>
<svg id="Layer_1" data-name="Layer 1" xmlns="http://www.w3.org/2000/svg" viewBox="0 0 857.606 743.991">
  <defs>
    <style>
      .cls-1 {
        fill: red;
        stroke: #000;
        stroke-miterlimit: 10;
      }
    </style>
  </defs>
  <circle class="cls-1" cx="733.182" cy="557.996" r="113.087"/>
  <path d="M744.101,429.847c30.066,2.59,57.082,15.867,77.23,36.012,48.367,48.367,48.367,127.75,0,176.12-49.844,49.844-132.04,48.074-179.73-3.769l-82.242,82.152c-12.973,12.957-22.047,23.629-43.359,23.629H48c-26.426,0-48-21.574-48-48V227.991c0-21.613,11.199-30.973,24.41-44.172L192.82,15.559c9.09-9.879,21.848-15.559,35.285-15.559h468c13.211,0,25.215,5.395,33.91,14.09,8.695,8.695,14.09,20.695,14.09,33.91v381.85l-.004-.003ZM62.101,179.987h124v-18.582c.047-7.828,11.949-7.984,12,0v18.582h317.89c8.84,0,17.137,2.414,24.262,6.617L699.743,24.275c-1.188-.184-2.406-.277-3.641-.277H228.102c-5.879,0-11.441,2.117-15.844,6l-13.863,13.848c-.969,6.883-.293,15.824-.293,21.562-.047,7.828-11.949,7.984-12,0,0-2.695-.105-5.84-.156-9.129l-123.85,123.71h.005ZM563.991,681.897l63.039-62.969c-10.941-17.84-17.516-38.648-18.234-60.934h-11.809c-7.828-.047-7.984-11.949,0-12h11.988c3.797-60.48,50.891-109.6,111.12-115.93V47.994c0-3.039-.578-5.953-1.625-8.641l-161.25,164.12c4.293,7.184,6.766,15.57,6.766,24.512v453.91l.005.002ZM515.991,203.987H47.991c-13.176,0-24,10.824-24,24v468c0,13.176,10.824,24,24,24h468c13.176,0,24-10.824,24-24v-137.99h-3.004c-7.828-.047-7.984-11.949,0-12h3.004V227.987c0-13.176-10.824-24-24-24h0ZM198.101,101.408c-.051-7.984-11.953-7.828-12,0v24c.051,7.984,11.953,7.828,12,0v-24ZM198.101,221.408c-.051-7.984-11.953-7.828-12,0v24c.051,7.984,11.953,7.828,12,0v-24ZM198.101,281.408c-.051-7.984-11.953-7.828-12,0v24c.051,7.984,11.953,7.828,12,0v-24ZM198.101,341.408c-.051-7.984-11.953-7.828-12,0v24c.051,7.984,11.953,7.828,12,0v-24ZM198.101,401.408c-.051-7.984-11.953-7.828-12,0v24c.051,7.984,11.953,7.828,12,0v-24ZM198.101,461.408c-.051-7.984-11.953-7.828-12,0v24c.051,7.984,11.953,7.828,12,0v-24ZM198.437,520.473c-1.23-7.883-13.02-5.914-11.859,1.828,1.398,9.285,5.984,17.902,12.836,24.312,5.863,5.418,13.875-3.422,8.176-8.781-4.887-4.582-8.152-10.73-9.152-17.355v-.004ZM236.988,545.996c-7.984.051-7.828,11.953,0,12h24c7.984-.051,7.828-11.953,0-12h-24ZM296.988,545.996c-7.984.051-7.828,11.953,0,12h24c7.984-.051,7.828-11.953,0-12h-24ZM356.988,545.996c-7.984.051-7.828,11.953,0,12h24c7.984-.051,7.828-11.953,0-12h-24ZM416.988,545.996c-7.984.051-7.828,11.953,0,12h24c7.984-.051,7.828-11.953,0-12h-24ZM476.988,545.996c-7.984.051-7.828,11.953,0,12h24c7.984-.051,7.828-11.953,0-12h-24ZM188.028,566.306c5.66-5.66-2.922-14-8.457-8.512l-17.023,16.914c-5.66,5.66,2.922,14,8.457,8.512l17.023-16.914ZM38.618,697.845c-5.66,5.66,2.922,14,8.457,8.512l17.023-16.914c5.66-5.66-2.922-14-8.457-8.512l-17.023,16.914ZM81.18,655.556c-5.66,5.66,2.922,14,8.457,8.512l17.023-16.914c5.66-5.66-2.922-14-8.457-8.512l-17.023,16.914ZM123.742,613.267c-5.66,5.66,2.922,14,8.457,8.512l17.023-16.914c5.66-5.66-2.922-14-8.457-8.512l-17.023,16.914ZM777.412,504.837c-5.852-5.266,2.164-14.172,8.016-8.906,53.449,48.105,18.316,135.98-52.156,135.98-7.891,0-7.891-12,0-12,59.629,0,89.391-74.355,44.141-115.08v.006ZM804.361,482.825c-18.191-18.191-43.328-29.445-71.094-29.445-55.527,0-100.54,45.012-100.54,100.54,0,25.262,9.316,48.348,24.699,66.008,38.047,43.676,105.9,46.117,146.93,5.086,39.043-39.047,39.043-103.14,0-142.18l.005-.009Z"/>
</svg>