<?xml version="1.0" encoding="UTF-8"?>
<svg id="Layer_1" data-name="Layer 1" xmlns="http://www.w3.org/2000/svg" viewBox="0 0 1166.496 514.358">
  <defs>
    <style>
      .cls-1 {
        fill: red;
        stroke: #000;
        stroke-miterlimit: 10;
      }
    </style>
  </defs>
  <circle class="cls-1" cx="569.194" cy="247.07" r="106.863"/>
  <path d="M652.061,332.912c-37.309,34.516-93.32,41.094-137.64,15.582,0,5.75.168,10.348-1.078,15.461-1.84,7.551-5.613,13.074-10.98,18.414l-113.34,113.22c-10.125,10.113-17.152,18.762-33.773,18.762H36.52c-10.055,0-19.188-4.106-25.801-10.719-6.613-6.613-10.719-15.746-10.719-25.801V159.101c0-15.809,7.727-22.816,17.438-32.445C55.176,89.23,96.997,50.234,132.338,11.836c6.914-7.512,16.625-11.836,26.84-11.836h318.73c20.109,0,36.52,16.41,36.52,36.52v109.11c44.293-25.496,100.36-18.941,137.64,15.59,0-18.086,6.328-23.555,18.398-35.516,37.488-37.137,78.883-75.785,113.94-113.86C791.32,4.332,801.027.008,811.246.008h318.73c20.109,0,36.52,16.41,36.52,36.52v318.73c0,10.867-4.461,19.559-12.062,27.117l-110.99,110.87c-10.836,10.824-18.59,21.113-36.125,21.113h-318.73c-20.109,0-36.516-16.41-36.516-36.516v-144.93h-.012ZM707.416,122.592h299.89c5.656,0,11.023,1.301,15.812,3.613l100.41-102.2h-312.29c-3.059,0-5.922,1.082-8.223,3.09l-95.599,95.497ZM652.061,198.565c-31.125-50.812-102.3-60.027-145.1-17.227-36.098,36.098-36.098,95.359,0,131.46,42.824,42.824,113.98,33.574,145.1-17.262v-96.973.002ZM1040.101,143.073c2.383,4.848,3.727,10.293,3.727,16.039v214.66h4.637c7.828.047,7.984,11.949,0,12h-4.637v73.254l93.727-93.621c3-2.984,4.938-5.512,4.938-10.148V38.857l-102.39,104.21v.006ZM1007.308,146.596h-214.59v4.379c-.047,7.828-11.949,7.984-12,0v-4.379h-92.145c-6.859,0-12.516,5.656-12.516,12.516v318.73c0,.918-.023,4.684,1.188,3.477l17.023-16.914c5.535-5.484,14.121,2.852,8.457,8.512-5.606,5.57-11.418,11.762-17.184,17.066.973.246,1.988.379,3.035.379h318.73c6.859,0,12.516-5.656,12.516-12.516V159.116c0-6.859-5.656-12.516-12.516-12.516l.002-.003ZM792.718,66.975c-.051-7.984-11.953-7.828-12,0v24c.051,7.984,11.953,7.828,12,0v-24ZM792.718,186.975c-.051-7.984-11.953-7.828-12,0v24c.051,7.984,11.953,7.828,12,0v-24ZM792.718,246.975c-.051-7.984-11.953-7.828-12,0v24c.051,7.984,11.953,7.828,12,0v-24ZM792.718,306.975c-.051-7.984-11.953-7.828-12,0v24c.051,7.984,11.953,7.828,12,0v-24ZM794.785,363.725c-3.738-7.031-14.242-1.32-10.609,5.609,4.723,9.004,13.531,15.09,23.641,16.25,7.078.746,9.438-9.996,2.742-11.586-5.523-1.312-11.172-1.5-15.777-10.273h.003ZM844.461,373.78c-7.984.051-7.828,11.953,0,12h24c7.984-.051,7.828-11.953,0-12h-24ZM904.461,373.78c-7.984.051-7.828,11.953,0,12h24c7.984-.051,7.828-11.953,0-12h-24ZM964.461,373.78c-7.984.051-7.828,11.953,0,12h24c7.984-.051,7.828-11.953,0-12h-24ZM1084.461,373.78c-7.984.051-7.828,11.953,0,12h24c7.984-.051,7.828-11.953,0-12h-24ZM783.781,392.389c5.66-5.66-2.922-14-8.457-8.512l-17.023,16.914c-5.66,5.66,2.922,14,8.457,8.512l17.023-16.914ZM717.519,441.307c-5.66,5.66,2.922,14,8.457,8.512l17.023-16.914c5.66-5.66-2.922-14-8.457-8.512l-17.023,16.914ZM55.359,122.597h299.89c5.656,0,11.023,1.301,15.812,3.613l100.41-102.2H159.181c-3.059,0-5.922,1.078-8.223,3.09L55.359,122.597ZM391.769,459.027l93.727-93.621c5.117-5.094,4.875-7.059,4.996-14.273.121-7.195.316-20.555-.496-21.367-45.422-45.422-45.422-119.98,0-165.39.145-.145.293-.289.438-.43V38.867l-102.39,104.21c2.383,4.848,3.727,10.293,3.727,16.039v214.66h4.637c7.828.047,7.984,11.949,0,12h-4.637v73.254-.002ZM355.253,146.597h-214.59v4.379c-.047,7.828-11.949,7.984-12,0v-4.379H36.518c-6.859,0-12.516,5.656-12.516,12.516v318.73c0,.922-.023,4.684,1.188,3.477l17.023-16.914c5.535-5.484,14.121,2.852,8.457,8.512l-17.023,16.914c-.457.453,2.539.527,2.875.527h318.73c6.859,0,12.516-5.656,12.516-12.516V159.113c0-6.859-5.656-12.516-12.516-12.516h.001ZM140.663,66.976c-.051-7.984-11.953-7.828-12,0v24c.051,7.984,11.953,7.828,12,0v-24ZM140.663,186.976c-.051-7.984-11.953-7.828-12,0v24c.051,7.984,11.953,7.828,12,0v-24ZM140.663,246.976c-.051-7.984-11.953-7.828-12,0v24c.051,7.984,11.953,7.828,12,0v-24ZM140.663,306.976c-.051-7.984-11.953-7.828-12,0v24c.051,7.984,11.953,7.828,12,0v-24ZM142.725,363.722c-3.738-7.039-14.242-1.32-10.605,5.617,4.738,9,13.516,15.09,23.641,16.246,7.102.75,9.195-9.246,2.703-11.602-7.055-2.559-11.199-1.644-15.742-10.266l.003.005ZM192.401,373.781c-7.984.051-7.828,11.953,0,12h24c7.984-.051,7.828-11.953,0-12h-24ZM252.401,373.781c-7.984.051-7.828,11.953,0,12h24c7.984-.051,7.828-11.953,0-12h-24ZM312.401,373.781c-7.984.051-7.828,11.953,0,12h24c7.984-.051,7.828-11.953,0-12h-24ZM432.401,373.781c-7.984.051-7.828,11.953,0,12h24c7.984-.051,7.828-11.953,0-12h-24ZM131.781,392.328c5.66-5.66-2.922-14-8.457-8.512l-17.023,16.914c-5.66,5.66,2.922,14,8.457,8.512l17.023-16.914ZM67.75,439.031c-5.66,5.66,2.922,14,8.457,8.512l17.023-16.914c5.66-5.66-2.922-14-8.457-8.512l-17.023,16.914ZM613.59,201.601c-5.852-5.266,2.164-14.172,8.016-8.906,50.16,45.148,17.16,127.53-48.91,127.53-7.891,0-7.891-12,0-12,55.23,0,82.844-68.867,40.895-106.62v-.004Z"/>
</svg>