<?xml version="1.0" encoding="UTF-8"?>
<svg id="Layer_1" data-name="Layer 1" xmlns="http://www.w3.org/2000/svg" viewBox="0 0 1087.581 773.245">
  <path d="M897.232,392.367c-14.484,0-28.547,1.781-42.094,4.875l-94.922-284.81c24.047-7.969,45.234-23.297,59.812-44.062l27.281-38.859c5.953-8.438,3.891-20.156-4.594-26.109s-20.156-3.891-26.109,4.594l-27.281,38.859c-10.594,15.094-26.203,26.203-43.922,31.312l-90,25.828c-9.938,2.859-15.703,13.219-12.844,23.156,2.344,8.25,9.844,13.594,18,13.594,1.688,0,3.469-.234,5.156-.75l58.5-16.781,28.688,86.156-176.02,150.14c-14.672,12.469-33.375,19.359-52.594,19.359h-76.031l-55.594-139.6h65.953c19.078,0,34.594-15.516,34.594-34.594,0-40.406-32.859-73.266-73.266-73.266h-36.234c-10.5,0-20.953-1.594-30.984-4.688l-9.844-3.047c-13.453-4.172-28.125-1.547-39.281,7.078s-17.438,22.172-16.781,36.234l1.406,30.938c1.031,23.156,20.062,41.344,43.219,41.344h20.812l21.188,53.203-92.766,122.76c-26.906-14.531-57.656-22.828-90.281-22.828C85.4,392.404,0,477.81,0,582.804s85.406,190.4,190.4,190.4c98.672,0,180-75.422,189.47-171.66h51.844c8.625,38.625,43.031,67.688,84.234,67.688,4.781,0,9.328-.656,13.875-1.406l21.516,53.719-25.031,7.922c-9.844,3.094-15.375,13.641-12.234,23.531,2.531,8.016,9.938,13.125,17.859,13.125,1.875,0,3.797-.281,5.672-.891l44.297-13.969c4.969-1.547,9.094-5.156,11.344-9.844,2.25-4.734,2.391-10.172.422-15l-28.969-72.281c22.688-15.562,37.688-41.672,37.688-71.25,0-14.578-3.984-28.125-10.406-40.219l211.78-180.66,15.75,47.156c-66.328,29.812-112.73,96.375-112.73,173.68,0,105,85.406,190.4,190.4,190.4s190.4-85.406,190.4-190.4-85.406-190.4-190.4-190.4l.052-.078ZM325.782,196.187l-1.406-30.938c-.094-2.625,1.359-4.172,2.25-4.875.656-.516,1.875-1.219,3.469-1.219.562,0,1.125.094,1.734.281l9.844,3.047c13.641,4.219,27.797,6.375,42.094,6.375h36.234c18.75,0,34.172,14.484,35.625,32.859h-124.13c-3.094,0-5.625-2.438-5.766-5.531h.052ZM389.813,333.107l72.609,182.34c-15.141,12.094-26.25,28.969-30.609,48.516h-51.844c-5.062-51.234-30.469-96.609-68.062-127.78l77.906-103.076ZM309.563,564.007c-4.5-28.547-18.938-53.766-39.797-72l19.5-25.781c28.594,24.234,48.094,58.734,52.875,97.781h-32.625.047ZM160.923,591.101c3.188,6.375,9.656,10.406,16.781,10.406h93.656c-8.531,36.797-41.438,64.359-80.812,64.359-45.844,0-83.109-37.266-83.109-83.109s37.312-83.156,83.109-83.156c8.25,0,16.078,1.594,23.578,3.844l-51.375,68.016c-4.312,5.672-5.016,13.266-1.828,19.641h0ZM215.392,564.007l31.641-41.906c11.906,11.062,20.531,25.5,24.328,41.906h-55.969ZM190.548,735.617c-84.281,0-152.9-68.578-152.9-152.9s68.578-152.9,152.9-152.9c24.141,0,46.922,5.766,67.266,15.797l-19.828,26.203c-14.578-6.281-30.609-9.75-47.438-9.75-66.516,0-120.61,54.094-120.61,120.66s54.094,120.61,120.61,120.61c60.094,0,109.97-44.25,119.02-101.86h32.625c-9.281,75.469-73.688,134.16-151.6,134.16l-.045-.02ZM550.228,617.637l-16.781-41.906c-3.844-9.609-14.719-14.344-24.375-10.406-9.609,3.844-14.297,14.766-10.406,24.375l16.781,41.906c-26.625-.328-48.188-21.984-48.281-48.656,0-.094.047-.141.047-.188,0-.094-.047-.141-.047-.188.094-26.906,21.984-48.75,48.891-48.75s48.938,21.938,48.938,48.938c0,13.688-5.672,26.016-14.766,34.922v-.048ZM567.806,513.947c-14.484-10.922-32.297-17.672-51.797-17.672-6.844,0-13.453,1.031-19.875,2.531l-32.859-82.547h61.078c28.172,0,55.5-10.078,76.969-28.359l164.48-140.29,25.312,75.844-223.26,190.4-.048.093ZM897.246,735.627c-84.281,0-152.9-68.578-152.9-152.9,0-60.75,35.719-113.2,87.188-137.86l10.266,30.844c-38.672,20.109-65.156,60.469-65.156,107.02,0,66.516,54.094,120.61,120.61,120.61s120.61-54.094,120.61-120.61-54.094-120.66-120.61-120.66c-6.797,0-13.406.703-19.875,1.781l-10.312-31.031c9.75-1.969,19.875-3,30.188-3,84.281,0,152.9,68.578,152.9,152.9s-68.578,152.9-152.9,152.9l-.009.006ZM879.48,588.677c2.625,7.875,9.938,12.844,17.766,12.844,1.969,0,3.938-.328,5.906-.984,9.797-3.281,15.141-13.875,11.859-23.719l-25.5-76.406c2.578-.234,5.062-.797,7.688-.797,45.844,0,83.109,37.312,83.109,83.156s-37.266,83.109-83.109,83.109-83.109-37.266-83.109-83.109c0-29.906,16.031-55.969,39.797-70.594l25.5,76.547.093-.047Z"/>
</svg>