<?xml version="1.0" encoding="UTF-8"?>
<svg id="Layer_1" data-name="Layer 1" xmlns="http://www.w3.org/2000/svg" viewBox="0 0 979.197 758.4">
  <defs>
    <style>
      .cls-1 {
        fill: #ff1717;
        fill-rule: evenodd;
      }
    </style>
  </defs>
  <path d="M758.4,379.2c0,210-169.2,379.2-379.2,379.2S0,589.2,0,379.2,169.2,0,379.2,0c208.8-.004,379.2,170.4,379.2,379.2h0Z"/>
  <path d="M794.401,656.402c0,50.398,42,92.398,92.398,92.398s92.398-42,92.398-92.398-42-92.398-92.398-92.398c-51.602,0-92.398,40.801-92.398,92.398ZM813.6,656.402c0-39.602,32.398-72,72-72s72,32.398,72,72-32.398,72-72,72-72-32.398-72-72h0Z"/>
  <path class="cls-1" d="M813.598,147.438l65.057,13.074c3.369.677,5.552,3.958,4.875,7.327l-6.453,32.11c-.677,3.369-3.958,5.552-7.327,4.875l-134.592-27.049c-3.369-.677-5.552-3.958-4.875-7.327l27.049-134.592c.677-3.369,3.958-5.552,7.327-4.875l32.11,6.453c3.369.677,5.552,3.958,4.875,7.327l-13.074,65.057L929.793,15.86c2.868-1.908,6.726-1.125,8.628,1.734l18.136,27.258c1.902,2.859,1.134,6.72-1.734,8.628l-141.225,93.958Z"/>
</svg>