<?xml version="1.0" encoding="UTF-8"?>
<svg id="Layer_1" xmlns="http://www.w3.org/2000/svg" version="1.1" viewBox="0 0 933.6 726.1">
  <!-- Generator: Adobe Illustrator 29.2.1, SVG Export Plug-In . SVG Version: 2.1.0 Build 116)  -->
  <path d="M932.4,137c-43.2-12-118.8-39.6-134.4-67.2C771.6,24.1,726-2.2,678,.1c-54,3.6-102,26.4-126,63.6-6,8.4-8.4,19.2-12,32.4-6,19.2-12,43.2-27.6,60-50.4,55.2-128.4,128.4-210,204-55.2,52.8-111.6,104.4-163.2,154.8-51.6,50.4-99.6,99.7-139.2,145.3l19.2,28.8,228-74.4c51.6,7.2,110.4,10.8,164.4,9.6,4.8,16.8,7.2,27.6,9.6,38.4,2.4,8.4,4.8,16.8,7.2,28.8v34.8h70.8v-36h-33.6c-3.6-15.6-7.2-26.4-9.6-36s-4.8-18-8.4-31.2c12,0,22.8-1.2,33.6-2.4l39.6,73.2v32.4h70.8v-36h-31.2l-40.8-74.4c4.8-1.2,10.8-2.4,15.6-2.4,62.4-13.2,117.6-45.6,172.8-102,66-67.2,88.8-168,92.4-217.2v-12c0-13.2,2.4-52.8,12-56.4,19.2-9.6,49.2-21.6,74.4-32.4,25.2-10.8,45.6-19.2,46.8-19.2l-1.2-37.2ZM765.6,290.6c-3.6,44.4-24,135.6-81.6,194.4-50.4,51.6-99.6,80.4-154.8,92.4-48,9.6-124.8,13.2-198,8.4,67.2-25.2,117.6-55.2,184.8-110.4,90-72,126-154.8,108-247.2l-34.8,7.2c14.4,78-18,150-96,212.4-76.8,61.2-128.4,90-212.4,117.6l-207.6,68.4c72-78,164.4-163.2,253.2-246,82.8-76.8,160.8-150,212.4-206.4,21.6-24,30-52.8,36-74.4,2.4-8.4,4.8-18,7.2-21.6,21.6-32.4,66-45.6,98.4-48h3.6c32.4,0,63.6,19.2,82.8,51.6,0,0,0,1.2,1.2,1.2,9.6,36,6,74.4,3.6,111.6-1.2,12-6,63.6-6,76.8,0,4.8,0,8.4,0,12h0ZM808.8,186.2c1.2-19.2,2.4-38.4,1.2-58.8,20.4,12,44.4,22.8,66,30-21.6,8.4-46.8,19.2-67.2,28.8h0Z"/>
  <path d="M702,93.8c-10.8,0-20.4,9.6-20.4,20.4s9.6,20.4,20.4,20.4,20.4-9.6,20.4-20.4c-1.2-10.8-9.6-20.4-20.4-20.4Z"/>
</svg>