<?xml version="1.0" encoding="UTF-8"?>
<svg id="Layer_1" data-name="Layer 1" xmlns="http://www.w3.org/2000/svg" viewBox="0 0 1143.774 1146.15">
  <path d="M254.761,592.916c2.484,0,4.922-.984,6.797-2.906,5.859-6.141,11.719-12.422,17.625-18.938,3.469-3.844,3.188-9.75-.656-13.266-3.844-3.469-9.75-3.188-13.266.656-5.812,6.375-11.578,12.562-17.297,18.562-3.562,3.75-3.422,9.703.328,13.266,1.828,1.734,4.125,2.578,6.469,2.578v.048Z"/>
  <path d="M902.711,964.036c26.016,0,47.203-21.188,47.203-47.203s-21.188-47.203-47.203-47.203-47.203,21.188-47.203,47.203,21.188,47.203,47.203,47.203ZM902.711,888.38c15.703,0,28.453,12.75,28.453,28.453s-12.75,28.453-28.453,28.453-28.453-12.75-28.453-28.453,12.75-28.453,28.453-28.453Z"/>
  <path d="M4.543,1013.476c59.203,35.531,132.37,36.469,192.32,2.812,58.312,32.766,129.19,32.766,187.5,0,58.312,32.766,129.19,32.766,187.5,0,58.312,32.766,129.19,32.766,187.5,0,58.312,32.766,129.19,32.766,187.5,0,29.156,16.359,61.453,24.562,93.75,24.562,34.078,0,68.156-9.141,98.578-27.375,4.453-2.672,5.859-8.438,3.234-12.844-2.672-4.453-8.438-5.859-12.844-3.234-46.172,27.703-101.72,31.969-150.84,13.078.234-.375.609-.656.797-1.078l111.38-239.86c1.359-2.906,1.125-6.281-.609-9s-4.688-4.312-7.922-4.312h-5.156L552.94,147.745V9.375c0-5.156-4.219-9.375-9.375-9.375h-37.875c-2.719,0-5.344,1.219-7.125,3.281-9.422,11.016-21.328,19.969-34.547,25.875-13.453,6.047-28.359,9-43.172,8.625-2.484-.141-4.969.891-6.797,2.672s-2.859,4.172-2.859,6.703v20.672c-.188.094-.375.094-.516.234-4.406,3.094-9.047,6.047-13.734,8.812-14.156,8.297-29.344,14.766-45.141,19.359-3.141.891-5.531,3.328-6.422,6.469-.891,3.141-.094,6.469,2.109,8.859,11.391,12.375,25.547,22.5,40.969,29.25,15.375,6.703,32.297,10.266,49.078,10.266h2.109c5.109-.094,9.188-4.266,9.188-9.375v-26.625c5.109,2.578,10.266,4.969,15.609,7.031,10.266,3.938,20.906,6.844,31.781,8.719v18.938c-29.766,99.328-73.781,193.45-130.78,279.79-23.156,35.062-48.656,69.047-75.75,101.06-3.328,3.938-2.859,9.844,1.078,13.219,1.781,1.5,3.891,2.203,6.047,2.203,2.672,0,5.297-1.125,7.172-3.328,27.609-32.578,53.578-67.172,77.109-102.84,47.531-72,86.062-149.44,115.12-230.63v301.18h-9.516c-5.156,0-9.375,4.219-9.375,9.375v160.78l-313.5.047c24.094-19.734,47.438-40.547,69.656-62.203,3.703-3.609,3.797-9.562.188-13.266-3.609-3.703-9.562-3.797-13.266-.188-27.375,26.625-56.531,52.078-86.625,75.609h-15.609c-5.156,0-9.375,4.219-9.375,9.375s4.219,9.375,9.375,9.375h359.29v37.406l-109.03,68.156c-2.719,1.734-4.406,4.734-4.406,7.969v50.016l-56.859,6.422v-34.641l20.391-3.047c5.109-.75,8.625-5.531,7.875-10.641s-5.578-8.719-10.641-7.875l-189.05,28.359c-5.109.75-8.625,5.531-7.875,10.641.703,4.641,4.688,7.969,9.234,7.969.469,0,.938-.047,1.406-.094l17.578-2.625v29.062l-20.016,2.25c-3.328.375-6.234,2.531-7.547,5.625l-53.719,125.39c-21-3.516-41.531-10.875-60.469-22.219-4.453-2.672-10.219-1.219-12.844,3.234-2.672,4.453-1.219,10.219,3.234,12.844l-.18-.05ZM608.333,835.296l-28.688-107.58h63l68.531,95.953-102.89,11.625.047.002ZM647.474,708.976h-72.844l-2.859-10.781v-6.75c.609-.562,1.219-1.125,1.688-1.875,16.078-27.188,28.922-55.547,38.719-84.75h309.79l89.719,104.16-364.212-.004ZM808.074,472.636h-174.14c-.047-33.891-4.312-64.828-9.516-94.688h102.09l81.566,94.688ZM620.994,359.196c-.703-3.75-1.406-7.547-2.109-11.297-9.141-48.562-23.062-96.422-41.438-143.02l132.94,154.31-89.393.007ZM628.4,540.276c2.859-17.062,4.453-33.281,5.109-48.891h190.74l81.562,94.688h-287.86c4.266-15.094,7.828-30.328,10.406-45.797h.043ZM552.931,194.756c21.469,50.812,37.453,103.36,47.531,156.66,11.062,58.547,21.469,113.81,9.422,185.76-6.75,40.172-19.594,79.078-38.109,116.11v-133.45c0-5.156-4.219-9.375-9.375-9.375h-9.469V194.756ZM729.831,817.536l-64.125-89.812h362.16l24.562,28.5h-206.44c-1.547,0-3.094.375-4.453,1.125l-111.7,60.141-.004.046ZM372.311,109.216c11.812-4.359,23.25-9.797,34.125-16.125,1.969-1.172,3.797-2.484,5.766-3.703l14.062,42.234c-10.406-1.172-20.719-3.797-30.281-7.969-8.438-3.703-16.453-8.578-23.672-14.438h0ZM471.264,104.623c-14.906-5.766-28.781-13.828-41.25-24v-24.188c14.391-.797,28.641-4.266,41.719-10.125,8.766-3.938,17.016-9.141,24.562-15.141v80.625c-8.531-1.688-16.969-4.078-25.031-7.172h0ZM514.576,18.748h19.594v491.77h-19.125V21.098c0-.844-.281-1.594-.469-2.344v-.006ZM496.154,529.218h56.859v179.76h-28.453c-1.781,0-3.469.516-4.969,1.406l-23.484,14.672v-195.84l.047.002ZM382.714,818.108l144.56-90.375h32.953l29.25,109.73-206.76,23.344-.003-42.699ZM288.355,871.452l-47.438,5.344v-32.203l47.438-7.125v33.984ZM174.735,854.53l47.438-7.125v31.5l-47.438,5.344v-29.766.047ZM143.469,906.655l580.69-65.578c1.172-.141,2.344-.516,3.375-1.078l120.79-65.062h219.28l-17.625,37.969h-187.13c-1.547,0-3.094.375-4.453,1.125l-121.26,65.297-608.06,60.797,14.344-33.516.049.046ZM120.688,959.858l620.26-62.016c1.219-.141,2.438-.469,3.516-1.078l120.79-65.062h176.06l-78.844,169.78c-.234.562-.281,1.125-.422,1.688-3.516-1.781-6.984-3.703-10.406-5.766-2.953-1.781-6.656-1.781-9.656,0-54.844,32.906-123,32.906-177.84,0-2.953-1.781-6.656-1.781-9.656,0-54.844,32.906-123,32.906-177.84,0-2.953-1.781-6.656-1.781-9.656,0-54.844,32.906-123,32.906-177.84,0-2.953-1.781-6.656-1.781-9.656,0-54.844,32.906-123,32.906-177.84,0-2.953-1.781-6.656-1.781-9.656,0-30.094,18.047-64.172,26.156-97.922,24.375l26.531-61.969.078.048Z"/>
  <path d="M1129.271,1100.676c-54.656,35.531-122.63,35.531-177.28,0-3.094-2.016-7.125-2.016-10.219,0-54.656,35.531-122.63,35.531-177.28,0-3.094-2.016-7.125-2.016-10.219,0-54.656,35.531-122.63,35.531-177.28,0-3.094-2.016-7.125-2.016-10.219,0-54.656,35.531-122.63,35.531-177.28,0-3.094-2.016-7.125-2.016-10.219,0-54.656,35.531-122.63,35.531-177.28,0-3.094-2.016-7.125-2.016-10.219,0-54.656,35.531-122.63,35.531-177.28,0-4.359-2.812-10.172-1.594-12.984,2.766s-1.594,10.172,2.766,12.984c59.297,38.531,132.56,39.609,192.61,3.188,58.359,35.344,129.14,35.344,187.5,0,58.359,35.344,129.14,35.344,187.5,0,58.359,35.344,129.14,35.344,187.5,0,58.359,35.344,129.14,35.344,187.5,0,29.156,17.672,61.453,26.531,93.75,26.531,34.172,0,68.391-9.891,98.859-29.719,4.359-2.812,5.578-8.625,2.766-12.984s-8.625-5.578-12.984-2.766h-.007Z"/>
</svg>