<?xml version="1.0" encoding="UTF-8"?>
<svg id="Layer_1" data-name="Layer 1" xmlns="http://www.w3.org/2000/svg" viewBox="0 0 418.784 950.049">
  <defs>
    <style>
      .cls-1 {
        fill: #ff0a0a;
      }

      .cls-2 {
        fill-rule: evenodd;
      }
    </style>
  </defs>
  <polygon class="cls-1" points="87.438 884 111.438 928.13 163.438 935 214.438 897 254.438 935 318.14 923 331.438 873 331.438 562 396.799 562 410.438 415 388.438 310 323.438 258 95.438 258 21.991 324 13.438 543 44.438 571 88.438 564 97.438 407 87.438 884"/>
  <circle class="cls-1" cx="209.437" cy="108.703" r="107.5"/>
  <path class="cls-2" d="M198.468,613.64c0-4.078,2.203-7.641,5.531-9.516l.469-.281,1.875-.75.281-.094,1.969-.328h1.688l1.969.328,2.109.844.469.281c3.281,1.922,5.531,5.484,5.531,9.516v265.78c.094,13.312,5.625,25.453,14.391,34.266,8.906,8.906,21.141,14.391,34.641,14.391s25.734-5.531,34.641-14.391c8.906-8.906,14.391-21.141,14.391-34.641l-.047-265.4v-223.92c0-6.047,4.922-10.969,10.969-10.969s10.969,4.922,10.969,10.969v142.13c0,7.734,3.188,14.812,8.297,19.922,5.109,5.109,12.188,8.297,19.922,8.297s14.812-3.188,19.922-8.297c5.109-5.109,8.297-12.188,8.297-19.922l.047-151.08c0-31.688-12.984-60.516-33.844-81.375-20.906-20.906-49.688-33.844-81.375-33.844l-144.37-.047c-31.688,0-60.469,12.984-81.375,33.844-20.906,20.906-33.844,49.734-33.844,81.375v151.03c0,7.734,3.188,14.812,8.297,19.922,5.109,5.109,12.188,8.297,19.922,8.297s14.812-3.188,19.922-8.297c5.109-5.109,8.297-12.188,8.297-19.922v-142.03c0-6.047,4.922-10.969,10.969-10.969s10.969,4.922,10.969,10.969v489.37c0,13.453,5.531,25.734,14.391,34.641,8.906,8.906,21.141,14.391,34.641,14.391s25.734-5.531,34.641-14.391c8.812-8.812,14.297-20.906,14.391-34.266v-265.82l.038-.013ZM209.437,0c30.047,0,57.188,12.188,76.875,31.828,19.688,19.688,31.828,46.875,31.828,76.875s-12.188,57.188-31.828,76.875c-19.688,19.688-46.828,31.828-76.875,31.828s-57.188-12.188-76.875-31.828c-19.688-19.688-31.828-46.828-31.828-76.875s12.188-57.234,31.828-76.875S179.39,0,209.437,0ZM270.796,47.344c-15.703-15.703-37.406-25.406-61.359-25.406s-45.656,9.703-61.359,25.406-25.406,37.406-25.406,61.359,9.703,45.656,25.406,61.359,37.406,25.406,61.359,25.406,45.656-9.703,61.359-25.406,25.406-37.406,25.406-61.359-9.703-45.656-25.406-61.359ZM340.452,613.634v265.4c0,19.547-7.969,37.266-20.859,50.156-12.844,12.844-30.609,20.859-50.156,20.859s-37.266-7.969-50.156-20.859c-3.703-3.703-7.031-7.875-9.891-12.328-2.859,4.453-6.141,8.625-9.891,12.328-12.844,12.844-30.609,20.859-50.156,20.859s-37.266-7.969-50.156-20.859c-12.844-12.844-20.859-30.609-20.859-50.156l.094-265.4v-40.406c-8.062,5.531-17.766,8.719-28.219,8.719-13.828,0-26.344-5.672-35.438-14.719C5.672,558.134.047,545.572.047,531.79l-.047-151.03c0-37.734,15.422-72.047,40.266-96.891s59.156-40.266,96.891-40.266h144.47c37.734,0,72.047,15.422,96.891,40.266s40.266,59.156,40.266,96.891v151.03c0,13.828-5.672,26.344-14.719,35.438-9.094,9.094-21.656,14.719-35.438,14.719-10.453,0-20.203-3.234-28.219-8.719v40.406h.044Z"/>
</svg>