<?xml version="1.0" encoding="UTF-8"?>
<svg id="Layer_1" data-name="Layer 1" xmlns="http://www.w3.org/2000/svg" viewBox="0 0 940.542 1080.001">
  <path d="M918.289,33.434h-160.44v-11.188c0-5.898-2.344-11.559-6.516-15.73s-9.828-6.516-15.73-6.516H103.203c-27.363.031-53.594,10.914-72.941,30.262C10.918,49.61.035,75.84,0,103.2v868.03c0,.383,0,.758.059,1.129,0,.926-.059,1.836-.059,2.762,0,57.828,38.27,104.88,85.262,104.88h833.03c5.902,0,11.559-2.344,15.73-6.516,4.176-4.172,6.52-9.832,6.52-15.73V55.655c0-5.898-2.344-11.559-6.52-15.73-4.172-4.172-9.828-6.516-15.73-6.516l-.003.024ZM103.199,44.496h610.16v825.73H85.269c-14.574.074-28.793,4.531-40.801,12.793V103.199c.027-15.566,6.223-30.488,17.234-41.492,11.012-11.008,25.938-17.195,41.508-17.211h-.011ZM896.039,1035.506H85.259c-22.105,0-40.801-27.66-40.801-60.383s18.66-60.395,40.801-60.395h650.4v-.004c5.902,0,11.562-2.344,15.734-6.516s6.516-9.832,6.516-15.73V77.933h43.355v876.85H134.263c-7.949,0-15.293,4.238-19.266,11.121-3.977,6.887-3.977,15.367,0,22.25,3.973,6.883,11.316,11.125,19.266,11.125h689.18c5.902,0,11.559-2.344,15.73-6.52,4.176-4.172,6.519-9.828,6.519-15.73V77.93h50.34l.006,957.576ZM205.219,341.556h372.57c5.902,0,11.559-2.344,15.73-6.516,4.176-4.172,6.519-9.832,6.519-15.73v-130.64c0-5.902-2.344-11.559-6.519-15.73-4.172-4.172-9.828-6.52-15.73-6.52H205.219c-5.902,0-11.562,2.348-15.734,6.52-4.172,4.172-6.516,9.828-6.516,15.73v130.64c0,5.898,2.344,11.559,6.516,15.73,4.172,4.172,9.832,6.516,15.734,6.516ZM227.453,210.896h328.09v86.16H227.453v-86.16ZM574.933,429.966c0,5.898-2.344,11.559-6.516,15.73-4.172,4.172-9.832,6.516-15.734,6.516H230.273c-7.949,0-15.293-4.238-19.266-11.121-3.977-6.887-3.977-15.367,0-22.25,3.973-6.883,11.316-11.125,19.266-11.125h322.41c5.902,0,11.562,2.344,15.734,6.52,4.172,4.172,6.516,9.828,6.516,15.73h0ZM574.933,528.595c-.012,5.891-2.363,11.539-6.535,15.699-4.168,4.16-9.82,6.5-15.715,6.5H230.272c-6.141.402-12.176-1.754-16.668-5.961-4.492-4.207-7.039-10.086-7.039-16.238s2.547-12.035,7.039-16.242c4.492-4.207,10.527-6.363,16.668-5.961h322.41c5.894,0,11.547,2.34,15.715,6.5,4.172,4.164,6.523,9.809,6.535,15.703h0Z"/>
</svg>