<?xml version="1.0" encoding="UTF-8"?>
<svg id="Layer_1" data-name="Layer 1" xmlns="http://www.w3.org/2000/svg" viewBox="0 0 878.516 975.732">
  <path d="M873.677,281.879c-4.562-18.188-15.082-34.324-29.879-45.84-7.879-5.77-17.254-9.145-27.004-9.719-9.746-.574-19.453,1.676-27.957,6.48-9.293,6.242-15.492,16.148-17.039,27.238-.516,3.543-.516,7.141,0,10.68l-60-28.32c-31.441-14.641-64.801-28.078-96-16.922v.004c-26.988,11.328-46.562,35.355-52.199,64.078-5.039,27.156-4.754,55.031.84,82.082,4.801,30.602,11.281,61.078,19.078,91.199-10.512-4.656-21.617-7.844-33-9.481,2.234-18.773,2.234-37.746,0-56.52-3.055-51.012-14.906-101.11-35.039-148.08-6.199-13.977-17-25.41-30.598-32.398,1.66-1.316,2.488-3.426,2.16-5.52-3.848-21.629-14.938-41.305-31.441-55.801-10.082-8.98-20.965-17.016-32.52-24-6.602-4.199-13.441-8.52-19.68-13.078-15.824-12.141-30.707-25.461-44.52-39.844-21.785-24.152-48.023-43.871-77.281-58.078-34.32-14.879-85.082-29.641-134.4-12C55.276,40.439-5.802,161.161.438,247.321c5.641,78.719,60,162.96,132.72,207.12-26.281,25.68-12,98.879-10.32,108v-.004c10.531,43.562,28.516,84.973,53.16,122.4l11.281,17.277c17.383,25.348,31.797,52.605,42.961,81.242,14.879,43.32,8.281,85.078-20.641,131.16-1.758,2.816-.898,6.523,1.918,8.281,2.82,1.754,6.527.895,8.281-1.922,31.078-49.441,38.039-94.441,21.84-141.48-11.43-29.609-26.246-57.797-44.16-84l-10.68-17.16c-24.07-36.102-41.727-76.09-52.199-118.2-7.801-37.68-9.961-96,15.48-102.12,25.441-6.121,41.52,36,52.801,63.719,3.121,7.559,5.762,14.16,8.281,18.961,18.84,36,40.078,77.52,74.879,108,19.68,17.16,32.52,10.801,37.078,7.32,10.922-8.398,12-26.52,3.719-44.16-5.984-11.137-13.32-21.496-21.84-30.84-10.996-11.309-19.43-24.855-24.719-39.719-1.738-4.68-2.109-9.758-1.078-14.641.859-3.269,3.703-5.633,7.078-5.879,3.25,1.152,6.09,3.238,8.16,6,19.73,20.805,41.984,39.066,66.238,54.359,21,13.191,38.125,31.711,49.637,53.68,11.508,21.965,16.992,46.586,15.887,71.359-1.559,69.238-44.762,141-83.039,204-12,19.801-23.16,38.52-33.121,56.762-1.594,2.914-.52,6.57,2.398,8.16,2.914,1.59,6.57.516,8.16-2.402,9.719-18,21-36,32.879-56.281,36-59.281,75.719-125.76,83.398-192l.004.004c23.32,9.406,47.41,16.793,72,22.078,12.84,59.039,48,117.48,79.801,170.04,12,19.68,23.039,38.281,32.879,56.281,1.902,1.531,4.543,1.758,6.676.574,2.137-1.188,3.34-3.551,3.043-5.973-9.84-18.238-21.121-36.961-33.121-56.762-38.16-63.359-81.48-135.12-83.039-204-1.106-24.773,4.375-49.398,15.887-71.363,11.508-21.965,28.637-40.484,49.633-53.676,24.258-15.293,46.508-33.555,66.242-54.359,2.07-2.762,4.906-4.848,8.16-6,3.402.172,6.285,2.566,7.078,5.879,1.031,4.883.656,9.961-1.078,14.641-5.297,14.859-13.727,28.406-24.723,39.719-8.523,9.34-15.855,19.699-21.84,30.84-8.762,17.641-7.199,36,3.719,44.16,4.559,3.481,17.398,9.84,37.078-7.32,34.68-30.238,56.039-71.398,74.879-108,2.519-4.801,5.16-11.398,8.281-18.961,11.281-27.719,28.078-69.719,52.801-63.719,24.719,6,23.16,64.441,15.48,102.12h.004c-10.309,42.023-27.762,81.965-51.602,118.08l-10.801,17.281c-17.918,26.199-32.738,54.387-44.16,84-16.199,46.68-8.879,92.16,21.961,141.12,1.758,2.816,5.465,3.676,8.281,1.918,2.816-1.754,3.676-5.461,1.918-8.277-29.039-46.199-36-87.84-20.762-131.16h.004c11.164-28.637,25.578-55.895,42.957-81.242l10.922-17.398c24.559-37.332,42.504-78.617,53.039-122.04,2.16-10.801,20.281-105.36-24-116.16-10.809-2.566-22.184.504-30.238,8.16-9.961-17.16-26.879-44.398-43.199-68.281,29.398,17.16,64.559,26.879,87.961,22.199h-.004c26.555-6.199,48.723-24.375,60-49.199,10.812-24.484,12.473-52.035,4.68-77.641v.003ZM858.197,354.481h.004c-9.742,21.492-28.961,37.203-51.961,42.48-29.641,5.879-83.281-15.719-110.28-44.52h-.84l-.961-.719h-2.156l-.723-.004h-2.996v.84l-.719.961h-.004c-.035.359-.035.719,0,1.078-.035.359-.035.723,0,1.082-.043.398-.043.801,0,1.199-.035.359-.035.723,0,1.082-.035.355-.035.719,0,1.078-.023.281-.023.559,0,.84,24.328,32.496,46.727,66.395,67.078,101.52.426.574.957,1.062,1.562,1.441-12.164,16.789-21.898,35.211-28.922,54.719-3,7.32-5.519,13.68-7.801,18-18.359,35.398-39,75.48-72,104.16-9,7.922-17.281,10.441-21.84,6.84-4.559-3.602-6.719-16.078,0-29.398,5.566-10.277,12.379-19.832,20.281-28.441,12.113-12.551,21.363-27.574,27.121-44.039,2.488-6.934,2.867-14.453,1.078-21.602-1.18-4.324-3.82-8.109-7.473-10.715-3.652-2.602-8.094-3.859-12.566-3.562-6.102,1.336-11.539,4.777-15.359,9.719-19.016,20.07-40.461,37.684-63.84,52.441-22.824,14.242-41.461,34.289-54.004,58.094-12.543,23.801-18.547,50.504-17.398,77.383.219,9.168,1.062,18.309,2.519,27.363-23.395-5.356-46.312-12.621-68.52-21.723v-5.641c1.176-26.855-4.789-53.543-17.293-77.344-12.5-23.801-31.086-43.859-53.867-58.133-23.379-14.758-44.824-32.371-63.84-52.441-3.793-4.918-9.184-8.356-15.238-9.719-4.477-.297-8.914.961-12.566,3.562-3.652,2.606-6.293,6.391-7.473,10.715-1.789,7.148-1.414,14.668,1.078,21.602,5.719,16.453,14.93,31.477,27,44.039,7.895,8.617,14.707,18.168,20.281,28.441,6.48,13.199,5.039,25.32,0,29.398s-12.84,1.078-21.84-6.84c-33-28.68-53.762-68.879-72-104.16-2.281-4.32-4.801-10.68-7.801-18-12.84-31.559-32.039-79.199-66.719-70.922-.961,0-1.68.719-2.52.961C72.682,406.199,18.322,323.637,12.682,246.837,6.561,166.321,65.959,49.557,151.282,19.197c45.48-16.199,93.359-2.16,125.4,12,27.582,13.738,52.301,32.59,72.84,55.559,14.211,14.906,29.535,28.707,45.84,41.281,6.602,4.922,13.559,9.359,20.398,13.559h.004c10.945,6.523,21.266,14.035,30.84,22.441,14.531,12.746,24.309,30.051,27.719,49.078-1.305-.273-2.629-.477-3.961-.598-7.277-.188-14.457,1.699-20.703,5.441-6.246,3.738-11.301,9.176-14.574,15.68-16.922,26.641-10.801,57.719-3.121,87.359,1.68,6.719,3.359,13.441,4.801,20.281-26.398,29.762-70.68,66.602-112.2,75.961v-.004c-3.316.367-5.707,3.348-5.34,6.66.363,3.312,3.344,5.707,6.66,5.34h1.32c41.16-9.238,84-43.441,112.56-73.199l1.199,5.641c3.359,16.441,7.078,33.359,12,49.922v-.004c-17.832,4.394-35.133,10.711-51.602,18.84l-6.961,3.121c-36.602,16.441-61.078,37.559-72.719,63.121-1.352,3.016-.008,6.555,3,7.918.832.176,1.691.176,2.523,0,2.363.031,4.523-1.332,5.52-3.481,10.441-22.801,32.879-42,66.719-57.121l6.961-3.121c21.238-9.602,48-21.602,69.719-19.68v.004c1.562.203,3.141-.23,4.379-1.199,1.242-.969,2.043-2.394,2.223-3.961.277-3.273-2.129-6.164-5.402-6.481-3.992-.328-8.004-.328-12,0-4.801-16.559-8.519-33.84-12-50.641-2.762-13.441-5.762-27.48-9.238-40.922-7.078-27-12.719-55.32,1.559-77.879,2.215-4.527,5.617-8.371,9.844-11.117,4.227-2.75,9.117-4.297,14.156-4.48,15.516,3.367,28.285,14.332,33.961,29.16,19.531,45.684,31.02,94.402,33.961,144,3.273,24.383,1.723,49.172-4.562,72.961-7.477,22.324-21.621,41.816-40.527,55.852-18.902,14.035-41.656,21.93-65.191,22.625h-1.32c-3.312,0-6,2.688-6,6s2.688,6,6,6h1.32c26.156-.613,51.492-9.254,72.57-24.75,21.078-15.5,36.883-37.105,45.27-61.887.961-3.121,1.801-6.121,2.519-9.238v-.004c13.809,1.922,27.148,6.356,39.359,13.082,4.199,15,8.519,30,13.441,44.762v-.004c.816,2.426,3.082,4.062,5.641,4.082h1.922-.004c3.148-1.031,4.867-4.414,3.84-7.562-16.051-48.734-28.09-98.699-36-149.4-5.32-25.492-5.688-51.77-1.078-77.398,4.574-24.906,21.273-45.883,44.52-55.922,27.359-9.719,58.199,2.879,87.359,16.441l74.52,34.801v-.004c2.543,1.207,5.578.488,7.309-1.73,1.727-2.219,1.684-5.34-.109-7.508-3.762-4.82-5.25-11.035-4.078-17.039,1.231-7.602,5.582-14.348,12-18.602,6.492-3.57,13.875-5.184,21.262-4.652,7.391.531,14.465,3.191,20.379,7.652,12.52,9.844,21.426,23.559,25.32,39,6.703,22.926,4.957,47.496-4.922,69.242l-.128.005Z"/>
</svg>