<?xml version="1.0" encoding="UTF-8"?>
<svg id="Layer_1" data-name="Layer 1" xmlns="http://www.w3.org/2000/svg" viewBox="0 0 960 959.998">
  <path d="M959.059,235.592c-.441-1.098-1.02-2.113-1.758-3.039-.152-.191-.266-.398-.43-.578-.762-.844-1.617-1.609-2.613-2.219-.223-.137-.477-.195-.703-.312-.117-.062-.184-.172-.305-.23L485.25,1.213c-3.305-1.617-7.195-1.617-10.5,0L6.75,229.213c-.117.059-.188.168-.301.23-.23.121-.48.18-.707.316-.996.609-1.852,1.375-2.613,2.219-.164.184-.273.387-.43.578-.738.926-1.32,1.941-1.758,3.039-.109.277-.238.531-.332.816-.363,1.152-.609,2.344-.609,3.586v468c0,4.5,2.52,8.625,6.527,10.676l468,240c.152.078.332.047.484.117,1.598.73,3.273,1.207,4.988,1.207s3.391-.477,4.984-1.207c.156-.07.332-.039.484-.117l468-240c4.012-2.051,6.531-6.176,6.531-10.676V239.998c0-1.242-.246-2.434-.609-3.586-.09-.285-.223-.539-.332-.82h0ZM479.999,25.342l441.17,214.93-205.37,105.32L283.509,121.072,479.999,25.342ZM479.999,466.512L38.829,240.272l217.82-106.12,432.96,224.87-209.61,107.49ZM23.999,259.632l444,227.69v441.03L23.999,700.662v-441.03ZM935.999,700.662l-444,227.69v-441.03l444-227.69v441.03Z"/>
  <path d="M95.779,571.622l95.391,48.922c1.746.902,3.621,1.324,5.461,1.324,4.359,0,8.566-2.379,10.688-6.519,3.023-5.898.703-13.133-5.203-16.152l-95.391-48.922c-5.859-3.027-13.125-.691-16.148,5.199-3.023,5.894-.703,13.129,5.203,16.148h0Z"/>
  <path d="M237.479,700.702l-130.75-67.043c-5.859-3.027-13.125-.691-16.148,5.203-3.023,5.894-.691,13.125,5.203,16.148l130.75,67.043c1.746.902,3.621,1.324,5.461,1.324,4.359,0,8.566-2.379,10.688-6.527,3.023-5.894.691-13.121-5.203-16.148h0Z"/>
</svg>