<?xml version="1.0" encoding="UTF-8"?>
<svg id="Layer_1" data-name="Layer 1" xmlns="http://www.w3.org/2000/svg" viewBox="0 0 326.131 1113.247">
  <defs>
    <style>
      .cls-1 {
        fill: #4894fc;
      }
    </style>
  </defs>
  <rect x="161.106" width="1" height="0"/>
  <polygon class="cls-1" points="157.741 538.137 94.407 526.104 34.407 580.193 9.074 766.531 69.741 770.86 85.585 749.527 255.741 752.193 276.407 770.86 317.741 770.86 283.563 563.527 231.074 526.104 157.741 538.137"/>
  <path d="M305.428,594.839c-7.359-36.203-33.066-66.422-67.09-78.867-7.934-2.883-16.66-2.367-24.555,1.492-1.34.656-2.82,1.281-4.406,1.871v-17.941c18.453-12.973,33.398-32.879,43.031-55.43,1.422.34,2.824.754,4.301.918,1.371.152,2.742.223,4.098.223,17.547,0,33.043-12.363,36.215-29.613,1.676-9.102-.398-18.145-5.84-25.473-.043-.059-.105-.102-.148-.16,2.312-7.418,3.613-15.688,3.613-25.168v-18.867c0-61.477-53.668-111.49-119.62-111.49h-23.914c-65.957,0-119.62,50.016-119.62,111.49v18.867c0,9.48,1.301,17.75,3.613,25.168-.043.059-.105.102-.148.16-5.445,7.324-7.516,16.371-5.84,25.473,3.176,17.25,18.668,29.613,36.223,29.613,1.352,0,2.719-.078,4.094-.223,1.473-.16,2.871-.578,4.293-.918,9.633,22.547,24.578,42.453,43.031,55.426v17.945c-1.586-.59-3.059-1.215-4.398-1.871-7.891-3.859-16.617-4.394-24.562-1.488-34.047,12.445-59.758,42.684-67.258,79.887L.083,768.563c-.402,3.398.668,6.809,2.949,9.375.484.543,1.152.82,1.715,1.262l-.445,3.707c-1.203,10.043,1.957,20.133,8.66,27.68,6.707,7.559,16.348,11.895,26.453,11.895h15.867v221.32c0,2.535.348,4.961.859,7.32-18.344,7.387-31.359,25.297-31.359,46.258,0,8.754,7.117,15.867,15.871,15.867h101.09c8.754,0,15.871-7.113,15.871-15.867v-16.723c0-8.812-3.508-16.781-9.129-22.73,1.914-4.156,3.098-8.789,3.094-13.738l5.859-180.66c.078-2.297,2.652-4.231,5.633-4.231s5.555,1.934,5.625,4.231l5.859,180.27c0,5.102,1.199,9.84,3.137,14.074-5.648,5.953-9.172,13.949-9.172,22.781v16.723c0,8.754,7.117,15.867,15.871,15.867h101.09c8.754,0,15.871-7.113,15.871-15.867,0-20.961-13.02-38.875-31.367-46.262.512-2.355.859-4.781.859-7.316l-.023-221.32h15.895c10.109,0,19.746-4.336,26.453-11.895,6.703-7.547,9.859-17.637,8.66-27.68l-.445-3.707c.562-.441,1.234-.719,1.715-1.262,2.277-2.566,3.352-5.977,2.949-9.375l-20.461-172.74c-.031-.332-.082-.656-.148-.98h-.011ZM260.182,422.959c1.703-6.777,2.859-13.641,3.566-20.484.371.008.742.02,1.117.062,2.965.324,5.473,1.676,7.055,3.801,1.008,1.355,2.086,3.633,1.5,6.801-1.07,5.805-6.969,10.129-13.238,9.82h0ZM52.702,413.143c-.586-3.172.492-5.449,1.5-6.801,1.582-2.129,4.09-3.48,7.047-3.801.375-.043.746-.055,1.121-.062.707,6.844,1.863,13.703,3.566,20.48-6.215.285-12.164-4.027-13.234-9.816h0ZM64.804,360.694c-1.352,6.051-2.121,12.027-2.625,17.945-1.184.012-2.355-.09-3.547.043-.684.074-1.32.309-1.992.426-.688-3.773-1.16-7.801-1.16-12.414v-18.867c0-48.246,42.895-87.492,95.625-87.492h23.914c52.73,0,95.625,39.246,95.625,87.492v18.867c0,4.609-.473,8.641-1.16,12.414-.676-.113-1.312-.352-1.996-.426-1.188-.125-2.355-.023-3.535-.031-.496-5.875-1.262-11.801-2.633-17.949-1.207-5.422-5.973-9.297-11.52-9.391-28.738-.461-55.863-12.984-72.562-33.492-6.98-8.559-21.363-8.578-28.355.008-16.953,20.805-43.398,33.016-72.562,33.484-5.547.09-10.305,3.969-11.516,9.383h0ZM85.585,388.85c0-4.645.332-9.309,1.016-14.078,29.973-2.762,57.145-15.773,76.461-36.691,19.312,20.918,46.488,33.93,76.457,36.691.684,4.781,1.02,9.445,1.02,14.078,0,53.496-37.652,104.07-77.473,104.07s-77.48-50.574-77.48-104.07h0ZM140.745,513.44c7.141,2.219,14.586,3.492,22.32,3.492s15.172-1.269,22.312-3.488v11.309c-7.031.875-14.605,1.352-22.32,1.352s-15.285-.477-22.312-1.352v-11.313ZM44.202,599.667c5.703-28.113,25.559-51.547,51.82-61.141,2.344-.887,4.629-.059,5.785.512,14.391,7.039,36.723,11.07,61.254,11.07s46.867-4.031,61.266-11.07c1.141-.57,3.422-1.371,5.777-.516,26.105,9.547,45.879,32.754,51.715,60.641l18.809,158.81h-24.902c.41-1.367.684-2.785.586-4.242l-7.27-108.34c-.445-6.609-6.215-11.531-12.773-11.168-6.332.426-11.047,5.719-11.059,11.973,0,.281-.125.527-.109.812l6.41,95.531-176.89-.008,6.418-95.531c.02-.285-.105-.531-.109-.812-.016-6.254-4.73-11.547-11.059-11.973-6.727-.352-12.332,4.559-12.773,11.168l-7.277,108.34c-.098,1.457.176,2.875.586,4.242h-24.91l18.705-158.298ZM56.034,798.477h-16.625c-3.297,0-6.316-1.359-8.504-3.82-2.191-2.461-3.176-5.625-2.789-8.894l.457-3.797h28.523l-1.062,16.512ZM133.608,1089.247H50.077c3.066-9.262,11.234-16.172,21.145-17.508,3.312,1.684,6.957,2.66,10.812,2.66h42.793c1.879,0,3.707-.234,5.48-.656,1.98,1.688,3.305,4.113,3.305,6.914l-.004,8.59ZM163.065,835.297c-16.109,0-29.117,12.059-29.621,27.457l-5.863,181.04c0,4.172-2.109,6.445-2.754,6.598h-42.77c-.672-.152-2.785-2.426-2.785-6.598l-.02-232.72,2.875-44.543h161.88l2.836,43.77v233.5c0,4.172-2.105,6.445-2.754,6.598h-42.766c-.668-.152-2.77-2.438-2.777-6.984l-5.863-180.66c-.492-15.398-13.5-27.457-29.613-27.457h-.004ZM276.045,1089.247h-83.531v-8.59c0-2.801,1.324-5.227,3.305-6.914,1.77.422,3.598.656,5.477.656h42.793c3.852,0,7.5-.977,10.812-2.66,9.91,1.336,18.078,8.246,21.145,17.508h0ZM295.217,794.657c-2.184,2.461-5.203,3.82-8.504,3.82h-16.609l-1.062-16.512h28.504l.453,3.797c.395,3.269-.59,6.434-2.781,8.894h0ZM133.927,445.757c0-5.301,4.297-9.598,9.598-9.598,5.133,0,9.324,4.023,9.586,9.086.117.137.402.332.625.512,1.312,1.043,4.363,2.555,9.32,2.555s8.027-1.512,9.348-2.555c.332-.266.633-.523.73-.691,0-5.297,4.227-9.254,9.527-9.254s9.527,4.641,9.527,9.945c0,12.199-12.797,21.75-29.133,21.75s-29.129-9.551-29.129-21.75h0ZM123.29,416.202c-6.215,0-10.902-5.727-10.902-13.32s4.691-13.32,10.902-13.32,10.902,5.727,10.902,13.32-4.688,13.32-10.902,13.32h0ZM191.919,402.878c0-7.594,4.684-13.32,10.898-13.32s10.902,5.727,10.902,13.32-4.688,13.32-10.902,13.32c-6.215.004-10.898-5.723-10.898-13.32ZM146.263,584.508c0-9.273,7.52-16.793,16.793-16.793s16.793,7.519,16.793,16.793-7.52,16.793-16.793,16.793-16.793-7.516-16.793-16.793h0ZM146.263,632.508c0-9.273,7.52-16.793,16.793-16.793s16.793,7.516,16.793,16.793c0,5.66-2.82,10.641-7.109,13.68-2.742,1.941-6.066,3.109-9.684,3.109s-6.941-1.168-9.684-3.109c-4.289-3.039-7.109-8.019-7.109-13.68h0Z"/>
</svg>