<?xml version="1.0" encoding="UTF-8"?>
<svg width="1200pt" height="1200pt" version="1.1" viewBox="0 0 1200 1200" xmlns="http://www.w3.org/2000/svg">
 <path d="m285.75 1200c-38.625 0-75-15.188-102.38-42.562-24-24.188-38.812-55.125-42.562-88.688-32.062-3.75-61.875-18.188-85.125-41.625-28.125-28.125-43.5-65.812-43.312-105.94 0-39.938 15.375-77.625 43.312-105.75 27.375-27.562 63.75-42.562 102.38-42.562 66.375 0 128.81-26.438 175.69-74.438l134.25-137.25c5.25-5.25 12.938-6.9375 19.875-4.125 6.75 2.8125 11.25 9.375 11.438 16.688l0.5625 67.125 60.375-10.688c5.25-0.9375 10.875 0.5625 15 4.125s6.5625 8.625 6.375 14.062l-0.5625 47.062 47.625 8.0625c6.75 1.125 12.188 5.8125 14.25 12.375 2.0625 6.375 0.375 13.5-4.3125 18.375l-134.25 137.25c-47.062 48-72.938 111.94-72.938 180-0.375 81.938-65.625 148.5-145.69 148.5zm177.56-581.81-103.5 105.75c-53.812 54.938-125.44 85.312-201.75 85.312-28.875 0-56.062 11.438-76.688 31.875-21.188 21.188-32.812 49.688-32.625 80.062-0.1875 30.562 11.438 58.875 32.625 80.25 20.625 20.625 47.812 31.875 76.688 31.875 4.875 0 9.375 1.875 12.938 5.25 3.375 3.375 5.25 8.0625 5.25 12.938-0.1875 30.375 11.438 58.875 32.625 80.062 20.625 20.625 47.812 31.875 76.688 31.875 60.188 0 109.12-50.25 109.31-112.12 0-77.625 29.625-150.56 83.438-205.5l110.06-112.5-28.688-4.875c-8.8125-1.5-15.188-9.1875-15.188-18.188l0.375-40.688-60 10.5c-5.25 0.9375-10.688-0.5625-14.812-3.9375s-6.5625-8.4375-6.5625-13.875z"/>
 <path d="m161.62 1069.9c-2.625 0-4.3125-0.1875-4.6875-0.1875-9.9375-0.75-17.625-9.375-16.875-19.5 0.75-9.9375 9.1875-17.25 19.312-16.875 2.25 0.1875 45.375 2.25 78.188-32.438 6.9375-7.3125 18.375-7.6875 25.688-0.75s7.6875 18.375 0.75 25.688c-38.25 40.688-87 44.062-102.38 44.062z"/>
 <path d="m707.25 656.06h-0.75l-66.188-2.8125c-8.625-0.375-15.75-6.75-17.25-15.188l-9.375-57.938-57.188 15.188c-5.8125 1.5-12 0-16.688-3.9375-4.5-3.9375-6.75-9.9375-6-15.938l10.875-87.375c0.5625-3.9375 2.25-7.6875 5.0625-10.5l145.88-149.06c47.062-48 72.938-111.94 72.938-180 0.375-81.938 65.625-148.5 145.69-148.5 38.625 0 75 15.188 102.38 42.562 24 24 38.812 55.125 42.375 88.688 32.062 3.75 61.875 18.188 85.125 41.625 28.125 28.125 43.5 65.812 43.312 105.75 0.1875 39.938-15.188 77.625-43.312 105.75-27.375 27.562-63.75 42.75-102.38 42.75-66.375 0-128.81 26.438-175.69 74.438l-145.88 149.06c-3.375 3.375-8.0625 5.4375-12.938 5.4375zm-50.625-38.625 43.312 1.875 140.25-143.25c53.812-54.938 125.44-85.312 201.75-85.312 28.875 0 56.062-11.438 76.688-31.875 21.188-21.188 32.812-49.688 32.625-80.062 0.1875-30.562-11.438-58.875-32.625-80.25-20.625-20.625-47.812-31.875-76.688-31.875-4.875 0-9.375-1.875-12.938-5.25-3.375-3.375-5.25-8.0625-5.25-12.938 0.1875-30.375-11.438-58.875-32.625-80.062-20.625-20.625-47.812-31.875-76.688-31.875-60.188 0-109.12 50.25-109.31 112.12 0 77.625-29.625 150.56-83.438 205.5l-141.56 144.56-6.75 54.562 50.625-13.312c4.875-1.3125 10.312-0.5625 14.625 2.25s7.3125 7.3125 8.0625 12.375z"/>
 <path d="m949.31 204.75c-4.5 0-9-1.6875-12.375-4.875-7.3125-6.9375-7.6875-18.375-0.75-25.688 44.812-47.625 104.62-44.062 107.06-43.875 9.9375 0.75 17.625 9.375 16.875 19.5-0.75 9.9375-9.375 17.25-19.312 16.875-2.25-0.1875-45.375-2.25-78.188 32.438-3.75 3.75-8.4375 5.625-13.312 5.625z"/>
 <path d="m680.06 915.94c-8.4375 0-16.125-6-17.812-14.625l-14.625-74.625c-1.875-9.9375 4.5-19.5 14.438-21.375 9.9375-2.0625 19.312 4.5 21.375 14.438l14.625 74.625c1.875 9.9375-4.5 19.5-14.438 21.375-1.3125 0-2.4375 0.1875-3.5625 0.1875z"/>
 <path d="m824.06 847.12c-4.6875 0-9.375-1.875-12.938-5.4375l-55.875-57.188c-6.9375-7.125-6.9375-18.75 0.1875-25.688 7.125-7.125 18.75-6.9375 25.688 0.375l55.875 57.188c6.9375 7.125 6.9375 18.75-0.1875 25.688-3.5625 3.375-8.0625 5.0625-12.75 5.0625z"/>
 <path d="m891.38 699.94c-1.125 0-2.4375-0.1875-3.75-0.375l-73.125-15c-9.9375-2.0625-16.125-11.625-14.25-21.375 2.0625-9.75 11.625-16.125 21.375-14.25l73.125 15c9.9375 2.0625 16.125 11.625 14.25 21.375-1.5 8.625-9.1875 14.625-17.625 14.625z"/>
 <path d="m381.75 551.44c-1.125 0-2.4375-0.1875-3.75-0.375l-73.125-15c-9.9375-2.0625-16.125-11.625-14.25-21.375 2.0625-9.75 11.625-16.125 21.375-14.25l73.125 15c9.9375 2.0625 16.125 11.625 14.25 21.375-1.6875 8.625-9.1875 14.625-17.625 14.625z"/>
 <path d="m431.81 446.44c-4.6875 0-9.375-1.875-12.938-5.4375l-55.875-57.188c-6.9375-7.125-6.9375-18.75 0.1875-25.688s18.75-6.9375 25.688 0.375l55.875 57.188c6.9375 7.125 6.9375 18.75-0.1875 25.688-3.5625 3.375-8.0625 5.0625-12.75 5.0625z"/>
 <path d="m534.56 395.06c-8.4375 0-16.125-6-17.812-14.625l-14.625-74.625c-1.875-9.9375 4.5-19.5 14.438-21.375 9.75-1.875 19.5 4.5 21.375 14.438l14.625 74.625c1.875 9.9375-4.5 19.312-14.438 21.375-1.125 0.1875-2.25 0.1875-3.5625 0.1875z"/>
</svg>
