<?xml version="1.0" encoding="UTF-8"?>
<svg width="1200pt" height="1200pt" version="1.1" viewBox="0 0 1200 1200" xmlns="http://www.w3.org/2000/svg">
 <path d="m1077.6 682.12-140.12-40.031v-39.113c33.406-14.605 61.832-38.621 81.812-69.121 19.977-30.496 30.641-66.152 30.688-102.61v-2.6641c21.016-5.3281 38.672-19.539 48.367-38.93 9.6992-19.391 10.477-42.043 2.1328-62.051-8.3477-20.012-24.988-35.398-45.586-42.156l23.832-83.492h-0.003906c6.5-22.535 4.2734-46.688-6.2422-67.652l-3.2617-6.543c-25.727-51.445-69.707-91.453-123.36-112.2-53.645-20.75-113.1-20.75-166.75 0-53.648 20.746-97.633 60.754-123.36 112.2l-3.2266 6.4883c-10.527 20.969-12.777 45.137-6.2969 67.688l23.852 83.492h-0.003906c-20.609 6.75-37.266 22.137-45.617 42.148-8.3555 20.016-7.5781 42.676 2.1211 62.074 9.6992 19.398 27.367 33.613 48.391 38.934v2.6641c0.046875 36.457 10.711 72.113 30.688 102.61 19.98 30.5 48.406 54.516 81.812 69.121v39.113l-140.12 40.031c-16.859 4.8438-32.848 12.312-47.383 22.125-14.555-9.793-30.547-17.258-47.398-22.125l-140.1-40.031v-39.113c33.406-14.605 61.832-38.621 81.812-69.121 19.977-30.496 30.641-66.152 30.688-102.61v-2.6641c21.016-5.3281 38.672-19.539 48.367-38.93 9.6992-19.391 10.477-42.043 2.1328-62.051-8.3477-20.012-24.988-35.398-45.586-42.156l23.832-83.492h-0.003906c6.5-22.535 4.2734-46.688-6.2422-67.652l-3.2617-6.5625c-25.727-51.445-69.707-91.449-123.36-112.2-53.645-20.75-113.1-20.75-166.75 0-53.648 20.75-97.633 60.754-123.36 112.2l-3.2812 6.5273c-10.531 20.969-12.781 45.133-6.3008 67.688l23.852 83.492c-20.602 6.7617-37.238 22.152-45.578 42.168-8.3398 20.012-7.5547 42.664 2.1445 62.055 9.7031 19.387 27.363 33.594 48.383 38.914v2.6641c0.046875 36.457 10.711 72.113 30.688 102.61 19.98 30.5 48.406 54.516 81.812 69.121v39.113l-140.12 40.031c-35.199 10.184-66.148 31.5-88.215 60.75-22.062 29.254-34.051 64.871-34.168 101.51v336.86c0 4.9727 1.9766 9.7422 5.4922 13.258 3.5156 3.5156 8.2852 5.4922 13.258 5.4922h1162.5c4.9727 0 9.7422-1.9766 13.258-5.4922 3.5156-3.5156 5.4922-8.2852 5.4922-13.258v-336.86c-0.11719-36.641-12.105-72.258-34.168-101.51-22.066-29.25-53.016-50.566-88.215-60.75zm-27.617-358.33c11.582 6.7031 18.715 19.074 18.715 32.457s-7.1328 25.754-18.715 32.457zm-525 0c11.582 6.7031 18.715 19.074 18.715 32.457s-7.1328 25.754-18.715 32.457zm150 64.914c-11.582-6.7031-18.715-19.074-18.715-32.457s7.1328-25.754 18.715-32.457zm7.293-197.06c-3.8906-13.535-2.5508-28.039 3.75-40.633l3.2266-6.4883c21.551-43.09 58.391-76.598 103.33-93.977s94.738-17.379 139.67 0c44.938 17.379 81.781 50.887 103.33 93.977l3.2617 6.543v0.003906c6.3047 12.578 7.6445 27.07 3.75 40.594l-25.762 90.207c-100.71 2.9062-177.7-25.969-234.38-88.125v-0.003906c-3.5-3.9102-8.4805-6.1719-13.727-6.2422h-0.58203c-5.4922 0.17188-10.629 2.7422-14.062 7.0312l-52.293 65.383zm30.207 239.61v-124.67l41.945-52.5c8.1094 31.102 27.316 58.164 54 76.086l6.1484 4.1055c5.5742 3.7188 12.707 4.1797 18.715 1.2148 6.0039-2.9688 9.9727-8.9141 10.406-15.602 0.42969-6.6836-2.7344-13.094-8.3086-16.812l-6.1484-4.1055c-16.012-10.75-28.324-26.168-35.27-44.156 60.75 44.531 134.72 67.305 210 64.648 2.8125 0 5.7578-0.20703 8.6055-0.24219v112.03c0 53.59-28.59 103.11-75 129.9-46.41 26.797-103.59 26.797-150 0-46.41-26.793-75-76.312-75-129.9zm187.5 183.75v22.5c0 13.398-7.1484 25.777-18.75 32.477-11.602 6.6992-25.898 6.6992-37.5 0-11.602-6.6992-18.75-19.078-18.75-32.477v-22.5c24.746 5.0508 50.254 5.0508 75 0zm-750-226.29c-11.582-6.7031-18.715-19.074-18.715-32.457s7.1328-25.754 18.715-32.457zm7.293-197.06c-3.8906-13.535-2.5508-28.039 3.75-40.633l3.2266-6.4883c21.551-43.09 58.391-76.598 103.33-93.977s94.738-17.379 139.67 0c44.938 17.379 81.781 50.887 103.33 93.977l3.2617 6.5625c6.3047 12.582 7.6445 27.074 3.75 40.594l-19.5 68.27-52.293-65.383v0.003906c-3.4336-4.293-8.5742-6.8633-14.062-7.0312-5.5-0.24609-10.812 2.0078-14.457 6.1289-56.586 62.25-133.35 91.145-234.38 88.219zm30.207 239.61v-111.96c2.8516 0 5.793 0.24219 8.6055 0.24219v0.003906c75.277 2.6523 149.25-20.121 210-64.652-6.9453 17.992-19.258 33.406-35.27 44.156l-6.1484 4.1055c-4.1367 2.7617-7.0078 7.0508-7.9844 11.93-0.97266 4.875 0.03125 9.9414 2.7891 14.078 2.7617 4.1367 7.0508 7.0078 11.93 7.9844 4.875 0.97266 9.9414-0.03125 14.078-2.7891l6.1484-4.1055v-0.003906c26.68-17.926 45.887-44.984 54-76.086l41.852 52.426v124.67c0 53.59-28.59 103.11-75 129.9-46.41 26.797-103.59 26.797-150 0-46.41-26.793-75-76.312-75-129.9zm187.5 183.75v22.5c0 13.398-7.1484 25.777-18.75 32.477-11.602 6.6992-25.898 6.6992-37.5 0-11.602-6.6992-18.75-19.078-18.75-32.477v-22.5c24.746 5.0508 50.254 5.0508 75 0zm-262.5 547.27h-75v-187.27h75zm412.5-317.89v318.11h-375v-206.25c0-4.9727-1.9766-9.7422-5.4922-13.258-3.5156-3.5156-8.2852-5.4922-13.258-5.4922h-93.75v-93.113c0.074219-28.508 9.3906-56.223 26.551-78.988 17.16-22.766 41.238-39.352 68.625-47.273l141.73-40.48c13.672 21.648 37.488 34.773 63.094 34.773s49.422-13.125 63.094-34.773l141.71 40.48c9.7031 2.8203 19.047 6.7539 27.844 11.719-28.926 31.141-45.047 72.043-45.148 114.54zm112.5 317.89h-75v-187.27h75zm525 0.22656h-75v-187.5h75zm0-225h-93.75c-4.9727 0-9.7422 1.9766-13.258 5.4922-3.5156 3.5156-5.4922 8.2852-5.4922 13.258v206.25h-375v-206.25c0-4.9727-1.9766-9.7422-5.4922-13.258-3.5156-3.5156-8.2852-5.4922-13.258-5.4922h-93.75v-93.113c0.089844-28.496 9.4141-56.191 26.574-78.941 17.156-22.754 41.227-39.328 68.602-47.246l141.73-40.48c13.672 21.648 37.488 34.773 63.094 34.773s49.422-13.125 63.094-34.773l141.73 40.406c27.387 7.9219 51.465 24.508 68.625 47.273 17.16 22.766 26.477 50.48 26.551 78.988z"/>
 <path d="m281.25 375c0-6.6992-3.5742-12.887-9.375-16.238-5.8008-3.3477-12.949-3.3477-18.75 0-5.8008 3.3516-9.375 9.5391-9.375 16.238v18.75c0 6.6992 3.5742 12.887 9.375 16.238 5.8008 3.3477 12.949 3.3477 18.75 0 5.8008-3.3516 9.375-9.5391 9.375-16.238z"/>
 <path d="m412.5 412.5c4.9727 0 9.7422-1.9766 13.258-5.4922 3.5156-3.5156 5.4922-8.2852 5.4922-13.258v-18.75c0-6.6992-3.5742-12.887-9.375-16.238-5.8008-3.3477-12.949-3.3477-18.75 0-5.8008 3.3516-9.375 9.5391-9.375 16.238v18.75c0 4.9727 1.9766 9.7422 5.4922 13.258 3.5156 3.5156 8.2852 5.4922 13.258 5.4922z"/>
 <path d="m388.26 519.51c4.5977-4.7656 6.3438-11.598 4.5938-17.984-1.75-6.3867-6.7383-11.375-13.125-13.125-6.3867-1.75-13.219-0.003907-17.984 4.5938-5.3203 8.2266-14.445 13.191-24.242 13.191s-18.922-4.9648-24.242-13.191c-4.7656-4.5977-11.598-6.3438-17.984-4.5938-6.3867 1.75-11.375 6.7383-13.125 13.125-1.75 6.3867-0.003907 13.219 4.5938 17.984 12.934 14.629 31.25 23.379 50.758 24.242 19.508-0.86328 37.824-9.6133 50.758-24.242z"/>
 <path d="m937.5 412.5c4.9727 0 9.7422-1.9766 13.258-5.4922 3.5156-3.5156 5.4922-8.2852 5.4922-13.258v-18.75c0-6.6992-3.5742-12.887-9.375-16.238-5.8008-3.3477-12.949-3.3477-18.75 0-5.8008 3.3516-9.375 9.5391-9.375 16.238v18.75c0 4.9727 1.9766 9.7422 5.4922 13.258 3.5156 3.5156 8.2852 5.4922 13.258 5.4922z"/>
 <path d="m806.25 375c0-6.6992-3.5742-12.887-9.375-16.238-5.8008-3.3477-12.949-3.3477-18.75 0-5.8008 3.3516-9.375 9.5391-9.375 16.238v18.75c0 6.6992 3.5742 12.887 9.375 16.238 5.8008 3.3477 12.949 3.3477 18.75 0 5.8008-3.3516 9.375-9.5391 9.375-16.238z"/>
 <path d="m913.26 519.51c4.5977-4.7656 6.3438-11.598 4.5938-17.984-1.75-6.3867-6.7383-11.375-13.125-13.125-6.3867-1.75-13.219-0.003907-17.984 4.5938-5.3203 8.2266-14.445 13.191-24.242 13.191s-18.922-4.9648-24.242-13.191c-4.7656-4.5977-11.598-6.3438-17.984-4.5938-6.3867 1.75-11.375 6.7383-13.125 13.125-1.75 6.3867-0.003907 13.219 4.5938 17.984 12.391 15.332 31.047 24.242 50.758 24.242s38.367-8.9102 50.758-24.242z"/>
</svg>
