<?xml version="1.0" encoding="UTF-8"?>
<svg id="Layer_1" xmlns="http://www.w3.org/2000/svg" version="1.1" viewBox="0 0 709.8 769.7">
  <!-- Generator: Adobe Illustrator 29.2.1, SVG Export Plug-In . SVG Version: 2.1.0 Build 116)  -->
  <path d="M703.2,756.6h-281.6c-21.5,0-41.8-8.4-57-23.6-15.2-15.2-23.6-35.4-23.6-57v-112c0-3.6,3-6.6,6.6-6.6h305v-266.4c0-42.6-34.3-77.2-76.5-77.2s-77.2,34.6-77.2,77.2-3,6.6-6.6,6.6h-43.2c-3.6,0-6.6-3-6.6-6.6,0-73.7,60-133.6,133.6-133.6s133.5,60,133.5,133.6v458.9c0,1.8-.6,3.4-1.9,4.7-1.2,1.2-2.9,1.9-4.6,1.9h0ZM354.2,570.7v105.4c0,37.2,30.2,67.4,67.4,67.4h275v-452.4c0-66.4-54-120.4-120.4-120.4s-116.8,50.5-120.3,113.9h30.1c3.4-46.8,42.6-83.8,90.2-83.8s46.6,9.4,63.5,26.6c8.2,8.3,14.6,18,19.1,28.8,4.7,11.1,7,22.9,7,35.1v273c0,3.6-3,6.6-6.6,6.6h-305Z"/>
  <path d="M144.8,222.9c-15,0-29.6-3-43.4-8.8-13.3-5.6-25.2-13.7-35.4-23.9-10.2-10.2-18.3-22.2-23.9-35.4-5.8-13.8-8.8-28.3-8.8-43.4C33.3,50,83.3,0,144.8,0s29.7,3,43.4,8.8c13.3,5.6,25.2,13.7,35.4,23.9,10.2,10.2,18.3,22.2,23.9,35.4,5.8,13.7,8.8,28.3,8.8,43.4s-1.6,22.4-4.9,33c-1.1,3.5-4.8,5.4-8.2,4.3-3.5-1.1-5.4-4.8-4.3-8.2,2.9-9.3,4.3-19.1,4.3-29.1,0-54.2-44.1-98.3-98.3-98.3S46.5,57.3,46.5,111.5s44.1,98.3,98.3,98.3,49.3-9.6,67.6-27c2.6-2.5,6.8-2.4,9.3.2,2.5,2.6,2.4,6.8-.2,9.3-20.8,19.8-48,30.6-76.7,30.6h0Z"/>
  <path d="M65.3,769.7c-3.6,0-6.6-3-6.6-6.6v-90.6c-16.7-8.5-30.9-21.2-41.3-36.9-11.4-17.4-17.5-37.7-17.5-58.5v-235.3c0-14.5,2.9-28.5,8.4-41.7,5.4-12.7,13.1-24.2,23-34.1,9.8-9.8,21.3-17.6,34.1-22.9,13.2-5.6,27.2-8.4,41.7-8.4s28.5,2.9,41.8,8.4c12.8,5.4,24.2,13.1,34.1,22.9,9.8,9.8,17.6,21.3,22.9,34.1,5.6,13.2,8.4,27.2,8.4,41.7v43.4c0,3.6-3,6.6-6.6,6.6s-6.6-3-6.6-6.6v-43.4c0-51.8-42.2-94-94-94S13.2,290.1,13.2,341.9v235.3c0,36.5,21.6,70,54.9,85.3,2.4,1.1,3.8,3.4,3.8,6v94.7c0,3.6-2.9,6.6-6.6,6.6h0Z"/>
  <path d="M250.5,539.3c-1.1,0-2.2,0-3.3-.1-12.1-.8-23.2-6.4-31.2-15.6l-133.5-153.6c-2.4-2.7-2.1-6.9.6-9.3,2.7-2.4,6.9-2.1,9.3.6l133.5,153.7c5.7,6.5,13.6,10.5,22.2,11.1s17-2.2,23.5-7.9c2.5-2.2,4.7-4.9,6.7-8.4.8-1.4,2.1-2.4,3.5-2.9l125.5-188.6c4.8-7.2,6.5-15.8,4.8-24.4-1.7-8.5-6.6-15.8-13.8-20.6-7.2-4.8-15.8-6.5-24.4-4.8-8.5,1.7-15.8,6.6-20.6,13.8l-100.9,151.6c-1.2,1.7-3,2.8-5.1,2.9-2,.1-4.1-.7-5.4-2.2l-100.7-115.9c-2.4-2.7-2.1-6.9.6-9.3,2.7-2.4,6.9-2.1,9.3.6l95,109.4,96.1-144.4c6.7-10.2,17-17,29-19.5,11.9-2.4,24.1,0,34.2,6.7,10.2,6.8,17,17,19.5,29,2.4,11.9,0,24.1-6.7,34.2l-127.6,191.9c-.8,1.2-1.9,2-3.1,2.5-2.2,3.1-4.5,5.8-7.2,8.1-8.4,7.3-18.9,11.2-29.9,11.2h0Z"/>
  <path d="M165.9,769.7c-3.6,0-6.6-3-6.6-6.6v-104.4c0-2.1,1-4.1,2.7-5.3,24.5-17.8,39.1-46.3,39.1-76.3v-73c0-3.6,3-6.6,6.6-6.6s6.6,3,6.6,6.6v73c0,17.2-4.2,34.4-12.2,49.6-7.2,13.7-17.4,25.8-29.6,35.3v101.1c0,3.6-3,6.6-6.6,6.6h0Z"/>
  <path d="M246.5,220.9c-1.6,0-3.2-.6-4.4-1.7l-62.1-56.4c-2.7-2.4-2.9-6.6-.5-9.3l35-38.6c1.2-1.3,2.8-2.1,4.6-2.2,1.8,0,3.5.5,4.7,1.7l62.1,56.4c2.7,2.4,2.9,6.6.5,9.3l-35,38.6c-1.2,1.3-2.8,2.1-4.6,2.2,0,0-.2,0-.3,0h0ZM193.7,157.6l52.4,47.5,26.2-28.9-52.4-47.5-26.2,28.9Z"/>
  <path d="M336.5,302.5c-1.6,0-3.2-.6-4.4-1.7l-89.9-81.6c-2.7-2.4-2.9-6.6-.5-9.3,2.4-2.7,6.6-2.9,9.3-.5l89.9,81.6c2.7,2.4,2.9,6.6.5,9.3-1.3,1.4-3.1,2.2-4.9,2.2h0Z"/>
</svg>