<?xml version="1.0" encoding="UTF-8"?>
<svg id="Layer_1" data-name="Layer 1" xmlns="http://www.w3.org/2000/svg" viewBox="0 0 792 1137.6">
  <path d="M768,0H24C10.801,0,0,10.801,0,24v1089.6c0,13.199,10.801,24,24,24h250.8c13.199,0,24-10.801,24-24v-219.6h195.6v219.6c0,13.199,10.801,24,24,24h249.6c13.199,0,24-10.801,24-24V24c-1.199-13.199-10.801-24-24-24h0ZM744,1090.8h-202.8v-219.6c0-13.199-10.801-24-24-24h-242.4c-13.199,0-24,10.801-24,24v219.6H48V46.8h696v1044Z"/>
  <path d="M142.8,777.601h104.4c13.199,0,24-10.801,24-24v-140.4c0-13.199-10.801-24-24-24h-104.4c-13.199,0-24,10.801-24,24v140.4c0,13.203,10.801,24.004,24,24.004v-.004ZM165.601,636.001h56.398v93.602h-56.398v-93.602Z"/>
  <path d="M546,777.601h104.4c13.199,0,24-10.801,24-24v-140.4c0-13.199-10.801-24-24-24h-104.4c-13.199,0-24,10.801-24,24v140.4c0,13.203,10.801,24.004,24,24.004v-.004ZM568.801,636.001h56.398v93.602h-56.398v-93.602Z"/>
  <path d="M546,543.601h104.4c13.199,0,24-10.801,24-24v-140.4c0-13.199-10.801-24-24-24h-104.4c-13.199,0-24,10.801-24,24v140.4c0,13.203,10.801,24.004,24,24.004v-.004ZM568.801,402.001h56.398v94.801h-56.398v-94.801Z"/>
  <path d="M344.4,309.601h104.4c13.199,0,24-10.801,24-24l.004-140.4c0-13.199-10.801-24-24-24h-104.4c-13.199,0-24,10.801-24,24v140.4c-.004,13.203,10.797,24.004,23.996,24.004v-.004ZM367.201,169.201h56.398v93.602h-56.398v-93.602Z"/>
  <path d="M344.4,777.601h104.4c13.199,0,24-10.801,24-24l.004-140.4c0-13.199-10.801-24-24-24h-104.4c-13.199,0-24,10.801-24,24v140.4c-.004,13.203,10.797,24.004,23.996,24.004v-.004ZM367.201,636.001h56.398v93.602h-56.398v-93.602Z"/>
  <path d="M344.4,543.601h104.4c13.199,0,24-10.801,24-24l.004-140.4c0-13.199-10.801-24-24-24h-104.4c-13.199,0-24,10.801-24,24v140.4c-.004,13.203,10.797,24.004,23.996,24.004v-.004ZM367.201,402.001h56.398l.004,94.801h-56.398l-.004-94.801Z"/>
  <path d="M142.8,309.601h104.4c13.199,0,24-10.801,24-24v-140.4c0-13.199-10.801-24-24-24h-104.4c-13.199,0-24,10.801-24,24v140.4c0,13.203,10.801,24.004,24,24.004v-.004ZM165.601,169.201h56.398v93.602h-56.398v-93.602Z"/>
  <path d="M546,309.601h104.4c13.199,0,24-10.801,24-24v-140.4c0-13.199-10.801-24-24-24h-104.4c-13.199,0-24,10.801-24,24v140.4c0,13.203,10.801,24.004,24,24.004v-.004ZM568.801,169.201h56.398v93.602h-56.398v-93.602Z"/>
  <path d="M142.8,543.601h104.4c13.199,0,24-10.801,24-24v-140.4c0-13.199-10.801-24-24-24h-104.4c-13.199,0-24,10.801-24,24v140.4c0,13.203,10.801,24.004,24,24.004v-.004ZM165.601,402.001h56.398v94.801h-56.398v-94.801Z"/>
</svg>