<?xml version="1.0" encoding="UTF-8"?>
<svg id="Layer_1" data-name="Layer 1" xmlns="http://www.w3.org/2000/svg" viewBox="0 0 975.049 835.784">
  <path d="M489.258,673.279h45.281c7.641,0,13.828-6.188,13.828-13.828v-29.812c0-30.516-24.844-55.359-55.359-55.359h-45.281c-7.641,0-13.828,6.188-13.828,13.828v29.812c0,30.516,24.844,55.359,55.359,55.359ZM461.508,601.935h31.453c15.281,0,27.75,12.469,27.75,27.75v15.984h-31.453c-15.281,0-27.75-12.469-27.75-27.75v-15.984ZM713.608,673.279h45.281c30.516,0,55.406-24.844,55.406-55.359v-29.812c0-7.641-6.188-13.828-13.828-13.828h-45.281c-30.516,0-55.359,24.844-55.359,55.359v29.812c0,7.641,6.188,13.828,13.828,13.828h-.047ZM727.436,629.685c0-15.281,12.469-27.75,27.75-27.75h31.5v15.984c0,15.281-12.469,27.75-27.75,27.75h-31.453v-15.984h-.047ZM565.116,588.107c0-7.641,6.188-13.828,13.828-13.828h90.328c7.641,0,13.828,6.188,13.828,13.828s-6.188,13.828-13.828,13.828h-90.328c-7.641,0-13.828-6.188-13.828-13.828ZM565.116,623.779c0-7.641,6.188-13.828,13.828-13.828h90.328c7.641,0,13.828,6.188,13.828,13.828s-6.188,13.828-13.828,13.828h-90.328c-7.641,0-13.828-6.188-13.828-13.828ZM565.116,659.451c0-7.641,6.188-13.828,13.828-13.828h90.328c7.641,0,13.828,6.188,13.828,13.828s-6.188,13.828-13.828,13.828h-90.328c-7.641,0-13.828-6.188-13.828-13.828ZM13.826,835.741h945.28c7.641,0,13.828-6.188,13.828-13.828s-6.188-13.828-13.828-13.828h-146.48c2.25-5.344,3.469-11.156,3.469-17.297v-39.75c29.062-2.625,51.938-27.047,51.938-56.812v-399.37l53.016,18.469v15.094h-12.516c-7.641,0-13.828,6.188-13.828,13.828v87.75c0,7.641,6.188,13.828,13.828,13.828h52.688c7.641,0,13.828-6.188,13.828-13.828v-87.75c0-7.641-6.188-13.828-13.828-13.828h-12.516v-24.891c0-5.859-3.703-11.109-9.281-13.031l-71.391-24.891v-35.812c0-31.453-25.594-57.094-57.047-57.094h-373.74c-31.453,0-57.094,25.594-57.094,57.094v35.812l-71.391,24.891c-5.531,1.922-9.281,7.172-9.281,13.031v24.891h-12.516c-7.641,0-13.828,6.188-13.828,13.828v87.75c0,7.641,6.188,13.828,13.828,13.828h52.688c7.641,0,13.828-6.188,13.828-13.828v-87.75c0-7.641-6.188-13.828-13.828-13.828h-12.516v-15.094l53.016-18.469v399.37c0,29.719,22.875,54.188,51.938,56.812v39.75c0,6.141,1.219,11.953,3.469,17.297h-168.28v-121.6h19.688c7.641,0,13.828-6.188,13.828-13.828v-9.984c0-28.5-23.156-51.656-51.656-51.656h-125.81V115.547h559.36c7.641,0,13.828-6.188,13.828-13.828v-41.391c0-33.281-27.047-60.328-60.328-60.328L13.828.047C6.187.047,0,6.234,0,13.875v41.391c0,27.234,18.188,50.297,43.031,57.75v617.44H13.828c-7.641,0-13.828,6.188-13.828,13.828v77.672c0,7.641,6.188,13.828,13.828,13.828l-.002-.043ZM947.386,416.161h-25.031v-60.141h25.031v60.141ZM325.866,416.161h-25.031v-60.141h25.031v60.141ZM550.206,751.321h147.79v39.516c0,6.141,1.219,11.953,3.469,17.297h-154.78c2.25-5.344,3.469-11.156,3.469-17.297v-39.516h.052ZM742.946,808.133c-9.562,0-17.297-7.781-17.297-17.297v-39.516h62.812v39.516c0,9.562-7.781,17.297-17.297,17.297h-28.218ZM778.712,446.163c-5.391-5.391-14.156-5.391-19.547,0l-54.188,54.188h-67.078v-211.08h202.5v177.1c0,18.75-15.234,33.984-33.984,33.984h-62.344l34.641-34.641c5.391-5.391,5.391-14.156,0-19.547v-.004ZM512.602,500.351l34.641-34.641c5.391-5.391,5.391-14.156,0-19.547-5.391-5.391-14.156-5.391-19.547,0l-54.188,54.188h-31.734c-18.75,0-33.984-15.234-33.984-33.984v-177.1h202.5v211.08l-97.688.004ZM407.792,229.831c0-16.219,13.219-29.438,29.438-29.438h373.74c16.219,0,29.438,13.219,29.438,29.438v31.781h-432.61l-.006-31.781ZM407.792,694.271v-176.58c9.75,6.469,21.422,10.266,33.984,10.266h364.64c12.562,0,24.234-3.797,33.984-10.266v176.58c0,16.219-13.219,29.438-29.438,29.438h-373.74c-16.219,0-29.438-13.219-29.438-29.438h.008ZM459.73,790.833v-39.516h62.812v39.516c0,9.562-7.781,17.297-17.297,17.297h-28.219c-9.516,0-17.297-7.781-17.297-17.297h0ZM239.65,808.13h-15.422v-121.6h15.422v121.6ZM123.31,638.68h125.81c11.953,0,21.891,8.766,23.719,20.203H123.309v-20.203ZM70.669,115.6h25.031v614.86h-25.031V115.56v.04ZM27.638,55.272v-27.562h608.53c18,0,32.672,14.672,32.672,32.672v27.562H60.31c-18,0-32.672-14.672-32.672-32.672h0ZM123.31,686.532h73.312v121.6h-30.234v-63.844c0-7.641-6.188-13.828-13.828-13.828h-29.25v-43.969.041ZM27.638,758.11h111.14v50.016H27.638v-50.016Z"/>
</svg>