<?xml version="1.0" encoding="UTF-8"?>
<svg id="Layer_1" data-name="Layer 1" xmlns="http://www.w3.org/2000/svg" viewBox="0 0 869.052 1074.66">
  <path d="M789.891,530.864v-189.05h-.047c-.094-47.812-86.625-73.641-145.03-85.594v-60.141c0-13.781-11.203-24.984-24.984-24.984h-14.578v-29.438c22.641-5.625,39.562-26.016,39.562-50.391,0-24.516-34.781-76.125-41.766-86.203-4.688-6.75-15.891-6.75-20.578,0-6.984,10.078-41.766,61.734-41.766,86.203s16.922,44.719,39.562,50.391v29.438h-14.578c-13.781,0-24.984,11.203-24.984,24.984v45.609c-17.672-1.547-35.766-2.719-54.141-3.469v-42.141c0-13.781-11.203-24.984-24.984-24.984h-14.578v-29.438c22.641-5.625,39.562-26.016,39.562-50.391,0-24.516-34.781-76.125-41.766-86.203-4.688-6.75-15.891-6.75-20.578,0-6.984,10.078-41.766,61.734-41.766,86.203s16.922,44.719,39.562,50.391v29.438h-14.578c-13.781,0-24.984,11.203-24.984,24.984v42.141c-18.375.75-36.469,1.922-54.141,3.469v-45.609c0-13.781-11.203-24.984-24.984-24.984h-14.578v-29.438c22.641-5.625,39.562-26.016,39.562-50.391,0-24.516-34.781-76.125-41.766-86.203-4.688-6.75-15.891-6.75-20.578,0-6.984,10.078-41.766,61.734-41.766,86.203s16.922,44.719,39.562,50.391v29.438h-14.578c-13.781,0-24.984,11.203-24.984,24.984v60.141c-58.406,11.953-144.98,37.781-145.03,85.594h-.047v189.05C26.859,551.911,0,576.989,0,605.63v342.89c0,81.938,223.87,126.14,434.48,126.14s434.48-44.203,434.48-126.14v-170.53c0-6.891-5.578-12.516-12.516-12.516-6.891,0-12.516,5.578-12.516,12.516v17.719c-9.234,5.438-20.109,10.219-32.672,14.203-15.656,4.969-36.328,3.188-58.266,1.312-21.281-1.828-45.422-3.844-69.609-.188-18.844,2.906-36.75,10.734-55.781,19.031-21.422,9.328-43.547,19.031-66.328,20.531-18.703,1.312-38.953-4.406-60.422-10.266-21.375-5.906-43.5-12.047-66.422-12.047s-45.047,6.094-66.422,12.047c-21.469,5.906-41.812,11.625-60.375,10.266-22.734-1.547-44.859-11.203-66.188-20.531-18.188-7.969-37.031-16.172-55.922-19.078-24.094-3.656-48.234-1.641-69.516.188-21.938,1.828-42.656,3.609-58.219-1.312-12.281-3.844-23.203-8.672-32.766-14.344v-145.45c63.984,53.297,240.89,81.656,409.5,81.656s345.52-28.359,409.5-81.656v13.641c0,6.891,5.578,12.516,12.516,12.516,6.891,0,12.516-5.578,12.516-12.516v-58.125c0-28.641-26.812-53.719-79.125-74.766l-.036.043ZM565.681,91.224c0-8.953,12.703-33.562,27.047-56.391,14.344,22.828,27.047,47.438,27.047,56.391,0,14.906-12.141,27.047-27.047,27.047s-27.047-12.141-27.047-27.047ZM407.421,91.224c0-8.953,12.703-33.562,27.047-56.391,14.344,22.828,27.047,47.438,27.047,56.391,0,14.906-12.141,27.047-27.047,27.047s-27.047-12.141-27.047-27.047ZM249.161,91.224c0-8.953,12.703-33.562,27.047-56.391,14.344,22.828,27.047,47.438,27.047,56.391,0,14.906-12.141,27.047-27.047,27.047s-27.047-12.141-27.047-27.047ZM764.841,478.464c-7.359,5.016-16.266,9.234-26.719,12.516-11.391,3.516-27.469,1.125-44.484-1.406-18.141-2.719-38.719-5.812-59.297-2.672-16.219,2.484-31.828,10.547-46.969,18.375-16.547,8.531-33.609,17.391-50.766,18.562-13.969.984-29.859-4.594-46.594-10.453-17.766-6.234-36.188-12.656-55.594-12.656s-37.781,6.422-55.547,12.609c-16.781,5.859-32.578,11.484-46.688,10.453-17.156-1.172-34.219-10.031-50.719-18.562-15.094-7.828-30.703-15.891-46.922-18.375-20.672-3.234-41.297-.094-59.531,2.672-16.969,2.531-33,4.969-44.25,1.453-10.453-3.328-19.359-7.547-26.766-12.562v-96c55.828,41.906,196.36,64.125,330.37,64.125s274.6-22.219,330.37-64.125v96l.106.046ZM104.101,507.198c5.953,2.906,12.328,5.484,19.266,7.688,16.781,5.203,35.578,2.391,55.453-.609,17.25-2.578,35.062-5.297,52.031-2.672,12.141,1.828,25.266,8.672,39.188,15.891,17.859,9.281,38.156,19.781,60.516,21.328,1.594.094,3.141.141,4.734.141,17.578,0,34.969-6.094,51.844-11.953,16.547-5.766,32.156-11.203,47.344-11.203s31.547,5.719,47.344,11.25c18.375,6.422,37.359,12.938,56.484,11.812,22.359-1.547,42.656-12.047,60.562-21.328,13.922-7.219,27.094-14.016,39.234-15.844,16.875-2.578,34.641.141,51.844,2.672,19.969,3,38.812,5.859,55.641.562,6.891-2.156,13.266-4.781,19.219-7.641v58.781c0,33.328-125.68,79.828-330.37,79.828s-330.37-46.5-330.37-79.828v-58.781l.036-.094ZM565.681,196.038h54.141v133.26h-54.141v-133.26ZM407.421,196.038h54.141l.047,133.26h-54.141v-133.26h-.047ZM249.161,196.038h54.141v133.26h-54.141v-133.26ZM224.13,281.726v47.531c0,13.781,11.203,24.984,24.984,24.984h54.141c13.781,0,24.984-11.203,24.984-24.984v-62.531c17.672-1.594,35.719-2.766,54.141-3.516v66.094c0,13.781,11.203,24.984,24.984,24.984h54.141c13.781,0,24.984-11.203,24.984-24.984v-66.094c18.375.797,36.469,1.969,54.141,3.516v62.531c0,13.781,11.203,24.984,24.984,24.984h54.141c13.781,0,24.984-11.203,24.984-24.984v-47.531c82.734,17.578,120.05,42.469,120.05,60.094,0,33.281-125.68,79.734-330.37,79.734s-330.37-46.453-330.37-79.734c0-17.672,37.312-42.516,120.05-60.094h.031ZM50.23,833.726c20.25,6.422,43.406,4.453,67.875,2.391,20.906-1.734,42.469-3.609,63.656-.375,15.656,2.391,32.203,9.656,49.688,17.297,23.344,10.172,47.438,20.719,74.531,22.547,2.297.141,4.594.234,6.844.234,20.719,0,41.578-5.766,61.828-11.344,19.781-5.484,40.219-11.109,59.766-11.109s39.984,5.672,59.766,11.109c22.5,6.234,45.703,12.562,68.719,11.156,27.094-1.828,51.281-12.375,74.672-22.594,17.484-7.641,33.984-14.859,49.547-17.25,21.234-3.188,42.844-1.406,63.75.375,24.469,2.062,47.531,4.031,67.922-2.391,9.047-2.859,17.438-6.141,25.172-9.75v124.5c0,47.812-168.19,101.11-409.5,101.11S24.965,996.336,24.965,948.523v-124.6c7.875,3.75,16.266,7.031,25.266,9.844l-.002-.04ZM434.47,706.746c-241.31,0-409.5-53.297-409.5-101.11,0-15.469,19.5-32.531,54.094-47.766v8.156c0,68.062,183.1,104.81,355.4,104.81s355.4-36.703,355.4-104.81v-8.156c34.594,15.281,54.094,32.297,54.094,47.766,0,47.812-168.19,101.11-409.5,101.11h.012ZM868.95,709.465v22.875c0,6.891-5.578,12.516-12.516,12.516-6.891,0-12.516-5.578-12.516-12.516v-22.875c0-6.891,5.578-12.516,12.516-12.516,6.891,0,12.516,5.578,12.516,12.516ZM184.48,562.095c0-6.891,5.578-12.516,12.516-12.516,6.891,0,12.516,5.578,12.516,12.516,0,6.891-5.578,12.516-12.516,12.516-6.891,0-12.516-5.578-12.516-12.516ZM71.98,924.625c0-6.891,5.578-12.516,12.516-12.516,6.891,0,12.516,5.578,12.516,12.516,0,6.891-5.578,12.516-12.516,12.516-6.891,0-12.516-5.578-12.516-12.516ZM434.46,574.605c0-6.891,5.578-12.516,12.516-12.516,6.891,0,12.516,5.578,12.516,12.516,0,6.891-5.578,12.516-12.516,12.516-6.891,0-12.516-5.578-12.516-12.516ZM546.96,974.585c0-6.891,5.578-12.516,12.516-12.516,6.891,0,12.516,5.578,12.516,12.516,0,6.891-5.578,12.516-12.516,12.516-6.891,0-12.516-5.578-12.516-12.516ZM709.48,574.605c0-6.891,5.578-12.516,12.516-12.516,6.891,0,12.516,5.578,12.516,12.516,0,6.891-5.578,12.516-12.516,12.516-6.891,0-12.516-5.578-12.516-12.516ZM321.96,599.589c0-6.891,5.578-12.516,12.516-12.516,6.891,0,12.516,5.578,12.516,12.516,0,6.891-5.578,12.516-12.516,12.516-6.891,0-12.516-5.578-12.516-12.516h0ZM421.944,924.619c0-6.891,5.578-12.516,12.516-12.516,6.891,0,12.516,5.578,12.516,12.516,0,6.891-5.578,12.516-12.516,12.516-6.891,0-12.516-5.578-12.516-12.516ZM321.96,974.588c0-6.891,5.578-12.516,12.516-12.516,6.891,0,12.516,5.578,12.516,12.516,0,6.891-5.578,12.516-12.516,12.516-6.891,0-12.516-5.578-12.516-12.516ZM184.48,899.588c0-6.891,5.578-12.516,12.516-12.516,6.891,0,12.516,5.578,12.516,12.516,0,6.891-5.578,12.516-12.516,12.516-6.891,0-12.516-5.578-12.516-12.516ZM621.96,562.088c0-6.891,5.578-12.516,12.516-12.516,6.891,0,12.516,5.578,12.516,12.516,0,6.891-5.578,12.516-12.516,12.516-6.891,0-12.516-5.578-12.516-12.516ZM759.44,924.618c0-6.891,5.578-12.516,12.516-12.516,6.891,0,12.516,5.578,12.516,12.516,0,6.891-5.578,12.516-12.516,12.516-6.891,0-12.516-5.578-12.516-12.516ZM534.44,599.588c0-6.891,5.578-12.516,12.516-12.516,6.891,0,12.516,5.578,12.516,12.516,0,6.891-5.578,12.516-12.516,12.516-6.891,0-12.516-5.578-12.516-12.516ZM671.97,899.588c0-6.891,5.578-12.516,12.516-12.516,6.891,0,12.516,5.578,12.516,12.516,0,6.891-5.578,12.516-12.516,12.516-6.891,0-12.516-5.578-12.516-12.516Z"/>
</svg>