<?xml version="1.0" encoding="UTF-8"?>
<svg width="1200pt" height="1200pt" version="1.1" viewBox="0 0 1200 1200" xmlns="http://www.w3.org/2000/svg">
 <path d="m47.109 316.64c-1.6875-139.08 95.203-224.72 218.86-264.47 51.281-16.5 103.12 9.2344 127.22 55.969l73.219 141.89c52.547 101.91-34.266 134.44-77.344 198.66-7.0312 10.453-12.375 19.266-11.531 20.719 90.938 154.5 198.52 262.08 353.02 353.02 7.2656 4.2656 64.594-49.219 68.438-53.109 48.188-48.469 85.406-69.562 150.94-35.766l141.89 73.219c46.688 24.094 72.422 75.938 55.969 127.22-39.75 123.66-125.39 220.55-264.47 218.86-331.26-4.0312-832.13-504.89-836.21-836.21zm591.66 135.28c60.375 0 109.31 48.938 109.31 109.31 0 45.516 69.141 45.516 69.141 0 0-98.531-79.875-178.45-178.45-178.45-45.516 0.046875-45.516 69.141 0 69.141zm0-167.86c153.1 0 277.18 124.08 277.18 277.18 0 45.516 69.141 45.516 69.141 0 0-191.26-155.06-346.31-346.31-346.31-45.516 0.046875-45.516 69.141 0 69.141zm0-167.86c245.81 0 445.03 199.22 445.03 445.03 0 45.516 69.141 45.516 69.141 0 0-283.97-230.21-514.18-514.18-514.18-45.516 0.046875-45.516 69.141 0 69.141zm-482.02 81.469c-229.13 271.82 573.74 1074.7 845.58 845.58 36.891-31.078 63-77.672 79.922-130.26 5.9531-18.469-5.0625-36.141-21.938-44.859l-141.89-73.219c-30.516-15.75-38.109-9.4688-70.5 23.062-34.078 34.266-98.297 95.625-152.16 63.891-165.89-97.688-279.94-211.74-377.63-377.63-44.109-74.906 84.234-158.16 94.641-191.02 2.2969-7.2188 0-16.734-7.6875-31.594l-73.219-141.89c-8.7188-16.875-26.438-27.844-44.859-21.938-52.547 16.875-99.141 42.984-130.26 79.875z" fill-rule="evenodd"/>
</svg>
