<?xml version="1.0" encoding="UTF-8"?>
<svg id="Layer_1" data-name="Layer 1" xmlns="http://www.w3.org/2000/svg" viewBox="0 0 963.22 1023.128">
  <path d="M963.22,560.647c0-4.172-1.688-8.203-4.641-11.156l-47.391-47.391c-2.953-2.953-6.984-4.641-11.156-4.641h-31.594c-8.719,0-15.797,7.078-15.797,15.797v47.344c-48.656-27.75-111.8-21.047-153.28,20.438l-110.53,110.53c-24.047,24.047-37.312,56.062-37.312,90.094,0,22.547,5.906,44.109,16.828,63.141h-47.297c-8.719,0-15.797,7.078-15.797,15.797v31.594c0,4.172,1.688,8.203,4.641,11.156l47.391,47.391c2.953,2.953,6.984,4.641,11.156,4.641h31.594c8.719,0,15.797-7.078,15.797-15.797v-47.344c19.5,11.156,41.297,16.828,63.141,16.828,32.625,0,65.25-12.422,90.094-37.266l110.53-110.53c24.047-24.047,37.312-56.062,37.312-90.094,0-22.547-5.906-44.109-16.828-63.141h47.297c8.719,0,15.797-7.078,15.797-15.797v-31.594h.045ZM584.28,923.787h-9.234l-38.109-38.109v-9.234h47.391v47.391l-.048-.048ZM857.33,738.967l-110.53,110.53c-37.359,37.359-98.203,37.359-135.56,0-18.094-18.094-28.078-42.188-28.078-67.781s9.984-49.688,28.078-67.781l110.53-110.53c18.703-18.703,43.219-28.031,67.781-28.031s49.078,9.328,67.781,28.031c18.094,18.094,28.078,42.188,28.078,67.781s-9.984,49.688-28.078,67.781h-.002ZM931.627,576.447h-47.391v-47.391h9.234l38.109,38.109v9.234l.048.048Z"/>
  <path d="M832.22,691.587c-6.188-6.188-16.172-6.188-22.312,0-6.188,6.188-6.188,16.172,0,22.312l15.797,15.797c3.094,3.094,7.125,4.641,11.156,4.641s8.062-1.547,11.156-4.641c6.188-6.188,6.188-16.172,0-22.312l-15.797-15.797Z"/>
  <path d="M778.31,682.347c3.094,3.094,7.125,4.641,11.156,4.641s8.062-1.547,11.156-4.641c6.188-6.188,6.188-16.172,0-22.312l-15.797-15.797c-6.188-6.188-16.172-6.188-22.312,0-6.188,6.188-6.188,16.172,0,22.312l15.797,15.797Z"/>
  <path d="M753.28,707.377c-6.188-6.188-16.172-6.188-22.312,0-6.188,6.188-6.188,16.172,0,22.312l47.391,47.391c3.094,3.094,7.125,4.641,11.156,4.641s8.062-1.547,11.156-4.641c6.188-6.188,6.188-16.172,0-22.312l-47.391-47.391Z"/>
  <path d="M699.38,698.137c3.094,3.094,7.125,4.641,11.156,4.641s8.062-1.547,11.156-4.641c6.188-6.188,6.188-16.172,0-22.312l-15.797-15.797c-6.188-6.188-16.172-6.188-22.312,0-6.188,6.188-6.188,16.172,0,22.312l15.797,15.797Z"/>
  <path d="M705.93,786.307c-6.188-6.188-16.172-6.188-22.312,0-6.188,6.188-6.188,16.172,0,22.312l31.594,31.594c3.094,3.094,7.125,4.641,11.156,4.641s8.062-1.547,11.156-4.641c6.188-6.188,6.188-16.172,0-22.312l-31.594-31.594Z"/>
  <path d="M674.34,754.767l-15.797-15.797c-6.188-6.188-16.172-6.188-22.312,0-6.188,6.188-6.188,16.172,0,22.312l15.797,15.797c3.094,3.094,7.125,4.641,11.156,4.641s8.062-1.547,11.156-4.641c6.188-6.188,6.188-16.172,0-22.312Z"/>
  <path d="M47.391,284.29c27.047,0,50.906-13.688,65.156-34.453,28.266,57.703,87.422,97.641,155.9,97.641s127.64-39.938,155.9-97.641c14.25,20.766,38.109,34.453,65.156,34.453,26.109,0,47.391-21.234,47.391-47.391v-126.32c0-26.109-21.234-47.391-47.391-47.391-27.047,0-50.906,13.688-65.156,34.453C396.081,39.938,336.925,0,268.447,0s-127.64,39.938-155.9,97.641c-14.25-20.766-38.109-34.453-65.156-34.453C21.282,63.188,0,84.422,0,110.579v126.32c0,26.109,21.234,47.391,47.391,47.391h0ZM442.131,142.21c0-26.109,21.234-47.391,47.391-47.391,8.719,0,15.797,7.078,15.797,15.797v126.32c0,8.719-7.078,15.797-15.797,15.797-26.109,0-47.391-21.234-47.391-47.391v-63.132ZM268.451,31.68c78.375,0,142.13,63.75,142.13,142.13s-63.75,142.13-142.13,142.13-142.13-63.75-142.13-142.13S190.071,31.68,268.451,31.68h0ZM31.591,110.618c0-8.719,7.078-15.797,15.797-15.797,26.109,0,47.391,21.234,47.391,47.391v63.141c0,26.109-21.234,47.391-47.391,47.391-8.719,0-15.797-7.078-15.797-15.797v-126.329Z"/>
  <path d="M257.261,184.96c3.094,3.094,7.125,4.641,11.156,4.641s8.062-1.547,11.156-4.641l78.938-78.938c6.188-6.188,6.188-16.172,0-22.312-6.188-6.188-16.172-6.188-22.312,0l-78.938,78.938c-6.188,6.188-6.188,16.172,0,22.312Z"/>
  <path d="M209.911,209.99l-15.797,15.797c-6.188,6.188-6.188,16.172,0,22.312,3.094,3.094,7.125,4.641,11.156,4.641s8.062-1.547,11.156-4.641l15.797-15.797c6.188-6.188,6.188-16.172,0-22.312-6.188-6.188-16.172-6.188-22.312,0Z"/>
  <path d="M320.441,232.31c3.094,3.094,7.125,4.641,11.156,4.641s8.062-1.547,11.156-4.641l47.391-47.391c6.188-6.188,6.188-16.172,0-22.312-6.188-6.188-16.172-6.188-22.312,0l-47.391,47.391c-6.188,6.188-6.188,16.172,0,22.312h0Z"/>
  <path d="M288.851,241.59l-15.797,15.797c-6.188,6.188-6.188,16.172,0,22.312,3.094,3.094,7.125,4.641,11.156,4.641s8.062-1.547,11.156-4.641l15.797-15.797c6.188-6.188,6.188-16.172,0-22.312-6.188-6.188-16.172-6.188-22.312,0Z"/>
  <path d="M205.281,126.41c4.031,0,8.062-1.547,11.156-4.641l47.391-47.391c6.188-6.188,6.188-16.172,0-22.312-6.188-6.188-16.172-6.188-22.312,0l-47.391,47.391c-6.188,6.188-6.188,16.172,0,22.312,3.094,3.094,7.125,4.641,11.156,4.641Z"/>
  <path d="M184.881,153.37c6.188-6.188,6.188-16.172,0-22.312-6.188-6.188-16.172-6.188-22.312,0l-15.797,15.797c-6.188,6.188-6.188,16.172,0,22.312,3.094,3.094,7.125,4.641,11.156,4.641s8.062-1.547,11.156-4.641l15.797-15.797Z"/>
  <path d="M830.311,363.925c-4.172.609-8.344-.469-11.719-2.953l-189.79-141.71c-20.906-15.609-50.672-11.344-66.281,9.609-15.609,20.953-11.297,50.672,9.609,66.281l189.79,141.71c19.828,14.766,42.984,21.891,66,21.891,33.703,0,67.031-15.328,88.734-44.344,36.422-48.844,26.391-118.22-22.453-154.69l-37.969-28.312c-10.125-7.547-22.641-10.688-35.156-8.906-12.516,1.828-23.578,8.391-31.125,18.516-7.594,10.125-10.734,22.641-8.906,35.156,1.781,12.516,8.391,23.578,18.516,31.172l37.969,28.359c3.375,2.531,5.578,6.188,6.188,10.406.609,4.172-.469,8.344-2.953,11.719-2.531,3.375-6.188,5.531-10.359,6.141l-.095-.045ZM591.051,269.894c-6.984-5.203-8.438-15.141-3.234-22.078,5.203-6.984,15.141-8.438,22.125-3.188l20.062,15,6.422,44.203-45.375-33.891v-.047ZM672.192,330.503l-6.422-44.203,27.469,20.531,6.422,44.203-27.469-20.531ZM735.426,377.706l-6.422-44.203,40.125,29.953,6.422,44.203-40.172-29.953h.047ZM899.486,381.972l-26.344-19.641c2.062-6.656,2.812-13.688,1.781-20.766-.844-5.859-2.812-11.344-5.625-16.359l24.516-20.016c14.859,22.688,17.438,51.797,5.672,76.781h0ZM818.439,282.033c-3.375-2.531-5.578-6.188-6.188-10.359s.469-8.344,3-11.719,6.188-5.578,10.359-6.188c4.172-.656,8.344.469,11.719,2.953l34.406,25.688-25.219,20.578-28.078-20.954ZM854.251,387.593l26.344,19.641c-19.359,17.25-45.891,23.625-70.594,17.859l-5.203-35.719c9.094,5.156,19.453,7.359,30,5.812,7.078-1.031,13.641-3.75,19.406-7.594h.047Z"/>
  <path d="M376.362,990.108l-15.789-194.782c36.021-6.652,69.499-22.783,95.772-48.9,73.758-73.31,63.782-196.502-22.263-274.634-41.691-37.853-94.776-59.604-149.503-61.25-54.751-1.662-104.542,16.982-140.273,52.506-1.885,1.892-3.705,3.791-5.487,5.745-32.011,34.871-47.408,80.614-43.422,129.735,4.212,51.862,29.463,101.265,71.157,139.114,11.468,10.408,23.683,19.473,36.474,27.245,26.91,16.352,56.252,26.744,85.784,31.302l15.528,191.708c.974,12.058,8.48,22.878,18.968,29.251,5.883,3.575,12.684,5.755,19.809,5.963,19.848.595,34.761-14.205,33.244-33.037l.002.034ZM176.23,728.059c-31.351-28.47-52.702-64.004-61.717-102.081,10.22,25.547,26.72,49.176,48.569,69.022,9.681,8.796,20.099,16.552,31.074,23.22,28.906,17.565,61.701,27.514,95.214,28.51,46.221,1.405,88.29-14.337,118.492-44.329,50.015-49.685,43.23-133.223-15.087-186.198-58.333-53.016-146.471-55.628-196.484-5.944-37.726,37.472-32.615,100.478,11.398,140.45,43.996,39.996,110.471,41.965,148.207,4.467,25.437-25.262,21.985-67.769-7.667-94.711-14.369-13.07-32.683-20.572-51.541-21.123-18.884-.567-36.061,5.853-48.376,18.109-13.163,13.074-11.381,35.043,3.953,48.946,7.412,6.766,16.897,10.639,26.639,10.919,9.767.295,18.646-3.017,25.012-9.344,2.665-2.657,2.31-7.087-.794-9.934-3.118-2.824-7.819-2.985-10.484-.328-7.807,7.776-21.611,7.321-30.709-.935-4.422-4.02-7.099-9.241-7.538-14.744-.452-5.481,1.391-10.589,5.186-14.357,20.121-19.97,55.557-18.859,78.973,2.373,23.442,21.31,26.161,54.88,6.081,74.841-32.383,32.197-89.478,30.472-127.255-3.853-37.789-34.303-42.149-88.393-9.768-120.593,21.642-21.494,51.8-32.794,84.959-31.797,33.159.997,65.318,14.187,90.549,37.11,52.096,47.305,58.169,121.927,13.469,166.321-56.96,56.618-157.371,53.554-223.801-6.77-32.187-29.227-51.692-67.387-54.923-107.434-3.257-40.063,10.147-77.223,37.737-104.644,33.15-32.939,79.349-50.232,130.141-48.681,36.805,1.107,72.83,12.027,104.575,31.316,12.048,7.321,23.472,15.843,34.104,25.495,38.663,35.113,62.098,80.931,65.983,129.062,3.901,48.109-12.215,92.731-45.352,125.707-68.423,67.99-189.043,64.335-268.816-8.129l-.002.062ZM356.464,1003.647c-3.701,3.67-8.859,5.587-14.512,5.436-11.682-.374-21.883-9.64-22.797-20.701l-15.419-190.313c14.21,1.228,28.324.942,42.177-.587l15.588,192.174c.431,5.344-1.369,10.324-5.045,14.009l.007-.019Z"/>
</svg>