<?xml version="1.0" encoding="UTF-8"?>
<svg id="Layer_1" data-name="Layer 1" xmlns="http://www.w3.org/2000/svg" viewBox="0 0 1086.142 636.696">
  <defs>
    <style>
      .cls-1 {
        fill-rule: evenodd;
      }
    </style>
  </defs>
  <path class="cls-1" d="M103.407,534.333c-7.453-1.359-14.672-2.906-21.469-4.641-21-5.344-38.25-12.984-47.719-21.516C12.328,488.348,0,454.457,0,416.207v-38.484c0-17.625,9.891-33.281,24.891-41.109l3.797-113.02c.938-27.938,9.328-55.172,24.234-78.797,0,0,44.719-70.781,44.719-70.734-7.359-14.719-12.234-32.016-9.375-57.422,1.031-9.469,9.047-16.641,18.562-16.641h445.6c36.797,0,85.453,19.453,135.28,48,70.734,40.547,144.71,98.719,189.84,136.31,0,0,0,.047.047.047,28.594,23.953,63.094,39.797,99.891,45.984l1.875.328c25.031,4.125,47.906,18.844,66.047,41.578,24.75,31.031,40.734,77.438,40.734,128.95v57.562c0,20.812-5.812,40.688-15.656,55.406-11.953,17.859-28.781,26.953-45.703,26.953h-52.266c-8.156,54.047-54.797,95.578-111.09,95.578s-102.98-41.531-111.14-95.578h-423.84c-8.109,54.047-54.797,95.578-111.09,95.578-58.641,0-106.88-45.047-111.94-102.38l-.01.017ZM861.427,449.442c41.344,0,74.906,33.562,74.906,74.906s-33.562,74.906-74.906,74.906-74.906-33.562-74.906-74.906,33.516-74.906,74.906-74.906ZM215.347,449.442c41.344,0,74.906,33.562,74.906,74.906s-33.562,74.906-74.906,74.906-74.906-33.562-74.906-74.906,33.562-74.906,74.906-74.906ZM861.427,497.583c14.719,0,26.719,12,26.719,26.766s-12,26.719-26.719,26.719-26.766-12-26.766-26.719,12-26.766,26.766-26.766ZM215.347,497.583c14.766,0,26.766,12,26.766,26.766s-12,26.719-26.766,26.719-26.766-12-26.766-26.719,12-26.766,26.766-26.766ZM62.347,337.083l-.469,13.734c-.328,9-6.938,16.359-15.516,17.812l-1.547.281c-4.266.75-7.359,4.453-7.359,8.812v38.484c0,26.438,6.75,50.484,21.891,64.172,8.484,7.688,26.719,12.469,47.016,16.406,12.328-48.703,56.484-84.797,108.98-84.797,54.938,0,100.73,39.516,110.44,91.688h425.16c9.703-52.172,55.5-91.688,110.48-91.688s100.73,39.516,110.44,91.688h52.922c5.719,0,10.547-4.312,14.578-10.312,6.141-9.188,9.328-21.656,9.328-34.594v-30.938c-10.828-3.375-22.594-9.656-33.844-18.422-25.266-19.5-48.375-50.531-54.094-77.906-1.125-5.484.281-11.25,3.797-15.609,3.562-4.359,8.906-6.938,14.531-6.938h46.312c-2.906-4.781-5.953-9.234-9.281-13.359-11.859-14.906-26.438-25.266-42.891-27.984-.656-.141-1.312-.234-1.969-.328-43.359-7.266-84-25.969-117.66-54.188-43.875-36.562-115.73-93.188-184.5-132.61-43.219-24.703-84.797-43.031-116.67-43.031H125.342c1.266,11.344,5.438,19.781,10.125,27.609,3.609,6.047,3.516,13.641-.281,19.641,0,0-29.672,47.016-50.578,80.109-11.391,18-17.766,38.719-18.469,60.047l-.656,18.562h6.797c25.312,0,45.844,20.531,45.844,45.844v1.969c0,25.312-20.531,45.844-45.844,45.844h-9.932ZM711.607,411.989h-355.82c-10.312,0-18.703,8.391-18.703,18.703s8.391,18.75,18.703,18.75h355.82c10.312,0,18.703-8.391,18.703-18.75s-8.391-18.703-18.703-18.703ZM1041.287,346.411h-34.219c7.875,12.562,19.172,24.469,30.703,33.422,3.422,2.672,6.844,5.156,10.172,7.219h.281c-.984-14.25-3.328-27.938-6.938-40.641h0ZM64.267,280.88h8.016c4.641,0,8.391,3.75,8.391,8.391v1.969c0,4.594-3.75,8.391-8.391,8.391h-8.672l.656-18.75ZM477.527,262.177h-56.203c-10.312,0-18.703,8.391-18.703,18.703s8.391,18.75,18.703,18.75h56.203c10.312,0,18.703-8.391,18.703-18.75s-8.391-18.703-18.703-18.703ZM541.183,56.437c-41.297-.094-353.9-.281-353.9-.281-5.906,0-11.391,2.766-14.953,7.453-29.672,39.188-54.141,76.547-68.812,138-1.359,5.578-.047,11.438,3.516,15.984,3.562,4.5,8.953,7.125,14.672,7.125h646.08c7.547,0,14.344-4.547,17.25-11.484,2.953-6.938,1.406-14.953-3.797-20.344-37.031-37.969-83.953-73.828-152.72-113.06-26.578-15.328-56.672-23.391-87.328-23.391l-.008-.002ZM379.283,93.703c61.312,0,123.24.094,161.86.188h.047c24.094,0,47.812,6.375,68.672,18.422,0,0,.047.047.094.047,45.562,25.969,81,50.297,110.2,74.906h-367.6l26.727-93.562ZM340.33,93.656l-26.719,93.609h-167.26c12.328-38.719,29.859-66.141,50.25-93.656,21.938,0,79.547,0,143.72.047h.009Z"/>
</svg>