<?xml version="1.0" encoding="UTF-8"?><svg id="Layer_2" xmlns="http://www.w3.org/2000/svg" viewBox="0 0 64 64"><defs><style>.cls-1{fill:#fff;stroke:#000;stroke-miterlimit:10;stroke-width:3px;}.cls-2{fill:none;}</style></defs><g id="Layer_1-2"><rect class="cls-1" x="1.5" y="1.5" width="61" height="61" rx="7" ry="7"/><rect class="cls-2" x="5.361" y="18.014" width="53.278" height="27.972"/><path d="M7.764,43.789v-25.77h3.164v25.77h-3.164Z"/><path d="M34.98,40.748v3.041h-17.033c-.023-.762.1-1.494.369-2.197.434-1.16,1.128-2.303,2.083-3.428s2.335-2.426,4.14-3.902c2.801-2.297,4.693-4.116,5.678-5.458s1.477-2.61,1.477-3.806c0-1.254-.448-2.312-1.345-3.173s-2.065-1.292-3.507-1.292c-1.523,0-2.742.457-3.656,1.371s-1.377,2.18-1.389,3.797l-3.252-.334c.223-2.426,1.061-4.274,2.514-5.546s3.404-1.907,5.854-1.907c2.473,0,4.43.686,5.871,2.057,1.441,1.371,2.162,3.07,2.162,5.098,0,1.031-.211,2.045-.633,3.041s-1.122,2.045-2.1,3.146c-.979,1.102-2.604,2.613-4.878,4.535-1.898,1.594-3.117,2.675-3.656,3.243s-.984,1.14-1.336,1.714h12.638Z"/><path d="M40.028,36.986l3.164-.422c.363,1.793.981,3.085,1.854,3.876s1.937,1.187,3.19,1.187c1.488,0,2.745-.516,3.771-1.547s1.538-2.309,1.538-3.832c0-1.453-.475-2.651-1.424-3.595s-2.156-1.415-3.621-1.415c-.598,0-1.342.117-2.232.352l.352-2.777c.211.023.381.035.51.035,1.348,0,2.561-.352,3.639-1.055s1.617-1.787,1.617-3.252c0-1.16-.393-2.121-1.178-2.883s-1.799-1.143-3.041-1.143c-1.23,0-2.256.387-3.076,1.16s-1.348,1.934-1.582,3.48l-3.164-.562c.387-2.121,1.266-3.765,2.637-4.931s3.076-1.749,5.115-1.749c1.406,0,2.701.302,3.885.905s2.089,1.427,2.716,2.47.94,2.15.94,3.322c0,1.113-.299,2.127-.896,3.041s-1.482,1.641-2.654,2.18c1.523.352,2.707,1.081,3.551,2.188s1.266,2.493,1.266,4.157c0,2.25-.82,4.157-2.461,5.722s-3.715,2.347-6.223,2.347c-2.262,0-4.14-.674-5.634-2.021s-2.347-3.094-2.558-5.238Z"/></g></svg>