<?xml version="1.0" encoding="UTF-8"?>
<svg id="Layer_1" data-name="Layer 1" xmlns="http://www.w3.org/2000/svg" viewBox="0 0 773.441 1101.573">
  <defs>
    <style>
      .cls-1 {
        fill: #fff;
      }
    </style>
  </defs>
  <polygon class="cls-1" points="710.91 12.091 290.91 12.091 247.91 58.091 247.91 809.091 310.91 855.091 710.91 855.091 759.91 805.091 759.91 60.091 710.91 12.091"/>
  <polygon class="cls-1" points="476.721 247.773 56.721 247.773 13.721 293.773 13.721 1044.773 76.721 1090.773 476.721 1090.773 525.721 1040.773 525.721 295.773 476.721 247.773"/>
  <polygon class="cls-1" points="593.721 128.273 173.721 128.273 130.721 174.273 130.721 925.273 193.721 971.273 593.721 971.273 642.721 921.273 642.721 176.273 593.721 128.273"/>
  <path d="M457.031,1101.573H82.031c-45.234,0-82.031-36.797-82.031-82.031V316.422c0-45.234,36.797-82.031,82.031-82.031h375c45.234,0,82.031,36.797,82.031,82.031v703.12c0,45.234-36.797,82.031-82.031,82.031ZM82.031,257.823c-32.344,0-58.594,26.25-58.594,58.594v703.12c0,32.344,26.25,58.594,58.594,58.594h375c32.344,0,58.594-26.25,58.594-58.594V316.417c0-32.344-26.25-58.594-58.594-58.594H82.031Z"/>
  <path d="M574.221,984.373h-46.875c-6.562,0-11.719-5.156-11.719-11.719s5.156-11.719,11.719-11.719h46.875c32.344,0,58.594-26.25,58.594-58.594V199.221c0-32.344-26.25-58.594-58.594-58.594H199.221c-32.344,0-58.594,26.25-58.594,58.594v46.875c0,6.562-5.156,11.719-11.719,11.719s-11.719-5.156-11.719-11.719v-46.875c0-45.234,36.797-82.031,82.031-82.031h375c45.234,0,82.031,36.797,82.031,82.031v703.12c0,45.234-36.797,82.031-82.031,82.031h0Z"/>
  <path d="M691.411,867.183h-46.875c-6.562,0-11.719-5.156-11.719-11.719s5.156-11.719,11.719-11.719h46.875c32.344,0,58.594-26.25,58.594-58.594V82.031c0-32.344-26.25-58.594-58.594-58.594h-375c-32.344,0-58.594,26.25-58.594,58.594v46.875c0,6.562-5.156,11.719-11.719,11.719s-11.719-5.156-11.719-11.719v-46.875C234.379,36.797,271.176,0,316.41,0h375c45.234,0,82.031,36.797,82.031,82.031v703.12c0,45.234-36.797,82.031-82.031,82.031h0Z"/>
</svg>