<?xml version="1.0" encoding="UTF-8"?>
<svg id="Layer_1" data-name="Layer 1" xmlns="http://www.w3.org/2000/svg" viewBox="0 0 1125.015 1124.907">
  <path d="M35.908,500.177c23.789,4.414,46.727-11.363,51.137-35.148l15.477-83.523c1.602-8.625,6.398-15.523,12.977-21.938l.688,261.66-22.375,173.99c-1.75,13.574,1.938,27.062,10.363,37.961,8.426,10.898,20.539,17.852,34.113,19.586,2.199.289,4.387.426,6.562.426,25.461,0,47.648-18.977,50.977-44.887l23.082-179.61c.023-.164.039-.312.051-.477l13.023-129.88,49.375,16.863c10.637,3.637,17.699,12.102,19.375,23.211l11.824,78.824c4.211,28.051,30.477,47.461,58.488,43.227,28.039-4.211,47.438-30.449,43.227-58.488l-16.227-108.12c-4.086-27.273-18.574-49.477-41.887-64.211l-69.012-43.625v-49.574l19.312,10.926c9.914,5.602,20.699,7.961,31.977,7.961,37.352,0,79.949-26,113.11-46.238,9.164-5.602,17.824-10.875,25.086-14.824,21.262-11.551,29.164-38.238,17.613-59.5s-38.25-29.164-59.5-17.602l-62.738,34.086c-11.387,6.188-25.312-.961-48.949-14.125-22.727-12.664-51-28.414-85.398-28.414h-55.637c-67.738,0-149.09,66.5-161.18,131.77L.74,448.994c-2.125,11.5.363,23.148,7.012,32.824,6.648,9.707,16.648,16.207,28.148,18.348l.008.011ZM34.123,455.212l20.102-108.51c9.188-49.574,76.062-104.01,127.8-104.01h55.637c25.586,0,47.602,12.262,68.887,24.113,26.211,14.602,53.324,29.699,81.676,14.301l62.738-34.086c4.738-2.574,10.898-.75,13.477,3.988,2.574,4.738.75,10.898-3.988,13.477-8,4.352-17.012,9.852-26.562,15.676-33.977,20.727-85.312,52.051-110.71,37.699l-44.637-25.227c-5.25-2.977-11.688-2.926-16.898.113-5.211,3.039-8.426,8.625-8.426,14.664v88.012c0,5.824,2.988,11.238,7.898,14.352l76.914,48.625c14.938,9.438,23.836,23.086,26.449,40.551l16.227,108.12c1.426,9.539-5.164,18.449-14.699,19.887-9.539,1.426-18.461-5.164-19.887-14.699l-11.824-78.824c-3.562-23.738-19.25-42.551-41.977-50.301l-69.613-23.773c-4.898-1.676-10.301-1.012-14.648,1.789-4.363,2.801-7.199,7.438-7.711,12.586l-15.137,150.91-23.062,179.3c-1.227,9.562-9.988,16.363-19.562,15.137-4.586-.586-8.688-2.961-11.574-6.688-2.875-3.727-4.137-8.289-3.551-12.863l22.523-175.09c.102-.738.137-1.477.137-2.211l-.789-298.12c-.012-6.523-3.773-12.449-9.648-15.262-2.324-1.113-4.824-1.664-7.312-1.664-3.801,0-7.551,1.273-10.625,3.738-2.926,2.352-5.949,4.648-8.977,6.949-18,13.688-38.398,29.211-43.625,57.426l-15.477,83.539c-.977,5.301-6.289,8.938-11.574,7.961-2.574-.477-4.836-1.949-6.352-4.164-1.52-2.211-2.094-4.836-1.617-7.426l-.003.003ZM201.273,183.502c39.898,0,72.352-32.461,72.352-72.352s-32.449-72.352-72.352-72.352-72.352,32.449-72.352,72.352c.004,39.902,32.465,72.352,72.352,72.352ZM201.273,72.742c21.176,0,38.398,17.227,38.398,38.398s-17.227,38.414-38.398,38.414-38.414-17.227-38.414-38.414c.016-21.164,17.238-38.398,38.414-38.398h0ZM1114.363,101.84c-5.938,2.387-12.426,1.176-17.062-2.613v184.39c0,9.336-7.539,16.914-16.875,16.977l-248.7,1.449v177.93c0,9.301-7.488,16.875-16.801,16.977l-248.61,2.574v178.35c0,9.289-7.477,16.863-16.762,16.977l-248.66,3.008v177.91c0,9.336-7.551,16.926-16.887,16.977l-249.96,1.211-.074,213.99c0,9.375-7.602,16.961-16.977,16.961S.021,1117.31.021,1107.934l.074-230.88c0-9.336,7.551-16.926,16.887-16.961l249.96-1.211.004-177.8c0-9.289,7.477-16.863,16.762-16.977l248.65-3.012v-178.38c0-9.301,7.488-16.875,16.801-16.977l248.61-2.574v-178c0-9.336,7.539-16.914,16.875-16.977l248.7-1.449V97.527c-4.738,4.762-12.074,6.438-18.648,3.648-8.637-3.648-12.664-13.613-9.012-22.25l29.012-68.512c2.664-6.273,8.812-10.352,15.625-10.352h.164c6.875.062,13.023,4.273,15.586,10.648l27.711,69.039c3.5,8.715-.711,18.59-9.41,22.09l-.01.002ZM756.953,104.164l.062,93.363c.012,8.676,3.398,16.824,9.562,22.977,6.148,6.137,14.301,9.523,22.961,9.523h.023l199.46-.148c8.676,0,16.824-3.398,22.977-9.551,6.148-6.148,9.523-14.324,9.523-22.988l-.062-93.363v-.148l-.012-23.438c-.012-17.926-14.602-32.5-32.523-32.5h-.023l-29.238.023-.012-15.477c0-7.523-2.188-14.836-6.148-20.574-5.211-7.539-13.051-11.863-21.512-11.863h-.012l-85.676.062c-15.5.012-27.637,14.273-27.637,32.477l.012,15.488-29.238.023c-17.926.012-32.512,14.613-32.5,32.551l.012,23.449v.113h0ZM790.965,196.078l-.051-69.211,61.586,18.676v5.449c.012,9.375,7.602,16.961,16.977,16.961h.012l39.551-.023c9.375-.012,16.961-7.613,16.961-16.988v-5.449l61.539-18.762.051,69.211-196.626.136ZM892.035,133.066v.938h-5.613l-.012-7.539h5.613v6.188c.012.137.012.277.012.414h0ZM852.613,34.004l73.102-.051.012,13.988-73.102.051-.012-13.988ZM835.648,81.953s.012,0,0,0h.035l151.82-.113.004,9.414-61.539,18.762v-.551c0-4.5-1.801-8.812-4.977-12-3.188-3.176-7.5-4.961-11.988-4.961h-.012l-39.551.023c-4.5,0-8.812,1.801-12,4.977-3.176,3.188-4.961,7.5-4.961,12v.551l-61.574-18.676-.023-9.402,44.766-.024Z"/>
</svg>