<?xml version="1.0" encoding="UTF-8"?>
<svg id="Layer_1" data-name="Layer 1" xmlns="http://www.w3.org/2000/svg" viewBox="0 0 1079.903 911.771">
  <path d="M263.03,315.437c-.094.047-.141.047-.281.094-.938.328-1.828.609-2.766.891-.984.281-1.969.469-3,.656-.281.047-.234.047-.375.094-.141,0-.094-.047-.469-.047-1.828,0-3.562,0-5.391-.094-.516-.047-1.266-.188-1.547-.234-.984-.234-1.969-.469-2.953-.75-.656-.188-1.312-.422-1.922-.656q-.141-.047-.234-.094c-.422-.234-1.781-.891-1.969-.984-.891-.469-1.781-1.031-2.625-1.594-.281-.188-.516-.375-.797-.562-.141-.094-.141-.141-.422-.328-4.781-4.078-12.328-5.016-16.969,0-4.125,4.453-5.109,12.609,0,16.969,19.219,16.359,47.672,16.547,66-1.359,4.875-4.734,8.391-10.266,10.781-16.219,5.156,3.797,11.109,6.609,17.812,7.969,24.797,5.109,48.938-9.141,56.625-33.281,1.922-6-2.25-13.359-8.391-14.766-6.562-1.5-12.703,1.969-14.766,8.391-.047.141-.609,1.641-.656,1.875-.281.562-.562,1.172-.844,1.734-.422.797-.891,1.547-1.359,2.344-.094.141-.797,1.125-1.078,1.5-1.125,1.359-2.391,2.672-3.703,3.844-.328.281-.75.609-.984.797-.75.516-1.453,1.031-2.25,1.453-.75.469-1.547.891-2.391,1.312-.281.141-.562.234-.844.375-1.875.609-3.75,1.172-5.719,1.547-.188.047-.141.047-.188.047h-.609c-1.172,0-2.297.094-3.469.047-.141,0-1.172-.094-1.781-.094-.516-.094-2.156-.375-2.438-.469-.938-.234-1.875-.469-2.766-.75-.094-.047-1.5-.609-1.875-.75-1.547-.75-3.047-1.594-4.547-2.578-.422-.281-.516-.281-.656-.375-.094-.141-.188-.234-.609-.656-.75-.703-1.5-1.406-2.203-2.156s-1.406-1.5-2.062-2.297c1.125,1.359-1.078-1.547-1.078-1.547-2.859-4.266-4.781-8.812-6.047-13.406l9.469-17.062c2.203-3.938,1.781-8.812-.984-12.328-2.812-3.562-7.453-5.062-11.812-3.797l-34.688,9.938c-4.359,1.266-7.5,4.969-8.016,9.469s1.688,8.812,5.672,11.016l17.156,9.516c1.266,4.266,1.969,8.672,1.875,13.547,0,1.219-.188,2.484-.188,3.703v.234c-.094.703-.234,1.359-.375,2.062-.281,1.219-.609,2.391-.984,3.562-.094.281-.375.938-.562,1.359-.75,1.5-1.5,3-2.438,4.406-.234.375-1.172,1.5-1.125,1.453-.422.469-.797.938-1.219,1.359-.656.703-1.359,1.359-2.109,2.016-.469.422-2.812,1.875-.609.516-1.641.984-3.234,2.062-4.969,2.953-.188.094-.281.141-.422.234l.142-.048ZM334.983,294.859q-.141.047,0,0ZM213.953,270.531c3.047,10.641-2.016,21.422-11.344,24.094s-19.359-3.797-22.406-14.438,2.016-21.422,11.344-24.094,19.359,3.797,22.406,14.438ZM341.503,234.015c-3.047-10.641,2.016-21.422,11.344-24.094s19.359,3.797,22.406,14.438-2.016,21.422-11.344,24.094-19.359-3.797-22.406-14.438ZM1079.553,755.125c-1.266-26.906-11.438-52.312-28.641-71.484-19.734-22.078-45.609-30.797-70.594-39.188l-2.016-.656c-13.641-4.594-25.875-10.453-37.594-17.25,10.922-89.906,7.969-191.06-44.25-268.55-45.422-67.453-121.03-99.047-200.48-102.33-58.922-2.438-118.03,9-174.28,25.734-14.766,4.406-8.484,27.562,6.375,23.156,82.781-24.656,178.82-40.266,261.19-5.297,70.172,29.766,110.39,94.875,124.97,167.58,10.969,54.75,8.766,111.61,1.594,166.69-.844,6.328,2.859,9.844,7.547,10.922,14.625,9.047,30.094,16.312,47.25,22.078l2.062.703c23.062,7.781,44.812,15.094,60.375,32.438,13.5,15.094,21.516,35.203,22.547,56.625l.047,1.969c.938,36.375-17.297,72.75-46.922,93-43.312,32.484-94.922,36.656-135.05,36.656-13.359,0-26.203-.516-38.062-.984l-4.031-.141c-7.172-.328-13.734-3.422-18.562-8.719-4.781-5.25-7.266-12.094-6.891-19.266.281-7.125,3.375-13.688,8.625-18.516,5.25-4.781,12.141-7.219,19.172-6.891l5.531.281c45.75,2.203,102.66,5.016,141.89-28.406,12.844-10.922,20.625-27.281,20.906-43.781.141-9.75-2.391-18.234-7.406-24.562-4.875-6.141-11.438-9.516-16.594-11.766-8.906-3.891-18.047-6.422-26.906-8.906-7.031-1.969-13.734-3.797-20.109-6.281-15.141-5.812-26.391-12.375-35.25-20.578-1.641-1.547-2.953-3.047-3.891-4.5l-.609.422c-3.328-4.359-9.141-7.125-15.422-4.125-20.25,9.609-42.141,15.656-64.5,17.719-6.281.562-12.234,5.016-12,12,.703,21.469-5.062,59.016-34.172,58.125-11.156-.328-28.453-5.906-32.156-17.531-4.406-13.828-2.438-30.047,1.453-43.688.75-2.578.422-4.781-.234-6.797-.844-6.516-6.375-12.844-14.719-11.109-82.781,17.156-168.14,20.625-252.05,10.078,5.391-13.547,10.734-27.094,16.125-40.641,2.391-6.047-2.625-13.125-8.391-14.766-6.797-1.969-12.375,2.391-14.766,8.391-11.812,29.766-23.625,59.531-35.438,89.344-7.875,19.828-20.578,50.859-47.531,46.828-22.781-3.422-20.391-36.328-19.875-52.875.938-30.844,4.969-61.359,11.766-91.453,3.375-15.047-19.734-21.469-23.156-6.375-1.312,5.719-2.438,11.484-3.516,17.25-30-21.047-55.594-48.188-73.781-80.156-7.641-13.406-28.359-1.359-20.719,12.094,12.281,21.656,27.797,41.156,45.562,58.406-.844,1.453-1.5,3.141-1.688,5.109-4.594,40.547-12.328,102.89-59.438,116.95-56.578,16.875-31.266-87.844-29.016-114.33,6.047-71.391-6.938-147.05-36.797-212.9,13.594,3.422,27.609,5.203,41.484,5.531,35.625.891,70.969-6.562,105.52-14.484,15.047-3.469,8.672-26.578-6.375-23.156-62.859,14.438-143.11,29.906-191.39-25.266-4.172-4.781-8.016-9.938-11.531-15.375,10.172-5.953,20.297-12,30.516-17.859,13.406-7.688,1.312-28.406-12.094-20.719-9.984,5.719-19.922,11.578-29.812,17.438-4.406-10.031-7.734-20.578-9.844-31.359,12.75-3.281,25.547-6.328,38.438-8.906,6.375-1.266,10.031-8.812,8.391-14.766-1.828-6.609-8.391-9.656-14.766-8.391-11.672,2.344-23.25,5.062-34.781,7.922-.703-24.094,4.828-48,18.281-67.969,3.047-4.547,2.391-8.906-.047-12.188-8.25-17.484-14.25-35.953-18.188-54.844-1.922-9.328-3.328-18.703-4.125-28.172-.422-5.25-.75-10.547-.844-15.844-.047-2.531-.188-4.781,1.172-6.891,2.438-3.797,6.375-4.078,10.219-2.484,9.469,3.891,18.562,9.516,27.562,14.391,15.516,8.438,30.703,17.484,45.703,26.859-2.344,8.812,7.125,19.734,17.531,13.922,37.547-21.047,79.641-32.625,122.68-33.703,12.656-.328,14.766-16.312,6.703-21.938,7.312-15,14.953-29.859,23.109-44.391,5.109-9.141,10.406-18.188,15.797-27.094,1.734-2.859,2.859-5.156,5.25-6.469,1.594-.844,2.391-1.031,4.172-.844,4.734.469,7.453,6.047,10.875,11.531,4.969,7.922,9.562,16.078,13.734,24.469,7.969,16.031,13.734,32.953,17.156,50.531-.047,3.609,1.547,7.125,5.953,9.234,23.812,11.156,44.344,27.188,59.625,46.734-11.016,5.062-21.938,10.266-32.672,15.891-13.688,7.125-1.594,27.844,12.094,20.719,11.109-5.766,22.359-11.156,33.75-16.266,5.953,11.297,10.219,23.438,12.516,36.234-13.922,1.688-27.844,3.562-41.672,5.625-6.422.984-9.938,9.047-8.391,14.766,1.875,6.844,8.344,9.328,14.766,8.391,12.375-1.875,24.797-3.516,37.172-5.016-.094,6.703-.609,13.5-1.828,20.438-11.109,63.609-62.203,109.97-123.42,125.11-15,3.703-8.625,26.859,6.375,23.156,55.5-13.734,104.48-50.297,128.02-103.17,9.609-21.609,14.391-44.953,14.391-68.203,18.75-1.875,37.5-3.328,56.344-4.078,15.375-.609,15.469-24.609,0-24-19.406.797-38.719,2.297-57.984,4.266-2.297-14.953-6.844-29.531-13.641-43.312,17.719-7.219,35.719-13.734,54.047-19.453,14.719-4.594,8.438-27.75-6.375-23.156-20.344,6.328-40.359,13.641-60,21.797-17.062-23.719-40.406-41.906-66.562-54.938-4.266-20.203-11.719-39.656-21.234-57.984-5.109-9.797-10.688-19.547-17.062-28.594-5.531-7.875-13.125-13.078-22.734-14.297-9.188-1.172-18.516,1.781-25.359,8.062-7.922,7.312-12.938,18.891-18.281,28.125-11.953,20.719-23.016,41.906-33.281,63.516-.281.609-.328,1.219-.562,1.828-34.594,3.188-68.391,12.516-99.703,27.562-.094-.094-.188-.141-.281-.234-20.812-13.312-42.141-25.828-63.984-37.406-10.078-5.344-21.234-13.172-32.953-13.547-9.516-.328-18.797,3.891-24.938,11.062-7.5,8.766-7.969,19.031-7.406,30.047.562,12,2.016,23.953,4.078,35.812,3.75,21.234,10.406,41.672,19.078,61.359-14.812,24.516-19.969,53.016-17.906,81.328-16.406,4.688-32.672,9.891-48.703,15.703-6.094,2.203-10.172,8.156-8.391,14.766,1.594,5.859,8.625,10.594,14.766,8.391,15.094-5.484,30.375-10.359,45.797-14.812,2.766,12.844,6.891,25.406,12.141,37.219-14.766,8.906-29.438,18.047-43.828,27.562-5.391,3.562-7.688,10.594-4.312,16.406,3.141,5.344,10.969,7.875,16.406,4.312,14.156-9.375,28.547-18.328,43.078-27.094,9.656,15.375,21.891,29.25,36.562,39.797,4.219,3.047,8.625,5.672,13.172,8.109,23.625,43.828,37.922,92.906,43.969,142.26,3.094,25.172,4.125,50.672,2.484,75.984-1.828,28.359-7.781,56.531-7.734,85.031.047,19.969,4.5,42.797,22.312,54.703,18.75,12.516,43.312,8.344,61.641-2.766,41.578-25.172,52.312-73.922,58.031-119.02,7.688,6.141,15.656,11.953,23.906,17.344-1.922,13.641-3.328,27.375-4.125,41.109-1.312,22.172-3.375,47.672,7.969,67.828,12.047,21.422,37.781,27.281,59.672,18.234,24.281-10.031,35.484-33.094,44.672-56.156,3.984-9.984,7.922-19.922,11.859-29.906,52.922,6.891,106.12,8.531,159.1,4.969-1.547,13.641-1.922,28.547,5.953,40.406,6.844,10.312,17.906,16.875,30.047,18.703,23.344,3.562,42.422-7.781,59.297-22.078,8.625,17.578,30.891,26.484,49.547,28.031,18.891,1.594,36.047-8.953,46.875-23.812,10.078-13.781,13.594-30.891,14.109-47.766,19.031-2.766,37.359-7.875,55.125-15.328.328.328.609.703.984,1.031,11.25,10.406,24.938,18.469,42.984,25.453,7.453,2.859,15,4.969,22.266,6.984,8.391,2.344,16.359,4.547,23.766,7.781,2.391,1.031,5.812,2.672,7.406,4.688,1.5,1.875,2.297,5.156,2.203,9.234-.141,9.656-4.828,19.359-12.469,25.875-31.969,27.234-81.469,24.844-125.16,22.688l-5.531-.281c-13.453-.516-26.531,4.031-36.516,13.125-9.984,9.141-15.844,21.656-16.406,35.156-.656,13.547,4.031,26.531,13.125,36.516s21.562,15.844,35.25,16.5l4.078.141c12.188.469,25.359.984,39.047.984,40.406,0,99.844-4.312,148.97-41.156,35.719-24.375,58.078-68.766,56.953-113.2l-.094-2.438-.215.147ZM670.613,762.813c-.938.234-1.922.422-2.859.609-.469.094-.562.141-.703.188-.094,0-.234-.047-.75,0-2.344.094-4.688.094-7.031-.047-.516-.047-.609,0-.703,0-.141-.047-.234-.094-.703-.188-.938-.234-1.875-.422-2.812-.656-1.125-.281-2.203-.656-3.281-1.031-.188-.094-.234-.047-.281-.047-.094-.094-.188-.141-.516-.328-.984-.562-1.922-1.125-2.906-1.688-.422-.234-.516-.281-.656-.328-.094-.141-.094-.188-.469-.516-.656-.656-1.312-1.312-1.922-1.969-.094-.141-1.031-1.359-1.219-1.688-2.062-3.422-2.859-7.734-3-11.438-.234-5.766.422-11.531,1.078-17.297.047-.234,0-.469,0-.703,22.219-2.203,44.344-5.297,66.375-9.328-1.125,7.125-1.641,14.484-1.312,21.75-7.594,7.219-14.766,14.016-23.531,19.266-4.5,2.672-7.875,4.266-12.75,5.484l-.047-.047Z"/>
</svg>