<?xml version="1.0" encoding="UTF-8"?>
<svg id="Layer_1" xmlns="http://www.w3.org/2000/svg" version="1.1" viewBox="0 0 1169.8 1138.3">
  <!-- Generator: Adobe Illustrator 29.2.1, SVG Export Plug-In . SVG Version: 2.1.0 Build 116)  -->
  <defs>
    <style>
      .st0 {
        fill: #fff574;
        stroke: #000;
        stroke-miterlimit: 10;
      }
    </style>
  </defs>
  <polyline class="st0" points="1157.1 8.8 917.1 237.8 254.1 237.8 14.1 8.8 1151.5 8.8"/>
  <path d="M1169.8,9.8v-3.7c0-1.2-1.2-1.2-1.2-2.4l-1.2-1.2s-1.2-1.2-2.4-1.2h-1.2c-1.2,0-2.4-1.2-3.7-1.2H9.7c-1.2,0-2.4,0-3.7,1.3h-1.2c-1.2,0-1.2,1.2-2.4,1.2l-1.2,1.2c0,1.2-1.2,1.2-1.2,2.4v1122.5c0,4.8,3.7,9.7,9.7,9.7h1150.3c4.8,0,9.7-3.7,9.7-9.7V9.8s0,0,0,0ZM242.5,807.3L18.2,1019.5V30.4l224.3,210.9v566.1ZM254.6,819.5h38.8l-190.3,210.9H31.5l223-210.9h0ZM260.7,801.3V246.1h648.5v555.1H260.7h0ZM301.9,819.5h48.5l-145.5,210.9h-93.3l190.3-210.9h0ZM357.6,819.5h49.7l-94.5,210.9h-99.4l144.2-210.9h0ZM413.4,819.5h49.7l-55.7,210.9h-88.5l94.5-210.9h0ZM470.3,819.5h49.7l-17,210.9h-89.7l57-210.9h0ZM526.1,819.5h55.7v210.9h-71.5l15.8-210.9h0ZM587.9,819.5h55.7l17,210.9h-71.5l-1.2-210.9h0ZM665.5,1030.4l-17-210.9h49.7l55.7,210.9h-88.5,0ZM761.2,1030.4l-55.7-210.9h49.7l94.5,210.9h-88.5ZM855.8,1030.4l-94.5-210.9h49.7l145.4,210.9h-100.6,0ZM963.7,1030.4l-145.4-210.9h48.5l190.3,210.9h-93.3ZM1065.5,1030.4l-190.3-210.9h38.8l223,210.9h-71.5ZM926.1,807.3V241.3l224.3-210.9v987.9l-224.3-210.9ZM1137,18.2l-223,209.7H254.6L31.5,18.2h1105.5ZM18.2,1118.8v-70.3h1133.3v70.3H18.2Z"/>
</svg>