<?xml version="1.0" encoding="UTF-8"?>
<svg id="Layer_1" data-name="Layer 1" xmlns="http://www.w3.org/2000/svg" viewBox="0 0 975 975">
  <defs>
    <style>
      .cls-1 {
        fill-rule: evenodd;
      }
    </style>
  </defs>
  <path class="cls-1" d="M487.5,75c-227.82,0-412.5,184.68-412.5,412.5s184.68,412.5,412.5,412.5,412.5-184.68,412.5-412.5S715.32,75,487.5,75ZM0,487.5C0,218.26,218.26,0,487.5,0s487.5,218.26,487.5,487.5-218.26,487.5-487.5,487.5S0,756.74,0,487.5Z"/>
  <path class="cls-1" d="M512.5,318.99c-89.746,0-162.5,72.758-162.5,162.5s72.754,162.5,162.5,162.5c48.531,0,92.055-21.227,121.89-55.027,13.703-15.523,37.398-17.004,52.93-3.297,15.527,13.703,17.004,37.402,3.297,52.93-43.465,49.242-107.17,80.395-178.11,80.395-131.17,0-237.5-106.34-237.5-237.5s106.33-237.5,237.5-237.5c70.941,0,134.65,31.152,178.11,80.395,13.707,15.527,12.23,39.227-3.297,52.93-15.531,13.707-39.227,12.23-52.93-3.297-29.832-33.801-73.355-55.027-121.89-55.027v-.002Z"/>
  <path class="cls-1" d="M472.57,731.5V231.5c0-20.707,16.789-37.5,37.5-37.5s37.5,16.793,37.5,37.5v500c0,20.707-16.793,37.5-37.5,37.5s-37.5-16.793-37.5-37.5Z"/>
</svg>