<?xml version="1.0" encoding="UTF-8"?>
<svg id="Layer_1" xmlns="http://www.w3.org/2000/svg" version="1.1" viewBox="0 0 975 975">
  <!-- Generator: Adobe Illustrator 29.2.1, SVG Export Plug-In . SVG Version: 2.1.0 Build 116)  -->
  <defs>
    <style>
      .st0 {
        fill: #ad6f69;
        stroke: #000;
        stroke-miterlimit: 10;
      }

      .st1 {
        fill-rule: evenodd;
      }
    </style>
  </defs>
  <circle class="st0" cx="493.5" cy="478.5" r="452.5"/>
  <path class="st1" d="M487.5,75c-227.8,0-412.5,184.7-412.5,412.5s184.7,412.5,412.5,412.5,412.5-184.7,412.5-412.5S715.3,75,487.5,75ZM0,487.5C0,218.3,218.3,0,487.5,0s487.5,218.3,487.5,487.5-218.3,487.5-487.5,487.5S0,756.7,0,487.5Z"/>
  <path class="st1" d="M512.5,319c-89.7,0-162.5,72.8-162.5,162.5s72.8,162.5,162.5,162.5,92.1-21.2,121.9-55c13.7-15.5,37.4-17,52.9-3.3,15.5,13.7,17,37.4,3.3,52.9-43.5,49.2-107.2,80.4-178.1,80.4-131.2,0-237.5-106.3-237.5-237.5s106.3-237.5,237.5-237.5,134.6,31.2,178.1,80.4c13.7,15.5,12.2,39.2-3.3,52.9-15.5,13.7-39.2,12.2-52.9-3.3-29.8-33.8-73.4-55-121.9-55h0Z"/>
  <path class="st1" d="M472.6,731.5V231.5c0-20.7,16.8-37.5,37.5-37.5s37.5,16.8,37.5,37.5v500c0,20.7-16.8,37.5-37.5,37.5s-37.5-16.8-37.5-37.5Z"/>
</svg>