<?xml version="1.0" encoding="UTF-8"?>
<svg width="1200pt" height="1200pt" version="1.1" viewBox="0 0 1200 1200" xmlns="http://www.w3.org/2000/svg">
 <path d="m941.58 164.39c0.51562-2.8594-0.65625-5.7188-3-7.4531l-20.344-14.812c-1.2188-0.89062-2.7188-1.4062-4.2188-1.4531l-36.516-1.2656c-3.6562-0.09375-6.9375 2.3906-7.6875 6l-4.3594 20.297c-78.656-17.766-158.39-23.344-237.28-16.547l0.65625-6.6094c0.32812-3.4688-1.7344-6.75-5.0156-7.9219l-23.016-8.1562c-0.79688-0.28125-1.6875-0.42188-2.5312-0.42188h-24.047c-3.8906 0-7.1719 2.9062-7.5469 6.7969l-42.375 391.31c-88.406 0.046874-207 12.703-251.81 48.234-12.562 9.9844-14.203 26.297-14.203 39.375v380.81c0 3.375 2.2031 6.3281 5.4375 7.3125l28.969 8.6719c2.0625 0.60938 4.3125 0.32812 6.1406-0.79688l26.062-15.938c2.2031-1.3594 3.5625-3.7031 3.6562-6.2812l6.9844-267.47 137.53 28.359-2.3906 142.69c-0.046876 2.625 1.3125 5.1094 3.5156 6.5625l18.328 11.672c1.2188 0.79688 2.6719 1.1719 4.0781 1.1719 0.51563 0 1.0781-0.046876 1.5938-0.1875l23.297-5.0156c3.3281-0.70312 5.8125-3.5625 6-6.9844l8.625-136.97 16.172 3.3281 4.2656 292.18c0.046874 3.2812 2.1562 6.1406 5.2969 7.125l36.188 11.578c0.75 0.23438 1.5469 0.375 2.3438 0.375 1.4531 0 2.9062-0.42188 4.1719-1.2188l24.516-15.938c2.1562-1.4062 3.4688-3.7969 3.4688-6.375v-295.5l141.14-37.828 23.672 270.28c0.28125 3.1875 2.5312 5.8594 5.625 6.7031l35.484 9.5156c2.4375 0.65625 5.0625 0.046874 6.9844-1.6406l20.25-17.719c1.6875-1.5 2.625-3.6562 2.5781-5.9062l-7.5938-346.22 80.906-467.76zm-79.312 16.219-21.938 102.56c-72.047-16.172-147.28-21.844-223.87-17.016l10.219-101.62c78.281-7.0312 157.5-1.5938 235.64 16.078zm-263.86 264.79c68.812 2.25 133.69 9.1875 202.5 21.75l-22.219 103.83c-41.719-26.297-116.06-39.75-188.44-44.672zm205.69 6.8906c-69.422-12.656-134.86-19.734-204.19-22.031l4.875-48.562c69.797 1.4062 140.34 8.2969 210.05 20.438zm13.922-65.062c-70.219-12.281-141.32-19.266-211.69-20.719l8.5312-84.984c76.078-5.0625 150.74 0.46875 222.24 16.547zm-236.95-246h15.891l16.125 5.7188-38.062 378.47c-12-0.60937-23.859-0.98437-35.484-1.1719l41.484-383.02zm-299.11 443.02c33.938-26.906 131.44-44.953 242.81-44.953h0.60938c117.05 0.046876 214.18 19.359 253.55 50.391 0.09375 0.046874 0.14062 0.14062 0.23438 0.1875 10.219 8.1094 12.891 17.016 8.2969 27.797l-191.68 51.375-322.08-63.562c0.65625-10.781 3.2344-17.297 8.25-21.234zm230.72 305.39-14.625 3.1406-12.094-7.6875 2.2969-135.56 32.812 6.75zm325.78 98.203-26.438-7.0781-24-273.98c-0.1875-2.25-1.3594-4.2656-3.2344-5.5781-1.8281-1.3125-4.1719-1.6875-6.3281-1.125l-155.58 41.672c-3.3281 0.89062-5.625 3.8906-5.625 7.3594v297.24l-18 11.719-27.562-8.8125-4.2656-292.78c-0.046875-3.5625-2.5781-6.6094-6.0938-7.3594l-231.66-47.766c-2.2031-0.46875-4.5 0.09375-6.2812 1.5s-2.8125 3.5156-2.8594 5.7656l-7.125 272.39-19.641 12-20.297-6.0938v-365.86l321.05 63.375c1.125 0.23438 2.3438 0.1875 3.4219-0.09375l196.74-52.734c2.0625-0.5625 3.7969-1.9219 4.7812-3.7969 9.0938-17.297 6.4219-33.703-7.4062-46.688l91.266-426.19 27.797 0.9375 14.625 10.688-80.25 463.82c-0.09375 0.46875-0.14062 0.98438-0.09375 1.4531l7.5 343.36-14.531 12.703z"/>
</svg>
