<?xml version="1.0" encoding="UTF-8"?>
<svg id="Layer_1" xmlns="http://www.w3.org/2000/svg" version="1.1" viewBox="0 0 683.4 947.9">
  <!-- Generator: Adobe Illustrator 29.2.1, SVG Export Plug-In . SVG Version: 2.1.0 Build 116)  -->
  <path d="M683.3,38.3c.5-2.9-.7-5.7-3-7.5l-20.3-14.8c-1.2-.9-2.7-1.4-4.2-1.5l-36.5-1.3c-3.7,0-6.9,2.4-7.7,6l-4.4,20.3c-78.7-17.8-158.4-23.3-237.3-16.5l.7-6.6c.3-3.5-1.7-6.8-5-7.9L342.5.4c-.8-.3-1.7-.4-2.5-.4h-24c-3.9,0-7.2,2.9-7.5,6.8l-42.4,391.3c-88.4,0-207,12.7-251.8,48.2-12.6,10-14.2,26.3-14.2,39.4v380.8c0,3.4,2.2,6.3,5.4,7.3l29,8.7c2.1.6,4.3.3,6.1-.8l26.1-15.9c2.2-1.4,3.6-3.7,3.7-6.3l7-267.5,137.5,28.4-2.4,142.7c0,2.6,1.3,5.1,3.5,6.6l18.3,11.7c1.2.8,2.7,1.2,4.1,1.2s1.1,0,1.6-.2l23.3-5c3.3-.7,5.8-3.6,6-7l8.6-137,16.2,3.3,4.3,292.2c0,3.3,2.2,6.1,5.3,7.1l36.2,11.6c.8.2,1.5.4,2.3.4,1.5,0,2.9-.4,4.2-1.2l24.5-15.9c2.2-1.4,3.5-3.8,3.5-6.4v-295.5l141.1-37.8,23.7,270.3c.3,3.2,2.5,5.9,5.6,6.7l35.5,9.5c2.4.7,5.1,0,7-1.6l20.2-17.7c1.7-1.5,2.6-3.7,2.6-5.9l-7.6-346.2,80.9-467.8h0ZM604,54.6l-21.9,102.6c-72-16.2-147.3-21.8-223.9-17l10.2-101.6c78.3-7,157.5-1.6,235.6,16.1h0ZM340.1,319.4c68.8,2.2,133.7,9.2,202.5,21.8l-22.2,103.8c-41.7-26.3-116.1-39.8-188.4-44.7l8.2-80.9ZM545.8,326.2c-69.4-12.7-134.9-19.7-204.2-22l4.9-48.6c69.8,1.4,140.3,8.3,210,20.4l-10.7,50.2ZM559.7,261.2c-70.2-12.3-141.3-19.3-211.7-20.7l8.5-85c76.1-5.1,150.7.5,222.2,16.5l-19.1,89.2ZM322.8,15.2h15.9l16.1,5.7-38.1,378.5c-12-.6-23.9-1-35.5-1.2L322.7,15.2h0ZM23.7,458.2c33.9-26.9,131.4-45,242.8-45h.6c117,0,214.2,19.4,253.5,50.4,0,0,.1.1.2.2,10.2,8.1,12.9,17,8.3,27.8l-191.7,51.4L15.4,479.4c.7-10.8,3.2-17.3,8.2-21.2h0ZM254.4,763.6l-14.6,3.1-12.1-7.7,2.3-135.6,32.8,6.8-8.4,133.4ZM580.2,861.8l-26.4-7.1-24-274c-.2-2.2-1.4-4.3-3.2-5.6-1.8-1.3-4.2-1.7-6.3-1.1l-155.6,41.7c-3.3.9-5.6,3.9-5.6,7.4v297.2l-18,11.7-27.6-8.8-4.3-292.8c0-3.6-2.6-6.6-6.1-7.4l-231.7-47.8c-2.2-.5-4.5,0-6.3,1.5s-2.8,3.5-2.9,5.8l-7.1,272.4-19.6,12-20.3-6.1v-365.9l321,63.4c1.1.2,2.3.2,3.4,0l196.7-52.7c2.1-.6,3.8-1.9,4.8-3.8,9.1-17.3,6.4-33.7-7.4-46.7L625,28.9l27.8.9,14.6,10.7-80.2,463.8c0,.5-.1,1,0,1.5l7.5,343.4-14.5,12.7h0Z"/>
</svg>