<?xml version="1.0" encoding="UTF-8"?>
<svg id="Layer_1" data-name="Layer 1" xmlns="http://www.w3.org/2000/svg" viewBox="0 0 883.992 900.014">
  <path d="M881.985,191.402c-3.188-6.355-9.676-10.367-16.781-10.367h-45.898V18.755C819.306,8.388,810.923.005,800.556.005h-161.64c-10.367,0-18.75,8.383-18.75,18.75v162.28h-45.898c-7.106,0-13.594,4.012-16.781,10.367-1.875,3.77-2.25,7.93-1.481,11.926l-97.52-97.52c-19.969-19.969-47.645-30.133-75.562-27.73l-159.66,13.367c-6.898-8.758-14.102-17.23-21.824-24.957C160.418,25.465,109.996,0,69.821,0h-.148C49.027.039,31.555,6.656,19.18,19.125,6.657,31.574.035,49.07,0,69.695c-.074,40.199,25.406,90.695,66.488,131.76,1.762,1.762,3.562,3.355,5.344,5.062l-16.707,199.41c-2.289,27.957,7.801,55.539,27.75,75.73l31.07,31.051v155.93h-45.938c-7.105,0-13.613,4.012-16.781,10.367-3.168,6.356-2.492,13.949,1.781,19.648l145.5,193.88c3.523,4.707,9.094,7.48,15,7.48s11.438-2.773,15-7.48l113.72-151.54,131.02,131.02c18.617,18.617,43.125,27.938,67.633,27.938s49.086-9.32,67.82-27.938l240.15-240.32c18.133-18.02,28.145-42,28.18-67.555.039-25.633-9.957-49.762-28.145-67.949l-104.29-104.3,135.64-180.84c4.273-5.68,4.949-13.273,1.781-19.633l-.031-.015ZM37.485,69.752c0-10.594,2.738-18.695,8.211-24.113,5.344-5.383,13.445-8.117,24.039-8.137h.094c30.133,0,71.383,21.77,105.09,55.5.73.73,1.406,1.555,2.137,2.305l-15.977,1.332c-38.363,3.242-69.602,28.633-81.863,63.227-25.742-30.414-41.773-64.332-41.719-90.113h-.011ZM213.495,850.012l-107.98-143.89h27.168c10.367,0,18.75-8.383,18.75-18.75v-181.12h124.11v181.12c0,10.367,8.383,18.75,18.75,18.75h27.281l-108.09,143.89h.011ZM839.515,564.072c-.039,15.488-6.094,30.074-17.156,41.043l-240.15,240.32c-22.801,22.648-59.812,22.688-82.461.039l-134.79-134.79,9.074-12.113c4.238-5.68,4.914-13.273,1.727-19.613-3.168-6.336-9.676-10.352-16.762-10.352h-45.938v-181.12c0-10.367-8.383-18.75-18.75-18.75h-161.61c-2.832,0-5.438.711-7.836,1.836l-15.395-15.395c-12.168-12.32-18.355-29.176-16.969-46.199l14.57-174.04c16.594,11.23,33.488,19.836,49.781,25.332,1.219,17.586,8.23,34.855,21.656,48.281,14.758,14.758,34.145,22.164,53.551,22.164s38.773-7.406,53.531-22.164c29.531-29.531,29.531-77.57,0-107.1-8.176-8.176-17.812-13.836-28.031-17.492-1.258-.637-2.664-.863-4.07-1.199-25.762-7.594-54.73-1.594-75,18.695-6.355,6.355-11.082,13.688-14.699,21.395-17.305-6.582-35.477-17.699-53.023-32.117l.301-3.617c2.27-28.367,24.637-50.699,53.176-53.137l221.83-18.562c16.93-1.273,33.77,4.742,45.918,16.875l390.36,390.38c11.082,11.082,17.176,25.781,17.156,41.383l.01.017ZM198.435,267.882c20.531,0,37.895-6.508,50.344-19.105,5.176-5.176,9.188-11.418,12.32-18.301,12.676,15,12.113,37.461-2.023,51.602-14.906,14.926-39.168,14.887-54.074,0-4.18-4.18-7.051-9.113-8.887-14.344.77,0,1.574.148,2.324.148h-.004ZM222.169,222.355c-4.949,5.023-11.832,7.105-18.883,7.727.602-.676,1.051-1.445,1.707-2.082,5.699-5.699,12.789-9.188,20.195-10.52-.992,1.633-1.727,3.562-3.02,4.875h0ZM719.739,362.495l-107.98-143.96h27.148c10.367,0,18.75-8.383,18.75-18.75V37.505h124.14v162.28c0,10.367,8.383,18.75,18.75,18.75h27.148l-107.98,143.96h.024Z"/>
  <path d="M410.435,406.932l-28.82-28.82c-7.332-7.332-19.18-7.332-26.512,0-7.332,7.332-7.332,19.18,0,26.512l28.82,28.82-.77.77c-14.793,14.793-22.93,34.445-22.93,55.352s8.137,40.555,22.93,55.332c30.508,30.508,80.137,30.508,110.68,0l28.051-28.051c15.414-15.43,42.242-15.395,57.656,0,15.898,15.898,15.898,41.758,0,57.637l-32.738,32.738c-13.332,13.332-34.969,13.332-48.301,0-7.332-7.332-19.18-7.332-26.512,0-7.332,7.332-7.332,19.18,0,26.512,13.969,13.969,32.324,20.945,50.664,20.945s36.695-6.977,50.664-20.945l5.438-5.438,28.836,28.82c3.656,3.656,8.457,5.492,13.258,5.492s9.602-1.836,13.258-5.492c7.332-7.332,7.332-19.18,0-26.512l-28.836-28.82.789-.789c30.508-30.508,30.508-80.156,0-110.66-14.793-14.793-34.445-22.949-55.352-22.949s-40.555,8.156-55.332,22.949l-28.051,28.051c-15.883,15.898-41.758,15.898-57.656,0-7.707-7.707-11.945-17.945-11.945-28.82s4.238-21.133,11.945-28.836l32.719-32.719c12.918-12.918,35.383-12.918,48.301,0,7.332,7.332,19.18,7.332,26.512,0,7.332-7.312,7.332-19.18,0-26.512-27.055-27.055-74.27-27.113-101.32,0l-5.438,5.438-.008-.004Z"/>
</svg>