<?xml version="1.0" encoding="UTF-8"?>
<svg id="Layer_1" data-name="Layer 1" xmlns="http://www.w3.org/2000/svg" viewBox="0 0 1080.099 916.375">
  <defs>
    <style>
      .cls-1 {
        fill-rule: evenodd;
      }
    </style>
  </defs>
  <path class="cls-1" d="M609.093,351.715l423.84-113.58c-71.344-72.094-156.74-126.74-249.66-161.48-99.188-37.078-206.95-51.422-315.24-39.984l-133.78,152.68c7.078,11.438,9.891,25.359,8.672,39.938-1.547,18.328-9.656,37.969-24,54.797-.469.703-1.031,1.312-1.688,1.922h-.047c-14.812,16.594-33.375,27.328-51.469,31.266-14.297,3.141-28.453,2.156-40.734-3.328L63.967,497.735l352.08-94.312c-.047-17.203,6.562-34.078,18.188-48.609,14.297-17.906,36.422-32.391,62.953-39.141,26.484-6.75,52.781-4.594,73.922,4.359,16.266,6.891,29.578,17.719,37.875,31.688l.107-.006ZM1047.333,268.137v338.68l-223.45,59.859c-9.75-18.75-27.141-32.953-48.891-41.344-25.641-9.938-57.609-11.766-89.766-3.141h-.047c-32.203,8.625-58.922,26.203-76.172,47.625-14.625,18.188-22.594,39.188-21.656,60.281l-285.28,76.453c-7.359-10.688-19.031-18.609-33.234-23.25-17.719-5.766-39.844-6.375-62.25-.516-.516.141-1.078.234-1.547.422-22.312,6.141-41.156,17.719-53.625,31.547-10.031,11.109-16.125,23.812-17.156,36.75l-101.44,27.188v-110.25c10.875-3.797,20.391-11.25,27.844-21.328,9.984-13.5,16.125-31.875,16.125-51.844s-6.188-38.344-16.125-51.844c-7.453-10.078-16.969-17.578-27.844-21.328v-82.031l391.4-104.86c8.203,15.141,22.078,26.812,39.281,34.125,21.141,8.906,47.391,11.062,73.875,4.359h.047c26.531-6.75,48.609-21.188,62.953-39.141,12.234-15.328,18.891-33.234,18.141-51.375l428.86-114.89-.043-.148ZM1074.755,234.809c2.203,2.016,3.891,4.688,4.734,7.828.375,1.406.562,2.812.562,4.219h.047v372.52c0,7.875-5.578,14.438-12.984,16.031l-248.81,66.656c-8.719,2.344-17.672-2.859-20.016-11.578-4.219-15.703-17.297-27.844-35.062-34.688-19.453-7.547-44.203-8.812-69.562-2.016s-46.125,20.25-59.203,36.516c-11.953,14.859-17.25,31.875-13.031,47.625.375,1.406.562,2.812.562,4.219h.047c0,7.875-5.578,14.438-12.984,16.031l-311.58,83.484c-8.719,2.344-17.672-2.859-20.016-11.578-1.875-7.031-8.906-12.469-18.75-15.703-12.188-3.984-27.984-4.219-44.438.188-16.453,4.406-29.953,12.516-38.578,22.078-6.938,7.688-10.266,15.938-8.391,22.969,2.344,8.719-2.859,17.672-11.578,20.016l-135.1,36.188c-8.719,2.344-17.672-2.859-20.016-11.578-.375-1.406-.562-2.812-.562-4.219h-.047v-145.18c0-9.047,7.312-16.359,16.359-16.359,6.703,0,13.078-4.125,18-10.828,5.953-8.062,9.609-19.5,9.609-32.438s-3.703-24.375-9.609-32.438c-4.922-6.703-11.297-10.828-18-10.828-9.047,0-16.359-7.312-16.359-16.359v-108.19c0-4.594,1.922-8.766,4.969-11.766l204.71-233.63c5.906-6.797,16.219-7.453,23.016-1.547,6.422,5.625,15.984,7.078,26.203,4.828,11.906-2.625,24.375-10.031,34.547-21.609l.703-.844.094-.094c9.656-11.391,15.141-24.328,16.125-36.234.891-10.406-1.781-19.688-8.203-25.312-.281-.234-.562-.469-.797-.75l-.047.047c-6.375-6.375-6.375-16.734,0-23.156l.188-.188L447.767,10.222c2.766-3.188,6.516-5.016,10.406-5.438v-.047c115.41-13.266,230.58,1.594,336.52,41.203,105.47,39.422,201.74,103.41,280.08,188.68l-.018.188ZM300.705,563.029c-22.688,6.094-41.812,17.766-54.422,31.781-14.25,15.844-20.578,34.781-15.703,53.203v.047c4.969,18.422,19.969,31.734,40.219,38.297,17.906,5.812,40.312,6.375,62.953.328h.047c22.688-6.094,41.812-17.766,54.422-31.781,14.25-15.844,20.625-34.828,15.656-53.25-4.922-18.422-19.922-31.734-40.219-38.297-17.906-5.812-40.312-6.375-63-.328h.047ZM353.58,594.388c-12.188-3.984-27.984-4.219-44.438.188s-30,12.516-38.578,22.078c-6.703,7.453-10.078,15.469-8.531,22.359.141.375.234.797.328,1.172,2.109,6.703,9,12,18.562,15.094,12.047,3.891,27.562,4.219,43.781-.047.422-.141.891-.234,1.312-.375,16.172-4.453,29.438-12.469,37.922-21.891,6.703-7.453,10.078-15.469,8.531-22.359-.141-.375-.234-.797-.328-1.172-2.109-6.703-9-12-18.562-15.094v.047ZM770.53,157.988c16.312-4.359,32.578-3.328,45.75,1.828,14.859,5.812,26.016,16.828,29.953,31.641l.047.094c4.734,17.719-1.641,33.281-12.797,45.281-9.75,10.453-23.578,18.094-36.141,21.469-13.828,3.703-31.781,3.656-46.5-2.109-13.688-5.391-24.938-15.375-29.203-31.312-3.938-14.766.188-29.859,10.125-42.328,8.859-11.109,22.453-20.109,38.766-24.516v-.047ZM804.374,190.238c5.109,2.016,8.859,5.203,10.125,9.094.094.375.188.75.281,1.078,1.078,4.969-1.312,9.938-5.203,14.109-5.484,5.859-13.359,10.172-20.672,12.141-7.969,2.156-18.141,2.203-26.203-.938-4.641-1.828-8.297-4.828-9.516-9.328-1.125-4.172.516-9.047,4.125-13.547,4.547-5.719,11.859-10.453,20.906-13.031.516-.094.984-.234,1.453-.375,9.141-2.297,17.859-1.828,24.656.844l.047-.047ZM558.514,350.128c13.125,5.578,22.828,14.953,26.062,26.953.094.328.141.609.234.938,2.859,12.047-1.172,24.938-10.125,36.141-9.938,12.469-25.688,22.641-44.906,27.609-.328.094-.703.141-1.031.234-19.312,4.781-38.016,3.375-52.688-2.812-13.312-5.625-23.109-15.188-26.203-27.422-3.094-12.188.938-25.266,9.984-36.609,10.031-12.562,25.969-22.781,45.422-27.75,19.5-4.969,38.391-3.562,53.203,2.672l.047.047ZM476.717,97.568c.703-.469,1.406-.891,2.156-1.266,19.266-10.828,40.078-14.953,58.359-12.891,20.438,2.297,37.922,12.188,47.672,29.062.234.375.422.75.609,1.125,9.141,16.641,8.766,36.281.75,54.703-7.5,17.203-21.891,33.469-41.484,44.766h-.047c-14.906,8.625-35.109,14.484-54.094,13.828-20.859-.703-40.594-8.812-52.406-28.453l-.047.047c-.469-.703-.844-1.406-1.219-2.156-9.047-16.641-8.672-36.188-.656-54.562,7.359-16.922,21.375-32.906,40.359-44.156l.047-.047ZM533.623,115.896c9.891,1.125,18.188,5.25,22.547,12.188.281.609.656,1.172,1.031,1.734,3.656,7.219,3.094,16.359-.891,25.453-4.828,11.109-14.438,21.797-27.703,29.484l-.141.094c-10.219,5.906-23.953,9.891-36.844,9.469-10.688-.375-20.531-4.078-25.688-12.984l-.047-.094h.047c-4.266-7.359-3.797-16.922.328-26.438,4.828-11.109,14.531-21.844,27.844-29.531s27.422-10.688,39.516-9.328v-.047ZM850.023,415.796c25.734-6.891,51.188-6.094,71.484.797,22.594,7.641,39.328,22.688,44.859,43.359s-1.406,42.094-17.156,59.953c-14.156,16.125-35.812,29.531-61.594,36.422-25.734,6.891-51.188,6.094-71.484-.75-22.594-7.641-39.328-22.688-44.859-43.359s1.406-42.094,17.156-59.953c14.156-16.125,35.812-29.531,61.594-36.422v-.047ZM911.148,447.53c12.281,4.172,21.141,11.438,23.672,20.859s-1.547,20.156-10.125,29.906c-10.172,11.531-26.109,21.281-45.516,26.438-19.453,5.203-38.156,4.781-52.688-.141-12.281-4.172-21.141-11.438-23.672-20.859s1.547-20.156,10.125-29.906c10.172-11.531,26.109-21.281,45.516-26.438,19.453-5.203,38.156-4.781,52.688.141Z"/>
</svg>