<?xml version="1.0" encoding="UTF-8"?>
<svg id="Layer_1" xmlns="http://www.w3.org/2000/svg" version="1.1" viewBox="0 0 802.5 859.3">
  <!-- Generator: Adobe Illustrator 29.2.1, SVG Export Plug-In . SVG Version: 2.1.0 Build 116)  -->
  <path d="M134.5,16c9.2-8.8,18.1-13.5,30.6-15.8,18.1-1.7,34.5,6.8,43.9,22.6,33-9,62.5,13.5,58.1,48.2-2.5,19.6-14,29.5-28.7,41.1,70.9,95.3,57.4,143.4,117.6,175,43.5,22.8,124,20.1,171.9,5.2,20.9-26.9,44.2-51.6,65.3-79.3,26.5-35,55.4-69.5,103.5-70.4,56.1-1,87.3,39,88,92.5,36.1,47.7,14,112.7-38.3,136.6-11,5-22.5,8.6-33.5,13.5,18.9,98.3-18.9,203.6-105.4,258.1-23.9,15-17.5,12-34.2,33.9-17.9,23.5-30.8,27.3-54.3,39.7,5.4,23.1,12.7,45.7,18,68.8,9,1.4,36.7,3.9,42.3,11.2,6.8,8.8-1,18.7-10.7,18.6-9.8-.1-26.3-4.5-36.5-6.4-18.7,12.2-40.1,19.5-56.9,34.8-5.2,4.6-9.7,12.3-17.2,13-18.6,1.8-10.9-19.3-.9-29.1,5.7-4.3-24.3-9.8-29.1-10.7-10.1,9.8-21.8,11-25.6-4.2,5.3-26.1,48.5-36.8,70.2-42.5-3.4-18-9.2-35.7-13.5-53.5-25.4-7.3-44.7-29.2-75-10.9-16.6,10-23.9,15.5-44,19.2,4.5,20.7,9.6,41.3,13.6,62.2,11.4,1.2,32,3.1,38.5,12.6,3.4,5,1.5,13.4-3.5,16.6-6.1,3.9-29.5-4.4-37.3-6.3-19.2,7.3-55.1,24.3-68.8,36.6-10,8.9-24.3,22.2-29.9,1.1,2.4-10.4,11-16.8,18.5-23.6-10.9-4-23.5-5.3-35-7.2-4.7,3.4-9.6,9.2-15.5,10.4-11.8,2.4-18-10.4-11.4-19.2,13.1-17.6,57.9-35,80-37.9-3.2-19.7-8-39.3-11.9-58.9-11.2-8.2-22-18-30.2-29.4-20.1-28-9.1-16-41-33.4-69-37.8-119.4-110.2-124.3-189.5-4.5-72.6,30.6-132,28.6-199-26.6,9.4-55.5,5.1-64.6-25.2-5.8-19.2,6.8-39,15.6-55.2-14.5-4.9-68.7-6.4-61-26.6,3.8-10,57.1-35.5,70.1-41.2-4.5-12.7-11.2-21.2-13.8-35.3C48.3,29.6,92.3-14.4,134.5,16h0ZM167.1,22.8c-15.8,6-23.6,27.3-36.4,21.6-12-5.4-13.6-19.6-31.7-13.1-26.2,9.5-21.4,42.1-11.5,62,17.3-15.4,38.7-24.2,61.8-24.1,41.2.4,44.1,13.3,73,24.1,13.9-6.4,27.4-21.8,19-37.5-14.4-27.1-39.6,6.8-49.3-10.5-6.5-11.5-8.8-23.6-24.9-22.5h0ZM145.1,93.2c-22.5,2.5-40.5,13.3-55.4,30.3,7.8,17.2,7.8,24.6,4.6,43.3,14.3,8,31.1,43.8,35.7,59.9,29,102.8-69.7,190.6,2.3,316.4,21.5,37.6,49.5,63.5,86.9,84.8,38.5,21.8,21.1,3.4,46.4,38.6,18,25,46.5,42.2,77.9,33.6,21.8-6,29.3-21.1,55.5-24.3,33.5-4.1,37.9,6.7,63.2,16.2,37.5,14.1,76.3-4.8,97.4-36.5,16.6-24.9,13.1-17.4,37.2-33.6,20.5-13.7,38.6-30.9,53.4-50.6,34.5-48.9,47.8-99.4,42.1-159.9-.9-10.1-5.5-28.1-1.7-37.1,9.5-22.3,64.1-15.1,83-62.8,22-55.4-37.1-111-89-79.5-18,10.9-52.1,45-67.9,60.9-6.5,6.6-14.7,17.7-23.3,20.9-7.7,1-15.5.2-23.3,0-30.5-.8-60.8,7.5-90.9,11.3-52.2,6.6-110.8,4.1-154.2-29.2-29.8-22.9-40.4-51.6-55.6-84.2-21.3-45.8-61.3-127.4-124.2-118.5h0ZM70.6,138.9c-8.5,3.1-16.8,7.2-24.4,12.1l6.8,1.9c4.2,1,13.9,4.7,17.6,2.2,3-1.9,3.2-15.6,0-16.3h0ZM691.9,166.9c-28.4,3.2-47.3,19.7-64.5,41.4l-66.3,81.9c7.9,0,15,.5,22.8,2.2,6.8-9.8,19.3-20.1,28.2-28.4l29.5-27.3c35.2-32.6,69.4-49.9,115.3-27.2-6.6-29.3-36-46.4-65-42.5h0ZM81.7,188.7l-.3.9c-3.6,11.9-17.2,29.9-10.7,42.4,3.8,7.4,13.5,10.2,21.1,8.7,5.5-1.4,10.5-3.2,15.5-5.7-4-14.9-13.1-36.7-25.6-46.3h0ZM491.2,720.4h-7.1c5.4,20.7,13.3,46.3,16.2,67-12.8,3.8-31.5,7.7-43.2,13.3,10.4,2.9,15.1,4,25.3,8.5,9.3-4.7,22.3-13.2,32-15.6-3-12.9-15.4-75-23.1-73.2h0ZM304.7,723.4c2.8,20.3,7.4,42.3,11.9,62.3-15.8,5.7-32.7,8.5-48.2,14.9,6,1,12,1.9,17.9,3.5,4.2.9,8.4,1.7,12.5,2.8,9.4-2.4,22.3-8.8,31-13.4-3.2-22.5-11.1-46.3-13.2-68.3-4-.5-7.9-1-11.8-1.8Z"/>
  <path d="M140.2,155.7c-28-.7-31.7-36.3-3.5-43.6,28.2,3,33,39.8,3.5,43.6ZM136.7,130.3c-5,4.5-1.9,8.1,3.5,8.6,4.3-4.8,2.5-8.5-3.5-8.6Z"/>
  <path d="M584,452c-55.9-7-66.3-23.5-108.7-47.4-35.7-20.2-78.8-32.4-120-31.8-6.1,0-17.2,2-22.2-1.5-10-7.1-5.6-20,9-22.1,55.2-.9,103.5,9.8,151.1,38.4,36,21.7,50.9,34.9,94,40.3,7.5.9,18.8.2,25.5,3,28.4,11.6-27.7,52.8-37.1,58.3-9.5,5.5-19.7,9.5-29.9,13.4,13.1,3.4,44.7,1.4,37.2,19.1-6.5,15.3-46.3,37-61.5,43.1-114.1,45.8-257.5-8.3-304.1-124.2-3.6-8.9-12.5-26.4-1.6-33.7,15.8-10.7,20.5,17,23.5,24.6,45.4,115.3,201.7,161.3,304.2,94.3-11.2-3.8-42.9-14.9-42.7-30.4.2-12.8,15.8-11.6,24.7-13.3,23.5-4.3,41.2-13.5,58.5-30h0Z"/>
</svg>