<?xml version="1.0" encoding="UTF-8"?>
<svg width="1200pt" height="1200pt" version="1.1" viewBox="0 0 1200 1200" xmlns="http://www.w3.org/2000/svg">
 <path d="m333.37 186.32c9.1875-8.7656 18.094-13.453 30.609-15.75 18.094-1.6875 34.5 6.75 43.875 22.594 32.953-8.9531 62.484 13.547 58.078 48.234-2.4844 19.594-14.016 29.531-28.688 41.062 70.875 95.297 57.422 143.44 117.61 174.98 43.547 22.828 123.98 20.109 171.94 5.2031 20.906-26.906 44.25-51.562 65.297-79.266 26.531-35.016 55.359-69.516 103.55-70.406 56.109-0.98438 87.328 39 87.984 92.484 36.094 47.672 14.016 112.73-38.297 136.64-10.969 5.0156-22.5 8.5781-33.516 13.5 18.891 98.344-18.938 203.63-105.38 258.1-23.859 15.047-17.531 12-34.172 33.938-17.859 23.484-30.75 27.281-54.281 39.656 5.4375 23.062 12.703 45.703 18.047 68.812 9.0469 1.3594 36.656 3.9375 42.281 11.25 6.75 8.7656-1.0312 18.703-10.688 18.562-9.7969-0.14062-26.297-4.4531-36.469-6.4219-18.703 12.234-40.125 19.547-56.906 34.781-5.1562 4.6406-9.7031 12.328-17.203 13.031-18.562 1.7812-10.922-19.266-0.89062-29.109 5.6719-4.3125-24.281-9.7969-29.062-10.734-10.078 9.7969-21.844 11.016-25.594-4.1719 5.3438-26.109 48.469-36.75 70.219-42.516-3.4219-18-9.1875-35.719-13.5-53.531-25.359-7.3125-44.719-29.203-75.047-10.875-16.594 10.031-23.906 15.469-44.016 19.219 4.4531 20.719 9.5625 41.344 13.641 62.156 11.391 1.2188 31.969 3.0938 38.531 12.609 3.4219 4.9688 1.5 13.406-3.5156 16.641-6.0938 3.8906-29.484-4.4062-37.266-6.2812-19.219 7.2656-55.078 24.328-68.766 36.562-9.9844 8.9062-24.281 22.219-29.906 1.125 2.3906-10.359 11.016-16.781 18.516-23.625-10.922-3.9844-23.531-5.2969-35.016-7.2188-4.6875 3.4219-9.6094 9.2344-15.516 10.406-11.766 2.3906-18.047-10.359-11.438-19.219 13.078-17.578 57.891-35.016 80.016-37.875-3.2344-19.734-8.0156-39.281-11.859-58.922-11.25-8.1562-22.031-18.047-30.188-29.391-20.109-28.031-9.1406-15.984-41.016-33.422-69-37.781-119.44-110.16-124.31-189.52-4.5-72.609 30.609-132.05 28.641-198.98-26.578 9.4219-55.5 5.0625-64.594-25.172-5.7656-19.172 6.75-38.953 15.562-55.219-14.484-4.9219-68.719-6.4219-61.031-26.578 3.7969-10.031 57.141-35.531 70.078-41.203-4.5-12.656-11.203-21.234-13.781-35.344-8.7656-47.109 35.297-91.125 77.438-60.797zm32.625 6.8438c-15.844 6.0469-23.625 27.281-36.375 21.562-12.047-5.3906-13.594-19.641-31.734-13.125-26.25 9.4688-21.422 42.094-11.531 61.969 17.297-15.422 38.672-24.188 61.828-24.141 41.203 0.42188 44.062 13.266 73.031 24.141 13.922-6.4219 27.422-21.75 19.031-37.5-14.438-27.141-39.562 6.8438-49.312-10.453-6.5156-11.484-8.7656-23.578-24.938-22.453zm-22.031 70.406c-22.547 2.5312-40.547 13.266-55.359 30.328 7.8281 17.156 7.8281 24.609 4.6406 43.312 14.297 8.0156 31.125 43.781 35.672 59.859 28.969 102.75-69.656 190.64 2.2969 316.45 21.516 37.641 49.453 63.516 86.906 84.797 38.531 21.844 21.094 3.375 46.359 38.578 17.953 25.031 46.547 42.188 77.906 33.609 21.797-5.9531 29.297-21.094 55.453-24.281 33.516-4.0781 37.922 6.7031 63.234 16.219 37.453 14.062 76.266-4.7812 97.359-36.469 16.594-24.938 13.078-17.438 37.172-33.562 20.484-13.734 38.578-30.891 53.391-50.578 34.547-48.938 47.812-99.375 42.141-159.94-0.9375-10.078-5.5312-28.078-1.6875-37.125 9.5156-22.312 64.125-15.141 83.016-62.766 21.984-55.359-37.125-111-89.016-79.5-18 10.922-52.125 44.953-67.875 60.938-6.5156 6.6094-14.672 17.672-23.344 20.859-7.7344 1.0312-15.516 0.1875-23.297-0.046875-30.516-0.75-60.797 7.5469-90.938 11.297-52.172 6.5625-110.81 4.125-154.18-29.25-29.812-22.922-40.359-51.562-55.641-84.234-21.328-45.844-61.266-127.45-124.22-118.5zm-74.438 45.656c-8.5312 3.0938-16.781 7.1719-24.422 12.141l6.75 1.875c4.2188 1.0312 13.875 4.6875 17.578 2.25 2.9531-1.9219 3.2344-15.562 0.09375-16.266zm621.28 27.984c-28.359 3.2344-47.297 19.734-64.5 41.391l-66.281 81.891c7.875 0 15.047 0.51562 22.828 2.1562 6.8438-9.7969 19.266-20.062 28.219-28.359l29.484-27.328c35.156-32.625 69.422-49.922 115.27-27.234-6.5625-29.344-35.953-46.406-65.016-42.516zm-610.22 21.891-0.28125 0.9375c-3.6094 11.859-17.156 29.859-10.734 42.375 3.7969 7.4062 13.453 10.172 21.141 8.7188 5.4844-1.3594 10.453-3.2344 15.516-5.7188-3.9844-14.859-13.078-36.703-25.641-46.312zm409.55 531.61h-7.125c5.4375 20.672 13.312 46.266 16.172 66.984-12.844 3.75-31.547 7.7344-43.219 13.266 10.406 2.9062 15.094 3.9844 25.312 8.5312 9.3281-4.6875 22.312-13.219 31.969-15.562-3-12.938-15.375-75-23.109-73.219zm-186.52 3c2.8125 20.344 7.4062 42.281 11.859 62.344-15.844 5.6719-32.672 8.4844-48.234 14.906 6.0469 0.98438 11.953 1.875 17.859 3.5156 4.1719 0.89062 8.3906 1.6875 12.469 2.8125 9.4219-2.4375 22.312-8.7656 31.031-13.406-3.2344-22.5-11.109-46.312-13.172-68.344-3.9844-0.46875-7.875-0.98438-11.812-1.8281z"/>
 <path d="m339.05 326.06c-27.984-0.65625-31.688-36.281-3.4688-43.641 28.219 3 32.953 39.797 3.4688 43.641zm-3.4688-25.406c-4.9688 4.5-1.875 8.0625 3.4688 8.5781 4.2656-4.7812 2.4844-8.4844-3.4688-8.5781z"/>
 <path d="m782.86 622.36c-55.875-7.0312-66.281-23.531-108.66-47.438-35.719-20.156-78.75-32.438-119.95-31.781-6.0938 0.09375-17.25 1.9688-22.219-1.5469-9.9844-7.125-5.5781-19.969 9.0469-22.125 55.219-0.9375 103.5 9.7969 151.08 38.438 36 21.656 50.906 34.875 94.031 40.312 7.5469 0.9375 18.75 0.1875 25.5 2.9531 28.359 11.578-27.703 52.828-37.125 58.312-9.4688 5.5312-19.688 9.4688-29.906 13.359 13.078 3.375 44.672 1.3594 37.172 19.078-6.4688 15.281-46.312 37.031-61.5 43.125-114.14 45.844-257.53-8.2969-304.08-124.18-3.5625-8.8594-12.469-26.391-1.6406-33.703 15.75-10.688 20.484 16.969 23.531 24.609 45.422 115.27 201.66 161.26 304.22 94.266-11.203-3.75-42.938-14.906-42.656-30.422 0.23438-12.844 15.797-11.625 24.703-13.266 23.484-4.3125 41.25-13.547 58.453-30z"/>
</svg>
