<?xml version="1.0" encoding="UTF-8"?>
<svg width="1200pt" height="1200pt" version="1.1" viewBox="0 0 1200 1200" xmlns="http://www.w3.org/2000/svg">
 <path d="m456 35.297c-4.7344 0-9.2344 1.8281-12.562 5.1562s-5.2031 7.875-5.1562 12.562v54.094h-95.766c-9.75-0.046875-17.672 7.8281-17.719 17.578v65.391h-21.094v-0.046875c-9.7031 0.046875-17.531 7.9219-17.578 17.578v307.45h-116.72c-9.75 0.046875-17.625 7.9688-17.578 17.719v59.016h-29.953c-4.6875 0-9.1875 1.875-12.469 5.2031-3.3281 3.3281-5.1562 7.8281-5.1562 12.516v519.89h-34.125v-0.046875c-4.6875 0.046875-9.1406 1.9219-12.422 5.25-3.3281 3.3281-5.1562 7.8281-5.1562 12.469 0.046875 9.7031 7.875 17.578 17.578 17.625h1059.6c4.6875 0 9.1875-1.8281 12.516-5.1094 3.3281-3.3281 5.1562-7.8281 5.2031-12.516 0-4.6875-1.875-9.1875-5.2031-12.516s-7.8281-5.2031-12.516-5.2031h-34.031v-681.79c0-6.9844-4.125-13.312-10.547-16.125l-284.63-126.37c-5.4375-2.3906-11.719-1.875-16.688 1.3594-4.9688 3.1875-8.0156 8.7188-8.0625 14.672v483.42h-149.9v-596.9c-0.046875-9.75-7.9688-17.578-17.719-17.578h-21.141v-65.391 0.046874c-0.046875-9.7031-7.875-17.578-17.578-17.578h-95.906l0.046875-54.094c0-4.6875-1.8281-9.1875-5.1562-12.516-3.2812-3.3281-7.7344-5.2031-12.422-5.2031zm-95.906 107.06h191.63v47.672h-191.63zm-38.672 82.969h269.11v579.19h-83.625c-9.75 0.046875-17.578 7.9688-17.578 17.719v307.18h-65.156l0.046875-519.89c0-4.7344-1.875-9.2344-5.2031-12.562-3.2812-3.3281-7.8281-5.2031-12.516-5.1562h-29.859v-59.016c0.046875-9.75-7.8281-17.672-17.578-17.719h-37.641zm86.391 52.406c-4.6875-0.046875-9.1875 1.8281-12.516 5.1094s-5.2031 7.7812-5.2031 12.469v41.578c0 4.6406 1.875 9.1406 5.2031 12.422 3.3281 3.3281 7.8281 5.1562 12.516 5.1562 9.7031-0.046875 17.531-7.9219 17.578-17.578v-41.578c-0.046875-9.7031-7.875-17.531-17.578-17.578zm96.422 0h-0.046875c-9.75-0.046875-17.672 7.8281-17.719 17.578v41.578c0.046875 9.7031 7.9688 17.578 17.719 17.578 9.7031-0.046875 17.531-7.9219 17.578-17.578v-41.578c-0.046875-9.7031-7.875-17.531-17.578-17.578zm306.89 70.594 249.32 110.72-0.046874 670.31h-129.32v-307.18 0.046874c0-9.75-7.8281-17.672-17.578-17.719h-102.38zm-403.26 49.266-0.046875-0.046875c-4.6875 0-9.1875 1.8281-12.516 5.1562-3.3281 3.2812-5.2031 7.7812-5.2031 12.422v41.438c-0.046875 4.7344 1.8281 9.2344 5.1562 12.562s7.8281 5.1562 12.562 5.1562c4.6875 0 9.1406-1.875 12.469-5.2031 3.2812-3.3281 5.1094-7.8281 5.1094-12.516v-41.438c-0.046875-9.6562-7.875-17.531-17.578-17.578zm96.422 0-0.09375-0.046875c-9.75 0-17.672 7.8281-17.719 17.578v41.438c0 4.7344 1.875 9.2344 5.2031 12.562s7.8281 5.1562 12.516 5.1562 9.1875-1.875 12.469-5.2031 5.1562-7.8281 5.1094-12.516v-41.438c-0.046875-9.6562-7.875-17.531-17.578-17.578zm0 119.72-0.09375-0.046875c-4.6875 0-9.1875 1.8281-12.516 5.1562s-5.2031 7.875-5.2031 12.562v41.438c0 4.6875 1.875 9.1875 5.2031 12.516s7.8281 5.2031 12.516 5.2031c4.6875-0.046875 9.1875-1.9219 12.469-5.25s5.1562-7.7812 5.1094-12.469v-41.438c0.046875-9.75-7.8281-17.672-17.578-17.719zm383.34 1.9688-0.046875-0.046875c-4.7344-0.046875-9.2344 1.8281-12.562 5.1562s-5.2031 7.8281-5.1562 12.562v41.438c-0.046875 4.6875 1.8281 9.1875 5.1562 12.516s7.8281 5.2031 12.562 5.1562c4.6875 0 9.1406-1.875 12.469-5.2031 3.2812-3.3281 5.1094-7.8281 5.1094-12.469v-41.438c0-4.6875-1.8281-9.1875-5.1094-12.516-3.3281-3.3281-7.7812-5.2031-12.469-5.2031zm96.422 0-0.09375-0.046875c-4.6875-0.046875-9.1875 1.8281-12.516 5.1562s-5.2031 7.8281-5.2031 12.562v41.438c0 4.6875 1.875 9.1875 5.2031 12.516s7.8281 5.2031 12.516 5.1562c4.6875 0 9.1875-1.875 12.469-5.2031s5.1562-7.8281 5.1094-12.469v-41.438c0.046875-4.6875-1.8281-9.1875-5.1094-12.516s-7.7812-5.2031-12.469-5.2031zm-796.82 31.125h154.22v41.438h-154.22zm-47.531 76.734h249.32v502.31h-249.32zm364.6 10.031-0.09375-0.09375c-4.6875 0-9.2344 1.875-12.562 5.2031s-5.1562 7.875-5.1562 12.562v41.391c0 4.7344 1.875 9.2344 5.2031 12.562s7.8281 5.2031 12.516 5.1562c4.6875 0 9.1875-1.875 12.469-5.2031s5.1562-7.8281 5.1094-12.516v-41.391c0.046875-4.6875-1.7812-9.1875-5.1094-12.516-3.2812-3.3281-7.7812-5.2031-12.469-5.25zm383.34 1.9688-0.046875-0.09375c-4.7344 0-9.2344 1.875-12.562 5.2031s-5.2031 7.8281-5.1562 12.516v41.438c0 4.6875 1.875 9.1406 5.2031 12.469 3.3281 3.2812 7.8281 5.1094 12.516 5.1094 9.7031-0.046875 17.531-7.875 17.578-17.578v-41.438c0-4.6875-1.8281-9.1875-5.1094-12.469-3.3281-3.3281-7.7812-5.2031-12.469-5.25zm96.422 0-0.09375-0.09375c-4.6875 0-9.1875 1.875-12.516 5.2031s-5.2031 7.8281-5.2031 12.516v41.438c0.046875 4.6875 1.9219 9.1406 5.25 12.469 3.3281 3.2812 7.7812 5.1094 12.469 5.1094 9.7031-0.046875 17.531-7.875 17.578-17.578v-41.438c0.046875-4.6875-1.8281-9.1875-5.1094-12.469-3.2812-3.3281-7.7812-5.2031-12.469-5.25zm-788.29 92.016c-4.6875 0-9.1875 1.8281-12.516 5.1094-3.3281 3.3281-5.2031 7.8281-5.2031 12.516-0.046875 4.6875 1.8281 9.1875 5.1562 12.516s7.8281 5.2031 12.562 5.2031h137.02c4.6875 0 9.2344-1.875 12.562-5.2031s5.1562-7.8281 5.1562-12.516-1.875-9.1875-5.2031-12.516c-3.3281-3.2812-7.8281-5.1094-12.516-5.1094zm788.26 27.75h-0.046875c-4.6875-0.046875-9.1875 1.8281-12.516 5.1094-3.2812 3.3281-5.1562 7.8281-5.2031 12.516v41.531c0.046875 9.7031 7.9688 17.578 17.719 17.578 9.7031-0.046875 17.531-7.9219 17.578-17.578v-41.531c0-9.7031-7.875-17.578-17.578-17.625zm-459.32 80.906h371.11v289.6h-33.094v-238.82c0.046875-9.75-7.8281-17.672-17.578-17.719h-269.81c-4.6875 0-9.2344 1.875-12.516 5.2031-3.3281 3.3281-5.2031 7.8281-5.2031 12.516v238.78h-32.953zm-328.92 21.891v-0.046875c-4.6875 0-9.1875 1.8281-12.516 5.1562-3.3281 3.2812-5.2031 7.7812-5.2031 12.469-0.046875 4.6875 1.8281 9.2344 5.1562 12.562s7.8281 5.1562 12.562 5.1562h137.02c4.6875 0 9.2344-1.8281 12.562-5.1562s5.1562-7.875 5.1562-12.562-1.875-9.1875-5.2031-12.469c-3.3281-3.3281-7.8281-5.1562-12.516-5.1562zm788.26 17.109-0.046876-0.046875c-9.75-0.046875-17.672 7.8281-17.719 17.578v41.531c0.046876 4.6875 1.9219 9.1875 5.2031 12.469 3.3281 3.3281 7.8281 5.1562 12.516 5.1562 9.7031-0.046875 17.578-7.9219 17.578-17.625v-41.531c-0.046876-9.7031-7.875-17.531-17.578-17.578zm-391.08 29.438h99.656v93l-99.703-0.046875zm134.95 0h99.516v93h-99.516zm-532.13 84v-0.046875c-4.6875 0-9.1875 1.8281-12.516 5.1094-3.3281 3.3281-5.2031 7.8281-5.2031 12.516 0.046875 9.75 7.9688 17.578 17.719 17.578h137.02c9.75 0 17.672-7.8281 17.719-17.578 0-4.6875-1.875-9.1875-5.2031-12.516-3.3281-3.2812-7.8281-5.1094-12.516-5.1094zm788.26 6.4219-0.046875-0.046875c-9.75-0.046875-17.672 7.8281-17.719 17.578v41.438-0.046875c0 4.7344 1.875 9.2344 5.2031 12.562s7.8281 5.2031 12.516 5.1562c9.75 0 17.625-7.9688 17.578-17.719v-41.438 0.046875c-0.046875-9.7031-7.875-17.578-17.578-17.578zm-391.08 37.922h99.656v92.859h-99.703zm134.95 0h99.516v92.859h-99.516z"/>
</svg>
