<?xml version="1.0" encoding="UTF-8"?>
<svg width="1200pt" height="1200pt" version="1.1" viewBox="0 0 1200 1200" xmlns="http://www.w3.org/2000/svg">
 <path d="m163.87 423.32c-3.8906 0-7.0312 3.1406-7.0312 7.0312v78.984l-30.75 0.046875c-11.391 0-20.672 9.2812-20.672 20.672v585.42c0 9.0938 7.4062 16.547 16.547 16.547h956.11c9.0938 0 16.547-7.4062 16.547-16.547l-0.046875-591.79c0-11.391-9.2812-20.672-20.672-20.672h-25.219v-54.562c0-3.8906-3.1406-7.0312-7.0312-7.0312s-7.0312 3.1406-7.0312 7.0312v54.562h-55.125v-54.562c0-3.8906-3.1406-7.0312-7.0312-7.0312s-7.0312 3.1406-7.0312 7.0312v54.562h-126.94c-11.391 0-20.672 9.2812-20.672 20.672v187.74l-89.672 12.516-0.09375-263.29c0-6.6094-3.0469-12.656-8.3438-16.594s-11.953-5.1094-18.281-3.2344l-148.64 44.578 0.046875-222.98c0-11.391-9.2812-20.672-20.672-20.672h-14.625l-0.046875-56.062c0-11.391-9.2812-20.672-20.672-20.672h-66.656c0.046875-0.28125 0.1875-0.51562 0.1875-0.79687l-0.046875-89.203c0-3.8906-3.1406-7.0312-7.0312-7.0312s-7.0312 3.1406-7.0312 7.0312v89.156c0 0.28125 0.14062 0.51563 0.1875 0.79688h-66.656c-11.391 0-20.672 9.2812-20.672 20.672v56.062h-14.625c-11.391 0-20.672 9.2812-20.672 20.672v246.98h-50.156v-47.625c0-3.8906-3.1406-7.0312-7.0312-7.0312s-7.0312 3.1406-7.0312 7.0312v47.625h-58.594v-78.984c-0.09375-3.8438-3.2344-7.0312-7.125-7.0312zm355.13 694.64h-203.34v-357.14c0-3.6562 2.9531-6.6094 6.6094-6.6094h190.08c3.6562 0 6.6094 2.9531 6.6094 6.6094zm-172.82-377.81v-19.5c0-21.703 17.672-39.375 39.375-39.375s39.375 17.672 39.375 39.375v19.5zm545.44 377.81h-233.58v-283.55h233.58zm-59.766-594.28c0-3.6562 2.9531-6.6094 6.6094-6.6094h235.4c3.6562 0 6.6094 2.9531 6.6094 6.6094v74.906h-181.87c-3.8906 0-7.0312 3.1406-7.0312 7.0312s3.1406 7.0312 7.0312 7.0312h181.87v55.969h-90.891c-3.8906 0-7.0312 3.1406-7.0312 7.0312s3.1406 7.0312 7.0312 7.0312h90.891v62.672h-90.891c-3.8906 0-7.0312 3.1406-7.0312 7.0312s3.1406 7.0312 7.0312 7.0312h90.891v62.672h-90.891c-3.8906 0-7.0312 3.1406-7.0312 7.0312s3.1406 7.0312 7.0312 7.0312h90.891l0.046875 62.672h-115.64c-3.8906 0-7.0312 3.1406-7.0312 7.0312s3.1406 7.0312 7.0312 7.0312h115.64v62.672h-115.64c-3.8906 0-7.0312 3.1406-7.0312 7.0312s3.1406 7.0312 7.0312 7.0312h115.64v62.672h-115.64c-3.8906 0-7.0312 3.1406-7.0312 7.0312s3.1406 7.0312 7.0312 7.0312h115.64v49.172c0 1.3594-1.125 2.4844-2.4844 2.4844h-172.4l0.046875-283.6h18.234c11.391 0 20.672-9.2812 20.672-20.672v-96.188c0-6-2.5781-11.672-7.125-15.609-4.5-3.9375-10.547-5.6719-16.453-4.875l-89.203 12.422zm91.172 187.26c0.32812-0.046875 0.60938-0.09375 0.9375-0.09375 1.5938 0 3.0938 0.5625 4.3125 1.6406 1.4531 1.2656 2.2969 3.0469 2.2969 5.0156v96.188c0 3.6562-2.9531 6.6094-6.6094 6.6094l-298.22 0.046875c-3.6562 0-6.6094-2.9531-6.6094-6.6094v-54.656c0-3.2812 2.4844-6.0938 5.7188-6.5625zm-217.55-256.64c2.0625-0.60938 4.1719-0.23438 5.8594 1.0312s2.6719 3.2344 2.6719 5.3438v265.22l-91.172 12.703c-10.172 1.4062-17.859 10.219-17.859 20.484v54.656c0 11.391 9.2812 20.672 20.672 20.672h18.234l0.09375 283.55h-110.91v-357.14c0-11.391-9.2812-20.672-20.672-20.672h-19.734v-217.08c0-2.9531 1.9219-5.4844 4.7344-6.3281zm-362.34-268.64c0-3.6562 2.9531-6.6094 6.6094-6.6094h147.05c3.6562 0 6.6094 2.9531 6.6094 6.6094v56.062h-160.31zm-35.297 76.734c0-3.6562 2.9531-6.6094 6.6094-6.6094h217.69c3.6562 0 6.6094 2.9531 6.6094 6.6094v227.26l-45.422 13.641c-8.8125 2.625-14.766 10.594-14.766 19.828v217.08h-39.562v-19.5c0-27.609-21.094-50.109-47.953-52.922v-137.68c0-11.391-9.2812-20.672-20.672-20.672h-62.578zm62.578 261.05c3.6562 0 6.6094 2.9531 6.6094 6.6094v138c-25.406 4.125-44.906 26.062-44.906 52.594v19.5h-9.8438c-11.391 0-20.672 9.2812-20.672 20.672v357.14h-179.68c-1.3594 0-2.4844-1.125-2.4844-2.4844v-63.703h106.59c3.8906 0 7.0312-3.1406 7.0312-7.0312s-3.1406-7.0312-7.0312-7.0312l-106.55 0.046875v-60.047h106.59c3.8906 0 7.0312-3.1406 7.0312-7.0312s-3.1406-7.0312-7.0312-7.0312h-106.59v-60.047h106.59c3.8906 0 7.0312-3.1406 7.0312-7.0312s-3.1406-7.0312-7.0312-7.0312h-106.59v-60.047h106.59c3.8906 0 7.0312-3.1406 7.0312-7.0312s-3.1406-7.0312-7.0312-7.0312h-106.59v-60.047h106.59c3.8906 0 7.0312-3.1406 7.0312-7.0312s-3.1406-7.0312-7.0312-7.0312l-106.59-0.046875v-60.047h172.31c3.8906 0 7.0312-3.1406 7.0312-7.0312s-3.1406-7.0312-7.0312-7.0312h-172.31v-60.047h172.31c3.8906 0 7.0312-3.1406 7.0312-7.0312s-3.1406-7.0312-7.0312-7.0312h-172.31v-63c0-3.6562 2.9531-6.6094 6.6094-6.6094z"/>
 <path d="m382.45 816.28c-3.8906 0-7.0312 3.1406-7.0312 7.0312v222.05c0 3.8906 3.1406 7.0312 7.0312 7.0312s7.0312-3.1406 7.0312-7.0312v-222.05c0-3.8906-3.1406-7.0312-7.0312-7.0312z"/>
 <path d="m452.21 816.28c-3.8906 0-7.0312 3.1406-7.0312 7.0312v222.05c0 3.8906 3.1406 7.0312 7.0312 7.0312s7.0312-3.1406 7.0312-7.0312v-222.05c0-3.8906-3.1406-7.0312-7.0312-7.0312z"/>
 <path d="m969.47 251.53c-13.641-7.3125-28.922-10.172-44.109-8.2969-3.8906 0.46875-7.7344-1.5-9.4219-5.0156-2.5312-5.2969-5.625-10.406-9.1875-15.094-14.625-19.734-36.094-32.531-60.375-36.094-24.234-3.5156-48.469 2.5781-68.156 17.25-22.641 16.781-36.141 42.609-36.938 70.828-0.09375 3.7031-2.4844 6.9375-6.2344 8.4375-14.297 5.6719-26.016 16.359-32.953 30.141-3.2812 6.4219-4.9688 13.453-5.9062 20.719h-33.656c-3.8906 0-7.0312 3.1406-7.0312 7.0312s3.1406 7.0312 7.0312 7.0312h378.56c3.8906 0 7.0312-3.1406 7.0312-7.0312s-3.1406-7.0312-7.0312-7.0312h-34.969c8.1562-32.438-6.4219-66.797-36.656-82.875zm22.453 82.922h-281.86c0.79688-5.0625 2.3438-9.8906 4.6406-14.391 5.4375-10.734 14.531-19.031 25.594-23.438 8.9062-3.5156 14.859-11.812 15.094-21.141 0.65625-23.906 12.047-45.75 31.266-59.953 16.688-12.422 37.172-17.625 57.703-14.625 20.578 3 38.719 13.875 51.141 30.609 3 3.9844 5.625 8.2969 7.7344 12.797 4.3125 8.9531 13.969 14.156 23.859 12.891 12.328-1.5 24.656 0.79688 35.719 6.75 25.547 13.594 37.5 43.266 29.109 70.5z"/>
 <path d="m348.1 357.32h43.547c9.0469 0 16.406-7.3594 16.406-16.406v-43.547c0-9.0469-7.3594-16.406-16.406-16.406h-43.547c-9.0469 0-16.406 7.3594-16.406 16.406v43.547c0 9.0469 7.3594 16.406 16.406 16.406zm-2.3438-59.906c0-1.3125 1.0312-2.3438 2.3438-2.3438h43.547c1.3125 0 2.3438 1.0312 2.3438 2.3438v43.547c0 1.3125-1.0312 2.3438-2.3438 2.3438h-43.547c-1.3125 0-2.3438-1.0312-2.3438-2.3438z"/>
 <path d="m454.97 357.32h43.547c9.0469 0 16.406-7.3594 16.406-16.406v-43.547c0-9.0469-7.3594-16.406-16.406-16.406l-43.547 0.046875c-9.0469 0-16.406 7.3594-16.406 16.406v43.547c0 9 7.3594 16.359 16.406 16.359zm-2.3438-59.906c0-1.3125 1.0312-2.3438 2.3438-2.3438h43.547c1.3125 0 2.3438 1.0312 2.3438 2.3438v43.547c0 1.3125-1.0312 2.3438-2.3438 2.3438l-43.547-0.046875c-1.3125 0-2.3438-1.0312-2.3438-2.3438z"/>
 <path d="m408 441.56v-43.547c0-9.0469-7.3594-16.406-16.406-16.406h-43.547c-9.0469 0-16.406 7.3594-16.406 16.406v43.547c0 9.0469 7.3594 16.406 16.406 16.406h43.547c9.0469 0 16.406-7.3594 16.406-16.406zm-62.25 0v-43.547c0-1.3125 1.0312-2.3438 2.3438-2.3438h43.547c1.3125 0 2.3438 1.0312 2.3438 2.3438v43.547c0 1.3125-1.0312 2.3438-2.3438 2.3438h-43.547c-1.3125 0-2.3438-1.0781-2.3438-2.3438z"/>
 <path d="m454.97 457.97h43.547c9.0469 0 16.406-7.3594 16.406-16.406v-43.547c0-9.0469-7.3594-16.406-16.406-16.406h-43.547c-9.0469 0-16.406 7.3594-16.406 16.406v43.547c0 9.0469 7.3594 16.406 16.406 16.406zm-2.3438-59.953c0-1.3125 1.0312-2.3438 2.3438-2.3438h43.547c1.3125 0 2.3438 1.0312 2.3438 2.3438v43.547c0 1.3125-1.0312 2.3438-2.3438 2.3438h-43.547c-1.3125 0-2.3438-1.0312-2.3438-2.3438z"/>
 <path d="m534.05 609.24h39.188c9.0469 0 16.406-7.3594 16.406-16.406v-39.188c0-9.0469-7.3594-16.406-16.406-16.406h-39.188c-9.0469 0-16.406 7.3594-16.406 16.406v39.188c0 9.0469 7.3594 16.406 16.406 16.406zm-2.3438-55.594c0-1.3125 1.0312-2.3438 2.3438-2.3438h39.188c1.3125 0 2.3438 1.0312 2.3438 2.3438v39.188c0 1.3125-1.0312 2.3438-2.3438 2.3438h-39.188c-1.3125 0-2.3438-1.0312-2.3438-2.3438z"/>
 <path d="m633.47 609.24h39.188c9.0469 0 16.406-7.3594 16.406-16.406v-39.188c0-9.0469-7.3594-16.406-16.406-16.406h-39.188c-9.0469 0-16.406 7.3594-16.406 16.406v39.188c0 9.0469 7.3594 16.406 16.406 16.406zm-2.3438-55.594c0-1.3125 1.0312-2.3438 2.3438-2.3438h39.188c1.3125 0 2.3438 1.0312 2.3438 2.3438v39.188c0 1.3125-1.0312 2.3438-2.3438 2.3438h-39.188c-1.3125 0-2.3438-1.0312-2.3438-2.3438z"/>
 <path d="m534.05 702.79h39.188c9.0469 0 16.406-7.3594 16.406-16.406v-39.141c0-9.0469-7.3594-16.406-16.406-16.406h-39.188c-9.0469 0-16.406 7.3594-16.406 16.406v39.188c0 9 7.3594 16.359 16.406 16.359zm-2.3438-55.547c0-1.3125 1.0312-2.3438 2.3438-2.3438h39.188c1.3125 0 2.3438 1.0312 2.3438 2.3438v39.188c0 1.3125-1.0312 2.3438-2.3438 2.3438h-39.188c-1.3125 0-2.3438-1.0312-2.3438-2.3438z"/>
 <path d="m633.47 702.79h39.188c9.0469 0 16.406-7.3594 16.406-16.406v-39.141c0-9.0469-7.3594-16.406-16.406-16.406h-39.188c-9.0469 0-16.406 7.3594-16.406 16.406v39.188c0 9 7.3594 16.359 16.406 16.359zm-2.3438-55.547c0-1.3125 1.0312-2.3438 2.3438-2.3438h39.188c1.3125 0 2.3438 1.0312 2.3438 2.3438v39.188c0 1.3125-1.0312 2.3438-2.3438 2.3438h-39.188c-1.3125 0-2.3438-1.0312-2.3438-2.3438z"/>
 <path d="m699.61 953.86h43.547c9.0469 0 16.406-7.3594 16.406-16.406v-43.547c0-9.0469-7.3594-16.406-16.406-16.406h-43.547c-9.0469 0-16.406 7.3594-16.406 16.406v43.547c0 9.0469 7.3594 16.406 16.406 16.406zm-2.3438-59.906c0-1.3125 1.0312-2.3438 2.3438-2.3438h43.547c1.3125 0 2.3438 1.0312 2.3438 2.3438v43.547c0 1.3125-1.0312 2.3438-2.3438 2.3438h-43.547c-1.3125 0-2.3438-1.0312-2.3438-2.3438z"/>
 <path d="m806.48 953.86h43.547c9.0469 0 16.406-7.3594 16.406-16.406v-43.547c0-9.0469-7.3594-16.406-16.406-16.406h-43.547c-9.0469 0-16.406 7.3594-16.406 16.406v43.547c0 9.0469 7.3594 16.406 16.406 16.406zm-2.3438-59.906c0-1.3125 1.0312-2.3438 2.3438-2.3438h43.547c1.3125 0 2.3438 1.0312 2.3438 2.3438v43.547c0 1.3125-1.0312 2.3438-2.3438 2.3438h-43.547c-1.3125 0-2.3438-1.0312-2.3438-2.3438z"/>
 <path d="m699.61 1054.5h43.547c9.0469 0 16.406-7.3594 16.406-16.406v-43.547c0-9.0469-7.3594-16.406-16.406-16.406h-43.547c-9.0469 0-16.406 7.3594-16.406 16.406v43.547c0 9.0469 7.3594 16.406 16.406 16.406zm-2.3438-59.953c0-1.3125 1.0312-2.3438 2.3438-2.3438h43.547c1.3125 0 2.3438 1.0312 2.3438 2.3438v43.547c0 1.3125-1.0312 2.3438-2.3438 2.3438h-43.547c-1.3125 0-2.3438-1.0312-2.3438-2.3438z"/>
 <path d="m806.48 1054.5h43.547c9.0469 0 16.406-7.3594 16.406-16.406v-43.547c0-9.0469-7.3594-16.406-16.406-16.406h-43.547c-9.0469 0-16.406 7.3594-16.406 16.406v43.547c0 9.0469 7.3594 16.406 16.406 16.406zm-2.3438-59.953c0-1.3125 1.0312-2.3438 2.3438-2.3438h43.547c1.3125 0 2.3438 1.0312 2.3438 2.3438v43.547c0 1.3125-1.0312 2.3438-2.3438 2.3438h-43.547c-1.3125 0-2.3438-1.0312-2.3438-2.3438z"/>
</svg>
