<?xml version="1.0" encoding="UTF-8"?>
<svg id="Layer_1" data-name="Layer 1" xmlns="http://www.w3.org/2000/svg" viewBox="0 0 1200 1200">
  <path d="M18.801,1200c4.973,0,9.742-1.977,13.258-5.492,3.516-3.516,5.492-8.285,5.492-13.258v-243.75h37.5v18.75c-4.973,0-9.742,1.977-13.258,5.492-3.516,3.516-5.492,8.285-5.492,13.258v56.25c0,4.973,1.977,9.742,5.492,13.258,3.516,3.516,8.285,5.492,13.258,5.492v131.25c0,6.699,3.574,12.887,9.375,16.238,5.801,3.348,12.949,3.348,18.75,0,5.801-3.352,9.375-9.539,9.375-16.238v-131.25h112.5v131.25c0,6.699,3.574,12.887,9.375,16.238,5.801,3.348,12.949,3.348,18.75,0,5.801-3.352,9.375-9.539,9.375-16.238v-131.25c4.973,0,9.742-1.977,13.258-5.492,3.516-3.516,5.492-8.285,5.492-13.258v-56.25c0-4.973-1.977-9.742-5.492-13.258-3.516-3.516-8.285-5.492-13.258-5.492v-18.75h37.5v243.75c0,6.699,3.574,12.887,9.375,16.238,5.801,3.348,12.949,3.348,18.75,0,5.801-3.352,9.375-9.539,9.375-16.238v-375c0-4.973-1.977-9.742-5.492-13.258-3.516-3.516-8.285-5.492-13.258-5.492h-37.5v-18.75c0-4.973-1.977-9.742-5.492-13.258-3.516-3.516-8.285-5.492-13.258-5.492H75.051c-4.973,0-9.742,1.977-13.258,5.492-3.516,3.516-5.492,8.285-5.492,13.258v18.75H18.801c-4.973,0-9.742,1.977-13.258,5.492-3.516,3.516-5.492,8.285-5.492,13.258v375c0,4.973,1.977,9.742,5.492,13.258,3.516,3.516,8.285,5.492,13.258,5.492h0ZM37.551,900v-18.75h37.5v18.75h-37.5ZM225.051,881.25v18.75h-112.5v-18.75h112.5ZM243.801,993.75v18.75H93.801v-18.75h150ZM225.051,956.25h-112.5v-18.75h112.5v18.75ZM262.551,881.25h37.5v18.75h-37.5v-18.75ZM300.051,825v18.75h-18.75v-18.75h18.75ZM93.801,787.5h150v56.25H93.801v-56.25ZM37.551,825h18.75v18.75h-18.75v-18.75Z"/>
  <path d="M693.801,750h-187.5c-4.973,0-9.742,1.977-13.258,5.492-3.516,3.516-5.492,8.285-5.492,13.258v18.75h-37.5c-4.973,0-9.742,1.977-13.258,5.492-3.516,3.516-5.492,8.285-5.492,13.258v375c0,6.699,3.574,12.887,9.375,16.238,5.801,3.348,12.949,3.348,18.75,0,5.801-3.352,9.375-9.539,9.375-16.238v-243.75h37.5v18.75c-4.973,0-9.742,1.977-13.258,5.492-3.516,3.516-5.492,8.285-5.492,13.258v56.25c0,4.973,1.977,9.742,5.492,13.258,3.516,3.516,8.285,5.492,13.258,5.492v131.25c0,6.699,3.574,12.887,9.375,16.238,5.801,3.348,12.949,3.348,18.75,0,5.801-3.352,9.375-9.539,9.375-16.238v-131.25h112.5v131.25c0,6.699,3.574,12.887,9.375,16.238,5.801,3.348,12.949,3.348,18.75,0,5.801-3.352,9.375-9.539,9.375-16.238v-131.25c4.973,0,9.742-1.977,13.258-5.492,3.516-3.516,5.492-8.285,5.492-13.258v-56.25c0-4.973-1.977-9.742-5.492-13.258-3.516-3.516-8.285-5.492-13.258-5.492v-18.75h37.5v243.75c0,6.699,3.574,12.887,9.375,16.238,5.801,3.348,12.949,3.348,18.75,0,5.801-3.352,9.375-9.539,9.375-16.238v-375c0-4.973-1.977-9.742-5.492-13.258-3.516-3.516-8.285-5.492-13.258-5.492h-37.5v-18.75c0-4.973-1.977-9.742-5.492-13.258-3.516-3.516-8.285-5.492-13.258-5.492h0ZM656.301,881.25v18.75h-112.5v-18.75h112.5ZM525.051,787.5h150v56.25h-150v-56.25ZM468.801,825h18.75v18.75h-18.75v-18.75ZM468.801,900v-18.75h37.5v18.75h-37.5ZM675.051,993.75v18.75h-150v-18.75h150ZM656.301,956.25h-112.5v-18.75h112.5v18.75ZM693.801,881.25h37.5v18.75h-37.5v-18.75ZM731.301,825v18.75h-18.75v-18.75h18.75Z"/>
  <path d="M1181.251,787.5h-37.5v-18.75c0-4.973-1.977-9.742-5.492-13.258-3.516-3.516-8.285-5.492-13.258-5.492h-187.5c-4.973,0-9.742,1.977-13.258,5.492-3.516,3.516-5.492,8.285-5.492,13.258v18.75h-37.5c-4.973,0-9.742,1.977-13.258,5.492-3.516,3.516-5.492,8.285-5.492,13.258v375c0,6.699,3.574,12.887,9.375,16.238,5.801,3.348,12.949,3.348,18.75,0,5.801-3.352,9.375-9.539,9.375-16.238v-243.75h37.5v18.75c-4.973,0-9.742,1.977-13.258,5.492-3.516,3.516-5.492,8.285-5.492,13.258v56.25c0,4.973,1.977,9.742,5.492,13.258,3.516,3.516,8.285,5.492,13.258,5.492v131.25c0,6.699,3.574,12.887,9.375,16.238,5.801,3.348,12.949,3.348,18.75,0,5.801-3.352,9.375-9.539,9.375-16.238v-131.25h112.5v131.25c0,6.699,3.574,12.887,9.375,16.238,5.801,3.348,12.949,3.348,18.75,0,5.801-3.352,9.375-9.539,9.375-16.238v-131.25c4.973,0,9.742-1.977,13.258-5.492,3.516-3.516,5.492-8.285,5.492-13.258v-56.25c0-4.973-1.977-9.742-5.492-13.258-3.516-3.516-8.285-5.492-13.258-5.492v-18.75h37.5v243.75c0,6.699,3.574,12.887,9.375,16.238,5.801,3.348,12.949,3.348,18.75,0,5.801-3.352,9.375-9.539,9.375-16.238v-375c0-4.973-1.977-9.742-5.492-13.258-3.516-3.516-8.285-5.492-13.258-5.492h0ZM1162.501,825v18.75h-18.75v-18.75h18.75ZM1087.501,881.25v18.75h-112.5v-18.75h112.5ZM956.251,787.5h150v56.25h-150v-56.25ZM900.001,825h18.75v18.75h-18.75v-18.75ZM900.001,900v-18.75h37.5v18.75h-37.5ZM1106.251,993.75v18.75h-150v-18.75h150ZM1087.501,956.25h-112.5v-18.75h112.5v18.75ZM1125.001,881.25h37.5v18.75h-37.5v-18.75Z"/>
  <path d="M1181.251,637.5H337.501c-6.699,0-12.887,3.574-16.238,9.375-3.348,5.801-3.348,12.949,0,18.75,3.352,5.801,9.539,9.375,16.238,9.375h825v18.75H37.501v-18.75h225c4.973,0,9.742-1.977,13.258-5.492,3.516-3.516,5.492-8.285,5.492-13.258v-112.5c0-4.973-1.977-9.742-5.492-13.258-3.516-3.516-8.285-5.492-13.258-5.492H112.501c-4.973,0-9.742,1.977-13.258,5.492-3.516,3.516-5.492,8.285-5.492,13.258v93.75h-37.5V243.75h1087.5v356.25c0,6.699,3.574,12.887,9.375,16.238,5.801,3.348,12.949,3.348,18.75,0,5.801-3.352,9.375-9.539,9.375-16.238V225c0-4.973-1.977-9.742-5.492-13.258-3.516-3.516-8.285-5.492-13.258-5.492H37.5c-4.973,0-9.742,1.977-13.258,5.492-3.516,3.516-5.492,8.285-5.492,13.258v412.5c-4.973,0-9.742,1.977-13.258,5.492-3.516,3.516-5.492,8.285-5.492,13.258v56.25c0,4.973,1.977,9.742,5.492,13.258,3.516,3.516,8.285,5.492,13.258,5.492h1162.5c4.973,0,9.742-1.977,13.258-5.492,3.516-3.516,5.492-8.285,5.492-13.258v-56.25c0-4.973-1.977-9.742-5.492-13.258-3.516-3.516-8.285-5.492-13.258-5.492h0ZM243.751,562.5v18.75h-112.5v-18.75h112.5ZM131.251,618.75h112.5v18.75h-112.5v-18.75Z"/>
  <path d="M600.051,187.5c24.863,0,48.711-9.879,66.293-27.457,17.578-17.582,27.457-41.43,27.457-66.293s-9.879-48.711-27.457-66.293c-17.582-17.578-41.43-27.457-66.293-27.457s-48.711,9.879-66.293,27.457c-17.578,17.582-27.457,41.43-27.457,66.293.031,24.855,9.918,48.684,27.492,66.258s41.402,27.461,66.258,27.492ZM600.051,37.5c14.918,0,29.227,5.926,39.773,16.477,10.551,10.547,16.477,24.855,16.477,39.773s-5.926,29.227-16.477,39.773c-10.547,10.551-24.855,16.477-39.773,16.477s-29.227-5.926-39.773-16.477c-10.551-10.547-16.477-24.855-16.477-39.773s5.926-29.227,16.477-39.773c10.547-10.551,24.855-16.477,39.773-16.477Z"/>
  <path d="M581.301,56.25v37.5c0,6.699,3.574,12.887,9.375,16.238,5.801,3.348,12.949,3.348,18.75,0,5.801-3.352,9.375-9.539,9.375-16.238v-37.5c0-6.699-3.574-12.887-9.375-16.238-5.801-3.348-12.949-3.348-18.75,0-5.801,3.352-9.375,9.539-9.375,16.238Z"/>
</svg>