<?xml version="1.0" encoding="UTF-8"?>
<svg id="Layer_1" data-name="Layer 1" xmlns="http://www.w3.org/2000/svg" viewBox="0 0 1107.38 1107.33">
  <defs>
    <style>
      .cls-1 {
        fill-rule: evenodd;
      }
    </style>
  </defs>
  <path class="cls-1" d="M553.69,0C859.27,0,1107.38,248.06,1107.38,553.69s-248.11,553.64-553.69,553.64S0,859.27,0,553.69,248.11,0,553.69,0h0ZM553.69,36.281C268.13,36.281,36.29,268.071,36.29,553.681s231.84,517.36,517.4,517.36,517.4-231.79,517.4-517.36S839.25,36.281,553.69,36.281ZM553.69,67.265c268.45,0,486.37,217.97,486.37,486.42s-217.92,486.37-486.37,486.37S67.32,822.085,67.32,553.685,285.24,67.265,553.69,67.265h0ZM553.69,103.499c-248.48,0-450.19,201.71-450.19,450.19s201.71,450.14,450.19,450.14,450.19-201.66,450.19-450.14S802.17,103.499,553.69,103.499h0ZM571.831,189.89c0,10.078-8.156,18.141-18.141,18.141s-18.141-8.062-18.141-18.141v-43.875c0-9.984,8.156-18.141,18.141-18.141s18.141,8.156,18.141,18.141v43.875ZM719.961,878.07c-5.016-8.719-2.062-19.734,6.656-24.75,8.625-5.062,19.734-2.109,24.75,6.609l21.938,38.016c4.969,8.719,2.016,19.734-6.609,24.75-8.719,5.062-19.828,2.016-24.75-6.609l-21.985-38.016ZM229.511,720.1c8.625-5.016,19.734-2.016,24.75,6.609,4.969,8.719,2.016,19.734-6.609,24.75l-38.109,21.984c-8.625,5.016-19.734,2.016-24.75-6.656-4.969-8.625-2.016-19.734,6.609-24.75l38.109-21.937ZM571.831,961.7c0,9.938-8.156,18.047-18.141,18.047s-18.141-8.109-18.141-18.047v-43.922c0-10.031,8.156-18.141,18.141-18.141s18.141,8.109,18.141,18.141v43.922ZM145.881,571.94c-10.031,0-18.141-8.062-18.141-18.141,0-9.938,8.109-18.047,18.141-18.047h43.922c9.984,0,18.141,8.109,18.141,18.047,0,10.078-8.156,18.141-18.141,18.141h-43.922ZM334.091,209.73c-4.969-8.719-2.016-19.828,6.609-24.75,8.719-5.016,19.828-2.016,24.75,6.609l21.984,38.016c5.016,8.625,2.062,19.781-6.656,24.797-8.625,5.016-19.734,1.969-24.75-6.656l-21.937-38.016ZM356.029,859.94c5.016-8.719,16.125-11.672,24.75-6.609,8.719,5.016,11.672,16.031,6.656,24.75l-21.984,38.016c-4.922,8.625-16.031,11.672-24.75,6.609-8.625-5.016-11.578-16.031-6.609-24.75l21.937-38.016ZM917.589,571.94c-9.984,0-18.141-8.062-18.141-18.141,0-9.938,8.156-18.047,18.141-18.047h43.922c10.031,0,18.141,8.109,18.141,18.047,0,10.078-8.109,18.141-18.141,18.141h-43.922ZM535.559,553.799v-282.28c0-10.031,8.156-18.141,18.141-18.141s18.141,8.109,18.141,18.141v272.21l154.5,95.109c8.484,5.203,11.156,16.406,5.906,24.891-5.25,8.531-16.406,11.203-24.938,5.953l-163.13-100.41c-5.344-3.281-8.625-9.094-8.625-15.469l.005-.004ZM247.659,356.219c8.625,5.016,11.578,16.031,6.609,24.75-5.016,8.625-16.125,11.578-24.75,6.609l-38.109-21.938c-8.625-5.016-11.578-16.125-6.609-24.75,5.016-8.719,16.125-11.672,24.75-6.656l38.109,21.985ZM741.949,191.589c4.922-8.625,16.031-11.625,24.75-6.609,8.625,4.922,11.578,16.031,6.609,24.75l-21.938,38.016c-5.016,8.625-16.125,11.672-24.75,6.656-8.719-5.016-11.672-16.172-6.656-24.797l21.985-38.016ZM897.849,334.229c8.625-5.016,19.734-2.062,24.75,6.656,4.969,8.625,2.016,19.734-6.609,24.75l-38.109,21.938c-8.625,4.969-19.734,2.016-24.75-6.609-4.969-8.719-2.016-19.734,6.703-24.75l38.015-21.985ZM915.99,742.039c8.625,5.016,11.578,16.125,6.609,24.75-5.016,8.672-16.125,11.672-24.75,6.656l-38.016-21.984c-8.719-5.016-11.672-16.031-6.703-24.75,5.016-8.625,16.125-11.625,24.75-6.609l38.11,21.937Z"/>
</svg>