<?xml version="1.0" encoding="UTF-8"?>
<svg width="1200pt" height="1200pt" version="1.1" viewBox="0 0 1200 1200" xmlns="http://www.w3.org/2000/svg">
 <path d="m875.68 793.97 81.562 312.84c1.9688 7.125 8.4375 12.094 15.75 12.094h129.71c8.9531 0 16.219-7.2656 16.219-16.219v-600c0-8.9531-7.2656-16.219-16.219-16.219h-454.03c-8.9062 0-16.219 7.2656-16.219 16.219v600c0 8.9531 7.3125 16.219 16.219 16.219h129.71c7.3125 0 13.781-4.9688 15.75-12.094zm99.234-210.19h-198.47c-2.1094 13.594-6.7969 34.547-16.547 55.5-15.891 33.844-44.438 67.406-95.016 73.312v373.87h101.02l94.078-360.84c1.9219-7.125 8.3906-12.094 15.703-12.094s13.781 4.9688 15.75 12.094l94.031 360.84h101.02v-373.87c-50.578-5.9062-79.125-39.469-95.016-73.312-9.7031-20.953-14.438-41.906-16.547-55.5zm-600-470.26c7.4531 21.375 16.078 39.797 30.984 55.641 15.75 16.453 38.578 30.375 76.219 41.016 2.9062 0.84375 5.8594 0.84375 8.7656 0 37.594-10.641 60.469-24.562 76.219-41.016 14.906-15.844 23.484-34.266 30.938-55.641h92.109l163.18 177.89-91.172 91.031-48.609-48.609v-58.172c0-8.9531-7.3125-16.219-16.219-16.219-8.9531 0-16.219 7.2656-16.219 16.219v162.19c0 8.9531 7.2656 16.172 16.219 16.172 8.9062 0 16.219-7.2188 16.219-16.172v-58.172l37.125 37.172c6.3281 6.3281 16.688 6.3281 23.016 0l113.53-113.48c6.1406-6.1406 6.3281-16.031 0.46875-22.453l-178.36-194.58c-3.0938-3.3281-7.4531-5.25-12-5.25h-113.53c-1.7812 0-3.4219 0.28125-5.2031 0.84375-61.266 20.578-122.72 20.906-184.22 0-1.5938-0.5625-3.375-0.84375-5.1562-0.84375h-113.53c-4.5469 0-8.9062 1.9219-12 5.25l-178.36 194.58c-5.8594 6.4219-5.6719 16.312 0.46875 22.453l113.53 113.48c6.3281 6.3281 16.688 6.3281 23.016 0l37.125-37.172v317.63c0 8.9531 7.3125 16.219 16.219 16.219h308.11c8.9062 0 16.219-7.2656 16.219-16.219 0-8.9531-7.3125-16.219-16.219-16.219h-291.89v-405.42c0-8.9531-7.3125-16.219-16.219-16.219s-16.219 7.2656-16.219 16.219v58.172l-48.656 48.609-91.125-91.031 163.13-177.89zm711.56 566.26v-96h-78.797c2.1094 11.156 6.1875 26.484 13.125 41.812 11.344 24.047 30.984 48.375 65.672 54.188zm-421.6 0c34.688-5.8125 54.328-30.141 65.672-54.188 7.125-15.328 11.016-30.656 13.125-41.812h-78.797zm421.6-128.44v-32.438h-421.6v32.438zm-526.03-430.4c-49.312 11.953-98.578 12.094-147.89 0.09375 4.3594 9.4219 9.5625 18.047 16.875 25.781 12 12.562 29.484 22.594 57.047 30.891 27.562-8.2969 45.094-18.328 57.094-30.891 7.3125-7.7812 12.469-16.406 16.875-25.875z" fill-rule="evenodd"/>
</svg>
