<?xml version="1.0" encoding="UTF-8"?>
<svg id="Layer_1" xmlns="http://www.w3.org/2000/svg" version="1.1" viewBox="0 0 1125 614.2">
  <!-- Generator: Adobe Illustrator 29.2.1, SVG Export Plug-In . SVG Version: 2.1.0 Build 116)  -->
  <defs>
    <style>
      .st0 {
        fill: #d8dfe1;
      }

      .st0, .st1 {
        fill-rule: evenodd;
      }
    </style>
  </defs>
  <polygon class="st0" points="998.5 205.1 983.5 146.1 894.5 39.1 787.5 16.1 707.5 41.1 626.5 110.6 609.5 144.1 530.5 120.1 450.5 181.1 337.5 144.1 220.5 177.1 153.5 253.1 135.5 295.1 127.5 339.1 46.5 395.1 24.5 458.1 31.5 535.1 94.5 593.1 654.5 598.1 747.5 556.1 782.5 469.1 998.5 469.1 1088.5 424.1 1104.5 333.1 1056.5 238.1 998.5 205.1"/>
  <path class="st1" d="M1010.2,172.9c2.2,9.8-4,19.6-13.9,21.8s-19.6-4-21.8-13.9c-9.2-41.6-32.5-77.9-64.7-103.6-31.5-25.2-71.4-40.3-115-40.3s-74.5,11.9-104.1,32.2c-30.5,20.9-54.3,50.8-67.7,85.8-3.6,9.4-14.2,14.2-23.6,10.5-2.4-.9-4.5-2.3-6.3-4h0c-6.4-6.2-14-11.3-22.4-14.7-8-3.3-16.8-5.1-26.2-5.1-16.3,0-31.2,5.6-42.9,14.9-9.4,7.5-16.8,17.2-21.3,28.5,18.5,17.2,34.1,37.7,45.8,60.4,4.5-2.7,9.2-5,14.1-7,12.5-5.1,26-7.9,40.1-7.9,29.2,0,55.6,11.9,74.8,31,19,19,30.8,45.3,31,74.3,27.9,7.2,52.5,22.7,70.9,43.7,17.6,20,29.7,45,33.8,72.5h187.8c30.3,0,57.7-12.3,77.5-32.1s32.1-47.2,32.1-77.5-12.3-57.7-32.1-77.5c-19.8-19.8-47.2-32.1-77.5-32.1s-45.7,7.5-63.6,20.3c-18.4,13.1-32.6,31.8-40.1,53.7-3.3,9.6-13.7,14.7-23.3,11.4-9.6-3.3-14.7-13.7-11.4-23.3,10-29.1,28.9-54,53.6-71.6,24-17.1,53.3-27.1,84.8-27.1s77,16.4,103.4,42.8c26.5,26.5,42.9,63.1,42.9,103.5s-16.4,77-42.8,103.5c-26.5,26.5-63,42.8-103.5,42.8h-187.2c-3.7,32.6-18.6,61.9-40.6,84-25.6,25.6-61,41.6-100,41.6H146.3c-40.4,0-77-16.3-103.4-42.8C16.4,544.8,0,508.2,0,467.8s16.4-77,42.8-103.5c26.5-26.5,63-42.8,103.4-42.8s60.9,10.1,84.8,27.1c24.6,17.6,43.5,42.5,53.6,71.6,3.3,9.6-1.8,20-11.4,23.3-9.6,3.3-20-1.8-23.3-11.4-7.5-21.8-21.7-40.5-40.1-53.7-17.9-12.8-39.8-20.3-63.6-20.3s-57.7,12.3-77.5,32.1c-19.8,19.8-32.1,47.2-32.1,77.5s12.3,57.7,32.1,77.5c19.8,19.8,47.2,32.1,77.5,32.1h504.5c28.8,0,55-11.8,74-30.8,19-19,30.8-45.2,30.8-74s-9.9-50.6-26.1-69c-16.4-18.6-39-31.4-64.5-34.9-.5,0-.9,0-1.4-.2-10-1.6-16.8-11-15.1-21,.3-1.6.5-3.5.7-5.7.1-1.8.2-3.7.2-5.8,0-19.1-7.7-36.3-20.2-48.8-12.5-12.5-29.8-20.2-48.8-20.2s-18.2,1.8-26.2,5.1c-8.4,3.4-16,8.5-22.4,14.8h0c-1.7,1.7-3.8,3-6.3,4-9.4,3.6-20-1.1-23.6-10.5-11.2-29.2-29.7-54.8-53.2-74.7-.8-.6-1.5-1.2-2.2-1.8-4-3.3-8.2-6.4-12.4-9.3-29.5-20.3-65.3-32.2-104.1-32.2s-83.5,15.1-115,40.3c-32.2,25.8-55.5,62.1-64.7,103.6-2.2,9.9-12,16.1-21.8,13.9s-16.1-12-13.9-21.8c11.1-49.9,39-93.5,77.4-124.3,37.8-30.3,85.8-48.5,137.9-48.5s85.9,13.2,120.7,36c6.9-13.2,16.5-24.8,28.1-34,18.1-14.3,40.9-22.9,65.7-22.9s27.6,2.8,40.1,7.9c4.9,2,9.6,4.4,14.1,7,16.8-32.5,41.4-60.3,71.3-80.9C705.6,14.3,748.6,0,794.8,0s100.1,18.1,137.9,48.5c38.5,31,66.5,74.5,77.5,124.4h0Z"/>
</svg>