<?xml version="1.0" encoding="UTF-8"?>
<svg width="1200pt" height="1200pt" version="1.1" viewBox="0 0 1200 1200" xmlns="http://www.w3.org/2000/svg">
 <path d="m650.63 468.74c0 30-45 30-45 0s45-30 45 0"/>
 <path d="m628.13 525c-13.125 0-22.5 9.375-22.5 22.5s9.375 22.5 22.5 22.5 22.5-9.375 22.5-22.5-11.25-22.5-22.5-22.5z"/>
 <path d="m650.63 785.63c0 30-45 30-45 0s45-30 45 0"/>
 <path d="m650.63 1046.3c0 30-45 30-45 0s45-30 45 0"/>
 <path d="m628.13 935.63c-13.125 0-22.5 9.375-22.5 22.5s9.375 22.5 22.5 22.5 22.5-9.375 22.5-22.5c0-11.25-11.25-22.5-22.5-22.5z"/>
 <path d="m650.63 871.87c0 30-45 30-45 0s45-30 45 0"/>
 <path d="m999.37 294.37c-1.875-33.75-13.125-65.625-31.875-91.875 0 0 0-1.875-1.875-1.875-24.375-35.625-60-61.875-103.12-75l-86.25-26.25-30-35.625c-3.75-5.625-7.5-7.5-11.25-7.5h-268.13c-1.875 0-3.75 0-5.625 1.875-1.875 0-3.75 1.875-5.625 3.75l-1.875 1.875-30 35.625-86.25 26.25c-43.125 13.125-78.75 39.375-103.12 75 0 0 0 1.875-1.875 1.875-18.75 26.25-28.125 58.125-31.875 91.875l-37.5 592.5c-1.875 22.5 15 41.25 37.5 43.125l106.88 7.5c-5.625 60-11.25 110.62-13.125 135-1.875 20.625 11.25 37.5 30 43.125 35.625 7.5 121.87 24.375 236.26 28.125h37.5c131.26 0 236.26-20.625 273.74-28.125 18.75-3.75 31.875-22.5 30-43.125-1.875-26.25-7.5-75-13.125-135l106.88-7.5c22.5-1.875 39.375-20.625 37.5-43.125zm-315 345h146.26c0 11.25 1.875 22.5 1.875 33.75h-148.13zm181.87-56.25c1.875-76.875 30-228.74 86.25-331.87 5.625 15 9.375 30 11.25 46.875l30 517.5-112.5 9.375c-11.25-123.74-15-208.13-15-241.87zm63.75-371.26c-65.625 110.62-99.375 283.13-101.25 369.37v20.625h-148.13c-5.625-9.375-16.875-16.875-28.125-16.875h-71.25v-103.12c0-7.5 1.875-15 3.75-22.5l30-67.5 174.37-127.5c9.375-7.5 13.125-20.625 7.5-31.875l-16.875-30 33.75-20.625c5.625-3.75 9.375-9.375 11.25-16.875 0-5.625 0-9.375-1.875-15l33.75 9.375c28.125 9.375 54.375 28.125 73.125 52.5zm-562.5 461.26c0-11.25 1.875-22.5 1.875-33.75h146.26v33.75zm-129.37-376.87c1.875-16.875 3.75-31.875 11.25-46.875 54.375 105 82.5 255 86.25 333.74 1.875 33.75-3.75 118.12-15 240l-112.5-9.375zm315 393.74v-67.5h93.75v67.5zm-101.25-513.74-31.875-18.75 39.375-46.875 93.75 211.87-112.5-82.5 16.875-30c9.375-11.25 5.625-26.25-5.625-33.75zm296.26 1.875c-11.25 7.5-15 20.625-7.5 31.875l16.875 30-112.5 82.5 93.75-211.87 39.375 46.875zm-63.75-39.375h-170.63l-18.75-45h210zm-153.74 37.5h136.87l-67.5 155.63zm-185.63-15 33.75-11.25c-1.875 3.75-3.75 9.375-1.875 15 1.875 7.5 5.625 13.125 11.25 16.875l33.75 20.625-16.875 30c-5.625 11.25-3.75 24.375 7.5 31.875l165 121.87-26.25 58.125c-5.625 11.25-7.5 24.375-7.5 37.5v105c-9.375 1.875-18.75 7.5-22.5 16.875h-148.13v-20.625c-1.875-86.25-35.625-260.63-101.25-369.37 16.875-26.25 43.125-45 73.125-52.5zm-144.37 727.5 1.875-35.625 112.5 9.375c-1.875 13.125-1.875 26.25-3.75 39.375l-108.75-9.375c0-1.875-1.875-1.875-1.875-3.75zm131.26 187.5c3.75-28.125 9.375-86.25 15-153.74 5.625-67.492 13.125-144.37 18.75-210h153.74c5.625 9.375 13.125 15 22.5 16.875v376.87c-101.25-3.75-178.13-18.75-210-26.25v-3.75zm534.37 1.875c-37.5 9.375-138.74 28.125-266.26 28.125h-18.75v-378.74h71.25c13.125 0 22.5-7.5 28.125-16.875h153.74c5.625 65.625 11.25 144.37 18.75 210 5.625 67.5 13.125 125.63 15 153.74 0 3.75 0 3.75-1.875 3.75zm129.37-187.5-106.88 9.375c-1.875-13.125-1.875-26.25-3.75-39.375l112.5-9.375 1.875 35.625c0 3.75-1.875 3.75-3.75 3.75z"/>
</svg>
