<?xml version="1.0" encoding="UTF-8"?>
<svg id="Layer_1" xmlns="http://www.w3.org/2000/svg" version="1.1" viewBox="0 0 745.2 1039.2">
  <!-- Generator: Adobe Illustrator 29.2.1, SVG Export Plug-In . SVG Version: 2.1.0 Build 116)  -->
  <defs>
    <style>
      .st0 {
        fill: #b0dcfc;
      }
    </style>
  </defs>
  <g id="Layer_5">
    <polygon class="st0" points="511.2 161.6 464.5 133.5 441.7 59.7 424.8 65 434.3 117 392.4 96.9 386 113.3 418.9 138.2 373.3 155.2 377.2 176.4 450.2 158.4 496.9 182.3 500.2 218.9 453.9 246.4 377.2 227.9 369 251.6 426 269.1 379.6 293.1 393.5 309.2 434.3 286.2 420.5 341 443.9 346.7 466.1 266.1 511.2 241.6 544.4 252.9 544.4 312.2 485.4 370.6 500.2 387.8 549.1 347.3 549.1 398.1 566 398.1 565.1 341.9 610 387.9 624.8 366.1 571.2 318.6 571.2 260.2 595.3 241.6 652.8 271.3 670.3 348.2 691.6 338.4 678.4 279.9 720.1 309.2 728 282.8 686 258.3 745.2 241.6 722.6 223.5 658.8 240.6 617.6 216.9 616.6 173.4 673.5 154.4 738.6 176.3 741.5 151.6 684.6 134.1 730.4 106.2 713.9 92.7 684.8 106.1 683.6 59.7 662.5 59.7 640.8 131.5 599.6 155.3 573.3 140.1 573.3 92.6 623.6 25.8 603.9 15.5 573.3 41.7 567.3 6.2 543.3 6.2 537.4 41.7 503.4 15.2 487.5 41.7 537.3 92.6 537.3 140.1 511.2 161.6"/>
    <path d="M736.2,225.3c-4.2-2.4-9-3-13.6-1.8l-63.8,17.1-41.1-23.7c1.2-5,1.8-10.1,1.8-15.2s-.6-10.2-1.8-15.2l41.1-23.7,63.8,17.1c4.6,1.2,9.5.6,13.6-1.8,4.2-2.4,7.1-6.3,8.4-10.9,2.6-9.6-3.1-19.4-12.7-22l-29.1-7.8,19.2-11.1c4.2-2.4,7.1-6.3,8.4-10.9,1.2-4.6.6-9.5-1.8-13.6-2.4-4.2-6.3-7.1-10.9-8.4s-9.5-.6-13.6,1.8l-19.2,11.1,7.8-29.1c2.6-9.6-3.1-19.4-12.7-22-9.6-2.6-19.4,3.1-22,12.7l-17.1,63.8-41.2,23.8c-7.5-7.2-16.4-12.4-26.3-15.3v-47.5l46.7-46.7c7-7,7-18.4,0-25.4-7-7-18.4-7-25.4,0l-21.3,21.3v-22.2c0-9.9-8.1-18-18-18s-18,8.1-18,18v22.2l-21.3-21.3c-3.4-3.4-7.9-5.3-12.7-5.3s-9.3,1.9-12.7,5.3c-7,7-7,18.4,0,25.4l46.7,46.7v47.5c-9.9,2.9-18.8,8.1-26.3,15.3l-41.2-23.8-17.1-63.8c-2.6-9.6-12.4-15.3-22-12.7-9.6,2.6-15.3,12.4-12.7,22l7.8,29.1-19.2-11.1c-8.6-4.9-19.6-2-24.5,6.6-2.4,4.2-3,9-1.8,13.6,1.2,4.6,4.2,8.5,8.4,10.9l19.2,11.1-29.1,7.8c-9.6,2.6-15.3,12.4-12.7,22,1.3,4.6,4.2,8.5,8.4,10.9,4.2,2.4,9,3,13.6,1.8l63.8-17.1,41.1,23.7c-1.2,5-1.8,10.1-1.8,15.2s.6,10.2,1.8,15.2l-41.1,23.7-63.8-17.1c-4.6-1.2-9.5-.6-13.6,1.8-4.2,2.4-7.1,6.3-8.4,10.9-2.6,9.6,3.1,19.4,12.7,22l29.1,7.8-19.2,11.1c-4.2,2.4-7.1,6.3-8.4,10.9-1.3,4.6-.6,9.5,1.8,13.6,5,8.6,16,11.5,24.5,6.6l19.2-11.1-7.8,29.1c-2.6,9.6,3.1,19.4,12.7,22,9.6,2.6,19.4-3.1,22-12.7l17.1-63.8,41.2-23.8c7.5,7.2,16.4,12.4,26.3,15.3v47.5l-46.7,46.7c-7,7-7,18.4,0,25.4,3.4,3.4,7.9,5.3,12.7,5.3s9.3-1.9,12.7-5.3l21.3-21.3v22.2c0,9.9,8.1,18,18,18s18-8.1,18-18v-22.2l21.3,21.3c7,7,18.4,7,25.4,0,7-7,7-18.4,0-25.4l-46.7-46.7v-47.5c9.9-2.9,18.8-8.1,26.3-15.3l41.2,23.8,17.1,63.8c2.6,9.6,12.4,15.3,22,12.7,9.6-2.6,15.3-12.4,12.7-22l-7.8-29.1,19.2,11.1c8.6,4.9,19.6,2,24.5-6.6,5-8.6,2-19.6-6.6-24.5l-19.2-11.1,29.1-7.8c9.6-2.6,15.3-12.4,12.7-22-1.2-4.6-4.2-8.5-8.4-10.9h0ZM732.6,244c-.8,1.4-2.2,2.5-3.8,2.9l-42.8,11.5c-2.3.6-4,2.6-4.3,4.9s.8,4.7,2.9,5.9l31.5,18.2c3,1.7,4,5.5,2.3,8.5s-5.5,4-8.5,2.3l-31.5-18.2c-2.1-1.2-4.6-1-6.5.4-1.9,1.5-2.7,3.9-2.1,6.2l11.5,42.8c.9,3.3-1.1,6.7-4.4,7.6-3.3.9-6.7-1.1-7.6-4.4l-17.7-66.1c-.4-1.5-1.4-2.8-2.8-3.6l-47.2-27.3c-2.4-1.4-5.5-.9-7.3,1.2-7.5,8.3-17.2,14-28,16.2-2.7.6-4.7,3-4.7,5.8v54.5c0,1.6.6,3.1,1.7,4.2l48.4,48.4c2.4,2.4,2.4,6.3,0,8.8-2.4,2.4-6.3,2.4-8.8,0l-31.3-31.3c-1.7-1.7-4.2-2.2-6.4-1.3-2.2.9-3.6,3.1-3.6,5.4v36.4c0,3.4-2.8,6.2-6.2,6.2s-6.2-2.8-6.2-6.2v-36.4c0-2.4-1.4-4.5-3.6-5.4-.7-.3-1.5-.4-2.3-.4-1.5,0-3,.6-4.2,1.7l-31.3,31.3c-2.4,2.4-6.3,2.4-8.8,0-2.4-2.4-2.4-6.3,0-8.8l48.4-48.4c1.1-1.1,1.7-2.6,1.7-4.2v-54.5c0-2.8-1.9-5.2-4.7-5.8-10.8-2.3-20.5-7.9-28-16.2-1.8-2.1-4.9-2.6-7.3-1.2l-47.2,27.3c-1.3.8-2.3,2.1-2.8,3.6l-17.7,66.1c-.9,3.3-4.3,5.3-7.6,4.4-3.3-.9-5.3-4.3-4.4-7.6l11.5-42.8c.6-2.3-.2-4.8-2.1-6.2s-4.5-1.6-6.5-.4l-31.5,18.2c-3,1.7-6.8.7-8.5-2.3-.8-1.4-1.1-3.1-.6-4.7.4-1.6,1.5-2.9,2.9-3.8l31.5-18.2c2.1-1.2,3.2-3.5,2.9-5.9-.3-2.4-2-4.3-4.3-4.9l-42.8-11.5c-3.3-.9-5.3-4.3-4.4-7.6.4-1.6,1.5-2.9,2.9-3.8,1.4-.8,3.1-1,4.7-.6l66.1,17.7c1.5.4,3.1.2,4.5-.6l47.2-27.3c2.4-1.4,3.5-4.3,2.7-6.9-1.7-5.3-2.6-10.7-2.6-16.2s.9-10.9,2.6-16.2c.9-2.7-.3-5.5-2.7-6.9l-47.2-27.3c-1.3-.8-3-1-4.5-.6l-66.1,17.7c-1.6.4-3.3.2-4.7-.6s-2.5-2.2-2.9-3.8c-.4-1.6-.2-3.3.6-4.7.8-1.4,2.2-2.5,3.8-2.9l42.8-11.5c2.3-.6,4-2.6,4.3-4.9s-.8-4.7-2.9-5.9l-31.5-18.2c-1.4-.8-2.5-2.2-2.9-3.8s-.2-3.3.6-4.7c1.7-3,5.5-4,8.5-2.3l31.5,18.2c2.1,1.2,4.6,1,6.5-.4,1.9-1.5,2.7-3.9,2.1-6.2l-11.5-42.8c-.9-3.3,1.1-6.7,4.4-7.6,3.3-.9,6.7,1.1,7.6,4.4l17.7,66.1c.4,1.5,1.4,2.8,2.8,3.6l47.2,27.3c2.4,1.4,5.5.9,7.3-1.2,7.5-8.3,17.2-14,28-16.2,2.7-.6,4.7-3,4.7-5.8v-54.5c0-1.6-.6-3.1-1.7-4.2l-48.4-48.4c-2.4-2.4-2.4-6.3,0-8.8,2.4-2.4,6.3-2.4,8.8,0l31.3,31.3c1.7,1.7,4.2,2.2,6.4,1.3,2.2-.9,3.6-3.1,3.6-5.4V19.5c0-3.4,2.8-6.2,6.2-6.2s6.2,2.8,6.2,6.2v36.4c0,2.4,1.4,4.5,3.6,5.4,2.2.9,4.7.4,6.4-1.3l31.3-31.3c2.4-2.4,6.3-2.4,8.8,0,2.4,2.4,2.4,6.3,0,8.8l-48.4,48.4c-1.1,1.1-1.7,2.6-1.7,4.2v54.5c0,2.8,1.9,5.2,4.7,5.8,10.8,2.3,20.5,7.9,28,16.2,1.9,2.1,4.9,2.6,7.3,1.2l47.2-27.3c1.3-.8,2.3-2.1,2.8-3.6l17.7-66.1c.9-3.3,4.3-5.3,7.6-4.4,3.3.9,5.3,4.3,4.4,7.6l-11.5,42.8c-.6,2.3.2,4.8,2.1,6.2s4.5,1.6,6.5.4l31.5-18.2c1.4-.8,3.1-1,4.7-.6s2.9,1.5,3.8,2.9,1,3.1.6,4.7-1.5,2.9-2.9,3.8l-31.5,18.2c-2.1,1.2-3.2,3.5-2.9,5.9.3,2.4,2,4.3,4.3,4.9l42.8,11.5c1.6.4,2.9,1.5,3.8,2.9s1,3.1.6,4.7c-.4,1.6-1.5,2.9-2.9,3.8s-3.1,1.1-4.7.6l-66.1-17.7c-1.5-.4-3.1-.2-4.5.6l-47.2,27.3c-2.4,1.4-3.5,4.3-2.7,6.9,1.7,5.3,2.6,10.7,2.6,16.2s-.9,10.9-2.6,16.2c-.9,2.7.3,5.5,2.7,6.9l47.2,27.3c1.3.8,3,1,4.5.6l66.1-17.7c1.6-.4,3.3-.2,4.7.6,1.4.8,2.5,2.2,2.9,3.8.4,1.6.2,3.3-.6,4.7h0s0,0,0,0ZM555.3,161.6c-22,0-40,17.9-40,40s17.9,40,40,40,40-17.9,40-40-17.9-40-40-40h0ZM555.3,229.9c-15.6,0-28.2-12.7-28.2-28.2s12.7-28.2,28.2-28.2,28.2,12.7,28.2,28.2-12.7,28.2-28.2,28.2Z"/>
  </g>
  <g id="Layer_11" data-name="Layer_1">
    <path d="M282,732V109.2C282,49.2,232.8,0,172.8,0S63.6,49.2,63.6,109.2v622.8C22.8,765.6,0,813.6,0,866.4c0,96,78,172.8,172.8,172.8s172.8-78,172.8-172.8c1.3-52.8-22.7-102-63.5-134.4h0ZM172.9,1011.6c-80.4,0-145.2-64.8-145.2-145.2s21.6-88.8,58.8-116.4l6-4.8V109.2c0-45.6,37.3-81.6,81.7-81.6s81.6,36,81.6,81.6v637.2l6,4.8c37.2,27.6,58.8,70.8,58.8,116.4-1.2,79.2-67.2,144-147.6,144h0Z"/>
    <circle class="st0" cx="172.8" cy="870" r="126.4"/>
    <rect class="st0" x="125.6" y="643.6" width="94.1" height="165.3"/>
    <path d="M73.1,148.8h104.7c2.1,0,4.1-1.2,4.1-2.4v-8.4c0-1.2-2.1-2.4-4.1-2.4h-104.7c-2.1,0-4.1,1.2-4.1,2.4v8.4s2.1,2.4,4.1,2.4Z"/>
    <path d="M73.1,214.8h104.7c2.1,0,4.1-1.2,4.1-2.4v-8.4c0-1.2-2.1-2.4-4.1-2.4h-104.7c-2.1,0-4.1,1.2-4.1,2.4v8.4c0,1.2,2.1,2.4,4.1,2.4Z"/>
    <path d="M73.1,280.8h104.7c2.1,0,4.1-1.2,4.1-2.4v-8.4c0-1.2-2.1-2.4-4.1-2.4h-104.7c-2.1,0-4.1,1.2-4.1,2.4v8.4c0,1.2,2.1,2.4,4.1,2.4Z"/>
    <path d="M73.1,348h104.7c2.1,0,4.1-1.2,4.1-2.4v-8.4c0-1.2-2.1-2.4-4.1-2.4h-104.7c-2.1,0-4.1,1.2-4.1,2.4v8.4c0,1.2,2.1,2.4,4.1,2.4Z"/>
    <path d="M73.1,414h104.7c2.1,0,4.1-1.2,4.1-2.4v-8.4c0-1.2-2.1-2.4-4.1-2.4h-104.7c-2.1,0-4.1,1.2-4.1,2.4v8.4c0,1.2,2.1,2.4,4.1,2.4Z"/>
    <path d="M73.1,480h104.7c2.1,0,4.1-1.2,4.1-2.4v-8.4c0-1.2-2.1-2.4-4.1-2.4h-104.7c-2.1,0-4.1,1.2-4.1,2.4v8.4c0,1.2,2.1,2.4,4.1,2.4Z"/>
    <path d="M73.1,547.2h104.7c2.1,0,4.1-1.2,4.1-2.4v-8.4c0-1.2-2.1-2.4-4.1-2.4h-104.7c-2.1,0-4.1,1.2-4.1,2.4v8.4c0,1.2,2.1,2.4,4.1,2.4Z"/>
    <path d="M73.1,613.2h104.7c2.1,0,4.1-1.2,4.1-2.4v-8.4c0-1.2-2.1-2.4-4.1-2.4h-104.7c-2.1,0-4.1,1.2-4.1,2.4v8.4c0,1.2,2.1,2.4,4.1,2.4Z"/>
    <path d="M183.9,676.8v-8.4c0-1.2-2.1-2.4-4.1-2.4h-104.7c-2.1,0-4.1,1.2-4.1,2.4v8.4c0,1.2,2.1,2.4,4.1,2.4h104.7s4.1,0,4.1-2.4Z"/>
  </g>
</svg>