<?xml version="1.0" encoding="UTF-8"?><svg id="Layer_1" xmlns="http://www.w3.org/2000/svg" viewBox="0 0 1047.734 1102.089"><defs><style>.cls-1{fill:#fff;}</style></defs><path d="M460.641,436.289c-6.75,6.844-6.609,17.859.234,24.609s17.859,6.609,24.609-.234c5.625-5.766,9.188-8.672,11.25-10.266,5.156,3.422,13.359,8.062,27.188,8.344,13.453-.141,21.938-5.25,26.953-8.672,2.062,1.734,5.625,4.781,11.016,10.406,3.422,3.562,7.969,5.391,12.609,5.391,4.266,0,8.578-1.594,12-4.781,6.984-6.609,7.219-17.625.75-24.609-20.203-21.328-34.875-30.141-54.75-16.031-3.328,2.344-4.641,3.328-8.672,3.328-3.562.141-5.156-.844-8.438-3.047-20.109-13.453-34.688-4.875-54.75,15.562h0Z"/><path d="M914.071,741.049h-76.781v-8.578c0-100.03-81.328-181.36-181.36-181.36h-57.047v-10.875c1.219-.469,2.438-.984,3.562-1.453,76.781-1.125,152.68-3.656,226.55-7.734,8.344-.469,15.188-6.844,16.266-15.047,17.766-138.14,17.766-354.37,0-492.47-1.125-8.344-7.969-14.672-16.266-15.188C725.405,2.813,622.785,0,523.835,0s-201.56,2.812-305.16,8.203c-8.344.469-15.188,6.844-16.266,15.188-17.766,138.14-17.766,354.37,0,492.47,1.125,8.344,7.969,14.672,16.266,15.047,73.734,4.172,149.53,6.75,226.03,7.875,1.359.609,2.672,1.125,4.031,1.734v10.641h-57.047c-100.03,0-181.36,81.328-181.36,181.36v8.578h-76.875c-30.234,0-54.984,24.469-54.984,54.75v38.062c0,28.172,21.328,51.422,48.609,54.609v196.18c0,9.562,7.828,17.391,17.391,17.391s17.391-7.828,17.391-17.391v-195.84h723.56v195.79c0,9.562,7.828,17.391,17.391,17.391s17.391-7.828,17.391-17.391v-196.18c27.328-3.188,48.609-26.438,48.609-54.609v-38.062c.234-30.141-24.516-54.75-54.75-54.75l.008.003ZM235.091,497.159c-15.188-131.02-15.188-323.86,0-454.87,97.969-4.922,195.1-7.5,288.74-7.5s190.78,2.438,288.74,7.453c15.188,131.02,15.188,323.86,0,454.87-51.797,2.672-104.81,4.641-158.21,5.859,26.438-25.594,45.562-58.875,53.391-96.469,10.031-3.188,19.359-8.672,27.047-16.406,17.625-18.375,23.156-44.438,14.344-68.062-4.641-12.469-12-22.031-21.328-29.016v-47.016c0-72.469-54.141-141.79-131.53-168.47-62.953-21.797-123.19-7.734-162.84,37.219-51.422-1.219-79.734,18.469-94.547,35.859-27.047,31.594-34.172,80.203-21.422,144.84-8.344,7.125-14.953,16.031-18.844,26.578-8.812,23.766-3.328,49.828,14.812,68.344,7.359,7.359,16.172,12.75,25.734,15.797,7.969,37.734,27.188,71.156,53.625,96.75-53.25-1.125-106.03-3.094-157.74-5.766l.028.005ZM693.061,245.999v34.406c-3.797-.234-7.828-.234-11.859.141-.375-1.969-1.125-3.656-1.734-5.531-.469-1.453-.75-3.047-1.359-4.406-.609-1.453-1.359-2.672-2.062-4.172-.844-1.734-1.594-3.562-2.578-5.156-.469-.844-1.219-1.594-1.734-2.438-1.359-1.969-2.672-4.031-4.266-5.859l-.75-.75c-6.609-7.359-14.953-13.125-24.469-16.547-.844-.375-1.828-.469-2.672-.75-2.438-.75-4.875-1.594-7.453-1.969-3.562-.609-7.125-.984-10.781-.984l-194.63.047c-3.562,0-7.125.375-10.547.984-.469.141-.984.234-1.453.375-2.953.609-5.766,1.219-8.578,2.203-.234.141-.469.234-.75.375-18.984,7.125-33.938,23.391-38.578,43.828-4.781-.234-9.562-.234-12.469.141h-.281c-1.359.141-2.672.234-4.172.469-8.344-48.844-3.188-85.594,15.328-107.25,15.328-17.859,40.547-25.828,74.812-23.391,5.859.375,11.25-2.062,14.953-6.609,43.219-55.219,105.42-41.391,130.03-32.812,53.672,18.469,108.05,71.109,108.05,135.66l.004-.003ZM371.401,389.259c-1.125-7.969-7.594-14.062-15.562-14.812-6.609-.609-13.125-3.797-17.859-8.438-8.438-8.578-11.016-20.672-6.844-31.828,2.812-7.594,8.438-13.453,15.797-16.781.844-.375,1.734-.75,2.578-1.125.984-.375,2.062-.609,3.188-.984.984-.234,1.969-.375,2.953-.609.844-.141,1.594-.234,2.438-.375.469-.141,1.359-.141,2.344-.141h.375c3.047,0,7.734.234,11.859.609h.469c.609,0,1.219.141,1.828.141.375,0,.75.141,1.125.141s.844.141,1.219.141c.75.141,1.453.141,1.969.234,4.641.75,9.422-.469,13.219-3.328,3.797-2.953,6.234-7.219,6.75-11.859.234-2.203.375-4.172.469-5.766,0-1.125,0-2.062.234-3.328.141-.469.141-.844.234-1.359,1.734-13.125,13.359-23.25,26.578-23.25h194.34c14.672,0,26.672,12,26.672,26.672v7.453c0,1.359.141,2.672.469,3.938.141.234.234.609.375.844.234.984.609,1.969.984,2.812.141.234.234.375.375.609.469.984.984,1.828,1.734,2.672.141.141.234.234.469.375.75.844,1.453,1.594,2.438,2.344.234.141.469.234.609.375.844.609,1.828,1.219,2.672,1.594.234.141.469.141.609.234,3.422,1.359,7.219,1.734,10.875.844,3.328-.844,6.469-1.453,9.562-1.969.234,0,.469-.141.75-.141,3.047-.375,5.859-.609,8.578-.609h.375c2.578,0,4.875.234,7.125.75.234,0,.469.141.75.141,2.203.469,4.172,1.125,5.859,1.969,9.656,4.406,12.75,12.609,14.203,16.266,4.172,11.016,1.453,23.25-6.609,31.594-5.016,5.016-11.766,8.203-18.984,8.812-8.062.75-14.438,6.844-15.562,14.953-7.125,50.344-38.578,92.203-81.422,114.61-46.875.609-94.031.609-140.95,0-42.75-21.984-74.438-63.984-81.656-114.42v-.005ZM564.111,551.869v23.109c0,14.953-8.344,27.938-20.438,34.875-6.75,3.328-14.062,4.547-19.828,4.547s-12.984-1.219-19.828-4.547c-12.141-6.984-20.438-19.828-20.438-34.875v-23.109c1.734.375,3.562.75,5.25.984,1.125.234,2.062.375,3.188.609,4.547.75,9.047,1.359,13.594,1.828,1.219.141,2.578.234,3.797.234,4.266.375,8.578.469,12.844.609h1.734c4.875,0,9.656-.234,14.578-.609.984-.141,1.969-.141,2.812-.234,4.875-.469,9.656-1.125,14.578-1.969.469-.141.984-.234,1.359-.234,2.297-.328,4.594-.703,6.797-1.219h0ZM245.171,732.479c0-80.812,65.766-146.58,146.58-146.58h57.656c2.812,22.266,13.828,36.469,23.25,44.672,3.656,3.188,7.828,5.859,12.141,8.344,11.391,6.984,24.75,11.016,38.953,11.016h.281c13.453,0,26.203-3.797,37.125-10.031,18.984-10.031,33.656-28.172,36.984-54h57.656c80.812,0,146.58,65.766,146.58,146.58v8.578h-67.219v-37.734c0-9.562-7.828-17.391-17.391-17.391s-17.391,7.828-17.391,17.391v37.734h-353.21v-37.734c0-9.562-7.828-17.391-17.391-17.391s-17.391,7.828-17.391,17.391v37.734h-67.219l.006-8.579ZM934.281,833.869c0,10.875-9.328,20.203-20.203,20.203H133.608c-10.875,0-20.203-9.328-20.203-20.203v-38.062c0-11.016,9.047-19.969,20.203-19.969h780.37c11.156,0,20.203,8.953,20.203,19.969v38.062h.1Z"/><path d="M476.301,338.319c0-9.562-7.828-17.391-17.391-17.391h-36.234c-9.562,0-17.391,7.828-17.391,17.391s7.828,17.391,17.391,17.391h36.234c9.703,0,17.391-7.828,17.391-17.391Z"/><path d="M580.411,355.709h36.234c9.562,0,17.391-7.828,17.391-17.391s-7.828-17.391-17.391-17.391h-36.234c-9.562,0-17.391,7.828-17.391,17.391.141,9.562,7.828,17.391,17.391,17.391Z"/><path d="M938.531,627.449l21.328-35.016c4.406-7.219,2.953-16.547-3.422-22.031l-44.812-39.188c-7.219-6.234-18.234-5.531-24.469,1.734-6.234,7.219-5.531,18.234,1.734,24.469l33.797,29.531-20.953,34.641c-4.266,6.984-3.047,16.031,2.953,21.656l29.625,27.938-16.406,40.172c-3.656,8.953.609,18.984,9.562,22.641,2.203.844,4.406,1.359,6.469,1.359,6.844,0,13.359-4.031,16.172-10.781l20.812-51.188c2.672-6.609.984-14.344-4.172-19.219l-28.219-26.719Z"/><path d="M276.011,218.689l29.625-27.938c6-5.625,7.219-14.672,2.953-21.656l-20.953-34.406,33.797-29.766c7.219-6.375,7.969-17.25,1.594-24.469s-17.25-7.969-24.469-1.594l-44.812,39.422c-6.375,5.531-7.734,14.953-3.328,22.031l21.188,34.781-28.031,26.344c-5.25,4.875-6.844,12.609-4.172,19.219l20.812,51.188c2.672,6.75,9.188,10.781,16.172,10.781,2.203,0,4.406-.375,6.469-1.359,8.953-3.656,13.125-13.734,9.562-22.641l-16.407-39.937Z"/><path d="M1042.231,642.029l-28.172-26.438,25.359-42.609c4.266-7.219,2.812-16.406-3.422-21.938l-44.578-39.422c-7.219-6.375-18.141-5.625-24.469,1.453-6.375,7.125-5.625,18.141,1.453,24.469l33.797,29.859-25.125,42.234c-4.172,6.984-2.953,15.938,3.047,21.562l29.625,27.938-16.406,40.172c-3.656,8.953.609,18.984,9.562,22.641,2.203.844,4.406,1.359,6.469,1.359,6.844,0,13.359-4.031,16.172-10.781l20.812-51.188c2.859-6.844,1.172-14.438-4.125-19.312h0Z"/><path d="M113.771,735.079c2.203,0,4.406-.375,6.469-1.359,8.953-3.656,13.125-13.734,9.562-22.641l-16.406-40.172,29.625-27.938c6-5.625,7.219-14.672,2.953-21.656l-20.953-34.641,33.797-29.531c7.219-6.375,7.969-17.25,1.734-24.469-6.375-7.219-17.25-7.969-24.469-1.734l-44.812,39.188c-6.375,5.531-7.828,14.953-3.422,22.031l21.328,35.016-28.172,26.438c-5.25,4.875-6.844,12.609-4.172,19.219l20.812,51.188c2.766,7.031,9.234,11.062,16.125,11.062h0Z"/><path d="M45.431,567.539l33.938-29.859c7.219-6.375,7.969-17.25,1.594-24.469s-17.25-7.969-24.469-1.594l-44.812,39.422c-6.234,5.531-7.734,14.672-3.422,21.938l25.359,42.609-28.172,26.438c-5.25,4.875-6.844,12.609-4.172,19.219l20.812,51.188c2.672,6.75,9.188,10.781,16.172,10.781,2.203,0,4.406-.375,6.469-1.359,8.953-3.656,13.125-13.734,9.563-22.641l-16.406-40.172,29.625-27.938c5.859-5.625,7.219-14.578,3.047-21.562l-25.125-42.001Z"/><path d="M819.891,952.099c-9.562,0-17.391,7.828-17.391,17.391v115.12c0,9.562,7.828,17.391,17.391,17.391s17.391-7.828,17.391-17.391v-115.12c-.094-9.562-7.828-17.391-17.391-17.391h0Z"/><path class="cls-1" d="M526.694,365.122l-52.444,51.556-59.575,83.556-3.092,39.111,17.778,21.778,39.778,36,30,33.777,3.111,38.668,40.444-11.111s26.667-14.222,27.111-16,9.676-21.333,9.06-22.667-1.103-28.444.029-31.556,19.355-22.222,23.355-24.444,26.222-15.556,26.222-15.556l-69.778-180-32-3.111Z"/><path d="M578.865,391.494,563.092,364.583c-8.337-6.693-18.993-9.799-29.62-8.631-10.627,1.167-20.355,6.511-27.039,14.855l-108.187,135.041c-4.729,5.939-7.139,13.394-6.777,20.977.363,7.583,3.469,14.775,8.742,20.235l82.149,84.444,7.641,36.08c1.441,6.899,6.083,12.698,12.5,15.612,2.876,1.254,5.979,1.904,9.116,1.91,3.817.02,7.576-.938,10.916-2.784l52.292-29.421c5.051-2.849,9.128-7.155,11.698-12.353,2.571-5.199,3.516-11.052,2.713-16.796l-4.148-28.766,30.622-14.519c6.718-3.192,12.024-8.748,14.904-15.605,2.88-6.857,3.132-14.535.706-21.567M605.666,559.45l-24.18,11.517-9.389-62.882c-.348-3.141-1.96-6.005-4.464-7.933-2.504-1.929-5.687-2.753-8.812-2.286-3.126.468-5.928,2.189-7.758,4.765-1.83,2.577-2.534,5.787-1.946,8.894l11.517,77.293,5.458,38.21h.001c.14,1.077-.044,2.173-.531,3.145-.486.973-1.252,1.778-2.198,2.313l-50.981,28.602-7.641-35.973,20.415-170.141h-.001c.498-4.123-1.244-8.199-4.567-10.693-3.323-2.492-7.724-3.023-11.544-1.391-3.821,1.631-6.482,5.177-6.978,9.302l-17.85,148.089-67.303-69.594c-1.347-1.385-2.14-3.216-2.231-5.146s.528-3.827,1.74-5.334l108.187-134.88c2.542-3.18,6.143-5.341,10.146-6.088,4.003-.746,8.141-.029,11.659,2.02,3.518,2.05,6.182,5.295,7.508,9.145l55.347,160.48c.555,1.623.495,3.391-.169,4.971-.665,1.58-1.886,2.862-3.434,3.599v-.003Z"/></svg>