<?xml version="1.0" encoding="UTF-8"?><svg id="Layer_1" xmlns="http://www.w3.org/2000/svg" viewBox="0 0 918.758 918.774"><defs><style>.cls-1{fill:lime;}.cls-1,.cls-2,.cls-3,.cls-4,.cls-5,.cls-6,.cls-7,.cls-8{stroke:#000;stroke-miterlimit:10;}.cls-2{fill:red;}.cls-3{fill:#b04aff;}.cls-4{fill:blue;}.cls-5{fill:aqua;}.cls-9{fill-rule:evenodd;}.cls-6{fill:#f0f;}.cls-7{fill:#ffa135;}.cls-8{fill:#ff0;}</style></defs><polygon class="cls-6" points="133.641 137.78 308.366 313.778 261.189 453.615 3.814 449.853 36.266 287.998 133.641 137.78"/><polygon class="cls-3" points="9.943 454.188 257.796 462.74 319.205 596.937 129.107 770.485 41.888 630.332 9.943 454.188"/><polygon class="cls-4" points="138.851 775.072 314.066 599.562 454.112 646.113 451.501 903.502 289.502 871.774 138.851 775.072"/><polygon class="cls-5" points="467.479 900.916 467.657 664.884 593.334 602.164 764.516 777.414 634.002 864.876 467.479 900.916"/><polygon class="cls-1" points="766.993 772.429 602.605 586.739 657.692 449.825 914.432 468.281 872.789 628.018 766.993 772.429"/><polygon class="cls-8" points="910.355 447.062 662.454 454.066 592.752 323.983 771.595 138.858 867.429 273.267 910.355 447.062"/><polygon class="cls-2" points="459.379 13 459.379 261 327.379 327 147.379 143 284.441 51 459.379 13"/><polygon class="cls-7" points="774.661 139.676 596.599 312.296 457.333 263.461 464.154 6.149 625.612 40.522 774.661 139.676"/><path class="cls-9" d="M459.379,0h-18.75v.375c-108.8,4.453-212.48,47.391-292.55,121.18l-.281-.234-13.266,13.219-.047.094-13.172,13.172.234.281c-36.562,39.703-65.906,85.547-86.578,135.52C14.297,333.529,2.578,386.727.375,440.637h-.375v37.5h.375c2.203,53.906,13.922,107.11,34.594,157.03,20.672,49.969,50.016,95.812,86.578,135.52l-.234.281,13.219,13.266,13.266,13.219.281-.234c80.062,73.781,183.74,116.72,292.55,121.18v.375h37.5v-.375c108.8-4.453,212.48-47.391,292.55-121.18l.281.234,13.266-13.219,13.219-13.266-.234-.281c36.562-39.703,65.906-85.547,86.578-135.52,20.672-49.922,32.391-103.12,34.594-157.03h.375v-37.5h-.375c-2.203-53.906-13.922-107.11-34.594-157.03-20.672-49.969-50.016-95.812-86.578-135.52l.234-.281-13.172-13.172-.047-.094-13.266-13.219-.281.234C690.617,47.774,586.939,4.835,478.129.375V0h-18.75ZM478.129,880.82c98.812-4.406,193.03-43.406,266.02-110.16l-148.4-148.4c-33.281,27.844-74.344,44.859-117.61,48.703l-.01,209.857ZM459.379,634.3c46.359,0,90.797-18.422,123.61-51.141l.094-.094c16.219-16.266,29.109-35.531,37.922-56.766,8.766-21.234,13.312-43.969,13.312-66.938s-4.547-45.703-13.312-66.938c-8.812-21.234-21.703-40.5-37.922-56.766l-.094-.047c-32.766-32.766-77.25-51.188-123.61-51.188s-90.844,18.422-123.61,51.188l-.094.047c-16.219,16.266-29.109,35.531-37.922,56.766-8.766,21.234-13.312,43.969-13.312,66.938s4.547,45.703,13.312,66.938c8.812,21.234,21.703,40.5,37.922,56.766.047,0,.094.047.094.094,32.812,32.719,77.25,51.141,123.61,51.141ZM323.019,622.253l-148.4,148.4c72.984,66.75,167.21,105.75,266.02,110.16v-209.86c-43.266-3.844-84.328-20.859-117.61-48.703l-.01.003ZM296.488,595.722c-13.828-16.547-25.078-35.109-33.375-55.078-8.25-19.969-13.406-41.062-15.328-62.531H37.925c2.156,48.984,12.891,97.312,31.688,142.69,18.797,45.422,45.375,87.141,78.469,123.32l148.406-148.401ZM247.785,440.612H37.925c2.156-48.984,12.891-97.312,31.688-142.69,18.797-45.422,45.375-87.141,78.469-123.32l148.4,148.4c-13.828,16.547-25.078,35.109-33.375,55.078-8.25,19.969-13.406,41.062-15.328,62.531h.006ZM770.675,744.132c33.094-36.188,59.672-77.906,78.469-123.32,18.797-45.375,29.531-93.703,31.688-142.69h-209.86c-1.922,21.469-7.078,42.562-15.328,62.531-8.297,19.969-19.547,38.531-33.375,55.078l148.406,148.401ZM880.835,440.612h-209.86c-1.922-21.469-7.078-42.562-15.328-62.531-8.297-19.969-19.547-38.531-33.375-55.078l148.4-148.4c33.094,36.188,59.672,77.906,78.469,123.32,18.797,45.375,29.531,93.703,31.688,142.69h.006ZM478.125,37.902v209.86c43.266,3.844,84.328,20.859,117.61,48.703l148.4-148.4c-72.984-66.75-167.21-105.75-266.02-110.16l.01-.003ZM440.625,247.762V37.902c-98.812,4.406-193.03,43.406-266.02,110.16l148.4,148.4c33.281-27.844,74.344-44.859,117.61-48.703l.01.003Z"/></svg>