<?xml version="1.0" encoding="UTF-8"?>
<svg id="Layer_1" data-name="Layer 1" xmlns="http://www.w3.org/2000/svg" viewBox="0 0 435.461 649.103">
  <defs>
    <style>
      .cls-1 {
        stroke-dasharray: 12.099 12.099;
      }

      .cls-1, .cls-2 {
        fill: none;
        stroke: #bfbfbf;
        stroke-miterlimit: 10;
        stroke-width: 6px;
      }

      .cls-3 {
        fill: #bfbfbf;
      }

      .cls-4 {
        fill: #ff1717;
        fill-rule: evenodd;
      }
    </style>
  </defs>
  <path class="cls-3" d="M9.296,560.542v-80.077h90.487V80.077H9.296V0h267.458v80.077h-90.487v400.387h90.487v80.077H9.296Z"/>
  <g>
    <line class="cls-2" y1="567.321" x2="6" y2="567.321"/>
    <line class="cls-1" x1="18.099" y1="567.321" x2="423.412" y2="567.321"/>
    <line class="cls-2" x1="429.461" y1="567.321" x2="435.461" y2="567.321"/>
  </g>
  <path class="cls-4" d="M373.855,412.675l30.39-34.038c1.574-1.763,4.279-1.916,6.042-.342l16.8,15c1.763,1.574,1.916,4.279.342,6.042l-62.873,70.419c-1.574,1.763-4.279,1.916-6.042.342l-70.419-62.873c-1.763-1.574-1.916-4.279-.342-6.042l15-16.8c1.574-1.763,4.279-1.916,6.042-.342l34.038,30.39-6.593-116.456c-.134-2.365,1.673-4.381,4.03-4.514l22.478-1.273c2.357-.133,4.38,1.666,4.514,4.03l6.592,116.456Z"/>
  <path d="M389.995,564.81c-1.979-5.08-5.278-8.313-9.764-9.5-1.517-.396-3.365-.594-5.608-.594-1.715,0-3.563.132-5.674.33-6.334.396-11.282.132-14.844-.792-8.313-2.177-14.778-7.191-19.596-15.24-4.816-7.983-5.938-16.494-3.431-25.929,2.837-10.82,8.115-18.012,16.098-22.101,11.348-5.674,23.223-6.927,35.363-3.695,14.515,3.827,25.994,13.525,34.175,28.832,8.181,15.372,9.896,32.393,5.08,50.669-6.861,25.994-23.091,47.37-48.227,63.667-14.449,9.237-33.12,15.504-55.486,18.605-1.451.198-2.903-.33-3.827-1.385s-1.32-2.507-.924-3.827c.396-1.385,1.451-2.507,2.903-2.969,25.203-7.785,43.741-16.56,55.155-26.126,8.973-7.653,15.24-18.012,18.605-30.679,2.111-8.115,2.111-14.449,0-19.265h0Z"/>
</svg>