<?xml version="1.0" encoding="UTF-8"?>
<svg id="Layer_1" data-name="Layer 1" xmlns="http://www.w3.org/2000/svg" viewBox="0 0 1000.15 642.863">
  <defs>
    <style>
      .cls-1 {
        fill: red;
      }
    </style>
  </defs>
  <path d="M605.99,67.843H56.25C25.219,67.843,0,93.062,0,124.093v394.78c0,31.031,25.219,56.25,56.25,56.25h216.79l-15.844,30.234h-56.391c-10.359,0-18.75,8.391-18.75,18.75s8.391,18.75,18.75,18.75h260.63c10.359,0,18.75-8.391,18.75-18.75s-8.391-18.75-18.75-18.75h-56.391l-15.844-30.234h216.79c31.031,0,56.25-25.219,56.25-56.25V124.093c0-31.031-25.219-56.25-56.25-56.25ZM362.71,605.403h-63.188l15.844-30.234h31.453l15.844,30.234h.047ZM624.74,518.919c0,10.312-8.391,18.75-18.75,18.75H56.25c-10.312,0-18.75-8.438-18.75-18.75V124.099c0-10.312,8.438-18.75,18.75-18.75h549.71c10.359,0,18.75,8.438,18.75,18.75v394.78l.03.04Z"/>
  <path d="M962.65,30.623h-235.45c-20.672,0-37.5,16.828-37.5,37.5v537.24c0,20.672,16.828,37.5,37.5,37.5h235.45c20.672,0,37.5-16.828,37.5-37.5V68.123c0-20.672-16.828-37.5-37.5-37.5ZM727.2,605.363l-.047-537.24h235.45v537.24h-235.45.047Z"/>
  <path d="M923.75,115.373h-157.64c-10.359,0-18.75,8.391-18.75,18.75s8.391,18.75,18.75,18.75h157.64c10.359,0,18.75-8.391,18.75-18.75s-8.391-18.75-18.75-18.75h0Z"/>
  <path d="M923.75,187.553h-157.64c-10.359,0-18.75,8.391-18.75,18.75s8.391,18.75,18.75,18.75h157.64c10.359,0,18.75-8.391,18.75-18.75s-8.391-18.75-18.75-18.75h0Z"/>
  <path d="M902.05,259.743h-114.42c-10.359,0-18.75,8.391-18.75,18.75s8.391,18.75,18.75,18.75h114.42c10.359,0,18.75-8.391,18.75-18.75s-8.391-18.75-18.75-18.75Z"/>
  <path d="M845.57,506.403h-1.406c-10.359,0-18.047,8.391-18.047,18.75s9.094,18.75,19.453,18.75,18.75-8.391,18.75-18.75-8.391-18.75-18.75-18.75h0Z"/>
  <path d="M857.89,434.213h-26.062c-10.359,0-18.75,8.391-18.75,18.75s8.391,18.75,18.75,18.75h26.062c10.359,0,18.75-8.391,18.75-18.75s-8.391-18.75-18.75-18.75Z"/>
  <path d="M596.33,118.283H65.89c-10.359,0-18.75,8.391-18.75,18.75v349.78c0,10.359,8.391,18.75,18.75,18.75h530.44c10.359,0,18.75-8.391,18.75-18.75V137.033c0-10.359-8.391-18.75-18.75-18.75ZM577.58,468.063H84.64V155.783h492.94v312.28Z"/>
  <path class="cls-1" d="M383.067,3.824c-12.577-7.119-22.253-4.292-29.053,8.431-3.375,6.349-6.923,12.723-10.764,19.49,90.586,49.525,179.825,98.335,270.558,147.921-10.274,18.632-20.109,36.553-31.239,56.901,58.511-1.375,114.916-2.675,173.282-3.978-30.795-49.834-60.292-97.809-91.334-148.136-7.974,15.641-16.096,29.885-22.649,44.936-4.548,10.614-10.257,11.085-19.376,6.094-77.696-42.636-155.314-85.131-232.955-127.673-2.206-1.223-4.143-2.643-6.35-3.866l-.119-.12Z"/>
</svg>