<?xml version="1.0" encoding="UTF-8"?>
<svg width="1200pt" height="1200pt" version="1.1" viewBox="0 0 1200 1200" xmlns="http://www.w3.org/2000/svg">
 <path d="m148.61 231.22c-4.1289 0.29297-8.043 1.9414-11.137 4.6914-20.496 18.051-33.363 40.379-33.363 64.492 0 24.145 12.969 46.465 33.508 64.527h0.003906c0.085938 0.070312 0.16797 0.14453 0.25391 0.21094 14.895 13.199 20.363 25.355 20.363 36.184 0 10.898-5.6367 23.098-20.766 36.402-3.7188 3.293-5.9844 7.9219-6.293 12.883-0.30859 4.957 1.3633 9.832 4.6445 13.559 3.2852 3.7266 7.9141 6 12.871 6.3125 4.957 0.31641 9.8398-1.3477 13.57-4.625 20.539-18.066 33.473-40.383 33.473-64.527 0-23.875-12.598-45.984-32.742-63.941h0.003906c-0.19141-0.19531-0.39062-0.38281-0.58984-0.57031-15.129-13.305-20.766-25.504-20.766-36.402 0-10.887 5.5312-23.113 20.617-36.402h0.003906c3.7188-3.2891 5.9844-7.9219 6.293-12.879s-1.3633-9.8359-4.6445-13.562c-3.2773-3.7305-7.9023-6.0078-12.855-6.3359-0.81641-0.050781-1.6367-0.050781-2.4531 0zm245.55 0h-0.003907c-4.125 0.29297-8.0391 1.9414-11.133 4.6914-20.496 18.051-33.363 40.379-33.363 64.492 0 24.145 12.969 46.465 33.508 64.527 0.085938 0.070312 0.17188 0.14453 0.25781 0.21094 14.895 13.199 20.363 25.355 20.363 36.184 0 10.898-5.6367 23.098-20.766 36.402-3.7227 3.293-5.9844 7.9219-6.293 12.883-0.3125 4.957 1.3594 9.832 4.6445 13.559 3.2852 3.7266 7.9141 6 12.871 6.3125 4.957 0.31641 9.8359-1.3477 13.57-4.625 20.539-18.066 33.473-40.383 33.473-64.527 0-23.871-12.605-45.988-32.742-63.941-0.20313-0.19531-0.41016-0.38281-0.62109-0.57031-15.129-13.305-20.727-25.504-20.727-36.402 0-10.887 5.5312-23.113 20.617-36.402h-0.003907c3.7227-3.2891 5.9844-7.9219 6.293-12.879 0.3125-4.957-1.3594-9.8359-4.6445-13.562-3.2773-3.7305-7.8984-6.0078-12.852-6.3359-0.81641-0.050781-1.6367-0.050781-2.4531 0zm245.52 0h-0.003906c-4.1133 0.30078-8.0156 1.9492-11.098 4.6914-20.496 18.051-33.363 40.379-33.363 64.492 0 23.695 12.496 45.621 32.375 63.504 0.31641 0.33984 0.64844 0.66797 0.98828 0.98438 15.086 13.289 20.766 25.516 20.766 36.402 0 10.902-5.6367 23.098-20.766 36.402-3.7188 3.2891-5.9844 7.9219-6.293 12.879-0.30859 4.957 1.3633 9.8359 4.6445 13.562 3.2852 3.7266 7.9141 5.9961 12.871 6.3125 4.957 0.31641 9.8398-1.3477 13.57-4.6289 20.539-18.066 33.473-40.383 33.473-64.527 0-24.113-12.867-46.441-33.363-64.492-0.27344-0.21875-0.55469-0.43359-0.83984-0.63672-14.582-13.055-19.922-25.055-19.922-35.781 0-10.887 5.5664-23.113 20.656-36.402h-0.003906c3.7227-3.2891 5.9844-7.9219 6.293-12.879 0.30859-4.957-1.3594-9.8359-4.6445-13.562-3.2852-3.7383-7.9219-6.0195-12.891-6.3359-0.81641-0.050781-1.6367-0.050781-2.4531 0zm-564.75 302.43h-0.003907c-4.9453 0.019531-9.6836 1.9961-13.184 5.4922-3.4961 3.5-5.4727 8.2383-5.4922 13.188v91.078c0 61.211 49.629 111.15 110.71 111.15h457.05c44.426 0 82.793-26.422 100.42-64.383h353.44c35.758 0 65.883-28.547 65.883-64.09s-30.129-64.051-65.883-64.051h-343.11v-9.707l-0.003906 0.003906c-0.019531-4.9492-1.9922-9.6875-5.4922-13.188-3.4961-3.4961-8.2344-5.4727-13.184-5.4922zm18.824 37.5h603.5v72.254c0 41.188-32.387 73.758-73.246 73.758h-457.05c-40.859 0-73.207-32.559-73.207-73.758zm641 28.383h343.11c16.398 0 28.383 11.934 28.383 26.551 0 14.617-11.984 26.586-28.383 26.586h-343.55c0.25391-3.0547 0.4375-6.1445 0.4375-9.2656zm-538.02 187.69c-5.0625 0-9.9102 2.0469-13.441 5.6758 0 0-14.508 14.914-29.188 34.059-14.68 19.148-31.715 40.273-31.715 66.98 0 13.559 3.6445 26.332 9.9961 37.355h-57.457c-4.957 0.019531-9.6992 2-13.199 5.5078-3.5 3.5039-5.4688 8.2539-5.4805 13.207-0.019531 4.9727 1.9375 9.75 5.4414 13.281 3.5 3.5312 8.2617 5.5234 13.238 5.543h641.15-0.003906c4.9727-0.019531 9.7344-2.0117 13.238-5.543s5.457-8.3086 5.4375-13.281c-0.007812-4.9531-1.9766-9.7031-5.4766-13.207-3.5-3.5078-8.2461-5.4883-13.199-5.5078h-57.605c6.3516-11.023 9.9961-23.797 9.9961-37.355 0-26.711-16.887-47.836-31.566-66.98-14.68-19.148-29.336-34.059-29.336-34.059-3.5312-3.6289-8.3789-5.6758-13.441-5.6758s-9.9102 2.0469-13.438 5.6758c0 0-14.508 14.914-29.188 34.059-14.68 19.148-31.715 40.273-31.715 66.98 0 13.559 3.6445 26.332 10 37.355h-69.949c6.3516-11.023 9.9961-23.797 9.9961-37.355 0-26.711-17.035-47.836-31.715-66.98-14.68-19.148-29.188-34.059-29.188-34.059h-0.003906c-3.5273-3.6289-8.375-5.6758-13.438-5.6758-5.0508 0.007813-9.8828 2.0547-13.406 5.6758 0 0-14.543 14.914-29.227 34.059-14.68 19.148-31.68 40.273-31.68 66.98 0 13.559 3.6094 26.332 9.9609 37.355h-70.059c6.3516-11.023 9.9961-23.797 9.9961-37.355 0-26.711-16.887-47.836-31.57-66.98-14.68-19.148-29.336-34.059-29.336-34.059h0.011719c-3.5312-3.6289-8.3789-5.6758-13.441-5.6758zm0 47.461c4.9141 5.5117 6.5586 6.6836 13 15.09 13.109 17.098 23.805 39.848 23.805 44.168 0 21.004-16.352 37.355-36.805 37.355s-36.805-16.352-36.805-37.355c0-4.3164 10.805-27.07 23.914-44.168 6.4258-8.3828 7.9805-9.582 12.891-15.09zm198.75 0c4.9102 5.5078 6.4648 6.7031 12.891 15.09 13.109 17.098 23.949 39.848 23.949 44.168 0 21.004-16.391 37.355-36.844 37.355s-36.805-16.352-36.805-37.355c0-4.3164 10.844-27.07 23.949-44.168 6.4258-8.3828 7.9453-9.582 12.855-15.09zm198.64 0c4.9141 5.5117 6.5586 6.6836 13 15.09 13.109 17.098 23.805 39.848 23.805 44.168 0 21.004-16.352 37.355-36.805 37.355s-36.805-16.352-36.805-37.355c0-4.3164 10.805-27.07 23.914-44.168 6.4258-8.3828 7.9805-9.582 12.891-15.09z" fill-rule="evenodd"/>
</svg>
