<?xml version="1.0" encoding="UTF-8"?>
<svg id="Layer_1" data-name="Layer 1" xmlns="http://www.w3.org/2000/svg" viewBox="0 0 941.189 1025.157">
  <defs>
    <style>
      .cls-1 {
        fill-rule: evenodd;
      }
    </style>
  </defs>
  <path d="M466.212,809.724c-16.031,0-30.516,9.656-36.609,24.469-6.141,14.812-2.766,31.875,8.578,43.219s28.359,14.719,43.172,8.578,24.469-20.578,24.469-36.609c0-21.891-17.719-39.609-39.609-39.656h-.001ZM466.212,860.865v.047c-4.688,0-8.859-2.812-10.641-7.125s-.797-9.234,2.484-12.562c3.281-3.281,8.25-4.266,12.562-2.484s7.078,6,7.078,10.641c0,6.375-5.156,11.484-11.484,11.531v-.047Z"/>
  <path d="M466.212,906.984c-16.031.047-30.516,9.703-36.609,24.516-6.141,14.812-2.766,31.828,8.578,43.172s28.359,14.719,43.172,8.578,24.469-20.578,24.469-36.609c0-21.891-17.719-39.609-39.609-39.656h-.001ZM466.212,958.126v.047c-4.688,0-8.859-2.812-10.641-7.125s-.797-9.234,2.484-12.562c3.281-3.281,8.25-4.266,12.562-2.484s7.078,6,7.078,10.641c0,6.375-5.156,11.531-11.484,11.531v-.047Z"/>
  <path d="M620.052,809.724c-16.031,0-30.469,9.656-36.609,24.469s-2.766,31.875,8.578,43.219,28.406,14.719,43.219,8.578,24.469-20.578,24.469-36.609c-.047-21.891-17.766-39.609-39.656-39.656h-.001ZM620.052,860.865v.047c-4.641,0-8.859-2.812-10.641-7.125s-.797-9.234,2.484-12.562c3.328-3.281,8.25-4.266,12.562-2.484s7.125,6,7.125,10.641c0,6.375-5.156,11.484-11.531,11.531v-.047Z"/>
  <path d="M620.052,906.984c-16.031.047-30.469,9.703-36.609,24.516-6.14,14.813-2.766,31.828,8.578,43.172s28.406,14.719,43.219,8.578,24.469-20.578,24.469-36.609c-.047-21.891-17.766-39.609-39.656-39.656h-.001ZM620.052,958.126v.047c-4.641,0-8.859-2.812-10.641-7.125s-.797-9.234,2.484-12.562c3.328-3.281,8.25-4.266,12.562-2.484s7.125,6,7.125,10.641c0,6.375-5.156,11.531-11.531,11.531v-.047Z"/>
  <path d="M823.242,749.064c-30.234-22.922-63.938-40.875-99.797-53.203v-69.562c0-4.688-2.344-9.094-6.281-11.719-3.938-2.578-8.859-3.047-13.219-1.266l-24.047,10.078c20.016-22.5,35.531-48.609,45.75-76.922h2.109c26.156.047,49.734-15.797,59.672-40.031,9.891-24.234,4.125-52.031-14.578-70.359.375-.844.609-1.734.797-2.672,5.625-29.812,8.109-60.141,7.406-90.469v-51.797c0-2.953-.938-5.859-2.672-8.203,51.656-25.406,78.984-83.016,65.953-139.08s-62.953-95.719-120.52-95.719c-14.906,0-35.766,6.469-48.141,10.875C645.909,23.157,597.206.985,545.275.047c-.328,0-.609-.047-.938-.047h-2.484c-.328,0-.656,0-.938.047-51.891.938-100.59,23.109-130.4,58.969-12.375-4.406-33.188-10.875-48.141-10.875h.047c-57.562,0-107.53,39.656-120.56,95.719s14.344,113.67,66,139.08c-1.734,2.344-2.672,5.25-2.672,8.203v51.797c-.703,30.328,1.734,60.656,7.406,90.469.141.938.422,1.828.797,2.672-18.75,18.328-24.469,46.125-14.578,70.359s33.516,40.078,59.672,40.031h2.109c10.172,28.312,25.688,54.422,45.703,76.922l-24.047-10.078c-4.359-1.781-9.281-1.312-13.219,1.266-3.938,2.625-6.281,7.031-6.281,11.719v69.562c-35.859,12.328-69.562,30.281-99.75,53.203-77.156,59.625-117.94,150.24-117.94,262.03h-.047c0,7.781,6.328,14.062,14.062,14.062h768.05c7.781,0,14.062-6.281,14.062-14.062,0-111.8-40.781-202.4-117.94-262.03h-.006ZM695.322,647.444v55.453l-103.92,43.547-.047-55.453,103.967-43.547ZM725.322,416.765v-.047c-20.719,0-37.5-16.781-37.5-37.5v-27.422c21.938,3.844,43.641,8.766,65.109,14.766-.656,16.781-2.297,33.562-4.922,50.156l-22.687.047ZM543.112,311.485c-70.781-.422-141.28,8.25-209.86,25.781v-35.297c68.672-16.688,139.18-24.984,209.86-24.656,70.688-.328,141.14,7.969,209.81,24.656v35.344c-68.531-17.578-139.08-26.25-209.81-25.828ZM733.332,517.874h-.047c2.016-10.734,3-21.656,3.047-32.578,0-1.078-.141-2.156-.375-3.234l.141-35.391v.047c16.922,3.984,28.594,19.359,27.938,36.75-.703,17.344-13.594,31.781-30.75,34.406h.046ZM266.782,171.894c.047-52.781,42.797-95.578,95.625-95.625,13.406,0,39,9.094,47.719,12.609h-.047c6.047,2.438,13.031.375,16.781-4.969,24-34.125,68.438-55.406,116.25-55.781,47.812.375,92.25,21.656,116.25,55.781,3.75,5.344,10.688,7.406,16.734,4.969,8.109-3.281,34.312-12.609,47.719-12.609,52.172-.047,94.734,41.766,95.578,93.938.891,52.172-40.219,95.391-92.391,97.125-26.062-5.344-53.156-9.562-80.906-12.562,28.828-25.359,45.422-61.781,45.656-100.12h-28.125c0,41.203-24.562,77.25-60.844,96.375-19.734-1.219-39.656-1.828-59.672-1.828s-39.938.609-59.672,1.828c-36.328-19.125-60.844-55.172-60.844-96.375h-28.172c.234,38.344,16.828,74.812,45.609,100.17-27.75,3-54.797,7.172-80.906,12.562l.047-.047c-51.469-1.734-92.344-43.922-92.391-95.438l.002-.003ZM322.141,482.024c0-16.828,11.578-31.453,27.984-35.297l.141,35.344c-.281,1.078-.375,2.156-.375,3.234,0,10.922,1.031,21.844,3,32.578-17.672-2.766-30.703-17.953-30.75-35.859h0ZM338.172,416.774c-2.625-16.641-4.266-33.375-4.875-50.156,21.422-6.047,43.172-10.969,65.156-14.812v27.469c-.047,20.672-16.828,37.453-37.5,37.5h-22.781ZM378.016,487.93c.281-1.078.375-2.156.375-3.234l-.188-42.188c28.5-7.828,48.281-33.703,48.328-63.234v-31.875c77.391-10.359,155.76-10.359,233.16,0v31.875c.047,29.531,19.828,55.406,48.281,63.234l-.188,42.188h.047c0,1.078.094,2.156.328,3.188-1.547,90.047-81.328,159.66-135.79,180.28-9.656-.422-19.359-.703-29.25-.703s-19.5.281-29.062.703c-54.75-20.578-134.48-90.188-136.03-180.24l-.012.007ZM563.227,695.91v57.562l-40.312.094.047-57.656c6.656-.188,13.359-.328,20.156-.328s13.5.141,20.109.328h0ZM390.917,647.441l103.92,43.5v55.453l-103.92-43.5v-55.453ZM378.355,767.861v229.22h-204.94c4.547-133.78,74.625-229.08,195.24-273.42v-.047c.844.656,1.781,1.172,2.766,1.594l68.062,28.453-47.062.094h-.047c-7.734.047-14.016,6.328-14.016,14.109l-.003-.003ZM406.48,997.081v-215.21l168.05-.281v-.281c2.766.609,5.625.328,8.203-.797l132.05-55.312h.047c.984-.422,1.875-.938,2.766-1.594,120.61,44.344,190.69,139.69,195.24,273.47l-506.356.005Z"/>
  <path d="M485.272,447.334c0,27.75-41.578,27.75-41.578,0s41.578-27.703,41.578,0"/>
  <path d="M642.552,447.334c0,27.75-41.625,27.75-41.625,0s41.625-27.703,41.625,0"/>
  <path d="M543.132,599.914c24.188,0,47.484-12.422,63.891-34.078l-22.406-16.969c-11.203,14.812-25.922,22.922-41.484,22.922s-30.281-8.156-41.484-22.922l-22.406,16.969c16.359,21.656,39.656,34.078,63.891,34.078h-.002Z"/>
  <path class="cls-1" d="M66.885,421.724c-2.563,0-5.138.955-7.098,2.915-3.92,3.932-3.92,10.315,0,14.234,0,0,20.717,20.692,37.579,37.566,7.84,7.84,7.827,20.566,0,28.418l-51.787-51.776c-3.92-3.92-10.302-3.92-14.222,0-3.92,3.932-3.92,10.302,0,14.222l51.776,51.763c-7.852,7.84-20.566,7.865-28.405.025l-37.579-37.579c-3.92-3.92-10.29-3.92-14.209,0-3.92,3.932-3.92,10.302,0,14.222l37.566,37.566c13.016,13.016,32.728,15.227,48.045,6.659l16.182,19.762-90.543,73.395c-.264.226-.515.465-.766.716-18.946,18.946-10.453,46.384,0,56.85,10.465,10.453,37.904,18.946,56.85,0,.251-.251.49-.503.716-.766l69.828-86.134,70.618,86.147c.214.251.44.515.678.754,18.833,18.845,46.247,10.327,56.7-.151,10.478-10.453,18.996-37.855.151-56.7-.239-.239-.503-.465-.754-.678l-90.846-74.451,12.249-15.114c4.334,1.018,8.958,1.42,13.795,1.194,16.911-.791,36.585-9.586,52.693-25.692,16.106-16.106,24.901-35.781,25.692-52.693.628-12.928-3.279-24.398-11.47-32.615-8.216-8.191-19.687-12.099-32.615-11.47-16.898.791-36.585,9.586-52.693,25.692-16.106,16.106-24.901,35.781-25.692,52.693-.226,4.837.176,9.448,1.194,13.782l-18.669,15.139-23.607-19.348c8.556-15.302,6.357-35.028-6.659-48.045-16.86-16.873-37.579-37.566-37.579-37.566-1.96-1.96-4.535-2.94-7.111-2.94l-.007.007ZM241.19,442.353c5.842.138,11.094,1.847,14.9,5.654,4.347,4.347,5.943,10.579,5.616,17.438-.603,12.727-7.701,27.301-19.838,39.437-12.111,12.124-26.697,19.21-39.426,19.813-6.86.339-13.091-1.256-17.438-5.603s-5.943-10.603-5.603-17.463c.603-12.714,7.689-27.287,19.813-39.399,12.136-12.136,26.685-19.235,39.426-19.838.854-.038,1.721-.063,2.55-.038h0ZM105.126,525.523l20.767,17.024-5.541,4.498-16.559-20.189,1.332-1.332ZM170.105,532.584c.239.226.452.477.691.716.226.239.49.44.716.666l-38.531,47.525-.013.025v.013l-77.241,95.244c-9.486,9.046-22.928,4.862-28.091-.314-5.164-5.151-9.385-18.594-.377-28.04.038-.05,130.132-105.531,142.847-115.836h-.002ZM164.69,574.309l90.358,74.049c8.995,9.397,4.711,22.815-.452,27.965-5.151,5.164-18.531,9.435-27.904.49-.05-.038-63.896-77.93-72.958-88.975l10.956-13.529Z"/>
</svg>