<?xml version="1.0" encoding="UTF-8"?>
<svg id="Layer_1" xmlns="http://www.w3.org/2000/svg" version="1.1" viewBox="0 0 749.1 1039.3">
  <!-- Generator: Adobe Illustrator 29.2.1, SVG Export Plug-In . SVG Version: 2.1.0 Build 116)  -->
  <defs>
    <style>
      .st0 {
        fill: #008c01;
      }
    </style>
  </defs>
  <g id="Layer_4">
    <polygon class="st0" points="545.6 17.7 500 17.7 440.6 47.6 414.8 117.7 395.6 137.6 358.5 168.8 353.9 226.6 394.4 274.7 537.1 278.9 668.8 278.9 734.8 217.5 720.6 130.8 670.4 106.9 638.4 90.3 597.8 27.8 545.6 17.7"/>
    <path d="M642.7,335.3h-170.1c-26.2,0-47.6-21.3-47.6-47.6s21.3-47.6,47.6-47.6,40.5,14.6,46,35.4c1.8,6.9-2.3,13.9-9.2,15.8-6.9,1.8-13.9-2.3-15.8-9.2-2.5-9.5-11.2-16.2-21.1-16.2s-21.8,9.8-21.8,21.8,9.8,21.8,21.8,21.8h170.1c7.1,0,12.9,5.8,12.9,12.9s-5.8,12.9-12.9,12.9h0Z"/>
    <path d="M408.1,404.6c-26.2,0-47.6-21.3-47.6-47.6s21.3-47.6,47.6-47.6h64.5c7.1,0,12.9,5.8,12.9,12.9s-5.8,12.9-12.9,12.9h-64.5c-12,0-21.8,9.8-21.8,21.8s9.8,21.8,21.8,21.8,18.5-6.7,21.1-16.2c1.8-6.9,8.9-11,15.8-9.2,6.9,1.8,11,8.9,9.2,15.8-5.5,20.8-24.4,35.4-46,35.4h0Z"/>
    <path d="M648.3,291.8h-98.3c-7.1,0-12.9-5.8-12.9-12.9s5.8-12.9,12.9-12.9h98.3c41.3,0,75-33.6,75-75s-33.6-75-75-75-23.2,2.7-33.7,8c-6.4,3.2-14.1.6-17.3-5.7-3.2-6.4-.6-14.1,5.7-17.3,14.1-7.1,29.4-10.7,45.3-10.7,55.5,0,100.7,45.2,100.7,100.7s-45.2,100.7-100.7,100.7h0s0,0,0,0Z"/>
    <path d="M390.9,285.5c-33.1-13.4-54.5-45.1-54.5-80.8s39-87,87-87,23.3,2.3,34.1,6.9c6.6,2.8,9.6,10.4,6.8,16.9-2.8,6.6-10.4,9.6-16.9,6.8-7.6-3.2-15.6-4.9-24-4.9-33.8,0-61.3,27.5-61.3,61.3s15.1,47.4,38.4,56.8c6.6,2.7,9.8,10.2,7.1,16.8-2.7,6.6-10.2,9.8-16.8,7.1h0Z"/>
    <path d="M407.3,145.2c-7.2,0-13-5.9-12.9-13.1C395.3,58.9,454.9,0,528.2,0s114.1,41.1,129.5,100c1.8,6.9-2.3,13.9-9.2,15.7-6.9,1.8-13.9-2.3-15.7-9.2-12.4-47.5-55.4-80.7-104.5-80.7s-107.3,47.5-108,106.7c0,7.1-5.8,12.7-12.9,12.7h0Z"/>
    <path d="M513.3,347.3c-4.7,0-8.6,3.8-8.6,8.6v18.8l-12.1-12.1c-3.3-3.3-8.8-3.3-12.1,0s-3.3,8.8,0,12.1l12,12h-18.6c-4.7,0-8.6,3.8-8.6,8.6s3.8,8.6,8.6,8.6h20.5l-13.8,13.8c-3.3,3.3-3.3,8.8,0,12.1s8.8,3.3,12.1,0l12-12v16.9c0,4.7,3.8,8.6,8.6,8.6s8.6-3.8,8.6-8.6v-18.6l14.4,14.4c3.3,3.3,8.8,3.3,12.1,0,3.3-3.3,3.3-8.8,0-12.1l-14.5-14.5h18.8c4.7,0,8.6-3.8,8.6-8.6s-3.8-8.6-8.6-8.6h-16.9l12.7-12.7c3.3-3.3,3.3-8.8,0-12.1-3.3-3.3-8.8-3.3-12.1,0l-14.5,14.5v-20.5c0-4.7-3.8-8.6-8.6-8.6h0Z"/>
  </g>
  <g id="Layer_11" data-name="Layer_1">
    <path d="M282,732.1V109.4C282,49.4,232.8.1,172.8.1S63.6,49.4,63.6,109.4v622.8C22.8,765.8,0,813.8,0,866.5c0,96,78,172.8,172.8,172.8s172.8-78,172.8-172.8c1.3-52.8-22.7-102-63.5-134.4h0ZM172.9,1011.8c-80.4,0-145.2-64.8-145.2-145.2s21.6-88.8,58.8-116.4l6-4.8V109.4c0-45.6,37.3-81.6,81.7-81.6s81.6,36,81.6,81.6v637.2l6,4.8c37.2,27.6,58.8,70.8,58.8,116.4-1.2,79.2-67.2,144-147.6,144h0Z"/>
    <circle class="st0" cx="172.8" cy="870.1" r="126.4"/>
    <rect class="st0" x="125.6" y="467" width="94.1" height="342.1"/>
    <path d="M73.1,149h104.7c2.1,0,4.1-1.2,4.1-2.4v-8.4c0-1.2-2.1-2.4-4.1-2.4h-104.7c-2.1,0-4.1,1.2-4.1,2.4v8.4s2.1,2.4,4.1,2.4Z"/>
    <path d="M73.1,215h104.7c2.1,0,4.1-1.2,4.1-2.4v-8.4c0-1.2-2.1-2.4-4.1-2.4h-104.7c-2.1,0-4.1,1.2-4.1,2.4v8.4c0,1.2,2.1,2.4,4.1,2.4Z"/>
    <path d="M73.1,281h104.7c2.1,0,4.1-1.2,4.1-2.4v-8.4c0-1.2-2.1-2.4-4.1-2.4h-104.7c-2.1,0-4.1,1.2-4.1,2.4v8.4c0,1.2,2.1,2.4,4.1,2.4Z"/>
    <path d="M73.1,348.1h104.7c2.1,0,4.1-1.2,4.1-2.4v-8.4c0-1.2-2.1-2.4-4.1-2.4h-104.7c-2.1,0-4.1,1.2-4.1,2.4v8.4c0,1.2,2.1,2.4,4.1,2.4Z"/>
    <path d="M73.1,414.1h104.7c2.1,0,4.1-1.2,4.1-2.4v-8.4c0-1.2-2.1-2.4-4.1-2.4h-104.7c-2.1,0-4.1,1.2-4.1,2.4v8.4c0,1.2,2.1,2.4,4.1,2.4Z"/>
    <path d="M73.1,480.1h104.7c2.1,0,4.1-1.2,4.1-2.4v-8.4c0-1.2-2.1-2.4-4.1-2.4h-104.7c-2.1,0-4.1,1.2-4.1,2.4v8.4c0,1.2,2.1,2.4,4.1,2.4Z"/>
    <path d="M73.1,547.4h104.7c2.1,0,4.1-1.2,4.1-2.4v-8.4c0-1.2-2.1-2.4-4.1-2.4h-104.7c-2.1,0-4.1,1.2-4.1,2.4v8.4c0,1.2,2.1,2.4,4.1,2.4Z"/>
    <path d="M73.1,613.4h104.7c2.1,0,4.1-1.2,4.1-2.4v-8.4c0-1.2-2.1-2.4-4.1-2.4h-104.7c-2.1,0-4.1,1.2-4.1,2.4v8.4c0,1.2,2.1,2.4,4.1,2.4Z"/>
    <path d="M183.9,677v-8.4c0-1.2-2.1-2.4-4.1-2.4h-104.7c-2.1,0-4.1,1.2-4.1,2.4v8.4c0,1.2,2.1,2.4,4.1,2.4h104.7s4.1,0,4.1-2.4Z"/>
  </g>
</svg>