<?xml version="1.0" encoding="UTF-8"?>
<svg id="Layer_1" xmlns="http://www.w3.org/2000/svg" version="1.1" viewBox="0 0 1117.6 793.3">
  <!-- Generator: Adobe Illustrator 29.2.1, SVG Export Plug-In . SVG Version: 2.1.0 Build 116)  -->
  <path d="M183.8,172.1c-32.9,9.5-62.1,25.9-76.7,57.5-8.3,18.1-14.1,38.3-17.3,60.7-4.9,34.8-7.3,63.9-6.9,87.2.4,35.4.7,56.8.8,64,.2,19.5-.8,36.6-3,51.1-.2,1.6-.2,3.2.1,4.7,2.8,12.1,3.8,26,3,41.5-1.7,36.6-20,65.5-54,80.2-17.7,7.7-32.9.3-29.3-20.8,4.5-26.2,10.1-50.6,25.3-71.6,7-9.6,15.2-19,24.6-28.1,2.1-1.9,3.3-4.3,3.8-7.1,6.2-36.5,2.7-80.9,2.7-112.4,0-35,2.8-69.2,8.5-102.4,2.2-12.9,6.1-27.2,11.5-42.9,12.4-35.4,35.3-60.2,68.6-74.4,24.9-10.7,55.2-18.8,90.8-24.3.7,0,1.4-.4,2.1-.6,27-11.6,54.5-19.1,82.5-22.5,35.7-4.3,72.6-5.5,110.7-3.4,53.6,2.8,94.5,5.8,122.7,8.9,3.5.4,30.8,3.4,81.7,9.1,14.1,1.5,28.4,2.3,42.7,2.3,28.3,0,56.9-2.7,82.5-16,.9-.4.9-1,.4-1.7-17.7-21-27.4-51.9-30-79-3.5-35,21.7-29.8,44.2-23.9,24.4,6.3,45.4,18.2,63.2,35.5.7.7,1.5.7,2.2,0C883.9,9.5,944.5,0,998,0c20.3,0,21.2,22.1,4.1,28.8-22.3,8.7-42.1,21.3-59.4,37.9-.8.8-.7,1.4.3,1.9,27.3,14.6,51.6,33.3,72.8,56.2,16.7,18,33.3,38.3,49.7,60.8.4.5.9.8,1.5.8,50.2-.2,65.6,63.7,34.2,95.2-9.3,9.3-21,15.5-35.1,18.5-41.8,8.8-83.4,3-123.6,12-47,10.5-68.6,48.2-86.4,89.3-13,30-20.7,48-32.9,70.9-25.3,47.4-62.8,80.2-112.5,98.6-1,.4-1.7,1-2.1,2-.9,2.7-1.6,5.6-2,8.8-4.7,40.4-11,80.9-18.8,121.5-1.3,6.4-.7,11.6,3.6,17.2,7.5,10.2,14.3,23.3,20.5,39.5,2.3,6.1,3.2,10.7,2.9,13.9,0,.8-.2,1.5-.6,2.2-3.4,8.6-9.5,13.1-18.2,13.4-16.7.7-27.9,1.3-33.4,1.8-.7,0-1.2,0-1.8-.1l-6.4-1.6c-.9-.2-1.7-.2-2.6.3-5.1,2.8-12.8,4-22.9,3.8-13.5-.4-22.9-.6-28-.9-11.9-.5-20.1-6.6-24.8-18.2-9.4-23.2-16.5-45.1-21.1-65.5-3.8-16.9-6-35.8-6.2-56.6-.7-40.8-1.3-80-1.8-117.6,0-.9-.4-1.3-1.3-1.1-46.4,8.3-92.4,8.5-137.9.6-.8-.1-1.5.1-1.9.7-10.4,12.8-25,22.2-39.8,30.9-1.3.7-1.5,1.7-.9,3,1.5,3,3,7.4,4.3,13.1,2.2,9.7-6.2,18.7-15.9,14.1-6.1-2.9-8.2-11.1-9.7-17.2-.3-1.5-1.2-1.9-2.5-1.4-9.7,3.6-19.6,6-29.6,7.3-1.2,0-1.8.8-1.5,2.1,1,6.6,2.5,12,.2,16.9-4.5,9.2-16.5,9-20.8-.3-1.7-3.8-2.7-8.9-3-15.2,0-1-.6-1.6-1.6-1.7l-22.5-2.2c-.7,0-1.2.3-1.4.9-7.2,27.5-15.5,64.8-24.7,111.8-.9,4.7-.5,8.6,1.4,11.5,2.7,4.3,6.8,10.3,12.1,18.1,6.6,9.7,11.8,20.5,15.6,32.7,6.6,21.5-5,35.1-27.2,32.4-12.1-1.5-22.8-3.6-32.1-6.2-1.3-.4-2.4-.3-3.6.4-19.8,10.8-43.6,5.4-65.5.6-6.2-1.4-10.5-4.5-12.7-9.3-.3-.6-.5-1.2-.6-1.7-2.3-12.4-4.7-24.9-7.3-37.7-2.8-13.9-5.1-35.1-7-63.4-5-76.3-8.2-154.1-7-213.6.7-31.6,3.1-66.1,7.1-103.6,3.9-35.2,11.7-69,23.4-101.6,11-30.4,27.9-57.9,50.9-82.6,0-.2,0-.4,0-.6s-.3-.3-.5-.2h0ZM944.9,30.5c.2-.2.3-.5.2-.7-.1-.2-.3-.4-.7-.4-31.8,4.5-62.4,14-88.6,33-.9.8-1.1,1.6-.5,2.6,5.2,7.4,15.1,23.9,11.6,32.8-2.8,7.2-11.8,10-17.5,5.1-1.1-1-2.8-3.7-4.8-7.9-9.5-19.8-21.5-34.5-35.8-44.2-15-10.1-31.6-16.7-49.9-19.7-.9-.1-1.3.2-1.2,1.1,2.2,17.5,7.2,33.9,15.2,49.2,8.3,16.1,20.9,27.6,37.6,34.3,4.8,2,9.8,9,8.5,14.8-1.8,8.2-9.1,11.2-17,9.4-5.9-1.4-15.6-6.7-20.8-10.3-.9-.6-1.8-.6-2.7,0-15.4,10.1-31.7,16.6-49,19.7-23,4.2-47.7,5.8-74,5-1.1,0-1.5.5-1.2,1.5.8,3,2.1,6.6,2.4,9.6,3.6,28.5,1.4,56.3-6.7,83.5-10.7,35.9-31.7,63.2-64.3,79.7-24.5,12.5-54.7,16.6-79.9,4.3-1.7-.8-3.2-.4-4.2,1.1-21.1,30.1-61.8,44.2-96.6,31.8-38.5-13.5-60.1-55.5-48.3-94.9,6.7-22,26.1-43.2,45.9-55.6.9-.6,1.2-1.3.9-2.3-8.1-26.3-6.2-52.4,5.7-78.3.2-.4,0-.7-.4-.7-25.1-.8-50.5.2-76.1,2.8-47.1,4.8-94.4,19-127.2,51.6-18,17.7-32.1,38.5-42.4,62.3-.4,1-.2,1.7.9,2,15.3,5,29.3,13.4,42.1,25.2,19.5,18.1,28.3,39.8,26.4,65.4-2.2,31.1-24.8,63.4-51.4,80-.8.5-1.2,1.2-1.3,2.2,0,1.1,0,4.3.3,9.5,1.5,30.1-23.6,49.5-50.1,55.6-1,.2-1.5.8-1.5,1.8-.2,60.7,3,116.8,6.8,180.1,1.7,30.2,5.9,59.5,12.2,87.9.3.9.8,1.5,1.8,1.7,11.3,2.6,24.9,5.5,36.7,2.4,2.2-.6,3.1-2,2.8-4.2-.6-4.6-2-8.7-4.3-12.3-8.9-13.9-17.9-25.1-18.2-37.8-.2-9.8.2-21.2,1.5-34.3,3.6-36,7.5-69.2,11.4-99.6,2.2-15.6,6.1-27.2,20.9-32.1,34.2-11.1,65.9-25.8,95.3-44.3,21.8-13.8,38.8-31.6,51.1-53.6,0-.1,4.2-7.7,12.4-22.8,1.4-2.5,3.4-4.3,6.2-5.2,2.7-.9,5.4-.8,8.1.4l.3.2c2.7,1.3,4.6,3.2,5.7,6,1.1,2.7,1.1,5.4,0,8.2-8.5,22.1-20.5,42-36.1,59.8-.4.4-.3.7.3.8,67.4,20.5,140.3,27,209.4,11.3,11.5-2.7,21.7-3.2,22.9,10.5,0,.3,0,.7-.1.9l-2.7,7.9c-.2.7-.3,1.5-.3,2.2.5,49.8,1,90.3,1.4,121.5.3,26.9,4.5,53.3,12.4,79.2,3.4,10.9,7.8,23.3,13.1,37.2.7,1.6,1.9,2.4,3.7,2.5h32.3c.7,0,1.3-.3,1.6-.8.4-.7.4-1.2.1-1.8-4.8-10.5-11-21.6-18.3-33.4-11.1-17.7-8.8-29.2-5.1-53.2,2.5-16.9,6.2-44.2,10.9-81.8,2.3-19.3,3.5-32.6,23.4-36.3,14.2-2.6,23.6-4.5,28.3-5.7,30.8-7.4,62.9-21.8,85.3-43.9.4-.4.4-.8,0-1.1-46.4-44.2-42.9-118,14.9-150.8,18.5-10.5,38.2-12.9,59.2-7.3,3.8,1.1,8.9,4,12,4.9.9.2,1.5,0,1.9-.8,1-1.8,4.6-7.3,10.8-16.5,17.4-25.8,41.2-42.6,71.1-50.5,41.5-11.1,89.1-4.9,128.7-13.3,21.8-4.7,35.2-21.4,29.9-44.1-4.1-17.8-25.5-27.4-38.8-11.8-3.5,4.1-6.4,12.3-11.7,15.4-4.8,2.7-12.1,1.5-14.9-3.5-3.8-6.3-1.4-12.4,2.2-18.4,3.5-5.9,7.5-10.9,12-15.2.8-.8.8-1.6.2-2.5-15.6-21.2-33.1-42-52.6-62.6-15.6-16.4-38.2-34.5-59.4-43.4-1.5-.7-2.8-.3-3.7,1.2-6.7,11.6-10.1,17.6-10.4,18.1-4.5,8.2-14.4,12.6-21.7,4.7-7.9-8.5.3-20,4.9-28,12-21,27.9-38.9,48-53.9h0ZM437.5,136.3c-2.2,1.5-4,3.8-5.5,6.9-6.8,14.3-9.4,29.3-7.8,45.4.6,6.8,2.6,12.8,4.8,19.2,6.5,18.1-4.3,23.2-18.4,33.9-15.7,11.8-30.7,30.6-30.7,51.1s15.2,42.8,37.5,49.6c21.3,6.4,44.4-2.6,59.5-18.8,6.3-6.7,8.8-15.7,16.1-19.3,5.5-2.8,11.1-2.4,16.8,1,10.7,6.5,21,9.5,31.2,9,35.8-1.5,67.2-27.4,80.1-60.7,9.4-24.1,13.5-52.1,11-77.7-.8-7.7-3-15.6-6.9-23.3-.2-.5-.6-.8-1.2-.9-60.1-7.9-120.9-13.5-182.3-16.6-1.6,0-3,.3-4.2,1.2h0ZM130,463.7c10.4-3.8,22.1-10.8,24.4-22.5,2.8-14.1-7.7-27.2,8.6-37,20.4-12.2,34.4-29.2,42-51,2.5-7.1,3.1-15.6,1.9-25.5-3.2-25.4-28.6-45.2-51.1-52.8-.8-.3-1.3,0-1.6.8-8.4,25.3-14.2,51.9-17.6,79.9-4.3,35.8-6.8,71.5-7.6,107.2,0,.9.4,1.1,1.2.9h0ZM838,377.1c-10.9-5.3-22.1-6.4-33.8-3.3-28.8,7.7-48.2,34.9-47.7,64.2.4,19.9,8,36.8,22.8,50.8,1.2,1.1,2.2,1,3.1-.4,14.1-20.3,25.9-41.7,35.6-64.2,9.1-21.4,15.9-36.8,20.3-46.2.2-.5,0-.8-.4-1h0ZM374.7,527.8l-50-14.9c-1.4-.4-2.7-.2-3.9.7-22.3,16.2-46.4,29.7-72.2,40.4-.3.1-.5.5-.5.8,0,.4.3.6.7.8,47.3,13.9,87.6,1.5,126.1-27.1.1-.1.2-.2.2-.4,0-.1,0-.2-.3-.3h0ZM56.9,526.5c-15.9,17.4-25.5,38.6-28.8,63.4,0,.2,0,.4.2.5.2,0,.4,0,.5,0,22-13.5,30.8-38.6,29.1-63.5,0-.2-.1-.4-.4-.5-.2,0-.4,0-.6,0h0ZM240.1,764c-5-12.6-12-24.8-21.1-36.7-12.3-15.8-9-29.4-5.2-47.5.9-4.3,8.8-38.1,23.8-101.4.2-.9-.1-1.5-1-1.7-7.1-2.2-13.9-5.1-20.1-8.8-1.7-1-4.2-.6-7.5,1.4-.8.5-1.2,1.1-1.4,2-1.3,5.3-1.9,8-1.9,8.1-5,37.2-9.1,74-12.5,110.3-1,12.2-2.3,19.6,3.5,28.1,9.2,13.5,18.3,26.6,18.5,41.7,0,1.2.7,1.9,1.8,2.1l22,3.8c.4,0,.8,0,1-.4.2-.3.3-.7.2-1h0ZM685.3,763c-4.1-10.1-9.3-19.6-15.6-28.3-9.9-13.8-9.5-27-6.3-42.4,7.4-36,13.9-73.2,19.3-111.4,0-.9-.3-1.3-1.2-1.1l-29.5,5.8c-1.1.2-1.7.9-1.9,2.1-4.7,45.1-9,82.3-12.9,111.2-1.5,11.8,6,21.4,12.5,31.9,7,11.4,11.9,22.3,14.9,32.8.1.3.3.5.6.5h19.4c.8,0,1-.3.7-1h0Z"/>
  <path d="M931.8,163.6c-1.9-1.3-3.5-3-4.6-4.9-1.3-2-2-4.2-2.3-6.6-.4-2.3-.3-4.7.4-7.1.6-2.3,1.5-4.5,2.9-6.6,1.5-2,3.1-3.7,5.2-5,2-1.4,4.2-2.3,6.5-2.8,2.3-.5,4.6-.5,6.9,0,2.2.5,4.3,1.4,6.2,2.7,1.9,1.3,3.4,2.9,4.6,4.9,1.3,2,2,4.2,2.3,6.5.4,2.3.2,4.7-.3,7.1-.6,2.3-1.6,4.5-3,6.6-1.5,2-3.1,3.7-5.1,5-2.1,1.4-4.3,2.3-6.6,2.8-2.3.5-4.6.5-6.9,0-2.3-.4-4.4-1.3-6.2-2.6h0Z"/>
</svg>