<?xml version="1.0" encoding="UTF-8"?>
<svg id="Layer_1" data-name="Layer 1" xmlns="http://www.w3.org/2000/svg" viewBox="0 0 567.601 959.879">
  <path d="M424.679,239.64c0-9.602-2.879-18.48-7.559-26.039,4.801-7.801,7.559-16.801,7.559-26.281,0-27.602-22.441-50.039-50.039-50.039s-49.801,22.441-49.801,50.039c0,9.48,2.641,18.602,7.441,26.281-4.68,7.559-7.559,16.441-7.559,26.039,0,27.602,22.441,49.922,49.922,49.922,27.598.117,50.035-22.324,50.035-49.922h0ZM374.64,157.078c16.68,0,30.238,13.559,30.238,30.238,0,3.84-.84,7.559-2.16,11.039-8.039-5.398-17.641-8.641-28.078-8.641s-20.039,3.238-28.078,8.641c-1.32-3.48-2.039-7.199-2.039-11.039-.004-16.555,13.438-30.238,30.117-30.238h0ZM374.64,269.878c-16.68,0-30.238-13.559-30.238-30.238s13.559-30.238,30.238-30.238,30.238,13.559,30.238,30.238-13.559,30.238-30.238,30.238Z"/>
  <path d="M512.399,0H55.199C24.719,0,0,24.719,0,55.199v86.52c0,30.48,24.84,55.199,55.199,55.199h38.879v368.4c0,27.48,22.32,49.922,49.68,49.922h66.719c-.48,2.039-1.32,3.961-1.801,5.879-4.922,22.32-3,45.719,5.398,67.68l67.922,175.08h-36c-5.398,0-9.84,4.441-9.84,9.84v76.32c0,5.398,4.441,9.84,9.84,9.84h253.44c5.398,0,9.84-4.441,9.84-9.84v-76.32c0-5.398-4.441-9.84-9.84-9.84h-36l67.199-173.52c11.281-28.922,10.922-60.719-1.199-89.52l-56.035-133.44V197.039h39c30.48,0,55.199-24.84,55.199-55.199V55.199c.121-30.48-24.723-55.199-55.199-55.199h-.002ZM162.359,595.56h-18.48c-16.559,0-30-13.559-30-30.121V138.479c0-16.559,13.441-30.121,30-30.121h18.48v487.202ZM208.32,595.56h-26.281V108.36h26.281v487.2ZM489.72,883.68v56.641h-233.76v-56.641h40.32c.121,0,.238.121.359.121,33.602,0,52.68-.121,70.32-.121h122.761ZM511.318,608.52c10.078,24,10.559,50.52,1.078,74.762l-70.078,180.72h-139.082l-70.68-182.16c-6.961-18.238-8.519-37.801-4.441-56.52,1.078-5.398,2.641-10.68,4.68-15.719.121-.121.121-.238.121-.48l65.281-166.44c1.801-4.441,7.32-15.121,18.961-19.922,17.52-7.441,40.32,4.199,47.281,18.719,5.039,10.32,1.68,22.078.121,27.961-7.801,27.121-17.52,64.441-31.441,121.2-2.398,9.359-4.801,19.199-7.199,29.281l-3.602,15c-1.32,5.281,1.922,10.68,7.199,11.879,5.281,1.32,10.68-1.922,11.879-7.199l3.719-15c.719-3.121,1.441-6,2.281-9.121h76.32c27.359,0,49.68-22.32,49.68-49.922v-47.16l37.922,90.122ZM382.198,432.84c-11.039-23.039-44.52-40.078-72.602-28.441-18.359,7.559-26.762,23.879-29.641,30.719l-51.961,132.36.004-459.12h195.6c16.559,0,30,13.559,30,30.121v426.96c0,16.559-13.441,30.121-30,30.121l-71.402-.004q0-.121.121-.238c13.922-56.52,23.52-93.719,31.441-120.84,1.801-6.719,6.84-24.602-1.562-41.641l.003.003ZM547.918,141.72c0,19.559-15.961,35.52-35.52,35.52h-39v-38.762c0-27.48-22.32-49.922-49.68-49.922l-205.56.004h-74.402c-27.359,0-49.68,22.32-49.68,49.922v38.762h-38.879c-19.559,0-35.52-15.961-35.52-35.52V55.201c0-19.559,15.961-35.52,35.52-35.52h457.32c19.559,0,35.52,15.961,35.52,35.52v86.52h-.119Z"/>
</svg>