<?xml version="1.0" encoding="UTF-8"?>
<svg width="1200pt" height="1200pt" version="1.1" viewBox="0 0 1200 1200" xmlns="http://www.w3.org/2000/svg">
 <path d="m698.26 1068c-72.375 15-147.24 13.125-218.76-5.4844-2.5312-0.46875-4.7812-1.9688-6.1875-4.1719s-1.8281-4.875-1.1719-7.4062c0.60938-2.4844 2.2969-4.6406 4.5469-5.8594 2.2969-1.2656 4.9688-1.5 7.4531-0.70312 68.766 17.719 140.72 19.406 210.24 5.0156 5.1094-1.0781 10.078 2.1562 11.156 7.2188 1.0312 5.1094-2.2031 10.078-7.2656 11.156zm-512.48-240c1.5 0 3-0.375 4.3594-1.125 4.5-2.3906 6.2812-7.9219 3.9844-12.516-66.234-124.92-71.203-273.42-13.5-402.56 57.703-129.1 171.66-224.44 308.9-258.47 137.29-34.031 282.56-2.9062 393.89 84.328 111.28 87.281 176.21 220.92 175.97 362.34 0.09375 69.891-15.938 138.84-46.875 201.52-2.2969 4.6406-0.32812 10.266 4.3125 12.562 4.6406 2.25 10.266 0.32812 12.562-4.3125 32.156-65.25 48.844-137.02 48.75-209.76-0.046875-147-67.688-285.84-183.47-376.4-115.78-90.609-266.81-122.9-409.5-87.609-142.74 35.344-261.24 134.34-321.42 268.45-60.141 134.16-55.266 288.52 13.266 418.55 1.5938 3.1406 4.7812 5.0625 8.25 5.0156zm580.6-53.016c0.5625 3.2812-0.75 6.6094-3.375 8.625-1.6406 1.3594-3.75 2.0625-5.8594 2.0156-1.125 0.23438-2.25 0.23438-3.375 0-49.172-18.328-101.3-27.562-153.74-27.234-52.453-0.42188-104.53 8.6719-153.74 26.859-3.0938 1.2188-6.5625 0.65625-9.1406-1.4062s-3.8438-5.3438-3.375-8.5781c11.625-82.969 82.594-144.71 166.4-144.71 83.766 0 154.74 61.734 166.36 144.71zm-21.609-12.469c-16.875-66.188-76.453-112.5-144.74-112.5-68.289 0-127.87 46.312-144.74 112.5 94.172-30 195.32-30 289.5 0zm-639 306.24c-0.28125-56.578 39-105.7 94.266-117.89l47.625-10.5c-9.9844-50.016-50.766-282.61 17.859-441.24-7.4531 4.6875-14.578 9.8906-21.375 15.516-1.7344 1.5-3.9375 2.3438-6.2344 2.3438-2.6719 0-5.2031-1.125-7.0312-3.0938-1.6406-1.875-2.4844-4.3125-2.3438-6.7969s1.2656-4.8281 3.0938-6.4688c73.312-57.797 167.02-83.25 259.5-70.5 5.1562 0.60938 8.8125 5.2969 8.2031 10.453-0.60938 5.1094-5.2969 8.8125-10.453 8.1562-14.812-1.7812-29.719-2.625-44.625-2.4844-12.516 60.375-96.234 476.39-34.641 618.74h0.046875c0.98438 2.8125 0.5625 6-1.125 8.4375-1.7344 2.4844-4.5 3.9844-7.5 4.0781h-285.89c-4.9219-0.046874-9-3.8438-9.375-8.7656zm19.266-9.375h262.5c-53.766-155.86 21.984-538.26 37.5-612.52-45.375 3.0469-89.672 15.141-130.26 35.625-90.375 166.87-27.234 460.13-26.484 462.52 1.0781 5.0625-2.1094 10.078-7.125 11.25l-56.625 12.516c-43.594 9.375-75.891 46.172-79.5 90.609zm302.86-760.74c-31.5 129.37-164.63 108.38-170.26 107.39v-0.046875c-5.25-0.89062-10.219 2.625-11.109 7.875s2.625 10.266 7.875 11.156c8.9062 1.1719 17.859 1.7812 26.859 1.7344 46.125 0 138.24-14.25 164.86-123.14 1.2656-5.0156-1.8281-10.125-6.8438-11.344-5.0625-1.2656-10.125 1.8281-11.391 6.8438zm666.37 770.11c-0.046875 5.1562-4.2188 9.3281-9.375 9.375h-286.26c-3-0.046875-5.7656-1.5938-7.5-4.0312-1.6875-2.4844-2.1094-5.625-1.125-8.4844 61.641-142.36-21.984-558.37-34.641-618.74h0.046876c-14.906-0.09375-29.812 0.70312-44.625 2.5312-2.4844 0.28125-4.9688-0.42188-6.9375-1.9688-1.9688-1.5-3.2344-3.75-3.5156-6.2344-0.60937-5.1562 3.0469-9.7969 8.2031-10.453 92.484-12.75 186.19 12.703 259.5 70.5 1.8281 1.6875 2.9531 3.9844 3.0938 6.4688 0.14062 2.4844-0.70313 4.9219-2.3438 6.7969-1.8281 1.9688-4.3594 3.0938-7.0312 3.1406-2.2969 0-4.5-0.84375-6.2344-2.3906-6.8438-5.5781-13.969-10.734-21.375-15.516 68.625 158.76 27.891 391.5 17.859 441.24l47.625 10.5v0.046875c55.172 11.953 94.594 60.75 94.641 117.23zm-19.266-9.375c-3.8438-44.25-36.094-80.812-79.5-90.141l-56.625-12.516v0.046875c-5.0156-1.1719-8.2031-6.1875-7.125-11.25 0.75-2.8594 63.891-296.02-26.484-462.52-40.547-20.672-84.844-32.906-130.26-36 15.516 74.109 91.266 456.52 37.5 612.52zm-302.86-760.74c-1.2656-5.0625-6.3281-8.1562-11.391-6.8906-5.0156 1.2656-8.1094 6.3281-6.8438 11.391 26.625 109.36 118.73 123.1 164.86 123.1 8.9531 0.23438 17.953-0.1875 26.859-1.2188 5.1094-0.89062 8.5312-5.7656 7.6406-10.875s-5.7656-8.5312-10.875-7.6406c-5.625 0.51562-138.74 21.516-170.26-107.86z"/>
</svg>
