<?xml version="1.0" encoding="UTF-8"?>
<svg id="Layer_1" data-name="Layer 1" xmlns="http://www.w3.org/2000/svg" viewBox="0 0 1123.219 1123.217">
  <defs>
    <style>
      .cls-1 {
        fill-rule: evenodd;
      }
    </style>
  </defs>
  <path class="cls-1" d="M0,1094.396V314.676l8.766-20.672L300.006,3.984c4.312-2.531,9.328-3.984,14.672-3.984h779.76c15.891,0,28.781,12.891,28.781,28.781v779.76l-8.766,20.672-291.24,290.02c-4.312,2.531-9.281,3.984-14.625,3.984H28.828c-15.938,0-28.828-12.891-28.828-28.828v.007ZM1024.9,837.376h-187.5v187.5l187.5-187.5ZM57.64,1024.876l228.24-228.24v-453.19H57.64v681.43ZM326.61,837.376l-228.24,228.24h681.42v-228.24h-453.18ZM796.67,285.846l228.24-228.24H343.49v228.24h453.18ZM1065.64,98.346l-228.24,228.24v453.19h228.24V98.346ZM98.38,285.846h187.5V98.346l-187.5,187.5ZM343.49,343.455v436.31h436.31v-436.31h-436.31Z"/>
</svg>