<?xml version="1.0" encoding="UTF-8"?>
<svg id="Layer_1" data-name="Layer 1" xmlns="http://www.w3.org/2000/svg" viewBox="0 0 1090.215 865.672">
  <defs>
    <style>
      .cls-1 {
        fill-rule: evenodd;
      }
    </style>
  </defs>
  <path class="cls-1" d="M177.695,739.933c-.008.242-.02.492-.02.742v102.61c0,12.367,10.031,22.387,22.387,22.387h435.94c12.367,0,22.387-10.02,22.387-22.387v-102.61c0-.25,0-.5-.008-.742,34.164-14.488,65.57-35.5,92.32-62.246,33.797-33.789,58.434-75.027,72.324-119.85h60.027c54.941,0,107.63-21.824,146.49-60.68,38.848-38.848,60.672-91.539,60.672-146.48v-40.898c0-54.941-21.824-107.63-60.672-146.49-38.855-38.848-91.551-60.672-146.49-60.672h-46.969V22.387c0-12.359-10.031-22.387-22.387-22.387H22.387C10.02,0,0,10.031,0,22.387v449.18c0,77.309,30.707,151.45,85.379,206.11,26.742,26.75,58.156,47.758,92.32,62.246l-.004.01ZM613.615,754.773c-22.406,5.461-45.574,8.293-69.027,8.293h-253.11c-23.453,0-46.613-2.828-69.027-8.293v66.125h391.16l.004-66.125ZM791.305,44.773v426.8c0,65.438-25.996,128.18-72.258,174.46-46.273,46.262-109.02,72.258-174.46,72.258h-253.11c-65.426,0-128.18-25.996-174.45-72.258-46.262-46.273-72.258-109.02-72.258-174.46V44.773h746.54-.004ZM836.082,147.393v324.18c0,13.961-1.004,27.824-2.973,41.488h49.941c43.066,0,84.367-17.105,114.82-47.562,30.457-30.457,47.562-71.758,47.562-114.82v-40.898c0-43.066-17.105-84.375-47.562-114.82-30.457-30.457-71.758-47.562-114.82-47.562h-46.969v-.006Z"/>
</svg>