<?xml version="1.0" encoding="UTF-8"?><svg id="Layer_1" xmlns="http://www.w3.org/2000/svg" viewBox="0 0 1199.959 1177.465"><defs><style>.cls-1{fill:none;stroke:red;stroke-miterlimit:10;stroke-width:30px;}</style></defs><path d="M157.508,357.665c-4.688,0-9.375-.75-13.875-2.438-12-4.312-21.188-13.875-24.938-26.062-31.5-101.44-24.188-198.75,17.625-236.62,15.562-14.062,43.312-27,87.188-8.438,2.25.938,5.25.188,6.75-1.688C297.57-6.455,467.638-27.08,594.198,38.358c108.75,56.062,149.62,156.19,112.31,274.5-5.25,16.312-17.625,29.062-34.125,34.5-16.688,5.625-35.062,3-49.5-7.125l-67.125-47.438,7.5,23.25c2.25,7.125.938,14.625-3.75,20.438s-12,9-19.688,8.25c-60.188-5.438-119.81-26.062-177.38-61.688l-.75,29.438c-.188,6.188-3,11.812-8.062,15.562-4.875,3.562-10.875,4.688-16.688,3.188-33.938-9.562-65.438-27.938-96.188-55.875-17.062,35.25-37.5,60.375-62.25,76.312-6.188,3.75-13.5,6-21,6l.006-.005ZM182.633,93.285c-13.125,0-24.562,4.312-33.938,12.938-36.188,32.625-41.25,124.12-12.375,217.5,2.062,6.562,6.938,11.625,13.5,14.062s13.312,1.5,18.938-2.062c24.188-15.75,44.062-42,60.75-80.062,1.125-2.812,3.75-4.875,6.75-5.438s6,.375,8.25,2.438c31.5,30.75,63.562,50.625,97.875,60.375l1.875-34.125c.188-7.5,3.188-13.312,8.438-16.125,4.5-2.438,9.75-2.062,14.062.562,56.812,36.375,115.69,57.375,174.94,62.625,1.875.188,3.188-.938,3.562-1.5.562-.75,1.125-1.688.562-3.188l-12.188-37.875c-3.562-10.688,1.5-15.75,3.75-17.438,3.938-2.812,9.188-2.812,13.312,0l83.25,58.875c9.75,6.75,21.75,8.625,33,4.688,10.875-3.75,18.938-11.812,22.312-22.5,34.312-108.94-3.375-201-103.31-252.56C466.508-6.837,307.138,11.163,244.888,93.475c-6.562,8.812-18.375,11.812-28.688,7.5-12.188-5.062-23.438-7.688-33.562-7.688l-.006-.003Z"/><path d="M407.818,662.545c-130.5,0-236.81-106.12-236.81-236.81v-86.625c0-5.062,4.125-9.188,9.188-9.188s9.188,4.125,9.188,9.188v86.625c0,120.38,97.875,218.25,218.25,218.25s218.25-97.875,218.25-218.25v-89.25c0-5.062,4.125-9.188,9.188-9.188s9.188,4.125,9.188,9.188v89.25c.375,130.5-105.94,236.81-236.44,236.81Z"/><path d="M297.758,439.785c-5.062,0-9.188-4.125-9.188-9.188v-51.938c0-5.062,4.125-9.188,9.188-9.188s9.188,4.125,9.188,9.188v51.938c0,5.062-4.125,9.188-9.188,9.188Z"/><path d="M521.818,439.785c-5.062,0-9.188-4.125-9.188-9.188v-51.938c0-5.062,4.125-9.188,9.188-9.188s9.188,4.125,9.188,9.188v51.938c0,5.062-4.125,9.188-9.188,9.188Z"/><path d="M408.948,535.415c-19.312,0-38.25-8.25-53.25-23.438-3.562-3.562-3.562-9.375,0-13.125,3.562-3.562,9.562-3.562,13.125,0,11.438,11.625,25.688,18,40.125,18h.188c14.438,0,27.938-6.188,39.562-18,3.562-3.75,9.375-3.75,13.125-.188,3.562,3.562,3.75,9.375.188,13.125-15.188,15.562-33.375,23.625-53.062,23.625q.188,0,0,0h0Z"/><path d="M151.508,458.545c-32.25,0-54.188-18.375-62.25-39.75-10.312-27.188-.188-65.438,46.125-84.938,4.688-1.875,10.125.188,12,4.875,2.062,4.688-.188,10.125-4.875,12.188-35.25,14.812-43.5,41.625-36,61.5,7.5,20.062,33.188,35.812,71.812,23.062,4.875-1.688,10.125.938,11.625,5.812,1.688,4.875-.938,10.125-5.812,11.625-11.812,3.938-22.688,5.625-32.625,5.625h0Z"/><path d="M662.068,449.355c-9.375,0-19.312-1.688-29.812-5.438-4.875-1.688-7.312-6.938-5.625-11.812s6.938-7.312,11.812-5.625c35.25,12.562,60.938-3.75,69.938-24,7.875-17.812,5.062-45.188-29.25-63.562-4.5-2.438-6.188-8.062-3.75-12.562s8.062-6.188,12.562-3.75c42.562,22.688,49.5,60.188,37.5,87.375-9.938,22.125-33.188,39.375-63.375,39.375h0Z"/><path d="M806.628,1177.465H9.188c-5.062,0-9.188-4.125-9.188-9.188v-212.81c0-132,79.312-249.38,201.94-298.88,31.312-12.562,64.5-20.25,98.812-22.312,6.75-.75,14.25-.938,21.375-.938h16.312c5.062,0,9.375,4.125,9.375,9.188s-3.938,9.188-9,9.188h-16.688c-6.562,0-13.312.188-19.875.938-32.625,2.062-63.938,9.188-93.562,21.188-115.5,46.5-190.31,157.12-190.31,281.62v203.44h788.25c5.062,0,9.188,4.125,9.188,9.188s-3.938,9.375-9.188,9.375l-.002.004Z"/><path d="M806.448,955.785c-5.062,0-9.188-4.125-9.188-9.188,0-2.438.938-4.875,2.625-6.562,3.562-3.562,9.375-3.562,13.125,0,2.625,2.625,3.562,6.75,2.062,10.125-1.312,3.375-4.875,5.625-8.625,5.625Z"/><path d="M751.128,786.475c-3,0-5.812-1.312-7.688-3.938-33.375-48.562-80.25-86.062-135.38-108.38-.375,0-.75-.188-.938-.375-28.5-11.625-58.125-18.562-88.312-20.812-7.688-.75-15.938-1.312-24.938-1.312h-16.875c-5.062,0-9.562-4.125-9.562-9.188s3.938-9.188,9-9.188h17.438c9.562,0,18.375.375,26.438,1.312,31.5,2.25,62.812,9.562,92.812,21.75.375,0,.75.188.938.375,58.875,23.812,108.94,63.562,144.56,115.5,2.812,4.125,1.875,9.938-2.438,12.75-1.5.938-3.188,1.5-5.062,1.5l.007.005Z"/><path d="M408.008,803.165c-3,0-5.812-1.5-7.5-3.938l-107.06-150.75c-3-4.125-2.062-9.938,2.25-12.938,4.125-2.812,9.938-1.875,12.938,2.25l99.562,140.44,104.06-140.25c3-4.125,8.812-4.875,12.938-1.875s4.875,8.812,1.875,12.938l-111.56,150.38c-1.875,2.438-4.5,3.75-7.5,3.75l-.003-.008Z"/><path d="M296.448,880.225c-.75,0-1.688-.188-2.438-.375-2.625-.75-4.875-2.625-6-5.25l-90.938-205.88c-2.062-4.688,0-10.125,4.688-12.188s10.125,0,12.188,4.688l86.438,195.75,102.38-70.688c3-2.25,7.125-2.25,10.312-.188l107.62,70.875,81.375-195.56c1.875-4.688,7.312-6.938,12-5.062s6.938,7.312,5.062,12l-85.688,205.88c-1.125,2.438-3.188,4.5-5.812,5.25s-5.438.375-7.688-1.125l-111.75-73.5-106.5,73.5c-1.5,1.312-3.375,1.875-5.25,1.875v-.002Z"/><path d="M408.008,969.475c-5.062,0-9.188-4.125-9.188-9.188v-166.31c0-5.062,4.125-9.188,9.188-9.188s9.188,4.125,9.188,9.188v166.31c0,5.062-4.125,9.188-9.188,9.188Z"/><path d="M651.388,1177.465c-5.062,0-9.188-4.125-9.188-9.188v-182.44c0-5.062,4.125-9.188,9.188-9.188s9.188,4.125,9.188,9.188v182.44c0,5.062-4.125,9.188-9.188,9.188Z"/><path d="M172.508,1177.465c-5.062,0-9.188-4.125-9.188-9.188v-182.44c0-5.062,4.125-9.188,9.188-9.188s9.188,4.125,9.188,9.188v182.44c0,5.062-4.125,9.188-9.188,9.188Z"/><path d="M824.068,920.165c-5.062,0-9.188-4.125-9.188-9.188v-.188c0-5.062,4.125-9.188,9.188-9.188s9.188,4.125,9.188,9.188c0,5.25-4.125,9.375-9.188,9.375Z"/><path d="M941.628,980.545h-3.75c-68.625-1.688-127.69-49.5-151.69-122.25-24.938-5.438-42.562-21.75-47.812-44.25-6.375-27.75,6.938-57.75,33.938-76.5,4.125-2.812,9.938-1.875,12.75,2.438,2.812,4.125,1.875,9.938-2.438,12.75-20.438,14.062-31.125,36.938-26.438,57,3.938,16.875,17.812,28.125,38.25,31.125,3.562.562,6.375,3,7.5,6.562,20.438,68.062,73.875,113.06,136.12,114.56,63.188,2.062,115.31-41.438,141.38-114.94,1.125-3.375,4.125-5.625,7.5-6,19.875-2.438,34.125-13.125,38.812-29.062,5.812-19.5-3.562-42.375-24.188-59.812-3.938-3.375-4.312-9.188-1.125-12.938,3.375-3.938,9.188-4.312,12.938-1.125,26.25,22.312,37.875,52.5,30,79.125-6.375,21.375-24.188,36.375-48.562,41.25-28.5,76.875-85.5,122.06-153.19,122.06l.005.007Z"/><path d="M1107.908,754.605h-91.875c-12,0-23.438-2.625-33.188-7.688-22.125-11.25-34.5-26.812-41.625-43.875-9.375,19.125-24.562,34.312-39.375,42.938-9.75,5.625-21.562,8.438-34.875,8.438h-91.312c-14.438,0-26.25-11.812-26.25-26.25v-18.188c0-97.688,79.5-177.19,177.19-177.19h30.562c97.688,0,177.19,79.5,177.19,177.19v18.188c-.188,14.625-12,26.438-26.438,26.438h-.004ZM940.848,655.043c4.5,0,8.438,3.375,9.188,8.062,3.938,30,12.562,52.875,41.062,67.5,7.125,3.75,15.75,5.625,24.75,5.625h91.875c4.312,0,7.688-3.562,7.688-7.688v-18.188c0-87.562-71.25-158.62-158.62-158.62h-30.562c-87.562,0-158.62,71.25-158.62,158.62v18.188c0,4.312,3.562,7.688,7.688,7.688h91.312c10.125,0,18.75-2.062,25.688-6,19.875-11.625,39.75-37.875,39.188-65.625-.188-4.875,3.562-9,8.438-9.375.562-.188.75-.188.938-.188h-.011Z"/><path d="M941.818,1064.765c-38.812,0-70.312-31.5-70.312-70.312v-36.938c0-5.062,4.125-9.188,9.188-9.188s9.188,4.125,9.188,9.188v36.938c0,28.5,23.25,51.75,51.75,51.75,13.875,0,27-5.438,36.75-15.188s15.188-22.688,15.188-36.75v-37.875c0-5.062,4.125-9.188,9.188-9.188s9.188,4.125,9.188,9.188v37.875c0,18.75-7.312,36.562-20.625,49.688-12.938,13.5-30.562,20.812-49.5,20.812h0Z"/><path d="M1117.508,1177.465h-346.5c-9.188,0-16.688-7.5-16.688-16.5v-101.81c0-42.375,30.188-78.188,71.812-85.312,4.5-.938,9.562-1.312,15.188-1.312h39.562c5.062,0,9.188,4.125,9.188,9.188s-4.125,9.188-9.188,9.188h-39.562c-4.312,0-8.25.375-11.812,1.125-33,5.625-56.625,33.938-56.625,67.125v99.75h342.75v-99.75c0-37.688-30.562-68.25-68.25-68.25h-44.438c-5.062,0-9.188-4.125-9.188-9.188s4.125-9.188,9.188-9.188h44.438c47.812,0,86.625,38.812,86.625,86.625v101.81c.188,9.188-7.125,16.5-16.5,16.5h0Z"/><path d="M1175.207,1011.465c-40.312,0-75-15-95.625-41.438-18.938-24.188-24.562-55.125-15.75-86.812,1.312-4.875,6.375-7.688,11.25-6.375s7.875,6.375,6.375,11.438c-7.125,26.062-2.625,51,12.562,70.5,18,22.875,48,35.438,84.562,34.312,1.5,0,2.812-1.5,2.812-3.375v-66.938c0-18.75-3.75-34.688-11.062-47.438-9.938-17.25-24.938-30-45.562-38.812-4.688-2.062-6.938-7.5-4.875-12.188s7.5-6.938,12.188-4.875c24.188,10.312,42.375,25.875,54.188,46.5,9,15.75,13.688,34.688,13.688,56.625v66.938c0,11.812-9.375,21.562-20.812,21.75-1.312.188-2.625.188-3.938.188h-.002Z"/><path d="M710.258,1011.065c-1.875,0-3.75,0-5.625-.188-9.938-.375-18.188-9-18.188-19.125v-81.75c0-12.562,2.438-24.188,6.938-34.312,11.438-25.312,31.5-43.5,59.062-54.375,4.688-1.875,10.125.375,12,5.25,1.875,4.688-.562,10.125-5.25,12-23.438,9.188-39.562,24-49.125,45-3.562,7.688-5.25,16.688-5.25,26.625v81.75c67.312,3.375,101.25-44.062,104.62-88.875.375-5.062,4.875-9,9.938-8.438,5.062.375,8.812,4.875,8.438,9.938-3.75,53.438-45.375,106.5-117.56,106.5h.003Z"/><path d="M1013.208,837.665c-5.062,0-9.188-4.125-9.188-9.188v-33.938c0-5.062,4.125-9.188,9.188-9.188h16.5c5.062,0,9.188,4.125,9.188,9.188s-4.125,9.188-9.188,9.188h-7.312v24.75c0,5.062-4.125,9.188-9.188,9.188h0Z"/><path d="M870.008,837.665c-5.062,0-9.188-4.125-9.188-9.188v-24.75h-7.312c-5.062,0-9.188-4.125-9.188-9.188s4.125-9.188,9.188-9.188h16.5c5.062,0,9.188,4.125,9.188,9.188v33.938c0,5.062-4.125,9.188-9.188,9.188h0Z"/><path d="M942.008,910.415h-.188c-21.375-.188-39.562-16.875-43.875-40.5-.938-5.062,2.438-9.75,7.312-10.688,5.062-.938,9.75,2.438,10.688,7.312,3.188,17.438,15.75,25.5,25.875,25.5h.188c12,0,21.188-9.562,24.375-25.688.938-5.062,5.812-8.25,10.875-7.312s8.25,5.812,7.312,10.875c-5.062,24.562-21.75,40.5-42.562,40.5h0Z"/><ellipse class="cls-1" cx="944.165" cy="749.554" rx="227.788" ry="233.839"/></svg>