<?xml version="1.0" encoding="UTF-8"?>
<svg id="Layer_1" xmlns="http://www.w3.org/2000/svg" version="1.1" viewBox="0 0 1200 1177.5">
  <!-- Generator: Adobe Illustrator 29.2.1, SVG Export Plug-In . SVG Version: 2.1.0 Build 116)  -->
  <defs>
    <style>
      .st0 {
        fill: red;
        fill-rule: evenodd;
      }
    </style>
  </defs>
  <path d="M157.5,357.7c-4.7,0-9.4-.8-13.9-2.4-12-4.3-21.2-13.9-24.9-26.1-31.5-101.4-24.2-198.8,17.6-236.6,15.6-14.1,43.3-27,87.2-8.4,2.2.9,5.2.2,6.8-1.7C297.6-6.5,467.6-27.1,594.2,38.4c108.8,56.1,149.6,156.2,112.3,274.5-5.2,16.3-17.6,29.1-34.1,34.5-16.7,5.6-35.1,3-49.5-7.1l-67.1-47.4,7.5,23.2c2.2,7.1.9,14.6-3.8,20.4s-12,9-19.7,8.2c-60.2-5.4-119.8-26.1-177.4-61.7l-.8,29.4c-.2,6.2-3,11.8-8.1,15.6-4.9,3.6-10.9,4.7-16.7,3.2-33.9-9.6-65.4-27.9-96.2-55.9-17.1,35.2-37.5,60.4-62.2,76.3-6.2,3.8-13.5,6-21,6h0s0,0,0,0ZM182.6,93.3c-13.1,0-24.6,4.3-33.9,12.9-36.2,32.6-41.2,124.1-12.4,217.5,2.1,6.6,6.9,11.6,13.5,14.1s13.3,1.5,18.9-2.1c24.2-15.8,44.1-42,60.8-80.1,1.1-2.8,3.8-4.9,6.8-5.4s6,.4,8.2,2.4c31.5,30.7,63.6,50.6,97.9,60.4l1.9-34.1c.2-7.5,3.2-13.3,8.4-16.1,4.5-2.4,9.8-2.1,14.1.6,56.8,36.4,115.7,57.4,174.9,62.6,1.9.2,3.2-.9,3.6-1.5.6-.8,1.1-1.7.6-3.2l-12.2-37.9c-3.6-10.7,1.5-15.8,3.8-17.4,3.9-2.8,9.2-2.8,13.3,0l83.2,58.9c9.8,6.8,21.8,8.6,33,4.7,10.9-3.8,18.9-11.8,22.3-22.5,34.3-108.9-3.4-201-103.3-252.6C466.5-6.8,307.1,11.2,244.9,93.5c-6.6,8.8-18.4,11.8-28.7,7.5-12.2-5.1-23.4-7.7-33.6-7.7h0s0,0,0,0Z"/>
  <path d="M407.8,662.5c-130.5,0-236.8-106.1-236.8-236.8v-86.6c0-5.1,4.1-9.2,9.2-9.2s9.2,4.1,9.2,9.2v86.6c0,120.4,97.9,218.2,218.2,218.2s218.3-97.9,218.3-218.2v-89.2c0-5.1,4.1-9.2,9.2-9.2s9.2,4.1,9.2,9.2v89.2c.4,130.5-105.9,236.8-236.4,236.8h0Z"/>
  <path d="M297.8,439.8c-5.1,0-9.2-4.1-9.2-9.2v-51.9c0-5.1,4.1-9.2,9.2-9.2s9.2,4.1,9.2,9.2v51.9c0,5.1-4.1,9.2-9.2,9.2Z"/>
  <path d="M521.8,439.8c-5.1,0-9.2-4.1-9.2-9.2v-51.9c0-5.1,4.1-9.2,9.2-9.2s9.2,4.1,9.2,9.2v51.9c0,5.1-4.1,9.2-9.2,9.2Z"/>
  <path d="M408.9,535.4c-19.3,0-38.2-8.2-53.2-23.4-3.6-3.6-3.6-9.4,0-13.1,3.6-3.6,9.6-3.6,13.1,0,11.4,11.6,25.7,18,40.1,18h.2c14.4,0,27.9-6.2,39.6-18,3.6-3.8,9.4-3.8,13.1-.2,3.6,3.6,3.8,9.4.2,13.1-15.2,15.6-33.4,23.6-53.1,23.6q.1,0,0,0h0Z"/>
  <path d="M151.5,458.5c-32.2,0-54.2-18.4-62.2-39.8-10.3-27.2-.2-65.4,46.1-84.9,4.7-1.9,10.1.2,12,4.9,2.1,4.7-.2,10.1-4.9,12.2-35.2,14.8-43.5,41.6-36,61.5,7.5,20.1,33.2,35.8,71.8,23.1,4.9-1.7,10.1.9,11.6,5.8,1.7,4.9-.9,10.1-5.8,11.6-11.8,3.9-22.7,5.6-32.6,5.6h0Z"/>
  <path d="M662.1,449.4c-9.4,0-19.3-1.7-29.8-5.4-4.9-1.7-7.3-6.9-5.6-11.8s6.9-7.3,11.8-5.6c35.2,12.6,60.9-3.8,69.9-24,7.9-17.8,5.1-45.2-29.2-63.6-4.5-2.4-6.2-8.1-3.8-12.6s8.1-6.2,12.6-3.8c42.6,22.7,49.5,60.2,37.5,87.4-9.9,22.1-33.2,39.4-63.4,39.4h0Z"/>
  <path d="M806.6,1177.5H9.2c-5.1,0-9.2-4.1-9.2-9.2v-212.8c0-132,79.3-249.4,201.9-298.9,31.3-12.6,64.5-20.2,98.8-22.3,6.8-.8,14.2-.9,21.4-.9h16.3c5.1,0,9.4,4.1,9.4,9.2s-3.9,9.2-9,9.2h-16.7c-6.6,0-13.3.2-19.9.9-32.6,2.1-63.9,9.2-93.6,21.2-115.5,46.5-190.3,157.1-190.3,281.6v203.4h788.2c5.1,0,9.2,4.1,9.2,9.2s-3.9,9.4-9.2,9.4h0s0,0,0,0Z"/>
  <path d="M806.4,955.8c-5.1,0-9.2-4.1-9.2-9.2s.9-4.9,2.6-6.6c3.6-3.6,9.4-3.6,13.1,0,2.6,2.6,3.6,6.8,2.1,10.1-1.3,3.4-4.9,5.6-8.6,5.6h0Z"/>
  <path d="M751.1,786.5c-3,0-5.8-1.3-7.7-3.9-33.4-48.6-80.2-86.1-135.4-108.4-.4,0-.8-.2-.9-.4-28.5-11.6-58.1-18.6-88.3-20.8-7.7-.8-15.9-1.3-24.9-1.3h-16.9c-5.1,0-9.6-4.1-9.6-9.2s3.9-9.2,9-9.2h17.4c9.6,0,18.4.4,26.4,1.3,31.5,2.2,62.8,9.6,92.8,21.8.4,0,.8.2.9.4,58.9,23.8,108.9,63.6,144.6,115.5,2.8,4.1,1.9,9.9-2.4,12.8-1.5.9-3.2,1.5-5.1,1.5h0Z"/>
  <path d="M408,803.2c-3,0-5.8-1.5-7.5-3.9l-107.1-150.8c-3-4.1-2.1-9.9,2.2-12.9,4.1-2.8,9.9-1.9,12.9,2.2l99.6,140.4,104.1-140.2c3-4.1,8.8-4.9,12.9-1.9s4.9,8.8,1.9,12.9l-111.6,150.4c-1.9,2.4-4.5,3.8-7.5,3.8h0s0,0,0,0Z"/>
  <path d="M296.4,880.2c-.8,0-1.7-.2-2.4-.4-2.6-.8-4.9-2.6-6-5.2l-90.9-205.9c-2.1-4.7,0-10.1,4.7-12.2s10.1,0,12.2,4.7l86.4,195.8,102.4-70.7c3-2.2,7.1-2.2,10.3-.2l107.6,70.9,81.4-195.6c1.9-4.7,7.3-6.9,12-5.1s6.9,7.3,5.1,12l-85.7,205.9c-1.1,2.4-3.2,4.5-5.8,5.2s-5.4.4-7.7-1.1l-111.8-73.5-106.5,73.5c-1.5,1.3-3.4,1.9-5.2,1.9h0s0,0,0,0Z"/>
  <path d="M408,969.5c-5.1,0-9.2-4.1-9.2-9.2v-166.3c0-5.1,4.1-9.2,9.2-9.2s9.2,4.1,9.2,9.2v166.3c0,5.1-4.1,9.2-9.2,9.2Z"/>
  <path d="M651.4,1177.5c-5.1,0-9.2-4.1-9.2-9.2v-182.4c0-5.1,4.1-9.2,9.2-9.2s9.2,4.1,9.2,9.2v182.4c0,5.1-4.1,9.2-9.2,9.2Z"/>
  <path d="M172.5,1177.5c-5.1,0-9.2-4.1-9.2-9.2v-182.4c0-5.1,4.1-9.2,9.2-9.2s9.2,4.1,9.2,9.2v182.4c0,5.1-4.1,9.2-9.2,9.2Z"/>
  <path d="M824.1,920.2c-5.1,0-9.2-4.1-9.2-9.2v-.2c0-5.1,4.1-9.2,9.2-9.2s9.2,4.1,9.2,9.2-4.1,9.4-9.2,9.4h0Z"/>
  <path d="M941.6,980.5h-3.8c-68.6-1.7-127.7-49.5-151.7-122.2-24.9-5.4-42.6-21.8-47.8-44.2-6.4-27.8,6.9-57.8,33.9-76.5,4.1-2.8,9.9-1.9,12.8,2.4,2.8,4.1,1.9,9.9-2.4,12.8-20.4,14.1-31.1,36.9-26.4,57,3.9,16.9,17.8,28.1,38.2,31.1,3.6.6,6.4,3,7.5,6.6,20.4,68.1,73.9,113.1,136.1,114.6,63.2,2.1,115.3-41.4,141.4-114.9,1.1-3.4,4.1-5.6,7.5-6,19.9-2.4,34.1-13.1,38.8-29.1,5.8-19.5-3.6-42.4-24.2-59.8-3.9-3.4-4.3-9.2-1.1-12.9,3.4-3.9,9.2-4.3,12.9-1.1,26.2,22.3,37.9,52.5,30,79.1-6.4,21.4-24.2,36.4-48.6,41.2-28.5,76.9-85.5,122.1-153.2,122.1h0Z"/>
  <path d="M1107.9,754.6h-91.9c-12,0-23.4-2.6-33.2-7.7-22.1-11.2-34.5-26.8-41.6-43.9-9.4,19.1-24.6,34.3-39.4,42.9-9.8,5.6-21.6,8.4-34.9,8.4h-91.3c-14.4,0-26.2-11.8-26.2-26.2v-18.2c0-97.7,79.5-177.2,177.2-177.2h30.6c97.7,0,177.2,79.5,177.2,177.2v18.2c-.2,14.6-12,26.4-26.4,26.4h0ZM940.8,655c4.5,0,8.4,3.4,9.2,8.1,3.9,30,12.6,52.9,41.1,67.5,7.1,3.8,15.8,5.6,24.8,5.6h91.9c4.3,0,7.7-3.6,7.7-7.7v-18.2c0-87.6-71.2-158.6-158.6-158.6h-30.6c-87.6,0-158.6,71.2-158.6,158.6v18.2c0,4.3,3.6,7.7,7.7,7.7h91.3c10.1,0,18.8-2.1,25.7-6,19.9-11.6,39.8-37.9,39.2-65.6-.2-4.9,3.6-9,8.4-9.4.6-.2.8-.2.9-.2h0Z"/>
  <path d="M941.8,1064.8c-38.8,0-70.3-31.5-70.3-70.3v-36.9c0-5.1,4.1-9.2,9.2-9.2s9.2,4.1,9.2,9.2v36.9c0,28.5,23.2,51.8,51.8,51.8s27-5.4,36.8-15.2,15.2-22.7,15.2-36.8v-37.9c0-5.1,4.1-9.2,9.2-9.2s9.2,4.1,9.2,9.2v37.9c0,18.8-7.3,36.6-20.6,49.7-12.9,13.5-30.6,20.8-49.5,20.8h0Z"/>
  <path d="M1117.5,1177.5h-346.5c-9.2,0-16.7-7.5-16.7-16.5v-101.8c0-42.4,30.2-78.2,71.8-85.3,4.5-.9,9.6-1.3,15.2-1.3h39.6c5.1,0,9.2,4.1,9.2,9.2s-4.1,9.2-9.2,9.2h-39.6c-4.3,0-8.2.4-11.8,1.1-33,5.6-56.6,33.9-56.6,67.1v99.8h342.8v-99.8c0-37.7-30.6-68.2-68.2-68.2h-44.4c-5.1,0-9.2-4.1-9.2-9.2s4.1-9.2,9.2-9.2h44.4c47.8,0,86.6,38.8,86.6,86.6v101.8c.2,9.2-7.1,16.5-16.5,16.5h0Z"/>
  <path d="M1175.2,1011.5c-40.3,0-75-15-95.6-41.4-18.9-24.2-24.6-55.1-15.8-86.8,1.3-4.9,6.4-7.7,11.2-6.4s7.9,6.4,6.4,11.4c-7.1,26.1-2.6,51,12.6,70.5,18,22.9,48,35.4,84.6,34.3,1.5,0,2.8-1.5,2.8-3.4v-66.9c0-18.8-3.8-34.7-11.1-47.4-9.9-17.2-24.9-30-45.6-38.8-4.7-2.1-6.9-7.5-4.9-12.2s7.5-6.9,12.2-4.9c24.2,10.3,42.4,25.9,54.2,46.5,9,15.8,13.7,34.7,13.7,56.6v66.9c0,11.8-9.4,21.6-20.8,21.8-1.3.2-2.6.2-3.9.2h0,0Z"/>
  <path d="M710.3,1011.1c-1.9,0-3.8,0-5.6-.2-9.9-.4-18.2-9-18.2-19.1v-81.8c0-12.6,2.4-24.2,6.9-34.3,11.4-25.3,31.5-43.5,59.1-54.4,4.7-1.9,10.1.4,12,5.2,1.9,4.7-.6,10.1-5.2,12-23.4,9.2-39.6,24-49.1,45-3.6,7.7-5.2,16.7-5.2,26.6v81.8c67.3,3.4,101.2-44.1,104.6-88.9.4-5.1,4.9-9,9.9-8.4,5.1.4,8.8,4.9,8.4,9.9-3.8,53.4-45.4,106.5-117.6,106.5h0,0Z"/>
  <path d="M1013.2,837.7c-5.1,0-9.2-4.1-9.2-9.2v-33.9c0-5.1,4.1-9.2,9.2-9.2h16.5c5.1,0,9.2,4.1,9.2,9.2s-4.1,9.2-9.2,9.2h-7.3v24.8c0,5.1-4.1,9.2-9.2,9.2h0Z"/>
  <path d="M870,837.7c-5.1,0-9.2-4.1-9.2-9.2v-24.8h-7.3c-5.1,0-9.2-4.1-9.2-9.2s4.1-9.2,9.2-9.2h16.5c5.1,0,9.2,4.1,9.2,9.2v33.9c0,5.1-4.1,9.2-9.2,9.2h0Z"/>
  <path d="M942,910.4h-.2c-21.4-.2-39.6-16.9-43.9-40.5-.9-5.1,2.4-9.8,7.3-10.7,5.1-.9,9.8,2.4,10.7,7.3,3.2,17.4,15.8,25.5,25.9,25.5h.2c12,0,21.2-9.6,24.4-25.7.9-5.1,5.8-8.2,10.9-7.3s8.2,5.8,7.3,10.9c-5.1,24.6-21.8,40.5-42.6,40.5h0Z"/>
  <path class="st0" d="M1000.6,353.5l110.1.3-169.8,169-169-169.8,110.1.3.7-312.9,118.6.3-.7,312.9h0s0,0,0,0Z"/>
</svg>