<?xml version="1.0" encoding="UTF-8"?>
<svg id="Layer_1" data-name="Layer 1" xmlns="http://www.w3.org/2000/svg" viewBox="0 0 1044.81 948.386">
  <path d="M916.902,114.536h-144.78V37.188c0-20.578-16.609-37.188-37.188-37.188s-37.188,16.609-37.188,37.188v77.348h-360.21V37.188c0-20.578-16.609-37.188-37.188-37.188s-37.188,16.609-37.188,37.188v77.348H127.8C57.269,114.536,0,171.927,0,242.336v578.25c0,70.531,57.391,127.8,127.8,127.8h789.21c70.531,0,127.8-57.391,127.8-127.8V242.336c0-70.406-57.391-127.8-127.92-127.8h.012ZM127.812,176.513h135.48v43.633c0,20.578,16.609,37.188,37.188,37.188s37.188-16.609,37.188-37.188v-43.633h360.21v43.633c0,20.578,16.609,37.188,37.188,37.188s37.188-16.609,37.188-37.188v-43.633h144.78c36.32,0,65.82,29.5,65.82,65.82v104l-920.98.004v-104c0-36.32,29.625-65.824,65.945-65.824h-.007ZM916.902,886.403H127.812c-36.32,0-65.82-29.5-65.82-65.82v-412.27h920.86v412.15c0,36.441-29.625,65.941-65.941,65.941h-.009Z"/>
  <path d="M678.272,464.836c-14.504-14.504-38.055-14.504-52.555,0l-109.58,109.45-109.45-109.45c-14.504-14.504-38.055-14.504-52.555,0-14.504,14.504-14.504,38.055,0,52.555l109.45,109.45-109.45,109.45c-14.504,14.504-14.504,38.055,0,52.555,7.312,7.312,16.734,10.906,26.277,10.906s19.09-3.594,26.277-10.906l109.45-109.45,109.45,109.45c7.312,7.312,16.734,10.906,26.277,10.906s19.09-3.594,26.277-10.906c14.504-14.504,14.504-38.055,0-52.555l-109.45-109.45,109.45-109.45c14.629-14.5,14.629-38.051.125-52.551l.007-.004Z"/>
</svg>