<?xml version="1.0" encoding="UTF-8"?>
<svg id="Layer_1" xmlns="http://www.w3.org/2000/svg" version="1.1" viewBox="0 0 1102.7 977.3">
  <!-- Generator: Adobe Illustrator 29.2.1, SVG Export Plug-In . SVG Version: 2.1.0 Build 116)  -->
  <defs>
    <style>
      .st0 {
        fill: #cac9c9;
      }

      .st1 {
        fill: #ffa7ef;
      }
    </style>
  </defs>
  <path d="M269.4,169.3c-28,0-50.7-17.9-50.7-40V40C218.7,17.9,241.4,0,269.4,0s50.7,17.9,50.7,40v89.4c0,22.1-22.7,40-50.7,40h0Z"/>
  <path d="M829.4,169.3c-28,0-50.7-17.9-50.7-40V40C778.7,17.9,801.4,0,829.4,0s50.7,17.9,50.7,40v89.4c1.3,22.1-22.7,40-50.7,40h0Z"/>
  <path d="M1009.3,88c36,0,65.3,29.3,65.3,65.3v732c0,36-29.3,65.3-65.3,65.3H90.7c-36,0-65.3-29.3-65.3-65.3V153.3c0-36,29.3-65.3,65.3-65.3h78.7v34.7c0,54.7,44,98.7,98.7,98.7s98.7-44,98.7-98.7v-34.7h364v34.7c0,54.7,44,98.7,98.7,98.7s98.7-44,98.7-98.7v-34.7h81.3M1009.3,61.3h-105.3v61.3c0,40-32,72-72,72s-72-32-72-72v-61.3h-418.7v61.3c0,40-32,72-72,72s-72-32-72-72v-61.3h-105.3C41.3,61.3,0,102.7,0,153.3v732c0,50.7,41.3,92,92,92h918.7c50.7,0,92-41.3,92-92V153.3c0-50.7-42.7-92-93.3-92h0,0Z"/>
  <path d="M58.7,361.1h980v27H58.7v-27Z"/>
  <rect class="st1" x="498.2" y="664" width="103.6" height="103.6"/>
  <path d="M589.4,350.5h-76c-13.3,0-24-10.7-24-24v-76c0-13.3,10.7-24,24-24h76c13.3,0,24,10.7,24,24v76c0,13.3-10.7,24-24,24ZM513.4,239.9c-5.3,0-10.7,4-10.7,10.7v76c0,5.3,4,10.7,10.7,10.7h76c5.3,0,10.7-4,10.7-10.7v-76c0-5.3-4-10.7-10.7-10.7h-76Z"/>
  <path d="M733.4,350.5h-76c-13.3,0-24-10.7-24-24v-76c0-13.3,10.7-24,24-24h76c13.3,0,24,10.7,24,24v76c0,13.3-10.7,24-24,24ZM657.4,239.9c-5.3,0-10.7,4-10.7,10.7v76c0,5.3,4,10.7,10.7,10.7h76c5.3,0,10.7-4,10.7-10.7v-76c0-5.3-4-10.7-10.7-10.7h-76Z"/>
  <path d="M877.4,350.5h-76c-13.3,0-24-10.7-24-24v-76c0-13.3,10.7-24,24-24h76c13.3,0,24,10.7,24,24v76c0,13.3-10.7,24-24,24ZM801.4,239.9c-5.3,0-10.7,4-10.7,10.7v76c0,5.3,4,10.7,10.7,10.7h76c5.3,0,10.7-4,10.7-10.7v-76c0-5.3-4-10.7-10.7-10.7h-76Z"/>
  <path d="M1021.3,350.5h-76c-13.3,0-24-10.7-24-24v-76c0-13.3,10.7-24,24-24h76c13.3,0,24,10.7,24,24v76c0,13.3-10.7,24-24,24h0ZM945.3,239.9c-5.3,0-10.7,4-10.7,10.7v76c0,5.3,4,10.7,10.7,10.7h76c5.3,0,10.7-4,10.7-10.7v-76c0-5.3-4-10.7-10.7-10.7h-76Z"/>
  <path class="st0" d="M158.7,509.4h-76c-9.3,0-17.3-8-17.3-17.3v-76c0-9.3,8-17.3,17.3-17.3h76c9.3,0,17.3,8,17.3,17.3v76c0,9.3-8,17.3-17.3,17.3Z"/>
  <path class="st0" d="M302.7,509.4h-76c-9.3,0-17.3-8-17.3-17.3v-76c0-9.3,8-17.3,17.3-17.3h76c9.3,0,17.3,8,17.3,17.3v76c-1.3,9.3-8,17.3-17.3,17.3Z"/>
  <path class="st0" d="M446.7,509.4h-76c-9.3,0-17.3-8-17.3-17.3v-76c0-9.3,8-17.3,17.3-17.3h76c9.3,0,17.3,8,17.3,17.3v76c-1.3,9.3-8,17.3-17.3,17.3Z"/>
  <path class="st0" d="M589.4,509.4h-76c-9.3,0-17.3-8-17.3-17.3v-76c0-9.3,8-17.3,17.3-17.3h76c9.3,0,17.3,8,17.3,17.3v76c0,9.3-8,17.3-17.3,17.3Z"/>
  <path class="st0" d="M733.4,509.4h-76c-9.3,0-17.3-8-17.3-17.3v-76c0-9.3,8-17.3,17.3-17.3h76c9.3,0,17.3,8,17.3,17.3v76c0,9.3-8,17.3-17.3,17.3h0Z"/>
  <path d="M158.7,645.9h-76c-13.3,0-24-10.7-24-24v-76c0-13.3,10.7-24,24-24h76c13.3,0,24,10.7,24,24v76c0,13.3-10.7,24-24,24ZM82.7,535.2c-5.3,0-10.7,4-10.7,10.7v76c0,5.3,5.3,10.7,10.7,10.7h76c5.3,0,10.7-4,10.7-10.7v-76c0-5.3-4-10.7-10.7-10.7h-76Z"/>
  <path d="M302.7,645.9h-76c-13.3,0-24-10.7-24-24v-76c0-13.3,10.7-24,24-24h76c13.3,0,24,10.7,24,24v76c-1.3,13.3-12,24-24,24ZM226.7,535.2c-5.3,0-10.7,4-10.7,10.7v76c0,5.3,4,10.7,10.7,10.7h76c5.3,0,10.7-4,10.7-10.7v-76c0-5.3-4-10.7-10.7-10.7h-76,0Z"/>
  <path d="M445.4,645.9h-76c-13.3,0-24-10.7-24-24v-76c0-13.3,10.7-24,24-24h76c13.3,0,24,10.7,24,24v76c0,13.3-10.7,24-24,24h0ZM370.7,535.2c-5.3,0-10.7,4-10.7,10.7v76c0,5.3,4,10.7,10.7,10.7h74.7c5.3,0,10.7-4,10.7-10.7v-76c0-5.3-4-10.7-10.7-10.7h-74.7Z"/>
  <path d="M589.4,645.9h-76c-13.3,0-24-10.7-24-24v-76c0-13.3,10.7-24,24-24h76c13.3,0,24,10.7,24,24v76c0,13.3-10.7,24-24,24ZM513.4,535.2c-5.3,0-10.7,4-10.7,10.7v76c0,5.3,4,10.7,10.7,10.7h76c5.3,0,10.7-4,10.7-10.7v-76c0-5.3-4-10.7-10.7-10.7h-76Z"/>
  <path d="M733.4,645.9h-76c-13.3,0-24-10.7-24-24v-76c0-13.3,10.7-24,24-24h76c13.3,0,24,10.7,24,24v76c0,13.3-10.7,24-24,24ZM657.4,535.2c-5.3,0-10.7,4-10.7,10.7v76c0,5.3,4,10.7,10.7,10.7h76c5.3,0,10.7-4,10.7-10.7v-76c0-5.3-4-10.7-10.7-10.7h-76Z"/>
  <path d="M877.4,645.9h-76c-13.3,0-24-10.7-24-24v-76c0-13.3,10.7-24,24-24h76c13.3,0,24,10.7,24,24v76c0,13.3-10.7,24-24,24ZM801.4,535.2c-5.3,0-10.7,4-10.7,10.7v76c0,5.3,4,10.7,10.7,10.7h76c5.3,0,10.7-4,10.7-10.7v-76c0-5.3-4-10.7-10.7-10.7h-76Z"/>
  <path d="M1021.3,645.9h-76c-13.3,0-24-10.7-24-24v-76c0-13.3,10.7-24,24-24h76c13.3,0,24,10.7,24,24v76c0,13.3-10.7,24-24,24h0ZM945.3,535.2c-5.3,0-10.7,4-10.7,10.7v76c0,5.3,4,10.7,10.7,10.7h76c5.3,0,10.7-4,10.7-10.7v-76c0-5.3-4-10.7-10.7-10.7h-76Z"/>
  <path d="M877.4,516.1h-76c-13.3,0-24-10.7-24-24v-76c0-13.3,10.7-24,24-24h76c13.3,0,24,10.7,24,24v76c0,13.3-10.7,24-24,24ZM801.4,405.4c-5.3,0-10.7,4-10.7,10.7v76c0,5.3,4,10.7,10.7,10.7h76c5.3,0,10.7-4,10.7-10.7v-76c0-5.3-4-10.7-10.7-10.7h-76Z"/>
  <path d="M1021.3,516.1h-76c-13.3,0-24-10.7-24-24v-76c0-13.3,10.7-24,24-24h76c13.3,0,24,10.7,24,24v76c0,13.3-10.7,24-24,24h0ZM945.3,405.4c-5.3,0-10.7,4-10.7,10.7v76c0,5.3,4,10.7,10.7,10.7h76c5.3,0,10.7-4,10.7-10.7v-76c0-5.3-4-10.7-10.7-10.7h-76Z"/>
  <path d="M158,777.8h-76c-13.3,0-24-10.7-24-24v-76c0-13.3,10.7-24,24-24h76c13.3,0,24,10.7,24,24v76c0,13.3-10.7,24-24,24ZM82,667.1c-5.3,0-10.7,4-10.7,10.7v76c0,5.3,5.3,10.7,10.7,10.7h76c5.3,0,10.7-4,10.7-10.7v-76c0-5.3-4-10.7-10.7-10.7,0,0-76,0-76,0Z"/>
  <path d="M302,777.8h-76c-13.3,0-24-10.7-24-24v-76c0-13.3,10.7-24,24-24h76c13.3,0,24,10.7,24,24v76c-1.3,13.3-12,24-24,24ZM226,667.1c-5.3,0-10.7,4-10.7,10.7v76c0,5.3,4,10.7,10.7,10.7h76c5.3,0,10.7-4,10.7-10.7v-76c0-5.3-4-10.7-10.7-10.7h-76Z"/>
  <path d="M444.7,777.8h-76c-13.3,0-24-10.7-24-24v-76c0-13.3,10.7-24,24-24h76c13.3,0,24,10.7,24,24v76c0,13.3-10.7,24-24,24h0ZM370,667.1c-5.3,0-10.7,4-10.7,10.7v76c0,5.3,4,10.7,10.7,10.7h74.7c5.3,0,10.7-4,10.7-10.7v-76c0-5.3-4-10.7-10.7-10.7h-74.7Z"/>
  <path d="M588.7,777.8h-76c-13.3,0-24-10.7-24-24v-76c0-13.3,10.7-24,24-24h76c13.3,0,24,10.7,24,24v76c0,13.3-10.7,24-24,24ZM512.7,667.1c-5.3,0-10.7,4-10.7,10.7v76c0,5.3,4,10.7,10.7,10.7h76c5.3,0,10.7-4,10.7-10.7v-76c0-5.3-4-10.7-10.7-10.7h-76Z"/>
  <path d="M732.7,777.8h-76c-13.3,0-24-10.7-24-24v-76c0-13.3,10.7-24,24-24h76c13.3,0,24,10.7,24,24v76c0,13.3-10.7,24-24,24ZM656.7,667.1c-5.3,0-10.7,4-10.7,10.7v76c0,5.3,4,10.7,10.7,10.7h76c5.3,0,10.7-4,10.7-10.7v-76c0-5.3-4-10.7-10.7-10.7h-76Z"/>
  <path d="M876.7,777.8h-76c-13.3,0-24-10.7-24-24v-76c0-13.3,10.7-24,24-24h76c13.3,0,24,10.7,24,24v76c0,13.3-10.7,24-24,24ZM800.7,667.1c-5.3,0-10.7,4-10.7,10.7v76c0,5.3,4,10.7,10.7,10.7h76c5.3,0,10.7-4,10.7-10.7v-76c0-5.3-4-10.7-10.7-10.7h-76Z"/>
  <path d="M1020.7,777.8h-76c-13.3,0-24-10.7-24-24v-76c0-13.3,10.7-24,24-24h76c13.3,0,24,10.7,24,24v76c0,13.3-10.7,24-24,24ZM944.7,667.1c-5.3,0-10.7,4-10.7,10.7v76c0,5.3,4,10.7,10.7,10.7h76c5.3,0,10.7-4,10.7-10.7v-76c0-5.3-4-10.7-10.7-10.7h-76,0Z"/>
  <path d="M876.7,908.4h-76c-13.3,0-24-10.7-24-24v-76c0-13.3,10.7-24,24-24h76c13.3,0,24,10.7,24,24v76c0,13.3-10.7,24-24,24ZM800.7,797.7c-5.3,0-10.7,4-10.7,10.7v76c0,5.3,4,10.7,10.7,10.7h76c5.3,0,10.7-4,10.7-10.7v-76c0-5.3-4-10.7-10.7-10.7h-76Z"/>
  <path d="M1020.7,908.4h-76c-13.3,0-24-10.7-24-24v-76c0-13.3,10.7-24,24-24h76c13.3,0,24,10.7,24,24v76c0,13.3-10.7,24-24,24ZM944.7,797.7c-5.3,0-10.7,4-10.7,10.7v76c0,5.3,4,10.7,10.7,10.7h76c5.3,0,10.7-4,10.7-10.7v-76c0-5.3-4-10.7-10.7-10.7h-76,0Z"/>
  <path d="M158.7,907.2h-76c-13.3,0-24-8.2-24-21.5v-76c0-13.3,10.7-24,24-24h76c13.3,0,24,10.7,24,24v76c0,13.3-10.7,21.5-24,21.5ZM82.7,800.3c-5.3,0-10.7,4-10.7,9.3v76c0,5.3,4,10.7,10.7,10.7h76c5.3,0,10.7-4,10.7-10.7v-76c0-5.3-4-10.7-10.7-10.7h-76v1.3h0Z"/>
  <path d="M302.7,907.2h-76c-13.3,0-24-8.2-24-21.5v-76c0-13.3,10.7-24,24-24h76c13.3,0,24,10.7,24,24v76c-1.3,13.3-12,21.5-24,21.5ZM226.7,800.3c-5.3,0-10.7,4-10.7,10.7v76c0,5.3,4,10.7,10.7,10.7h76c5.3,0,10.7-4,10.7-10.7v-76c0-5.3-4-10.7-10.7-10.7h-76,0Z"/>
  <path d="M445.4,907.2h-76c-13.3,0-24-8.2-24-21.5v-76c0-13.3,10.7-24,24-24h76c13.3,0,24,10.7,24,24v76c0,13.3-10.7,21.5-24,21.5h0ZM370.7,800.3c-5.3,0-10.7,4-10.7,10.7v76c0,5.3,4,10.7,10.7,10.7h74.7c5.3,0,10.7-4,10.7-10.7v-76c0-5.3-4-10.7-10.7-10.7h-74.7Z"/>
  <path d="M589.4,907.2h-76c-13.3,0-24-8.2-24-21.5v-76c0-13.3,10.7-24,24-24h76c13.3,0,24,10.7,24,24v76c0,13.3-10.7,21.5-24,21.5ZM513.4,800.3c-5.3,0-10.7,4-10.7,10.7v76c0,5.3,4,10.7,10.7,10.7h76c5.3,0,10.7-4,10.7-10.7v-76c0-5.3-4-10.7-10.7-10.7h-76Z"/>
  <path d="M733.4,907.2h-76c-13.3,0-24-8.2-24-21.5v-76c0-13.3,10.7-24,24-24h76c13.3,0,24,10.7,24,24v76c0,13.3-10.7,21.5-24,21.5ZM657.4,800.3c-5.3,0-10.7,4-10.7,10.7v76c0,5.3,4,10.7,10.7,10.7h76c5.3,0,10.7-4,10.7-10.7v-76c0-5.3-4-10.7-10.7-10.7h-76Z"/>
  <path d="M446.7,350.5h-76c-13.3,0-24-10.7-24-24v-76c0-13.3,10.7-24,24-24h76c13.3,0,24,10.7,24,24v76c0,13.3-10.7,24-24,24ZM370.7,239.9c-5.3,0-10.7,4-10.7,10.7v76c0,5.3,4,10.7,10.7,10.7h76c5.3,0,10.7-4,10.7-10.7v-76c0-5.3-4-10.7-10.7-10.7h-76Z"/>
  <path d="M302.7,350.5h-76c-13.3,0-24-10.7-24-24v-76c0-13.3,10.7-24,24-24h76c13.3,0,24,10.7,24,24v76c0,13.3-10.7,24-24,24ZM226.7,239.9c-5.3,0-10.7,4-10.7,10.7v76c0,5.3,4,10.7,10.7,10.7h76c5.3,0,10.7-4,10.7-10.7v-76c0-5.3-4-10.7-10.7-10.7h-76,0Z"/>
  <path d="M158.7,350.5h-76c-13.3,0-24-10.7-24-24v-76c0-13.3,10.7-24,24-24h76c13.3,0,24,10.7,24,24v76c0,13.3-10.7,24-24,24ZM82.7,239.9c-5.3,0-10.7,4-10.7,10.7v76c0,5.3,4,10.7,10.7,10.7h76c5.3,0,10.7-4,10.7-10.7v-76c0-5.3-4-10.7-10.7-10.7h-76Z"/>
  <path d="M117.4,327c-3.8,0-7.3-.5-10.6-1.5-3.2-1-6.2-2.5-8.8-4.5-2.6-2-5-4.5-7.1-7.5l7.4-8.5c3.3,4.7,6.4,7.9,9.4,9.7,3,1.8,6.6,2.7,10.7,2.7s4.8-.4,6.9-1.2c2.1-.8,3.7-1.9,4.9-3.3s1.8-3,1.8-4.8-.2-2.3-.6-3.4c-.4-1.1-1-2-1.9-2.9-.8-.9-1.9-1.7-3.2-2.4-1.3-.7-2.8-1.4-4.6-2-1.7-.6-3.7-1-6-1.5-3.6-.7-6.7-1.7-9.4-2.9-2.7-1.2-4.9-2.7-6.7-4.5-1.8-1.8-3.1-3.9-4-6.1-.9-2.3-1.3-4.9-1.3-7.8s.6-5.4,1.8-7.8c1.2-2.4,2.9-4.5,5.1-6.2,2.2-1.8,4.7-3.1,7.7-4.1,2.9-1,6.1-1.4,9.5-1.4s6.9.5,9.9,1.4c3,.9,5.7,2.3,8,4.1,2.3,1.8,4.3,4.1,5.8,6.8l-7.6,7.5c-1.3-2.2-2.8-4-4.5-5.5-1.7-1.5-3.5-2.6-5.5-3.4-2-.8-4.1-1.1-6.4-1.1s-4.9.4-6.8,1.2c-1.9.8-3.4,1.9-4.6,3.4-1.1,1.4-1.7,3.1-1.7,5s.3,2.7.8,3.9c.5,1.2,1.3,2.2,2.4,3.1s2.6,1.7,4.4,2.4c1.9.7,4.1,1.3,6.7,1.9,3.7.8,6.9,1.8,9.8,3,2.9,1.2,5.3,2.7,7.3,4.4,2,1.7,3.5,3.5,4.6,5.6,1,2.1,1.6,4.3,1.6,6.7,0,4.5-1,8.3-3.1,11.6-2.1,3.3-5,5.8-8.8,7.5s-8.3,2.6-13.6,2.6h0Z"/>
  <path d="M231.8,326v-70h10.6l25.5,41.5h-5.1c0-.1,25.8-41.5,25.8-41.5h10v70h-10.8v-28.7c0-6,.1-11.4.5-16.2.3-4.8.8-9.6,1.5-14.3l1.4,3.7-22.9,35.4h-6.6l-22.2-35,1.1-4.1c.7,4.5,1.2,9,1.6,13.8s.4,10.3.4,16.8v28.7h-10.8Z"/>
  <path d="M400.7,326v-59.6h-19.6v-10.4h50.6v10.4h-20.2v59.6h-10.8Z"/>
  <path d="M529.2,326l-20.1-63h10.3l12.2,39.4c.4,1,.7,2.1,1,3.4.3,1.3.6,2.6.8,3.9.2,1.3.5,2.6.7,3.7.2,1.1.4,2.1.6,2.8h-2.6c.9-3.3,1.6-5.7,2.1-7.5.5-1.7.9-3.1,1.2-4,.3-.9.6-1.7.8-2.4l11.3-28.4h8.7l11,28.4c.6,1.4,1.1,2.9,1.6,4.3.5,1.4.9,2.8,1.2,4.2.4,1.4.7,2.9,1.2,4.5l-2.3.6c.3-1.6.5-2.9.7-3.8.1-.9.3-1.7.4-2.3.1-.6.2-1.2.4-1.8.1-.6.3-1.3.6-2.2.3-.9.6-2.1,1.1-3.7l12-39.1h10.4l-20.1,63h-6.8l-16.7-39.4.8.4-16,39.1h-6.6,0Z"/>
  <path d="M691.7,326v-59.6h-19.6v-10.4h50.6v10.4h-20.2v59.6h-10.8Z"/>
  <path d="M820.8,326v-70h10.8v70h-10.8ZM825.6,266.4v-10.4h40.6v10.4h-40.6ZM825.6,296.2v-10.4h36.1v10.4h-36.1Z"/>
  <path d="M984.1,327c-3.8,0-7.3-.5-10.5-1.5-3.2-1-6.2-2.5-8.8-4.5-2.6-2-5-4.5-7-7.5l7.4-8.5c3.3,4.7,6.4,7.9,9.4,9.7,3,1.8,6.6,2.7,10.7,2.7s4.8-.4,6.9-1.2c2.1-.8,3.7-1.9,4.9-3.3,1.2-1.4,1.8-3,1.8-4.8s-.2-2.3-.6-3.4c-.4-1.1-1-2-1.9-2.9-.8-.9-1.9-1.7-3.2-2.4-1.3-.7-2.8-1.4-4.5-2-1.7-.6-3.7-1-6-1.5-3.6-.7-6.7-1.7-9.4-2.9-2.7-1.2-4.9-2.7-6.7-4.5-1.8-1.8-3.1-3.9-4-6.1-.9-2.3-1.3-4.9-1.3-7.8s.6-5.4,1.8-7.8c1.2-2.4,2.9-4.5,5.1-6.2,2.2-1.8,4.7-3.1,7.7-4.1,2.9-1,6.1-1.4,9.5-1.4s6.9.5,9.9,1.4c3,.9,5.7,2.3,8,4.1,2.3,1.8,4.3,4.1,5.8,6.8l-7.6,7.5c-1.3-2.2-2.8-4-4.5-5.5-1.7-1.5-3.5-2.6-5.5-3.4-2-.8-4.1-1.1-6.4-1.1s-4.9.4-6.8,1.2c-1.9.8-3.5,1.9-4.6,3.4-1.1,1.4-1.7,3.1-1.7,5s.3,2.7.8,3.9c.5,1.2,1.3,2.2,2.4,3.1,1.1.9,2.6,1.7,4.5,2.4,1.9.7,4.1,1.3,6.7,1.9,3.7.8,6.9,1.8,9.8,3,2.9,1.2,5.3,2.7,7.3,4.4,2,1.7,3.5,3.5,4.6,5.6,1,2.1,1.5,4.3,1.5,6.7,0,4.5-1,8.3-3.1,11.6-2.1,3.3-5,5.8-8.8,7.5-3.8,1.8-8.3,2.6-13.6,2.6h0Z"/>
</svg>