<?xml version="1.0" encoding="UTF-8"?>
<svg id="Layer_1" data-name="Layer 1" xmlns="http://www.w3.org/2000/svg" viewBox="0 0 1102.67 944.335">
  <defs>
    <style>
      .cls-1 {
        fill: #f8ff6e;
      }

      .cls-2 {
        fill: none;
        stroke: #000;
        stroke-linecap: round;
        stroke-linejoin: round;
        stroke-width: 11px;
      }
    </style>
  </defs>
  <rect class="cls-1" x="473.277" y="590.931" width="153.433" height="260.781"/>
  <path d="M269.356,136.329c-28,0-50.668-14.396-50.668-32.178l.004-71.973c0-17.783,22.668-32.178,50.668-32.178s50.668,14.396,50.668,32.178v71.973c-.004,17.785-22.672,32.178-50.672,32.178h0Z"/>
  <path d="M829.356,136.329c-28,0-50.668-14.396-50.668-32.178l.004-71.973c0-17.783,22.668-32.178,50.668-32.178s50.668,14.396,50.668,32.178v71.973c1.328,17.785-22.672,32.178-50.672,32.178h0Z"/>
  <path d="M1009.326,54.999c36,0,65.332,29.332,65.332,65.332v732c0,36-29.332,65.332-65.332,65.332l-918.66.004c-36,0-65.332-29.332-65.332-65.332l-.004-732c0-36,29.332-65.332,65.332-65.332h78.668v34.668c0,54.668,44,98.668,98.668,98.668s98.668-44,98.668-98.668v-34.668h364v34.668c0,54.668,44,98.668,98.668,98.668s98.668-44,98.668-98.668v-34.668h81.328M1009.33,28.335h-105.33v61.332c0,40-32,72-72,72s-72-32-72-72V28.335h-418.67v61.332c0,40-32,72-72,72s-72-32-72-72V28.335h-105.33c-50.668,0-92,41.332-92,92v732c0,50.668,41.332,92,92,92h918.67c50.668,0,92-41.332,92-92V120.335c0-50.664-42.668-92-93.336-92h-.004,0Z"/>
  <rect class="cls-2" x="29.445" y="702.199" width="149.319" height="149.319"/>
  <rect class="cls-2" x="178.763" y="702.199" width="149.319" height="149.319"/>
  <rect class="cls-2" x="328.082" y="702.199" width="149.319" height="149.319"/>
  <rect class="cls-2" x="477.4" y="702.199" width="149.319" height="149.319"/>
  <rect class="cls-2" x="626.702" y="702.199" width="149.319" height="149.319"/>
  <rect class="cls-2" x="776.021" y="702.199" width="149.319" height="149.319"/>
  <rect class="cls-2" x="925.339" y="702.199" width="149.319" height="149.319"/>
  <path d="M604.779,724.123c-3.736-3.736-9.793-3.736-13.513,0l-39.206,39.206-39.206-39.206c-3.736-3.736-9.793-3.736-13.513,0-3.72,3.736-3.736,9.793,0,13.513l39.206,39.206-39.206,39.206c-3.736,3.736-3.736,9.793,0,13.513,3.736,3.72,9.793,3.736,13.513,0l39.206-39.206,39.206,39.206c3.736,3.736,9.793,3.736,13.513,0,3.72-3.736,3.736-9.793,0-13.513l-39.206-39.206,39.206-39.206c3.736-3.736,3.736-9.793,0-13.513h0Z"/>
</svg>