<?xml version="1.0" encoding="UTF-8"?>
<svg id="Layer_1" xmlns="http://www.w3.org/2000/svg" version="1.1" viewBox="0 0 1044.8 948.4">
  <!-- Generator: Adobe Illustrator 29.2.1, SVG Export Plug-In . SVG Version: 2.1.0 Build 116)  -->
  <path d="M916.9,114.5h-144.8V37.2c0-20.6-16.6-37.2-37.2-37.2s-37.2,16.6-37.2,37.2v77.3h-360.2V37.2c0-20.6-16.6-37.2-37.2-37.2s-37.2,16.6-37.2,37.2v77.3H127.8C57.3,114.5,0,171.9,0,242.3v578.2c0,70.5,57.4,127.8,127.8,127.8h789.2c70.5,0,127.8-57.4,127.8-127.8V242.3c0-70.4-57.4-127.8-127.9-127.8h0ZM127.8,176.5h135.5v43.6c0,20.6,16.6,37.2,37.2,37.2s37.2-16.6,37.2-37.2v-43.6h360.2v43.6c0,20.6,16.6,37.2,37.2,37.2s37.2-16.6,37.2-37.2v-43.6h144.8c36.3,0,65.8,29.5,65.8,65.8v104H61.9s0-104,0-104c0-36.3,29.6-65.8,65.9-65.8h0ZM916.9,886.4H127.8c-36.3,0-65.8-29.5-65.8-65.8v-412.3h920.9v412.1c0,36.4-29.6,65.9-65.9,65.9h0Z"/>
</svg>