<?xml version="1.0" encoding="UTF-8"?>
<svg id="Layer_1" data-name="Layer 1" xmlns="http://www.w3.org/2000/svg" viewBox="0 0 826.202 1459.22">
  <path d="M669.986,1227.81H156.206c-9.062,0-16.406-7.344-16.406-16.406v-597.11c0-150.7,122.6-273.3,273.3-273.3s273.3,122.6,273.3,273.3v597.11c0,9.062-7.344,16.41-16.406,16.41l-.008-.004ZM172.606,1194.998h480.97v-580.7c-.004-132.61-107.88-240.49-240.49-240.49s-240.48,107.88-240.48,240.49v580.7Z"/>
  <path d="M751.576,1343.52H74.626c-9.062,0-16.406-7.344-16.406-16.406v-115.72c0-9.062,7.344-16.406,16.406-16.406h676.95c9.062,0,16.406,7.344,16.406,16.406v115.72c.004,9.062-7.344,16.406-16.402,16.406h-.004ZM91.026,1310.708h644.14v-82.906H91.026v82.906Z"/>
  <path d="M809.796,1459.22H16.406c-9.062,0-16.406-7.344-16.406-16.406v-115.72c0-9.062,7.344-16.406,16.406-16.406h793.39c9.062,0,16.406,7.344,16.406,16.406v115.72c.004,9.062-7.344,16.406-16.402,16.406h-.004ZM32.816,1426.408h760.57v-82.906H32.816v82.906Z"/>
  <path d="M543.076,696.06h-259.96c-9.062,0-16.406-7.344-16.406-16.406v-88.242c0-9.062,7.344-16.406,16.406-16.406h259.96c9.062,0,16.406,7.344,16.406,16.406v88.242c0,9.062-7.348,16.406-16.406,16.406ZM299.526,663.248h227.15v-55.43h-227.15v55.43Z"/>
  <path d="M543.076,838.97h-259.96c-9.062,0-16.406-7.344-16.406-16.406s7.344-16.406,16.406-16.406h259.96c9.062,0,16.406,7.344,16.406,16.406s-7.348,16.406-16.406,16.406Z"/>
  <path d="M543.076,946.48h-259.96c-9.062,0-16.406-7.344-16.406-16.406s7.344-16.406,16.406-16.406h259.96c9.062,0,16.406,7.344,16.406,16.406s-7.348,16.406-16.406,16.406Z"/>
  <path d="M543.076,1054h-259.96c-9.062,0-16.406-7.344-16.406-16.406s7.344-16.406,16.406-16.406h259.96c9.062,0,16.406,7.344,16.406,16.406s-7.348,16.406-16.406,16.406Z"/>
  <path d="M404.941.167c-11.623.738-23.332,2.591-33.42,5.37-26.502,7.165-49.591,21.755-65.712,41.457-13.707,16.761-21.407,35.186-23.868,57.116-1.896,16.891,4.574,46.954,14.966,69.551,2.692,5.833,3.763,9.293,3.966,12.795.232,3.561-.333,5.905-2.403,10.002-2.229,4.429-3.459,8.395-3.705,11.898-.492,7.266,2.605,14.561,7.932,18.585,3.373,2.576,7.266,4.111,12.636,4.965,1.028.203,1.332.507,2.736,2.808,3.633,6.036,6.991,14.431,8.902,22.131,1.23,5.095,1.853,9.322,2.533,17.253,1.028,12.636,3.025,20.568,7.194,28.326,7.194,13.403,17.355,21.292,33.089,25.837,12.535,3.59,26.3,5.225,43.653,5.225,31.091-.029,51.99-5.225,65.221-16.197,7.7-6.398,14.199-18.064,16.588-29.759.376-1.896.97-6.6,1.346-10.494.362-3.908.724-7.874.854-8.771.333-2.866,2.07-10.697,3.17-14.431.999-3.358,4.805-13.794,6.904-18.86l.926-2.33,3.604-.593c5.862-.97,10.566-3.445,14.026-7.339,6.629-7.57,7.44-16.761,2.301-26.995-2.099-4.198-2.895-7.063-2.866-10.595,0-4.038.767-6.369,4.733-14.662,3.459-7.237,5.327-12.129,7.469-19.598,5.356-18.628,7.787-37.486,6.528-50.282-3.532-35.896-27.588-68.914-63.325-86.873-13.722-6.933-30.193-12.101-45.147-14.17-8.8-1.23-22.898-1.867-30.83-1.361v-.008ZM426.204,7.331c14.995,1.534,26.198,4.125,39.558,9.162,5.935,2.229,9.625,3.893,14.662,6.6,27.356,14.764,47.547,39.095,54.321,65.552,1.997,7.859,2.33,10.827,2.33,21.986,0,10.899-.333,14.561-2.2,24.635-2.533,13.49-6.238,24.953-11.97,37.026-3.228,6.832-4.067,9.553-4.227,14.329-.203,5.124.261,7.251,2.866,12.419,2.938,5.833,3.662,8.974,3.04,12.94-.434,2.895-2.2,6.528-4.067,8.424-4.603,4.632-9.539,5.862-17.499,4.371-3.17-.608-4.53-.709-7.063-.536-9.061.637-17.138,6.426-21.393,15.357-2.041,4.27-3.04,7.802-3.937,13.837-1.332,8.728-1.259,8.598-2.837,9.596-2.996,1.896-13.693,5.558-19.222,6.557-1.201.246-1.201.203-1.563-1.23-.203-.796-.536-3.069-.709-5.023-.391-3.937-.868-5.24-2.2-5.833-2.822-1.303-4.834.854-4.834,5.254,0,.941.304,3.242.68,5.066.391,1.838.622,3.402.564,3.474-.478.463-12.868,1.896-19.96,2.301l-3.604.188v-4.965c0-2.721-.174-5.399-.333-5.963-.97-2.692-5.37-2.721-6.296-.058-.203.593-.376,3.257-.376,5.992v4.965h-2.721c-5.399,0-20.235-1.636-21.002-2.301-.13-.13.072-1.693.434-3.532,1.534-7.425.072-11.898-3.561-10.986-1.94.492-2.403,1.462-2.765,5.659-.275,3.329-1.172,7.498-1.607,7.498-.058,0-1.332-.304-2.794-.666-6.904-1.766-14.069-5.095-18.093-8.395-.868-.738-.97-1.042-1.245-4.14-.391-4.56-.897-7.498-1.824-10.725-2.938-10.103-10.465-18.035-20.336-21.364-2.49-.84-7.324-1.332-9.799-1.028-8.12,1.028-9.293,1.129-11.319.724-2.909-.536-4.878-1.563-7.034-3.734-3.271-3.228-4.863-7.498-4.53-11.985.232-2.967.868-4.907,3.358-10.002,2.229-4.632,2.866-7.136,2.866-11.362,0-4.038-.999-8.135-3.17-12.969-6.123-13.693-9.423-23.087-12.318-35.158-4.4-18.122-4.936-30.816-1.94-45.49,4.632-22.884,18.73-44.684,38.762-59.984,20.452-15.589,45.015-24.462,73.806-26.618,6.267-.478,17.832-.405,23.101.13v.003ZM331.96,231.305c8.192,2.301,14.662,9.567,16.834,18.961.261,1.172.724,4.704.999,7.859.897,10.074,2.33,16.862,4.994,23.434,1.563,3.937,2.996,6.296,5.066,8.569,2.171,2.33,4.501,3.532,7.367,3.821,1.925.203,2.229.145,4.53-.999,1.766-.868,3.025-1.795,4.501-3.358,1.968-2.142,5.298-7.295,6.296-9.872.564-1.433.637-1.462,3.561-.955,3.43.564,14.127,1.592,19.005,1.824l4.661.232v3.402c.029,3.865.492,5.167,2.171,5.862,1.795.738,3.358.145,4.255-1.665.608-1.23.738-1.997.738-4.733v-3.257h3.126c3.676,0,11.666-.767,17.601-1.665,2.33-.376,4.501-.68,4.834-.637.391,0,.999.825,1.925,2.692,4.111,8.236,8.67,12.506,13.809,12.839,3.025.232,5.327-.666,7.657-2.967,5.268-5.196,7.773-12.607,10.725-31.598,1.578-10.233,2.244-12.925,3.937-16.457,1.534-3.097,3.069-5.095,5.63-7.208,3.474-2.924,6.774-4.096,11.464-4.125,1.766-.029,3.3.072,3.402.159.101.101-.796,2.605-1.968,5.602-5.5,13.866-7.83,23.492-9.191,38.024-1.071,11.695-2.33,17.094-5.5,23.535-3.908,7.99-10.465,14.662-18.324,18.686-15.733,8.077-45.101,11.362-73.123,8.265-19.497-2.2-33.392-7.063-41.556-14.59-3.59-3.329-8.598-10.697-10.566-15.56-2.432-6.065-3.532-11.536-4.53-22.667-.666-7.367-1.534-13.23-2.533-17.167-1.722-6.89-4.4-14.055-7.657-20.553-1.404-2.866-1.968-4.27-1.708-4.4.666-.304,5.63.13,7.57.666h0ZM365.944,273.658c1.578.637,4.472,1.563,6.47,2.099s3.662,1.042,3.734,1.1c.159.174-3.373,6.065-4.501,7.498-1.172,1.433-3.228,2.736-4.328,2.736-.897,0-3.17-2.07-4.198-3.792-1.607-2.707-4.501-10.971-4.501-12.737,0-.232.999.13,2.229.796s3.532,1.708,5.095,2.301h0ZM467.121,272.601c-.536,3.966-3.459,10.421-5.761,12.723-1.997,2.041-3.199,1.997-5.5-.159-1.838-1.708-3.662-4.241-5.066-6.977l-.868-1.722,2.432-.709c7.107-2.055,11.232-3.358,12.737-3.922,2.301-.912,2.258-.941,2.026.767h0Z"/>
  <path d="M352.79,132.665c-6.571.695-13.693,2.432-17.731,4.299-8.424,3.893-11.565,9.191-11.521,19.656,0,11.71,4.024,22.03,11.16,28.731,5.963,5.573,14.199,8.135,23.796,7.396,15.097-1.201,28.051-10.494,35.594-25.561,2.287-4.588,3.3-8.135,3.459-12.39.232-5.775-.796-9.003-3.893-12.434-3.575-3.966-11.767-7.498-21.031-9.104-3.069-.492-16.732-.926-19.83-.593h-.002ZM458.598,133.129c-14.228,1.375-23.998,5.602-27.4,11.869-3.488,6.426-2.229,16.298,3.199,25.359,3.734,6.166,8.106,11.232,12.708,14.662,4.863,3.633,11.898,6.6,17.789,7.425,3.937.608,11.435.275,14.865-.622,8.931-2.374,15.328-8.236,19.367-17.731,3.199-7.527,4.588-17.934,3.3-24.129-.767-3.633-2.142-6.065-4.936-8.728-4.169-3.966-10.335-6.47-18.802-7.642-4.429-.593-15.82-.854-20.09-.463h0ZM409.443,188.117c-6.658,3.3-16.356,17.167-19.164,27.429-3.17,11.493.333,17.731,9.64,17.123,3.358-.188,5.761-.999,8.988-2.895,3.575-2.128,4.299-2.099,8.771.13,4.661,2.301,7.223,3.011,10.595,2.808,6.325-.376,9.264-4.299,8.902-11.941-.246-5.298-2.113-10.494-6.036-16.993-4.53-7.396-10.103-13.533-13.968-15.357-2.591-1.201-5.659-1.332-7.729-.304h0Z"/>
</svg>