<?xml version="1.0" encoding="UTF-8"?>
<svg id="Layer_1" data-name="Layer 1" xmlns="http://www.w3.org/2000/svg" viewBox="0 0 1059.184 442.534">
  <defs>
    <style>
      .cls-1 {
        fill: #dfdfdf;
      }

      .cls-2 {
        fill: #ff1717;
        fill-rule: evenodd;
      }
    </style>
  </defs>
  <path class="cls-2" d="M513.659,229.709l28.002-54.203c1.451-2.808,3.828-2.856,5.31-.111l14.129,26.169c1.483,2.747,1.509,7.248.059,10.055l-57.932,112.136c-1.451,2.808-3.828,2.856-5.31.111l-59.225-109.688c-1.483-2.747-1.509-7.248-.059-10.055l13.821-26.752c1.451-2.808,3.828-2.856,5.31-.111l28.627,53.018-1.129-193.806c-.023-3.936,1.642-7.145,3.713-7.188l19.757-.414c2.072-.043,3.774,3.097,3.797,7.03l1.129,193.806h0v.003Z"/>
  <g>
    <path class="cls-1" d="M133.825,401.474c-29.068,0-54.667-5.742-76.797-17.235-22.138-11.484-41.147-28.72-57.027-51.705l37.511-43.087c16.554,23.658,32.442,40.046,47.65,49.17,15.207,9.125,33.282,13.687,54.239,13.687,12.839,0,24.499-2.027,34.977-6.083,10.471-4.055,18.756-9.631,24.839-16.728s9.125-15.208,9.125-24.332c0-6.083-1.014-11.825-3.042-17.235-2.028-5.401-5.156-10.304-9.378-14.7-4.229-4.388-9.631-8.443-16.221-12.166-6.59-3.715-14.281-7.01-23.064-9.885-8.792-2.867-18.93-5.322-30.415-7.35-24.332-4.729-44.529-11.825-60.576-21.291-16.055-9.457-28.055-21.456-35.991-35.99-7.944-14.526-11.913-31.429-11.913-50.691,0-14.193,3.121-27.373,9.378-39.539,6.25-12.166,14.867-22.724,25.853-31.682,10.978-8.95,23.904-15.88,38.779-20.783,14.867-4.895,30.921-7.35,48.157-7.35,27.373,0,51.277,5.322,71.728,15.968,20.442,10.645,36.577,26.106,48.41,46.382l-38.525,38.018c-10.139-16.554-22.225-29.227-36.244-38.018-14.027-8.784-29.655-13.18-46.89-13.18-13.18,0-24.672,2.027-34.47,6.083-9.806,4.055-17.489,9.718-23.064,16.981-5.576,7.271-8.364,15.801-8.364,25.599,0,7.097,1.347,13.607,4.055,19.517,2.701,5.916,6.843,11.151,12.419,15.714,5.576,4.562,13.093,8.617,22.558,12.165,9.457,3.549,20.783,6.678,33.963,9.379,18.582,4.055,35.144,9.211,49.678,15.461,14.526,6.257,26.866,13.607,37.004,22.05,10.138,8.451,17.821,17.916,23.064,28.388,5.235,10.479,7.857,21.797,7.857,33.963,0,22.645-5.243,42.248-15.714,58.802-10.479,16.562-25.346,29.321-44.608,38.271s-42.248,13.434-68.94,13.434ZM103.41,442.534v-230.138l49.17,16.728v213.41h-49.17ZM172.857,229.124l-49.17-16.728V0h49.17v229.124Z"/>
    <path class="cls-1" d="M341.909,380.437V92.511l18.755,14.194-69.954,37.004-14.7-47.65,94.792-50.691h26.359v335.068h-55.253ZM285.641,405.276v-52.719h169.309v52.719h-169.309Z"/>
    <path d="M505.134,410.852c-11.152,0-19.77-3.295-25.853-9.885s-9.125-15.968-9.125-28.134c0-11.152,3.208-20.276,9.631-27.373,6.416-7.097,14.867-10.646,25.346-10.646,11.152,0,19.77,3.295,25.853,9.885,6.083,6.59,9.124,15.968,9.124,28.134,0,11.152-3.215,20.276-9.631,27.373-6.423,7.097-14.875,10.646-25.345,10.646Z"/>
    <path class="cls-1" d="M655.179,408.824c-23.317,0-44.442-5.323-63.364-15.968-18.93-10.646-34.644-25.932-47.143-45.876l30.414-33.963c15.881,17.575,29.734,29.575,41.567,35.99,11.825,6.424,24.665,9.632,38.525,9.632s26.359-3.042,37.511-9.125c11.152-6.082,20.023-14.359,26.613-24.838,6.59-10.472,9.885-22.13,9.885-34.978,0-13.512-3.129-25.599-9.377-36.244-6.258-10.645-14.622-19.088-25.093-25.346-10.479-6.249-22.304-9.377-35.483-9.377-6.424,0-12.507.428-18.249,1.267-5.751.848-12.673,2.788-20.784,5.829-8.109,3.042-18.756,7.778-31.936,14.194l-28.893-39.032,20.784-150.553h191.612v50.691h-157.144l10.646-9.631-16.729,112.534-12.673-14.7c3.374-3.374,9.124-6.669,17.235-9.885,8.11-3.208,17.147-5.909,27.119-8.11,9.965-2.194,19.516-3.295,28.641-3.295,21.623,0,40.973,4.99,58.041,14.953,17.061,9.973,30.582,23.746,40.553,41.314,9.965,17.575,14.955,37.685,14.955,60.322,0,23.317-5.576,44.354-16.729,63.11s-26.359,33.63-45.622,44.608c-19.263,10.985-40.894,16.475-64.885,16.475Z"/>
    <path class="cls-1" d="M928.4,410.345c-27.041,0-50.271-7.43-69.701-22.305-19.436-14.866-34.391-35.903-44.861-63.11-10.479-27.199-15.714-59.562-15.714-97.073s5.235-69.866,15.714-97.074c10.471-27.199,25.426-48.236,44.861-63.11,19.43-14.867,42.66-22.304,69.701-22.304s50.352,7.437,69.953,22.304c19.596,14.875,34.637,35.911,45.115,63.11,10.471,27.208,15.715,59.562,15.715,97.074s-5.244,69.874-15.715,97.073c-10.479,27.207-25.52,48.244-45.115,63.11-19.602,14.875-42.92,22.305-69.953,22.305ZM928.4,360.667c24.664,0,43.762-11.571,57.281-34.724,13.512-23.144,20.275-55.839,20.275-98.087s-6.764-74.937-20.275-98.087c-13.52-23.144-32.617-34.724-57.281-34.724s-43.77,11.58-57.281,34.724c-13.52,23.151-20.275,55.847-20.275,98.087s6.756,74.943,20.275,98.087c13.512,23.152,32.609,34.724,57.281,34.724Z"/>
  </g>
</svg>