<?xml version="1.0" encoding="UTF-8"?>
<svg id="Layer_1" xmlns="http://www.w3.org/2000/svg" version="1.1" viewBox="0 0 1125 1125">
  <!-- Generator: Adobe Illustrator 29.2.1, SVG Export Plug-In . SVG Version: 2.1.0 Build 116)  -->
  <path d="M1064.3,66.9c-9.8,10.4-22.2,18-35.9,22,14.2-23.9,21.6-51.2,21.6-79V0h-37.5v9.9c0,21.7-5.9,43-17.4,61.5-11.4,18.5-27.8,33.4-47.3,43.1-6.4,3.2-12.7,6.9-18.6,11-18.2-11.7-29.3-31.8-29.3-53.5v-34.5h-37.5v34.5c0,30.7,14,59.8,38,79-20.9,23.9-33.9,53.7-37.2,85.3-2.2,2.4-4.3,4.9-6.3,7.5h-51.1c-1.8-34.3-15.1-67-37.8-92.8,24.1-19.2,38.1-48.2,38-79v-34.5h-37.5v34.5c0,21.7-11,41.8-29.3,53.5-5.9-4.1-12.2-7.7-18.6-11-19.5-9.7-35.8-24.6-47.3-43.1-11.4-18.5-17.4-39.8-17.4-61.5V0h-37.5v9.9c0,27.8,7.4,55.1,21.6,79-13.7-4-26.1-11.6-35.9-22-15.2-16.5-23.2-39.6-23.2-66.8h-37.5c0,36.9,11.4,68.8,33.1,92.3,23.5,25.5,57.4,39,98.2,39h2.6c8.3,6.5,17.1,12.1,26.5,16.8,28.7,14.2,50.2,39.6,59.5,70.2-13.9-7.8-29.7-12-45.7-12h-80.5c-6.2,0-12,3.1-15.5,8.2-3.5,5.2-4.2,11.7-1.9,17.5l18.6,46.6h0c10.6,26.7,32.9,47,60.4,55.1l-70.1,78.8H206.3c-23.8,0-47.1,6.5-67.5,18.8h-45c-24.9,0-48.7,9.9-66.3,27.5C9.9,476.3,0,500.2,0,525v93.8c0,5,2,9.7,5.5,13.3,3.5,3.5,8.3,5.5,13.3,5.5,19.5,0,38.7-4.4,56.2-12.9v10.5c0,21.6,5.9,42.9,17.2,61.3,11.3,18.5,27.4,33.5,46.6,43.4l-97.6,130.1c-2.4,3.2-3.8,7.2-3.8,11.2v225c0,5,2,9.7,5.5,13.3,3.5,3.5,8.3,5.5,13.3,5.5h75c5,0,9.7-2,13.3-5.5,3.5-3.5,5.5-8.3,5.5-13.3v-179.2l19.6-17.9,94.6,204.9h0c1.5,3.3,3.9,6,6.9,7.9,3,1.9,6.5,3,10.1,3h75c6,0,11.7-2.9,15.2-7.8,3.5-4.9,4.5-11.2,2.6-16.9l-72.9-218.7,49.3-131.6h137v128.2l-74,222.1c-1.9,5.7-.9,12,2.6,16.9,3.5,4.9,9.2,7.8,15.2,7.8h75c3.6,0,7.1-1,10.2-3,3-1.9,5.4-4.7,6.9-8l57.9-127.4v119.7c0,5,2,9.7,5.5,13.3,3.5,3.5,8.3,5.5,13.3,5.5h75c4.6,0,9.1-1.7,12.6-4.8,3.4-3.1,5.6-7.4,6.1-12l37.2-371.6,142-284.1,48.6,9.7h0c18.1,3.6,36.9-.5,51.8-11.3,14.9-10.9,24.7-27.4,26.8-45.8,2.2-18.3-3.5-36.7-15.5-50.7l-21.6-25.2c22-10,39.3-28.1,48.2-50.6l18.6-46.6h0c2.3-5.8,1.6-12.3-1.9-17.5-3.5-5.2-9.3-8.2-15.5-8.2h-80.5c-8,0-16.1,1.1-23.8,3.1,10.6-26.7,30.7-48.6,56.4-61.3,9.4-4.7,18.3-10.3,26.5-16.8h2.6c40.7,0,74.7-13.5,98.2-39,21.6-23.5,33.1-55.4,33.1-92.3h-37.5c0,27.3-8,50.4-23.2,66.8h0ZM37.5,598.1v-73.1c0-14.9,5.9-29.2,16.5-39.8,10.5-10.5,24.8-16.5,39.8-16.5h4.9c-15.4,22-23.7,48.2-23.6,75v37c-11,8.6-23.8,14.5-37.5,17.3h0ZM330.3,1087.5h-37l-94.5-204.8,94-85.4-29,77.3h0c-1.5,4-1.6,8.4-.2,12.5l66.8,200.3ZM494.2,1087.5h-36.9l66.8-200.3c.6-1.9,1-3.9,1-5.9v-131.2h56.2v145.9l-87.1,191.6ZM958.3,413.2c-3.1,4.7-7.6,8.4-12.9,10.6-5.2,2.2-11,2.7-16.6,1.6l-62.6-12.5c-4-.8-8.2-.3-11.9,1.5-3.7,1.8-6.7,4.8-8.5,8.5l-150,300c-1,2-1.7,4.2-1.9,6.5l-35.8,358.1h-39.3v-468.8h-37.5v93.8h-225v-93.8h-37.5v104.2l-200.1,181.9c-3.9,3.6-6.1,8.6-6.1,13.9v168.8h-37.5v-200l108.8-145c3.8-5,4.8-11.6,2.7-17.5-2.1-5.9-7-10.4-13.1-11.9-17.4-4.3-32.8-14.3-43.8-28.5-11-14.1-17-31.5-17-49.4v-91.4c0-24.9,9.9-48.7,27.5-66.3,17.6-17.6,41.4-27.5,66.3-27.5h431.2c5.4,0,10.5-2.3,14-6.3l100-112.5h0c3.2-3.6,4.9-8.3,4.7-13.2-.2-4.8-2.2-9.4-5.7-12.8-3.5-3.4-8.1-5.2-13-5.2h-11.7c-11.2,0-22.2-3.3-31.6-9.6-9.3-6.3-16.5-15.3-20.7-25.7l-8.4-20.9h52.8c20.1,0,38.6,10.8,48.6,28.1,3.4,5.8,9.5,9.4,16.2,9.4h89.8l83.5,97.5c4,4.7,6.4,10.7,6.8,16.9.4,6.2-1.3,12.4-4.7,17.6h0ZM984.8,243.8l-8.4,20.9c-6.8,17.1-21.6,29.8-39.6,33.9l-36.8-43v-1.8c9.4-6.5,20.6-10,32-10.1h52.8Z"/>
  <path d="M825,318.8h37.5v37.5h-37.5v-37.5Z"/>
</svg>