<?xml version="1.0" encoding="UTF-8"?>
<svg id="Layer_1" xmlns="http://www.w3.org/2000/svg" version="1.1" viewBox="0 0 905.9 1079.9">
  <!-- Generator: Adobe Illustrator 29.2.1, SVG Export Plug-In . SVG Version: 2.1.0 Build 116)  -->
  <path d="M489.1,1044h0s0,.3,0,.3c0,.6.1,1.2.1,1.8,0,3.7-1.6,6.9-4.2,9.1h-.1c-.8.8-1.8,1.4-2.8,1.9l-.6.3-.5.2h0c-1.2.4-2.4.7-3.8.7H12c-1.3,0-2.5-.2-3.8-.6h0s-.5-.2-.5-.2l-.6-.3c-1-.4-2-1-2.8-1.7h-.1c-2.6-2.3-4.2-5.6-4.2-9.2s0-1.2.1-1.8v-.3s0,0,0,0c8-68.6,16.3-131.5,25-188.6,8.7-57,17.8-108.9,27.4-155.8.7-6,5.8-10.6,11.9-10.6h360.2c6.1,0,11.2,4.6,11.9,10.6,9.6,46.8,18.8,98.8,27.4,155.7,8.7,57.2,17,120.1,25,188.8h0ZM685.9,290c-29.9-14.6-53.4-38.2-68.1-66.3-16.5-31.4-22-68.5-13.5-105.2,8.5-36.8,29.8-67.7,58.4-88.7S727-2.4,764.6.4s71.4,19.2,96.5,44.2c25.1,25.1,41.5,58.9,44.4,96.5,2.9,37.6-8.2,73.5-29.2,102.1-19.8,27-48.5,47.5-82.5,56.9-13.9,34.4-28.9,67.1-43.7,94.2-14.2,26-28.6,47.2-42,60.4-22.5,24.3-48.6,39.1-72.8,45.6-29,7.7-56.1,3.8-72.8-9.9-36.7-30-56.7-90.6-81.2-165-8.3-25.2-17.2-52-26.8-78.4v-.2c0,0,0,0,0,0l-.3-.8-.3-1.7v-.9c0,0,0-.3,0-.3-1-12.8,3.1-24.8,10.6-33.9,7.7-9.4,19-15.9,32.1-17.2,13-1.4,25.4,2.7,34.9,10.3,9.5,7.5,16.1,18.8,17.6,31.7,4.8,25.7,9.8,48.7,15.2,68.9,15.9-20.5,23.6-45.2,23-69.7-.6-24.3-9.2-48.4-25.9-68.1l-.6-.6c-17-19.7-39.8-32.1-64-36.3-24.1-4.2-49.6-.3-72.1,12.3l-.8.4c-48.8,28.9-94.8,68-139.4,113.5-45,46-88.5,98.6-131.6,154.3l-.2.2h0s-.1.2-.1.2h0s-.2.3-.2.3c-31.3,39-46.4,78.5-49,114-1.6,22.2,1.6,42.9,8.8,60.8,7,17.6,18,32.5,31.7,43.6,14.9,12,33.2,19.6,53.9,21.2h339.3c0,0,.8.3.8.3l.6.2h.3c0,0,0,0,0,0h.2c0,0,0,0,0,0h.2c0,0,.3.2.3.2h.3c0,0,0,0,0,0h.2c0,0,0,0,0,0h.2c0,0,0,0,0,0h.2c0,0,0,0,0,0h.2c0,0,0,0,0,0h.2c0,.1,0,.1,0,.1h.2c0,.1,0,.2,0,.2h.2c0,.1,0,.2,0,.2h.2c0,.1,0,.2,0,.2l.4.3h0s.2.2.2.2h0s.2.2.2.2h0s.2.2.2.2h0s.2.2.2.2h0s.2.2.2.2l.3.3v.2c.1,0,.2,0,.2,0v.2c.1,0,.2,0,.2,0v.2c.1,0,.2,0,.2,0v.2c.1,0,.2,0,.2,0v.2c.1,0,.2,0,.2,0v.2c.1,0,.2,0,.2,0v.2c.1,0,.2,0,.2,0v.2c.1,0,.2,0,.2,0v.2c.1,0,.2,0,.2,0v.2c.1,0,.2,0,.2,0v.2c.1,0,.2,0,.2,0v.2c0,0,.1,0,.1,0v.2c0,0,0,0,0,0v.2c0,0,0,0,0,0v.2c0,0,0,0,0,0v.2c0,0,0,0,0,0v.2c0,0,0,0,0,0v.2c0,0,.6,1.4.6,1.4v.6c.1,0,.2.3.2.3h0s0,.3,0,.3v.3c7.7,50.9,16.9,105.5,27.5,163.8,10.7,59,23.1,123,37.2,192.1,4.5,13,13.3,23.7,24.3,30.8,11.2,7.2,24.9,10.7,39,9.2,14-1.5,26.6-7.8,36-17.2l.7-.6c8.7-9,14.7-20.7,16.4-33.8-12.1-63.8-24.3-130-36.5-198.6-12.3-68.7-24.9-141.7-38.1-219.1v-.3c-3.8-17.1-9.8-30.9-18.7-40-8.2-8.5-19.5-13.3-34.5-13.1h-.7c-44.3-.4-87.9-.6-130-.6s-72.9.2-97.5.6h-1.2s-.3,0-.3,0h-.8c0-.1,0-.1,0-.1h-.2s0,0,0,0h-.6c0-.1-.2-.2-.2-.2l-.6-.2h-.3c0,0,0,0,0,0l-.8-.3h0l-.5-.2h-.3c0-.1-.3-.3-.3-.3l-.5-.3-1.2-.9-.2-.2-.5-.4h0c0,0,0-.2,0-.2h0c0,0,0-.2,0-.2h0c0,0,0-.2,0-.2h0c0,0-.1-.3-.1-.3h0s-.1-.2-.1-.2h0s-.1-.2-.1-.2h0s-.1-.2-.1-.2h0s-.1-.3-.1-.3h0s-.1-.3-.1-.3h0s-.3-.5-.3-.5h0s0-.3,0-.3h0s0-.3,0-.3l-.5-1h0s0-.3,0-.3c-.2-.7-.4-1.3-.5-1.9h0c0-.7-.1-1.3-.2-1.9v-1.2s0-.3,0-.3v-.8c.1,0,.1,0,.1,0v-.2s0,0,0,0v-.6c.1,0,.2-.2.2-.2l.2-.6h0s0-.3,0-.3h0c0,0,.3-.8.3-.8h0s.2-.5.2-.5h0s.1-.3.1-.3v-.3c.1,0,.4-.5.4-.5l.9-1.2h.1c0-.1.4-.6.4-.6,18.6-21.8,37.4-43.3,56.3-64.4,18.7-20.8,38.2-42,58.6-63.7,4.5-4.8,12.1-5,16.9-.5s5,12.1.5,16.9c-19.2,20.2-38.6,41.4-58.2,63.2-13.3,14.8-26.4,29.7-39.2,44.5,22.2-.2,46-.3,71.4-.3s77.1.2,130.4.7h.5c21.9-.1,38.8,7.2,51.5,20.3,12.2,12.6,20.2,30.3,24.8,51.7v.9c.1,0,.2.3.2.3h0c12.8,75.4,25.5,148.5,38.1,219.2,12.7,70.9,24.9,137.5,36.7,199.7v.3c0,0,0,.1,0,.1v.4c.1,0,.1.5.1.5v.6s0,2.1,0,2.1v.3c-2.2,19.1-10.7,36.2-23.4,49.3l-.7.8c-13.2,13.2-30.8,22-50.5,24.1-19.6,2.1-38.7-2.8-54.4-12.9-15.4-9.9-27.7-24.9-34-43.3v-.2c0,0-.5-1.3-.5-1.3v-.2s0,0,0,0v-.2s0,0,0,0v-.2c-14.1-68.7-26.5-133.2-37.5-193.2-10.3-56.5-19-108.2-26.2-154.8H195.8c0,0-.3-.1-.3-.1-25.6-2.1-48.4-11.5-67-26.5-17-13.7-30.3-32-38.9-53.4-8.5-21.1-12.3-45.4-10.5-71.3,2.9-40.1,19.6-84.3,54.1-127.2l.2-.2v-.2c.1,0,.3-.2.3-.2,43.6-56.2,87.7-109.6,133.3-156.2,46-47.1,93.8-87.4,144.5-117.5h.2c0-.1.9-.6.9-.6,27.5-15.4,58.5-20.2,87.8-15,29.5,5.1,57.4,20.2,78.1,44.3l.6.8c20.3,23.9,30.9,53.4,31.6,83.1.7,30-8.7,60.1-28.3,85.1-3.2,4.1-8.6,5.6-13.3,3.9,4.1,13.8,8.4,26,12.9,36.6,10.7,25.5,21.8,40.9,33,46.3,11.6-1.5,22.2-11.9,33.2-29.9,12.2-20.1,24.2-48.8,37.7-84.4h-.2ZM773.6,286.2l.4-1v-.3c6.1-15.3,10.2-30.9,13.9-45l2.3-8.8c1.4-7.1-.2-14.2-3.8-19.9-3.7-5.8-9.6-10.2-16.8-11.8-7.2-1.6-14.4-.2-20.3,3.3-5.8,3.5-10.2,9.2-12.1,16.2v.3s-.6,1.7-.6,1.7l-24.1,66.1-.2.6h0s0,.3,0,.3v.3c-15.6,41.7-29.2,75.2-43.5,98.6-15.8,25.9-32.9,40.4-54.2,41.4h-.3c-1.7.2-3.5,0-5.3-.7-18.5-6.8-34.8-27-48.9-60.4-13-30.8-24.6-73.9-34.8-129v-.3c0,0-.4-1.5-.4-1.5-.8-6.5-4-12.1-8.8-15.9-4.7-3.8-10.9-5.8-17.4-5.1-6.5.7-12.1,3.9-15.9,8.6-3.6,4.4-5.6,10-5.4,15.9,10.1,27.8,18.6,53.6,26.6,77.8,23.3,70.8,42.3,128.5,73.5,153.9,10.9,8.9,30,11.1,51.6,5.3,20.3-5.4,42.2-17.9,61.4-38.5l1.3-1.3c11.7-11.5,24.5-30.7,37.5-54.5,15.1-27.7,30.4-61.4,44.6-96.7v.2ZM804.1,271.1c21.4-9.2,39.5-23.9,52.9-42.1,17.7-24.1,27-54.4,24.6-86.1-2.4-31.7-16.3-60.2-37.4-81.3-21.1-21.1-49.6-35-81.4-37.3-31.7-2.4-62,7-86.1,24.7s-42,43.8-49.2,74.8c-7.2,31-2.5,62.4,11.4,88.9,12,23,31.1,42.4,55.3,54.8l19.9-54.6c3.5-13.2,11.9-23.9,22.7-30.5,11-6.7,24.6-9.3,38.1-6.2,13.5,3.1,24.7,11.3,31.6,22.2,6.9,10.7,9.8,24.2,7.1,37.6v.3s-.3.8-.3.8h0s-2.3,8.8-2.3,8.8c-2.1,8-4.3,16.5-6.9,25.2h0ZM525,238v-.7c-1.3-6.5,3-12.8,9.5-13.9s12.8,3.1,13.9,9.6l-23.4,5ZM74.3,713c-8.7,43.5-17.2,92.2-25.4,145.9-8.2,53.8-16,112.2-23.4,175.2h438.3c-7.4-63-15.2-121.5-23.4-175.4-8.2-53.7-16.6-102.3-25.4-145.8H74.3Z"/>
</svg>