<?xml version="1.0" encoding="UTF-8"?>
<svg width="1200pt" height="1200pt" version="1.1" viewBox="0 0 1200 1200" xmlns="http://www.w3.org/2000/svg">
 <path d="m1026.1 370.55c-3.5625-8.9531-13.734-13.219-22.547-9.6562l-68.672 27.562-8.9531-24c-1.7344-4.4062-5.1562-8.0625-9.4219-9.9375-4.4062-1.8281-9.3281-1.8281-13.734 0l-97.219 42.234c-8.8125 3.7969-12.844 14.062-9.0469 22.875 2.8125 6.4688 9.1875 10.406 15.938 10.406 2.3438 0 4.6406-0.46875 6.8438-1.4531l80.438-34.875 8.8125 23.531c1.5938 4.4062 5.0156 7.9688 9.3281 9.7969 4.2656 1.8281 9.1875 1.9688 13.453 0.23438l85.219-34.172c8.8125-3.5625 13.078-13.734 9.5625-22.547z"/>
 <path d="m821.63 498.47 36-13.125 5.7656 19.219c1.3594 4.6406 4.6406 8.4375 9.0469 10.641 2.4375 1.125 5.0156 1.7344 7.5938 1.7344 2.2031 0 4.2656-0.375 6.375-1.2188l58.875-23.156c8.9531-3.5625 13.359-13.594 9.7969-22.547s-13.594-13.359-22.547-9.7969l-41.391 16.266-5.625-18.75c-1.3594-4.5469-4.5469-8.3438-8.8125-10.547-4.2656-2.0625-9.1875-2.4375-13.734-0.84375l-53.25 19.359c-9.0469 3.3281-13.734 13.219-10.406 22.266 3.3281 9.1875 13.266 13.828 22.312 10.5z"/>
 <path d="m427.13 408.61c2.3438 1.125 4.875 1.5938 7.3594 1.5938 6.4688 0 12.844-3.6562 15.797-10.031 16.781-36.141 39.188-69.656 66.375-99.938 6.375-7.125 5.8594-18.141-1.2188-24.469-7.125-6.375-18.141-5.8594-24.469 1.2188-29.531 32.812-53.766 69.328-72 108.47-4.3594 8.8125-0.5625 19.125 8.1562 23.156z"/>
 <path d="m353.02 386.34c2.3438 1.125 4.875 1.5938 7.3594 1.5938 6.6094 0 12.844-3.6562 15.797-10.031 21.797-47.156 51.656-89.531 88.781-126.14 6.8438-6.75 6.8438-17.766 0.14062-24.609-6.75-6.8438-17.766-6.8438-24.609-0.14063-40.031 39.562-72.375 85.453-95.859 136.26-4.0781 8.5781-0.28125 18.984 8.3906 23.062z"/>
 <path d="m953.16 542.81h-205.22v-211.36c0-2.3438-0.23438-4.5469-0.375-6.75 7.4531 1.5938 15.047 2.5781 22.547 2.5781 56.578 0 110.2-43.125 127.36-106.88 19.969-74.672-17.531-149.76-83.25-167.39-66-17.625-135.94 28.641-155.86 103.12-9.6562 36.141-5.7656 72.375 8.2031 102.14-7.3594 0.84375-14.578 2.6719-21.562 5.8594-154.74 67.688-220.22 310.26-220.22 395.39v21.656c0 37.828 16.266 71.766 42.141 95.625h-101.77v-277.82c0-30.75-24.984-55.734-55.734-55.734h-81.328c-30.609 0-55.453 24.984-55.453 55.734v593.63c0 32.062 26.062 58.266 58.031 58.266h328.26c5.3906 0 10.547-2.4375 13.734-6.75 3.3281-4.2656 4.4062-9.7969 3.0469-15.047l-21.938-81.938c67.453-7.7344 120-65.156 120-134.58v-101.02h11.625v263.02c0 42.141 34.172 76.266 76.031 76.266 12.234 0 24-2.8125 34.547-8.3438 10.406 5.25 22.031 8.3438 34.406 8.3438 42.141 0 76.266-34.172 76.266-76.266l0.09375-349.78c0-17.859-5.7656-34.406-15.562-48h61.969c36.984 0 66.984-30.141 66.984-66.984s-30-66.984-66.984-66.984zm-261.42-377.76c12.984-48.234 52.547-81.188 93.562-81.188 6.6094 0 13.219 0.84375 19.734 2.5781 47.391 12.609 73.734 68.672 58.781 124.87-14.953 55.969-65.859 91.219-113.25 78.469-47.438-12.562-73.781-68.531-58.828-124.74zm-52.688 747.32c0 55.594-45.188 100.78-100.78 100.78h-172.74c-55.594 0-100.78-45.188-100.78-100.78 0-9.5625-7.8281-17.391-17.391-17.391s-17.391 7.7344-17.391 17.391c0 74.672 60.75 135.42 135.42 135.42h152.58l18.234 68.203h-305.53c-12.609 0-23.25-10.781-23.25-23.531v-593.48c0-11.391 9.4219-20.953 20.672-20.953h81.328c11.531 0 20.953 9.4219 20.953 20.953v277.74l-83.016-0.046875c-9.5625 0-17.391 7.8281-17.391 17.391s7.8281 17.391 17.391 17.391h391.69zm122.48 203.63c-22.781 0-41.25-18.609-41.25-41.531l-0.046875-263.02h33.938v263.02c0 15.188 4.5469 29.25 12.141 41.156-1.6406 0.23438-3.1875 0.375-4.7812 0.375zm110.44-41.531c0 22.875-18.609 41.531-41.531 41.531-22.875 0-41.531-18.609-41.531-41.531v-280.4c0-9.5625-7.8281-17.391-17.391-17.391h-216.14c-52.875 0-95.859-42.844-95.859-95.625v-4.2656h364.31c26.578 0 48.234 21.562 48.234 48v349.69zm81.188-432.32h-272.58c-17.766 0-32.344-14.438-32.344-32.344v-169.6c0-9.5625-7.8281-17.391-17.391-17.391s-17.391 7.8281-17.391 17.391v169.6c0 11.766 3.0469 22.641 8.3438 32.344h-161.39c7.8281-88.547 69.797-289.74 198.61-346.26 12.375-5.625 25.125-4.5469 36.75 3.1875 11.25 7.2188 17.531 18.75 17.531 32.438v228.74c0 9.5625 7.8281 17.391 17.391 17.391h222.61c17.766 0 32.344 14.438 32.344 32.344-0.1875 17.672-14.766 32.156-32.484 32.156z"/>
</svg>
