<?xml version="1.0" encoding="UTF-8"?>
<svg id="Layer_1" data-name="Layer 1" xmlns="http://www.w3.org/2000/svg" viewBox="0 0 1200.003 1200.013">
  <path d="M1181.249,600.005h-300c-3.469,0-6.883.957-9.824,2.773l-239.23,147.23h-127.45l31.145-22.238c2.68-1.93,4.82-4.5,6.168-7.5l93.75-206.25c2.117-4.668,2.25-9.992.336-14.738-1.914-4.742-5.68-8.531-10.445-10.426l-93.75-37.5c-9.375-3.73-20.008.602-24.094,9.789l-72.656,163.45-167.34,103.07c-25.988,15.957-46.969,38.645-60.957,65.305-21.391-15.188-47.473-24.207-75.652-24.207C58.875,768.763,0,827.638,0,900.013s58.875,131.25,131.25,131.25c20.156,0,39.168-4.688,56.25-12.844v50.344c0,72.375,58.875,131.25,131.25,131.25h318.75c10.352,0,18.75-8.398,18.75-18.75v-93.75c0-10.352-8.398-18.75-18.75-18.75h-243.75c-10.332,0-18.75-8.418-18.75-18.75,0-5.008,1.914-9.617,5.738-13.352,3.395-3.484,8.004-5.398,13.012-5.398h461.55l182.16,163.93c3.449,3.113,7.93,4.82,12.543,4.82.508,0,1.012-.02,1.539-.055,5.137-.414,9.883-2.945,13.105-6.977l75-93.75c6.168-7.707,5.305-18.863-1.969-25.539l-225-206.25c-3.469-3.168-7.988-4.93-12.676-4.93h-144.32l168.75-112.5h256.82c10.352,0,18.75-8.398,18.75-18.75v-112.5c0-10.352-8.398-18.75-18.75-18.75l-.003-.008ZM37.449,900.005c0-51.695,42.055-93.75,93.75-93.75s93.75,42.055,93.75,93.75-42.055,93.75-93.75,93.75-93.75-42.055-93.75-93.75ZM1162.449,712.505h-243.75c-3.695,0-7.332,1.106-10.406,3.148l-225,150c-6.883,4.594-9.938,13.125-7.539,21.039,2.383,7.894,9.695,13.312,17.945,13.312h198.96l206.7,189.47-51.637,64.539-172.73-155.46c-3.449-3.094-7.91-4.801-12.543-4.801h-468.75c-15.207,0-29.344,5.945-39.523,16.387-10.781,10.52-16.727,24.656-16.727,39.863,0,31.012,25.238,56.25,56.25,56.25h225v56.25h-300c-51.695,0-93.75-42.055-93.75-93.75v-77.062c23.156-23.68,37.5-56.023,37.5-91.688,0-29.758-10.07-57.148-26.832-79.18,10.5-25.164,28.352-46.801,51.844-61.219l172.31-106.12c3.227-1.988,5.773-4.894,7.293-8.344l67.668-152.25,58.742,23.492-83.551,183.8-127.16,90.824,21.789,30.508,47.648-34.012h185.25c3.469,0,6.883-.957,9.824-2.773l239.23-147.23h275.95l-.005,75.007Z"/>
  <path d="M118.619,400.315c15.676,16.293,21.77,43.086,12.957,58.461-2.289,3.992-4.82,8.008-7.367,12.055-12.148,19.273-27.281,43.258-19.426,70.727,5.512,19.273,19.855,30.938,32.512,41.211,5.699,4.648,11.102,9.039,15.113,13.648,11.512,13.199,15.414,33.918,10.199,54.074-4.969,19.199-21.02,44.812-38.156,60.898-6.039,5.664-7.633,14.605-3.957,22.012,3.207,6.449,9.769,10.406,16.781,10.406,1.051,0,2.117-.094,3.168-.262,50.586-8.644,184.2-64.988,202.61-130.18,5.645-19.969,9.355-49.273-4.988-75.523-2.551-4.648-5.586-8.981-8.68-13.293-2.457-3.449-4.988-6.844-6.883-10.633-7.051-14.102-2.758-32.906,2.082-46.18,2.211-6.055,4.781-12,7.387-17.926,169.59-4.926,305.57-104.02,305.57-224.81C637.541,100.93,494.551,0,318.791,0S.041,100.93.041,225c0,68.719,43.18,132.49,118.57,175.31l.008.005ZM318.799,37.505c155.08,0,281.25,84.113,281.25,187.5s-125.77,187.14-280.39,187.48c-7.445.02-14.176,4.426-17.156,11.27l-3.133,7.125c-3.523,7.914-7.031,15.844-9.992,23.98-10.574,28.988-10.707,55.199-.414,75.805,3,6,6.676,11.156,9.938,15.695,2.211,3.094,4.461,6.168,6.281,9.469,8.699,15.918,4.855,36.488,1.801,47.324-8.305,29.457-67.332,66.355-120.52,87.617,5.383-10.012,9.789-20.512,12.488-30.883,8.27-31.969,1.273-65.738-18.242-88.105-6.133-7.031-13.031-12.656-19.727-18.094-9.582-7.801-17.852-14.512-20.117-22.461-3.242-11.324,5.664-25.445,15.074-40.387,2.852-4.52,5.664-8.98,8.211-13.426,17.719-30.992,8.438-77.438-21.133-105.73-1.164-1.105-2.438-2.043-3.844-2.832-64.574-36.016-101.62-88.441-101.62-143.85,0-103.39,126.17-187.5,281.25-187.5l-.005.003Z"/>
  <path d="M388.309,257.015l33.617-33.621,33.617,33.621,26.516-26.516-33.621-33.617,33.621-33.617-26.516-26.516-33.617,33.621-33.617-33.621-26.516,26.516,33.621,33.617-33.621,33.617,26.516,26.516Z"/>
  <path d="M262.549,375.005h112.5c10.352,0,18.75-8.398,18.75-18.75,0-41.363-33.637-75-75-75s-75,33.637-75,75c0,10.352,8.398,18.75,18.75,18.75ZM318.799,318.755c13.855,0,25.969,7.555,32.457,18.75h-64.93c6.504-11.195,18.617-18.75,32.473-18.75Z"/>
  <path d="M300.049,862.505h37.5v37.5h-37.5v-37.5Z"/>
  <path d="M157.715,257.015l33.617-33.621,33.617,33.621,26.516-26.516-33.621-33.617,33.621-33.617-26.516-26.516-33.617,33.621-33.617-33.621-26.516,26.516,33.621,33.617-33.621,33.617,26.516,26.516Z"/>
</svg>