<?xml version="1.0" encoding="UTF-8"?>
<svg id="Layer_1" data-name="Layer 1" xmlns="http://www.w3.org/2000/svg" viewBox="0 0 912.871 1000.036">
  <path d="M905.254,715.711c-5.062-5.391-12.094-8.484-19.406-8.812,12.141-31.969-8.766-70.594-40.969-76.594-6-39.141-53.672-61.031-85.781-37.125-17.25-12.281-41.297-13.172-59.578-1.594-11.578-7.312-25.641-9.938-38.719-7.406-9.891-16.781-27.422-27.469-46.594-27.703V174.867c0-30.938-25.219-56.109-56.25-56.109h-100.36v-15.797c0-16.5-13.406-29.906-29.906-29.906h-44.953c-5.672-97.078-145.45-97.734-151.36,0h-44.953c-16.5,0-29.906,13.406-29.906,29.906v15.844H56.109c-30.938,0-56.109,25.172-56.109,56.109v126.89c.281,16.172,24.234,15.844,24.422,0v-126.89c0-17.484,14.25-31.734,31.734-31.734h100.41v37.359h-82.547c-6.75,0-12.188,5.484-12.188,12.188v733.31c0,6.75,5.438,12.188,12.188,12.188h466.22c2.953,0,5.531-1.172,7.594-2.906,5.953,2.672,12.141,4.922,18.469,6.609v21.844c0,3.562.656,6.938,1.641,10.172-3.188,1.031-6.562,1.594-9.984,1.594l-501.79.047c-17.484,0-31.734-14.25-31.734-31.734V350.64c.047-15.797-24.281-16.172-24.422,0v593.21c0,30.938,25.172,56.109,56.109,56.109,129.14.375,556.64-.797,675.42,0,19.922,0,36.141-16.219,36.141-36.141v-21.844c29.391-7.734,55.219-28.078,76.125-48.469,4.734-4.781,4.688-12.516-.094-17.25s-12.516-4.688-17.25.094c-23.906,23.484-54.797,46.219-90.703,45.516h-137.68c-18.75-.047-36.656-5.25-51.984-14.859-84.094-52.359-98.344-137.44-100.59-171.74.094-2.531,1.172-3.703,3.797-4.031,20.578,1.078,419.39-2.156,438.1,1.219,2.484,19.922-6.234,58.781-26.484,97.875-3.234,5.906-1.078,13.312,4.828,16.547s13.312,1.078,16.547-4.828c23.203-42.375,29.062-83.953,30.516-105,.516-7.828-2.25-15.562-7.594-21.281l.038-.055ZM590.724,946.241c8.531.047,144.1.047,152.63,0v17.578c0,6.469-5.25,11.766-11.766,11.766h-129.14c-4.828.328-4.781-2.25-6.938-5.578-1.734-2.391-5.156-2.719-4.781-6.188l-.005-17.578ZM457.594,143.181h100.36c17.578,0,31.875,14.25,31.875,31.734v387.14c-11.766,5.812-21.375,15.797-26.859,28.359-3.469-.703-7.031-1.125-10.547-1.031V192.773c0-6.75-5.438-12.188-12.188-12.188h-82.641v-37.404ZM180.934,102.962c0-3.047,2.484-5.484,5.484-5.484h58.125c7.312.188,13.359-6.984,12.047-14.156-9.75-71.906,99.469-81.422,101.77-8.156-.047,6.141-2.906,12.891,1.875,18,2.344,2.719,5.719,4.312,9.281,4.312h58.125c3.047,0,5.484,2.484,5.484,5.484v114.42c0,3.047-2.438,5.484-5.484,5.484h-241.26c-3.047,0-5.484-2.438-5.484-5.484v-114.47l.037.05ZM444.744,687.222c0,6.797,1.266,13.453,3.422,19.688-15.422.188-28.5,14.859-26.953,30.047,2.297,35.062,16.219,118.41,92.297,176.9H86.2V204.967h70.359v12.469c0,16.5,13.406,29.906,29.906,29.906h241.26c16.5,0,29.906-13.406,29.906-29.906v-12.469h70.406v390.47c-13.031,6.797-23.25,18.797-27.984,33.656-30.516.188-55.266,26.203-55.266,58.078l-.043.051ZM858.934,706.816h-383.86c-3.797-5.719-5.953-12.469-5.953-19.594,0-18.562,14.016-33.703,31.219-33.703,5.344.094,11.531,2.812,16.312-1.125,2.859-2.016,4.734-5.156,5.109-8.672,2.344-21.703,23.625-36.75,43.781-26.812,6.984,3.703,16.219-1.031,17.391-8.766,5.719-32.906,48.938-37.125,59.766-5.25,1.125,3.234,3.516,5.812,6.656,7.219,7.312,3.422,14.203-3.328,21.703-2.484,9.281,0,16.078,4.5,20.156,8.25,14.062,11.109,19.922-9.703,36.75-8.25,8.344,0,16.219,3.562,22.172,10.031,4.641,5.062,13.359,5.062,17.953,0,5.953-6.469,13.828-10.031,22.172-10.031,17.203,0,31.219,15.094,31.219,33.703,0,6.75,5.438,12.188,12.188,12.188,25.125-.797,40.219,32.859,25.266,53.297h0Z"/>
  <path d="M784.484,635.031c-11.531.047-11.531,17.625,0,17.672,11.531-.047,11.531-17.625,0-17.672Z"/>
  <path d="M759.554,671.031c-11.531.047-11.531,17.625,0,17.672,11.531-.047,11.531-17.625,0-17.672Z"/>
  <path d="M307.064,82.981c20.297-.328,20.25-30.516,0-30.844-20.297.328-20.25,30.516,0,30.844Z"/>
  <path d="M247.584,166.981h118.97c15.984-.281,16.078-24.141,0-24.422h-118.97c-15.984.281-16.078,24.141,0,24.422Z"/>
  <path d="M243.554,356.921l-62.109,62.109-25.781-25.781c-4.781-4.781-12.469-4.781-17.25,0s-4.781,12.469,0,17.25l34.406,34.406c4.547,4.734,12.703,4.734,17.25,0l70.734-70.734c11.203-11.297-5.906-28.5-17.25-17.25Z"/>
  <path d="M460.674,388.711h-140.81c-15.984.234-16.078,24.141,0,24.422h140.81c15.984-.234,16.078-24.141,0-24.422Z"/>
  <path d="M243.554,507.531l-62.109,62.109-25.781-25.781c-11.297-11.25-28.5,5.906-17.25,17.25l34.406,34.406c4.781,4.781,12.469,4.781,17.25,0l70.734-70.734c11.203-11.297-5.906-28.5-17.25-17.25Z"/>
  <path d="M460.674,539.311h-140.81c-15.984.234-16.078,24.141,0,24.422h140.81c15.984-.234,16.078-24.141,0-24.422Z"/>
  <path d="M243.554,658.091l-62.109,62.109-25.781-25.781c-4.781-4.781-12.469-4.781-17.25,0s-4.781,12.469,0,17.25l34.406,34.406c4.547,4.734,12.703,4.734,17.25,0l70.734-70.734c11.203-11.297-5.906-28.5-17.25-17.25Z"/>
  <path d="M379.394,689.921h-59.484c-16.031.281-16.031,24.141,0,24.422h59.484c16.031-.281,16.031-24.141,0-24.422Z"/>
</svg>