<?xml version="1.0" encoding="UTF-8"?>
<svg id="Layer_1" data-name="Layer 1" xmlns="http://www.w3.org/2000/svg" viewBox="0 0 1050.045 784.077">
  <path d="M758.719,477.364h-38.953l15.656-38.578h-.047c2.297-5.766,1.547-12.328-1.922-17.438-3.469-5.156-9.234-8.297-15.469-8.344h-115.03c-6.516,0-12.562,3.375-15.984,8.859-3.375,5.531-3.703,12.422-.797,18.234l18.562,37.266h-42.469l9.891-103.97c.516-5.25-1.219-10.5-4.781-14.391-3.562-3.938-8.578-6.141-13.875-6.141h-85.359c-5.438,0-10.547,2.344-14.109,6.375-3.562,4.078-5.203,9.469-4.5,14.859l13.781,103.27h-55.125l15.656-38.578c2.297-5.766,1.547-12.328-1.922-17.484-3.469-5.109-9.234-8.25-15.469-8.297h-115.08c-6.422.047-12.422,3.422-15.797,8.953-3.422,5.484-3.797,12.328-.984,18.141l18.562,37.266h-33.75c-10.359,0-18.75,8.391-18.75,18.75v269.21c0,4.969,2.016,9.703,5.531,13.219s8.25,5.531,13.219,5.531h49.828c10.359,0,18.75-8.391,18.75-18.75v-130.69h360.52v130.69c0,10.359,8.391,18.75,18.75,18.75h51.469c10.312,0,18.75-8.391,18.75-18.75v-269.21c0-10.359-8.438-18.75-18.75-18.75l-.003-.003ZM690.188,450.505l-10.875,26.859h-32.672l-13.406-26.859h56.953ZM532.878,390.364l-8.297,87h-23.438l-11.578-87h43.313ZM378.618,450.505l-10.875,26.859h-32.672l-13.359-26.859h56.906ZM290.493,746.565h-12.328v-171.24h12.281l.047,171.24ZM688.513,597.125h-360.52v-21.797h360.52v21.797ZM739.935,746.565h-13.922v-171.24h13.922v171.24ZM739.935,537.825h-461.76v-22.969h461.76v22.969Z"/>
  <path d="M213.509,566.944h-125.16v-207.14c0-4.969-1.969-9.75-5.484-13.266-3.516-3.516-8.297-5.484-13.266-5.484H18.786c-10.359,0-18.75,8.391-18.75,18.75C.224,467.423-.104,659.333.036,765.273v.047c.188,10.219,8.531,18.375,18.75,18.375s18.562-8.203,18.75-18.375v-47.719h157.22v47.719c.141,10.219,8.484,18.469,18.75,18.469s18.609-8.25,18.75-18.469v-179.63c0-10.359-8.391-18.75-18.75-18.75l.002.004ZM194.759,680.104H37.539v-28.922h157.22v28.922ZM194.759,613.682H37.539c.047-7.219-.047-219.79,0-235.08h13.312v207.1c0,4.969,1.969,9.75,5.484,13.266,3.516,3.516,8.297,5.484,13.266,5.484h125.16l-.002,9.23Z"/>
  <path d="M1050.039,359.804c0-4.969-1.969-9.75-5.484-13.266s-8.297-5.484-13.266-5.484h-59.203c-10.359,0-18.75,8.391-18.75,18.75v207.14h-136.22c-10.359,0-18.75,8.391-18.75,18.75v179.63c.188,10.219,8.531,18.375,18.75,18.375s18.562-8.203,18.75-18.375v-47.719h176.68v47.719c0,10.359,8.391,18.75,18.75,18.75s18.75-8.391,18.75-18.75l-.007-405.52ZM1012.539,680.094h-176.68v-28.922h176.68v28.922ZM1012.539,613.672h-176.68v-9.234h136.22c4.969,0,9.75-1.969,13.266-5.484,3.516-3.516,5.484-8.297,5.484-13.266v-207.14h21.703l.007,235.125Z"/>
  <path d="M145.589,217.224h241.87c10.359,0,18.75-8.391,18.75-18.75V28.834c0-4.969-1.969-9.75-5.484-13.266s-8.25-5.484-13.266-5.484h-241.87c-10.359,0-18.75,8.391-18.75,18.75v169.69-.047c.375,10.219,8.578,18.375,18.75,18.75v-.003ZM182.808,179.724l30.094-40.641,27.656,40.641h-57.75ZM294.088,179.724l14.625-18.797,13.594,18.797h-28.219ZM164.348,47.584h204.37v132.19c-3,.75-1.969-3.094-4.641-6.141l-39.656-54.891c-3.469-4.734-9-7.594-14.859-7.688-5.906-.094-11.484,2.531-15.141,7.125l-26.859,34.594-38.531-56.625c-3.469-4.969-9.094-8.016-15.141-8.156-6.094-.094-11.812,2.719-15.469,7.547l-34.125,46.078.052-94.034Z"/>
  <path d="M266.519,108.234c10.312-.141,18.562-8.531,18.562-18.844s-8.25-18.703-18.562-18.844c-10.312.141-18.562,8.531-18.562,18.844s8.25,18.703,18.562,18.844Z"/>
  <path d="M970.439,108.754c-4.594-145.03-214.87-144.98-219.47,0,4.641,145.03,214.87,144.98,219.47,0ZM788.469,108.754c2.484-95.25,141.98-95.203,144.47,0-2.484,95.25-141.98,95.25-144.47,0Z"/>
  <path d="M896.329,87.984l-16.922.938v-32.719c-.188-10.219-8.531-18.422-18.75-18.422s-18.562,8.203-18.75,18.422v52.547c.047,5.156,2.156,10.078,5.906,13.594s8.766,5.391,13.922,5.156l36.703-2.062c10.172-.797,17.906-9.562,17.297-19.781-.562-10.219-9.188-18.047-19.406-17.672h0Z"/>
</svg>