<?xml version="1.0" encoding="UTF-8"?>
<svg id="Layer_1" data-name="Layer 1" xmlns="http://www.w3.org/2000/svg" viewBox="0 0 1141.856 1200.008">
  <path d="M1127.03,1011.352l-12.137-9.859-4.309-70.062c-1.355-22.055-17.508-40.062-39.285-43.797l-36.723-6.297c30.711-39.039,53.531-84.234,66.887-133.62,26.062-96.391,13.027-197.16-36.703-283.75-77.23-134.46-230.89-207.53-383.59-182.97-44.898-43.527-100.32-75.223-162.35-91.996-49.395-13.355-99.93-16.418-149.12-9.562l13.066-34.895c7.746-20.688.332-43.715-18.035-56.004l-58.352-39.031-2.398-15.453C300.946,14.525,284.395.302,264.626.236L189.646.001c-1.562-.027-3.32.434-4.773,1.266l-118.36,67.98c-1.453.836-2.66,2.035-3.496,3.484l-37.578,64.883c-9.906,17.109-5.961,38.57,9.383,51.035l12.137,9.859,4.309,70.066c1.355,22.051,17.512,40.059,39.285,43.797l36.723,6.297c-30.711,39.039-53.531,84.234-66.887,133.62-25.773,95.328-13.285,194.93,35.098,280.87-48.414,23.539-88.645,37.508-89.07,37.656-3.781,1.305-6.344,4.832-6.414,8.836-.07,4,2.367,7.617,6.102,9.059,1.055.406,105.95,41.238,147.14,95.027,40.508,52.883,28.281,169.79,28.152,170.97-.449,4.125,1.824,8.062,5.617,9.742,3.789,1.676,8.238.707,10.988-2.398.645-.73,65.355-72.652,152.5-64.504,86.859,8.106,140.3,107.62,140.83,108.61,1.672,3.184,4.953,5.094,8.43,5.094.715,0,1.438-.078,2.16-.246,4.219-.984,7.246-4.691,7.363-9.02,1.527-56.801,22.898-95.031,65.18-116.85,21.73,10.723,44.66,19.406,68.578,25.875,32.465,8.777,65.418,13.117,98.168,13.117,17.082,0,34.098-1.215,50.961-3.566l-13.07,34.906c-7.746,20.688-.332,43.715,18.035,56.004l58.348,39.027,2.398,15.453c3.035,19.531,19.586,33.754,39.355,33.82l74.98.238h.031c1.664,0,3.301-.438,4.742-1.266l118.36-67.98c1.453-.836,2.66-2.035,3.496-3.484l37.578-64.883c9.906-17.121,5.961-38.586-9.383-51.047l-.012.005ZM1068.081,906.402c13.023,2.234,22.684,13.004,23.496,26.191l3.23,52.578-53.594-43.539c-7.391-6.004-16.699-9.168-26.23-8.934l-30.422.789c12.793-10.969,24.777-22.738,35.891-35.246l47.629,8.161ZM313.141,171.892c6.453-8.574,9.207-19.566,7.559-30.168l-10.355-66.645,43.785,29.285c10.984,7.344,15.418,21.117,10.785,33.492l-16.945,45.254c-18.613,3.738-36.98,8.91-54.953,15.516l20.124-26.734ZM264.555,19.282c10.344.035,19.004,7.477,20.594,17.699l16.73,107.67c.863,5.547-.578,11.301-3.957,15.785l-30.73,40.816L203.071,19.082l61.484.2ZM184.426,23.481l67.898,192.89c-5.809,2.953-11.57,6.051-17.262,9.324-5.691,3.27-11.273,6.68-16.75,10.211L85.912,80.057l98.514-56.575ZM46.816,173.861c-8.027-6.52-10.094-17.754-4.91-26.703l30.812-53.203,129.76,152.75c-.051.039-.102.074-.152.113l-55.969,1.449c-5.004.141-9.859-1.535-13.727-4.672l-85.813-69.735ZM93.754,293.591c-13.02-2.234-22.684-13.004-23.496-26.191l-3.23-52.578,53.594,43.539c7.125,5.789,16.039,8.945,25.203,8.945.34,0,.68-.004,1.023-.012l30.422-.789c-12.793,10.969-24.777,22.738-35.891,35.246l-47.625-8.161ZM78.762,457.261c24.734-91.48,83.609-167.85,165.79-215.05,82.176-47.191,177.81-59.562,269.29-34.836,91.48,24.734,167.85,83.609,215.05,165.79,12.844,22.363,23.234,46.031,30.918,70.406l-36.594,79.617c-12.516-15.441-33.371-41.176-38.637-47.672-6.094-21.52-14.875-42.34-26.113-61.906-75.125-130.8-242.66-176.1-373.46-100.97-130.8,75.125-176.1,242.66-100.97,373.46,23.844,41.516,58.191,76.121,99.332,100.07,38.258,22.277,81.664,34.992,125.88,36.98,2.316,4.434,4.715,8.828,7.203,13.16,13.711,23.875,29.773,45.871,47.852,65.773-140.47,17.105-279.65-51.848-350.69-175.54-47.203-82.172-59.574-177.8-34.84-269.28l-.011-.002ZM779.082,441.468c-4.644-15.289-10.336-30.312-16.945-44.961,38.699,3.25,75.289,15.02,107.6,34.016-6.91,15.621-18.656,51.184-2.633,86.746,15.234,33.809,48.68,59.988,65.078,71.34-16.531,20.312-55.508,73.473-55.508,123.2,0,50.48,28.812,104.04,39.711,122.49-14.648,13.934-31.062,26.215-49.043,36.539-81.363,46.73-178,43.367-254-.355,54.832-32.852,100.42-79.156,132.08-134.37,31.82-55.504,49-118.66,49.68-182.64.047-4.242-2.723-8-6.785-9.223-4.059-1.223-8.441.391-10.742,3.961l-64.938,100.66c-7.484-25.473-19.547-66.547-20.219-68.836-.781-2.777-2.801-5.125-5.606-6.258-4.012-1.613-8.606-.34-11.191,3.125-1.309,1.742-2.016,2.691-1.883,4.969-10.188,79.871-56,148.62-125.75,188.68-7.938,4.559-16.156,8.699-24.512,12.383-1.219-1.992-2.418-4.004-3.586-6.043-27.738-48.297-38.766-102.95-31.895-158.05.594-2.367.137-3.977-1.309-6.332-2.113-3.445-6.168-5.18-10.129-4.332-2.895.625-5.266,2.539-6.527,5.094-2.121,4.172-80.16,157.57-80.16,157.57-1.199,2.356-1.363,5.109-.453,7.594,3.094,8.438,6.527,16.789,10.25,25.039-78.887-6.637-149-48.68-191.97-115.18,28.355-21.535,49.285-43.363,62.242-64.973,42.273-70.496,31.258-156.17,21.551-199.26,39.363,26.27,82.203,37.953,127.84,34.867-40.938,68.766-59.633,150.32-50.277,233.28.48,4.254,3.734,7.66,7.961,8.34.504.078,1.008.117,1.508.117,3.676,0,7.09-2.133,8.656-5.559l73.289-160.07,17.578,45.285c1.48,3.812,5.254,6.297,9.301,6.07,4.082-.18,7.594-2.949,8.727-6.875,18.398-63.734,60.219-117.04,117.76-150.08,7.938-4.559,16.156-8.699,24.512-12.379,1.215,1.992,2.418,4.004,3.586,6.039,10.652,18.547,18.93,38.293,24.609,58.699.043.18.094.355.148.535.016.059.035.117.051.176l.008-.004c.73,2.184,2.293,4.113,3.906,6.102l47.402,58.488c2.074,2.559,5.336,3.859,8.586,3.453,3.266-.41,6.09-2.481,7.465-5.473l44.52-96.855c.973-2.117,1.133-4.52.457-6.75h0ZM955.842,585.138c-.422-2.82-2.09-5.309-4.535-6.769-.492-.293-49.16-29.691-66.836-68.918-12.016-26.668-4.07-54.516,1.562-68.457,30.27,21.102,56.051,48.957,75.254,82.391,33.859,58.949,42.734,127.56,24.992,193.18-10.559,39.051-29.793,74.266-56.059,103.52-11.398-20.258-34.496-66.461-34.496-108.27,0-54.387,57.188-118.23,57.766-118.87,1.91-2.121,2.773-4.988,2.352-7.809v.002ZM597.922,857.498c-.898.516-1.805,1.004-2.703,1.508-23.156-16.062-43.906-36.16-61.07-60,7.941-3.613,15.758-7.59,23.328-11.938,63.582-36.516,108.66-95.215,127.56-164.57l15.188,51.691c1.051,3.578,4.09,6.211,7.777,6.742,3.672.52,7.344-1.133,9.367-4.266l56.469-87.535c-12.617,111.38-77.809,212.02-175.91,268.36l-.006.008ZM432.492,438.418c-55.734,7.828-105.29-7.203-151.36-45.938-3.273-2.754-7.984-2.984-11.516-.562-3.527,2.422-5.008,6.898-3.621,10.949.414,1.211,40.828,121.88-12.406,210.66-11.457,19.105-30.199,38.691-55.73,58.301-66.105-120.96-23.5-273.69,96.605-342.68,81.367-46.734,178.01-43.363,254.02.363-46.938,28.113-86.148,65.477-115.99,108.9l-.002.007ZM563.892,342.488c.895-.516,1.801-1,2.699-1.508,23.156,16.062,43.91,36.16,61.074,60.004-7.941,3.613-15.758,7.59-23.328,11.934-54.117,31.082-95.297,78.828-118,136.17l-16.285-41.953c-1.387-3.57-4.77-5.961-8.598-6.074-3.777-.105-7.348,2.074-8.941,5.555l-66.789,145.88c-.84-126.95,66.406-245.82,178.16-310l.008-.008ZM492.79,1072.759c-23.129-32.895-71.539-87.746-140.55-94.188-68.73-6.43-123.31,30.27-150.26,53.312,1.523-39.531-.395-116.33-33.648-159.74-32.602-42.562-98.492-76.18-133.13-91.781,17.004-6.672,42.094-17.137,70.059-30.805,68.938,109.01,189.52,174.17,316.47,174.17,19.535,0,39.242-1.566,58.91-4.731,22.203,21.527,46.988,40.156,73.875,55.516-34.047,21.449-54.742,54.359-61.73,98.25l.004-.004ZM647.99,992.611c-91.48-24.734-167.85-83.609-215.05-165.79-9.406-16.383-17.539-33.547-24.207-51.082l58.41-114.81c1.648,43.867,13.898,86.57,36.223,125.44,75.125,130.8,242.66,176.1,373.46,100.97,63.363-36.395,108.76-95.285,127.83-165.82,19.07-70.539,9.535-144.28-26.859-207.64-23.875-41.57-58.277-76.211-99.488-100.17-38.234-22.227-81.59-34.91-125.75-36.891-2.312-4.426-4.684-8.824-7.172-13.156-13.711-23.875-29.773-45.871-47.852-65.773,140.46-17.105,279.65,51.848,350.69,175.54,47.199,82.176,59.57,177.81,34.832,269.29-24.734,91.48-83.609,167.85-165.79,215.05-82.168,47.199-177.8,59.57-269.28,34.836l.003.006ZM848.69,1028.099c-6.453,8.57-9.211,19.562-7.562,30.168l10.355,66.645-43.785-29.285c-10.984-7.348-15.418-21.117-10.785-33.492l16.941-45.246c18.629-3.742,36.996-8.945,54.984-15.559l-20.148,26.769ZM897.272,1180.708c-10.344-.035-19.004-7.477-20.594-17.699l-16.73-107.67c-.863-5.547.582-11.301,3.957-15.785l30.73-40.816,64.121,182.16-61.484-.19ZM977.405,1176.513l-67.914-192.93c5.809-2.953,11.582-6.016,17.273-9.285,5.691-3.269,11.273-6.68,16.754-10.211l132.4,155.85-98.513,56.576ZM1119.915,1052.833l-30.812,53.203-129.76-152.75c.051-.035.102-.074.152-.113l55.969-1.449c4.98-.148,9.859,1.531,13.727,4.672l85.816,69.723c8.027,6.527,10.09,17.758,4.906,26.711v.004Z"/>
</svg>