<?xml version="1.0" encoding="UTF-8"?>
<svg id="Layer_1" data-name="Layer 1" xmlns="http://www.w3.org/2000/svg" viewBox="0 0 1003.662 994.72">
  <path d="M988.356,333.032c-5.605-3.625-11.918-5.375-18.172-5.375-9.938,0-19.734,4.418-26.309,12.738l-9.711,12.293c-7.113,9.004-17.953,14.258-29.43,14.258-28.035,0-54.617,12.469-72.539,34.027l-26.266,31.594.059.047-99.352,109.85c-1.695,1.887-4.027,2.977-6.562,3.082-2.754.09-4.961-.801-6.801-2.539l-125.84-118.35c-38.406-36.117-88.586-56.008-141.3-56.008h-19.684c-.953,0-1.887.184-2.789.469-.152.047-.293.129-.445.184-.5.184-1.008.344-1.473.609l-11.656,6.762c-43.184,25.055-96.883,25.133-140.12.215l-12.141-6.988c-.211-.121-.473-.125-.695-.223-.828-.398-1.703-.695-2.621-.848-.211-.031-.418-.066-.633-.082-.246-.02-.484-.098-.734-.098h-15.105c-48.137,0-95.598,16.25-133.63,45.754C25.449,460.133-5.778,531.813.886,606.123l32.043,362.14c1.363,15.082,13.805,26.457,28.949,26.457h446.95c7.93,0,15.609-3.301,21.074-9.051,5.539-5.836,8.359-13.48,7.945-21.496l-5.769-116.07c-2.793-53.82,3.16-104.4,17.695-150.34.914-2.891,1.711-5.82,2.496-8.754.012-.059.047-.102.059-.16.008-.035.012-.07.016-.105,3.16-11.871,5.32-24.07,6.363-36.516l80.668,61.367c17.23,13.109,38.652,20.332,60.305,20.332,32.93,0,63.684-16.242,82.27-43.441l128.63-188.39,86.828-121.46c11.117-15.535,6.996-37.211-9.051-47.594v-.009ZM904.739,385.696c17.316,0,33.406-7.797,44.145-21.387l9.707-12.293c2.816-3.562,7.043-5.609,11.594-5.609,2.832,0,5.594.816,7.988,2.367,3.418,2.211,5.715,5.629,6.477,9.625s-.125,8.02-2.492,11.332l-80.25,112.27-68.844-52.73,13.559-16.309c14.402-17.324,35.586-27.262,58.117-27.262v-.004ZM114.229,694.236c-10.117-37.305-14.281-86.102-12.387-145.04.176-5.172-3.891-9.504-9.062-9.672-.102-.004-.203-.004-.312-.004-5.035,0-9.199,4-9.355,9.074-1.969,60.801,2.418,111.45,13.027,150.55,12.305,45.391,17.414,90.207,15.18,133.2l-7.215,143.62h-42.223c-5.375,0-9.785-4.039-10.273-9.379l-32.043-362.13c-6.09-67.934,22.449-133.44,76.348-175.24,28.289-21.953,62.32-35.707,97.727-40.125-10.043,8.137-20.152,19.156-27.441,33.957-15.227,30.867-13.973,68.988,3.727,113.3.133.336.367.594.535.906-11.906,9.449-19.574,24.008-19.574,40.352,0,28.434,23.137,51.562,51.562,51.562s51.562-23.129,51.562-51.562-23.137-51.562-51.562-51.562c-5.387,0-10.582.84-15.465,2.379-15.23-38.637-16.625-71.242-4.07-96.891,13.367-27.316,39.375-39.496,48.988-43.199l71.465,115.58c1.914,3.098,4.48,5.422,7.367,6.977v465.07H122.874l7.168-142.67c2.328-44.969-2.992-91.758-15.816-139.07l.004.017ZM202.448,544.806c18.09,0,32.812,14.723,32.812,32.812s-14.723,32.812-32.812,32.812-32.812-14.723-32.812-32.812,14.723-32.812,32.812-32.812ZM766.468,679.916c-15.078,22.082-40.047,35.266-66.777,35.266-17.578,0-34.965-5.863-48.953-16.508l-91.402-69.531c2.91-53.074-5.211-81.383-5.672-82.926-1.473-4.965-6.711-7.769-11.629-6.309-4.961,1.461-7.793,6.668-6.344,11.633.137.461,13.176,46.871-1.582,132.52-.719,2.688-1.363,5.402-2.195,8.047-15.227,48.09-21.461,100.9-18.559,156.95l5.769,116.07c.156,2.852-.852,5.562-2.812,7.637-1.969,2.07-4.625,3.207-7.481,3.207l-179.35.004v-465.06c2.891-1.555,5.457-3.883,7.375-6.984l70.723-114.38c17.086,10.965,67.141,51.266,40.07,134.06-.445,1.359-.5,2.731-.332,4.062-3.481-.465-7.004-.789-10.609-.789-43.973,0-79.75,35.773-79.75,79.75v42.18c0,.953.277,1.82.543,2.688,1.762,13.832,13.449,24.562,27.762,24.562,15.531,0,28.125-12.594,28.125-28.125s-12.594-28.125-28.125-28.125c-3.371,0-6.562.691-9.559,1.777v-14.957c0-33.637,27.363-61,61-61s61,27.363,61,61v14.883c-2.926-1.031-6.031-1.703-9.316-1.703-15.531,0-28.125,12.594-28.125,28.125s12.594,28.125,28.125,28.125c15.121,0,27.359-11.961,28.004-26.922.004-.117.066-.211.066-.328v-.328c.004-.188.055-.359.055-.547s-.051-.359-.055-.543v-40.758c0-34.301-21.809-63.523-52.25-74.762.516-.738.961-1.535,1.254-2.43,23.98-73.336-6.184-118.74-30.367-141.61,44.609,2.117,86.777,19.723,119.49,50.496l125.83,118.34c5.547,5.215,12.801,7.918,20.406,7.613,7.617-.309,14.621-3.59,19.719-9.234l100.43-111.04,70.129,53.387-124.632,182.517Z"/>
  <path d="M137.636,311.542h66.746c30.18,28.305,70.656,45.766,115.3,45.766s85.117-17.461,115.3-45.766h61.461c13.266,0,22.152-13.355,17.367-25.727-20.094-51.969-16.469-95.215-16.469-95.215C503.341,87.17,421.083,0,317.481,0s-185.86,87.168-179.86,190.6c0,0,1.879,42.73-17.488,95.602-4.508,12.285,4.422,25.34,17.508,25.34h-.005ZM319.676,338.558c-31.832,0-61.32-10.039-85.629-27.016-31.16-21.762-53.73-54.988-61.438-93.562,120.13-5.93,165.81-122.68,165.81-122.68,45.418,58.547,112.97,67.766,129.13,69.156,1.281,7.867,2.121,15.879,2.121,24.098,0,50.879-25.52,95.852-64.371,122.98-24.309,16.977-53.797,27.016-85.629,27.016l.006.008Z"/>
  <path d="M638.436,254.182h56.25v56.25c0,10.355,8.394,18.75,18.75,18.75h56.25c10.355,0,18.75-8.395,18.75-18.75v-56.25h56.25c10.355,0,18.75-8.395,18.75-18.75v-56.25c0-10.355-8.394-18.75-18.75-18.75h-56.25v-56.25c0-10.355-8.394-18.75-18.75-18.75h-56.25c-10.355,0-18.75,8.395-18.75,18.75v56.25h-56.25c-10.355,0-18.75,8.395-18.75,18.75v56.25c0,10.355,8.394,18.75,18.75,18.75Z"/>
</svg>