<?xml version="1.0" encoding="UTF-8"?>
<svg id="Layer_1" xmlns="http://www.w3.org/2000/svg" version="1.1" viewBox="0 0 901.1 890.4">
  <!-- Generator: Adobe Illustrator 29.2.1, SVG Export Plug-In . SVG Version: 2.1.0 Build 116)  -->
  <path d="M833.9,120c-13.2-4.8-28.8-9.6-36-14.4-10.8-8.4-15.6-21.6-21.6-36-10.8-31.2-25.2-69.6-110.4-69.6s-124.8,30-147.6,67.2c0,0-8.4,16.8-8.4,18-9.6,21.6-14.4,45.6-18,67.2-14.4,70.8-56.4,135.6-112.8,172.8-26.4,16.8-40.8,27.6-55.2,38.4-12,8.4-24,16.8-42,30-82.8,56.4-139.2,153.6-153.6,267.6-7.2,54-8.4,114,31.2,159.6-100.8-61.2-112.8-213.6-118.8-295.2-1.2-12-1.2-22.8-2.4-31.2l-2.4-18-36,3.6,2.4,18c1.2,8.4,1.2,18,2.4,28.8,8.3,103.2,26.3,344.4,242.3,355.2,2.4,1.2,6,1.2,8.4,2.4,42,4.8,87.6,6,135.6,6s64.8-1.2,93.6-1.2h76.8c16.8,0,31.2-7.2,38.4-20.4,9.6-16.8,8.4-42-3.6-62.4-12-21.6-33.6-34.8-56.4-34.8s-24,0-33.6-1.2c7.2-6,14.4-12,20.4-20.4,9.6-12,16.8-26.4,20.4-42l39.6-43.2c4.8,24,10.8,49.2,18,73.2,2.4,7.2,4.8,15.6,7.2,24,10.8,38.4,24,85.2,50.4,114l8.4,4.8c45.6,10.8,76.8,9.6,97.2-3.6,12-8.4,20.4-20.4,22.8-34.8,0,0,1.2-4.8,1.2-7.2-1.2-26.4-20.4-37.2-31.2-44.4-3.6-2.4-6-3.6-8.4-6-33.6-31.2-38.4-97.2-31.2-146.4,4.8-38.4,13.2-68.4,24-103.2,2.4-9.6,6-20.4,9.6-31.2,21.6-78,22.8-85.2-15.6-216,22.8,0,46.8-1.2,69.6-7.2,61.2-15.6,92.4-51.6,92.4-106.8s-36-43.2-67.2-54h0ZM801.5,246c-26.4,7.2-54,6-85.2,4.8l-25.2-1.2,7.2,24q43.2,146.4,22.8,219.6c-3.6,10.8-6,21.6-8.4,31.2-10.8,36-20.4,67.2-25.2,109.2-3.6,27.6-12,124.8,42,176.4,4.8,3.6,8.4,7.2,13.2,9.6,8.4,6,13.2,8.4,15.6,16.8-1.2,4.8-4.8,7.2-7.2,8.4-7.2,4.8-25.2,8.4-64.8,0-18-21.6-28.8-62.4-38.4-93.6-2.4-9.6-4.8-18-7.2-25.2-9.6-31.2-21.6-96-21.6-96,0,0-14.4-106.8-19.2-162l-3.6-42-36,3.6,3.6,42c3.6,49.2,8.4,98.4,15.6,147.6l-28.8,31.2c-2.4-16.8-7.2-32.4-15.6-48-28.8-51.6-66-73.2-110.4-67.2l-16.8,3.6,4.8,36,18-2.4c19.2-2.4,46.8,0,74.4,49.2,12,20.4,15.6,46.8,10.8,69.6l-1.2,4.8c-2.4,12-7.2,22.8-14.4,31.2-21.6,26.4-45.6,31.2-94.8,38.4l-7.2,1.2,2.4,36c38.4,0,60,1.2,81.6,2.4,18,1.2,33.6,2.4,58.8,2.4s21.6,12,25.2,16.8c6,10.8,7.2,21.6,3.6,26.4,0,1.2-2.4,2.4-8.4,2.4-20.4,0-46.8,0-76.8,1.2-69.6,1.2-153.6,2.4-217.2-3.6l-14.4-2.4c-19.2-6-42-24-64.8-49.2-25.2-27.6-31.2-67.2-22.8-132,13.2-103.2,63.6-192,139.2-243.6,19.2-13.2,31.2-21.6,43.2-30,14.4-10.8,28.8-20.4,54-37.2,48-31.2,86.4-80.4,110.4-136.8,4.8,10.8,12,20.4,20.4,28.8,20.4,20.4,49.2,28.8,70.8,34.8,6,1.2,14.4,4.8,24,4.8s14.4-1.2,21.6-4.8c24-13.2,22.8-44.4,21.6-56.4l-10.8-150-36,2.4,7.1,147.7c1.2,19.2-2.4,22.8-3.6,22.8-3.6,2.4-13.2-1.2-16.8-2.4-19.2-6-42-12-56.4-26.4s-20.4-33.6-20.4-57.6,6-44.4,10.8-67.2c15.6-36,46.8-61.2,121.2-61.2s66,18,76.8,46.8c6,16.8,13.2,36,32.4,51.6,10.8,8.4,28.8,14.4,46.8,20.4,13.2,4.8,40.8,13.2,43.2,20.4,0,38.5-19.2,60-63.6,72h0Z"/>
  <path d="M709.1,93.6c-10.8,0-20.4,9.6-20.4,20.4s9.6,20.4,20.4,20.4,20.4-9.6,20.4-20.4-9.6-20.4-20.4-20.4Z"/>
</svg>