<?xml version="1.0" encoding="UTF-8"?>
<svg id="Layer_1" data-name="Layer 1" xmlns="http://www.w3.org/2000/svg" viewBox="0 0 804 1089.141">
  <path d="M672,59.95H132c-6.703,0-12,5.297-12,12v900c0,6.703,5.297,12,12,12h540c6.703,0,12-5.297,12-12V71.95c0-6.516-5.297-12-12-12h0ZM660,959.95H144V83.95h516v876Z"/>
  <path d="M792,1020h-48V12c0-6.703-5.297-12-12-12H72c-6.703,0-12,5.297-12,12v1008H12c-6.703,0-12,5.297-12,12v45.141c0,6.703,5.297,12,12,12h780c6.703,0,12-5.297,12-12v-45.141c0-6.516-5.297-12-12-12ZM84,24h636v996H84V24ZM780,1065.1H24v-21.141h756v21.141Z"/>
  <path d="M194.86,642.66l36.703,18.234c1.688.938,3.609,1.219,5.297,1.219s3.609-.469,5.297-1.219l36.703-18.234c4.078-1.922,6.703-6.234,6.703-10.781v-79.688h61.453c16.781,0,30.234-13.688,30.234-30.234s-13.688-30.234-30.234-30.234h-61.453v-79.688c0-4.547-2.625-8.625-6.703-10.781l-36.703-18.234c-3.375-1.688-7.453-1.688-10.781,0l-36.703,18.234c-4.078,1.922-6.703,6.234-6.703,10.781v220.08c.422,4.312,2.812,8.391,6.891,10.547v-.002ZM347.07,515.44c3.609,0,6.234,2.859,6.234,6.234s-2.859,6.234-6.234,6.234h-97.922v-12.703h97.922v.234ZM212.39,419.206l24.703-12.234,24.703,12.234v72.234h-24.703c-6.703,0-12,5.297-12,12v36.703c0,6.703,5.297,12,12,12h24.703v72.234l-24.703,12.234-24.703-12.234v-205.171Z"/>
  <path d="M296.86,255.79h210c6.703,0,12-5.297,12-12v-66.75c0-6.703-5.297-12-12-12h-210c-6.703,0-12,5.297-12,12v66.703c0,6.75,5.531,12.047,12,12.047ZM308.86,189.04h186v42.703h-186v-42.703Z"/>
</svg>