<?xml version="1.0" encoding="UTF-8"?>
<svg id="Layer_1" data-name="Layer 1" xmlns="http://www.w3.org/2000/svg" viewBox="0 0 1079.865 992.241">
  <path d="M1079.663,824.201c0-10.453-3.469-12.703-13.219-12.703-61.453.375-122.86,0-184.45,0-3.234,0-6.469-.469-10.781-.938v-140.39h-8.625c-62.297,0-124.69-.469-186.94,0-10.781,0-13.453-3-13.219-13.547.609-38.062-.375-76.078.469-114.14.234-12.234-3.703-14.625-15-14.531-60.609.375-121.22,0-181.78-.141-6.844,0-12,.469-11.766-9.609.703-36.375.375-72.609.469-108.94v-22.453c-3-.234-4.688-.469-6.375-.469-63.609,0-127.22-.234-190.78.141-8.625,0-11.766-1.547-11.625-11.062.703-40.078.375-80.297.938-120.37,0-8.297-2.625-10.922-10.922-10.922-53.391.234-106.69-.141-159.94,0-4.453,0-47.859-.844-75.703-.844,0,10.922-.234,19.688-.234,28.453s2.766,10.078,10.078,9.938c18.234-.234,36.469.234,54.609.234,44.062.141,88.219.234,132.24.375,6.844,0,12.141.141,12,9.938-.609,37.547-.469,75.141-.609,112.78v18.938h14.062c60.609,0,121.22.141,181.78,0,9.234,0,12.469,2.391,12.375,12.234-.609,37.219-.375,74.391-.469,111.61v18.609h208.55c0,44.062.375,86.625-.234,129.14-.141,10.219,2.531,12.844,12.703,12.703,60.234-.703,120.37-.609,180.61-.844h15.469v142.31h12.234c61.453,0,122.76.375,184.22,0,9,0,12.609,1.688,12.375,11.766-.703,39.703-.375,79.453-.469,119.16,0,3.234.234,6.469.469,11.156,9,0,17.391-.703,25.688.234,9.938,1.219,12.141-2.531,12-11.859-.469-51.938-.609-103.92-.234-155.86l.038-.098Z"/>
  <path d="M146.723,61.261c67.453.469,45.375-7.547,101.39,31.219,156.61,108.38,313.31,216.61,470.06,324.94,79.078,54.609,158.06,109.31,237.14,163.78,5.625,3.844,12.844,7.453,19.453,7.688,31.781,1.219,63.469,1.453,95.297,1.312,3.234,0,8.859-4.453,9.141-7.219,1.078-10.312.469-20.766.469-31.922-28.688,0-55.688-.469-82.781.234-14.625.375-27-3.469-39-11.859-186-129.14-372.24-257.86-558.47-386.63-56.766-39.234-114-77.859-170.06-117.94-12-8.531-23.156-12.141-37.219-12-59.391.375-118.69.234-178.08.375-4.922,0-9.844.469-14.062.703v37.453c50.297,0,98.531-.375,146.86,0l-.137-.135Z"/>
  <path d="M518.623,41.201c1.781,1.219,3.609,2.156,5.391,3.375,62.297,43.078,124.55,86.156,186.94,129.24,7.312,5.062,9.141,9.609,2.766,17.156-9,10.781-16.781,22.453-25.688,34.547,50.391,4.453,98.391,8.625,148.31,13.078-21.375-45.141-42-88.781-63.375-134.06-11.297,16.312-21.234,30.703-31.547,45.703C668.716,99.849,597.179,50.302,524.579,0c-3.703,5.531-7.219,10.688-10.781,15.703-7.125,10.078-5.578,18.562,4.688,25.453l.137.045Z"/>
</svg>