<?xml version="1.0" encoding="UTF-8"?>
<svg width="1200pt" height="1200pt" version="1.1" viewBox="0 0 1200 1200" xmlns="http://www.w3.org/2000/svg">
 <path d="m437.63 292.78c2.4844 31.219 7.6406 62.062 15.422 92.016h293.9c7.7812-30 12.938-60.844 15.422-92.016 2.8125-35.859 2.1094-71.766-2.1562-107.58-1.1719-9.8438 5.9062-18.797 15.75-19.969s18.797 5.9062 19.969 15.75c2.5781 21.469 3.9375 43.031 4.0781 64.594h46.875c15.75 0 30.047-6.4219 40.406-16.781s16.781-24.656 16.781-40.406c0-29.062-11.719-55.594-30.656-74.953l-0.89062-0.84375c-19.453-19.453-46.312-31.547-75.797-31.547h-78.047c-3.8906 25.922-16.125 49.125-33.797 66.844-21.797 21.797-51.797 35.25-84.891 35.25-33.141 0-63.188-13.453-84.891-35.156-17.719-17.766-29.906-41.016-33.797-66.891h-78.047c-29.484 0-56.344 12.094-75.797 31.547-19.453 19.406-31.547 46.266-31.547 75.797 0 15.75 6.4219 30.047 16.781 40.406s24.703 16.781 40.406 16.781h46.875c0.1875-21.516 1.5469-43.078 4.0781-64.594 1.1719-9.8438 10.125-16.922 19.969-15.75s16.922 10.125 15.75 19.969c-4.3125 35.812-4.9688 71.719-2.1562 107.58zm615.14 806.39c-158.02 90.562-290.39 52.875-433.22 12.188l-19.547-5.5781-19.594 5.5781c-143.26 40.828-276 78.656-434.68-12.984-8.5781-4.9688-11.484-15.938-6.5156-24.516 35.719-61.875 61.5-138.74 88.125-218.39 41.156-123 84.562-252.42 171.47-350.02 0.60938-0.84375 1.3125-1.6406 2.0625-2.3438 11.578-13.266 19.359-28.312 22.969-44.203 4.0781-17.766 2.7656-34.688-2.1094-52.031-10.312-36.094-17.062-73.453-20.062-111.28-0.375-4.6406-0.70312-9.3281-0.9375-14.016h-47.719c-25.594 0-48.891-10.5-65.766-27.375-16.922-16.969-27.422-40.266-27.422-65.812 0-39.375 16.125-75.234 42.094-101.2 25.969-26.016 61.828-42.188 101.25-42.188h94.688c9.9375 0 18 8.0625 18 18 0 23.25 9.4219 44.297 24.609 59.484 15.234 15.188 36.234 24.609 59.484 24.609s44.297-9.4219 59.484-24.609 24.609-36.234 24.609-59.484c0-9.9375 8.0625-18 18-18h94.688c39.422 0 75.281 16.125 101.25 42.094l0.98438 1.0781c25.359 25.875 41.109 61.312 41.109 100.17 0 25.594-10.5 48.891-27.375 65.766-16.969 16.922-40.266 27.422-65.859 27.422h-47.719c-0.23438 4.6875-0.5625 9.375-0.9375 14.016-3 37.828-9.7031 75.188-20.062 111.28-4.875 17.344-6.1875 34.219-2.1094 52.031 3.6562 15.891 11.391 30.938 22.969 44.203 0.75 0.70312 1.4531 1.5 2.0625 2.3438 86.906 97.594 130.26 227.06 171.47 350.02 26.578 79.312 52.219 155.9 87.75 217.69 2.9062 4.5469 3.75 10.406 1.7344 15.891-1.7344 4.6406-5.1562 8.2031-9.3281 10.125zm-394.08-14.109c113.11 31.641 220.69 55.312 340.36 1.3594-30.891-9.1406-60.656-15.188-89.344-18.703-40.828-5.0625-79.781-5.1094-117.19-1.875-9.8906 0.84375-18.609-6.4688-19.453-16.406-0.84375-9.8906 6.4688-18.609 16.406-19.453 39.703-3.4219 81.094-3.375 124.64 2.0156 30.422 3.75 61.875 10.125 94.547 19.734-26.953-56.156-48.188-119.62-70.078-184.87-39.328-117.56-80.766-241.13-159.98-332.81h-85.266c26.016 30.375 47.672 63.984 64.547 99.938 22.828 48.609 36.844 101.3 40.922 155.58 0.70312 9.8906-6.7031 18.516-16.594 19.266-9.8906 0.70312-18.516-6.7031-19.266-16.594-3.75-50.062-16.641-98.484-37.547-143.06-19.922-42.422-47.203-81.422-80.953-115.12h-26.484v63.328c0 9.9375-8.0625 18-18 18s-18-8.0625-18-18v-63.328h-26.484c-33.703 33.656-61.031 72.703-80.953 115.12-20.953 44.578-33.797 93-37.547 143.06-0.70312 9.8906-9.375 17.297-19.266 16.594-9.8906-0.70312-17.297-9.375-16.594-19.266 4.0781-54.281 18.094-107.02 40.922-155.58 16.875-35.906 38.531-69.562 64.547-99.938h-85.266c-79.219 91.641-120.61 215.26-159.98 332.81-25.031 74.766-49.312 147.24-82.219 208.92 138.94 72.891 260.53 38.25 391.4 0.98438l24.141-6.8438 0.42188-0.09375 0.046875-0.046875c13.922-3.9375 28.359-7.875 44.016-11.953 9.5625-2.4844 19.406 3.2812 21.891 12.844 1.3125 5.1094 0.28125 10.312-2.3906 14.391zm-197.44-664.31c1.875 15.656 1.0312 31.172-2.3438 46.125-2.4844 10.734-6.3281 21.188-11.438 31.172h305.06c-5.1562-9.9844-9-20.438-11.438-31.172-3.4219-14.953-4.2188-30.422-2.3438-46.125zm120.71 332.26c0-9.9375 8.0625-18 18-18s18 8.0625 18 18v37.875c0 9.9375-8.0625 18-18 18s-18-8.0625-18-18zm0-86.906c0-9.9375 8.0625-18 18-18s18 8.0625 18 18v9.7969c0 9.9375-8.0625 18-18 18s-18-8.0625-18-18zm133.87 410.76c-9.75 1.875-19.172-4.5469-21-14.25-1.875-9.75 4.5469-19.172 14.25-21l9.7969-1.875c9.75-1.875 19.172 4.5469 21 14.25 1.875 9.75-4.5469 19.172-14.25 21z"/>
</svg>
