<?xml version="1.0" encoding="UTF-8"?>
<svg width="1200pt" height="1200pt" version="1.1" viewBox="0 0 1200 1200" xmlns="http://www.w3.org/2000/svg">
 <path d="m697.5 556.13c-2.4375 0-4.6875-0.375-6.9375-1.3125-4.6875-1.875-8.4375-5.4375-10.312-10.125l-27.75-66.188c-2.25-5.25-1.875-11.25 0.9375-16.312s7.6875-8.4375 13.312-9.375c46.688-7.5 90.188 4.125 126.19 33.562 5.0625 4.125 7.5 10.5 6.75 17.062-0.9375 6.375-5.0625 12-11.062 14.625l-83.438 36.75c-2.4375 1.125-5.0625 1.5-7.5 1.5zm-0.5625-68.062 10.312 24.562 33.75-14.812c-13.875-6.1875-28.5-9.375-44.062-9.75z"/>
 <path d="m756.74 407.63c-6.9375 0-13.688-3.9375-16.875-10.688l-93-192.56-131.44 69.375c-9.1875 4.875-20.438 1.3125-25.312-7.875s-1.3125-20.438 7.875-25.312l148.5-78.375c4.5-2.4375 9.75-2.8125 14.625-1.3125s8.8125 5.0625 11.062 9.75l101.44 210.19c4.5 9.375 0.5625 20.625-8.8125 24.938-2.625 1.3125-5.4375 1.875-8.0625 1.875z"/>
 <path d="m257.26 806.26c-33 0-64.5-18.562-79.875-50.062l-93.562-193.87c-20.625-42.562-4.125-93.75 37.312-116.25l31.688-17.25c9-5.0625 20.438-1.6875 25.5 7.5 4.875 9 1.6875 20.438-7.5 25.5l-31.688 17.25c-24 13.125-33.375 42.562-21.562 67.125l93.562 193.87c11.812 24.562 40.875 35.438 66 24.938l172.87-73.125c9.5625-4.125 20.625 0.375 24.562 9.9375 4.125 9.5625-0.375 20.625-9.9375 24.562l-172.87 73.125c-11.25 4.6875-23.062 7.125-34.5 7.125z"/>
 <path d="m624.37 657c-7.5 0-14.438-4.5-17.438-11.812-3.75-9.5625 0.9375-20.438 10.5-24.375l220.13-87.375c9.5625-3.75 20.625 0.9375 24.375 10.5s-0.9375 20.438-10.5 24.375l-220.13 87.375c-2.25 0.9375-4.6875 1.3125-6.9375 1.3125z"/>
 <path d="m259.69 729.74c-6.9375 0-13.688-3.9375-16.875-10.688l-59.062-122.63c-3.375-6.9375-2.0625-15.188 3-20.812s13.312-7.6875 20.438-4.875c8.4375 3.1875 33.562 8.625 57.375 5.4375 15.938-2.25 23.25-12 31.688-23.438 2.25-3 4.3125-5.625 6.375-8.25 3.9375-4.5 9.75-6.9375 15.562-6.75 2.4375 0 4.3125 0.75 6.1875 1.3125 5.4375 1.5 18 5.0625 36-1.5 14.812-5.4375 18-10.5 23.25-18.938 2.4375-3.9375 5.0625-7.875 8.25-11.812 6.375-7.6875 17.625-9 25.688-3.1875 2.4375 1.6875 7.875 2.8125 15 1.3125 7.875-1.6875 12.188-5.25 13.125-6.5625 3.9375-6.75 11.625-10.312 19.312-9s13.688 7.125 15.375 14.812l5.4375 26.812c1.3125 6.375-0.75 12.938-5.625 17.438-32.812 30.75-52.875 66.188-59.625 105.38-1.125 6.375-5.25 11.625-11.25 14.062l-142.13 60.188c-2.4375 0.9375-4.875 1.5-7.3125 1.5zm-25.875-115.69 35.062 72.75 116.44-49.312c7.6875-34.312 23.812-65.812 48-94.312-6.9375 0.75-13.875 0.375-20.062-0.9375-6.5625 10.125-15.938 21.938-40.125 30.938-20.625 7.5-37.875 6.75-48.938 4.6875-10.125 13.312-25.125 31.5-54.75 35.625-12 1.6875-24.375 1.6875-35.812 0.5625z"/>
 <path d="m236.06 557.06c-26.25 0-51.375-15.375-62.062-41.062l-29.625-70.312c-6.9375-16.5-7.125-34.688-0.375-51.375s19.688-29.625 36.375-36.562c34.125-14.25 73.688 1.6875 88.125 35.812 3.9375 9.5625-0.375 20.625-9.9375 24.562-9.5625 4.125-20.625-0.375-24.562-9.9375-6.375-15-23.812-22.125-39-15.75-7.3125 3-13.125 8.8125-16.125 16.125s-3 15.375 0 22.5l29.625 70.312c6.375 15.188 23.812 22.312 39 15.75 7.3125-3 13.125-8.8125 16.125-16.125s3-15.375 0-22.5c-3.9375-9.5625 0.375-20.625 9.9375-24.562 9.5625-4.125 20.625 0.375 24.562 9.9375 6.9375 16.5 7.125 34.688 0.375 51.375s-19.688 29.625-36.375 36.562c-8.4375 3.5625-17.25 5.25-26.062 5.25z"/>
 <path d="m325.69 519.37c-26.25 0-51.375-15.375-62.062-41.062l-44.625-105.75c-6.9375-16.5-7.125-34.688-0.375-51.375s19.688-29.625 36.375-36.562c34.125-14.438 73.688 1.6875 88.125 35.812 3.9375 9.5625-0.375 20.625-9.9375 24.562-9.5625 4.125-20.625-0.375-24.562-9.9375-6.375-15-23.812-22.125-39-15.75-7.3125 3-13.125 8.8125-16.125 16.125s-3 15.375 0 22.5l44.625 105.75c6.375 15 24 22.312 39 15.75 7.3125-3 13.125-8.8125 16.125-16.125s3-15.375 0-22.5c-3.9375-9.5625 0.375-20.625 9.9375-24.562 9.5625-4.125 20.625 0.375 24.562 9.9375 6.9375 16.5 7.125 34.688 0.375 51.375s-19.688 29.625-36.375 36.562c-8.4375 3.5625-17.25 5.25-26.062 5.25z"/>
 <path d="m415.31 481.87c-26.25 0-51.375-15.375-62.062-41.062l-55.875-132.56c-6.9375-16.5-7.125-34.688-0.375-51.375s19.688-29.625 36.375-36.562c34.125-14.25 73.688 1.6875 88.125 35.812l55.875 132.56c6.9375 16.5 7.125 34.688 0.375 51.375s-19.688 29.625-36.375 36.562c-8.4375 3.5625-17.25 5.25-26.062 5.25zm-56.062-229.31c-3.9375 0-7.875 0.75-11.625 2.25-7.3125 3-13.125 8.8125-16.125 16.125s-3 15.375 0 22.5l55.875 132.56c6.375 15 23.812 22.125 39 15.75 7.3125-3 13.125-8.8125 16.125-16.125s3-15.375 0-22.5l-55.875-132.56c-4.6875-11.25-15.938-18.188-27.562-18.188z"/>
 <path d="m490.87 411.56c-26.25 0-51.375-15.375-62.062-41.062-3.9375-9.5625 0.375-20.625 9.9375-24.562s20.625 0.375 24.562 9.9375c6.375 15.188 23.812 22.312 39 15.75 7.3125-3 13.125-8.8125 16.125-16.125s3-15.375 0-22.5l-41.438-98.062c-6.375-15-23.812-22.125-39-15.75-7.3125 3-13.125 8.8125-16.125 16.125s-3 15.375 0 22.5c3.9375 9.5625-0.375 20.625-9.9375 24.562-9.5625 4.125-20.625-0.375-24.562-9.9375-6.9375-16.5-7.125-34.688-0.375-51.375s19.688-29.625 36.375-36.562c34.312-14.25 73.688 1.6875 88.125 35.812l41.438 98.062c6.9375 16.5 7.125 34.688 0.375 51.375s-19.688 29.625-36.375 36.562c-8.4375 3.5625-17.25 5.25-26.062 5.25z"/>
 <path d="m652.69 1125h-301.13c-5.25 0-10.125-2.0625-13.688-6-3.5625-3.75-5.4375-8.8125-5.0625-14.062l16.312-240.37c-59.812-10.312-70.5-47.625-75.562-82.125-1.5-10.312 5.625-19.688 15.75-21.375 10.125-1.5 19.688 5.625 21.375 15.75 4.5 30.188 9.75 48.938 59.812 52.5 10.312 0.75 18 9.75 17.438 20.062l-16.312 238.13h258.94c-12-75.188-47.625-321.94-20.438-477 0.1875-1.125 0.5625-2.25 0.9375-3.375l8.4375-22.875c6-16.312 5.8125-34.312-0.9375-50.438l-33.188-80.438c-6-14.625-22.875-21.75-37.5-15.75-12.75 5.25-20.062 18.75-17.25 32.438l16.688 82.688c1.5 7.125-1.3125 14.438-7.3125 18.75-64.875 47.812-81.562 102.94-52.312 173.44 3.9375 9.5625-0.5625 20.625-10.125 24.562s-20.625-0.5625-24.562-10.125c-34.312-82.875-15.75-153.74 55.125-210.56l-14.25-71.25c-6.1875-31.125 10.5-62.438 39.75-74.438 33.75-13.875 72.562 2.25 86.438 36l33.188 80.438c10.312 24.938 10.688 52.5 1.5 77.625l-7.875 21.375c-29.812 174.56 23.812 481.13 24.375 484.31 0.9375 5.4375-0.5625 11.062-4.125 15.375s-8.8125 6.75-14.438 6.75z"/>
 <path d="m987.74 851.44h-2.4375c-31.312-4.125-135.37-20.25-160.13-58.312-27.188-41.812-15.562-77.438-6.9375-103.5 3.5625-10.688 6.75-20.812 6.1875-28.125-0.75-9.5625-4.125-21.562-7.5-33.188-7.3125-26.062-15.75-55.5 1.5-76.125 5.25-6.375 10.688-11.438 15.938-15.375-15.375-17.812-31.688-45.188-18.938-72 9.1875-19.5 24.188-42.938 34.875-58.688l-33.188-18.188c-18.75-10.125-30.75-29.062-32.062-50.25s8.0625-41.438 25.312-53.812c42.938-31.125 73.125-53.438 87.188-64.688 49.312-38.625 102.56-114.19 103.12-114.94 6-8.4375 17.625-10.5 26.062-4.6875 8.4375 6 10.5 17.625 4.6875 26.062-2.25 3.1875-56.812 80.812-110.62 123-14.625 11.438-44.438 33.562-88.312 65.438-6.9375 5.0625-10.5 12.75-9.9375 21.188s5.0625 15.562 12.562 19.688l51.375 28.125c4.6875 2.625 8.0625 7.125 9.375 12.188 1.125 5.25 0 10.688-3 15.188-0.375 0.375-29.812 41.625-43.312 70.312-5.625 12 16.125 36.375 28.312 46.125 5.8125 4.6875 8.4375 12.375 6.5625 19.5s-7.875 12.562-15.375 13.688c0 0-10.312 2.25-21.562 15.938-4.5 5.4375 1.6875 27.375 5.8125 41.812 3.75 13.312 7.6875 27 8.8125 40.312 1.125 14.812-3.375 29.062-7.875 42.75-7.875 24-14.625 44.625 2.8125 71.438 10.312 15.75 77.25 34.312 133.5 41.625 10.312 1.3125 17.438 10.688 16.125 21-1.3125 9.375-9.375 16.312-18.562 16.312z"/>
 <path d="m988.69 601.31h-2.0625c-46.5-5.0625-90.375-19.688-130.13-43.688-8.8125-5.4375-11.812-16.875-6.375-25.688s16.875-11.625 25.688-6.375c35.062 21.188 73.688 34.125 114.75 38.625 10.312 1.125 17.812 10.312 16.688 20.625-1.125 9.5625-9.1875 16.688-18.562 16.688z"/>
 <path d="m1106.3 1125h-300.56c-6.75 0-12.75-3.5625-16.125-9.375-17.625-30.188 15.562-51.375 37.5-65.25 12.75-8.0625 34.125-21.75 33.188-29.438-1.875-15.938 3.1875-31.875 13.875-44.062 10.875-12.188 26.438-19.125 42.562-19.125h189.74c10.312 0 18.75 8.4375 18.75 18.75v129.74c0 10.312-8.4375 18.75-18.75 18.75zm-267.74-37.5h249v-92.25h-171c-5.625 0-10.875 2.4375-14.625 6.5625-3.5625 4.125-5.25 9.375-4.6875 14.625 3.75 31.125-26.25 50.25-50.25 65.625-2.4375 1.5-5.4375 3.5625-8.4375 5.4375z"/>
 <path d="m1048.5 993c-10.312 0-18.75-8.4375-18.75-18.75 0-42.188-41.25-107.25-57.188-128.81-6.1875-8.25-4.3125-20.062 3.9375-26.25s20.062-4.5 26.25 3.9375c2.625 3.5625 64.5 87.75 64.5 151.13 0 10.312-8.4375 18.75-18.75 18.75z"/>
 <path d="m1111.9 293.26c-5.625 0-11.438-2.625-15-7.5-15.938-21.188-36.562-33.938-63.562-39-10.125-1.875-16.875-11.625-15-21.938 1.875-10.125 11.625-17.062 21.938-15 36.188 6.75 65.25 24.562 86.812 53.25 6.1875 8.25 4.5 20.062-3.75 26.25-3.375 2.4375-7.3125 3.75-11.25 3.75z"/>
</svg>
