<?xml version="1.0" encoding="UTF-8"?>
<svg id="Layer_1" data-name="Layer 1" xmlns="http://www.w3.org/2000/svg" viewBox="0 0 1033.492 1186.643">
  <path d="M266.091,276.761c76.348.48,138.49-61.398,138.99-137.65C405.362,62.552,343.561.261,267.201.001c-76.559-.332-138.72,61.266-138.93,137.64-.375,76.68,61.145,138.98,137.82,139.12h0Z"/>
  <path d="M166.891,333.501c.707-.828,1.465-1.613,2.188-2.414l-95.148-95.16-37.68,37.68,105.09,105.09c5.574-16.57,14.105-31.852,25.547-45.199l.004.003Z"/>
  <path d="M433.041,571.281c15.867,16.254,38.922,25.055,63.148,21.641l240.36-33.961c20.613-2.906,38-14.105,49.348-29.719l-32.465,87.105c-5.281,14.199,1.945,30,16.133,35.281,14.188,5.293,30-1.934,35.281-16.133l91.719-246.19c5.281-14.199-1.945-30-16.133-35.281-14.188-5.293-30,1.934-35.281,16.133l-45.426,121.93c.465-5.414.375-10.945-.414-16.559-5.691-40.359-43.055-68.465-83.426-62.773l-197.92,27.961-146.44-95.453c-72.387-87.254-236.35-31.68-215.07,104.57l73.012,364.79c.586,2.973,1.281,5.922,2.055,8.84l209.97-209.97-8.451-42.212Z"/>
  <path d="M1011.861,1060.631l-319.6-319.6c-14.215-14.215-32.812-21.387-51.453-21.574.453-.16.879-.332,1.332-.48l-179.62-.281-8.492-42.414-197.05,197.07c21.719,26.215,54.641,43.945,97.105,43.945h295.97l9.867.188,247.55,247.55c28.828,28.812,75.574,28.812,104.4,0,28.828-28.824,28.828-75.57.004-104.4l-.013-.003Z"/>
  <path d="M181.271,873.741c-4.785-10.879-8.48-22.281-10.84-34.027l-51.973-279.75c-16.133-89.094-133.33-67.867-116.88,21.348l50.238,278.39c19.348,100.95,92.785,188.15,198.33,219.71,27.188,7.895,54.906,11.945,81.961,11.945l178.45.785c90.559.375,91.16-118.51,1.039-117.81l-169.56-.934c-18.586-1.387-37.906-2.066-56.707-7.691-29.574-8.812-54.785-25.215-74.254-46.375l45.945-45.945c-12.039-14.547-20.625-31.68-25.48-49.879l-50.269,50.233Z"/>
</svg>