<?xml version="1.0" encoding="UTF-8"?>
<svg id="Layer_1" data-name="Layer 1" xmlns="http://www.w3.org/2000/svg" viewBox="0 0 1187.101 1138.91">
  <path d="M1099.96,580.92V133.92c0-73.781-60-133.92-133.92-133.92H421.59C250.45,0,111.14,139.22,111.14,310.45v265.92c-62.156,5.531-111.14,57.844-111.14,121.31v266.76c0,9.938,8.062,18,18,18h149.39c-3,85.312,66.844,156.61,152.06,156.47,85.219.141,155.06-71.156,152.06-156.47h316.69c-3,85.312,66.844,156.61,152.06,156.47,85.219.141,155.06-71.156,152.06-156.47h76.781c9.938,0,18-8.062,18-18v-266.76c0-54.703-35.766-101.62-87.141-116.77v.01ZM1151.101,759.32h-42v-57.844h42v57.844ZM36.001,755.383c43.688,15.938,43.688,79.312,0,95.297v-95.297ZM319.451,1102.773c-64.078,0-116.3-52.219-116.3-116.3,6.375-154.22,226.08-154.22,232.45,0,0,64.078-52.219,116.3-116.3,116.3h.15ZM940.211,1102.773c-64.078,0-116.3-52.219-116.3-116.3,6.375-154.22,226.08-154.22,232.45,0,0,64.078-52.219,116.3-116.3,116.3h.15ZM1151.051,946.303h-64.219c-42-148.55-251.39-148.45-293.39,0h-327.37c-42-148.55-251.39-148.45-293.39,0H35.992v-58.078c91.453-20.156,91.312-150.24,0-170.39v-20.297c-.234-50.297,43.312-89.297,93.141-85.781,9.938,0,18-8.062,18-18v-283.45c0-151.31,123.14-274.45,274.45-274.45h544.45c54,0,97.922,43.922,97.922,97.922v461.39c0,8.859,6.375,16.312,15.141,17.766,30.469,4.922,54.844,25.312,65.766,52.453h-53.766c-9.938,0-18,8.062-18,18v93.844c0,9.938,8.062,18,18,18h60v151.08l-.045-.009Z"/>
  <path d="M943.62,71.39h-154.55c-9.938,0-18,8.062-18,18v504.37c0,9.938,8.062,18,18,18h212.76c9.938,0,18-8.062,18-18l-.047-446.16c0-42-34.219-76.219-76.219-76.219l.056.009ZM983.792,575.86h-176.76V107.39h136.55c22.219,0,40.219,18,40.219,40.219l-.009,428.251Z"/>
  <path d="M711.4,71.39h-290.29c-126.14,0-228.71,102.61-228.71,228.71v293.63c0,9.938,8.062,18,18,18h501c9.938,0,18-8.062,18-18V89.41c0-9.938-8.062-18-18-18v-.02ZM228.4,300.1c0-106.31,86.391-192.71,192.71-192.71h60c-144,57.375-125.76,266.53,26.156,298.08-5.297,8.531-9.234,17.625-12.141,27.141h-.609l-10.547,1.453c-30.375-.469-60-9.609-92.391-18.938l-13.781-4.312c-28.312-9.141-58.312,2.297-74.625,26.156l-27.234-57c-10.547-21.141-42.375-6-32.531,15.469l35.625,74.625-50.766,27.469v-197.53l.134.097ZM228.4,575.86v-37.219l66.375-35.766,33,69.141c.703,1.453,1.688,2.766,2.625,3.938h-102v-.094ZM357.64,575.86c4.547-5.297,5.766-12.844,2.625-19.547l-7.078-14.859c37.781,11.297,64.312,18.375,100.69,23.062,12.938,1.453,27.844,2.391,42.141,1.078.375,3.469.938,6.844,1.688,10.219h-140.06l-.005.047ZM534.78,575.86c-1.547-5.062-2.625-10.312-3.234-15.609l89.391-14.062c23.297-4.219,17.766-38.859-5.766-35.531-23.156,3.703-99.375,16.078-121.31,18.938-14.062,1.312-24.938.234-36.609-.938-36.844-4.688-70.922-14.391-108.94-26.391-38.531-13.219-18.469-67.688,18.609-57,41.297,12.234,79.781,25.547,120.71,24.703,1.312,0,3.844-.234,5.062-.469l113.77-18.234c23.297-4.078,17.766-39-5.766-35.531l-63.844,10.219c4.781-8.156,11.062-15.609,18.609-21.703,13.547-10.219,4.688-33.375-12.141-32.062-68.062,3.938-125.86-51.703-125.63-119.62,6.609-159.14,233.39-159.24,240,0,0,41.391-21,79.312-56.297,101.53-6.609,4.078-9.703,12-7.922,19.547,1.922,7.547,8.391,13.078,16.219,13.547,39.141,2.859,70.219,34.453,72.234,73.453l4.688,87.375c.469,9.469-.703,18.844-3.609,27.703h-148.55l.326.134ZM693.41,394.46c-11.391-14.391-26.062-26.156-43.078-33.609,25.078-25.781,40.312-59.625,43.078-96.141v129.75ZM693.41,241.09c-4.547-60.938-44.062-112.08-98.531-133.55h98.531v133.55Z"/>
  <path d="M657.27,648.23h-54.141c-9.938,0-18,8.062-18,18s8.062,18,18,18h54.141c23.625-.375,23.625-35.625,0-36Z"/>
  <path d="M908.19,648.23h-54.141c-9.938,0-18,8.062-18,18s8.062,18,18,18h54.141c23.625-.375,23.625-35.625,0-36Z"/>
  <path d="M755.09,641.53c-9.938,0-18,8.062-18,18v241.92c0,9.938,8.062,18,18,18s18-8.062,18-18v-241.92c0-9.938-8.062-18-18-18Z"/>
  <path d="M319.48,917.53c-38.062,0-69,30.938-69,69,3.234,91.312,134.76,91.312,138,0,0-38.062-30.938-69-69-69ZM319.48,1019.53c-43.547-1.219-43.547-64.922,0-66,43.547,1.219,43.547,64.922,0,66Z"/>
  <path d="M940.25,917.53c-38.062,0-69,30.938-69,69,3.234,91.312,134.76,91.312,138,0,0-38.062-30.938-69-69-69ZM940.25,1019.53c-43.547-1.219-43.547-64.922,0-66,43.547,1.219,43.547,64.922,0,66Z"/>
</svg>