<?xml version="1.0" encoding="UTF-8"?>
<svg width="1200pt" height="1200pt" version="1.1" viewBox="0 0 1200 1200" xmlns="http://www.w3.org/2000/svg">
 <path d="m1106.4 611.53v-447c0-73.781-60-133.92-133.92-133.92h-544.45c-171.14 0-310.45 139.22-310.45 310.45v265.92c-62.156 5.5312-111.14 57.844-111.14 121.31v266.76c0 9.9375 8.0625 18 18 18h149.39c-3 85.312 66.844 156.61 152.06 156.47 85.219 0.14062 155.06-71.156 152.06-156.47h316.69c-3 85.312 66.844 156.61 152.06 156.47 85.219 0.14062 155.06-71.156 152.06-156.47h76.781c9.9375 0 18-8.0625 18-18v-266.76c0-54.703-35.766-101.62-87.141-116.77zm51.141 178.4h-42v-57.844h42zm-1115.1-3.9375c43.688 15.938 43.688 79.312 0 95.297zm283.45 347.39c-64.078 0-116.3-52.219-116.3-116.3 6.375-154.22 226.08-154.22 232.45 0 0 64.078-52.219 116.3-116.3 116.3zm620.76 0c-64.078 0-116.3-52.219-116.3-116.3 6.375-154.22 226.08-154.22 232.45 0 0 64.078-52.219 116.3-116.3 116.3zm210.84-156.47h-64.219c-42-148.55-251.39-148.45-293.39 0h-327.37c-42-148.55-251.39-148.45-293.39 0h-136.69v-58.078c91.453-20.156 91.312-150.24 0-170.39v-20.297c-0.23438-50.297 43.312-89.297 93.141-85.781 9.9375 0 18-8.0625 18-18v-283.45c0-151.31 123.14-274.45 274.45-274.45h544.45c54 0 97.922 43.922 97.922 97.922v461.39c0 8.8594 6.375 16.312 15.141 17.766 30.469 4.9219 54.844 25.312 65.766 52.453h-53.766c-9.9375 0-18 8.0625-18 18v93.844c0 9.9375 8.0625 18 18 18h60v151.08z"/>
 <path d="m950.06 102h-154.55c-9.9375 0-18 8.0625-18 18v504.37c0 9.9375 8.0625 18 18 18h212.76c9.9375 0 18-8.0625 18-18l-0.046875-446.16c0-42-34.219-76.219-76.219-76.219zm40.172 504.47h-176.76v-468.47h136.55c22.219 0 40.219 18 40.219 40.219z"/>
 <path d="m717.84 102h-290.29c-126.14 0-228.71 102.61-228.71 228.71v293.63c0 9.9375 8.0625 18 18 18h501c9.9375 0 18-8.0625 18-18v-504.32c0-9.9375-8.0625-18-18-18zm-483 228.71c0-106.31 86.391-192.71 192.71-192.71h60c-144 57.375-125.76 266.53 26.156 298.08-5.2969 8.5312-9.2344 17.625-12.141 27.141h-0.60938l-10.547 1.4531c-30.375-0.46875-60-9.6094-92.391-18.938l-13.781-4.3125c-28.312-9.1406-58.312 2.2969-74.625 26.156l-27.234-57c-10.547-21.141-42.375-6-32.531 15.469l35.625 74.625-50.766 27.469v-197.53zm0 275.76v-37.219l66.375-35.766 33 69.141c0.70312 1.4531 1.6875 2.7656 2.625 3.9375h-102zm129.24 0c4.5469-5.2969 5.7656-12.844 2.625-19.547l-7.0781-14.859c37.781 11.297 64.312 18.375 100.69 23.062 12.938 1.4531 27.844 2.3906 42.141 1.0781 0.375 3.4688 0.9375 6.8438 1.6875 10.219h-140.06zm177.14 0c-1.5469-5.0625-2.625-10.312-3.2344-15.609l89.391-14.062c23.297-4.2188 17.766-38.859-5.7656-35.531-23.156 3.7031-99.375 16.078-121.31 18.938-14.062 1.3125-24.938 0.23438-36.609-0.9375-36.844-4.6875-70.922-14.391-108.94-26.391-38.531-13.219-18.469-67.688 18.609-57 41.297 12.234 79.781 25.547 120.71 24.703 1.3125 0 3.8438-0.23438 5.0625-0.46875l113.77-18.234c23.297-4.0781 17.766-39-5.7656-35.531l-63.844 10.219c4.7812-8.1562 11.062-15.609 18.609-21.703 13.547-10.219 4.6875-33.375-12.141-32.062-68.062 3.9375-125.86-51.703-125.63-119.62 6.6094-159.14 233.39-159.24 240 0 0 41.391-21 79.312-56.297 101.53-6.6094 4.0781-9.7031 12-7.9219 19.547 1.9219 7.5469 8.3906 13.078 16.219 13.547 39.141 2.8594 70.219 34.453 72.234 73.453l4.6875 87.375c0.46875 9.4688-0.70313 18.844-3.6094 27.703h-148.55zm158.63-181.4c-11.391-14.391-26.062-26.156-43.078-33.609 25.078-25.781 40.312-59.625 43.078-96.141zm0-153.37c-4.5469-60.938-44.062-112.08-98.531-133.55h98.531z"/>
 <path d="m663.71 678.84h-54.141c-9.9375 0-18 8.0625-18 18s8.0625 18 18 18h54.141c23.625-0.375 23.625-35.625 0-36z"/>
 <path d="m914.63 678.84h-54.141c-9.9375 0-18 8.0625-18 18s8.0625 18 18 18h54.141c23.625-0.375 23.625-35.625 0-36z"/>
 <path d="m761.53 672.14c-9.9375 0-18 8.0625-18 18v241.92c0 9.9375 8.0625 18 18 18s18-8.0625 18-18v-241.92c0-9.9375-8.0625-18-18-18z"/>
 <path d="m325.92 948.14c-38.062 0-69 30.938-69 69 3.2344 91.312 134.76 91.312 138 0 0-38.062-30.938-69-69-69zm0 102c-43.547-1.2188-43.547-64.922 0-66 43.547 1.2188 43.547 64.922 0 66z"/>
 <path d="m946.69 948.14c-38.062 0-69 30.938-69 69 3.2344 91.312 134.76 91.312 138 0 0-38.062-30.938-69-69-69zm0 102c-43.547-1.2188-43.547-64.922 0-66 43.547 1.2188 43.547 64.922 0 66z"/>
</svg>
