<?xml version="1.0" encoding="UTF-8"?>
<svg id="Layer_1" data-name="Layer 1" xmlns="http://www.w3.org/2000/svg" viewBox="0 0 646.875 958.82">
  <path d="M18,732.039c-10.781,0-18,8.391-18,18,0,64.781,26.391,132,67.219,170.39,26.391,25.219,58.781,38.391,93.609,38.391h7.219c103.22-6,128.39-93.609,150-170.39,7.219-27.609,14.391-52.781,25.219-74.391,24-50.391,63.609-72,108-96,26.391-14.391,52.781-28.781,79.219-50.391,72-61.219,116.39-152.39,116.39-244.78s-40.781-181.22-112.78-243.61C463.314,18.039,368.485-10.742,276.095,3.649,118.875,26.43.095,168.039.095,333.649c0,10.781,8.391,18,18,18s18-8.391,18-18c0-147.61,105.61-273.61,244.78-292.78,84-12,164.39,12,228,67.219,63.609,55.219,99.609,134.39,99.609,216s-38.391,162-103.22,217.22c-22.781,19.219-48,32.391-72,46.781-46.781,25.219-94.781,51.609-123.61,112.78-12,24-19.219,52.781-27.609,80.391-24,86.391-44.391,139.22-116.39,144-27.609,1.219-52.781-8.391-74.391-27.609-38.391-36-56.391-98.391-56.391-144,1.125-13.219-7.312-21.609-16.875-21.609l.002-.003ZM327.56,508.819c-9.609,8.391-20.391,14.391-32.391,20.391-21.609,12-46.781,25.219-62.391,57.609-6,12-9.609,25.219-13.219,38.391-10.781,40.828-19.172,57.609-44.391,60.047-9.609,0-19.219-2.391-27.609-10.781-13.219-13.219-22.781-37.219-22.781-60,0-10.781-8.391-18-18-18s-18,8.391-18,18c0,32.391,13.219,67.219,34.781,86.391,14.438,13.172,31.219,20.391,50.438,20.391h4.781c55.219-2.391,68.391-51.609,78-86.391,3.609-12,6-24,10.781-32.391,9.609-20.391,26.391-28.781,46.781-40.781,12-7.219,25.219-13.219,38.391-24,36-31.219,57.609-75.609,57.609-121.22s-20.391-90-55.219-121.22c-34.781-30-81.609-44.391-127.22-37.219-39.609,6-74.391,26.391-99.609,56.391,0-90,67.219-164.39,150-168h6c86.391,0,156,69.609,156,156,0,10.781,8.391,18,18,18s18-8.391,18-18c0-106.78-86.391-193.22-193.22-193.22h-7.219c-102,3.609-186,96-186,205.22v49.219c0,9.609,2.391,19.219,6,27.609,0,1.219,1.219,2.391,1.219,3.609,3.609,6,7.219,12,12,18,13.219,13.219,32.391,21.609,52.781,21.609,22.781,0,42,18,42,40.781,0,21.609-18,40.781-40.781,40.781-10.781,0-18,8.391-18,18s8.391,18,18,18c42,0,76.781-34.781,76.781-76.781s-34.781-76.781-78-76.781c-10.781,0-20.391-3.609-27.609-10.781-1.219-1.219-1.219-2.391-2.391-3.609,14.391-46.781,52.781-80.391,99.609-87.609,36-4.781,70.781,4.781,98.391,28.781s43.219,57.609,43.219,92.391c-1.078,32.391-17.906,67.172-45.516,91.172h.003Z"/>
</svg>