<?xml version="1.0" encoding="UTF-8"?>
<svg width="1200pt" height="1200pt" version="1.1" viewBox="0 0 1200 1200" xmlns="http://www.w3.org/2000/svg">
 <path d="m564.71 615.52c49.406-1.4062 101.62-29.625 101.62-29.625s-31.078-52.219-29.625-94.594c55.078-14.109 107.3 5.625 108.7 2.8125 9.8906-25.406 16.922-55.078 15.516-83.297-2.8125-111.52-94.594-199.08-204.71-197.63-111.52 2.8125-199.08 94.594-197.63 204.71 2.8125 111.52 94.594 200.48 206.11 197.63z"/>
 <path d="m986.81 701.63c-2.8125-8.4844-21.188-38.109-35.297-52.219-5.625-5.625-81.891-84.703-81.891-84.703-9.8906 5.625-16.922 18.375-19.781 29.625-2.8125 21.188 12.703 31.078 26.812 45.188 11.297 12.703 52.219 52.219 38.109 97.406-8.4844 21.188-25.406 24-42.375 14.109l-56.484-63.516c-8.4844-5.625-21.188-11.297-33.891-7.0781-8.4844 2.8125-14.109 7.0781-18.375 14.109 0 0 42.375 56.484 45.188 70.594 5.625 25.406-39.516 62.109-39.516 62.109l-160.82 144.05-18.375-172.22h-1.4062c-4.2188-56.484-29.625-122.81-112.92-176.48-60.703-38.109-208.92-50.812-278.11 77.625-31.078 62.156-197.68 403.78-197.68 403.78v96h392.48l-35.297-255.52c-1.4062-11.297 5.625-21.188 16.922-22.594 11.297-1.4062 21.188 5.625 22.594 16.922l35.297 261.19h189.19s355.78-368.48 371.29-398.11c28.219-46.594-5.6719-100.27-5.6719-100.27z"/>
 <path d="m715.78 557.63c-7.0781 9.8906-9.8906 22.594-8.4844 36.703 2.8125 19.781 15.516 38.109 33.891 52.219s39.516 19.781 59.297 16.922c14.109-1.4062 25.406-8.4844 32.484-18.375 5.625-8.4844 8.4844-16.922 8.4844-28.219v-8.4844c-2.8125-19.781-15.516-38.109-33.891-52.219-32.484-23.953-73.453-22.547-91.781 1.4531zm79.031 14.156c14.109 9.8906 24 24 25.406 38.109 1.4062 5.625 1.4062 14.109-4.2188 21.188s-12.703 9.8906-18.375 9.8906c-14.109 1.4062-31.078-2.8125-43.781-12.703-14.109-9.8906-24-24-25.406-38.109-1.4062-5.625-1.4062-14.109 4.2188-21.188 11.344-14.156 39.562-14.156 62.156 2.8125z"/>
</svg>
