<?xml version="1.0" encoding="UTF-8"?>
<svg id="Layer_1" data-name="Layer 1" xmlns="http://www.w3.org/2000/svg" viewBox="0 0 1133.376 966.624">
  <path d="M1045.888,766.634H87.488C39.254,766.634.019,727.446.019,679.212V87.422C.019,39.234,39.253,0,87.488,0h958.4c48.234,0,87.422,39.234,87.422,87.422l.047,591.79c0,48.234-39.234,87.422-87.469,87.422h0ZM87.488,33.324c-29.859,0-54.141,24.281-54.141,54.094v591.79c0,29.859,24.281,54.094,54.094,54.094h958.45c29.859,0,54.094-24.281,54.094-54.094l.047-591.79c0-29.859-24.281-54.094-54.094-54.094H87.488Z"/>
  <path d="M709.558,883.304h-285.74c-6.375,0-12.188-3.609-14.953-9.328l-57.141-116.67c-5.391-11.016,2.625-24,14.953-24h399.98c12.281,0,20.391,12.938,14.953,24l-57.141,116.67c-2.766,5.719-8.578,9.328-14.906,9.328h-.005ZM434.218,849.976h264.94l40.828-83.344h-346.6l40.832,83.344Z"/>
  <path d="M849.998,966.624H283.318c-9.188,0-16.688-7.453-16.688-16.688,0-55.125,44.859-99.984,99.984-99.984h399.98c55.125,0,99.984,44.859,99.984,99.984.094,9.234-7.359,16.688-16.594,16.688h.014ZM302.128,933.296h529.13c-7.406-28.734-33.562-50.016-64.547-50.016h-400.03c-30.984,0-57.141,21.281-64.547,50.016h-.006Z"/>
  <path d="M1116.688,633.324H16.688c-9.188,0-16.688-7.453-16.688-16.688,0-9.188,7.453-16.688,16.688-16.688h1100c9.188,0,16.688,7.453,16.688,16.688s-7.453,16.688-16.688,16.688Z"/>
  <path d="M1033.388,633.324H100.018c-9.188,0-16.688-7.453-16.688-16.688l.047-516.66c0-9.188,7.453-16.688,16.688-16.688h933.32c9.188,0,16.688,7.453,16.688,16.688l-.047,516.66c0,9.234-7.453,16.688-16.641,16.688h.003ZM116.698,599.996h900V116.676H116.698v483.32Z"/>
  <path d="M816.668,533.344h-500.02c-9.188,0-16.688-7.453-16.688-16.688l.047-316.64c0-9.188,7.453-16.688,16.688-16.688h500.02c9.188,0,16.688,7.453,16.688,16.688l-.047,316.64c0,9.234-7.453,16.688-16.688,16.688ZM333.348,500.016h466.69V216.656h-466.69v283.36Z"/>
  <path d="M566.688,409.034c-21.422,0-42.797-7.406-59.859-22.172l-201.05-174.24c-6.938-6.047-7.688-16.547-1.688-23.531,6.047-6.938,16.547-7.688,23.531-1.688l201.05,174.24c21.703,18.797,54.375,18.797,76.078,0l201.05-174.24c6.938-6.047,17.484-5.297,23.531,1.688,6.047,6.938,5.297,17.484-1.688,23.531l-201.05,174.24c-17.109,14.766-38.531,22.172-59.906,22.172Z"/>
  <path d="M806.828,530.104l-197.95-145.18c-7.406-5.438-9.047-15.891-3.562-23.297,5.438-7.406,15.891-9.047,23.297-3.562l197.95,145.18c7.406,5.438,9.047,15.891,3.562,23.297-5.438,7.406-15.844,9-23.297,3.562Z"/>
  <path d="M303.248,526.504c-5.438-7.406-3.844-17.859,3.562-23.297l197.95-145.18c7.406-5.438,17.859-3.844,23.297,3.562s3.844,17.859-3.562,23.297l-197.95,145.18c-7.406,5.484-17.859,3.891-23.297-3.562Z"/>
  <path d="M183.348,366.644c-9.188,0-16.688-7.453-16.688-16.688v-166.69c0-9.188,7.453-16.688,16.688-16.688,9.188,0,16.688,7.453,16.688,16.688v166.69c0,9.234-7.453,16.688-16.688,16.688Z"/>
  <path d="M183.348,450.004c-9.188,0-16.688-7.453-16.688-16.688l.047-16.641c0-9.188,7.453-16.688,16.688-16.688,9.188,0,16.688,7.453,16.688,16.688v16.688c-.047,9.188-7.5,16.641-16.734,16.641h0Z"/>
</svg>