<?xml version="1.0" encoding="UTF-8"?><svg id="Layer_1" xmlns="http://www.w3.org/2000/svg" viewBox="0 0 1087.76 1141.9"><defs><style>.cls-1{fill-rule:evenodd;}</style></defs><path class="cls-1" d="M100.89,419.11c-55.66,0-100.89,46.012-100.89,102.03v518.77c0,56.016,45.23,101.99,100.89,101.99h886.09c55.66,0,100.78-45.973,100.78-101.99v-518.77c0-56.016-45.121-102.03-100.78-102.03H100.89ZM100.89,456.645h886.09c19.672,0,37.082,8.809,48.633,22.887l-416.93,323.95c-23.457,18.23-47.367,28.137-71.703,28.93s-49.98-7.211-77.93-28.93L52.16,479.572c11.59-14.105,29.055-22.926,48.742-22.926h-.012ZM1050,515.79c.133,1.762.254,3.543.254,5.348v518.77c0,5.863-.812,11.48-2.199,16.848l-306.62-301.1,308.565-239.866ZM37.8,515.825l308.61,239.8L39.75,1056.725c-1.387-5.356-2.199-10.957-2.199-16.809v-518.77c0-1.789.113-3.559.258-5.309l-.009-.012ZM376.33,778.875l69.801,54.234c33.375,25.934,68.348,37.906,102.14,36.805,33.789-1.102,65.465-14.965,93.566-36.805l69.691-54.164,316.41,310.4c-10.984,9.402-25.23,15.051-40.906,15.051H100.942c-15.676,0-29.93-5.648-40.941-15.051l316.329-310.47Z"/><path d="M498.18,392.4c-26.1,0-49.577-3.979-70.425-11.925-20.854-7.953-38.552-19.203-53.1-33.75-14.555-14.555-25.65-32.021-33.3-52.425-7.65-20.397-11.475-42.897-11.475-67.5,0-35.1,6.223-66.67,18.675-94.725,12.445-28.048,29.7-51.898,51.75-71.55,22.05-19.645,47.7-34.65,76.95-45S537.78,0,571.08,0c23.997,0,45.598,3.375,64.8,10.125,19.195,6.75,35.697,16.425,49.5,29.025,13.795,12.6,24.37,27.527,31.725,44.775,7.348,17.255,11.025,36.38,11.025,57.375,0,20.405-2.925,39.825-8.775,58.275-5.85,18.45-14.027,34.805-24.524,49.05-10.505,14.252-22.726,25.502-36.675,33.75-13.95,8.255-29.025,12.375-45.226,12.375-10.505,0-19.729-1.87-27.675-5.625-7.952-3.748-14.175-8.923-18.675-15.525-4.5-6.595-6.75-14.548-6.75-23.85,0-4.5.521-9.295,1.575-14.4,1.047-5.098,1.87-10.35,2.475-15.75l6.3,9c-4.5,14.104-10.575,26.1-18.225,36-7.65,9.9-16.58,17.402-26.775,22.5-10.202,5.104-21.305,7.65-33.3,7.65-12.902,0-24.377-3.445-34.425-10.35-10.055-6.897-17.93-16.495-23.625-28.8-5.703-12.298-8.55-26.55-8.55-42.75,0-14.098,2.545-28.35,7.65-42.75,5.098-14.4,12.445-27.598,22.05-39.6,9.598-11.995,20.995-21.748,34.2-29.25,13.198-7.495,27.745-11.25,43.65-11.25,9.295,0,17.62,2.25,24.975,6.75,7.348,4.5,13.346,10.8,18,18.9,4.647,8.1,7.425,17.55,8.325,28.35l-10.8,26.55,11.7-76.5h45.449l-22.949,138.6c-.9,5.703-.527,10.427,1.125,14.175,1.645,3.754,4.12,6.525,7.425,8.325,3.298,1.8,6.897,2.7,10.8,2.7,9,0,17.396-2.996,25.2-9,7.798-5.998,14.548-14.323,20.25-24.975,5.695-10.646,10.195-22.873,13.5-36.675,3.298-13.795,4.95-28.35,4.95-43.65,0-22.5-4.803-41.772-14.4-57.825-9.604-16.045-23.478-28.35-41.625-36.9-18.154-8.55-39.979-12.825-65.475-12.825-30.601,0-58.353,4.275-83.25,12.825-24.905,8.55-46.125,21.002-63.675,37.35-17.55,16.355-31.05,36.225-40.5,59.625-9.45,23.4-14.175,49.95-14.175,79.65,0,20.7,2.925,39.08,8.775,55.125,5.85,16.052,14.322,29.777,25.425,41.175,11.095,11.397,24.897,20.025,41.4,25.875,16.496,5.85,35.248,8.775,56.25,8.775,14.098,0,26.248-.977,36.45-2.925,10.195-1.955,19.948-4.95,29.25-9,9.296-4.05,19.646-9.078,31.051-15.075l16.649,30.15c-17.704,9-32.85,15.82-45.45,20.475-12.6,4.648-24.3,7.875-35.1,9.675-10.8,1.8-22.205,2.7-34.2,2.7ZM502.23,256.5c10.195,0,20.025-3.22,29.475-9.675,9.45-6.448,17.55-14.695,24.3-24.75,6.75-10.048,10.87-20.475,12.375-31.275.9-5.4,1.646-10.047,2.25-13.95.598-3.896.9-7.65.9-11.25,0-7.798-1.505-14.47-4.5-20.025-3.003-5.548-7.277-9.823-12.825-12.825-5.555-2.995-12.08-4.5-19.575-4.5-11.7,0-22.353,4.275-31.95,12.825-9.604,8.55-17.254,19.504-22.95,32.85-5.703,13.353-8.55,27.078-8.55,41.175,0,12.902,2.771,23.027,8.325,30.375,5.548,7.354,13.12,11.025,22.725,11.025Z"/></svg>