<?xml version="1.0" encoding="UTF-8"?>
<svg id="Layer_1" data-name="Layer 1" xmlns="http://www.w3.org/2000/svg" viewBox="0 0 902.63 1167.426">
  <defs>
    <style>
      .cls-1 {
        fill-rule: evenodd;
      }
    </style>
  </defs>
  <path class="cls-1" d="M479.017,454.354l-40.125.422c-10.734.141-20.953,4.594-28.359,12.375-7.453,7.781-11.391,18.234-10.969,28.969l7.828,198.42c.75,21.375,18.328,38.297,39.75,38.25h.281l22.547-.188c21.094-.141,38.391-16.781,39.422-37.828l9.75-198.66.047-.047c.516-10.922-3.469-21.609-11.062-29.531-7.594-7.875-18.141-12.281-29.109-12.188v.006ZM475.408,693.094h.047c-.188,3.047-2.672,5.438-5.719,5.438l-22.547.141v.047c-3.094,0-5.625-2.438-5.719-5.531l-7.781-198.42c-.188-1.547.422-3.094,1.547-4.125,1.031-1.219,2.531-1.875,4.125-1.828l40.125-.422h.094-.047c1.594-.094,3.094.562,4.078,1.781,1.172,1.078,1.781,2.625,1.641,4.219l-9.75,198.66-.094.041ZM459.47,752.344h.047c-23.344.469-44.156,14.859-52.781,36.562s-3.375,46.453,13.266,62.812c16.688,16.359,41.531,21.094,63.047,12.094,21.562-9.047,35.578-30.094,35.578-53.438-.375-32.344-26.812-58.266-59.109-57.984l-.048-.046ZM459.47,834.282h.047c-9.609-.422-18.047-6.562-21.422-15.562s-1.078-19.125,5.906-25.781c6.938-6.656,17.203-8.484,26.016-4.688,8.859,3.797,14.578,12.469,14.531,22.125-.281,13.547-11.484,24.281-25.031,24l-.047-.094ZM21,193.222c-3.562-3.094-5.672-7.547-5.859-12.234-.188-4.734,1.641-9.328,4.969-12.656,3.328-3.328,7.922-5.109,12.656-4.969,4.688.188,9.141,2.297,12.234,5.859l135.98,135.98c3.516,3.141,5.578,7.547,5.719,12.234s-1.641,9.234-4.969,12.516c-3.281,3.328-7.828,5.156-12.516,5.016-4.688-.141-9.094-2.156-12.234-5.672L20.999,193.316v-.094ZM436.78,201.706V17.016c0-9.375,7.641-17.016,17.016-17.016s17.016,7.641,17.016,17.016v184.74c0,9.375-7.594,17.016-17.016,17.016s-17.016-7.641-17.016-17.016v-.05ZM713.72,331.736v.047c-6.609-6.656-6.609-17.438,0-24.094l142.45-142.4c6.656-6.375,17.25-6.281,23.766.281,6.562,6.562,6.703,17.109.281,23.812l-142.4,142.4c-3.188,3.188-7.5,4.969-12.047,4.969-4.5,0-8.812-1.781-12.047-4.969l-.003-.046ZM236.77,440.716l.047.047c2.719-19.594,19.5-34.219,39.281-34.219l365.53-5.531c20.25-.469,37.641,14.297,40.5,34.359l73.922,486.42-593.26-.047,73.969-480.94.011-.089ZM66.24,1048.926v-46.875c0-25.547,20.719-46.266,46.266-46.266h693.79c25.547,0,46.266,20.719,46.266,46.266v46.875c0,.75,0,1.453-.094,2.156H66.278c0-.75-.094-1.453-.094-2.156h.056ZM902.63,1167.426H0v-68.016c0-3.797,1.5-7.453,4.219-10.125,2.672-2.719,6.328-4.219,10.125-4.219h873.94c3.797,0,7.453,1.5,10.125,4.219,2.672,2.672,4.172,6.328,4.172,10.125l.049,68.016Z"/>
</svg>