<?xml version="1.0" encoding="UTF-8"?>
<svg id="Layer_1" data-name="Layer 1" xmlns="http://www.w3.org/2000/svg" viewBox="0 0 1073.495 882.002">
  <defs>
    <style>
      .cls-1 {
        fill-rule: evenodd;
      }
    </style>
  </defs>
  <path class="cls-1" d="M426.376,612.142h-40.078c-48.234,0-87.516-39.281-87.516-87.516v-47.625c0-6.469,5.25-11.719,11.719-11.719s11.719,5.25,11.719,11.719v47.625c0,35.344,28.734,64.078,64.078,64.078h40.078c35.344,0,64.078-28.781,64.078-64.078v-47.625c0-6.469,5.25-11.719,11.719-11.719s11.719,5.25,11.719,11.719v47.625c0,48.281-39.281,87.516-87.516,87.516h0Z"/>
  <path class="cls-1" d="M304.776,448.362c-.844,0-1.594.75-1.594,1.594v13.734c0,.844.75,1.594,1.594,1.594h203.11c.844,0,1.594-.75,1.594-1.594v-13.734c0-.844-.75-1.594-1.594-1.594h-203.11ZM507.886,488.721h-203.11c-13.781,0-25.031-11.25-25.031-25.031v-13.734c0-13.828,11.203-25.031,25.031-25.031h203.11c13.781,0,25.031,11.25,25.031,25.031v13.734c0,13.781-11.25,25.031-25.031,25.031Z"/>
  <path class="cls-1" d="M305.576,448.362c-6.469,0-11.719-5.25-11.719-11.719v-21.938c0-50.766,34.312-95.438,83.438-108.66,6.234-1.688,12.656,2.016,14.344,8.25s-2.016,12.703-8.297,14.391c-38.906,10.453-66.047,45.844-66.047,86.016v21.938c0,6.469-5.25,11.719-11.719,11.719v.003ZM507.096,448.362c-6.469,0-11.719-5.25-11.719-11.719v-21.938c0-40.172-27.188-75.562-66.047-86.016-6.234-1.688-9.984-8.109-8.297-14.391,1.688-6.234,8.109-9.938,14.344-8.25,49.125,13.219,83.438,57.891,83.438,108.66v21.938c0,6.469-5.25,11.719-11.719,11.719v-.003Z"/>
  <path class="cls-1" d="M310.536,536.342h-16.969c-15.844,0-28.688-12.844-28.688-28.688v-13.688c0-15.844,12.844-28.688,28.688-28.688h16.969c6.469,0,11.719,5.25,11.719,11.719s-5.25,11.719-11.719,11.719h-16.969c-2.812,0-5.25,2.438-5.25,5.25v13.688c0,2.859,2.438,5.25,5.25,5.25h16.969c6.469,0,11.719,5.25,11.719,11.719s-5.25,11.719-11.719,11.719Z"/>
  <path class="cls-1" d="M519.136,536.342h-16.969c-6.469,0-11.719-5.25-11.719-11.719s5.25-11.719,11.719-11.719h16.969c2.812,0,5.25-2.391,5.25-5.25v-13.688c0-2.812-2.438-5.25-5.25-5.25h-16.969c-6.469,0-11.719-5.25-11.719-11.719s5.25-11.719,11.719-11.719h16.969c15.797,0,28.641,12.844,28.641,28.688v13.688c0,15.844-12.844,28.688-28.641,28.688Z"/>
  <path class="cls-1" d="M355.026,398.442h-45.422c-6.469,0-11.719-5.25-11.719-11.719s5.25-11.719,11.719-11.719h39.141l21.844-32.812c3.609-5.391,10.875-6.844,16.266-3.234s6.844,10.875,3.234,16.266l-25.359,38.016c-2.156,3.281-5.859,5.203-9.75,5.203h.046Z"/>
  <path class="cls-1" d="M503.106,398.442h-45.422c-3.891,0-7.594-1.969-9.75-5.203l-25.359-38.016c-3.609-5.391-2.109-12.656,3.234-16.266,5.391-3.609,12.656-2.109,16.266,3.234l21.844,32.812h39.141c6.469,0,11.719,5.25,11.719,11.719s-5.25,11.719-11.719,11.719h.046Z"/>
  <path class="cls-1" d="M432.376,448.362c-6.469,0-11.719-5.25-11.719-11.719v-119.3c0-2.25-1.922-4.219-4.172-4.219h-20.203c-2.25,0-4.219,1.922-4.219,4.219v119.3c0,6.469-5.25,11.719-11.719,11.719s-11.719-5.25-11.719-11.719v-119.3c0-15.234,12.422-27.656,27.656-27.656h20.203c15.234,0,27.609,12.422,27.609,27.656v119.3c0,6.469-5.25,11.719-11.719,11.719h.002Z"/>
  <path class="cls-1" d="M425.156,688.872l17.062,9.609,49.547-47.391-22.312-9.094-44.297,46.922v-.047ZM444.047,724.684c-1.969,0-3.938-.469-5.719-1.5l-37.688-21.234c-3.141-1.781-5.297-4.875-5.859-8.438-.516-3.562.609-7.172,3.094-9.797l60.094-63.609c3.328-3.516,8.484-4.594,12.938-2.812l46.5,18.938c3.656,1.5,6.328,4.734,7.078,8.625s-.516,7.922-3.375,10.688l-68.906,65.953c-2.203,2.109-5.156,3.234-8.109,3.234l-.047-.048Z"/>
  <path class="cls-1" d="M657.936,882.002H154.826c-3.328,0-6.516-1.406-8.719-3.891s-3.281-5.766-2.953-9.047l14.156-134.34c4.688-44.672,37.219-77.578,87-88.031l53.062-11.156c6.328-1.312,12.562,2.719,13.875,9.094,1.312,6.328-2.719,12.516-9.047,13.875l-53.062,11.109c-39.938,8.391-64.875,33-68.531,67.547l-12.75,121.4h477.1l-12.75-121.4c-3.656-34.5-28.594-59.109-68.531-67.547l-53.062-11.156c-6.328-1.359-10.359-7.547-9.047-13.875,1.359-6.328,7.547-10.406,13.875-9.094l53.062,11.156c49.781,10.453,82.312,43.359,87,88.031l14.156,134.34c.375,3.281-.703,6.609-2.953,9.047-2.203,2.484-5.391,3.891-8.719,3.891l-.052.047Z"/>
  <path class="cls-1" d="M235.076,882.002c-.375,0-.703-.047-1.078-.047-6.422-.562-11.203-6.281-10.641-12.703l8.344-93c.562-6.422,6.281-11.203,12.703-10.641,6.469.562,11.203,6.281,10.641,12.703l-8.344,93c-.516,6.094-5.672,10.688-11.625,10.688h0Z"/>
  <path class="cls-1" d="M320.906,651.052l49.547,47.391,17.062-9.609-44.297-46.922-22.312,9.094v.047ZM368.625,724.646c-2.953,0-5.906-1.125-8.109-3.234l-68.906-65.953c-2.859-2.766-4.172-6.75-3.375-10.688.75-3.891,3.375-7.172,7.078-8.625l46.5-18.938c4.453-1.828,9.609-.703,12.938,2.812l60.094,63.609c2.484,2.625,3.609,6.234,3.047,9.797-.516,3.562-2.672,6.703-5.812,8.438l-37.688,21.234c-1.828,1.031-3.797,1.5-5.719,1.5l-.047.048Z"/>
  <path class="cls-1" d="M346.266,639.842c-6.516,0-11.719-5.25-11.719-11.719v-39.188c0-6.516,5.203-11.719,11.719-11.719,6.469,0,11.719,5.203,11.719,11.719v39.188c0,6.469-5.25,11.719-11.719,11.719Z"/>
  <path class="cls-1" d="M466.456,639.842c-6.469,0-11.719-5.25-11.719-11.719v-39.188c0-6.516,5.25-11.719,11.719-11.719s11.719,5.203,11.719,11.719v39.188c0,6.469-5.25,11.719-11.719,11.719Z"/>
  <path class="cls-1" d="M577.586,882.002c-6,0-11.109-4.594-11.625-10.688l-8.344-93c-.609-6.422,4.172-12.141,10.641-12.703,6.469-.609,12.141,4.172,12.703,10.641l8.344,93c.609,6.422-4.172,12.141-10.641,12.703-.375.047-.703.047-1.078.047h0Z"/>
  <path class="cls-1" d="M167.956,756.792h-47.859c-6.469,0-11.719-5.25-11.719-11.719s5.25-11.719,11.719-11.719h47.859c6.516,0,11.719,5.25,11.719,11.719s-5.203,11.719-11.719,11.719h0ZM1061.766,756.792h-417c-6.469,0-11.719-5.25-11.719-11.719s5.25-11.719,11.719-11.719h405.28V77.614H120.096c-6.469,0-11.719-5.25-11.719-11.719s5.25-11.719,11.719-11.719h941.68c6.469,0,11.719,5.25,11.719,11.719v679.18c0,6.469-5.25,11.719-11.719,11.719l-.01-.002Z"/>
  <path class="cls-1" d="M65.906,23.442c-23.391,0-42.469,19.031-42.469,42.469v679.18c0,23.438,19.078,42.469,42.469,42.469s42.469-19.031,42.469-42.469V65.911c0-23.438-19.031-42.469-42.469-42.469ZM65.906,810.992c-36.328,0-65.906-29.578-65.906-65.906V65.906C0,29.531,29.578,0,65.906,0s65.906,29.578,65.906,65.906v679.18c0,36.375-29.578,65.906-65.906,65.906Z"/>
  <path class="cls-1" d="M190.686,217.402h431.29v-83.391H190.686v83.391ZM633.706,240.793H178.966c-6.469,0-11.719-5.203-11.719-11.672v-106.83c0-6.469,5.25-11.719,11.719-11.719h454.74c6.469,0,11.719,5.25,11.719,11.719v106.83c0,6.469-5.25,11.672-11.719,11.672h0Z"/>
  <path class="cls-1" d="M231.426,240.842c-6.469,0-11.719-5.203-11.719-11.672v-42.938c0-6.469,5.25-11.719,11.719-11.719s11.719,5.25,11.719,11.719v42.938c0,6.469-5.25,11.672-11.719,11.672Z"/>
  <path class="cls-1" d="M299.056,240.842c-6.469,0-11.719-5.203-11.719-11.672v-27.891c0-6.469,5.25-11.719,11.719-11.719s11.719,5.25,11.719,11.719v27.891c0,6.469-5.25,11.672-11.719,11.672Z"/>
  <path class="cls-1" d="M366.696,240.842c-6.469,0-11.719-5.203-11.719-11.672v-42.938c0-6.469,5.25-11.719,11.719-11.719s11.719,5.25,11.719,11.719v42.938c0,6.469-5.25,11.672-11.719,11.672Z"/>
  <path class="cls-1" d="M434.396,240.842c-6.469,0-11.719-5.203-11.719-11.672v-27.891c0-6.469,5.25-11.719,11.719-11.719,6.516,0,11.719,5.25,11.719,11.719v27.891c0,6.469-5.25,11.672-11.719,11.672Z"/>
  <path class="cls-1" d="M502.026,240.842c-6.469,0-11.719-5.203-11.719-11.672v-42.938c0-6.469,5.25-11.719,11.719-11.719,6.516,0,11.719,5.25,11.719,11.719v42.938c0,6.469-5.203,11.672-11.719,11.672Z"/>
  <path class="cls-1" d="M569.716,240.842c-6.516,0-11.719-5.203-11.719-11.672v-27.891c0-6.469,5.203-11.719,11.719-11.719,6.469,0,11.719,5.25,11.719,11.719v27.891c0,6.469-5.25,11.672-11.719,11.672Z"/>
  <path class="cls-1" d="M825.846,459.712h28.828l2.578-36.562c.375-5.062,3.938-9.328,8.859-10.547,10.312-2.578,20.156-6.656,29.25-12.141,4.359-2.625,9.891-2.109,13.734,1.219l27.703,24.047,20.391-20.391-24.047-27.656c-3.328-3.844-3.797-9.375-1.172-13.734,5.484-9.094,9.562-18.938,12.094-29.203,1.219-4.922,5.484-8.531,10.547-8.859l36.562-2.578v-28.828l-36.516-2.578c-5.062-.375-9.328-3.938-10.594-8.859-2.531-10.312-6.609-20.156-12.094-29.25-2.625-4.359-2.156-9.891,1.219-13.734l24-27.703-20.391-20.391-27.703,24.047c-3.844,3.328-9.375,3.797-13.734,1.172-9.141-5.484-18.984-9.562-29.25-12.094-4.922-1.219-8.484-5.484-8.859-10.547l-2.578-36.562h-28.828l-2.578,36.562c-.328,5.062-3.938,9.328-8.859,10.547-10.266,2.531-20.109,6.609-29.203,12.094-4.359,2.625-9.891,2.156-13.734-1.172l-27.656-24.047-20.391,20.391,24.047,27.703c3.328,3.844,3.797,9.375,1.172,13.734-5.484,9.141-9.562,18.938-12.141,29.25-1.219,4.922-5.484,8.484-10.547,8.859l-36.562,2.578v28.828l36.562,2.578c5.062.328,9.328,3.938,10.547,8.859,2.578,10.312,6.656,20.109,12.094,29.25,2.625,4.359,2.156,9.891-1.172,13.734l-24.047,27.656,20.391,20.391,27.656-24.047c3.844-3.328,9.422-3.797,13.734-1.172,9.094,5.484,18.938,9.562,29.203,12.141,4.922,1.219,8.531,5.484,8.859,10.547l2.578,36.562.048-.094ZM865.596,483.15h-50.672c-6.141,0-11.25-4.781-11.719-10.875l-2.766-39.281c-6.844-2.156-13.5-4.922-19.875-8.203l-29.719,25.781c-4.641,4.031-11.625,3.797-15.984-.562l-35.859-35.859c-4.359-4.359-4.594-11.344-.562-15.984l25.828-29.719c-3.281-6.375-6.047-13.031-8.25-19.875l-39.234-2.766c-6.141-.422-10.875-5.531-10.875-11.672v-50.672c0-6.141,4.781-11.25,10.875-11.672l39.281-2.766c2.156-6.844,4.922-13.453,8.203-19.875l-25.781-29.719c-4.031-4.641-3.797-11.625.562-15.984l35.859-35.859c4.359-4.359,11.344-4.594,15.984-.562l29.719,25.828c6.422-3.281,13.031-6.047,19.875-8.25l2.766-39.234c.422-6.141,5.531-10.875,11.672-10.875h50.672c6.141,0,11.25,4.734,11.672,10.875l2.766,39.234c6.844,2.203,13.453,4.969,19.875,8.25l29.719-25.828c4.641-4.031,11.625-3.797,15.984.562l35.859,35.859c4.359,4.359,4.594,11.344.562,15.984l-25.781,29.719c3.281,6.375,6.047,13.031,8.25,19.875l39.234,2.766c6.141.422,10.875,5.531,10.875,11.672v50.672c0,6.141-4.781,11.25-10.875,11.672l-39.234,2.766c-2.203,6.844-4.969,13.5-8.25,19.875l25.828,29.719c4.031,4.641,3.797,11.625-.562,15.984l-35.859,35.859c-4.359,4.359-11.344,4.594-15.984.562l-29.719-25.828c-6.422,3.281-13.031,6.047-19.875,8.25l-2.766,39.234c-.422,6.141-5.531,10.875-11.672,10.875l-.047.047Z"/>
  <path class="cls-1" d="M840.236,257.812c-28.125,0-51,22.875-51,51s22.875,51,51,51,51-22.875,51-51-22.875-51-51-51ZM840.236,383.252c-41.062,0-74.438-33.375-74.438-74.391s33.422-74.438,74.438-74.438,74.438,33.422,74.438,74.438-33.422,74.438-74.438,74.391Z"/>
  <path class="cls-1" d="M998.416,535.872h-316.4c-6.469,0-11.719-5.25-11.719-11.719s5.25-11.719,11.719-11.719h316.4c6.516,0,11.719,5.25,11.719,11.719s-5.203,11.719-11.719,11.719Z"/>
  <path class="cls-1" d="M998.416,606.192h-316.4c-6.469,0-11.719-5.25-11.719-11.719s5.25-11.719,11.719-11.719h316.4c6.516,0,11.719,5.25,11.719,11.719s-5.203,11.719-11.719,11.719Z"/>
  <path class="cls-1" d="M998.416,676.502h-316.4c-6.469,0-11.719-5.25-11.719-11.719s5.25-11.719,11.719-11.719h316.4c6.516,0,11.719,5.25,11.719,11.719s-5.203,11.719-11.719,11.719Z"/>
</svg>