<?xml version="1.0" encoding="UTF-8"?>
<svg id="Layer_1" data-name="Layer 1" xmlns="http://www.w3.org/2000/svg" viewBox="0 0 1144.146 959.104">
  <defs>
    <style>
      .cls-1 {
        fill: #f49cac;
        stroke: #000;
        stroke-miterlimit: 10;
      }
    </style>
  </defs>
  <polygon class="cls-1" points="407 530.736 264 681 540 958.424 707 817 407 530.736"/>
  <path d="M720.58,835.1l407.16-407.16c10.547-10.547,16.406-24.609,16.406-39.562s-5.812-28.969-16.406-39.516l-244.97-244.97c-21.141-21.141-57.984-21.141-79.078,0L260.272,647.312c-21.797,21.797-21.797,57.281,0,79.078l226.55,226.55c1.734,1.734,3.797,3.094,6.094,4.031s4.734,1.453,7.172,1.453h540.89c10.359,0,18.75-8.391,18.75-18.75s-8.391-18.75-18.75-18.75l-406.31.094,85.912-85.918ZM1106.64,388.38c0,4.922-1.922,9.562-5.391,13.031l-393.94,393.94-122.26-122.26,406.97-406.97,109.22,109.22c3.469,3.469,5.391,8.109,5.391,13.031l.01.008ZM830.27,130.38c6.938-6.938,19.078-6.938,26.062,0l109.22,109.22-406.97,406.97-122.26-122.26,393.948-393.93ZM507.82,921.02l-221.06-221.06c-7.172-7.172-7.172-18.844,0-26.062l123.1-123.1,271.03,271.03-99.188,99.188-73.882.004Z"/>
</svg>