<?xml version="1.0" encoding="UTF-8"?>
<svg id="Layer_1" data-name="Layer 1" xmlns="http://www.w3.org/2000/svg" viewBox="0 0 884.049 899.998">
  <path d="M865.292,231.393c7.105,0,13.613-4.012,16.781-10.367,3.168-6.355,2.492-13.949-1.781-19.648L734.792,7.498c-7.07-9.414-22.93-9.414-30,0l-145.5,193.88c-.789,1.051-1.312,2.195-1.856,3.355l-98.926-98.926c-19.969-19.969-47.492-30.207-75.562-27.73l-159.66,13.367c-6.883-8.738-14.082-17.195-21.844-24.957C160.422,25.465,110,0,69.825,0h-.148C49.031.039,31.559,6.656,19.199,19.125,6.676,31.574.035,49.07,0,69.695c-.055,40.219,25.406,90.695,66.508,131.77,1.762,1.742,3.543,3.355,5.305,5.023l-16.688,199.41c-2.305,27.957,7.781,55.539,27.75,75.73l63.77,63.77-93.617,124.82c-4.273,5.68-4.949,13.273-1.781,19.633,3.168,6.356,9.676,10.367,16.781,10.367h45.898v181.03c0,10.367,8.398,18.75,18.75,18.75h161.64c10.352,0,18.75-8.383,18.75-18.75v-169.43l160.16,160.16c18.617,18.617,43.125,27.938,67.633,27.938s49.086-9.32,67.82-27.938l240.15-240.32c18.133-18.02,28.145-42,28.18-67.555.039-25.633-9.957-49.762-28.145-67.949l-29.57-29.57v-235.24h45.938l.061.049ZM620.232,267.526l-36.133-36.133h36.133v36.133ZM37.532,69.766c0-10.594,2.758-18.695,8.211-24.113,5.344-5.383,13.426-8.117,24.02-8.137h.094c30.133,0,71.383,21.77,105.09,55.5.73.73,1.406,1.555,2.137,2.305l-15.957,1.332c-38.363,3.242-69.602,28.613-81.883,63.207-25.742-30.414-41.758-64.332-41.719-90.113l.008.019ZM275.622,681.486v181.03h-124.14v-181.03c0-10.367-8.398-18.75-18.75-18.75h-27.148l107.98-143.96,107.98,143.96h-27.148c-10.352,0-18.75,8.383-18.75,18.75h-.024ZM839.562,564.096c-.039,15.488-6.094,30.074-17.156,41.043l-240.15,240.32c-22.781,22.648-59.793,22.688-82.461.039l-145.27-145.27h4.5c7.106,0,13.594-4.012,16.781-10.367,3.188-6.356,2.492-13.949-1.781-19.633l-145.48-193.97c-7.07-9.449-22.93-9.449-30,0l-29.137,38.852-59.906-59.906c-12.188-12.32-18.375-29.176-16.969-46.199l14.57-174.02c16.594,11.23,33.488,19.836,49.801,25.332,1.219,17.586,8.211,34.855,21.637,48.281,14.773,14.758,34.164,22.145,53.551,22.145s38.773-7.387,53.551-22.145c29.531-29.531,29.531-77.57,0-107.1-8.176-8.176-17.812-13.836-28.031-17.492-1.273-.656-2.719-.883-4.145-1.219-25.742-7.555-54.637-1.539-74.906,18.711-6.355,6.355-11.082,13.688-14.699,21.395-17.305-6.582-35.477-17.699-53.043-32.137l.301-3.617c2.27-28.367,24.656-50.699,53.195-53.137l221.81-18.562c17.023-1.273,33.77,4.742,45.918,16.875l355.27,355.29,35.098,35.098c11.082,11.082,17.176,25.781,17.156,41.383l-.005.01ZM198.502,267.906c20.512,0,37.895-6.508,50.324-19.105,5.195-5.195,9.207-11.418,12.32-18.301,12.676,15,12.113,37.461-2.023,51.602-14.906,14.906-39.168,14.906-54.074,0-4.18-4.18-7.051-9.113-8.887-14.344.77,0,1.574.148,2.344.148h-.004ZM222.205,222.379c-4.969,5.043-11.832,7.125-18.883,7.742.602-.695,1.07-1.445,1.727-2.102,5.719-5.719,12.805-9.188,20.211-10.52-.992,1.633-1.727,3.562-3.039,4.895l-.016-.015ZM657.725,305.031v-92.383c0-10.367-8.383-18.75-18.75-18.75h-27.168l107.98-143.89,107.98,143.89h-27.168c-10.367,0-18.75,8.383-18.75,18.75v216.49l-124.11-124.11-.014.003Z"/>
  <path d="M605.292,601.813l.789-.789c30.508-30.508,30.508-80.156,0-110.66-14.793-14.793-34.445-22.949-55.352-22.949s-40.555,8.156-55.332,22.949l-28.051,28.051c-15.918,15.883-41.773,15.898-57.656,0-7.707-7.707-11.945-17.926-11.945-28.82s4.238-21.133,11.945-28.836l32.738-32.719c12.898-12.918,35.363-12.918,48.301,0,7.332,7.332,19.18,7.332,26.512,0,7.332-7.312,7.332-19.18,0-26.512-27.055-27.055-74.25-27.074-101.32,0l-5.438,5.438-28.836-28.82c-7.332-7.332-19.18-7.332-26.512,0-7.332,7.332-7.332,19.18,0,26.512l28.836,28.82-.77.77c-14.793,14.793-22.93,34.445-22.93,55.352s8.137,40.555,22.93,55.332c30.508,30.508,80.137,30.508,110.68,0l28.051-28.051c15.43-15.43,42.242-15.395,57.656,0,15.898,15.898,15.898,41.758,0,57.637l-32.738,32.738c-13.332,13.332-34.969,13.332-48.301,0-7.332-7.332-19.18-7.332-26.512,0s-7.332,19.18,0,26.512c13.969,13.969,32.324,20.945,50.664,20.945s36.695-6.977,50.664-20.945l5.438-5.438,28.836,28.82c3.656,3.656,8.457,5.492,13.258,5.492s9.602-1.836,13.258-5.492c7.332-7.332,7.332-19.18,0-26.512l-28.836-28.82-.027-.004Z"/>
</svg>