<?xml version="1.0" encoding="UTF-8"?>
<svg id="Layer_1" data-name="Layer 1" xmlns="http://www.w3.org/2000/svg" viewBox="0 0 1152 816">
  <path d="M576,0C239,0,0,309.37,0,408s239,408,576,408,576-309.37,576-408S913.01,0,576,0ZM576,720c-283.97,0-475.91-265.31-480.01-311.44,4.105-47.254,196.04-312.56,480.01-312.56s475.89,265.31,480.02,311.44c-4.129,47.254-196.05,312.56-480.02,312.56ZM576,168c-132.34,0-240,107.68-240,240s107.66,240,240,240,240-107.68,240-240-107.65-240-240-240ZM576,552c-79.402,0-144-64.598-144-144s64.598-144,144-144,144,64.598,144,144-64.598,144-144,144Z"/>
</svg>