<?xml version="1.0" encoding="UTF-8"?>
<svg id="Layer_1" data-name="Layer 1" xmlns="http://www.w3.org/2000/svg" viewBox="0 0 963.605 963.682">
  <defs>
    <style>
      .cls-1 {
        stroke-dasharray: 12.031 12.031;
      }

      .cls-1, .cls-2, .cls-3, .cls-4, .cls-5, .cls-6, .cls-7, .cls-8, .cls-9, .cls-10, .cls-11 {
        fill: none;
        stroke: #000;
        stroke-miterlimit: 10;
        stroke-width: 3px;
      }

      .cls-2 {
        stroke-dasharray: 12.035 12.035;
      }

      .cls-3 {
        stroke-dasharray: 14.765 14.765;
      }

      .cls-4 {
        stroke-dasharray: 11.462 11.462;
      }

      .cls-5 {
        stroke-dasharray: 12.385 12.385;
      }

      .cls-12 {
        fill: #ff1515;
      }

      .cls-6 {
        stroke-dasharray: 10.035 10.035;
      }

      .cls-7 {
        stroke-dasharray: 12.857 12.857;
      }

      .cls-8 {
        stroke-dasharray: 14.829 14.829;
      }

      .cls-9 {
        stroke-dasharray: 12.2 12.2;
      }

      .cls-10 {
        stroke-dasharray: 9.348 9.348;
      }
    </style>
  </defs>
  <g>
    <path class="cls-12" d="M785.219,256.265v64.856l59.599,153.77-55,29,12,55-69.972,20.807h56.486l-30.514,50.193,17,45-108.805,28h-110.195l-18.873-92.576-41.801-56.856-13.326-4.568s-4.521-662.406,268.211-389.674"/>
    <g>
      <line class="cls-11" x1="785.219" y1="256.265" x2="785.219" y2="262.265"/>
      <polyline class="cls-4" points="785.219 273.726 785.219 321.121 840.579 463.953"/>
      <polyline class="cls-11" points="842.65 469.297 844.818 474.891 839.511 477.69"/>
      <line class="cls-6" x1="830.634" y1="482.37" x2="799.564" y2="498.752"/>
      <polyline class="cls-11" points="795.126 501.093 789.818 503.891 791.097 509.753"/>
      <line class="cls-3" x1="794.244" y1="524.178" x2="798.965" y2="545.816"/>
      <polyline class="cls-11" points="800.539 553.029 801.818 558.891 796.067 560.601"/>
      <line class="cls-9" x1="784.373" y1="564.079" x2="743.444" y2="576.25"/>
      <polyline class="cls-11" points="737.597 577.988 731.846 579.698 737.846 579.698"/>
      <line class="cls-8" x1="752.674" y1="579.698" x2="774.918" y2="579.698"/>
      <polyline class="cls-11" points="782.332 579.698 788.332 579.698 785.215 584.825"/>
      <line class="cls-10" x1="780.359" y1="592.813" x2="763.363" y2="620.77"/>
      <polyline class="cls-11" points="760.935 624.764 757.818 629.891 759.939 635.504"/>
      <line class="cls-2" x1="764.192" y1="646.762" x2="770.571" y2="663.649"/>
      <polyline class="cls-11" points="772.698 669.278 774.818 674.891 769.007 676.386"/>
      <polyline class="cls-5" points="757.013 679.473 666.013 702.891 568.011 702.891"/>
      <polyline class="cls-11" points="561.818 702.891 555.818 702.891 554.62 697.012"/>
      <polyline class="cls-7" points="552.051 684.414 536.945 610.315 495.144 553.459 493.575 552.921"/>
      <path class="cls-11" d="M487.494,550.837l-5.676-1.946s-.014-2.093.007-5.996"/>
      <path class="cls-1" d="M481.96,530.868c1.673-103.053,21.927-605.246,259.459-380.039"/>
      <path class="cls-11" d="M745.759,155.001c1.416,1.38,2.839,2.785,4.27,4.216"/>
    </g>
  </g>
  <path d="M666.018,386.561c21.961,0,42.613-9.336,58.141-26.27l3.707-4.055-3.707-4.055c-15.539-16.957-36.18-26.293-58.152-26.293s-42.613,9.336-58.141,26.27l-3.707,4.055,3.707,4.055c15.527,16.957,36.18,26.293,58.152,26.293ZM666.006,337.889c16.754,0,32.641,6.469,45.289,18.336-12.66,11.855-28.535,18.324-45.277,18.324s-32.641-6.469-45.289-18.336c12.648-11.855,28.527-18.324,45.277-18.324Z"/>
  <path d="M960.318,952.291l-307.36-155.54-19.738-86.062c36.023-1.559,71.652-7.57,144.21-28.078,1.644-.469,3.012-1.609,3.758-3.144.742-1.535.805-3.312.168-4.894l-18.277-45.012,34.176-49.824c1.356-1.981,1.402-4.57.133-6.59-.758-1.211-1.883-2.074-3.18-2.508l10.441-3.648c2.879-.996,4.547-3.996,3.887-6.961l-11.855-53.195,53.184-19.367c1.512-.551,2.746-1.68,3.406-3.144s.719-3.133.156-4.633l-62.664-164.71C790.173,141.21,652.063,0,482.403,0,309.663,0,169.113,140.54,169.113,313.3c0,54.469,14.195,108.11,41.039,155.14.48.816,1.152,1.453,1.895,1.945,1.691,1.223,95.664,69.707,95.664,191.07,0,95.785.047,126.46.086,135.7L3.277,952.305c-2.953,1.5-4.129,5.113-2.617,8.062,1.055,2.09,3.168,3.277,5.352,3.277.91,0,1.848-.215,2.723-.66l307.8-156.8c2.016-1.031,3.289-3.121,3.277-5.387,0-.07-.098-13.32-.098-139.31,0-121.44-89.699-192.55-99.742-200.12-25.402-44.941-38.855-96.086-38.855-148.03C181.117,147.198,316.277,12.038,482.407,12.038c163.41,0,296.36,136.4,296.36,304.08,0,.73.133,1.453.383,2.137l60.887,160.03-52.402,19.105c-2.832,1.031-4.465,3.996-3.805,6.938l11.832,53.125-63.816,22.246c-2.93,1.019-4.609,4.106-3.852,7.117.758,3,3.637,4.992,6.742,4.477l44.797-6.887-28.164,41.062c-1.152,1.668-1.367,3.781-.613,5.664l16.969,41.773c-96.816,27.012-124.59,26.746-184.01,26.16-7.945-.086-16.441-.168-25.754-.191.301-22.152-4.246-95.207-72.238-154.04-2.496-2.172-6.289-1.894-8.461.613-2.172,2.508-1.894,6.289.613,8.461,74.605,64.559,67.922,149.57,67.836,150.42-.156,1.68.406,3.336,1.547,4.586,1.141,1.246,2.746,1.957,4.43,1.957,11.746,0,22.246.109,31.895.203,8.269.086,15.938.156,23.27.156,4.836,0,9.516-.047,14.137-.133l20.891,91.117c.395,1.754,1.547,3.215,3.144,4.019l309.86,156.8c.863.434,1.789.648,2.711.648,2.195,0,4.297-1.211,5.352-3.289,1.516-2.988.316-6.598-2.637-8.098l.007-.004Z"/>
  <circle cx="679.912" cy="357.795" r="19.906"/>
</svg>