<?xml version="1.0" encoding="UTF-8"?>
<svg width="1200pt" height="1200pt" version="1.1" viewBox="0 0 1200 1200" xmlns="http://www.w3.org/2000/svg">
 <path d="m829.22 434.53c81.703 0 148.31-66.469 148.31-148.22 0-81.703-66.469-148.31-148.31-148.31-81.703 0-148.22 66.469-148.22 148.31 0 81.75 66.469 148.22 148.22 148.22zm0-273.98c69.375 0 125.76 56.391 125.76 125.76 0 69.234-56.391 125.63-125.76 125.63-69.234 0-125.63-56.391-125.63-125.63-0.14062-69.375 56.25-125.76 125.63-125.76zm256.18 360c-43.547-41.766-107.53-63.703-185.06-63.703-90.469 0-162.94 19.781-215.63 58.781-21.703-21.844-51.609-35.297-84.703-35.297-15.375 0-30 2.8594-43.547 8.1562-51.703-64.312-140.29-98.297-256.92-98.297-77.531 0-141.61 22.078-185.06 63.703-42.469 40.875-65.531 100.27-66.469 171.89v0.60938c2.0625 51 11.156 99.375 27 143.63 19.312 54.141 48 100.31 85.312 138.24v209.06c0 6.2344 5.0625 11.297 11.297 11.297s11.297-5.0625 11.297-11.297l-0.046875-188.02c56.156 47.766 128.63 79.453 215.63 93.469v94.547c0 6.2344 5.0625 11.297 11.297 11.297 6.2344 0 11.297-5.0625 11.297-11.297v-92.062c19.922 0.23438 39.234-5.8594 55.453-18.141 19.312-14.531 31.781-35.625 35.156-59.531 7.0781-49.312-27.375-95.062-76.688-102.14-2.1562-0.375-4.4531-0.60938-6.6094-0.9375 17.766-49.312 64.781-82.922 118.08-82.922h107.3c69.234 0 125.53 56.297 125.53 125.53v22.781c-4.5469 0.84375-9.2344 1.5469-13.922 2.2969-49.312 7.0781-83.625 52.922-76.688 102.14 3.375 23.859 15.938 45 35.297 59.531 16.219 12.141 35.531 18.469 55.453 18.141v25.312c0 6.2344 5.0625 11.297 11.297 11.297 6.2344 0 11.297-5.0625 11.297-11.297v-27.938c104.77-17.062 188.53-59.531 248.06-124.92l27.469 154.92c0.9375 5.5312 5.7656 9.375 11.062 9.375 0.60938 0 1.3125 0 2.0625-0.14062 6.1406-1.0781 10.219-6.9375 9.1406-13.078l-30.844-173.53c23.625-30.703 42.469-65.859 56.531-105.14 15.844-44.531 24.938-92.859 26.859-143.63v-0.60938c-1.3125-71.766-24.375-131.26-66.984-172.08zm-485.39-17.625c53.531 0 96.938 43.547 96.938 96.938s-43.547 96.938-96.938 96.938-96.938-43.453-96.938-96.938 43.547-96.938 96.938-96.938zm503.86 326.29c-47.766 133.92-157.22 216.71-316.45 239.63-17.859 2.5312-35.766-2.0625-50.156-12.844-14.531-10.922-23.859-26.766-26.391-44.625-5.2969-36.938 20.531-71.391 57.609-76.688 107.16-15.375 177.47-68.297 208.92-157.22 8.8594-24.938 14.766-54.703 16.547-84 0.375-6.2344-4.3125-11.531-10.547-12h-0.70313c-5.8594 0-10.781 4.5469-11.297 10.547-1.6875 27.234-7.2188 54.844-15.375 77.859-24.703 69.938-76.547 115.31-154.31 135.24v-17.859c0-81.609-66.375-147.94-147.94-147.94h-107.3c-64.078 0-120.37 41.062-140.39 101.16-81.938-18.844-136.31-64.781-162-137.06-8.1562-23.156-13.688-50.766-15.375-78-0.375-6.2344-5.7656-10.922-12-10.547s-10.922 5.7656-10.547 12c1.7812 29.156 7.7812 59.062 16.547 84 31.547 88.922 101.86 141.84 208.92 157.22 36.938 5.2969 62.766 39.703 57.469 76.688-2.5312 17.859-11.859 33.844-26.391 44.625-14.531 10.922-32.297 15.469-50.297 12.844-159.24-22.781-268.69-105.7-316.45-239.63-15-42-23.625-88.078-25.688-136.69 2.2031-135.47 85.734-213.14 229.36-213.14 107.16 0 188.53 29.766 236.29 86.297-33.234 21.234-55.453 58.547-55.453 100.78 0 65.859 53.625 119.53 119.53 119.53 65.859 0 119.53-53.625 119.53-119.53 0-24.703-7.5469-47.766-20.391-66.844 48.609-35.625 116.3-53.625 201.24-53.625 143.63 0 227.16 77.625 229.08 213.14-1.8281 48.328-10.453 94.312-25.594 136.69zm-733.08-461.29c81.703 0 148.22-66.469 148.22-148.31 0-81.703-66.469-148.31-148.22-148.31-81.703 0-148.31 66.469-148.31 148.31 0.14062 81.703 66.609 148.31 148.31 148.31zm0-274.08c69.234 0 125.63 56.391 125.63 125.76 0 69.371-56.391 125.76-125.63 125.76-69.375 0-125.76-56.391-125.76-125.76 0.14062-69.375 56.531-125.76 125.76-125.76z"/>
</svg>
