<?xml version="1.0" encoding="UTF-8"?>
<svg id="Layer_1" data-name="Layer 1" xmlns="http://www.w3.org/2000/svg" viewBox="0 0 1191.61 1099.226">
  <path d="M564.583,43.551c-4.078-3.234-9.984-2.484-13.172,1.547l-63.188,80.297c-3.188,4.078-2.484,9.984,1.594,13.172,1.734,1.359,3.75,2.016,5.766,2.016,2.766,0,5.531-1.219,7.359-3.562l63.188-80.297c3.188-4.078,2.531-9.984-1.547-13.172h0Z"/>
  <path d="M945.773,162.14h-111.14l-8.297-52.5C816.352,46.124,762.399,0,698.076,0h-150.94c-64.312,0-118.27,46.078-128.26,109.64l-8.297,52.5h-111.14c-19.266,0-34.969,15.656-34.969,34.922v25.828c0,12.234,9.938,22.172,22.172,22.172h83.062c1.688,8.812,4.688,24.328,8.859,43.875-12.469,13.781-20.109,31.922-20.109,51.891v18.375c0,35.859,24.469,66,57.562,74.812,8.156,24.984,16.922,47.578,25.969,64.312,17.016,37.125,47.203,67.359,86.297,84.469v16.219h-50.438c-5.203,0-9.375,4.172-9.375,9.375v14.531h-5.344c-61.547,0-111.66,50.062-111.66,111.66v4.547c-1.688-.234-3.234-.422-4.5-.609l-13.688-29.203c-.047-.047-.094-.094-.094-.141-.047-.047-.047-.141-.047-.188-.516-.984-50.25-99.844,28.641-182.95,7.875-8.344,9.797-21.047,4.828-31.641l-21.094-44.953c-1.125-2.438-1.266-5.156-.375-7.688l6.703-18.562c2.625-7.219,2.25-15.047-.984-22.031-3.281-6.984-9.047-12.234-16.266-14.859-12.609-4.5-26.484.047-33.75,11.156-11.25,17.109-31.875,52.594-45.422,99.094-14.484-34.688-34.031-56.672-49.5-69.562-14.672-12.188-26.391-25.641-34.828-39.891l-23.156-38.906c-4.5-7.594-12.469-12.141-21.375-12.188h-.094c-8.719,0-16.594,4.406-21.047,11.812-39.188,65.109,6.844,158.39,36.094,206.11-46.125-20.859-88.594-27.984-109.59-30.375-13.172-1.453-25.594,6.234-30.188,18.844-2.625,7.219-2.25,15.047.984,21.984,3.281,6.984,9.047,12.234,16.266,14.859l18.516,6.656c2.531.938,4.594,2.766,5.719,5.25l21.094,44.953c4.969,10.594,16.031,17.203,27.422,16.5,113.81-7.5,157.22,90.797,158.95,94.969.047.047.094.141.094.188.047.047,0,.094.047.141l13.688,29.203c-7.172,11.062-24.703,40.5-34.031,75.281,0,.047-.047.141-.047.188-6.422,24.047-8.953,50.625-1.266,75.516,16.312,52.781,72.281,81.75,166.45,86.156l32.438,69.141c4.5,9.609,14.344,15.844,24.984,15.844,4.078,0,8.016-.891,11.672-2.625,13.688-6.422,19.594-22.875,13.125-36.609l-32.438-69.141c25.875-34.312,42.656-65.719,50.531-94.125h388.26c5.203,0,9.375-4.172,9.375-9.375l.141-152.81c0-61.547-50.109-111.66-111.66-111.66h-5.297v-14.531c0-5.203-4.172-9.375-9.375-9.375h-50.484v-16.359c36.562-15.938,65.344-43.5,82.781-77.391,2.625-.469,5.062-2.016,6.516-4.547,9.703-17.203,19.078-41.391,27.703-68.109,30.656-10.359,52.781-39.328,52.781-73.406v-18.375c0-18.047-6.281-34.641-16.641-47.859,4.594-21.375,7.969-38.531,9.75-47.906h78.75c12.234,0,22.172-9.938,22.172-22.172l-.047-25.781c0-19.266-15.656-34.922-34.922-34.922l.038-.008ZM437.413,112.546c8.578-54.328,54.703-93.797,109.73-93.797h150.94c54.984,0,101.16,39.469,109.73,93.797l7.828,49.594h-386.06l7.832-49.594ZM818.603,417.186v-134.39c12,1.922,22.641,7.641,31.031,15.703-7.734,35.109-18.375,79.266-30.469,118.55-.234.047-.375.141-.562.141v-.004ZM426.633,404.483c-10.922-37.266-20.438-77.344-27.422-109.36,7.781-6.281,17.156-10.641,27.422-12.328v121.688ZM484.571,245.063c-3.188,16.125-10.5,40.969-23.297,48.422-5.156-2.203-11.766-24.375-14.812-48.422h38.109ZM798.781,245.063c-3.094,24-9.703,46.125-15.141,48.047-12.562-7.172-19.875-31.922-23.016-48.047h38.157ZM426.641,263.954c-11.531,1.406-22.266,5.344-31.688,11.297-2.625-12.562-4.688-22.922-6.094-30.141h37.781v18.844ZM377.282,359.204v-18.375c0-9.75,2.578-18.891,6.797-27,6.703,29.812,15.234,64.641,24.938,97.406-18.797-9.844-31.734-29.391-31.734-52.031h0ZM547.152,681.044l66.141,44.719c1.688,2.672,4.641,4.359,7.922,4.359h1.406c3.281,0,6.234-1.688,7.922-4.359l67.641-45.797v82.219l-151.03.047-.002-81.188ZM698.182,657.372l-76.312,51.609-74.766-50.578v-68.719c16.031,4.828,32.484,7.359,49.172,7.359h52.547c16.828,0,33.375-2.531,49.312-7.406l.047,67.735ZM316.572,407.762c2.484-3.797,7.312-5.391,11.719-3.797,2.531.891,4.5,2.766,5.672,5.156,1.125,2.438,1.266,5.156.375,7.688l-6.703,18.562c-2.578,7.219-2.203,15.047,1.031,21.984l21.094,44.953c1.734,3.703,1.125,8.016-1.453,10.781-73.547,77.438-46.781,167.39-35.625,195.56l-15.375,7.219c-6.375-16.406-13.734-31.453-21.938-45.188-41.438-121.08,19.125-229.36,41.203-262.92v.002ZM245.041,624.132c.281,2.062.656,4.125.984,6.188-1.219-1.406-2.438-2.812-3.656-4.172.516-.234,1.078-.422,1.547-.797.469-.328.75-.797,1.125-1.219h0ZM121.521,357.552c1.5-2.484,3.984-2.766,5.016-2.766,1.078,0,3.703.328,5.297,3l23.156,38.906c9.562,16.078,22.641,31.125,38.953,44.719,17.391,14.484,40.641,41.766,53.484,89.297-4.359,24.094-6.328,50.203-4.078,77.672-50.203-71.203-54.656-123.71-54.75-124.74-.328-5.156-4.828-9.094-9.938-8.766-5.156.328-9.094,4.781-8.766,9.938.141,2.156,3.656,48.938,45.375,115.22-12.703-10.734-25.875-19.922-39.094-27.891-8.906-12.188-99.656-139.82-54.656-214.6v.011ZM90.583,633.972c-3.797.234-7.5-2.062-9.234-5.766l-21.094-44.953c-3.234-6.938-9-12.234-16.266-14.906l-18.562-6.703c-2.531-.938-4.547-2.766-5.672-5.156-1.125-2.438-1.266-5.156-.375-7.641,1.594-4.406,5.859-7.031,10.406-6.562,39.938,4.453,161.9,27.094,228.47,136.36,5.297,15.094,12.188,30.422,20.766,45.797l-15.328,7.172c-14.484-26.578-66.375-104.67-173.11-97.641h0ZM426.113,993.732l34.828,74.297c2.062,4.406.188,9.609-4.125,11.672-4.312,2.016-9.703,0-11.719-4.219l-34.828-74.297c-1.5-3.188-4.641-5.25-8.156-5.391-88.781-3.188-140.95-27.844-154.97-73.219-5.859-18.984-4.594-39.703,0-59.203,17.344-2.672,66.047-11.156,92.766-25.594,4.547-2.484,6.234-8.156,3.797-12.703-2.484-4.547-8.156-6.234-12.703-3.797-20.484,11.062-57.469,18.562-78,22.125,11.672-33.516,29.625-59.578,29.953-60.047,1.922-2.766,2.25-6.328.797-9.375l-11.953-25.5,48.469-22.734,11.953,25.5c1.406,3.047,4.359,5.109,7.734,5.344.984.094,97.453,8.578,131.06,63.188,3.328,5.391,5.906,11.156,7.781,17.109-15.141,15.844-79.641,78.609-152.48,78.797-5.156,0-9.375,4.219-9.328,9.422,0,5.156,4.219,9.328,9.375,9.328h.047c69.609-.188,129.89-49.5,156.05-74.625.562,34.125-17.859,75.656-55.266,124.18-2.156,2.859-2.531,6.609-1.078,9.75l-.004-.009ZM718.753,878.042h-192.32v-53.062h192.32v53.062ZM782.081,641.602c51.234,0,92.906,41.672,92.906,92.906v143.53h-79.172v-50.953c0-.891-.141-1.781-.375-2.672l-18.656-63.047-.047-119.77,5.344.006ZM757.987,617.696v145.03c0,.891.141,1.781.375,2.672l18.656,63.047v49.594h-39.516v-62.438c0-5.203-4.172-9.375-9.375-9.375h-211.08c-5.203,0-9.375,4.172-9.375,9.375v62.438h-7.594c3.609-25.453-.703-48.188-13.078-68.109-26.297-42.703-82.312-60.469-116.72-67.547v-7.875c0-51.234,41.672-92.906,92.906-92.906h5.344v121.13c0,5.203,4.172,9.375,9.375,9.375s9.375-4.172,9.375-9.375v-145.03h41.062v153.84c0,5.203,4.172,9.375,9.375,9.375h169.78c5.203,0,9.375-4.172,9.375-9.375l.047-153.84,41.068-.006ZM704.081,567.774c-17.625,6.938-36.234,10.5-55.266,10.5h-52.547c-18.844,0-37.406-3.469-55.125-10.359-36.609-14.391-65.062-41.578-81.141-75.328-.141-.375-.141-.75-.375-1.125-.234-.422-.469-.844-.656-1.266-8.766-19.266-13.594-40.547-13.641-62.812v-.094l.047-123.42c2.156,2.625,4.453,4.781,7.078,6.188,2.672,1.406,5.531,2.109,8.438,2.109,3.328,0,6.656-.938,9.938-2.766,21.656-12.328,30.047-47.672,32.859-64.312h237.84c2.812,16.641,11.203,52.031,32.859,64.312,3.234,1.828,6.609,2.766,9.938,2.766,2.906,0,5.719-.703,8.391-2.109,2.625-1.359,4.969-3.516,7.078-6.141v123.42c0,62.484-37.547,117.61-95.719,140.44l.006-.004ZM867.951,340.804v18.375c0,20.438-10.641,38.297-26.484,48.844,8.672-29.625,16.359-60.703,22.641-88.125,2.484,6.469,3.844,13.547,3.844,20.906h0ZM854.076,277.71c-10.266-7.312-22.406-12.234-35.531-13.828v-18.844h42.141c-1.5,7.688-3.703,18.984-6.609,32.672h0ZM961.936,222.866c0,1.875-1.547,3.422-3.422,3.422H286.634c-1.875,0-3.422-1.547-3.422-3.422l.047-25.828c0-8.906,7.266-16.172,16.219-16.172h646.31c8.906,0,16.172,7.266,16.172,16.172l-.024,25.828Z"/>
  <path d="M660.713,447.24c-5.203,0-9.375,4.219-9.375,9.375,0,3.047-10.125,9-28.734,9s-28.734-5.953-28.734-9c0-5.156-4.172-9.375-9.375-9.375s-9.375,4.219-9.375,9.375c0,5.531,2.297,15.844,17.578,22.406,8.062,3.469,18.656,5.344,29.906,5.344,28.406,0,47.484-11.156,47.484-27.75,0-5.203-4.219-9.375-9.375-9.375h0Z"/>
  <path d="M622.653,48.66l-63.188,80.297c-3.188,4.078-2.484,9.984,1.594,13.172,1.734,1.359,3.75,2.016,5.766,2.016,2.766,0,5.531-1.219,7.359-3.562l63.188-80.297c3.188-4.078,2.484-9.984-1.594-13.172-4.031-3.234-9.938-2.484-13.125,1.547Z"/>
  <path d="M1114.808,1015.494c5.044-8.006,5.548-17.801,1.294-26.247l-45.36-90.857,5.007-274.847,1.871.033c5.947.106,10.823-4.599,10.927-10.544l.432-24.224,79.66-41.375c14.452-7.453,23.485-22.878,22.948-39.135l-6.079-199.757c-.45-11.794-9.975-21.217-21.758-21.426l-2.864-.051c-11.564-.206-21.47,8.705-22.445,20.254l-11.736,139.352c-.352,4.236-3.934,7.474-8.228,7.398-4.24-.02-7.704-3.497-7.959-7.686l-6.764-139.682c-.564-11.577-10.093-20.889-21.709-21.04-11.619-.153-21.47,8.705-22.445,20.254l-11.792,139.406c-.352,4.236-3.934,7.474-8.228,7.398-4.294-.077-7.704-3.497-7.959-7.686l-6.598-139.734c-.564-11.577-10.093-20.889-21.709-21.04-11.619-.153-21.47,8.705-22.445,20.254l-11.792,139.406c-.352,4.236-3.934,7.474-8.228,7.398-4.183-.075-7.761-3.442-7.959-7.686l-6.708-139.736c-.564-11.577-10.093-20.889-21.709-21.04l-2.864-.051c-11.782-.21-21.692,8.811-22.453,20.694l-13.191,199.413c-.822,12.159,3.705,23.914,11.978,32.488,2.811,2.913,6.016,5.45,9.561,7.44l80.372,45.383-.41,23.012c-.051,2.864,1.057,5.582,3.059,7.656s4.735,3.224,7.542,3.329l1.871.033-4.956,274.789-48.567,89.184c-4.555,8.291-4.343,18.152.358,26.277,1.122,1.947,2.468,3.678,3.929,5.192,4.434,4.595,10.388,7.29,16.823,7.902,1.611,5.481,4.385,10.487,8.224,14.466,6.274,6.501,14.958,10.565,24.648,10.739l59.464,1.059c9.359.167,18.289-3.364,25.015-9.854,4.092-3.948,6.986-8.798,8.789-14.107,8.651-.454,16.499-4.997,21.147-12.403l-.004.002ZM918.078,524.075c-7.035-3.924-11.245-11.766-10.662-19.796l13.191-199.413c.006-.33.287-.601.617-.595l2.864.051c.33.006.601.287.595.617l6.818,139.738c.771,15.489,13.492,27.887,29.019,28.166,15.528.277,28.683-11.66,30.004-27.114l11.681-139.408c.006-.33.287-.601.617-.595s.601.287.595.617l6.764,139.682c.771,15.489,13.492,27.887,29.019,28.166,15.528.277,28.683-11.66,30.004-27.114l11.846-139.35c.006-.33.287-.601.617-.595.33.006.601.287.595.617l6.818,139.738c.771,15.489,13.492,27.887,28.964,28.109,15.528.277,28.683-11.66,30.004-27.114l11.736-139.352c.006-.33.287-.601.617-.595l2.864.051c.33.006.601.287.595.617l6.079,199.757c.241,8.099-4.245,15.676-11.361,19.404l-69.319,35.941,1.197-67.17c.102-5.724-4.82-10.825-10.544-10.927l-79.505-1.417c-5.947-.106-10.823,4.599-10.927,10.544l-1.218,68.382-70.18-39.638ZM1010.807,506.562l58.029,1.034-1.681,94.369-1.541-.027c-.111-.002-.164-.057-.273-.06-.111-.002-.166.051-.275.051l-53.847-.959c-.111-.002-.164-.057-.219-.004-.111-.002-.166.051-.219-.004l-1.652-.029,1.678-94.369ZM1054.222,623.105l-4.754,266.811-32.924-.587,4.808-266.755,32.87.531ZM965.359,1001.707c-.427-.779-1.326-2.831-.072-5.233l46.689-85.747,41.404.738,43.605,87.356c1.225,2.39.197,4.464-.258,5.227-.341.544-1.186,1.687-2.738,2.208-1.617-5.151-4.286-9.935-8.125-13.914-6.543-6.781-15.287-10.57-24.648-10.739l-59.464-1.059c-9.359-.167-18.289,3.364-25.015,9.854-3.979,3.839-6.816,8.526-8.615,13.615-1.639-.581-2.445-1.752-2.765-2.306h0ZM1060.24,1030.383l-59.463-1.059c-7.599-.135-13.602-6.356-13.412-13.899.135-7.599,6.356-13.602,13.899-13.412l59.463,1.059c3.742.067,7.131,1.669,9.564,4.19s3.915,5.963,3.847,9.707c-.134,7.492-6.41,13.549-13.897,13.414h0Z"/>
</svg>