<?xml version="1.0" encoding="UTF-8"?>
<svg id="Layer_1" xmlns="http://www.w3.org/2000/svg" version="1.1" viewBox="0 0 1023.9 941.8">
  <!-- Generator: Adobe Illustrator 29.2.1, SVG Export Plug-In . SVG Version: 2.1.0 Build 116)  -->
  <defs>
    <style>
      .st0 {
        fill: red;
        fill-rule: evenodd;
      }
    </style>
  </defs>
  <path d="M245,376.1c4.5-2.6,10.2-1.1,12.8,3.4,3.9,6.9,10.2,12.2,17.6,14.9,7.4,2.7,15.6,2.7,23,0,7.4-2.7,13.7-8,17.6-14.9,1.2-2.3,3.2-3.9,5.7-4.7s5.1-.4,7.3.9c2.2,1.3,3.8,3.4,4.4,5.9s.2,5.1-1.2,7.3c-6.1,10.7-15.8,18.9-27.4,23.1-11.6,4.2-24.3,4.2-35.9,0-11.6-4.2-21.3-12.4-27.4-23.1-2.6-4.5-1.1-10.2,3.4-12.8h0ZM1023.8,853.4c1.1,23-7.3,45.5-23.2,62.2-15.9,16.7-38,26.1-61.1,26.1H84.5c-23.1,0-45.2-9.4-61.1-26.1-15.9-16.7-24.3-39.2-23.2-62.3l10.9-229.2h0c1.3-26.8,11.4-52.3,28.7-72.8,17.3-20.5,40.8-34.7,67-40.5l105.3-23.2v-35c-46.4-26.8-74.9-76.2-75-129.7-9.7,0-19-3.6-25.9-10.3-7-6.7-11.1-15.8-11.5-25.4-.4-9.6,2.9-19.1,9.3-26.3v-97.3c0-32.3,12.9-63.3,35.7-86.1,22.8-22.8,53.8-35.7,86.1-35.7h75c19.2,0,37.4,8.4,49.7,23.1,8.8,9.6,21.3,14.9,34.3,14.4h9.7c17.4,0,34.1,6.9,46.4,19.2,12.3,12.3,19.2,29,19.2,46.4v116.1c6.4,7.2,9.8,16.7,9.3,26.3-.4,9.6-4.5,18.8-11.5,25.4-7,6.7-16.3,10.4-25.9,10.3,0,53.5-28.6,102.9-75,129.7v35l56.2,12.4h0c32.1-25,72.9-36,113.2-30.5-28-13.9-50.4-37.1-63.3-65.6-.9-2.8-.5-5.8,1.1-8.2,1.6-2.4,4.3-3.9,7.1-4.1,65.9-4.4,78-73.1,76.6-129.9l-5.4-53.7v-24.4c0-78.3,74.9-142.1,167-142.1h41.1c92,0,166.9,63.8,166.9,142.1v23.4l-5.5,55.3c-1.4,56.1,10.8,124.8,76.7,129.2,2.9.2,5.5,1.7,7.2,4.1s2,5.4,1.1,8.2c-1,3.1-23.6,66.3-138.5,95.1l53.9,11.9h0c26.1,5.8,49.7,20,67,40.5,17.3,20.5,27.4,46,28.7,72.8l10.8,229.2h0ZM913.4,529.3l-65.9-14.5c-9.4,54.9-47.9,108.3-101.1,108.3h-18.8c-24.6-.6-47.9-11.6-64-30.2,2.6,12.8,3.5,25.8,2.8,38.8,8.2,6.4,13.4,16,14.2,26.4.8,10.4-2.8,20.7-9.8,28.3-7.1,7.7-17.1,12-27.5,11.9h-7.5c-12.3,28.1-33.9,51.2-61,65.4.7.4,1.4.8,2,1.1.5,0,1,.2,1.5.3,1.2.5,2.3,1.3,3.2,2.3,13.3,7.6,25.2,17.2,35.3,28.7,14.2-6,30.3-5.8,44.5.4,14.1,6.3,25.1,18.1,30.2,32.7h214.3v-2.6c0-2.7,1.2-5.3,3.3-7.1,21.4-16.8,35-41.8,37.5-68.9,3.9-53.3-38-102.2-38.5-102.7h0c-3.4-3.9-3-9.8.9-13.2,3.9-3.4,9.8-3,13.2.9,1.9,2.2,47.4,55.1,43.1,116.2-.3,4.2-.9,8.3-1.7,12.5l36.8-10.7-6.1-128.5c-1.1-22.6-9.7-44.2-24.3-61.6s-34.5-29.3-56.6-34.2h0ZM378.2,663.6c-.3-2.2-.7-4.5-.9-6.7-.4-4.4-.7-8.7-.7-13.1v-1.1c-6,1.4-11,5.7-13.2,11.4-2.3,5.8-1.5,12.2,1.9,17.4s9.2,8.2,15.4,8.2h.6c-.9-3.1-1.6-6.1-2.2-9.1-.3-2.3-.6-4.6-.9-7h0ZM437.8,733.7c16.1,13.3,35.6,21.9,56.2,25,1.6.2,3.2.5,4.8.6,2.6.3,5.2.5,7.8.6,2.6.1,5.3.1,8,0,1.6,0,3.2,0,4.9-.1h0c9.4-.6,18.7-2.4,27.6-5.2h.2c33.5-10.5,60.5-35.7,73.3-68.4v-.7c2.6-6.7,4.6-13.6,5.9-20.6,0-.5,0-1,.2-1.6,1.1-6,1.6-12,1.7-18.1.4-18.8-3.9-37.4-12.4-54.2-3.6-6.9-9.7-12.1-17-14.5-7.4-2.4-15.4-1.8-22.3,1.6l-13.5,6.8h0c-25.8,12.9-54.2,19.6-83,19.7h-54.7c-7-.1-13.9,2.3-19.2,6.9-5.4,4.6-8.9,10.9-9.9,17.9-.1,1,0,2.1-.2,3.1,0,.4.1.7.1,1.1-.5,5.7-.6,11.5-.4,17.2v.2c.2,4.1.7,8.2,1.4,12.3.9,5.8,2.3,11.5,4.1,17.1.2.8.5,1.5.8,2.3,7.1,19.9,19.4,37.5,35.7,50.9h0s0,0,0,0ZM642.8,677.6c-.2.7-.2,1.3-.4,2h.8c6.2,0,12-3.1,15.5-8.2,3.5-5.1,4.2-11.7,1.9-17.4s-7.3-10-13.4-11.4v1.1c0,.7-.1,1.5-.1,2.2,0,2.4-.3,4.8-.5,7.1-.3,4.2-.7,8.4-1.4,12.6-.3,1.6-.2,3.3-.5,4.9-.4,2.4-1.3,4.7-1.9,7.1h0s0,0,0,0ZM462.1,778.4h0c10.6,17.4,29.5,28,49.9,28s39.3-10.6,49.9-28c-3.9-1.8-7.9-3.5-12-4.9l-1,.2c-3.3.9-6.4,2.1-9.8,2.7h0c-6.4,1.2-12.8,1.9-19.3,2.2-1.3,0-2.7.1-4,.2s-2.3.2-3.5.2-2.1-.2-3.2-.3h0c-6.3-.1-12.6-.6-18.9-1.6-.6,0-1.2-.1-1.8-.2-1.2-.2-2.3-.2-3.5-.4-3.7-.8-7.3-1.7-10.9-2.9-4.1,1.4-8,3-11.9,4.9h0,0ZM644.8,510.7c7.7,46.4,40,93.5,82.8,93.5h18.8c42.8,0,75.1-47.1,82.8-93.5l-12.7-2.8c-4.3.6-8.3,1.3-12.8,1.9-3-1.2-5.5-3.2-7.4-5.8-1.9-2.6-3-5.7-3.2-8.9,0-.4.1-1.9.2-2.2v-30.9c-36.1,14.7-76.4,14.7-112.5,0v31h0c.1.6.2,1.2.2,1.9-.6,2.3-.6,4.7-.1,7-.5,4.8-4.6,8.4-9.4,8.4h-1c-5-.5-9.5-1.3-14.3-1.9l-11.3,2.4h0ZM868.2,323v-84.4c0-11.8-4.5-23.2-12.5-31.8-8-8.7-19-14-30.8-14.9-25.5,23.9-59.2,37.2-94.2,37.4h-78.2c-12.4,0-24.4,4.9-33.1,13.7-8.8,8.8-13.7,20.7-13.7,33.1v46.9c0,23.3,6.2,46.2,18,66.3,11.8,20.1,28.7,36.7,49,48.1,2.2.3,4.2,1.3,5.6,2.9,40.7,20.5,89.1,18.4,127.8-5.5,38.7-23.9,62.3-66.3,62.1-111.8h0s0,0,0,0ZM583.2,472.4c.7,0,1.4.1,2.1.3,17.7,6.1,35.9,10.7,54.4,14,.3,0,.6.2.8.3,4.7.8,9.5,1.6,14.5,2.3l6.9-1.6v-35c-46.4-26.8-74.9-76.2-75-129.7v-46.9c0-17.4,6.9-34.1,19.2-46.4,12.3-12.3,29-19.2,46.4-19.2h78.2c31.4,0,61.6-12.6,83.9-34.8,1.8-1.8,4.1-2.7,6.6-2.7,17.4,0,34.1,6.9,46.4,19.2,12.3,12.3,19.2,29,19.2,46.4v84.4c0,53.5-28.6,103-75,129.7v35l5.6,1.2c107.2-15.4,147.9-59.8,161.2-80.3-54.1-10.6-82.4-62.3-80.3-147.2l5.5-55.1v-22.5c0-68-66.5-123.3-148.2-123.3h-41.1c-81.7,0-148.3,55.3-148.3,123.3v23.4l5.4,53.4c2.2,85.5-26.2,137.2-80.1,147.9h0c22.7,30.8,54.9,53.2,91.6,63.8h0s0,0,0,0ZM603,498h0c7.9,5.7,15.2,12.1,21.9,19.1,1,1.1,1.9,2.2,2.8,3.3-1.1-5.3-2-10.7-2.6-16.1,0-.4,0-.8.1-1.3-7.8-1.6-15.2-3.2-22.3-5.1h0s0,0,0,0ZM512,487c-37.6-.2-73.6,15.4-99.2,43-4.8,5.1-9.2,10.6-13.1,16.5-1.7,3.1-3.6,5.9-5.6,8.8-12,20.8-18.2,44.5-18,68.6.8,0,1.5-.2,2.3-.2,2.3-10.7,8.2-20.3,16.7-27.2,8.5-6.9,19.2-10.6,30.2-10.5h54.9c25.9,0,51.4-6.1,74.6-17.6l13.5-6.8c11.4-5.7,24.6-6.6,36.6-2.7,12.1,4,22.1,12.5,27.9,23.9,6.5,12.9,10.9,26.7,12.9,40.9l2.1.2c.3-36.2-13.9-71-39.4-96.7-25.5-25.7-60.2-40.1-96.4-40.1h0,0ZM383.7,536.8c4-7.3,7.1-14.9,9.4-22.9l-32.5-7.2h0c-.6,3-1.5,6-2.5,8.9-.4,1.4-.8,2.9-1.3,4.3-.9,2.2-2,4.3-3.1,6.4-1.1,2.1-2.1,4.1-3.3,6.1-1,1.6-2.1,3.1-3.3,4.6-1.6,2.2-3.4,4.4-5.3,6.4-1.1,1.2-2.2,2.3-3.4,3.4-2.2,2.1-4.6,4-7,5.8-1.2.8-2.3,1.7-3.5,2.5-2.7,1.7-5.5,3.2-8.4,4.6-1.3.6-2.5,1.3-3.8,1.8-3.2,1.2-6.4,2.2-9.7,3-1.2.3-2.4.8-3.8,1h0c-4.7.9-9.4,1.4-14.2,1.4h-2.4c-4.8,0-9.5-.5-14.2-1.4-1.2-.2-2.4-.7-3.6-1h0c-3.3-.8-6.6-1.8-9.7-3-1.3-.5-2.5-1.1-3.8-1.7h0c-2.9-1.3-5.8-2.9-8.5-4.6-1.2-.8-2.3-1.6-3.5-2.5h0c-2.5-1.8-4.8-3.7-7.1-5.8-1.2-1.1-2.3-2.2-3.4-3.4h0c-1.9-2-3.6-4.2-5.3-6.4-1.1-1.5-2.3-3-3.3-4.7-1-1.6-2.2-3.9-3.2-5.9h0c-1.2-2.1-2.2-4.3-3.2-6.6-.5-1.2-.8-2.6-1.2-3.8-1.1-3-2-6.1-2.6-9.3l-32.5,7.2h0c6.5,22.8,20.3,42.8,39.2,57.1,18.9,14.3,41.9,22,65.6,22.1h2.8c35.9-.1,69.4-17.9,89.7-47.4,1.8-3,3.7-6,5.7-8.9h0ZM455.7,285.5c0-5-2-9.7-5.5-13.3-3.5-3.5-8.3-5.5-13.3-5.5v37.5c5,0,9.7-2,13.3-5.5,3.5-3.5,5.5-8.3,5.5-13.3h0ZM127.6,163.6v85.7c3.1-.8,6.2-1.3,9.4-1.3h6.6c5.3-11.2,13.7-20.6,24.1-27.3,10.4-6.6,22.6-10.2,34.9-10.2h78.2c31.4,0,61.6-12.6,83.9-34.8,1.8-1.8,4.1-2.7,6.6-2.7,17.4,0,34.1,6.9,46.4,19.2,12.3,12.3,19.2,29,19.2,46.4v9.4c3.2,0,6.3.5,9.4,1.3v-104.5c0-12.4-4.9-24.4-13.7-33.1-8.8-8.8-20.7-13.7-33.1-13.7h-9.7c-18.5.5-36.3-7.2-48.6-21-8.8-10.4-21.8-16.5-35.5-16.5h-75c-27.3,0-53.6,10.9-72.9,30.2s-30.2,45.5-30.2,72.9h0s0,0,0,0ZM137,304.2v-28.1c0-3.1.2-6.3.8-9.4h-.8c-6.7,0-12.9,3.6-16.2,9.4-3.3,5.8-3.3,12.9,0,18.8,3.4,5.8,9.5,9.4,16.2,9.4ZM227,439.6c4,2.1,8.1,4,12.4,5.6.7.3,1.3.5,2,.7,29.4,10.7,61.7,10.7,91.1,0,.7-.2,1.4-.5,2-.7,4.2-1.6,8.4-3.5,12.4-5.6,21.5-11,39.5-27.7,52.1-48.3,12.6-20.6,19.3-44.2,19.3-68.3v-84.4c0-11.8-4.5-23.2-12.5-31.8-8-8.7-19-14-30.8-14.9-25.5,23.9-59.2,37.2-94.2,37.4h-78.2c-9.6,0-19,3-26.9,8.6-7.9,5.6-13.8,13.4-17.1,22.5v.2c-.9,2.5-1.6,5.1-2.1,7.7-.5,2.6-.8,5.2-.8,7.9v46.9c0,24.1,6.7,47.7,19.2,68.3,12.6,20.6,30.6,37.3,52,48.3h0,0ZM233.7,463.1c-1-.4-2.1-.7-3.1-1.1v30.9c0,.6.1,1.1.2,1.6v.3c.2,7.2,1.9,14.2,4.8,20.8.1.3.3.5.4.8h0c1.3,2.8,2.8,5.5,4.6,8,.8,1.1,1.8,2.2,2.7,3.2h0c1.2,1.6,2.4,3.1,3.8,4.5,1.7,1.6,3.6,3.1,5.5,4.5.9.6,1.6,1.4,2.5,2,2.4,1.6,5,3,7.6,4.1.6.3,1.1.6,1.6.9,2.8,1.1,5.8,2,8.7,2.7.5.1,1,.4,1.6.5h0c3.6.7,7.3,1.1,11,1.1h2.4c3.7,0,7.4-.4,11-1.1.5-.1,1-.3,1.5-.5,3-.7,5.9-1.6,8.8-2.7.5-.2,1-.6,1.5-.8,2.7-1.2,5.3-2.6,7.8-4.2.8-.5,1.5-1.2,2.2-1.8,2-1.4,3.9-3,5.7-4.7,1.3-1.3,2.3-2.7,3.5-4.1,1.1-1.4,2.1-2.4,3-3.8h0c1.6-2.4,3-4.9,4.2-7.5.2-.5.5-.9.8-1.4,2.9-6.5,4.5-13.6,4.8-20.7h0c0-.8.2-1.3.2-1.9v-30.8c-1,.4-2,.7-3.1,1.1-3.4,1.3-6.9,2.6-10.4,3.6l-.7.2c-27.4,8.2-56.7,8.2-84.1,0l-.7-.2c-3.3-1.1-6.7-2.3-10.2-3.6h0,0ZM29.7,625l-7,148h76.8v-65.6c0-5.2,4.2-9.4,9.4-9.4s9.4,4.2,9.4,9.4v121.9h214.3c3.9-10.9,11.1-20.4,20.6-27.1,9.5-6.7,20.8-10.3,32.4-10.4,7.4.2,14.6,1.8,21.4,4.8,10.2-11.6,22.2-21.4,35.6-29,.9-1,2-1.8,3.2-2.3.5-.1,1-.2,1.5-.3.9-.4,1.7-1,2.6-1.4h0c-27.6-13.8-49.4-36.8-61.6-65.2h-7.5c-10.4,0-20.4-4.3-27.5-11.9-7.1-7.7-10.7-17.9-9.8-28.3.8-10.4,6-20,14.2-26.4-.8-14.5.4-29,3.6-43.1-21.3,15-46.7,23.2-72.8,23.3h-2.8c-28-.1-55.1-9.3-77.3-26.3-22.2-17-38.3-40.7-45.7-67.7l-52,11.5c-22.1,4.9-42,16.9-56.6,34.2-14.6,17.3-23.1,38.9-24.2,61.6h0s0,0,0,0ZM84.5,923h278.3l12.5-62.7c3.5-17.3,10.3-33.8,20-48.5-10-2.7-20.6-1.2-29.4,4.3-8.8,5.4-15,14.3-17,24.4-.9,4.4-4.7,7.5-9.2,7.5H108.8c-5.2,0-9.4-4.2-9.4-9.4v-46.9H21.8l-2.9,62.5c-.9,17.9,5.7,35.4,18.1,48.4,12.4,13,29.6,20.3,47.5,20.3h0ZM642.2,923l-11.8-59c-6.3-31.5-25.1-59.1-52-76.7-13.9,23.5-39.1,37.9-66.4,37.9s-52.5-14.4-66.4-37.9c-26.9,17.6-45.6,45.2-52,76.7l-11.9,59h54.2v-65.6c0-5.2,4.2-9.4,9.4-9.4s9.4,4.2,9.4,9.4v65.6h114.4v-65.6c0-5.2,4.2-9.4,9.4-9.4s9.4,4.2,9.4,9.4v65.6h54.3ZM1005.1,854.2l-3.8-81.4-44,12.9h0c-7.1,16.6-17.7,31.4-31.1,43.5h9.4c5.2,0,9.4,4.2,9.4,9.4s-4.2,9.4-9.4,9.4h-251.2c-4.5,0-8.3-3.1-9.2-7.5-1.7-8.5-6.3-16.1-13-21.5-6.7-5.5-15-8.5-23.7-8.5-3.3,0-6.6.5-9.8,1.4,9.7,14.7,16.5,31.1,20,48.4l12.5,62.7h278.3c18,0,35.1-7.3,47.5-20.3,12.4-13,18.9-30.5,18.1-48.4h0s0,0,0,0ZM778.9,376.1c-4.5-2.6-10.2-1.1-12.8,3.4-3.9,6.9-10.2,12.2-17.6,14.9-7.4,2.7-15.6,2.7-23,0-7.4-2.7-13.7-8-17.6-14.9-1.2-2.3-3.2-3.9-5.7-4.7-2.5-.7-5.1-.4-7.3.9-2.2,1.3-3.8,3.4-4.4,5.9-.6,2.5-.2,5.1,1.2,7.3,6.1,10.7,15.8,18.9,27.4,23.1,11.6,4.2,24.3,4.2,35.8,0,11.6-4.2,21.3-12.4,27.4-23.1,1.3-2.1,1.6-4.7,1-7.1-.6-2.4-2.2-4.5-4.3-5.7h0s0,0,0,0ZM230.7,318.3c5.7,0,10.8-3.4,13-8.6,2.2-5.2,1-11.3-3-15.3-4-4-10.1-5.2-15.3-3.1-5.3,2.2-8.7,7.3-8.7,13s6.2,14,14,14h0ZM343.1,318.3c5.7,0,10.8-3.4,13-8.6,2.2-5.2,1-11.3-3-15.3-4-4-10.1-5.2-15.3-3.1-5.3,2.2-8.7,7.3-8.7,13s1.5,7.3,4.1,10c2.7,2.6,6.2,4.1,10,4.1h-.1ZM694.8,304.3c0-5.7-3.4-10.8-8.7-13-5.2-2.2-11.3-1-15.3,3s-5.2,10.1-3,15.3c2.2,5.2,7.3,8.7,13,8.7s7.3-1.5,9.9-4.1c2.6-2.6,4.1-6.2,4.1-9.9h0ZM793.2,290.2c-5.7,0-10.8,3.4-13,8.7-2.2,5.2-1,11.3,3,15.3s10.1,5.2,15.3,3c5.2-2.2,8.7-7.3,8.7-13s-1.5-7.3-4.1-9.9c-2.6-2.6-6.2-4.1-9.9-4.1h0ZM455.7,656.1c5.7,0,10.8-3.4,13-8.7,2.2-5.2,1-11.3-3-15.3-4-4-10.1-5.2-15.3-3-5.2,2.2-8.7,7.3-8.7,13s1.5,7.3,4.1,9.9c2.6,2.6,6.2,4.1,9.9,4.1h0ZM568.1,656.1c5.7,0,10.8-3.4,13-8.7,2.2-5.2,1-11.3-3-15.3-4-4-10.1-5.2-15.3-3-5.2,2.2-8.7,7.3-8.7,13s1.5,7.3,4.2,10c2.7,2.6,6.3,4.1,10,4.1h-.1ZM466.6,689.3h0c6.1,10.7,15.8,18.9,27.4,23.1,11.6,4.2,24.3,4.2,35.8,0,11.6-4.2,21.3-12.4,27.4-23.1,2.2-4.4.5-9.7-3.7-12.2-4.2-2.5-9.7-1.2-12.4,2.8-3.9,6.9-10.2,12.2-17.6,14.9-7.4,2.7-15.6,2.7-23.1,0-7.4-2.7-13.7-8-17.6-14.9-2.8-4.1-8.2-5.3-12.5-2.8-4.2,2.5-5.9,7.8-3.7,12.2h0s0,0,0,0Z"/>
  <path class="st0" d="M566.4,251.5l51.9,96.6-228.4-68.7,68.7-228.4,51.9,96.6L784.8,0l55.9,104-274.3,147.5h0s0,0,0,0Z"/>
</svg>