<?xml version="1.0" encoding="UTF-8"?>
<svg id="Layer_1" data-name="Layer 1" xmlns="http://www.w3.org/2000/svg" viewBox="0 0 1063.145 1061.383">
  <path d="M635.774,727.678c17.668-16.168,33.832-33.832,53.332-50,25.832-22.668,61.332-21,80.668,0,4.832-3.168,8-8,12.832-11.332,24.168-21,59.668-19.332,79,0,32.332-30.668,88.832-21,96.832,25.832,1.668,4.832,0,8-3.168,11.332-21,24.168-37.168,46.832-53.332,67.832-22.668,30.668-45.168,58.168-77.5,92,0,0,0,1.668-1.668,1.668-58.168,43.5-153.33,90.332-222.67,108.17-37.168,11.332-56.5,4.832-90.332-11.332-93.668-40.332-167.83-50-258.17,4.832l6.5,9.668c4.832,6.5,3.168,16.168-3.168,21l-95.168,61.332c-6.5,4.832-16.168,3.168-19.332-4.832L1.6,842.347c-3.168-6.5-1.668-14.5,4.832-19.332l95.168-61.332c6.5-4.832,16.168-3.168,19.332,3.168l8,11.332,21-14.5c-56.5-33.832-92-95.168-92-164.67,0-106.5,85.5-193.67,193.67-193.67,19.332,0,38.668,3.168,56.5,8,3.168-63,32.332-121,82.332-161.33,61.332-48.332,140.33-59.668,209.83-35.5,4.832-64.5,35.5-122.67,85.5-163,100-80.668,245.33-64.5,326,33.832,80.668,100,64.5,246.83-35.5,327.5-66.168,53.332-154.83,64.5-232.33,33.832-6.5,54.832-33.832,106.5-79,143.67-56.5,45.168-130.67,59.668-200.17,38.668-8-1.668-14.5-4.832-21-6.5-3.168,14.5-6.5,29-11.332,42,61.336,8.332,127.5,34.164,203.34,63.164l.002-.002ZM750.434,697.01c-11.332-11.332-30.668-8-42,1.668-16.168,14.5-29,27.5-43.5,40.332l25.832,9.668c22.504-16.168,40.168-33.832,59.668-51.668ZM721.27,760.01c11.332,4.832,21,8,32.332,11.332,38.668-25.832,61.332-53.332,88.832-83.832-9.668-11.332-29-9.668-42,1.668-29.164,25.668-50,49.832-79.164,70.832ZM48.43,863.35l72.668-46.832-16.168-24.168-71,46.664,14.5,24.336ZM135.598,840.682l-71,46.832,90.332,138.83,72.668-45.168-92-140.494ZM906.928,279.182c-21,77.5-130.67,75.832-150,0-3.168-8,1.668-14.5,9.668-16.168,12.832-4.832,106.5-1.668,127.5-1.668,9.5.004,14.332,9.668,12.832,17.836ZM871.428,288.85h-80.668c21.004,27.332,61.336,27.332,80.668,0ZM769.768,180.68c19.332,0,19.332,29,0,29s-19.336-29,0-29h0ZM892.428,180.68c19.332,0,19.332,29,0,29-17.832,0-17.832-29,0-29h0ZM588.928,377.51c19.332,0,19.332,27.5,0,27.5s-19.332-27.5,0-27.5ZM464.768,377.51c19.332,0,19.332,27.5,0,27.5-17.836,0-17.836-27.5,0-27.5ZM301.768,563.18c19.332,0,19.332,29,0,29s-19.336-29,0-29ZM233.932,671.35c-16.168,8-29-16.168-12.832-24.168,21-11.332,40.332-11.332,59.668,0,16.168,8,3.168,33.832-12.832,24.168-11.336-6.5-22.668-5-34.004,0ZM200.1,563.18c19.332,0,19.332,29,0,29-17.668,0-17.668-29,0-29ZM497.1,503.512c-19.332,0-19.332-27.5,0-27.5h61.332c17.832,0,17.832,27.5,0,27.5h-61.332ZM251.77,737.351c-77.5,0-140.33-63-140.33-140.33s63-140.33,140.33-140.33,138.83,63,138.83,140.33-61.332,140.33-138.83,140.33ZM251.77,710.015c61.332,0,111.33-50,111.33-113s-50-113-111.33-113c-63,0-113,50-113,113s50,113,113,113ZM177.602,776.184c-11.332,8-22.668,16.168-33.832,24.168l93.668,142c96.832-61.332,180.67-51.668,284-6.5,27.5,12.832,42,17.832,72.668,9.668,66.168-16.168,156.5-63,211.33-103.33,30.668-30.668,51.668-59.668,74.168-88.832,14.5-19.332,30.668-40.332,50-63-9.668-19.332-33.832-16.168-48.332-3.168-38.668,40.332-61.332,74.168-109.67,108.17-3.168,45.168-50,75.832-93.668,75.832-33.832,3.168-71-8-103.33-17.832-42-9.668-83.832-21-103.33-17.832-19.332,3.168-24.168-24.168-4.832-27.5,25.832-4.832,71,6.5,114.5,17.832,29,8,64.5,19.332,95.168,17.832,27.5-1.668,61.332-16.168,66.168-45.168-98.5-37.168-222.67-95.168-322.67-106.5-32.332,58.168-95.168,98.5-167.83,98.5-25.844.164-51.676-4.668-74.176-14.336v-.004ZM335.602,422.854c11.332,4.832,21,11.332,29,17.668-6.5-54.832,16.168-111.33,59.668-146.83,71-56.5,172.67-45.168,229.17,24.168,56.5,71,46.832,172.67-24.168,229.17-53.332,43.5-129.17,48.332-188.83,11.332,3.168,11.332,3.168,22.668,4.832,35.5,8,3.168,17.668,6.5,27.5,9.668,59.668,17.832,125.83,4.832,174.33-33.832,82.332-66.168,95.168-187.17,29-269.5-66.168-82.332-187.17-95.168-269.5-29-45.168,36.992-71,93.492-71,151.66l-.002-.004ZM403.434,477.686c8,9.668,14.5,19.332,19.332,30.668,11.332,11.332,24.168,22.668,38.668,30.668,48.332,27.5,108.17,22.668,151.67-12.832,58.168-46.832,66.168-132.33,19.332-190.33-46.832-58.168-132.33-67.832-190.33-21-51.5,40.16-62.832,104.66-38.668,162.83l-.004-.004ZM251.774,763.186c92,0,166.17-74.168,166.17-166.17s-74.168-166.17-166.17-166.17-166.17,74.168-166.17,166.17,74.168,166.17,166.17,166.17h0ZM626.104,225.856c12.832,6.5,25.832,14.5,37.168,24.168-6.5-58.168,16.168-113,61.332-150,74.168-58.168,179.17-46.832,238.83,25.832,58.168,72.668,46.832,179.17-25.832,237.17-51.668,42-124.33,50-184,19.332-3.168-3.168-8-4.832-12.832-8,3.168,14.5,4.832,29,4.832,43.5,69.332,32.332,153.33,22.668,214.67-27.5,87.168-71,101.67-198.5,30.668-287.17-71-87.168-200.17-101.67-287.17-30.668-48.668,37.168-74.5,93.668-77.668,153.34l.002-.004ZM700.272,288.856c9.668,11.332,16.168,22.668,22.668,35.5,12.832,12.832,25.832,24.168,43.5,33.832,50,25.832,109.67,19.332,153.33-16.168,61.332-48.332,71-138.83,22.668-200.17-50-59.668-138.83-69.332-200.17-21-48.332,40.332-66.168,106.5-42,164.67l.004,3.336Z"/>
</svg>