<?xml version="1.0" encoding="UTF-8"?>
<svg id="Layer_1" data-name="Layer 1" xmlns="http://www.w3.org/2000/svg" viewBox="0 0 20.646 30.375">
  <defs>
    <style>
      .cls-1 {
        fill: #ff9ffa;
      }
    </style>
  </defs>
  <g>
    <rect class="cls-1" x="4.427" y="19.771" width="11.792" height="5.708"/>
    <path d="M15.469,20.521v4.208H5.177v-4.208h10.292M16.969,19.021H3.677v7.208h13.292v-7.208h0Z"/>
  </g>
  <g>
    <rect class="cls-1" x="7.469" y="17.834" width="5.708" height="11.791"/>
    <path d="M12.427,18.583v10.292h-4.208v-10.292h4.208M13.927,17.083h-7.208v13.292h7.208v-13.292h0Z"/>
  </g>
  <g>
    <path class="cls-1" d="M10.323,19.896C5.045,19.896.75,15.601.75,10.323S5.045.75,10.323.75s9.573,4.294,9.573,9.573-4.295,9.573-9.573,9.573Z"/>
    <path d="M10.323,1.5c4.873,0,8.823,3.95,8.823,8.823s-3.95,8.823-8.823,8.823S1.5,15.196,1.5,10.323,5.45,1.5,10.323,1.5M10.323,0C4.631,0,0,4.631,0,10.323s4.631,10.323,10.323,10.323,10.323-4.631,10.323-10.323S16.015,0,10.323,0h0Z"/>
  </g>
  <rect class="cls-1" x="5.177" y="20.521" width="10.292" height="4.208"/>
  <rect class="cls-1" x="8.229" y="18.875" width="4.188" height="10"/>
</svg>