<?xml version="1.0" encoding="UTF-8"?>
<svg width="1200pt" height="1200pt" version="1.1" viewBox="0 0 1200 1200" xmlns="http://www.w3.org/2000/svg">
 <path d="m434.95 503.39c8.2031-8.4375 12.844-12 15.188-13.453 0.14062 0.14062 0.23438 0.14062 0.375 0.23438 5.5312 3.7969 14.812 10.031 30.609 10.031h0.46875c16.406-0.14062 25.734-6.75 31.359-10.781 2.4375 1.7344 6.9844 5.5312 14.812 13.828 3.4219 3.5625 7.9688 5.3906 12.609 5.3906 4.2656 0 8.5781-1.5938 12-4.7812 6.9844-6.6094 7.2188-17.625 0.60938-24.609-22.875-24.141-38.438-33.656-60.141-18.234-3.9375 2.8125-6 4.2656-11.625 4.4062-5.25 0.23438-7.4531-1.3594-11.391-4.0312-21.562-14.672-37.125-5.5312-59.859 17.766-6.75 6.8438-6.6094 17.859 0.23438 24.609 6.9844 6.6094 18 6.4688 24.75-0.375z"/>
 <path d="m864.47 963.42h18.75c5.3906 0 10.547-2.4375 13.828-6.8438 3.3281-4.2656 4.4062-9.9375 2.9531-15.047l-45.797-170.34c-22.875-85.594-97.828-143.16-186.37-143.16h-102.14v-32.438c63.797-27.562 112.64-84.984 126.98-155.63 11.859-3.4219 22.547-9.7969 31.453-18.75 19.594-19.969 26.062-49.828 16.266-76.172-5.3906-14.672-13.969-25.734-24.984-33.562l0.046875-55.547c0-83.016-61.969-162.37-150.61-192.98-72.469-25.125-141.79-8.8125-187.36 43.359-47.859-1.3594-84.469 12.141-108.98 40.641-31.125 36.234-39.047 92.578-24 167.39-9.7969 7.9688-17.625 18.469-22.172 30.75-9.9375 26.578-3.4219 56.438 16.172 76.031 8.3438 8.5781 18.844 14.953 30.469 18.469 14.203 71.016 63.562 128.68 127.74 156.14v32.062h-102.14c-88.641 0-163.45 57.562-186.37 143.16l-45.516 170.68c-1.4531 5.1562-0.32812 10.781 2.9531 15.047 3.3281 4.2656 8.4375 6.8438 13.828 6.8438h18.75l-43.828 163.13c-2.4375 9.3281 3.0469 18.844 12.234 21.328 1.4531 0.375 3.0469 0.60938 4.5469 0.60938 7.7344 0 14.672-5.1562 16.781-12.844l46.266-172.18h122.34l-27.562 102.14c-1.9688 7.125 0.84375 14.672 6.9844 18.844 6.1406 4.1719 14.203 4.0312 20.062-0.375l24.469-18c0.14063-0.14062 0.23438-0.23438 0.375-0.375l257.53-189.66c12.234-9.1875 27.562-12.844 42.984-10.641 15.422 2.3438 28.875 10.406 37.969 22.781 9.1875 12.469 12.984 27.797 10.641 43.125-2.3438 15.422-10.547 28.875-22.875 38.062l-200.58 147.74c-7.7344 5.625-9.4219 16.547-3.6562 24.234 5.625 7.7344 16.547 9.4219 24.234 3.6562l54.141-39.938 54.234 39.938c3.0469 2.3438 6.75 3.4219 10.266 3.4219 5.3906 0 10.641-2.4375 13.969-7.125 5.625-7.7344 4.0312-18.609-3.6562-24.234l-45.469-33.516 97.734-72 73.219 54c0.23438 0.23437 0.46875 0.375 0.75 0.60937l24.375 18c6 4.4062 13.969 4.5469 20.062 0.375 6.1406-4.1719 8.9531-11.766 6.9844-18.844l-27.562-102.14h122.34l46.266 172.18c2.0625 7.7344 9.0469 12.844 16.781 12.844 1.4531 0 3.0469-0.23438 4.5469-0.60938 9.3281-2.4375 14.812-12 12.234-21.328zm-569.48-793.69c18.375-21.562 48.469-30.984 89.25-28.172 5.8594 0.375 11.25-2.0625 14.812-6.6094 51.562-65.625 125.29-49.219 154.55-39.094 63.281 21.797 127.22 83.906 127.22 160.08v42.984c-0.98438-0.14062-2.0625-0.14062-3.1875-0.14062-1.2188-0.14062-2.4375-0.14062-3.6562-0.14062-4.0312-0.14062-8.0625 0-12.234 0.375-2.8125-16.031-11.25-30.141-23.156-40.172 0 0-0.14062 0-0.14062-0.14062-0.98438-0.84375-2.0625-1.5938-3.1875-2.4375-0.46875-0.375-0.98438-0.84375-1.4531-1.2188-0.60938-0.46875-1.3594-0.84375-1.9688-1.2188-0.98438-0.60938-1.9688-1.3594-3.0469-1.9688-0.23438-0.14062-0.375-0.23438-0.60938-0.375-1.4531-0.84375-3.0469-1.7344-4.5469-2.4375 0 0-0.14062 0-0.14062-0.14062-6.4688-3.0469-13.594-5.1562-21.047-6-2.6719-0.375-5.5312-0.60938-8.3438-0.60938h-14.578v-24.609c0-13.969-11.531-25.359-25.594-25.359h-155.53c-13.969 0-25.359 11.391-25.359 25.359v24.609h-4.7812c-2.0625 0-4.0312 0.14062-6.1406 0.23438-23.016 2.0625-42.984 15.797-53.859 35.531-3.4219 6.1406-5.8594 12.844-7.3594 19.969-6.375-0.375-12.75-0.46875-16.547 0h-0.23438c-2.4375 0.23438-4.875 0.60938-7.3594 0.98438-10.172-58.641-4.0781-103.22 18.234-129.28zm249.89 57.516v62.344h-136.87v-62.344zm-243.42 195.71c-1.125-7.7344-7.2188-13.828-15.047-14.812-8.9531-1.125-17.016-5.0156-23.016-11.25-10.172-10.266-13.453-25.734-8.3438-39.562 4.2656-11.531 14.062-20.203 26.344-23.391 2.2031-0.46875 4.4062-0.98438 6.8438-1.2188 3.7969-0.46875 19.969 0.60938 26.203 1.4531 4.7812 0.60938 9.4219-0.60938 13.125-3.5625 3.6562-2.9531 6-7.2188 6.4688-12 0.23438-2.4375 0.375-4.5469 0.375-6.4688 0.14062-1.4531 0.14062-2.6719 0.375-4.1719 0.14062-0.375 0.14062-0.75 0.23438-1.125 2.2031-16.875 16.641-29.766 33.562-29.766h4.7812v21.797c0 13.969 11.391 25.359 25.359 25.359h155.53c14.062 0 25.594-11.391 25.594-25.359v-21.797h14.578c18.609 0 33.797 15.188 33.797 33.938v8.4375c0 1.3594 0.14062 2.6719 0.46875 3.9375 0.14062 0.375 0.23438 0.60938 0.375 0.98438 0.23438 0.98438 0.60938 1.8281 0.98438 2.8125 0.14062 0.23438 0.375 0.46875 0.46875 0.84375 0.46875 0.84375 0.98438 1.7344 1.5938 2.4375 0.14062 0.23438 0.375 0.375 0.60938 0.60938 0.75 0.75 1.3594 1.4531 2.2031 2.2031 0.14062 0.14062 0.375 0.23438 0.60938 0.375 0.84375 0.60938 1.8281 1.2188 2.8125 1.7344 0.23438 0.14062 0.60938 0.14062 0.84375 0.23438 0.98438 0.375 1.9688 0.75 2.9531 0.98438 0.23438 0 0.46875 0 0.75 0.14062 0.98438 0.14062 2.0625 0.23438 3.1875 0.23438 0.60938 0 1.2188-0.14062 1.8281-0.23438 0.60938-0.14062 1.3594-0.14062 1.9688-0.23438h0.14062c3.5625-0.98438 6.9844-1.5938 10.266-2.0625 0.98438-0.14062 1.9688-0.23438 2.8125-0.375 10.875-1.2188 20.438-0.23438 27.656 3.1875 0.14062 0 0.14062 0 0.23438 0.14062 11.531 5.5312 15.328 15.562 17.016 20.203 5.1562 13.734 1.7344 29.25-8.3438 39.562-6.375 6.375-14.578 10.266-23.766 11.25-7.9688 0.84375-14.344 6.9844-15.422 14.812-9.5625 67.359-56.344 122.06-117.56 144.61-0.23438 0.14062-0.46875 0.14062-0.75 0.14062-4.4062 1.7344-8.8125 3.0469-13.359 4.4062-15.328 4.2656-31.219 6.4688-47.766 6.4688-1.3594 0-2.8125-0.14062-4.1719-0.14062-4.0312-0.14062-7.9688-0.23438-11.859-0.60938-3.7969-0.375-7.5938-0.98438-11.391-1.4531-1.3594-0.23438-2.5781-0.375-3.9375-0.46875-10.031-1.8281-19.828-4.5469-29.25-8.0625-1.2188-0.46875-2.4375-0.75-3.6562-0.98438-60.094-23.344-105.75-77.719-115.31-144.19zm229.6 184.5v37.969c0 27.328-22.266 49.594-49.594 49.594-27.422 0-49.828-22.266-49.828-49.594v-37.969c1.8281 0.46875 3.7969 0.75 5.625 1.2188 3.0469 0.60938 6 1.2188 9.0469 1.7344 4.1719 0.75 8.4375 1.2188 12.75 1.7344 1.9688 0.23438 3.9375 0.375 5.8594 0.46875 4.875 0.375 9.7969 0.60938 14.672 0.60938 0.46875 0 0.98438 0.14062 1.4531 0.14062h0.375c5.7656 0 11.625-0.375 17.391-0.75 0.84375-0.14062 1.7344-0.14062 2.5781-0.23438 9.9844-0.98438 20.016-2.4375 29.672-4.9219zm-176.58 360.98c-11.766-9.1875-19.453-22.266-21.797-37.125-2.3438-15.422 1.4531-30.75 10.641-43.125 9.0469-12.375 22.547-20.438 37.969-22.641 15.328-2.2031 30.609 1.4531 43.125 10.781l27.797 20.344zm487.36-39.656h-158.29c-1.3594 0-2.6719 0.14062-3.9375 0.46875h-0.14062c-3.7969 0.98438-7.2188 3.0469-9.6562 6.2344-1.5938 2.2031-2.6719 4.6406-3.3281 7.2188-0.23438 1.2188-0.375 2.4375-0.375 3.7969v0.14062c0 1.3594 0.23438 2.6719 0.60938 3.9375l0.84375 3.0469 19.594 72.984-50.203-36.984c14.672-14.062 24.375-32.438 27.422-53.016 3.6562-24.609-2.3438-49.125-17.016-68.953-14.578-19.828-36.234-32.812-60.844-36.469s-48.984 2.4375-68.672 17.016l-36.234 26.672-36.469-26.672c-19.828-14.672-44.203-20.672-68.812-17.156-24.609 3.6562-46.172 16.641-60.844 36.469-14.672 19.969-20.812 44.438-17.016 68.953 3.0469 20.578 12.844 38.953 27.562 53.016l-50.344 36.984 19.453-72.75 0.84375-3.1875c0.375-1.3594 0.46875-2.6719 0.60938-3.9375v-0.375c0-1.2188-0.14062-2.4375-0.23438-3.5625-0.46875-2.5781-1.5938-5.0156-3.3281-7.2188-2.4375-3.1875-5.8594-5.25-9.5625-6.2344-0.14062 0-0.14062 0-0.23438-0.14062-1.3594-0.23438-2.5781-0.46875-3.9375-0.46875l-158.44 0.046875h-18.703l39.938-148.55c18.75-70.172 80.203-117.42 152.81-117.42h103.83c0.46875 2.5781 1.2188 5.0156 1.9688 7.4531 0.23438 0.60938 0.46875 1.2188 0.60938 1.8281 0.60938 1.8281 1.2188 3.6562 2.0625 5.5312 0.375 0.84375 0.75 1.7344 1.125 2.5781 0.75 1.4531 1.3594 2.9531 2.0625 4.4062 0.46875 0.84375 0.98438 1.8281 1.4531 2.6719 0.75 1.3594 1.5938 2.6719 2.4375 3.9375 0.60938 0.84375 1.125 1.7344 1.7344 2.5781 0.84375 1.2188 1.8281 2.4375 2.8125 3.6562 0.60938 0.84375 1.2188 1.5938 1.9688 2.3438 1.125 1.2188 2.2031 2.4375 3.3281 3.5625 0.60938 0.60938 1.2188 1.3594 1.9688 1.9688 1.4531 1.4531 3.0469 2.8125 4.6406 4.1719 0.375 0.23438 0.60938 0.60938 0.98438 0.84375 1.9688 1.5938 4.0312 3.0469 6.1406 4.5469 0.75 0.46875 1.3594 0.84375 2.0625 1.3594 1.4531 0.98438 2.9531 1.8281 4.4062 2.6719 0.84375 0.46875 1.7344 0.98438 2.6719 1.3594 1.4531 0.75 2.8125 1.4531 4.2656 2.0625 0.98438 0.375 1.9688 0.84375 2.9531 1.2188 1.4531 0.60938 2.9531 1.125 4.4062 1.5938 0.98438 0.375 1.9688 0.60938 3.0469 0.98438 1.5938 0.46875 3.0469 0.84375 4.6406 1.2188 0.98438 0.23438 1.9688 0.46875 2.9531 0.60938 1.7344 0.375 3.5625 0.60938 5.25 0.84375 0.84375 0.14062 1.7344 0.23438 2.5781 0.375 2.6719 0.23438 5.3906 0.375 8.0625 0.375s5.3906-0.14062 8.0625-0.375c0.84375-0.14062 1.7344-0.23438 2.5781-0.375 1.8281-0.23438 3.5625-0.46875 5.25-0.84375 0.98438-0.23438 1.9688-0.46875 2.9531-0.60938 1.5938-0.375 3.1875-0.75 4.6406-1.2188 0.98438-0.23438 1.9688-0.60938 3.0469-0.98438 1.4531-0.46875 2.9531-0.98438 4.4062-1.5938 0.98438-0.375 1.9688-0.75 2.9531-1.2188 1.4531-0.60938 2.8125-1.3594 4.2656-2.0625 0.84375-0.46875 1.7344-0.84375 2.6719-1.3594 1.4531-0.84375 3.0469-1.7344 4.4062-2.6719 0.75-0.46875 1.3594-0.84375 2.0625-1.3594 2.0625-1.4531 4.1719-2.9531 6.1406-4.5469 0.375-0.23438 0.60938-0.60938 0.98438-0.84375 1.5938-1.3594 3.1875-2.8125 4.6406-4.2656 0.60938-0.60938 1.2188-1.3594 1.8281-1.9688 1.125-1.2188 2.2031-2.4375 3.3281-3.6562 0.60938-0.75 1.2188-1.5938 1.8281-2.3438 0.98438-1.2188 1.8281-2.4375 2.8125-3.6562 0.60938-0.84375 1.2188-1.7344 1.7344-2.5781 0.84375-1.3594 1.5938-2.5781 2.4375-3.9375 0.46875-0.84375 0.98438-1.8281 1.4531-2.6719 0.75-1.4531 1.4531-2.9531 2.0625-4.4062 0.375-0.84375 0.84375-1.7344 1.2188-2.6719 0.75-1.7344 1.3594-3.4219 1.9688-5.25 0.23438-0.75 0.46875-1.3594 0.75-2.0625 0.75-2.4375 1.3594-4.875 1.9688-7.3594h103.83c72.609 0 134.06 47.156 152.81 117.42l39.938 148.55-18.516-0.09375z"/>
 <path d="m432.14 357.56c-2.4375-9.3281-12-14.812-21.328-12.375l-46.641 12.375c-9.3281 2.4375-14.812 12-12.375 21.328 2.0625 7.8281 9.0469 12.984 16.781 12.984 1.4531 0 2.9531-0.23438 4.4062-0.60938l46.641-12.375c9.4219-2.4844 14.953-12.047 12.516-21.328z"/>
 <path d="m543.19 378.84 46.266 12.375c1.4531 0.375 3.0469 0.60938 4.5469 0.60938 7.7344 0 14.672-5.1562 16.781-12.844 2.4375-9.3281-3.0469-18.75-12.375-21.328l-46.266-12.375c-9.3281-2.4375-18.844 3.0469-21.328 12.375-2.4375 9.1875 3.0469 18.609 12.375 21.188z"/>
 <path d="m1089.7 487.45v-360.24c0-41.766-34.031-75.797-75.797-75.797-42 0-76.031 34.031-76.031 75.797v360.24c-38.062 25.359-61.219 68.344-61.219 114.47 0 75.656 61.594 137.26 137.39 137.26 75.562 0 137.02-61.594 137.02-137.26-0.14062-46.125-23.391-89.109-61.359-114.47zm-75.891 216.98c-56.578 0-102.61-46.031-102.61-102.61 0-37.125 20.062-71.391 52.406-89.625 5.5312-3.0469 8.8125-8.8125 8.8125-15.188v-369.79c0-22.641 18.469-41.016 41.25-41.016 22.641 0 41.016 18.375 41.016 41.016v369.94c0 6.2344 3.4219 12 8.8125 15.188 32.344 18.234 52.406 52.547 52.406 89.625 0.28125 56.578-45.656 102.47-102.09 102.47z"/>
 <path d="m1031.2 538.55v-405.79c0-9.5625-7.8281-17.391-17.391-17.391s-17.391 7.8281-17.391 17.391v405.94c-27.797 7.5938-48.375 33.047-48.375 63.328 0 36.234 29.531 65.766 65.766 65.766 36.141 0 65.531-29.531 65.531-65.766-0.046875-30.281-20.344-55.781-48.141-63.469zm-17.391 94.406c-17.156 0-30.984-13.969-30.984-30.984 0-17.156 13.969-30.984 30.984-30.984s30.75 13.969 30.75 30.984c0.09375 17.016-13.734 30.984-30.75 30.984z"/>
 <path d="m66.141 717.42c-5.0156 8.2031-2.4375 18.844 5.625 23.859 2.8125 1.7344 6 2.5781 9.0469 2.5781 5.8594 0 11.531-2.9531 14.812-8.2031 30.984-50.062 32.062-90.469 4.0312-135.42-28.172-45.328-14.203-75.938 5.1562-102.38 5.625-7.7344 4.0312-18.609-3.7969-24.234-7.7344-5.625-18.609-4.0312-24.234 3.7969-21.938 29.859-46.547 77.156-6.6094 141.19 21.281 33.797 20.203 59.625-4.0312 98.812z"/>
 <path d="m162.98 617.16c-5.1562 8.0625-2.6719 18.844 5.5312 24 2.8125 1.8281 6.1406 2.6719 9.1875 2.6719 5.7656 0 11.391-2.9531 14.672-8.0625 24.375-38.672 28.172-84.234 9.1875-110.67-25.969-36.375-13.969-56.344 9.6562-88.547 5.625-7.7344 4.0312-18.609-3.6562-24.234-7.7344-5.625-18.609-4.0312-24.234 3.6562-21.938 29.766-51.797 70.641-9.9375 129.32 9.0469 12.469 8.4375 41.953-10.406 71.859z"/>
 <path d="m776.81 524.95c-18.844 26.344-15.188 71.859 8.9531 110.67 3.3281 5.25 8.9531 8.2031 14.812 8.2031 3.1875 0 6.2344-0.84375 9.1875-2.5781 8.2031-5.0156 10.641-15.797 5.625-23.859-18.609-30-19.125-59.531-10.172-72.141 41.766-58.406 11.766-99.422-10.172-129.32-5.625-7.7344-16.547-9.4219-24.234-3.6562-7.7344 5.625-9.4219 16.547-3.6562 24.234 24 33.094 35.484 52.078 9.6562 88.453z"/>
 <path d="m841.82 420.61h32.438c9.5625 0 17.391-7.8281 17.391-17.391s-7.8281-17.391-17.391-17.391h-32.438c-9.5625 0-17.391 7.8281-17.391 17.391s7.8281 17.391 17.391 17.391z"/>
 <path d="m841.82 328.64h64.641c9.5625 0 17.391-7.8281 17.391-17.391s-7.8281-17.391-17.391-17.391h-64.641c-9.5625 0-17.391 7.8281-17.391 17.391 0 9.7031 7.8281 17.391 17.391 17.391z"/>
 <path d="m841.82 236.81h32.438c9.5625 0 17.391-7.8281 17.391-17.391s-7.8281-17.391-17.391-17.391h-32.438c-9.5625 0-17.391 7.8281-17.391 17.391s7.8281 17.391 17.391 17.391z"/>
 <path d="m841.82 144.61h64.641c9.5625 0 17.391-7.8281 17.391-17.391s-7.8281-17.391-17.391-17.391h-64.641c-9.5625 0-17.391 7.8281-17.391 17.391s7.8281 17.391 17.391 17.391z"/>
</svg>
