<?xml version="1.0" encoding="UTF-8"?>
<svg id="Layer_1" data-name="Layer 1" xmlns="http://www.w3.org/2000/svg" viewBox="0 0 959.926 960.012">
  <path d="M447.2,223.64C447.2,100.32,346.89,0,223.6,0S0,100.31,0,223.64s100.31,223.6,223.6,223.6c123.28.047,223.6-100.27,223.6-223.6h0ZM223.6,409.64c-102.56,0-185.95-83.438-185.95-185.95S121.088,37.64,223.6,37.64s185.95,83.438,185.95,186.05-83.391,185.95-185.95,185.95h0ZM325.65,156.61l-128.86,168.28c-3.281,4.312-8.297,6.984-13.688,7.359-.422.047-.844.047-1.219.047-4.969,0-9.75-1.969-13.312-5.531l-54.094-54.094c-7.359-7.359-7.359-19.266,0-26.625s19.266-7.359,26.625,0l38.906,38.906,115.83-151.22c6.328-8.25,18.141-9.797,26.391-3.516,8.203,6.328,9.75,18.141,3.422,26.391v.003ZM947.63,547.32l-3.047-6.281-2.016-344.81c-.234-20.625-17.109-37.359-37.734-37.359h-.188l-17.391.094c-6.422.047-12.656,1.219-18.469,3.422l-12.609-77.578c-3.703-22.547-25.078-37.922-47.672-34.312l-20.578,3.375c-23.672,3.844-42.047,20.953-49.078,43.031l-32.578-72.375c-9.422-20.859-34.078-30.188-54.891-20.812l-19.125,8.578c-30.328,13.688-44.203,49.594-31.594,81.703l95.391,242.16-105.33-19.969c-18.047-3.375-35.25-.469-51.188,8.719l-153.61,88.641c-9.844,5.719-16.875,14.953-19.828,25.969-2.953,11.062-1.406,22.594,4.266,32.391l10.969,19.031c2.672,4.641,5.812,8.766,9.375,12.422-7.547,8.578-12.141,19.828-12.141,32.109v110.95c0,2.906.656,5.812,1.969,8.391,67.641,135.61,147.42,217.26,265.31,270.89v15.516c.047,10.359,8.484,18.797,18.891,18.797s18.797-8.438,18.797-18.797v-27.75c0-7.5-4.453-14.297-11.391-17.297-114.14-49.172-190.87-125.34-255.94-254.21v-106.5c0-6.094,4.969-11.016,11.062-11.016h27.422c21.281,0,38.578,17.297,38.578,38.531v29.672c0,4.125,1.359,8.156,3.844,11.438,29.906,39.141,60.703,65.906,91.453,79.5,29.344,12.938,58.453,13.688,84.188,2.109,53.625-24.094,83.156-98.531,68.625-173.06-.609-3.141-2.016-6.047-4.078-8.531-42.516-50.531-97.969-73.594-164.9-68.484-1.828.141-3.656.562-5.344,1.219l-113.62,44.016c-13.031,5.062-31.219,5.812-39.562-8.672l-11.016-19.125c-.844-1.453-.703-2.859-.469-3.797.188-.797.797-2.203,2.344-3.094l153.52-88.594c8.156-4.688,16.219-6.047,25.453-4.359l138.1,26.156c.281.094.609.141.938.188l69.797,13.219c27.562,5.25,48.609,21.328,60.844,46.594l34.359,70.781c.234.562.516,1.078.797,1.641l25.219,51.984c6,12.422,8.531,23.578,8.531,37.266v340.22c0,10.312,8.438,18.75,18.844,18.75s18.797-8.438,18.797-18.797v-340.22c0-19.219-3.891-36.281-12.281-53.672h-.015ZM578.11,472.929c51.938-3.328,93.656,13.594,127.31,51.656,9.047,55.312-11.531,110.39-48,126.74-35.297,15.844-81.188-7.875-126.47-65.156v-23.25c0-24.516-11.625-46.312-29.672-60.281l76.832-29.709ZM799.55,355.739l-59.812-11.344-104.06-264.24c-5.344-13.641-.141-28.125,12-33.609l19.078-8.578c1.922-.844,4.312.047,5.156,1.922l74.156,164.72c.094.188.188.422.281.609l69.656,154.74c-5.297-1.688-10.781-3.141-16.453-4.219h-.002ZM781.784,192.239l-8.203-71.953c-1.641-14.297,7.312-27.188,20.391-29.297l20.531-3.375c2.109-.328,4.172,1.172,4.5,3.234l46.828,288.14-84.047-186.749ZM875.253,202.27c3.188-3.562,7.5-5.625,12.281-5.672l17.438-.094,1.125,195.37-30.844-189.604Z"/>
</svg>