<?xml version="1.0" encoding="UTF-8"?>
<svg id="Layer_1" data-name="Layer 1" xmlns="http://www.w3.org/2000/svg" viewBox="0 0 1067.716 1080.08">
  <path d="M1067.716,190.908c0,9.656-7.828,17.484-17.531,17.484h-183.66c-2.812,0-5.625-.703-8.109-1.969L534.655,37.243,210.555,206.423c-2.484,1.312-5.25,1.969-8.109,1.969H18.786c-9.656,0-17.484-7.828-17.484-17.484s7.828-17.484,17.484-17.484h179.39L526.486,2.004c5.062-2.672,11.156-2.672,16.219,0l328.08,171.42h179.39c9.703,0,17.531,7.828,17.531,17.484h.01ZM1057.45,303.598v153.1c0,9.656-7.828,17.484-17.531,17.484h-.234v523.82c0,9.656-7.828,17.484-17.531,17.484h-184.4c4.031,3.188,6.656,8.109,6.656,13.641,0,9.656-7.828,17.484-17.484,17.484h-111.42c-13.922,20.156-37.219,33.422-63.562,33.422-36.422,0-66.891-25.547-74.859-59.719h-57.797c-5.203,12.094-17.109,20.578-30.984,20.578l-140.21.047c-13.969,0-25.969-8.484-31.219-20.578h-97.219c-7.922,34.172-38.438,59.719-74.859,59.719s-67.172-25.547-75.141-59.719H30.375c-9.656,0-17.484-7.828-17.484-17.484s7.828-17.484,17.484-17.484h39.375c.281-1.312.656-2.578.984-3.844l-53.25-.047c-9.656,0-17.484-7.828-17.484-17.484v-38.062c0-2.109.375-4.172,1.125-6.141l12.516-33.328v-96.141c0-9.047,6.891-16.406,15.703-17.297v-298.87h-.281c-9.656,0-17.484-7.828-17.484-17.484v-153.1c0-9.656,7.828-17.484,17.484-17.484h.234v-45.047c0-9.656,7.828-17.484,17.531-17.484h163.69L526.548,58.581c5.109-2.672,11.109-2.672,16.219,0l315.98,165h163.45c9.656,0,17.531,7.828,17.531,17.484v45.047h.234c9.609,0,17.484,7.828,17.484,17.484l.003.002ZM1022.434,439.158v-118.08h-367.64c-3.281,17.203-9.703,33.984-19.453,49.5-21.844,35.953-60.328,57.562-102.75,57.562-61.875,0-112.97-46.875-120.05-107.02l-365.95-.047v118.08l975.843.005ZM487.074,294.078c-11.812,7.734-27.281,7.641-39.516.234-.609,4.172-.891,8.391-.891,12.656,0,47.531,38.531,86.203,85.922,86.203,30.141,0,57.422-15.328,73.031-41.016,23.906-37.781,21.656-85.5-3.047-120.56-2.203,2.531-4.688,4.875-7.5,6.891-13.125,9.844-32.859,11.203-47.531,2.812-.938-.516-1.828-1.172-2.672-1.875-15-12.797-28.641-34.922-22.5-72.141-13.922,12.891-23.625,31.031-21.516,56.344.328,3.797,1.172,8.156,2.062,12.75,3.188,16.781,8.109,42.047-15.844,57.703h0ZM64.314,286.109h349.18c2.672-15.469,8.203-30.281,16.547-43.547,4.594-7.312,13.781-10.172,21.703-6.75,7.922,3.422,12.188,12.094,10.031,20.438-.703,2.766,1.078,5.344,1.641,6.094,1.453,1.875,3.188,2.719,3.938,2.719,3.891-2.438,4.359-5.531,1.219-22.031-1.031-5.25-2.062-10.641-2.578-16.312-4.266-51.469,25.172-92.859,80.766-113.67,6.656-2.484,14.109-.703,18.938,4.453,4.828,5.203,6.047,12.75,3.094,19.219-23.578,51.234-9.703,68.438-2.766,74.766,2.672,1.031,5.953.562,8.25-1.125,2.953-2.156,4.266-5.578,3.516-8.812-1.688-7.312,1.453-14.906,7.875-18.844,6.422-3.938,14.625-3.328,20.391,1.453,31.312,26.156,48.797,63.469,51.047,101.95h347.63v-27.516h-150.28c-2.812,0-5.578-.703-8.109-1.969l-311.68-162.79-311.72,162.74c-2.484,1.312-5.25,1.969-8.109,1.969l-150.52.047-.002,27.519ZM35.017,946.529h57.469c13.781-12.703,32.156-20.578,52.359-20.578s38.438,7.875,52.219,20.578h117.8c3.234-15.375,16.875-27,33.234-27h140.21c16.219,0,29.812,11.625,33,27h7.688v-39.375h-90.562c-9.656,0-17.484-7.828-17.484-17.484v-81.281c0-.281-.375-.516-.75-.516H48.619v64.312h74.109c9.656,0,17.484,7.828,17.484,17.484s-7.828,17.484-17.484,17.484H43.275l-8.25,21.938-.009,17.438ZM295.127,758.189H116.067v14.672h179.06v-14.672ZM522.047,985.399h6.938v-3.844h-6.938v3.844ZM528.984,812.999h-73.078v59.156h73.078v-59.156ZM219.704,985.399h94.453v-3.844h-95.438c.375,1.219.703,2.531.984,3.844h0ZM186.798,1002.883c0-23.156-18.797-41.953-41.953-41.953-22.828,0-41.391,18.141-42.047,40.688.047.422.141.844.141,1.266s-.094.844-.141,1.266c.703,22.688,19.219,40.922,42.047,40.922,23.156,0,41.953-18.938,41.953-42.188h0ZM487.038,954.508h-23.156v14.672c0,9.656-7.828,17.484-17.484,17.484s-17.531-7.828-17.531-17.484l.047-14.672h-21.609v14.672c0,9.656-7.828,17.484-17.484,17.484s-17.484-7.828-17.484-17.484l-.047-14.672h-23.156v51.469h137.9l.004-51.469ZM694.138,1002.883c0-23.156-18.938-41.953-42.188-41.953s-41.906,18.797-41.906,41.953,18.797,42.188,41.906,42.188c23.25,0,42.188-18.938,42.188-42.188ZM729.154,1002.883c0,2.953-.234,5.859-.562,8.766h64.594v-25.969h-.516c-9.656,0-17.484-7.828-17.484-17.484v-46.312h-22.359c-4.406,0-8.625-1.641-11.859-4.641l-46.688-42.984h-103.78c-9.656,0-17.484-7.828-17.484-17.484v-76.641c0-9.656,7.828-17.531,17.484-17.531h117.09c-4.031-3.469-8.203-6.844-12.516-10.031h-131.11v232.82h13.172c7.922-33.984,38.438-59.438,74.812-59.438,42.562,0,77.203,34.5,77.203,76.922l.003.007ZM768.295,858.273c-6.047-21.703-15.891-42.281-28.969-60.703h-131.34v41.672h93.141c4.359,0,8.625,1.641,11.859,4.641l46.688,42.984h14.25c-.188-1.688-.375-3.328-.656-4.969-.188-1.125-.328-2.203-.516-3.328-.469-2.859-1.031-5.766-1.641-8.625-.141-.562-.234-1.172-.375-1.734-.75-3.281-1.547-6.516-2.438-9.75.047-.047.047-.141,0-.188h-.004ZM1004.685,474.173H64.325v298.69h16.734v-16.453c0-18.281,14.906-33.188,33.188-33.188h182.68c18.328,0,33.188,14.906,33.188,33.188v16.453h90.047c6.703,0,12.891,1.969,18.281,5.156h90.562v-42.938c0-9.656,7.828-17.484,17.484-17.484h154.13c3.516,0,6.984,1.078,9.891,3.047,19.219,13.172,36.047,29.156,50.203,47.156.562.562,1.125,1.031,1.594,1.641,20.672,26.906,34.828,57.375,42.188,89.672l.562,2.391c.703,3.141,1.266,6.328,1.828,9.516.422,2.344.75,4.688,1.125,7.078.328,2.484.703,4.922.938,7.406.562,5.062,1.031,10.172,1.219,15.281v49.922h.516c9.656,0,17.484,7.828,17.484,17.484v12.328h64.078l.047-451.31H176.791v72.797h254.21c9.656,0,17.484,7.828,17.484,17.484s-7.828,17.484-17.484,17.484h-27.234v33.703h27.234c9.656,0,17.484,7.828,17.484,17.484s-7.828,17.484-17.484,17.484l-317.76.094c-9.656,0-17.484-7.828-17.484-17.484s7.828-17.484,17.484-17.484h27.516v-33.703h-27.516c-9.656,0-17.484-7.828-17.484-17.484s7.828-17.484,17.484-17.484h28.547v-90.281c0-9.656,7.828-17.484,17.484-17.484h750.47c9.656,0,17.531,7.828,17.531,17.484v468.74h77.438l-.026-506.385ZM251.635,637.013v33.703h40.875v-33.703h-40.875ZM327.526,637.013v33.703h41.156v-33.703h-41.156ZM216.616,637.013h-40.875v33.703h40.875v-33.703ZM533.116,695.935c0-6.141,3.188-11.531,7.969-14.672v-24.938c0-21.844,17.859-39.609,39.891-39.609,21.844,0,39.609,17.766,39.609,39.609v24.984c4.781,3.141,7.969,8.484,7.969,14.672,0,9.656-7.828,17.484-17.484,17.484h-60.422c-9.703-.047-17.531-7.875-17.531-17.531h0ZM576.054,678.169h9.516v-21.844c0-2.438-2.203-4.641-4.641-4.641-2.625,0-4.875,2.156-4.875,4.641v21.844Z"/>
</svg>