<?xml version="1.0" encoding="UTF-8"?>
<svg id="Layer_1" data-name="Layer 1" xmlns="http://www.w3.org/2000/svg" viewBox="0 0 706.895 1003.533">
  <path d="M610.235,320.852c-5.156-8.062-14.531-12.281-24-10.5-9.375,1.688-16.781,8.906-18.75,18.281-5.531,26.812-13.5,46.594-21.562,61.031C534.767,124.264,295.233,3.694,292.613,2.384c-7.875-3.844-17.25-3-24.281,2.25s-10.594,13.875-9.188,22.5l6.281,39.375c9.375,190.31-128.63,283.5-134.53,287.34-.75.469-1.5,1.031-2.156,1.594-233.63,192.94-78.281,482.26-76.312,485.81,85.969,145.31,228.56,162.28,290.53,162.28,15.844,0,26.438-1.125,29.344-1.5,173.06-17.438,275.26-169.78,279.47-176.16,141.84-210.74-33.938-493.13-41.531-505.03l-.005.009ZM286.515,723.322c-.281-1.594-20.062-143.06,76.688-247.69,11.906,46.688,39.844,121.5,102.84,177.19,4.312,4.312,55.031,56.906,51.094,127.03-2.906,50.531-33.656,99.094-91.5,144.47-13.219,3.656-58.594,15.094-101.62,10.688-.188,0-.469,0-.656-.094-.75-.094-71.438-6.094-109.5-64.781-26.625-41.062-32.344-98.062-17.25-170.06,12.094,20.812,30.75,39.656,59.531,49.031,7.688,2.531,16.219.844,22.406-4.406s9.188-13.406,7.969-21.375l-.002-.003ZM612.855,799.916c-.562.844-32.625,48.281-88.969,90.75,24.562-34.312,38.062-70.5,40.125-108.19,5.344-94.125-62.719-160.87-65.625-163.69-.281-.281-.562-.469-.75-.75-82.875-72.938-96-189.66-96.094-190.78-.844-8.531-6.375-15.938-14.344-19.219s-17.062-1.969-23.719,3.375c-103.88,83.906-123.74,199.5-125.63,266.06-16.875-27.656-16.688-64.594-16.688-65.062.188-11.438-7.875-21.469-19.219-23.531-11.25-2.062-22.406,4.312-26.344,15.094-45.188,125.72-45.375,224.06-.75,292.22,5.25,7.969,10.969,15.094,16.875,21.656-35.344-20.812-70.312-52.312-98.531-100.03-5.719-10.5-137.63-257.72,64.594-425.63,16.219-10.969,162.66-116.06,154.69-323.34,69.938,48.094,203.34,168.37,185.34,377.26-.656,7.969,2.719,15.844,9.094,20.625,6.375,4.875,14.812,6.094,22.312,3.375,4.969-1.875,41.25-17.062,67.031-76.594,41.438,85.406,109.5,268.22,16.594,406.4h.008Z"/>
</svg>