<?xml version="1.0" encoding="UTF-8"?>
<svg id="Layer_1" data-name="Layer 1" xmlns="http://www.w3.org/2000/svg" viewBox="0 0 1162.538 656.21">
  <defs>
    <style>
      .cls-1 {
        fill: #fff;
      }

      .cls-1, .cls-2 {
        stroke: #000;
        stroke-miterlimit: 10;
      }

      .cls-2 {
        fill: #bf0000;
      }
    </style>
  </defs>
  <polygon class="cls-2" points="347.27 185.11 112.536 189.11 27.27 275.11 27.27 562.446 145.27 558.11 225.052 484.11 339.27 568.11 622.27 562.446 705.27 484.11 787.579 543.676 862.591 487.11 957.27 562.446 1107.27 562.446 1144.27 521.11 1144.27 131.211 378.27 131.211 372.27 175.11 347.27 185.11"/>
  <polygon class="cls-1" points="295.27 262.426 150.054 262.426 93.27 318.696 93.27 424.11 168.856 429.11 217.27 389.11 306.27 393.711 295.27 262.426"/>
  <path d="M393.79,0c-4.949.02-9.688,1.992-13.188,5.492-3.496,3.496-5.473,8.234-5.492,13.184-.02,4.973,1.938,9.75,5.441,13.281,3.504,3.527,8.266,5.523,13.238,5.543h18.82v75.035h-37.5c-4.973-.02-9.746,1.938-13.277,5.441-3.531,3.5-5.523,8.262-5.543,13.234v37.5h-56.215v-37.5c0-20.449-17.051-37.5-37.5-37.5h-75c-20.449,0-37.535,17.051-37.535,37.5v37.5h-37.5c-4.996.012-9.781,2.016-13.293,5.566L5.566,267.957c-3.551,3.512-5.555,8.297-5.566,13.293v281.25c.02,4.973,2.016,9.734,5.547,13.234,3.527,3.504,8.305,5.461,13.277,5.441h114.41c8.715,42.68,46.684,75.035,91.844,75.035s83.094-32.359,91.809-75.035h303.84c8.715,42.68,46.648,75.035,91.809,75.035,30.723,0,57.922-15.188,75.074-38.195,17.113,23.008,44.242,38.195,74.965,38.195,45.164,0,83.129-32.359,91.848-75.035h151.9c4.969.039,9.75-1.898,13.293-5.383l37.5-37.5c3.5-3.539,5.449-8.32,5.422-13.293v-93.715c0-100.02-.004-200.06,0-300.07-.02-4.953-2-9.695-5.508-13.195-3.504-3.5-8.254-5.469-13.207-5.48h-37.5V37.504h18.676c5,.02,9.797-1.957,13.332-5.492s5.512-8.336,5.492-13.332c-.02-4.973-2.012-9.734-5.543-13.238-3.531-3.5-8.309-5.457-13.281-5.438l-731.209-.004ZM450.11,37.5h56.215v75.035h-56.215V37.5ZM543.825,37.5h56.215v75.035h-56.215V37.5ZM637.54,37.5h56.324l-.004,75.035h-56.32V37.5ZM731.364,37.5h56.215v75.035h-56.215V37.5ZM825.079,37.5h56.215v75.035h-56.215V37.5ZM918.794,37.5h56.324v75.035h-56.324V37.5ZM1012.618,37.5h56.215l-.008,75.035h-56.215l.008-75.035ZM187.578,131.211h75v37.5h-75v-37.5ZM393.788,150.035h731.21c-.004,87.469,0,174.95,0,262.43h-37.355v-206.21l.004.004c.02-5-1.957-9.797-5.492-13.332-3.535-3.535-8.332-5.512-13.332-5.492h-206.25c-4.996-.02-9.797,1.957-13.332,5.492-3.531,3.535-5.512,8.332-5.492,13.332v206.21h-37.355v-206.21h.004c.02-5-1.957-9.797-5.492-13.332-3.535-3.535-8.332-5.512-13.332-5.492h-206.25c-4.996-.02-9.797,1.957-13.332,5.492-3.531,3.535-5.512,8.332-5.492,13.332v206.21l-74.852-.004v-168.71c.02-5-1.957-9.797-5.492-13.332-3.535-3.535-8.332-5.512-13.332-5.492h-75.035v-74.896ZM120.298,206.25h235.99v337.43h-39.441c-8.773-42.633-46.664-75-91.773-75s-83.035,32.367-91.809,75H37.538v-254.66l82.76-82.77ZM600.038,224.926h168.86v37.5h-168.86v-37.5ZM881.288,224.926h168.86v187.54h-18.824v-93.715.004c0-1.469-.172-2.93-.512-4.359.133-1.695.512-3.328.512-5.055,0-36.023-29.602-65.59-65.625-65.59s-65.59,29.566-65.59,65.59,29.566,65.625,65.59,65.625c10.07,0,19.531-2.512,28.09-6.629v44.129h-112.5v-187.54ZM150.038,243.75c-4.98.008-9.75,2-13.258,5.527l-56.215,56.215c-3.527,3.508-5.52,8.277-5.527,13.258v112.54c.02,4.973,2.012,9.734,5.543,13.238,3.531,3.5,8.305,5.457,13.277,5.438h75c4.941-.039,9.664-2.027,13.148-5.527l32.117-31.973h85.949c4.953-.008,9.703-1.981,13.207-5.477,3.508-3.5,5.488-8.246,5.508-13.199v-131.36c-.02-4.953-2-9.699-5.508-13.199-3.504-3.496-8.254-5.469-13.207-5.477l-150.034-.004ZM393.788,262.426h56.32v281.25h-56.32v-281.25ZM157.798,281.25h29.773v104.77l-26.441,26.438h-48.594v-85.801l45.262-45.407ZM225.071,281.25h56.176v93.715l-56.176-.004v-93.711ZM965.691,281.25c15.754,0,28.09,12.332,28.09,28.09s-12.332,28.125-28.09,28.125-28.09-12.371-28.09-28.125,12.332-28.09,28.09-28.09ZM600.031,299.926h168.86v37.535h-168.86v-37.535ZM600.031,374.961h168.86v37.5h-168.86v-37.5ZM487.641,449.961h506.14v18.715h.004c-4.973.02-9.734,2.012-13.238,5.543s-5.461,8.309-5.441,13.281c.02,4.945,1.996,9.688,5.492,13.184,3.5,3.5,8.238,5.473,13.188,5.492h37.535c4.973.02,9.75-1.938,13.281-5.441,3.527-3.5,5.523-8.262,5.543-13.234.02-5-1.957-9.797-5.492-13.332-3.535-3.535-8.332-5.512-13.332-5.492v-18.715h93.676v67.273l-26.402,26.441h-144.21c-8.773-42.633-46.699-75-91.809-75-30.715,0-57.848,15.195-74.965,38.234-17.152-23.035-44.359-38.234-75.074-38.234-45.109,0-83,32.367-91.773,75h-133.11l-.013-93.715ZM225.071,506.176c31.289,0,56.176,25.035,56.176,56.324s-24.887,56.215-56.176,56.215-56.215-24.926-56.215-56.215,24.926-56.324,56.215-56.324ZM712.531,506.176c31.289,0,56.359,25.035,56.359,56.324s-25.07,56.215-56.359,56.215-56.176-24.926-56.176-56.215,24.891-56.324,56.176-56.324ZM862.571,506.176c31.289,0,56.215,25.035,56.215,56.324s-24.926,56.215-56.215,56.215-56.176-24.926-56.176-56.215,24.891-56.324,56.176-56.324Z"/>
</svg>