<?xml version="1.0" encoding="UTF-8"?>
<svg id="Layer_1" data-name="Layer 1" xmlns="http://www.w3.org/2000/svg" viewBox="0 0 1200.01 1199.989">
  <path d="M506.299,581.233c10.352,0,18.75-8.398,18.75-18.75v-56.25c0-10.352-8.398-18.75-18.75-18.75s-18.75,8.398-18.75,18.75v56.25c0,10.352,8.398,18.75,18.75,18.75Z"/>
  <path d="M549.499,605.273c-.582.543-14.738,13.461-43.199,13.461-28.07,0-42.207-12.543-43.18-13.445-7.332-7.144-19.07-7.07-26.324.188-7.332,7.332-7.332,19.18,0,26.512,2.477,2.477,25.5,24.242,69.508,24.242s67.031-21.77,69.508-24.242c7.238-7.238,7.219-18.824.094-26.176-7.106-7.367-18.918-7.555-26.398-.543l-.009.003Z"/>
  <path d="M1124.949,794.893c-4.855-6.414-13.273-8.981-20.926-6.43-7.633,2.57-12.77,9.731-12.77,17.773,0,10.145-3.508,41.793-19.07,53.793-2.531,1.969-10.219,7.969-28.668,3.074-9.262-2.438-15.918-7.574-20.887-16.18-17.512-30.207-6.957-90.227-1.406-110.79,1.988-7.426-.73-15.32-6.883-19.914-6.168-4.613-14.492-4.969-21.039-.957-52.613,32.383-93.094,67.707-123.45,107.59-12.355-5.719-25.199-11.102-38.926-15.656-.602-.207-1.219-.375-1.856-.508l-94.742-21.055,133.11-36.301c9.227-2.512,15.074-11.57,13.594-21.02l-56.023-354.8v-54.789c0-24.602-15.977-45.336-38.023-52.969-5.418-112.55-70.293-189.8-188.93-224.36-5.231-20.074-21.375-41.395-54.113-41.395h-75.375c-32.738,0-48.883,21.32-54.113,41.418-118.61,34.539-183.49,111.79-188.93,224.3-8.043,2.738-15.395,7.07-21.32,13.145-10.781,10.52-16.727,24.656-16.727,39.863v54.789l-56.023,354.8c-1.5,9.43,4.367,18.488,13.594,21.02l133.11,36.301-94.742,21.055c-.637.133-1.258.32-1.875.508C62.8,846.797,0,924.269,0,1031.239v150c0,10.352,8.398,18.75,18.75,18.75h984.38c117.75,0,196.88-75.355,196.88-187.5,0-117.47-72-213.56-75.055-217.59l-.006-.006ZM848.719,854.311c-25.875,44.645-39.602,96.805-41.926,158.18h-206.79v-61.48l99.676-33.227c9.824-3.281,15.133-13.895,11.852-23.719s-13.836-15.148-23.719-11.852l-101.51,33.844-38.25-38.25c67.18-11.531,102.45-49.125,116.89-69.148l155.04,34.461c10.031,3.375,19.539,7.199,28.727,11.23l.01-.039ZM412.519,1124.991v37.5h-243.75v-37.5h243.75ZM168.769,1087.491v-37.5h243.75v37.5h-243.75ZM450.019,1124.991h112.5v37.5h-112.5v-37.5ZM450.019,1087.491v-37.5h112.5v37.5h-112.5ZM600.019,1049.991h207.51c1.461,12.957,4.555,25.461,8.945,37.5h-216.45v-37.5h-.005ZM375.019,782.471v-56.062c24.789,17.664,62.773,37.426,112.5,41.531v74.961c-73.031-6.262-104.61-47.945-112.5-60.449v.019ZM281.269,517.551c-23.289-10.801-56.25-35.043-56.25-86.305v-37.5h56.25v123.805ZM318.769,393.751h375v150c0,48.055-18.148,93.77-51.168,128.72-35.586,37.895-84,58.781-136.33,58.781-84.113,0-133.78-55.875-136.37-58.82-32.98-34.914-51.133-80.625-51.133-128.68v-150.001ZM416.664,276.051c-2.738-9.523-4.145-20.398-4.145-32.305v-60.676c46.199-13.688,77.457-33.695,93.75-46.105,16.293,12.414,47.551,32.418,93.75,46.105v60.676c0,11.906-1.387,22.781-4.238,32.664-15.844,59.305-74.961,76.164-89.512,79.461-14.551-3.301-73.688-20.195-89.605-79.801v-.019ZM627.434,299.996h141.34c10.332,0,18.75,8.418,18.75,18.75v37.5h-200.08c16.031-13.555,30.75-31.781,39.992-56.25h-.002ZM731.274,393.746h56.25v37.5c0,50.793-32.945,75.188-56.25,86.137v-123.637ZM525.024,767.806c41.117-3.32,79.648-17.492,112.5-41.27v55.93c-7.914,12.543-39.523,54.207-112.5,60.449v-75.113.004ZM675.024,762.951v-70.727c33.02-37.48,52.387-84.301,55.574-133.99,24.957-8.305,56.68-26.832,76.293-59.156l34.5,218.51-166.37,45.375.003-.012ZM435.964,74.391c8.27-2.137,14.043-9.602,14.043-18.148,0-5.645,1.82-18.75,18.562-18.75h75.375c14.945,0,18.355,10.312,18.562,18.75,0,8.551,5.773,16.012,14.043,18.148,109.86,28.48,166.54,90.133,172.84,188.1h-113.06c.656-6.074,1.18-12.262,1.18-18.75v-75c0-8.605-5.867-16.105-14.195-18.188-68.383-17.102-103.5-51.039-103.8-51.32-7.273-7.258-19.125-7.273-26.457-.055-.355.336-35.457,34.273-103.86,51.375-8.344,2.082-14.195,9.582-14.195,18.188v75c0,6.508.523,12.676,1.18,18.75h-113.04c6.281-97.969,62.961-159.62,172.84-188.1h-.017ZM225.004,318.741c0-5.008,1.914-9.617,5.738-13.352,3.395-3.488,8.023-5.398,13.012-5.398h141.36c9.301,24.488,24.039,42.695,40.07,56.25h-200.16v-37.5h-.02ZM205.652,499.061c19.613,32.324,51.336,50.852,76.293,59.156,3.188,49.93,22.668,96.898,55.574,134.02v70.707l-166.37-45.375,34.503-218.508ZM192.527,843.081l155.02-34.461c16.688,23.117,61.352,69.523,150.6,72.281l64.352,64.352v67.238h-112.5v-75c0-8.082-5.156-15.227-12.824-17.793l-112.5-37.5c-9.844-3.301-20.438,2.023-23.719,11.852-3.281,9.824,2.023,20.438,11.852,23.719l99.676,33.227v61.48H149.984c-10.352,0-18.75,8.398-18.75,18.75v56.25l-93.734-.008v-56.25c0-112.33,84.074-164.3,155.02-188.16l.007.023ZM37.507,1124.991h93.75v37.5H37.507v-37.5ZM600.006,1162.491v-37.5h236.23c10.258,14.492,22.648,27.074,37.105,37.5h-273.335ZM1003.126,1162.491c-65.211,0-115.39-23.438-141.34-66.055-11.793-19.199-18.039-41.738-18.039-65.195,0-70.781,15.543-127.78,47.492-174.23,21.469-31.105,49.668-59.363,85.613-85.648-3.094,29.305-2.606,66.805,13.273,94.293,10.031,17.344,24.789,28.688,43.836,33.711,29.98,7.894,49.762-.898,61.105-9.656,11.477-8.852,19.031-21.02,24.02-33.355,19.367,35.926,43.387,93.148,43.387,156.13,0,91.125-62.551,150-159.38,150l.033.005Z"/>
  <path d="M1015.349,942.003c-7.031-6.019-17.383-6.019-24.414,0-12.055,10.332-72.168,64.086-72.168,107.98,0,49.238,42.449,75,84.375,75s84.375-25.762,84.375-75c0-43.895-60.133-97.648-72.168-107.98h0ZM1003.142,1087.483c-17.418,0-46.875-7.895-46.875-37.5,0-16.461,24.805-46.875,46.875-68.324,22.07,21.449,46.875,51.844,46.875,68.324,0,29.605-29.457,37.5-46.875,37.5Z"/>
  <path d="M482.059,256.993l24.242-24.242,24.242,24.242c3.656,3.656,8.457,5.492,13.258,5.492s9.602-1.836,13.258-5.492c7.332-7.332,7.332-19.18,0-26.512l-37.5-37.5c-7.332-7.332-19.18-7.332-26.512,0l-37.5,37.5c-7.332,7.332-7.332,19.18,0,26.512s19.18,7.332,26.512,0Z"/>
  <path d="M600.049,459.363c0,15.531-12.594,28.125-28.125,28.125s-28.125-12.594-28.125-28.125,12.594-28.125,28.125-28.125,28.125,12.594,28.125,28.125Z"/>
  <path d="M468.799,459.363c0,15.531-12.594,28.125-28.125,28.125s-28.125-12.594-28.125-28.125,12.594-28.125,28.125-28.125,28.125,12.594,28.125,28.125Z"/>
</svg>