<?xml version="1.0" encoding="UTF-8"?>
<svg id="Layer_1" xmlns="http://www.w3.org/2000/svg" version="1.1" viewBox="0 0 1098.2 765.7">
  <!-- Generator: Adobe Illustrator 29.2.1, SVG Export Plug-In . SVG Version: 2.1.0 Build 116)  -->
  <path d="M855.1,321.8c-15.7,15.9-15.8,41.4,0,57.3,15.8,15.8,41.4,15.8,57.2,0,15.8-15.8,15.8-41.4,0-57.2-15.8-15.8-41.4-15.8-57.2,0h0ZM1096,376.9c-65.7-119.2-162.3-206.8-273.8-253.5C751.2,46.2,666.5,4.7,570.2.4c-115-5.5-223.5,45.8-280.1,98.4-4.4,4-6.4,10-5.5,15.9.9,5.9,4.7,10.9,10.1,13.5.3.2,33,16.5,23.1,71.2-34,27.5-65.4,59.7-93.6,96.2-41.3-80.1-129-116.6-204.5-116.7h0c-9,0-16.6,6.7-17.8,15.6-.7,5.3-15.3,122,48.6,191.1C-13.4,454.8,1.2,571.5,1.9,576.8c1.2,8.9,8.8,15.6,17.8,15.6h0c75.5-.1,163.2-36.7,204.5-116.8,47.3,61.1,103.6,110,165.7,145.4-28,47.1-29,95.8-.9,123.9,13.7,13.7,32.3,20.8,53.9,20.8s16.4-1,25.1-2.9c29.3-6.6,59.1-24,84-48.9,9.6-9.6,18-20.1,25.2-31,18.4,2.1,37.1,3.4,55.9,3.4h0c188.9,0,361.9-109.2,462.7-292,3-5.4,3-12,0-17.4h0ZM202.9,434.1c-25.2,77.9-99.1,116.2-166.6,121.6-1.5-34.4.9-114.7,51.8-156.2,4.2-3.4,6.6-8.5,6.6-13.9s-2.4-10.5-6.6-13.9c-50.7-41.3-53.2-121.7-51.8-156.2,67.5,5.5,141.4,43.8,166.6,121.6,3.2,10,5.1,28.1,4.9,48.6.1,20.3-1.7,38.4-4.9,48.4h0ZM568.7,36.3c62.1,2.8,118.9,23.2,169.9,60.3-34.3-7.6-69.6-11.6-105.4-11.6-99.5,0-194.8,30.6-277.8,86.8-1.8-29-13.5-48.5-24.7-60.3,53.3-41.2,144-79.4,238-75.2h0ZM526.7,688.5c-20.2,20.2-43.8,34.1-66.5,39.2-11.4,2.6-32.6,4.9-45.8-8.2-15.9-15.9-12.5-49.4,7.2-81.8,37,17.7,75.8,30.8,115.7,38.8-3.4,4.1-6.8,8.1-10.6,11.9h0ZM633.3,650.4v18c0,0,0-18,0-18-153,0-296.1-78-393.7-214.3h0c3.8-17.6,4.4-38.5,4.3-50.3,0-12.1-.5-33-4.3-50.5h0c97.6-136.3,240.7-214.3,393.8-214.3s331.4,98.7,426.3,264.7c-95,165.9-253.7,264.7-426.3,264.8h0ZM675.7,242.3c-7-7-18.4-7-25.4,0-79,79-79,207.5,0,286.5,0,0,0,0,0,0,7,7,18.4,7,25.4,0,7-7,7-18.4,0-25.4-65-65-65-170.8,0-235.8,7-7,7-18.4,0-25.4h0ZM551.1,293.2c7-7,7-18.4,0-25.4-7-7-18.4-7-25.4,0-65,65-65,170.7,0,235.7,7,7,18.4,7,25.4,0,7-7,7-18.4,0-25.4-51-51-51-134,0-184.9h0ZM426.4,294c-7-7-18.4-7-25.4,0-50.5,50.5-50.5,132.8,0,183.3,7,7,18.4,7,25.4,0,7-7,7-18.4,0-25.4h0c-36.5-36.6-36.5-96,0-132.5,7-7,7-18.4,0-25.4h0Z"/>
</svg>