<?xml version="1.0" encoding="UTF-8"?>
<svg width="1200pt" height="1200pt" version="1.1" viewBox="0 0 1200 1200" xmlns="http://www.w3.org/2000/svg">
 <path d="m568.78 414.37-53.766-42.984c-7.4531-6-18.375-4.7812-24.375 2.6719s-4.7812 18.375 2.6719 24.375l13.359 10.641c-20.812 3.3281-40.875 11.156-58.547 23.25-7.9688 5.3906-9.9375 16.172-4.5469 24.141 3.3281 4.875 8.8125 7.5938 14.344 7.5938 3.4219 0 6.75-0.98438 9.7969-3.0469 25.219-17.156 56.672-23.016 86.438-16.172 7.8281 1.7344 16.031-2.0625 19.594-9.4219 3.375-7.2188 1.4062-15.891-4.9688-21.047z"/>
 <path d="m775.97 464.06c5.5312 0 11.016-2.6719 14.344-7.5938 5.3906-7.9688 3.3281-18.75-4.5469-24.141-17.766-12.141-37.828-19.969-58.781-23.25l13.359-10.641c7.4531-6 8.6719-16.875 2.6719-24.375-6-7.4531-16.875-8.6719-24.375-2.6719l-53.766 42.984c-6.375 5.0156-8.3438 13.828-4.7812 21.188s11.625 11.156 19.453 9.4219c29.859-6.8438 61.594-0.98438 86.672 16.172 2.9062 1.9688 6.3281 2.9062 9.75 2.9062z"/>
 <path d="m900.47 700.4h-164.29v-53.25c59.531-34.172 103.73-93.047 117.42-163.36 13.453-3.7969 25.969-10.875 35.859-20.812 21.656-22.031 28.641-54.984 17.766-84-6.1406-16.406-15.797-29.016-28.266-37.594v-63.938c0-92.672-69.328-181.36-168.47-215.63-81.422-28.172-159.19-9.7969-210.14 49.125-53.859-2.0625-95.016 13.125-122.34 45.047-34.781 40.547-43.453 103.97-26.203 188.44-11.25 8.8125-20.203 20.672-25.453 34.547-10.875 29.016-3.9375 61.969 17.859 84 9.6562 9.6562 21.656 16.641 34.781 20.438 6.75 34.641 21.047 67.125 41.625 95.531-24.375 15.656-48.609 31.359-72.984 47.016-28.781 18.469-57.562 36.984-86.203 55.453-12.984 8.3438-19.594 23.156-17.25 38.578 0.375 2.5781 1.125 4.875 1.8281 7.2188-41.859 28.641-67.219 75.797-67.219 127.36v111.42l-14.578 20.578c-29.016 41.016-24.375 96.609 11.156 132.47l1.3594 1.3594c20.062 20.203 44.906 30.609 72.469 30.609 3.3281 0 6.6094-0.14062 9.9375-0.46875 31.453-2.8125 57.656-18 75.562-43.969l111.19-159.94c11.859-9.3281 22.547-21.422 31.359-32.062 14.344-17.531 20.438-18.141 21.047-18.141 4.7812 0 16.031 14.344 24.141 24.609 14.438 18.375 32.438 41.25 60.609 59.391 2.8125 1.8281 6.1406 2.6719 9.4219 2.6719 2.6719 0 5.3906-0.60937 7.9688-1.9688 5.5312-2.8125 9.0469-8.3438 9.4219-14.578l12.141-231.66h278.68c65.859 0 119.53 53.625 119.53 119.53v278.81c0 9.5625 7.8281 17.391 17.391 17.391s17.391-7.8281 17.391-17.391l-0.09375-278.58c-0.09375-84.938-69.281-154.26-154.4-154.26zm-496.03-521.76c18.844-21.938 48-33.047 86.812-33.047 5.0156 0 10.266 0.23438 15.656 0.60938 5.8594 0.375 11.25-2.0625 14.812-6.6094 59.25-75.328 143.63-56.438 177.32-44.812 72.141 24.984 145.13 95.766 145.13 182.81v51.047c-0.75-0.14062-1.5938-0.14062-2.3438-0.14062-2.5781-0.23438-5.25-0.375-7.9688-0.46875-1.8281 0-3.7969 0-5.7656 0.14062-1.9688 0-4.0312 0.23438-6.1406 0.375-1.2188 0.14062-2.4375 0.14062-3.6562 0.23438-0.23438-1.8281-0.60938-3.5625-1.125-5.3906-0.14062-0.375-0.14062-0.84375-0.23438-1.2188-0.46875-2.0625-1.125-4.1719-1.8281-6.1406 0-0.14062 0-0.23438-0.14062-0.375-0.60938-1.9688-1.4531-3.9375-2.3438-5.7656 0-0.14062-0.14062-0.23438-0.14062-0.46875-2.6719-6-6.1406-11.625-10.266-16.641l-0.14062-0.14062c-1.2188-1.5938-2.6719-3.0469-4.0312-4.5469-0.14062-0.14062-0.23438-0.23438-0.23438-0.375-1.2188-1.2188-2.5781-2.4375-3.9375-3.6562l-0.84375-0.84375c-1.2188-1.125-2.6719-2.2031-4.0312-3.1875-0.375-0.23438-0.75-0.60938-1.125-0.84375-1.2188-0.84375-2.5781-1.7344-3.7969-2.5781-0.60938-0.375-1.125-0.75-1.7344-1.125-1.2188-0.75-2.5781-1.3594-3.7969-2.0625-0.60938-0.375-1.3594-0.75-1.9688-1.125-1.2188-0.60938-2.3438-1.125-3.5625-1.5938-0.84375-0.375-1.5938-0.75-2.4375-1.125-1.2188-0.46875-2.5781-0.84375-3.7969-1.2188-0.84375-0.23438-1.7344-0.60938-2.5781-0.84375-1.4531-0.375-2.8125-0.75-4.2656-0.98438-0.75-0.14062-1.4531-0.375-2.3438-0.46875-1.7344-0.375-3.4219-0.46875-5.1562-0.75-0.60938-0.14062-1.125-0.14062-1.5938-0.23438-2.3438-0.23438-4.6406-0.375-6.9844-0.375l-254.44 0.046875c-36.984 0-68.438 26.812-74.344 62.812-4.875-0.23438-9.9375-0.375-14.344-0.375h-1.9688c-0.46875 0-0.84375 0.14062-1.2188 0.14062-1.125 0.14062-2.0625 0.14062-3.0469 0.23438-3.4219 0.23438-6.9844 0.75-10.406 1.4531-12.469-68.203-5.625-120 20.344-150.37zm-190.78 676.03c0-42.609 22.266-81.422 58.781-102.98 0.14062 0 0.14062 0 0.23438 0.14062l8.2031 2.2031c17.016 4.5469 30.234 8.0625 40.172 11.391l-107.25 151.74v-62.484zm92.344 232.18c-12 17.531-28.875 27.328-50.062 29.156s-39.562-4.875-54.609-19.969l-1.2188-1.2188c-23.859-24.141-26.953-60.234-7.4531-87.938l17.391-24.469c0.375-0.46875 0.60938-0.84375 0.98438-1.3594l134.06-189.56v0.23438c0.98438 6.2344 1.8281 14.438 2.9531 25.734 0.46875 5.0156 0.98438 10.406 1.5938 16.172l0.84375 8.4375c0.375 4.1719 0.84375 8.4375 1.2188 12.844 0.14062 1.7344 0.375 3.4219 0.46875 5.25 0.14062 1.2188 0.23438 2.3438 0.375 3.5625 0.23438 1.9688 0.375 3.7969 0.60938 5.7656 0.14062 1.2188 0.23438 2.4375 0.46875 3.5625 0.23438 1.8281 0.46875 3.7969 0.75 5.625 0.14062 1.2188 0.375 2.4375 0.46875 3.6562 0.23438 1.8281 0.46875 3.6562 0.84375 5.5312 0.23438 1.2188 0.375 2.4375 0.60938 3.6562 0.375 1.8281 0.60938 3.5625 0.98438 5.3906 0.23438 1.2188 0.46875 2.4375 0.75 3.5625 0.375 1.7344 0.75 3.5625 1.125 5.25 0.23438 1.125 0.60938 2.3438 0.84375 3.4219 0.46875 1.7344 0.84375 3.4219 1.3594 5.0156 0.375 1.125 0.60938 2.0625 0.98438 3.1875 0.46875 1.7344 0.98438 3.3281 1.5938 4.875l1.125 2.9531c0.60938 1.5938 1.2188 3.1875 1.8281 4.6406 0.375 0.84375 0.75 1.7344 1.2188 2.5781 0.75 1.5938 1.4531 3.0469 2.2031 4.5469 0.375 0.75 0.84375 1.4531 1.2188 2.2031 0.84375 1.4531 1.7344 2.8125 2.6719 4.1719 0.46875 0.60938 0.84375 1.2188 1.3594 1.8281 0.98438 1.3594 2.0625 2.5781 3.1875 3.7969 0.46875 0.46875 0.84375 0.98438 1.3594 1.4531 1.2188 1.2188 2.4375 2.3438 3.7969 3.3281 0.46875 0.375 0.84375 0.75 1.3594 1.125 1.3594 0.98438 2.8125 1.9688 4.4062 2.8125 0.46875 0.23438 0.84375 0.46875 1.3594 0.75 0.60938 0.23438 1.125 0.60938 1.7344 0.98438 0.46875 0.23438 0.98438 0.375 1.4531 0.60938zm286.78-461.86-16.031 306.14c-10.547-10.266-19.125-21.328-27.047-31.453-15.938-20.203-29.625-37.734-51.188-37.969h-0.375c-20.203 0-36.234 16.547-48 30.844-11.391 13.969-20.203 22.406-26.812 27.422-0.23438 0.14062-0.375 0.23438-0.60938 0.375-3.7969 2.9531-7.125 4.7812-9.7969 6-0.46875 0.14062-0.84375 0.375-1.2188 0.46875-0.60938 0.23438-1.2188 0.375-1.7344 0.46875-0.60938 0.14062-1.125 0.23438-1.4531 0.23438-0.46875 0-1.125 0-1.4531-0.14062-0.60938-0.23438-1.125-0.60938-1.7344-0.98438-0.375-0.23438-0.60938-0.375-0.98438-0.75-0.375-0.23438-0.60938-0.75-0.84375-1.125-0.46875-0.60938-0.98438-1.125-1.4531-1.8281-0.23438-0.375-0.46875-0.75-0.60938-1.125-0.46875-0.84375-0.98438-1.7344-1.4531-2.6719-0.375-0.84375-0.84375-1.8281-1.2188-2.9531-0.23438-0.46875-0.46875-1.125-0.75-1.5938-7.125-18.984-10.781-53.766-12.609-71.531 0-0.375 0-0.60938-0.14062-0.84375-0.14062-1.2188-0.23438-2.4375-0.375-3.5625l-0.23438-2.2031-0.60938-6.4688c-0.14062-0.60938-0.14062-1.2188-0.23438-1.9688-0.46875-4.7812-0.98438-9.3281-1.3594-13.453 0-0.375-0.14062-0.75-0.14062-1.125-2.6719-27.422-4.5469-45.328-14.578-58.641-0.84375-1.2188-1.8281-2.3438-2.9531-3.5625-0.46875-0.46875-0.84375-1.125-1.3594-1.5938-1.8281-1.8281-3.7969-3.5625-6.1406-5.1562-0.14062-0.14062-0.23438-0.23438-0.375-0.23438-0.375-0.23438-0.84375-0.46875-1.3594-0.75-13.219-8.6719-33.562-14.578-66.234-23.156l-7.6875-1.8281c-0.75-0.23438-1.3594-0.60938-1.8281-0.98438-0.60938-0.60938-1.125-1.3594-1.3594-2.3438-0.375-2.4375 0.75-3.5625 1.7344-4.1719 28.781-18.469 57.562-36.984 86.203-55.453 29.391-18.844 58.641-37.734 87.938-56.672 0.23438-0.14062 0.46875-0.375 0.75-0.46875 17.531-11.25 35.156-22.547 52.547-33.797 18.469-11.859 61.969-39.562 73.594-32.812 3.8438 2.0625 15.75 15.188 11.578 93.422zm27.891-94.406c-4.875-14.062-12-23.391-21.797-29.156-27.797-16.172-64.641 4.6406-109.83 33.656-12.984 8.4375-26.062 16.781-39.047 25.219-20.438-27.562-33.656-59.625-38.578-93.797-1.125-7.8281-7.4531-13.969-15.328-14.812-10.266-1.125-19.969-5.7656-27.047-12.984-12.234-12.375-16.172-30.984-10.031-47.391 6.1406-16.266 21.328-27.656 38.578-28.875 0.375 0 0.75-0.14062 1.2188-0.14062 4.2656-0.60938 22.781 0.46875 29.25 1.4531 4.6406 0.75 9.4219-0.46875 13.125-3.1875 3.7969-2.8125 6.2344-6.9844 6.8438-11.625 0.375-3.1875 0.46875-5.8594 0.60938-8.3438 0.14062-2.0625 0.14062-3.3281 0.375-4.2656 0.14062-0.46875 0.23438-1.125 0.23438-1.5938 2.5781-19.969 19.828-35.016 40.172-35.016h254.81c22.172 0 40.266 18.141 40.266 40.266v9.5625c0 1.3594 0.14062 2.6719 0.46875 3.9375 0.14062 0.46875 0.375 0.84375 0.46875 1.3594 0.23438 0.75 0.46875 1.5938 0.84375 2.3438s0.84375 1.3594 1.3594 2.0625c0.23438 0.375 0.46875 0.84375 0.84375 1.2188 0.84375 0.98438 1.8281 1.9688 2.8125 2.8125 0.375 0.375 0.84375 0.46875 1.3594 0.84375 4.0312 2.5781 8.9531 3.5625 13.594 2.3438 3.0469-0.75 5.8594-1.3594 8.5781-1.8281 0.46875-0.14063 0.98438-0.23438 1.4531-0.23438 2.5781-0.46875 5.0156-0.75 7.3594-0.98437 1.2188-0.14063 2.3438-0.14063 3.5625-0.23438 1.125-0.14062 2.2031-0.14062 3.1875-0.14062 1.4531 0 2.9531 0 4.5469 0.14062 0.60938 0 1.2188 0 1.8281 0.14063 1.5938 0.14062 3.1875 0.23437 4.7812 0.46875 0.46875 0.14062 0.84375 0.14062 1.3594 0.23437 1.7344 0.23438 3.3281 0.60938 4.875 1.125 0.375 0.14063 0.60938 0.14063 0.98438 0.23438 1.8281 0.60937 3.6562 1.2188 5.3906 2.0625 13.828 6.6094 18.469 18.609 20.578 24.141 6.1406 16.406 2.2031 34.875-9.9375 47.25-7.4531 7.4531-17.25 12.141-28.172 13.359-7.9688 0.84375-14.203 6.9844-15.328 14.812-13.969 97.969-96.75 172.4-194.68 177.42l0.84375-17.25c1.2188-24.234 1.2188-44.438-0.23438-61.125 24.75 1.7344 48.75 9.7969 70.031 23.766 2.9531 1.9688 6.2344 2.8125 9.5625 2.8125 5.625 0 11.156-2.8125 14.578-7.8281 5.25-7.9688 3.0469-18.75-5.0156-24.141-28.828-19.312-61.641-29.484-95.719-30.094zm80.719 169.82h-77.766l1.125-21.562c26.672-0.98438 52.547-6.2344 76.641-15.422z"/>
 <path d="m852.37 932.81c-9.5625 0-17.391 7.8281-17.391 17.391v183.32c0 9.5625 7.8281 17.391 17.391 17.391s17.391-7.8281 17.391-17.391v-183.32c0-9.5625-7.7344-17.391-17.391-17.391z"/>
 <path d="m549.19 575.16c-6.6094-6.9844-17.625-7.2188-24.609-0.75l-136.4 128.72c-6.9844 6.6094-7.3594 17.625-0.75 24.609 3.4219 3.6562 8.0625 5.3906 12.609 5.3906 4.2656 0 8.5781-1.5938 11.859-4.7812l136.4-128.68c7.125-6.5156 7.5-17.531 0.89062-24.516z"/>
 <path d="m543.19 683.26c-9.3281-2.4375-18.75 3.1875-21.188 12.469-17.25 66.469-25.734 99.656-25.734 99.656-2.3438 9.3281 3.1875 18.75 12.469 21.188 1.4531 0.375 2.9531 0.46875 4.2656 0.46875 7.7344 0 14.812-5.25 16.781-13.125 0 0 8.4375-33.188 25.734-99.562 2.625-9.1875-3.0469-18.75-12.328-21.094z"/>
 <path d="m1133.5 571.97h-29.625c-2.3438-11.25-6.75-21.656-12.844-30.844l21.047-21.047c6.75-6.75 6.75-17.766 0-24.609-6.75-6.75-17.766-6.75-24.609 0l-21.047 21.047c-9.1875-6.1406-19.594-10.547-30.844-12.844v-29.625c0-9.5625-7.8281-17.391-17.391-17.391s-17.391 7.8281-17.391 17.391v29.625c-11.25 2.3438-21.656 6.75-30.844 12.844l-21.047-21.047c-6.75-6.75-17.766-6.75-24.609 0-6.75 6.75-6.75 17.766 0 24.609l21.047 21.047c-6.1406 9.1875-10.547 19.594-12.844 30.844h-29.625c-9.5625 0-17.391 7.8281-17.391 17.391s7.8281 17.391 17.391 17.391h29.625c2.3438 11.25 6.75 21.797 12.844 31.125l-21.047 21.047c-6.75 6.75-6.75 17.766 0 24.609 3.4219 3.4219 7.8281 5.1562 12.234 5.1562s8.9531-1.7344 12.234-5.1562l21.047-21.047c9.1875 6.1406 19.594 10.547 30.844 12.844v29.625c0 9.5625 7.8281 17.391 17.391 17.391s17.391-7.8281 17.391-17.391v-29.625c11.156-2.3438 21.656-6.75 30.844-12.844l21.047 21.047c3.4219 3.4219 7.8281 5.0156 12.234 5.0156s8.9531-1.7344 12.234-5.1562c6.75-6.75 6.75-17.766 0-24.609l-21.047-21.047c6.1406-9.3281 10.641-19.828 12.844-31.125h29.625c9.5625 0 17.391-7.8281 17.391-17.391 0.23438-9.4219-7.5938-17.25-17.109-17.25zm-78 54.609c-0.14062 0.14062-0.23438 0.14062-0.23438 0.23438l-0.23438 0.23438c-9.5625 9.4219-22.547 15.328-36.984 15.328s-27.422-5.8594-36.984-15.328c0-0.14062-0.14062-0.14062-0.14062-0.23438-0.14062-0.14062-0.14062-0.14062-0.23438-0.14062-9.4219-9.5625-15.328-22.781-15.328-37.219 0-14.344 5.7656-27.328 15.047-36.75 0.14062-0.14062 0.375-0.23438 0.46875-0.375 0.14062-0.14062 0.23438-0.375 0.375-0.46875 9.5625-9.3281 22.406-15.047 36.75-15.047 14.203 0 27.188 5.7656 36.75 14.953 0.14062 0.14062 0.23438 0.375 0.46875 0.46875 0.14062 0.14062 0.375 0.23438 0.46875 0.46875 9.3281 9.5625 14.953 22.406 14.953 36.75 0.14062 14.344-5.7188 27.562-15.141 37.125z"/>
 <path d="m164.44 605.26c0 9.5625 7.8281 17.391 17.391 17.391s17.391-7.8281 17.391-17.391v-29.625c11.25-2.3438 21.656-6.75 30.984-12.844l20.953 21.047c3.4219 3.4219 7.8281 5.1562 12.375 5.1562 4.4062 0 8.8125-1.7344 12.234-5.0156 6.8438-6.75 6.8438-17.766 0.14062-24.609l-21.047-21.188c6.1406-9.1875 10.547-19.594 12.75-30.75h29.859c9.5625 0 17.391-7.8281 17.391-17.391s-7.8281-17.391-17.391-17.391h-29.859c-2.2031-11.156-6.75-21.562-12.75-30.75l21.047-21.188c6.75-6.8438 6.75-17.766-0.14062-24.609-6.8438-6.75-17.766-6.75-24.609 0.14063l-20.953 21.047c-9.1875-6.1406-19.734-10.641-30.984-12.844v-29.766c0-9.5625-7.8281-17.391-17.391-17.391s-17.391 7.8281-17.391 17.391v29.625c-11.25 2.3438-21.656 6.75-30.844 12.844l-21.047-21.047c-6.75-6.75-17.766-6.75-24.609 0-6.75 6.75-6.75 17.766 0 24.609l21.047 21.047c-6.1406 9.1875-10.547 19.594-12.844 30.844l-29.672 0.046876c-9.5625 0-17.391 7.8281-17.391 17.391s7.8281 17.391 17.391 17.391h29.625c2.3438 11.25 6.75 21.656 12.844 30.844l-21.047 21.047c-6.75 6.75-6.75 17.766 0 24.609 3.4219 3.4219 7.8281 5.0156 12.234 5.0156s8.9531-1.7344 12.234-5.1562l21.047-21.047c9.1875 6.1406 19.594 10.547 30.844 12.844l0.09375 29.672zm-19.312-77.625c-0.14062-0.14062-0.23438-0.375-0.46875-0.60937-0.14062-0.14063-0.375-0.23438-0.46875-0.46875-9.1875-9.5625-14.953-22.406-14.953-36.75s5.7656-27.328 15.047-36.75c0.14062-0.14063 0.375-0.23438 0.46875-0.375 0.14062-0.14063 0.23438-0.375 0.375-0.46875 9.5625-9.3281 22.406-15.047 36.75-15.047 29.016 0 52.641 23.625 52.641 52.641 0 29.016-23.625 52.641-52.641 52.641-14.25 0.23438-27.234-5.4844-36.75-14.812z"/>
</svg>
