<?xml version="1.0" encoding="UTF-8"?>
<svg id="Layer_1" data-name="Layer 1" xmlns="http://www.w3.org/2000/svg" viewBox="0 0 499.379 687.692">
  <path d="M451.257,5.711c-9.516-5.797-21.191-6.879-32.352-4.602-11.16,2.277-22.48,7.785-33.797,15.488-22.637,15.406-45.398,40.102-64.48,71.422l-48.504,79.617-51.004-4.859c1.707-7.344,2.727-14.484,2.356-21.078-.473-8.402-3.965-16.102-9.742-21.973-.07-.066-.156-.074-.227-.137v.004c-.688-1.578-1.746-2.969-3.09-4.043-.148-.094-.297-.184-.449-.273-6.242-3.805-13.57-4.488-20.305-3.117s-13.344,4.695-19.664,8.992c-11.316,7.695-22.426,19.379-32.023,33.84l-60.754-5.559c-8.145-.758-15.543,2.41-21.949,6.672-6.41,4.262-11.824,10.297-16.105,17.324l-16.852,27.664-.004-.004c-2.93,4.793-1.578,11.043,3.066,14.203l158.78,96.73-44.668,73.316-103.29-26.848c-10.863-2.816-21.453,1.301-27.262,10.836l-7.398,12.145c-3.027,4.969-1.453,11.449,3.516,14.477l133.37,81.25,170.48,103.86h-.004c4.969,3.027,11.449,1.453,14.477-3.516l7.398-12.145c5.883-9.652,4.586-20.863-2.875-29.195l-71.23-79.477,44.668-73.316,158.78,96.73.004-.004c4.969,3.027,11.449,1.453,14.477-3.516l16.852-27.664c4.281-7.027,6.711-14.883,7.559-22.531.848-7.648.496-15.543-3.914-22.43l-33.027-51.578c8.492-15.137,13.961-30.254,15.609-43.84.918-7.586.617-15.121-1.254-21.734-1.867-6.613-5.613-12.672-11.855-16.477l-.004.008c-.289-.199-.59-.383-.898-.547-1.625-.789-3.43-1.141-5.231-1.031-7.75-2.258-16.223-1.812-23.766,1.555-6.031,2.695-11.906,6.871-17.648,11.758l-27.711-43.094,48.504-79.617c19.082-31.32,30.59-62.875,33.895-90.059,1.652-13.59,1.359-26.176-1.738-37.137-3.094-10.965-9.188-20.707-18.699-26.504l-.017.014ZM440.296,23.703c4.195,2.555,7.156,6.977,9.207,14.242,2.051,7.27,2.66,17.242,1.25,28.824-2.816,23.16-13.203,52.547-30.949,81.676l-50.559,82.988.004.004c-.621.633-1.156,1.344-1.598,2.109l-79.059,129.77v.004c-.613.867-1.09,1.824-1.418,2.832l-52.477,86.141v.004c-2.371,3.922-1.93,8.93,1.09,12.383l76.383,85.695c.344.387.617,4.047.605,4.07l-1.918,3.148-124.37-75.77L25.007,383.445l1.918-3.148c.09-.145,3.43-1.449,3.895-1.328l111.19,28.574v-.004c4.449,1.102,9.102-.805,11.504-4.711l53.164-87.258h-.004c.367-.496.688-1.023.961-1.574l79.059-129.77c.199-.293.379-.594.547-.902l51.383-84.34c17.746-29.129,39.098-51.836,58.387-64.961,9.644-6.562,18.789-10.598,26.188-12.109,7.398-1.512,12.914-.766,17.105,1.785l-.008.005ZM198.866,133.493c1.363.828,3.098,3.129,3.457,9.508.246,4.395-1.5,11.316-3.144,17.82l-36.109-3.496c6.316-7.793,12.879-14.707,18.824-18.754,4.644-3.156,8.856-5.141,11.828-5.746,2.973-.605,4.223.105,5.144.668h0ZM453.456,288.593c.922.562,2.125,1.344,2.953,4.266.824,2.918.992,7.57.316,13.145-.875,7.207-4.09,16.277-8.168,25.555l-19.754-30.848c5.043-4.469,10.359-9.168,14.391-10.969,5.832-2.606,8.898-1.981,10.262-1.148h0ZM259.926,187.643l-64.809,106.38L45.557,202.902l11.371-18.668c2.52-4.133,6.496-8.238,10.234-10.727,3.738-2.484,7.195-2.949,7.922-2.883l66.848,6.188.012.008c.121-.027.242-.055.359-.082l64.5,5.992.004-.004c.316.004.633-.008.949-.031l52.18,4.961-.01-.012ZM377.106,259.03l63.645,99.523h.004c.121.293.254.582.398.863l35.844,56.066c.395.621,1.566,3.902,1.074,8.363-.496,4.461-2.32,9.883-4.836,14.016l-11.371,18.668-149.56-91.113,64.809-106.38-.008-.007ZM143.356,508.57h.004c-4.988-2.394-10.98-.52-13.715,4.289l-56.176,92.215v-.004c-1.473,2.418-1.926,5.32-1.258,8.066.668,2.75,2.402,5.121,4.816,6.594,5.031,3.062,11.594,1.469,14.656-3.559l56.176-92.215h.004c1.688-2.582,2.164-5.773,1.297-8.731-.867-2.961-2.988-5.394-5.801-6.656h-.004ZM75.551,523.695h.004c-4.965-2.231-10.812-.312-13.488,4.426l-56.039,91.988-.004-.004c-2.633,4.938-.957,11.07,3.82,13.98,4.777,2.91,10.996,1.586,14.172-3.019l56.039-91.988.004.004c1.562-2.426,2.059-5.387,1.379-8.191s-2.48-5.207-4.984-6.648c-.289-.195-.59-.379-.898-.547h-.004ZM161.012,575.761c-4.961-2.231-10.809-.312-13.488,4.422l-56.039,91.988c-2.633,4.934-.957,11.066,3.82,13.98,4.777,2.91,10.996,1.586,14.172-3.019l56.039-91.988v.004c1.562-2.43,2.062-5.391,1.383-8.195-.684-2.805-2.484-5.207-4.984-6.644-.293-.195-.59-.379-.902-.547h0Z"/>
</svg>