<?xml version="1.0" encoding="UTF-8"?>
<svg width="1200pt" height="1200pt" version="1.1" viewBox="0 0 1200 1200" xmlns="http://www.w3.org/2000/svg">
 <path d="m1011.9 120.07h-0.96094c-74.953 0-125.87 53.984-127.7 55.969l-142.58 142.61-264.71-96.434c-30.773-11.215-65.578-3.4844-88.711 19.664l-54.645 54.664c-2.5195 2.5156-3.7852 6.0156-3.4688 9.5547 0.31641 3.5469 2.1914 6.7617 5.1094 8.7891l240.16 166.53c-15.223 17.934-49.207 57.926-88.945 101.39l-97.277-35.984c-17.449-6.6055-37.266-2.3555-50.461 10.848l-66.844 66.859c-2.4492 2.4531-3.7266 5.8477-3.4922 9.3047 0.24609 3.457 1.957 6.6445 4.7227 8.7422l162.41 123.17 123.12 162.45c2.0977 2.7656 5.2852 4.4883 8.7422 4.7227 0.26953 0.015625 0.55078 0.027343 0.82031 0.027343 3.1758 0 6.2227-1.2617 8.4844-3.5156l66.844-66.855c13.207-13.203 17.461-33.016 10.875-50.379l-36-97.406c43.453-39.75 83.438-73.738 101.37-88.969l166.46 240.22c2.0273 2.9219 5.25 4.793 8.7891 5.1133 3.668 0.31641 7.0547-0.94922 9.5625-3.4688l54.656-54.664c23.133-23.145 30.844-57.973 19.652-88.73l-96.41-264.8 142.25-142.3c2.3203-2.1445 56.742-53.516 56.285-129.02-0.24609-37.961-30.164-67.879-68.109-68.105zm-4.8164 179.85-147.98 148.02c-3.3047 3.2969-4.3828 8.207-2.7891 12.59l99.023 271.98c8.0156 22.031 2.4844 46.977-14.074 63.551l-44.496 44.496-165.86-239.34c-1.9805-2.8594-5.1914-4.6406-8.6484-5.0156-3.4805-0.39844-6.9961 0.84375-9.5391 3.2109-0.86719 0.79688-4.0078 3.457-8.9766 7.6758-18.562 15.766-62.027 52.688-108.53 95.48-3.5859 3.293-4.8164 8.4258-3.1289 12.988l38.824 105.06c3.2812 8.6406 1.1719 18.457-5.3672 24.996l-57.105 57.117-115.8-152.79c-0.65625-0.87109-1.4414-1.6523-2.3086-2.3164l-152.77-115.85 57.117-57.129c6.5273-6.5391 16.359-8.6484 25.078-5.3359l104.93 38.812c4.582 1.7031 9.6914 0.45703 12.996-3.1367 42.785-46.512 79.699-90 95.461-108.57 4.207-4.9609 6.8555-8.1055 7.5117-8.8125 2.5078-2.5156 3.7734-6.0117 3.457-9.5508-0.31641-3.5391-2.1914-6.7578-5.1211-8.7852l-239.27-165.91 44.484-44.504c16.582-16.566 41.508-22.109 63.527-14.086l271.91 99.051c4.3594 1.6055 9.293 0.51172 12.586-2.7891l148.3-148.36c0.45703-0.48438 45.82-48.609 110.43-48.609h0.80859c24.656 0.14453 44.098 19.586 44.25 44.258 0.39844 64.723-48.129 110.84-48.926 111.6z"/>
 <path d="m132 1080c3.0703 0 6.1406-1.1719 8.4844-3.5156l240.89-240.9c4.6875-4.6875 4.6875-12.281 0-16.969s-12.281-4.6875-16.969 0l-240.89 240.89c-4.6875 4.6875-4.6875 12.281 0 16.969 2.3438 2.3477 5.4141 3.5195 8.4844 3.5195z"/>
 <path d="m132 873.98c3.0703 0 6.1406-1.1719 8.4844-3.5156l137.88-137.88c4.6875-4.6875 4.6875-12.281 0-16.969s-12.281-4.6875-16.969 0l-137.88 137.88c-4.6875 4.6875-4.6875 12.281 0 16.969 2.3438 2.3438 5.4141 3.5195 8.4844 3.5195z"/>
 <path d="m329.53 1076.5c2.3438 2.3438 5.4141 3.5156 8.4844 3.5156s6.1406-1.1719 8.4844-3.5156l137.89-137.88c4.6875-4.6875 4.6875-12.281 0-16.969s-12.281-4.6875-16.969 0l-137.89 137.88c-4.6875 4.6875-4.6875 12.281 0 16.969z"/>
</svg>
