<?xml version="1.0" encoding="UTF-8"?>
<svg id="Layer_1" xmlns="http://www.w3.org/2000/svg" version="1.1" viewBox="0 0 1120.9 1081.5">
  <!-- Generator: Adobe Illustrator 29.2.1, SVG Export Plug-In . SVG Version: 2.1.0 Build 116)  -->
  <defs>
    <style>
      .st0 {
        fill: #d1d1e0;
      }

      .st0, .st1 {
        fill-rule: evenodd;
      }
    </style>
  </defs>
  <polygon class="st0" points="732.5 196 653.5 119.4 568.5 93 518.4 28 415.8 17 283.5 96 186.3 106.5 113.5 188 97.5 284 37.5 376 45.7 488 149.5 567 186.1 575 283.5 659 948.5 668 1070.6 601.2 1111.5 494 1070.6 383.4 994.5 342.5 896.5 332 864.5 255 732.5 196"/>
  <path class="st1" d="M939.8,679.4H329.7c-96.8,0-175.6-78.8-175.6-175.5s26.3-107.8,70.8-140.9c-1.1-7.9-1.6-15.9-1.6-23.9,0-96.8,78.7-175.6,175.6-175.6s24,1.2,35.8,3.7c32.3-49.5,87.6-79.7,147.1-79.7s128.6,38.4,157.9,98.8c81.8-.8,153.3,55.5,172.7,133.2,9-1.4,18.2-2.1,27.5-2.1,99.8,0,181,81.2,181,181.1s-81.2,181-181.1,181h0ZM398.9,195.5c-79.2,0-143.6,64.4-143.6,143.6s.9,18.8,2.8,28.1c1.3,6.4-1.5,12.9-6.9,16.5-40.7,26.7-65.1,71.6-65.1,120.2,0,79.2,64.4,143.6,143.6,143.6h610.1c82.2,0,149.1-66.9,149.1-149.1s-66.9-149.1-149.1-149.1-24.4,1.5-36.1,4.4c-4.4,1.1-9,.3-12.8-2.2s-6.3-6.5-6.9-10.9c-10.4-69.8-71.4-122.3-142-122.3s-7.5.1-11.2.4c-6.8.5-13.4-3.4-16-9.9-22.2-54.2-74.3-89.3-132.9-89.3s-100.2,28.3-125.5,73.8c-3.6,6.5-11.2,9.6-18.3,7.6-12.7-3.6-25.8-5.3-39-5.3h0Z"/>
  <path class="st1" d="M939.8,601.2H329.7c-53.7,0-97.4-43.7-97.4-97.4s16.5-63.5,44.2-81.6l35.1-23-8.2-41.2c-1.2-6.3-1.9-12.7-1.9-19.1,0-53.7,43.7-97.4,97.4-97.4s16,7.2,16,16-7.2,16-16,16c-36.1,0-65.4,29.3-65.4,65.4s.4,8.7,1.3,12.9l10.3,51.7c1.3,6.4-1.5,12.9-6.9,16.5l-44.1,28.9c-18.6,12.2-29.7,32.7-29.7,54.8,0,36.1,29.3,65.4,65.4,65.4h610.1c39.1,0,71-31.8,71-71s7.2-16,16-16,16,7.2,16,16c0,56.8-46.2,102.9-102.9,102.9h0Z"/>
  <path class="st1" d="M187.4,591.9h-.2c-95.6-1.1-173.5-79.8-173.5-175.5s26.3-107.8,70.8-140.9c-1.1-7.9-1.6-15.9-1.6-23.9,0-96.8,78.7-175.6,175.6-175.6s24,1.2,35.8,3.7C326.5,30.2,381.8,0,441.3,0s125.1,36,155.5,94.1c1.9,2.6,3,5.9,3,9.3,0,8.8-7.2,16-16,16h-2.2c-51.9,0-100,28.3-125.4,73.8-3.6,6.5-11.2,9.6-18.3,7.6-12.7-3.6-25.8-5.4-39-5.4-79.2,0-143.6,64.4-143.6,143.6s.9,18.9,2.8,28.1c1.3,6.4-1.5,12.9-6.9,16.5-40.7,26.7-65.1,71.6-65.1,120.2s5.2,44.7,15.5,64.9c2.5,5,2.2,10.9-.7,15.7-3,4.7-8.1,7.5-13.6,7.5h0ZM258.5,108c-79.2,0-143.6,64.4-143.6,143.6s.9,18.9,2.8,28.1c1.3,6.4-1.5,12.9-6.9,16.5-40.7,26.7-65.1,71.6-65.1,120.2,0,69.7,50.5,128.4,116.9,141-5.5-17.2-8.3-35.2-8.3-53.7,0-55.9,26.3-107.8,70.8-140.9-1.1-7.9-1.6-15.9-1.6-23.9,0-96.8,78.8-175.6,175.6-175.6s24,1.2,35.8,3.7c27.6-42.3,72-70.5,121.5-77.9-26.9-35.9-69-57.4-114.8-57.4s-100.2,28.3-125.5,73.8c-3.6,6.5-11.2,9.6-18.3,7.6-12.7-3.6-25.8-5.3-39.1-5.3h0Z"/>
  <path class="st1" d="M356.6,790.8H16c-8.8,0-16-7.2-16-16s7.2-16,16-16h340.6c8.8,0,16,7.2,16,16s-7.2,16-16,16Z"/>
  <path class="st1" d="M582.4,790.8h-128c-8.8,0-16-7.2-16-16s7.2-16,16-16h128c8.8,0,16,7.2,16,16s-7.2,16-16,16Z"/>
  <path class="st1" d="M1032.1,790.8h-321.7c-8.8,0-16-7.2-16-16s7.2-16,16-16h321.7c8.8,0,16,7.2,16,16s-7.2,16-16,16Z"/>
  <path class="st1" d="M465.7,885.8H125.1c-8.8,0-16-7.2-16-16s7.2-16,16-16h340.6c8.8,0,16,7.2,16,16s-7.2,16-16,16Z"/>
  <path class="st1" d="M945.5,885.8h-340.6c-8.8,0-16-7.2-16-16s7.2-16,16-16h340.6c8.8,0,16,7.2,16,16s-7.2,16-16,16Z"/>
  <path class="st1" d="M170.3,993.1H42.3c-8.8,0-16-7.2-16-16s7.2-16,16-16h128c8.8,0,16,7.2,16,16s-7.2,16-16,16Z"/>
  <path class="st1" d="M399.8,993.1h-128c-8.8,0-16-7.2-16-16s7.2-16,16-16h128c8.8,0,16,7.2,16,16s-7.2,16-16,16Z"/>
  <path class="st1" d="M1054.6,993.1H501.4c-8.8,0-16-7.2-16-16s7.2-16,16-16h553.2c8.8,0,16,7.2,16,16s-7.2,16-16,16Z"/>
  <path class="st1" d="M785.6,1081.5H232.4c-8.8,0-16-7.2-16-16s7.2-16,16-16h553.2c8.8,0,16,7.2,16,16s-7.2,16-16,16Z"/>
</svg>