<?xml version="1.0" encoding="UTF-8"?>
<svg id="Layer_1" data-name="Layer 1" xmlns="http://www.w3.org/2000/svg" viewBox="0 0 1395.764 1125.003">
  <path d="M747.225,336.488c8.06,20.961,16.585,6.042,30.031,23.867.89-1.042,1.703-2.159,2.42-3.353,0,0,12.047-18.891,40.922-35.25,10.968-6.234,15.609-19.687,10.734-31.359,0,0-11.718-28.453-14.109-62.906-1.125-16.688-.188-35.016,6.234-51.75,19.407,1.829,54.329,8.297,81.188,30.891,7.5,6.328,18,7.641,26.859,3.469,8.859-4.219,14.391-13.219,14.25-23.016,0,0-1.875-79.176,50.203-129.66,18.515,18.09,49.922,59.202,49.781,130.03,0,11.25,7.5,21.141,18.375,24.141s22.359-1.641,28.125-11.297c0,0,26.297-41.907,89.953-49.266,9.094,18.46,24.187,61.918,13.828,132.84-1.266,8.578,2.016,17.203,8.672,22.781,6.656,5.578,15.75,7.312,23.953,4.547,0,0,44.531-15,90.469-5.391-1.125,8.672-2.953,19.687-6,31.875-3.328,13.359,4.782,26.953,18.188,30.328,13.359,3.328,26.953-4.782,30.328-18.188,8.672-34.594,9.141-61.828,9.141-61.828.188-10.641-6.375-20.297-16.359-23.953-37.689-13.875-77.533-12.281-105.33-8.203,5.437-100.027-33.797-146.48-33.797-146.48-4.922-6.094-12.422-9.562-20.25-9.328-47.018,1.359-81.189,16.547-104.58,32.859C1071.563,40.917,1008.844,3.698,1008.844,3.698c-8.625-5.297-19.594-4.875-27.797,1.078-53.625,39-73.547,99.799-80.953,140.58-45.703-21.094-92.344-20.344-92.344-20.344-8.578.141-16.453,4.688-20.906,12.047-17.531,28.969-21.609,63.141-19.5,93.844,1.594,23.156,6.609,44.11,10.922,58.594-8.86,6.281-25.228,27.272-31.041,32.991-3.052-2.483,3.013,16.125,0,14Z"/>
  <path d="M1395.764,558.234c0-95.908-40.547-149.486-92.344-171.47-59.48-25.313-138.185-7.781-197.06,42.328-4.781-44.91-19.922-113.626-66.281-169.97-8.765-10.641-24.562-12.187-35.203-3.422s-12.188,24.515-3.422,35.203c36.281,44.071,49.688,97.133,54.469,134.68-58.36-47.39-134.762-63.515-192.84-38.812-51.797,21.99-92.297,75.564-92.297,171.47,0,19.922,1.266,40.547,3.844,61.266,1.641,13.688,14.156,23.438,27.844,21.75s23.438-14.156,21.75-27.844c-2.297-18.656-3.469-37.219-3.469-55.172,0-68.855,24.703-109.636,61.922-125.48,57.32-24.375,136.635,8.391,179.76,73.453,4.64,6.984,12.422,11.156,20.812,11.156s16.218-4.172,20.859-11.156c43.12-65.062,122.432-97.828,179.76-73.453,37.219,15.84,61.875,56.621,61.875,125.48,0,74.24-19.64,158.525-56.859,220.4-92.43-70.035-239.67-116.16-405.61-116.16-167.82,0-316.46,47.156-408.71,118.5-66.046,51.1-103.78,114.894-103.78,183.05,0,36.281,9.328,64.687,29.531,87.281,7.781,8.719,68.478,65.691,113.478,73.691h369.492c191.39,0,315.229-5.203,391.26-24.891,43.454-11.25,72.75-27.609,91.688-48.797,20.156-22.593,29.531-51,29.531-87.281,0-54.989-24.563-107.114-68.719-152.02,44.438-70.07,68.719-167.811,68.719-253.78ZM1083.235,737.509c17.297,4.594,33.985,9.75,50.016,15.469v109.501c0,13.828-11.204,24.984-24.985,24.984s-25.031-11.156-25.031-24.984v-124.97ZM858.236,712.853c8.297-.234,16.641-.375,25.031-.375s16.687.141,24.984.375v149.63c0,6.61-2.624,12.984-7.312,17.672s-11.063,7.312-17.672,7.312c-6.656,0-12.984-2.625-17.672-7.312s-7.359-11.063-7.359-17.672v-149.63ZM633.235,752.978c16.078-5.719,32.766-10.875,50.016-15.469v124.969c0,13.828-11.204,24.984-24.985,24.984-6.656,0-12.984-2.625-17.672-7.312s-7.359-11.063-7.359-17.672v-109.5ZM1345.706,964.004c0,18.141-2.906,33.328-10.734,45.844-12.422,19.921-36.187,32.297-72.984,41.859-73.58,19.031-193.48,23.25-378.74,23.25s-305.193-4.219-378.74-23.25c-36.797-9.562-60.609-21.937-73.031-41.859-7.828-12.516-10.734-27.703-10.734-45.844,0-53.902,32.156-103.074,84.422-143.48,22.547-17.485,48.797-33.282,78.094-47.016v88.969c0,19.875,7.876,38.954,21.938,53.016s33.14,21.984,53.062,21.984c41.391,0,75-33.562,75-75v-136.26c24.188-4.594,49.219-8.062,75-10.406v146.68c0,19.875,7.876,38.954,21.938,53.016s33.14,21.984,53.062,21.984,38.954-7.921,53.016-21.984,21.984-33.141,21.984-53.016v-146.68c25.734,2.344,50.812,5.812,75,10.406v136.26c0,41.438,33.562,75,75,75s75-33.562,75-75v-88.969c29.25,13.735,55.5,29.532,78.094,47.016,5.063,3.938,18.141,15.141,18.188,15.188l-.023.002c41.438,37.306,66.188,80.946,66.188,128.29Z"/>
  <path d="M345.224,878.015c-138.84-24.8-255.65-130.78-298.4-264.52-4.875-15.187-26.953-73.125-5.109-77.859l523.163.053c70.763,0,141.591-.501,212.387-.509.37-11.026,1.599-21.937,4.743-32.538H207.523c-43.694,0-87.522.609-131.21,0,5.203-26.25,17.485-52.219,41.719-65.953,33.234-18.797,16.734-9.235,24.703-45.047,6.75-30.375,30.14-53.719,60.281-61.594,32.109-8.344,15.563-9.75,36.047-33.797,20.578-24.188,54.75-37.125,86.344-32.391,24.375,3.703,21.328,11.437,39.469-10.266,21.094-25.266,50.531-39.375,82.969-42.328h.01c34.969-3.75,69.703,10.078,94.641,34.406,6.984,6.75,12.234,16.594,20.203,22.125,9.378,6.562,71.487-29.391,108.94,33.703,18.891,31.781.187,19.875,35.203,28.547,30.89,7.641,58.687,36.516,63.562,68.016,4.125,26.719-6.891,24.329,21.797,36.891,5.101,2.232,9.661,4.969,13.74,8.123,7.677-8.222,16.132-15.662,25.411-21.997-8.125-7.526-17.469-13.895-27.978-18.749-2.297-14.531-29.415-66.013-35.04-79.654l-60.098-24.32-.029-.002c-29.25-48.235-72.045-81.328-132.42-64.594-65.11-75.328-173.058-74.25-237.98,0-55.072-12.047-113.666,14.016-139.26,64.594-51.188,13.736-88.547,52.126-90.75,106.22-36.422,17.765-61.125,57.843-63.188,98.062-57.516,1.735-46.359,51.703-37.078,90.469,22.03,91.87,74.628,177.048,150.05,234.47,81.228,62.111,141.602,80.83,222.334,86.015,2.081-11.133,6.926-21.535,13.342-31.211-16.119-.423-32.194-1.539-48.032-4.364Z"/>
  <path d="M465.235,285.036c-6-.844-12.375-.516-17.812-3.656-14.859-8.484-6.188-27.422,7.922-30.188,33.938-2.016,67.547,42.516,31.594,52.781-12.141-2.109-14.203-11.016-21.703-18.938h0Z"/>
  <path d="M394.685,337.156c-6.328-.328-12.328.797-18.234-2.016-18.609-8.953-6-27.422,8.953-31.125,33.797-2.484,63.984,44.859,26.203,48.375-9.188-2.344-11.766-7.875-16.922-15.234h0Z"/>
  <path d="M575.815,340.726c-8.25-.281-17.297,1.969-24.844-2.438-14.531-8.578-4.359-26.203,12.141-29.812,41.156-2.531,66.047,45.047,29.531,47.438-9-2.203-11.625-8.438-16.828-15.188h0Z"/>
  <path d="M278.075,374.756c-29.109,14.344-38.344-38.297,11.484-43.219,29.109-2.344,40.219,33.234-3,32.297-2.344,4.453-4.453,7.828-8.484,10.922h0Z"/>
  <path d="M486.995,438.886c-34.031,17.672-39.562-42.703,6.047-50.25,28.922-1.688,45.141,33.141,0,33.141-1.453,5.719-2.672,12.141-6.047,17.109h0Z"/>
  <path d="M606.845,450.596c-34.406,8.484-26.906-41.766,15.141-51.562,19.828-1.688,37.453,20.766,0,34.781-5.438,5.859-7.406,13.219-15.141,16.781Z"/>
  <path d="M742.835,465.936c-19.219-.234-12-11.109-23.297-19.922-4.406-3.422-10.828-2.531-15.609-5.203-13.125-7.453-5.766-26.25,8.25-29.906,30.422-.516,64.406,43.219,30.656,55.031h0Z"/>
  <path d="M201.185,465.936c-33.094,9.891-35.156-43.547,8.672-52.031,31.172-4.078,35.625,28.078,0,33.094-1.031,8.438-2.859,12.656-8.672,18.938h0Z"/>
  <path d="M323.765,471.786c-28.688,24.609-43.266-40.922,8.297-45.141,38.203-.141,42.281,39.75,0,31.5-2.578,4.688-4.922,9.422-8.297,13.641Z"/>
  <path d="M752.545,630.696c-11.344.047-32.25,2.812-41.391-4.172-12.469-9.516-4.547-27.703,11.578-28.641,60.75-7.734,49.781,30.703,29.812,32.812h0Z"/>
  <path d="M653.765,630.696c-15.328,1.359-35.531.047-51.516,0l-425.11.094c-29.203-.281-27.938-26.438-9.516-32.906,18.891-1.078,38.391-.047,57.328,0h339.32c13.125,0,82.734-1.5,90.469,1.125,15.609,5.344,12.75,26.25-.984,31.688h.009Z"/>
</svg>