<?xml version="1.0" encoding="UTF-8"?>
<svg id="Layer_1" data-name="Layer 1" xmlns="http://www.w3.org/2000/svg" viewBox="0 0 944.401 960">
  <path d="M910.175,682.781c-15.422-37.828-30-73.641-28.969-103.55L934.597,14.391c.375-3.656-.844-7.359-3.328-10.078-2.531-2.766-6.047-4.312-9.75-4.312h-382.92c-3.516,0-6.938,1.453-9.375,3.984-2.484,2.531-3.844,5.953-3.75,9.469l11.672,438.66c-1.828,76.969-59.297,156.71-161.9,224.48l.047-.047c-90.844,59.062-192.71,99.047-299.39,117.61-4.781.75-9.609,1.312-14.344,1.922-21.188,2.625-41.203,5.109-52.781,20.203-7.828,11.578-10.594,25.875-7.594,39.516,2.391,31.125,18,59.719,42.938,78.516,26.766,18.703,63.141,23.25,108.09,13.453,21.094-6.094,43.406-6.516,64.688-1.172,29.672,8.906,60.469,13.406,91.5,13.406,57.328,0,107.67-15.234,153.84-29.203,54.703-16.547,102-30.844,147.32-15.703,51.562,21.656,106.59,33.703,162.47,35.578,56.344,0,112.78-16.688,150.1-69.609,43.641-61.875,14.109-134.29-11.953-198.28l-.002-.003ZM29.575,832.26c4.969-6.422,19.688-8.25,35.25-10.172,4.875-.609,9.891-1.219,15.094-2.016,19.5-3,39.891-7.219,60.844-12.422l-.047-.047c.094.938.141,1.875.188,2.812,0,27.609-44.109,57.094-110.34,58.453-1.5-5.484-2.625-11.062-3.375-16.688-1.688-6.703-.844-13.781,2.391-19.922h-.004ZM900.795,865.87c-68.672,97.312-219.84,49.688-281.68,24.703l-.75-.281c-53.438-18-107.02-1.828-163.69,15.328-65.859,19.922-140.39,42.516-230.39,15.75-10.969-3.281-22.406-4.922-33.891-4.875-14.766.281-29.438,2.156-43.781,5.578-37.031,8.062-67.266,4.781-87.469-9.281h-.047c-6.891-4.875-12.797-11.016-17.344-18.141,71.438-4.641,125.34-39.984,125.34-84.234,0-3.234-.328-6.516-.938-9.703,182.95-52.875,393.66-185.26,397.22-348.37v-.656l-11.344-425.44h355.03l-52.031,550.97v.703c-1.406,35.672,14.25,74.109,30.844,114.84,24.656,60.469,50.156,123.05,14.859,173.11h.061ZM763.685,540.18c36.469,36.469,36.562,77.344.188,115.03-5.016,5.203-13.359,5.344-18.562.328-5.203-5.016-5.344-13.359-.328-18.562,26.625-27.609,26.672-51.703.141-78.234-4.969-5.109-4.922-13.359.141-18.422s13.312-5.109,18.422-.141h0Z"/>
</svg>