<?xml version="1.0" encoding="UTF-8"?>
<svg id="Layer_1" data-name="Layer 1" xmlns="http://www.w3.org/2000/svg" viewBox="0 0 1199.874 1199.962">
  <path d="M648.431,260.045c-3.629.77-7.328,1.176-11.039,1.211h-26.621l63.121,484.85-74.48,78.309-73.535-78.25,63.129-484.91h-26.613c-3.711-.035-7.41-.441-11.043-1.211l-63.809,490.07h.004c-.723,5.566,1.09,11.164,4.934,15.254l93.191,99.156v.004c3.527,3.758,8.453,5.898,13.609,5.91h.055c5.137,0,10.051-2.109,13.586-5.836l94.309-99.156c3.894-4.094,5.734-9.727,5.012-15.332l-63.809-490.069Z"/>
  <path d="M449.891,1031.275h-56.254c-6.695,0-12.883,3.574-16.234,9.371-3.348,5.801-3.348,12.945,0,18.742,3.352,5.801,9.539,9.375,16.234,9.375h56.254c6.695,0,12.883-3.574,16.23-9.375,3.348-5.797,3.348-12.941,0-18.742-3.348-5.797-9.535-9.371-16.23-9.371Z"/>
  <path d="M806.141,1031.275h-56.254c-6.695,0-12.883,3.574-16.23,9.371-3.348,5.801-3.348,12.945,0,18.742,3.348,5.801,9.535,9.375,16.23,9.375h56.254c6.695,0,12.883-3.574,16.234-9.375,3.348-5.797,3.348-12.941,0-18.742-3.352-5.797-9.539-9.371-16.234-9.371Z"/>
  <path d="M1199.791,1048.975c-9.875-136.95-43.934-593.03-68.977-730.42-.367-20.727-8.391-183.34-166.13-233.48-.734-.242-1.484-.43-2.246-.57l-129.15-24.027-74.633-56.359c-4.168-3.125-9.445-4.379-14.57-3.457-.09-.109-284.77-.477-284.78-.328-6.293-1.023-12.742.328-18.102,3.785l-74.633,56.359s-130.66,24.359-131.39,24.598c-157.74,50.137-165.77,212.75-166.13,233.48C44.007,455.946,9.948,912.026.073,1048.966c-.777,15.043,4.707,29.734,15.152,40.59,10.445,10.852,24.918,16.895,39.977,16.695h68.359c15.051-.02,29.613-5.336,41.133-15.02,11.523-9.684,19.266-23.117,21.875-37.938l10.484-71.961c37.66-78.176,54.074-273.22,60.535-383.4,1.125-19.105,13.891-52.008,18.699-64.387,3.805-9.828,7.168-20.527,10.172-31.41,3.996,78.918-5.613,158.45-15.02,235.46-4.801,39.305-9.77,79.945-12.938,120.41-6.023,76.781-5.078,267.15-5.078,285.73l.004-.004c.156,15.047,6.277,29.418,17.016,39.957,10.738,10.543,25.219,16.395,40.27,16.273h578.45-.004c15.051.121,29.531-5.73,40.27-16.273,10.738-10.539,16.859-24.91,17.016-39.957,0-18.578.949-208.95-5.078-285.73-3.168-40.473-8.133-81.109-12.938-120.41-9.406-77.012-19.016-156.55-15.02-235.46,3.004,10.887,6.367,21.582,10.172,31.41,4.809,12.383,17.574,45.281,18.699,64.383,6.461,110.18,22.875,305.23,60.539,383.41l10.477,71.957h.008c2.606,14.82,10.352,28.254,21.871,37.938,11.523,9.684,26.086,15.004,41.137,15.023h68.359c15.062.215,29.539-5.824,39.988-16.676,10.445-10.852,15.93-25.551,15.141-40.594l-.008-.007ZM698.381,37.775l-73.125,65.605h-50.664l-73.125-65.605h196.914ZM568.071,140.865h63.703l26.66,34.125-31.402,50.227h-54.219l-31.402-50.227,26.66-34.125ZM662.985,119.908l85.383-76.609,53.262,40.215-73.289,120.06-65.356-83.666ZM451.475,43.299l85.383,76.613-65.359,83.66-73.285-120.06,53.261-40.213ZM123.545,1068.699H55.186c-4.676.301-9.262-1.379-12.633-4.633-3.375-3.25-5.223-7.77-5.098-12.453.965-13.32,2.16-29.742,3.543-48.52h114.96l-6.516,44.738c-1.367,5.871-4.66,11.117-9.355,14.898s-10.52,5.883-16.547,5.969h.005ZM979.705,595.659c-3.496-26.109-10.621-51.605-21.168-75.742-18.488-47.648-26.797-121.93-26.875-122.67-.285-2.527-1.086-4.969-2.359-7.168,4-15.312,9.184-30.293,15.512-44.797,2.719-6.121,1.965-13.23-1.977-18.645-3.941-5.414-10.477-8.316-17.137-7.609-6.66.703-12.438,4.91-15.156,11.031-25.352,57.047-31.727,120.34-34.312,162.99-5.137,84.543,5.078,168.16,14.961,249.03,4.758,38.906,9.668,79.137,12.781,118.8,5.894,75.223,4.953,264.16,4.953,282.8h-.004c-.145,5.105-2.309,9.945-6.016,13.457-3.707,3.516-8.656,5.418-13.766,5.289h-270.47v-145.27c0-6.699-3.574-12.887-9.375-16.238-5.801-3.348-12.949-3.348-18.75,0-5.801,3.352-9.375,9.539-9.375,16.238v145.27l-270.47.004c-5.109.129-10.059-1.773-13.766-5.289-3.707-3.512-5.871-8.352-6.016-13.457,0-18.641-.941-207.57,4.953-282.8,3.113-39.66,8.023-79.895,12.781-118.8,9.879-80.867,20.094-164.48,14.961-249.03-2.586-42.652-8.965-105.94-34.312-162.99h-.004c-2.719-6.121-8.496-10.328-15.156-11.031-6.66-.707-13.195,2.195-17.137,7.609-3.941,5.414-4.695,12.523-1.977,18.645,6.328,14.504,11.512,29.477,15.512,44.785-1.273,2.207-2.074,4.648-2.359,7.18-.078.742-8.352,74.941-26.875,122.67-10.547,24.141-17.672,49.637-21.168,75.746-3.973,67.789-19.805,293.66-57.227,369.94H43.803c14.059-186.97,41.578-529.4,62.398-641.9h-.004c.234-1.246.34-2.512.312-3.777-.027-1.539-1.344-153.47,138.93-198.84l118.34-22.02,89.82,147.14c3.207,5.25,8.785,8.598,14.93,8.949s12.07-2.332,15.855-7.184l32.465-41.551,29.676,47.465c3.426,5.481,9.434,8.809,15.898,8.809h75c6.465,0,12.473-3.328,15.898-8.809l29.676-47.469,32.465,41.555c3.785,4.852,9.711,7.535,15.855,7.184s11.723-3.699,14.93-8.949l89.816-147.14,118.34,22.02c139.65,45.148,139.02,192.61,138.93,198.84h.004c-.027,1.266.078,2.531.312,3.777,20.82,112.5,48.34,454.92,62.398,641.9h-119.11c-37.426-76.273-53.254-302.15-57.227-369.94l-.006-.008ZM1144.655,1068.699h-68.359c-6.027-.086-11.855-2.188-16.551-5.969-4.695-3.785-7.988-9.031-9.352-14.902l-6.516-44.734h114.96c1.383,18.781,2.578,35.207,3.543,48.539.324,4.445-.543,17.066-17.727,17.066h.001Z"/>
</svg>