<?xml version="1.0" encoding="UTF-8"?>
<svg id="Layer_1" data-name="Layer 1" xmlns="http://www.w3.org/2000/svg" viewBox="0 0 1129.441 981.48">
  <path d="M490.45,0C219.79,0,0,219.89,0,490.74s219.79,490.74,490.45,490.74c72.75,0,144.56-16.172,210.28-47.391,4.266-2.016,7.547-5.625,9.141-10.031s1.359-9.328-.703-13.547c-1.969-4.219-5.625-7.5-10.031-9.047-4.406-1.594-9.281-1.312-13.5.703-60.984,28.969-127.64,44.016-195.14,44.016-251.58,0-455.16-203.68-455.16-455.44S238.917,35.303,490.497,35.303c218.21,0,405.47,154.64,446.86,369.05h-.047c.891,4.594,3.562,8.672,7.453,11.297s8.672,3.562,13.266,2.672c9.516-1.875,15.75-11.062,13.969-20.625C927.467,166.937,725.388.007,490.448.007l.002-.007ZM490.45,100.69c-215.06,0-389.76,174.84-389.76,390.05s174.71,390.05,389.76,390.05c48.844,0,97.219-9.188,142.69-27.094,4.359-1.688,7.875-5.062,9.75-9.375s1.969-9.188.281-13.547c-1.734-4.359-5.109-7.828-9.422-9.703s-9.141-1.969-13.5-.234c-41.344,16.266-85.359,24.656-129.79,24.656-195.98,0-354.47-158.63-354.47-354.74S294.469,136.013,490.459,136.013c160.97,0,301.64,108.33,342.74,264.05,2.531,9.375,12.141,15,21.516,12.516,9.422-2.438,15.094-12.047,12.656-21.469-45.188-171.05-200.06-290.39-376.92-290.39v-.03ZM490.45,246.38v-.047c-4.688,0-9.234,1.875-12.562,5.203-3.328,3.328-5.156,7.828-5.156,12.516v41.25c-52.969,2.25-95.109,47.25-95.109,101.53,0,55.688,44.344,101.48,99.281,101.48h27.094c35.391,0,63.844,29.062,63.844,66.328s-28.406,66.188-63.844,66.188h-95.625c-4.688-.047-9.188,1.828-12.469,5.109-3.328,3.281-5.203,7.781-5.25,12.469,0,4.688,1.875,9.188,5.203,12.516,3.281,3.328,7.828,5.203,12.516,5.203h64.359v41.203-.047c0,4.734,1.828,9.234,5.156,12.562,3.328,3.328,7.875,5.203,12.562,5.156,4.688,0,9.188-1.875,12.469-5.203,3.328-3.328,5.156-7.828,5.156-12.516v-41.297c53.016-2.203,95.109-47.062,95.109-101.39,0-55.688-44.25-101.62-99.188-101.62h-27.094c-35.391,0-63.938-28.922-63.938-66.188s28.547-66.328,63.938-66.328h95.672v.047c9.656,0,17.531-7.875,17.578-17.578,0-4.641-1.828-9.141-5.156-12.469-3.281-3.328-7.781-5.203-12.422-5.25h-64.5v-41.156c0-4.688-1.828-9.188-5.156-12.469-3.281-3.328-7.781-5.203-12.469-5.25v.047ZM886.59,448.46c-62.25,0-124.5,23.719-171.84,71.109-94.781,94.781-94.828,248.95-.094,343.69,94.734,94.734,248.86,94.594,343.64-.188,94.781-94.781,94.875-248.9.188-343.64-47.344-47.344-109.59-71.016-171.84-71.016l-.054.044ZM886.59,483.569c47.625,0,95.203,16.312,133.82,48.891l-292.78,292.78c-69-81.656-65.016-203.68,12.047-280.74,40.641-40.641,93.797-60.938,146.9-60.984l.013.053ZM1045.35,557.397c69.094,81.656,65.016,203.68-12.094,280.74-77.109,77.109-199.03,81.141-280.74,12.047l292.834-292.787Z"/>
</svg>