<?xml version="1.0" encoding="UTF-8"?>
<svg id="Layer_1" data-name="Layer 1" xmlns="http://www.w3.org/2000/svg" viewBox="0 0 655.851 182.548">
  <path d="M631.238,0h-133.33c-13.574,0-24.586,11.012-24.586,24.602v133.33c0,13.602,11.012,24.613,24.586,24.613h133.33c13.602,0,24.613-11.012,24.613-24.613V24.602C655.851,11.016,644.839,0,631.238,0h0ZM636.398,143.75c0,10.68-8.668,19.332-19.348,19.332h-104.92c-10.691,0-19.348-8.652-19.348-19.332V38.82c0-10.68,8.652-19.348,19.348-19.348h104.92c10.68,0,19.348,8.668,19.348,19.348v104.93Z"/>
  <path d="M432.601,10.43l-103.85,103.83-28.895-47.879-.465-.801-.078.055c-4.641-6.773-13.785-8.879-20.922-4.586-7.133,4.32-9.535,13.375-5.719,20.652l-.078.055.465.762.012.027,39.199,65c.027.078.105.133.16.215.309.465.652.879,1,1.359.32.387.613.812.973,1.199.078.055.121.16.199.215.281.281.586.492.867.734.426.359.852.762,1.309,1.066.426.309.867.52,1.332.762.441.266.84.52,1.309.68.492.266,1.012.387,1.52.574.441.133.867.281,1.32.387.52.105,1.055.16,1.602.238.453.027.922.133,1.387.133.547.027,1.066-.027,1.613-.105.465-.027.922-.027,1.387-.105.559-.105,1.105-.266,1.668-.414.426-.105.84-.215,1.254-.332.602-.266,1.172-.547,1.734-.852.281-.133.574-.215.84-.387.078-.055.133-.105.215-.16.492-.309.945-.68,1.398-1.039.398-.309.785-.602,1.133-.906.066-.105.16-.133.238-.238l117.99-117.96c6.105-6.121,6.105-16.027,0-22.121-6.102-6.176-16.008-6.176-22.113-.055l-.003-.002Z"/>
  <path d="M399.731,143.75c0,10.68-8.668,19.332-19.359,19.332h-104.92c-10.68,0-19.348-8.652-19.348-19.332V38.82c0-10.68,8.668-19.348,19.348-19.348h104.92c9.078,0,16.641,6.266,18.734,14.691l18.375-18.375C413.922,6.573,405.055.003,394.586.003h-133.33c-13.586,0-24.586,11.012-24.586,24.602v133.33c0,13.602,11.012,24.613,24.586,24.613h133.33c13.586,0,24.602-11.012,24.602-24.613l-.004-80.293-19.453,19.453v46.655Z"/>
  <path d="M195.931,10.43l-103.85,103.83-28.895-47.883-.465-.801-.082.055c-4.641-6.773-13.785-8.879-20.918-4.586-7.137,4.332-9.535,13.371-5.723,20.652l-.078.055.48.758.012.027,39.199,65c.027.078.105.133.16.215.309.465.652.879,1,1.359.32.387.613.812.973,1.199.078.055.121.16.199.215.281.281.586.492.867.734.426.359.852.762,1.309,1.066.426.309.867.52,1.332.762.441.266.84.52,1.309.68.492.266,1.012.387,1.52.574.441.133.867.281,1.32.387.52.105,1.055.16,1.602.238.453.027.922.133,1.387.133.547.027,1.066-.027,1.613-.105.465-.027.922-.027,1.387-.105.559-.105,1.105-.266,1.668-.414.426-.105.84-.215,1.254-.332.602-.266,1.172-.547,1.734-.852.281-.133.574-.215.84-.387.078-.055.133-.105.215-.16.492-.309.945-.68,1.398-1.039.398-.309.785-.602,1.133-.906.066-.105.16-.133.238-.238l117.99-117.96c6.105-6.121,6.105-16.027,0-22.121-6.109-6.168-16.016-6.168-22.125-.047l-.002-.002Z"/>
  <path d="M163.061,143.75c0,10.68-8.668,19.332-19.359,19.332H38.782c-10.68,0-19.348-8.652-19.348-19.332V38.82c0-10.68,8.668-19.348,19.348-19.348h104.92c9.078,0,16.641,6.266,18.734,14.691l18.375-18.375C177.252,6.573,168.385.003,157.916.003H24.586C11,.003,0,11.015,0,24.605v133.33c0,13.602,11.012,24.613,24.586,24.613h133.33c13.586,0,24.602-11.012,24.602-24.613l-.008-80.293-19.453,19.453.004,46.655Z"/>
</svg>