<?xml version="1.0" encoding="UTF-8"?>
<svg id="Layer_1" xmlns="http://www.w3.org/2000/svg" version="1.1" viewBox="0 0 1056.2 684.4">
  <!-- Generator: Adobe Illustrator 29.2.1, SVG Export Plug-In . SVG Version: 2.1.0 Build 116)  -->
  <defs>
    <style>
      .st0 {
        fill: #f8ff6e;
      }

      .st1 {
        fill: none;
        stroke: #000;
        stroke-linecap: round;
        stroke-linejoin: round;
        stroke-width: 11px;
      }
    </style>
  </defs>
  <g>
    <path d="M264.5,377V34.7h52.8v342.3h-52.8ZM288,85.6v-50.9h198.5v50.9h-198.5ZM288,231.3v-50.9h176.5v50.9h-176.5Z"/>
    <path d="M541.8,377V120.3h50.9v80.7l-4.9-19.6c3.6-12.4,9.7-23.6,18.3-33.7,8.6-10.1,18.6-18.1,29.8-24,11.2-5.9,22.9-8.8,35-8.8s10.8.5,15.9,1.5c5.1,1,9,2.1,12,3.4l-13.2,54.8c-3.9-1.6-8.2-3-13-4.2-4.7-1.1-9.4-1.7-13.9-1.7-8.8,0-17.2,1.7-25.2,5.1-8,3.4-15,8.2-21,14.2s-10.8,13-14.4,21c-3.6,8-5.4,16.7-5.4,26.2v141.8h-50.9,0Z"/>
    <path d="M771.6,63.6c-10.8,0-19.1-2.8-24.9-8.3-5.9-5.5-8.8-13.4-8.8-23.5s3-17.1,9-23c6-5.9,14.3-8.8,24.7-8.8s19.1,2.8,24.9,8.3c5.9,5.5,8.8,13.4,8.8,23.5s-3,17.1-9,23c-6,5.9-14.3,8.8-24.7,8.8ZM747.2,377V120.3h50.4v256.7h-50.4Z"/>
  </g>
  <rect class="st0" x="748" y="418.1" width="153.4" height="260.8"/>
  <rect class="st1" x="5.5" y="529.6" width="149.3" height="149.3"/>
  <path d="M80.4,512.9c-5,0-9.6-.7-13.9-2-4.3-1.3-8.1-3.3-11.6-6-3.5-2.7-6.6-6-9.3-9.9l9.7-11.2c4.3,6.2,8.4,10.4,12.4,12.8s8.6,3.6,14.1,3.6,6.4-.5,9.1-1.6c2.7-1.1,4.9-2.5,6.5-4.3s2.4-4,2.4-6.3-.3-3.1-.8-4.5-1.3-2.7-2.4-3.8c-1.1-1.1-2.5-2.2-4.2-3.2-1.7-1-3.7-1.8-6-2.6s-4.9-1.4-7.9-1.9c-4.7-1-8.9-2.2-12.4-3.8-3.5-1.6-6.5-3.6-8.8-5.9-2.4-2.4-4.1-5.1-5.3-8.1s-1.7-6.4-1.7-10.2.8-7.1,2.4-10.3,3.9-5.9,6.7-8.2c2.8-2.3,6.2-4.1,10.1-5.4,3.9-1.3,8-1.9,12.5-1.9s9.1.6,13,1.8c3.9,1.2,7.5,3,10.5,5.5,3.1,2.4,5.6,5.4,7.6,8.9l-10,9.9c-1.8-2.9-3.7-5.3-5.9-7.3s-4.6-3.5-7.2-4.5c-2.6-1-5.4-1.5-8.4-1.5s-6.4.5-9,1.6c-2.6,1.1-4.5,2.5-6,4.4s-2.2,4.1-2.2,6.7.3,3.5,1.1,5.1,1.8,2.9,3.2,4.1,3.4,2.2,5.9,3.2,5.4,1.7,8.8,2.4c4.8,1.1,9.1,2.4,12.9,4s7,3.5,9.6,5.7,4.6,4.7,6,7.4c1.4,2.7,2,5.7,2,8.8,0,5.9-1.4,11-4.1,15.3-2.7,4.3-6.6,7.6-11.6,9.9-5,2.3-11,3.5-17.9,3.5h0Z"/>
  <rect class="st1" x="154.8" y="529.6" width="149.3" height="149.3"/>
  <path d="M185.5,511.6v-92.2h14l33.6,54.6h-6.7c0-.1,34-54.6,34-54.6h13.2v92.2h-14.2v-37.8c0-7.9.2-15,.6-21.3s1.1-12.6,2-18.8l1.8,4.9-30.2,46.6h-8.7l-29.2-46.1,1.4-5.4c1,5.9,1.6,11.9,2,18.1.4,6.2.6,13.5.6,22.1v37.8h-14.2,0Z"/>
  <rect class="st1" x="304.1" y="529.6" width="149.3" height="149.3"/>
  <path d="M371.3,511.6v-78.5h-25.8v-13.7h66.6v13.7h-26.6v78.5h-14.2Z"/>
  <rect class="st1" x="453.5" y="529.6" width="149.3" height="149.3"/>
  <path d="M495.1,511.6l-29.4-92.2h15.1l17.8,57.7c.5,1.4,1,3.1,1.4,4.9.4,1.9.8,3.8,1.2,5.7s.7,3.7,1,5.4c.3,1.7.6,3,.9,4.1h-3.8c1.3-4.8,2.4-8.4,3.1-10.9.7-2.5,1.3-4.5,1.8-5.9.4-1.4.8-2.5,1.2-3.5l16.6-41.6h12.8l16.1,41.6c.9,2.1,1.7,4.2,2.3,6.3.7,2.1,1.3,4.1,1.8,6.2.5,2.1,1.1,4.2,1.7,6.5l-3.4.9c.4-2.4.8-4.2,1-5.6.2-1.4.4-2.5.6-3.4s.3-1.7.5-2.6c.2-.8.5-1.9.9-3.2s1-3.1,1.7-5.4l17.5-57.3h15.3l-29.3,92.2h-9.9l-24.3-57.7,1.2.5-23.4,57.1h-9.6,0Z"/>
  <rect class="st1" x="602.8" y="529.6" width="149.3" height="149.3"/>
  <path d="M669.9,511.6v-78.5h-25.8v-13.7h66.6v13.7h-26.6v78.5h-14.2Z"/>
  <rect class="st1" x="752.1" y="529.6" width="149.3" height="149.3"/>
  <path d="M800,511.6v-92.2h14.2v92.2h-14.2ZM806.3,433.1v-13.7h53.5v13.7h-53.5ZM806.3,472.4v-13.7h47.5v13.7h-47.5Z"/>
  <rect class="st1" x="901.4" y="529.6" width="149.3" height="149.3"/>
  <path d="M976.3,512.9c-5,0-9.6-.7-13.9-2-4.3-1.3-8.1-3.3-11.6-6s-6.6-6-9.3-9.9l9.8-11.2c4.3,6.2,8.4,10.4,12.4,12.8,3.9,2.4,8.6,3.6,14.1,3.6s6.4-.5,9.1-1.6c2.7-1.1,4.9-2.5,6.5-4.3s2.4-4,2.4-6.3-.3-3.1-.8-4.5-1.3-2.7-2.4-3.8c-1.1-1.1-2.5-2.2-4.2-3.2-1.7-1-3.7-1.8-6-2.6s-4.9-1.4-7.9-1.9c-4.7-1-8.9-2.2-12.4-3.8-3.5-1.6-6.5-3.6-8.8-5.9s-4.1-5.1-5.3-8.1c-1.1-3-1.7-6.4-1.7-10.2s.8-7.1,2.4-10.3c1.6-3.2,3.9-5.9,6.7-8.2,2.9-2.3,6.2-4.1,10.1-5.4,3.9-1.3,8-1.9,12.5-1.9s9.1.6,13,1.8c4,1.2,7.5,3,10.6,5.5,3.1,2.4,5.6,5.4,7.6,8.9l-10,9.9c-1.7-2.9-3.7-5.3-5.9-7.3-2.2-2-4.6-3.5-7.2-4.5-2.6-1-5.4-1.5-8.4-1.5s-6.4.5-9,1.6c-2.6,1.1-4.5,2.5-6,4.4s-2.2,4.1-2.2,6.7.3,3.5,1,5.1c.7,1.5,1.8,2.9,3.2,4.1s3.4,2.2,5.9,3.2c2.4.9,5.4,1.7,8.8,2.4,4.8,1.1,9.1,2.4,12.9,4s7,3.5,9.6,5.7c2.6,2.2,4.6,4.7,6,7.4,1.4,2.7,2,5.7,2,8.8,0,5.9-1.4,11-4.1,15.3s-6.6,7.6-11.6,9.9c-5,2.3-11,3.5-17.9,3.5h0,0Z"/>
  <path d="M882.8,551.5c-3.7-3.7-9.8-3.7-13.5,0l-39.2,39.2-39.2-39.2c-3.7-3.7-9.8-3.7-13.5,0s-3.7,9.8,0,13.5l39.2,39.2-39.2,39.2c-3.7,3.7-3.7,9.8,0,13.5s9.8,3.7,13.5,0l39.2-39.2,39.2,39.2c3.7,3.7,9.8,3.7,13.5,0s3.7-9.8,0-13.5l-39.2-39.2,39.2-39.2c3.7-3.7,3.7-9.8,0-13.5h0Z"/>
</svg>