<?xml version="1.0" encoding="UTF-8"?>
<svg id="Layer_1" data-name="Layer 1" xmlns="http://www.w3.org/2000/svg" viewBox="0 0 1022.395 1124.985">
  <path d="M1015.443,964.443l-164.39-362.26-15.797-83.156c7.219,3.375,15.047,5.016,22.828,5.016,12.844,0,25.641-4.547,35.812-13.5,22.406-19.734,24.562-54,4.828-76.359l-61.453-69.797,93.422-89.344c6.094-5.859,10.453-13.219,12.609-21.281l48-177.74c1.219-4.594,1.875-9.375,1.875-14.109,0-24.375-16.453-45.844-40.031-52.219-28.781-7.781-58.594,9.328-66.375,38.156l-37.5,138.84c-1.594,6.047-5.625,11.297-11.109,14.391l-96.656,55.547c-1.125.656-2.156,1.5-3,2.484-25.547,30.562-53.766,47.578-83.953,50.625-24.328,2.484-51-3.984-79.219-19.172-1.172-.609-2.391-1.031-3.703-1.219l-58.594-8.344c-1.031-.141-2.109-.141-3.141,0l-59.391,8.438c-1.312.188-2.531.609-3.703,1.219-28.172,15.188-54.75,21.656-79.078,19.219-30.188-3-58.5-20.062-84.094-50.625-.844-.984-1.875-1.875-3-2.484l-96.609-55.547c-5.438-3.141-9.516-8.438-11.156-14.438l-37.453-138.84c-3.75-13.969-12.703-25.594-25.266-32.812-12.516-7.219-27.094-9.094-41.062-5.344-23.578,6.375-40.031,27.844-40.031,52.219,0,4.734.609,9.469,1.875,14.156l48,177.74c2.203,8.156,6.562,15.516,12.609,21.281l93.328,89.344-61.359,69.703c-19.734,22.359-17.531,56.625,4.828,76.359,10.172,8.906,22.969,13.453,35.812,13.453,7.781,0,15.609-1.688,22.828-5.062l-15.797,83.297L6.787,964.567c-9.609,21.234-9,45.281,1.734,66,10.688,20.672,29.953,35.016,52.781,39.422,4.688.938,9.516,1.359,14.344,1.359,29.438,0,56.391-17.344,68.672-44.156l129.89-283.82,4.031,306.94c.469,35.672,26.25,66.422,61.266,73.172.094,0,.188.047.281.047l.516.094c4.734.891,9.516,1.359,14.25,1.359,17.578,0,34.688-6.141,48.469-17.672,17.484-14.672,27.328-36.188,27-59.016l-6-397.18,40.172-205.82c.797-4.078,3.516-7.406,7.406-8.953l39.844-16.031,39.469,15.891c3.844,1.547,6.609,4.875,7.359,9l40.172,205.78-6,397.22c-.328,22.828,9.469,44.344,27,59.016,13.781,11.531,30.844,17.672,48.469,17.672,4.781,0,9.609-.469,14.391-1.359.094,0,.188-.047.281-.047l.469-.094c34.922-6.797,60.609-37.547,61.125-73.172l4.031-306.94,129.89,283.82c12.234,26.812,39.234,44.156,68.672,44.156,4.781,0,9.609-.469,14.297-1.359,22.875-4.406,42.141-18.797,52.828-39.469s11.344-44.719,1.688-65.906l-.142-.078ZM882.043,448.913c11.625,13.172,10.312,33.328-2.859,44.953-10.828,9.516-26.719,10.594-38.672,2.672-2.344-1.547-4.453-3.422-6.328-5.531l-5.391-6.141-16.828-88.594c-.797-4.078.516-8.25,3.516-11.062l5.719-5.438,60.844,69.14ZM188.103,491.007c-1.922,2.156-4.031,4.031-6.375,5.578-11.953,7.922-27.844,6.844-38.672-2.672-13.172-11.625-14.484-31.828-2.859-45l60.75-69.047,5.766,5.531c3,2.859,4.312,6.984,3.516,11.062l-16.781,88.359-5.391,6.141.047.048ZM463.163,415.726c-10.922,4.359-18.75,13.875-20.906,25.406l-40.359,206.9c-.141.75-.234,1.547-.188,2.297l6,398.34c.234,16.125-6.703,31.312-19.031,41.672-12.375,10.359-28.5,14.578-44.344,11.531-.094,0-.188-.047-.281-.047l-.469-.094c-24.656-4.828-42.75-26.484-43.125-51.609l-4.688-356.39c-.047-5.203-3.75-9.656-8.812-10.734s-10.219,1.5-12.422,6.234l-150.47,328.78c-8.672,18.938-27.656,31.172-48.422,31.172-3.375,0-6.797-.328-10.125-.984-16.125-3.094-29.719-13.219-37.266-27.797-7.547-14.625-8.016-31.594-1.219-46.594l164.95-363.47c.375-.797.656-1.641.797-2.531l39.281-207.1c2.203-11.531-1.547-23.25-10.031-31.359l-115.17-110.25c-3.094-2.953-5.344-6.75-6.516-10.969L52.348,70.42c-.75-2.766-1.125-5.578-1.125-8.391,0-14.344,9.703-27,23.578-30.75,8.203-2.203,16.828-1.078,24.188,3.141,7.406,4.266,12.656,11.109,14.859,19.312l37.5,138.89c3.234,11.812,10.828,21.75,21.516,27.891l94.969,54.562c29.156,34.266,61.969,53.391,97.641,56.953,28.266,2.812,58.547-4.172,90.094-20.812l55.875-7.922,55.125,7.828c23.016,12.141,45.422,19.172,66.797,20.953l-12.234,16.266c-2.625,3.469-6.141,6.188-10.172,7.828l-104.02,41.906c-.047,0-.094.047-.141.047l-43.688,17.578.053.026ZM993.923,1020.176c-7.547,14.578-21.141,24.75-37.312,27.891-3.328.656-6.703.984-10.031.984-20.812,0-39.844-12.234-48.469-31.172l-150.47-328.82c-2.156-4.734-7.312-7.312-12.422-6.234s-8.766,5.531-8.812,10.734l-4.688,356.39c-.328,25.172-18.516,46.875-43.219,51.656-.094,0-.188.047-.281.047l-.469.094c-15.797,3-31.875-1.219-44.203-11.531-12.328-10.359-19.266-25.547-19.031-41.672l6-398.34c0-.75-.047-1.547-.188-2.297l-40.359-206.86c-2.203-11.531-10.031-21.047-20.906-25.406l-18-7.266,78.328-31.547c7.781-3.141,14.531-8.344,19.594-15.047l22.875-30.469c33.703-4.781,64.781-23.672,92.484-56.297l94.922-54.609c10.547-6.047,18.375-16.219,21.516-27.938l37.453-138.79c4.594-16.969,22.125-27.047,39.094-22.5,13.875,3.75,23.578,16.406,23.578,30.75,0,2.812-.375,5.578-1.125,8.297l-48,177.74c-1.125,4.172-3.375,8.016-6.516,11.016l-115.17,110.16c-8.438,8.109-12.188,19.828-9.984,31.312l17.25,90.797c0,.094.047.141.047.234l22.031,116.11c.188.891.422,1.734.797,2.531l164.95,363.47c6.797,14.953,6.328,31.922-1.219,46.5l-.046.081ZM369.133,255.176c8.203,1.594,16.312,2.344,24.375,2.344,50.906,0,97.266-30.422,117.7-76.781,20.438,46.266,66.797,76.641,117.66,76.641,8.016,0,16.172-.75,24.375-2.344,33.75-6.516,62.953-25.734,82.219-54.188s26.297-62.719,19.828-96.469c-13.406-69.656-81-115.45-150.71-102.05-43.031,8.297-76.875,37.219-93.375,74.531-3.094-6.984-6.797-13.734-11.156-20.203-19.266-28.453-48.469-47.719-82.219-54.188-69.656-13.406-137.26,32.344-150.71,102.05-13.406,69.656,32.344,137.26,102.05,150.71l-.037-.053ZM608.763,24.176c57.656-11.109,113.53,26.766,124.64,84.422,5.391,27.938-.422,56.25-16.406,79.781-15.938,23.531-40.078,39.469-68.016,44.859-57.609,11.109-113.53-26.766-124.64-84.422-11.109-57.609,26.766-113.53,84.422-124.64h0ZM288.943,108.692c9.797-50.859,54.516-86.344,104.48-86.344,6.656,0,13.406.609,20.156,1.922,27.938,5.391,52.078,21.281,68.016,44.859,15.938,23.531,21.75,51.891,16.406,79.781-9.797,50.859-54.516,86.344-104.48,86.344-6.656,0-13.406-.609-20.156-1.922-57.656-11.109-95.484-67.031-84.422-124.64h0Z"/>
</svg>