<?xml version="1.0" encoding="UTF-8"?>
<svg id="Layer_1" data-name="Layer 1" xmlns="http://www.w3.org/2000/svg" viewBox="0 0 1079.917 1070.927">
  <defs>
    <style>
      .cls-1 {
        fill-rule: evenodd;
      }
    </style>
  </defs>
  <path class="cls-1" d="M796.459,555.747c6.375,6.375,6.375,16.781,0,23.156s-16.781,6.375-23.156,0l-13.781-13.781c-6.375-6.375-6.375-16.781,0-23.156s16.781-6.375,23.156,0l13.781,13.781ZM864.99,420.137c8.766,2.297,13.922,11.297,11.531,20.062-2.297,8.766-11.297,13.922-20.062,11.531l-18.844-5.062c-8.766-2.297-13.922-11.297-11.531-20.062,2.297-8.766,11.297-13.922,20.062-11.531l18.844,5.062ZM856.599,268.357c8.766-2.297,17.625,2.859,20.062,11.531,2.297,8.766-2.859,17.625-11.531,20.062l-18.844,5.062c-8.766,2.297-17.625-2.859-20.062-11.531-2.297-8.766,2.859-17.625,11.531-20.062l18.844-5.062ZM834.38,673.117c12.938,18,22.078,38.766,27.844,60.844,221.63-169.22,248.29-491.76,59.062-694.45l-45.938,45.938c157.69,170.76,139.31,439.78-40.922,587.53l-.046.138ZM737.208,765.133c-2.297-8.766,2.859-17.625,11.531-20.062,8.766-2.297,17.625,2.859,20.062,11.531,9.609,35.531,3.141,76.312-11.156,109.45-17.062,39.703-45.703,71.766-81.234,95.859-7.453,5.062-17.531,3.141-22.688-4.312-5.062-7.453-3.141-17.531,4.312-22.688,43.547-29.531,76.219-74.766,81.844-128.29,1.453-14.297.844-28.547-2.766-41.625l.094.138ZM675.005,628.823c21.141-28.547,25.078-66.703,22.312-104.06-22.453,10.922-40.453,23.297-54,37.219-15.703,16.078-25.453,34.453-29.062,54.938,3.141,12.844,5.062,26.156,6,39.844,18.938-12.469,37.219-21.703,54.703-27.938l.047-.003ZM373.825,816.273c-.938-9-1.312-17.859-1.219-26.625.703-51.938,21-109.55,68.766-130.55,26.766-11.766,60.938-10.781,101.16,8.625,16.922,8.531,33.234,18.375,51.938,33.375,5.859,4.781,14.391,5.062,20.531,0,63-50.062,115.45-58.781,153.24-42.141,48.609,21.375,68.062,80.297,68.766,130.55,1.219,82.781-43.453,181.78-150.94,240.94-26.859,14.156-49.312,7.547-68.156-16.312-6.469-8.156-18.938-8.531-25.547-.234-19.219,23.859-40.922,30.703-68.156,16.547-95.531-52.547-141.47-136.22-149.76-212.39,0-.703,0-1.453-.234-2.156l-.389.372ZM564.135,578.903c-.469-.703-.938-1.453-1.312-2.156-11.531-17.766-27.375-32.531-48.375-42.938-5.156-2.531-8.625-3.844-14.062-3.469-15.141.844-23.391,10.922-22.688,26.062.375,6.375,4.453,9.609,10.547,12.703,16.312,8.297,30.844,18.938,43.547,31.781,11.391,11.531,21.375,24.938,30,40.078,8.391,4.312,16.922,9.234,25.688,15-2.297-26.766-9.234-54.141-23.391-76.922l.047-.139ZM558.51,402.273c46.078,84.375,34.688,159.47,35.531,162.84.938,1.688,1.922,3.234,2.766,4.922,6.141-10.922,13.781-21.234,23.156-30.844,20.391-21,48.609-38.766,84.469-53.297,9.844-4.219,21.234,1.688,22.781,12.703,6,42.703,5.062,84.703-9.703,120.61,36-3.234,68.625,7.219,94.688,29.625,166.78-136.22,183.94-382.92,39.844-540.24l-293.63,293.63.099.051ZM244.35,368.804c8.156-1.781,16.219-4.312,24-7.453-2.062-81.703-29.766-158.39-105.84-196.31-7.922-3.938-13.922-6-22.547-5.531-24.375,1.453-38.531,18.234-37.219,42.469.609,11.531,7.547,17.531,18,22.922,28.078,14.297,60.375,44.156,83.531,73.219,18.141,22.547,33,47.391,39.938,70.688l.137-.004ZM379.45,293.054c-25.547,14.859-51.938,21.141-84.938,6.938,2.766,14.391,4.688,29.297,5.625,44.531,3.609-2.391,7.078-4.781,10.547-7.547,7.219-5.391,17.391-3.938,22.922,3.234,5.391,7.219,3.938,17.391-3.234,22.922-43.547,32.859-92.062,47.531-145.45,39.938-8.859-1.219-15.141-9.469-13.922-18.375,1.219-8.859,9.469-15.141,18.375-13.922,7.313,1.078,14.531,1.547,21.703,1.547-7.312-20.156-22.078-42.141-38.297-61.219-85.547,45.703-140.06,134.63-140.06,233.39,0,163.45,147,287.53,307.45,261.14-3.469-70.453,22.688-147.84,87.844-176.53,22.688-9.938,48.844-13.312,78-7.922-9.469-9.141-20.297-16.781-32.531-23.062-16.547-8.391-27.234-21.375-28.312-40.219-1.781-33.141,20.156-58.312,53.297-60.234,11.156-.703,20.625,1.922,30.469,6.844,12.141,6,22.781,13.219,32.297,21.234-7.547-106.92-79.453-199.45-181.78-232.78l-.005.092ZM359.294,155.194c-34.922,10.078-64.547,34.453-89.062,72.938-19.922-38.766-50.297-70.922-93.234-92.391-12.703-6.375-24.703-9.703-39-8.766-42.375,2.531-70.078,34.453-67.922,76.781,1.312,23.766,14.859,39.609,35.766,50.297,13.078,6.703,28.547,18.234,43.688,32.625C57.983,339.225,0,437.048,0,544.678c0,182.39,162.71,321.84,343.69,293.63,13.781,81,64.922,166.78,164.53,221.39h.375v.234c34.547,17.859,68.297,13.922,95.859-11.531,27.703,25.453,61.453,29.391,95.859,11.531.375-.234.703-.375,1.078-.609,119.39-65.859,168.94-176.76,167.63-269.86,0-6.469-.469-12.938-.938-19.312,253.45-180,285-545.06,64.688-765.37-6.375-6.375-16.781-6.375-23.156,0l-369.14,369.14c-32.062-45.469-76.547-81.609-128.53-103.45,27.609-21.141,55.547-44.859,92.391-56.391,13.453-4.219,16.078-22.922,2.531-30.234-55.688-31.453-105-40.922-147.71-28.547l.136-.105ZM460.594,197.053c-22.219,11.766-41.062,26.297-58.547,39.938-36.375,28.219-66.609,51.703-112.55,22.922,40.312-74.156,95.391-94.781,171.14-62.859h-.043ZM297.374,708.033c9,0,16.312,7.312,16.312,16.312s-7.312,16.312-16.312,16.312c-107.16,0-194.06-86.859-194.06-194.06,0-9,7.312-16.312,16.312-16.312s16.312,7.312,16.312,16.312c0,89.156,72.234,161.39,161.39,161.39l.046.046Z"/>
</svg>