<?xml version="1.0" encoding="UTF-8"?>
<svg id="Layer_1" data-name="Layer 1" xmlns="http://www.w3.org/2000/svg" viewBox="0 0 1047.712 956.266">
  <path d="M471.088,264.669c3.656,0,7.266-1.125,10.312-3.562l100.69-77.812,64.453,48.375c6.844,5.156,16.594,4.359,22.594-2.016l93.375-100.88,103.97,95.578c6.844,6.281,17.578,5.859,23.906-1.031,6.281-6.844,5.859-17.578-1.031-23.906l-116.34-106.97c-6.797-6.281-17.531-5.859-23.859.938l-94.5,102-62.531-46.969c-6.047-4.594-14.438-4.5-20.484.141l-110.91,85.828c-7.406,5.719-8.719,16.312-3.047,23.719,3.375,4.312,8.391,6.562,13.406,6.562l-.004.006Z"/>
  <path d="M541.268,132.299c15.469-4.219,23.859-19.641,19.688-35.062-4.219-15.422-19.688-23.859-35.062-19.641-15.469,4.219-23.859,19.641-19.688,35.062,4.219,15.469,19.641,23.859,35.062,19.641Z"/>
  <path d="M458.068,322.879h432.94c25.969,0,47.156-21.141,47.156-47.156V47.203C938.164,21.234,917.023.047,891.008.047l-432.94-.047c-25.969,0-47.156,21.141-47.156,47.156v228.52c-.047,26.016,21.141,47.203,47.156,47.203h0ZM444.709,47.159c0-7.359,5.953-13.312,13.312-13.312h432.94c7.359,0,13.312,5.953,13.312,13.312v228.52c0,7.359-5.953,13.312-13.312,13.312l-432.89.047c-7.359,0-13.312-5.953-13.312-13.312l-.05-228.567Z"/>
  <path d="M1046.428,651.109c-7.266-43.359-46.969-75.047-88.922-71.062-.562.047-1.125.234-1.641.281v-53.812c0-56.438-45.891-102.28-102.28-102.28l-358.03.047c-56.438,0-102.33,45.891-102.33,102.28v53.906c-32.672-2.812-63.562,12.844-80.109,41.531-20.484,35.672-13.781,76.969,17.016,105.28,9.562,8.812,13.312,17.766,13.078,31.031l-.75,30.328c-.328,12.094-.422,16.125-.562,46.125-.094,14.906,1.5,36.375,16.125,51.094,9.656,9.75,22.312,13.5,34.125,15.094v38.391c0,9.375,7.594,16.922,16.922,16.922h44.625c6.469,0,12.375-3.703,15.188-9.516l21.656-44.484,368.11.094,21.656,44.391c2.812,5.812,8.719,9.516,15.188,9.516h44.578c9.375,0,16.922-7.594,16.922-16.922v-37.969c14.625-1.969,25.969-6.938,34.312-15.375,10.922-10.969,16.219-26.953,16.125-48.844-.094-30.75-.188-35.109-.562-48l-.75-30.75c-.281-13.688,3.375-22.594,12.75-30.656,22.781-19.547,32.578-46.781,27.562-76.641h-.001ZM922.028,526.609v64.219c-26.062,14.156-42.844,40.875-43.312,73.641l-.047,18h-140.44c-17.531,0-33.516,5.953-46.734,15.469v-239.86h162.1c37.734,0,68.438,30.75,68.438,68.531h-.005ZM869.153,868.419c-.188,0-.328.094-.469.141l-388.6-.094h-9.094l-.094-56.812h407.39l-.188,56.812-8.946-.047ZM470.813,716.259h140.06c25.781,0,46.781,20.953,46.781,46.734v14.719h-186.79l-.051-61.453ZM878.533,724.415l-.141,53.25h-186.94v-14.719c0-25.781,20.953-46.734,46.734-46.734h140.34l.007,8.203ZM495.563,458.075h162.1v239.86c-13.219-9.562-29.25-15.516-46.781-15.516h-140.16v-16.078c-.328-33.562-17.062-61.312-43.688-75.703v-64.078c.047-37.734,30.75-68.484,68.531-68.484h-.002ZM375.753,834.945c.188-29.438.281-33.469.562-45.375l.75-30.562c.469-23.156-7.172-41.156-24.047-56.625-19.266-17.719-23.156-41.484-10.547-63.516,11.344-19.688,34.312-28.875,57.094-23.156,22.781,5.812,37.125,25.312,37.359,50.859v31.969c0,.281-.188.562-.188.844v95.25c0,.516.281.938.281,1.406l.094,72.328h-28.031c-13.734,0-22.875-2.156-27.094-6.375-4.172-4.266-6.328-13.359-6.234-27.047h0ZM443.159,922.414h-17.109v-20.203h26.906l-9.797,20.203ZM906.049,922.414l-9.75-20.062h26.812v20.062h-17.062ZM996.799,702.194c-17.016,14.672-25.031,33.328-24.516,57l.75,30.938c.328,12.656.422,16.922.562,47.156,0,12.328-2.062,20.719-6.281,24.938s-12.516,6.375-24.75,6.375h-1.875c-.234,0-.422-.141-.656-.141h-28.031l.188-72.797c0-.328.188-.656.188-.938v-69.938l.188-59.953c.469-28.125,19.688-48.562,47.766-50.906,25.781-1.875,48.422,16.781,52.781,42.891,3.047,18.094-2.484,33.422-16.312,45.375h0Z"/>
  <path d="M254.768,684.529h-32.438c26.156-23.719,42.938-57.609,42.938-95.625v-9.844c0-18.281-14.859-33.188-33.188-33.188h-2.766c20.766-29.438,18.562-69.516,18.422-71.438-.469-7.922-6.375-14.391-14.25-15.656-1.266-.188-24.562-3.562-49.219,2.438-10.031-36.938-35.062-63.469-36.375-64.781-3.188-3.281-7.594-5.109-12.094-5.109-4.547,0-8.953,1.875-12.094,5.109-1.312,1.359-25.969,27.562-36.094,64.922-24.75-6.094-48.188-2.672-49.453-2.531-7.828,1.266-13.734,7.781-14.25,15.656-.094,1.875-2.25,41.953,18.562,71.391h-2.906c-18.281,0-33.188,14.859-33.188,33.188v9.844c0,38.016,16.781,71.906,42.938,95.625H16.922c-9.375,0-16.922,7.594-16.922,16.922v237.89c0,9.375,7.594,16.922,16.922,16.922,9.375,0,16.922-7.594,16.922-16.922v-113.16h204.1v113.16c0,9.375,7.594,16.922,16.922,16.922,9.375,0,16.922-7.594,16.922-16.922v-237.89c-.094-9.375-7.641-16.922-17.016-16.922h-.004ZM196.174,532.749c-5.766,5.203-13.125,7.969-20.531,9.938,6.281-13.266,11.016-29.156,12.188-46.781,8.859-2.859,18.094-4.312,25.594-4.406-1.406,12.703-5.438,30.562-17.25,41.25h0ZM135.846,435.718c8.625,12.984,18.703,32.766,18.984,54.656,0,21.75-10.312,41.719-18.984,54.656-8.625-12.984-18.891-33.094-18.891-55.594.281-21.328,10.312-40.828,18.891-53.719h0ZM83.815,495.952c.984,17.391,5.766,33.281,12.094,46.688-7.312-1.922-14.625-4.688-20.344-9.844-11.25-10.172-15.797-27.844-17.344-41.344,7.547.094,16.734,1.641,25.594,4.5h0ZM40.221,588.905l-.656-9.141h191.9v9.141c0,52.688-42.891,95.625-95.625,95.625s-95.625-42.891-95.625-95.625h.006ZM33.799,792.345v-73.969h204.1v73.969H33.799Z"/>
</svg>