<?xml version="1.0" encoding="UTF-8"?>
<svg id="Layer_1" data-name="Layer 1" xmlns="http://www.w3.org/2000/svg" viewBox="0 0 975.043 974.947">
  <path d="M911.292,226.266c7.969,0,14.391-6.422,14.391-14.391v-34.969h34.969c7.969,0,14.391-6.422,14.391-14.391v-74.062c0-7.969-6.469-14.391-14.391-14.391h-356.68C583.347,30.374,539.003,0,487.582,0s-95.766,30.375-116.39,74.062H14.432C6.463,74.062.041,80.484.041,88.453v74.062c0,7.969,6.469,14.391,14.391,14.391h34.969v34.969c0,7.969,6.469,14.391,14.391,14.391h124.74v222.14h-34.969c-7.969,0-14.391,6.422-14.391,14.391v321.37H63.797c-19.266,0-34.969-15.703-34.969-34.969v-108.14h34.969c7.969,0,14.391-6.422,14.391-14.391v-80.766l17.438-12.469c6.469-4.641,7.969-13.641,3.328-20.109s-13.641-7.969-20.109-3.328l-72.844,52.172C2.251,564.886.001,569.245.001,573.886v175.31c0,35.156,28.594,63.75,63.75,63.75h75.375v34.5h-22.641c-7.969,0-14.391,6.422-14.391,14.391v34.969H14.391c-7.969,0-14.391,6.422-14.391,14.391v49.359c0,7.969,6.469,14.391,14.391,14.391h946.22c7.969,0,14.391-6.422,14.391-14.391v-49.359c0-7.969-6.469-14.391-14.391-14.391h-87.703v-34.969c0-7.969-6.469-14.391-14.391-14.391h-22.641v-34.5h75.375c35.156,0,63.75-28.594,63.75-63.75v-175.31c0-4.641-2.25-9-6-11.719l-72.844-52.172c-6.469-4.641-15.469-3.141-20.109,3.328s-3.141,15.469,3.328,20.109l17.438,12.469v80.766c0,7.969,6.469,14.391,14.391,14.391h34.969v108.14c0,19.266-15.703,34.969-34.969,34.969h-75.375v-321.37c0-7.969-6.469-14.391-14.391-14.391h-34.969v-222.14h124.822ZM49.402,566.526v45.703h-20.578v-30.984l20.578-14.719ZM925.682,612.229v-45.703l20.578,14.719v30.984h-20.578ZM896.901,197.439h-300.56c4.125-6.516,7.688-13.359,10.594-20.578h289.97l-.004,20.578ZM574.681,448.409c-7.969,0-14.391,6.422-14.391,14.391v384.66h-22.641c-7.969,0-14.391,6.422-14.391,14.391v34.969h-71.438v-34.969c0-7.969-6.469-14.391-14.391-14.391h-22.641v-384.66c0-7.969-6.469-14.391-14.391-14.391h-109.03v-222.14h112.22c22.594,19.453,51.891,31.312,83.953,31.312s61.359-11.859,83.953-31.312h112.22v222.14h-109.032ZM946.261,102.849v45.234h-331.5c.938-6.328,1.594-12.75,1.594-19.312,0-8.906-.891-17.578-2.625-25.922h332.531ZM487.541,28.787c55.125,0,99.984,44.859,99.984,99.984s-44.859,99.984-99.984,99.984-99.984-44.859-99.984-99.984,44.859-99.984,99.984-99.984h0ZM28.821,102.849h332.53c-1.734,8.391-2.625,17.062-2.625,25.922,0,6.562.656,12.984,1.594,19.312H28.82v-45.234ZM78.18,176.911h289.97c2.906,7.219,6.516,14.062,10.594,20.578H78.224v-20.578h-.044ZM217.31,226.27h45.234v222.14h-45.234v-222.14ZM167.951,477.24h218.02v370.26h-218.02v-370.26ZM130.92,876.29h292.08v20.578H130.92v-20.578ZM946.21,946.228H28.82v-20.578h917.39v20.578ZM844.12,896.869h-292.08v-20.578h292.08v20.578ZM807.089,847.51h-218.02v-370.26h218.02v370.26ZM757.73,448.46h-45.234v-222.14h45.234v222.14ZM350.99,497.819h-148.08c-7.969,0-14.391,6.422-14.391,14.391v98.719c0,7.969,6.469,14.391,14.391,14.391h148.08c7.969,0,14.391-6.422,14.391-14.391v-98.719c0-7.969-6.469-14.391-14.391-14.391ZM336.599,596.538h-119.3v-69.938h119.3v69.938ZM365.38,709.698c0,7.969-6.469,14.391-14.391,14.391h-148.08c-7.969,0-14.391-6.422-14.391-14.391s6.469-14.391,14.391-14.391h148.08c7.969,0,14.391,6.422,14.391,14.391ZM609.64,512.218v98.719c0,7.969,6.469,14.391,14.391,14.391h148.08c7.969,0,14.391-6.422,14.391-14.391v-98.719c0-7.969-6.469-14.391-14.391-14.391h-148.08c-7.969,0-14.391,6.422-14.391,14.391ZM638.421,526.609h119.3v69.938h-119.3v-69.938ZM786.551,709.659c0,7.969-6.469,14.391-14.391,14.391h-148.08c-7.969,0-14.391-6.422-14.391-14.391s6.469-14.391,14.391-14.391h148.08c7.969,0,14.391,6.422,14.391,14.391ZM487.491,212.219c35.156,0,63.75-28.594,63.75-63.75,0-42.469-47.953-93.047-53.438-98.672-5.438-5.578-15.234-5.578-20.625,0-5.484,5.625-53.438,56.203-53.438,98.672,0,35.156,28.594,63.75,63.75,63.75h0ZM487.491,81.439c14.766,17.672,34.969,46.453,34.969,67.031,0,19.266-15.703,34.969-34.969,34.969s-34.969-15.703-34.969-34.969c0-20.578,20.203-49.312,34.969-67.031Z"/>
</svg>