<?xml version="1.0" encoding="UTF-8"?>
<svg width="1200pt" height="1200pt" version="1.1" viewBox="0 0 1200 1200" xmlns="http://www.w3.org/2000/svg">
 <path d="m1074 626.27c-24.812 0-44.918 20.109-44.918 44.918v112.21h-144.49c-3.7305-18.648-20.27-32.758-40.055-32.758h-6.3242v-100.05h10.863c4.5391 0 8.1094-3.5664 8.1094-8.1094v-111.08c0-31.137-19.945-57.566-47.512-67.785 16.379-121.95 11.027-278.11-57.406-326.76-30.324-21.566-69.73-20.27-117.08 3.5664-25.457-6.4766-48.648 0.82031-67.621 21.414-50.758 54.648-64.379 201.73-29.188 301.3-28.539 9.7305-49.137 36.488-49.137 68.27v111.08c0 4.5391 3.5664 8.1094 8.1094 8.1094h10.863v100.05h-6.3242c-19.785 0-36.324 14.109-40.055 32.758h-56.43c-16.055-46.379-54.488-82.055-101.68-93.406l-57.73-13.945c-22.215-5.3516-45.082-0.32422-62.918 13.785-4.5391 3.5664-8.4336 7.4609-12 11.836v-261.08c0-24.812-20.109-44.918-44.918-44.918-24.977-0.16406-45.082 19.945-45.082 44.758v629.84c0 4.5391 3.5664 8.1094 8.1094 8.1094h73.785c4.5391 0 8.1094-3.5664 8.1094-8.1094v-123.89h388.7v71.512c0 33.406 27.082 60.488 60.488 60.488 22.863 0 42.648-12.973 52.863-31.785 10.215 18.812 30 31.785 52.863 31.785 33.406 0 60.488-27.082 60.488-60.488v-71.512h242.59l-0.003907 123.89c0 4.5391 3.5664 8.1094 8.1094 8.1094h73.785c4.5391 0 8.1094-3.5664 8.1094-8.1094l-0.003907-399.08c-0.16406-24.809-20.27-44.918-45.082-44.918zm-45.082 209.35h-242.43v-36h242.59v36zm-198.81-68.758h14.434c10.703 0 19.785 6.9727 23.188 16.539h-81.891c-0.48828-3.8906-1.4609-7.6211-2.5938-11.188 0.32422-0.8125 0.48828-1.6211 0.48828-2.5938v-119.03h38.434v108.16c-0.16797 4.5391 3.3984 8.1055 7.9414 8.1055zm-250.7-594c15.406-16.703 33.73-22.055 54.164-15.891 1.9453 0.64844 4.2148 0.32422 6-0.64844 42.812-22.215 77.512-24.324 103.14-6.1641 58.379 41.352 67.621 183.89 50.918 309.73-3.082-0.32422-6-0.97266-9.2422-0.97266h-61.297v-31.461c36-20.918 61.137-63.73 62.918-114.49 0-1.7852-0.48828-3.5664-1.6211-5.0273-23.352-31.785-51.566-34.539-79.137-37.297-32.27-3.2422-62.758-6.3242-90.324-55.297-1.7852-3.2422-5.5117-4.7031-9.082-3.8906-3.5703 0.8125-5.8398 3.8945-6.0039 7.4609-0.8125 28.863-23.836 62.27-33.566 76.703-4.8633 7.1367-6 8.7578-6 11.836 0 52.539 25.621 97.945 62.918 119.84v31.621h-61.297c-2.5938 0-5.0273 0.48828-7.4609 0.8125-33.891-93.238-21.727-236.43 24.977-286.86zm93.73 252.16c-52.863 0-95.836-51.73-96.648-115.62 0.64844-1.1367 1.7852-2.5938 3.082-4.7031 8.4336-12.164 25.621-37.137 32.918-63.566 29.027 39.082 61.785 42.488 91.297 45.406 25.297 2.5938 47.188 4.7031 65.836 28.539-3.2422 61.945-45.242 109.95-96.484 109.95zm-33.895 10.055c10.703 4.0547 22.055 6.1641 33.73 6.1641 11.836 0 23.188-2.1094 33.891-6.1641v35.512c0 18.648-15.242 33.73-33.891 33.73-8.918 0-17.512-3.5664-23.836-9.8906-6.4883-6.4883-9.8906-14.918-9.8906-23.836zm-133.95 96.324c0-30.973 25.297-56.27 56.434-56.27h61.785c0.97266 11.676 5.8359 22.379 14.27 30.812 9.2422 9.4062 22.055 14.758 35.352 14.758 26.109 0 47.352-20.109 49.621-45.566h61.785c31.137 0 56.434 25.297 56.434 56.27v102.97h-57.406v-53.512c0-4.5391-3.5664-8.1094-8.1094-8.1094-4.5391 0-8.1094 3.5664-8.1094 8.1094v166.7c-10.863-10.215-25.297-16.539-41.352-16.539-22.863 0-42.648 12.973-52.863 31.785-10.215-18.812-30-31.785-52.863-31.785-15.891 0-30.324 6.3242-41.188 16.539l-0.003907-166.71c0-4.5391-3.5664-8.1094-8.1094-8.1094-4.5391 0-8.1094 3.5664-8.1094 8.1094v53.512h-57.406l0.003907-102.97zm-334.21 268.21h388.7v36h-388.7zm330.81-32.758h14.434c4.5391 0 8.1094-3.5664 8.1094-8.1094v-108.16h38.434v119.03c0 0.8125 0.16406 1.6211 0.48828 2.4336-1.2969 3.7305-2.1094 7.4609-2.7578 11.352h-81.891c3.4023-9.5664 12.48-16.539 23.184-16.539zm-330.81-19.133c0-17.676 7.9453-34.215 21.891-45.242 13.945-11.027 31.785-14.918 49.137-10.703l57.73 13.945c40.215 9.7305 72.973 39.082 88.215 77.676h-216.97v-35.676 0zm-73.785 314.43v-621.73c0-15.891 12.973-28.703 28.703-28.703 15.891 0 28.703 12.973 28.703 28.703v621.73zm73.785-132v-78.324h388.7v78.324zm493.3 87.727c0 24.324-19.785 44.27-44.27 44.27-24.488 0-44.27-19.785-44.27-44.27l-0.003906-226.38c0-24.324 19.785-44.27 44.27-44.27 24.488 0 44.27 19.785 44.27 44.27zm61.621 44.273c-24.324 0-44.27-19.785-44.27-44.27v-226.38c0-24.324 19.785-44.27 44.27-44.27 24.488 0 44.27 19.785 44.27 44.27v226.38c0 24.488-19.945 44.273-44.27 44.273zm60.488-132v-78.324h242.59v78.324zm316.21 132h-57.566v-390.98c0-15.891 12.973-28.703 28.703-28.703 15.727 0.003906 28.863 12.812 28.863 28.703z"/>
 <path d="m630.65 312.97h-4.7031c-4.5391 0-8.1094 3.5664-8.1094 8.1094 0 4.5391 3.5664 8.1094 8.1094 8.1094h4.7031c4.5391 0 8.1094-3.5664 8.1094-8.1094s-3.7305-8.1094-8.1094-8.1094z"/>
 <path d="m720.32 312.97h-4.7031c-4.5391 0-8.1094 3.5664-8.1094 8.1094 0 4.5391 3.5664 8.1094 8.1094 8.1094h4.7031c4.5391 0 8.1094-3.5664 8.1094-8.1094s-3.5703-8.1094-8.1094-8.1094z"/>
 <path d="m690 366.97c-9.5664 9.4062-24.324 9.4062-33.891 0-3.2422-3.2422-8.2695-3.2422-11.512 0-3.2422 3.2422-3.2422 8.2695 0 11.512 7.9453 7.9453 18.164 12 28.379 12 10.215 0 20.434-4.0547 28.379-12 3.2422-3.2422 3.2422-8.2695 0-11.512-3.2461-3.2422-8.2734-3.2422-11.355 0z"/>
</svg>
