<?xml version="1.0" encoding="UTF-8"?>
<svg id="Layer_1" data-name="Layer 1" xmlns="http://www.w3.org/2000/svg" viewBox="0 0 326.14 1110.831">
  <defs>
    <style>
      .cls-1 {
        fill: #f8b4cc;
      }
    </style>
  </defs>
  <polygon class="cls-1" points="158.412 551.54 114.81 568.193 69.843 543.844 40.622 562.86 11.745 763.527 65.954 768.86 78.412 719.527 256.3 722.86 266.893 765.527 316.412 766.193 285.533 559.527 251.994 535.721 229.078 557.527 158.412 551.54"/>
  <path d="M134.218,400.467c0-7.594-4.688-13.32-10.902-13.32s-10.902,5.727-10.902,13.32,4.688,13.32,10.902,13.32,10.902-5.727,10.902-13.32ZM163.077,465.096c16.336,0,29.133-9.551,29.133-21.75,0-5.301-4.227-9.949-9.527-9.949s-9.527,3.953-9.527,9.258c-.098.168-.398.43-.73.691-1.32,1.043-4.402,2.555-9.348,2.555s-7.996-1.508-9.312-2.555c-.227-.18-.512-.375-.629-.516-.266-5.062-4.457-9.082-9.586-9.082-5.301,0-9.598,4.297-9.598,9.598-.004,12.199,12.789,21.75,29.125,21.75h0ZM305.597,593.416l20.461,172.73c.398,3.398-.668,6.809-2.953,9.375-.477.539-1.144.812-1.699,1.25l.445,3.719c1.195,10.031-1.957,20.121-8.672,27.68-6.703,7.559-16.348,11.895-26.449,11.895h-12.605l2.223,77.836c.082,3.234-1.137,6.375-3.398,8.707-2.25,2.32-5.356,3.633-8.602,3.633h-7.859l.008,135.31c25.125,2.57,44.871,23.609,44.871,49.414,0,8.754-7.125,15.867-15.879,15.867h-101.09c-8.754,0-15.871-7.113-15.871-15.867v-16.723c0-7.809,2.824-14.902,7.352-20.578-.141-1.445-.312-2.879-.312-4.395l-3.519-143.03h-17.945l-3.527,143.32c0,1.414-.168,2.754-.297,4.109,4.527,5.676,7.344,12.766,7.344,20.57v16.723c0,8.754-7.125,15.867-15.879,15.867H40.653c-8.754,0-15.879-7.113-15.879-15.867,0-25.801,19.746-46.84,44.871-49.414v-135.31h-7.852c-3.238,0-6.348-1.312-8.609-3.633-2.258-2.332-3.48-5.473-3.387-8.707l2.227-77.836h-12.609c-10.109,0-19.746-4.336-26.453-11.895-6.703-7.547-9.859-17.637-8.66-27.68l.445-3.707c-.562-.441-1.234-.719-1.715-1.262-2.277-2.566-3.352-5.977-2.949-9.375l20.449-172.69c7.5-37.211,33.211-67.449,67.254-79.891,7.953-2.906,16.672-2.387,24.574,1.492,1.34.652,2.812,1.273,4.394,1.863v-17.941c-5.394-3.793-10.465-8.176-15.211-13.059h-32.941c-19.852,0-36-16.148-36-36l-.273-25.742c-1.441-2.863-2.621-5.871-3.219-9.109-1.32-7.152-.234-14.242,2.902-20.523l-.523-49.012c0-61.605,53.668-111.62,119.62-111.62h23.914c65.957,0,119.62,50.016,119.62,111.49l-.523,49.133c3.141,6.285,4.223,13.379,2.902,20.543-.605,3.297-1.781,6.344-3.219,9.234l-.273,25.734c0,19.723-16.148,35.871-36,35.871h-32.941c-4.742,4.883-9.812,9.262-15.203,13.055v17.941c1.586-.59,3.059-1.215,4.398-1.867,7.898-3.867,16.637-4.391,24.562-1.492,34.02,12.441,59.73,42.656,67.078,78.867.07.328.129.656.164.984l.009.012ZM184.177,546.604c8.508,3.684,18.383,6.059,26.461,5.172,15.789-1.758,25.082-8.184,27.859-11.949-2.723-1.379-5.496-2.66-8.383-3.719-2.367-.871-4.644-.051-5.789.512-10.117,4.945-24.191,8.363-40.148,9.984h0ZM185.392,522.334v-11.309c-7.144,2.219-14.59,3.492-22.32,3.492s-15.172-1.269-22.312-3.488v11.305c7.027.875,14.602,1.356,22.312,1.356s15.289-.48,22.32-1.356h0ZM269.603,443.517c-2.848.695-5.766,1.184-8.785,1.184-1.359,0-2.719-.07-4.102-.223-1.473-.164-2.875-.578-4.301-.918-2.723,6.371-5.891,12.508-9.418,18.371h14.535c6.621,0,12-5.387,12-12l.071-6.414ZM271.927,403.939c-1.582-2.133-4.09-3.484-7.055-3.809-.371-.043-.742-.055-1.117-.062-.707,6.84-1.863,13.699-3.562,20.477,6.16.242,12.16-4.012,13.234-9.805.586-3.172-.492-5.445-1.5-6.801h0ZM55.497,345.416l.336,31.457c.945-.184,1.852-.496,2.816-.602,1.199-.129,2.363-.027,3.547-.043.5-5.918,1.273-11.895,2.625-17.945,1.211-5.414,5.973-9.293,11.52-9.387,28.734-.461,55.859-12.984,72.562-33.484,3.492-4.289,8.66-6.75,14.172-6.75h.012c5.519.008,10.68,2.465,14.168,6.758,16.699,20.496,43.824,33.016,72.562,33.48,5.543.094,10.301,3.973,11.508,9.387,1.356,6.047,2.129,12.023,2.629,17.938,1.184.016,2.348-.078,3.547.051.965.105,1.871.418,2.816.602l.336-31.586c0-48.117-42.895-87.363-95.617-87.363h-23.914c-52.727-.004-95.625,39.242-95.625,87.488h0ZM52.72,410.736c1.059,5.797,6.988,10.07,13.234,9.812-1.703-6.777-2.855-13.637-3.562-20.48-.371.008-.746.02-1.121.062-2.957.324-5.465,1.676-7.047,3.801-1.012,1.355-2.09,3.637-1.504,6.805h0ZM83.146,461.931c-3.523-5.863-6.695-12.004-9.418-18.371-1.422.34-2.82.754-4.293.918-1.305.141-2.617.211-3.914.211-3.074,0-6.062-.52-8.98-1.262l.066,6.375c0,6.742,5.387,12.129,12,12.129h14.539ZM163.076,490.518c39.82,0,77.473-50.578,77.473-104.07,0-4.645-.34-9.309-1.019-14.078-29.965-2.762-57.133-15.773-76.453-36.688-19.32,20.914-46.488,33.926-76.457,36.684-.68,4.77-1.016,9.434-1.016,14.078,0,53.5,37.652,104.08,77.473,104.08v-.006ZM87.65,539.83c2.769,3.766,12.066,10.188,27.863,11.949,8.066.891,17.949-1.484,26.457-5.172-15.957-1.621-30.031-5.039-40.152-9.984-1.152-.57-3.422-1.398-5.789-.512-2.883,1.055-5.656,2.34-8.379,3.719h0ZM53.193,779.56h-24.602l-.457,3.797c-.387,3.269.598,6.434,2.789,8.894,2.184,2.461,5.203,3.82,8.504,3.82h13.297l.469-16.512ZM133.627,1078.249c0-5.074-4.125-9.199-9.199-9.199h-49.73c-11.449,0-21.195,7.465-24.609,17.789h83.539v-8.59ZM93.654,1045.05h30.773c.805,0,1.562.18,2.352.238l3.32-135.04h-36.453l.008,134.802ZM251.994,886.25l-4.328-151.62H78.486l-4.336,151.62h177.844ZM196.049,910.25l3.324,135.04c.793-.055,1.547-.238,2.352-.238h30.773l-.004-134.8-36.445-.002ZM251.455,1069.05h-49.734c-5.07,0-9.195,4.125-9.195,9.199v8.59h83.539c-3.422-10.324-13.16-17.789-24.609-17.789h0ZM298.014,783.36l-.453-3.797h-24.594l.473,16.512h13.289c3.293,0,6.316-1.359,8.508-3.82,2.18-2.473,3.176-5.625,2.777-8.894h0ZM300.639,755.563l-18.82-158.81c-3.5-16.719-12.078-31.68-23.953-43.098-8.035,11.195-24.191,19.715-44.578,21.98-17.02,1.914-36.516-4.535-50.215-12.992-12.066,7.449-28.637,13.324-44.047,13.324-2.078,0-4.141-.105-6.164-.332-20.395-2.266-36.555-10.789-44.586-21.988-12,11.535-20.629,26.691-24.062,43.609l-18.707,158.31h28.371l3.207-112.11c.195-6.633,5.824-11.508,12.34-11.66,6.5.195,11.578,5.539,11.59,11.996,0,.121.062.223.059.344l-1.902,66.504h167.81l-1.898-66.504c-.004-.121.059-.223.059-.344.008-6.457,5.09-11.801,11.602-11.996,6.691.141,12.152,5.027,12.34,11.66l3.203,112.11,28.352-.003ZM163.043,589.314c-9.273,0-16.793,7.519-16.793,16.793s7.519,16.793,16.793,16.793,16.793-7.519,16.793-16.793-7.519-16.793-16.793-16.793h0ZM163.053,637.314c-5.363,0-10.082,2.559-13.156,6.473-2.242,2.856-3.637,6.406-3.637,10.32,0,9.273,7.519,16.793,16.793,16.793s16.793-7.519,16.793-16.793c0-3.91-1.391-7.465-3.637-10.32-3.07-3.91-7.793-6.473-13.156-6.473h0ZM202.819,413.794c6.215,0,10.902-5.727,10.902-13.32s-4.688-13.32-10.902-13.32-10.898,5.727-10.898,13.32,4.684,13.32,10.898,13.32Z"/>
  <rect x="161.111" width="1" height="0"/>
</svg>