<?xml version="1.0" encoding="UTF-8"?>
<svg width="1200pt" height="1200pt" version="1.1" viewBox="0 0 1200 1200" xmlns="http://www.w3.org/2000/svg">
 <path d="m478.64 656.81c28.031 21.375 50.906 47.719 66.703 77.484 8.25 15.469 14.578 31.875 18.75 48.938 10.969-4.8281 23.25-7.4531 35.859-7.4531s24.891 2.6719 35.859 7.4531c4.1719-17.109 10.5-33.469 18.75-48.984 15.797-29.766 38.672-56.109 66.75-77.484 4.2656-3.8438 9.8906-6.1875 16.078-6.1875h321.1c5.0156 0.09375 10.031 1.6406 14.344 4.875 8.5312 6.375 16.594 13.219 24.141 20.484-9.5156-53.625-21.328-106.88-35.438-159.61-27.281-101.95-63.188-201.56-107.34-297.74-18-13.453-38.344-23.203-59.672-28.922-23.062-6.1875-47.531-7.6406-71.719-4.0312-13.078 1.9219-25.266-7.1719-27.188-20.25-1.9219-13.078 7.1719-25.266 20.25-27.188 30.656-4.5938 61.641-2.7188 91.031 5.1562 29.297 7.8281 57.047 21.656 81.281 40.969 2.9531 2.2969 5.3906 5.2969 7.0781 8.9062 46.453 100.41 84.141 204.42 112.59 310.78 25.125 93.844 43.219 189.84 53.953 287.11 2.6719 13.172 4.0312 26.719 4.0312 40.5 0 64.922-30.562 123.47-79.875 165.71-48.328 41.344-114.84 66.891-188.02 66.891-73.172 0-139.69-25.594-188.02-66.891-18.656-15.938-34.641-34.266-47.25-54.328-1.9219-1.8281-3.5156-3.9844-4.7812-6.4688-3.8438-7.5938-11.109-14.156-20.484-18.984-10.453-5.3438-23.438-8.4375-37.406-8.4375s-26.953 3.0938-37.406 8.4375c-9.375 4.7812-16.641 11.344-20.484 18.984-1.2656 2.4844-2.8594 4.6406-4.7812 6.4688-12.656 20.062-28.594 38.391-47.25 54.328-48.328 41.344-114.84 66.891-188.02 66.891-73.172 0-139.69-25.594-188.02-66.891-49.359-42.188-79.875-100.78-79.875-165.71 0-13.828 1.4062-27.375 4.0312-40.5 10.734-97.266 28.828-193.26 53.953-287.11 28.5-106.36 66.141-210.37 112.59-310.78 1.6406-3.6094 4.125-6.6094 7.0781-8.9062 24.281-19.266 52.031-33.094 81.281-40.969 29.391-7.875 60.375-9.75 91.031-5.1562 13.078 1.9219 22.172 14.109 20.25 27.188-1.9219 13.078-14.109 22.172-27.188 20.25-24.188-3.6094-48.609-2.1562-71.719 4.0312-21.375 5.7188-41.672 15.469-59.672 28.922-44.156 96.188-80.062 195.79-107.34 297.74-14.109 52.688-25.969 105.94-35.438 159.61 7.5469-7.2656 15.609-14.109 24.141-20.484 4.3125-3.2344 9.3281-4.7812 14.344-4.7812l321.1-0.09375c6.1875 0 11.812 2.3438 16.078 6.1875zm639.19 174.79c-0.9375-10.359-1.9688-20.672-3.0938-30.984-3.0938-15.328-8.4844-30.047-16.078-44.438-11.906-22.078-28.266-41.391-48.234-57.516h-304.92c-20.344 16.406-36.938 36.141-48.562 58.031-12.141 22.922-18.891 48.281-18.891 74.953 0 50.297 24.094 96.047 63 129.32 39.891 34.125 95.391 55.266 156.89 55.266s117-21.141 156.89-55.266c38.906-33.281 63-79.031 63-129.37zm-1032.6-30.984c-1.125 10.312-2.1562 20.672-3.0938 31.031 0 50.297 24.094 96.047 63 129.32 39.891 34.125 95.391 55.266 156.89 55.266s117-21.141 156.89-55.266c38.906-33.281 63-79.031 63-129.32 0-26.672-6.75-52.031-18.891-74.906-11.625-21.938-28.219-41.672-48.562-58.078h-304.92c-19.969 16.125-36.328 35.438-48.234 57.516-7.6406 14.438-12.984 29.109-16.078 44.438z"/>
</svg>
