<?xml version="1.0" encoding="UTF-8"?>
<svg id="Layer_1" xmlns="http://www.w3.org/2000/svg" version="1.1" viewBox="0 0 597 896.9">
  <!-- Generator: Adobe Illustrator 29.2.1, SVG Export Plug-In . SVG Version: 2.1.0 Build 116)  -->
  <path d="M440.7,391c-1.8,0-3.6-.3-5.2-.8-10-2.9-15.9-13.4-13.1-23.4l63.9-223.6h0c4.5-15.8-4.6-32.2-20.3-36.7-15.8-4.5-32.2,4.6-36.7,20.3-2.9,10.1-13.5,15.9-23.5,13-10.1-2.9-15.9-13.5-13-23.6,10.7-35.4,47.8-55.7,83.4-45.5s56.3,47,46.7,82.7l-63.9,223.6h0c-2.3,8.2-9.8,13.8-18.3,13.9h0Z"/>
  <path d="M352.3,346.2c-6,0-11.6-2.8-15.2-7.5s-4.7-10.9-3.1-16.7l70.3-246.1c4-15.6-5.1-31.5-20.5-35.9-15.5-4.4-31.6,4.3-36.4,19.6l-75.5,264.1c-3.1,9.8-13.5,15.4-23.4,12.6-9.9-2.9-15.8-13.1-13.2-23.1L310.9,49c10.3-35.9,47.7-56.7,83.7-46.4,35.9,10.3,56.7,47.7,46.4,83.6l-70.3,246.1c-2.3,8.2-9.8,13.9-18.4,13.8h0Z"/>
  <path d="M350.7,896.9c-.8,0-1.5,0-2.3-.1-99.8-12-200.9-40.9-300.6-85.8-8.6-3.9-13.1-13.5-10.5-22.6l43.1-150.4c6.4-22.4,7.1-46,2.2-68.7-4.9-22.9-15.8-60-39.4-107.3C3.4,381.7-10.9,297.3,8.7,256.6c8.2-16.9,20.2-22.6,28.9-24.5,23.1-5.2,48.2,13.9,81.3,61.6,5.2,7.5,10.2,15.1,14.7,22.2L205.8,62.9c.2-.6.4-1.2.6-1.7,14.2-36.3,43.1-52.3,81.5-45,.6,0,1.1.2,1.7.4h0c35.9,10.3,56.6,47.7,46.4,83.6-3,9.9-13.5,15.6-23.5,12.7-9.9-2.9-15.8-13.2-13.1-23.2,4.4-15.4-4.3-31.5-19.5-36.3-19.3-3.4-30.4,2.7-37.7,20.9l-84.2,294.8c-2.1,7.5-8.5,12.9-16.3,13.8-7.7.8-15.2-3.2-18.8-10-.1-.3-14.2-26.6-32.2-53.2-28-41.3-42-48.8-45.4-50.1-3.2,2.9-9.4,18.4-6.1,51.8,3.7,37.5,17.2,81.4,38.2,123.5,20.4,40.8,34.7,79.9,42.5,116.2h0c6.3,28.8,5.3,58.8-2.8,87.3l-38.4,134.4c85.7,37.2,172.3,62.1,257.8,74.1.7-2.6,1.3-5.1,1.9-7.6,12.7-50.6,23.4-94.4,46.8-145.1h0c10.7-23.1,23.8-45,39-65.3l.8-1.1.5-.7c22.6-30.1,39.4-64.2,49.7-100.5l83-290.2c4.4-15.4-4.2-31.4-19.4-36.3-19.5-3.4-30.5,3-37.9,21.8-1.8,4.8-5.4,8.7-10.1,10.7-4.6,2.1-9.9,2.2-14.7.4-4.7-1.9-8.5-5.6-10.5-10.3s-2-10,0-14.7c14.2-36.2,43-52.2,81.2-45.1.6,0,1.2.2,1.8.4,35.8,10.3,56.6,47.7,46.3,83.6l-83,290.2c-11.5,40.6-30.3,78.7-55.5,112.5l-.8,1.1-.5.7h0c-13.7,18.3-25.5,38-35.2,58.8-21.7,47.4-32.2,89.6-44.3,138.4-2,7.8-4,15.8-6,24.1-2.2,8.4-9.7,14.2-18.4,14.3h0Z"/>
  <path d="M140.2,846.6c-6,0-11.6-2.7-15.2-7.5-3.6-4.7-4.7-10.9-3.1-16.7l14.5-51.8h0c9.8-34.4,45.4-54.7,80.1-45.4,86.3,23.3,162.3,37.5,163,37.7h0c10.3,2,17.2,12,15.2,22.3-1.9,10.4-11.9,17.2-22.2,15.3-.8-.2-78.3-14.7-166-38.4h0c-14.5-3.9-29.4,4.6-33.5,19l-14.6,51.7c-2.3,8.2-9.8,13.8-18.2,13.9h0Z"/>
  <path d="M218,821c-1.7,0-3.4-.2-5-.7l-7.5-2h0c-10.1-2.8-16.2-13.2-13.4-23.3s13.2-16.2,23.3-13.4l7.5,2.1h0c9.1,2.5,15,11.4,13.8,20.8-1.2,9.5-9.3,16.5-18.8,16.5h0Z"/>
</svg>