<?xml version="1.0" encoding="UTF-8"?>
<svg width="1200pt" height="1200pt" version="1.1" viewBox="0 0 1200 1200" xmlns="http://www.w3.org/2000/svg">
 <path d="m1018.2 684c-1.7812-0.046875-3.5625-0.28125-5.25-0.75-10.031-2.9062-15.891-13.359-13.078-23.438l63.938-223.6h0.046875c4.5-15.75-4.5938-32.156-20.297-36.656-15.75-4.4531-32.156 4.6406-36.656 20.344-2.9062 10.125-13.453 15.938-23.531 13.031-10.125-2.9062-15.938-13.453-13.031-23.578 10.688-35.438 47.812-55.688 83.391-45.516s56.344 47.016 46.734 82.688l-63.938 223.6-0.046875 0.046875c-2.3438 8.1562-9.7969 13.781-18.281 13.828z"/>
 <path d="m929.81 639.19c-5.9531 0.046875-11.578-2.7656-15.188-7.5469s-4.7344-10.922-3.0938-16.688l70.312-246.1c4.0312-15.562-5.1094-31.5-20.531-35.906-15.469-4.4062-31.594 4.3125-36.375 19.641l-75.469 264.1c-3.0938 9.8438-13.5 15.422-23.391 12.609-9.9375-2.8594-15.797-13.078-13.219-23.062l75.562-264.19c10.266-35.906 47.719-56.719 83.672-46.406 35.906 10.266 56.672 47.719 46.406 83.625l-70.312 246.1c-2.3438 8.2031-9.8438 13.875-18.375 13.828z"/>
 <path d="m928.22 1189.9c-0.75 0-1.5469-0.046875-2.3438-0.14062-99.75-12-200.9-40.922-300.56-85.828-8.625-3.8906-13.078-13.5-10.453-22.594l43.078-150.37c6.375-22.359 7.125-45.984 2.1562-68.719-4.9219-22.922-15.75-60.047-39.375-107.34-39.844-80.25-54.094-164.63-34.5-205.31 8.1562-16.875 20.156-22.594 28.875-24.469 23.062-5.1562 48.188 13.875 81.328 61.594 5.25 7.5469 10.172 15.094 14.672 22.219l72.188-253.03c0.1875-0.5625 0.375-1.1719 0.5625-1.7344 14.25-36.281 43.125-52.266 81.469-45 0.5625 0.09375 1.125 0.23438 1.6875 0.375v0.046875c35.859 10.266 56.625 47.672 46.406 83.578-3.0469 9.8906-13.5 15.562-23.484 12.703-9.9375-2.8594-15.797-13.172-13.125-23.203 4.4062-15.375-4.2656-31.453-19.5-36.281-19.312-3.375-30.375 2.7188-37.734 20.906l-84.188 294.79c-2.0625 7.5-8.5312 12.938-16.312 13.781-7.7344 0.79688-15.188-3.1875-18.844-10.031-0.14062-0.28125-14.25-26.625-32.203-53.156-27.984-41.297-42.047-48.844-45.422-50.109-3.1875 2.9062-9.375 18.375-6.0938 51.844 3.6562 37.5 17.25 81.375 38.156 123.47 20.391 40.781 34.688 79.922 42.516 116.2l0.046875-0.09375c6.3281 28.922 5.3438 58.922-2.7656 87.375l-38.438 134.44c85.688 37.219 172.31 62.062 257.81 74.062 0.65625-2.5781 1.2656-5.0625 1.875-7.5938 12.656-50.625 23.438-94.406 46.781-145.13l-0.046875-0.046875c10.734-23.016 23.766-44.906 38.953-65.297l0.75-1.125 0.46875-0.65625c22.594-30.141 39.422-64.219 49.734-100.45l82.969-290.21c4.4062-15.375-4.2188-31.406-19.406-36.281-19.5-3.375-30.469 3-37.922 21.75-1.7812 4.7812-5.3906 8.6719-10.078 10.734-4.6406 2.1094-9.9375 2.2031-14.719 0.375-4.7344-1.875-8.5312-5.5781-10.547-10.266s-2.0156-9.9844-0.09375-14.719c14.156-36.188 43.031-52.219 81.234-45.094 0.60938 0.09375 1.1719 0.23437 1.7812 0.42187 35.812 10.312 56.578 47.672 46.312 83.578l-82.969 290.16c-11.484 40.594-30.281 78.703-55.5 112.5l-0.75 1.125-0.46875 0.65625h-0.046875c-13.688 18.328-25.5 38.016-35.156 58.781-21.703 47.438-32.203 89.578-44.344 138.37-1.9688 7.8281-3.9844 15.844-6.0469 24.141-2.2031 8.3906-9.7031 14.25-18.375 14.297z"/>
 <path d="m717.74 1139.6c-6 0.046875-11.625-2.7188-15.234-7.5-3.6094-4.7344-4.7344-10.922-3.1406-16.688l14.531-51.75 0.046874 0.046875c9.7969-34.453 45.422-54.703 80.062-45.469 86.297 23.297 162.28 37.5 163.03 37.688l0.046876 0.046875c10.312 1.9219 17.156 11.906 15.188 22.219-1.9219 10.359-11.906 17.203-22.219 15.281-0.75-0.1875-78.281-14.719-165.98-38.391l-0.046874-0.046875c-14.484-3.8438-29.391 4.6406-33.469 19.031l-14.625 51.656c-2.2969 8.2031-9.75 13.828-18.188 13.875z"/>
 <path d="m795.47 1114c-1.6875 0-3.375-0.23438-4.9688-0.65625l-7.5-2.0156h-0.046875c-10.125-2.7656-16.172-13.219-13.406-23.344s13.219-16.172 23.344-13.406l7.5 2.0625 0.046875-0.046875c9.1406 2.5312 15.047 11.438 13.781 20.859-1.2188 9.4688-9.2812 16.5-18.75 16.547z"/>
 <path d="m165.1 391.13c-9.3281 0-17.25-6.7969-18.75-16.031l-36.656-229.69h0.046875c-3.3281-17.953 0.75-36.469 11.25-51.375 10.5-14.859 26.578-24.891 44.625-27.797 18-2.8594 36.422 1.6406 51.047 12.562 14.625 10.875 24.234 27.188 26.672 45.281 1.1719 5.1562 0.1875 10.547-2.7656 14.906s-7.5938 7.3125-12.797 8.1562-10.5-0.5625-14.672-3.75c-4.125-3.2344-6.7969-8.0625-7.2656-13.312-2.5781-16.172-17.812-27.188-33.984-24.609s-27.188 17.812-24.609 33.984l36.656 229.69h-0.046875c0.79688 4.9688-0.375 10.078-3.375 14.156-2.9531 4.0781-7.4062 6.8438-12.422 7.6406-0.9375 0.14062-1.9219 0.1875-2.9531 0.1875z"/>
 <path d="m357.19 360.47c-9.3281 0-17.297-6.7969-18.75-16.031l-43.312-271.31c-1.1719-7.8281-5.3906-14.812-11.766-19.5s-14.391-6.5625-22.172-5.3438c-7.7812 1.2656-14.766 5.5781-19.359 12-4.6406 6.4219-6.4688 14.438-5.1094 22.219l40.312 252.84c1.1719 5.1094 0.14062 10.5-2.8125 14.859-2.9062 4.4062-7.5469 7.3594-12.75 8.1562-5.2031 0.84375-10.5-0.51562-14.672-3.75s-6.7969-8.0625-7.2656-13.266l-40.312-252.89c-4.875-36.375 20.156-70.031 56.391-75.797 36.234-5.8125 70.5 18.375 77.203 54.469l43.312 271.36c0.84375 5.4844-0.70312 11.109-4.3125 15.328s-8.9062 6.6562-14.438 6.7031z"/>
 <path d="m194.39 904.18h-0.79688c-9.5156-0.046875-17.531-7.125-18.75-16.594-1.125-8.4375-2.1094-16.688-3.0938-24.703-6.1875-49.922-11.531-93-27.469-142.78v-0.046874c-7.0781-21.703-16.406-42.609-27.797-62.438-0.14062-0.23438-0.28125-0.46875-0.375-0.70313l-0.65625-1.2188h0.046875c-21-36.562-35.109-76.641-41.672-118.31l-47.531-298.03c-5.8125-36.844 19.266-71.438 56.109-77.344 0.5625 0 1.2188-0.1875 1.7812-0.1875 38.812-2.4375 65.531 16.875 75.188 54.469 2.0156 9.8906-4.0781 19.641-13.875 22.172s-19.875-3-22.922-12.656c-5.0625-19.547-15.234-27.141-35.016-26.109-15.703 2.9531-26.203 17.859-23.672 33.656l47.531 298.03v0.046876c5.8125 37.172 18.469 72.984 37.219 105.61l0.375 0.75 0.65625 1.2188c12.609 22.031 22.922 45.281 30.797 69.375 16.969 53.25 22.594 97.969 28.969 149.81l0.98438 7.7812c86.391-1.5938 175.31-15.844 264.84-42.516l-22.078-138.1h0.046874c-4.6875-29.25-2.0156-59.156 7.7344-87.141 12.094-35.016 31.031-72.094 56.25-110.16 25.781-39.234 44.531-81.141 52.734-117.94 7.3125-32.812 3-48.984 0.1875-52.219-3.4219 0.84375-18.281 6.5625-51.141 44.297-21.094 24.188-38.203 48.656-38.344 48.938-4.4531 6.4219-12.375 9.4688-19.969 7.6875s-13.359-7.9688-14.531-15.703l-48.094-302.81c-5.1562-18.938-15.375-26.344-34.969-25.266-15.656 2.9531-26.156 17.859-23.719 33.656 1.2188 5.1562 0.1875 10.547-2.7656 14.906-2.9062 4.3594-7.5469 7.3125-12.75 8.1562-5.2031 0.84375-10.5-0.5625-14.672-3.75-4.1719-3.2344-6.7969-8.0625-7.3125-13.312-5.8125-36.844 19.266-71.438 56.109-77.344l1.7344-0.1875c38.906-2.625 65.625 16.781 75.469 54.469v0.046875c0.14062 0.5625 0.28125 1.1719 0.375 1.7812l41.25 259.87c5.3438-6.5625 11.156-13.5 17.25-20.344 38.625-43.406 65.812-59.25 88.219-51.281 8.25 2.8594 19.594 10.031 25.594 27.75 14.531 42.703-9.6562 124.78-58.922 199.6-29.156 44.156-44.344 79.688-51.984 101.77l0.046874-0.046875c-7.6875 22.031-9.8438 45.609-6.1406 68.625l24.703 154.45h-0.046874c1.5 9.2812-4.0781 18.281-13.031 21.094-104.06 32.672-207.79 49.219-308.11 49.219z"/>
 <path d="m408.66 879.61c-9.375-0.046875-17.344-6.8438-18.75-16.078l-8.25-53.109v-0.046875c-2.3906-14.766-16.172-24.984-31.031-22.875-89.906 12.984-168.61 18.094-169.4 18.188-10.453 0.65625-19.5-7.3125-20.156-17.812s7.3594-19.547 17.812-20.156c0.75 0 78-5.1094 166.4-17.859v-0.046875c35.531-5.0156 68.484 19.406 74.062 54.797l8.25 53.062-0.046875 0.046875c0.79688 4.9688-0.42188 10.078-3.4219 14.156-2.9531 4.0781-7.4531 6.7969-12.469 7.5469-0.98438 0.14062-2.0156 0.23438-3.0469 0.1875z"/>
 <path d="m334.5 844.87c-9.9844 0-18.281-7.7344-18.984-17.719-0.70312-9.9375 6.4219-18.797 16.312-20.156l7.6875-1.125c5.0625-0.84375 10.219 0.375 14.344 3.4219 4.1719 3 6.8906 7.5938 7.6406 12.656 0.70312 5.0625-0.60938 10.172-3.75 14.25-3.0938 4.0781-7.6875 6.7031-12.797 7.3594l-7.6875 1.125v-0.046875c-0.89062 0.14062-1.8281 0.1875-2.7656 0.23438z"/>
</svg>
