<?xml version="1.0" encoding="UTF-8"?>
<svg id="Layer_1" xmlns="http://www.w3.org/2000/svg" version="1.1" viewBox="0 0 984.4 910.1">
  <!-- Generator: Adobe Illustrator 29.2.1, SVG Export Plug-In . SVG Version: 2.1.0 Build 116)  -->
  <path d="M95,67.8c0,36.7,29.6,67.8,67.8,67.8s67.8-29.6,67.8-67.8S200.9,0,162.8,0c-36.8,0-67.8,31.1-67.8,67.8Z"/>
  <path d="M261.6,257v220.2c0,48,66.4,56.5,66.4,4.2v-238.6c-1.4-31.1-14.1-52.2-45.2-67.8-22.6-11.3-50.8-22.6-122.8-24-73.4-1.4-93.2,9.9-115.8,19.8-15.5,8.5-40.9,25.4-42.4,67.8,0,36.7-2.8,208.9-1.4,223.1,0,49.4,64.9,48,64.9,0v-206.1c0-7.1,11.3-5.6,11.3,0-1.4,15.5,0,614.1,0,608.5-1.4,53.6,79.1,64.9,80.5,9.9v-372.7c0-8.5,11.3-11.3,14.1,0,0,1.4,16.9,165.2,16.9,165.2,0,0-25.4,145.4-26.8,146.8-8.5,55.1,67.8,83.3,80.5,19.8,4.2-24,26.8-156.7,26.8-156.7,0,0,1.4-19.8,0-39.5-2.8-28.2-18.4-145.4-18.4-145.4v-235.8c0-4.3,11.3-4.3,11.3,1.4h0Z"/>
  <path d="M771.2,484.3l-487.1,238.6,254.2,46.6,321.8-257,124.3,24-21.2-136.9-321.9,63.5,129.9,21.2Z"/>
</svg>