<?xml version="1.0" encoding="UTF-8"?>
<svg id="Layer_1" data-name="Layer 1" xmlns="http://www.w3.org/2000/svg" viewBox="0 0 1080 976.948">
  <defs>
    <style>
      .cls-1 {
        fill: #fff;
      }
    </style>
  </defs>
  <path d="M600,0C334.92,0,120,214.92,120,480s214.92,480,480,480,480-214.92,480-480S865.08,0,600,0ZM600,936c-251.4,0-456-204.6-456-456S348.6,24,600,24s456,204.6,456,456-204.6,456-456,456Z"/>
  <path d="M456,420c0,26.508-21.492,48-48,48s-48-21.492-48-48,21.492-48,48-48,48,21.492,48,48Z"/>
  <path d="M840,420c0,26.508-21.492,48-48,48s-48-21.492-48-48,21.492-48,48-48,48,21.492,48,48Z"/>
  <polygon class="cls-1" points="213 655 171.773 719.759 383 967 451.292 933.683 213 655"/>
  <path d="M715.08,593.16c-.48.238-50.52,27.359-112.8,27.359s-120.24-27.359-120.84-27.602c-6-2.879-13.078-.359-15.961,5.641-2.879,6-.359,13.078,5.641,15.961,2.52,1.199,63.238,30,131.16,30,68.281,0,122.04-29.039,124.32-30.238,5.762-3.238,7.922-10.441,4.801-16.32-3.238-5.883-10.559-8.039-16.32-4.801h0Z"/>
  <path d="M177.959,976.948H9.493c-2.519,0-4.933-1-6.714-2.781-1.779-1.781-2.779-4.195-2.779-6.712v-254.871c0-2.519,1-4.933,2.779-6.714,1.781-1.781,4.195-2.779,6.714-2.779h168.466c2.519,0,4.933.999,6.714,2.779,1.781,1.781,2.779,4.195,2.779,6.714v254.871c0,2.517-.999,4.931-2.779,6.712-1.781,1.781-4.195,2.781-6.714,2.781ZM18.982,957.96h149.483v-235.884H18.982v235.884Z"/>
  <path d="M436.197,909.386c-3.175-.006-6.136-1.599-7.892-4.245-1.756-2.644-2.072-5.991-.844-8.919s3.838-5.049,6.955-5.65c6.324-1.232,12.023-4.624,16.12-9.597,4.097-4.972,6.337-11.212,6.339-17.655v-7.749c-.008-6.81-3.272-13.205-8.783-17.208-2.225-1.549-3.681-3.975-4.002-6.667-.321-2.692.525-5.393,2.324-7.421,1.8-2.028,4.379-3.191,7.09-3.195,1.984,0,3.917.622,5.53,1.779,10.548,7.56,16.809,19.736,16.827,32.711v7.749c-.006,10.853-3.786,21.366-10.691,29.739-6.905,8.373-16.506,14.084-27.158,16.157-.599.116-1.207.174-1.816.172h0Z"/>
  <path d="M406.743,976.948h-152.861c-3.392,0-6.526-1.81-8.222-4.748-1.696-2.938-1.696-6.556,0-9.493,1.696-2.938,4.831-4.748,8.222-4.748h152.861c8.489.002,16.632-3.368,22.633-9.371,6.003-6.003,9.375-14.144,9.373-22.633.004-7.245-3.177-14.125-8.699-18.814-2.582-2.198-3.797-5.609-3.185-8.945s2.959-6.092,6.153-7.229c3.195-1.138,6.754-.485,9.339,1.713,9.762,8.295,15.386,20.464,15.379,33.275,0,13.524-5.371,26.494-14.934,36.057-9.563,9.563-22.534,14.936-36.059,14.936h0Z"/>
  <path d="M453.513,840.083c-3.021.004-5.864-1.431-7.654-3.865-1.79-2.432-2.318-5.573-1.418-8.456s3.117-5.167,5.974-6.15c5.313-2.061,9.881-5.675,13.107-10.372,3.227-4.695,4.962-10.256,4.979-15.954v-8.717c.008-7.27-3.654-14.051-9.736-18.032-2.743-1.8-4.361-4.889-4.28-8.166.079-3.28,1.845-6.285,4.67-7.95,2.302-1.356,4.423-3,6.314-4.889,5.92-5.885,9.24-13.895,9.221-22.245-.012-9.35-3.73-18.316-10.343-24.927-6.611-6.613-15.575-10.333-24.925-10.347h-136.855c-3.392,0-6.526-1.81-8.222-4.746-1.696-2.938-1.696-6.557,0-9.495,1.696-2.936,4.831-4.746,8.222-4.746h136.855c14.386.017,28.176,5.74,38.347,15.912,10.171,10.173,15.892,23.964,15.908,38.349.037,13.389-5.286,26.237-14.78,35.678l-.284.278-.002.002c5.765,7.181,8.906,16.114,8.9,25.323v8.717c-.029,9.603-2.974,18.973-8.446,26.865-5.474,7.894-13.215,13.938-22.199,17.333-1.074.4-2.21.603-3.353.599h0Z"/>
  <path d="M177.954,722.052c-2.268-.002-4.46-.815-6.181-2.293-1.719-1.478-2.853-3.523-3.197-5.763-.344-2.242.127-4.533,1.327-6.457l44.389-71.201h-.002c6.206-9.941,9.495-21.426,9.493-33.144v-43.427c-.017-13.615,6.812-26.324,18.175-33.822,11.212-7.463,25.428-8.788,37.826-3.523,6.581,2.789,13.155,7.119,19.539,12.964,21.36,19.444,24.363,56.763,23.141,84.656-1.283,28.92-7.677,57.782-11.517,64.947-1.601,2.99-4.676,4.898-8.066,5.006-3.392.108-6.581-1.599-8.371-4.483-1.789-2.882-1.903-6.5-.301-9.489,1.744-3.488,8.087-28.261,9.31-57.376,1.406-33.405-4.616-57.99-16.958-69.219-4.8-4.373-9.57-7.577-14.175-9.53v.002c-6.526-2.82-14.04-2.113-19.925,1.874-6.082,3.95-9.729,10.727-9.671,17.98v43.41-.002c.006,15.27-4.278,30.235-12.359,43.19l-44.389,71.201c-1.733,2.801-4.794,4.504-8.087,4.498v.002Z"/>
  <path d="M328.119,976.948h-74.237c-47.093,0-85.412-38.318-85.412-85.442h-.002c0-3.392,1.81-6.526,4.748-8.222,2.936-1.696,6.555-1.696,9.493,0,2.938,1.696,4.746,4.831,4.746,8.222.014,17.621,7.019,34.517,19.479,46.977,12.46,12.46,29.356,19.465,46.977,19.477h74.208c3.392,0,6.526,1.81,8.222,4.748,1.696,2.938,1.696,6.556,0,9.493-1.696,2.938-4.831,4.748-8.222,4.748h.001Z"/>
  <path d="M93.748,940.363c-9.7.004-19.006-3.846-25.866-10.702-6.863-6.859-10.718-16.161-10.72-25.862,0-9.7,3.853-19.004,10.714-25.862,6.861-6.859,16.164-10.712,25.864-10.708,9.702.002,19.004,3.859,25.86,10.722,6.857,6.863,10.704,16.168,10.699,25.87-.019,9.686-3.876,18.971-10.727,25.822-6.849,6.849-16.136,10.704-25.824,10.722h0ZM93.748,886.216c-4.663-.004-9.136,1.843-12.435,5.136-3.301,3.293-5.157,7.762-5.163,12.425-.006,4.663,1.841,9.136,5.134,12.437,3.293,3.301,7.762,5.159,12.425,5.165,4.663.006,9.136-1.841,12.437-5.134,3.301-3.293,5.159-7.76,5.167-12.423,0-4.663-1.85-9.134-5.141-12.435-3.293-3.301-7.76-5.159-12.423-5.17h0Z"/>
  <path d="M463.996,770.103h-81.392c-3.394,0-6.526-1.81-8.222-4.748-1.696-2.936-1.696-6.555,0-9.493,1.696-2.938,4.829-4.746,8.222-4.746h81.392c3.392,0,6.526,1.808,8.222,4.746,1.696,2.938,1.696,6.557,0,9.493-1.696,2.938-4.831,4.748-8.222,4.748Z"/>
  <path d="M453.513,840.083h-81.362c-3.392,0-6.526-1.81-8.222-4.746-1.696-2.938-1.696-6.557,0-9.495,1.696-2.936,4.831-4.746,8.222-4.746h81.362c3.392,0,6.526,1.81,8.222,4.746,1.696,2.938,1.696,6.557,0,9.495-1.696,2.936-4.831,4.746-8.222,4.746Z"/>
  <path d="M436.202,909.386h-81.382c-3.392,0-6.524-1.81-8.22-4.746-1.696-2.938-1.696-6.557,0-9.495,1.696-2.936,4.829-4.746,8.22-4.746h81.382c3.392,0,6.526,1.81,8.222,4.746,1.696,2.938,1.696,6.557,0,9.495-1.696,2.936-4.831,4.746-8.222,4.746Z"/>
</svg>