<?xml version="1.0" encoding="UTF-8"?>
<svg id="Layer_1" data-name="Layer 1" xmlns="http://www.w3.org/2000/svg" viewBox="0 0 840.66 1139.066">
  <defs>
    <style>
      .cls-1 {
        fill: #fffdd4;
      }
    </style>
  </defs>
  <path d="M145.358,319.466v-.002c-22.801,6-37.199,28.801-31.199,52.801l16.801,64.801c18,71.999,80.398,124.8,154.8,130.8,6,0,13.199,1.199,20.398,1.199l1.199,200.4,4.801,322.8c0,25.199,21.602,46.801,48,46.801h1.199c26.403-1.199,46.801-22.801,46.801-49.199l-4.801-303.6h20.398l90,316.8c6,21.602,25.204,34.801,45.602,34.801,4.801,0,8.398-1.199,13.199-2.398,26.403-7.199,40.801-33.602,33.602-58.801l-90-315.6-1.199-156c15.602,14.398,27.602,33.597,33.602,55.199l27.602,102c6,18,22.801,31.199,42,31.199,3.602,0,7.199,0,10.801-1.199,22.801-6,36-30,30-52.801l-27.602-102c-24-84-98.399-145.199-187.2-150-10.801-1.199-22.801-1.199-33.602-1.199-43.202,0-82.799-2.403-117.6-4.801-37.199-3.602-68.398-30-78-66l-16.801-64.801c-6-22.801-30-37.199-52.801-31.199h0Z"/>
  <path d="M409.358,267.867c53.02,0,96,42.98,96,96s-42.98,96-96,96-96-42.98-96-96,42.98-96,96-96Z"/>
  <path d="M7.358,253.467c-9.601,8.402-9.601,21.602-1.199,30l32.398,33.602c4.801,4.801,9.602,7.199,15.602,7.199,4.796,0,10.796-2.398,14.398-6,9.597-7.199,9.597-21.602,1.199-30l-32.398-33.602c-7.199-9.597-21.602-9.597-30-1.199h0Z"/>
  <path d="M111.757,197.067h0c-12,2.398-19.199,14.398-14.402,26.398l10.801,45.602c2.398,9.602,10.796,16.801,20.398,16.801,1.199,0,3.602-1.199,4.801-1.199,10.801-3.597,18-14.398,15.602-26.398l-10.801-45.602c-3.597-10.801-14.398-18-26.398-15.602h0Z"/>
  <path d="M231.758,271.467l13.199-45.597c3.602-10.796-2.398-22.796-14.398-26.398-10.796-3.602-22.796,2.398-26.398,14.398l-13.199,45.602c-3.602,10.796,2.398,22.796,14.398,26.398,2.398,1.199,3.602,1.199,6,1.199,9.597,0,18-6,20.398-15.602h0Z"/>
  <polygon class="cls-1" points="821 242.751 760 259.068 711 250.909 668 234.068 636 203.068 602 133.068 602 78.068 616 50.354 602 29.068 576 46.068 529 100.707 513 144.068 513 190.832 519.656 241.236 553.007 299.778 651 342.753 703.488 349.068 761 332.068 818 287.069 834 257.068 821 242.751"/>
  <polygon class="cls-1" points="739.561 5.068 723 34.068 697 50.354 724 68.068 739.561 94.068 758 64.068 789.915 50.354 761 38.932 739.561 5.068"/>
  <path d="M702.137,67.22l14.426,3.879c1.09.291,1.961,1.162,2.252,2.252l3.879,14.426c2.077,7.729,8.862,12.93,16.867,12.93s14.789-5.201,16.867-12.93l3.879-14.426c.291-1.09,1.162-1.961,2.252-2.252l14.426-3.879c7.729-2.077,12.93-8.862,12.93-16.867s-5.201-14.789-12.93-16.867l-14.426-3.879c-1.09-.291-1.961-1.162-2.252-2.252l-3.879-14.426c-2.077-7.729-8.862-12.93-16.867-12.93s-14.789,5.201-16.867,12.93l-3.879,14.426c-.291,1.09-1.162,1.961-2.252,2.252l-14.426,3.879c-7.729,2.077-12.93,8.862-12.93,16.867s5.201,14.789,12.93,16.867ZM705.842,47.274l14.426-3.879c5.985-1.613,10.722-6.334,12.334-12.334l3.879-14.426c.552-2.048,2.165-2.354,3.08-2.354s2.528.305,3.08,2.354l3.879,14.426c1.613,5.985,6.334,10.722,12.334,12.334l14.426,3.879c2.048.552,2.354,2.165,2.354,3.08s-.305,2.528-2.354,3.08l-14.426,3.879c-5.985,1.613-10.722,6.334-12.334,12.334l-3.879,14.426c-.552,2.048-2.165,2.354-3.08,2.354s-2.528-.305-3.08-2.354l-3.879-14.426c-1.613-5.985-6.334-10.722-12.334-12.334l-14.426-3.879c-2.048-.552-2.354-2.165-2.354-3.08s.305-2.528,2.354-3.08h0Z"/>
  <path d="M834.835,243.137c-6.581-7.264-16.562-9.269-25.424-5.114-21.719,10.184-45.981,14.644-70.214,12.901-70.663-5.099-126.679-62.326-130.299-133.104-1.104-21.704,2.557-42.683,10.91-62.382,3.864-9.109,1.467-19.119-6.102-25.496-7.627-6.421-17.985-7.075-26.368-1.671-51.327,33.05-81.982,89.184-81.982,150.159,0,98.482,80.091,178.604,178.548,178.604,62.63,0,121.466-33.472,153.559-87.34,5.085-8.528,4.024-19.206-2.644-26.571l.014.014ZM825.218,262.386c-29.535,49.57-83.68,80.367-141.295,80.367-90.579,0-164.267-73.713-164.267-164.326,0-56.09,28.198-107.74,75.411-138.159,1.482-.944,2.949-1.337,4.315-1.337,2.019,0,3.835.843,5.128,1.932,1.031.872,4.228,4.082,2.15,8.993-9.196,21.704-13.249,44.818-12.029,68.689,3.995,77.987,65.695,141.022,143.536,146.629,26.659,1.932,53.388-2.993,77.317-14.223,4.663-2.194,7.903.799,8.775,1.772,1.961,2.165,3.24,5.84.959,9.661h0Z"/>
</svg>