<?xml version="1.0" encoding="UTF-8"?>
<svg id="Layer_1" data-name="Layer 1" xmlns="http://www.w3.org/2000/svg" viewBox="0 0 839.064 1125.556">
  <defs>
    <style>
      .cls-1 {
        fill: #f4ff6a;
      }
    </style>
  </defs>
  <path d="M693.706,305.957c-22.801-6-46.801,8.398-52.801,31.199l-16.801,64.801c-9.602,36-40.801,62.398-78,66-34.801,2.398-74.398,4.801-117.6,4.801-10.801,0-22.801,0-33.602,1.199-88.801,4.801-163.2,66-187.2,150l-27.602,102c-6,22.801,7.199,46.801,30,52.801,3.602,1.199,7.199,1.199,10.801,1.199,19.199,0,36-13.199,42-31.199l27.602-102c6-21.602,18-40.801,33.602-55.199l-1.199,156-90,315.6c-7.199,25.199,7.199,51.602,33.602,58.801,4.801,1.199,8.398,2.398,13.199,2.398,20.398,0,39.602-13.199,45.602-34.801l90-316.8h20.398l-4.801,303.6c0,26.398,20.398,48,46.801,49.199h1.199c26.398,0,48-21.602,48-46.801l4.801-322.8,1.199-200.4c7.199,0,14.398-1.199,20.398-1.199,74.402-6,136.8-58.801,154.8-130.8l16.801-64.801c6-24-8.398-46.801-31.199-52.801v.002h0Z"/>
  <path d="M525.706,350.357c0,53.02-42.98,96-96,96s-96-42.98-96-96,42.98-96,96-96,96,42.98,96,96Z"/>
  <path d="M831.706,239.957c-8.398-8.398-22.801-8.398-30,1.199l-32.398,33.602c-8.398,8.398-8.398,22.801,1.199,30,3.602,3.602,9.602,6,14.398,6,6,0,10.801-2.398,15.602-7.199l32.398-33.602c8.402-8.398,8.402-21.598-1.199-30h0Z"/>
  <path d="M727.306,183.557c-12-2.398-22.801,4.801-26.398,15.602l-10.801,45.602c-2.398,12,4.801,22.801,15.602,26.398,1.199,0,3.602,1.199,4.801,1.199,9.602,0,18-7.199,20.398-16.801l10.801-45.602c4.797-12-2.402-24-14.402-26.398h-.001Z"/>
  <path d="M607.306,257.957c2.398,9.602,10.801,15.602,20.398,15.602,2.398,0,3.602,0,6-1.199,12-3.602,18-15.602,14.398-26.398l-13.199-45.602c-3.602-12-15.602-18-26.398-14.398-12,3.602-18,15.602-14.398,26.398l13.199,45.597h0Z"/>
  <polygon class="cls-1" points="77.812 240.318 91.338 170.88 146.799 113.369 217.661 96.933 289.281 116.073 334.371 168.626 353.469 240.318 77.812 240.318"/>
  <path d="M376.029,235.219h-19.212c-.106-78.564-64.063-142.411-142.623-142.411s-142.519,63.851-142.623,142.411h-21.537c-2.98,0-5.411,2.431-5.411,5.411s2.431,5.411,5.411,5.411h325.997c2.98,0,5.411-2.431,5.411-5.411s-2.431-5.411-5.411-5.411h-.002ZM214.194,103.629c72.621,0,131.697,59.031,131.801,131.589H82.388c.106-72.621,59.198-131.589,131.801-131.589h.005Z"/>
  <path d="M217.661,76.891c2.98,0,5.411-2.431,5.411-5.411V5.411c0-2.98-2.431-5.411-5.411-5.411s-5.411,2.431-5.411,5.411v66.07c0,2.98,2.431,5.411,5.411,5.411Z"/>
  <path d="M157.381,83.821c.803,2.219,2.874,3.572,5.094,3.572.592,0,1.247-.106,1.839-.317,2.811-1.036,4.269-4.121,3.255-6.933l-15.197-41.764c-1.036-2.811-4.121-4.269-6.933-3.255-2.811,1.036-4.269,4.121-3.255,6.933l15.196,41.764Z"/>
  <path d="M110.1,114.234c1.078,1.184,2.536,1.839,4.058,1.839,1.247,0,2.536-.423,3.572-1.353,2.283-2.008,2.494-5.411.486-7.63l-39.397-44.85c-2.008-2.219-5.411-2.431-7.63-.486-2.283,2.008-2.494,5.411-.486,7.63l39.397,44.85Z"/>
  <path d="M37.371,136.684l38.467,22.235c.867.486,1.775.697,2.705.697,1.902,0,3.678-.972,4.713-2.705,1.522-2.6.592-5.897-2.008-7.419l-38.467-22.235c-2.6-1.522-5.897-.592-7.419,2.008s-.592,5.897,2.008,7.419h0Z"/>
  <path d="M60.051,212.647c2.431,0,4.65-1.67,5.242-4.164.697-2.917-1.078-5.834-3.995-6.552l-54.594-13.146c-2.917-.697-5.834,1.078-6.552,3.995-.697,2.917,1.078,5.834,3.995,6.552l54.594,13.146c.423.106.867.169,1.247.169h.063Z"/>
  <path d="M438.573,188.74c-.697-2.917-3.635-4.713-6.552-3.995l-54.594,13.146c-2.917.697-4.713,3.635-3.995,6.552.592,2.494,2.811,4.164,5.242,4.164.423,0,.867,0,1.247-.169l54.594-13.146c2.917-.697,4.713-3.635,3.995-6.552h.063Z"/>
  <path d="M354.174,153.232c1.036,1.733,2.811,2.705,4.713,2.705.93,0,1.839-.211,2.705-.697l38.467-22.235c2.6-1.522,3.466-4.819,2.008-7.419-1.522-2.6-4.819-3.466-7.419-2.008l-38.467,22.235c-2.6,1.522-3.466,4.819-2.008,7.419Z"/>
  <path d="M322.134,113.369c1.522,0,2.98-.655,4.058-1.839l39.397-44.85c1.944-2.283,1.733-5.685-.486-7.63-2.283-1.944-5.685-1.733-7.63.486l-39.397,44.85c-1.944,2.283-1.733,5.685.486,7.63,1.036.93,2.325,1.353,3.572,1.353h0Z"/>
  <path d="M271.282,85.598c.592.211,1.247.317,1.839.317,2.219,0,4.269-1.353,5.094-3.572l15.197-41.764c1.036-2.811-.423-5.897-3.255-6.933-2.811-1.036-5.897.423-6.933,3.255l-15.197,41.764c-1.036,2.811.423,5.897,3.255,6.933h0Z"/>
  <path d="M217.661,135.26c-3.113,0-5.638,2.525-5.638,5.638v61.567l-20.454-20.454c-1.087-1.087-2.555-1.659-3.979-1.659s-2.893.558-3.979,1.659c-2.217,2.217-2.217,5.785,0,7.973l30.071,30.071c.529.529,1.16.94,1.835,1.233.044,0,.073,0,.073.044.646.264,1.321.411,2.07.411s1.424-.147,2.07-.411c.044,0,.073,0,.073-.044.719-.294,1.321-.719,1.835-1.233l30.071-30.071c2.217-2.217,2.217-5.785,0-7.973-2.217-2.217-5.785-2.217-7.973,0l-20.454,20.454.015-61.567c0-3.113-2.525-5.638-5.638-5.638h0Z"/>
</svg>