<?xml version="1.0" encoding="UTF-8"?>
<svg id="Layer_1" data-name="Layer 1" xmlns="http://www.w3.org/2000/svg" viewBox="0 0 827.924 1125.24">
  <defs>
    <style>
      .cls-1 {
        fill: #f4ff6a;
        stroke: #000;
        stroke-miterlimit: 10;
        stroke-width: 12px;
      }
    </style>
  </defs>
  <path d="M682.565,305.641c-22.801-6-46.801,8.398-52.801,31.199l-16.801,64.801c-9.602,36-40.801,62.398-78,66-34.801,2.398-74.398,4.801-117.6,4.801-10.801,0-22.801,0-33.602,1.199-88.801,4.801-163.2,66-187.2,150l-27.602,102c-6,22.801,7.199,46.801,30,52.801,3.602,1.199,7.199,1.199,10.801,1.199,19.199,0,36-13.199,42-31.199l27.602-102c6-21.602,18-40.801,33.602-55.199l-1.199,156-90,315.6c-7.199,25.199,7.199,51.602,33.602,58.801,4.801,1.199,8.398,2.398,13.199,2.398,20.398,0,39.602-13.199,45.602-34.801l90-316.8h20.398l-4.801,303.6c0,26.398,20.398,48,46.801,49.199h1.199c26.398,0,48-21.602,48-46.801l4.801-322.8,1.199-200.4c7.199,0,14.398-1.199,20.398-1.199,74.402-6,136.8-58.801,154.8-130.8l16.801-64.801c6-24-8.398-46.801-31.199-52.801v.002h0Z"/>
  <path d="M514.565,350.041c0,53.02-42.98,96-96,96s-96-42.98-96-96,42.98-96,96-96,96,42.98,96,96Z"/>
  <path d="M820.565,239.641c-8.398-8.398-22.801-8.398-30,1.199l-32.398,33.602c-8.398,8.398-8.398,22.801,1.199,30,3.602,3.602,9.602,6,14.398,6,6,0,10.801-2.398,15.602-7.199l32.398-33.602c8.402-8.398,8.402-21.598-1.199-30h0Z"/>
  <path d="M716.165,183.241c-12-2.398-22.801,4.801-26.398,15.602l-10.801,45.602c-2.398,12,4.801,22.801,15.602,26.398,1.199,0,3.602,1.199,4.801,1.199,9.602,0,18-7.199,20.398-16.801l10.801-45.602c4.797-12-2.402-24-14.402-26.398h-.001Z"/>
  <path d="M596.165,257.641c2.398,9.602,10.801,15.602,20.398,15.602,2.398,0,3.602,0,6-1.199,12-3.602,18-15.602,14.398-26.398l-13.199-45.602c-3.602-12-15.602-18-26.398-14.398-12,3.602-18,15.602-14.398,26.398l13.199,45.597h0Z"/>
  <path d="M173.872,60.352c2.339,0,4.247-1.908,4.247-4.247V4.247c0-2.339-1.908-4.247-4.247-4.247s-4.247,1.908-4.247,4.247v51.858c0,2.339,1.908,4.247,4.247,4.247Z"/>
  <path d="M126.558,65.792c.63,1.742,2.256,2.804,3.998,2.804.465,0,.979-.083,1.443-.249,2.206-.813,3.351-3.235,2.555-5.441l-11.928-32.781c-.813-2.206-3.235-3.351-5.441-2.555-2.206.813-3.351,3.235-2.555,5.441l11.928,32.781Z"/>
  <path d="M89.448,89.663c.846.929,1.991,1.443,3.185,1.443.979,0,1.991-.332,2.804-1.062,1.792-1.576,1.958-4.247.382-5.989l-30.923-35.203c-1.576-1.742-4.247-1.908-5.989-.382-1.792,1.576-1.958,4.247-.382,5.989l30.923,35.203Z"/>
  <path d="M32.362,107.284l30.193,17.452c.68.382,1.394.547,2.123.547,1.493,0,2.887-.763,3.699-2.123,1.194-2.041.465-4.628-1.576-5.823l-30.193-17.452c-2.04-1.194-4.628-.465-5.823,1.576s-.465,4.628,1.576,5.823h0Z"/>
  <path d="M50.164,166.907c1.908,0,3.65-1.311,4.114-3.268.547-2.289-.846-4.579-3.135-5.143l-42.851-10.319c-2.289-.547-4.579.846-5.143,3.135-.547,2.289.846,4.579,3.135,5.143l42.851,10.319c.332.083.68.133.979.133h.05Z"/>
  <path d="M347.267,148.143c-.547-2.289-2.853-3.699-5.143-3.135l-42.851,10.319c-2.289.547-3.699,2.853-3.135,5.143.465,1.958,2.206,3.268,4.114,3.268.332,0,.68,0,.979-.133l42.851-10.319c2.289-.547,3.699-2.853,3.135-5.143h.05Z"/>
  <path d="M281.022,120.272c.813,1.36,2.206,2.123,3.699,2.123.73,0,1.443-.166,2.123-.547l30.193-17.452c2.041-1.194,2.721-3.783,1.576-5.823-1.194-2.04-3.783-2.721-5.823-1.576l-30.193,17.452c-2.041,1.194-2.721,3.783-1.576,5.823Z"/>
  <path d="M255.873,88.983c1.194,0,2.339-.514,3.185-1.443l30.923-35.203c1.526-1.792,1.36-4.462-.382-5.989-1.792-1.526-4.462-1.36-5.989.382l-30.923,35.203c-1.526,1.792-1.36,4.462.382,5.989.813.73,1.825,1.062,2.804,1.062h0Z"/>
  <path d="M215.959,67.186c.465.166.979.249,1.443.249,1.742,0,3.351-1.062,3.998-2.804l11.928-32.781c.813-2.206-.332-4.628-2.555-5.441-2.206-.813-4.628.332-5.441,2.555l-11.928,32.781c-.813,2.206.332,4.628,2.555,5.441h0Z"/>
  <circle class="cls-1" cx="170.24" cy="183.511" r="106.945"/>
  <path d="M173.6,305.16c-2.341,0-4.25,1.909-4.25,4.25v51.898c0,2.341,1.909,4.25,4.25,4.25s4.25-1.909,4.25-4.25v-51.898c0-2.341-1.909-4.25-4.25-4.25Z"/>
  <path d="M220.95,299.716c-.631-1.743-2.258-2.806-4.001-2.806-.465,0-.98.083-1.444.249-2.208.814-3.354,3.237-2.557,5.445l11.937,32.806c.814,2.208,3.237,3.354,5.445,2.557,2.208-.814,3.354-3.237,2.557-5.445l-11.937-32.806Z"/>
  <path d="M258.089,275.827c-.847-.93-1.992-1.444-3.188-1.444-.98,0-1.992.332-2.806,1.063-1.793,1.577-1.959,4.25-.382,5.993l30.946,35.23c1.577,1.743,4.25,1.909,5.993.382,1.793-1.577,1.959-4.25.382-5.993l-30.946-35.23Z"/>
  <path d="M315.218,258.192l-30.216-17.465c-.681-.382-1.395-.548-2.125-.548-1.494,0-2.889.764-3.702,2.125-1.195,2.042-.465,4.632,1.577,5.827l30.216,17.465c2.042,1.195,4.632.465,5.827-1.577s.465-4.632-1.577-5.827h0Z"/>
  <path d="M297.403,198.524c-1.909,0-3.652,1.312-4.117,3.271-.548,2.291.847,4.582,3.138,5.147l42.884,10.326c2.291.548,4.582-.847,5.147-3.138.548-2.291-.847-4.582-3.138-5.147l-42.884-10.326c-.332-.083-.681-.133-.98-.133h-.05Z"/>
  <path d="M.075,217.303c.548,2.291,2.856,3.702,5.147,3.138l42.884-10.326c2.291-.548,3.702-2.856,3.138-5.147-.465-1.959-2.208-3.271-4.117-3.271-.332,0-.681,0-.98.133l-42.884,10.326c-2.291.548-3.702,2.856-3.138,5.147h-.05Z"/>
  <path d="M66.369,245.194c-.813-1.361-2.208-2.125-3.702-2.125-.73,0-1.444.166-2.125.548l-30.216,17.465c-2.042,1.195-2.723,3.785-1.577,5.827,1.195,2.042,3.785,2.723,5.827,1.577l30.216-17.465c2.042-1.195,2.723-3.785,1.577-5.827Z"/>
  <path d="M91.537,276.507c-1.195,0-2.341.515-3.188,1.444l-30.946,35.23c-1.527,1.793-1.361,4.466.382,5.993,1.793,1.527,4.466,1.361,5.993-.382l30.946-35.23c1.527-1.793,1.361-4.466-.382-5.993-.813-.73-1.826-1.063-2.806-1.063h0Z"/>
  <path d="M131.481,298.321c-.465-.166-.98-.249-1.444-.249-1.743,0-3.354,1.063-4.001,2.806l-11.937,32.806c-.813,2.208.332,4.632,2.557,5.445,2.208.814,4.632-.332,5.445-2.557l11.937-32.806c.813-2.208-.332-4.632-2.557-5.445h0Z"/>
</svg>