<?xml version="1.0" encoding="UTF-8"?>
<svg id="Layer_1" data-name="Layer 1" xmlns="http://www.w3.org/2000/svg" viewBox="0 0 843.764 1139.998">
  <path d="M145.358,320.398v-.002c-22.801,6-37.199,28.801-31.199,52.801l16.801,64.801c18,71.999,80.398,124.8,154.8,130.8,6,0,13.199,1.199,20.398,1.199l1.199,200.4,4.801,322.8c0,25.199,21.602,46.801,48,46.801h1.199c26.403-1.199,46.801-22.801,46.801-49.199l-4.801-303.6h20.398s90,316.8,90,316.8c6,21.602,25.204,34.801,45.602,34.801,4.801,0,8.398-1.199,13.199-2.398,26.403-7.199,40.801-33.602,33.602-58.801l-90-315.6-1.199-156c15.602,14.398,27.602,33.597,33.602,55.199l27.602,102c6,18,22.801,31.199,42,31.199,3.602,0,7.199,0,10.801-1.199,22.801-6,36-30,30-52.801l-27.602-102c-24-84-98.399-145.199-187.2-150-10.801-1.199-22.801-1.199-33.602-1.199-43.202,0-82.799-2.403-117.6-4.801-37.199-3.602-68.398-30-78-66l-16.801-64.801c-6-22.801-30-37.199-52.801-31.199h0Z"/>
  <path d="M409.358,268.799c53.02,0,96,42.98,96,96,0,53.02-42.98,96-96,96s-96-42.98-96-96c0-53.02,42.98-96,96-96Z"/>
  <path d="M7.358,254.399c-9.601,8.402-9.601,21.602-1.199,30l32.398,33.602c4.801,4.801,9.602,7.199,15.602,7.199,4.796,0,10.796-2.398,14.398-6,9.597-7.199,9.597-21.602,1.199-30l-32.398-33.602c-7.199-9.597-21.602-9.597-30-1.199h0Z"/>
  <path d="M111.757,197.999h0c-12,2.398-19.199,14.398-14.402,26.398l10.801,45.602c2.398,9.602,10.796,16.801,20.398,16.801,1.199,0,3.602-1.199,4.801-1.199,10.801-3.597,18-14.398,15.602-26.398l-10.801-45.602c-3.597-10.801-14.398-18-26.398-15.602h-.001Z"/>
  <path d="M231.758,272.399l13.199-45.597c3.602-10.796-2.398-22.796-14.398-26.398-10.796-3.602-22.796,2.398-26.398,14.398l-13.199,45.602c-3.602,10.796,2.398,22.796,14.398,26.398,2.398,1.199,3.602,1.199,6,1.199,9.597,0,18-6,20.398-15.602h0Z"/>
  <path d="M615.763,282.002c22.801,13.199,49.199,20.398,76.801,20.398,84.001,0,151.2-68.399,151.2-151.2C843.764,67.199,775.365,0,692.564,0c-84.001,0-151.2,68.399-151.2,151.2,0,28.801,7.199,54,20.398,76.801l-27.602,60c-7.204,13.199,7.199,26.398,20.398,20.398l61.205-26.397ZM776.558,177.599c-14.398,0-26.398-12-26.398-26.398,0-14.398,12-26.398,26.398-26.398,14.398,0,26.398,12,26.398,26.398,0,14.398-12,26.398-26.398,26.398h0ZM664.961,151.201c0-14.398,12-26.398,26.398-26.398s26.398,12,26.398,26.398c0,14.398-12,26.398-26.398,26.398s-26.398-12-26.398-26.398ZM633.757,151.197c0,14.402-12,26.402-26.398,26.398-14.398,0-26.398-12-26.398-26.398,0-14.398,12-26.398,26.398-26.398s26.398,12,26.398,26.398h0Z"/>
</svg>