<?xml version="1.0" encoding="UTF-8"?>
<svg id="Layer_1" xmlns="http://www.w3.org/2000/svg" version="1.1" viewBox="0 0 937.3 1050">
  <!-- Generator: Adobe Illustrator 29.2.1, SVG Export Plug-In . SVG Version: 2.1.0 Build 116)  -->
  <defs>
    <style>
      .st0 {
        fill: #7f7f7e;
      }
    </style>
  </defs>
  <polygon class="st0" points="363.6 220 363.6 594 468.7 594 468.7 884 537.6 944 617.6 891 646.6 757 745.6 760 794.6 1020 910.6 1011 901.6 29 482.6 34 468.7 226 363.6 220"/>
  <path d="M843.6,1050c51.7,0,93.8-42,93.8-93.8V93.8c0-51.7-42-93.8-93.8-93.8h-300c-51.7,0-93.8,42-93.8,93.8v112.5h-142.8c-26.2,0-47.6,21.3-47.6,47.6v69.7c.3,13.7-12.3,25.6-25.9,24.5l-156.3-8.7c-20.2-.9-39.7,6-54.5,19.9-49.5,44.9-12.4,131.6,54.5,126.5l156.3-8.7c13.6-1,26.2,10.7,25.9,24.5v69.7c0,26.2,21.3,47.6,47.6,47.6h274c10.4,0,18.8-8.4,18.8-18.8V225c0-10.4-8.4-18.8-18.8-18.8h-93.8v-112.5c0-31,25.2-56.2,56.2-56.2h300c31,0,56.2,25.2,56.2,56.2v862.5c-2,74-110.4,74.3-112.5,0v-131.3c-4.5-124.3-183.1-123.9-187.5,0v37.5c-1.9,74-110.5,74.3-112.5,0v-236.4c-.4-24.7-37.1-24.6-37.5,0v236.4c4.3,123.9,183,124.2,187.5,0v-37.5c0-31,25.2-56.2,56.2-56.2s56.2,25.2,56.2,56.2v131.3c0,51.7,42,93.8,93.8,93.8h0ZM562.3,331.3h-39c-10.4,0-18.8,8.4-18.8,18.8s8.4,18.8,18.8,18.8h39v87.5h-39c-10.4,0-18.8,8.4-18.8,18.8s8.4,18.8,18.8,18.8h39v87.5h-255.3c-5.6,0-10.1-4.5-10.1-10.1v-69.7c.8-34.6-31-64.5-65.4-61.9l-156.3,8.7c-32.1,3-51-40.5-26.6-61.8,7.2-6.8,16.7-10.4,26.6-9.8l156.3,8.7c34.8,2.7,66-27.3,65.4-61.9v-69.7c0-5.6,4.5-10.1,10.1-10.1h39v252.1c.4,24.6,37.1,24.7,37.5,0v-252.1h178.8v87.5h0s0,0,0,0Z"/>
</svg>