<?xml version="1.0" encoding="UTF-8"?>
<svg id="Layer_1" data-name="Layer 1" xmlns="http://www.w3.org/2000/svg" viewBox="0 0 946.589 833.52">
  <path d="M936.293,405.637c-15.938-49.078-51.562-88.078-105.47-116.34,10.406-41.531,6.469-83.156-12.281-122.48-18.234-38.25-49.922-73.547-91.734-102-38.391-26.156-84.328-45.656-129.42-54.844-16.219-3.281-55.828-7.828-91.594-9.375-67.5-2.906-85.688,5.391-93.516,11.906-3.984,3.281-5.672,8.625-4.312,13.594.422,1.594,1.172,3.094,2.156,4.406-58.734-.891-128.29,16.078-194.48,78.656-4.312,4.078-5.344,10.594-2.531,15.797,1.875,3.469,5.109,5.766,8.766,6.562-25.688,19.359-48.234,44.812-67.969,76.5-43.359,69.656-65.297,157.08-84.609,234.24-17.906,71.438-34.828,138.89-63.422,157.92-3.844,2.578-6.094,6.984-5.859,11.625s2.906,8.812,6.984,10.969c35.297,18.656,72.516,17.859,106.69,8.391,1.266,4.266,2.859,9.656,4.969,16.734,15.516,51.938,47.812,159.98,51.422,175.45,1.406,6,6.75,10.172,12.797,10.172.516,0,1.031-.047,1.5-.094,6.656-.75,11.625-6.375,11.625-13.078,0-51.234,5.531-131.72,17.297-155.72,32.016-1.031,62.531-13.172,91.219-36.656,32.062-26.25,55.547-61.406,71.719-88.453-1.641,6.562-3.609,12.188-5.297,17.109-3.422,9.844-6.375,18.375-3.234,26.953,1.734,4.734,5.156,8.203,9.609,9.75,7.453,2.625,13.969-1.312,16.078-2.578,58.734-35.391,84.234-97.875,104.77-148.13,12.562-30.75,23.391-57.328,37.875-68.391,20.578-15.75,40.172-17.531,56.625-5.203,18.141,13.641,25.828,39,20.531,52.547-1.594,4.031-1.031,8.625,1.406,12.188s6.516,5.719,10.828,5.719c38.016,0,68.203-4.594,93.609-14.156.281-.141.609-.188.891-.328,4.969-1.875,9.75-3.938,14.344-6.234.984.234,1.922.609,3,.609,38.531,0,72.844,57.188,72.844,102.23,0,84.188,18.328,112.59,36.047,140.02,15,23.25,29.156,45.188,31.875,107.06v.141c.328,7.031,6.141,12.562,13.125,12.562h.609c6.609-.281,11.812-5.391,12.516-11.766.609-4.078,6.984-41.859,13.688-81.844,21.141-125.48,24.562-146.44,24.703-149.16.234-5.109.75-11.062,1.406-18,2.578-28.453,6.422-71.531-7.688-115.08l-.107.1ZM138.853,623.657c-.094-.375-.234-.703-.328-1.078,1.078-.422,2.156-.844,3.234-1.312-1.125.844-2.016,1.594-2.953,2.391h.047ZM173.681,733.857c-.141,1.734-.328,3.469-.469,5.203-8.719-29.531-18.375-61.922-26.062-87.516,13.125,5.391,26.016,9.141,38.719,11.203-4.5,13.453-9,35.016-12.234,71.156l.046-.046ZM608.401,347.987c-26.109-19.594-58.312-17.672-88.359,5.297-20.156,15.422-32.25,45.047-46.266,79.359-17.25,42.281-36.516,89.438-74.297,121.4,4.172-13.641,8.109-32.062,6.234-57.094-.938-12.422-7.875-15.844-11.953-16.781-10.547-2.391-16.969,7.172-19.688,11.297-2.859,4.312-6.188,10.125-10.453,17.438-38.812,67.5-87.375,132-158.53,129.52h-.047c-10.594-.375-21.703-2.156-33.375-5.766,21.562-14.812,53.016-39.094,60.141-72.281,1.172-5.484-1.266-11.109-6.047-14.016-8.062-4.875-14.625.562-17.438,2.859-30.562,25.266-104.72,77.906-171.37,57.516,4.312-5.203,8.203-11.344,11.906-17.859,78.797-27,117.75-118.64,152.06-199.87,33.188-78.469,64.547-152.63,123.19-152.63,7.266,0,13.125-5.906,13.125-13.125,0-7.266-5.906-13.125-13.125-13.125-76.078,0-110.72,81.938-147.42,168.66-29.297,69.328-59.578,140.48-111.33,173.21,10.547-29.016,19.453-64.125,29.297-103.41,37.688-150.32,84.562-337.4,276.47-337.4,6.656,0,12.234-4.969,13.031-11.531.797-6.609-3.422-12.75-9.891-14.344-29.906-7.406-58.172-4.734-83.625.984,101.44-55.359,201-17.625,237.61-3.797,5.766,2.203,10.031,3.797,13.266,4.688.562.188,1.172.328,1.828.422,6.938,1.078,13.5-3.469,14.906-10.359,1.219-5.859-1.688-11.625-6.75-14.297-.422-.328-1.031-.75-1.781-1.266-20.25-14.625-41.953-26.484-64.969-35.438,5.953.047,12.516.234,19.734.562,38.062,1.641,74.719,6.234,87.469,8.859,89.297,18.188,170.76,75.422,202.69,142.4,17.25,36.234,20.109,73.688,8.766,111.66-.094.188-.234.281-.328.422-.328.656-.328,1.359-.516,2.062-1.5,4.781-3.094,9.609-5.062,14.438-9.656-47.625-34.359-88.875-72.141-118.69-52.734-41.578-126.24-56.672-196.6-40.406-7.078,1.641-11.484,8.719-9.844,15.75,1.641,7.078,8.719,11.484,15.75,9.844,62.672-14.531,127.87-1.266,174.37,35.438,41.719,32.906,65.203,82.078,66.609,138.66-14.109,20.766-30.328,35.953-50.344,46.453-7.266-62.906-37.641-113.3-85.5-139.78-47.578-26.297-104.81-25.453-153.05,2.297-43.219,24.844-58.922,42.375-78.797,64.547-19.734,22.031-44.297,49.453-109.08,95.672-5.906,4.219-7.266,12.422-3.047,18.328,2.578,3.609,6.609,5.531,10.688,5.531,2.625,0,5.297-.797,7.641-2.438,67.125-47.906,92.766-76.547,113.39-99.516,19.031-21.234,32.766-36.562,72.328-59.297,40.219-23.109,87.75-23.906,127.22-2.109,42,23.25,68.062,69.281,72.797,127.08-17.062,5.109-36.469,8.016-58.969,8.859.422-23.203-12.094-49.453-32.672-64.922l.148.032ZM917.771,518.327c-.609,6.797-1.172,13.172-1.453,18.797-.938,7.266-14.438,87.562-24.375,146.34-.375,2.297-.75,4.5-1.125,6.656-6.562-17.766-14.672-30.328-22.641-42.703-16.359-25.359-31.828-49.312-31.828-125.76,0-27.469-10.078-58.734-27-83.625-12.844-18.891-28.266-32.156-44.859-39.141,18.656-15.656,34.688-36.234,48.375-62.438,3.75-7.219,7.078-14.484,9.938-21.797,107.95,58.781,99.891,149.02,94.969,203.72v-.049Z"/>
</svg>