<?xml version="1.0" encoding="UTF-8"?>
<svg id="Layer_1" data-name="Layer 1" xmlns="http://www.w3.org/2000/svg" viewBox="0 0 767.984 959.993">
  <path d="M348.171,90c0-49.688,40.312-90,90-90h2.203c43.641,0,79.828,31.875,86.578,73.641,12.047-6.281,25.688-9.844,40.219-9.844,48.094,0,87,39,87,87.094v28.312c10.078-4.5,21.188-6.984,32.906-7.031,44.719,0,80.906,36.281,80.906,80.953v491.95c0,45.609-18.562,89.25-51.328,120.84l-3.188,3.047-51.234,46.922c-30.984,28.359-71.438,44.109-113.44,44.109h-227.39c-59.672,0-114.66-31.641-144.74-82.828l-2.812-5.016L11.112,572.389c-23.859-44.062-8.062-99.094,35.578-123.71l3.328-1.781c34.594-17.719,76.781-11.672,105.05,15.375l35.344,33.797,3.609,3.281c7.312,6.422,15.422,11.766,24.141,16.031V194.282c0-49.172,39.844-89.062,89.016-89.062,14.812,0,28.781,3.609,41.016,10.031l-.023-25.251ZM396.171,444.94c0,13.219-10.734,24-24,24s-23.953-10.781-24-24v-250.64c0-22.688-18.375-41.062-41.016-41.062s-41.016,18.375-41.016,41.062v349.31c0,.516,0,.984-.047,1.5l-.141,1.5-1.078,8.344c-2.859,22.875.891,46.125,10.828,66.891l16.172,33.797.984,2.25c4.125,11.438-1.031,24.375-12.234,29.766-11.203,5.344-24.516,1.266-30.844-9.141l-1.172-2.156-16.172-33.797c-11.344-23.672-16.969-49.641-16.453-75.75l-12.047-5.156c-15.141-6.469-29.109-15.328-41.531-26.109l-5.203-4.781-35.344-33.797c-13.031-12.469-32.25-15.562-48.422-8.109l-3.188,1.641c-20.812,11.719-28.359,37.969-16.969,58.969l162.74,299.81,2.016,3.562c21.469,36.562,60.75,59.156,103.36,59.156h227.39c30,0,58.875-11.25,81-31.5l51.234-46.922,4.547-4.406c21.984-22.359,34.406-52.547,34.406-84.094V253.127c0-18.188-14.766-32.953-32.906-32.953-18.141.047-32.859,14.766-32.859,32.953v191.81c0,13.219-10.781,24-24,24s-24-10.781-24-24v-102.7c0-.094-.047-.141-.047-.234v-191.11c0-21.609-17.484-39.094-39-39.094s-38.812,17.25-39.047,38.625v294.52c0,13.219-10.781,24-24,24s-24-10.781-24-24V87.804c0-21.984-17.812-39.797-39.75-39.797h-2.203c-23.156,0-42,18.797-42,42l.011,354.933Z"/>
</svg>