<?xml version="1.0" encoding="UTF-8"?>
<svg id="Layer_1" data-name="Layer 1" xmlns="http://www.w3.org/2000/svg" viewBox="0 0 1200 1200">
  <path d="M600,0C268.82,0,0,268.87,0,600s268.82,600,600,600,600-268.82,600-600S931.13,0,600,0ZM600,37.5c310.87,0,562.5,251.63,562.5,562.5s-251.63,562.5-562.5,562.5S37.5,910.87,37.5,600,289.13,37.5,600,37.5ZM383.39,371.9c-61.453,0-114.23,44.25-124.97,104.77-1.828,10.172,4.922,19.875,15.047,21.75,10.172,1.781,19.875-4.969,21.75-15.094,7.594-42.844,44.672-73.922,88.172-73.922s80.578,31.031,88.125,73.922c.891,4.922,3.656,9.281,7.734,12.141s9.141,3.984,14.016,3.094c4.922-.844,9.281-3.656,12.141-7.734s3.984-9.094,3.094-14.016c-10.734-60.562-63.656-104.91-125.16-104.91h.051ZM816.47,371.9c-61.453,0-114.23,44.25-124.97,104.77-1.828,10.172,4.922,19.875,15.047,21.75,10.172,1.781,19.875-4.969,21.75-15.094,7.594-42.844,44.672-73.922,88.172-73.922s80.578,31.031,88.172,73.922c.891,4.875,3.656,9.234,7.734,12.094,4.031,2.859,9.094,3.984,14.016,3.141,4.875-.844,9.234-3.656,12.094-7.734s3.984-9.094,3.141-14.016c-10.734-60.562-63.656-104.91-125.16-104.91h.004ZM820.97,699.84c-7.172.562-13.359,5.156-15.984,11.859-33,84.469-114.28,139.92-204.98,139.92s-171.98-55.359-204.98-139.78c-3.797-9.609-14.578-14.391-24.234-10.641-9.609,3.75-14.344,14.578-10.641,24.188,38.578,98.719,133.87,163.74,239.86,163.74s201.28-65.016,239.86-163.74c1.828-4.641,1.734-9.844-.234-14.391-2.016-4.594-5.766-8.156-10.406-9.984-2.625-.984-5.438-1.406-8.25-1.172h-.011Z"/>
</svg>