<?xml version="1.0" encoding="UTF-8"?>
<svg width="1200pt" height="1200pt" version="1.1" viewBox="0 0 1200 1200" xmlns="http://www.w3.org/2000/svg">
 <path d="m1078.7 588.71c-1.9219-24.938-1.3125-43.078-1.0781-56.297 0.14062-4.4531 0.14062-8.2969 0.14062-11.859 0-114.94-102.38-219.71-250.22-263.06-3.1406-35.062-32.625-62.625-68.531-62.625-28.078 0-52.781 16.922-63.375 42.141-4.9219-0.23438-9.8438-0.375-14.766-0.375-118.45 0-214.45 41.062-270.47 115.69-6.4688 8.8594-14.531 35.531-41.531 126l-11.297 38.531c-12.938 43.219-21.141 72.375-21.938 96.469v0.14062l-204.56 197.02c-8.0625 7.6875-12 18.375-10.781 29.297 1.2188 10.547 7.0781 19.688 15.938 25.219l146.86 88.922c57.141 34.453 120.84 51.234 184.55 51.234 96.844 0 193.45-38.766 267-113.06l127.08-128.16c104.86-16.453 216-53.625 216-97.547 0-6.7031 0.46875-12.234 0.9375-18.469 1.125-13.125 2.2969-29.438 0.046875-59.203zm-319.69-367.18c18.469 0 34.312 12 39.938 28.547-8.625-2.1562-17.625-3.8438-26.531-5.5312l-1.2188-0.23438c-15.141-2.625-30.375-4.6875-45.844-5.8594 7.5938-10.453 19.875-16.922 33.656-16.922zm-16.219 527.39c-19.922 1.0781-40.547 1.4531-62.062 1.3125-1.0781 0-99.844-0.46875-209.86-38.859 1.5469-8.7656 3.2344-17.859 4.7812-26.766 20.766-119.62 44.297-255.24 124.45-312.84 58.547-42 135.14-81.844 149.76-89.297 3.8438 9.2344 7.2188 18.234 10.453 27.375 65.906 190.92 7.2188 375.71-17.531 439.08zm-359.72-224.53 11.531-38.531c19.078-64.453 32.766-110.86 37.312-117.61 51.609-68.766 137.76-105.14 249-105.14 14.766 0 29.625 0.70312 44.391 1.9219-28.312 14.859-90 48.703-140.63 85.078-88.922 63.844-113.53 205.22-135.14 329.86-1.3125 7.3125-2.5312 14.531-3.8438 21.703-4.7812-1.9219-9.7031-3.8438-14.531-6-23.859-10.312-50.297-23.297-62.766-49.078-4.0781-8.625-6.1406-17.156-6.2344-27.609-0.375-21.516 8.0625-51.375 20.906-94.594zm332.72 348.98c-113.3 114.47-285.61 138.24-418.92 57.844l-146.76-88.922c-2.5312-1.4531-3.2344-3.9375-3.375-5.2969-0.23438-2.5312 0.70312-5.1562 2.625-7.0781l190.31-183.37c1.3125 3.9375 2.8594 7.9219 4.7812 11.766 16.453 33.844 47.859 49.688 76.078 62.062 10.312 4.4531 20.531 8.5312 30.703 12.375 118.69 43.688 228.47 44.297 229.45 44.297h7.3125c22.312 0 44.062-0.46875 64.688-1.6875 22.453-1.2188 44.391-2.8594 65.766-5.5312zm336.37-227.53c-0.46875 6.9375-1.0781 13.219-1.0781 20.531 0 12-58.781 50.859-197.86 71.859-25.922 4.0781-53.156 7.0781-81.375 9.1406 27.375-74.625 78.844-257.29 13.547-446.29-3.375-9.7031-6.9375-19.312-11.062-29.062 160.78 30.469 276.61 134.39 276.61 248.53 0 3.375 0 7.0781-0.14062 11.297-0.23438 13.688-0.84375 32.531 1.2188 58.688 2.2031 27.938 1.125 42.609 0.14062 55.312z"/>
</svg>
