<?xml version="1.0" encoding="UTF-8"?>
<svg width="1200pt" height="1200pt" version="1.1" viewBox="0 0 1200 1200" xmlns="http://www.w3.org/2000/svg">
 <path d="m703.69 206.25h-57.469c-9.7773 0.039062-19.141 3.9453-26.043 10.867-6.9023 6.9219-10.785 16.293-10.801 26.07l-0.1875 137.16h-27.938c-4.4961 0.0625-8.8203 1.7266-12.203 4.6914-3.3789 2.9648-5.5938 7.0352-6.2422 11.484-0.65234 4.4492 0.30469 8.9844 2.6953 12.793l93.75 144.75c3.4727 5.3242 9.3945 8.5312 15.75 8.5312s12.277-3.207 15.75-8.5312c0 0 93.562-144.47 93.75-144.75 2.3789-3.8086 3.3242-8.3398 2.668-12.785-0.65234-4.4414-2.8633-8.5078-6.2383-11.473-3.3711-2.9648-7.6875-4.6328-12.18-4.7109h-28.312s0.1875-136.97 0.1875-137.06c-0.09375-9.7773-4.0156-19.125-10.918-26.047-6.9023-6.9219-16.242-10.863-26.02-10.984z"/>
 <path d="m1081.7 559.69c-35.25-35.156-101.44-33.094-129-27.281-13.582-12.609-30.445-21.125-48.656-24.562-29.031-4.3398-58.605 2.9375-82.312 20.25l-80.812 55.125c11.25 3 49.594 9.5625 51.938 9.8438l50.438-34.406c15.473-11.328 34.688-16.324 53.719-13.969 8.8906 1.6523 17.293 5.3086 24.562 10.688l-74.812 53.438c4.9922 2.6719 9.7578 5.7422 14.25 9.1875 5.875 4.4688 11.281 9.5234 16.125 15.094l91.594-65.344c24.93-3.4766 50.332-0.24219 73.594 9.375l-143.53 97.406c3.5312 14.777 3.4023 30.191-0.375 44.906-0.10938 0.24219-0.20312 0.49609-0.28125 0.75l180.28-122.25c9.375-1.3125 75.938-9.1875 83.531 34.969 3.8438 22.031-8.5312 44.812-32.25 58.5 0 0-393.38 250.69-393.38 250.78-32.129 18.586-71.566 19.293-104.34 1.875l-223.88-114.84-1.9688-0.84375c-15.023-5.6172-31.535-5.8164-46.688-0.5625l-134.44 45.562v-274.03l79.875-25.5c94.125-30.094 194.34 6.1875 291.38 41.25 31.969 11.625 64.031 23.062 96.75 32.531 22.637 7.0625 45.68 12.758 69 17.062 13.605 1.0234 27.117 3.0938 40.406 6.1875 12.656 4.125 27.469 14.906 23.625 30-4.7812 18.75-32.344 40.875-55.781 44.531-53.156 8.5312-120.38 10.688-215.91-37.688-5.9727-2.9609-13.074-2.5234-18.637 1.1523-5.5625 3.6758-8.75 10.035-8.3672 16.691 0.38281 6.6562 4.2734 12.609 10.223 15.625 71.438 36.188 128.81 46.594 176.72 46.594 20.73-0.10547 41.422-1.8594 61.875-5.25 34.031-5.4375 76.781-35.812 86.062-72.375 2.9141-11.602 2.1797-23.82-2.0977-34.992-4.2773-11.172-11.891-20.754-21.809-27.445-16.859-11.203-36.488-17.527-56.719-18.281-28.035-4.1172-55.691-10.512-82.688-19.125-28.969-8.3438-58.688-19.125-90-30.469-98.062-35.531-209.16-75.75-315.38-41.812l-73.074 23.422c-2.7969-5.9102-6.8047-11.172-11.758-15.441l-0.17188-0.14453v0.003906c-4.543-3.9141-9.8008-6.9141-15.48-8.8359-0.92188-0.31641-1.8438-0.60938-2.7891-0.86719-1.4961-0.41797-3.0156-0.76172-4.5469-1.0273-1.3359-0.22266-2.707-0.30859-4.0781-0.41016-1.1797-0.089844-2.3086-0.35547-3.5078-0.35547h-131.25c-12.426 0.015625-24.344 4.957-33.129 13.746-8.7891 8.7852-13.73 20.703-13.746 33.129v337.78c0.0039062 12.43 4.9453 24.352 13.734 33.141s20.711 13.73 33.141 13.734h131.25c12.43-0.003906 24.352-4.9453 33.141-13.734s13.73-20.711 13.734-33.141v-6.0938l146.53-49.688c6.6914-2.25 13.934-2.25 20.625 0 0 0 222.75 114.28 222.84 114.28 44.383 22.742 97.258 21.508 140.53-3.2812l393.38-250.69c17.316-9.0664 31.406-23.266 40.336-40.656 8.9297-17.387 12.262-37.113 9.5391-56.469-10.594-61.312-76.125-70.688-117.09-66.75zm-950.44 368.44h-37.5v-28.125c0-6.6992 3.5742-12.887 9.375-16.238 5.8008-3.3477 12.949-3.3477 18.75 0 5.8008 3.3516 9.375 9.5391 9.375 16.238z"/>
</svg>
