<?xml version="1.0" encoding="UTF-8"?>
<svg id="Layer_1" data-name="Layer 1" xmlns="http://www.w3.org/2000/svg" viewBox="0 0 373.84 1004.477">
  <defs>
    <style>
      .cls-1 {
        fill: #3f6aff;
      }
    </style>
  </defs>
  <path class="cls-1" d="M258.89,73.828c0,40.734-32.062,73.828-71.672,73.828s-71.625-33.094-71.625-73.828S147.655,0,187.218,0c39.562.047,71.672,33.047,71.672,73.828Z"/>
  <path class="cls-1" d="M73.16,283.868c.094,9.75,0,236.53,0,246,0,52.641-72.562,55.594-72.984-1.219-.375-51.094-.047-277.13.047-280.6.938-34.781,29.297-50.953,43.359-56.203,16.828-6.281,66.609-27.75,145.31-27.984,80.812-.188,127.78,22.641,142.82,28.547,14.391,7.078,41.25,23.156,42.047,55.359.375,5.719-.703,250.03-.047,280.69-1.031,56.625-73.688,55.922-73.688.844,0-26.719.375-237.24.094-246-.141-4.172-15.891-6.422-16.266.281-.891,15.844-.234,682.03.281,674.9,1.031,59.156-86.672,61.688-87.75.234-.281-16.922,0-408.79.047-413.44.141-10.078-16.406-10.828-16.922.375-.094,1.828.281,408.61.188,412.69-2.203,64.359-90.75,58.688-90.188-.281.375-41.438.094-670.18-.047-673.97-.141-6.094-16.406-6.656-16.312-.234l.011.011Z"/>
</svg>