<?xml version="1.0" encoding="UTF-8"?>
<svg width="1200pt" height="1200pt" version="1.1" viewBox="0 0 1200 1200" xmlns="http://www.w3.org/2000/svg">
 <path d="m1014.1 671.02c-5.5312-37.125-21.375-67.688-48.422-93.375l-64.781-61.828v-175.69c0-48.609-37.688-88.125-84-88.125h-10.266v-18.938c0-54.562-59.578-89.766-151.78-89.766-80.672 0-167.34 26.766-231.84 71.578-56.484 39.234-123.84 111.14-123.84 230.86v70.172l-64.781 61.781c-27.094 25.781-42.938 56.344-48.375 93.375l-66.891 452.06c-1.1719 8.0625 4.3594 15.562 12.422 16.781 0.70312 0.046874 1.4531 0.09375 2.1562 0.09375 7.2188 0 13.5-5.25 14.578-12.609l66.891-452.06c4.5-30.703 17.062-54.938 39.516-76.312l156.71-149.39c12.609-11.344 24.984-7.4062 32.344 0.09375 6.5156 6.6562 13.781 21.891-0.42188 36.938l-117.38 124.5c-2.5312 2.6719-3.9844 6.2344-4.0312 9.8906l-1.0312 68.859v54c0 8.1562 6.6094 14.766 14.766 14.766s14.766-6.6094 14.766-14.766v-44.906l24.938-13.359c0.60938 34.922 9.1875 67.969 24.047 97.312-34.688 28.453-72.281 46.875-114.66 56.062-7.0781 1.5469-12 7.9688-11.625 15.234l14.484 271.78c0.42188 7.875 6.9844 13.969 14.766 13.969 0.28125 0 0.51562 0 0.79688-0.046876 8.1562-0.42187 14.391-7.4062 13.969-15.516l-7.5469-141.56c9.7031-7.3594 22.875-13.781 38.672-18.797 61.734-19.406 108.89-33.469 149.39-42.703l91.641 97.219c2.8125 2.9531 6.7031 4.6406 10.734 4.6406 4.0781 0 7.9688-1.6875 10.734-4.6406l91.641-97.219c40.359 9.1875 87.609 23.297 149.39 42.703 15.797 4.9688 29.016 11.438 38.719 18.797l-7.5938 141.52c-0.42188 8.1562 5.8125 15.094 13.969 15.562 0.28125 0.046876 0.51562 0.046876 0.79688 0.046876 7.7812 0 14.297-6.0938 14.719-13.969l14.531-271.78c0.375-7.2188-4.5469-13.688-11.625-15.234-42.422-9.1875-80.016-27.562-114.66-56.016 14.859-29.344 23.438-62.344 24.047-97.312l24.844 13.312v44.906c0 8.1562 6.6094 14.766 14.766 14.766s14.766-6.6094 14.766-14.766v-54l-0.9375-68.859c-0.046875-3.7031-1.5-7.2188-4.0312-9.9375l-117.42-124.5c-14.203-15.047-6.9375-30.281-0.42188-36.938 7.4062-7.5469 19.781-11.531 32.438-0.14062l156.61 149.44c22.406 21.281 34.969 45.516 39.562 76.312l66.891 452.06c1.125 7.4062 7.4531 12.656 14.625 12.656 0.70312 0 1.4531-0.046875 2.2031-0.1875 8.0625-1.1719 13.641-8.7188 12.422-16.781zm-662.76-43.781 23.953-25.406v50.344l-24.516 13.125zm-12 308.72c-11.766 3.7031-22.312 8.1094-31.594 13.125l-4.4531-84.094c40.688-10.594 77.344-29.109 111.33-56.297 19.031 27.703 44.062 50.953 73.219 67.828v16.875c-40.688 9.4219-87.656 23.438-148.5 42.562zm260.68 51-82.641-87.656v-8.5312c25.594 10.172 53.484 15.75 82.641 15.75s57.047-5.5781 82.641-15.75v8.4844zm296.76-121.97-4.5 84.094c-9.2812-5.0156-19.828-9.4219-31.641-13.125-60.891-19.125-107.86-33.188-148.45-42.562v-16.875c29.203-16.875 54.234-40.125 73.266-67.828 33.938 27.188 70.594 45.703 111.33 56.297zm-47.531-199.69-24.422-13.078c0.046876-8.2031 0.09375-15.75 0.09375-22.828 0.046876-10.312 0.09375-19.266 0.09375-27.234l23.672 25.078zm-54.234-95.016c0.65625 14.203 0.5625 31.781 0.375 58.922-0.046874 9.375-0.09375 19.594-0.14062 31.078-0.046876 0.46875-0.046876 0.9375 0 1.4062 0 6.2812-0.046876 12.938-0.046876 20.109 0 34.828-9.1875 67.547-25.219 95.906-0.65625 0.89062-1.2188 1.8281-1.6406 2.8125-18.234 30.938-44.719 56.484-76.453 73.453-0.98437 0.375-1.9219 0.89062-2.7656 1.4531-26.719 13.828-57 21.609-89.109 21.609-32.156 0-62.531-7.8281-89.297-21.656-0.79688-0.51562-1.6406-0.98438-2.5312-1.3125-31.734-16.969-58.266-42.516-76.453-73.453-0.42187-1.0312-0.98437-1.9688-1.6875-2.9062-16.031-28.312-25.219-61.031-25.219-95.859v-111.33l59.953-63.609c18.938-20.109 19.734-44.203 10.594-62.859 0.65625-0.046875 1.3125-0.09375 1.9688-0.09375l113.2-3.2812c0.5625-0.046875 1.1719-0.09375 1.7344-0.14062l125.48-18.422c7.8281-1.125 15.703-0.375 22.922 2.0625-1.9688 1.5469-3.7969 3.1406-5.5312 4.875-18.609 18.938-24.562 51.797 0.046874 77.859zm13.688-142.4c-9.75-8.8125-20.016-13.312-29.953-14.625-17.391-16.266-41.297-23.859-65.25-20.391l-124.64 18.281-112.31 3.2812c-9.7031 0.28125-18.797 1.4531-27.234 3.5625-16.828-8.1094-38.484-7.7812-57.938 9.9375-0.09375 0.09375-0.1875 0.14062-0.23438 0.23438l-62.438 59.578v-42c0-106.92 60.469-171.37 111.19-206.58 59.766-41.531 140.11-66.281 215.02-66.281 60.844 0 122.26 18.656 122.26 60.234v33.703c0 8.1562 6.6094 14.766 14.766 14.766h25.078c30.047 0 54.469 26.297 54.469 58.594v147.52l-62.391-59.531c-0.1875-0.14062-0.28125-0.23438-0.375-0.28125zm-652.26-70.734-88.547-46.641c-7.2188-3.7969-9.9844-12.75-6.1875-19.969s12.75-9.9844 19.922-6.1875l74.578 39.281 14.859-33.516c1.6875-3.75 4.8281-6.6562 8.7188-7.9688s8.1562-0.98438 11.766 0.9375l89.203 47.953c7.1719 3.8438 9.8906 12.797 6 20.016-2.6719 4.9688-7.7812 7.7812-13.031 7.7812-2.3438 0-4.7344-0.5625-6.9844-1.7812l-75.188-40.406-14.812 33.375c-1.6406 3.75-4.7812 6.6094-8.6719 7.9688-3.75 1.4062-7.9688 1.0781-11.625-0.84375zm21.703-274.5c-4.3594-6.8906-2.2969-16.031 4.5938-20.391s16.031-2.2969 20.391 4.5938l44.953 71.25 29.625-21.562c3.3281-2.3906 7.5-3.3281 11.531-2.5781 4.0312 0.79688 7.5469 3.2344 9.7031 6.7031l53.297 86.109c4.3125 6.9375 2.1562 16.031-4.7812 20.344-2.4375 1.5-5.1094 2.2031-7.7344 2.2031-4.9219 0-9.7969-2.4844-12.562-6.9844l-44.906-72.562-29.531 21.469c-3.2812 2.3906-7.4531 3.3281-11.484 2.5781s-7.5469-3.1875-9.7031-6.6094zm356.63 531.98-60.375 34.922c-2.3438 1.3594-4.875 1.9688-7.3594 1.9688-5.1094 0-10.078-2.625-12.797-7.3594-4.0781-7.0781-1.6875-16.078 5.3906-20.203l38.25-22.125-38.25-22.078c-7.0781-4.0781-9.4688-13.125-5.3906-20.156 4.0781-7.0781 13.125-9.4688 20.156-5.3906l60.375 34.875c4.5938 2.625 7.3594 7.5 7.3594 12.797 0 5.25-2.8125 10.125-7.3594 12.75zm211.13-54.984c4.0781 7.0781 1.6406 16.125-5.3906 20.156l-38.297 22.078 38.297 22.125c7.0781 4.0781 9.4688 13.125 5.3906 20.156-2.7188 4.7344-7.6875 7.3594-12.797 7.3594-2.5312 0-5.0625-0.65625-7.3594-1.9688l-60.469-34.922c-4.5938-2.625-7.3594-7.5-7.3594-12.797s2.8125-10.172 7.4062-12.797l60.469-34.875c7.0312-4.0312 16.031-1.5938 20.109 5.4844zm-59.203 187.03c-2.9062 3.7969-7.3125 5.8125-11.766 5.8125-3.1406 0-6.2812-0.98438-8.9531-3.0469l-23.719-18.141c-4.875-3.75-11.719-3.8438-16.734-0.23438-15.234 11.062-35.766 11.062-51.047-0.046875-5.0156-3.6094-11.719-3.5156-16.688 0.28125l-23.719 18.141c-6.4688 4.9688-15.75 3.7031-20.719-2.7656-4.9219-6.4688-3.7031-15.75 2.7656-20.719l23.719-18.141c15.375-11.719 36.234-12.047 51.938-0.70312 4.9219 3.6094 11.531 3.6094 16.406 0.046875 15.516-11.203 36.891-10.875 51.984 0.70312l23.719 18.094c6.5156 4.9688 7.7344 14.25 2.8125 20.719zm445.45-436.18-88.5 46.641c-3.6094 1.9219-7.875 2.25-11.719 0.89062s-6.9844-4.2188-8.6719-7.9688l-14.812-33.375-75.188 40.406c-2.2031 1.2188-4.6406 1.7812-6.9844 1.7812-5.25 0-10.359-2.8125-13.031-7.7812-3.8438-7.1719-1.1719-16.125 6-20.016l89.203-47.953c3.6094-1.9219 7.875-2.2969 11.766-0.9375 3.8906 1.3125 7.0312 4.2188 8.7188 7.9688l14.859 33.516 74.531-39.281c7.2188-3.7969 16.172-1.0312 19.969 6.1875 3.8438 7.2188 1.0781 16.125-6.1406 19.922zm-284.34-103.64 53.297-86.109c2.1562-3.4688 5.6719-5.9062 9.7031-6.7031s8.2031 0.14062 11.531 2.5312l29.672 21.562 44.906-71.25c4.3594-6.8906 13.5-8.9531 20.391-4.5938 6.8906 4.3594 8.9531 13.453 4.6406 20.344l-53.344 84.609c-2.2031 3.4688-5.6719 5.8594-9.7031 6.6094s-8.1562-0.14062-11.484-2.5781l-29.578-21.516-44.906 72.562c-2.8125 4.5-7.6406 6.9844-12.562 6.9844-2.6719 0-5.3438-0.70312-7.7344-2.2031-6.9844-4.2188-9.1406-13.312-4.8281-20.25z"/>
</svg>
