<?xml version="1.0" encoding="UTF-8"?>
<svg id="Layer_1" data-name="Layer 1" xmlns="http://www.w3.org/2000/svg" viewBox="0 0 1139.954 680.662">
  <path d="M1128.831,611.623c-6.141,0-11.156,5.062-11.156,11.156,0,19.547-15.844,35.391-35.391,35.391h-62.859v-103.78h15c53.625,0,97.312-43.688,97.312-97.312,0-154.45-124.78-276.47-276.47-276.47h-85.547v-17.625c0-15.938-13.078-29.062-29.062-29.062h-15.469v-20.062h273.71c20.766,0,37.781-16.922,37.781-37.781s-16.922-37.781-37.781-37.781h-274.31c-2.625-21.469-20.859-38.297-43.078-38.297s-40.453,16.781-43.078,38.297h-274.22c-20.766,0-37.781,16.922-37.781,37.781s16.922,37.781,37.781,37.781h273.61v20.062h-15.469c-15.938,0-29.062,13.078-29.062,29.062v17.625H119.152l-28.219-72c-5.391-13.312-20.297-20.156-33.844-15.703l-38.531,12.609C5.105,110.061-2.583,123.983.792,137.811l27.609,114.23c.234,1.453.141,2.062,0,2.531l-11.625,81.375c-1.219,7.781,1.219,15.703,6.375,21.703s12.703,9.469,20.625,9.469h31.078c10.312,0,20.062-6,24.469-15.375l31.078-63.234h273.71c41.859,151.31,179.53,263.16,343.22,265.92v103.92h-127.45c-6.141,0-11.156,5.062-11.156,11.156,0,6.141,5.062,11.156,11.156,11.156h462.37c31.781,0,57.703-25.922,57.703-57.703,0-6.141-5.062-11.156-11.156-11.156l.033-.18ZM1014.451,76.073c0,8.531-6.938,15.375-15.375,15.375h-273.71v-30.844h273.71c8.531,0,15.375,6.938,15.375,15.375v.094ZM364.291,91.448c-8.531,0-15.375-6.938-15.375-15.375,0-8.391,6.938-15.375,15.375-15.375h273.61v30.844h-273.61v-.094ZM660.351,43.682c0-11.766,9.609-21.375,21.375-21.375s21.375,9.609,21.375,21.375v90.141h-42.609V43.682h-.141ZM615.96,162.842c0-3.703,3-6.703,6.703-6.703h118.22c3.703,0,6.703,3,6.703,6.703v17.531h-131.53v-17.531h-.096ZM861.12,202.92c124.45,2.766,228.24,95.625,245.63,217.45h-106.55c-76.688,0-139.08-62.391-139.08-139.08v-78.37ZM79.2,341.76c-.844,1.688-2.625,2.766-4.453,2.766h-31.078c-1.922,0-3.141-1.078-3.703-1.688-.609-.609-1.453-2.062-1.078-3.938l11.531-81c.609-3.141.469-6.375-.375-10.688l-27.703-114.7c-.609-2.531.844-5.062,3.141-5.859l38.391-12.469s.938-.234,1.547-.234c1.922,0,3.844,1.219,4.547,3l52.312,133.55c.469,1.219.375,2.766-.141,3.844l-43.078,87.609.141-.193ZM141.356,265.916l.938-1.781c3.375-6.703,3.703-14.859.938-21.938l-15.375-39.375h263.39c.609,21.469,3.141,42.609,7.453,63.141l-257.26-.047h-.083ZM413.516,202.775h425.16v78.469c0,89.062,72.469,161.53,161.53,161.53h108.84c.234,4.688.375,9.375.375,14.156,0,41.391-33.609,75-75,75h-280.78c-183.94,0-334.22-146.63-340.08-329.16l-.045.005ZM769.806,658.065v-103.78h227.29v103.78h-227.29ZM784.947,365.005v-91.078c0-18-14.625-32.531-32.531-32.531h-40.453c-18,0-32.531,14.625-32.531,32.531v91.078c0,18,14.625,32.531,32.531,32.531h40.453c18,0,32.531-14.625,32.531-32.531ZM762.635,365.005c0,5.625-4.547,10.219-10.219,10.219h-40.453c-5.625,0-10.219-4.547-10.219-10.219v-91.078c0-5.625,4.547-10.219,10.219-10.219h40.453c5.625,0,10.219,4.547,10.219,10.219v91.078ZM586.475,241.295h-40.453c-18,0-32.531,14.625-32.531,32.531v91.078c0,18,14.625,32.531,32.531,32.531h40.453c18,0,32.531-14.625,32.531-32.531v-91.078c0-18-14.625-32.531-32.531-32.531h0ZM596.694,365.005c0,5.625-4.547,10.219-10.219,10.219h-40.453c-5.625,0-10.219-4.547-10.219-10.219v-91.078c0-5.625,4.547-10.219,10.219-10.219h40.453c5.625,0,10.219,4.547,10.219,10.219v91.078Z"/>
</svg>