<?xml version="1.0" encoding="UTF-8"?>
<svg id="Layer_1" data-name="Layer 1" xmlns="http://www.w3.org/2000/svg" viewBox="0 0 843.765 1139.999">
  <path d="M698.406,320.399c-22.801-6-46.801,8.398-52.801,31.199l-16.801,64.801c-9.602,36-40.801,62.398-78,66-34.801,2.398-74.398,4.801-117.6,4.801-10.801,0-22.801,0-33.602,1.199-88.801,4.801-163.2,66-187.2,150l-27.602,102c-6,22.801,7.199,46.801,30,52.801,3.602,1.199,7.199,1.199,10.801,1.199,19.199,0,36-13.199,42-31.199l27.602-102c6-21.602,18-40.801,33.602-55.199l-1.199,156-90,315.6c-7.199,25.199,7.199,51.602,33.602,58.801,4.801,1.199,8.398,2.398,13.199,2.398,20.398,0,39.602-13.199,45.602-34.801l90-316.8h20.398l-4.801,303.6c0,26.398,20.398,48,46.801,49.199h1.199c26.398,0,48-21.602,48-46.801l4.801-322.8,1.199-200.4c7.199,0,14.398-1.199,20.398-1.199,74.402-6,136.8-58.801,154.8-130.8l16.801-64.801c6-24-8.398-46.801-31.199-52.801v.002Z"/>
  <path d="M530.406,364.799c0,53.02-42.98,96-96,96s-96-42.98-96-96,42.98-96,96-96,96,42.98,96,96Z"/>
  <path d="M836.406,254.399c-8.398-8.398-22.801-8.398-30,1.199l-32.398,33.602c-8.398,8.398-8.398,22.801,1.199,30,3.602,3.602,9.602,6,14.398,6,6,0,10.801-2.398,15.602-7.199l32.398-33.602c8.402-8.398,8.402-21.598-1.199-30Z"/>
  <path d="M732.006,197.999c-12-2.398-22.801,4.801-26.398,15.602l-10.801,45.602c-2.398,12,4.801,22.801,15.602,26.398,1.199,0,3.602,1.199,4.801,1.199,9.602,0,18-7.199,20.398-16.801l10.801-45.602c4.797-12-2.402-24-14.402-26.398h0Z"/>
  <path d="M612.006,272.399c2.398,9.602,10.801,15.602,20.398,15.602,2.398,0,3.602,0,6-1.199,12-3.602,18-15.602,14.398-26.398l-13.199-45.602c-3.602-12-15.602-18-26.398-14.398-12,3.602-18,15.602-14.398,26.398l13.199,45.597Z"/>
  <path d="M289.206,308.399c13.199,6,27.602-7.199,20.398-20.398l-27.602-60c13.199-22.801,20.398-48,20.398-76.801C302.4,68.399,235.201,0,151.2,0,68.399,0,0,67.199,0,151.2c0,82.801,67.199,151.2,151.2,151.2,27.602,0,54-7.199,76.801-20.398l61.205,26.397ZM67.206,177.599c-14.398,0-26.398-12-26.398-26.398s12-26.398,26.398-26.398,26.398,12,26.398,26.398-12,26.398-26.398,26.398h0ZM152.405,177.599c-14.398,0-26.398-12-26.398-26.398s12-26.398,26.398-26.398,26.398,12,26.398,26.398-12,26.398-26.398,26.398ZM210.007,151.197c0-14.398,12-26.398,26.398-26.398s26.398,12,26.398,26.398-12,26.398-26.398,26.398c-14.398.004-26.398-11.996-26.398-26.398Z"/>
</svg>