<?xml version="1.0" encoding="UTF-8"?>
<svg id="Layer_1" data-name="Layer 1" xmlns="http://www.w3.org/2000/svg" viewBox="0 0 746.886 755.997">
  <path d="M646.018,0h-182.44c-55.688,0-100.88,45.188-100.88,100.88v223.69c0,9.281,7.547,16.828,16.828,16.828h266.48c55.734,0,100.88-45.188,100.88-100.88V100.878c0-26.766-10.641-52.406-29.531-71.344C698.417,10.643,672.777.003,646.011.003l.007-.003ZM525.228,96.516l-13.031,177.52c-1.266,12.234-11.578,21.562-23.859,21.562s-22.641-9.328-23.906-21.562l-13.031-177.56v.047c-.984-10.125,2.156-20.156,8.812-27.891,6.609-7.688,16.078-12.328,26.203-12.844s20.062,3.141,27.422,10.125,11.531,16.688,11.578,26.812c0,1.266-.047,2.531-.188,3.797v-.006ZM658.208,96.516l-13.031,177.56v-.047c-1.266,12.234-11.531,21.562-23.812,21.562s-22.594-9.328-23.859-21.562l-13.125-177.56.047.047c-1.031-10.078,2.156-20.156,8.719-27.844,6.609-7.688,16.078-12.375,26.203-12.891s20.062,3.094,27.422,10.078,11.578,16.641,11.625,26.766c0,1.312-.047,2.578-.188,3.891h-.001Z"/>
  <path d="M179.378,548.44v117.28c28.641,4.266,57.562,6.328,86.484,6.234,28.031.094,56.016-1.828,83.766-5.812v-122.26c17.438-45.797,27.703-93.984,30.516-142.92l1.922-18.844v.047c-33.188,0-60.094-26.906-60.094-60.141v-96.75l-1.266-73.125c-.234-13.594-11.391-24.516-24.984-24.375-13.594.094-24.562,11.203-24.562,24.797v.938l6.047,169.08v-.047c.234,6-4.266,11.109-10.266,11.672-5.953.562-11.344-3.609-12.234-9.562l-29.344-195.52c-2.016-13.266-13.875-22.734-27.234-21.703s-23.672,12.141-23.625,25.547c0,.938.094,1.828.188,2.766l22.078,197.06c.562,4.922-2.812,9.469-7.734,10.312s-9.609-2.297-10.734-7.125l-43.078-178.78c-2.906-11.906-14.859-19.266-26.812-16.5h-.188.047c-11.625,2.766-19.031,14.156-16.828,25.875l44.578,234.79c.797,4.594-1.828,9.047-6.234,10.5-4.406,1.5-9.234-.516-11.25-4.688l-37.031-74.625c-6.328-12.75-21.516-18.375-34.594-12.75-13.125,5.578-19.547,20.438-14.719,33.844,35.531,96.656,82.453,157.45,147.19,194.76l-.004.026Z"/>
  <path d="M391.628,553.4v43.125c61.547,13.688,98.109,35.719,98.109,52.312,0,25.969-89.297,65.156-223.87,65.156s-223.87-39.188-223.87-65.156c0-16.312,35.391-37.922,95.344-51.703v-25.453c-6.234-4.266-12.281-8.719-18.141-13.547C50.012,575.29,0,605.806,0,648.837c0,70.312,133.74,107.16,265.87,107.16s265.92-36.844,265.92-107.2c0-47.203-60.375-79.406-140.16-95.391l-.002-.006Z"/>
  <path d="M517.628,408.32c0,39.094-58.641,39.094-58.641,0s58.641-39.047,58.641,0"/>
  <path d="M650.658,408.32c0,39.094-58.594,39.094-58.594,0s58.594-39.047,58.594,0"/>
</svg>