<?xml version="1.0" encoding="UTF-8"?>
<svg id="Layer_1" data-name="Layer 1" xmlns="http://www.w3.org/2000/svg" viewBox="0 0 1137.512 1129.708">
  <defs>
    <style>
      .cls-1 {
        fill-rule: evenodd;
      }
    </style>
  </defs>
  <path class="cls-1" d="M781.236,135.515c-5.766-5.766-5.766-15.141,0-20.906s15.141-5.766,20.906,0l22.781,22.781,55.547-55.547c5.766-5.766,15.141-5.766,20.906,0s5.766,15.141,0,20.906l-66,65.953c-5.766,5.766-15.141,5.766-20.906,0l-33.234-33.187ZM963.766,764.155c14.578,0,26.438,11.812,26.438,26.438-.047,14.578-11.859,26.438-26.438,26.438s-26.391-11.812-26.391-26.438c-.047-14.625,11.766-26.438,26.391-26.438ZM181.896,768.327c14.578,0,26.438,11.812,26.438,26.438s-11.812,26.438-26.438,26.438-26.391-11.812-26.391-26.438c-.047-14.625,11.766-26.438,26.391-26.438ZM769.236,563.067c-7.641,4.641-12.844,11.906-14.953,19.922-2.156,8.062-1.219,16.922,3.328,24.703l6.75,11.578c-38.812,14.859-83.672-3.328-120.42-18.188-30.609-12.422-56.531-22.875-76.641-14.438-3.562,1.5-9.281,3.844-15.375,6.328-26.578,10.828-62.062,25.312-87.328,40.641-9.469,5.766-15.609,10.266-21.094,15.656-1.641,1.641-3.141,3.281-4.641,4.969l-55.453-9.422-15.328-9.047,11.859-20.391c4.547-7.781,5.484-16.641,3.328-24.703-2.109-8.016-7.312-15.281-14.953-19.922l-162.79-98.672-.141-.094.047-.047-.281-.141c-.234-.141-.422-.281-.656-.375-7.594-4.219-16.172-5.016-24.047-2.906s-15.047,7.219-19.641,14.766l-.094.141h-.047l-.141.281c-.094.141-.188.328-.281.469L4.434,751.735c-4.547,7.781-5.484,16.641-3.328,24.703,2.109,8.016,7.312,15.281,14.953,19.922l162.79,98.672.141.094-.047.047.281.141c.234.141.469.281.656.375,7.594,4.219,16.172,5.016,24.047,2.906s15.047-7.219,19.641-14.766l.094-.141.047.047.141-.281c.094-.188.188-.328.281-.469l4.641-8.016,22.547,25.078-6.094,8.625c-14.672,20.719-12.516,42.469-1.969,58.828,3.891,6.094,9,11.391,14.766,15.562,5.766,4.125,12.422,7.219,19.5,8.906,2.438.609,4.922.984,7.359,1.219-5.719,36.703,32.25,69.141,67.547,59.016,7.828,28.031,39.141,47.297,67.547,38.203,12.141,40.453,66.141,55.359,93.609,17.297l4.125-5.719c23.438,6.75,46.828,13.547,70.219,20.484,34.219,10.125,84.141-1.875,87.609-43.031,31.922,6.516,67.172-14.438,65.25-48.844l-.047-.609c32.766,3.984,63.891-15.562,60.047-52.031,39.281,2.484,69.891-40.125,51.094-75.938,15.562-11.719,28.031-24.094,44.062-40.031,1.969-1.922,3.984-3.938,6.094-6l11.25,19.266c.094.188.188.328.281.469l.141.281h.047l.094.141c4.547,7.547,11.719,12.656,19.641,14.766,7.828,2.109,16.406,1.312,24-2.906.234-.141.469-.234.656-.375l.281-.141.094-.094.141-.094,162.79-98.672c7.641-4.641,12.844-11.906,14.953-19.969,2.156-8.062,1.219-16.922-3.328-24.703l-155.76-267.47c-.094-.188-.188-.328-.281-.469l-.141-.281-.047.047-.094-.141c-4.594-7.547-11.766-12.656-19.641-14.766-7.828-2.109-16.406-1.312-24.047,2.906-.234.141-.469.234-.656.375l-.281.141.047.047-.141.094-162.799,98.631ZM886.846,829.647c-4.078,3.984-7.922,7.781-11.531,11.438-16.031,15.891-28.266,28.078-43.406,39.234-57.562-46.828-102.38-79.922-145.03-106.88-43.688-27.609-84.891-48.703-134.86-71.297-3.047-1.359-6.281-1.641-9.281-.938-6.75,1.078-11.156,1.781-14.953,2.391-7.312,1.172-13.078,2.109-14.438,2.25-4.594.469-8.484,2.953-10.828,6.516l-20.391,29.625c-23.953,34.875-47.25,47.156-64.125,46.734-4.547-.094-8.484-1.219-11.719-3.047-2.859-1.594-5.109-3.844-6.562-6.516-3.281-5.812-2.859-14.016,2.906-22.266l49.688-71.297c4.875-7.031,8.297-11.719,11.953-15.328,3.703-3.703,8.25-6.984,15.516-11.391,22.734-13.781,57.281-27.891,83.156-38.438,5.156-2.109,9.938-4.031,15.609-6.422,9-3.75,29.719,4.641,54.281,14.578,43.219,17.484,96.234,38.953,146.53,16.594l107.485,184.46ZM947.127,489.667l-162.66,98.578c-.844.516-1.453,1.359-1.688,2.297-.234.797-.141,1.688.328,2.438l155.72,267.42.234.328.141.281h-.047c.469.656,1.172,1.172,2.016,1.359.703.188,1.406.141,2.016-.141l.047-.047.281-.141v.047l162.66-98.578c.844-.516,1.453-1.359,1.688-2.297.234-.797.141-1.641-.328-2.438l-155.68-267.42-.234-.328-.141-.281.047-.047c-.469-.656-1.172-1.172-2.016-1.359-.703-.188-1.406-.141-2.016.141l-.047.047-.281.141h-.04ZM815.787,905.167l.094.094.094.047h.047v.047l.094.094h.047l.094.094h.047v.047l.188.188h.047l.141.141h.047v.047h.047l.094.094v.047h.047l.094.094.094.047.047.047h.141l.047.047.188.141.047.047h.094l.047.047.234.188.047.047h.047l.047.047c2.859,2.062,5.109,4.312,6.797,6.656,12.609,17.438-7.594,41.25-26.812,34.359-5.156-1.828-10.031-5.25-15.328-8.297l-149.9-86.062c-7.078-4.031-16.078-1.594-20.109,5.484s-1.594,16.078,5.484,20.109l140.76,80.812c27.422,16.5,14.391,57.703-33.234,35.719-.516-.328-1.031-.656-1.594-.891l-137.02-68.859c-7.266-3.656-16.078-.703-19.734,6.562s-.703,16.078,6.562,19.734l124.03,62.344c27.891,14.016,10.031,44.438-19.547,35.25-3.422-1.078-7.688-3.516-11.109-5.062l-102.56-46.922c-7.406-3.375-16.125-.141-19.5,7.266-.469,1.078-.844,2.203-1.078,3.328-3.703-5.438-8.344-10.172-13.547-13.969-5.766-4.219-12.422-7.359-19.453-9.094-2.297-.562-4.594-.984-6.938-1.266,7.406-31.828-18.703-62.156-50.109-64.359,5.859-49.172-61.688-83.578-95.438-37.078l-4.031,5.531c-.656-1.219-1.359-2.391-2.109-3.562-3.938-6.094-9-11.391-14.812-15.516-5.766-4.125-12.422-7.219-19.5-8.906-16.594-3.984-34.781-.141-48.703,15.656l-24.656-27.469,108.8-186.84,17.484,10.312c1.734,1.031,3.562,1.641,5.484,1.922l43.312,7.359-41.109,59.062c-12.891,18.516-12.984,38.344-4.406,53.531,4.078,7.219,10.172,13.359,17.766,17.672,7.266,4.125,15.891,6.609,25.547,6.844,25.453.609,58.453-14.953,89.062-59.438l16.922-24.562c2.578-.422,5.672-.891,9.094-1.453,3.844-.609,8.016-1.266,11.484-1.828,47.156,21.469,86.25,41.578,127.36,67.547,41.672,26.578,86.297,59.578,144.1,106.69l-.01-.004ZM518.267,1051.037c-9.516,13.172-18.984,26.297-28.453,39.469-17.953,24.891-55.266-3.094-37.219-28.125l28.453-39.469c17.953-24.891,55.266,3.094,37.219,28.125ZM536.126,1076.537l6-8.344c10.875-15.047,12.75-30.656,8.906-44.344.281.188.609.328.938.469l82.922,37.875c29.953,13.734-2.062,42.703-38.531,31.922-20.062-5.906-40.172-11.719-60.234-17.578h0ZM269.366,925.647c6.516-9.234,13.078-18.469,19.594-27.703,6.234-8.812,14.578-11.109,21.984-9.328,3.141.75,6.234,2.25,9.094,4.266,2.859,2.062,5.344,4.594,7.172,7.453,4.547,7.031,5.344,16.594-1.266,25.969l-16.266,23.016-4.828,6.656c-6,7.172-13.641,9-20.438,7.359-3.141-.75-6.234-2.203-9.094-4.266s-5.344-4.594-7.172-7.453c-4.594-7.078-5.391-16.641,1.219-25.969h0ZM213.163,843.194c.234-.422.422-.797.703-1.172l121.08-207.98c.094-.141.188-.328.281-.469s.141-.234.234-.328l18.984-32.531c.422-.75.516-1.641.328-2.438-.234-.938-.844-1.781-1.688-2.297l-162.66-98.578h-.047l-.281-.141-.047-.047c-.609-.281-1.359-.328-2.016-.141-.797.234-1.547.703-2.016,1.359l.047.047-.141.281-.234.328L29.932,766.509c-.422.75-.516,1.641-.328,2.438.234.891.844,1.734,1.688,2.297l162.66,98.578.047-.047.281.141.047.047c.609.281,1.312.328,2.016.141.844-.234,1.547-.703,2.016-1.359h-.047l.141-.281.234-.328,14.477-24.94ZM434.273,957.284c18.469-22.594,53.672,5.203,36.094,29.578l-47.906,66.375c-17.859,24.75-55.453-2.859-37.219-28.125l49.031-67.828ZM356.226,1014.612c-18.047,24.844-55.359-3-37.219-27.984,21.047-28.969,42.047-57.938,63.047-86.906,18.047-24.844,55.359,3,37.219,27.984l-63.047,86.906ZM468.866,82.922h-120.84c-17.438,0-31.781,14.344-31.781,31.781v316.97c0,8.766,3.562,16.734,9.328,22.453,5.766,5.766,13.688,9.328,22.453,9.328h441.52c8.766,0,16.688-3.562,22.453-9.328l-.047-.047.047-.047c5.766-5.766,9.328-13.688,9.328-22.406l-.047-182.72c6.516,1.031,13.219,1.594,20.016,1.594,34.594,0,65.906-14.016,88.547-36.703,22.641-22.641,36.656-53.953,36.656-88.547s-14.016-65.859-36.656-88.547C907.203,14.062,875.891,0,841.297,0s-65.859,14.016-88.547,36.703c-12.891,12.891-23.016,28.594-29.297,46.125h-54.797v-46.969c0-9.844-4.031-18.797-10.5-25.266S642.734.093,632.89.093h-128.26c-9.844,0-18.797,4.031-25.266,10.5s-10.5,15.422-10.5,25.266l.003,47.063ZM639.126,82.922h-11.438l-.047-27.047c0-8.156-6.609-14.766-14.766-14.766h-88.219c-8.156,0-14.766,6.609-14.766,14.766v27.047h-11.438l-.047-47.062c0-1.688.703-3.234,1.828-4.359s2.672-1.828,4.359-1.828h128.29c1.688,0,3.234.703,4.406,1.828,1.125,1.125,1.828,2.672,1.828,4.359l.009,47.062ZM348.026,112.453h368.72c-.422,4.219-.656,8.531-.656,12.844,0,34.594,14.016,65.859,36.703,88.547,5.25,5.297,11.016,10.078,17.109,14.344-22.734,32.438-59.484,51.75-99.141,51.75l-203.95-.047c-66.609,0-120.98-54.375-120.98-120.98v-44.203c-.047-1.312.891-2.25,2.203-2.25l-.008-.005ZM598.106,82.922h-58.641v-12.234h58.641v12.234ZM841.296,220.972c26.391,0,50.344-10.688,67.641-28.031,17.297-17.297,28.031-41.203,28.031-67.641s-10.734-50.344-28.031-67.641c-17.297-17.297-41.203-28.031-67.641-28.031s-50.344,10.688-67.641,28.031c-18.047,18.047-28.031,42.281-28.031,67.641,0,52.828,42.844,95.672,95.672,95.672ZM345.776,248.3c28.406,38.344,73.078,61.125,120.98,61.125h203.95c47.812,0,92.578-22.875,120.98-61.219v183.47c0,.656-.234,1.219-.656,1.594l-.047-.047c-.422.422-.984.656-1.547.656l-441.42.047c-.609,0-1.172-.234-1.547-.656-.422-.422-.656-.938-.656-1.547l-.037-183.423ZM522.036,190.128h93.469c8.156,0,14.766,6.609,14.766,14.766v39.281c0,8.156-6.609,14.766-14.766,14.766h-93.469c-8.156,0-14.766-6.609-14.766-14.766v-39.281c0-8.156,6.609-14.766,14.766-14.766h0ZM600.739,219.659v9.703h-63.938v-9.703h63.938Z"/>
</svg>