<svg xmlns="http://www.w3.org/2000/svg" version="1.1" viewBox="-5.0 -10.0 110.0 135.0">
 <path d="m60.57 83.961v-19.934c0-1.207-0.49609-2.3047-1.293-3.1016s-1.8984-1.293-3.1016-1.293l-12.352-0.003906c-1.207 0-2.3047 0.49609-3.1016 1.293s-1.293 1.8945-1.293 3.1016v19.938zm-24.996 0h-13.406c-0.32031 0-0.60547-0.125-0.80859-0.33203h-0.003906l0.003906-0.003906c-0.20703-0.20703-0.33594-0.49609-0.33594-0.80859l-0.003907-33.496 28.395-21.121c0.17578-0.13281 0.37891-0.19531 0.58203-0.19531s0.40625 0.066406 0.58203 0.19531l28.395 21.121v33.492c0 0.32031-0.125 0.60547-0.33203 0.80859l-0.007813 0.007812c-0.20312 0.20312-0.48828 0.33203-0.80859 0.33203h-13.398v-19.934c0-2.2695-0.92969-4.332-2.4219-5.8281-1.4922-1.4961-3.5586-2.4219-5.8281-2.4219l-12.352-0.003906c-2.2695 0-4.3359 0.92969-5.8281 2.4219-1.4961 1.4961-2.4219 3.5586-2.4219 5.8281zm46.355-37.234c0.085937 0.054688 0.16797 0.11328 0.24219 0.17969l5.1211 3.8086h0.003906c0.63672 0.47266 1.4062 0.64453 2.1367 0.53516 0.73047-0.10547 1.418-0.49219 1.8867-1.125l0.003907-0.007812c0.46875-0.63281 0.64062-1.4023 0.53125-2.1328-0.10547-0.73047-0.49219-1.418-1.1211-1.8867h-0.003906l-12.742-9.4805c-0.50781-0.375-0.77734-0.95703-0.77734-1.543h-0.007813v-12.27c0-0.26563-0.10938-0.50781-0.28516-0.67969-0.17578-0.17578-0.41797-0.28516-0.67969-0.28516h-3.5508c-0.26562 0-0.50781 0.10938-0.67969 0.28516-0.17578 0.17578-0.28516 0.41797-0.28516 0.67969v5.3242c0 1.0664-0.86328 1.9258-1.9258 1.9258-0.48438 0-0.92969-0.17969-1.2695-0.47656l-17.945-13.344c-0.17578-0.12891-0.37891-0.19531-0.58203-0.19531s-0.40625 0.066407-0.58203 0.19531l-40.031 29.777c-0.066407 0.058593-0.13672 0.11328-0.21094 0.16016-0.57812 0.46875-0.92969 1.125-1.0312 1.8164-0.10156 0.69531 0.046875 1.4258 0.46875 2.043 0.050781 0.058594 0.097657 0.12109 0.13672 0.18359 0.46875 0.57812 1.125 0.92969 1.8164 1.0312 0.69531 0.10156 1.4258-0.046875 2.043-0.46875 0.070313-0.058594 0.14062-0.10938 0.21484-0.15625l5.0039-3.7188c0.074219-0.066406 0.15625-0.12891 0.24219-0.17969l29.059-21.617c0.86328-0.64453 1.8672-0.96484 2.8711-0.96484s2.0078 0.32031 2.8711 0.96484zm0.90234 5.4609v30.629c0 1.3711-0.5625 2.6172-1.4648 3.5273l-0.011719 0.011719c-0.91016 0.90234-2.1523 1.4609-3.5234 1.4609h-55.664c-1.3711 0-2.6211-0.5625-3.5312-1.4727l-0.003907 0.003906c-0.90625-0.90625-1.4648-2.1562-1.4648-3.5352v-30.625l-2.168 1.6133-0.003906 0.003907c-1.4883 1.1094-3.2852 1.5078-4.9844 1.2578-1.6953-0.25-3.2969-1.1445-4.4062-2.6289l-0.011719-0.015625c-1.1055-1.4883-1.5078-3.2852-1.2578-4.9844 0.25-1.6953 1.1484-3.3008 2.6328-4.4102l0.011719-0.007813 40.152-29.867c0.86328-0.64453 1.8672-0.96484 2.8711-0.96484s2.0078 0.32031 2.8711 0.96484l14.996 11.156v-1.4961c0-1.3281 0.54297-2.5352 1.4141-3.4062s2.0781-1.4141 3.4062-1.4141h3.5508c1.3281 0 2.5352 0.53906 3.4062 1.4141 0.87109 0.87109 1.4141 2.0781 1.4141 3.4062l-0.007812 11.305 11.848 8.8125c0.089844 0.058594 0.17969 0.125 0.26172 0.19922 1.4062 1.1055 2.2578 2.6641 2.5 4.3086 0.24219 1.6445-0.125 3.3789-1.1562 4.8398-0.0625 0.10156-0.13281 0.19531-0.21484 0.28516-1.1055 1.4062-2.6641 2.2578-4.3086 2.5-1.6445 0.24219-3.3789-0.125-4.8398-1.1562-0.089843-0.054688-0.17969-0.12109-0.26172-0.19531z" fill-rule="evenodd"/>
<text x="0.0" y="117.5" font-size="5.0" font-weight="bold" font-family="Arbeit Regular, Helvetica, Arial-Unicode, Arial, Sans-serif" fill="#000000">Created by Ilyas Aji Furqon</text><text x="0.0" y="122.5" font-size="5.0" font-weight="bold" font-family="Arbeit Regular, Helvetica, Arial-Unicode, Arial, Sans-serif" fill="#000000">from Noun Project</text></svg>