<?xml version="1.0" encoding="UTF-8"?>
<svg width="1200pt" height="1200pt" version="1.1" viewBox="0 0 1200 1200" xmlns="http://www.w3.org/2000/svg">
 <path d="m726.84 1007.5v-239.21c0-14.484-5.9531-27.656-15.516-37.219s-22.781-15.516-37.219-15.516l-148.22-0.046875c-14.484 0-27.656 5.9531-37.219 15.516s-15.516 22.734-15.516 37.219v239.26zm-299.95 0h-160.87c-3.8438 0-7.2656-1.5-9.7031-3.9844h-0.046875l0.046875-0.046875c-2.4844-2.4844-4.0312-5.9531-4.0312-9.7031l-0.046875-401.95 340.74-253.45c2.1094-1.5938 4.5469-2.3438 6.9844-2.3438s4.875 0.79688 6.9844 2.3438l340.74 253.45v401.9c0 3.8438-1.5 7.2656-3.9844 9.7031l-0.09375 0.09375c-2.4375 2.4375-5.8594 3.9844-9.7031 3.9844h-160.78v-239.21c0-27.234-11.156-51.984-29.062-69.938-17.906-17.953-42.703-29.062-69.938-29.062l-148.22-0.046874c-27.234 0-52.031 11.156-69.938 29.062-17.953 17.953-29.062 42.703-29.062 69.938zm556.26-446.81c1.0312 0.65625 2.0156 1.3594 2.9062 2.1562l61.453 45.703h0.046876c7.6406 5.6719 16.875 7.7344 25.641 6.4219 8.7656-1.2656 17.016-5.9062 22.641-13.5l0.046874-0.09375c5.625-7.5938 7.6875-16.828 6.375-25.594-1.2656-8.7656-5.9062-17.016-13.453-22.641h-0.046876l-152.9-113.77c-6.0938-4.5-9.3281-11.484-9.3281-18.516h-0.09375v-147.24c0-3.1875-1.3125-6.0938-3.4219-8.1562-2.1094-2.1094-5.0156-3.4219-8.1562-3.4219h-42.609c-3.1875 0-6.0938 1.3125-8.1562 3.4219-2.1094 2.1094-3.4219 5.0156-3.4219 8.1562v63.891c0 12.797-10.359 23.109-23.109 23.109-5.8125 0-11.156-2.1562-15.234-5.7188l-215.34-160.13c-2.1094-1.5469-4.5469-2.3438-6.9844-2.3438s-4.875 0.79688-6.9844 2.3438l-480.37 357.32c-0.79688 0.70313-1.6406 1.3594-2.5312 1.9219-6.9375 5.625-11.156 13.5-12.375 21.797-1.2188 8.3438 0.5625 17.109 5.625 24.516 0.60938 0.70312 1.1719 1.4531 1.6406 2.2031 5.625 6.9375 13.5 11.156 21.797 12.375 8.3438 1.2188 17.109-0.5625 24.516-5.625 0.84375-0.70312 1.6875-1.3125 2.5781-1.875l60.047-44.625c0.89062-0.79687 1.875-1.5469 2.9062-2.1562l348.71-259.4c10.359-7.7344 22.406-11.578 34.453-11.578 12.047 0 24.094 3.8438 34.453 11.578zm10.828 65.531v367.55c0 16.453-6.75 31.406-17.578 42.328l-0.14063 0.14062c-10.922 10.828-25.828 17.531-42.281 17.531h-667.97c-16.453 0-31.453-6.75-42.375-17.672l-0.046874 0.046875c-10.875-10.875-17.578-25.875-17.578-42.422v-367.5l-26.016 19.359-0.046876 0.046875c-17.859 13.312-39.422 18.094-59.812 15.094-20.344-3-39.562-13.734-52.875-31.547l-0.14062-0.1875c-13.266-17.859-18.094-39.422-15.094-59.812 3-20.344 13.781-39.609 31.594-52.922l0.14062-0.09375 481.82-358.4c10.359-7.7344 22.406-11.578 34.453-11.578s24.094 3.8438 34.453 11.578l179.95 133.87v-17.953c0-15.938 6.5156-30.422 16.969-40.875s24.938-16.969 40.875-16.969h42.609c15.938 0 30.422 6.4688 40.875 16.969 10.453 10.453 16.969 24.938 16.969 40.875l-0.09375 135.66 142.18 105.75c1.0781 0.70312 2.1562 1.5 3.1406 2.3906 16.875 13.266 27.094 31.969 30 51.703 2.9062 19.734-1.5 40.547-13.875 58.078-0.75 1.2188-1.5938 2.3438-2.5781 3.4219-13.266 16.875-31.969 27.094-51.703 30-19.734 2.9062-40.547-1.5-58.078-13.875-1.0781-0.65625-2.1562-1.4531-3.1406-2.3438z" fill-rule="evenodd"/>
</svg>
