<?xml version="1.0" encoding="UTF-8"?>
<svg id="Layer_1" data-name="Layer 1" xmlns="http://www.w3.org/2000/svg" viewBox="0 0 1081.868 1076.021">
  <path d="M597.284,568.136h119.62c15.703,0,28.5-12.797,28.5-28.5v-121.4c0-15.703-12.797-28.5-28.5-28.5h-119.62c-15.703,0-28.5,12.797-28.5,28.5v121.4c0,15.703,12.797,28.5,28.5,28.5ZM600.659,421.656h112.92v114.66h-112.92v-114.66Z"/>
  <path d="M364.974,568.136h119.62c15.703,0,28.5-12.797,28.5-28.5v-121.4c0-15.703-12.797-28.5-28.5-28.5h-119.62c-15.703,0-28.5,12.797-28.5,28.5v121.4c0,15.703,12.75,28.5,28.5,28.5h0ZM368.302,421.656h112.92v114.66h-112.92v-114.66Z"/>
  <path d="M119.914,576.896h74.719c8.766,0,15.938-7.125,15.938-15.938v-85.172c0-8.812-7.125-15.938-15.938-15.938l-74.719.047c-8.766,0-15.938,7.125-15.938,15.938v85.172c.047,8.766,7.172,15.891,15.938,15.891h0ZM135.852,491.724h42.844v53.344l-42.844-.047v-53.297Z"/>
  <path d="M119.914,735.526h74.719c8.766,0,15.938-7.125,15.938-15.938v-85.172c0-8.812-7.125-15.938-15.938-15.938l-74.719.047c-8.766,0-15.938,7.125-15.938,15.938v85.172c.047,8.766,7.172,15.891,15.938,15.891h0ZM135.852,650.401h42.844v53.344l-42.844-.047v-53.297Z"/>
  <path d="M119.914,894.206h74.719c8.766,0,15.938-7.125,15.938-15.938v-85.219c0-8.812-7.125-15.938-15.938-15.938l-74.719.047c-8.766,0-15.938,7.125-15.938,15.938v85.219c.047,8.766,7.172,15.891,15.938,15.891h0ZM135.852,809.034h42.844v53.344l-42.844-.047v-53.297Z"/>
  <path d="M887.204,576.896h74.719c8.766,0,15.938-7.125,15.938-15.938v-85.172c0-8.812-7.125-15.938-15.938-15.938h-74.719c-8.766,0-15.938,7.125-15.938,15.938v85.172c.047,8.812,7.172,15.938,15.938,15.938ZM903.142,491.724h42.844v53.344h-42.844v-53.344Z"/>
  <path d="M887.204,735.526h74.719c8.766,0,15.938-7.125,15.938-15.938v-85.172c0-8.812-7.125-15.938-15.938-15.938h-74.719c-8.766,0-15.938,7.125-15.938,15.938v85.172c.047,8.812,7.172,15.938,15.938,15.938ZM903.142,650.401h42.844v53.344h-42.844v-53.344Z"/>
  <path d="M887.204,894.206h74.719c8.766,0,15.938-7.125,15.938-15.938v-85.219c0-8.812-7.125-15.938-15.938-15.938h-74.719c-8.766,0-15.938,7.125-15.938,15.938v85.219c.047,8.812,7.172,15.938,15.938,15.938ZM903.142,809.034h42.844v53.344h-42.844v-53.344Z"/>
  <path d="M1047.944,935.816v-487.36c0-32.391-26.344-58.734-58.734-58.734h-155.95v-109.73c0-32.344-26.484-58.688-59.062-58.688h-65.625c4.172-14.906,7.078-30.328,7.078-46.594C715.651,78.382,637.276,0,540.941,0s-174.71,78.375-174.71,174.71c0,16.219,2.906,31.641,7.078,46.594h-65.672c-32.578,0-59.062,26.344-59.062,58.688v109.78H92.625c-32.391,0-58.734,26.344-58.734,58.734v487.36c-19.781,7.406-33.891,26.25-33.891,48.562v39.609c0,28.641,23.297,51.984,51.984,51.984h977.9c28.688,0,51.984-23.344,51.984-51.984v-39.609c-.047-22.312-14.203-41.203-33.938-48.609l.014-.003ZM989.163,421.636c14.859,0,26.906,12.047,26.906,26.859v483.94h-182.86v-510.79l155.954-.009ZM540.903,31.876c78.797,0,142.87,64.078,142.87,142.87,0,19.922-4.125,38.859-11.531,56.062l-.141.281c-21.938,50.812-72.422,86.484-131.16,86.484s-109.22-35.719-131.16-86.484c-.047-.094-.094-.234-.188-.328-7.406-17.203-11.531-36.141-11.531-56.062-.047-78.75,64.031-142.82,142.82-142.82l.02-.003ZM307.643,253.166h77.953c28.828,56.859,87.281,96.281,155.29,96.281s126.42-39.469,155.29-96.281h77.953c15,0,27.234,12.047,27.234,26.812v124.78c0,.281-.188.609-.188.891s.141.609.188.891v525.84h-136.36v-247.74c0-22.641-18.422-41.062-41.062-41.062h-166.13c-22.641,0-41.062,18.422-41.062,41.062v247.74h-136.31V406.589c0-.281.188-.609.188-.891s-.141-.609-.188-.891v-124.82c0-14.766,12.188-26.812,27.188-26.812l.016-.01ZM556.833,932.386v-256.97h67.125c5.062,0,9.188,4.125,9.188,9.188v247.74l-76.312.043ZM448.643,932.386v-247.74c0-5.062,4.125-9.188,9.188-9.188h67.125v256.97h-76.312v-.043ZM92.623,421.646h155.95v510.79l-182.86-.047v-483.94c0-14.812,12.047-26.812,26.906-26.812l.004.009ZM1049.943,1023.986c0,11.062-9,20.109-20.109,20.109H51.934c-11.109,0-20.109-9.047-20.109-20.109v-39.609c0-11.109,9-20.156,20.109-20.156h977.9c11.109,0,20.109,9.047,20.109,20.156v39.609Z"/>
  <path d="M462.944,224.636h28.078v28.125c0,13.5,10.969,24.469,24.516,24.469h50.766c13.547,0,24.516-10.969,24.516-24.469v-28.125h28.078c13.5,0,24.469-10.969,24.469-24.516l.047-50.766c0-13.547-10.969-24.516-24.469-24.516h-28.078v-28.125c0-13.5-10.969-24.469-24.516-24.469h-50.766c-13.547,0-24.516,10.969-24.516,24.469v28.125h-28.125c-13.5,0-24.469,10.969-24.469,24.516v50.766c0,13.547,10.969,24.516,24.469,24.516h0ZM470.303,156.714h36.656c8.766,0,15.938-7.125,15.938-15.938v-36.703h36.094v36.656c0,8.812,7.125,15.938,15.938,15.938h36.656v36.094h-36.656c-8.766,0-15.938,7.125-15.938,15.938v36.656h-36.094v-36.656c0-8.812-7.125-15.938-15.938-15.938h-36.656v-36.047Z"/>
</svg>