<?xml version="1.0" encoding="UTF-8"?>
<svg id="Layer_1" xmlns="http://www.w3.org/2000/svg" version="1.1" viewBox="0 0 707 1039.2">
  <!-- Generator: Adobe Illustrator 29.2.1, SVG Export Plug-In . SVG Version: 2.1.0 Build 116)  -->
  <defs>
    <style>
      .st0 {
        fill: #ff5d5d;
      }

      .st1 {
        fill: #ffb135;
      }
    </style>
  </defs>
  <g id="Layer_2">
    <polygon class="st0" points="499.9 16.7 483.7 116.8 386.6 218.3 369 322.8 419 424.9 466.1 443.5 434.4 369.8 476.4 293.4 499.9 266.9 517.6 211 531 243 555.9 299.3 566.2 328.7 600.5 328.7 612.8 330.2 625 384.4 600 436.1 586.8 453.9 667.7 411.1 691.2 344.2 704.5 270.6 653 190.4 623.6 224.2 601.5 230.3 579.4 191.8 573.5 124.1 548.5 62.3 499.9 16.7"/>
    <polygon class="st1" points="547 467 600 436.1 628 369.8 601.5 308.1 577.9 333.1 558.9 308.1 536.7 230.3 517.6 211 499.9 266.9 449.1 328.7 441.1 374.3 449.1 436.8 491.1 467 547 467"/>
    <path id="Fire" d="M656.2,176.6c16,16.1,28.8,35.4,37.6,56.7,8.5,20.7,13.2,43.3,13.2,66.9,0,48.6-19.7,92.6-51.5,124.4-31.8,31.8-75.8,51.5-124.4,51.5s-92.6-19.7-124.4-51.5c-31.8-31.8-51.5-75.8-51.5-124.4,0-71.8,36.6-107.5,72.5-142.6,36.2-35.3,71.6-69.9,59.5-145.3-1-6.1,3.2-11.8,9.2-12.7,2.9-.5,5.8.3,8.1,1.8,74.2,51.3,79.8,115.6,83.9,163.5,2,23.1,3.6,41.8,12.7,49.6,2.3,2,4.9,3,7.5,3.1,2.9.2,6-.6,9.1-2.2,3.5-1.7,6.8-4.4,9.7-7.8,5.3-6.2,9.1-14.6,9.6-24.1.3-6.1,5.6-10.9,11.7-10.6,3,.2,5.6,1.5,7.6,3.5h0s0,0,0,0ZM605.2,298.9c9.4,9.5,17,20.9,22.2,33.5,5.1,12.3,7.8,25.7,7.8,39.6s-5.2,37.4-14.4,52.9c6.7-4.8,13-10.2,18.9-16,27.8-27.8,45-66.2,45-108.6s-4.1-40.5-11.5-58.5c-5.1-12.3-11.7-23.8-19.6-34.2-2.5,5.4-5.6,10.4-9.3,14.7-4.8,5.6-10.5,10.2-16.6,13.2-6.5,3.3-13.4,4.9-20.2,4.5-7.4-.4-14.6-3.1-20.9-8.5-16-13.7-18-36.5-20.4-64.6-3.4-38.6-7.7-88.8-54.3-131.2,2.5,68.5-32.8,102.9-68.7,138-32.5,31.8-65.7,64.1-65.7,126.6s17.2,80.8,45,108.6c5.8,5.8,12.1,11.2,18.9,16-9.1-15.5-14.4-33.6-14.4-52.9,0-42.6,21.4-63.4,42.4-83.9,19.5-19,38.6-37.7,32.2-77.8-1-6.1,3.2-11.8,9.2-12.7,2.9-.5,5.8.3,8.1,1.8,43.8,30.2,47,67.9,49.5,95.9,1,12,1.9,21.6,5.5,24.7.5.4.9.6,1.3.6.8,0,1.7-.2,2.7-.7,1.4-.7,2.7-1.8,4-3.2,2.4-2.8,4-6.5,4.2-10.7.3-6.1,5.6-10.9,11.7-10.6,3,.2,5.6,1.5,7.6,3.5h0s0,0,0,0ZM606.7,340.9c-1.7-4.2-3.8-8.3-6.2-12.1-.6.8-1.2,1.7-1.9,2.4-3.1,3.7-6.9,6.6-10.9,8.6-4.4,2.2-9.1,3.3-13.9,3.1-5.2-.3-10.3-2.2-14.7-5.9-10.6-9-11.8-22.8-13.2-39.7-1.6-18.4-3.6-41.7-21.1-62.6-2.5,32.8-21.1,51-40.1,69.5-17.6,17.2-35.6,34.8-35.6,68s9.2,43.1,24,57.9c14.8,14.8,35.3,24,57.9,24s43.1-9.2,57.9-24c14.8-14.8,24-35.3,24-57.9s-2.2-21.6-6.1-31.2h0,0Z"/>
  </g>
  <g id="Layer_11" data-name="Layer_1">
    <path d="M282,732V109.2C282,49.2,232.8,0,172.8,0S63.6,49.2,63.6,109.2v622.8C22.8,765.6,0,813.6,0,866.4c0,96,78,172.8,172.8,172.8s172.8-78,172.8-172.8c1.3-52.8-22.7-102-63.5-134.4h0ZM172.9,1011.6c-80.4,0-145.2-64.8-145.2-145.2s21.6-88.8,58.8-116.4l6-4.8V109.2c0-45.6,37.3-81.6,81.7-81.6s81.6,36,81.6,81.6v637.2l6,4.8c37.2,27.6,58.8,70.8,58.8,116.4-1.2,79.2-67.2,144-147.6,144h0Z"/>
    <circle class="st0" cx="172.8" cy="870" r="126.4"/>
    <rect class="st0" x="125.6" y="135.7" width="94.1" height="673.3"/>
    <path d="M73.1,148.8h104.7c2.1,0,4.1-1.2,4.1-2.4v-8.4c0-1.2-2.1-2.4-4.1-2.4h-104.7c-2.1,0-4.1,1.2-4.1,2.4v8.4s2.1,2.4,4.1,2.4Z"/>
    <path d="M73.1,214.8h104.7c2.1,0,4.1-1.2,4.1-2.4v-8.4c0-1.2-2.1-2.4-4.1-2.4h-104.7c-2.1,0-4.1,1.2-4.1,2.4v8.4c0,1.2,2.1,2.4,4.1,2.4Z"/>
    <path d="M73.1,280.8h104.7c2.1,0,4.1-1.2,4.1-2.4v-8.4c0-1.2-2.1-2.4-4.1-2.4h-104.7c-2.1,0-4.1,1.2-4.1,2.4v8.4c0,1.2,2.1,2.4,4.1,2.4Z"/>
    <path d="M73.1,348h104.7c2.1,0,4.1-1.2,4.1-2.4v-8.4c0-1.2-2.1-2.4-4.1-2.4h-104.7c-2.1,0-4.1,1.2-4.1,2.4v8.4c0,1.2,2.1,2.4,4.1,2.4Z"/>
    <path d="M73.1,414h104.7c2.1,0,4.1-1.2,4.1-2.4v-8.4c0-1.2-2.1-2.4-4.1-2.4h-104.7c-2.1,0-4.1,1.2-4.1,2.4v8.4c0,1.2,2.1,2.4,4.1,2.4Z"/>
    <path d="M73.1,480h104.7c2.1,0,4.1-1.2,4.1-2.4v-8.4c0-1.2-2.1-2.4-4.1-2.4h-104.7c-2.1,0-4.1,1.2-4.1,2.4v8.4c0,1.2,2.1,2.4,4.1,2.4Z"/>
    <path d="M73.1,547.2h104.7c2.1,0,4.1-1.2,4.1-2.4v-8.4c0-1.2-2.1-2.4-4.1-2.4h-104.7c-2.1,0-4.1,1.2-4.1,2.4v8.4c0,1.2,2.1,2.4,4.1,2.4Z"/>
    <path d="M73.1,613.2h104.7c2.1,0,4.1-1.2,4.1-2.4v-8.4c0-1.2-2.1-2.4-4.1-2.4h-104.7c-2.1,0-4.1,1.2-4.1,2.4v8.4c0,1.2,2.1,2.4,4.1,2.4Z"/>
    <path d="M183.9,676.8v-8.4c0-1.2-2.1-2.4-4.1-2.4h-104.7c-2.1,0-4.1,1.2-4.1,2.4v8.4c0,1.2,2.1,2.4,4.1,2.4h104.7s4.1,0,4.1-2.4Z"/>
  </g>
</svg>