<?xml version="1.0" encoding="UTF-8"?>
<svg xmlns="http://www.w3.org/2000/svg" viewBox="0 0 1050.002 1000.021">
  <defs>
    <style>
      .cls-1 {
        fill: #fff;
      }

      .cls-2 {
        fill: red;
      }
    </style>
  </defs>
  <g id="Layer_1" data-name="Layer 1">
    <path d="M865.498,473.018c1.219-13.031,2.016-26.203,2.016-39.375l.047.047c-.047-115.08-45.75-225.37-127.13-306.71C659.055,45.652,548.71-.05,433.69,0,318.66,0,208.32,45.75,126.98,127.13,45.652,208.458-.05,318.81,0,433.87c.047,115.03,45.75,225.37,127.13,306.71,81.379,81.336,191.72,126.98,306.74,126.98,35.578-.047,71.062-4.547,105.56-13.359,41.438,79.781,119.81,133.78,209.16,144.05,89.391,10.266,177.98-24.562,236.44-92.859,58.453-68.344,79.172-161.29,55.172-247.97-23.953-86.672-89.438-155.76-174.71-184.4l.006-.004ZM433.868,830.068c-105.09,0-205.92-41.719-280.26-116.02-74.297-74.297-116.06-175.08-116.11-280.18-.047-105.09,41.719-205.92,116.02-280.26,74.297-74.297,175.08-116.11,280.18-116.11,105.09-.047,205.92,41.672,280.22,116.02,74.344,74.297,116.11,175.08,116.16,280.18,0,9.938-.516,19.922-1.266,29.812v-.047c-10.453-1.875-21-3.188-31.594-3.844.609-8.531.984-17.203.984-25.969v.047c.047-107.67-47.578-209.86-130.03-279.1-82.453-69.234-191.29-98.484-297.37-79.781-106.03,18.656-198.37,83.297-252.24,176.53l-.188.234c-.047.094-.047.234-.094.328l-.047-.047c-31.922,55.219-48.75,117.94-48.656,181.74v.234c-.094,110.95,50.438,215.9,137.26,285,86.859,69.141,200.48,94.828,308.63,69.797,2.344,10.406,5.344,20.672,8.953,30.75-29.672,7.078-60.047,10.688-90.516,10.688l-.038-.003ZM508.68,729.428c0,7.406.516,14.719,1.125,21.984v-.047c-18.797,4.547-37.969,7.359-57.234,8.484v-30.469c0-10.359-8.391-18.75-18.75-18.75s-18.75,8.391-18.75,18.75v30.469c-44.625-2.531-88.219-14.203-128.11-34.266l15.234-26.438c2.484-4.312,3.188-9.422,1.875-14.25-1.266-4.781-4.406-8.906-8.719-11.391s-9.422-3.141-14.25-1.875c-4.781,1.312-8.906,4.453-11.391,8.766l-15.188,26.344c-37.312-24.562-69.188-56.438-93.797-93.75l26.391-15.234v.047c8.953-5.203,12.047-16.688,6.844-25.641-5.156-8.953-16.594-12.047-25.594-6.844l-26.438,15.234c-20.062-39.891-31.734-83.484-34.266-128.11h30.469c10.359,0,18.75-8.391,18.75-18.75s-8.391-18.75-18.75-18.75h-30.469c2.484-44.578,14.156-88.219,34.312-128.06l26.391,15.234c9,5.156,20.438,2.109,25.641-6.891,5.156-8.953,2.109-20.438-6.891-25.594l-26.344-15.234c24.469-37.359,56.391-69.281,93.703-93.797l15.234,26.438v-.047c2.484,4.312,6.609,7.453,11.391,8.766,4.828,1.266,9.938.609,14.25-1.875s7.453-6.609,8.719-11.391c1.312-4.828.609-9.938-1.875-14.25l-15.281-26.438c39.938-20.109,83.531-31.781,128.16-34.312v30.516c0,10.359,8.391,18.75,18.75,18.75s18.75-8.391,18.75-18.75v-30.516c44.578,2.531,88.219,14.25,128.11,34.359l-15.234,26.438-.047-.047c-5.156,9-2.062,20.438,6.891,25.641,8.953,5.156,20.438,2.062,25.594-6.891l15.234-26.438h.047c37.359,24.516,69.281,56.438,93.75,93.797l-26.438,15.281h.047c-4.312,2.484-7.453,6.562-8.766,11.391-1.266,4.781-.609,9.891,1.875,14.203,5.203,9,16.641,12.047,25.641,6.891l26.484-15.281h-.047c20.156,39.891,31.875,83.484,34.359,128.11h-30.562c-10.359,0-18.75,8.391-18.75,18.75s8.391,18.75,18.75,18.75h30.562c-.141,2.438-.375,4.875-.562,7.266v.047c-68.109,5.016-131.81,35.625-178.31,85.594-46.5,50.016-72.422,115.73-72.516,184.03l-.004.047ZM452.58,393.758v-171.74c0-10.359-8.391-18.75-18.75-18.75s-18.75,8.391-18.75,18.75v171.74c-9.328,4.406-16.828,11.859-21.234,21.188h-101.25c-10.359,0-18.75,8.391-18.75,18.75s8.391,18.75,18.75,18.75h101.25c6.094,13.078,18.188,22.359,32.391,24.844,14.203,2.531,28.734-2.062,38.906-12.234,10.219-10.219,14.766-24.75,12.281-38.953-2.531-14.203-11.766-26.25-24.844-32.344h0ZM433.83,440.492c-2.766,0-5.203-1.688-6.281-4.219-1.031-2.531-.469-5.438,1.453-7.359,1.969-1.922,4.875-2.531,7.406-1.453,2.531,1.031,4.172,3.516,4.172,6.234,0,3.75-3.047,6.797-6.75,6.797h0Z"/>
  </g>
  <g id="Layer_4" data-name="Layer 4">
    <path class="cls-1" d="M778.693,992.064c-69.144,0-135.52-27.469-184.369-76.379-48.909-48.909-76.379-115.222-76.379-184.369s27.469-135.464,76.379-184.369c48.909-48.901,115.222-76.379,184.369-76.379s135.464,27.469,184.369,76.379c48.909,48.909,76.379,115.222,76.379,184.369-.052,69.144-27.574,135.408-76.484,184.313-48.858,48.858-115.121,76.379-184.257,76.432l-.007.003Z"/>
  </g>
  <g id="Layer_3" data-name="Layer 3">
    <g>
      <path d="M584.674,759.85c-5.617,0-10.828-.998-15.633-2.998-4.807-1.996-8.966-4.778-12.475-8.342-3.51-3.564-6.264-7.777-8.262-12.637-1.999-4.859-2.996-10.206-2.996-16.038,0-2.916.404-6.181,1.215-9.801.81-3.617,2.05-7.587,3.726-11.907,1.673-4.318,3.698-8.882,6.075-13.689,2.374-4.804,5.129-9.801,8.262-14.984l14.742-24.948h17.01l.648,1.62-17.82,29.971c-3.24,5.508-6.131,10.747-8.667,15.713-2.538,4.969-4.673,9.64-6.399,14.014-1.729,4.374-3.024,8.343-3.888,11.906l-3.888-16.686c2.051-3.346,4.266-6.29,6.643-8.828,2.373-2.537,4.94-4.671,7.694-6.4,2.754-1.726,5.642-3.021,8.667-3.887,3.022-.863,6.156-1.297,9.396-1.297,6.262,0,12.013,1.701,17.252,5.104,5.238,3.402,9.449,7.912,12.637,13.527,3.184,5.616,4.779,11.772,4.779,18.467,0,8.101-1.648,15.31-4.941,21.627-3.296,6.318-7.857,11.315-13.689,14.986-5.832,3.672-12.529,5.508-20.088,5.508ZM584.674,743.649c4.213,0,7.963-.996,11.26-2.996,3.293-1.998,5.885-4.805,7.775-8.424,1.889-3.617,2.835-7.748,2.835-12.394,0-3.994-.972-7.748-2.916-11.259-1.944-3.508-4.536-6.344-7.776-8.505-3.239-2.159-6.859-3.24-10.854-3.24-4.43,0-8.371,1.028-11.826,3.078-3.457,2.053-6.156,4.807-8.1,8.262-1.944,3.458-2.916,7.29-2.916,11.503,0,4.535.972,8.613,2.916,12.23,1.943,3.619,4.589,6.48,7.938,8.586,3.347,2.105,7.234,3.158,11.664,3.158Z"/>
      <path d="M668.589,761.469c-8.642,0-16.065-2.374-22.274-7.127-6.213-4.752-10.991-11.475-14.338-20.17-3.349-8.691-5.021-19.035-5.021-31.023s1.673-22.328,5.021-31.022c3.347-8.692,8.125-15.415,14.338-20.169,6.209-4.751,13.633-7.128,22.274-7.128s16.091,2.377,22.356,7.128c6.262,4.754,11.068,11.477,14.418,20.169,3.346,8.694,5.021,19.035,5.021,31.022s-1.676,22.332-5.021,31.023c-3.35,8.695-8.156,15.418-14.418,20.17-6.266,4.753-13.717,7.127-22.356,7.127ZM668.589,745.594c7.882,0,13.985-3.699,18.306-11.098,4.318-7.396,6.48-17.846,6.48-31.348s-2.162-23.947-6.48-31.346c-4.32-7.396-10.424-11.098-18.306-11.098s-13.987,3.701-18.306,11.098c-4.321,7.398-6.48,17.848-6.48,31.346s2.159,23.951,6.48,31.348c4.318,7.398,10.421,11.098,18.306,11.098Z"/>
      <path d="M755.42,759.85v-85.051h16.848v18.145l-3.078,1.943c.863-2.807,2.24-5.508,4.131-8.1,1.889-2.592,4.213-4.885,6.967-6.885,2.754-1.998,5.723-3.59,8.91-4.779,3.184-1.188,6.451-1.781,9.801-1.781,4.859,0,9.125.809,12.797,2.43,3.671,1.619,6.695,4.05,9.072,7.289,2.375,3.24,4.104,7.291,5.185,12.15l-2.593-.648,1.135-2.754c1.188-2.482,2.835-4.832,4.941-7.047,2.105-2.212,4.508-4.184,7.209-5.912,2.697-1.727,5.561-3.078,8.586-4.051,3.021-.972,5.994-1.457,8.91-1.457,6.371,0,11.636,1.295,15.795,3.887,4.156,2.593,7.289,6.536,9.396,11.826,2.106,5.293,3.159,11.883,3.159,19.765v51.03h-16.848v-50.059c0-4.859-.623-8.829-1.863-11.906-1.243-3.078-3.105-5.372-5.59-6.886-2.485-1.511-5.67-2.269-9.558-2.269-3.024,0-5.86.515-8.505,1.539-2.647,1.028-4.941,2.459-6.885,4.293-1.944,1.838-3.458,3.97-4.536,6.399-1.081,2.431-1.62,5.103-1.62,8.019v50.869h-16.848v-50.383c0-4.427-.648-8.181-1.944-11.259s-3.187-5.427-5.67-7.047c-2.485-1.62-5.508-2.431-9.072-2.431-3.024,0-5.831.515-8.424,1.539-2.592,1.028-4.86,2.431-6.804,4.213-1.944,1.781-3.458,3.888-4.536,6.318-1.081,2.43-1.62,5.049-1.62,7.856v51.192h-16.848Z"/>
      <path d="M906.24,656.008c-3.564,0-6.318-.917-8.262-2.755-1.944-1.835-2.916-4.427-2.916-7.776,0-3.131.997-5.67,2.996-7.613,1.998-1.944,4.725-2.916,8.182-2.916,3.564,0,6.318.918,8.262,2.754,1.944,1.838,2.916,4.43,2.916,7.775,0,3.135-1,5.67-2.996,7.615-2,1.943-4.727,2.916-8.182,2.916ZM898.141,759.85v-85.051h16.686v85.051h-16.686Z"/>
      <path d="M930.864,759.85v-85.051h16.687v17.496l-2.916,1.944c1.078-3.779,3.184-7.263,6.317-10.449,3.132-3.185,6.857-5.776,11.179-7.776,4.318-1.996,8.748-2.996,13.283-2.996,6.48,0,11.879,1.27,16.2,3.807,4.318,2.539,7.558,6.398,9.72,11.583,2.159,5.185,3.24,11.72,3.24,19.603v51.84h-16.686v-50.707c0-4.859-.648-8.882-1.944-12.068-1.296-3.185-3.296-5.508-5.994-6.967-2.7-1.457-6.05-2.078-10.044-1.862-3.24,0-6.212.514-8.91,1.539-2.701,1.028-5.05,2.458-7.047,4.293-2,1.838-3.564,3.969-4.698,6.399-1.134,2.43-1.7,5.049-1.7,7.856v51.517h-16.687Z"/>
    </g>
  </g>
  <g id="Layer_2" data-name="Layer 2">
    <path class="cls-2" d="M393.505,415.035h-101.25c-10.359,0-18.75,8.391-18.75,18.75s8.391,18.75,18.75,18.75h101.25"/>
  </g>
</svg>