<?xml version="1.0" encoding="UTF-8"?><svg id="Layer_1" xmlns="http://www.w3.org/2000/svg" viewBox="0 0 1018.239 995.079"><defs><style>.cls-1{fill:none;}</style></defs><path d="M1009.882,395.503L523.082,4.913c-8.168-6.551-19.762-6.551-27.93,0L8.352,395.503c-9.613,7.715-11.156,21.758-3.441,31.371s21.758,11.156,31.371,3.441l71.977-57.746v560.6c0,34.141,30.918,61.91,68.914,61.91l663.91-.004c37.996,0,68.914-27.77,68.914-61.91V372.566l71.965,57.746c4.113,3.305,9.051,4.91,13.945,4.91,6.527,0,13.004-2.852,17.414-8.352,7.723-9.609,6.18-23.656-3.434-31.367h-.005ZM576.022,950.443h-147v-286.51c0-3.574,3.012-6.586,6.586-6.586h133.82c3.574,0,6.586,3.012,6.586,6.586l.008,286.51ZM865.362,933.154c0,9.207-11.352,17.289-24.293,17.289h-220.41v-286.51c0-28.238-22.973-51.219-51.207-51.219h-133.84c-28.238,0-51.219,22.973-51.219,51.219v286.51h-207.23c-12.941,0-24.281-8.082-24.281-17.289V336.764L509.122,50.934l356.24,285.83v596.39Z"/><rect class="cls-1" x="252.605" y="251.54" width="513.035" height="306.461"/><path d="M320.309,467.129v-177.216l11.544,8.736-43.056,22.776-9.048-29.328,58.344-31.2h16.224v206.232h-34.008ZM285.677,482.417v-32.448h104.208v32.448h-104.208Z"/><path d="M437.621,482.417l-10.296-25.584,66.768-75.192c3.535-3.744,7.225-8.059,11.076-12.948,3.845-4.885,7.537-9.93,11.076-15.132,3.535-5.197,6.396-10.345,8.58-15.444,2.184-5.095,3.275-9.931,3.275-14.508,0-6.654-1.301-12.324-3.9-17.004-2.602-4.68-6.346-8.268-11.23-10.764-4.89-2.496-10.764-3.744-17.628-3.744-6.035,0-11.963,1.77-17.784,5.304-5.826,3.54-11.13,8.531-15.912,14.976-4.787,6.45-8.531,13.938-11.232,22.464l-25.896-16.224c3.534-12.061,8.892-22.411,16.068-31.044,7.176-8.628,15.805-15.234,25.896-19.812,10.086-4.572,21.06-6.864,32.916-6.864,12.27,0,23.189,2.55,32.76,7.644,9.564,5.099,17.053,12.168,22.463,21.216,5.408,9.048,8.113,19.5,8.113,31.356,0,4.788-.521,9.672-1.561,14.664-1.043,4.992-2.705,10.14-4.992,15.444-2.291,5.304-5.201,10.817-8.736,16.536-3.539,5.724-7.75,11.7-12.635,17.94-4.891,6.24-10.453,12.792-16.693,19.656l-49.607,53.976-6.24-9.36h107.327v32.448h-131.975Z"/><path d="M657.888,485.537c-15.395,0-28.757-3.534-40.092-10.608-11.339-7.068-21.996-18.924-31.979-35.568l26.208-16.536c5.196,7.697,10.345,13.991,15.443,18.876,5.095,4.89,10.345,8.478,15.757,10.764,5.406,2.292,11.124,3.432,17.159,3.432,7.278,0,14.04-1.818,20.28-5.46,6.24-3.637,11.232-8.683,14.977-15.132,3.743-6.445,5.615-13.728,5.615-21.84s-1.457-15.024-4.368-20.748c-2.915-5.718-7.176-10.086-12.792-13.104-5.615-3.013-12.274-4.524-19.968-4.524-3.539,0-7.229.366-11.076,1.092-3.851.731-7.956,1.77-12.323,3.12-4.368,1.355-9.155,3.071-14.353,5.148l-9.359-24.648,67.392-74.256,6.552,9.672h-92.976v-31.2h125.111l6.24,12.48-71.448,79.248-7.8-8.112c1.663-.829,4.417-1.608,8.269-2.34,3.846-.727,7.02-1.092,9.516-1.092,9.15,0,17.73,1.716,25.74,5.148,8.005,3.432,14.976,8.219,20.904,14.352,5.928,6.137,10.607,13.313,14.04,21.528,3.432,8.219,5.147,17.004,5.147,26.364,0,14.147-3.383,26.784-10.14,37.908-6.762,11.13-15.863,19.919-27.3,26.364-11.442,6.449-24.234,9.672-38.377,9.672Z"/></svg>