<?xml version="1.0" encoding="UTF-8"?>
<svg id="Layer_1" xmlns="http://www.w3.org/2000/svg" version="1.1" viewBox="0 0 1124.9 1124.9">
  <!-- Generator: Adobe Illustrator 29.2.1, SVG Export Plug-In . SVG Version: 2.1.0 Build 116)  -->
  <path d="M1115.3,458.2c-.8-4.4-4.5-7.6-8.9-8l-92-7c-10.6-40.4-26.7-79.1-47.7-115.3l62-66.6c3.1-3.3,3.5-8.4,1-12.2-40.2-59.8-90.7-110.7-150-151.3-3.7-2.5-8.6-2.2-12,.7l-70,60.1c-36.2-21.1-74.9-37.2-115.3-47.9l-3.2-90.9c-.1-4.5-3.5-8.4-7.9-9.3C638.7,4.2,605.2.6,571.8,0c-38.2-.7-76.4,2.6-113.5,9.6-4.4.8-7.6,4.5-8,8.9l-7,92c-40.4,10.6-79.1,26.7-115.3,47.7l-66.6-62c-3.3-3.1-8.4-3.5-12.2-1-59.8,40.2-110.7,90.7-151.3,150-2.5,3.7-2.2,8.6.7,12l60.1,70c-21.1,36.1-37.2,74.9-47.9,115.3l-90.9,3.2c-4.5.1-8.4,3.5-9.3,7.9C4.2,486.2.6,519.7,0,553.2c-.6,38.2,2.6,76.4,9.6,113.5.8,4.4,4.5,7.6,8.9,8l92,7c10.6,40.4,26.7,79.1,47.7,115.3l-62,66.6c-3.1,3.3-3.5,8.4-1,12.2,40.2,59.8,90.7,110.7,150,151.3,3.7,2.5,8.6,2.2,12-.7l70-60.1c36.1,21.1,74.9,37.2,115.3,47.9l3.2,90.9c.1,4.5,3.5,8.4,7.9,9.3,32.6,6.4,66.1,9.9,99.5,10.5,3.1,0,6.2,0,9.4,0,35.1,0,70-3.2,104.2-9.7,4.4-.8,7.6-4.5,8-8.9l7-92c40.4-10.6,79.1-26.7,115.3-47.7l66.6,62c3.3,3.1,8.4,3.5,12.2,1,59.8-40.2,110.7-90.7,151.3-150,2.5-3.7,2.2-8.6-.7-12l-60.1-70c21.1-36.1,37.2-74.9,47.9-115.3l90.9-3.2c4.5-.1,8.4-3.5,9.3-7.9,6.4-32.6,9.9-66.1,10.5-99.5.6-38.2-2.6-76.4-9.6-113.5h0ZM1105.2,571.5c-.5,29.7-3.4,59.4-8.7,88.4l-90.4,3.2c-4.4.1-8.2,3.2-9.2,7.5-10.7,43.4-27.9,84.8-51.1,123.1-2.2,3.7-1.8,8.2.9,11.5l59.8,69.6c-37,52.5-82.5,97.6-135.3,134.3l-66.2-61.7c-3.2-3-8-3.5-11.8-1.2-38.4,23.2-79.8,40.4-123.2,51-4.1,1-7.1,4.5-7.5,8.8l-6.9,91.5c-33.5,5.8-67.8,8.4-102.2,7.9-29.7-.5-59.4-3.4-88.4-8.7l-3.2-90.4c-.1-4.4-3.2-8.2-7.5-9.2-43.4-10.7-84.8-27.9-123.1-51.1-3.7-2.2-8.2-1.8-11.5.9l-69.6,59.8c-52.5-37-97.6-82.5-134.3-135.3l61.7-66.2c3-3.2,3.5-8,1.2-11.8-23.2-38.4-40.3-79.8-51-123.2-1-4.1-4.5-7.1-8.8-7.5l-91.5-6.9c-5.8-33.5-8.4-67.9-7.9-102.2.5-29.7,3.4-59.4,8.7-88.5l90.4-3.2c4.4-.1,8.2-3.2,9.2-7.5,10.7-43.4,27.9-84.8,51.1-123.1,2.2-3.7,1.8-8.2-.9-11.5l-59.8-69.6c37-52.5,82.5-97.6,135.3-134.3l66.2,61.7c3.2,3,8,3.5,11.8,1.2,38.4-23.2,79.9-40.4,123.2-51,4.1-1,7.1-4.5,7.5-8.8l6.9-91.5c33.5-5.8,67.9-8.4,102.2-7.9,29.7.5,59.4,3.4,88.4,8.6l3.2,90.4c.1,4.4,3.2,8.2,7.5,9.2,43.4,10.7,84.8,27.9,123.1,51.1,3.7,2.2,8.2,1.8,11.5-.9l69.6-59.8c52.5,37,97.6,82.5,134.3,135.3l-61.6,66.2c-3,3.2-3.5,8-1.2,11.8,23.2,38.4,40.3,79.8,51,123.2,1,4.1,4.5,7.1,8.8,7.5l91.5,6.9c5.7,33.6,8.4,67.9,7.8,102.3h0ZM562.4,196.3c-201.9,0-366.2,164.3-366.2,366.2s164.3,366.2,366.2,366.2,366.2-164.3,366.2-366.2-164.3-366.2-366.2-366.2ZM562.4,909.1c-191.1,0-346.6-155.5-346.6-346.6s155.5-346.6,346.6-346.6,346.6,155.5,346.6,346.6-155.5,346.6-346.6,346.6ZM556.6,356.4c-19.6,0-39.2,5.1-56.5,14.7-17.3,9.7-32,23.6-42.4,40.4-11.3,18.1-5.7,42,12.4,53.3,18.1,11.3,42,5.7,53.3-12.4,3.6-5.7,8.5-10.5,14.2-13.7,5.6-3.1,12.2-4.8,19-4.8,10.4,0,20.2,4,27.6,11.4,7.4,7.4,11.4,17.2,11.4,27.6s-2.1,14.8-6,21c-4,6.3-9.8,11.3-16.5,14.5-16.7,7.8-30.7,20-40.4,35.2-9.8,15.3-14.9,33.1-14.9,51.5v28.9c0,21.4,17.4,38.8,38.8,38.8s38.8-17.4,38.8-38.8v-28.9c0-3.9.9-7.4,2.6-10,1.8-2.8,4.5-5.1,7.9-6.7,20.1-9.4,37-24.3,48.9-43,12-18.8,18.3-40.4,18.3-62.4s-12.1-60.4-34.1-82.4c-21.9-22-51.2-34.2-82.3-34.2h0ZM638.2,524.8c-9.9,15.6-24,28-40.7,35.8-6.8,3.2-12.4,8-16.2,14-3.7,5.8-5.7,12.9-5.7,20.5v28.9c0,10.5-8.6,19.1-19.1,19.1s-19.1-8.6-19.1-19.1v-28.9c0-14.6,4.1-28.8,11.9-41,7.6-12,18.8-21.7,32.1-27.9,10.2-4.7,18.8-12.3,24.8-21.8,5.9-9.3,9-20.2,9-31.5s-6.1-30.4-17.2-41.5c-11.1-11.1-25.8-17.2-41.5-17.2s-20,2.5-28.5,7.3c-8.7,4.8-16.1,11.9-21.4,20.5-5.5,8.9-17.3,11.7-26.2,6.1-8.9-5.5-11.7-17.3-6.1-26.2,8.7-13.9,20.9-25.5,35.3-33.6,14.4-8,30.7-12.2,47-12.2,25.9,0,50.2,10.1,68.5,28.4s28.4,42.6,28.4,68.5c0,18.3-5.3,36.3-15.3,51.9h0ZM556.6,690.3c-21.4,0-38.8,17.4-38.8,38.8v.8c0,21.4,17.4,38.8,38.8,38.8s38.8-17.4,38.8-38.8v-.8c0-21.4-17.4-38.8-38.8-38.8ZM575.7,729.9c0,10.5-8.6,19.1-19.1,19.1s-19.1-8.6-19.1-19.1v-.8c0-10.5,8.6-19.1,19.1-19.1s19.1,8.6,19.1,19.1v.8Z"/>
</svg>