<?xml version="1.0" encoding="UTF-8"?>
<svg id="Layer_1" data-name="Layer 1" xmlns="http://www.w3.org/2000/svg" viewBox="0 0 1170.514 1168.355">
  <path d="M906.374,419.815c11.727,7.426,25.309,11.391,39.188,11.438h56.25c19.891,0,38.969-7.902,53.031-21.969,14.066-14.062,21.969-33.141,21.969-53.031v-37.5c0-19.891-7.902-38.969-21.969-53.031-14.062-14.066-33.141-21.969-53.031-21.969h-56.25c-7.648.094-15.234,1.359-22.5,3.75l3.75-39.562c.477-5.258-1.289-10.473-4.859-14.363-3.566-3.891-8.609-6.094-13.891-6.074h-56.25v-44.625l27.188-13.688-16.875-33.375-37.5,18.75c-3.094,1.559-5.691,3.941-7.512,6.887s-2.789,6.34-2.801,9.801v56.25h-56.25c-5.281-.02-10.324,2.184-13.891,6.074-3.57,3.891-5.336,9.105-4.859,14.363l18.75,206.25c.422,4.676,2.582,9.02,6.055,12.18,3.473,3.16,8,4.902,12.695,4.883h112.5c3.648-.039,7.207-1.145,10.238-3.176s5.402-4.902,6.824-8.262h0ZM945.562,281.255h56.25c9.945,0,19.484,3.949,26.516,10.984,7.035,7.031,10.984,16.57,10.984,26.516h-131.25c0-9.945,3.949-19.484,10.984-26.516,7.031-7.035,16.57-10.984,26.516-10.984h0ZM1039.312,356.255c0,9.945-3.949,19.484-10.984,26.516-7.031,7.035-16.57,10.984-26.516,10.984h-56.25c-9.945,0-19.484-3.949-26.516-10.984-7.035-7.031-10.984-16.57-10.984-26.516h131.25ZM882.752,278.067c-7.898,12.105-12.129,26.234-12.188,40.688v37.5c.098,6.93,1.172,13.809,3.188,20.438l-1.5,17.062h-78.375l-15.188-168.75h108.75l-4.687,53.062Z"/>
  <path d="M1170.514,281.255c0-74.594-29.633-146.13-82.375-198.88C1035.393,29.633,963.859,0,889.259,0s-146.13,29.633-198.88,82.375c-52.742,52.746-82.375,124.28-82.375,198.88-.117,55.512,16.406,109.79,47.438,155.81l-45,78.562c-2.637,4.496-3.285,9.887-1.785,14.883,1.496,4.992,5.008,9.137,9.688,11.434,4.68,2.301,10.105,2.547,14.973.684l90.562-34.125c47.91,35.262,105.89,54.191,165.38,54,49.371,0,97.871-12.996,140.62-37.68,42.754-24.684,78.262-60.191,102.95-102.95,24.684-42.754,37.68-91.254,37.68-140.62l.005.002ZM727.074,468.755c-2.258-.039-4.496.41-6.562,1.312l-51.75,18.75,25.125-43.875c1.773-3.129,2.609-6.699,2.41-10.289-.199-3.59-1.426-7.051-3.535-9.961-36.477-49.82-52.688-111.63-45.359-172.94,7.332-61.309,37.66-117.55,84.855-157.37,47.199-39.816,107.75-60.234,169.41-57.133,61.672,3.102,119.87,29.492,162.83,73.844,42.965,44.348,67.496,103.35,68.637,165.09,1.145,61.738-21.188,121.61-62.48,167.52-41.293,45.906-98.469,74.434-159.98,79.816-61.512,5.383-122.78-12.781-171.41-50.824-3.473-2.703-7.789-4.098-12.188-3.938l-.002-.003Z"/>
  <path d="M648.374,869.445c19.688-19.449,31.617-45.41,33.551-73.02,1.93-27.609-6.262-54.977-23.051-76.98l-59.25-76.688c-16.457-21.355-37.586-38.66-61.766-50.59-24.184-11.926-50.773-18.16-77.734-18.223h-24.188c30.902-20.629,51.406-53.582,56.266-90.418,4.859-36.832-6.398-73.977-30.891-101.91-24.496-27.938-59.844-43.957-97-43.957s-72.504,16.02-97,43.957c-24.492,27.938-35.75,65.082-30.891,101.91,4.859,36.836,25.363,69.789,56.266,90.418h-12.75c-25.633-.031-50.965,5.539-74.219,16.324-23.258,10.785-43.871,26.523-60.406,46.113l-69.375,81.75c-18.332,21.879-27.773,49.844-26.453,78.359,1.32,28.512,13.305,55.488,33.578,75.578l120.75,118.31v42l-15.562,127.88,37.5,4.5,15.75-129c.094-.746.094-1.504,0-2.25v-13.688c7.578,3.004,15.66,4.531,23.812,4.5,17.387-.223,33.973-7.355,46.094-19.828,12.117-12.469,18.773-29.254,18.5-46.641-.277-17.387-7.461-33.949-19.969-46.031l-68.625-64.312v-129c.023-5.219-2.133-10.211-5.945-13.777-3.812-3.562-8.938-5.375-14.145-5.004-5.203.371-10.02,2.898-13.285,6.969l-53.812,67.312c-5.438,6.844-8.059,15.508-7.328,24.219s4.762,16.816,11.266,22.656l126.56,117.56c3.648,3.402,6.332,7.711,7.781,12.484s1.609,9.848.469,14.703c-2.488,9.676-9.922,17.305-19.527,20.043-9.605,2.738-19.945.176-27.16-6.731l-136.88-133.69c-13.582-13.426-21.605-31.477-22.477-50.551-.867-19.078,5.484-37.781,17.789-52.387l69.188-81.938c26.457-31.148,65.258-49.109,106.12-49.125h180.19c43.227-.047,84.023,19.969,110.44,54.188l59.062,76.688c11.324,14.703,16.875,33.051,15.594,51.566-1.277,18.516-9.293,35.926-22.531,48.934l-139.12,136.31c-3.484,3.5-7.852,5.996-12.637,7.219-4.785,1.219-9.816,1.121-14.551-.281-9.312-2.973-16.41-10.57-18.75-20.062-.266-2.18-.266-4.383,0-6.562-.047-7.836,3.223-15.328,9-20.625l123.94-117.56c6.434-5.949,10.363-14.125,10.992-22.863.625-8.742-2.098-17.395-7.617-24.199l-53.812-67.312c-3.266-4.07-8.082-6.598-13.285-6.969-5.207-.371-10.332,1.441-14.145,5.004-3.812,3.566-5.969,8.559-5.945,13.777v129l-68.438,63.562c-8.484,8.059-14.688,18.219-17.98,29.445-3.293,11.23-3.559,23.129-.77,34.492,2.789,11.188,8.492,21.438,16.527,29.703s18.117,14.258,29.223,17.359c6.121,1.602,12.422,2.418,18.75,2.438,6.039-.098,12.035-1.043,17.812-2.812v14.062l15.75,129,37.5-4.5-15.562-127.88v-36.188l128.812-126.738ZM203.814,813.195l-18.75-17.25,18.75-23.438v40.688ZM364.314,558.005c-24.266,0-47.539-9.641-64.699-26.801-17.16-17.16-26.801-40.434-26.801-64.699s9.641-47.539,26.801-64.699c17.16-17.16,40.434-26.801,64.699-26.801s47.539,9.641,64.699,26.801c17.16,17.16,26.801,40.434,26.801,64.699-.051,24.254-9.707,47.496-26.855,64.645-17.148,17.148-40.391,26.805-64.645,26.855h0ZM524.814,771.945l18.75,23.438-18.75,17.25v-40.688Z"/>
  <path d="M378.004,1168.355l35.625-11.625-30.562-97.5c-1.656-5.035-5.363-9.133-10.207-11.281-4.844-2.152-10.367-2.152-15.211,0-4.844,2.148-8.551,6.246-10.207,11.281l-31.5,97.5,35.625,11.625,12.75-42.375,13.687,42.375Z"/>
  <path d="M65.439,1031.255c2.176-.004,4.332-.383,6.375-1.125,4.898-1.516,8.965-4.969,11.25-9.562l8.25-17.625,40.5,18.75,16.125-33.938-57.938-26.625c-4.621-1.926-9.816-1.926-14.438,0-4.688,1.644-8.531,5.086-10.688,9.562l-8.25,17.625-40.5-18.75L0,1002.192l57.375,27.188c2.516,1.219,5.27,1.859,8.062,1.875h.002Z"/>
  <path d="M656.814,1030.155c4.621,1.926,9.816,1.926,14.438,0l57.375-27.188-16.125-33.938-40.5,18.75-7.688-17.812c-2.156-4.477-6-7.918-10.688-9.562-4.621-1.926-9.816-1.926-14.438,0l-57.375,27.188,16.125,33.938,40.5-18.75,8.25,17.625c1.984,4.441,5.613,7.938,10.125,9.75h0Z"/>
</svg>