<?xml version="1.0" encoding="UTF-8"?>
<svg id="Layer_1" data-name="Layer 1" xmlns="http://www.w3.org/2000/svg" viewBox="0 0 1002.388 1013.653">
  <path d="M405.171,220.235l16.941-5.648-4.234,18.352c0,1.41-8.469,31.059-21.176,56.469,25.41,40.941,72,69.176,124.23,69.176,80.469,0,145.41-64.941,145.41-145.41s-64.941-145.41-145.41-145.41-145.41,64.941-145.41,145.41c0,5.648,0,12.707,1.41,18.352,15.527-7.055,26.82-11.289,28.234-11.289l.005-.002ZM560.461,187.762l39.531-26.824,11.293,16.941s-18.352,12.707-29.648,21.176c8.469,9.883,24,26.824,24,26.824l-15.531,14.117-39.531-43.766,9.886-8.468ZM472.934,162.352l14.117-14.117,43.766,46.59-52.234,28.234-9.883-16.941s18.352-9.883,29.648-15.531c-9.887-11.293-25.414-28.234-25.414-28.234h0ZM465.875,255.528l8.469-7.059s18.352,22.59,25.41,31.059c8.469-7.059,29.648-25.41,29.648-25.41,0,0,18.352,24,25.41,33.883,8.469-7.059,31.059-22.59,31.059-22.59l26.824,38.117-18.352,11.293s-8.469-12.707-14.117-21.176c-8.469,7.059-31.059,22.59-31.059,22.59,0,0-16.941-22.59-24-32.469-8.469,7.059-28.234,24-28.234,24,0,0-16.941-21.176-24-31.059-8.469,8.469-21.176,19.766-21.176,19.766l-14.117-14.117,28.235-26.828Z"/>
  <path d="M975.551,615.535c-9.883-40.941-86.117-271.06-88.941-279.53-1.41-5.648-4.234-8.469-5.648-12.707l-1.41-19.766,8.469-165.18c-2.824,0-4.234,1.41-7.059,1.41-5.648,2.824-11.293,7.059-12.707,14.117,0,0-14.117,39.531-18.352,48-2.824,9.883-15.531,5.648-15.531,5.648l-46.59-117.18c-1.41-2.824-2.824-4.234-5.648-5.648-2.824-1.41-5.648-1.41-8.469,0-2.824,1.41-4.234,2.824-5.648,5.648-1.41,2.824-1.41,5.648,0,7.059l31.059,79.059-12.707,5.648-36.707-91.766c-1.41-2.824-2.824-4.234-5.648-5.648-2.824-1.41-5.648-1.41-8.469,0-2.824,1.41-4.234,2.824-5.648,5.648-1.41,2.824-1.41,5.648,0,7.059l36.707,91.766-12.707,5.648-33.871-77.645c-1.41-2.824-2.824-4.234-5.648-5.648-2.824-1.41-5.648-1.41-8.469,0-2.824,1.41-4.234,2.824-5.648,5.648-1.41,2.824-1.41,5.648,0,7.059l36.707,90.352-12.707,5.648-22.59-56.469c-1.41-2.824-2.824-4.234-5.648-5.648-2.824-1.41-5.648-1.41-8.469,0-2.824,1.41-4.234,2.824-5.648,5.648-1.41,2.824-1.41,5.648,0,7.059l40.941,103.06c8.469,21.176,24,50.824,43.766,69.176,0,2.824,1.41,5.648,1.41,9.883,9.883,33.883,24,79.059,59.293,200.47,0,0-83.293-80.469-114.35-110.12-60.707-60.707-124.23-63.531-214.59-62.117-24,0-45.176,1.41-63.531,4.234-60.707-2.824-252.71,18.352-282.35,22.59-50.82,8.469-127.05,31.059-127.05,115.76-2.824,69.18,2.824,200.47,2.824,204.71,0,5.648,1.41,9.883,1.41,15.531v1.41c2.824,18.352-2.824,40.941,22.59,97.41l48,100.23c1.41,2.824,2.824,4.234,5.648,5.648,2.824,1.41,5.648,0,8.469,0,2.824-1.41,4.234-2.824,5.648-5.648,1.41-2.824,1.41-5.648,0-7.059l-26.824-55.059,12.707-5.648,42.352,87.531c1.41,2.824,2.824,4.234,5.648,4.234,2.824,1.41,5.648,0,8.469,0,2.824-1.41,4.234-2.824,5.648-5.648,1.41-2.824,1.41-5.648,0-7.059l-36.707-76.234,12.707-5.648,42.352,90.352c1.41,2.824,2.824,4.234,5.648,5.648,2.824,1.41,5.648,0,8.469-1.41,2.824-1.41,4.234-2.824,5.648-5.648,1.41-2.824,1.41-5.648,0-7.059l-42.352-90.352,12.707-5.648,36.707,76.234c1.41,2.824,2.824,4.234,5.648,4.234,2.824,1.41,5.648,0,8.469,0,2.824-1.41,4.234-2.824,5.648-5.648,1.41-2.824,1.41-5.648,0-7.059l-55.059-114.35s5.648-11.293,15.531-7.059c8.469,4.234,48,19.766,48,19.766,5.648,2.824,12.707,2.824,18.352,0,2.824-1.41,4.234-2.824,5.648-4.234l-115.77-96v-5.648c0-50.824,5.648-146.82,5.648-146.82,0,0,110.12-9.883,151.06-12.707-21.176,155.29-57.883,453.18-57.883,453.18l398.11-8.465,32.469-384s141.18,94.59,151.06,100.23c88.945,53.648,165.18-23.996,145.41-104.47l-.004.006Z"/>
  <path d="M340.231,314.825c7.059,1.41,16.941-2.824,24-11.293,8.469-8.469,15.531-24,21.176-38.117,2.824-7.059,5.648-12.707,7.059-18.352-4.234,1.41-7.059,2.824-11.293,5.648-14.117,5.648-29.648,14.117-40.941,24-8.469,5.648-12.707,14.117-12.707,21.176v4.234c2.824,5.645,7.059,11.293,12.707,12.703h0Z"/>
  <path d="M165.171,74.825s38.117,1.41,53.648,1.41c-4.234,14.117-15.531,48-15.531,48,0,0,42.352,1.41,55.059,2.824-1.41,14.117-4.234,48-4.234,48l19.766,1.41,7.059-67.766s-35.293-1.41-50.824-1.41c4.234-14.117,15.531-48,15.531-48,0,0-38.117-1.41-53.648-1.41,4.234-14.117,14.117-46.59,14.117-46.59L138.347,0l-2.824,19.766s31.059,5.648,45.176,8.469c-4.234,9.887-15.527,46.59-15.527,46.59h0Z"/>
  <path d="M74.821,255.535s28.234-25.41,39.531-35.293c7.059,12.707,25.41,43.766,25.41,43.766,0,0,31.059-28.234,40.941-36.707,8.469,9.883,32.469,36.707,32.469,36.707l15.531-12.707-45.176-52.234s-26.824,24-38.117,32.469c-7.059-12.707-25.41-43.766-25.41-43.766,0,0-28.234,25.41-39.531,35.293-7.059-12.707-24-42.352-24-42.352l-8.469,5.648L0,217.418l11.293,16.941s26.824-18.352,38.117-25.41c5.648,11.293,25.41,46.586,25.41,46.586h0Z"/>
  <path d="M974.151,821.645s-28.234,16.941-39.531,24c-4.234-12.707-15.531-43.766-15.531-43.766,0,0-29.648,16.941-40.941,24-4.234-12.707-14.117-42.352-14.117-42.352l-9.883,2.824-52.23,19.766,7.059,18.352s29.648-11.293,42.352-15.531c4.234,11.293,15.531,46.59,15.531,46.59,0,0,29.648-16.941,40.941-24,4.234,12.707,15.531,43.766,15.531,43.766,0,0,31.059-18.352,42.352-25.41,5.648,11.293,18.352,35.293,18.352,35.293l18.352-8.469-28.237-55.063Z"/>
  <path d="M840.001,904.945s-33.883-2.824-48-4.234c4.234-12.707,15.531-40.941,15.531-40.941l-63.531-18.352-5.648,19.766s29.648,8.469,43.766,12.707c-4.234,11.293-16.941,45.176-16.941,45.176,0,0,33.883,2.824,48,4.234-4.234,12.707-16.941,43.766-16.941,43.766,0,0,36.707,2.824,50.824,4.234-2.824,12.707-8.469,38.117-8.469,38.117l19.766,4.234,12.707-59.293s-32.469-2.824-46.59-4.234c4.231-14.121,15.527-45.18,15.527-45.18h0Z"/>
</svg>