<?xml version="1.0" encoding="UTF-8"?>
<svg id="Layer_1" data-name="Layer 1" xmlns="http://www.w3.org/2000/svg" viewBox="0 0 744.111 743.992">
  <defs>
    <style>
      .cls-1 {
        fill: red;
      }
    </style>
  </defs>
  <g id="Layer_1-2" data-name="Layer 1">
    <path d="M718.487,39.37l-161.25,164.12c4.293,7.184,6.766,15.57,6.766,24.512v318.01h8.629c7.828.047,7.984,11.949,0,12h-8.629v123.9l124.04-123.9h-19.41c-7.828-.047-7.984-11.949,0-12h24c1.981.012,3.766.941,4.894,2.527l13.668-13.652c5.5-5.469,8.918-10.535,8.918-18.875V48.012c0-3.039-.578-5.953-1.625-8.641v-.002h-.001ZM212.266,30.009l-17.625,17.605c1.984.93,3.453,2.93,3.469,5.438v24c-.047,7.828-11.949,7.984-12,0v-20.914l-124,123.87h124v-6.949c.047-7.828,11.949-7.984,12,0v6.949h317.89c8.84,0,17.137,2.414,24.262,6.617L699.752,24.295c-1.188-.184-2.406-.277-3.641-.277H228.111c-5.879,0-11.441,2.117-15.844,6v-.008h0ZM24.536,183.739c55.336-54.84,116.52-111.93,168.29-168.18,9.09-9.879,21.848-15.559,35.285-15.559h468c26.426,0,48,21.574,48,48v468c0,14.617-5.992,25.855-16.043,35.844l-169.49,169.3c-12.719,12.703-21.707,22.848-42.578,22.848H48c-26.426,0-48-21.574-48-48V227.992c0-21.602,11.246-31.09,24.531-44.258l.005.005h0ZM516.006,203.997H48.006c-13.176,0-24,10.824-24,24v468c0,13.176,10.824,24,24,24h468c13.176,0,24-10.824,24-24V227.997c0-13.176-10.824-24-24-24ZM198.116,113.048c-.051-7.984-11.953-7.828-12,0v24c.051,7.984,11.953,7.828,12,0v-24ZM198.116,233.048c-.051-7.984-11.953-7.828-12,0v24c.051,7.984,11.953,7.828,12,0v-24ZM198.116,293.048c-.051-7.984-11.953-7.828-12,0v24c.051,7.984,11.953,7.828,12,0v-24ZM198.116,353.048c-.051-7.984-11.953-7.828-12,0v24c.051,7.984,11.953,7.828,12,0v-24ZM198.116,413.048c-.051-7.984-11.953-7.828-12,0v24c.051,7.984,11.953,7.828,12,0v-24ZM198.116,473.048c-.051-7.984-11.953-7.828-12,0v24c.051,7.984,11.953,7.828,12,0v-24ZM201.417,529.638c-3.699-7.051-14.227-1.434-10.641,5.547,4.324,8.367,11.293,15.008,19.828,18.977,7.188,3.277,12.195-7.578,5.023-10.898-6.129-2.848-11.109-7.621-14.211-13.629v.003h.001ZM248.636,546.009c-7.984.051-7.828,11.953,0,12h24c7.984-.051,7.828-11.953,0-12h-24,0ZM308.636,546.009c-7.984.051-7.828,11.953,0,12h24c7.984-.051,7.828-11.953,0-12h-24ZM368.636,546.009c-7.984.051-7.828,11.953,0,12h24c7.984-.051,7.828-11.953,0-12h-24ZM428.636,546.009c-7.984.051-7.828,11.953,0,12h24c7.984-.051,7.828-11.953,0-12h-24ZM488.636,546.009c-7.984.051-7.828,11.953,0,12h24c7.984-.051,7.828-11.953,0-12h-24ZM608.636,546.009c-7.984.051-7.828,11.953,0,12h24c7.984-.051,7.828-11.953,0-12h-24ZM191.796,562.583c5.66-5.66-2.922-14-8.457-8.512l-17.023,16.914c-5.66,5.66,2.922,14,8.457,8.512l17.023-16.914ZM38.626,697.853c-5.66,5.66,2.922,14,8.457,8.512l17.023-16.914c5.66-5.66-2.922-14-8.457-8.512l-17.023,16.914ZM81.188,655.564c-5.66,5.66,2.922,14,8.457,8.512l17.023-16.914c5.66-5.66-2.922-14-8.457-8.512l-17.023,16.914ZM123.75,613.275c-5.66,5.66,2.922,14,8.457,8.512l17.023-16.914c5.66-5.66-2.922-14-8.457-8.512,0,0-17.023,16.914-17.023,16.914Z"/>
  </g>
  <g id="Layer_2" data-name="Layer 2">
    <circle class="cls-1" cx="379.741" cy="555.631" r="118.295"/>
    <path d="M380.852,623.928c7.861-.414,8.491,11.551.63,11.966-71.81,3.779-109.104-83.201-59.273-133.032,5.58-5.58,14.065,2.906,8.485,8.485-42.164,42.164-10.632,115.786,50.161,112.586l-.004-.005h.001ZM377.36,682.545c-68.401,0-124.534-56.132-124.536-124.536-.002-68.403,56.132-124.534,124.536-124.536,68.401,0,124.534,56.132,124.536,124.536,0,68.401-56.132,124.534-124.536,124.536h0ZM377.36,658.548c55.215,0,100.539-45.323,100.536-100.536,0-55.215-45.323-100.539-100.536-100.536-55.215,0-100.539,45.323-100.536,100.536.003,55.218,45.323,100.539,100.536,100.536Z"/>
  </g>
</svg>