<?xml version="1.0" encoding="UTF-8"?>
<svg id="Layer_1" data-name="Layer 1" xmlns="http://www.w3.org/2000/svg" viewBox="0 0 985.07 1043.122">
  <path d="M376.814,950.169c2.218-33.165,16.577-63.013,38.679-85.115,24.074-24.086,57.346-38.973,94.09-38.973s70.017,14.899,94.09,38.973c22.103,22.103,36.463,51.95,38.67,85.115h24.613c4.951,0,8.975,4.024,8.975,8.975s-4.024,8.975-8.975,8.975h-314.747c-4.962,0-8.975-4.024-8.975-8.975s4.024-8.975,8.975-8.975h24.605ZM451.947,778.681c-1.279-4.775,1.561-9.69,6.347-10.969,4.787-1.279,9.703,1.561,10.969,6.347l8.928,33.296c1.279,4.787-1.561,9.703-6.347,10.969-4.787,1.279-9.703-1.561-10.981-6.347l-8.916-33.296ZM369.211,831.475c-3.508-3.508-3.508-9.186,0-12.694,3.508-3.508,9.186-3.508,12.694,0l24.59,24.59c3.508,3.508,3.508,9.186,0,12.694s-9.186,3.508-12.694,0l-24.59-24.59ZM322.528,861.497c-4.282-2.476-5.737-7.955-3.261-12.236,2.476-4.282,7.955-5.737,12.236-3.261l48.534,28.028c4.282,2.476,5.737,7.955,3.261,12.236-2.476,4.282-7.955,5.737-12.236,3.261l-48.534-28.028ZM396.416,781.075c-2.476-4.282-1.021-9.761,3.261-12.236,4.282-2.476,9.761-1.021,12.236,3.261l28.028,48.534c2.476,4.282,1.021,9.761-3.261,12.236-4.282,2.476-9.761,1.021-12.236-3.261l-28.028-48.534ZM549.883,774.06c1.279-4.775,6.194-7.625,10.969-6.347,4.787,1.279,7.625,6.194,6.347,10.969l-8.916,33.296c-1.279,4.787-6.194,7.625-10.981,6.347-4.775-1.279-7.625-6.194-6.347-10.969l8.927-33.296ZM637.24,818.781c3.496-3.508,9.186-3.508,12.694,0,3.508,3.508,3.508,9.186,0,12.694l-24.59,24.59c-3.496,3.508-9.186,3.508-12.694,0-3.508-3.508-3.508-9.186,0-12.694l24.59-24.59ZM687.628,845.999c4.282-2.476,9.761-1.021,12.236,3.261,2.476,4.282,1.021,9.761-3.261,12.236l-48.534,28.028c-4.282,2.476-9.761,1.021-12.236-3.261-2.476-4.282-1.021-9.761,3.261-12.236l48.534-28.028ZM607.216,772.111c2.476-4.282,7.955-5.737,12.236-3.261,4.282,2.476,5.737,7.966,3.261,12.236l-28.027,48.534c-2.476,4.282-7.966,5.737-12.236,3.261-4.282-2.476-5.737-7.955-3.261-12.236l28.027-48.534ZM500.583,748.353c0-4.951,4.024-8.975,8.975-8.975s8.975,4.024,8.975,8.975v56.056c0,4.951-4.024,8.975-8.975,8.975s-8.975-4.024-8.975-8.975v-56.056ZM624.33,950.168c-2.17-28.203-14.525-53.569-33.367-72.422-20.825-20.825-49.603-33.716-81.397-33.716s-60.572,12.881-81.397,33.716c-18.853,18.853-31.196,44.216-33.367,72.422h229.538-.01Z"/>
  <path d="M954.593,757.72h-16.211v-9.726c0-11.995-9.726-21.398-21.398-21.398-11.995,0-21.398,9.726-21.398,21.398v9.726h-81.377v-9.726c0-11.995-9.726-21.398-21.398-21.398-11.995,0-21.398,9.726-21.398,21.398v9.726h-16.211c-16.858,0-30.476,13.616-30.476,30.476v215.924c0,16.858,13.616,30.476,30.476,30.476h199.389c16.858,0,30.476-13.616,30.476-30.476v-215.924c-.001-16.858-13.617-30.476-30.477-30.476h0ZM737.372,977.211c4.863,3.566,11.023,5.836,17.832,5.836h199.389c6.484,0,12.644-2.269,17.508-5.511v.973c0,9.726-7.781,17.508-17.508,17.508l-199.389-.002c-9.726,0-17.832-7.781-17.832-17.508v-1.296ZM972.101,952.246c0,9.726-7.781,17.508-17.508,17.508h-199.389c-9.726,0-17.832-7.781-17.832-17.508v-135.196h234.728v135.196ZM908.231,747.993c0-4.863,3.89-8.429,8.429-8.429s8.429,3.89,8.429,8.429v20.101c0,4.863-3.89,8.429-8.429,8.429s-8.429-3.89-8.429-8.429v-20.101ZM784.383,747.993c0-4.863,3.89-8.429,8.429-8.429s8.429,3.89,8.429,8.429v20.101c0,4.863-3.89,8.429-8.429,8.429s-8.429-3.89-8.429-8.429v-20.101ZM755.204,770.688h16.534c1.297,10.699,10.374,19.129,21.398,19.129s20.101-8.429,21.398-19.129h81.377c1.297,10.699,10.374,19.129,21.398,19.129s20.101-8.429,21.398-19.129h16.534c9.726,0,17.508,7.781,17.508,17.508v15.887h-235.377v-15.887c0-9.726,7.78-17.508,17.832-17.508h.001ZM954.593,1021.627h-199.389c-9.726,0-17.832-7.781-17.832-17.508v-.973c4.863,3.566,11.023,5.836,17.832,5.836h199.389c6.484,0,12.644-2.269,17.508-5.511v.973c-.001,9.401-7.781,17.183-17.508,17.183h0Z"/>
  <path d="M774.008,903.939h.973c5.511,0,10.05-4.539,10.05-10.05v-.973c0-5.511-4.539-10.05-10.05-10.05h-.973c-5.511,0-10.05,4.539-10.05,10.05v.973c0,5.836,4.539,10.05,10.05,10.05Z"/>
  <path d="M814.21,903.939h.973c5.511,0,10.05-4.539,10.05-10.05v-.973c0-5.511-4.539-10.05-10.05-10.05h-.973c-5.511,0-10.05,4.539-10.05,10.05v.973c0,5.836,4.539,10.05,10.05,10.05Z"/>
  <path d="M854.412,903.939h.973c5.511,0,10.05-4.539,10.05-10.05v-.973c0-5.511-4.539-10.05-10.05-10.05h-.973c-5.511,0-10.05,4.539-10.05,10.05v.973c0,5.836,4.538,10.05,10.05,10.05Z"/>
  <path d="M774.008,863.737h.973c5.511,0,10.05-4.539,10.05-10.05v-.973c0-5.511-4.539-10.05-10.05-10.05h-.973c-5.511,0-10.05,4.539-10.05,10.05v.973c0,5.511,4.539,10.05,10.05,10.05Z"/>
  <path d="M814.21,863.737h.973c5.511,0,10.05-4.539,10.05-10.05v-.973c0-5.511-4.539-10.05-10.05-10.05h-.973c-5.511,0-10.05,4.539-10.05,10.05v.973c0,5.511,4.539,10.05,10.05,10.05Z"/>
  <path d="M854.412,863.737h.973c5.511,0,10.05-4.539,10.05-10.05v-.973c0-5.511-4.539-10.05-10.05-10.05h-.973c-5.511,0-10.05,4.539-10.05,10.05v.973c0,5.511,4.538,10.05,10.05,10.05Z"/>
  <path d="M894.614,903.939h.973c5.511,0,10.05-4.539,10.05-10.05v-.973c0-5.511-4.539-10.05-10.05-10.05h-.973c-5.511,0-10.05,4.539-10.05,10.05v.973c-.001,5.836,4.538,10.05,10.05,10.05Z"/>
  <path d="M934.817,903.939h.973c5.511,0,10.05-4.539,10.05-10.05v-.973c0-5.511-4.539-10.05-10.05-10.05h-.973c-5.511,0-10.05,4.539-10.05,10.05v.973c0,5.836,4.539,10.05,10.05,10.05Z"/>
  <path d="M894.614,863.737h.973c5.511,0,10.05-4.539,10.05-10.05v-.973c0-5.511-4.539-10.05-10.05-10.05h-.973c-5.511,0-10.05,4.539-10.05,10.05v.973c-.001,5.511,4.538,10.05,10.05,10.05Z"/>
  <path d="M934.817,863.737h.973c5.511,0,10.05-4.539,10.05-10.05v-.973c0-5.511-4.539-10.05-10.05-10.05h-.973c-5.511,0-10.05,4.539-10.05,10.05v.973c0,5.511,4.539,10.05,10.05,10.05Z"/>
  <path d="M774.008,944.465h.973c5.511,0,10.05-4.539,10.05-10.05v-.973c0-5.511-4.539-10.05-10.05-10.05h-.973c-5.511,0-10.05,4.539-10.05,10.05v.973c0,5.512,4.539,10.05,10.05,10.05Z"/>
  <path d="M814.21,944.465h.973c5.511,0,10.05-4.539,10.05-10.05v-.973c0-5.511-4.539-10.05-10.05-10.05h-.973c-5.511,0-10.05,4.539-10.05,10.05v.973c0,5.512,4.539,10.05,10.05,10.05Z"/>
  <path d="M854.412,944.465h.973c5.511,0,10.05-4.539,10.05-10.05v-.973c0-5.511-4.539-10.05-10.05-10.05h-.973c-5.511,0-10.05,4.539-10.05,10.05v.973c0,5.512,4.538,10.05,10.05,10.05Z"/>
  <path d="M894.614,944.465h.973c5.511,0,10.05-4.539,10.05-10.05v-.973c0-5.511-4.539-10.05-10.05-10.05h-.973c-5.511,0-10.05,4.539-10.05,10.05v.973c-.001,5.512,4.538,10.05,10.05,10.05Z"/>
  <path d="M934.817,944.465h.973c5.511,0,10.05-4.539,10.05-10.05v-.973c0-5.511-4.539-10.05-10.05-10.05h-.973c-5.511,0-10.05,4.539-10.05,10.05v.973c0,5.512,4.539,10.05,10.05,10.05Z"/>
  <path d="M73.42,1018.456c-27.182,0-49.293-22.112-49.293-49.293s22.112-49.293,49.293-49.293,49.293,22.112,49.293,49.293c.015,27.167-22.112,49.293-49.293,49.293ZM73.42,925.508c-24.062,0-43.651,19.576-43.651,43.651s19.576,43.651,43.651,43.651,43.651-19.576,43.651-43.651-19.576-43.651-43.651-43.651h0Z"/>
  <path d="M73.42,911.225c-1.56,0-2.82-1.26-2.82-2.82v-9.841c0-1.56,1.26-2.82,2.82-2.82s2.82,1.26,2.82,2.82v9.856c0,1.545-1.26,2.805-2.82,2.805h0Z"/>
  <path d="M73.42,1042.576c-1.56,0-2.82-1.26-2.82-2.82v-9.856c0-1.56,1.26-2.82,2.82-2.82s2.82,1.26,2.82,2.82v9.856c0,1.545-1.26,2.82-2.82,2.82Z"/>
  <path d="M43.053,919.373c-.975,0-1.92-.51-2.445-1.41l-4.92-8.536c-.78-1.35-.315-3.075,1.035-3.855,1.35-.78,3.075-.315,3.855,1.035l4.92,8.536c.78,1.35.315,3.075-1.035,3.855-.45.255-.93.375-1.41.375h0Z"/>
  <path d="M108.715,1033.11c-.975,0-1.92-.51-2.445-1.41l-4.92-8.536c-.78-1.35-.315-3.075,1.035-3.855s3.075-.315,3.855,1.035l4.92,8.536c.78,1.35.315,3.075-1.035,3.855-.435.255-.93.375-1.41.375h0Z"/>
  <path d="M20.811,941.602c-.48,0-.96-.12-1.41-.375l-8.536-4.92c-1.35-.78-1.815-2.505-1.035-3.855s2.505-1.815,3.855-1.035l8.536,4.92c1.35.78,1.815,2.505,1.035,3.855-.51.9-1.47,1.41-2.445,1.41h0Z"/>
  <path d="M134.564,1007.278c-.48,0-.96-.12-1.41-.375l-8.536-4.935c-1.35-.78-1.815-2.505-1.035-3.855s2.505-1.815,3.855-1.035l8.536,4.92c1.35.78,1.815,2.505,1.035,3.855-.525.915-1.47,1.425-2.445,1.425h0Z"/>
  <path d="M12.676,971.979H2.82c-1.56,0-2.82-1.26-2.82-2.82s1.26-2.82,2.82-2.82h9.856c1.56,0,2.82,1.26,2.82,2.82s-1.26,2.82-2.82,2.82Z"/>
  <path d="M144.014,971.979h-9.856c-1.56,0-2.82-1.26-2.82-2.82s1.26-2.82,2.82-2.82h9.856c1.56,0,2.82,1.26,2.82,2.82s-1.26,2.82-2.82,2.82Z"/>
  <path d="M12.289,1007.278c-.975,0-1.92-.51-2.445-1.41-.78-1.35-.315-3.075,1.035-3.855l8.536-4.92c1.35-.78,3.075-.33,3.855,1.035.78,1.35.315,3.075-1.035,3.855l-8.536,4.921c-.45.255-.93.375-1.41.375h0Z"/>
  <path d="M126.029,941.602c-.975,0-1.92-.51-2.445-1.41-.78-1.35-.315-3.075,1.035-3.855l8.536-4.92c1.35-.78,3.075-.33,3.855,1.035.78,1.35.315,3.075-1.035,3.855l-8.536,4.92c-.435.255-.93.375-1.41.375h0Z"/>
  <path d="M38.118,1033.11c-.48,0-.96-.12-1.41-.375-1.35-.78-1.815-2.505-1.035-3.855l4.92-8.536c.78-1.35,2.505-1.815,3.855-1.035,1.35.78,1.815,2.505,1.035,3.855l-4.92,8.536c-.525.9-1.47,1.41-2.445,1.41h0Z"/>
  <path d="M103.797,919.373c-.48,0-.96-.12-1.41-.375-1.35-.78-1.815-2.505-1.035-3.855l4.92-8.536c.78-1.35,2.505-1.815,3.855-1.035s1.815,2.505,1.035,3.855l-4.92,8.536c-.525.9-1.47,1.41-2.445,1.41h0Z"/>
  <path d="M73.585,885.711c-4.215,0-7.65-3.45-7.65-7.696v-7.891l-.675.66c-2.82,2.88-7.995,2.91-10.876-.03-1.44-1.44-2.235-3.375-2.235-5.43s.81-3.99,2.265-5.46l11.536-11.491v-22.051l-20.732,11.986-4.185,15.661c-.525,1.995-1.815,3.66-3.615,4.68-1.785,1.02-3.855,1.29-5.85.75-1.92-.48-3.675-1.83-4.635-3.6-1.005-1.665-1.305-3.825-.765-5.806l.225-.87-6.856,3.945c-1.815,1.035-3.901,1.305-5.895.765-1.965-.54-3.585-1.8-4.575-3.57-1.02-1.77-1.29-3.84-.765-5.821s1.815-3.645,3.6-4.68l6.766-3.915-.84-.225c-1.98-.525-3.66-1.815-4.695-3.615-1.035-1.8-1.32-3.87-.78-5.85,1.095-4.08,5.355-6.51,9.466-5.43l15.721,4.23,20.341-11.761-18.811-10.861-15.661,4.23c-4.126,1.095-8.34-1.35-9.421-5.445-.54-1.965-.285-4.08.735-5.806.945-1.68,2.64-3,4.635-3.555l.915-.255-6.841-3.93c-3.66-2.145-4.92-6.856-2.82-10.516,2.13-3.645,6.856-4.875,10.516-2.775l6.841,3.945-.24-.9c-.555-1.95-.285-4.05.75-5.85s2.715-3.06,4.725-3.57c4.05-1.08,8.281,1.35,9.376,5.445l4.185,15.751,19.127,11.026v-23.972l-11.491-11.431c-3.015-3.015-3.015-7.906,0-10.921,2.85-2.85,8.026-2.805,10.831,0l.66.66v-7.891c0-4.245,3.435-7.696,7.65-7.696,4.245,0,7.696,3.45,7.696,7.696v7.846l.615-.615c1.47-1.47,3.315-2.4,5.52-2.265,2.07.015,3.99.825,5.416,2.28,2.985,2.985,2.985,7.891-.015,10.891l-11.536,11.491v23.492l18.811-10.861,4.185-15.661c.525-1.995,1.785-3.675,3.57-4.71,1.77-1.035,3.855-1.305,5.85-.78,1.995.555,3.69,1.83,4.68,3.525,1.035,1.71,1.32,3.87.765,5.865l-.24.9,6.841-3.96c1.755-1.035,3.825-1.305,5.821-.78s3.66,1.815,4.695,3.6c2.085,3.675.795,8.37-2.865,10.471l-6.826,3.945.87.24c2.01.54,3.69,1.83,4.725,3.645,1.02,1.785,1.26,3.855.705,5.821-.51,1.935-1.785,3.6-3.555,4.635-1.785,1.035-3.87,1.32-5.85.795l-15.721-4.26-19.127,11.071,20.732,11.941,15.676-4.215c1.995-.525,4.08-.255,5.865.78,1.785,1.035,3.06,2.7,3.6,4.695.48,1.905.21,3.975-.735,5.686-1.11,1.86-2.79,3.15-4.695,3.675l-.9.24,6.826,3.945c1.785,1.035,3.06,2.685,3.6,4.68.525,1.965.255,4.02-.78,5.79-2.1,3.675-6.826,4.935-10.516,2.82l-6.795-3.945.225.87c.525,1.98.225,4.14-.825,5.94-1.035,1.77-2.7,3.03-4.65,3.525-4.095,1.08-8.326-1.365-9.436-5.49l-4.185-15.706-20.341-11.731v21.707l11.491,11.446c1.455,1.455,2.265,3.39,2.265,5.46s-.81,4.006-2.265,5.46c-2.895,2.895-7.951,2.865-10.831,0l-.66-.66v7.891c.045,4.26-3.405,7.711-7.65,7.711h0s0,0,0,0ZM68.755,860.524c.36,0,.735.075,1.08.225,1.05.435,1.74,1.47,1.74,2.61v14.671c0,1.125.9,2.055,2.01,2.055,1.125,0,2.055-.915,2.055-2.055v-14.671c0-1.14.69-2.16,1.74-2.61,1.065-.435,2.265-.195,3.075.6l5.475,5.445c.75.75,2.07.78,2.85.015.39-.39.615-.915.615-1.47s-.21-1.065-.615-1.455l-12.316-12.271c-.525-.525-.825-1.245-.825-1.995v-27.767c0-1.005.54-1.935,1.41-2.445.87-.495,1.95-.495,2.82,0l25.592,14.761c.645.375,1.125.99,1.32,1.725l4.485,16.847c.3,1.11,1.44,1.8,2.55,1.485.51-.135.93-.45,1.2-.915.3-.495.375-1.08.225-1.635l-1.965-7.456c-.285-1.11.105-2.28,1.02-2.97.9-.69,2.145-.765,3.135-.195l12.661,7.351c1.005.585,2.22.24,2.79-.75l.015-.015c.27-.465.345-.99.21-1.5-.135-.525-.48-.96-.96-1.23l-12.721-7.366c-.99-.57-1.53-1.68-1.38-2.82.15-1.125.96-2.055,2.07-2.355l7.441-1.995c.495-.135.96-.51,1.275-1.035.195-.375.285-.99.165-1.485-.135-.495-.48-.93-.96-1.215s-1.05-.36-1.575-.21l-16.786,4.515c-.72.18-1.5.09-2.145-.285l-25.982-14.971c-.87-.495-1.41-1.44-1.41-2.445s.54-1.935,1.41-2.445l24.377-14.101c.645-.375,1.425-.48,2.16-.285l16.847,4.575c.525.135,1.065.06,1.53-.21.48-.285.81-.735.96-1.275s.09-1.065-.165-1.53c-.27-.48-.72-.84-1.26-.975l-7.456-2.01c-1.11-.3-1.92-1.23-2.07-2.355-.15-1.14.39-2.235,1.38-2.82l12.706-7.351c.99-.57,1.335-1.815.78-2.775-.27-.465-.705-.795-1.245-.945-.525-.15-1.08-.06-1.53.195l-12.721,7.366c-.99.57-2.22.495-3.12-.195-.9-.69-1.305-1.86-1.02-2.955l1.965-7.486c.15-.555.09-1.11-.165-1.53-.27-.45-.75-.81-1.29-.96-.51-.135-1.065-.06-1.53.21s-.795.72-.945,1.275l-4.485,16.816c-.195.72-.66,1.35-1.32,1.725l-24.062,13.876c-.87.495-1.95.495-2.82,0-.87-.51-1.41-1.44-1.41-2.445v-29.552c0-.75.3-1.47.825-1.995l12.361-12.316c.81-.81.81-2.115,0-2.925-.39-.405-.99-.675-1.455-.615-.555,0-1.08.225-1.485.615l-5.445,5.43c-.81.81-2.025,1.05-3.075.615s-1.74-1.47-1.74-2.61v-14.671c0-1.125-.915-2.055-2.055-2.055-1.11,0-2.01.915-2.01,2.055v14.671c0,1.14-.69,2.16-1.74,2.61-1.035.435-2.265.21-3.075-.6l-5.49-5.445c-.705-.705-2.115-.735-2.85-.015-.81.81-.81,2.115,0,2.925l12.316,12.271c.525.525.825,1.245.825,1.995v30.032c0,1.005-.54,1.935-1.41,2.445-.87.495-1.95.495-2.82,0l-24.377-14.056c-.645-.375-1.125-.99-1.32-1.725l-4.485-16.891c-.285-1.095-1.35-1.725-2.505-1.44-.555.135-.99.465-1.26.93s-.345,1.005-.195,1.53l1.98,7.486c.285,1.11-.105,2.265-1.02,2.955-.9.705-2.13.78-3.12.21l-12.706-7.305c-1.005-.57-2.235-.255-2.805.72-.555.96-.21,2.22.765,2.79l12.691,7.305c.99.57,1.53,1.68,1.395,2.805-.15,1.125-.96,2.07-2.055,2.37l-7.441,2.04c-.54.15-1.005.495-1.245.915-.27.45-.33,1.02-.18,1.53.3,1.14,1.41,1.77,2.52,1.47l16.786-4.53c.72-.195,1.5-.09,2.145.285l24.062,13.891c.87.51,1.41,1.44,1.41,2.445s-.54,1.935-1.41,2.445l-25.592,14.791c-.66.375-1.425.465-2.145.285l-16.847-4.53c-1.11-.3-2.25.36-2.55,1.44-.135.525-.06,1.08.225,1.56.285.495.735.84,1.26.99l7.41,2.01c1.11.3,1.92,1.23,2.07,2.355.15,1.125-.405,2.235-1.38,2.805l-12.661,7.305c-.48.285-.825.72-.96,1.23-.135.525-.06,1.08.225,1.575.255.465.675.78,1.17.915.54.15,1.095.075,1.59-.21l12.706-7.305c.975-.57,2.22-.495,3.12.21.9.69,1.305,1.86,1.02,2.955l-1.965,7.441c-.15.51-.06,1.08.21,1.53.27.48.72.825,1.14.93.585.15,1.155.09,1.635-.195.48-.27.81-.705.945-1.23l4.485-16.801c.195-.72.66-1.35,1.32-1.725l25.982-15.016c.87-.495,1.95-.495,2.82,0,.87.51,1.41,1.44,1.41,2.445v28.112c0,.75-.3,1.47-.825,1.995l-12.361,12.316c-.39.39-.6.915-.6,1.455,0,.555.21,1.065.615,1.455.78.81,2.13.78,2.865.03l5.52-5.475c.495-.51,1.215-.795,1.95-.795h0s0,0,0,0Z"/>
  <path d="M229.38,886.251c-12.871,0-20.131-7.291-21.662-21.692-11.251,9.091-21.527,9.091-30.632-.015-4.515-4.485-6.826-9.361-6.84-14.506-.015-5.175,2.205-10.471,6.751-16.081-14.311-1.53-21.556-8.791-21.556-21.662s7.246-20.192,21.572-21.722c-4.545-5.625-6.766-10.936-6.735-16.126.015-5.13,2.31-9.991,6.826-14.461,9.106-9.106,19.381-9.091,30.632-.015,1.53-14.356,8.79-21.632,21.661-21.632s20.131,7.261,21.662,21.602c5.595-4.56,10.876-6.781,16.051-6.795h.015c5.13,0,10.036,2.295,14.566,6.826,9.091,9.091,9.076,19.351.015,30.572,14.356,1.53,21.632,8.82,21.632,21.722s-7.261,20.131-21.617,21.662c4.32,5.325,6.526,10.366,6.735,15.301.225,5.416-2.04,10.546-6.766,15.271-4.53,4.53-9.436,6.826-14.581,6.826h-.015c-5.16,0-10.456-2.235-16.036-6.781-1.545,14.416-8.806,21.707-21.677,21.707h0s0,0,0,0ZM210.254,855.649c.36,0,.735.075,1.08.21,1.05.435,1.74,1.47,1.74,2.61,0,19.621,8.715,22.127,16.306,22.127s16.321-2.52,16.321-22.127c0-1.14.69-2.175,1.74-2.61s2.28-.195,3.075.615c6.09,6.12,11.671,9.241,16.576,9.241h.015c3.63,0,7.096-1.695,10.576-5.175,5.355-5.355,9.736-13.291-4.08-27.107-.81-.81-1.05-2.025-.615-3.075s1.47-1.74,2.61-1.74c19.561,0,22.067-8.715,22.067-16.321s-2.505-16.381-22.067-16.381c-1.14,0-2.175-.69-2.61-1.74s-.195-2.265.615-3.075c13.816-13.816,9.436-21.737,4.08-27.107-3.48-3.48-6.946-5.175-10.576-5.175h-.015c-4.89,0-10.471,3.12-16.576,9.241-.81.81-2.025,1.05-3.075.615s-1.74-1.47-1.74-2.61c0-19.562-8.715-22.067-16.321-22.067s-16.306,2.505-16.306,22.067c0,1.14-.69,2.175-1.74,2.61-1.05.45-2.265.195-3.075-.615-13.846-13.846-21.797-9.451-27.167-4.08-3.465,3.435-5.145,6.856-5.16,10.486-.015,4.905,3.075,10.501,9.166,16.622.81.81,1.035,2.025.6,3.075s-1.47,1.74-2.61,1.74c-19.502,0-22.007,8.746-22.007,16.381,0,7.591,2.505,16.321,22.007,16.321,1.14,0,2.175.69,2.61,1.74s.195,2.265-.615,3.075c-6.106,6.106-9.196,11.686-9.196,16.591.015,3.63,1.695,7.066,5.175,10.516,5.385,5.385,13.336,9.781,27.182-4.065.555-.525,1.275-.81,2.01-.81h0Z"/>
  <path d="M229.38,842.229c-17.161,0-31.128-13.966-31.128-31.128s13.966-31.128,31.128-31.128,31.142,13.966,31.142,31.128-13.966,31.128-31.142,31.128h0ZM229.38,785.6c-14.056,0-25.487,11.431-25.487,25.487s11.431,25.487,25.487,25.487,25.487-11.431,25.487-25.487-11.431-25.487-25.487-25.487h0Z"/>
  <path d="M229.353,1013.039c-.675,0-1.35-.24-1.89-.735-13.981-12.646-34.652-13.051-36.527-12.721-1.05.405-2.13.105-2.91-.72-.795-.825-.87-2.07-.42-3.12l4.83-11.251c-11.821-.615-22.592-6.735-23.102-7.035-.915-.525-1.47-1.53-1.41-2.595.06-1.065.705-1.995,1.68-2.43l9.241-4.08-13.786-15.961c-.795-.93-.915-2.265-.27-3.315.63-1.05,1.875-1.575,3.06-1.275l14.881,3.525-3.54-14.941c-.33-1.425.48-2.88,1.875-3.33,1.395-.465,2.91.225,3.48,1.575,3.51,8.281,13.561,11.671,19.036,12.916-2.52-11.161-11.821-20.957-11.926-21.061-.78-.81-1.005-2.025-.57-3.06.45-1.035,1.47-1.725,2.595-1.725,6.36,0,11.446,1.38,14.866,2.7,1.26-12.346,16.891-26.657,18.931-28.487,1.065-.945,2.685-.96,3.765,0,2.04,1.815,17.716,16.141,18.992,28.487,3.405-1.32,8.49-2.7,14.866-2.7,1.125,0,2.16.675,2.595,1.71.45,1.035.225,2.25-.555,3.06-.105.105-9.406,9.916-11.941,21.061,5.475-1.26,15.511-4.635,18.977-12.916.57-1.35,2.07-2.055,3.48-1.59,1.395.45,2.205,1.905,1.875,3.33l-3.54,14.941,14.941-3.54c1.2-.285,2.43.24,3.06,1.29.63,1.05.525,2.385-.285,3.315l-13.831,15.946,9.286,4.08c.975.42,1.62,1.365,1.68,2.43.06,1.065-.495,2.07-1.41,2.595-.51.3-11.296,6.42-23.102,7.035l4.83,11.251c.45,1.035.225,2.25-.555,3.075-.795.825-1.995,1.095-3.045.675-1.62-.24-22.277.165-36.316,12.796-.54.54-1.215.795-1.89.795h-.003ZM194.535,993.898c8.1.36,23.222,3.225,34.819,12.601,11.641-9.361,26.762-12.241,34.863-12.601l-4.785-11.161c-.39-.915-.27-1.965.3-2.76.57-.81,1.53-1.23,2.52-1.17,6.96.57,14.221-1.725,18.992-3.69l-7.14-3.15c-.825-.36-1.425-1.095-1.62-1.965s.03-1.785.615-2.475l10.606-12.226-10.876,2.58c-.96.24-1.965-.06-2.64-.75-.69-.69-.975-1.695-.75-2.64l1.845-7.771c-8.176,5.911-18.571,7.066-19.171,7.14-.84.09-1.665-.195-2.265-.78s-.915-1.395-.84-2.235c.69-9.121,5.79-17.641,9.661-22.892-6.331,1.11-10.066,3.525-10.111,3.555-1.005.66-2.34.615-3.285-.135-.96-.75-1.335-2.01-.93-3.15,2.34-6.69-7.275-18.946-14.956-26.297-7.65,7.351-17.236,19.621-14.896,26.297.405,1.14.015,2.415-.93,3.165-.96.75-2.295.795-3.285.12-.045-.03-3.795-2.43-10.111-3.555,3.87,5.25,8.956,13.771,9.646,22.892.06.84-.255,1.65-.84,2.235-.6.585-1.425.885-2.265.78-.615-.06-11.041-1.23-19.247-7.171l1.845,7.801c.225.96-.06,1.95-.75,2.64s-1.695.99-2.64.75l-10.846-2.565,10.561,12.241c.585.675.81,1.59.615,2.46-.195.87-.795,1.605-1.62,1.965l-7.096,3.135c4.77,1.965,12.046,4.29,19.006,3.705.96-.075,1.95.36,2.52,1.17.585.81.69,1.86.3,2.76l-4.817,11.146h.002Z"/>
  <path d="M229.382,1043.122c-1.56,0-2.82-1.26-2.82-2.82v-87.712c0-1.56,1.26-2.82,2.82-2.82s2.82,1.26,2.82,2.82v87.696c0,1.575-1.26,2.835-2.82,2.835h0s0,0,0,0Z"/>
  <g>
    <path d="M232.352,120.726c-20.431,0-36.218-5.254-47.363-15.788-11.144-10.52-16.716-25.379-16.716-44.575,0-17.95,5.716-32.503,17.18-43.647C196.903,5.571,212.531,0,232.352,0c20.429,0,36.217,5.266,47.361,15.786,11.144,10.535,16.716,25.393,16.716,44.577,0,17.963-5.732,32.503-17.18,43.646-11.463,11.144-27.09,16.717-46.897,16.717ZM185.919,715.997V228.45h95.652v487.547h-95.652Z"/>
    <path d="M428.299,715.997V228.45h95.652v100.295l-16.716,11.144c6.18-21.664,18.254-41.63,36.217-59.899,17.95-18.254,39.309-33.112,64.078-44.575,24.755-11.448,50.148-17.18,76.151-17.18,37.146,0,68.097,7.284,92.866,21.823,24.754,14.554,43.327,36.682,55.72,66.4,12.378,29.716,18.573,67.183,18.573,112.367v297.172h-95.652v-290.671c0-27.86-3.715-50.918-11.144-69.186-7.429-18.254-18.892-31.575-34.361-39.932-15.482-8.359-34.68-11.914-57.577-10.68-18.573,0-35.608,2.946-51.076,8.823-15.482,5.892-28.948,14.09-40.396,24.61-11.463,10.534-20.431,22.751-26.932,36.681-6.501,13.93-9.751,28.948-9.751,45.041v295.314h-95.652Z"/>
  </g>
</svg>