<?xml version="1.0" encoding="UTF-8"?>
<svg id="Layer_1" data-name="Layer 1" xmlns="http://www.w3.org/2000/svg" viewBox="0 0 1112.43 989.569">
  <defs>
    <style>
      .cls-1 {
        fill-rule: evenodd;
      }
    </style>
  </defs>
  <path class="cls-1" d="M419.916,42.081c9.227,90.414,71.188,145.35,136.17,146.12h.332c64.945-.762,126.88-55.691,136.2-146.04l93.266,29.719c55.055,17.508,79.16,42.012,122.01,81.602l162.71,150.07-116.59,142.65-75.988-69.934v-91.668c1.266-24.734-36.52-24.734-35.266,0v669.8l-573.05-.148.008-669.66c.199-9.988-7.934-18.133-17.922-17.922-9.719.066-17.586,8.121-17.375,17.922v91.668l-75.895,69.801-116.59-142.56,162.62-150.01c42.934-39.586,67.027-64.16,122.09-81.668l93.27-29.742ZM454.971,39.87c33.613,7.16,66.465,10.492,101.4,10.293,34.84.266,67.559-3.055,101.11-10.148-7.773,75.148-55.961,112.23-101.24,112.85-45.277-.625-93.48-37.719-101.27-113v.005ZM676.651.003c-3.254-.066-6.453.84-9.293,2.508-36.945,9.441-71.734,12.641-111.61,12.574-39.852,0-75.266-3.348-113.27-13.266-2.148-.84-4.375-1.266-6.602-1.188-2.625.066-5.281.691-7.625,1.879l-112.23,35.691c-61.602,19.574-92.922,50.133-135.35,89.293L5.741,288.825c-6.879,6.332-7.719,16.945-1.746,24.172l138.97,169.92c6.387,7.934,18.188,8.812,25.691,1.879l65.762-60.574v547.64c-.066,9.801,7.906,17.773,17.707,17.707h608.27c9.719,0,17.641-7.906,17.641-17.641V424.188l65.828,60.625c7.508,6.934,19.238,6.039,25.707-1.879l138.95-169.92c5.828-7.238,5.066-17.773-1.801-24.105l-174.85-161.33c-42.508-39.094-73.762-69.801-135.36-89.375L686.52,3.27c-2.922-2.066-6.332-3.188-9.867-3.266h-.002Z"/>
</svg>