<?xml version="1.0" encoding="UTF-8"?>
<svg id="Layer_1" data-name="Layer 1" xmlns="http://www.w3.org/2000/svg" viewBox="0 0 1140.993 1114.596">
  <path d="M822.134,217.876l-.75-1.828c-3.188-7.688-6.703-15.234-10.547-22.594-28.828,10.031-58.172,18.188-87.75,24.516,5.156,31.781,7.969,65.859,7.969,101.25s-2.812,69.422-7.969,101.2c29.578,6.328,58.922,14.484,87.75,24.516,19.688-37.594,30.844-80.391,30.844-125.76,0-35.812-6.938-70.078-19.594-101.39l.047.09ZM302.574,1114.596c-13.266,0-24-10.734-24-24s10.734-24,24-24h43.969c22.031-14.719,40.031-34.125,52.922-56.438,9.938-17.203,16.875-36.094,20.344-55.922H136.359c-37.453,0-71.531-15.328-96.234-40.031C15.328,889.408,0,855.33,0,817.877v-497.58c0-37.453,15.328-71.531,40.031-96.234,24.797-24.797,58.875-40.125,96.328-40.125h144.89c15.844-33.797,37.453-64.359,63.516-90.422l1.359-1.266C403.827,35.25,483.044,0,570.514,0c88.125,0,167.95,35.766,225.71,93.516,26.062,26.062,47.672,56.625,63.516,90.422h144.94c37.5,0,71.625,15.328,96.281,40.031l1.312,1.406c23.906,24.609,38.719,58.125,38.719,94.922v497.58c0,37.453-15.328,71.531-40.031,96.234-24.703,24.797-58.781,40.125-96.281,40.125h-283.5c3.469,19.781,10.406,38.719,20.344,55.922,12.891,22.312,30.891,41.766,52.922,56.438h44.016c13.266,0,24,10.734,24,24s-10.734,24-24,24H302.574ZM675.934,226.496c-34.969,5.109-70.219,7.688-105.42,7.688s-70.453-2.531-105.42-7.641c-4.641,28.969-7.125,60.188-7.125,92.766s2.531,63.75,7.125,92.766c34.969-5.109,70.219-7.641,105.42-7.641s70.453,2.578,105.42,7.641c4.641-28.969,7.125-60.188,7.125-92.766s-2.531-63.797-7.125-92.766v-.047ZM417.884,218.011c-29.625-6.328-58.922-14.484-87.75-24.516-3.797,7.266-7.312,14.719-10.453,22.359-.281.797-.562,1.547-.938,2.297-12.562,31.266-19.453,65.391-19.453,101.11,0,45.375,11.156,88.172,30.844,125.76,28.828-10.031,58.172-18.234,87.75-24.516-5.156-31.781-7.969-65.859-7.969-101.2s2.812-69.422,7.969-101.2v-.094ZM670.724,67.121c6.469,10.125,12.562,21.281,18.094,33.328,9.656,20.906,17.953,44.672,24.609,70.641,23.812-5.109,47.391-11.438,70.641-19.078-6.75-8.625-14.016-16.828-21.75-24.562-25.875-25.875-57-46.547-91.594-60.328h0ZM713.427,467.431c-6.609,25.969-14.906,49.734-24.562,70.594-5.578,12.047-11.625,23.156-18.141,33.328,34.594-13.781,65.719-34.453,91.594-60.328,7.734-7.734,15-15.938,21.75-24.562-23.25-7.641-46.875-13.969-70.688-19.078l.047.046ZM470.327,571.351c-6.469-10.125-12.562-21.281-18.141-33.328-9.656-20.906-17.953-44.625-24.562-70.594-23.812,5.062-47.391,11.438-70.641,19.078,6.75,8.625,14.016,16.828,21.75,24.562,25.875,25.875,57,46.547,91.594,60.328v-.046ZM427.624,171.041c6.609-25.969,14.906-49.734,24.562-70.641,5.578-12.047,11.625-23.203,18.141-33.328-34.125,13.547-64.875,33.844-90.562,59.203l-1.031,1.125c-7.734,7.734-15,15.938-21.75,24.562,23.25,7.641,46.828,14.016,70.641,19.078h0ZM645.364,120.463c-20.719-44.766-47.297-72.516-74.812-72.516s-54.094,27.703-74.812,72.516c-8.062,17.438-15.047,37.266-20.766,58.922,31.688,4.453,63.609,6.703,95.578,6.703s63.891-2.25,95.578-6.703c-5.719-21.703-12.703-41.484-20.766-58.922ZM474.974,459.043c5.719,21.656,12.703,41.484,20.766,58.922,20.719,44.766,47.344,72.516,74.812,72.516s54.094-27.703,74.812-72.516c8.062-17.438,15.047-37.219,20.766-58.922-31.688-4.453-63.656-6.703-95.578-6.703s-63.891,2.203-95.578,6.703h0ZM263.424,231.933h-126.98c-24.328,0-46.453,9.938-62.438,25.875-15.938,15.984-25.875,38.109-25.875,62.438v433.55h1044.9v-433.55c0-23.812-9.516-45.469-24.891-61.406l-1.078-.984c-15.984-15.984-38.062-25.922-62.344-25.922h-126.98c7.875,27.75,12.094,57.047,12.094,87.328,0,88.125-35.766,167.95-93.516,225.71-57.75,57.758-137.58,93.516-225.71,93.516s-167.95-35.766-225.74-93.516c-57.75-57.75-93.516-137.58-93.516-225.71,0-30.281,4.219-59.578,12.094-87.328h-.02ZM48.084,801.793v16.031c0,24.328,9.938,46.453,25.875,62.438,15.984,15.938,38.109,25.875,62.438,25.875h868.26c24.281,0,46.359-9.938,62.344-25.922,15.984-15.938,25.922-38.062,25.922-62.391v-16.031H48.023h.061ZM672.794,954.183h-204.52c-3.844,28.453-13.219,55.594-27.281,79.922-6.609,11.438-14.297,22.312-22.969,32.438h305.02c-8.625-10.125-16.312-20.953-22.969-32.438-14.062-24.328-23.438-51.469-27.281-79.922h0Z"/>
</svg>