<?xml version="1.0" encoding="UTF-8"?>
<svg id="Layer_1" data-name="Layer 1" xmlns="http://www.w3.org/2000/svg" viewBox="0 0 1075.746 954.758">
  <path d="M1064.406,628.607c-9.047-10.406-21.094-15.938-34.922-15.938h-510.05c-8.062,0-15.562,1.875-22.172,5.578-36.188-26.016-76.594-43.688-119.39-52.5,66.891-25.641,114.52-90.516,114.52-166.31,0-98.203-79.875-178.08-178.08-178.08s-178.08,79.875-178.08,178.08c0,75.891,47.719,140.81,114.75,166.4-111.75,23.156-203.29,106.22-237.42,214.78,0,0,0,.047-.047.047-.047.094-.047.188-.094.281-3.516,11.156-6.375,22.641-8.625,34.312-.047.188-.047.375-.094.562-.469,2.578-.938,5.109-1.359,7.688-.094.562-.188,1.078-.281,1.641-.328,2.203-.703,4.453-.984,6.656-.094.703-.188,1.406-.281,2.156-.281,2.109-.516,4.266-.75,6.422-.094.703-.188,1.406-.234,2.156-.281,2.766-.562,5.578-.75,8.344v.047c-.047.609-.047,1.172-.047,1.734-.281,9.844,3.281,19.5,9.938,26.719,7.078,7.641,17.156,12.047,27.656,12.047h90.703v41.016c0,12.328,10.031,22.312,22.312,22.312h868.69c8.391,0,15.516-6.188,16.688-14.484l39.234-274.78c1.969-13.641-1.781-26.391-10.828-36.797l-.002-.089ZM169.986,399.427c0-79.594,64.734-144.32,144.32-144.32s144.32,64.734,144.32,144.32-64.734,144.32-144.32,144.32-144.32-64.734-144.32-144.32ZM314.306,593.067c58.312,0,113.72,17.625,161.21,51.141-2.25,6.656-2.859,13.781-1.828,21.234l27.422,192.19h-94.688c-8.062-50.25-51.75-88.734-104.3-88.734l-248.48-.094c42.188-103.27,144.1-175.78,260.68-175.78l-.016.043ZM34.746,856.357c-.516-.562-1.125-1.547-1.031-3,.188-2.203.375-4.359.562-6.562.141-1.266.281-2.531.422-3.797.094-.891.188-1.781.281-2.672.188-1.688.422-3.375.703-5.109.047-.422.094-.844.188-1.266.281-1.969.609-3.938.938-5.906.047-.141.047-.234.047-.375,1.406-8.438,3.234-16.828,5.438-25.125h259.87c33.844,0,62.297,23.484,69.891,54.984H37.654c-1.453,0-2.391-.656-2.906-1.219l-.002.047ZM162.056,891.326h343.87l4.219,29.625H162.045l.011-29.625ZM1041.796,660.606l-37.172,260.29h-460.4l-37.172-260.29c-.562-3.891.328-6.938,2.906-9.938,2.578-2.953,5.484-4.312,9.422-4.312h510.05c3.938,0,6.844,1.312,9.422,4.312,2.578,2.953,3.469,6.047,2.906,9.938h.038ZM774.476,728.059c-30.656,0-55.594,24.938-55.594,55.594s24.938,55.594,55.594,55.594,55.594-24.938,55.594-55.594-24.938-55.594-55.594-55.594ZM774.476,805.497c-12.047,0-21.844-9.797-21.844-21.844s9.797-21.844,21.844-21.844,21.844,9.797,21.844,21.844-9.797,21.844-21.844,21.844ZM529.926,326.437h23.391v70.453c0,6.328,3.562,12.141,9.188,15,2.438,1.266,5.062,1.875,7.688,1.875,3.469,0,6.938-1.078,9.844-3.188l9.75-7.031c7.266,4.641,15.75,7.219,24.516,7.219h208.08l117.23,84.188c2.906,2.109,6.375,3.188,9.844,3.188,2.625,0,5.25-.609,7.688-1.875,5.625-2.906,9.187-8.672,9.187-15v-70.453h23.391c25.172,0,45.609-20.438,45.609-45.609v-235.22c0-25.172-20.438-45.609-45.609-45.609h-38.766v-38.766c0-25.172-20.438-45.609-45.609-45.609h-375.42c-25.172,0-45.609,20.438-45.609,45.609v235.22c0,25.172,20.438,45.609,45.609,45.609h0ZM989.666,118.127c6.562,0,11.859,5.297,11.859,11.859v235.22c0,6.562-5.297,11.859-11.859,11.859h-40.266c-9.328,0-16.875,7.547-16.875,16.875v54.469l-94.922-68.156c-2.859-2.062-6.328-3.188-9.844-3.188h-201l70.5-50.625h208.08c25.172,0,45.609-20.438,45.609-45.609V118.122h38.766l-.048.006ZM518.056,45.611c0-6.562,5.297-11.859,11.859-11.859h375.42c6.562,0,11.859,5.297,11.859,11.859v235.22c0,6.562-5.297,11.859-11.859,11.859h-213.47c-3.516,0-6.984,1.125-9.844,3.188l-94.922,68.156v-54.469c0-9.328-7.547-16.875-16.875-16.875h-40.266c-6.562,0-11.859-5.297-11.859-11.859l-.043-235.22ZM643.166,133.173h12.328c3.234,29.109,14.812,56.953,33.422,79.828,1.031,1.266,2.062,2.484,3.141,3.703-11.719,7.641-24.891,13.312-39.094,16.453-9.094,2.016-14.859,11.016-12.844,20.109,1.734,7.875,8.719,13.219,16.453,13.219,1.219,0,2.438-.141,3.656-.375,20.719-4.594,40.266-13.5,57.328-25.922,17.062,12.422,36.609,21.375,57.328,25.922,1.219.281,2.438.375,3.656.375,7.734,0,14.719-5.344,16.453-13.219,2.016-9.094-3.75-18.094-12.844-20.109-14.203-3.141-27.375-8.812-39.094-16.453,1.078-1.219,2.109-2.438,3.141-3.703,18.609-22.828,30.188-50.672,33.422-79.828h12.328c9.328,0,16.875-7.547,16.875-16.875s-7.547-16.875-16.875-16.875h-57.516v-22.547c0-9.328-7.547-16.875-16.875-16.875s-16.875,7.547-16.875,16.875v22.547h-57.516c-9.328,0-16.875,7.547-16.875,16.875s7.547,16.875,16.875,16.875h.002ZM717.604,194.345c-14.766-17.109-24.75-38.297-28.078-61.219h56.156c-3.328,22.922-13.312,44.109-28.078,61.219Z"/>
</svg>