<?xml version="1.0" encoding="UTF-8"?>
<svg id="Layer_1" data-name="Layer 1" xmlns="http://www.w3.org/2000/svg" viewBox="0 0 1199.996 1049.992">
  <defs>
    <style>
      .cls-1 {
        fill: #74edff;
        stroke: #000;
        stroke-miterlimit: 10;
        stroke-width: 36px;
      }

      .cls-2 {
        fill: #f80;
      }
    </style>
  </defs>
  <circle class="cls-2" cx="187.498" cy="448.748" r="159.252"/>
  <circle class="cls-2" cx="187.606" cy="866.748" r="159.252"/>
  <circle class="cls-2" cx="590.75" cy="866.748" r="159.252"/>
  <circle class="cls-2" cx="1003.25" cy="866.748" r="159.252"/>
  <circle class="cls-2" cx="1003.25" cy="450" r="159.252"/>
  <path d="M584.398,216.646c3.477,5.215,9.332,8.348,15.602,8.348s12.125-3.133,15.602-8.348l37.5-56.25c2.797-4.141,3.832-9.223,2.867-14.125-.961-4.902-3.84-9.215-7.996-11.984-4.156-2.773-9.246-3.77-14.141-2.773-4.894.996-9.191,3.906-11.934,8.082l-3.148,4.723V18.749c0-6.699-3.574-12.887-9.375-16.238-5.801-3.348-12.949-3.348-18.75,0-5.801,3.352-9.375,9.539-9.375,16.238v125.57l-3.148-4.723v-.004c-2.742-4.172-7.039-7.082-11.934-8.078-4.894-.996-9.984,0-14.141,2.773-4.156,2.77-7.035,7.082-7.996,11.984-.965,4.902.07,9.984,2.867,14.121l37.501,56.254Z"/>
  <path d="M187.498,674.996c-49.727,0-97.418,19.754-132.58,54.918C19.754,765.078,0,812.769,0,862.494s19.754,97.418,54.918,132.58c35.164,35.164,82.855,54.918,132.58,54.918s97.418-19.754,132.58-54.918c35.164-35.164,54.918-82.855,54.918-132.58-.059-49.711-19.828-97.367-54.98-132.52-35.152-35.152-82.809-54.922-132.52-54.98l.002.002ZM187.498,1012.496c-39.781,0-77.938-15.805-106.07-43.934s-43.934-66.285-43.934-106.07,15.805-77.938,43.934-106.07,66.285-43.934,106.07-43.934,77.938,15.805,106.07,43.934,43.934,66.285,43.934,106.07c-.047,39.77-15.863,77.895-43.984,106.02-28.121,28.125-66.246,43.938-106.02,43.984Z"/>
  <path d="M242.478,903.306c-16.566,10.086-35.582,15.418-54.977,15.418s-38.41-5.332-54.977-15.418c-5.516-3.801-12.641-4.375-18.691-1.5-6.055,2.871-10.113,8.758-10.648,15.434-.539,6.68,2.527,13.137,8.043,16.941,22.645,14.82,49.211,22.527,76.273,22.121,27.062.406,53.629-7.301,76.273-22.121,5.516-3.805,8.582-10.262,8.043-16.941-.535-6.676-4.594-12.562-10.648-15.434-6.051-2.875-13.176-2.301-18.691,1.5h0Z"/>
  <path d="M159.378,824.996c0,10.355-8.395,18.75-18.75,18.75s-18.75-8.394-18.75-18.75,8.395-18.75,18.75-18.75,18.75,8.394,18.75,18.75Z"/>
  <path d="M253.118,824.996c0,10.355-8.395,18.75-18.75,18.75s-18.75-8.394-18.75-18.75,8.395-18.75,18.75-18.75,18.75,8.394,18.75,18.75Z"/>
  <path d="M1012.498,674.996c-49.727,0-97.418,19.754-132.58,54.918-35.164,35.164-54.918,82.855-54.918,132.58s19.754,97.418,54.918,132.58c35.164,35.164,82.855,54.918,132.58,54.918s97.418-19.754,132.58-54.918c35.164-35.164,54.918-82.855,54.918-132.58-.059-49.711-19.828-97.367-54.98-132.52-35.152-35.152-82.809-54.922-132.52-54.98l.002.002ZM1012.498,1012.496c-39.781,0-77.938-15.805-106.07-43.934s-43.934-66.285-43.934-106.07,15.805-77.938,43.934-106.07,66.285-43.934,106.07-43.934,77.938,15.805,106.07,43.934,43.934,66.285,43.934,106.07c-.047,39.77-15.863,77.895-43.984,106.02-28.121,28.125-66.246,43.938-106.02,43.984h0Z"/>
  <path d="M1067.498,903.306c-16.566,10.086-35.582,15.418-54.977,15.418s-38.41-5.332-54.977-15.418c-5.516-3.801-12.641-4.375-18.691-1.5-6.055,2.871-10.113,8.758-10.648,15.434-.539,6.68,2.527,13.137,8.043,16.941,22.816,14.449,49.266,22.121,76.273,22.121s53.457-7.672,76.273-22.121c5.516-3.805,8.582-10.262,8.043-16.941-.535-6.676-4.594-12.562-10.648-15.434-6.051-2.875-13.176-2.301-18.691,1.5h0Z"/>
  <path d="M984.378,824.996c0,10.355-8.394,18.75-18.75,18.75s-18.75-8.394-18.75-18.75,8.394-18.75,18.75-18.75,18.75,8.394,18.75,18.75Z"/>
  <path d="M1078.098,824.996c0,10.355-8.395,18.75-18.75,18.75s-18.75-8.394-18.75-18.75,8.395-18.75,18.75-18.75,18.75,8.394,18.75,18.75Z"/>
  <path d="M187.498,262.496c-49.727,0-97.418,19.754-132.58,54.918C19.754,352.578,0,400.269,0,449.994s19.754,97.418,54.918,132.58c35.164,35.164,82.855,54.918,132.58,54.918s97.418-19.754,132.58-54.918c35.164-35.164,54.918-82.855,54.918-132.58-.059-49.711-19.828-97.367-54.98-132.52-35.152-35.152-82.809-54.922-132.52-54.98l.002.002ZM187.498,599.996c-39.781,0-77.938-15.805-106.07-43.934s-43.934-66.285-43.934-106.07,15.805-77.938,43.934-106.07,66.285-43.934,106.07-43.934,77.938,15.805,106.07,43.934,43.934,66.285,43.934,106.07c-.047,39.77-15.863,77.895-43.984,106.02s-66.246,43.938-106.02,43.984Z"/>
  <path d="M242.478,490.806c-16.566,10.086-35.582,15.418-54.977,15.418s-38.41-5.332-54.977-15.418c-5.516-3.801-12.641-4.375-18.691-1.5-6.055,2.871-10.113,8.758-10.648,15.434-.539,6.68,2.527,13.137,8.043,16.941,22.645,14.82,49.211,22.527,76.273,22.121,27.062.406,53.629-7.301,76.273-22.121,5.516-3.805,8.582-10.262,8.043-16.941-.535-6.676-4.594-12.562-10.648-15.434-6.051-2.875-13.176-2.301-18.691,1.5Z"/>
  <path d="M159.378,412.496c0,10.355-8.395,18.75-18.75,18.75s-18.75-8.395-18.75-18.75,8.395-18.75,18.75-18.75,18.75,8.395,18.75,18.75Z"/>
  <path d="M253.118,412.496c0,10.355-8.395,18.75-18.75,18.75s-18.75-8.395-18.75-18.75,8.395-18.75,18.75-18.75,18.75,8.395,18.75,18.75Z"/>
  <path d="M1012.498,637.496c49.727,0,97.418-19.754,132.58-54.918,35.164-35.164,54.918-82.855,54.918-132.58s-19.754-97.418-54.918-132.58c-35.164-35.164-82.855-54.918-132.58-54.918s-97.418,19.754-132.58,54.918c-35.164,35.164-54.918,82.855-54.918,132.58.059,49.711,19.828,97.367,54.98,132.52,35.152,35.152,82.809,54.922,132.52,54.98l-.002-.002ZM1012.498,299.996c39.781,0,77.938,15.805,106.07,43.934s43.934,66.285,43.934,106.07-15.805,77.938-43.934,106.07-66.285,43.934-106.07,43.934-77.938-15.805-106.07-43.934-43.934-66.285-43.934-106.07c.047-39.77,15.863-77.895,43.984-106.02s66.246-43.938,106.02-43.984h0Z"/>
  <path d="M936.228,521.686c22.816,14.449,49.266,22.121,76.273,22.121s53.457-7.672,76.273-22.121c5.516-3.805,8.582-10.262,8.043-16.941-.535-6.676-4.594-12.562-10.648-15.434-6.051-2.875-13.176-2.301-18.691,1.5-16.566,10.082-35.582,15.418-54.977,15.418s-38.41-5.336-54.977-15.418c-5.516-3.801-12.641-4.375-18.691-1.5-6.055,2.871-10.113,8.758-10.648,15.434-.539,6.68,2.527,13.137,8.043,16.941h0Z"/>
  <path d="M984.378,412.496c0,10.355-8.394,18.75-18.75,18.75s-18.75-8.395-18.75-18.75,8.394-18.75,18.75-18.75,18.75,8.395,18.75,18.75Z"/>
  <path d="M1078.098,412.496c0,10.355-8.395,18.75-18.75,18.75s-18.75-8.395-18.75-18.75,8.395-18.75,18.75-18.75,18.75,8.395,18.75,18.75Z"/>
  <path d="M599.998,674.996c-49.727,0-97.418,19.754-132.58,54.918-35.164,35.164-54.918,82.855-54.918,132.58s19.754,97.418,54.918,132.58c35.164,35.164,82.855,54.918,132.58,54.918s97.418-19.754,132.58-54.918c35.164-35.164,54.918-82.855,54.918-132.58-.059-49.711-19.828-97.367-54.98-132.52-35.152-35.152-82.809-54.922-132.52-54.98l.002.002ZM599.998,1012.496c-39.781,0-77.938-15.805-106.07-43.934s-43.934-66.285-43.934-106.07,15.805-77.938,43.934-106.07c28.129-28.132,66.285-43.934,106.07-43.934s77.938,15.805,106.07,43.934,43.934,66.285,43.934,106.07c-.047,39.77-15.863,77.895-43.984,106.02-28.121,28.125-66.246,43.938-106.02,43.984Z"/>
  <path d="M654.978,903.306c-16.566,10.086-35.582,15.418-54.977,15.418s-38.41-5.332-54.977-15.418c-5.516-3.801-12.641-4.375-18.691-1.5-6.055,2.871-10.113,8.758-10.648,15.434-.539,6.68,2.527,13.137,8.043,16.941,22.816,14.449,49.266,22.121,76.273,22.121s53.457-7.672,76.273-22.121c5.516-3.805,8.582-10.262,8.043-16.941-.535-6.676-4.594-12.562-10.648-15.434-6.051-2.875-13.176-2.301-18.691,1.5h0Z"/>
  <path d="M571.878,824.996c0,10.355-8.394,18.75-18.75,18.75s-18.75-8.394-18.75-18.75,8.394-18.75,18.75-18.75,18.75,8.394,18.75,18.75Z"/>
  <path d="M665.618,824.996c0,10.355-8.394,18.75-18.75,18.75s-18.75-8.394-18.75-18.75,8.394-18.75,18.75-18.75,18.75,8.394,18.75,18.75Z"/>
  <path d="M599.998,262.496c-49.727,0-97.418,19.754-132.58,54.918-35.164,35.164-54.918,82.855-54.918,132.58s19.754,97.418,54.918,132.58c35.164,35.164,82.855,54.918,132.58,54.918s97.418-19.754,132.58-54.918c35.164-35.164,54.918-82.855,54.918-132.58-.059-49.711-19.828-97.367-54.98-132.52-35.152-35.152-82.809-54.922-132.52-54.98l.002.002ZM599.998,599.996c-39.781,0-77.938-15.805-106.07-43.934s-43.934-66.285-43.934-106.07,15.805-77.938,43.934-106.07c28.129-28.132,66.285-43.934,106.07-43.934s77.938,15.805,106.07,43.934,43.934,66.285,43.934,106.07c-.047,39.77-15.863,77.895-43.984,106.02s-66.246,43.938-106.02,43.984Z"/>
  <path d="M656.248,496.876h-112.5c-6.699,0-12.887,3.574-16.238,9.375-3.348,5.801-3.348,12.949,0,18.75,3.352,5.801,9.539,9.375,16.238,9.375h112.5c6.699,0,12.887-3.574,16.238-9.375,3.348-5.801,3.348-12.949,0-18.75-3.352-5.801-9.539-9.375-16.238-9.375Z"/>
  <path d="M571.878,412.496c0,10.355-8.394,18.75-18.75,18.75s-18.75-8.395-18.75-18.75,8.394-18.75,18.75-18.75,18.75,8.395,18.75,18.75Z"/>
  <path d="M665.618,412.496c0,10.355-8.394,18.75-18.75,18.75s-18.75-8.395-18.75-18.75,8.394-18.75,18.75-18.75,18.75,8.395,18.75,18.75Z"/>
  <rect class="cls-1" x="426.702" y="276.704" width="346.593" height="346.593"/>
  <path d="M514.485,394.192c0-7.207,5.849-13.056,13.056-13.056s13.056,5.849,13.056,13.056-5.849,13.056-13.056,13.056-13.056-5.849-13.056-13.056h0Z"/>
  <circle cx="672.491" cy="394.169" r="13.056"/>
  <path d="M693.272,483.671c5.035,5.998,4.27,14.931-1.728,19.966-23.076,19.399-42.105,25.89-58.122,25.89-18.782,0-33.393-8.91-45.609-16.313-19.966-12.142-33.146-20.164-61.649,1.431-6.244,4.714-15.129,3.505-19.867-2.74-4.714-6.244-3.505-15.129,2.739-19.867,43.882-33.22,72.559-15.771,93.514-3.036,10.366,6.293,19.325,11.748,29.444,12.241,11.674.568,25.174-5.726,41.29-19.3,5.998-5.035,14.931-4.27,19.966,1.728h.022Z"/>
</svg>