<?xml version="1.0" encoding="UTF-8"?>
<svg id="Layer_1" data-name="Layer 1" xmlns="http://www.w3.org/2000/svg" viewBox="0 0 1200.028 1189.761">
  <defs>
    <style>
      .cls-1 {
        fill: red;
        fill-rule: evenodd;
      }
    </style>
  </defs>
  <path d="M864.43,533.818l-69.34,209.62,69.52-209.62h-.18ZM888.137,523.658h-.18v.18l129.41,137.97-129.23-138.14v-.01ZM155.337,515.994s.891.18,1.426.18.891-.18,1.426-.18h-2.852ZM990.807,357.704h.18l63.992-103.39-64.172,103.39ZM949.987,423.481l-17.824,28.879h.18l17.824-28.699h-.18v-.18ZM982.253,371.254l-24.777,39.93h.18l24.777-39.93h-.18ZM887.956,523.304h.18l36.543-59-36.719,59h-.004ZM990.806,357.524h.18l63.992-103.39-64.172,103.39ZM949.986,423.301l-17.824,28.879h.18l17.824-28.699h-.18v-.18ZM982.252,371.074l-24.777,39.93h.18l24.777-39.93h-.18ZM887.955,523.124v.355h.18l36.543-59.359-36.719,59-.004.004ZM885.814,546.831v.355l126.56,134.94-126.56-135.295ZM990.804,357.351h.18l63.992-103.39-64.172,103.39ZM949.984,423.128l-17.824,28.879h.18l17.824-28.699h-.18v-.18ZM982.25,370.901l-24.777,39.93h.18l24.777-39.93h-.18ZM887.953,522.951v.355h.18l36.543-59.359-36.719,59-.004.004ZM990.803,357.171h.18l63.992-103.39-64.172,103.39ZM949.983,422.948l-17.824,28.879h.18l17.824-28.699h-.18v-.18ZM982.249,370.721l-24.777,39.93h.18l24.777-39.93h-.18ZM887.952,522.771v.355h.18l36.543-59.359-36.719,59-.004.004ZM990.802,356.991h.18l63.992-103.39-64.172,103.39ZM949.982,422.768l-17.824,28.879h.18l17.824-28.699h-.18v-.18ZM982.248,370.541l-24.777,39.93h.18l24.777-39.93h-.18ZM887.951,522.591h.18l36.543-59-36.719,59h-.004ZM774.051,353.611c2.496,31.371-21.211,59-52.586,61.32-31.371,2.496-58.645-21.211-60.961-52.586-2.496-31.371,20.855-58.469,52.227-60.961,31.371-2.316,58.824,20.855,61.32,52.227ZM493.301,375.181c2.496,31.371-21.211,59-52.586,61.496-31.371,2.316-58.645-21.391-60.961-52.762-2.496-31.371,20.855-58.469,52.227-60.961,31.371-2.316,59,20.855,61.32,52.227ZM155.331,515.111s.891.18,1.426.18.891-.18,1.426-.18h-2.852ZM1197.431,375.001l-137.61-142.25c-.715-.891-1.605-1.426-2.672-1.781-.355-.18-.715-.355-1.07-.355-.715-.355-1.781-.535-2.672-.535h-198.93c-10.16-24.598-18.715-49.375-22.816-70.59-3.922-20.676-5.527-41.891-4.812-63.457.715-21.211,5.168-44.027-1.426-65.062-10.695-32.621-50.445-36.363-78.43-25.488-32.977,12.656-57.398,41.176-76.293,69.875-12.477,19.609-24.777,50.98-35.828,76.293-1.07-.18-1.961-.535-3.031-.355-24.777-4.812-44.027-4.812-68.27-3.387-24.062,2.141-48.305,6.062-71.301,14.082-1.246,0-1.961.355-3.031.891-14.797-23.352-31.73-52.406-47.238-70.055-22.996-25.488-51.336-49.734-85.918-57.219-29.234-6.418-67.914,3.207-73.617,37.254-3.387,21.57,4.633,43.672,8.555,64.348,3.922,21.211,5.703,42.426,4.812,63.637-.891,30.125-9.625,68.805-19.609,103.92l-197.68,212.99s-.891.891-1.426,1.426c-.355.535-.715,1.07-1.07,1.781-.18.355-.355.715-.535,1.07v.715S.47,749.478.47,749.478c-.891,2.672-.535,5.703,1.246,8.019,1.605,2.316,4.277,3.742,7.129,3.742h66.309v406.24c0,4.992,3.922,8.914,8.734,8.914l792.87,13.367h.18c1.246,0,2.496-.355,3.566-.891.891-.355,1.781-.891,2.496-1.605.535-.355,1.07-1.07,1.426-1.605l210.16-328.16c.891-1.426,1.426-3.031,1.426-4.812v-287.52c35.473-60.43,70.055-120.68,102.85-178.61,1.961-3.566,1.426-7.844-1.426-10.695l-.005-.86ZM711.511,285.161c40.285-3.207,75.402,26.918,78.609,67.203,3.031,40.465-27.094,75.402-67.379,78.43-40.285,3.207-75.402-26.738-78.43-67.203-3.207-40.465,26.918-75.402,67.203-78.43h-.003ZM575.331,428.831l20.145-1.605c9.981-.715,16.043,10.695,9.625,18.359l-9.269,11.406c-4.102,4.992-11.586,5.527-16.223,1.246l-10.875-9.805c-2.316-2.141-3.566-4.812-3.922-7.488-.355-5.883,3.742-11.586,10.516-12.121l.003.008ZM430.771,306.731c40.285-3.031,75.402,26.918,78.43,67.203,3.207,40.465-26.918,75.402-67.203,78.609-40.465,3.031-75.402-26.918-78.609-67.379-3.031-40.285,27.094-75.402,67.379-78.43l.003-.003ZM263.751,344.165c-1.246,4.102-2.496,8.199-3.922,11.941-7.129,20.676-11.406,42.066-12.301,64.172-27.273,6.238-57.039,18.359-83.777,31.371l100-107.49v.006ZM134.521,482.845c43.492-24.242,82.176-40.641,113.01-48.129,0,3.566.18,7.129.535,10.875.535,7.664,1.605,15.152,2.852,22.461-34.223,8.555-68.27,21.391-93.406,32.086-1.605.715-2.852,1.246-3.387,1.246-3.742,1.246-5.703,5.168-4.633,8.734.715,2.672,3.207,4.633,5.883,4.992h2.852s2.141-.891,4.812-1.961c33.512-14.082,63.992-24.598,90.91-31.371,2.316,9.09,5.348,17.824,8.734,26.383-3.566,2.141-7.129,4.457-10.695,6.953h-93.762s-.891.18-1.426.18-.891,0-1.426-.18h-50.801l29.945-32.266.002-.004ZM21.151,743.435l69.34-209.62h136.36c-20.676,15.688-39.57,32.086-54.188,45.633-1.246,1.426-2.316,2.141-2.672,2.496-3.031,2.316-3.566,6.594-1.426,9.625,1.426,2.316,3.922,3.207,6.238,3.031,1.246-.18,2.496-.535,3.566-1.246.355-.18,1.605-1.426,3.922-3.566,24.242-22.461,47.238-41.176,68.449-55.973h613.9l-69.52,209.62H21.151ZM868.031,1171.775l-775.04-13.012v-397.5l708.56-.004c3.742,0,7.309-2.496,8.379-6.238l58.109-174.87v591.62l-.008.004ZM862.148,248.775h175.22l-66.668,107.66c-20.676-.891-41.355-.715-60.25,1.781-4.457-17.469-11.051-33.867-19.43-49.91-8.914-17.113-19.43-37.789-28.879-59.535l.007.004ZM916.336,392.625c-.715-6.953-1.606-13.727-2.852-20.5,14.082-1.781,30.48-2.316,48.664-1.781l-20.676,33.332c-8.199-4.102-16.578-7.664-25.133-11.051h-.003ZM934.16,415.797l-18.004,28.879s-1.07-.535-1.606-.715c1.961-11.586,2.672-23.531,2.496-35.652,5.527,2.141,11.23,4.633,17.113,7.488h0ZM1078.19,850.197l-192.34,300.18.008-603.21,126.56,135.29c1.606,1.781,4.102,2.852,6.418,2.852h.891c2.852-.355,5.348-1.961,6.773-4.277l51.695-84.312v253.48l-.005-.002ZM1017.405,661.787l-129.41-137.97v-.355l36.719-59h.18c24.062,11.586,51.16,27.809,80.035,47.238,2.496,1.781,4.102,2.852,4.457,3.031,1.07.535,2.496.715,3.566.715,2.316-.18,4.457-1.426,5.703-3.742,1.781-3.387.535-7.488-2.496-9.449-.535-.355-1.606-1.07-3.207-2.141-21.391-14.438-50.266-32.797-80.57-47.773h-.18l17.824-28.879h.18c18.359,9.27,38.324,20.676,59.359,33.691,2.496,1.605,4.102,2.496,4.457,2.672,1.07.535,2.316.715,3.387.715,2.496-.355,4.633-1.605,5.703-3.922,1.781-3.387.535-7.488-2.852-9.449-.355-.18-1.606-.891-3.207-1.961-16.398-10.34-37.078-22.461-59.359-33.691h-.18l24.777-40.105h.18c21.391,1.426,45.098,4.277,70.59,8.555,2.852.535,4.633.715,4.992.715.355,0,.535.18.891.18,3.387-.355,6.062-3.207,6.418-6.594.18-3.922-2.496-7.129-6.418-7.664-.535,0-1.781-.18-3.742-.535-18.184-3.031-40.641-6.418-64.172-8.379h-.18l64.172-103.39,124.96,129.23c-50.98,89.84-105.88,185.38-162.57,278.25l-.007.008Z"/>
  <path class="cls-1" d="M183.985,960.753l-35.512-58.693,144.935,35.663-35.663,144.935-35.512-58.693-166.734,100.887-38.244-63.206,166.734-100.887-.004-.006h0Z"/>
  <path class="cls-1" d="M226.526,191.647l26.814-63.142,55.892,138.398-138.398,55.892,26.814-63.142L18.27,183.482l28.875-67.999,179.378,76.17.003-.006h0Z"/>
</svg>