<?xml version="1.0" encoding="UTF-8"?>
<svg id="Layer_1" data-name="Layer 1" xmlns="http://www.w3.org/2000/svg" viewBox="0 0 1111.017 1038.113">
  <path d="M1109.039,921.349l-9.469-30.844c8.625-10.547,12.375-24.938,8.625-39.141-7.688-29.297-18.938-72.141-27.609-106.78-6-24.375-12.844-52.312-20.062-81.938-6.234-25.922-12.703-52.453-18.844-77.625-6.609-26.859-12.844-51.703-18.844-75.703-5.859-23.391-11.391-45.609-16.312-65.859-8.062-32.766-15.703-65.531-23.531-100.45l-2.062-9.234c-4.688-21-8.156-36.234-12.844-53.531-6.844-25.078-14.062-45.609-22.078-62.531-8.625-18.469-20.156-36.469-33-52.219-12.375-14.859-24.469-25.781-39.469-35.391-15.469-9.938-34.547-18.469-57.844-28.781-23.766-10.453-55.078-23.859-85.688-36.938l-31.922-53.297c-3.844-6.469-10.312-10.453-17.859-10.922-2.391-.141-4.688.141-6.844.703l-235.6-.047c-2.297-.609-4.594-.984-6.984-.75-7.453.469-14.062,4.547-17.859,10.922l-31.922,53.156c-30.609,13.078-61.922,26.531-85.688,36.938-23.297,10.219-42.375,18.844-57.844,28.781-14.859,9.609-27.141,20.531-39.469,35.391-12.938,15.609-24.375,33.703-33,52.219-8.062,17.062-15.234,37.453-22.078,62.531-4.688,17.297-8.156,32.531-12.844,53.531l-2.062,9.234c-7.781,34.922-15.609,67.688-23.531,100.45-4.922,20.391-10.547,42.469-16.312,65.859-6,24-12.234,48.844-18.844,75.703-6.234,25.219-12.609,51.703-18.844,77.625-7.219,29.625-13.922,57.703-20.062,81.938-8.531,34.688-19.781,77.531-27.609,106.78-3.703,14.156,0,28.547,8.625,39.141l-9.469,30.844c-7.219,23.297,5.859,48,29.156,55.219l51.234,15.844c4.313,1.312,8.625,1.922,13.078,1.922,7.078,0,14.156-1.688,20.625-5.156,10.453-5.531,18.141-14.766,21.609-26.062l9.938-32.391c14.297-2.859,26.766-12.609,32.391-27l78.844-200.53v205.45c0,24.375,19.781,44.156,44.156,44.156h6.141v41.391c0,24.375,19.781,44.156,44.156,44.156h404.39c24.375,0,44.156-19.781,44.156-44.156v-41.391h6.141c24.375,0,44.156-19.781,44.156-44.156l.094-205.13,78.844,200.53c5.625,14.391,18.141,24.141,32.391,27l9.938,32.391c5.859,18.938,23.391,31.078,42.234,31.078,4.312,0,8.625-.609,12.938-1.922l51.234-15.844c23.344-7.078,36.422-31.922,29.203-55.172l.008.008ZM111.729,955.287c-1.312,4.312-4.312,7.922-8.391,10.078s-8.625,2.625-13.078,1.219l-51.234-15.844c-9-2.766-14.062-12.375-11.297-21.375l7.312-23.766,84.938,22.781-8.251,26.907ZM258.869,629.367l-104.06,264.47c-3.234,8.156-12,12.469-20.391,10.312l-93.234-24.938c-9.141-2.391-14.531-11.766-12.141-20.859,7.781-29.297,19.078-72.375,27.703-107.16,6-24.375,12.844-52.453,20.062-82.078,6.234-25.781,12.703-52.453,18.844-77.531,6.609-26.766,12.844-51.609,18.703-75.609,5.859-23.531,11.391-45.609,16.453-66.141,8.062-32.859,15.703-65.859,23.625-100.92l2.062-9.375c4.688-20.625,8.062-35.625,12.609-52.312,6.469-23.625,13.219-42.609,20.531-58.219,7.688-16.453,17.859-32.531,29.391-46.453,10.453-12.703,20.766-21.844,33.234-29.859,2.156-1.312,4.312-2.766,6.703-4.078v480.74l-.095.01ZM703.709,73.057c-16.312,17.156-33.469,35.156-54.703,56.531-20.859,20.859-45.844,45.234-63.938,62.859l-8.531,8.391-.609.609c7.688-32.531,20.062-72.703,28.312-85.922,6.703-10.688,14.859-21,27.234-34.688,6.141-6.844,13.078-14.156,19.781-21.234,6-6.234,11.531-12.234,16.312-17.531,3.703-4.219,7.219-8.062,10.547-12l25.596,42.985ZM555.489,171.682c-7.781-28.688-17.531-57.609-25.688-70.688-7.547-12-16.547-23.531-30-38.391-6.375-7.078-13.453-14.391-20.156-21.609-4.453-4.688-8.625-9.141-12.469-13.312h176.86c-3.844,4.219-8.062,8.531-12.469,13.312-6.844,7.219-13.781,14.625-20.156,21.609-13.453,14.859-22.453,26.391-30,38.391-8.391,13.078-18.141,42-25.922,70.688h0ZM432.959,30.212c3.375,3.938,6.703,7.781,10.547,12,4.781,5.297,10.453,11.156,16.312,17.531,6.703,7.078,13.547,14.391,19.781,21.234,12.375,13.688,20.531,24,27.234,34.688,8.297,13.219,20.625,53.391,28.312,85.922l-.609-.609-8.531-8.297c-18.234-17.766-43.219-42-63.938-62.859-21.234-21.375-38.391-39.375-54.703-56.531l25.596-43.079ZM303.019,925.762c-9.469,0-17.156-7.688-17.156-17.156V135.076c6.375-2.859,13.219-5.859,20.391-9.141,22.453-9.844,51.703-22.453,80.766-34.922,16.547,17.531,34.078,35.859,55.781,57.609,21,21,46.078,45.375,64.312,63.234l8.531,8.297c14.156,13.781,21,20.625,26.156,25.781v679.78l-238.781.048ZM336.113,994.293v-41.391h205.78v58.547h-188.63c-9.469,0-17.156-7.688-17.156-17.156h.006ZM774.853,994.293c0,9.469-7.688,17.156-17.156,17.156h-188.68v-58.547h205.78l.056,41.391ZM825.103,908.746c0,9.469-7.688,17.156-17.156,17.156h-238.92V245.982c5.156-5.156,11.859-11.859,26.156-25.781l8.531-8.297c18.234-17.766,43.312-42.141,64.312-63.234,21.703-21.703,39.234-40.078,55.781-57.609,29.062,12.469,58.312,24.938,80.766,34.922,7.219,3.234,14.062,6.234,20.391,9.141l.047,773.63.092-.008ZM956.163,893.98l-104.06-264.47V148.67c2.297,1.312,4.547,2.625,6.703,4.078,12.469,7.922,22.688,17.156,33.234,29.859,11.531,13.922,21.703,30,29.391,46.453,7.312,15.609,14.062,34.688,20.531,58.219,4.547,16.688,7.922,31.688,12.609,52.312l2.062,9.375c7.922,35.062,15.609,68.062,23.625,100.92,5.062,20.391,10.547,42.609,16.453,66.141,6,24,12.234,48.703,18.703,75.609,6.141,25.219,12.609,51.703,18.844,77.531,7.219,29.766,14.062,57.703,20.062,82.078,8.625,34.781,19.922,77.859,27.703,107.16,2.391,9.141-3,18.469-12.141,20.859l-93.375,24.938c-8.484,2.25-17.25-2.203-20.344-10.219v-.003ZM1071.853,950.746l-51.234,15.844c-9,2.766-18.609-2.297-21.375-11.297l-8.297-26.859,84.938-22.781,7.312,23.766c2.812,8.953-2.25,18.562-11.344,21.328h0ZM779.773,769.526c-1.547,6-7.078,9.938-13.078,9.938-1.219,0-2.297-.141-3.469-.469-61.453-16.453-98.062-79.781-81.609-141.24,1.922-7.219,9.375-11.531,16.547-9.609,7.219,1.922,11.531,9.375,9.609,16.547-12.609,47.062,15.375,95.625,62.531,108.23,7.031,1.969,11.391,9.422,9.469,16.594v.01ZM429.333,637.766c16.453,61.453-20.156,124.78-81.609,141.24-1.219.375-2.391.469-3.469.469-6,0-11.391-3.938-13.078-9.938-1.922-7.219,2.391-14.625,9.609-16.547,47.062-12.609,75.141-61.219,62.531-108.23-1.922-7.219,2.391-14.625,9.609-16.547,7.078-1.922,14.484,2.391,16.406,9.562v-.01ZM480.005,320.136c0-10.688,8.625-19.312,19.312-19.312s19.312,8.625,19.312,19.312-8.625,19.312-19.312,19.312-19.312-8.625-19.312-19.312ZM518.771,482.846c0,10.688-8.625,19.312-19.312,19.312s-19.312-8.625-19.312-19.312,8.625-19.312,19.312-19.312,19.312,8.625,19.312,19.312ZM518.771,645.586c0,10.688-8.625,19.312-19.312,19.312s-19.312-8.625-19.312-19.312,8.625-19.312,19.312-19.312,19.312,8.625,19.312,19.312ZM518.771,808.296c0,10.688-8.625,19.312-19.312,19.312s-19.312-8.625-19.312-19.312,8.625-19.312,19.312-19.312,19.312,8.625,19.312,19.312ZM970.411,646.056c-1.078.234-2.156.375-3.234.375-6.141,0-11.625-4.078-13.078-10.312-6.609-26.766-12.844-51.609-18.703-75.609-5.859-23.531-11.391-45.609-16.453-66.141-8.062-32.859-15.844-66-23.625-100.92-1.688-7.312,2.859-14.531,10.219-16.219,7.312-1.688,14.531,2.859,16.219,10.219,7.781,34.781,15.469,67.688,23.531,100.45,4.922,20.391,10.547,42.469,16.312,65.859,6,24,12.234,48.844,18.844,75.703,1.734,7.453-2.672,14.812-10.031,16.594h0Z"/>
</svg>