<?xml version="1.0" encoding="UTF-8"?>
<svg id="Layer_1" data-name="Layer 1" xmlns="http://www.w3.org/2000/svg" viewBox="0 0 1197.703 979.602">
  <defs>
    <style>
      .cls-1 {
        fill-rule: evenodd;
      }
    </style>
  </defs>
  <path class="cls-1" d="M1123.842,979.602h-468.79c-27.562,0-49.969-22.406-49.969-49.969v-208.36c0-7.734,6.281-14.016,14.016-14.016h540.66c7.734,0,14.016,6.281,14.016,14.016v208.36c0,27.562-22.406,49.969-49.969,49.969h.036ZM633.152,735.292v194.34c0,12.047,9.797,21.891,21.891,21.891h468.79c12.047,0,21.891-9.797,21.891-21.891v-194.34h-512.572Z"/>
  <path class="cls-1" d="M1183.643,735.282h-588.24c-7.734,0-14.016-6.281-14.016-14.016v-142.78c0-16.641,13.547-30.188,30.188-30.188h555.94c16.641,0,30.188,13.547,30.188,30.188v142.78c0,7.734-6.281,14.016-14.062,14.016h.002ZM609.423,707.204h560.21v-128.76c0-1.125-.984-2.109-2.109-2.109h-555.94c-1.125,0-2.109.984-2.109,2.109v128.76h-.051Z"/>
  <path class="cls-1" d="M1013.442,576.332h-247.87c-7.734,0-14.016-6.281-14.016-14.016v-86.953c0-55.688,45.328-101.02,101.02-101.02h73.922c55.688,0,101.02,45.328,101.02,101.02v86.953c0,7.734-6.281,14.016-14.016,14.016h-.06ZM779.582,548.254h219.79v-72.938c0-40.219-32.719-72.938-72.938-72.938h-73.922c-40.219,0-72.938,32.719-72.938,72.938l.008,72.938Z"/>
  <path class="cls-1" d="M961.842,576.332h-144.71c-7.734,0-14.016-6.281-14.016-14.016v-86.953c0-27.234,22.172-49.406,49.406-49.406h73.922c27.234,0,49.406,22.172,49.406,49.406v86.953c0,7.734-6.281,14.016-14.016,14.016h.008ZM831.152,548.254h116.62v-72.938c0-11.578-9.797-21.375-21.328-21.375h-73.922c-11.578,0-21.328,9.797-21.328,21.375v72.938h-.042Z"/>
  <path class="cls-1" d="M788.502,979.602h-64.453c-7.734,0-14.016-6.281-14.016-14.016v-78.609c0-7.734,6.281-14.016,14.016-14.016h64.453c7.734,0,14.016,6.281,14.016,14.016v78.609c0,7.734-6.281,14.016-14.016,14.016ZM738.064,951.524h36.375v-50.531h-36.375v50.531ZM788.502,813.944h-64.453c-7.734,0-14.016-6.281-14.016-14.016v-78.609c0-7.734,6.281-14.016,14.016-14.016h64.453c7.734,0,14.016,6.281,14.016,14.016v78.609c0,7.734-6.281,14.016-14.016,14.016ZM738.064,785.866h36.375v-50.578h-36.375v50.578Z"/>
  <path class="cls-1" d="M809.452,900.902h-106.36c-7.734,0-14.016-6.281-14.016-14.016v-87.047c0-7.734,6.281-14.016,14.016-14.016h106.36c7.734,0,14.016,6.281,14.016,14.016v87.047c0,7.734-6.281,14.016-14.016,14.016ZM717.108,872.824h78.281v-58.969h-78.281v58.969Z"/>
  <path class="cls-1" d="M758.822,857.442h-5.109c-7.734,0-14.016-6.281-14.016-14.016s6.281-14.016,14.016-14.016h5.109c7.734,0,14.016,6.281,14.016,14.016s-6.281,14.016-14.016,14.016Z"/>
  <path class="cls-1" d="M1054.942,979.602h-64.453c-7.734,0-14.016-6.281-14.016-14.016v-78.609c0-7.734,6.281-14.016,14.016-14.016h64.453c7.734,0,14.016,6.281,14.016,14.016v78.609c0,7.734-6.281,14.016-14.016,14.016ZM1004.504,951.524h36.375v-50.531h-36.375v50.531ZM1054.942,813.944h-64.453c-7.734,0-14.016-6.281-14.016-14.016v-78.609c0-7.734,6.281-14.016,14.016-14.016h64.453c7.734,0,14.016,6.281,14.016,14.016v78.609c0,7.734-6.281,14.016-14.016,14.016ZM1004.504,785.866h36.375v-50.578h-36.375v50.578Z"/>
  <path class="cls-1" d="M1075.942,900.902h-106.36c-7.734,0-14.016-6.281-14.016-14.016v-87.047c0-7.734,6.281-14.016,14.016-14.016h106.36c7.734,0,14.016,6.281,14.016,14.016v87.047c0,7.734-6.281,14.016-14.016,14.016ZM983.598,872.824h78.281v-58.969h-78.281v58.969Z"/>
  <path class="cls-1" d="M1026.542,857.442h-7.641c-7.734,0-14.016-6.281-14.016-14.016s6.281-14.016,14.016-14.016h7.641c7.734,0,14.016,6.281,14.016,14.016s-6.281,14.016-14.016,14.016Z"/>
  <path class="cls-1" d="M1183.643,655.832h-588.24c-7.734,0-14.016-6.281-14.016-14.016s6.281-14.016,14.016-14.016h588.24c7.734,0,14.016,6.281,14.016,14.016s-6.281,14.016-14.016,14.016Z"/>
  <path class="cls-1" d="M144.022,979.602c-7.734,0-14.016-6.281-14.016-14.016v-148.69c0-7.734,6.281-14.016,14.016-14.016s14.016,6.281,14.016,14.016v148.69c0,7.734-6.281,14.016-14.016,14.016Z"/>
  <path class="cls-1" d="M144.022,897.102H14.652c-7.734,0-14.016-6.281-14.016-14.016s6.281-14.016,14.016-14.016h129.37c7.734,0,14.016,6.281,14.016,14.016s-6.281,14.016-14.062,14.016h.046Z"/>
  <path class="cls-1" d="M425.162,776.352h-74.016c-6.469,0-12.141-4.453-13.641-10.781l-13.828-57.797c-1.781-7.547,2.859-15.141,10.359-16.922,7.547-1.828,15.141,2.859,16.922,10.359l11.25,47.016h51.891l11.25-47.016c1.781-7.547,9.328-12.234,16.922-10.359,7.547,1.828,12.188,9.375,10.359,16.922l-13.828,57.797c-1.5,6.328-7.172,10.781-13.641,10.781h0Z"/>
  <path class="cls-1" d="M678.242,979.602H14.062c-3.75,0-7.359-1.5-9.984-4.172s-4.078-6.281-4.078-10.031c0-.984,1.078-97.219.328-174.89-.328-33-.984-101.72,49.641-121.92,29.438-11.766,66.75-22.781,102.84-33.469,19.969-5.906,38.859-11.484,56.109-17.062,7.359-2.391,15.281,1.641,17.672,9.047,2.391,7.359-1.641,15.281-9.047,17.672-17.625,5.719-36.656,11.344-56.812,17.297-35.484,10.5-72.188,21.328-100.41,32.578-28.781,11.484-32.391,52.734-31.969,95.578.562,60.234.047,131.48-.188,161.29h650.02c7.734,0,14.016,6.281,14.016,14.016s-6.281,14.062-14.016,14.062l.058.004ZM595.367,654.992c-1.406,0-2.812-.188-4.172-.656-11.109-3.469-21.891-6.938-31.969-10.406-7.312-2.531-11.203-10.5-8.672-17.859,2.531-7.312,10.5-11.25,17.859-8.672,9.844,3.422,20.297,6.797,31.172,10.172,7.406,2.297,11.531,10.172,9.234,17.578-1.875,6-7.406,9.844-13.406,9.844h-.047Z"/>
  <path class="cls-1" d="M388.132,979.602c-3.562,0-7.125-1.359-9.844-4.031l-57.047-56.016c-3.141-3.094-4.688-7.5-4.078-11.906l20.062-147.24c1.031-7.688,8.156-13.031,15.797-12,7.688,1.031,13.078,8.109,12,15.797l-19.125,140.26,42.234,41.438,42.234-41.438-19.125-140.26c-1.031-7.688,4.312-14.766,12-15.797,7.641-1.031,14.766,4.312,15.797,12l20.062,147.24c.609,4.406-.938,8.812-4.078,11.906l-57.047,56.016c-2.719,2.672-6.281,4.031-9.844,4.031h.002Z"/>
  <path class="cls-1" d="M316.702,743.822c-3.609,0-7.078-1.406-9.656-3.891l-105.09-99.938c-5.25-4.969-5.859-13.078-1.406-18.797l52.406-67.359c4.453-5.719,12.562-7.125,18.656-3.188l124.13,79.594c3.375,2.156,5.672,5.625,6.281,9.609.656,3.938-.469,7.969-2.953,11.062l-71.438,87.75c-2.484,3.047-6.094,4.875-9.984,5.156-.281,0-.609.047-.891.047l-.055-.046ZM230.499,628.412l84.891,80.766,51.938-63.797-100.12-64.172-36.709,47.203Z"/>
  <path class="cls-1" d="M459.532,743.822c-.281,0-.609,0-.891-.047-3.891-.234-7.547-2.109-9.984-5.156l-71.391-87.75c-2.531-3.094-3.609-7.125-2.953-11.062s2.906-7.453,6.281-9.609l124.13-79.594c6.094-3.938,14.203-2.531,18.656,3.188l52.406,67.359c4.406,5.719,3.797,13.828-1.406,18.797l-105.09,99.984c-2.625,2.484-6.094,3.891-9.656,3.891h-.102ZM408.907,645.384l51.938,63.797,84.891-80.766-36.703-47.203-100.126,64.172Z"/>
  <path class="cls-1" d="M288.392,592.172c-7.734,0-14.016-6.281-14.016-14.016v-71.062c0-7.734,6.281-14.016,14.016-14.016s14.016,6.281,14.016,14.016v71.062c0,7.734-6.281,14.016-14.016,14.016Z"/>
  <path class="cls-1" d="M487.892,592.172c-7.734,0-14.016-6.281-14.016-14.016v-71.062c0-7.734,6.281-14.016,14.016-14.016s14.016,6.281,14.016,14.016v71.062c0,7.734-6.281,14.016-14.016,14.016Z"/>
  <path class="cls-1" d="M416.972,546.522h-57.656c-14.531,0-28.781-2.484-42.375-7.359-50.156-18-83.859-65.766-83.859-118.92v-92.531c0-7.734,6.281-14.016,14.016-14.016s14.016,6.281,14.016,14.016v92.531c0,41.297,26.25,78.469,65.297,92.484,10.547,3.797,21.609,5.719,32.906,5.719h57.656c54.141,0,98.203-44.062,98.203-98.203v-62.953c0-7.734,6.281-14.016,14.016-14.016s14.016,6.281,14.016,14.016v62.953c0,69.609-56.625,126.28-126.24,126.28h.004Z"/>
  <path class="cls-1" d="M524.082,467.862c-7.453,0-13.688-5.906-14.016-13.406-.328-7.734,5.625-14.25,13.312-14.625l4.266-.141c-7.078-.75-12.562-6.703-12.562-13.969v-99.703c0-7.734,6.281-14.016,14.016-14.016s14.016,6.281,14.016,14.016v99.703c0,6.938-5.016,12.656-11.578,13.828,28.5-1.359,38.625-27.281,38.625-51.141v-60.656c0-7.734,6.281-14.016,14.016-14.016s14.016,6.281,14.016,14.016v60.656c0,45.656-26.438,77.484-65.766,79.172l-7.875.281h-.562.093Z"/>
  <path class="cls-1" d="M584.262,341.772c-7.734,0-14.016-6.281-14.016-14.016v-53.578c0-85.922-69.891-155.81-155.81-155.81h-52.5c-85.922,0-155.81,69.891-155.81,155.81v53.578c0,7.734-6.281,14.016-14.016,14.016s-14.016-6.281-14.016-14.016v-53.578c0-101.39,82.5-183.89,183.89-183.89h52.5c101.39,0,183.89,82.5,183.89,183.89v53.578c0,7.734-6.281,14.016-14.016,14.016h-.096Z"/>
  <path class="cls-1" d="M310.652,126.282c-2.953,0-5.859-.938-8.297-2.719-3.609-2.625-5.766-6.844-5.766-11.344v-20.719c0-50.484,41.062-91.5,91.5-91.5s91.547,41.062,91.547,91.5v20.719c0,4.453-2.109,8.672-5.766,11.344-3.609,2.625-8.297,3.422-12.562,2.016-15.188-4.828-31.031-7.312-46.969-7.312h-52.5c-15.984,0-31.781,2.438-46.969,7.312-1.406.469-2.812.656-4.266.656l.047.047ZM388.136,28.032c-35.016,0-63.469,28.453-63.469,63.469v2.578c12.234-2.531,24.656-3.797,37.219-3.797h52.5c12.562,0,24.984,1.266,37.219,3.797v-2.578c0-34.969-28.453-63.469-63.469-63.469h0Z"/>
  <path class="cls-1" d="M252.242,467.862h-.656l-7.875-.281c-39.281-1.688-65.719-33.516-65.719-79.172v-60.656c0-7.734,6.281-14.016,14.016-14.016s14.016,6.281,14.016,14.016v60.656c0,23.812,10.172,49.734,38.672,51.141-6.609-1.172-11.578-6.891-11.578-13.828v-99.703c0-7.734,6.281-14.016,14.016-14.016s14.016,6.281,14.016,14.016v99.703c0,7.266-5.484,13.219-12.562,13.969l4.266.141c7.734.375,13.734,6.938,13.359,14.672-.375,7.5-6.562,13.359-14.016,13.359h.046Z"/>
  <path class="cls-1" d="M209.032,342.142c-5.812,0-11.672-.141-17.578-.375-7.734-.328-13.734-6.891-13.406-14.625s6.938-13.734,14.625-13.406c74.531,3.188,137.29-15.422,186.71-55.406,5.156-4.172,12.516-4.172,17.672,0,49.359,39.984,112.17,58.547,186.61,55.406,7.781-.281,14.297,5.672,14.625,13.406s-5.672,14.297-13.406,14.625c-77.25,3.328-143.34-15.094-196.69-54.797-49.312,36.656-109.5,55.172-179.21,55.172h.048Z"/>
  <path class="cls-1" d="M320.732,399.902c-7.734,0-14.016-6.281-14.016-14.016v-21.328c0-7.734,6.281-14.016,14.016-14.016s14.016,6.281,14.016,14.016v21.328c0,7.781-6.281,14.016-14.016,14.016Z"/>
  <path class="cls-1" d="M455.582,399.902c-7.734,0-14.016-6.281-14.016-14.016v-21.328c0-7.734,6.281-14.016,14.016-14.016s14.016,6.281,14.016,14.016v21.328c0,7.781-6.281,14.016-14.016,14.016Z"/>
  <path class="cls-1" d="M388.182,474.192c-9.891,0-34.078-1.547-45.234-16.031-4.734-6.141-3.609-14.953,2.531-19.688s14.953-3.609,19.688,2.531c1.547,1.781,9.891,5.109,23.016,5.109s21.422-3.375,23.016-5.156c4.969-5.719,13.875-6.75,19.734-1.922,5.859,4.781,7.125,13.078,2.484,19.125-11.156,14.484-35.344,16.031-45.188,16.031h-.048Z"/>
  <path d="M874.922,302.453c-21.668,0-40.749-4.28-57.245-12.847-16.501-8.561-30.671-21.408-42.508-38.541l27.961-32.117c12.339,17.635,24.183,29.85,35.519,36.651,11.335,6.801,24.808,10.202,40.43,10.202,9.57,0,18.261-1.511,26.071-4.534,7.806-3.023,13.98-7.179,18.516-12.469,4.534-5.29,6.801-11.335,6.801-18.137,0-4.534-.756-8.814-2.267-12.847-1.512-4.026-3.844-7.681-6.99-10.958-3.153-3.271-7.18-6.293-12.092-9.068-4.912-2.769-10.645-5.225-17.192-7.368-6.553-2.137-14.11-3.967-22.671-5.479-18.137-3.524-33.191-8.814-45.153-15.87-11.967-7.049-20.911-15.994-26.827-26.828-5.922-10.828-8.88-23.427-8.88-37.785,0-10.58,2.326-20.404,6.99-29.472,4.658-9.068,11.082-16.938,19.271-23.616,8.183-6.671,17.818-11.837,28.906-15.492,11.081-3.648,23.049-5.479,35.896-5.479,20.404,0,38.222,3.967,53.466,11.902,15.238,7.935,27.265,19.459,36.085,34.573l-28.717,28.339c-7.557-12.339-16.566-21.786-27.017-28.339-10.456-6.547-22.104-9.824-34.951-9.824-9.824,0-18.391,1.512-25.693,4.534-7.31,3.023-13.036,7.244-17.192,12.658-4.156,5.42-6.234,11.778-6.234,19.082,0,5.29,1.003,10.143,3.022,14.547,2.013,4.41,5.101,8.312,9.257,11.713,4.157,3.4,9.76,6.423,16.814,9.068,7.05,2.645,15.492,4.977,25.316,6.99,13.851,3.023,26.195,6.866,37.029,11.524,10.828,4.664,20.026,10.143,27.583,16.437,7.558,6.299,13.284,13.354,17.192,21.16,3.902,7.811,5.856,16.248,5.856,25.316,0,16.879-3.908,31.492-11.713,43.831-7.811,12.345-18.893,21.856-33.251,28.528s-31.491,10.013-51.388,10.013ZM852.251,333.059v-171.544l36.651,12.469v159.075h-36.651ZM904.016,173.984l-36.652-12.469V3.195h36.652v170.789Z"/>
  <path d="M745.062,481.595c-9.586-7.628-19.152-15.274-28.606-23.054-1.066-.886-2.159-1.775-3.204-2.687-.306-.264-.611-.546-.919-.782-.812-.864-1.954-1.501-3.455-1.676-1.393-.165-3.166.386-4.206,1.32-1.466,1.327-2.451,3.435-1.938,5.443.691,2.8,3.043,4.354,5.113,6.103,2.557,2.138,5.153,4.252,7.759,6.348,3.057,2.482,6.143,4.949,9.212,7.405-36.568.954-76.938-11.464-98.023-43.493-6.844-10.408-11.055-22.655-13.128-35.009-1.22-7.285-12.506-5.212-11.288,2.091,3.99,24.075,15.831,45.765,34.85,61.201,17.295,14.018,39.006,21.819,60.828,25.054,7.478,1.108,15.016,1.618,22.569,1.636-8.155,3.484-16.654,6.08-25.358,7.973-7.195,1.557-5.151,12.868,2.091,11.288,12.221-2.642,24.296-6.566,35.429-12.279,4.356-2.22,8.825-4.687,12.662-7.774,3.04-2.425,2.415-6.854-.389-9.086l.002-.02ZM713.996,458.045c-.057.132-.097.275-.154.407-.025-.24-.049-.497-.12-.732.181.344.303.519.255.323l.018.002ZM712.742,455.526l-.041-.049s.027.002.043.031l-.002.018Z"/>
  <path d="M1010.604,236.75c.758,12.227,1.491,24.451,2.049,36.683.056,1.385.129,2.792.152,4.179.009.404.004.819.035,1.207-.098,1.182.194,2.457,1.071,3.688.81,1.145,2.408,2.092,3.798,2.238,1.967.199,4.192-.482,5.339-2.208,1.615-2.389,1.194-5.176,1.105-7.884-.126-3.331-.296-6.674-.485-10.013-.205-3.933-.442-7.876-.674-11.8,25.207,26.509,43.033,64.8,33.381,101.911-3.142,12.054-9.413,23.385-17.196,33.2-4.591,5.786,4.509,12.776,9.115,6.979,15.201-19.091,23.37-42.413,22.088-66.874-1.18-22.232-9.933-43.576-22.151-61.944-4.187-6.294-8.859-12.232-13.906-17.852,8.05,3.72,15.671,8.291,22.908,13.485,5.976,4.299,13.004-4.796,6.979-9.115-10.149-7.303-21.152-13.639-32.851-18.077-4.567-1.747-9.392-3.412-14.254-4.192-3.837-.632-6.707,2.799-6.485,6.376l-.016.012ZM1013.933,275.59c.136-.046.269-.112.405-.159-.161.179-.337.369-.463.579.135-.365.183-.572.069-.406l-.011-.015ZM1012.903,278.21l-.009.064s-.016-.022-.006-.053l.015-.011Z"/>
  <path d="M600.866,200.176c11.363-4.578,22.731-9.132,34.162-13.52,1.297-.49,2.608-1.003,3.917-1.463.38-.136.776-.262,1.134-.414,1.152-.28,2.27-.96,3.162-2.18.83-1.13,1.225-2.945.925-4.31-.431-1.929-1.78-3.825-3.78-4.369-2.777-.779-5.288.501-7.83,1.439-3.121,1.17-6.239,2.387-9.348,3.62-3.667,1.436-7.334,2.905-10.984,4.364,17.2-32.284,47.907-61.284,86.168-63.837,12.429-.823,25.16,1.552,36.931,5.84,6.939,2.53,10.7-8.311,3.746-10.852-22.913-8.399-47.621-8.791-70.428.145-20.723,8.136-38.214,23.177-51.788,40.568-4.651,5.96-8.811,12.267-12.551,18.829.99-8.813,2.922-17.487,5.567-25.993,2.193-7.027-8.655-10.826-10.852-3.746-3.727,11.935-6.267,24.375-6.786,36.877-.216,4.885-.273,9.989.521,14.849.611,3.84,4.772,5.481,8.097,4.141l.016.012ZM636.672,184.759c-.087-.115-.191-.22-.278-.334.221.096.457.203.696.257-.389-.013-.601.007-.407.063l-.01.015ZM639.482,184.91l.063-.012s-.015.023-.048.022l-.015-.01Z"/>
</svg>