<?xml version="1.0" encoding="UTF-8"?>
<svg id="Layer_1" data-name="Layer 1" xmlns="http://www.w3.org/2000/svg" viewBox="0 0 565.562 988.52">
  <path d="M29.682,294.255v647.39c.047,25.875,21,46.828,46.875,46.875h442.13c25.875-.047,46.828-21,46.875-46.875V294.255c0-12.422-4.922-24.328-13.734-33.141-8.766-8.766-20.719-13.734-33.141-13.734h-252.37c.047-.562.047-1.172,0-1.734l-31.641-141.24c-3.375-14.859-13.219-27.375-26.859-34.125L73.187,5.125C47.875-7.156,17.406,3.39,5.125,28.703s-1.734,55.781,23.578,68.062l112.5,54.516,14.25,51.234c1.453,4.969,6.609,7.875,11.625,6.516,2.391-.656,4.406-2.25,5.672-4.406,1.219-2.156,1.5-4.734.797-7.125l-15.75-55.359c-.75-2.578-2.578-4.781-4.969-6l-116.02-56.25c-7.781-3.656-13.734-10.266-16.5-18.375-2.859-8.203-2.344-17.203,1.5-24.984,3.703-7.688,10.312-13.5,18.375-16.266,8.156-3,17.203-2.531,24.984,1.359l133.87,65.531c8.859,4.219,15.188,12.281,17.25,21.844l31.125,138.89H76.552c-25.688,0-46.594,20.672-46.875,46.359l.005.007ZM546.812,294.255v647.39c-.281,15.328-12.797,27.609-28.125,27.609H76.557c-15.516,0-28.125-12.562-28.125-28.125v-107.34h419.02c5.156,0,9.375-4.219,9.375-9.375,0-5.203-4.219-9.375-9.375-9.375H48.432V294.259c0-15.516,12.609-28.125,28.125-28.125h442.13c15.516,0,28.125,12.609,28.125,28.125v-.004ZM248.072,769.285c19.266-.281,37.781-7.734,51.844-20.906,14.109,13.172,32.625,20.625,51.891,20.906,51.75,0,93.891-56.391,93.891-125.02,0-55.266-26.109-102.98-65.25-119.62,1.969-15.75,1.031-31.734-2.766-47.109-1.172-4.031-4.828-6.844-9-6.891-40.5,0-68.484,11.25-83.25,33.234-4.219,6.281-7.266,13.266-9,20.625-8.953-3.844-18.609-5.859-28.359-5.859-51.75,0-93.891,56.391-93.891,125.02s42.141,125.63,93.891,125.63v-.01ZM301.088,513.675c10.266-15.234,30.375-23.484,60-24.984,2.25,12.516,4.875,41.25-10.266,60.609-10.641,13.875-28.641,21.141-53.625,21.891-3.516-11.812-9.281-38.672,3.844-58.031l.047.515ZM248.072,536.784c9.094.047,18.047,2.438,25.969,6.844.141,14.016,2.766,27.844,7.781,40.875,1.406,3.516,4.734,5.812,8.484,5.906h2.625c33.375,0,57.891-9.891,72.891-29.391,4.219-5.578,7.594-11.719,9.984-18.234,30.234,14.625,51.141,55.125,51.141,100.88,0,58.875-33.609,106.88-75,106.88-17.438-.516-33.797-8.438-45-21.75-1.828-1.875-4.312-2.906-6.891-2.906s-5.062,1.031-6.891,2.906c-11.203,13.312-27.562,21.234-45,21.75-41.391,0-75-48-75-106.88s33.516-107.39,74.906-107.39v.51ZM161.822,319.284c-.047-2.531.938-4.922,2.672-6.703,1.781-1.734,4.172-2.719,6.703-2.672h90.984c5.156,0,9.375,4.172,9.375,9.375,0,5.156-4.219,9.375-9.375,9.375h-90.984c-5.203,0-9.375-4.219-9.375-9.375ZM161.822,360.768c0-5.156,4.172-9.375,9.375-9.375h252.84c5.203,0,9.375,4.219,9.375,9.375s-4.172,9.375-9.375,9.375h-252.84c-5.016,0-9.141-3.891-9.375-8.859v-.516ZM161.822,402.252c0-5.156,4.172-9.375,9.375-9.375h90.984c5.156,0,9.375,4.219,9.375,9.375,0,5.203-4.219,9.375-9.375,9.375h-90.984c-5.016.094-9.188-3.844-9.375-8.859v-.516Z"/>
</svg>