<?xml version="1.0" encoding="UTF-8"?>
<svg width="1200pt" height="1200pt" version="1.1" viewBox="0 0 1200 1200" xmlns="http://www.w3.org/2000/svg">
 <path d="m968.86 116.53-54.703 2.1562c-23.156 1.3125-22.453 35.625 0.70312 36h0.70312l54.703-2.1562c23.391-1.3125 22.547-36.234-1.4531-36z"/>
 <path d="m945.61 60.141c7.6875-6.375 8.625-17.766 2.2969-25.312-6.375-7.6875-17.766-8.625-25.312-2.2969l-42.141 35.062c-13.078 10.078-4.6875 32.391 11.531 31.781 4.0781 0 8.1562-1.3125 11.531-4.2188l42.141-35.062z"/>
 <path d="m836.29 119.62h18v-20.859c0-36.375-29.625-66-66-66s-66 29.625-66 66c0.375 74.156 3.2344 162.94-29.625 192.24-10.078 10.219-24.938 18.375-44.531 24.609 82.922-99.609 9.2344-255.24-120.84-254.16-142.31-0.14062-209.63 177.47-104.62 271.69-33.844 1.9219-63.375 5.1562-94.453 6-0.9375-10.688-1.7812-28.547-1.7812-57.938-3.1406-87.375-128.86-87.375-132 0-4.7812 159.71 45.609 203.06 188.86 186.94v267.24l-9.4688 319.45c-1.9219 36.141 29.859 68.766 66 67.922 35.859 0 64.922-28.078 66-64.078l8.8594-300.24h43.078v84.703c0 36.375 29.625 66 66 66s66-29.625 66-66v-169.45c-0.70312-20.062-7.9219-35.297-18.469-46.219v-181.55c164.63-41.766 188.06-172.69 183-326.53h-18zm-182.53 723.74c0 16.547-13.453 30-30 30s-30-13.453-30-30v-169.45c0-16.547 13.453-30 30-30s30 13.453 30 30zm106.78-484.45c-26.625 26.766-63 44.859-111.23 55.547-8.2969 1.7812-14.156 9.1406-14.156 17.531v177.37c-35.625-5.8594-75.844 15.703-77.531 64.547v48.703h-60.609c-9.7031 0-17.766 7.6875-18 17.531l-9.4688 317.76c-0.46875 16.312-13.688 29.156-30.844 29.062-16.078-0.14062-29.859-14.766-29.062-30.844l9.4688-320.06v-287.16c0-9.8438-9.1406-18.141-18.938-17.859-133.31 12.609-173.29 6.2344-169.92-149.63 0-16.547 13.453-30 30-30s30 13.453 30 30c0 28.781 0.60938 63.938 5.0625 80.156 1.9219 6.9375 7.7812 12 14.859 13.078 46.547 2.625 111-7.5469 174.14-8.0625 19.781-0.23438 24.141-29.156 5.1562-35.062-49.312-16.312-82.453-62.062-82.453-113.86 0-66.141 53.859-120 120-120 132.47 1.9219 166.31 182.86 43.078 231.94-18.938 7.0781-12.609 36.469 7.7812 34.781 167.29-11.766 183.71-84 180.24-244.22v-21.141c0-16.547 13.453-30 30-30s30 13.453 30 30v20.859c0.23438 92.859 0.60938 180.71-57.703 239.16z"/>
 <path d="m694.92 942.24c-9.9375 0-18 8.0625-18 18v193.45c0 9.9375 8.0625 18 18 18s18-8.0625 18-18v-193.45c0-9.9375-8.0625-18-18-18z"/>
 <path d="m611.76 961.78c-9.9375 0-18 8.0625-18 18v112.69c0 9.9375 8.0625 18 18 18s18-8.0625 18-18v-112.69c0-9.9375-8.0625-18-18-18z"/>
</svg>
