<?xml version="1.0" encoding="UTF-8"?>
<svg id="Layer_1" data-name="Layer 1" xmlns="http://www.w3.org/2000/svg" viewBox="0 0 1008.092 1000.588">
  <path d="M765.99,343.158c-55.547,0-100.78-45.234-100.78-100.78s45.234-100.78,100.78-100.78,100.78,45.234,100.78,100.78-45,100.78-100.78,100.78ZM765.99,164.338c-43.125,0-78.047,34.922-78.047,78.047s34.922,78.047,78.047,78.047,78.047-34.922,78.047-78.047-34.922-78.047-78.047-78.047Z"/>
  <path d="M106.7,1000.588c-8.203,0-15.938-3.281-21.328-8.906l-67.266-67.266c-5.859-5.859-8.906-13.359-8.906-21.328,0-8.203,3.281-15.938,8.906-21.328l52.734-53.438-61.875-61.875c-11.953-11.953-11.953-31.172,0-43.125l32.812-32.812c12.422-11.719,31.172-11.719,42.891,0l61.875,61.875,74.766-74.766-61.875-61.875c-5.859-5.859-8.906-13.359-8.906-21.328s3.281-15.938,8.906-21.328l32.578-32.578c11.953-11.953,31.172-11.953,43.125,0l61.641,61.641,251.26-252.19c-21.094-43.359-29.297-93.047-22.734-141.1,7.266-52.734,30.938-100.55,68.672-138.05,94.453-94.219,248.44-94.453,343.13-.469,94.453,94.453,94.688,248.21.469,343.13-37.734,37.734-85.312,61.406-138.05,68.906-48.281,6.797-97.969-1.172-141.1-22.266L128.264,991.432c-5.859,5.859-13.359,9.141-21.562,9.141l-.003.015ZM57.716,707.148l-32.344,32.344c-2.812,2.812-2.812,7.734,0,10.781l66.328,66.328c3.047,3.047,4.688,7.266,4.688,11.719s-1.641,8.672-4.688,11.719l-57.656,57.656c-1.406,1.406-2.109,3.281-2.109,5.391s.703,3.984,2.109,5.391l67.266,67.5c2.812,2.812,7.969,2.812,10.781,0L648.111,438.556c3.516-3.516,9.141-4.453,13.594-2.109,84.609,45.469,191.48,29.531,259.69-38.672,85.078-85.781,84.844-225.47-.469-310.78-85.781-85.078-225.24-84.844-310.78.469-67.969,67.734-83.438,174.61-37.969,259.69,2.344,4.453,1.641,10.078-2.109,13.594l-261.56,262.03c-3.047,3.047-7.266,4.688-11.719,4.688s-8.672-1.641-11.719-4.688l-66.562-66.562c-2.812-2.812-7.734-2.812-10.781,0l-32.578,32.578c-2.812,2.812-2.812,7.734,0,10.781l66.562,66.562c6.328,6.328,6.328,16.641,0,22.969l-83.906,83.906c-6.328,6.328-16.641,6.328-22.969,0l-66.562-66.562c-2.578-2.344-7.5-2.109-10.547.703l-.011-.005Z"/>
</svg>