<?xml version="1.0" encoding="UTF-8"?>
<svg id="Layer_1" data-name="Layer 1" xmlns="http://www.w3.org/2000/svg" viewBox="0 0 1184.876 749.914">
  <defs>
    <style>
      .cls-1 {
        fill: red;
      }
    </style>
  </defs>
  <path d="M784.653,299.3h-205.6v-66.891c-.094-50.438-40.969-91.312-91.406-91.359h-155.53c-33.656-.047-60.984-27.328-60.984-61.031V15.707c0-8.344-6.844-15.141-15.188-15.141-8.391,0-15.188,6.797-15.188,15.141v64.312c.047,50.438,40.922,91.312,91.359,91.406h155.53c33.703,0,60.984,27.328,61.031,60.984v66.891H64.547c-35.625.047-64.547,28.922-64.547,64.594v321.52-.047c0,35.625,28.922,64.5,64.547,64.547h720.1c35.672-.047,64.547-28.922,64.547-64.547v-321.52.047c0-35.672-28.875-64.547-64.547-64.594h.006ZM818.825,685.36h.047c-.047,18.891-15.328,34.172-34.219,34.172H64.553c-18.891,0-34.172-15.281-34.172-34.172v-321.52.047c0-18.891,15.281-34.172,34.172-34.219h720.1c18.891.047,34.172,15.328,34.219,34.219l-.047,321.473Z"/>
  <path d="M85.932,377.44h27.516c2.531,0,4.969,1.031,6.75,2.812,1.781,1.781,2.766,4.172,2.766,6.703v27.516c0,5.25-4.266,9.516-9.516,9.516h-27.516c-5.25,0-9.516-4.266-9.516-9.516v-27.516c0-5.25,4.266-9.516,9.516-9.516Z"/>
  <path d="M178.743,377.44h27.562c2.484,0,4.922,1.031,6.703,2.812s2.766,4.172,2.766,6.703v27.516c0,5.25-4.219,9.516-9.469,9.516h-27.562c-5.25,0-9.469-4.266-9.469-9.516v-27.516c0-2.531.984-4.922,2.766-6.703s4.219-2.812,6.703-2.812h0Z"/>
  <path d="M271.603,377.44h27.516c2.531,0,4.922,1.031,6.703,2.812s2.812,4.172,2.812,6.703v27.516c0,5.25-4.266,9.516-9.516,9.516h-27.516c-5.25,0-9.516-4.266-9.516-9.516v-27.516c0-5.25,4.266-9.516,9.516-9.516Z"/>
  <path d="M364.413,377.44h27.562c5.203,0,9.469,4.266,9.469,9.516v27.516c0,5.25-4.266,9.516-9.469,9.516h-27.562c-5.25,0-9.516-4.266-9.516-9.516v-27.516c0-5.25,4.266-9.516,9.516-9.516Z"/>
  <path d="M457.273,377.44h27.516c5.25,0,9.516,5.25,9.516,9.516v27.516c0,5.25-4.266,9.516-9.516,9.516h-27.516c-5.25,0-9.516-5.25-9.516-9.516v-27.516c0-5.25,4.266-9.516,9.516-9.516Z"/>
  <path d="M550.093,377.44h27.516c5.25,0,9.516,5.25,9.516,9.516v27.516c0,5.25-4.266,9.516-9.516,9.516h-27.516c-5.25,0-9.516-5.25-9.516-9.516v-27.516c0-5.25,4.266-9.516,9.516-9.516Z"/>
  <path d="M642.903,377.44h27.562c2.531,0,4.922,1.031,6.703,2.812s2.766,4.172,2.766,6.703v27.516c0,5.25-4.219,9.516-9.469,9.516h-27.562c-5.25,0-9.469-4.266-9.469-9.516v-27.516c0-2.531.984-4.922,2.766-6.703s4.219-2.812,6.703-2.812h0Z"/>
  <path d="M735.753,377.44h27.516c2.531,0,4.922,1.031,6.75,2.812,1.781,1.781,2.766,4.172,2.766,6.703v27.516c0,5.25-4.266,9.516-9.516,9.516h-27.516c-5.25,0-9.516-4.266-9.516-9.516v-27.516c0-5.25,4.266-9.516,9.516-9.516Z"/>
  <path d="M85.932,460.04h27.516c2.531,0,4.969,1.031,6.75,2.812,1.781,1.781,2.766,4.172,2.766,6.703v27.562c0,5.203-4.266,9.469-9.516,9.469h-27.516c-5.25,0-9.516-4.266-9.516-9.469v-27.562c0-5.25,4.266-9.516,9.516-9.516Z"/>
  <path d="M178.743,460.04h27.516c5.25,0,9.516,5.25,9.516,9.516v27.516c0,5.25-4.266,9.516-9.516,9.516h-27.516c-5.25,0-9.516-5.25-9.516-9.516v-27.516c0-5.25,4.266-9.516,9.516-9.516Z"/>
  <path d="M271.603,460.04h27.516c5.25,0,9.516,5.25,9.516,9.516v27.516c0,5.25-4.266,9.516-9.516,9.516h-27.516c-5.25,0-9.516-5.25-9.516-9.516v-27.516c0-5.25,4.266-9.516,9.516-9.516Z"/>
  <path d="M364.413,460.04h27.562c5.203,0,9.469,4.266,9.469,9.516v27.562c0,2.484-.984,4.922-2.766,6.703s-4.219,2.766-6.703,2.766h-27.562c-5.25,0-9.516-4.266-9.516-9.469v-27.562c0-5.25,4.266-9.516,9.516-9.516h0Z"/>
  <path d="M457.273,460.04h27.516c2.531,0,4.922,1.031,6.703,2.812s2.812,4.172,2.812,6.703v27.562c0,5.203-4.266,9.469-9.516,9.469h-27.516c-5.25,0-9.516-4.266-9.516-9.469v-27.562c0-2.531.984-4.922,2.766-6.703s4.219-2.812,6.75-2.812Z"/>
  <path d="M550.093,460.04h27.516c5.25,0,9.516,4.266,9.516,9.516v27.562c0,5.203-4.266,9.469-9.516,9.469h-27.516c-5.25,0-9.516-4.266-9.516-9.469v-27.562c0-5.25,4.266-9.516,9.516-9.516Z"/>
  <path d="M642.903,460.04h27.562c2.531,0,4.922,1.031,6.703,2.812s2.766,4.172,2.766,6.703v27.562c0,5.203-4.219,9.469-9.469,9.469h-27.562c-5.25,0-9.469-4.266-9.469-9.469v-27.562c0-2.531.984-4.922,2.766-6.703s4.219-2.812,6.703-2.812h0Z"/>
  <path d="M735.753,460.04h27.516c2.531,0,4.922,1.031,6.75,2.812,1.781,1.781,2.766,4.172,2.766,6.703v27.562c0,5.203-4.266,9.469-9.516,9.469h-27.516c-5.25,0-9.516-4.266-9.516-9.469v-27.562c0-5.25,4.266-9.516,9.516-9.516Z"/>
  <path d="M85.932,542.64h27.516c5.25,0,9.516,4.266,9.516,9.516v27.562c0,5.203-4.266,9.469-9.516,9.469h-27.516c-5.25,0-9.516-4.266-9.516-9.469v-27.562c0-5.25,4.266-9.516,9.516-9.516Z"/>
  <path d="M178.743,542.64h27.562c5.25,0,9.469,4.266,9.469,9.516v27.562c0,5.203-4.219,9.469-9.469,9.469h-27.562c-5.25,0-9.469-4.266-9.469-9.469v-27.562c0-5.25,4.219-9.516,9.469-9.516Z"/>
  <path d="M271.603,542.64h27.516c5.25,0,9.516,4.266,9.516,9.516v27.562c0,5.203-4.266,9.469-9.516,9.469h-27.516c-5.25,0-9.516-4.266-9.516-9.469v-27.562c0-2.531.984-4.922,2.766-6.703s4.219-2.812,6.75-2.812Z"/>
  <path d="M364.413,542.64h27.516c5.25,0,9.516,4.266,9.516,9.516v27.562c0,5.203-4.266,9.469-9.516,9.469h-27.516c-5.25,0-9.516-4.266-9.516-9.469v-27.562c0-5.25,4.266-9.516,9.516-9.516Z"/>
  <path d="M457.273,542.64h27.516c5.25,0,9.516,4.266,9.516,9.516v27.562c0,5.203-4.266,9.469-9.516,9.469h-27.516c-5.25,0-9.516-4.266-9.516-9.469v-27.562c0-5.25,4.266-9.516,9.516-9.516Z"/>
  <path d="M550.093,542.64h27.516c2.531,0,4.969,1.031,6.75,2.812s2.766,4.172,2.766,6.703v27.562c0,5.203-4.266,9.469-9.516,9.469h-27.516c-5.25,0-9.516-4.266-9.516-9.469v-27.562c0-5.25,4.266-9.516,9.516-9.516Z"/>
  <path d="M642.903,542.64h27.562c5.25,0,9.469,4.266,9.469,9.516v27.562c0,5.203-4.219,9.469-9.469,9.469h-27.562c-5.25,0-9.469-4.266-9.469-9.469v-27.562c0-5.25,4.219-9.516,9.469-9.516Z"/>
  <path d="M735.753,542.64h27.516c5.25,0,9.516,4.266,9.516,9.516v27.562c0,5.203-4.266,9.469-9.516,9.469h-27.516c-5.25,0-9.516-4.266-9.516-9.469v-27.562c0-2.531.984-4.922,2.766-6.703s4.219-2.812,6.75-2.812Z"/>
  <path d="M85.932,625.27h27.516c5.25,0,9.516,4.219,9.516,9.469v27.562c0,5.25-4.266,9.469-9.516,9.469h-27.516c-2.531,0-4.922-.984-6.703-2.766s-2.812-4.219-2.812-6.703v-27.562c0-5.25,4.266-9.469,9.516-9.469h0Z"/>
  <path d="M178.743,625.27h27.562c5.25,0,9.469,4.219,9.469,9.469v27.562c0,5.25-4.219,9.469-9.469,9.469h-27.562c-5.25,0-9.469-4.219-9.469-9.469v-27.562c0-5.25,4.219-9.469,9.469-9.469Z"/>
  <path d="M271.603,625.27h306c5.25,0,9.516,4.219,9.516,9.469v27.562c0,5.25-4.266,9.469-9.516,9.469h-306c-5.25,0-9.516-4.219-9.516-9.469v-27.562c0-5.25,4.266-9.469,9.516-9.469Z"/>
  <path d="M642.903,625.27h27.562c5.25,0,9.469,4.219,9.469,9.469v27.562c0,5.25-4.219,9.469-9.469,9.469h-27.562c-5.25,0-9.469-4.219-9.469-9.469v-27.562c0-5.25,4.219-9.469,9.469-9.469Z"/>
  <path d="M735.753,625.27h27.516c5.25,0,9.516,4.219,9.516,9.469v27.562c0,5.25-4.266,9.469-9.516,9.469h-27.516c-5.25,0-9.516-4.219-9.516-9.469v-27.562c0-2.484.984-4.922,2.766-6.703s4.219-2.766,6.75-2.766h0Z"/>
  <path d="M1180.663,397.36c-16.5-53.109-63-91.359-118.31-97.219v-69.891c-.047-50.438-40.922-91.312-91.359-91.359h-136.45c-33.656-.047-60.938-27.328-60.984-61.031V15.141v.047c0-8.391-6.797-15.188-15.188-15.188s-15.188,6.797-15.188,15.188v62.719-.047c.047,50.438,40.922,91.359,91.359,91.406h136.45c33.656.047,60.938,27.328,60.984,60.984v69.891c-55.312,5.859-101.81,44.109-118.27,97.219-2.812,9-4.266,18.328-4.266,27.75v198.19c0,9.422,1.453,18.75,4.266,27.75,18.281,58.312,72.328,98.062,133.45,98.062s115.22-39.75,133.5-98.062c2.812-9,4.219-18.328,4.219-27.75v-198.19c0-9.422-1.406-18.75-4.219-27.75h.006ZM1154.554,623.3h-.047c0,6.328-.938,12.609-2.859,18.656-14.297,45.656-56.625,76.781-104.48,76.781s-90.188-31.125-104.48-76.781c-1.875-6.047-2.859-12.328-2.859-18.656v-101.44h214.69l.036,101.44ZM1154.554,491.49h-214.74v-66.375c0-6.328.984-12.609,2.859-18.656,14.297-45.656,56.625-76.781,104.48-76.781s90.188,31.125,104.48,76.781c1.922,6.047,2.859,12.328,2.859,18.656l.061,66.375Z"/>
  <path d="M1047.163,366.1c-8.391,0-15.188,6.797-15.188,15.188v58.641c0,8.344,6.797,15.188,15.188,15.188s15.188-6.844,15.188-15.188v-58.641c0-8.391-6.797-15.188-15.188-15.188Z"/>
  <path class="cls-1" d="M63.303,55.112c-9.961-9.113-19.362-8.564-28.216,1.597-4.401,5.074-8.965,10.136-13.878,15.492,72.112,64.043,143.149,127.153,215.382,191.283-13.253,14.814-25.956,29.073-40.347,45.27,53.559,10.99,105.185,21.607,158.598,32.633-17.611-51.815-34.429-101.666-52.162-153.981-10.532,12.572-20.908,23.841-30.023,36.173-6.361,8.712-11.657,7.946-18.916,1.495-61.818-55.074-123.595-110.003-185.383-164.98-1.753-1.575-3.22-3.273-4.972-4.848l-.083-.134Z"/>
</svg>