<?xml version="1.0" encoding="UTF-8"?>
<svg id="Layer_1" data-name="Layer 1" xmlns="http://www.w3.org/2000/svg" viewBox="0 0 1071.858 1152.079">
  <path d="M1061.901,707.145c-10.453-19.219-27.844-33.234-48.938-39.469-21.141-6.234-43.312-3.938-62.531,6.609l-51.938,28.312c-.703-1.688-1.547-3.234-2.391-4.922-10.453-19.219-27.844-33.234-48.938-39.469-21.141-6.234-43.312-3.938-62.531,6.609l-90.234,49.219c-30.703-9.938-61.453-19.781-92.297-29.766-31.688-10.219-63.375-20.391-95.062-30.609-63.938-20.531-126.24-14.766-185.16,17.297l-156.61,85.312-17.156-29.766c-9.609-16.547-30.844-22.312-47.391-12.703l-83.297,47.859c-8.062,4.547-13.781,12.141-16.219,21.141-2.391,9-1.219,18.375,3.375,26.391l187.45,325.45c4.547,8.062,12.141,13.781,21,16.219,3,.844,6.141,1.219,9.141,1.219,6,0,11.859-1.547,17.156-4.688l83.391-48c16.547-9.469,22.219-30.844,12.703-47.391l-16.453-28.453,8.156-4.453c34.922-18.938,71.859-22.453,109.78-10.312l80.766,26.062c18.609,6,36.938,9,55.078,9,28.312,0,56.062-7.312,82.781-21.844l373.31-203.16c19.219-10.453,33.234-27.844,39.469-48.938,6.422-21.375,4.031-43.547-6.422-62.766l.012.009ZM801.881,696.364c22.453-12.141,50.531-3.844,62.625,18.469.844,1.688,1.688,3.234,2.297,4.922l-89.625,48.703c-7.688-16.547-20.625-30.234-36.938-38.625l61.641-33.469ZM222.641,1115.524L36.401,792.234l81.234-46.781,186.14,323.29-81.134,46.781ZM1033.951,759.464c-3.469,11.859-11.391,21.609-22.219,27.469l-373.18,203.21c-34.922,18.938-71.766,22.453-109.69,10.312l-80.766-26.062c-47.625-15.234-94.078-10.922-138,12.938l-9,4.922-117.94-204.84,155.86-84.844c49.922-27.141,102.7-32.156,156.84-14.625,31.688,10.219,63.375,20.391,95.062,30.609,41.859,13.453,83.859,27,125.76,40.547,16.922,5.391,29.297,20.391,31.547,38.297.141.703.234,1.453.375,2.062v1.547c.234,5.531-.469,10.922-2.156,16.219-3.703,11.625-11.859,21.234-22.922,26.859s-23.531,6.703-35.297,2.859l-7.219-2.297c-60-19.312-120.14-38.625-180.14-58.078-9.469-3-19.547,2.156-22.688,11.625-3,9.469,2.156,19.547,11.625,22.688,60,19.453,120.14,38.766,180.14,58.078l7.219,2.297c8.297,2.625,16.688,3.938,25.219,3.938,12.844,0,25.688-3.141,37.547-9.141,19.547-10.078,33.938-27,40.688-47.766,2.391-7.453,3.703-15,3.938-22.781l182.86-99.469c10.781-5.859,23.297-7.219,35.156-3.609,11.859,3.469,21.703,11.391,27.469,22.219,6.188,10.5,7.359,22.969,3.891,34.828l.022-.011ZM623.791,623.384c12,12,28.078,18.703,45.141,18.703s33.141-6.609,45.141-18.703l176.95-177c26.391-26.391,40.922-61.547,40.922-99.094s-14.531-72.703-40.922-99.141c-26.391-26.391-61.547-40.922-99.141-40.922s-72.703,14.531-99.141,40.922l-24,24-24-24c-26.391-26.391-61.547-40.922-99.141-40.922s-72.703,14.531-99,40.922c-26.391,26.391-40.922,61.547-40.922,99.141s14.531,72.703,40.922,99.141l177.191,176.953ZM472.241,273.604c19.547-19.547,45.703-30.375,73.547-30.375s54.141,10.781,73.688,30.375l36.703,36.703c7.078,6.938,18.375,6.938,25.453,0l36.703-36.703c19.547-19.547,45.703-30.375,73.688-30.375s54,10.781,73.547,30.375c40.547,40.547,40.547,106.69,0,147.24l-177,177.1c-5.156,5.297-12.141,8.156-19.688,8.156-7.453,0-14.391-2.859-19.688-8.156l-176.95-177c-40.688-40.641-40.688-106.64,0-147.32l-.003-.02ZM650.881,102.844V18c0-9.938,8.062-18,18-18s18,8.062,18,18v84.844c0,9.938-8.062,18-18,18s-18-8.062-18-18ZM817.701,131.766l42.375-73.547c4.922-8.625,15.938-11.531,24.609-6.609,8.625,4.922,11.531,15.938,6.609,24.609l-42.375,73.547c-3.375,5.766-9.375,9-15.609,9-3,0-6.141-.703-9-2.391-8.672-4.922-11.531-15.984-6.609-24.609h0ZM947.541,261.376c-4.922-8.625-2.062-19.547,6.609-24.609l73.547-42.469c8.625-4.922,19.547-2.062,24.609,6.609,4.922,8.625,2.062,19.547-6.609,24.609l-73.547,42.469c-2.859,1.688-5.859,2.391-9,2.391-6.281,0-12.281-3.234-15.609-9ZM446.541,76.216c-4.922-8.625-2.062-19.547,6.609-24.609,8.625-4.922,19.547-2.062,24.609,6.609l42.375,73.547c4.922,8.625,2.062,19.547-6.609,24.609-2.859,1.688-5.859,2.391-9,2.391-6.234,0-12.234-3.234-15.609-9l-42.375-73.547ZM285.481,200.856c4.922-8.625,15.938-11.531,24.609-6.609l73.547,42.469c8.625,4.922,11.531,15.938,6.609,24.609-3.375,5.766-9.375,9-15.609,9-3,0-6.141-.703-9-2.391l-73.547-42.469c-8.625-5.016-11.531-16.078-6.609-24.609h0Z"/>
</svg>