<?xml version="1.0" encoding="UTF-8"?>
<svg id="Layer_1" data-name="Layer 1" xmlns="http://www.w3.org/2000/svg" viewBox="0 0 883.509 1108.809">
  <defs>
    <style>
      .cls-1 {
        fill: red;
      }
    </style>
  </defs>
  <path d="M857.11,0c-21.602,28.801-135.6,171.6-421.2,417.6h-1.199v1.199c-16.801,19.199-8.398,42-3.602,57.602l2.398,3.598c10.801,31.199,19.199,69.602,14.398,136.8-4.801,72-16.801,110.4-28.801,150-14.398,45.602-28.801,92.398-32.398,192-1.199,16.801,6,32.398,12,46.801,7.199,15.602,13.199,31.199,10.801,48-1.199,14.398-8.398,33.602-58.801,33.602-20.398,0-31.199-3.602-42-6-13.199-3.602-26.398-7.199-50.398-4.801l-21.602,3.598c-10.801,2.398-21.602,6-56.398,7.199-21.602,0-43.199-2.398-58.801-3.602l-6-1.199h-16.801v1.199s-36,13.199-46.801-6c-2.398-3.598-2.398-7.199-2.398-11.996,0-2.398,0-4.801,1.199-6,4.801-3.602,16.801-3.602,26.398-3.602h10.801c10.801,0,26.398-8.398,56.398-24,31.199-16.801,75.602-40.801,121.2-54l7.199-2.398v-491.998c25.199,1.199,84-2.398,100.8-58.801,19.199-66-37.199-100.8-69.602-108,31.207-46.805,159.61-232.8,201.61-300C509.112,12,515.112,3.602,516.311,0h-24c-40.801,64.801-201.6,298.8-212.4,314.4-8.398,6-44.398,32.398-48,81.602-1.199,8.398-1.199,14.398-1.199,20.398,0,28.801,7.199,42,18,57.602,0,1.199,3.602,4.801,3.602,12v475.2c-44.398,14.398-86.398,37.199-117.6,54-19.199,10.801-40.801,21.602-46.801,21.602h-10.801c-14.398,0-31.199-1.199-42,9.602-9.602,9.602-7.199,31.199-1.199,40.801,18,31.199,61.199,18,69.602,15.602h10.801l6,1.199c15.602,1.199,38.398,4.801,61.199,3.602,37.199-1.199,49.199-4.801,61.199-7.199l19.199-3.602c20.398-2.398,30,1.199,42,4.801s25.199,7.199,48,7.199c49.199,0,75.602-18,79.199-51.602v-7.199c0-19.199-7.199-36-13.199-50.398-4.801-13.199-10.801-25.199-10.801-37.199v-1.199c4.801-97.199,18-142.8,32.398-187.2,12-39.602,25.199-79.199,30-154.8,1.199-12,1.199-24,1.199-34.801,0-49.199-8.398-81.602-16.801-109.2l-1.199-4.801c-3.602-8.398-6-16.801-6-24,0-4.801,1.199-9.602,4.801-14.398C725.109,196.811,841.509,55.211,871.509,16.811c4.801-7.199,12-15.602,12-16.801L857.11,0h0Z"/>
  <path class="cls-1" d="M221.402,369.099l-41.278-103.188c-1.803-4.863-5.493-8.792-10.234-10.896-4.74-2.104-10.129-2.206-14.945-.282-4.817,1.925-8.652,5.711-10.637,10.503-1.985,4.791-1.953,10.181.092,14.948l24.429,60.932-142.009-60.857c-6.318-2.708-13.601-1.839-19.105,2.279-5.504,4.118-8.393,10.86-7.579,17.685.814,6.826,5.208,12.699,11.526,15.407l141.614,60.688-60.462,24.241c-6.21,2.669-10.564,8.402-11.469,15.1-.905,6.699,1.771,13.381,7.051,17.604,5.279,4.221,12.387,5.363,18.723,3.007l103.188-41.278c4.747-1.883,8.542-5.587,10.538-10.288.074-.141.137-.288.188-.439.073-.142.136-.288.188-.439,2.009-4.691,2.074-9.988.182-14.726h0Z"/>
</svg>