<?xml version="1.0" encoding="UTF-8"?>
<svg id="Layer_1" data-name="Layer 1" xmlns="http://www.w3.org/2000/svg" viewBox="0 0 1071.373 1163.698">
  <path d="M1048.188.036c-2.156.188-4.219,1.125-5.719,2.672L364.369,680.848c-13.781-8.812-32.391-7.219-44.391,4.781l-13.312,13.312c-12,12-13.594,30.656-4.781,44.438L23.625,1021.669c-31.5,31.5-31.5,82.922,0,114.42l3.984,3.984c31.5,31.5,82.875,31.5,114.42,0l277.69-277.69,50.766,50.766c13.828,13.828,36.516,13.828,50.344,0l13.312-13.312c12-12,13.594-30.656,4.781-44.438l390.05-390.1c119.77-119.95,168.56-293.53,128.81-458.29l-.094-.047c-1.031-4.312-5.062-7.266-9.516-6.938l.015.011ZM1043.641,27.224c31.5,153.79-16.078,313.6-127.55,425.21l-389.44,389.48-27.469-27.469,377.44-377.48v.047c97.922-98.062,146.44-235.5,132.94-375.71l34.079-34.078ZM992.735,78.13c8.203,129.61-38.391,255.28-128.9,345.94l-377.44,377.48-108.52-108.52L992.735,78.13ZM345.155,693.27c4.406,0,8.859,1.734,12.328,5.203l1.078,1.078h-.047l162.74,162.74c6.938,6.938,6.938,17.719,0,24.656l-13.312,13.312c-6.938,6.938-17.719,6.938-24.656,0l-163.78-163.82c-6.938-6.938-6.938-17.719,0-24.656l13.312-13.312c3.469-3.469,7.875-5.203,12.328-5.203l.009.002ZM314.171,756.786l92.672,92.672-277.69,277.69c-24.562,24.562-64.125,24.562-88.688,0l-3.984-3.984c-24.562-24.562-24.562-64.125,0-88.734l277.69-277.644Z"/>
</svg>