<?xml version="1.0" encoding="UTF-8"?>
<svg id="Layer_1" data-name="Layer 1" xmlns="http://www.w3.org/2000/svg" viewBox="0 0 873.116 1018.677">
  <path d="M545.52,1018.56H128.4c-9.961,0-18-8.039-18-18v-342.48C39.119,585.24,0,489.48,0,387.36,0,173.76,173.76,0,387.36,0s387.36,173.76,387.36,387.36v79.317l95.641,152.04c3.238,5.16,3.602,11.52,1.199,17.039-2.52,5.519-7.559,9.359-13.559,10.32l-83.281,13.559v116.4c0,54.84-44.641,99.602-99.602,99.602h-111.72v125.04c0,9.961-8.039,18-18,18l.122-.117ZM146.52,982.56h381v-125.04c0-9.961,8.039-18,18-18h129.72c35.039,0,63.602-28.559,63.602-63.602v-131.64c0-8.879,6.359-16.32,15.121-17.762l71.52-11.641-83.879-133.44c-1.801-2.879-2.762-6.238-2.762-9.602v-84.48c0-193.68-157.56-351.36-351.36-351.36S36.122,193.553,36.122,387.353c0,94.922,37.32,183.84,105,250.44,3.48,3.359,5.398,8.039,5.398,12.84v331.927ZM388.56,182.4c-109.56,0-198.36,88.801-198.36,198.36s88.801,198.36,198.36,198.36,198.36-88.801,198.36-198.36-88.801-198.36-198.36-198.36ZM499.68,322.2l-126,126c-3.481,3.481-8.16,5.281-12.719,5.281s-9.238-1.801-12.719-5.281l-70.922-70.922c-7.078-7.078-7.078-18.48,0-25.441,7.078-6.961,18.48-7.078,25.441,0l58.199,58.199,113.28-113.28c7.078-7.078,18.48-7.078,25.441,0,7.078,7.078,7.078,18.48,0,25.441v.003Z"/>
</svg>