<?xml version="1.0" encoding="UTF-8"?>
<svg id="Layer_1" data-name="Layer 1" xmlns="http://www.w3.org/2000/svg" viewBox="0 0 501.302 955.601">
  <path d="M500.555,391.364L430.102,31.734c-3.656-18.703-19.5-31.734-38.578-31.734H109.524c-18.984,0-34.875,13.031-38.531,31.641L.774,386.011c-2.297,11.672.562,23.156,8.016,32.391,7.5,9.234,18.141,14.391,30.047,14.531l171.32,2.156v410.26h-100.83c-21.328,0-39.281,9.562-46.875,24.938l-15.609,31.688c-6.562,13.266-3.984,27.281,7.031,38.438,9.656,9.797,23.812,15.188,39.844,15.188h312.61c15.75,0,29.766-5.25,39.422-14.766,10.969-10.828,13.875-24.609,7.969-37.781l-14.25-31.688c-7.125-15.844-25.734-26.062-47.391-26.062h-100.83v-409.22l89.391,1.125v108.75c-17.109,4.969-29.719,20.625-29.719,39.328v41.297c0,22.688,18.469,41.156,41.156,41.156s41.156-18.469,41.156-41.156v-41.297c0-18.703-12.609-34.359-29.719-39.328v-108.42l57.984.703h.516c11.859,0,22.547-5.016,30.141-14.156,7.734-9.281,10.688-20.859,8.391-32.719l.011-.003ZM410.414,585.284v41.297c0,10.078-8.203,18.328-18.328,18.328s-18.328-8.203-18.328-18.328v-41.297c0-10.078,8.203-18.328,18.328-18.328s18.328,8.203,18.328,18.328ZM418.617,880.734l14.25,31.688c1.312,2.906,2.156,6.938-3.188,12.141-5.344,5.297-13.641,8.203-23.391,8.203H93.678c-9.891,0-18.234-2.953-23.578-8.391-5.25-5.297-4.266-9.375-2.812-12.328l15.609-31.688c3.609-7.312,14.203-12.188,26.391-12.188h282.74c12.516,0,23.156,5.062,26.531,12.562h.058ZM268.377,845.343h-35.391v-409.74h17.578l17.812.234v409.506ZM474.637,409.453c-3.375,4.031-7.594,5.906-12.844,5.906l-69.094-.844c-.234,0-.375-.141-.609-.141-.188,0-.375.094-.562.094l-109.78-1.359c-.656-.094-1.219-.375-1.922-.375h-29.156l-211.55-2.625c-5.203-.047-9.281-2.062-12.562-6.094s-4.359-8.484-3.375-13.547L93.401,36.098c1.547-7.781,8.203-13.266,16.125-13.266h282c7.969,0,14.625,5.484,16.125,13.266l70.453,359.63c1.031,5.156-.141,9.656-3.516,13.688l.048.037ZM143.507,102.323l-25.031,126.42c-1.078,5.438-5.859,9.188-11.203,9.188-.75,0-1.5-.094-2.25-.234-6.188-1.219-10.219-7.219-9-13.406l25.031-126.42c1.219-6.188,7.219-10.219,13.406-9s10.219,7.219,9,13.406l.047.047ZM107.413,284.433l-5.812,29.438c-1.078,5.438-5.859,9.188-11.203,9.188-.75,0-1.5-.094-2.25-.234-6.188-1.219-10.219-7.219-9-13.406l5.812-29.438c1.219-6.188,7.219-10.219,13.406-9s10.219,7.219,9,13.406l.047.047Z"/>
</svg>