<?xml version="1.0" encoding="UTF-8"?>
<svg id="Layer_1" data-name="Layer 1" xmlns="http://www.w3.org/2000/svg" viewBox="0 0 1125.189 950.364">
  <path d="M205.466.01h714.22c33.164,0,63.355,13.578,85.195,35.418,21.84,21.84,35.418,52.031,35.418,85.195v452.98l84.035,289.39.059.129.043.129.016.016.027.113.043.129v.016l.016.027.043.098.043.129v.016l.016.027.016.086.043.141.027.059.055.195.016.098.016.043.027.141.027.098.016.027.027.141.027.129.059.285.016.141.027.129v.027l.016.113.027.141v.043l.016.098.016.141.016.07v.07l.016.141.016.086v.199l.016.098v.184l.016.129v.621c-.086,22.648-9.41,43.301-24.391,58.281-14.996,15.051-35.773,24.391-58.594,24.391H82.984c-22.762,0-43.512-9.324-58.562-24.363-15.094-15.137-24.422-35.871-24.422-58.621,0-1.543.297-3.004.82-4.367l84.047-289.42V120.613c0-33.164,13.578-63.355,35.418-85.195C142.125,13.578,172.289,0,205.48,0l-.015.01ZM204.7,228.36c-4.676,4.676-12.301,4.676-16.98,0-4.676-4.676-4.676-12.301,0-16.98l108.48-108.5c4.676-4.676,12.301-4.676,16.98,0,4.676,4.676,4.676,12.301,0,16.98l-108.48,108.5ZM204.7,159.321c-4.648,4.676-12.246,4.707-16.922.059-4.676-4.648-4.707-12.246-.059-16.922l39.5-39.516c4.648-4.676,12.246-4.707,16.922-.059,4.676,4.648,4.707,12.246.059,16.922l-39.5,39.516ZM700.5,855.391l-16.738-57.656c-80.801,0-161.62.086-242.42.156l-16.711,57.5h275.869ZM399.74,855.391l16.695-57.488c-94.891.113-189.78.086-284.67.156-1.191.027-2.422-.113-3.629-.469-6.336-1.828-9.977-8.477-8.148-14.812l15.676-54.016c.141-.695.34-1.375.594-2.027l15.391-53.023c.129-1.629.609-3.16,1.316-4.535l15.195-52.301c1.445-4.977,6.051-8.617,11.48-8.617,255.19-.184,510.37-.34,765.54-.539,5.316-.141,10.262,3.289,11.805,8.617,16.059,55.305,32.102,110.59,48.176,165.89.297,1.062.469,2.168.469,3.332,0,6.59-5.359,11.949-11.949,11.949l-285.05.184,16.754,57.699h371.85l-77.898-268.25H105.807L27.909,855.391h371.831ZM753.46,773.625l-4.211-30.559h-373.29l-4.266,30.941c127.23-.098,254.51-.211,381.76-.383h.006ZM163.38,719.059h77.289l7.074-32.344h-74.961l-9.398,32.344h-.004ZM265.22,719.059h89.887l4.465-32.344h-87.281l-7.074,32.344h.003ZM379.27,719.059h85.281l1.969-32.344h-82.785l-4.465,32.344ZM488.53,719.059h148.1l-1.969-32.344h-144.16l-1.969,32.344h-.002ZM660.61,719.059h85.324l-4.449-32.344h-82.844l1.969,32.344ZM770.01,719.059h90.027l-7.074-32.344h-87.395l4.438,32.344h.005ZM884.59,719.059h77.328l-9.383-32.344h-75.02l7.075,32.344ZM968.895,743.067h-79.059l6.691,30.613,81.242-.059-8.871-30.559-.003.005ZM865.285,743.067h-91.984l4.195,30.645,94.465-.086-6.676-30.559ZM351.805,743.067h-91.828l-6.773,31.012,94.336-.059,4.265-30.953ZM235.425,743.067h-79.016l-9.027,31.082,81.27-.059,6.773-31.027v.004ZM179.753,662.704h73.234l6.691-30.602-71.051.059-8.871,30.543h-.003ZM277.534,662.704h85.352l4.223-30.629-82.898.07-6.677,30.559ZM387.054,662.704h80.93l1.855-30.672-78.578.113-4.211,30.559h.003ZM491.964,662.704h141.24l-1.871-30.871c-45.836.043-91.672.129-137.51.285l-1.856,30.586h-.003ZM657.184,662.704h80.988l-4.266-30.941-78.59.059,1.871,30.883h-.003ZM762.294,662.704h85.438l-6.773-31.012-82.898.059,4.238,30.953h-.005ZM872.274,662.704h73.289l-9.027-31.082-71.035.059,6.773,31.027v-.004ZM1099.924,879.404H25.224c2.383,11.438,8.078,21.684,16.043,29.637,10.699,10.715,25.457,17.336,41.699,17.336h959.22c16.199,0,30.953-6.648,41.641-17.336,8.023-7.953,13.719-18.199,16.102-29.637h-.005ZM159.324,512.654h806.48V120.634c0-12.602-5.231-24.164-13.594-32.527-8.363-8.363-19.926-13.594-32.527-13.594H205.463c-12.645,0-24.195,5.215-32.57,13.562-8.332,8.391-13.562,19.941-13.562,32.555l-.007,392.024ZM977.804,536.662H147.314c-6.617,0-12.004-5.387-12.004-12.004V120.638c0-19.262,7.922-36.809,20.621-49.508,12.77-12.699,30.301-20.621,49.523-20.621h714.22c19.234,0,36.809,7.922,49.508,20.621,12.699,12.699,20.621,30.273,20.621,49.508v404.02c0,6.617-5.387,12.004-12.004,12.004h.005ZM919.679,24.022H205.459c-26.547,0-50.711,10.887-68.215,28.391s-28.391,41.668-28.391,68.215v442.5h907.43V120.628c0-26.547-10.887-50.711-28.391-68.215s-41.668-28.391-68.215-28.391h.002Z"/>
</svg>