<?xml version="1.0" encoding="UTF-8"?>
<svg id="Layer_1" data-name="Layer 1" xmlns="http://www.w3.org/2000/svg" viewBox="0 0 1007.314 534.54">
  <path d="M945.843,199.118c-1.234,0-2.426.109-3.648.191l29.27-11.363c19.535-7.598,29.258-29.676,21.684-49.223-5.641-14.508-19.883-24.266-35.461-24.266-4.703,0-9.324.863-13.754,2.594l-47.23,18.336v-44.867C896.703,40.598,854.789.004,803.258.004l-598.54-.004c-47.723,0-87.492,34.801-92.82,80.16-12.793,1.105-24.012,5.242-33.406,12.348-26.184,19.801-33.613,60.266-20.125,106.78-32.449,1.644-58.367,28.488-58.367,61.332v190.33c0,32.242,24.961,58.715,56.543,61.246-.574,1.715-.91,3.539-.91,5.449,0,9.312,7.586,16.895,16.906,16.895h147.31c9.312,0,16.895-7.586,16.895-16.895,0-1.812-.289-3.551-.816-5.195h534.72c-.539,1.644-.828,3.371-.828,5.195,0,9.312,7.586,16.895,16.906,16.895h147.3c9.312,0,16.895-7.586,16.895-16.895,0-1.894-.312-3.707-.887-5.41,31.945-2.172,57.277-28.777,57.277-61.273l.004-190.34c.012-33.902-27.578-61.5-61.477-61.5l.005-.004ZM948.171,127.97c3.07-1.188,6.266-1.789,9.516-1.789,10.777,0,20.641,6.758,24.539,16.789,5.258,13.523-1.477,28.801-15,34.055l-255.41,99.18-23.352,9.062-66.562,25.836h-58.84c.145-.254.254-.527.383-.77.434-.758.816-1.535,1.199-2.328.254-.539.504-1.066.73-1.633.336-.828.625-1.691.898-2.543.18-.539.359-1.066.504-1.621.254-.961.434-1.934.613-2.914.086-.48.191-.938.254-1.414.191-1.477.301-2.953.301-4.453,0-19.055-15.492-34.547-34.547-34.547h-173.76c-.047-.109-.121-.203-.18-.301-.266-.504-.562-.973-.852-1.453-.457-.77-.898-1.535-1.391-2.281-.324-.504-.684-.984-1.02-1.465-.492-.695-.996-1.379-1.523-2.051-.371-.48-.758-.938-1.152-1.391-.551-.648-1.117-1.273-1.691-1.883-.406-.434-.828-.863-1.246-1.285-.613-.602-1.246-1.176-1.883-1.754-.445-.383-.863-.781-1.32-1.152-.684-.562-1.391-1.106-2.113-1.633-.445-.324-.863-.66-1.32-.973-.816-.551-1.656-1.078-2.496-1.586-.395-.238-.77-.492-1.164-.719-1.262-.719-2.543-1.379-3.875-1.992l-48.047-21.898c.086-.73.145-1.43.254-2.16,1.094-.445,2.137-.984,3.191-1.477.492-.227.984-.445,1.465-.672,1.645-.805,3.238-1.668,4.801-2.578.395-.227.805-.457,1.211-.684l.012-.012c1.055-.637,2.074-1.32,3.098-2.004l.012-.012c.277-.191.551-.383.84-.574,1.559-1.078,3.059-2.219,4.5-3.406.012-.012.023-.023.047-.035.742-.613,1.5-1.223,2.23-1.859l.012-.012c1.176-1.043,2.281-2.16,3.371-3.289.445-.434.875-.852,1.297-1.309.887-.973,1.703-1.981,2.531-2.988.035-.047.086-.098.121-.156,1.414-1.738,2.746-3.539,3.973-5.41.395-.602.828-1.188,1.211-1.801,1.129-1.848,2.172-3.758,3.109-5.711.637-1.32,1.211-2.664,1.754-4.008.168-.434.312-.863.48-1.285.012-.035.023-.059.035-.098.406-1.066.781-2.148,1.129-3.238.098-.348.203-.695.312-1.043,0-.023.012-.047.012-.07.254-.828.492-1.656.707-2.496v-.023c.098-.395.191-.793.277-1.188.238-1.008.457-2.027.637-3.047v-.012c.109-.59.203-1.176.301-1.754v-.035c.133-.84.238-1.691.336-2.531.047-.395.086-.781.121-1.176.109-1.055.18-2.125.238-3.203v-.047c.023-.457.035-.898.059-1.344.047-1.754.059-3.504-.023-5.293,11.566-5.676,24.059-7.453,36.898-4.812l3.059.637,2.23-2.195c29.027-28.598,73.066-45,120.79-45,73.379,0,136.14,39.254,149.24,93.312,1.644,6.793,2.473,13.645,2.473,20.34,0,9.156-1.488,18.324-4.414,27.238l-3.887,11.785,309.758-120.359ZM907.034,212.966c-3.875,3.168-7.32,6.828-10.332,10.836v-6.816l10.332-4.02ZM211.834,234.888c3.973-8.711,11.051-15.551,19.957-19.273,2.449-1.019,4.969-1.777,7.535-2.269,1.246-.254,2.52-.422,3.793-.527,3.863.469,7.715.707,11.496.707,2.617.562,5.184,1.402,7.656,2.531l3.816,1.738,6.203,2.82,3.59,1.633,11.328,5.172,44.352,20.219c8.52,3.887,15.289,10.789,19.055,19.453,4.32,9.926,4.246,21.215-.215,30.984-.613,1.344-1.309,2.641-2.062,3.875-.238.406-.527.781-.781,1.188-.539.816-1.078,1.633-1.68,2.398-.336.445-.719.863-1.078,1.285-.574.684-1.164,1.356-1.789,1.992-.422.434-.863.828-1.309,1.246-.395.359-.805.707-1.223,1.055h-53.195l-1.441-.66-6.203-2.82-48.949-22.297c-19.094-8.723-27.555-31.344-18.855-50.449h-.001ZM208.232,185.595c-.012-.012-.012-.035-.023-.059-.035-.086-.086-.168-.133-.254-.527-.996-1.066-1.98-1.645-2.977v-.012c-.086-.145-.168-.289-.254-.445-.539-.926-1.094-1.848-1.668-2.773-.012-.012-.023-.035-.035-.059-.359-.562-.73-1.129-1.094-1.691-.023-.035-.047-.086-.086-.121-.66-1.008-1.355-2.004-2.062-3-.191-.254-.359-.516-.551-.77,0,0,0-.012-.012-.012-.289-.406-.574-.805-.875-1.211,0,0-.012-.012-.012-.023-.121-.168-.238-.336-.359-.504-.637-.84-1.332-1.715-2.062-2.605-.301-.371-.613-.73-.926-1.094-.035-.035-.07-.07-.098-.109-.551-.648-1.094-1.297-1.691-1.98l-.012-.012c-.73-.828-1.5-1.633-2.27-2.449-.18-.191-.348-.371-.527-.551-.91-.949-1.859-1.883-2.832-2.797-.059-.07-.145-.133-.203-.203,0,0-.012-.012-.023-.012-1.043-.996-2.125-1.969-3.227-2.914-.047-.035-.098-.086-.145-.121l-.035-.035c-2.316-1.992-4.754-3.887-7.332-5.699-.012,0-.012-.012-.023-.012-.168-.121-.348-.238-.527-.359-2.891-1.992-5.941-3.84-9.156-5.531-.324-.168-.637-.336-.961-.504-.469-.238-.926-.504-1.391-.73-.238-.91-.504-1.789-.719-2.746l-.121-.516c-.383-1.824-.684-3.504-.91-5.219-.191-1.5-.324-3.098-.406-4.727,0-.133-.023-.238-.023-.371l-.023-.406c-.059-1.559-.047-3.191.023-4.824v-.059l.035-.758c.109-1.777.266-3.359.48-4.848v-.023l.023-.156c.059-.457.156-.938.254-1.414.18-1.008.395-2.062.66-3.18l.191-.805c.371-1.477.828-2.988,1.355-4.477l.324-.875c.66-1.777,1.262-3.215,1.883-4.523.602-1.262,1.273-2.484,1.957-3.672l.012-.023c10.906-18.887,32.797-30.156,58.559-30.156,13.703,0,27.84,3.289,40.848,9.516,28.008,13.391,47.051,38.102,49.703,64.5,1.055,10.559-.613,20.543-4.992,29.699-.73,1.523-1.547,3-2.398,4.441-.254.422-.516.828-.781,1.246-.672,1.055-1.367,2.074-2.102,3.07-.289.395-.574.793-.875,1.188-1.02,1.309-2.074,2.578-3.227,3.793l-.012.012s0,.012-.012.012c-1.129,1.199-2.34,2.34-3.59,3.445-.266.238-.539.48-.816.719-1.246,1.066-2.531,2.09-3.887,3.047-.227.168-.469.312-.695.48-1.262.875-2.555,1.715-3.91,2.496-.238.145-.48.289-.719.434-1.488.84-3.023,1.633-4.609,2.375-.336.156-.684.312-1.031.469-1.645.742-3.312,1.441-5.051,2.062l-.023.012c-3.18,1.141-6.383,2.051-9.551,2.734-.84.18-1.68.324-2.531.469l-2.137-.973c-1.535-.695-3.109-1.309-4.703-1.848-.492-.156-.996-.266-1.488-.422-1.105-.336-2.219-.672-3.336-.926-.59-.133-1.188-.215-1.777-.324-1.043-.203-2.09-.395-3.145-.527-.613-.07-1.234-.109-1.859-.156-1.031-.086-2.074-.18-3.133-.203-.625-.012-1.246.012-1.859.023-1.043.012-2.09.035-3.133.121-.625.047-1.246.133-1.871.203-1.031.121-2.062.254-3.086.434-.637.121-1.262.266-1.895.406-.996.215-1.98.445-2.953.73-.684.191-1.355.422-2.027.648-.539.18-1.105.312-1.645.516-.684-.191-1.367-.395-2.027-.602-.109-.023-.203-.059-.301-.086l-.445-.145c-1.211-.383-2.426-.793-3.613-1.234l-.805-.289c-1.105-.406-2.207-.84-3.312-1.309l-.961-.441c-1.355-.574-2.699-1.176-4.055-1.824-.359-1.055-.758-2.137-1.188-3.227-.289-.758-.613-1.512-.938-2.281-.121-.277-.227-.562-.348-.852-.434-.973-.887-1.957-1.355-2.953-.023-.059-.047-.109-.086-.168-.48-1.019-1.008-2.062-1.562-3.106h0ZM284.709,322.825h307.04l292.57.047v72.445H122.979v-72.492h161.73ZM365.482,282.313c0-1.43-.059-2.856-.191-4.273-.047-.492-.109-.984-.168-1.477-.133-1.106-.289-2.207-.504-3.312-.098-.516-.191-1.043-.312-1.559-.086-.359-.133-.73-.215-1.094h169.31c12.59,0,22.824,10.246,22.824,22.836,0,.887-.059,1.777-.168,2.664-.023.289-.098.59-.145.875-.098.59-.191,1.164-.324,1.727-.086.348-.191.684-.277,1.019-.156.504-.289,1.008-.469,1.5-.133.348-.289.695-.434,1.031-.203.469-.395.926-.625,1.367-.168.336-.348.684-.539,1.008-.254.434-.504.852-.77,1.273-.215.312-.434.625-.66.938-.289.395-.602.793-.926,1.188-.254.289-.48.574-.742.852-.348.371-.719.742-1.106,1.106-.254.254-.527.504-.805.742-.168.145-.336.266-.504.395l-191.42.008c.023-.047.059-.098.098-.156.793-1.117,1.535-2.281,2.23-3.469.168-.277.324-.551.48-.828.695-1.223,1.355-2.461,1.934-3.758.672-1.453,1.234-2.953,1.754-4.453.156-.469.289-.938.445-1.402.324-1.078.625-2.148.887-3.238.133-.527.254-1.055.348-1.598.227-1.106.406-2.231.551-3.336.059-.457.145-.926.191-1.379.168-1.57.266-3.144.277-4.715-.016-.168-.027-.324-.027-.48h0ZM654.262,311.114l18.887-7.332,18.469-7.176c-3.828,5.785-9.215,10.645-16.078,14.508h-21.278ZM694.774,311.125c5.746-5.785,10.008-12.59,12.625-20.387.035-.098.059-.191.086-.277l78.238-30.383,4.848-1.883c2.641,16.715,4.285,34.453,4.906,52.957l-100.703-.027ZM801.804,253.824l23.305-9.047,36.984-14.352c6.742,25.355,10.727,52.441,11.844,80.699h-66.672c-.66-20.055-2.484-39.277-5.461-57.301h0ZM873.023,226.164l11.965-4.644-.66,69c-1.969-22.344-5.773-43.883-11.305-64.355h0ZM751.533,162.961c-26.566,1.031-36.059,25.094-40.691,44.594l-54.383,21.121c1.309-6.434,1.969-12.938,1.969-19.453,0-1.836-.059-3.672-.18-5.519-.023-.574-.098-1.152-.145-1.727-.098-1.285-.203-2.555-.348-3.84-.086-.684-.191-1.356-.277-2.016-.168-1.199-.324-2.387-.539-3.562-.133-.719-.277-1.43-.422-2.148-.156-.781-.277-1.559-.445-2.34,23.566-53.797,58.367-84.602,95.688-84.602,29.965,0,58.609,20.062,81.168,56.699l-54.695,21.238c-7.906-12.254-16.824-18.445-26.699-18.445h-.001ZM766.99,185.762l-42.551,16.523c5.797-18.672,14.305-27.098,27.312-27.613,4.871,0,10.164,3.926,15.238,11.09h.001ZM204.72,11.712h598.52c45.07,0,81.742,35.352,81.742,78.805v49.414l-41.027,15.938c-24.926-41.363-57.504-64.117-92.207-64.117-39.254,0-75.469,28.895-100.88,79.824-21.059-51.613-83.762-87.719-155.88-87.719-49.598,0-95.617,16.824-126.82,46.246-1.801-.289-3.602-.492-5.398-.625-.684-.059-1.355-.07-2.027-.109-1.078-.059-2.172-.098-3.238-.098-.875,0-1.738.012-2.605.047-.828.035-1.668.07-2.496.145-1.008.07-2.027.156-3.035.277-.551.07-1.105.156-1.656.238-5.902.84-11.688,2.484-17.293,4.871h-.023c-5.734-27.289-26.148-51.996-54.996-65.785-14.578-6.973-30.457-10.656-45.898-10.656-27.973,0-52.176,11.711-65.879,31.57-.539-.238-1.078-.469-1.609-.695-.574-.238-1.152-.457-1.727-.684-1.547-.625-3.086-1.223-4.621-1.777-.625-.227-1.246-.434-1.871-.648-1.5-.516-3-1.008-4.488-1.465-.59-.18-1.176-.348-1.766-.516-1.547-.457-3.086-.863-4.621-1.246-.504-.121-1.008-.254-1.5-.371-1.691-.395-3.359-.742-5.027-1.043-.336-.059-.695-.145-1.031-.203-3.938-.684-7.824-1.152-11.652-1.355,5.375-38.73,39.801-68.262,81.008-68.262h.004ZM85.56,101.845c8.652-6.539,19.367-9.996,31.848-10.262,12.371-.254,26.23,2.711,40.402,8.629-.121.266-.238.562-.359.84-.109.254-.215.504-.312.758-.324.77-.637,1.586-.973,2.473-.012.047-.035.098-.059.145,0,0,0,.012-.012.012l-.383,1.055c-.109.312-.18.625-.289.938-.504,1.512-.996,3.035-1.367,4.512l-.227.973c0,.023-.012.047-.012.07v.023c-.145.613-.266,1.199-.395,1.777-.07.336-.156.707-.227,1.031-.18.926-.336,1.812-.469,2.688l-.012.059-.023.156c-.133.898-.254,1.824-.348,2.797v.023c-.035.359-.047.742-.086,1.105-.047.613-.109,1.211-.145,1.848v.109l-.047.887c-.047.973-.07,1.957-.07,2.93v.047c0,.816.012,1.609.035,2.398v.504l.012.156.012.324v.012c.035.984.109,1.98.191,2.965v.047c.086,1.008.191,2.016.324,3.023v.094c.07.562.18,1.152.266,1.727-8.34-2.578-17.746-4.176-28.309-4.176-3.238,0-5.855,2.617-5.855,5.855s2.629,5.855,5.855,5.855c35.496,0,56.305,20.352,65.543,32.484.781,1.031,1.523,2.051,2.242,3.086.023.035.059.086.086.121.07.098.133.191.203.277.562.816,1.094,1.633,1.621,2.449.301.469.59.938.875,1.402.312.504.613,1.008.91,1.5.504.863.996,1.727,1.453,2.578.086.156.18.312.254.48,1.223,2.305,2.293,4.586,3.215,6.805.047.133.098.254.145.371.395.984.781,1.969,1.129,2.93.395,1.094.758,2.16,1.066,3.215l.059.203.254.84c1.934,6.828,2.23,12.422,1.344,15.625-.254.938-.254,1.859-.059,2.746-.098.156-.191.312-.289.469-.301.469-.613.926-.887,1.402-.91,1.535-1.777,3.121-2.52,4.754-11.387,24.984-.324,54.551,24.648,65.953l33.191,15.133H122.992v-50.496c0-1.934-.098-3.852-.277-5.746-.059-.637-.18-1.246-.266-1.883-.156-1.246-.312-2.508-.539-3.742-.145-.73-.348-1.453-.504-2.172-.254-1.094-.492-2.207-.805-3.277-.227-.758-.504-1.5-.758-2.258-.336-1.008-.66-2.027-1.043-3.012-.289-.758-.637-1.5-.973-2.231-.422-.949-.816-1.906-1.285-2.82-.371-.742-.781-1.453-1.176-2.172-.492-.887-.973-1.777-1.5-2.641-.434-.707-.91-1.391-1.367-2.074-.562-.828-1.117-1.668-1.715-2.473-.504-.672-1.02-1.309-1.547-1.957-.625-.781-1.262-1.547-1.934-2.305-.551-.625-1.129-1.223-1.715-1.812-.695-.719-1.391-1.43-2.125-2.113-.613-.574-1.234-1.129-1.859-1.668-.758-.66-1.512-1.297-2.305-1.922-.66-.516-1.332-1.008-2.004-1.5-.816-.59-1.645-1.164-2.484-1.715-.695-.457-1.402-.898-2.125-1.32-.863-.516-1.754-1.008-2.641-1.488-.742-.395-1.488-.77-2.242-1.141-.926-.445-1.848-.852-2.785-1.246-.77-.324-1.547-.637-2.34-.938-.973-.359-1.945-.684-2.941-.996-.793-.254-1.598-.504-2.41-.719-1.008-.266-2.039-.504-3.07-.719-.828-.18-1.645-.359-2.484-.504-.348-.059-.684-.156-1.02-.203-13.629-43.32-8.062-80.664,14.809-97.969h-.003ZM219.85,522.815H72.54c-2.855,0-5.195-2.316-5.195-5.184s2.328-5.195,5.195-5.195h147.31c2.855,0,5.184,2.316,5.184,5.195s-2.328,5.184-5.184,5.184ZM934.03,522.815h-147.3c-2.867,0-5.195-2.316-5.195-5.184s2.316-5.195,5.195-5.195h147.3c2.855,0,5.195,2.316,5.195,5.195s-2.328,5.184-5.195,5.184ZM995.616,450.948c0,27.457-22.332,49.777-49.777,49.777-.156,0-.277-.012-.422-.023-.289-.023-.59-.035-.875-.047h-.348c-.289.012-.59.023-.863.047-.145.012-.277.023-.422.023h-8.867l-147.31-.004H61.502c-27.457,0-49.777-22.32-49.777-49.777v-190.33c0-27.445,22.332-49.777,49.777-49.777,1.547,0,3.133.121,4.332.227,25.488,2.207,45.457,23.977,45.457,49.559v146.42h784.78l.648-154.05c3.695-23.82,24.289-42.145,49.141-42.145,27.445,0,49.777,22.332,49.777,49.777l-.004,190.32-.018.003Z"/>
</svg>