<?xml version="1.0" encoding="UTF-8"?>
<svg width="1200pt" height="1200pt" version="1.1" viewBox="0 0 1200 1200" xmlns="http://www.w3.org/2000/svg">
 <path d="m324.24 1104h551.53c43.219 0 78.234-35.062 78.234-78.234v-678c0-1.5469-0.14062-3.1406-0.46875-4.6875-0.375-2.0625-1.2188-3.9375-2.0625-5.7656-0.23438-0.46875-0.46875-0.9375-0.70312-1.4531-1.0781-1.7812-2.2969-3.6094-3.7031-5.0625l-227.76-227.76c-1.5469-1.5469-3.2344-2.7656-5.0625-3.7031-0.46875-0.23438-0.9375-0.46875-1.4531-0.70312-1.7812-0.9375-3.8438-1.6875-5.8594-2.0625-1.5469-0.375-3.1406-0.46875-4.6875-0.46875h-378c-43.219 0-78.234 35.062-78.234 78.234v851.53c0 43.219 35.062 78.234 78.234 78.234zm-30.234-929.76c0-16.688 13.547-30.234 30.234-30.234h354v149.53c0 43.219 35.062 78.234 78.234 78.234h149.53v654c0 16.688-13.547 30.234-30.234 30.234h-551.53c-16.688 0-30.234-13.547-30.234-30.234zm462.47 149.53c-16.688 0-30.234-13.547-30.234-30.234v-115.55l145.78 145.78z"/>
 <path d="m432.71 277.08h93.703c13.219 0 24-10.781 24-24s-10.781-24-24-24h-93.703c-13.219 0-24 10.781-24 24s10.781 24 24 24z"/>
 <path d="m375.84 444h251.16c13.219 0 24-10.781 24-24s-10.781-24-24-24h-251.16c-13.219 0-24 10.781-24 24s10.781 24 24 24z"/>
 <path d="m375.84 610.92h448.31c13.219 0 24-10.781 24-24s-10.781-24-24-24h-448.31c-13.219 0-24 10.781-24 24s10.781 24 24 24z"/>
 <path d="m375.84 777.84h448.31c13.219 0 24-10.781 24-24s-10.781-24-24-24h-448.31c-13.219 0-24 10.781-24 24s10.781 24 24 24z"/>
 <path d="m375.84 944.76h374.16c13.219 0 24-10.781 24-24s-10.781-24-24-24h-374.16c-13.219 0-24 10.781-24 24s10.781 24 24 24z"/>
</svg>
