<?xml version="1.0" encoding="UTF-8"?>
<svg id="Layer_1" data-name="Layer 1" xmlns="http://www.w3.org/2000/svg" viewBox="0 0 1078.13 1078.119">
  <defs>
    <style>
      .cls-1 {
        fill-rule: evenodd;
      }
    </style>
  </defs>
  <path class="cls-1" d="M56.25,178.125h-23.438c-18.141,0-32.812-14.672-32.812-32.812v-37.5c0-18.094,14.672-32.812,32.812-32.812h248.44v-23.438c0-13.688,5.438-26.766,15.094-36.469,9.656-9.656,22.781-15.094,36.469-15.094h412.5c13.688,0,26.766,5.438,36.469,15.094,9.656,9.656,15.094,22.781,15.094,36.469v23.438h248.44c18.141,0,32.812,14.719,32.812,32.812v37.5c0,18.141-14.672,32.812-32.812,32.812h-23.438v796.87h4.688c28.5,0,51.562,23.109,51.562,51.562v37.5c0,7.781-6.281,14.062-14.062,14.062H14.068c-7.781,0-14.062-6.281-14.062-14.062v-37.5c0-28.453,23.062-51.562,51.562-51.562h4.688l-.005-796.87ZM281.25,103.125H32.81c-2.625,0-4.688,2.109-4.688,4.688v37.5c0,2.578,2.109,4.688,4.688,4.688h248.44v-46.875ZM768.75,426.565V51.565c0-6.188-2.438-12.188-6.891-16.594-4.406-4.406-10.359-6.844-16.547-6.844h-412.5c-6.234,0-12.188,2.484-16.594,6.844-4.406,4.406-6.891,10.359-6.891,16.594v375c0,6.234,2.484,12.188,6.891,16.594s10.359,6.844,16.594,6.844h412.5c6.188,0,12.188-2.438,16.547-6.844,4.406-4.406,6.891-10.359,6.891-16.594ZM796.875,150.005h248.44c2.578,0,4.688-2.109,4.688-4.688v-37.5c0-2.578-2.109-4.688-4.688-4.688h-248.44v46.875ZM993.745,975.005V178.135h-196.87v248.44c0,13.688-5.438,26.812-15.094,36.469s-22.781,15.094-36.469,15.094h-412.5c-13.688,0-26.812-5.438-36.469-15.094-9.703-9.656-15.094-22.781-15.094-36.469v-248.44H84.379v796.87h196.87v-398.44c0-13.688,5.438-26.766,15.094-36.469,9.656-9.656,22.781-15.094,36.469-15.094h412.5c13.688,0,26.766,5.438,36.469,15.094,9.656,9.656,15.094,22.781,15.094,36.469v398.44h196.87ZM1026.557,1003.13H51.557c-12.938,0-23.438,10.5-23.438,23.438v23.438h1021.9v-23.438c0-12.938-10.5-23.438-23.438-23.438h-.024ZM553.117,975.005h215.63v-398.44c0-6.188-2.438-12.188-6.891-16.594-4.406-4.406-10.359-6.844-16.547-6.844h-192.19l-.002,421.878ZM524.992,553.135h-192.19c-6.234,0-12.188,2.484-16.594,6.844-4.406,4.406-6.891,10.359-6.891,16.594v398.44h215.63v-421.87l.045-.008ZM356.252,389.075V89.075c0-3.75,1.5-7.312,4.125-9.938,2.672-2.625,6.234-4.125,9.984-4.125,75.422.141,128.16,22.734,168.74,67.312,40.594-44.578,93.328-67.219,168.74-67.312,3.75,0,7.312,1.5,9.938,4.125s4.125,6.188,4.125,9.938v300c0,7.781-6.281,14.062-14.062,14.062h-337.5c-7.781,0-14.062-6.281-14.062-14.062h-.028ZM524.992,169.045c-33.938-41.062-78-62.719-140.63-65.578v196.82c59.906,2.438,104.81,20.203,140.63,52.922v-184.164ZM507.039,375.015c-31.219-28.781-70.5-44.156-122.68-46.547v46.547h122.68ZM693.749,328.468c-52.172,2.391-91.406,17.766-122.68,46.547h122.68v-46.547ZM553.119,353.218c35.812-32.719,80.766-50.484,140.63-52.922V103.476c-62.672,2.859-106.69,24.516-140.63,65.578v184.164ZM234.379,614.078v112.5c0,7.781-6.281,14.062-14.062,14.062h-75c-7.781,0-14.062-6.281-14.062-14.062v-112.5c0-7.781,6.281-14.062,14.062-14.062h75c7.734,0,14.062,6.281,14.062,14.062ZM206.254,628.14h-46.875v84.375h46.875v-84.375ZM145.316,815.64c-7.781,0-14.062-6.281-14.062-14.062s6.281-14.062,14.062-14.062h75c7.734,0,14.062,6.281,14.062,14.062s-6.281,14.062-14.062,14.062h-75ZM946.876,239.08v112.5c0,7.781-6.281,14.062-14.062,14.062h-75c-7.781,0-14.062-6.281-14.062-14.062v-112.5c0-7.781,6.281-14.062,14.062-14.062h75c7.781,0,14.062,6.281,14.062,14.062ZM918.751,253.142h-46.875v84.375h46.875v-84.375ZM946.876,614.082v112.5c0,7.781-6.281,14.062-14.062,14.062h-75c-7.781,0-14.062-6.281-14.062-14.062v-112.5c0-7.781,6.281-14.062,14.062-14.062h75c7.781,0,14.062,6.281,14.062,14.062ZM918.751,628.144h-46.875v84.375h46.875v-84.375ZM857.813,815.644c-7.781,0-14.062-6.281-14.062-14.062s6.281-14.062,14.062-14.062h75c7.781,0,14.062,6.281,14.062,14.062s-6.281,14.062-14.062,14.062h-75ZM234.373,426.584v112.5c0,7.781-6.281,14.062-14.062,14.062h-75c-7.781,0-14.062-6.281-14.062-14.062v-112.5c0-7.781,6.281-14.062,14.062-14.062h75c7.734,0,14.062,6.281,14.062,14.062ZM206.248,440.646h-46.875v84.375h46.875v-84.375ZM234.373,239.086v112.5c0,7.781-6.281,14.062-14.062,14.062h-75c-7.781,0-14.062-6.281-14.062-14.062v-112.5c0-7.781,6.281-14.062,14.062-14.062h75c7.734,0,14.062,6.281,14.062,14.062ZM206.248,253.148h-46.875v84.375h46.875v-84.375ZM946.878,426.588v112.5c0,7.781-6.281,14.062-14.062,14.062h-75c-7.781,0-14.062-6.281-14.062-14.062v-112.5c0-7.781,6.281-14.062,14.062-14.062h75c7.781,0,14.062,6.281,14.062,14.062ZM918.753,440.65h-46.875v84.375h46.875v-84.375Z"/>
</svg>