<?xml version="1.0" encoding="UTF-8"?>
<svg id="Layer_1" data-name="Layer 1" xmlns="http://www.w3.org/2000/svg" viewBox="0 0 1075.507 505.331">
  <path d="M1075.507,291.136h-59.023c11.449-7.555,19.004-20.512,18.926-35.25-.082-14.867-7.93-27.812-19.621-35.211-4.391-9.43-11.551-17.695-21.141-23.453L730.268,38.512c-22.883-13.723-52.359-8.707-69.383,11.859l-51.781,62.52,5.551,8.625c.496.77.773,1.606,1.219,2.394,12,21.277,5.629,48.504-15.16,61.883-10.449,6.715-22.867,8.953-35.027,6.34-3.664-.797-7.09-2.133-10.383-3.723-7.617-3.68-14.168-9.262-18.863-16.551l-30.859-47.949h-66.555l54.859-34.82,22.406,34.82,27.719,43.074c3.492,5.43,8.301,9.613,13.832,12.582,3.055,1.641,6.269,3.012,9.754,3.766,9.777,2.144,19.816.328,28.242-5.109,17.391-11.191,22.434-34.441,11.242-51.832l-1.598-2.481-2.41-3.742-66.289-103c-7.141-11.098-19.262-17.168-31.617-17.168-6.871,0-13.809,1.875-20.016,5.801l-189.46,120.26c-19.926,5.848-34.566,24.055-34.566,45.871v75.156c0,.664.168,1.285.195,1.941.098,2.387.277,4.754.711,7.039.117.617.277,1.227.426,1.836.461,1.996,1.102,3.922,1.805,5.816.664,1.672,1.32,3.352,2.203,4.938.09.176.191.344.281.516,5.074,9.715,13.211,17.559,23.32,21.945l.016.012h-100.37c35.23-15.008,59.414-45.539,59.414-80.859,0-50.137-48.617-90.777-108.59-90.777S31.945,160.135,31.945,210.271c0,35.32,24.18,65.852,59.414,80.859l-91.359.004v58.195h365.99l192.2,147.33c7.621,5.848,16.605,8.672,25.523,8.672,12.613,0,25.098-5.66,33.363-16.453,14.109-18.41,10.629-44.766-7.781-58.875l-105.24-80.672h571.45l.002-58.195ZM714.467,154.996l100.09,60.082-150.53.82,50.44-60.902ZM12.007,337.326v-34.195h293.72l44.609,34.195H12.007ZM1063.507,337.326H488.397l-44.609-34.195h619.71l.009,34.195Z"/>
</svg>