<?xml version="1.0" encoding="UTF-8"?>
<svg id="Layer_1" data-name="Layer 1" xmlns="http://www.w3.org/2000/svg" viewBox="0 0 999.826 1188.025">
  <path d="M682.314,741.682c79.242-58.051,126.54-151.25,126.54-249.31,3.488-166.04-142.94-312.42-308.92-308.96-164.57-.25-304.06,135.14-308.86,299.54-3,101.24,43.828,197.65,125.28,257.89,24.645,18.234,39.355,46.914,39.355,76.73v69.75c-45.203,10.594-57.395,75.262-20.938,102.96-43.059,34.551-17.559,108.6,39.488,105.2,6.281,52.047,50.641,92.543,104.36,92.543h42.566c53.719,0,98.082-40.496,104.36-92.547,57.07,3.406,82.531-70.668,39.488-105.2,36.465-27.711,24.25-92.375-20.938-102.96v-68.43c0-30.805,14.293-59.668,38.219-77.203v-.003ZM521.194,1162.722h-42.566c-39.75,0-72.82-29.184-78.895-67.246h200.36c-6.082,38.062-39.148,67.246-78.898,67.246h-.001ZM661.194,942.422c1.473,18.715-13.066,35.297-32.043,35.203h-26.039c-16.594.082-16.5,25.23,0,25.297h26.039c42.512.465,42.625,66.754,0,67.246h-258.49c-18.957.09-33.531-16.492-32.043-35.203,0-17.672,14.379-32.043,32.043-32.043h90.324c16.57-.078,16.52-25.23,0-25.297h-90.32c-42.504-.465-42.629-66.746,0-67.242h258.49c17.66,0,32.039,14.371,32.039,32.039h0ZM441.204,656.752h-40.258c-22.199,0-40.258-18.059-40.258-40.258,1.395-53.082,79.129-53.078,80.516,0v40.258ZM466.501,885.082v-203.04h66.805v203.04h-66.805ZM618.801,818.879v66.203h-60.195v-203.04h40.258c86.629-2.75,86.621-128.37,0-131.11-36.141,0-65.555,29.406-65.555,65.555v40.258h-66.805v-40.258c-2.75-86.629-128.37-86.621-131.11,0,0,36.148,29.41,65.555,65.555,65.555h40.258v203.04h-60.195v-67.527c0-37.801-18.543-74.078-49.609-97.066-217.23-161.82-104.94-505.06,164.43-511.76,153.59-5.742,291.12,129.79,287.73,283.63.004,90.031-43.43,175.6-116.19,228.91-30.406,22.281-48.566,58.77-48.566,97.609h-.006ZM558.606,656.749v-40.258c0-22.199,18.059-40.258,40.258-40.258,53.082,1.394,53.078,79.129,0,80.516h-40.258ZM243.636,755.944c4.941,4.941,4.941,12.945,0,17.887l-79.34,79.336c-4.941,4.941-12.945,4.941-17.887,0s-4.941-12.945,0-17.887l79.34-79.336c4.941-4.941,12.945-4.941,17.887,0ZM756.176,243.404c-4.941-4.941-4.941-12.945,0-17.887l79.34-79.336c4.941-4.941,12.945-4.941,17.887,0,4.941,4.941,4.941,12.945,0,17.887l-79.34,79.336c-4.941,4.941-12.945,4.941-17.887,0h0ZM137.496,499.674c0,6.984-5.656,12.648-12.648,12.648H12.648c-6.992,0-12.648-5.664-12.648-12.648s5.656-12.648,12.648-12.648h112.2c6.988-.004,12.648,5.66,12.648,12.648h0ZM999.826,499.674c0,6.984-5.656,12.648-12.648,12.648h-112.2c-6.992,0-12.648-5.664-12.648-12.648s5.656-12.648,12.648-12.648h112.2c6.988-.004,12.648,5.66,12.648,12.648h0ZM146.416,164.064c-11.672-11.766,6.176-29.512,17.887-17.887l79.34,79.336c8.078,7.523,1.863,21.961-8.941,21.594-3.238,0-6.473-1.234-8.941-3.707-.004,0-79.344-79.336-79.344-79.336h0ZM853.406,835.274c11.664,11.758-6.168,29.516-17.887,17.887l-79.34-79.336c-11.672-11.766,6.176-29.512,17.887-17.887l79.34,79.336ZM487.266,124.604V12.404c.066-16.57,25.238-16.508,25.297,0v112.2c-.066,16.57-25.234,16.508-25.297,0Z"/>
</svg>