<?xml version="1.0" encoding="UTF-8"?>
<svg id="Layer_1" data-name="Layer 1" xmlns="http://www.w3.org/2000/svg" viewBox="0 0 1079.995 553.366">
  <path d="M1062.3,404.433c-39.504-54.574-93.898-109.55-146.73-160.73-50.027-50.305-111.68-60.863-154.6-60.863h-74.258v-25.367c0-3.973-3.215-7.188-7.188-7.188l-59.004-.004-69.707-67.922,71.797-69.949c2.844-2.773,2.902-7.332.133-10.176-2.773-2.855-7.332-2.902-10.164-.133l-77.062,75.086-.086.086c-.59.59-1.066,1.262-1.402,1.98v.012c0,.012-.012.012-.012.023-.457.961-.684,1.992-.684,3.023v.035c0,1.031.227,2.062.684,3.023.012.059.012.012.012.023v.012c.336.719.816,1.379,1.402,1.98l.086.086,64.402,62.746h-44.27c-3.973,0-7.188,3.215-7.188,7.188v25.367l-193.03.004v-25.367c0-3.973-3.215-7.188-7.188-7.188h-59.027l-69.707-67.922L291.307,12.352c2.844-2.773,2.902-7.332.133-10.176-2.785-2.855-7.332-2.902-10.164-.133l-77.062,75.086-.086.086c-.59.59-1.066,1.262-1.402,1.98v.012c0,.012-.012.012-.012.023-.457.961-.684,1.992-.684,3.023v.035c0,1.031.227,2.062.684,3.023.012.059.012.012.012.023v.012c.336.719.816,1.379,1.402,1.98l.086.086,64.402,62.746h-44.281c-3.973,0-7.188,3.215-7.188,7.188v25.367l-209.96.004c-3.973.121-7.188,3.336-7.188,7.309v334.87c0,3.973,3.215,7.199,7.188,7.199h59.398c3.973,0,7.188-3.227,7.188-7.199v-20.508c0-11.328,9.227-20.555,20.555-20.555h14.988c-8.797,7.211-14.543,18.012-14.543,30.254,0,21.66,17.617,39.277,39.277,39.277s39.266-17.629,39.266-39.277c0-12.254-5.734-23.051-14.531-30.254h115.09c-8.797,7.211-14.531,18.012-14.531,30.254,0,21.66,17.617,39.277,39.266,39.277s39.277-17.629,39.277-39.277c0-12.254-5.734-23.051-14.543-30.254h14.988c11.34,0,20.566,9.227,20.566,20.555v20.508c0,3.973,3.215,7.199,7.188,7.199h195.1c3.961,0,7.188-3.227,7.188-7.199v-20.508c0-11.328,9.227-20.555,20.555-20.555h14.988c-8.797,7.211-14.543,18.012-14.543,30.254,0,21.66,17.617,39.277,39.277,39.277s39.277-17.629,39.277-39.277c0-12.254-5.746-23.051-14.543-30.254h115.09c-8.797,7.211-14.531,18.012-14.531,30.254,0,21.66,17.617,39.277,39.266,39.277s39.277-17.629,39.277-39.277c0-12.254-5.746-23.051-14.543-30.254h14.988c11.328,0,20.566,9.227,20.566,20.555v20.508c0,3.973,3.215,7.199,7.188,7.199h146.47l1.754.012c27.973-.012,50.797-13.309,62.652-36.492,14.027-27.516,10.305-64.148-9.266-91.188l.005.005ZM562.82,164.663h109.54v18.18h-109.54v-18.18ZM231.5,164.663h109.55v18.18h-109.55v-18.18ZM134.047,538.983c-13.738,0-24.91-11.16-24.91-24.887s11.172-24.91,24.91-24.91,24.898,11.184,24.898,24.91c.004,13.727-11.168,24.887-24.898,24.887ZM298.617,538.983c-13.727,0-24.898-11.16-24.898-24.887s11.172-24.91,24.898-24.91,24.91,11.184,24.91,24.91-11.172,24.887-24.91,24.887ZM628.657,538.983c-13.738,0-24.898-11.16-24.898-24.887s11.172-24.91,24.898-24.91,24.898,11.184,24.898,24.91-11.172,24.887-24.898,24.887ZM793.227,538.983c-13.738,0-24.898-11.16-24.898-24.887s11.172-24.91,24.898-24.91,24.91,11.184,24.91,24.91c.004,13.727-11.18,24.887-24.91,24.887ZM553.997,504.397v13.32h-180.72v-13.32c0-19.262-15.672-34.934-34.934-34.934H94.323c-19.262,0-34.934,15.672-34.934,34.934v13.32H14.366v-107.7l455.28-.012c54.168,1.309,66.695,14.027,108.21,56.172,1.262,1.285,2.641,2.676,3.961,4.008-15.863,3.289-27.828,17.375-27.828,34.211h.008ZM1058.747,489.073c-9.434,18.469-27.145,28.656-49.836,28.656l-141.02-.012v-13.32c0-19.262-15.672-34.934-34.934-34.934h-231.62c-4.703-4.727-9.133-9.215-13.234-13.367-42.301-42.938-58.141-59.004-118.29-60.445l-455.45.004v-198.43h746.62c40.188,0,97.859,9.816,144.49,56.711,46.848,45.395,94.766,93.672,132.18,141.71l-267.66.004c-3.973,0-7.188,3.227-7.188,7.188s3.215,7.199,7.188,7.199h278.53c.695.938,1.465,1.883,2.148,2.832,16.477,22.773,19.715,53.398,8.074,76.211v-.007Z"/>
  <path d="M877.19,358.503c2.137,1.883,4.379,3.863,6.793,5.93,1.297,1.129,2.965,1.754,4.691,1.754h83.496c2.902,0,5.531-1.754,6.648-4.441s.492-5.773-1.559-7.824c-8.438-8.438-16.055-16.188-23.051-23.27-61.777-62.746-76.465-77.652-165.41-79.789h-45.516c-3.961,0-7.188,3.215-7.188,7.188v70.066c0,3.973,3.227,7.199,7.188,7.199h75.672c31.844-.008,40.121,7.25,58.23,23.188h.005ZM750.46,265.226h38.16c82.957,2.004,94.008,13.211,155.34,75.492,3.481,3.539,7.129,7.234,10.934,11.09h-63.531l-4.691-4.094c-18.984-16.715-30.445-26.785-67.738-26.785h-68.484v-55.703h.01Z"/>
  <path d="M244.4,523.263h-56.137c-3.973,0-7.188,3.227-7.188,7.188s3.215,7.188,7.188,7.188h56.137c3.973,0,7.188-3.215,7.188-7.188-.012-3.969-3.227-7.188-7.188-7.188Z"/>
  <path d="M553.2,259.983h-120.86c-9.961,0-18.047,8.102-18.047,18.059v60.949c0,9.949,8.09,18.059,18.047,18.059h120.86c9.949,0,18.047-8.113,18.047-18.059v-60.949c0-9.961-8.098-18.059-18.047-18.059ZM556.872,338.991c0,1.992-1.691,3.684-3.684,3.684h-120.85c-1.992,0-3.684-1.691-3.684-3.684v-60.949c0-2.004,1.691-3.684,3.684-3.684h120.86c1.992,0,3.684,1.68,3.684,3.684v60.949h-.01Z"/>
  <path d="M375.05,259.983h-120.85c-9.961,0-18.047,8.102-18.047,18.059v60.949c0,9.949,8.09,18.059,18.047,18.059h120.85c9.961,0,18.047-8.113,18.047-18.059l.004-60.949c0-9.961-8.09-18.059-18.051-18.059h0ZM378.733,338.991c0,1.992-1.691,3.684-3.684,3.684h-120.85c-1.992,0-3.684-1.691-3.684-3.684v-60.949c0-2.004,1.691-3.684,3.684-3.684h120.85c1.992,0,3.684,1.68,3.684,3.684v60.949Z"/>
  <path d="M196.91,259.983h-120.85c-9.961,0-18.047,8.102-18.047,18.059v60.949c0,9.949,8.09,18.059,18.047,18.059h120.85c9.961,0,18.047-8.113,18.047-18.059l.004-60.949c.012-9.961-8.09-18.059-18.051-18.059h0ZM200.597,338.991c0,1.992-1.691,3.684-3.684,3.684h-120.86c-1.992,0-3.684-1.691-3.684-3.684v-60.949c0-2.004,1.691-3.684,3.684-3.684h120.85c1.992,0,3.684,1.68,3.684,3.684l.01,60.949Z"/>
  <path d="M739.01,523.263h-56.148c-3.973,0-7.188,3.227-7.188,7.188s3.215,7.188,7.188,7.188h56.148c3.973,0,7.188-3.215,7.188-7.188s-3.215-7.188-7.188-7.188Z"/>
  <path d="M617.3,260.643c-3.973,0-7.188,3.227-7.188,7.188v182.91c0,3.973,3.215,7.199,7.188,7.199s7.188-3.227,7.188-7.199v-182.91c0-3.961-3.215-7.188-7.188-7.188h0Z"/>
  <path d="M703.59,260.643c-3.973,0-7.188,3.227-7.188,7.188v182.91c0,3.973,3.215,7.199,7.188,7.199s7.188-3.227,7.188-7.199v-182.91c-.012-3.961-3.219-7.188-7.188-7.188h0Z"/>
</svg>