<?xml version="1.0" encoding="UTF-8"?>
<svg width="1200pt" height="1200pt" version="1.1" viewBox="0 0 1200 1200" xmlns="http://www.w3.org/2000/svg">
 <path d="m1199 582.72c-1.8359 7.6641-4.2852 15.168-7.3203 22.441-6.7188 13.199-14.762 25.801-21.719 38.879-2.375 3.5195-3.3203 7.8125-2.6406 12 17.762 44.52 7.6797 84-19.68 121.32-3.9141 3.8125-5.0156 9.668-2.7578 14.641 16.68 40.68 7.4414 78.121-15.602 113.28-6.082 7.207-8.1953 16.961-5.6406 26.039 11.039 45.48 4.3203 88.68-30 124.68-16.129 16.703-37.133 27.879-60 31.922-20.281 4.0273-40.883 6.2344-61.559 6.5977h-456c-27.555-0.58984-54.316-9.3125-76.922-25.078-6.4336-5.0781-14.727-7.1719-22.801-5.7617 0 7.5586-0.83984 14.762-1.8008 21.961h0.003906c-1.1211 11.207-6.1484 21.66-14.199 29.535-8.0508 7.8789-18.613 12.672-29.844 13.543-3.4766 0.19141-6.9609 0.19141-10.438 0h-303.48c-14.148 1.1641-28.145-3.5781-38.672-13.105-10.523-9.5234-16.637-22.98-16.891-37.172v-474.6c-0.97656-15.238 4.5977-30.168 15.328-41.031 10.727-10.867 25.586-16.633 40.832-15.848h342.6c8.0898 1.0117 16.105 2.5352 24 4.5586 4.0352 1.0742 8.332 0.55859 12-1.4414 12.543-12.16 24.211-25.191 34.922-39 46.586-64.98 88.223-133.38 124.56-204.6 6.4141-11.711 9.5234-24.941 9-38.281-1.5586-39.48-1.5586-79.078-3-118.56-0.87109-12.641 1.9414-25.262 8.0938-36.34 6.1562-11.074 15.391-20.125 26.586-26.062 21.406-12.289 45.914-18.102 70.559-16.738 24.645 1.3633 48.363 9.8438 68.281 24.422 9.6367 8.7227 16.973 19.684 21.359 31.918 14.762 36 28.801 72.84 41.281 109.92 12.73 40.332 14.469 83.328 5.0391 124.56-6.2383 31.559-10.801 63.48-16.199 95.16-1.8008 10.801-1.4414 12 9.6016 12h259.32c20.949-1.0039 41.754 3.9453 60 14.281 20.406 12.945 34.793 33.512 39.961 57.117 0.96094 3.7188 2.1602 7.3203 3.2383 10.922v32.52zm-434.52-64.801c9.3594-55.559 18.84-109.92 27.48-164.28 4.1797-19.227 5.9922-38.895 5.3984-58.562-4.8008-52.441-25.922-100.2-46.801-147.84h0.003906c-4.0039-12.199-14.199-21.344-26.762-24-19.938-6.0039-41.418-4.1133-60 5.2812-4.2227 1.7695-7.7695 4.8438-10.125 8.7734-2.3516 3.9297-3.3867 8.5078-2.9531 13.066 1.6016 43.68 2.3984 87.359 2.3984 131.04 0.082032 10.426-1.6641 20.781-5.1602 30.602-4.6758 12.531-10.543 24.586-17.52 36-36 58.922-72 118.08-108.96 176.28-16.035 28.367-38.016 52.93-64.441 72-17.039 11.039-34.199 22.32-50.762 33.961l0.003906-0.003907c-3.6289 2.6133-6.0195 6.6094-6.6016 11.043v355.92c0 7.0781 3 7.8008 9.1211 8.5195v-0.003906c11.57 1.2109 22.988 3.582 34.082 7.082 7.6133 3.3281 14.754 7.6445 21.238 12.84 18.027 12.262 39.398 18.676 61.199 18.359h451.68c8.9453 0.066406 17.883-0.45703 26.762-1.5586 22.203-2.2852 42.375-13.941 55.438-32.043 16.078-22.078 18.121-48.602 3.1211-67.441v0.003907c-8.3711-8.0781-17.676-15.129-27.719-21 1.7734-3.3984 4.4258-6.2539 7.6797-8.2812 13.23-3.2812 25.363-9.9883 35.18-19.445 9.8164-9.4609 16.969-21.336 20.738-34.434 3.7617-9.7188 4.3008-20.391 1.5352-30.438-2.7656-10.047-8.6875-18.938-16.895-25.363-8.5664-5.6055-17.551-10.539-26.879-14.762 2.7656-4.1758 6.4102-7.6953 10.68-10.316 18.879-4.4414 35.254-16.121 45.602-32.523 23.16-35.16 14.52-72-24-85.68-2.9531-1.1055-5.2461-3.4883-6.2422-6.4805-0.30078-2.375 0.36719-4.7734 1.8594-6.6484 1.4922-1.875 3.6758-3.0703 6.0625-3.3086 15.031-3.5039 28.609-11.582 38.859-23.125 10.254-11.539 16.672-25.977 18.379-41.316 2.7578-10.824 1.6523-22.27-3.1211-32.367-4.7734-10.102-12.922-18.215-23.039-22.953-10.609-4.2266-21.938-6.3477-33.359-6.2383h-311.04-12zm-409.56 79.922c-3.8398 0-6.7188-0.60156-9.4805-0.60156h-284.16c-2.9062-0.82422-6.0273 0-8.1523 2.1445-2.1211 2.1484-2.9062 5.2812-2.0469 8.1758v461.16c-0.89453 3.1602-0.015625 6.5586 2.293 8.8906 2.3086 2.3359 5.6953 3.25 8.8672 2.3906h280.32c12 0 12 0 12-12.602v-458.28-10.801z"/>
</svg>
