<?xml version="1.0" encoding="UTF-8"?>
<svg width="1200pt" height="1200pt" version="1.1" viewBox="0 0 1200 1200" xmlns="http://www.w3.org/2000/svg">
 <path d="m839.53 720.24-158.76-37.266c0.375-3.7969 0.60938-7.6875 0.60938-11.625v-40.078c0-1.0312-0.42188-1.9688-0.60938-2.9531 19.312-15.281 35.344-34.453 46.969-56.391 11.016 11.531 26.484 18.797 43.641 18.797 33.375 0 60.562-27.188 60.562-60.562v-19.828c0-11.906 6.4688-22.828 16.922-28.547 19.078-10.5 32.438-29.625 35.625-51.188l1.5-10.219c3.75-25.359-3.7031-51-20.438-70.406s-41.062-30.562-66.703-30.562c-2.25 0-4.3125 0.51562-6.5156 0.65625-8.2969-117.23-106.08-210.14-225.37-210.14-124.74 0-226.22 101.48-226.22 226.22v63.797c-20.344 12.797-34.031 35.344-34.031 61.125 0 39.891 32.438 72.328 72.328 72.328h19.641c9.375 36.375 29.812 68.25 57.703 91.734-0.1875 1.0781-0.65625 2.0625-0.65625 3.1875v43.031c0 3.8906 0.1875 7.7812 0.60938 11.578l-158.86 37.266c-70.078 16.453-118.97 78.188-118.97 150.19v200.9c0 10.359 8.3906 18.75 18.75 18.75 10.359 0 18.75-8.3906 18.75-18.75v-200.9c0-54.469 37.031-101.2 90.047-113.67l160.45-37.641c18 38.391 56.953 65.062 102.05 65.062 45.141 0 84.047-26.672 102.05-65.062l160.36 37.641c53.016 12.469 90.047 59.156 90.047 113.67v200.9c0 10.359 8.3906 18.75 18.75 18.75s18.75-8.3906 18.75-18.75v-200.9c0-71.953-48.938-133.69-118.97-150.14zm-2.3906-345.79c9.6094 11.156 13.875 25.875 11.719 40.453l-1.5 10.219c-1.5 10.031-7.6875 18.938-16.594 23.812-22.453 12.328-36.375 35.859-36.375 61.453v19.828c0 12.703-10.359 23.062-23.062 23.062s-23.062-10.359-23.062-23.062v-122.72c0-27.891 22.688-50.578 50.578-50.578 14.766 0 28.688 6.375 38.297 17.531zm-458.9-38.297c0-104.06 84.656-188.72 188.72-188.72 102.42 0 185.9 82.078 188.48 183.89-11.438 6.5625-21.422 15.375-28.922 26.156-14.25-2.9062-56.578-15.797-84.562-68.109-3.2344-6.0938-9.5625-9.8906-16.5-9.8906h-0.046876c-6.8906 0-13.219 3.75-16.5 9.8438-35.531 65.672-164.63 69-190.13 69-4.0312 0-6.3281-0.09375-6.5156-0.09375-4.9688-0.28125-10.031 1.7344-13.688 5.25s-5.7188 8.3906-5.7188 13.5v11.719h-13.875c-0.28125 0-0.51562 0.09375-0.79688 0.09375zm14.625 159.74h-13.875c-19.219 0-34.828-15.609-34.828-34.828s15.609-34.828 34.828-34.828h13.875zm37.5-6.7031v-93.516c44.812-1.1719 143.16-10.219 193.92-64.219 29.391 39.516 65.625 54.891 86.531 60.75v96.938c0 77.297-62.906 140.21-140.21 140.21-77.344 0.046875-140.26-62.859-140.26-140.16zm138.19 257.48c-41.531 0-75.281-33.797-75.281-75.328v-22.453c23.438 11.391 49.594 17.953 77.344 17.953 26.109 0 50.859-5.8125 73.266-15.984v20.484c-0.046874 41.531-33.797 75.328-75.328 75.328z"/>
 <path d="m761.53 462.05c0.98438 9.6562 9.1406 16.875 18.656 16.875 0.60938 0 1.2656-0.046875 1.875-0.09375 10.312-1.0312 17.812-10.219 16.781-20.531-3.7031-37.125 8.625-45.094 9.9844-45.891 9.3281-3.1875 14.672-13.078 12.047-22.688-2.7656-9.9844-13.078-15.891-23.062-13.125-4.4531 1.2656-43.406 14.062-36.281 85.453z"/>
 <path d="m909.05 480.71c3.2344 2.2031 6.8906 3.2812 10.547 3.2812 6 0 11.859-2.8594 15.516-8.2031 13.688-20.062 20.906-43.688 20.906-68.297 0-24.656-7.2188-48.281-20.906-68.297-5.8594-8.5312-17.484-10.734-26.062-4.9219-8.5312 5.8594-10.734 17.484-4.9219 26.062 9.4219 13.781 14.391 30.094 14.391 47.203 0 17.062-4.9688 33.375-14.391 47.203-5.8125 8.4844-3.6094 20.109 4.9219 25.969z"/>
 <path d="m986.95 301.5c-6.0938-8.3438-17.812-10.219-26.203-4.0312-8.3438 6.0938-10.172 17.859-4.0312 26.203 17.859 24.375 27.328 53.391 27.328 83.812s-9.4688 59.391-27.328 83.812c-6.1406 8.3438-4.3125 20.109 4.0312 26.203 3.3281 2.4375 7.2188 3.6094 11.062 3.6094 5.7656 0 11.484-2.6719 15.141-7.6875 22.594-30.891 34.547-67.5 34.547-105.94 0-38.484-11.906-75.094-34.547-105.98z"/>
 <path d="m367.22 895.82c-10.359 0-18.75 8.3906-18.75 18.75v156.74c0 10.359 8.3906 18.75 18.75 18.75s18.75-8.3906 18.75-18.75v-156.74c0-10.406-8.3906-18.75-18.75-18.75z"/>
 <path d="m769.87 895.82c-10.359 0-18.75 8.3906-18.75 18.75v156.74c0 10.359 8.3906 18.75 18.75 18.75s18.75-8.3906 18.75-18.75v-156.74c0-10.406-8.3906-18.75-18.75-18.75z"/>
</svg>
