<?xml version="1.0" encoding="UTF-8"?>
<svg id="Layer_1" data-name="Layer 1" xmlns="http://www.w3.org/2000/svg" viewBox="0 0 1124.636 1049.99">
  <path d="M1087.502,693.74h-18.75v-112.5c0-41.438-33.562-75-75-75h-262.5c-22.5,0-42.562,10.125-56.25,25.875-13.688-15.75-33.75-25.875-56.25-25.875h-262.5c-41.438,0-75,33.562-75,75v112.5h-18.75c-20.625,0-37.5,16.875-37.5,37.5v56.25h-37.5v-37.5c0-20.625-16.875-37.5-37.5-37.5v-75h75c5.812,0,11.25-2.625,14.812-7.125s4.875-10.5,3.375-16.125l-37.5-150c-2.062-8.25-9.562-14.25-18.188-14.25h-112.5c-8.625,0-16.125,5.812-18.188,14.25l-37.5,150c-1.312,5.625,0,11.625,3.375,16.125,3.562,4.5,9,7.125,14.812,7.125h75v75c-20.625,0-37.5,16.875-37.5,37.5v37.5h-37.5c-20.625,0-37.5,16.875-37.5,37.5v187.5c0,20.625,16.875,37.5,37.5,37.5h187.5c20.625,0,37.5-16.875,37.5-37.5v-37.5h37.5v56.25c0,10.312,8.438,18.75,18.75,18.75h37.5c7.125,0,13.688-3.938,16.688-10.312l32.25-64.688h539.26l32.25,64.688c3.188,6.375,9.75,10.312,16.688,10.312h37.5c10.312,0,18.75-8.438,18.75-18.75v-56.25h18.75c30.938,0,56.25-25.312,56.25-56.25v-187.5c0-20.625-16.875-37.5-37.5-37.5h.366ZM89.632,487.48h83.25l28.125,112.5H61.507l28.125-112.5ZM731.262,543.73h262.5c20.625,0,37.5,16.875,37.5,37.5v112.5c-20.625,0-37.5,16.875-37.5,37.5v29.25c-11.062-6.375-23.812-10.5-37.5-10.5h-225c-13.688,0-26.438,3.938-37.5,10.5v-179.26c0-20.625,16.875-37.5,37.5-37.5v.01ZM375.002,843.73c-10.312,0-18.75-8.438-18.75-18.75,0-20.625,16.875-37.5,37.5-37.5h225c20.625,0,37.5,16.875,37.5,37.5v18.75h-281.25ZM693.742,824.98c0-20.625,16.875-37.5,37.5-37.5h225c20.625,0,37.5,16.875,37.5,37.5,0,10.312-8.438,18.75-18.75,18.75h-281.26l.01-18.75ZM318.742,581.24c0-20.625,16.875-37.5,37.5-37.5h262.5c20.625,0,37.5,16.875,37.5,37.5v179.26c-11.062-6.375-23.812-10.5-37.5-10.5h-225c-13.688,0-26.438,3.938-37.5,10.5v-29.25c0-20.625-16.875-37.5-37.5-37.5v-112.51ZM112.482,749.98h37.5v37.5h-37.5v-37.5ZM37.482,1012.48v-187.5h187.5v187.31H37.482v.19ZM344.612,1012.48h-7.125v-37.5h25.875l-18.75,37.5ZM1012.482,1012.48h-7.125l-18.75-37.5h25.875v37.5ZM1087.482,918.73c0,10.312-8.438,18.75-18.75,18.75H262.472v-206.26h56.25v93.75c0,30.938,25.312,56.25,56.25,56.25h600c30.938,0,56.25-25.312,56.25-56.25v-93.75h56.25v187.5l.01.01Z"/>
  <path d="M356.242,375h562.5c30.938,0,56.25-25.312,56.25-56.25V56.25c0-30.938-25.312-56.25-56.25-56.25H356.242c-30.938,0-56.25,25.312-56.25,56.25v262.5c0,30.938,25.312,56.25,56.25,56.25ZM918.742,337.5H356.242c-10.312,0-18.75-8.438-18.75-18.75v-105.56c10.875-11.25,51.75-44.438,150-44.438,63,0,101.81,22.875,142.69,47.062,39,23.062,79.312,46.688,138.56,46.688,62.812,0,88.5-11.438,111.38-21.75,15.75-7.125,30-13.125,57.375-15.188v93c0,10.312-8.438,18.75-18.75,18.75l-.005.186ZM356.242,37.5h562.5c10.312,0,18.75,8.438,18.75,18.75v131.81c-36,2.25-54.562,10.5-72.75,18.562-21.188,9.375-41.25,18.375-96,18.375-48.938,0-81.562-19.312-119.44-41.625-41.438-24.375-88.5-52.125-161.81-52.125s-122.26,18-150,35.062V56.249c0-10.312,8.438-18.75,18.75-18.75h0Z"/>
</svg>