<?xml version="1.0" encoding="UTF-8"?>
<svg id="Layer_1" data-name="Layer 1" xmlns="http://www.w3.org/2000/svg" viewBox="0 0 900 515.264">
  <defs>
    <style>
      .cls-1 {
        fill: #fff;
        stroke: #000;
        stroke-linecap: round;
        stroke-linejoin: round;
        stroke-width: 14px;
      }

      .cls-2, .cls-3 {
        fill-rule: evenodd;
      }

      .cls-3 {
        fill: #f40000;
      }
    </style>
  </defs>
  <path class="cls-2" d="M900,160.624c0-6.625-4.219-12-9.426-12H9.426c-5.204,0-9.426,5.371-9.426,12v127.98c0,6.625,4.219,12,9.426,12h881.149c5.204,0,9.426-5.371,9.426-12v-127.98ZM881.152,172.624v103.98H18.855v-103.98h862.297Z"/>
  <rect class="cls-1" x="7.023" y="35.764" width="146.977" height="85"/>
  <path class="cls-3" d="M809.002,94.946l25.335-25.335c1.312-1.312,3.44-1.312,4.752,0l12.504,12.504c1.312,1.312,1.312,3.44,0,4.752l-52.413,52.413c-1.312,1.312-3.44,1.312-4.752,0l-52.413-52.413c-1.312-1.312-1.312-3.44,0-4.752l12.504-12.504c1.312-1.312,3.44-1.312,4.752,0l25.335,25.335V3.36c0-1.86,1.506-3.36,3.36-3.36h17.678c1.854,0,3.36,1.5,3.36,3.36v91.586Z"/>
  <path d="M0,323.264v192h900v-192H0ZM876,491.264H24v-144h46.781v79.219h18v-79.219h22.781v40.781h18l.047-40.781h22.781v40.781h18v-40.781h22.781v40.781h18l.047-40.781h22.781v79.219h18v-79.219h22.781v40.781h19.219v-40.781h22.781v40.781h18v-40.781h22.781v40.781h18l.047-40.781h22.781v79.219h18v-79.219h22.781v40.781h18l.047-40.781h22.781v40.781h18v-40.781h24v40.781h18v-40.781h22.781v79.219h18v-79.219h22.781v40.781h18l.047-40.781h22.781v40.781h18v-40.781h22.781v40.781h18l.047-40.781h22.781v79.219h18v-79.219h130.78v144h1.224Z"/>
</svg>