<?xml version="1.0" encoding="UTF-8"?>
<svg width="1200pt" height="1200pt" version="1.1" viewBox="0 0 1200 1200" xmlns="http://www.w3.org/2000/svg">
 <path d="m29.363 641.2c30.656 54.992 84.977 100.39 161.49 134.91 27 12.168 54.824 22.367 82.352 31.895-48.918 19.145-99.32 36.676-151.12 52.293-19.332 5.832-34.648 19.914-42 38.586-25.426 63.883-30.637 135.3-14.699 200.98 5.6797 24.133 15.281 44.492 28.594 60.602 24.957 29.867 54.789 39.562 83.398 39.543 39.188 0 76.086-18.168 94.949-27.449 85.836-42.508 165.86-97.633 243.24-150.96 27.113-18.695 54.562-37.5 82.352-55.93 27.582 18.281 54.938 37.031 82.273 55.855 77.418 53.324 157.46 108.49 243.41 151.03 18.824 9.2812 55.688 27.43 94.875 27.43 28.633 0 58.5-9.6953 83.492-39.617 13.273-16.051 22.895-36.414 28.52-60.395 15.977-65.832 10.762-137.25-14.645-201.05-7.3867-18.73-22.707-32.812-42.02-38.645-52.258-15.77-102.92-33.301-151.18-52.293 27.562-9.543 55.426-19.742 82.406-31.914 76.5-34.52 130.84-79.914 161.51-134.96 25.836-46.727 29.531-100.76 10.48-140.18 0.48828-9.375-0.52344-19.031-3.918-29.008-9.0547-26.551-30.148-42.488-46.555-51.336-0.50781-3.8438-0.99219-6.3945-1.0859-6.8242-1.0117-4.293-2.25-8.7734-3.5234-13.031-3.9375-12.75-14.586-22.164-27.789-24.562-0.24219-0.039062-0.46875 0-0.71094-0.039062 13.574-121.01-11.062-217.18-74.27-285.41-56.531-60.973-127.82-92.98-200.48-90.523-81.824 2.8867-138.34 46.895-164.91 73.031-22.48 22.648-40.48 50.176-53.438 81.262-12.637-29.773-31.18-57.133-55.293-81.414-26.402-25.984-82.914-69.992-164.72-72.879-72.789-2.5508-144 29.551-200.44 90.562-63.469 68.531-88.07 164.62-74.156 285.28-1.332 0.09375-2.6445-0.074219-3.9922 0.1875-13.219 2.3828-23.867 11.793-27.883 24.711-1.2188 4.0859-2.457 8.5859-3.6367 13.633 0 0-0.42969 2.3633-0.91797 6.0742-16.406 8.8672-37.48 24.789-46.539 51.32-3.3945 9.957-4.4062 19.613-3.9375 28.949-19.051 39.414-15.355 93.469 10.5 140.29zm1051.6 271.55c22.574 56.699 27.227 120.05 13.031 178.52-4.332 18.43-11.383 33.656-20.887 45.148-28.199 33.789-67.969 34.52-132.9 2.5312-83.492-41.344-162.41-95.719-238.74-148.29-22.688-15.617-45.977-31.539-69.355-47.211 58.445-37.273 118.86-71.57 182.64-97.105 17.664-7.1055 35.832-13.555 54-19.836 61.07 25.742 126.3 49.219 194.23 69.711 8.2695 2.4922 14.812 8.5117 17.98 16.555zm37.012-361.26c-20.961 35.812-53.062 66.898-92.852 89.926-8.9609 5.1953-12.02 16.668-6.8438 25.633 3.4883 6 9.7695 9.3555 16.258 9.3555 3.1875 0 6.4141-0.80469 9.375-2.5117 45.375-26.27 82.18-62.043 106.43-103.45l0.54297-0.9375c-2.2109 19.164-8.6641 38.117-17.137 53.418-26.645 47.812-75.148 87.844-144.15 118.97-34.199 15.43-70.707 27.824-106.03 39.805-27.262 9.2617-55.445 18.805-82.781 29.812-110.91 44.398-210.34 112.91-306.51 179.2-76.293 52.574-155.18 106.93-238.57 148.22-64.988 32.008-104.76 31.238-132.9-2.4375-9.543-11.551-16.594-26.758-20.98-45.336-14.137-58.332-9.4883-121.69 13.105-178.46 3.1484-7.9883 9.6953-14.008 17.961-16.48 131.57-39.711 254.79-90.863 366.23-152.06 73.633-40.387 149.76-82.145 213.41-140.4 65.852-60 109.46-132.98 123.64-206.55 0.33594-0.22656 1.2188-0.76953 2.1562-0.54297 5.793 1.3516 11.605 2.8867 16.48 4.5195 9.6953 3.375 17.023 8.7188 20.699 15.148 3.4688 5.9609 4.4609 14.531 5.2305 23.512 3.0742 35.625 1.1992 71.137-5.5312 105.58-1.3516 6.9375 1.293 14.043 6.8633 18.375 5.5508 4.332 13.105 5.2109 19.48 2.2109 70.574-32.98 133.26-84.301 185.16-151.97 0.78906 2.7383 1.5391 5.4766 2.043 7.6484 0.09375 0.46875 0.95703 5.25 1.4062 12.469 0.44922 6.0938 0.73047 15.355-0.44922 24.898-3.6016 27.449-32.176 72.918-87.898 112.59-8.4375 6-10.406 17.699-4.3867 26.156 6 8.4375 17.699 10.426 26.156 4.3867 55.949-39.824 95.793-92.664 102.77-135.71 4.7812 4.8359 8.8867 10.668 11.27 17.645 6.7891 19.855-3.8633 40.48-19.613 67.426zm-1059.6-67.422c2.3828-6.957 6.4688-12.77 11.23-17.586 6.8984 42.918 46.781 95.812 102.77 135.68 8.457 6.0195 20.137 4.0117 26.156-4.3867 6-8.4375 4.0312-20.137-4.3867-26.156-55.727-39.676-84.32-85.145-87.898-112.45-1.1992-9.75-0.91797-18.992-0.44922-25.219 0.42969-6.8047 1.2383-11.492 1.2188-11.492 0.60156-2.5312 1.293-5.1562 2.0078-7.6875 52.895 67.594 115.26 118.46 185.36 151.24 6.375 3.0195 13.914 2.1562 19.48-2.2109 5.5703-4.3516 8.2109-11.457 6.8633-18.375-6.75-34.445-8.6055-69.957-5.5312-105.6 0.78906-8.9609 1.7617-17.512 5.2891-23.586 3.6172-6.3203 10.949-11.68 20.398-14.961 5.1172-1.707 10.93-3.2422 16.293-4.5 1.3125-0.30078 2.2305 0.24219 3.3945 1.5547 13.352 72.488 56.961 145.46 122.77 205.43 10.238 9.3945 21.301 18.789 32.867 27.918 3.4297 2.7188 7.5391 4.0312 11.605 4.0312 5.5312 0 11.023-2.4375 14.738-7.1445 6.4141-8.1367 5.0234-19.914-3.1133-26.324-10.855-8.5703-21.188-17.344-30.805-26.156-59.832-54.508-99.32-120.05-111.21-184.65-1.9883-10.445-7.9883-19.461-16.895-25.387-9.0195-6.0195-20.363-8.1953-31.48-5.8516-6.957 1.6328-13.895 3.4883-20.27 5.6055-18.227 6.3555-32.738 17.645-40.801 31.727-7.3516 12.695-9.0391 26.289-10.145 39.113-2.2891 26.418-2.082 52.82 0.5625 78.844-48.355-27.844-92.305-65.887-131.25-113.27-0.86328-4.5938-1.6484-9.2266-2.3242-13.875-16.914-117.32 4.1797-208.84 62.719-272.02 48.898-52.895 109.78-80.926 171.56-78.562 69.148 2.4375 117.24 39.977 139.59 61.969 20.586 20.719 36.469 44.117 47.156 69.262 5.8672 14.324 19.555 23.586 34.914 23.586h0.074218c15.094-0.039062 28.52-9.168 34.18-23.156 11.176-27.094 26.477-50.531 45.32-69.523 22.52-22.164 70.633-59.699 139.78-62.117 61.633-2.3438 122.62 25.688 171.56 78.562 87.656 94.668 69.039 227.98 62.945 271.61l-0.78906 5.082c-0.1875 1.3125-0.44922 2.5859-0.65625 3.8984-39.992 49.895-85.406 89.719-135.56 118.59 2.6641-26.023 2.8516-52.426 0.5625-78.863-1.1055-12.844-2.8125-26.457-10.105-39.02-8.1172-14.176-22.633-25.461-41.062-31.895-6.1328-2.043-13.086-3.8984-20.457-5.625-10.688-2.2695-22.012-0.074219-31.07 5.9453-8.9062 5.9258-14.906 14.945-16.914 25.5-11.867 64.48-51.355 130.01-111.23 184.55-60.355 55.238-134.48 95.887-206.18 135.21-49.406 27.133-101.3 52.145-155.18 75.133l-13.18-4.5c-35.438-12.039-72.074-24.488-106.48-39.977-69-31.145-117.51-71.156-144.11-118.91-8.4922-15.355-14.961-34.332-17.156-53.531l0.58203 0.99219c24.227 41.398 61.031 77.156 106.41 103.45 2.9609 1.707 6.1875 2.5117 9.375 2.5117 6.4688 0 12.77-3.3555 16.258-9.3555 5.1758-8.9609 2.1172-20.438-6.8438-25.633-39.789-23.023-71.867-54.113-92.832-89.906-15.77-26.961-26.418-47.586-19.633-67.445z"/>
 <path d="m978.64 311.36c-0.99219 6.7891-2.4375 13.48-4.2734 19.895-2.832 9.957 2.9453 20.324 12.898 23.176 1.707 0.48828 3.4492 0.73047 5.1367 0.73047 8.1758 0 15.676-5.3828 18.02-13.633 2.2695-7.9883 4.0508-16.312 5.2891-24.711 1.5195-10.238-5.5703-19.762-15.824-21.281-10.18-1.5-19.762 5.5703-21.281 15.824z"/>
 <path d="m849.51 129.64c43.633 8.1562 83.605 35.531 106.97 73.238 7.8008 12.602 13.82 26.438 17.887 41.117 2.3047 8.3047 9.8438 13.742 18.055 13.742 1.6484 0 3.3359-0.22656 5.0234-0.69531 9.9766-2.7578 15.824-13.086 13.07-23.082-5.0234-18.113-12.469-35.211-22.145-50.852-28.82-46.539-78.148-80.324-131.96-90.355-10.258-1.9297-19.969 4.8203-21.883 14.98-1.9141 10.18 4.8008 19.969 14.98 21.883z"/>
</svg>
