<?xml version="1.0" encoding="UTF-8"?>
<svg xmlns="http://www.w3.org/2000/svg" viewBox="0 0 1276.063 920.953">
  <g id="Layer_1" data-name="Layer 1">
    <path d="M904.109,920.953c-56.172,0-107.375-15.547-153.594-46.656-46.219-31.094-83.156-73.438-110.797-127-27.656-53.562-41.469-114.047-41.469-181.438,0-68.25,14.031-128.953,42.109-182.094,28.078-53.125,66.094-94.812,114.047-125.062,47.953-30.234,101.734-45.359,161.359-45.359,35.422,0,67.828,5.188,97.203,15.562s55.078,24.844,77.109,43.406c22.031,18.578,40.172,39.969,54.422,64.156s23.109,50.109,26.578,77.75l-29.812-10.359v-176.266h134.797v680.406h-134.797v-162l31.109-9.078c-5.188,23.344-15.781,46.016-31.766,68.047s-36.281,41.688-60.906,58.969-51.828,31.109-81.641,41.469-61.125,15.547-93.953,15.547ZM939.094,797.844c40.609,0,76.469-9.938,107.562-29.812s55.5-47.297,73.219-82.297c17.719-34.984,26.578-74.938,26.578-119.875,0-44.062-8.859-83.375-26.578-117.938s-42.125-61.766-73.219-81.641-66.953-29.812-107.562-29.812c-39.75,0-74.953,9.938-105.625,29.812s-54.859,47.078-72.578,81.641-26.562,73.875-26.562,117.938c0,44.938,8.844,84.891,26.562,119.875,17.719,35,41.906,62.422,72.578,82.297s65.875,29.812,105.625,29.812Z"/>
  </g>
  <g id="Layer_2" data-name="Layer 2">
    <path d="M125.714,585.08H40.585c-10.464.038-20.515,4.102-28.064,11.352-7.549,7.249-12.019,17.125-12.481,27.58-.465,10.458,3.116,20.688,9.995,28.576l210.765,241.424c7.735,8.886,18.941,13.988,30.722,13.988s22.987-5.101,30.722-13.988l210.875-241.314c6.927-7.883,10.546-18.136,10.1-28.622-.448-10.486-4.925-20.393-12.498-27.661-7.573-7.266-17.657-11.327-28.152-11.339h-85.129v-125.862c0-6.069-2.41-11.89-6.703-16.181-4.291-4.293-10.112-6.703-16.181-6.703h-205.957c-6.069,0-11.89,2.41-16.181,6.703-4.293,4.291-6.703,10.112-6.703,16.181l-.002,125.867ZM171.482,482.102h160.189v125.862c0,6.069,2.41,11.89,6.703,16.181,4.291,4.293,10.112,6.703,16.181,6.703h96.797l-199.781,228.841-199.781-228.841h96.797c6.069,0,11.89-2.41,16.181-6.703,4.293-4.291,6.703-10.112,6.703-16.181l.012-125.862Z"/>
    <path d="M148.598,390.565h205.957c6.069,0,11.89-2.41,16.181-6.703,4.293-4.291,6.703-10.112,6.703-16.181v-80.094c0-6.069-2.41-11.89-6.703-16.181-4.291-4.293-10.112-6.703-16.181-6.703h-205.957c-6.069,0-11.89,2.41-16.181,6.703-4.293,4.291-6.703,10.112-6.703,16.181v80.094c0,6.069,2.41,11.89,6.703,16.181,4.291,4.293,10.112,6.703,16.181,6.703ZM171.482,310.471h160.189v34.326h-160.189v-34.326Z"/>
  </g>
</svg>