<?xml version="1.0" encoding="UTF-8"?>
<svg id="Layer_1" data-name="Layer 1" xmlns="http://www.w3.org/2000/svg" viewBox="0 0 1200.038 1199.993">
  <defs>
    <style>
      .cls-1 {
        fill-rule: evenodd;
      }
    </style>
  </defs>
  <path d="M1199.983,879.044c0-9.094-7.445-16.539-16.539-16.539h-258.49c-28.07-21.055-65.043-39.207-114.19-55.688l-135.79-33.957v-99.395c33.02-37.461,52.406-84.281,55.574-133.99,38.906-12.957,94.426-50.719,94.426-126.98v-112.5c0-.695-17.492-72.242-17.492-72.242l24.938-43.742c12.789-22.445,17.512-49.312,9.938-74.008-9.168-29.867-32.289-52.219-62.043-60.562C699.542,26.886,586.385,0,506.225,0c-79.293,0-190.88,26.305-271.48,48.711-20.945,5.812-40.031,17.852-52.312,35.793-20.289,29.625-21.395,66.301-4.293,96.148l26.852,47.102s-17.492,71.211-17.492,72.242v112.5c0,76.258,55.539,114.02,94.426,126.98,3.188,49.914,22.668,96.883,55.574,134.02v99.355l-137.18,34.352C71.13,850.254,0,929.823,0,1031.243v150c0,10.352,8.398,18.75,18.75,18.75h1164.3c9.336,0,16.988-7.648,16.988-16.988v-303.98l-.055.019ZM813.993,1162.504l106.09-106.09c16.539,11.156,35.699,16.82,54.898,16.82s38.363-5.664,54.898-16.82l106.09,106.09h-321.98.004ZM533.443,1162.504l129.09-338.85,79.352,92.57-78.602,62.887c-4.445,3.543-7.031,8.945-7.031,14.645v103.5l-81.582,65.25-41.227-.002ZM437.818,1162.504l-81.582-65.25v-103.5c0-5.699-2.586-11.082-7.031-14.645l-78.602-62.887,79.352-92.57,129.09,338.85-41.227.002ZM330.908,1125.004l46.875,37.5h-134.04v-37.5h87.165ZM396.834,841.374l85.648,64.238-34.707,69.508-50.961-133.74.02-.006ZM506.244,941.984l40.312,80.758-40.312,105.82-40.312-105.82,40.312-80.758ZM564.706,975.132l-34.707-69.508,85.648-64.238-50.961,133.74.02.006ZM637.495,778.142l-131.25,98.438-131.25-98.438v-70.539c27.844,19.82,72.375,42.395,131.25,42.395,48.133,0,93.449-14.852,131.25-42.207v70.351ZM686.714,1120.892c4.445-3.543,7.031-8.945,7.031-14.645v-103.5l56.25-45v204.73h-115.29l52.012-41.605-.003.02ZM1135.983,900.002l-117.99,117.99c-23.699,23.699-62.289,23.699-85.988,0l-117.99-117.99h321.98-.012ZM787.493,926.514l104.74,104.74-104.74,104.74v-209.48ZM1057.753,1031.254l104.74-104.74v209.48l-104.74-104.74ZM850.683,862.504h-81.938c-2.438,0-13.648,5.773-15.711,9.133l-44.305-51.695,91.539,22.855c18.676,6.281,35.383,12.844,50.438,19.727l-.023-.02ZM433.533,156.814c12.449-9.375,38.867-25.555,72.711-25.555s60.301,16.219,72.711,25.555l-12.355,49.445h-120.73l-12.355-49.445h.018ZM772.853,243.759l9.375,37.5H230.268l9.375-37.5h533.21ZM289.553,318.759h433.41c-5.269,1.949-98.645,37.5-216.7,37.5s-211.45-35.551-216.71-37.5h0ZM731.263,498.649v-143.04c23.363-8.418,42.301-16.801,56.25-23.773v80.68c0,50.812-32.961,75.207-56.25,86.137v-.004ZM207.654,116.259c6.188-15.074,18.789-26.27,34.574-30.695,78.543-21.918,188.1-48.055,264.02-48.055s185.48,26.137,264,48.055c15.805,4.426,28.406,15.617,34.594,30.695,6.133,14.98,5.043,31.688-3.074,45.844l-25.164,44.156h-171.34l12.918-51.695c1.613-6.395-.281-13.145-4.93-17.812-1.762-1.762-43.727-42.992-107.01-42.992s-105.24,41.23-107.01,42.992c-4.648,4.668-6.543,11.418-4.93,17.812l12.918,51.695h-171.34l-25.18-44.176c-8.102-14.117-9.188-30.824-3.055-45.805l.008-.019ZM224.997,412.509v-80.68c13.949,6.957,32.887,15.355,56.25,23.773v143.21c-23.289-10.801-56.25-35.043-56.25-86.305v.002ZM318.747,367.79c45.582,13.164,109.67,25.969,187.5,25.969s141.94-12.805,187.5-25.969v157.22c0,48.074-18.168,93.77-51.168,128.72-35.57,37.895-83.98,58.781-136.33,58.781-83.832,0-133.8-55.895-136.37-58.82-32.961-34.914-51.133-80.605-51.133-128.68v-157.221ZM37.497,1031.26c0-113.3,109.45-166.73,173.29-188.06l92.961-23.23-74.23,86.586c-3.32,3.863-4.914,8.906-4.445,13.969s3,9.711,6.957,12.883l86.719,69.375v84.75h-93.75c-10.367,0-18.75,8.398-18.75,18.75v56.25h-37.5v-112.5c0-10.352-8.383-18.75-18.75-18.75s-18.75,8.398-18.75,18.75v112.5H37.499l-.002-131.273Z"/>
  <path d="M506.233,581.254c10.367,0,18.75-8.398,18.75-18.75v-56.25c0-10.352-8.383-18.75-18.75-18.75s-18.75,8.398-18.75,18.75v56.25c0,10.352,8.383,18.75,18.75,18.75Z"/>
  <path d="M599.983,459.384c0,15.531-12.594,28.125-28.125,28.125s-28.125-12.594-28.125-28.125,12.594-28.125,28.125-28.125,28.125,12.594,28.125,28.125Z"/>
  <path d="M468.733,459.384c0,15.531-12.594,28.125-28.125,28.125s-28.125-12.594-28.125-28.125,12.594-28.125,28.125-28.125,28.125,12.594,28.125,28.125Z"/>
  <path class="cls-1" d="M505.677,571.858c0,1.161.58,2.321.58,4.062,0-1.741.58-2.902.58-4.062,1.161-7.545,17.991-21.474,43.527-21.474,57.456,0,81.25,124.779,104.467,34.821,3.482,105.626-124.779,77.768-148.573,45.268-23.795,32.5-152.055,60.358-148.573-45.268,23.215,89.956,46.429-34.821,104.467-34.821,25.535,0,42.366,13.348,43.527,21.474h-.002Z"/>
</svg>