<?xml version="1.0" encoding="UTF-8"?>
<svg id="Layer_1" data-name="Layer 1" xmlns="http://www.w3.org/2000/svg" viewBox="0 0 1125.017 1125.01">
  <path d="M1015.893,752.067l-153.75-58.125c-16.086-5.84-28.637-18.68-34.105-34.895,50.527-13.125,95.648-41.812,128.98-81.992,20.102-26.391,33.824-57.074,40.102-89.648,6.277-32.578,4.938-66.164-3.914-98.133-9.797-43.633-24.844-85.914-44.812-125.93,4.992-8.852,7.691-18.809,7.856-28.969-.035-7.762-1.59-15.445-4.574-22.613,38.176-21.918,60.824-49.52,60.824-80.512C1012.499,56.418,883.539,0,712.499,0s-300,56.418-300,131.25c0,31.07,22.5,58.875,60.711,80.867-2.898,7.066-4.414,14.621-4.461,22.258.148,10.141,2.824,20.082,7.781,28.93-19.914,40.062-34.941,82.371-44.758,126.02-8.852,31.973-10.191,65.559-3.914,98.133s20.004,63.258,40.102,89.648c33.367,40.141,78.52,68.762,129.06,81.809-5.527,16.383-18.242,29.34-34.52,35.172l-112.5,42.523v-24.109c0-4.973-1.977-9.742-5.492-13.258-3.516-3.516-8.285-5.492-13.258-5.492H18.75c-4.973,0-9.742,1.977-13.258,5.492-3.516,3.516-5.492,8.285-5.492,13.258v262.5c0,4.973,1.977,9.742,5.492,13.258,3.516,3.516,8.285,5.492,13.258,5.492h281.25v131.25h37.5v-131.25h93.75c4.973,0,9.742-1.977,13.258-5.492,3.516-3.516,5.492-8.285,5.492-13.258v-198.3l117.36-44.344-22.648,67.969c-1.434,4.281-1.273,8.934.449,13.102,1.723,4.172,4.891,7.582,8.926,9.606l139.67,69.805v90.133l-136.12,142.03h51.938l342.23-357.05,38.117,14.398-328.41,342.66h51.957l312.38-325.93c38.164,23.969,61.426,65.781,61.668,110.85v215.08h37.5v-215.08c-.117-34.25-10.605-67.664-30.082-95.844-19.473-28.176-47.023-49.797-79.023-62.012l-.019-.007ZM373.593,731.255l-148.59,108.07-148.59-108.07h297.18ZM37.503,956.255v-206.93l176.48,128.34c3.203,2.328,7.063,3.586,11.023,3.586s7.82-1.258,11.023-3.586l176.48-128.34v206.93H37.503ZM712.503,844.805l-91.012-151.67c10.383-15.379,15.957-33.496,16.012-52.051v-8.871c22.637,14.074,48.402,22.332,75,24.039,26.594-1.887,52.332-10.207,75-24.242v9.074c.055,18.559,5.621,36.68,15.992,52.066l-90.992,151.655ZM506.253,234.375c0-35.398,88.125-75,206.25-75s206.25,39.602,206.25,75-88.125,75-206.25,75-206.25-39.602-206.25-75ZM543.753,354.185c24.711-3.285,49.121-8.539,72.992-15.711,31.598,5.715,63.648,8.527,95.758,8.398,47.316.574,94.457-5.914,139.86-19.258,8.977,7.898,18.648,14.973,28.895,21.133v86.25c0,98.699-113.2,183.75-168.75,183.75-22.199,0-64.332-17.023-104.32-54.375-24.059-22.633-64.426-69.582-64.426-129.38l-.009-80.807ZM820.113,738.355l19.461,58.406-77.848,38.926,58.387-97.332ZM927.553,553.925c-26.703,32.09-62.426,55.422-102.54,66.977v-14.117c50.289-39.992,93.75-101.25,93.75-171.79v-97.5c0-3.484-.969-6.898-2.801-9.863-1.828-2.965-4.449-5.359-7.566-6.918-5.348-2.766-10.5-5.898-15.414-9.375,10.25-5.059,19.977-11.113,29.043-18.074,14.965,33.742,26.609,68.867,34.762,104.87,7.473,26.465,8.719,54.297,3.648,81.324-5.07,27.027-16.324,52.516-32.879,74.469l-.003-.003ZM450.013,131.245c0-44.344,107.81-93.75,262.5-93.75s262.5,49.406,262.5,93.75c0,17.176-16.52,35.008-45.355,50.625-39.602-36.281-119.93-60-217.14-60s-177.79,23.793-217.31,60c-28.895-15.469-45.188-33.43-45.188-50.625h-.007ZM497.47,553.925c-16.551-21.949-27.801-47.43-32.871-74.449-5.07-27.02-3.824-54.848,3.641-81.305,8.164-35.992,19.82-71.102,34.797-104.83,12.016,9.141,25.09,16.789,38.945,22.781-6.281.898-12.242,2.062-18.844,2.719-4.641.465-8.941,2.645-12.062,6.113-3.121,3.465-4.836,7.973-4.812,12.637v97.5c0,73.875,47.738,129.88,76.273,156.79,5.625,5.289,11.531,10.273,17.477,15v13.875c-40.121-11.465-75.855-34.754-102.54-66.828l-.003-.003ZM585.447,796.755l19.461-58.406,58.387,97.332-77.848-38.926ZM731.267,892.829l93.844-46.875-93.844,97.875v-51ZM877.347,791.409l-19.688-59.043,56.008,21.148-36.32,37.895Z"/>
  <path d="M712.493,562.617c24.613.258,48.586-7.856,67.988-23.008l-23.477-29.211c-12.918,9.449-28.508,14.543-44.512,14.543s-31.594-5.094-44.512-14.543l-23.477,29.211c19.402,15.152,43.375,23.266,67.988,23.008h.002Z"/>
  <path d="M656.243,393.757c0,20.711-16.789,37.5-37.5,37.5s-37.5-16.789-37.5-37.5,16.789-37.5,37.5-37.5,37.5,16.789,37.5,37.5Z"/>
  <path d="M843.743,393.757c0,20.711-16.789,37.5-37.5,37.5s-37.5-16.789-37.5-37.5,16.789-37.5,37.5-37.5,37.5,16.789,37.5,37.5Z"/>
  <path d="M487.493,988.407c-24.008,41.555-36.922,88.586-37.5,136.57h37.5c.656-42.598,12.504-84.27,34.352-120.84,2.047-3.086,3.144-6.703,3.148-10.406v-56.25h-37.5v50.926Z"/>
  <path d="M937.493,937.507h-37.5v56.25c.004,3.703,1.102,7.32,3.148,10.406,21.957,36.527,33.809,78.23,34.352,120.84h37.5c-.578-47.988-13.492-95.02-37.5-136.57v-50.926Z"/>
</svg>