<?xml version="1.0" encoding="UTF-8"?>
<svg width="1200pt" height="1200pt" version="1.1" viewBox="0 0 1200 1200" xmlns="http://www.w3.org/2000/svg">
 <path d="m876 437.64c27.488 2.2695 54.676-7.0312 75.012-25.656 20.34-18.629 31.988-44.898 32.137-72.477 0.14453-27.578-11.219-53.973-31.355-72.816s-47.223-28.438-74.73-26.461c-27.512 1.9727-52.949 15.336-70.191 36.863-17.238 21.527-24.715 49.27-20.633 76.547l14.16-14.039c5.6055-5.6016 13.199-8.7461 21.121-8.7461s15.516 3.1445 21.121 8.7461l44.52 44.398c5.5977 5.6016 8.7422 13.199 8.7422 21.121 0 7.918-3.1445 15.516-8.7422 21.117l-11.281 11.398zm-118.8-91.922c-13.504-6.2344-27.566-11.176-42-14.758v-26.883c0-3.3477-0.57031-6.6758-1.6797-9.8398 2.1914-8.5273 5.0391-16.871 8.5195-24.957 4.1289-9.5273 9.0664-18.68 14.762-27.359 3.707-5.5547 2.9492-12.953-1.8008-17.641l-20.762-20.281 34.32-34.32 20.879 20.879h0.003906c4.9453 4.9648 12.809 5.4805 18.359 1.2031 9.1172-5.9102 18.758-10.973 28.801-15.121 10.301-4.2891 20.988-7.5859 31.918-9.8398 6.5469-1.3594 11.25-7.1133 11.281-13.801v-30h48v29.398c-0.023437 7.0039 5.0781 12.973 12 14.043 10.574 2.1602 20.906 5.375 30.84 9.5977 10.621 4.3008 20.793 9.6484 30.359 15.961 5.5742 3.707 12.98 3.0078 17.762-1.6797l21.238-21.242 33.961 34.922-20.879 20.879h-0.003906c-4.5898 4.8867-5.043 12.355-1.0781 17.762 5.9492 9.1133 11.051 18.754 15.238 28.801 4.2344 10.32 7.5312 21.004 9.8398 31.918 1.2695 6.5547 7.0078 11.285 13.684 11.281h29.398v48.602l-29.641-0.003907c-6.9961-0.066406-12.953 5.0703-13.918 12-2.2539 10.555-5.4688 20.875-9.6016 30.84-4.3047 10.352-9.5703 20.273-15.719 29.641-3.6602 5.5625-2.9062 12.934 1.7969 17.641l20.762 20.879-33.84 34.562-20.762-20.879c-4.9766-4.9688-12.844-5.5312-18.477-1.3203-18.035 11.809-38.09 20.188-59.16 24.719h-26.043c-3.9609-15.613-9.4258-30.805-16.32-45.359 34.363 1.3125 67.793-11.359 92.652-35.117 24.859-23.762 39.031-56.582 39.273-90.969 0.24609-34.387-13.457-67.406-37.977-91.516s-57.766-37.254-92.145-36.43c-34.379 0.82422-66.953 15.543-90.293 40.801-23.336 25.258-35.441 58.895-33.551 93.23zm-173.4 352.44c-41.293-22.949-68.699-64.691-73.348-111.7-4.6445-47.012 14.062-93.312 50.062-123.9 36-30.586 84.715-41.57 130.36-29.395 45.645 12.176 82.414 45.969 98.391 90.422 15.98 44.457 9.1406 93.922-18.305 132.38-27.445 38.449-72.004 60.992-119.24 60.324l-67.922-18.121zm236.76 88.559-27.363-27.238c-4.9375-4.9492-12.766-5.5117-18.359-1.3203-13.832 8.8789-28.602 16.203-44.039 21.84-2.2188-17.418-11.18-33.273-24.961-44.16 34.977-11.109 65.469-33.137 87-62.852 21.535-29.715 32.977-65.551 32.645-102.25-0.33203-36.695-12.418-72.316-34.484-101.64-22.066-29.32-52.953-50.793-88.125-61.27-35.168-10.477-72.77-9.3984-107.29 3.0664-34.512 12.469-64.121 35.672-84.477 66.207-20.355 30.531-30.391 66.785-28.625 103.44 1.7656 36.652 15.234 71.777 38.434 100.21l-69.723-18.121c-6.4141-14.527-11.281-29.691-14.52-45.242-1.3164-6.5039-7.043-11.176-13.68-11.16h-38.039c-0.99609 0-1.8008-0.80469-1.8008-1.7969v-63.242c0-0.99219 0.80469-1.8008 1.8008-1.8008h38.039c6.9766 0.015624 12.906-5.0938 13.922-12 2.832-13.328 6.8477-26.379 12-39 5.3555-12.961 11.945-25.379 19.68-37.078 3.707-5.5508 2.9492-12.953-1.8008-17.641l-26.879-26.879c-0.70312-0.74219-0.70312-1.8984 0-2.6406l44.641-44.641h-0.003906c0.74219-0.58203 1.7812-0.58203 2.5195 0l26.879 26.879h0.003907c4.9141 5.0039 12.781 5.5664 18.359 1.3203 23.344-15.172 49.305-25.875 76.559-31.559 6.5078-1.3164 11.18-7.043 11.16-13.68v-38.402c0-0.99219 0.80859-1.7969 1.8008-1.7969h63.359c0.99609 0 1.8008 0.80469 1.8008 1.7969v38.043c-0.015625 6.9766 5.0977 12.906 12 13.918 13.363 2.707 26.426 6.7266 39 12 13.012 5.3359 25.469 11.926 37.199 19.68 5.5625 3.6602 12.93 2.9062 17.641-1.7969l26.879-26.879v-0.003907c0.74219-0.57812 1.7812-0.57812 2.5195 0l44.641 44.641c0.70312 0.74219 0.70312 1.8984 0 2.6406l-26.879 27c-4.9648 4.9453-5.4766 12.809-1.1992 18.359l2.0391 3.2383v0.003906c14.266 22.367 24.387 47.121 29.879 73.078 0.95312 6.8398 6.7773 11.945 13.68 12h38.043c0.99219 0 1.7969 0.80469 1.7969 1.8008v63.121c0 0.99219-0.80469 1.7969-1.7969 1.7969h-38.043c-6.9766-0.011719-12.906 5.0977-13.918 12-2.8164 13.336-6.832 26.391-12 39-5.3555 13-11.945 25.457-19.68 37.203-3.7812 5.3477-3.2812 12.617 1.1992 17.398l26.879 26.879c0.36328 0.32031 0.57031 0.77734 0.57031 1.2617 0 0.48047-0.20703 0.94141-0.57031 1.2578l-42.602 42.602-4.0781 2.3984zm-112.56 52.32c9.3477 3.0469 19.559 1.8633 27.961-3.2383l60-34.441-14.762-14.039c-16.988 10.105-35.113 18.16-54 24-3.9297 10.727-10.539 20.27-19.199 27.719zm-530.76-80.641-72 41.281c-5.4531 3.5352-7.1016 10.77-3.7188 16.32l147.6 255.72c3.3125 5.3945 10.246 7.2852 15.84 4.3203l72-41.641c4.7461-3.3477 6.4141-9.6133 3.9609-14.879l-0.83984-1.4414-147-255.36c-3.3125-5.3906-10.246-7.2812-15.84-4.3203zm60 24.719 108 186.72 38.762-21.836c3.4688-2.5039 7.8984-3.2578 12-2.0391l196.8 52.68c34.797 9.8906 72.137 4.9844 103.2-13.562l306.48-177 1.9219-1.0781h-0.003906c12.52-7.418 20.133-20.949 19.969-35.5-0.16406-14.547-8.0781-27.906-20.762-35.039-12.684-7.1328-28.207-6.957-40.727 0.46094l-213.48 123.12c-14.445 8.6289-31.805 10.93-48 6.3594l-128.52-34.438c-3.6133-0.92969-6.6992-3.2695-8.5742-6.4961-1.8711-3.2266-2.3711-7.0664-1.3828-10.664 2.0469-7.4414 9.6797-11.875 17.156-9.9609l74.52 20.039h0.003906c9.9219 2.8438 20.57 1.543 29.52-3.5977 8.7969-5.0898 15.191-13.484 17.762-23.316 2.5664-9.832 1.0938-20.285-4.0898-29.023-5.1875-8.7422-13.652-15.043-23.512-17.5l-236.52-63.363c-15.617-4.5312-32.418-2.3125-46.32 6.1211l-154.2 88.922zm-144.72-8.0391 70.801-40.922v0.003906c9.082-5.25 19.883-6.6719 30.012-3.9492 10.133 2.7266 18.766 9.3711 23.988 18.469l6 10.199 154.08-89.039c12.645-7.4531 26.973-11.582 41.641-12l-7.1992-24h-26.879c-7.9375-0.03125-15.535-3.207-21.137-8.8281-5.6016-5.625-8.7461-13.234-8.7461-21.172v-62.641c0.035156-7.9141 3.1914-15.496 8.7891-21.094 5.5977-5.5938 13.18-8.7539 21.094-8.7852h26.879c5.8711-23.25 15.086-45.523 27.359-66.121l-19.199-18.961c-5.5977-5.6016-8.7422-13.199-8.7422-21.117 0-7.9219 3.1445-15.52 8.7422-21.121l44.641-44.641c5.6016-5.5977 13.199-8.7422 21.121-8.7422 7.918 0 15.516 3.1445 21.117 8.7422l19.078 18.961h0.003907c20.547-12.293 42.781-21.512 66-27.359v-26.883c0.03125-7.9141 3.1875-15.496 8.7852-21.09 5.5977-5.5977 13.18-8.7578 21.094-8.7891h67.922c4.3984-13.332 10.191-26.16 17.277-38.277l-14.762-15h0.003906c-4.6211-5.082-7.0977-11.75-6.918-18.613 0.17578-6.8672 3-13.395 7.875-18.23l36-36c5.0391-5.0117 11.855-7.8242 18.961-7.8242s13.922 2.8125 18.961 7.8242l13.922 13.922h-0.003906c15.727-9.2305 32.645-16.258 50.281-20.879v-19.32c0.03125-7.1211 2.875-13.938 7.9102-18.973 5.0312-5.0352 11.852-7.875 18.969-7.9062h51.363c7.043 0.125 13.758 3.0117 18.695 8.0391 4.9375 5.0273 7.7031 11.793 7.7031 18.84v19.559c17.625 4.6641 34.535 11.688 50.281 20.879l14.879-14.879c5.1133-4.5977 11.797-7.0625 18.672-6.8828 6.875 0.17969 13.418 2.9844 18.289 7.8438l36 36c5.0391 5.0195 7.875 11.844 7.875 18.961 0 7.1133-2.8359 13.938-7.875 18.957l-13.32 14.043c9.1445 15.75 16.129 32.664 20.758 50.277h19.68c7.1016 0.0625 13.887 2.9219 18.898 7.9531 5.0078 5.0273 7.832 11.828 7.8633 18.93v51c0.18359 7.3125-2.6367 14.379-7.8008 19.559-4.9922 5.0938-11.828 7.9492-18.961 7.9219h-19.68c-4.7227 17.391-11.703 34.094-20.758 49.68l14.879 14.398c4.6094 5.1172 7.0703 11.812 6.8711 18.695-0.20312 6.8867-3.0508 13.426-7.9492 18.266l-36 36c-5.0586 5.0195-11.895 7.8359-19.023 7.8359-7.125 0-13.961-2.8164-19.02-7.8359l-13.797-12.961c-11.445 6.6211-23.504 12.125-36 16.441 0.96094 2.9414 1.4492 6.0195 1.4375 9.1172v63.121c0 7.9375-3.1445 15.547-8.7422 21.172-5.6016 5.6211-13.203 8.7969-21.137 8.8281h-26.762c-5.8672 23.211-15.086 45.445-27.359 66l18.961 18.961c6.3203 6.3047 9.4922 15.109 8.6406 24l53.039-30.602c15.809-9.0938 34.574-11.547 52.188-6.8203 17.617 4.7227 32.637 16.238 41.773 32.02 9.1484 15.93 11.555 34.852 6.6875 52.562-4.8672 17.711-16.605 32.742-32.609 41.758l-306.84 176.76c-37.48 22.285-82.457 28.23-124.44 16.441l-192-51.48-34.441 19.801 6 10.32v-0.003906c5.3125 9.2227 6.6914 20.195 3.8281 30.445-2.8672 10.246-9.7422 18.91-19.066 24.035l-70.801 40.922c-9.1016 5.2578-19.918 6.6797-30.07 3.957-10.152-2.7227-18.805-9.3711-24.051-18.477l-147.84-255.72c-5.1914-9.1133-6.582-19.91-3.8633-30.043s9.3242-18.785 18.383-24.074z" fill-rule="evenodd"/>
</svg>
