<?xml version="1.0" encoding="UTF-8"?>
<svg id="Layer_1" data-name="Layer 1" xmlns="http://www.w3.org/2000/svg" viewBox="0 0 403.498 1118.618">
  <defs>
    <style>
      .cls-1 {
        fill: #4894fc;
        stroke: #000;
        stroke-miterlimit: 10;
      }
    </style>
  </defs>
  <polygon class="cls-1" points="122.124 343.457 47.75 401.302 13.124 650.302 97.124 671.991 325.976 671.988 343.124 661.883 396.124 661.883 366.124 418.088 307.124 350.811 281.124 343.457 232.852 368.302 177.124 367.302 122.124 343.457"/>
  <path d="M400.465,667.959c-.871.977-1.984,1.629-3.098,2.266l.766,6.371c1.395,11.742-2.297,23.543-10.148,32.379-7.84,8.836-19.102,13.898-30.914,13.898h-17.859l.023,311.44c0,4.652-.777,9.027-2.035,13.098,20.691,9.297,35.188,30.008,35.188,54.121,0,9.527-7.559,17.086-16.852,17.086h-127.02c-9.281,0-16.84-7.559-16.84-16.84v-21.152c0-11.293,4.981-21.367,12.754-28.414-2.418-5.305-3.906-11.328-3.906-17.898l-7.676-244.54c-.176-5.531-5.051-9.856-11.098-9.856-5.941,0-10.922,4.418-11.098,9.856l-7.676,244.91c.004,6.414-1.469,12.332-3.859,17.559,7.75,7.047,12.707,17.105,12.707,28.379v21.152c0,9.281-7.559,16.84-16.84,16.84H47.964c-9.293,0-16.852-7.559-16.852-16.84,0-24.297,14.5-45.051,35.191-54.363-1.258-4.074-2.039-8.449-2.039-13.102v-311.44h-17.836c-11.812,0-23.074-5.062-30.914-13.898-7.852-8.836-11.543-20.637-10.148-32.367l.766-6.383c-1.109-.637-2.227-1.289-3.098-2.266-2.273-2.555-3.352-5.965-2.953-9.363l25.688-221.33c9.141-46.234,40.652-84.047,82.406-99.621,9.211-3.461,19.406-2.82,28.605,1.789,2.84,1.418,6.223,2.691,9.867,3.879v-22.238c-21.98-14.98-39.945-38.027-52.074-64.391-1.074.238-2.102.609-3.203.754-1.559.199-3.106.297-4.652.297-19.652,0-37.43-16.055-40.816-37.824-1.734-11.195.773-22.402,6.606-31.348-4.047-10.613-6.758-21.91-6.758-34.004,0-3.016.809-5.473,1.945-7.441-1.148-1.98-1.945-4.43-1.945-7.422,0-5.914,3.129-9.68,5.672-11.848.188-21.035,2.039-44.461,14.859-64.152,13.465-20.672,36.738-32.648,55.453-42.27l2.262-1.172C142.393,10.758,163.253,0,187.628,0c.785,0,1.582.078,2.356.234l27.07,5.414c23.039.008,46.77.18,67.312,10.754,23.027,11.848,37.523,34.113,48.117,50.371,13.312,20.449,25.266,40.84,25.266,65.508,0,3.016-.809,5.473-1.945,7.449,1.148,1.977,1.945,4.422,1.945,7.418,0,5.918-3.129,9.684-5.672,11.848-.105,9.098-.598,18.613-1.953,28.109,6.531,9.148,9.297,21.016,7.473,32.805-3.387,21.766-21.164,37.824-40.816,37.824-1.547,0-3.094-.094-4.652-.297-1.102-.145-2.129-.512-3.203-.754-12.129,26.359-30.09,49.406-52.074,64.391v22.238c3.645-1.188,7.027-2.461,9.867-3.879,9.211-4.605,19.406-5.242,28.605-1.781,41.719,15.562,73.23,53.344,82.242,98.598.07.316.117.641.152.961l25.699,221.39c.398,3.391-.68,6.801-2.953,9.356l.002.002h0ZM330.458,200.729c-1.086-1.445-2.785-3.086-5.094-4.191-1.168,12.449-3.781,24.938-7.57,37.109,7.555-.59,14.609-7.945,16.086-17.41.891-5.762-.352-11.41-3.422-15.508h0ZM85.707,233.655c-3.789-12.172-6.402-24.664-7.57-37.113-2.309,1.105-4.004,2.746-5.094,4.191-3.07,4.098-4.312,9.742-3.422,15.512,1.473,9.457,8.547,16.828,16.086,17.41h0ZM161.906,95.275c3.445-4.969,8.894-8.07,14.93-8.496,5.871-.402,11.93,1.887,16.09,6.367,24.492,26.426,80.18,43.441,117.73,44.051,5.543.094,10.301,3.973,11.508,9.387,1.906,8.52,2.887,16.922,3.422,25.203.684.105,1.328.328,2,.469.387-5.879.52-11.809.52-17.688,0-3.012.809-5.465,1.934-7.434-1.137-1.977-1.934-4.418-1.934-7.414,0-5.766,2.965-9.492,5.473-11.684-1.359-16.441-10.43-31.609-21.199-48.152-11.836-18.164-22.934-33.867-38.988-42.137-15.727-8.086-36.023-8.086-57.516-8.086-.785,0-1.582-.078-2.356-.234l-27.023-5.402c-18.117.352-35.086,9.102-51.492,17.566l-2.285,1.184c-17.027,8.762-36.328,18.684-46.324,34.031-9.117,14.012-10.992,32.316-10.992,55.488,0,3.008-.809,5.461-1.934,7.43,1.137,1.98,1.934,4.422,1.934,7.414,0,5.789-2.988,9.52-5.496,11.707.34,4.836,1.262,9.574,2.594,14.223,1.766-.555,3.57-.996,5.426-1.277.531-8.285,1.516-16.684,3.422-25.203,1.207-5.414,5.965-9.293,11.508-9.387,37.555-.609,51.723-17,69.055-41.926h-.007ZM201.751,315.085c56.531,0,100.38-71.922,100.38-133.8,0-6.766-.551-13.547-1.676-20.531-40.324-2.93-92.754-19.637-121.68-47.746-17.344,24.34-36.199,44.297-75.738,47.703-1.125,7.004-1.676,13.793-1.676,20.578,0,61.871,43.852,133.79,100.38,133.79l.01.006h0ZM201.751,339.085c-10.848,0-21.215-2.133-31.102-5.676v15.23c9.727,1.383,20.289,2.172,31.102,2.172s21.375-.789,31.102-2.172v-15.23c-9.887,3.543-20.254,5.676-31.102,5.676ZM66.43,682.925c-.18-.168-.426-.234-.594-.414-2.273-2.391-3.457-5.602-3.281-8.894l.086-1.629H30.098l-.898,7.477c-.598,4.992.914,9.82,4.254,13.582,3.34,3.762,7.945,5.836,12.973,5.836h19.008l.995-15.957h0ZM167.82,1080.635c0-4.664-2.356-8.629-5.789-11.281-3.25,1.32-6.699,2.176-10.371,2.176h-56.074c-5.16,0-9.918-1.547-14.168-4.066-12.918,3.457-23,13.938-25.629,27.164h112.03v-13.992h.001ZM236.832,789.035l7.676,244.91c.012,8.438,4.348,13.582,7.336,13.582h56.062c2.988,0,7.324-5.145,7.324-13.207v-316.56l-1.973-31.5H90.247l-2.012,32.25.023,315.81c0,8.062,4.336,13.207,7.324,13.207h56.074c2.988,0,7.324-5.145,7.324-13.207l7.676-245.29c.586-18.562,15.996-33.105,35.086-33.105s34.5,14.543,35.086,33.105l.003.005h0ZM322.075,1067.465c-4.25,2.52-9.008,4.066-14.168,4.066h-56.062c-3.676,0-7.125-.859-10.375-2.184-3.438,2.652-5.797,6.621-5.797,11.289v13.992h112c-2.676-13.289-12.727-23.719-25.594-27.164h-.004ZM374.294,679.455l-.898-7.465h-32.543l.086,1.629c.18,3.293-1.004,6.504-3.277,8.894-.164.176-.406.242-.578.406l.996,15.965h18.988c5.027,0,9.633-2.074,12.973-5.836s4.852-8.59,4.254-13.594h0ZM378.019,647.99l-24.082-207.5c-7.523-36.953-33.164-67.711-67.008-80.336-2.941-1.098-6.305-.828-9.504.773-17.707,8.828-45.293,13.891-75.68,13.891s-57.973-5.062-75.68-13.887c-3.188-1.582-6.551-1.867-9.504-.785-34.008,12.691-59.73,43.676-67.113,80.859l-23.977,206.99h38.457l7.762-144.12c.363-6.629,6.012-11.652,12.633-11.336,6.394.344,11.234,5.664,11.25,11.984,0,.223.105.418.094.645l-8.461,157.1h229.08l-8.449-157.1c-.012-.227.094-.418.094-.645.012-6.32,4.855-11.641,11.25-11.984,6.574-.34,12.27,4.711,12.633,11.336l7.75,144.12,38.456-.005h-.001ZM251.66,215.63c7.805,0,13.695-7.195,13.695-16.734s-5.891-16.73-13.695-16.73-13.691,7.191-13.691,16.73,5.887,16.734,13.691,16.734ZM228.182,262.414c0,10.12-9.539,18.252-29.206,18.252-14,0-22.695-17.181-23.667-17.667M235.847,252.76h0M151.779,182.17c-7.805,0-13.695,7.191-13.695,16.73s5.891,16.734,13.695,16.734,13.695-7.195,13.695-16.734c-.004-9.539-5.891-16.73-13.695-16.73h0Z"/>
  <path d="M256.649,263.109c-.548-4.092-2.056-7.985-3.603-11.813-3.382-8.368-7.969-13.365-17.338-14.199-5.534-.493-11.093-.874-16.651-.732-2.276.058-12.903-.1-14.275,2.46-.092.171-.142.354-.145.551-.001.036-.012.071-.013.107-.001-.036-.012-.071-.013-.107-.003-.196-.053-.38-.145-.551-1.371-2.562-11.998-2.402-14.274-2.46-5.56-.142-11.117.241-16.651.732-9.369.834-13.957,5.83-17.338,14.199-1.546,3.828-3.055,7.722-3.603,11.813-.411,3.072-.264,6.18.079,9.251.074.672.821,8.304,2.208,6.754.416-.465.312-1.173.257-1.793-.368-4.092,2.496-7.908,4.893-10.959,2.635-3.355,6.146-6.025,10.103-7.63,5.388-2.184,11.402-1.917,17.074-1.37,3.341.323,12.593,3.08,15.065-.099.612-.787,1.474-1.841,2.315-2.975.862,1.119,1.753,2.168,2.38,2.975,2.471,3.178,11.725.422,15.066.099,5.673-.547,11.686-.814,17.074,1.37,3.955,1.604,7.467,4.275,10.102,7.63,2.397,3.052,5.262,6.869,4.893,10.959-.056.62-.159,1.329.257,1.793,1.387,1.55,2.134-6.082,2.208-6.754.34-3.071.487-6.178.076-9.251h0Z"/>
</svg>