<?xml version="1.0" encoding="UTF-8"?>
<svg id="Layer_1" data-name="Layer 1" xmlns="http://www.w3.org/2000/svg" viewBox="0 0 1125.256 1126.989">
  <path d="M1106.506,675.116h-18.75v-243.75c0-51.797-41.953-93.75-93.75-93.75h-187.5c-51.797,0-93.75,41.953-93.75,93.75v243.75h-18.75c-10.312,0-18.75,8.438-18.75,18.75v75c0,10.312,8.438,18.75,18.75,18.75h412.5c10.312,0,18.75-8.438,18.75-18.75v-75c0-10.312-8.438-18.75-18.75-18.75ZM750.256,431.366c0-30.938,25.312-56.25,56.25-56.25h112.5c30.938,0,56.25,25.312,56.25,56.25v243.75h-225v-243.75ZM1087.756,750.116h-375v-37.5h375v37.5Z"/>
  <path d="M787.706,431.366h150v37.5h-150v-37.5Z"/>
  <path d="M806.456,506.366h112.5v37.5h-112.5v-37.5Z"/>
  <path d="M806.456,581.366h112.5v37.5h-112.5v-37.5Z"/>
  <path d="M243.956,770.036c83.438,41.484,184.69,7.5,226.17-76.172s7.5-184.69-76.172-226.17c-9.375-4.688-19.219-8.438-29.297-11.25l27.188-54.375c2.578-5.391,2.578-11.484,0-16.875l-18.75-37.5c-3.281-6.328-9.609-10.312-16.875-10.312h-75c-7.031,0-13.594,3.984-16.875,10.312l-18.75,37.5c-2.578,5.391-2.578,11.484,0,16.875l27.188,54.375c-10.078,2.812-19.688,6.562-29.062,11.25-9.375-4.688-18.984-8.438-29.062-11.25l27.188-54.375c2.578-5.391,2.578-11.484,0-16.875l-18.75-37.5c-3.281-6.328-9.609-10.312-16.875-10.312h-74.766c-7.031,0-13.594,3.984-16.875,10.312l-18.75,37.5c-2.578,5.391-2.578,11.484,0,16.875l27.188,54.375c-89.766,25.312-141.8,118.59-116.72,208.12s118.59,141.8,208.12,116.72c10.312-2.812,20.156-6.562,29.531-11.25l.006.002ZM450.206,618.866c0,72.422-58.594,131.25-131.25,131.25-12.656,0-25.547-1.875-37.734-5.625,69.375-61.875,75.469-168.28,13.594-237.89-4.219-4.922-8.906-9.375-13.594-13.594,69.375-20.859,142.5,18.516,163.36,88.125,3.75,12.188,5.625,25.078,5.625,37.734h0ZM243.956,511.286c59.531,41.25,74.062,123.05,32.812,182.34-8.906,12.891-19.922,23.906-32.812,32.812-59.531-41.25-74.062-123.05-32.812-182.34,8.906-12.891,19.922-23.906,32.812-32.812h0ZM37.706,618.866c0-72.422,58.594-131.25,131.25-131.25,12.656,0,25.547,1.875,37.734,5.625-69.375,61.875-75.469,168.28-13.594,237.89,4.219,4.922,8.906,9.375,13.594,13.594-69.375,20.859-142.5-18.516-163.36-88.125-3.75-12.188-5.625-25.078-5.625-37.734h0Z"/>
  <path d="M549.346,432.776c1.406,1.406,2.812,2.344,4.453,3.281,7.266,3.984,16.172,2.578,22.031-3.281l196.88-196.88c53.906-53.906,53.906-141.33,0-195.23-42.891-42.891-108.98-52.734-162.66-24.141-9.141,4.922-12.656,16.172-7.734,25.312.469.938.938,1.641,1.641,2.578l29.062,37.734-47.812,63.75c-4.688,6.328-4.922,15-.703,21.562l29.062,43.359-45.469,45.469c-4.922,4.922-6.797,12.422-4.453,19.219l16.641,49.688-11.484,28.828-6.328-31.875c-.469-2.344-1.406-4.688-2.812-6.797l-30.469-45.938,30.469-45.938c4.453-6.562,4.219-15.234-.703-21.562l-45-60,60-45c8.203-6.328,10.078-18.047,3.75-26.25-.469-.703-1.172-1.406-1.641-2.109l-28.125-28.125c-53.906-53.906-141.33-53.906-195.23,0s-53.906,141.33,0,195.23l196.635,197.116Z"/>
  <path d="M660.675,902.926l-65.156-27.891,14.766-14.766c17.578-17.578,27.422-41.484,27.422-66.328v-100.08c0-10.312-8.438-18.75-18.75-18.75h-37.5c-51.797,0-93.75,41.953-93.75,93.75v25.078c0,24.844,9.844,48.75,27.422,66.328l14.766,14.766-65.156,27.891c-31.406,13.359-52.969,42.891-56.25,76.875l-14.297,143.44,37.266,3.75,14.297-143.44c2.109-20.391,15-37.969,33.75-46.172l83.203-35.625,83.203,35.625c18.75,7.969,31.875,25.781,33.75,46.172l14.297,143.44,37.266-3.75-14.297-143.44c-3.281-33.984-24.844-63.516-56.25-76.875l-.002.002Z"/>
  <path d="M273.016,124.566l-20.625-31.172c-75.703,50.391-138.28,118.12-182.34,197.58l32.812,18.047c41.016-74.062,99.375-137.34,170.16-184.45l-.007-.005Z"/>
  <path d="M93.256,797.926l-33.516,16.875c60.938,121.41,163.83,216.8,289.69,268.36l14.297-34.688c-117.42-48.047-213.52-137.11-270.47-250.55v.003Z"/>
  <path d="M761.925,1048.516l14.297,34.688c118.59-48.984,217.27-136.64,279.38-249.14l-32.812-18.047c-58.125,105-150.23,186.8-260.86,232.5h-.005Z"/>
  <path d="M1022.506,309.256l32.812-18.047c-44.062-79.453-106.64-147.42-182.34-197.58l-20.625,31.172c70.781,46.875,129.14,110.16,170.16,184.45l-.007.005Z"/>
</svg>