<?xml version="1.0" encoding="UTF-8"?>
<svg id="Layer_1" data-name="Layer 1" xmlns="http://www.w3.org/2000/svg" viewBox="0 0 764.04 971.774">
  <path d="M123.6,690.676l-23.231,33.632c-7.886,11.416-8.274,25.505-2.902,37.191l-6.074,8.794c-7.673,11.108-10.599,24.582-8.166,37.884.62,3.391-.064,7.02-2.088,9.952L3.349,930.744c-3.73,5.4-4.363,12.254-1.807,18.122s8.051,10.119,14.539,10.954l83.022,11.771c7.057,1.001,14.026-2.161,17.969-7.87l56.373-81.611c2.025-2.931,5.023-4.962,8.568-5.476,13.303-2.433,24.868-9.94,32.541-21.048l6.074-8.794c12.831.887,25.871-4.462,33.756-15.879l23.231-33.632c22.265,6.036,46.946-1.982,60.906-22.192L754.128,173.416c17.583-25.456,11.143-60.668-14.313-78.251l-123.419-85.251c-25.456-17.583-60.668-11.143-78.251,14.313L122.652,625.736c-13.853,20.056-12.616,45.977.804,64.818l.145.122ZM473.342,184.354l154.273,106.564-287.729,416.547-154.273-106.564L473.342,184.354ZM648.928,260.064l-154.273-106.564,21.313-30.855,154.273,106.564-21.313,30.855ZM223.791,809.555l-92.564-63.939,21.313-30.855,92.564,63.939-21.313,30.855ZM183.96,834.227c-2.025,2.931-5.023,4.962-8.568,5.476-13.303,2.433-24.868,9.94-32.541,21.048l-7.14,10.336-41.511-5.886,17.796-25.763c7.673-11.108,10.599-24.582,8.166-37.884-.62-3.391.064-7.02,2.088-9.952l3.09-4.474,61.709,42.626-3.091,4.473ZM92.977,932.953l-41.511-5.886,18.755-27.152,41.511,5.886-18.755,27.152ZM307.929,753.729c-5.861,8.485-17.599,10.632-26.084,4.771l-123.419-85.251c-8.485-5.861-10.632-17.599-4.771-26.084l10.656-15.427,154.273,106.564-10.656,15.427ZM569.262,45.49c5.861-8.485,17.599-10.632,26.084-4.771l123.419,85.251c8.485,5.861,10.632,17.599,4.771,26.084l-31.969,46.282-154.273-106.564,31.969-46.282Z"/>
</svg>