<?xml version="1.0" encoding="UTF-8"?>
<svg width="1200pt" height="1200pt" version="1.1" viewBox="0 0 1200 1200" xmlns="http://www.w3.org/2000/svg">
 <path d="m600 259.69c25.922 0 46.922-21 46.922-46.922v-93.844c0-12.469-4.9219-24.234-13.781-33.141-8.8594-8.8594-20.625-13.781-33.141-13.781-25.922 0-46.922 21-46.922 46.922v93.844c0 25.922 21 46.922 46.922 46.922zm-23.531-140.76c0-12.938 10.547-23.531 23.531-23.531 6.2344 0 12.141 2.3906 16.547 6.8438 4.4531 4.4531 6.8438 10.312 6.8438 16.547v93.844c0 12.938-10.547 23.531-23.531 23.531-12.938 0-23.531-10.547-23.531-23.531v-93.844z"/>
 <path d="m365.63 304.45c9.375 9.375 21.609 14.062 33.844 14.062s24.609-4.6875 33.938-13.922c18.609-18.703 18.609-49.219 0-67.781l-68.391-68.391c-9-9-21-14.062-33.844-14.062s-25.078 5.1562-33.938 14.062c-18.609 18.703-18.609 49.219 0 67.781l68.391 68.391zm-51.844-119.62c4.5469-4.5469 10.922-7.0781 17.391-7.0781s12.703 2.5312 17.297 7.0781l68.391 68.391c9.4688 9.4688 9.4688 25.078 0 34.688-9.6094 9.4688-25.219 9.4688-34.688 0l-68.391-68.391c-9.4688-9.4688-9.4688-25.078 0-34.688z"/>
 <path d="m846.47 474.37c-6.7031-1.0781-13.312-1.7812-18.938-2.0625-8.5312-0.9375-17.766-1.3125-27.938-1.3125-10.219 0-19.547 0.46875-27.469 1.3125-6.2344 0.375-12.609 1.0781-19.312 2.0625-24.844 3.4688-48.703 9.8438-71.531 18.609l7.9219-7.9219 30.234-30c28.547-28.547 28.547-75 0-103.55-13.922-13.781-32.391-21.375-51.938-21.375s-37.922 7.5469-52.078 21.375l-15.234 15.234-15.234-15.234c-28.547-28.453-75.234-28.453-104.06 0-13.781 13.922-21.469 32.297-21.469 51.703 0 19.453 7.6875 37.781 21.609 51.844l38.062 37.781c-22.781-8.7656-46.688-15.141-71.297-18.609-6.7031-1.0781-13.312-1.7812-18.938-2.0625-8.5312-0.9375-17.766-1.3125-27.938-1.3125-10.219 0-19.547 0.46875-27.469 1.3125-6.2344 0.375-12.609 1.0781-19.312 2.0625-160.55 22.781-281.76 162.61-281.76 325.08 0 181.22 147.37 328.55 328.55 328.55 72.141 0 142.45-24.234 199.45-67.922 57 43.688 127.45 67.922 199.45 67.922 181.22 0 328.55-147.37 328.55-328.55 0-162.47-121.08-302.29-281.53-325.08zm-349.08-35.859c-9.4688-9.6094-14.625-22.078-14.625-35.297s5.1562-25.547 14.625-35.062c19.547-19.453 51.375-19.453 70.922 0l21.234 21.141c5.8594 5.8594 15.375 5.8594 21.234 0l21-21c9.6094-9.375 22.219-14.625 35.531-14.625s26.062 5.1562 35.531 14.531c19.453 19.453 19.453 51 0 70.312l-30.141 29.859-0.14062 0.14062-64.547 64.312c-0.9375 0.70312-1.9219 1.4531-2.8594 2.1562-1.6875 1.2188-3.375 2.5312-4.9219 3.7031-2.625-2.0625-5.1562-4.0781-7.7812-6l-94.781-94.219zm95.297 597.94c-54.844 44.531-121.31 68.156-192.14 68.156-168.24 0-305.06-136.78-305.06-305.06 0-150.94 112.45-280.69 261.71-301.92 6.1406-0.9375 11.625-1.5469 17.766-1.9219 7.6875-0.84375 16.078-1.2188 25.688-1.2188s17.766 0.375 26.062 1.3125c5.5312 0.375 11.297 0.9375 17.391 1.9219 48.234 6.8438 92.859 24.609 132.71 52.922 0.23438 0.23438 0.60938 0.46875 0.84375 0.70312 1.3125 0.9375 2.5312 1.9219 3.7031 2.8594-14.766 12.938-28.312 27.469-40.453 43.078-29.156-20.297-62.625-34.219-97.453-40.219-27.375-5.0625-58.688-5.0625-85.781 0-117.94 20.625-203.53 122.63-203.53 242.63 0 135.84 110.53 246.37 246.37 246.37 54.609 0 106.31-17.531 149.53-50.625h0.14062c23.766-18.141 43.688-40.078 59.297-65.156 0-0.23438 0.23438-0.375 0.375-0.46875 24.141-38.859 36.938-83.766 36.938-129.71 0-43.312-11.531-85.688-33.141-123 11.297-17.156 24.844-32.391 40.453-45.844 33.469 50.062 51.234 108 51.234 168.84 0 65.062-20.156 127.08-58.312 179.29-15.609 21.609-34.078 40.922-54.703 57.609zm-65.391-420.24c-36.703 54.141-56.297 117.23-56.297 183.37 0 66.141 19.547 129.14 56.156 183.24-37.312 25.922-80.766 39.703-126.61 39.703-122.86 0-222.94-99.938-222.94-222.94 0-108.47 77.391-200.86 184.22-219.47 24.609-4.5469 52.688-4.5469 77.531 0 31.453 5.3906 61.547 17.859 87.844 36.141zm72.844 282.61c-15.375-30.703-23.531-64.688-23.531-99.234s8.1562-68.531 23.531-99.234c15.375 30.703 23.531 64.688 23.531 99.234s-8.1562 68.531-23.531 99.234zm72.844-282.61c26.297-18.234 56.391-30.703 87.938-36.141 24.609-4.5469 52.688-4.5469 77.531 0 106.69 18.609 184.08 110.86 184.08 219.47 0 122.86-99.938 222.94-222.94 222.94-45.844 0-89.297-13.781-126.61-39.703 36.609-54.141 56.156-117.14 56.156-183.24 0-66.141-19.547-129.14-56.297-183.37zm126.61 488.39c-66 0-128.16-20.766-180.71-59.625 14.766-13.078 28.312-27.609 40.453-43.078 41.297 28.781 89.531 44.156 140.29 44.156 135.84 0 246.37-110.53 246.37-246.37 0-120-85.547-222-203.39-242.53-27.375-5.0625-58.688-5.0625-85.781 0-38.625 6.7031-75.609 22.922-106.69 46.922l-0.14062 0.14063c-23.766 18.141-43.688 40.078-59.297 65.156 0 0.23437-0.23438 0.375-0.375 0.46875-24.141 38.859-36.938 83.766-36.938 129.71 0 43.312 11.531 85.688 33.141 123-11.297 17.156-24.844 32.391-40.453 45.844-33.469-50.062-51.234-108-51.234-168.84 0-65.062 20.156-127.08 58.312-179.29 15.609-21.469 33.844-40.781 54.234-57.234 0.375-0.23438 0.84375-0.60938 1.2188-0.84375 4.5469-3.8438 9.375-7.4531 14.156-10.922 0.23438-0.14062 0.46875-0.375 0.70312-0.60938 39.844-28.312 84.469-46.219 132.94-53.062 6.1406-0.9375 11.625-1.5469 17.766-1.9219 7.6875-0.84375 16.078-1.2188 25.688-1.2188s17.766 0.375 26.062 1.3125c5.5312 0.375 11.297 0.9375 17.391 1.9219 149.16 21.234 261.61 150.94 261.61 301.92 0 168.24-136.78 305.06-305.06 305.06z"/>
 <path d="m800.53 318.37c12.234 0 24.609-4.6875 33.844-14.062l68.391-68.391c9-9 14.062-21.141 14.062-33.844s-5.0625-25.078-14.062-34.078c-18.844-18.609-49.219-18.609-67.781 0l-68.391 68.391c-18.609 18.609-18.609 49.078 0 67.922 9.375 9.375 21.703 13.922 33.938 13.922zm-17.391-65.297 68.391-68.391c4.7812-4.7812 11.062-7.0781 17.297-7.0781s12.609 2.3906 17.391 7.0781c4.5469 4.5469 7.0781 10.922 7.0781 17.391s-2.5312 12.703-7.0781 17.297l-68.391 68.391c-9.4688 9.4688-25.078 9.4688-34.688 0-9.6094-9.6094-9.6094-25.219 0-34.688z"/>
</svg>
