<?xml version="1.0" encoding="UTF-8"?>
<svg id="Layer_1" data-name="Layer 1" xmlns="http://www.w3.org/2000/svg" viewBox="0 0 872.312 1000.541">
  <path d="M677.671,816.852c31.781,0,57.656-25.875,57.656-57.656s-25.875-57.656-57.656-57.656-57.656,25.875-57.656,57.656,25.875,57.656,57.656,57.656ZM677.671,723.477c19.688,0,35.719,16.031,35.719,35.719s-16.031,35.719-35.719,35.719-35.719-16.031-35.719-35.719,16.031-35.719,35.719-35.719Z"/>
  <path d="M263.711,102.472c3.516,0,7.078.141,10.594.375,82.266,5.672,148.36,77.203,153.94,166.4.375,4.031.516,8.203.516,12.375,0,6.047,4.922,10.969,10.969,10.969s10.969-4.922,10.969-10.969c0-110.91-83.906-201.1-186.98-201.1-6.047,0-10.969,4.922-10.969,10.969s4.922,10.969,10.969,10.969l-.008.012Z"/>
  <path d="M856.771,682.502c-21.703-50.859-32.812-109.88-33.047-175.36,0-6.047-.234-12.234-.75-18.422-4.547-62.719-32.297-121.64-77.953-165.89-45.562-44.297-105.33-70.172-168.32-72.938-3.797-.141-7.688-.234-11.484-.234-13.125,0-26.25,1.031-39.094,3.047-6.422-64.453-33.047-124.26-76.453-170.58C399.982,29.156,333.98,0,263.81,0,118.36,0,0,127.03,0,283.26c0,94.875,43.641,184.45,119.48,246.05,17.906,14.391,28.125,35.719,28.125,58.312v.375c0,34.453,26.109,62.812,59.531,66.375v182.21c0,16.031-7.547,31.781-20.812,43.266-16.266,14.109-24.844,34.453-23.578,55.875,2.016,34.312,29.25,61.969,63.469,64.453,1.641.141,3.422.234,5.062.234,11.484,0,22.453-2.906,32.297-8.062,9.844,5.156,20.953,8.062,32.297,8.062,1.781,0,3.422-.141,5.156-.234,34.172-2.531,61.453-30.141,63.469-64.453,1.125-21.469-7.453-41.766-23.578-55.875-13.266-11.484-20.812-27.234-20.812-43.266v-137.26c16.266,23.859,36.703,45.047,60.562,62.719,40.266,29.672,72.797,72.797,94.266,124.55,21.562,51.984,71.297,113.95,185.95,113.95,84.516-.141,159.47-57.797,183.56-140.81,16.406-27.516,25.969-58.688,27.609-90.188,1.5-30.141-3.516-59.297-15.281-86.812l-.002-.229ZM813.974,846.142c-27.891,44.391-76.219,74.203-129.56,74.203-75.703,0-126.79-31.406-151.92-93.469-2.25-5.531-8.719-8.344-14.25-6.047-.609.234-1.125.516-1.641,1.031-4.547,2.531-6.422,8.344-4.406,13.359,19.828,48.844,65.719,107.11,172.36,107.11,33.422,0,65.344-10.219,92.484-28.031-29.25,32.438-70.922,52.969-116.2,52.969-77.484,0-129.84-31.406-155.58-93.469-23.719-57.281-60.047-105.23-105.09-138.42-33.562-24.75-58.922-57.047-74.297-93.375,8.812-2.016,16.922-6.328,23.578-12.234,16.406,29.25,39,55.125,66.891,76.078,12.469,9.469,24.469,20.297,35.438,32.297,3.516,3.891,9.328,4.547,13.875,1.875.516-.375,1.125-.75,1.641-1.266,4.406-4.172,4.688-11.109.609-15.516-11.859-12.891-24.844-24.609-38.344-34.969-28.125-21.188-50.484-47.953-65.719-78.234,3.047-6.797,4.688-14.25,4.688-22.219,0-12,2.531-23.719,7.312-34.312,9.703,44.812,35.203,84.656,72.938,113.16,46.172,34.828,83.391,84.656,107.48,144.24,20.672,50.953,61.594,75.703,125.29,75.703,65.859,0,122.53-56.391,126.19-125.53.234-4.922.234-9.703,0-14.625-.891-15.516-4.312-30.422-10.453-44.672-8.344-19.828-15.375-40.641-20.953-62.438-10.078-39.984-15.281-83.156-15.516-129.1,0-4.547-.141-9.188-.516-13.875-.141-2.531-.375-4.922-.75-7.453-5.062-44.391-25.359-85.922-58.031-117.61-34.453-33.328-79.5-52.875-126.79-54.891-2.906-.141-5.812-.234-8.719-.234-18.047,0-35.578,2.531-52.219,7.172.891-4.781,1.406-9.703,1.641-14.625.75-6.938,1.125-13.875,1.125-20.953,18.797-4.172,38.625-5.906,58.781-5.062,114.05,5.062,206.39,94.641,214.87,208.45.375,5.297.609,10.734.609,16.031.234,69.891,12.234,133.22,35.719,188.26,9.703,22.734,13.875,47.062,12.609,72.047-.141,2.672-.375,5.156-.609,7.688v.141c-2.672,25.734-11.25,49.828-24.469,70.781l-.096.035ZM263.524,954.232c-2.672,0-5.438,1.031-7.594,3.141-7.453,7.078-17.156,10.453-27.375,9.844-17.391-1.406-31.922-16.031-32.953-33.562-.609-11.109,3.797-21.703,12.234-29.016,20.438-17.812,32.156-42.656,32.156-68.25v-192.79h46.922v192.79c0,25.594,11.719,50.484,32.297,68.25,8.438,7.312,12.891,17.906,12.234,29.016-1.031,17.531-15.516,32.156-32.953,33.562-10.359.609-20.062-2.766-27.375-9.844-2.156-2.156-4.922-3.141-7.688-3.141h.094ZM263.758,32.862c123.52,0,224.72,105.75,230.63,238.08.141,3.797.234,7.547.234,11.344v.891c0,3.656-.141,7.312-.375,10.969-.141,5.953-.516,11.859-1.125,17.672-.609,6.562-1.641,13.266-2.766,19.688-.141,1.125-.375,2.25-.609,3.281-.609,3.422-1.266,6.703-2.016,9.984-1.125,4.922-2.391,9.703-3.797,14.391-15.141,53.25-46.312,101.67-90.328,139.18-2.156,2.016-4.312,3.797-6.562,5.531-1.641,1.406-3.281,2.672-4.781,4.172-3.891,3.516-7.547,7.312-10.828,11.344-12.094,14.531-20.062,31.781-23.344,50.203v.141c-1.031,5.906-1.5,12-1.5,18.188,0,2.766-.375,5.438-1.031,8.062-1.125,4.922-3.422,9.328-6.422,13.125-5.062,6.328-12.375,10.734-20.812,12.234-1.781.234-3.516.375-5.438.375h-98.531c-18.656,0-33.797-15.141-33.797-34.172,0-32.672-14.625-63.188-40.266-83.906-68.25-55.266-107.25-135.61-107.25-220.4,0-138.05,103.45-250.31,230.76-250.31l-.047-.067ZM565.968,338.302c2.672,0,5.156,0,7.828.141,41.906,1.781,81.891,19.172,112.41,48.703,30.516,29.672,49.078,69,52.125,110.91.375,4.172.516,8.344.516,12.375.234,73.922,13.125,141.19,38.25,199.97,6.703,15.656,9.609,32.297,8.719,49.594-3.047,57.656-49.828,104.72-104.2,104.72-55.266,0-87.562-19.172-104.95-62.062-25.594-63.094-65.25-116.2-114.56-153.42-39.469-29.766-63.703-73.547-68.109-122.02,2.25-2.156,4.547-4.172,6.938-6.188,56.016-45.188,93.891-106.12,108.61-173.11,17.672-6.188,36.703-9.609,56.531-9.609l-.107-.004Z"/>
</svg>