<?xml version="1.0" encoding="UTF-8"?>
<svg id="Layer_1" data-name="Layer 1" xmlns="http://www.w3.org/2000/svg" viewBox="0 0 1084.122 825.145">
  <defs>
    <style>
      .cls-1 {
        fill-rule: evenodd;
      }
    </style>
  </defs>
  <path class="cls-1" d="M93.422,217.365c-33.422,0-60.469,27.094-60.469,60.234v320.02c0,33.422,27.094,60.469,60.469,60.469h84.375c9.047,0,16.359,7.312,16.359,16.359v98.062l128.29-110.48c2.906-2.672,6.844-3.891,10.734-3.891h288.05c33.422,0,60.469-27.094,60.469-60.469v-320.02c0-33.188-27.094-60.234-60.469-60.234l-527.808-.05ZM177.797,825.145c-2.438,0-4.641-.469-6.844-1.453-5.859-2.672-9.516-8.531-9.516-14.859v-117.33h-68.016c-51.469,0-93.422-41.953-93.422-93.422v-320.26c0-51.469,41.953-93.188,93.422-93.188h527.81c51.469,0,93.422,41.719,93.422,93.188v320.02c0,51.469-41.953,93.422-93.422,93.422h-281.95l-150.74,129.74c-3.188,2.672-6.844,4.125-10.734,4.125l-.011.017Z"/>
  <path class="cls-1" d="M905.852,640.785c-3.891,0-7.828-1.453-10.734-3.891l-150.74-129.74h-46.359c-9.047,0-16.359-7.312-16.359-16.359s7.312-16.359,16.359-16.359h52.453c3.891,0,7.828,1.453,10.734,3.891l128.29,110.48v-98.062c0-4.406,1.688-8.531,4.875-11.719s7.312-4.875,11.719-4.875h84.375c33.422,0,60.469-27.094,60.469-60.469V93.422c0-33.422-27.094-60.469-60.469-60.469H462.655c-33.422,0-60.469,27.094-60.469,60.469v107.58c0,9.047-7.312,16.359-16.359,16.359s-16.359-7.312-16.359-16.359v-107.58c0-51.469,41.953-93.422,93.422-93.422h527.81c51.469,0,93.422,41.953,93.422,93.422v320.26c0,51.469-41.953,93.422-93.422,93.422h-68.062v117.33c0,6.328-3.656,12.188-9.516,14.859-2.625.984-4.828,1.5-7.266,1.5l-.005-.008Z"/>
  <path class="cls-1" d="M438.502,356.865H152.422c-9.047,0-16.359-7.312-16.359-16.359s7.312-16.359,16.359-16.359h286.08c9.047,0,16.359,7.312,16.359,16.359,0,8.812-7.312,16.359-16.359,16.359h0Z"/>
  <path class="cls-1" d="M552.422,450.285H152.442c-9.047,0-16.359-7.312-16.359-16.359s7.312-16.359,16.359-16.359h400.26c9.047,0,16.359,7.312,16.359,16.359-.047,9.047-7.359,16.359-16.641,16.359h.002Z"/>
  <path class="cls-1" d="M552.422,548.345H152.442c-9.047,0-16.359-7.312-16.359-16.359s7.312-16.359,16.359-16.359h400.26c9.047,0,16.359,7.312,16.359,16.359-.047,9.047-7.359,16.359-16.641,16.359h.002Z"/>
</svg>