<?xml version="1.0" encoding="UTF-8"?>
<svg id="Layer_1" data-name="Layer 1" xmlns="http://www.w3.org/2000/svg" viewBox="0 0 1200.006 1200.386">
  <defs>
    <style>
      .cls-1 {
        fill: #fffdd4;
      }
    </style>
  </defs>
  <path d="M712.525,168.856c-84.562,0-165.61,33.609-225.37,93.375-59.812,59.766-93.375,140.86-93.375,225.37s33.562,165.61,93.375,225.42c59.766,59.766,140.81,93.328,225.37,93.328s165.61-33.562,225.37-93.328c59.766-59.812,93.375-140.86,93.375-225.42-.094-84.516-33.703-165.52-93.469-225.28-59.766-59.766-140.76-93.375-225.28-93.469l.004.004ZM712.525,768.856c-74.578,0-146.16-29.625-198.89-82.359-52.727-52.734-82.359-124.26-82.359-198.89s29.625-146.11,82.359-198.84c52.734-52.781,124.31-82.406,198.89-82.406s146.11,29.625,198.89,82.406c52.734,52.734,82.359,124.26,82.359,198.84-.094,74.578-29.766,146.06-82.453,198.79-52.734,52.734-124.22,82.359-198.79,82.453l-.006.006Z"/>
  <path d="M712.525,240.476c-10.359,0-18.75,8.391-18.75,18.75v18.75c0,10.312,8.391,18.75,18.75,18.75s18.75-8.438,18.75-18.75v-18.75c0-10.359-8.391-18.75-18.75-18.75h0Z"/>
  <path d="M550.995,352.606c7.406,7.219,19.172,7.219,26.531,0,3.516-3.516,5.484-8.25,5.484-13.219s-1.969-9.75-5.484-13.266l-13.266-13.266c-7.312-7.266-19.125-7.219-26.438.047-7.312,7.312-7.312,19.125-.047,26.484l13.22,13.22Z"/>
  <path d="M502.845,468.856h-18.75c-10.359,0-18.75,8.391-18.75,18.75s8.391,18.75,18.75,18.75h18.75c10.359,0,18.75-8.391,18.75-18.75s-8.391-18.75-18.75-18.75Z"/>
  <path d="M550.995,623.112l-13.219,13.266c-3.516,3.516-5.531,8.297-5.531,13.266s2.016,9.75,5.484,13.266c7.406,7.172,19.172,7.172,26.531,0l13.266-13.266c3.516-3.516,5.531-8.297,5.531-13.266,0-5.016-1.969-9.797-5.484-13.312s-8.297-5.484-13.266-5.484c-5.016,0-9.797,2.016-13.266,5.531h-.046Z"/>
  <path d="M712.525,679.033c-10.359,0-18.75,8.391-18.75,18.75v18.75c0,10.359,8.391,18.75,18.75,18.75s18.75-8.391,18.75-18.75v-18.75c0-10.359-8.391-18.75-18.75-18.75Z"/>
  <path d="M874.005,623.112c-3.516-3.516-8.25-5.484-13.266-5.531-4.969,0-9.75,1.969-13.266,5.531-3.516,3.516-5.484,8.297-5.484,13.266s1.969,9.75,5.531,13.266l13.266,13.266c7.359,7.172,19.125,7.172,26.484,0,3.516-3.516,5.484-8.297,5.484-13.266s-1.969-9.75-5.484-13.266l-13.265-13.266Z"/>
  <path d="M940.945,469.362h-18.75c-10.359,0-18.75,8.391-18.75,18.75s8.391,18.75,18.75,18.75h18.75c10.312,0,18.75-8.391,18.75-18.75s-8.438-18.75-18.75-18.75Z"/>
  <path d="M873.635,352.606c-7.359,7.219-19.125,7.219-26.484,0-3.516-3.516-5.531-8.25-5.531-13.219s2.016-9.75,5.531-13.266l13.266-13.266c7.312-7.312,19.172-7.312,26.484,0s7.312,19.172,0,26.531l-13.266,13.22Z"/>
  <polygon class="cls-1" points="259.025 324.002 79.025 475.002 12.025 747.895 117.025 1010.002 355.025 1173.002 612.025 1163.132 793.025 1065.002 882.025 931.002 583.058 937.002 370.025 799.927 259.025 617.582 259.025 324.002"/>
  <path d="M850.765,909.792c-104.48,34.453-218.06,28.875-318.61-15.703-100.59-44.625-180.98-125.02-225.56-225.56-44.625-100.59-50.203-214.18-15.75-318.66,4.875-14.766.047-31.031-12.094-40.828-12.094-9.75-29.016-11.062-42.469-3.188-75.562,44.625-137.48,109.08-179.06,186.37C15.691,569.521-3.903,656.754.644,744.414c9.422,188.53,142.03,364.5,319.74,428.26,105.05,37.312,219.79,36.938,324.61-1.078,104.81-38.016,193.13-111.28,249.79-207.24,7.875-13.453,6.609-30.375-3.188-42.469-9.797-12.141-26.016-16.922-40.828-12.094h-.003ZM458.085,1162.533c-127.69-6.562-246.32-67.922-325.5-168.37-79.125-100.45-111.05-230.16-87.516-355.87,23.484-125.68,100.12-235.13,210.19-300.19-37.5,113.34-31.453,236.53,16.922,345.66,48.328,109.08,135.56,196.31,244.69,244.64,109.12,48.328,232.36,54.328,345.66,16.828-41.156,69.75-100.59,126.84-171.89,165.14-71.297,38.297-151.74,56.344-232.55,52.172l-.006-.01Z"/>
  <path d="M397.205,108.842l-6.234,38.156c-1.172,7.078,1.828,14.203,7.688,18.328,5.906,4.125,13.594,4.547,19.875,1.078l31.5-17.391,31.5,17.391c6.281,3.375,13.969,2.953,19.875-1.078,5.859-4.125,8.859-11.25,7.688-18.328l-6.234-38.156,26.203-26.859c4.922-5.016,6.609-12.375,4.359-19.031-2.203-6.703-7.969-11.531-14.953-12.609l-35.438-5.438-16.031-34.125c-3.094-6.562-9.703-10.781-16.969-10.781s-13.875,4.219-16.969,10.781l-16.031,34.125-35.438,5.438h-.047c-6.938,1.078-12.703,5.906-14.906,12.609-2.25,6.656-.562,14.016,4.359,19.031l26.204,26.859ZM432.596,80.483c6.188-.938,11.484-4.922,14.109-10.547l3.328-7.031,3.328,7.031h-.047c2.672,5.625,7.969,9.609,14.156,10.547l9.281,1.406-7.312,7.5v.047c-4.172,4.219-6.047,10.219-5.109,16.078l1.547,9.375-6.75-3.75-.047.047c-5.625-3.141-12.469-3.141-18.141,0l-6.75,3.75,1.547-9.375v-.047c.938-5.859-.938-11.859-5.109-16.078l-7.312-7.5,9.282-1.453Z"/>
  <path d="M1199.025,747.942c-2.203-6.656-7.969-11.531-14.953-12.609l-35.438-5.438-16.031-34.172v.047c-3.094-6.562-9.703-10.781-16.969-10.781s-13.875,4.219-16.969,10.781l-16.031,34.172-35.438,5.438v-.047c-6.984,1.078-12.75,5.953-14.953,12.609-2.25,6.656-.562,14.016,4.359,19.031l26.203,26.859-6.234,38.156c-1.172,7.078,1.828,14.203,7.688,18.328,5.906,4.125,13.594,4.547,19.875,1.078l31.5-17.391,31.5,17.391c6.281,3.375,13.969,3,19.875-1.078,5.859-4.125,8.859-11.25,7.688-18.328l-6.234-38.156,26.203-26.859c4.922-5.016,6.609-12.375,4.359-19.031h0ZM1134.994,774.427h.047c-4.172,4.266-6.047,10.219-5.109,16.125l1.547,9.375-6.75-3.75c-5.672-3.141-12.516-3.141-18.188,0l-6.75,3.75,1.547-9.375c.938-5.906-.938-11.859-5.109-16.125l-7.312-7.5,9.281-1.406v-.047c6.188-.938,11.484-4.875,14.156-10.547l3.328-7.031,3.328,7.031h-.047c2.625,5.672,7.922,9.609,14.109,10.547l9.281,1.406-7.358,7.547Z"/>
  <path d="M146.555,180.243l-2.766,16.969c-.516,3.141.797,6.328,3.422,8.156s6.047,2.016,8.812.469l14.016-7.734,14.016,7.734h-.047c2.812,1.5,6.234,1.312,8.859-.469,2.578-1.828,3.938-5.016,3.422-8.156l-2.766-16.969,11.625-11.953c2.203-2.203,2.953-5.484,1.969-8.438s-3.562-5.109-6.656-5.578l-15.75-2.391-7.125-15.188v-.047c-1.359-2.906-4.312-4.781-7.547-4.781s-6.188,1.875-7.547,4.781l-7.125,15.188-15.75,2.391v.047c-3.094.469-5.672,2.625-6.656,5.578s-.234,6.234,1.922,8.484l11.671,11.906Z"/>
  <path d="M1080.425,988.643l-15.75-2.391-7.125-15.188v-.047c-1.359-2.906-4.312-4.781-7.547-4.781s-6.188,1.875-7.547,4.781l-7.125,15.188-15.75,2.391v.047c-3.094.469-5.672,2.625-6.656,5.578s-.234,6.234,1.922,8.484l11.625,11.953-2.766,16.969.047-.047c-.516,3.141.797,6.328,3.422,8.156s6.047,2.016,8.812.469l14.016-7.734,14.016,7.734h-.047c2.812,1.5,6.234,1.312,8.859-.469,2.625-1.828,3.938-5.016,3.422-8.156l-2.766-16.969,11.625-11.953c2.203-2.203,2.953-5.484,1.969-8.438s-3.562-5.109-6.656-5.578h0Z"/>
  <path d="M712.525,335.263c-10.359,0-18.75,8.391-18.75,18.75v134.11c0,10.359,8.391,18.75,18.75,18.75s18.75-8.391,18.75-18.75v-134.11c0-10.359-8.391-18.75-18.75-18.75Z"/>
</svg>