<?xml version="1.0" encoding="UTF-8"?>
<svg xmlns="http://www.w3.org/2000/svg" viewBox="0 0 1200 1199.94">
  <defs>
    <style>
      .cls-1 {
        fill: #ffa80a;
      }
    </style>
  </defs>
  <g id="Layer_1" data-name="Layer 1">
    <path d="M599.97,0c331.36,0,600.03,268.61,600.03,599.97s-268.64,599.97-600.03,599.97S0,931.33,0,599.97,268.61,0,599.97,0ZM599.97,57.977C300.64,57.977,57.97,300.617,57.97,599.977s242.67,542,542,542,542.02-242.64,542.02-542S899.32,57.977,599.97,57.977h0Z"/>
    <path d="M579.07,130.934c-.109-11.371,9.07-20.688,20.465-20.77,11.371-.109,20.688,9.07,20.77,20.438l.602,51.672c.082,11.398-9.07,20.688-20.465,20.797-11.398.082-20.688-9.098-20.77-20.465l-.602-51.672Z"/>
    <path d="M253.6,283.214c-8.164-7.945-8.355-21.016-.383-29.207,7.945-8.164,21.016-8.355,29.18-.383l36.961,36.082c8.164,7.945,8.355,21.043.41,29.207-7.973,8.164-21.043,8.355-29.207.41l-36.961-36.109Z"/>
    <path d="M130.96,620.934c-11.398.082-20.715-9.098-20.797-20.465-.082-11.398,9.07-20.715,20.465-20.797l51.645-.602c11.398-.082,20.715,9.07,20.797,20.465.082,11.398-9.07,20.688-20.465,20.797l-51.645.602Z"/>
    <path d="M283.22,946.374c-7.945,8.164-21.016,8.356-29.18.41-8.191-7.945-8.355-21.043-.41-29.207l36.109-36.961c7.945-8.164,21.016-8.356,29.18-.383,8.191,7.945,8.355,21.016.41,29.18l-36.109,36.961Z"/>
    <path d="M620.93,1068.984c.082,11.371-9.07,20.688-20.465,20.77-11.398.082-20.688-9.07-20.77-20.465l-.602-51.645c-.109-11.398,9.07-20.688,20.438-20.797,11.398-.082,20.715,9.07,20.797,20.465l.602,51.672Z"/>
    <path d="M946.37,916.754c8.191,7.945,8.356,21.016.41,29.207-7.945,8.164-21.016,8.328-29.207.383l-36.934-36.082c-8.164-7.973-8.356-21.043-.41-29.207,7.945-8.164,21.016-8.356,29.207-.41l36.934,36.109Z"/>
    <path d="M1069,579.034c11.398-.082,20.688,9.07,20.797,20.465.082,11.398-9.098,20.688-20.465,20.797l-51.672.602c-11.371.082-20.688-9.098-20.77-20.465-.109-11.398,9.07-20.715,20.465-20.797l51.645-.602Z"/>
    <path d="M916.75,253.594c7.945-8.164,21.043-8.355,29.207-.41,8.164,7.945,8.356,21.016.41,29.207l-36.109,36.934c-7.945,8.191-21.016,8.355-29.207.41-8.164-7.945-8.356-21.016-.383-29.207l36.082-36.934Z"/>
    <path d="M579.07,130.934c-.109-11.371,9.07-20.688,20.465-20.77,11.371-.109,20.688,9.07,20.77,20.438l.602,51.672c.082,11.398-9.07,20.688-20.465,20.797-11.398.082-20.688-9.098-20.77-20.465l-.602-51.672Z"/>
  </g>
  <g id="Layer_2" data-name="Layer 2">
    <path d="M434.191,795.413c-3.863,4.219-10.41,4.492-14.602.629s-4.465-10.41-.602-14.602l137.51-149.46c-6.602-8.961-10.52-20.027-10.52-32,0-22.551,13.836-41.863,33.453-49.949l.246-263.569-.006-.007c0-11.371,9.234-20.605,20.605-20.605s20.633,9.234,20.633,20.605l-.246,263.629c13.207,5.453,23.727,16,29.207,29.18h127.443c11.426,0,20.688,9.289,20.688,20.715s-9.262,20.715-20.688,20.715h-127.443c-8.109,19.535-27.398,33.289-49.895,33.289-10.355,0-20.055-2.934-28.273-8"/>
    <path class="cls-1" d="M579.431,549.627c13.745-.074,27.488-.332,41.232-.499l.245-262.672c0-11.371-9.235-20.605-20.633-20.605s-20.605,9.234-20.605,20.605l.006.007-.246,263.165Z"/>
  </g>
</svg>