<?xml version="1.0" encoding="UTF-8"?>
<svg xmlns="http://www.w3.org/2000/svg" viewBox="0 0 1050.002 1000.021">
  <defs>
    <style>
      .cls-1 {
        fill: #fff;
      }

      .cls-2 {
        fill: #ff9600;
      }
    </style>
  </defs>
  <g id="Layer_1" data-name="Layer 1">
    <path d="M865.498,473.018c1.219-13.031,2.016-26.203,2.016-39.375l.047.047c-.047-115.08-45.75-225.37-127.13-306.71C659.055,45.652,548.71-.05,433.69,0,318.66,0,208.32,45.75,126.98,127.13,45.652,208.458-.05,318.81,0,433.87c.047,115.03,45.75,225.37,127.13,306.71,81.379,81.336,191.72,126.98,306.74,126.98,35.578-.047,71.062-4.547,105.56-13.359,41.438,79.781,119.81,133.78,209.16,144.05,89.391,10.266,177.98-24.562,236.44-92.859,58.453-68.344,79.172-161.29,55.172-247.97-23.953-86.672-89.438-155.76-174.71-184.4l.006-.004ZM433.868,830.068c-105.09,0-205.92-41.719-280.26-116.02-74.297-74.297-116.06-175.08-116.11-280.18-.047-105.09,41.719-205.92,116.02-280.26,74.297-74.297,175.08-116.11,280.18-116.11,105.09-.047,205.92,41.672,280.22,116.02,74.344,74.297,116.11,175.08,116.16,280.18,0,9.938-.516,19.922-1.266,29.812v-.047c-10.453-1.875-21-3.188-31.594-3.844.609-8.531.984-17.203.984-25.969v.047c.047-107.67-47.578-209.86-130.03-279.1-82.453-69.234-191.29-98.484-297.37-79.781-106.03,18.656-198.37,83.297-252.24,176.53l-.188.234c-.047.094-.047.234-.094.328l-.047-.047c-31.922,55.219-48.75,117.94-48.656,181.74v.234c-.094,110.95,50.438,215.9,137.26,285,86.859,69.141,200.48,94.828,308.63,69.797,2.344,10.406,5.344,20.672,8.953,30.75-29.672,7.078-60.047,10.688-90.516,10.688l-.038-.003ZM508.68,729.428c0,7.406.516,14.719,1.125,21.984v-.047c-18.797,4.547-37.969,7.359-57.234,8.484v-30.469c0-10.359-8.391-18.75-18.75-18.75s-18.75,8.391-18.75,18.75v30.469c-44.625-2.531-88.219-14.203-128.11-34.266l15.234-26.438c2.484-4.312,3.188-9.422,1.875-14.25-1.266-4.781-4.406-8.906-8.719-11.391s-9.422-3.141-14.25-1.875c-4.781,1.312-8.906,4.453-11.391,8.766l-15.188,26.344c-37.312-24.562-69.188-56.438-93.797-93.75l26.391-15.234v.047c8.953-5.203,12.047-16.688,6.844-25.641-5.156-8.953-16.594-12.047-25.594-6.844l-26.438,15.234c-20.062-39.891-31.734-83.484-34.266-128.11h30.469c10.359,0,18.75-8.391,18.75-18.75s-8.391-18.75-18.75-18.75h-30.469c2.484-44.578,14.156-88.219,34.312-128.06l26.391,15.234c9,5.156,20.438,2.109,25.641-6.891,5.156-8.953,2.109-20.438-6.891-25.594l-26.344-15.234c24.469-37.359,56.391-69.281,93.703-93.797l15.234,26.438v-.047c2.484,4.312,6.609,7.453,11.391,8.766,4.828,1.266,9.938.609,14.25-1.875s7.453-6.609,8.719-11.391c1.312-4.828.609-9.938-1.875-14.25l-15.281-26.438c39.938-20.109,83.531-31.781,128.16-34.312v30.516c0,10.359,8.391,18.75,18.75,18.75s18.75-8.391,18.75-18.75v-30.516c44.578,2.531,88.219,14.25,128.11,34.359l-15.234,26.438-.047-.047c-5.156,9-2.062,20.438,6.891,25.641,8.953,5.156,20.438,2.062,25.594-6.891l15.234-26.438h.047c37.359,24.516,69.281,56.438,93.75,93.797l-26.438,15.281h.047c-4.312,2.484-7.453,6.562-8.766,11.391-1.266,4.781-.609,9.891,1.875,14.203,5.203,9,16.641,12.047,25.641,6.891l26.484-15.281h-.047c20.156,39.891,31.875,83.484,34.359,128.11h-30.562c-10.359,0-18.75,8.391-18.75,18.75s8.391,18.75,18.75,18.75h30.562c-.141,2.438-.375,4.875-.562,7.266v.047c-68.109,5.016-131.81,35.625-178.31,85.594-46.5,50.016-72.422,115.73-72.516,184.03l-.004.047ZM415.08,393.758c-9.328,4.406-16.828,11.859-21.234,21.188h-101.25c-10.359,0-18.75,8.391-18.75,18.75s8.391,18.75,18.75,18.75h101.25c6.094,13.078,18.188,22.359,32.391,24.844,14.203,2.531,28.734-2.062,38.906-12.234,10.219-10.219,14.766-24.75,12.281-38.953-2.531-14.203-11.766-26.25-24.844-32.344h0M433.83,440.492c-2.766,0-5.203-1.688-6.281-4.219-1.031-2.531-.469-5.438,1.453-7.359,1.969-1.922,4.875-2.531,7.406-1.453,2.531,1.031,4.172,3.516,4.172,6.234,0,3.75-3.047,6.797-6.75,6.797h0Z"/>
  </g>
  <g id="Layer_4" data-name="Layer 4">
    <path class="cls-1" d="M778.693,992.064c-69.144,0-135.52-27.469-184.369-76.379-48.909-48.909-76.379-115.222-76.379-184.369s27.469-135.464,76.379-184.369c48.909-48.901,115.222-76.379,184.369-76.379s135.464,27.469,184.369,76.379c48.909,48.909,76.379,115.222,76.379,184.369-.052,69.144-27.574,135.408-76.484,184.313-48.858,48.858-115.121,76.379-184.257,76.432l-.007.003Z"/>
  </g>
  <g id="Layer_3" data-name="Layer 3">
    <g>
      <path d="M594.252,766.849c-5.617,0-10.829-.997-15.634-2.997-4.807-1.997-8.966-4.778-12.474-8.343-3.511-3.563-6.265-7.776-8.262-12.636-2-4.86-2.997-10.206-2.997-16.038,0-2.916.404-6.182,1.215-9.801.81-3.617,2.05-7.587,3.726-11.907,1.674-4.318,3.698-8.882,6.075-13.689,2.374-4.804,5.129-9.801,8.262-14.984l14.742-24.948h17.01l.648,1.62-17.82,29.97c-3.239,5.508-6.13,10.748-8.667,15.714-2.538,4.969-4.672,9.64-6.398,14.014-1.729,4.374-3.025,8.343-3.889,11.906l-3.888-16.686c2.051-3.347,4.266-6.29,6.643-8.829,2.374-2.536,4.94-4.67,7.694-6.399,2.754-1.726,5.643-3.021,8.667-3.888,3.022-.863,6.156-1.296,9.396-1.296,6.262,0,12.013,1.701,17.253,5.103,5.237,3.402,9.449,7.913,12.636,13.527,3.185,5.617,4.779,11.773,4.779,18.468,0,8.101-1.648,15.31-4.941,21.627-3.296,6.318-7.856,11.315-13.688,14.985-5.832,3.673-12.53,5.508-20.088,5.508ZM594.252,750.649c4.212,0,7.963-.997,11.259-2.996,3.293-1.998,5.885-4.805,7.775-8.425,1.889-3.617,2.835-7.748,2.835-12.393,0-3.994-.972-7.748-2.916-11.259-1.943-3.509-4.535-6.344-7.775-8.505-3.24-2.159-6.859-3.24-10.854-3.24-4.43,0-8.37,1.027-11.825,3.078-3.458,2.053-6.156,4.807-8.101,8.262-1.944,3.458-2.916,7.29-2.916,11.502,0,4.536.972,8.614,2.916,12.231,1.944,3.619,4.589,6.479,7.938,8.586,3.346,2.105,7.234,3.158,11.664,3.158Z"/>
      <path d="M678.166,768.469c-8.642,0-16.065-2.374-22.274-7.128-6.212-4.751-10.991-11.474-14.337-20.169-3.35-8.692-5.022-19.035-5.022-31.023s1.673-22.328,5.022-31.022c3.346-8.692,8.125-15.415,14.337-20.169,6.209-4.751,13.633-7.128,22.274-7.128s16.092,2.377,22.356,7.128c6.262,4.754,11.069,11.477,14.418,20.169,3.347,8.694,5.021,19.035,5.021,31.022s-1.675,22.331-5.021,31.023c-3.349,8.695-8.156,15.418-14.418,20.169-6.265,4.754-13.717,7.128-22.356,7.128ZM678.166,752.593c7.883,0,13.985-3.698,18.307-11.097,4.318-7.396,6.479-17.846,6.479-31.348s-2.161-23.947-6.479-31.347c-4.321-7.396-10.424-11.097-18.307-11.097s-13.987,3.7-18.306,11.097c-4.321,7.399-6.48,17.848-6.48,31.347s2.159,23.951,6.48,31.348c4.318,7.398,10.421,11.097,18.306,11.097Z"/>
      <path d="M793.671,768.469c-7.128,0-13.555-1.243-19.278-3.726-5.726-2.483-10.477-6.156-14.256-11.017l11.34-9.72c3.24,3.781,6.776,6.508,10.611,8.181,3.832,1.676,8.181,2.512,13.041,2.512,1.944,0,3.751-.243,5.427-.729,1.674-.486,3.132-1.215,4.374-2.187,1.24-.973,2.188-2.132,2.835-3.483.648-1.349.973-2.835.973-4.455,0-2.807-1.028-5.075-3.078-6.804-1.081-.755-2.782-1.593-5.104-2.511-2.323-.917-5.32-1.863-8.99-2.835-6.266-1.62-11.396-3.456-15.391-5.509-3.997-2.05-7.074-4.374-9.233-6.966-1.62-2.05-2.811-4.293-3.564-6.723-.757-2.43-1.134-5.104-1.134-8.02,0-3.563.782-6.829,2.349-9.801,1.564-2.969,3.727-5.561,6.48-7.775,2.754-2.213,5.994-3.914,9.72-5.104,3.726-1.188,7.695-1.782,11.907-1.782,3.994,0,7.963.542,11.907,1.62,3.94,1.081,7.586,2.647,10.935,4.698,3.347,2.053,6.156,4.482,8.424,7.29l-9.558,10.53c-2.053-2.051-4.293-3.86-6.724-5.428-2.43-1.564-4.888-2.779-7.371-3.645-2.485-.863-4.753-1.296-6.804-1.296-2.268,0-4.32.218-6.156.647-1.837.434-3.376,1.081-4.616,1.944-1.243.865-2.188,1.944-2.835,3.24-.648,1.296-.973,2.754-.973,4.374.106,1.404.458,2.729,1.054,3.969.592,1.243,1.43,2.296,2.511,3.159,1.187.865,2.969,1.782,5.346,2.754,2.374.972,5.399,1.891,9.072,2.754,5.399,1.405,9.854,2.943,13.365,4.617,3.508,1.676,6.29,3.592,8.343,5.751,2.159,2.053,3.67,4.43,4.536,7.128.863,2.701,1.296,5.726,1.296,9.072,0,4.859-1.377,9.208-4.131,13.041-2.754,3.834-6.455,6.831-11.098,8.99-4.645,2.159-9.828,3.24-15.552,3.24Z"/>
      <path d="M873.049,768.469c-8.748,0-16.498-1.863-23.247-5.589-6.751-3.726-12.043-8.829-15.876-15.309-3.835-6.48-5.751-13.933-5.751-22.356,0-6.695,1.078-12.798,3.24-18.306,2.159-5.509,5.156-10.287,8.991-14.337,3.832-4.051,8.424-7.182,13.77-9.396,5.347-2.212,11.15-3.321,17.415-3.321,5.508,0,10.637,1.054,15.391,3.159,4.751,2.106,8.882,4.997,12.393,8.667,3.509,3.673,6.209,8.02,8.1,13.041,1.889,5.022,2.779,10.505,2.674,16.443l-.162,7.128h-69.498l-3.727-13.284h58.807l-2.431,2.754v-3.888c-.323-3.564-1.514-6.748-3.563-9.559-2.053-2.807-4.645-5.021-7.776-6.642-3.134-1.62-6.535-2.43-10.206-2.43-5.832,0-10.747,1.108-14.742,3.32-3.996,2.215-7.021,5.455-9.071,9.721-2.053,4.268-3.078,9.532-3.078,15.795,0,5.94,1.24,11.097,3.726,15.471,2.483,4.374,5.994,7.751,10.53,10.125,4.536,2.377,9.773,3.564,15.714,3.564,4.212,0,8.125-.701,11.745-2.106,3.617-1.402,7.533-3.941,11.745-7.614l8.424,11.826c-2.592,2.592-5.751,4.86-9.477,6.804-3.727,1.944-7.67,3.483-11.826,4.617-4.159,1.135-8.237,1.701-12.231,1.701Z"/>
      <path d="M954.86,768.469c-7.885,0-14.932-1.944-21.142-5.832-6.211-3.888-11.125-9.178-14.741-15.876-3.62-6.695-5.428-14.2-5.428-22.518s1.808-15.82,5.428-22.519c3.616-6.695,8.53-11.987,14.741-15.876,6.21-3.888,13.257-5.832,21.142-5.832,7.558,0,14.443,1.539,20.654,4.617,6.21,3.078,10.936,7.265,14.176,12.555l-9.234,11.341c-1.729-2.483-3.943-4.752-6.642-6.805-2.701-2.05-5.564-3.67-8.586-4.859-3.025-1.188-5.941-1.782-8.748-1.782-5.185,0-9.802,1.271-13.852,3.807-4.05,2.539-7.265,6.022-9.639,10.449-2.377,4.43-3.564,9.396-3.564,14.904s1.24,10.448,3.727,14.822c2.482,4.374,5.776,7.857,9.882,10.449,4.104,2.592,8.639,3.889,13.607,3.889,2.916,0,5.752-.486,8.506-1.458,2.754-.973,5.427-2.431,8.019-4.374,2.592-1.944,5.022-4.318,7.29-7.128l9.234,11.34c-3.458,4.859-8.399,8.856-14.823,11.987-6.427,3.132-13.097,4.698-20.007,4.698Z"/>
    </g>
  </g>
  <g id="Layer_2" data-name="Layer 2">
    <path class="cls-2" d="M452.617,395.785v-161.376c0-16.511-8.391-29.884-18.75-29.884s-18.75,13.373-18.75,29.884v161.376"/>
  </g>
</svg>