<?xml version="1.0" encoding="UTF-8"?>
<svg id="Layer_1" xmlns="http://www.w3.org/2000/svg" version="1.1" viewBox="0 0 1056.2 649.7">
  <!-- Generator: Adobe Illustrator 29.2.1, SVG Export Plug-In . SVG Version: 2.1.0 Build 116)  -->
  <defs>
    <style>
      .st0 {
        fill: #f8ff6e;
      }

      .st1 {
        fill: none;
        stroke: #000;
        stroke-linecap: round;
        stroke-linejoin: round;
        stroke-width: 11px;
      }
    </style>
  </defs>
  <g>
    <path d="M61.3,342.3V0h51.8l124.7,202.9-24.9-.5L339,0h48.9v342.3h-52.8v-140.3c0-29.3.7-55.7,2.2-79.2,1.5-23.5,4-46.8,7.6-69.9l6.8,18.1-112,173.1h-32.3L98.9,72.9l5.4-20c3.6,21.8,6.1,44.3,7.6,67.2,1.5,23,2.2,50.3,2.2,81.9v140.3h-52.8Z"/>
    <path d="M586.5,347.2c-25.1,0-47.5-5.8-67.2-17.4-19.7-11.6-35.3-27.4-46.7-47.4-11.4-20-17.1-42.9-17.1-68.7s5.7-48.7,17.1-68.7c11.4-20,27-35.9,46.7-47.4,19.7-11.6,42.1-17.4,67.2-17.4s47,5.8,66.7,17.4c19.7,11.6,35.3,27.4,46.7,47.4,11.4,20,17.1,43,17.1,68.7s-5.7,48.7-17.1,68.7c-11.4,20-27,35.9-46.7,47.4-19.7,11.6-42,17.4-66.7,17.4ZM586.5,301.2c15.3,0,29-3.8,41.1-11.5,12.1-7.7,21.5-18.1,28.4-31.3,6.8-13.2,10.1-28.1,9.8-44.7.3-16.9-2.9-32-9.8-45.2s-16.3-23.5-28.4-31.1c-12.1-7.5-25.8-11.2-41.1-11.2s-29.1,3.8-41.3,11.5c-12.2,7.7-21.8,18.1-28.6,31.3-6.8,13.2-10.1,28.1-9.8,44.7-.3,16.6,2.9,31.5,9.8,44.7,6.8,13.2,16.4,23.6,28.6,31.3,12.2,7.7,26,11.5,41.3,11.5Z"/>
    <path d="M771.8,342.3V85.6h50.4v52.8l-8.8,5.9c3.3-11.4,9.6-21.9,19.1-31.5,9.5-9.6,20.7-17.4,33.7-23.5,13-6,26.4-9,40.1-9,19.6,0,35.9,3.8,48.9,11.5,13,7.7,22.8,19.3,29.3,35,6.5,15.6,9.8,35.4,9.8,59.2v156.5h-50.4v-153.1c0-14.7-2-26.8-5.9-36.4-3.9-9.6-9.9-16.6-18.1-21-8.2-4.4-18.3-6.3-30.3-5.6-9.8,0-18.8,1.6-26.9,4.6-8.2,3.1-15.2,7.4-21.3,13-6,5.5-10.8,12-14.2,19.3-3.4,7.3-5.1,15.2-5.1,23.7v155.5h-50.4,0Z"/>
  </g>
  <rect class="st0" x="152.8" y="383.4" width="153.4" height="260.8"/>
  <rect class="st1" x="5.5" y="494.9" width="149.3" height="149.3"/>
  <path d="M80.4,478.2c-5,0-9.6-.7-13.9-2-4.3-1.3-8.1-3.3-11.6-6-3.5-2.7-6.6-6-9.3-9.9l9.7-11.2c4.3,6.2,8.4,10.4,12.4,12.8s8.6,3.6,14.1,3.6,6.4-.5,9.1-1.6c2.7-1.1,4.9-2.5,6.5-4.3s2.4-4,2.4-6.3-.3-3.1-.8-4.5-1.3-2.7-2.4-3.8c-1.1-1.1-2.5-2.2-4.2-3.2-1.7-1-3.7-1.8-6-2.6s-4.9-1.4-7.9-1.9c-4.7-1-8.9-2.2-12.4-3.8-3.5-1.6-6.5-3.6-8.8-5.9-2.4-2.4-4.1-5.1-5.3-8.1s-1.7-6.4-1.7-10.2.8-7.1,2.4-10.3,3.9-5.9,6.7-8.2c2.8-2.3,6.2-4.1,10.1-5.4,3.9-1.3,8-1.9,12.5-1.9s9.1.6,13,1.8c3.9,1.2,7.5,3,10.5,5.5,3.1,2.4,5.6,5.4,7.6,8.9l-10,9.9c-1.8-2.9-3.7-5.3-5.9-7.3s-4.6-3.5-7.2-4.5c-2.6-1-5.4-1.5-8.4-1.5s-6.4.5-9,1.6c-2.6,1.1-4.5,2.5-6,4.4s-2.2,4.1-2.2,6.7.3,3.5,1.1,5.1,1.8,2.9,3.2,4.1,3.4,2.2,5.9,3.2,5.4,1.7,8.8,2.4c4.8,1.1,9.1,2.4,12.9,4s7,3.5,9.6,5.7,4.6,4.7,6,7.4c1.4,2.7,2,5.7,2,8.8,0,5.9-1.4,11-4.1,15.3-2.7,4.3-6.6,7.6-11.6,9.9-5,2.3-11,3.5-17.9,3.5h0Z"/>
  <rect class="st1" x="154.8" y="494.9" width="149.3" height="149.3"/>
  <path d="M185.5,476.9v-92.2h14l33.6,54.6h-6.7c0-.1,34-54.6,34-54.6h13.2v92.2h-14.2v-37.8c0-7.9.2-15,.6-21.3s1.1-12.6,2-18.8l1.8,4.9-30.2,46.6h-8.7l-29.2-46.1,1.4-5.4c1,5.9,1.6,11.9,2,18.1.4,6.2.6,13.5.6,22.1v37.8h-14.2,0Z"/>
  <rect class="st1" x="304.1" y="494.9" width="149.3" height="149.3"/>
  <path d="M371.3,476.9v-78.5h-25.8v-13.7h66.6v13.7h-26.6v78.5h-14.2Z"/>
  <rect class="st1" x="453.5" y="494.9" width="149.3" height="149.3"/>
  <path d="M495.1,476.9l-29.4-92.2h15.1l17.8,57.7c.5,1.4,1,3.1,1.4,4.9.4,1.9.8,3.8,1.2,5.7s.7,3.7,1,5.4c.3,1.7.6,3,.9,4.1h-3.8c1.3-4.8,2.4-8.4,3.1-10.9.7-2.5,1.3-4.5,1.8-5.9.4-1.4.8-2.5,1.2-3.5l16.6-41.6h12.8l16.1,41.6c.9,2.1,1.7,4.2,2.3,6.3.7,2.1,1.3,4.1,1.8,6.2.5,2.1,1.1,4.2,1.7,6.5l-3.4.9c.4-2.4.8-4.2,1-5.6.2-1.4.4-2.5.6-3.4s.3-1.7.5-2.6c.2-.8.5-1.9.9-3.2s1-3.1,1.7-5.4l17.5-57.3h15.3l-29.3,92.2h-9.9l-24.3-57.7,1.2.5-23.4,57.1h-9.6,0Z"/>
  <rect class="st1" x="602.8" y="494.9" width="149.3" height="149.3"/>
  <path d="M669.9,476.9v-78.5h-25.8v-13.7h66.6v13.7h-26.6v78.5h-14.2Z"/>
  <rect class="st1" x="752.1" y="494.9" width="149.3" height="149.3"/>
  <path d="M800,476.9v-92.2h14.2v92.2h-14.2ZM806.3,398.4v-13.7h53.5v13.7h-53.5ZM806.3,437.6v-13.7h47.5v13.7h-47.5Z"/>
  <rect class="st1" x="901.4" y="494.9" width="149.3" height="149.3"/>
  <path d="M976.3,478.2c-5,0-9.6-.7-13.9-2-4.3-1.3-8.1-3.3-11.6-6s-6.6-6-9.3-9.9l9.8-11.2c4.3,6.2,8.4,10.4,12.4,12.8,3.9,2.4,8.6,3.6,14.1,3.6s6.4-.5,9.1-1.6c2.7-1.1,4.9-2.5,6.5-4.3s2.4-4,2.4-6.3-.3-3.1-.8-4.5-1.3-2.7-2.4-3.8c-1.1-1.1-2.5-2.2-4.2-3.2-1.7-1-3.7-1.8-6-2.6s-4.9-1.4-7.9-1.9c-4.7-1-8.9-2.2-12.4-3.8-3.5-1.6-6.5-3.6-8.8-5.9s-4.1-5.1-5.3-8.1c-1.1-3-1.7-6.4-1.7-10.2s.8-7.1,2.4-10.3c1.6-3.2,3.9-5.9,6.7-8.2,2.9-2.3,6.2-4.1,10.1-5.4,3.9-1.3,8-1.9,12.5-1.9s9.1.6,13,1.8c4,1.2,7.5,3,10.6,5.5,3.1,2.4,5.6,5.4,7.6,8.9l-10,9.9c-1.7-2.9-3.7-5.3-5.9-7.3-2.2-2-4.6-3.5-7.2-4.5-2.6-1-5.4-1.5-8.4-1.5s-6.4.5-9,1.6c-2.6,1.1-4.5,2.5-6,4.4s-2.2,4.1-2.2,6.7.3,3.5,1,5.1c.7,1.5,1.8,2.9,3.2,4.1s3.4,2.2,5.9,3.2c2.4.9,5.4,1.7,8.8,2.4,4.8,1.1,9.1,2.4,12.9,4s7,3.5,9.6,5.7c2.6,2.2,4.6,4.7,6,7.4,1.4,2.7,2,5.7,2,8.8,0,5.9-1.4,11-4.1,15.3s-6.6,7.6-11.6,9.9c-5,2.3-11,3.5-17.9,3.5h0,0Z"/>
  <path d="M283.9,516.8c-3.7-3.7-9.8-3.7-13.5,0l-39.2,39.2-39.2-39.2c-3.7-3.7-9.8-3.7-13.5,0s-3.7,9.8,0,13.5l39.2,39.2-39.2,39.2c-3.7,3.7-3.7,9.8,0,13.5s9.8,3.7,13.5,0l39.2-39.2,39.2,39.2c3.7,3.7,9.8,3.7,13.5,0s3.7-9.8,0-13.5l-39.2-39.2,39.2-39.2c3.7-3.7,3.7-9.8,0-13.5h0Z"/>
</svg>