<?xml version="1.0" encoding="UTF-8"?>
<svg id="Layer_1" xmlns="http://www.w3.org/2000/svg" version="1.1" viewBox="0 0 1102.7 1022.7">
  <!-- Generator: Adobe Illustrator 29.2.1, SVG Export Plug-In . SVG Version: 2.1.0 Build 116)  -->
  <path d="M269.4,214.7c-28,0-50.7-22.7-50.7-50.7V50.7c0-28,22.7-50.7,50.7-50.7s50.7,22.7,50.7,50.7v113.3c0,28-22.7,50.7-50.7,50.7h0Z"/>
  <path d="M829.4,214.7c-28,0-50.7-22.7-50.7-50.7V50.7c0-28,22.7-50.7,50.7-50.7s50.7,22.7,50.7,50.7v113.3c1.3,28-22.7,50.7-50.7,50.7h0Z"/>
  <path d="M1009.3,133.3c36,0,65.3,29.3,65.3,65.3v732c0,36-29.3,65.3-65.3,65.3H90.7c-36,0-65.3-29.3-65.3-65.3V198.7c0-36,29.3-65.3,65.3-65.3h78.7v34.7c0,54.7,44,98.7,98.7,98.7s98.7-44,98.7-98.7v-34.7h364v34.7c0,54.7,44,98.7,98.7,98.7s98.7-44,98.7-98.7v-34.7h81.3M1009.3,106.7h-105.3v61.3c0,40-32,72-72,72s-72-32-72-72v-61.3h-418.7v61.3c0,40-32,72-72,72s-72-32-72-72v-61.3h-105.3C41.3,106.7,0,148,0,198.7v732c0,50.7,41.3,92,92,92h918.7c50.7,0,92-41.3,92-92V198.7c0-50.7-42.7-92-93.3-92h0Z"/>
  <path d="M65.4,294.7h966.7v26.7H65.4v-26.7Z"/>
  <path d="M589.4,496h-76c-9.3,0-17.3-8-17.3-17.3v-76c0-9.3,8-17.3,17.3-17.3h76c9.3,0,17.3,8,17.3,17.3v76c0,9.3-8,17.3-17.3,17.3h0Z"/>
  <path d="M733.4,496h-76c-9.3,0-17.3-8-17.3-17.3v-76c0-9.3,8-17.3,17.3-17.3h76c9.3,0,17.3,8,17.3,17.3v76c0,9.3-8,17.3-17.3,17.3h0Z"/>
  <path d="M877.4,496h-76c-9.3,0-17.3-8-17.3-17.3v-76c0-9.3,8-17.3,17.3-17.3h76c9.3,0,17.3,8,17.3,17.3v76c0,9.3-8,17.3-17.3,17.3h0Z"/>
  <path d="M1021.3,496h-76c-9.3,0-17.3-8-17.3-17.3v-76c0-9.3,8-17.3,17.3-17.3h76c9.3,0,17.3,8,17.3,17.3v76c0,9.3-8,17.3-17.3,17.3h0Z"/>
  <path d="M158.7,645.3h-76c-9.3,0-17.3-8-17.3-17.3v-76c0-9.3,8-17.3,17.3-17.3h76c9.3,0,17.3,8,17.3,17.3v76c0,9.3-8,17.3-17.3,17.3Z"/>
  <path d="M302.7,645.3h-76c-9.3,0-17.3-8-17.3-17.3v-76c0-9.3,8-17.3,17.3-17.3h76c9.3,0,17.3,8,17.3,17.3v76c-1.3,9.3-8,17.3-17.3,17.3Z"/>
  <path d="M446.7,645.3h-76c-9.3,0-17.3-8-17.3-17.3v-76c0-9.3,8-17.3,17.3-17.3h76c9.3,0,17.3,8,17.3,17.3v76c-1.3,9.3-8,17.3-17.3,17.3Z"/>
  <path d="M589.4,645.3h-76c-9.3,0-17.3-8-17.3-17.3v-76c0-9.3,8-17.3,17.3-17.3h76c9.3,0,17.3,8,17.3,17.3v76c0,9.3-8,17.3-17.3,17.3Z"/>
  <path d="M733.4,645.3h-76c-9.3,0-17.3-8-17.3-17.3v-76c0-9.3,8-17.3,17.3-17.3h76c9.3,0,17.3,8,17.3,17.3v76c0,9.3-8,17.3-17.3,17.3Z"/>
  <path d="M877.4,645.3h-76c-9.3,0-17.3-8-17.3-17.3v-76c0-9.3,8-17.3,17.3-17.3h76c9.3,0,17.3,8,17.3,17.3v76c0,9.3-8,17.3-17.3,17.3Z"/>
  <path d="M1021.3,645.3h-76c-9.3,0-17.3-8-17.3-17.3v-76c0-9.3,8-17.3,17.3-17.3h76c9.3,0,17.3,8,17.3,17.3v76c0,9.3-8,17.3-17.3,17.3h0Z"/>
  <path d="M158.7,794.7h-76c-9.3,0-17.3-8-17.3-17.3v-76c0-9.3,8-17.3,17.3-17.3h76c9.3,0,17.3,8,17.3,17.3v76c0,9.3-8,17.3-17.3,17.3h0Z"/>
  <path d="M302.7,794.7h-76c-9.3,0-17.3-8-17.3-17.3v-76c0-9.3,8-17.3,17.3-17.3h76c9.3,0,17.3,8,17.3,17.3v76c-1.3,9.3-8,17.3-17.3,17.3h0Z"/>
  <path d="M446.7,794.7h-76c-9.3,0-17.3-8-17.3-17.3v-76c0-9.3,8-17.3,17.3-17.3h76c9.3,0,17.3,8,17.3,17.3v76c-1.3,9.3-8,17.3-17.3,17.3h0Z"/>
  <path d="M589.4,794.7h-76c-9.3,0-17.3-8-17.3-17.3v-76c0-9.3,8-17.3,17.3-17.3h76c9.3,0,17.3,8,17.3,17.3v76c0,9.3-8,17.3-17.3,17.3h0Z"/>
  <path d="M733.4,794.7h-76c-9.3,0-17.3-8-17.3-17.3v-76c0-9.3,8-17.3,17.3-17.3h76c9.3,0,17.3,8,17.3,17.3v76c0,9.3-8,17.3-17.3,17.3h0Z"/>
  <path d="M877.4,794.7h-76c-9.3,0-17.3-8-17.3-17.3v-76c0-9.3,8-17.3,17.3-17.3h76c9.3,0,17.3,8,17.3,17.3v76c0,9.3-8,17.3-17.3,17.3h0Z"/>
  <path d="M1021.3,794.7h-76c-9.3,0-17.3-8-17.3-17.3v-76c0-9.3,8-17.3,17.3-17.3h76c9.3,0,17.3,8,17.3,17.3v76c0,9.3-8,17.3-17.3,17.3h0Z"/>
  <path d="M158.7,944h-76c-9.3,0-17.3-8-17.3-17.3v-76c0-9.3,8-17.3,17.3-17.3h76c9.3,0,17.3,8,17.3,17.3v76c0,9.3-8,17.3-17.3,17.3h0Z"/>
  <path d="M302.7,944h-76c-9.3,0-17.3-8-17.3-17.3v-76c0-9.3,8-17.3,17.3-17.3h76c9.3,0,17.3,8,17.3,17.3v76c-1.3,9.3-8,17.3-17.3,17.3h0Z"/>
  <path d="M446.7,944h-76c-9.3,0-17.3-8-17.3-17.3v-76c0-9.3,8-17.3,17.3-17.3h76c9.3,0,17.3,8,17.3,17.3v76c-1.3,9.3-8,17.3-17.3,17.3h0Z"/>
  <path d="M589.4,944h-76c-9.3,0-17.3-8-17.3-17.3v-76c0-9.3,8-17.3,17.3-17.3h76c9.3,0,17.3,8,17.3,17.3v76c0,9.3-8,17.3-17.3,17.3h0Z"/>
  <path d="M733.4,944h-76c-9.3,0-17.3-8-17.3-17.3v-76c0-9.3,8-17.3,17.3-17.3h76c9.3,0,17.3,8,17.3,17.3v76c0,9.3-8,17.3-17.3,17.3h0Z"/>
</svg>