<?xml version="1.0" encoding="UTF-8"?>
<svg id="Layer_1" data-name="Layer 1" xmlns="http://www.w3.org/2000/svg" viewBox="0 0 1081.877 1152">
  <path d="M634.924,216.892l46.547,12.516c3.516.938,6.328,3.75,7.266,7.266l12.516,46.547c6.703,24.938,28.594,41.719,54.422,41.719s47.719-16.781,54.422-41.719l12.516-46.547c.938-3.516,3.75-6.328,7.266-7.266l46.547-12.516c24.938-6.703,41.719-28.594,41.719-54.422s-16.781-47.719-41.719-54.422l-46.547-12.516c-3.516-.938-6.328-3.75-7.266-7.266l-12.516-46.547c-6.703-24.938-28.594-41.719-54.422-41.719s-47.719,16.781-54.422,41.719l-12.516,46.547c-.938,3.516-3.75,6.328-7.266,7.266l-46.547,12.516c-24.938,6.703-41.719,28.594-41.719,54.422s16.781,47.719,41.719,54.422ZM646.877,152.533l46.547-12.516c19.312-5.203,34.594-20.438,39.797-39.797l12.516-46.547c1.781-6.609,6.984-7.594,9.938-7.594s8.156.984,9.938,7.594l12.516,46.547c5.203,19.312,20.438,34.594,39.797,39.797l46.547,12.516c6.609,1.781,7.594,6.984,7.594,9.938s-.984,8.156-7.594,9.938l-46.547,12.516c-19.312,5.203-34.594,20.438-39.797,39.797l-12.516,46.547c-1.781,6.609-6.984,7.594-9.938,7.594s-8.156-.984-9.938-7.594l-12.516-46.547c-5.203-19.312-20.438-34.594-39.797-39.797l-46.547-12.516c-6.609-1.781-7.594-6.984-7.594-9.938s.984-8.156,7.594-9.938h0Z"/>
  <path d="M1063.084,784.502c-21.234-23.438-53.438-29.906-82.031-16.5-70.078,32.859-148.36,47.25-226.55,41.625-228-16.453-408.74-201.1-420.42-429.47-3.562-70.031,8.25-137.72,35.203-201.28,12.469-29.391,4.734-61.688-19.688-82.266-24.609-20.719-58.031-22.828-85.078-5.391C98.91,197.86,0,378.98,0,575.72c0,317.76,258.42,576.28,576.1,576.28,202.08,0,391.92-108,495.47-281.81,16.406-27.516,12.984-61.969-8.531-85.734l.045.046ZM1032.053,846.611c-95.297,159.94-270,259.31-455.9,259.31-292.26,0-530.02-237.84-530.02-530.21,0-180.98,90.984-347.63,243.32-445.78,4.781-3.047,9.516-4.312,13.922-4.312,6.516,0,12.375,2.719,16.547,6.234,3.328,2.812,13.641,13.172,6.938,29.016-29.672,70.031-42.75,144.61-38.812,221.63,12.891,251.63,211.97,455.02,463.13,473.11,86.016,6.234,172.26-9.656,249.47-45.891,15.047-7.078,25.5,2.578,28.312,5.719,6.328,6.984,10.453,18.844,3.094,31.172v.002Z"/>
</svg>