<svg xmlns="http://www.w3.org/2000/svg" viewBox="0 0 32 40" x="0px" y="0px"><g data-name="Layer 45"><path d="M6,10H26a1,1,0,0,0,0-2H6a1,1,0,0,0,0,2Z"/><path d="M26,15H6a1,1,0,0,0,0,2H26a1,1,0,0,0,0-2Z"/><path d="M26,22H6a1,1,0,0,0,0,2H26a1,1,0,0,0,0-2Z"/></g><text x="0" y="47" fill="#000000" font-size="5px" font-weight="bold" font-family="'Helvetica Neue', Helvetica, Arial-Unicode, Arial, Sans-serif">Created by Anggara Putra</text><text x="0" y="52" fill="#000000" font-size="5px" font-weight="bold" font-family="'Helvetica Neue', Helvetica, Arial-Unicode, Arial, Sans-serif">from the Noun Project</text></svg>