<?xml version="1.0" encoding="UTF-8"?>
<svg id="Layer_1" data-name="Layer 1" xmlns="http://www.w3.org/2000/svg" viewBox="0 0 1200.094 683.297">
  <path d="M1154.395,372.89c6.844-2.297,12.938-6.844,16.922-13.688,7.078-12.141,5.297-27-4.547-36.938-43.219-43.688-104.62-68.625-168.84-68.625-15.375,0-30.703,1.453-45.469,4.312l-3.703-8.859h42c7.219,0,12.938-5.766,12.938-12.938V104.814c0-6.844-5.391-12.609-12.234-12.938l-41.625-2.297-33.469-34.219c-4.078-4.219-10.547-5.156-15.703-2.156l-31.219,17.859c-10.688-20.859-35.625-58.453-78.938-64.219-2.156-4.078-6.375-6.844-11.297-6.844h-64.312c-20.156,0-36.609,16.453-36.609,36.609s16.453,36.609,36.609,36.609h64.312c3.703,0,6.938-1.547,9.375-4.078,13.547,5.766,23.531,22.781,27.844,31.781-.375,2.391-.375,4.781.609,7.078l13.453,32.297-26.625,13.688c-13.781-17.391-35.062-28.547-58.922-28.547h-28.688c-50.859,0-100.92,9-148.55,26.766l-2.156.844c-20.391,7.547-37.453,20.766-50.391,37.219l-86.766-.047c-13.078,0-25.312-5.062-34.453-14.297l-45.141-45.141c-12.609-12.609-29.391-19.547-47.297-19.547h-118.31c-24.141,0-46.781,9.375-63.844,26.391-17.062,17.062-26.391,39.703-26.391,63.844,0,15.938,12.938,29.062,29.062,29.062h137.76c13.078,0,25.312,5.062,34.453,14.297l45.141,45.141c10.547,10.547,24,16.781,38.391,18.703l18.703,43.453c7.078,16.453,7.219,35.297.234,51.844l-17.625,42.234h-9.938c-21.938-80.859-96.375-138.61-181.08-138.61C84.23,307.593,0,391.827,0,495.373s84.234,187.78,187.78,187.78c84.703,0,159.14-57.703,181.22-138.47h25.078c9.469,0,17.766-4.453,23.297-11.297h193.31c53.766,0,101.62-34.078,119.3-84.703l9.844-28.312c20.625-8.859,35.156-28.781,36.844-52.219l68.625-111.23,28.922-12,14.391,34.453c-72.141,36.469-118.22,107.06-118.22,183.14,0,27.141,5.531,53.391,16.453,78.234,4.078,9.141,12.703,14.859,22.688,14.859h.234c8.625,0,16.312-4.453,21-11.859,12.703,47.156,43.547,88.547,86.625,113.86,28.547,16.781,61.312,25.688,94.781,25.688,60.938,0,118.45-29.766,153.61-79.547,22.453-31.781,34.312-69.234,34.312-108.23-.094-45.984-16.406-88.922-45.703-122.63h.004ZM998.075,279.515c57.234,0,112.08,22.219,150.37,60.938,2.062,2.062,1.453,4.219.609,5.625-.703,1.219-2.531,3.234-5.531,2.391l-2.391-.703c-11.297-3.141-20.859-6.938-30-12.141-.234-.141-1.922-1.078-2.062-1.219l-5.156-3s-.141,0-.141-.141h-.141c-3.469-1.922-6.938-3.703-10.547-5.391-1.547-.703-3.234-1.453-5.156-2.391-.375-.141-.609-.234-.938-.469-.141,0-.234-.141-.375-.141-.141-.141-.234-.141-.469-.234-.469-.234-.938-.375-1.453-.609-.844-.375-1.547-.703-2.391-.938l-1.547-.609c-1.688-.703-3.469-1.312-5.391-2.062h-.141c-2.062-.703-4.078-1.453-5.531-1.781-.141,0-.234-.141-.375-.141-2.062-.609-3.938-1.219-6-1.781-2.156-.609-4.312-1.219-6-1.547h-.281c-2.062-.469-4.078-.938-6.844-1.547l-5.531-1.078c-2.156-.375-4.312-.703-6.234-.938s-3.844-.609-4.781-.609l-.844-.141c-.375-.141-.703-.141-1.078-.141h-.234c-2.062-.234-4.078-.375-5.859-.469-3.141-.234-6.375-.375-9.609-.469-3.234-.141-6.469,0-9.469.141-2.297,0-4.547.141-6.469.375-2.156.141-4.312.234-6.469.469-2.062.234-4.078.469-6,.703-2.156.234-4.312.609-6,.938-2.062.375-4.219.703-6,1.078-.234,0-.469.141-.703.141l-12-28.688c11.484-2.109,23.25-3.422,35.156-3.422h.006ZM893.075,223.124l-47.062-112.92,14.391-6,153.37,368.06c1.688,3.938-.234,8.531-4.219,10.219-3.938,1.688-8.531-.234-10.219-4.219l-82.312-197.53v-.141l-23.949-57.47ZM975.481,488.204c5.391,12.938,17.859,20.766,31.078,20.766,4.312,0,8.625-.844,12.938-2.625,8.297-3.469,14.766-9.938,18.234-18.234s3.375-17.531-.141-25.781l-10.688-25.688c26.391,6.703,46.078,30.469,46.078,58.922,0,33.609-27.375,60.938-60.938,60.938s-60.938-27.375-60.938-60.938c0-13.453,4.312-26.062,12.141-36.375l12.236,29.015ZM952.325,432.516c-17.062,16.312-27,39.141-27,62.859,0,47.859,39,86.859,86.859,86.859s86.859-39,86.859-86.859c0-46.781-37.219-84.938-83.531-86.625l-12.938-31.078c3.234-.234,6.469-.469,9.703-.469,65.156,0,118.22,53.062,118.22,118.22s-53.062,118.22-118.22,118.22-118.22-53.062-118.22-118.22c0-36.609,17.297-71.156,45.703-93.375l12.565,30.468ZM977.778,222.986h-20.766v-107.16l20.766,1.078v106.082ZM904.934,80.676l26.297,26.859v99.141l-47.391-113.86,21.094-12.14ZM704.304,36.754c0-5.859,4.781-10.688,10.688-10.688h51.375v21.469h-51.375c-5.906-.094-10.688-4.922-10.688-10.781ZM792.242,43.129v-9.609c28.219,6.469,45.703,32.766,53.766,48.469l-8.391,3.469c-7.547-14.016-22.547-36-45.375-42.328h0ZM574.692,177.289l2.156-.844c44.766-16.688,91.781-25.078,139.55-25.078h28.688c27.141,0,49.219,22.078,49.219,49.219v12.938c0,38.625-31.453,69.938-69.938,69.938h-187.5c-11.766,0-21.234-9.609-21.234-21.375,0-37.547,23.672-71.625,59.062-84.797h-.003ZM469.782,457.369l22.219-53.156c-1.453,3.844-2.297,7.922-2.297,12.234v40.922h-19.922ZM417.376,457.369c-3-3.703-6.844-6.844-11.391-8.766l14.531-34.688c9.609-22.922,9.469-49.312-.375-72.141l-13.922-32.297h93c-1.547,4.219-2.531,8.766-2.531,13.547,0,.844.234,1.547.234,2.391l-55.219,131.86-24.327.094ZM536.856,309.529h105.7c7.453,0,13.547,6.141,13.547,13.547,0,7.453-6.141,13.547-13.547,13.547h-106.45c-7.453,0-13.547-6.141-13.547-13.547,0-7.453,6.141-13.547,13.547-13.547h.75ZM639.136,380.451h-114.61c-4.922,0-9-4.078-9-9s4.078-9,9-9h115.59c4.922,0,9,4.078,9,9s-4.078,9-9,9h-.98ZM497.996,393.763c-1.781,2.156-3.375,4.547-4.547,7.078l3.469-8.391c.375.469.703.938,1.078,1.312ZM515.621,416.451c0-5.531,4.453-10.078,9.938-10.078h113.39c5.531,0,10.078,4.547,10.078,10.078v22.688c-9.375,11.156-23.297,18.141-38.531,18.141h-95.062l.094-40.828h.094ZM680.621,313.371c-.375-1.312-.703-2.531-1.219-3.844h7.922c-2.25,1.219-4.547,2.297-6.703,3.844h0ZM312.361,226.465c-14.156-14.156-32.859-21.844-52.781-21.844H121.77c-1.781,0-3.141-1.312-3.141-3.141,0-17.156,6.703-33.375,18.844-45.609,12.141-12.141,28.312-18.844,45.469-18.844h118.31c10.922,0,21.234,4.312,29.062,12l45.141,45.141c14.156,14.156,32.859,21.844,52.781,21.844h71.297c-6.234,14.391-9.938,30-9.938,46.219,0,7.688,2.062,14.859,5.297,21.375h-108.61c-10.922,0-21.234-4.312-29.062-12l-44.86-45.141ZM187.761,657.385c-89.297,0-161.86-72.609-161.86-161.86s72.609-162,161.86-162c70.688,0,133.08,46.547,154.22,112.69h-18.844c-20.531-56.297-74.766-94.781-135.37-94.781-79.453,0-144.14,64.688-144.14,144.14s64.688,144.14,144.14,144.14c60.609,0,114.84-38.531,135.37-94.781h18.844c-21.141,65.906-83.531,112.45-154.22,112.45v.002ZM187.761,544.745h35.625c-10.219,7.453-22.547,11.625-35.625,11.625-33.609,0-60.938-27.375-60.938-60.938s27.375-60.938,60.938-60.938c12.938,0,25.312,4.219,35.531,11.625h-35.531c-27.234,0-49.312,22.078-49.312,49.312s22.219,49.312,49.312,49.312v.002ZM259.058,446.073c-16.219-23.297-42.703-37.547-71.297-37.547-47.859,0-86.859,39-86.859,86.859s39,86.859,86.859,86.859c28.547,0,55.219-14.297,71.297-37.547h36.141c-18.938,41.297-60.938,68.859-107.39,68.859-65.156,0-118.22-53.062-118.22-118.22s53.062-118.22,118.22-118.22c46.453,0,88.453,27.609,107.39,68.859l-36.141.098ZM394.058,518.823h-206.29c-12.844,0-23.391-10.453-23.391-23.391,0-12.844,10.453-23.391,23.391-23.391h206.29c2.297,0,4.219,1.922,4.219,4.219v38.391c0,2.25-1.828,4.172-4.219,4.172h0ZM610.668,507.526h-186.47v-24.234h186.37c32.297,0,61.219-20.531,71.859-51l4.781-13.922c7.078,3.703,15,6,23.391,6.703l-5.297,15.234c-13.875,40.219-51.938,67.219-94.641,67.219h.007ZM715.528,399.616c-19.688,0-35.625-15.938-35.625-35.625s15.938-35.625,35.625-35.625,35.625,15.938,35.625,35.625c.047,19.688-16.031,35.625-35.625,35.625ZM831.358,234.756c-2.531,1.078-4.688,2.859-6,5.156l-57.141,92.766c-6.469-10.781-15.938-19.453-27.375-24.609,45-7.922,79.312-47.156,79.312-94.312v-12.938c0-8.297-1.453-16.312-3.938-23.766l24.375-12.469,23.625,56.625-32.859,13.547ZM796.202,462.516c0-65.625,39.703-126.84,102.23-159.14l13.781,33c-3,1.922-6,3.844-8.391,5.625-1.547.938-3,2.062-3.703,2.625-1.453.938-2.859,2.062-3.844,3-2.391,1.922-4.781,3.844-6.938,5.766h-.141c-3.375,3-6.609,6-9.703,9.141-3.234,3.141-6.234,6.469-9.234,9.938-1.078,1.219-2.062,2.391-2.859,3.375-1.078,1.312-2.156,2.625-2.859,3.609-1.922,2.531-3.844,4.922-5.297,7.078-.938,1.312-1.922,2.766-2.625,3.844,0,0,0,.141-.141.141-1.688,2.391-3.375,5.062-4.922,7.547-1.781,3.141-3.609,6.141-4.922,8.766-.703,1.219-1.312,2.391-1.312,2.625-.234.375-.469.938-.844,1.547-.703,1.312-1.312,2.531-1.781,3.469-.703,1.453-1.312,2.766-1.547,3.469-.609,1.312-1.219,2.766-1.781,3.938-1.547,3.609-3,7.453-4.312,11.156l-1.688,4.922c-1.219,3.469-2.156,7.078-3,10.312-.375,1.219-.609,2.391-.938,3.703-.844,3.703-1.688,7.453-2.297,11.297-.375,2.062-.609,3.938-.938,6.234-.234,1.922-.469,3.844-.609,5.062,0,.141-.234,1.453-.234,1.547-.234,2.062-.375,4.219-.469,6.141-.234,3.703-.469,7.453-.469,11.156-1.922,5.062-8.531,21-14.625,35.297-9.047-21.094-13.594-43.266-13.594-66.188h.005ZM1144.522,588.756c-30.375,42.938-79.781,68.625-132.37,68.625-28.781,0-57-7.688-81.703-22.078-49.453-29.062-80.297-82.547-80.297-139.92,0-3.844.141-7.547.469-11.625.141-1.688.234-3.234.375-4.688,0-.234.234-1.547.234-1.688.141-1.453.375-2.859.609-4.688.234-1.781.469-3.469.844-5.156.609-3.234,1.219-6.469,2.062-9.609l.703-3.141c.703-3,1.547-5.859,2.766-9.375l1.312-3.844c1.078-3.141,2.391-6.375,3.703-9.609.375-.938.844-2.062,1.547-3.609.375-.844.703-1.547,1.312-2.766.375-.844.844-1.688,1.219-2.531.469-.844.609-.844.844-1.781.234-.469.469-.938,1.078-2.062,1.312-2.625,2.766-5.156,4.312-7.688,1.312-2.156,2.766-4.453,4.312-6.703.609-.938,1.312-1.922,2.297-3.375,1.312-2.062,2.859-3.938,4.688-6.375.609-.844,1.219-1.688,2.156-2.625l2.531-3c2.531-2.859,5.156-5.766,8.062-8.625,2.766-2.766,5.625-5.391,8.531-8.062,1.922-1.688,3.844-3.234,6.141-5.062.844-.703,1.688-1.312,3-2.297l3-2.156c1.312-.938,2.625-1.781,3.938-2.625l7.078,17.062c-38.062,26.766-61.453,70.781-61.453,117.7,0,79.453,64.688,144.14,144.14,144.14s144.14-64.688,144.14-144.14-64.688-144.14-144.14-144.14c-6.703,0-13.312.609-20.062,1.547l-7.078-17.156c.375,0,.609-.141.938-.141,1.547-.375,3.234-.469,4.922-.703s3.469-.469,5.297-.609c1.688-.141,3.375-.375,5.391-.375,1.781-.141,3.609-.234,5.391-.234,5.391-.141,10.922-.141,16.688.375,1.688.141,3.375.234,4.922.375h.609c.375,0,.844.141.938.141,1.453.141,2.859.375,4.547.609,1.781.234,3.469.469,5.297.844l5.625,1.078c1.781.375,3.609.844,5.391,1.219,1.688.375,3.234.844,5.156,1.312,1.781.469,3.469.938,5.297,1.547,1.688.469,3.375,1.078,5.156,1.688,1.453.469,2.859,1.078,4.688,1.781h.141l1.312.469c1.312.469,2.625,1.078,3.844,1.547,1.781.844,3.469,1.547,5.531,2.531,3.141,1.453,6.141,3,8.859,4.547l4.219,2.531c.469.375.938.609,1.312.844s.609.375.844.469c48,29.766,76.688,81.234,76.688,137.63.234,34.031-9.984,66.281-29.297,93.656l-.006-.004Z"/>
</svg>