<?xml version="1.0" encoding="UTF-8"?>
<svg id="Layer_1" data-name="Layer 1" xmlns="http://www.w3.org/2000/svg" viewBox="0 0 1000.049 952.768">
  <path d="M1000.04,453.895C933.946,146.025,748.46-62.205,563.86,16.835c-40.875,19.125-88.359,20.484-130.31,3.75-53.297-24.938-115.83-28.734-169.18-2.578C42.89,130.127,3.23,401.867,0,473.027c7.969,49.266,101.91,483.24,500.48,479.72,94.969-.469,180.1-24.984,253.13-72.891,13.219-9,.094-29.016-13.406-20.438-69,45.281-149.68,68.484-239.81,68.906-296.68,2.297-416.86-252-457.45-384.84,228.61,348.89,699.37,332.48,914.72,1.359-24.375,78.75-74.016,194.06-169.92,278.29-11.953,10.641,3.984,28.828,16.125,18.375,142.45-129.1,196.36-320.39,196.18-387.61l-.009-.003ZM274.88,40.085c47.25-23.25,102.56-19.031,149.63,3.234,48.141,19.266,102.7,17.672,149.72-4.312,152.29-66.938,309.24,101.95,379.31,333.42C831.62,169.787,493.88,31.687,218.35,214.407c-78.328,51.516-137.58,117.38-184.26,187.08C55.184,303.753,115.418,116.117,274.93,40.087l-.05-.002ZM893.54,333.715c-15.375,15.047-42.609,8.625-63.469,9.891-21.281,0-38.625-17.344-38.625-38.625v-63.516c41.719,28.547,75.375,60.938,102.09,92.25h.004ZM766.98,225.905v79.078c0,21.281-17.344,38.625-38.625,38.625h-37.688c-21.281,0-38.625-17.344-38.625-38.625v-129.42c43.219,12.609,81.375,30.141,114.94,50.344l-.002-.002ZM627.62,169.093v135.89c0,21.281-17.344,38.625-38.625,38.625h-37.688c-21.281,0-38.625-17.344-38.625-38.625v-150.37c41.531,1.031,79.828,6.141,114.98,14.484l-.042-.004ZM488.17,154.515v150.47c0,21.281-17.25,38.625-38.484,38.625h-37.828c-21.234,0-38.484-17.344-38.484-38.625v-134.44c35.438-9.516,73.688-15.281,114.84-16.031h-.044ZM348.91,177.812v127.18c0,21.281-17.344,38.625-38.625,38.625h-37.688c-22.5.094-40.125-19.312-38.625-41.625v-68.812c34.031-22.125,72.328-41.391,114.94-55.406l-.002.038ZM209.51,250.093v51.938c0,21.281-17.344,38.625-38.625,38.625-12.891-.844-44.484,2.953-55.734-4.641,25.828-28.875,57.281-58.828,94.359-85.922h0ZM969.96,477.433c-8.156,15.375-21.469,38.438-40.406,65.016-249.14-116.62-397.5-34.734-430.5-12.516-75.516-41.484-161.11-55.969-254.53-42.984-15.703,2.438-12.75,26.109,3.375,24.234,88.312-12.281,168.89,1.547,239.81,40.688v128.76c.188,15.891,24.188,16.172,24.469,0v-129.94c26.531-17.625,166.6-96.703,402.52,11.859-71.484,92.578-205.03,212.76-416.58,212.76-207.52,0-340.69-121.5-411.89-213.74,19.547-9.891,60.656-28.641,113.91-41.344,15.703-4.078,9.891-27.234-5.672-23.766-59.438,14.156-104.02,35.25-123.05,45.188-25.828-36.234-41.109-65.438-46.688-76.781,7.5-14.625,31.969-59.156,74.25-110.06,17.438,13.734,51.094,9.75,71.953,10.219,20.25,0,38.062-9.75,49.641-24.609,11.391,16.641,30.469,27.609,52.125,27.609h37.688c20.906,0,39.375-10.359,50.859-26.062,11.438,15.75,29.859,26.062,50.766,26.062h37.828c20.859,0,39.281-10.359,50.719-26.062,11.484,15.75,29.906,26.062,50.859,26.062h37.688c20.953,0,39.375-10.359,50.859-26.109,11.484,15.75,29.906,26.109,50.859,26.109h37.688c20.953,0,39.375-10.359,50.859-26.109,11.484,15.75,29.906,26.109,50.859,26.109,24.656-.234,59.531,4.078,78.938-15.422,31.359,40.172,51.047,76.641,61.312,98.109,4.078,8.578,3.938,18.562-.375,26.719h-.143Z"/>
  <path d="M682.48,558.005c50.531-.75,105.56,12.234,162,30.891,13.266.234,16.969-19.312,4.172-23.719-58.078-20.953-113.95-31.594-166.13-31.594-6.75,0-12.234,5.484-12.234,12.234s5.484,12.234,12.234,12.234l-.042-.046Z"/>
</svg>