<?xml version="1.0" encoding="UTF-8"?>
<svg id="Layer_1" data-name="Layer 1" xmlns="http://www.w3.org/2000/svg" viewBox="0 0 1111.268 1111.086">
  <path d="M1023.002,0H88.402C39.746,0,.136,39.562.136,88.266v561.28c0,48.656,39.562,88.266,88.266,88.266h934.6c48.656,0,88.266-39.562,88.266-88.266V88.266c0-48.656-39.562-88.266-88.266-88.266h0ZM977.955,338.21c25.688,23.156,52.359,43.594,78.328,61.781h-78.328v-61.781ZM977.955,444.43h88.875v88.875h-88.875v-88.875ZM1066.83,88.27v264.42c-108.42-79.641-166.82-159.47-187.4-255.14-2.578-12-14.297-19.734-26.391-17.062-12,2.578-19.641,14.391-17.062,26.391,16.266,75.75,52.969,136.78,97.5,186.89v399.56H177.947v-311.11c0-12.281-9.938-22.219-22.219-22.219s-22.219,9.938-22.219,22.219v17.766H55.181c105.52-73.969,217.74-180.74,228.32-355.55h651.42c5.484,48.281,26.25,90.609,44.953,128.53,3.141,6.375,6.234,12.656,9.188,18.844,3.797,7.969,11.766,12.656,20.062,12.656,3.188,0,6.469-.703,9.562-2.156,11.062-5.25,15.797-18.516,10.5-29.625-3-6.328-6.188-12.75-9.422-19.312-17.016-34.641-34.406-70.266-39.844-108.89h43.172c24.141,0,43.828,19.688,43.828,43.828l-.09-.04ZM44.53,444.48h88.875v88.875H44.53v-88.875ZM88.358,44.5h43.172c-5.484,38.578-22.828,74.25-39.844,108.89-3.234,6.562-6.375,12.984-9.422,19.312-5.297,11.109-.562,24.375,10.5,29.625,3.094,1.453,6.328,2.156,9.562,2.156,8.297,0,16.266-4.688,20.062-12.656,2.953-6.188,6-12.469,9.188-18.844,18.656-37.922,39.422-80.25,44.953-128.53h62.719c-7.641,120.05-67.359,214.78-194.63,308.26l-.047-264.42c0-24.141,19.688-43.828,43.828-43.828l-.041.035ZM44.53,649.61v-71.766h88.875v115.55h-45.047c-24.141,0-43.828-19.688-43.828-43.828v.044ZM1022.95,693.438h-45.047v-115.55h88.875v71.766c0,24.141-19.688,43.828-43.828,43.828v-.044ZM554.06,159.998c-115.22,0-208.87,93.703-208.87,208.87s93.703,208.87,208.87,208.87,208.87-93.703,208.87-208.87-93.703-208.87-208.87-208.87ZM554.06,533.308c-90.703,0-164.44-73.734-164.44-164.44s73.734-164.44,164.44-164.44,164.44,73.734,164.44,164.44-73.734,164.44-164.44,164.44ZM647.06,349.788l-133.31-80.016c-6.844-4.125-15.422-4.219-22.406-.281-6.938,3.938-11.25,11.344-11.25,19.312v159.98c0,8.016,4.266,15.375,11.297,19.312,3.375,1.922,7.172,2.906,10.922,2.906,3.938,0,7.922-1.078,11.438-3.188l133.31-80.016c6.703-4.031,10.781-11.25,10.781-19.031s-4.125-15.047-10.781-19.031v.053ZM524.48,409.6v-81.516l67.922,40.734-67.922,40.734v.048ZM1046.24,933.29h-95.109v-69.891c0-17.344-6.75-33.656-19.031-45.891-12.281-12.234-28.547-18.984-45.844-18.984h-101.34c-15.703,0-30.891,6.047-42.656,16.359-11.859-10.453-26.766-16.359-42.703-16.359h-101.34c-15.891,0-30.797,5.953-42.656,16.359-11.859-10.453-26.766-16.359-42.656-16.359h-101.34c-15.891,0-30.797,5.953-42.703,16.359-11.766-10.312-27-16.359-42.656-16.359h-101.34c-35.766,0-64.875,29.156-64.875,64.922v12.141c0,12.281,9.938,22.219,22.219,22.219s22.219-9.938,22.219-22.219v-12.141c0-11.297,9.188-20.484,20.438-20.484h101.34c5.391,0,10.641,2.203,14.438,6,3.844,3.844,6,9,6,14.484v69.891h-68.438c-15.938,0-30.844,5.953-42.703,16.359-11.812-10.453-26.719-16.359-42.656-16.359H64.828c-17.297,0-33.609,6.75-45.844,18.984-12.234,12.234-18.984,28.547-18.984,45.844v90.656c0,12.281,9.938,22.219,22.219,22.219s22.219-9.938,22.219-22.219v-90.656c0-5.438,2.156-10.594,6-14.438s9-6,14.438-6h128.02c5.484,0,10.594,2.156,14.438,6s6,9,6,14.438v90.656c0,12.281,9.938,22.219,22.219,22.219s22.219-9.938,22.219-22.219v-90.656c0-5.344,2.203-10.641,6-14.438,3.844-3.844,9-6,14.484-6h127.97c5.484,0,10.641,2.156,14.484,6s6,9,6,14.438v90.656c0,12.281,9.938,22.219,22.219,22.219s22.219-9.938,22.219-22.219v-90.656c0-5.438,2.156-10.594,6-14.438s9-6,14.438-6h128.02c5.438,0,10.594,2.156,14.438,6s6,9,6,14.438v90.656c0,12.281,9.938,22.219,22.219,22.219s22.219-9.938,22.219-22.219v-90.656c0-5.438,2.156-10.594,6-14.438s9-6,14.484-6h127.97c5.484,0,10.641,2.156,14.438,6,3.844,3.844,6,9.094,6,14.484v90.656c0,12.281,9.938,22.219,22.219,22.219s22.219-9.938,22.219-22.219v-90.656c0-5.438,2.156-10.594,6-14.484,3.844-3.844,8.953-6,14.438-6h128.02c5.438,0,10.594,2.156,14.438,6s6,9,6,14.438v90.656c0,12.281,9.938,22.219,22.219,22.219s22.219-9.938,22.219-22.219v-90.656c0-17.297-6.75-33.609-18.984-45.844-12.234-12.234-28.547-18.984-45.844-18.984l-.078-.047ZM448.92,949.649c-11.859-10.453-26.766-16.359-42.703-16.359h-15.094v-69.891c0-5.484,2.156-10.641,6-14.438,3.891-3.891,9-6,14.484-6h101.34c5.344,0,10.641,2.203,14.438,6,3.844,3.844,6,9,6,14.484v69.891h-41.766c-15.891,0-30.844,5.953-42.656,16.359l-.043-.046ZM662.24,949.649c-11.859-10.453-26.766-16.359-42.656-16.359h-41.766v-69.891c0-5.484,2.156-10.641,6-14.438,3.844-3.844,9.094-6,14.484-6h101.34c5.484,0,10.641,2.156,14.438,6,3.891,3.891,6,9,6,14.484v69.891h-15.094c-15.938,0-30.844,5.953-42.703,16.359l-.043-.046ZM875.56,949.649c-11.859-10.453-26.766-16.359-42.703-16.359h-68.438v-69.891c0-5.484,2.156-10.641,6-14.484,3.844-3.797,9.047-6,14.438-6h101.34c5.344,0,10.641,2.203,14.438,6,3.844,3.844,6,9,6,14.484v71.062c-11.578,2.062-22.219,7.359-31.125,15.234l.05-.046Z"/>
</svg>