<?xml version="1.0" encoding="UTF-8"?>
<svg width="1200pt" height="1200pt" version="1.1" viewBox="0 0 1200 1200" xmlns="http://www.w3.org/2000/svg">
 <path d="m449.34 186.36c-4.6367 0.46484-8.9336 2.6406-12.055 6.0977-3.1172 3.4609-4.8398 7.957-4.8281 12.617v51.344h-357.53c-4.9727 0.019532-9.7344 2.0117-13.234 5.543-3.5039 3.5312-5.4609 8.3086-5.4414 13.281v719.71c0.011719 4.957 1.9805 9.7031 5.4805 13.211 3.5 3.5039 8.2422 5.4844 13.195 5.5039h1050c4.9805 0.019532 9.7617-1.9414 13.293-5.4531 3.5312-3.5117 5.5195-8.2812 5.5312-13.262v-719.71 0.003906c0.019531-5-1.957-9.7969-5.4922-13.332-3.5352-3.5352-8.332-5.5117-13.332-5.4922h-357.39v-51.344h0.003907c-0.011719-4.9805-2-9.75-5.5312-13.262-3.5312-3.5078-8.3164-5.4688-13.293-5.4531h-297.58c-0.59766-0.027344-1.1953-0.027344-1.793 0zm20.617 37.535h260.08v102.69h-260.08zm-376.21 70.02h338.71v51.348c0.011719 4.9531 1.9805 9.6992 5.4805 13.207 3.5 3.5039 8.2461 5.4844 13.199 5.5039h297.58c4.9766 0.019531 9.7617-1.9414 13.293-5.4531s5.5195-8.2812 5.5312-13.258v-51.344h338.71v682.21h-1012.5zm273.23 167.61c-52.395 0-95.359 42.82-95.359 95.215 0 28.039 12.535 53.141 32.008 70.641-58.574 24.73-99.684 82.734-99.684 150.29v64.344l-0.003906 0.003906c0.019532 4.9492 1.9961 9.6875 5.4922 13.188 3.5 3.4961 8.2383 5.4727 13.188 5.4922h288.57c4.9727 0.019531 9.7461-1.9375 13.277-5.4414 3.5312-3.5039 5.5234-8.2656 5.543-13.238v-64.344c0-67.57-41.129-125.57-99.719-150.29 19.434-17.5 31.898-42.605 31.898-70.641 0-52.395-42.824-95.215-95.215-95.215zm286.52 26.039v0.003906c-6.6016 0.14062-12.645 3.7461-15.906 9.4883-3.2578 5.7422-3.2578 12.777 0 18.52 3.2617 5.7461 9.3047 9.3477 15.906 9.4922h323.33c6.6016-0.14453 12.645-3.7461 15.902-9.4922 3.2617-5.7422 3.2617-12.777 0-18.52-3.2578-5.7422-9.3008-9.3477-15.902-9.4883zm-286.52 11.461c32.125 0 57.715 25.59 57.715 57.715s-25.59 57.863-57.715 57.863-57.859-25.734-57.859-57.863c0-32.125 25.734-57.715 57.859-57.715zm284.58 143.41v0.003906c-6.5938 0.48828-12.441 4.4062-15.402 10.316-2.9609 5.9102-2.5977 12.941 0.95703 18.512 3.5547 5.5742 9.7812 8.8672 16.387 8.6719h323.33c6.5977-0.14844 12.633-3.7539 15.891-9.4961 3.2578-5.7422 3.2578-12.77 0-18.512-3.2578-5.7383-9.293-9.3438-15.891-9.4922h-323.33c-0.64453-0.035156-1.293-0.035156-1.9414 0zm-284.58 9.668c69.906 0 125.54 55.668 125.54 125.57v45.668h-251.07v-45.668c0-69.906 55.633-125.57 125.54-125.57zm286.52 145.05v0.003906c-4.9844-0.007812-9.7656 1.9688-13.289 5.4883-3.5273 3.5195-5.5078 8.2969-5.5078 13.281 0 4.9805 1.9805 9.7578 5.5078 13.281 3.5234 3.5195 8.3047 5.4922 13.289 5.4844h323.33c6.6992-0.007812 12.883-3.5859 16.23-9.3906 3.3438-5.8047 3.3438-12.949 0-18.754-3.3477-5.8008-9.5312-9.3789-16.23-9.3906z"/>
</svg>
