<?xml version="1.0" encoding="UTF-8"?>
<svg width="1200pt" height="1200pt" version="1.1" viewBox="0 0 1200 1200" xmlns="http://www.w3.org/2000/svg">
 <path d="m600 56.25c-300 0-543.75 243.75-543.75 543.75s243.75 543.75 543.75 543.75 543.75-243.75 543.75-543.75-243.75-543.75-543.75-543.75zm0 1050c-279.38 0-506.25-226.88-506.25-506.25s226.88-506.25 506.25-506.25 506.25 226.88 506.25 506.25-226.88 506.25-506.25 506.25z"/>
 <path d="m1008.8 493.12-135-76.875-30-15-52.5-30c-9.375-5.625-20.625-1.875-26.25 7.5s-1.875 20.625 7.5 26.25l35.625 20.625-18.75 33.75c-11.25 18.75-13.125 41.25-7.5 63.75 5.625 20.625 20.625 39.375 39.375 50.625 13.125 7.5 26.25 11.25 41.25 11.25 7.5 0 15-1.875 22.5-3.75 20.625-5.625 39.375-20.625 50.625-39.375l18.75-33.75 35.625 20.625c3.75 1.875 5.625 1.875 9.375 1.875 5.625 0 13.125-3.75 16.875-9.375 5.625-11.25 1.875-22.5-7.5-28.125zm-105 28.125c-5.625 11.25-15 18.75-28.125 22.5-11.25 3.75-24.375 1.875-35.625-3.75s-18.75-15-22.5-28.125c-3.75-11.25-1.875-24.375 3.75-35.625l18.75-33.75 80.625 45z"/>
 <path d="m408.75 457.5-18.75-33.75 35.625-20.625c9.375-5.625 13.125-16.875 7.5-26.25s-16.875-11.25-26.25-7.5l-50.625 31.875-46.875 26.25-118.12 67.5c-9.375 5.625-13.125 16.875-7.5 26.25 3.75 5.625 9.375 9.375 16.875 9.375 3.75 0 5.625 0 9.375-1.875l33.75-22.5 18.75 33.75c11.25 18.75 28.125 33.75 50.625 39.375 7.5 1.875 15 3.75 22.5 3.75 15 0 28.125-3.75 41.25-11.25 18.75-11.25 33.75-28.125 39.375-50.625s3.75-45-7.5-63.75zm-28.125 54.375c-3.75 11.25-11.25 22.5-22.5 28.125s-22.5 7.5-35.625 3.75c-11.25-3.75-22.5-11.25-28.125-22.5l-18.75-33.75 48.75-26.25 31.875-18.75 18.75 33.75c7.5 11.25 9.375 22.5 5.625 35.625z"/>
 <path d="m795 785.62c9.375-5.625 11.25-16.875 5.625-26.25s-16.875-11.25-26.25-5.625c-20.625 13.125-37.5 30-48.75 48.75-3.75 5.625-7.5 13.125-9.375 20.625-13.125-9.375-26.25-16.875-41.25-24.375-46.875-18.75-103.12-18.75-150 0-15 5.625-30 15-41.25 24.375-1.875-7.5-5.625-13.125-9.375-20.625-11.25-18.75-28.125-35.625-48.75-48.75-9.375-5.625-20.625-1.875-26.25 5.625-5.625 9.375-1.875 20.625 5.625 26.25 15 9.375 28.125 22.5 35.625 35.625 7.5 11.25 9.375 24.375 11.25 37.5v1.875c0 13.125-3.75 24.375-11.25 35.625-7.5 13.125-20.625 26.25-35.625 35.625-9.375 5.625-11.25 16.875-5.625 26.25 3.75 5.625 9.375 9.375 16.875 9.375 3.75 0 7.5 0 9.375-1.875 20.625-13.125 37.5-30 48.75-48.75 9.375-15 13.125-31.875 15-48.75 13.125-13.125 30-26.25 50.625-33.75 37.5-15 84.375-15 121.88 0 18.75 7.5 37.5 18.75 50.625 33.75 1.875 16.875 5.625 33.75 15 48.75 11.25 18.75 28.125 35.625 48.75 48.75 3.75 1.875 5.625 1.875 9.375 1.875 5.625 0 13.125-3.75 16.875-9.375 5.625-9.375 1.875-20.625-5.625-26.25-15-9.375-28.125-22.5-35.625-35.625-7.5-11.25-11.25-24.375-11.25-37.5s3.75-26.25 11.25-37.5c5.625-13.125 18.75-26.25 33.75-35.625z"/>
</svg>
