<?xml version="1.0" encoding="UTF-8"?>
<svg id="Layer_1" data-name="Layer 1" xmlns="http://www.w3.org/2000/svg" viewBox="0 0 1199.998 1031.347">
  <path d="M580.476,242.522c-.039-9.918-4.008-19.41-11.039-26.402-7.027-6.992-16.543-10.91-26.461-10.895h-37.5c-9.914-.016-19.43,3.902-26.461,10.895-7.031,6.992-11,16.484-11.039,26.402v37.297c.039,9.914,4.008,19.41,11.039,26.402,7.031,6.992,16.547,10.91,26.461,10.895h37.5c9.918.016,19.434-3.902,26.461-10.895,7.031-6.992,11-16.488,11.039-26.402v-37.297ZM505.476,279.819v-37.297h37.5l.023,37.297h-37.523Z"/>
  <path d="M730.476,242.522c-.039-9.918-4.008-19.41-11.039-26.402-7.027-6.992-16.543-10.91-26.461-10.895h-37.5c-9.914-.016-19.43,3.902-26.461,10.895-7.031,6.992-11,16.484-11.039,26.402v37.297c.039,9.914,4.008,19.41,11.039,26.402,7.031,6.992,16.547,10.91,26.461,10.895h37.5c9.918.016,19.434-3.902,26.461-10.895,7.031-6.992,11-16.488,11.039-26.402v-37.297ZM655.476,279.819v-37.297h37.5l.023,37.297h-37.523Z"/>
  <path d="M580.476,391.712c-.039-9.914-4.008-19.41-11.039-26.402-7.027-6.988-16.543-10.906-26.461-10.895h-37.5c-9.914-.012-19.43,3.906-26.461,10.895-7.031,6.992-11,16.488-11.039,26.402v37.297c.039,9.918,4.008,19.41,11.039,26.402s16.547,10.91,26.461,10.895h37.5c9.918.016,19.434-3.902,26.461-10.895,7.031-6.992,11-16.484,11.039-26.402v-37.297ZM505.476,429.009v-37.297h37.5l.023,37.297h-37.523Z"/>
  <path d="M730.476,391.712c-.039-9.914-4.008-19.41-11.039-26.402-7.027-6.988-16.543-10.906-26.461-10.895h-37.5c-9.914-.012-19.43,3.906-26.461,10.895-7.031,6.992-11,16.488-11.039,26.402v37.297c.039,9.918,4.008,19.41,11.039,26.402s16.547,10.91,26.461,10.895h37.5c9.918.016,19.434-3.902,26.461-10.895,7.031-6.992,11-16.484,11.039-26.402v-37.297ZM655.476,429.009v-37.297h37.5l.023,37.297h-37.523Z"/>
  <path d="M580.476,540.902c-.039-9.914-4.008-19.41-11.039-26.402-7.027-6.992-16.543-10.91-26.461-10.895h-37.5c-9.914-.016-19.43,3.902-26.461,10.895-7.031,6.992-11,16.488-11.039,26.402v37.297c.039,9.918,4.008,19.41,11.039,26.402s16.547,10.91,26.461,10.895h37.5c9.918.016,19.434-3.902,26.465-10.895,7.027-6.992,11-16.484,11.035-26.402v-37.297ZM505.476,578.199v-37.297h37.5l.023,37.297h-37.523Z"/>
  <path d="M730.476,540.902c-.039-9.914-4.008-19.41-11.039-26.402-7.027-6.992-16.543-10.91-26.461-10.895h-37.5c-9.914-.016-19.43,3.902-26.461,10.895-7.031,6.992-11,16.488-11.039,26.402v37.297c.039,9.918,4.008,19.41,11.039,26.402s16.547,10.91,26.461,10.895h37.5c9.918.016,19.434-3.902,26.465-10.895,7.027-6.992,11-16.484,11.035-26.402v-37.297ZM655.476,578.199v-37.297h37.5l.023,37.297h-37.523Z"/>
  <path d="M692.976,652.792h-37.5c-9.914-.016-19.43,3.902-26.461,10.895-7.031,6.992-11,16.488-11.039,26.402v37.297c.039,9.914,4.008,19.41,11.039,26.402s16.547,10.91,26.461,10.895h37.5c9.918.016,19.434-3.902,26.465-10.895,7.027-6.992,11-16.488,11.035-26.402v-37.297c-.035-9.914-4.008-19.41-11.035-26.402-7.031-6.992-16.547-10.91-26.465-10.895ZM655.476,727.386v-37.297h37.5l.023,37.297h-37.523Z"/>
  <path d="M187.456,590.592c.082-14.934-5.781-29.289-16.297-39.898-10.512-10.609-24.812-16.602-39.75-16.656-14.938-.055-29.281,5.836-39.871,16.367-10.59,10.535-16.555,24.848-16.582,39.781-.027,14.938,5.887,29.27,16.438,39.844,10.555,10.57,24.875,16.512,39.812,16.512,14.871.023,29.148-5.856,39.691-16.344,10.547-10.488,16.5-24.73,16.559-39.605h0ZM112.456,590.592c-.027-4.977,1.926-9.762,5.434-13.297,3.504-3.539,8.27-5.535,13.25-5.551,4.977-.02,9.758,1.941,13.289,5.453s5.52,8.281,5.527,13.262c.008,4.977-1.961,9.758-5.48,13.281-3.516,3.523-8.289,5.504-13.27,5.504-4.961.012-9.723-1.945-13.238-5.441-3.516-3.5-5.5-8.25-5.512-13.211h0Z"/>
  <path d="M1068.756,627.892c-72.371,0-131.25,56.297-131.25,125.49,0,52.195,65.48,146.82,94.484,186.16-93.273,30.496-242.11,54.5-433.05,54.5-51.48,0-99.887-1.758-145.01-4.902,30.816-42.473,89.828-130.29,89.828-179.81,0-69.195-58.879-125.49-131.25-125.49s-131.25,56.297-131.25,125.49c0,46.441,51.891,126.54,83.766,171.36-195.71-23.836-309.27-74.949-309.27-114.52,0-30.91,69.344-68.852,192.98-95.344,3.625-14.445,9.269-28.309,16.77-41.176-28.641,5.434-55.68,11.641-80.672,18.574,31.977-45.898,77.668-119.09,77.668-162.68,0-69.195-58.879-125.49-131.25-125.49S0,516.351,0,585.544c0,55.641,74.398,159.49,99.691,193.18-50.812,23.918-81.445,53.156-81.445,87.453.004,107.28,299.18,165.17,580.68,165.17,179.93,0,366.85-23.711,478.48-68.793,8.512-2.004,16.059-6.918,21.332-13.895,23.754-31.461,101.26-138.53,101.26-195.27,0-69.199-58.879-125.5-131.25-125.5l.008.003ZM37.556,585.552c0-48.711,41.973-88.195,93.75-88.195s93.75,39.488,93.75,88.195-93.75,172.88-93.75,172.88c0,0-93.75-124.17-93.75-172.88ZM318.806,809.332c0-48.711,41.973-88.195,93.75-88.195s93.75,39.488,93.75,88.195-93.75,172.88-93.75,172.88c0,0-93.75-124.17-93.75-172.88ZM1069.046,925.952l-.363.156c-2.602-3.461-93.625-124.71-93.625-172.72,0-48.711,41.973-88.195,93.75-88.195s93.75,39.488,93.75,88.195c0,47.352-88.574,165.99-93.512,172.56v.004Z"/>
  <path d="M1068.756,711.812c-14.82.082-29.004,6.039-39.434,16.566-10.434,10.527-16.262,24.762-16.207,39.582s5.984,29.016,16.492,39.465c10.508,10.453,24.734,16.305,39.555,16.277,14.82-.023,29.023-5.93,39.492-16.422,10.473-10.488,16.352-24.703,16.352-39.523-.059-14.871-6.012-29.113-16.559-39.602-10.543-10.488-24.82-16.367-39.691-16.344h0ZM1068.756,786.406c-4.941-.027-9.668-2.012-13.145-5.519-3.477-3.512-5.422-8.254-5.402-13.195.016-4.941,1.996-9.672,5.496-13.156,3.504-3.484,8.246-5.434,13.188-5.426,4.938.008,9.672,1.977,13.164,5.477,3.488,3.496,5.449,8.234,5.449,13.172-.012,4.961-1.996,9.711-5.512,13.207-3.516,3.5-8.277,5.457-13.238,5.441h0Z"/>
  <path d="M542.976,652.792h-37.5c-8.543.035-16.812,3.004-23.426,8.41,16.398,7.199,31.555,16.949,44.906,28.887h16.023l.008,16.211c11.676,13.789,20.953,29.438,27.449,46.297,6.422-6.824,10.012-15.836,10.039-25.211v-37.297c-.035-9.914-4.008-19.41-11.035-26.402-7.031-6.992-16.547-10.91-26.465-10.895h.001Z"/>
  <path d="M412.456,758.432c-14.82.082-29.004,6.039-39.434,16.566-10.434,10.527-16.262,24.762-16.207,39.582.055,14.82,5.984,29.016,16.492,39.465,10.508,10.453,24.734,16.305,39.555,16.277,14.82-.023,29.023-5.93,39.492-16.422,10.473-10.488,16.352-24.703,16.352-39.523-.059-14.871-6.012-29.113-16.559-39.602-10.543-10.488-24.82-16.367-39.691-16.344h0ZM412.456,833.026c-4.941-.027-9.668-2.012-13.145-5.519-3.477-3.512-5.422-8.254-5.402-13.195.016-4.941,1.996-9.672,5.496-13.156,3.504-3.484,8.246-5.434,13.188-5.426,4.938.008,9.672,1.977,13.164,5.477,3.488,3.496,5.449,8.234,5.449,13.172-.012,4.961-1.996,9.711-5.512,13.207-3.516,3.5-8.277,5.457-13.238,5.441h0Z"/>
  <path d="M786.726,876.572c4.961.012,9.723-1.945,13.238-5.441,3.516-3.496,5.5-8.25,5.512-13.207v-109.33c33.812,3.539,65.371,7.891,94.566,12.859.133-12.367,1.727-24.68,4.746-36.672-31.723-5.316-65.016-9.777-99.312-13.324V167.937c-.039-9.918-4.008-19.41-11.039-26.402-7.027-6.992-16.543-10.91-26.461-10.895h-18.75v-37.297c-.039-9.914-4.008-19.41-11.035-26.402-7.031-6.992-16.547-10.91-26.465-10.895h-9.375V18.749c0-6.699-3.574-12.891-9.375-16.238s-12.949-3.348-18.75,0-9.375,9.539-9.375,16.238v37.297h-9.375c-9.914-.016-19.43,3.902-26.461,10.895-7.031,6.992-11,16.488-11.039,26.402v37.297h-37.5v-37.297c-.039-9.914-4.008-19.41-11.035-26.402-7.031-6.992-16.547-10.91-26.465-10.895h-9.375V18.749c0-6.699-3.574-12.891-9.375-16.238s-12.949-3.348-18.75,0-9.375,9.539-9.375,16.238v37.297h-9.375c-9.914-.016-19.43,3.902-26.461,10.895-7.031,6.992-11,16.488-11.039,26.402v37.297h-18.75c-9.914-.016-19.43,3.902-26.461,10.895-7.031,6.992-11,16.484-11.039,26.402v479.79c12.453-1.492,25.031-1.566,37.5-.219V167.938h337.5v689.99c.016,4.957,1.996,9.711,5.516,13.207,3.516,3.496,8.277,5.453,13.234,5.441v-.004ZM542.976,130.642h-56.25v-37.297h56.25v37.297ZM711.726,130.642h-56.25v-37.297h56.25v37.297Z"/>
</svg>