<?xml version="1.0" encoding="UTF-8"?>
<svg id="Layer_1" data-name="Layer 1" xmlns="http://www.w3.org/2000/svg" viewBox="0 0 1139.03 542.082">
  <defs>
    <style>
      .cls-1 {
        fill: #ff1f1f;
        fill-rule: evenodd;
      }
    </style>
  </defs>
  <path d="M416.402,214.485c25.199,0,45.602-20.398,45.602-45.602s-20.398-45.602-45.602-45.602-45.602,20.398-45.602,45.602c-1.195,25.199,20.402,45.602,45.602,45.602Z"/>
  <path d="M303.602,401.685c-13.199-3.602-24-12-30-22.801-7.199-12-8.398-25.199-4.801-37.199l13.199-49.199c9.602-34.801,32.398-62.398,62.398-78l-120-94.801c-7.199-6-18-6-25.199,0l-78,61.199v-25.199c0-6-4.801-10.801-10.801-10.801h-22.797c-6,0-10.801,4.801-10.801,10.801v58.801l-67.198,51.602c-6,4.801-9.602,12-9.602,19.199v9.602c0,8.398,7.199,14.398,14.398,14.398h36v159.6c0,8.398,6,14.398,14.398,14.398h254.4l10.801-82.801c-7.195,3.598-16.797,3.598-26.395,1.199v.002h0Z"/>
  <path d="M1130.402,266.085l-67.199-51.602v-58.797c0-6-4.801-10.801-12-10.801h-21.602c-6,0-10.801,4.801-10.801,10.801v25.199l-76.797-61.199c-7.199-6-18-6-25.199,0l-121.2,94.801c30,15.602,54,44.398,62.398,78l13.199,49.199c3.602,13.199,1.199,26.398-4.801,37.199-7.199,12-16.801,20.398-30,22.801-9.602,2.398-19.199,2.398-27.602,0l10.801,82.801h254.4c8.398,0,14.398-6,14.398-14.398l.004-160.8h36c8.398,0,14.398-7.199,14.398-14.398v-9.602c1.203-7.203-2.398-14.402-8.398-19.203h.001Z"/>
  <path d="M543.602,147.285c-10.801-2.398-22.801,3.602-25.199,15.602l-8.402,29.996c-4.801,18-19.199,30-37.199,31.199-16.801,1.199-36,2.398-56.398,2.398h-16.801c-42,2.398-78,31.199-90,72l-13.199,49.199c-2.402,12.004,3.598,24.004,14.398,26.402,2.398,0,3.602,1.199,6,1.199,9.602,0,18-6,20.398-15.602l13.199-49.199c2.398-10.801,8.398-19.199,15.602-26.398v76.801l-20.398,153.6c-1.199,13.199,7.199,24,19.199,26.398h3.602c10.801,0,21.602-8.398,22.801-20.398l19.195-148.8h10.801l20.398,148.8c1.199,12,12,20.398,22.801,20.398h3.602c13.199-1.199,21.602-13.199,19.199-26.398l-20.398-153.6-1.199-94.801c3.602,0,7.199,0,9.602-1.199,36-2.398,66-27.602,74.398-62.398l8.398-31.199c2.398-10.801-3.602-21.602-14.398-24h-.002Z"/>
  <path d="M802.802,359.685c2.398,9.602,10.801,15.602,20.398,15.602,2.398,0,3.602,0,6-1.199,10.801-3.602,18-14.398,14.398-25.199l-13.199-49.203c-10.801-40.801-46.801-69.602-90-72h-16.801c-20.398,0-39.602-1.199-56.398-2.398-18-1.199-33.602-14.398-37.199-31.199l-8.398-31.199c-2.398-10.801-14.398-18-25.199-15.602-10.801,2.398-18,14.398-15.602,25.199l8.398,31.199c8.398,34.801,38.398,60,74.398,62.398,3.602,0,7.199,0,9.602,1.199l-1.199,94.801-20.398,153.6c-1.199,13.199,7.199,24,19.199,26.398h3.602c10.801,0,21.602-8.398,22.801-20.398l21.598-150h10.801l20.398,148.8c1.199,12,12,20.398,22.801,20.398h3.602c13.199-1.199,21.602-13.199,19.199-26.398l-21.602-153.6v-76.801c7.199,7.199,13.199,15.602,15.602,26.398l13.199,49.204h-.001Z"/>
  <path d="M723.602,214.485c25.199,0,45.602-20.398,45.602-45.602s-20.398-45.602-45.602-45.602-45.602,20.398-45.602,45.602,20.398,45.602,45.602,45.602Z"/>
  <path d="M603.602,124.485c4.801,2.398,10.801,1.199,14.398-3.602l10.801-19.199c2.398-4.801,1.199-10.801-3.602-14.398-4.801-2.398-10.801-1.199-14.398,3.602l-10.801,19.199c-2.398,3.602-1.199,9.602,1.199,12,1.199,1.199,1.199,2.398,2.402,2.398h.001Z"/>
  <path d="M570.002,71.685c-6,0-10.801,4.801-10.801,10.801v22.801c0,2.398,1.199,6,3.602,7.199,2.398,2.398,4.801,3.602,7.199,3.602,6,0,10.801-4.801,10.801-10.801v-22.801c0-6-4.801-10.801-10.801-10.801h0Z"/>
  <path d="M522.002,120.885c0,1.199,1.199,1.199,1.199,2.398,3.602,3.602,8.398,3.602,12,1.199,4.801-2.398,7.199-9.602,3.602-14.398l-10.801-19.199c-2.398-4.801-9.602-7.199-14.398-3.602-4.801,2.398-7.199,9.602-3.602,14.398l12,19.203h0Z"/>
  <path class="cls-1" d="M733.619,77.97l20.805-20.805c1.077-1.077,2.825-1.077,3.902,0l10.269,10.269c1.077,1.077,1.077,2.825,0,3.902l-43.042,43.042c-1.077,1.077-2.825,1.077-3.902,0l-43.042-43.042c-1.077-1.077-1.077-2.825,0-3.902l10.269-10.269c1.077-1.077,2.825-1.077,3.902,0l20.805,20.805V2.759c0-1.527,1.237-2.759,2.759-2.759h14.517c1.522,0,2.759,1.232,2.759,2.759v75.21Z"/>
</svg>