<?xml version="1.0" encoding="UTF-8"?>
<svg id="Layer_1" data-name="Layer 1" xmlns="http://www.w3.org/2000/svg" viewBox="0 0 989.58 940.751">
  <path d="M12.844,321.88c86.062,0,155.76,69.703,155.76,155.76,0,7.078,5.766,12.844,12.844,12.844s12.844-5.766,12.844-12.844c0-86.062,69.703-155.76,155.76-155.76,7.078,0,12.844-5.766,12.844-12.844s-5.766-12.844-12.844-12.844c-86.062,0-155.76-69.703-155.76-155.76,0-7.078-5.766-12.844-12.844-12.844s-12.844,5.766-12.844,12.844c0,86.062-69.703,155.76-155.76,155.76-7.078,0-12.844,5.766-12.844,12.844s5.766,12.844,12.844,12.844h0Z"/>
  <path d="M825.977,390.64c0,58.547-47.531,106.08-106.08,106.08-4.781,0-8.766,3.844-8.766,8.766s3.938,8.766,8.766,8.766c58.547,0,106.08,47.531,106.08,106.08,0,4.781,3.938,8.766,8.766,8.766,4.781,0,8.766-3.938,8.766-8.766,0-58.547,47.531-106.08,106.08-106.08,4.781,0,8.766-3.844,8.766-8.766s-3.938-8.766-8.766-8.766c-58.547,0-106.08-47.531-106.08-106.08,0-4.781-3.938-8.766-8.766-8.766-4.781,0-8.766,3.938-8.766,8.766Z"/>
  <path d="M650.485,107.39c47.625,0,86.156,38.625,86.156,86.156,0,3.938,3.141,7.078,7.078,7.078s7.078-3.141,7.078-7.078c0-47.625,38.625-86.156,86.156-86.156,3.938,0,7.078-3.141,7.078-7.078s-3.141-7.078-7.078-7.078c-47.625,0-86.156-38.625-86.156-86.156,0-3.938-3.141-7.078-7.078-7.078s-7.078,3.141-7.078,7.078c0,47.625-38.625,86.156-86.156,86.156-3.938,0-7.078,3.141-7.078,7.078s3.141,7.078,7.078,7.078Z"/>
  <path d="M973.301,597.865c-20.156-18.844-51.234-18.234-70.781,1.312l-150,150.71c-3.609,34.312-32.391,61.312-67.688,61.312h-216c-7.922,0-14.391-6.469-14.391-14.391s6.469-14.391,14.391-14.391h216c21.844,0,39.609-17.766,39.609-39.609s-17.766-39.609-39.609-39.609h-331.22c-33.234,0-65.766,13.547-89.156,37.219l-18.375,18.609v131.86h413.63c61.219,0,120.94-24.844,164.06-68.156l150.94-151.69c9.844-9.844,15.141-22.922,14.859-36.938-.234-13.922-6-26.766-16.219-36.375l-.05.136Z"/>
  <path d="M182.76,688.845h-75.844c-19.078,0-34.453,15.469-34.453,34.453v183c0,19.078,15.469,34.453,34.453,34.453h75.844c19.078,0,34.453-15.469,34.453-34.453v-183c0-19.078-15.469-34.453-34.453-34.453h0ZM181.448,922.475c-8.766,0-15.703-7.078-15.703-15.703s7.078-15.703,15.703-15.703,15.703,7.078,15.703,15.703-7.078,15.703-15.703,15.703h0Z"/>
  <path d="M602.734,152.455l29.846,63.025c7.283,15.378,21.705,25.863,38.58,28.043l69.013,8.698-12.837,68.576c-3.124,16.692,2.376,33.624,14.714,45.292l50.692,47.636-50.692,47.943c-12.339,11.668-17.839,28.597-14.717,45.289l13.015,68.332-69.194,8.941c-16.875,2.18-31.297,12.663-38.58,28.043l-29.556,62.931-61.209-33.461c-7.298-3.988-15.548-6.095-23.863-6.095s-16.563,2.107-23.858,6.095l-60.923,33.553-29.846-63.025c-7.283-15.378-21.705-25.861-38.58-28.041l-69.013-8.698,12.837-68.576c3.124-16.692-2.376-33.624-14.714-45.292l-50.694-47.636,50.697-47.946c12.336-11.668,17.839-28.6,14.714-45.289l-13.012-68.332,69.194-8.941c16.875-2.18,31.297-12.663,38.58-28.043l29.75-62.825,61.016,33.353c7.295,3.988,15.546,6.095,23.858,6.095s16.563-2.107,23.858-6.095l60.923-33.553M433.009,127.591c-9.244,0-18.156,5.193-22.41,14.173l-29.846,63.025c-3.61,7.619-10.846,12.883-19.21,13.963l-69.194,8.941c-14.11,1.824-23.788,15.134-21.17,29.119l12.834,68.576c1.549,8.273-1.212,16.766-7.326,22.551l-50.694,47.943c-10.332,9.77-10.332,26.216,0,35.987l50.694,47.941c6.117,5.783,8.876,14.278,7.326,22.551l-12.837,68.576c-2.617,13.985,7.059,27.295,21.168,29.119l69.194,8.944c8.361,1.081,15.6,6.341,19.21,13.963l29.846,63.025c4.251,8.98,13.163,14.173,22.41,14.173,4.005,0,8.076-.976,11.853-3.041l61.214-33.461c3.702-2.024,7.79-3.037,11.88-3.037s8.178,1.012,11.88,3.034l61.209,33.461c3.78,2.066,7.848,3.041,11.856,3.041,9.244,0,18.156-5.193,22.41-14.173l29.846-63.025c3.61-7.619,10.846-12.883,19.21-13.963l69.194-8.941c14.11-1.824,23.788-15.134,21.168-29.119l-12.834-68.576c-1.549-8.273,1.212-16.766,7.326-22.551l50.694-47.943c10.332-9.77,10.332-26.216,0-35.987l-50.692-47.941c-6.117-5.783-8.876-14.278-7.326-22.551l12.837-68.576c2.617-13.985-7.059-27.295-21.168-29.119l-69.194-8.944c-8.361-1.08-15.6-6.341-19.21-13.963l-29.851-63.025c-4.251-8.98-13.163-14.173-22.41-14.173-4.007,0-8.076.976-11.853,3.041l-61.214,33.461c-3.7,2.024-7.79,3.034-11.878,3.034s-8.178-1.012-11.88-3.034l-61.209-33.461c-3.778-2.066-7.846-3.041-11.853-3.041v.002Z"/>
  <path d="M434.208,360.242h-13.61v84.216l-56.34-84.216h-14.561v107.268h13.61v-84.291l56.34,84.291h14.561v-107.268Z"/>
  <path d="M535.913,360.242h-77.56v107.268h80.046v-12.658h-65.853v-36.512h59.34v-12.585h-59.34v-32.853h63.362l.006-12.661Z"/>
  <path d="M686.201,360.242h-14.268l-16.829,68.925c-2.195,8.78-3.976,16.56-5.341,23.341-1.707-11.853-4.488-24.512-8.341-37.975l-15.365-54.292h-17.122l-20.414,72.441c-.488,1.756-2.098,8.365-4.829,19.829-1.268-7.268-2.78-14.585-4.537-21.951l-16.317-70.318h-14.561l28.463,107.268h14.487l22.756-81.731c.976-3.463,2.024-7.659,3.146-12.585.341,1.561,1.463,5.756,3.366,12.585l22.609,81.731h13.683l29.414-107.27Z"/>
</svg>