<?xml version="1.0" encoding="UTF-8"?>
<svg id="Layer_1" data-name="Layer 1" xmlns="http://www.w3.org/2000/svg" viewBox="0 0 960.048 709.711">
  <path d="M319.358,539.138L28.828,707.038c-6.141,3.469-13.078,3.469-19.219,0-6-3.469-9.609-9.703-9.609-16.688L.047,19.29C.047,12.352,3.656,6.071,9.656,2.602c6.141-3.469,13.078-3.469,19.219,0l581.06,335.53c6.141,3.609,9.609,9.609,9.609,16.688s-3.469,13.078-9.609,16.688l-290.577,167.63ZM950.438,371.508l-581.02,335.53c-8.625,5.062-16.219,1.688-19.078,0-6-3.469-9.609-9.703-9.609-16.688v-130.78l283.31-163.69c14.859-8.625,23.625-24,23.625-41.062s-8.859-32.391-23.766-41.062l-283.31-163.64V19.336c0-6.938,3.609-13.219,9.609-16.688,6.141-3.469,13.078-3.469,19.219,0l581.02,335.48c6.141,3.609,9.609,9.609,9.609,16.688,0,6.938-3.469,13.078-9.609,16.688v.004Z"/>
</svg>