<?xml version="1.0" encoding="UTF-8"?>
<svg id="Layer_1" data-name="Layer 1" xmlns="http://www.w3.org/2000/svg" viewBox="0 0 335.302 357.035">
  <defs>
    <style>
      .cls-1 {
        fill: #fffdd4;
      }
    </style>
  </defs>
  <polygon class="cls-1" points="315.644 242.752 254.644 259.069 205.644 250.91 162.644 234.069 130.644 203.069 96.644 133.069 96.644 78.069 110.644 50.355 96.644 29.069 70.644 46.069 23.644 100.708 7.644 144.069 7.644 190.833 14.3 241.237 47.651 299.779 145.644 342.754 198.132 349.069 255.644 332.069 312.644 287.07 328.644 257.069 315.644 242.752"/>
  <polygon class="cls-1" points="234.205 5.069 217.644 34.069 191.644 50.355 218.644 68.069 234.205 94.069 252.644 64.069 284.559 50.355 255.644 38.933 234.205 5.069"/>
  <path d="M196.781,67.221l14.426,3.879c1.09.291,1.961,1.162,2.252,2.252l3.879,14.426c2.077,7.729,8.862,12.93,16.867,12.93s14.789-5.201,16.867-12.93l3.879-14.426c.291-1.09,1.162-1.961,2.252-2.252l14.426-3.879c7.729-2.077,12.93-8.862,12.93-16.867s-5.201-14.789-12.93-16.867l-14.426-3.879c-1.09-.291-1.961-1.162-2.252-2.252l-3.879-14.426c-2.077-7.729-8.862-12.93-16.867-12.93s-14.789,5.201-16.867,12.93l-3.879,14.426c-.291,1.09-1.162,1.961-2.252,2.252l-14.426,3.879c-7.729,2.077-12.93,8.862-12.93,16.867s5.201,14.789,12.93,16.867ZM200.486,47.275l14.426-3.879c5.985-1.613,10.722-6.334,12.334-12.334l3.879-14.426c.552-2.048,2.165-2.354,3.08-2.354s2.528.305,3.08,2.354l3.879,14.426c1.613,5.985,6.334,10.722,12.334,12.334l14.426,3.879c2.048.552,2.354,2.165,2.354,3.08s-.305,2.528-2.354,3.08l-14.426,3.879c-5.985,1.613-10.722,6.334-12.334,12.334l-3.879,14.426c-.552,2.048-2.165,2.354-3.08,2.354s-2.528-.305-3.08-2.354l-3.879-14.426c-1.613-5.985-6.334-10.722-12.334-12.334l-14.426-3.879c-2.048-.552-2.354-2.165-2.354-3.08s.305-2.528,2.354-3.08h0Z"/>
  <path d="M329.479,243.138c-6.581-7.264-16.562-9.269-25.424-5.114-21.719,10.184-45.981,14.644-70.214,12.901-70.663-5.099-126.679-62.326-130.299-133.104-1.104-21.704,2.557-42.683,10.91-62.382,3.864-9.109,1.467-19.119-6.102-25.496-7.627-6.421-17.985-7.075-26.368-1.671C30.655,61.322,0,117.456,0,178.431c0,98.482,80.091,178.604,178.548,178.604,62.63,0,121.466-33.472,153.559-87.34,5.085-8.528,4.024-19.206-2.644-26.571l.014.014h.002ZM319.862,262.387c-29.535,49.57-83.68,80.367-141.295,80.367-90.579,0-164.267-73.713-164.267-164.326,0-56.09,28.198-107.74,75.411-138.159,1.482-.944,2.949-1.337,4.315-1.337,2.019,0,3.835.843,5.128,1.932,1.031.872,4.228,4.082,2.15,8.993-9.196,21.704-13.249,44.818-12.029,68.689,3.995,77.987,65.695,141.022,143.536,146.629,26.659,1.932,53.388-2.993,77.317-14.223,4.663-2.194,7.903.799,8.775,1.772,1.961,2.165,3.24,5.84.959,9.661h0v.002Z"/>
</svg>