<?xml version="1.0" encoding="UTF-8"?>
<svg id="Layer_1" data-name="Layer 1" xmlns="http://www.w3.org/2000/svg" viewBox="0 0 1159.06 1174.151">
  <defs>
    <style>
      .cls-1 {
        fill: #f4ff6a;
        stroke: #000;
        stroke-miterlimit: 10;
        stroke-width: 12px;
      }
    </style>
  </defs>
  <path d="M840.315.004c-84.562,0-165.61,33.609-225.37,93.375-59.812,59.766-93.375,140.86-93.375,225.37s33.562,165.61,93.375,225.42c59.766,59.766,140.81,93.328,225.37,93.328s165.61-33.562,225.37-93.328c59.766-59.812,93.375-140.86,93.375-225.42-.094-84.516-33.703-165.52-93.469-225.28C1005.825,33.703,924.831.094,840.311,0l.004.004ZM840.315,600.004c-74.578,0-146.16-29.625-198.89-82.359-52.727-52.734-82.359-124.26-82.359-198.89s29.625-146.11,82.359-198.84c52.734-52.781,124.31-82.406,198.89-82.406s146.11,29.625,198.89,82.406c52.734,52.734,82.359,124.26,82.359,198.84-.094,74.578-29.766,146.06-82.453,198.79-52.734,52.734-124.22,82.359-198.79,82.453l-.006.006Z"/>
  <path d="M840.315,71.624c-10.359,0-18.75,8.391-18.75,18.75v18.75c0,10.312,8.391,18.75,18.75,18.75s18.75-8.438,18.75-18.75v-18.75c0-10.359-8.391-18.75-18.75-18.75h0Z"/>
  <path d="M678.785,183.754c7.406,7.219,19.172,7.219,26.531,0,3.516-3.516,5.484-8.25,5.484-13.219s-1.969-9.75-5.484-13.266l-13.266-13.266c-7.312-7.266-19.125-7.219-26.438.047-7.312,7.312-7.312,19.125-.047,26.484l13.22,13.22Z"/>
  <path d="M630.635,300.004h-18.75c-10.359,0-18.75,8.391-18.75,18.75s8.391,18.75,18.75,18.75h18.75c10.359,0,18.75-8.391,18.75-18.75s-8.391-18.75-18.75-18.75Z"/>
  <path d="M678.785,454.261l-13.219,13.266c-3.516,3.516-5.531,8.297-5.531,13.266s2.016,9.75,5.484,13.266c7.406,7.172,19.172,7.172,26.531,0l13.266-13.266c3.516-3.516,5.531-8.297,5.531-13.266,0-5.016-1.969-9.797-5.484-13.312s-8.297-5.484-13.266-5.484c-5.016,0-9.797,2.016-13.266,5.531h-.046Z"/>
  <path d="M840.315,510.181c-10.359,0-18.75,8.391-18.75,18.75v18.75c0,10.359,8.391,18.75,18.75,18.75s18.75-8.391,18.75-18.75v-18.75c0-10.359-8.391-18.75-18.75-18.75Z"/>
  <path d="M1001.795,454.261c-3.516-3.516-8.25-5.484-13.266-5.531-4.969,0-9.75,1.969-13.266,5.531-3.516,3.516-5.484,8.297-5.484,13.266s1.969,9.75,5.531,13.266l13.266,13.266c7.359,7.172,19.125,7.172,26.484,0,3.516-3.516,5.484-8.297,5.484-13.266s-1.969-9.75-5.484-13.266l-13.265-13.266Z"/>
  <path d="M1068.735,300.511h-18.75c-10.359,0-18.75,8.391-18.75,18.75s8.391,18.75,18.75,18.75h18.75c10.312,0,18.75-8.391,18.75-18.75s-8.438-18.75-18.75-18.75Z"/>
  <path d="M1001.425,183.754c-7.359,7.219-19.125,7.219-26.484,0-3.516-3.516-5.531-8.25-5.531-13.219s2.016-9.75,5.531-13.266l13.266-13.266c7.312-7.312,19.172-7.312,26.484,0s7.312,19.172,0,26.531l-13.266,13.22Z"/>
  <path d="M840.315,166.411c-10.359,0-18.75,8.391-18.75,18.75v134.11c0,10.359,8.391,18.75,18.75,18.75s18.75-8.391,18.75-18.75v-134.11c0-10.359-8.391-18.75-18.75-18.75Z"/>
  <path d="M353.463,553.698c4.755,0,8.634-3.879,8.634-8.634v-105.422c0-4.755-3.879-8.634-8.634-8.634s-8.634,3.879-8.634,8.634v105.422c0,4.755,3.879,8.634,8.634,8.634Z"/>
  <path d="M257.278,564.757c1.281,3.541,4.586,5.7,8.128,5.7.945,0,1.99-.169,2.933-.506,4.485-1.653,6.812-6.576,5.194-11.061l-24.248-66.64c-1.653-4.485-6.576-6.812-11.061-5.194-4.485,1.653-6.812,6.576-5.194,11.061l24.248,66.64h0Z"/>
  <path d="M181.837,613.284c1.72,1.889,4.047,2.933,6.475,2.933,1.99,0,4.047-.675,5.7-2.159,3.643-3.204,3.98-8.634.777-12.175l-62.863-71.564c-3.204-3.541-8.634-3.879-12.175-.777-3.643,3.204-3.98,8.634-.777,12.175l62.863,71.564v.002Z"/>
  <path d="M65.787,649.106l61.379,35.478c1.382.777,2.834,1.112,4.316,1.112,3.035,0,5.869-1.551,7.52-4.316,2.427-4.149.945-9.408-3.204-11.838l-61.379-35.478c-4.147-2.427-9.408-.945-11.838,3.204s-.945,9.408,3.204,11.838h.002Z"/>
  <path d="M101.977,770.313c3.879,0,7.42-2.665,8.363-6.644,1.112-4.653-1.72-9.309-6.373-10.455l-87.112-20.977c-4.653-1.112-9.309,1.72-10.455,6.373-1.112,4.653,1.72,9.309,6.373,10.455l87.112,20.977c.675.169,1.382.27,1.99.27h.102Z"/>
  <path d="M705.957,732.168c-1.112-4.653-5.8-7.52-10.455-6.373l-87.112,20.977c-4.653,1.112-7.52,5.8-6.373,10.455.945,3.98,4.485,6.644,8.363,6.644.675,0,1.382,0,1.99-.27l87.112-20.977c4.653-1.112,7.52-5.8,6.373-10.455h.102Z"/>
  <path d="M571.288,675.509c1.653,2.765,4.485,4.316,7.52,4.316,1.484,0,2.933-.337,4.316-1.112l61.379-35.478c4.149-2.427,5.532-7.69,3.204-11.838-2.427-4.147-7.69-5.532-11.838-3.204l-61.379,35.478c-4.149,2.427-5.532,7.69-3.204,11.838h.002Z"/>
  <path d="M520.163,611.902c2.427,0,4.755-1.045,6.475-2.933l62.863-71.564c3.102-3.643,2.765-9.071-.777-12.175-3.643-3.102-9.071-2.765-12.175.777l-62.863,71.564c-3.102,3.643-2.765,9.071.777,12.175,1.653,1.484,3.71,2.159,5.7,2.159h0v-.002Z"/>
  <path d="M439.021,567.59c.945.337,1.99.506,2.933.506,3.541,0,6.812-2.159,8.128-5.7l24.248-66.64c1.653-4.485-.675-9.408-5.194-11.061-4.485-1.653-9.408.675-11.061,5.194l-24.248,66.64c-1.653,4.485.675,9.408,5.194,11.061h0Z"/>
  <circle class="cls-1" cx="346.079" cy="804.067" r="217.408"/>
  <path d="M352.91,1051.368c-4.759,0-8.64,3.881-8.64,8.64v105.503c0,4.759,3.881,8.64,8.64,8.64s8.64-3.881,8.64-8.64v-105.503c0-4.759-3.881-8.64-8.64-8.64Z"/>
  <path d="M449.168,1040.301c-1.283-3.543-4.59-5.704-8.134-5.704-.945,0-1.992.169-2.936.506-4.489,1.655-6.818,6.58-5.198,11.069l24.267,66.691c1.655,4.489,6.58,6.818,11.069,5.198,4.489-1.655,6.818-6.58,5.198-11.069l-24.267-66.691Z"/>
  <path d="M524.667,991.737c-1.722-1.891-4.05-2.936-6.481-2.936-1.992,0-4.05.675-5.704,2.161-3.645,3.206-3.982,8.64-.777,12.183l62.91,71.619c3.206,3.543,8.64,3.881,12.183.777,3.645-3.206,3.982-8.64.777-12.183l-62.91-71.619.002-.002Z"/>
  <path d="M640.805,955.886l-61.426-35.505c-1.384-.777-2.836-1.114-4.32-1.114-3.037,0-5.873,1.553-7.526,4.32-2.429,4.151-.945,9.416,3.206,11.846l61.426,35.505c4.151,2.429,9.416.945,11.846-3.206s.945-9.416-3.206-11.846h0Z"/>
  <path d="M604.589,834.587c-3.881,0-7.424,2.667-8.369,6.65-1.114,4.657,1.722,9.315,6.379,10.463l87.179,20.992c4.657,1.114,9.315-1.722,10.463-6.379,1.114-4.657-1.722-9.315-6.379-10.463l-87.179-20.992c-.675-.169-1.384-.27-1.992-.27h-.102Z"/>
  <path d="M.151,872.763c1.114,4.657,5.806,7.526,10.463,6.379l87.179-20.992c4.657-1.114,7.526-5.806,6.379-10.463-.945-3.982-4.489-6.65-8.369-6.65-.675,0-1.384,0-1.992.27l-87.179,20.992c-4.657,1.114-7.526,5.806-6.379,10.463h-.102Z"/>
  <path d="M134.92,929.463c-1.653-2.767-4.489-4.32-7.526-4.32-1.484,0-2.936.337-4.32,1.114l-61.426,35.505c-4.151,2.429-5.536,7.695-3.206,11.846,2.429,4.151,7.695,5.536,11.846,3.206l61.426-35.505c4.151-2.429,5.536-7.695,3.206-11.846Z"/>
  <path d="M186.084,993.119c-2.429,0-4.759,1.047-6.481,2.936l-62.91,71.619c-3.104,3.645-2.767,9.079.777,12.183,3.645,3.104,9.079,2.767,12.183-.777l62.91-71.619c3.104-3.645,2.767-9.079-.777-12.183-1.653-1.484-3.712-2.161-5.704-2.161h0l.002.002Z"/>
  <path d="M267.286,1037.465c-.945-.337-1.992-.506-2.936-.506-3.543,0-6.818,2.161-8.134,5.704l-24.267,66.691c-1.653,4.489.675,9.416,5.198,11.069,4.489,1.655,9.416-.675,11.069-5.198l24.267-66.691c1.653-4.489-.675-9.416-5.198-11.069h0Z"/>
</svg>