<?xml version="1.0" encoding="UTF-8"?>
<svg id="Layer_1" data-name="Layer 1" xmlns="http://www.w3.org/2000/svg" viewBox="0 0 566.171 962.584">
  <defs>
    <style>
      .cls-1 {
        fill: red;
      }

      .cls-2 {
        fill-rule: evenodd;
      }
    </style>
  </defs>
  <path class="cls-2" d="M220.548,429.422c6.75,0,12.797-4.688,14.25-11.578,2.203-9.844,5.906-16.219,11.297-19.172,6.891-3.797,18.188-3.094,32.859,2.203,7.641,2.812,15.984-1.125,18.703-8.719,2.719-7.5-1.125-15.891-8.719-18.703-40.406-14.812-73.734-3.891-82.641,38.25-1.922,9,5.156,17.719,14.25,17.719h0ZM264.47,526.453c-5.156-24.234,30.609-41.438,67.641-56.953,17.953-7.406,31.031-13.922,48.234-22.125,42.609-20.344,52.031-76.219,18.562-109.5C260.297,200.855,169.267,89.905,128.197,8.115c-3.562-7.266-12.422-10.219-19.547-6.516-7.266,3.562-10.078,12.281-6.516,19.547,42.562,84.609,135.42,198.19,276.28,337.55,19.078,18.844,13.734,50.766-10.594,62.25-16.312,7.688-29.859,14.578-46.875,21.75-35.812,14.906-95.578,39.844-84.984,89.812,8.062,38.438,44.578,62.906,46.5,85.5.375,3.797,1.219,15-21.75,34.547-5.766,0-11.062.234-15.984.516-9.844.469-17.719.984-21.047-1.734-6.281-5.156-15.516-4.172-20.531,2.109-5.062,6.141-4.172,15.375,2.109,20.531,8.859,7.125,19.078,8.625,29.531,8.625,5.484,0,26.156-1.172,28.641-.75,6.375,2.109,10.312,6.375,11.297,12.797,1.828,10.969-4.781,28.406-23.719,41.062-12.188,8.109-18.703,12.656-22.641,19.781-4.688,8.625-3.094,16.875-1.359,26.438,1.594,8.109,3.938,20.438,4.781,40.594.516,13.031,2.812,26.953,5.156,40.594,3.187,18.703,8.016,46.969.75,51.656-23.859,15.516-65.953,13.641-124.97-5.297-40.828-16.219-78.609-6.141-109.12,29.016-5.297,6.047-4.688,15.234,1.359,20.531,6.094,5.203,15.234,4.688,20.531-1.453,22.734-26.062,47.25-32.719,76.781-20.906.375.141.609.234.984.375,69,22.406,118.22,23.016,150.32,2.203,32.484-21.047,8.766-79.547,7.359-117.98-.844-22.266-3.562-35.812-5.297-44.766-.516-2.719-1.125-5.766-1.219-7.5,2.344-2.109,8.719-6.375,12.797-9.094,26.203-17.484,40.453-45,36.281-69.984-1.594-10.078-6.281-18.703-13.172-25.359,39.609-41.578,15.141-73.922-3.328-98.156-9.609-12.516-19.594-25.641-22.547-39.938l.014-.013Z"/>
  <path class="cls-1" d="M359.335,286.76l104.364,37.946c4.824,1.894,10.208,1.761,14.932-.37,4.723-2.131,8.387-6.078,10.16-10.947,1.773-4.87,1.505-10.249-.743-14.918-2.248-4.669-6.285-8.233-11.198-9.884l-61.662-22.366,139.889-65.288c6.224-2.905,10.426-8.909,11.022-15.752.596-6.843-2.503-13.484-8.131-17.421-5.628-3.938-12.929-4.575-19.153-1.67l-139.5,65.107,22.193-61.187c2.146-6.404.774-13.465-3.615-18.599-4.388-5.134-11.149-7.589-17.81-6.467-6.66,1.123-12.243,5.658-14.706,11.947l-37.946,104.364c-1.758,4.79-1.524,10.085.649,14.701.056.149.123.294.202.432.057.149.124.293.202.432,2.158,4.62,6.061,8.195,10.851,9.94h0Z"/>
</svg>