<?xml version="1.0" encoding="UTF-8"?>
<svg id="Layer_1" data-name="Layer 1" xmlns="http://www.w3.org/2000/svg" viewBox="0 0 938.638 938.638">
  <defs>
    <style>
      .cls-1 {
        fill: #8c0000;
      }
    </style>
  </defs>
  <path class="cls-1" d="M938.638,468.962c-.082-108.57-37.809-213.76-106.75-297.64C762.947,87.443,667.048,30.062,560.548,8.952c-106.5-21.105-217.03-4.629-312.75,46.617S77.088,189.669,35.608,290.009c-41.484,100.34-46.898,211.95-15.312,315.83,31.582,103.88,98.203,193.6,188.52,253.86,90.312,60.27,198.73,87.355,306.77,76.652,108.04-10.703,209.04-58.539,285.77-135.36,43.629-43.574,78.215-95.336,101.77-152.32,23.562-56.98,35.629-118.06,35.508-179.72l.004.011ZM95.998,468.962c-.082-93.992,35.305-184.56,99.094-253.59,63.785-69.035,151.28-111.46,244.98-118.8,93.707-7.336,186.73,20.961,260.48,79.23L176.152,700.202c-51.996-65.855-80.238-147.33-80.16-231.24h.006ZM244.798,767.402L767.638,244.442c54.066,71.906,80.363,160.91,74.047,250.66-6.32,89.742-44.82,174.19-108.43,237.81-63.605,63.625-148.04,102.14-237.79,108.48-89.742,6.336-178.75-19.938-250.67-73.988l.003-.002Z"/>
</svg>