<?xml version="1.0" encoding="UTF-8"?>
<svg id="Layer_1" data-name="Layer 1" xmlns="http://www.w3.org/2000/svg" viewBox="0 0 900.001 1125.004">
  <defs>
    <style>
      .cls-1 {
        fill-rule: evenodd;
      }
    </style>
  </defs>
  <path d="M243.745,993.804c10.359,0,18.75,8.391,18.75,18.75s-8.391,18.75-18.75,18.75-18.75-8.391-18.75-18.75,8.391-18.75,18.75-18.75Z"/>
  <path d="M299.985,993.804c10.359,0,18.75,8.391,18.75,18.75s-8.391,18.75-18.75,18.75-18.75-8.391-18.75-18.75,8.391-18.75,18.75-18.75Z"/>
  <path d="M808.165,993.804c9.469.938,16.828,8.953,16.828,18.656s-7.359,17.719-16.828,18.656l-1.922.094h-131.26c-10.359,0-18.75-8.391-18.75-18.75s8.391-18.75,18.75-18.75h131.26l1.922.094Z"/>
  <path d="M806.245,918.764c10.359,0,18.75,8.391,18.75,18.75s-8.391,18.75-18.75,18.75h-206.26c-10.359,0-18.75-8.391-18.75-18.75s8.391-18.75,18.75-18.75h206.26Z"/>
  <path class="cls-1" d="M791.345,75.194c18.891,1.922,33.656,17.906,33.656,37.312v150l-.188,3.844c-1.781,17.625-15.844,31.688-33.469,33.469l-3.844.188H262.5l-3.844-.188c-17.625-1.781-31.688-15.844-33.469-33.469l-.188-3.844V112.506c0-19.406,14.766-35.391,33.656-37.312l3.844-.188h525l3.845.187ZM262.505,262.504h525V112.504H262.505v150Z"/>
  <path class="cls-1" d="M866.345.192c18.891,1.922,33.656,17.906,33.656,37.312v1050l-.188,3.844c-1.781,17.625-15.844,31.688-33.469,33.469l-3.844.188H112.501l-3.844-.188c-17.625-1.781-31.688-15.844-33.469-33.469l-.188-3.844v-56.25h-28.125l-4.781-.234c-23.672-2.391-42.094-22.359-42.094-46.641s18.422-44.25,42.094-46.641l4.781-.234h28.125v-75h-28.125l-4.781-.234c-23.672-2.391-42.094-22.359-42.094-46.641s18.422-44.25,42.094-46.641l4.781-.234h28.125v-75h-28.125l-4.781-.234c-23.672-2.391-42.094-22.359-42.094-46.641s18.422-44.25,42.094-46.641l4.781-.234h28.125v-75h-28.125l-4.781-.234c-23.672-2.391-42.094-22.359-42.094-46.641s18.422-44.25,42.094-46.641l4.781-.234h28.125v-75h-28.125l-4.781-.234c-23.672-2.391-42.094-22.359-42.094-46.641s18.422-44.25,42.094-46.641l4.781-.234h28.125v-75h-28.125l-4.781-.234C18.422,184.875,0,164.907,0,140.625s18.422-44.25,42.094-46.641l4.781-.234h28.125v-56.25C75,18.094,89.766,2.109,108.656.188l3.844-.188h750l3.845.192ZM112.505,93.754h28.125l4.781.234c23.672,2.391,42.094,22.359,42.094,46.641,0,25.875-21,46.875-46.875,46.875h-28.125v75h28.125l4.781.234c23.672,2.391,42.094,22.359,42.094,46.641,0,25.875-21,46.875-46.875,46.875h-28.125v75h28.125l4.781.234c23.672,2.391,42.094,22.359,42.094,46.641,0,25.875-21,46.875-46.875,46.875h-28.125v75h28.125l4.781.234c23.672,2.391,42.094,22.359,42.094,46.641,0,25.875-21,46.875-46.875,46.875h-28.125v75h28.125l4.781.234c23.672,2.391,42.094,22.359,42.094,46.641,0,25.875-21,46.875-46.875,46.875h-28.125v75h28.125l4.781.234c23.672,2.391,42.094,22.359,42.094,46.641,0,25.875-21,46.875-46.875,46.875h-28.125v56.25h750V37.506H112.506v56.248ZM46.88,975.014c-5.156,0-9.375,4.219-9.375,9.375s4.219,9.375,9.375,9.375h93.75c5.156,0,9.375-4.219,9.375-9.375s-4.219-9.375-9.375-9.375H46.88ZM46.88,806.274c-5.156,0-9.375,4.219-9.375,9.375s4.219,9.375,9.375,9.375h93.75c5.156,0,9.375-4.219,9.375-9.375s-4.219-9.375-9.375-9.375H46.88ZM46.88,637.534c-5.156,0-9.375,4.219-9.375,9.375s4.219,9.375,9.375,9.375h93.75c5.156,0,9.375-4.219,9.375-9.375s-4.219-9.375-9.375-9.375H46.88ZM46.88,468.794c-5.156,0-9.375,4.219-9.375,9.375s4.219,9.375,9.375,9.375h93.75c5.156,0,9.375-4.219,9.375-9.375s-4.219-9.375-9.375-9.375H46.88ZM46.88,300.054c-5.156,0-9.375,4.219-9.375,9.375s4.219,9.375,9.375,9.375h93.75c5.156,0,9.375-4.219,9.375-9.375s-4.219-9.375-9.375-9.375H46.88ZM46.88,131.314c-5.156,0-9.375,4.219-9.375,9.375s4.219,9.375,9.375,9.375h93.75c5.156,0,9.375-4.219,9.375-9.375s-4.219-9.375-9.375-9.375H46.88Z"/>
</svg>