<?xml version="1.0" encoding="UTF-8"?><svg id="Layer_1" xmlns="http://www.w3.org/2000/svg" viewBox="0 0 960.003 960.008"><defs><style>.cls-1{fill-rule:evenodd;}</style></defs><path class="cls-1" d="M203.992,204.002c0-46.406,37.594-84,84-84s84,37.594,84,84-37.594,84-84,84-84-37.594-84-84ZM287.992,144.002c-33.141,0-60,26.859-60,60s26.859,60,60,60,60-26.859,60-60-26.859-60-60-60Z"/><path class="cls-1" d="M95.992,420.002c0-46.406,37.594-84,84-84s84,37.594,84,84-37.594,84-84,84-84-37.594-84-84ZM179.992,360.002c-33.141,0-60,26.859-60,60s26.859,60,60,60,60-26.859,60-60-26.859-60-60-60Z"/><path class="cls-1" d="M563.992,756.002c0-46.406,37.594-84,84-84s84,37.594,84,84-37.594,84-84,84-84-37.594-84-84ZM647.992,696.002c-33.141,0-60,26.859-60,60s26.859,60,60,60,60-26.859,60-60-26.859-60-60-60Z"/><path class="cls-1" d="M335.992,792.002c0-46.406,37.594-84,84-84s84,37.594,84,84-37.594,84-84,84-84-37.594-84-84ZM419.992,732.002c-33.141,0-60,26.859-60,60s26.859,60,60,60,60-26.859,60-60-26.859-60-60-60Z"/><path class="cls-1" d="M143.992,648.002c0-46.406,37.594-84,84-84s84,37.594,84,84-37.594,84-84,84-84-37.594-84-84ZM227.992,588.002c-33.141,0-60,26.859-60,60s26.859,60,60,60,60-26.859,60-60-26.859-60-60-60Z"/><path class="cls-1" d="M460.732,24.102c50.672,33.984,74.719,98.578,69.656,166.6-1.734,23.391,3.703,49.312,14.953,72.047,10.922-.562,20.953-.094,29.25.938.281.047.562.047.844.141-.797-18,4.312-36.281,15.469-51.844l40.828-56.766c17.578-24.469,45.609-36.281,73.078-34.594l124.22-102.33c31.781-26.156,78.328-24,107.53,5.016,29.203,29.016,31.406,75.422,5.016,107.06l-102.89,123.42c1.688,27.375-10.266,55.219-34.828,72.703l-57.141,40.547c-2.906,2.062-5.906,3.938-9,5.578,89.719,55.172,137.02,136.26,147.84,220.45,15.094,117.19-40.875,238.87-148.08,300.89-235.13,135.98-535.78,55.266-671.53-180.24C-69.794,478.166,10.727,177.036,245.846,41.056c89.484-51.75,163.74-51.281,214.87-16.969l.016.014ZM706.122,382.132c96.609,51.609,145.13,132.1,155.68,214.03,13.875,107.91-37.828,220.03-136.31,277.03-223.64,129.32-509.63,52.594-638.76-171.47C-42.408,477.662,34.232,191.162,257.922,61.832c84.656-48.984,148.5-45.281,189.47-17.812,41.531,27.891,63.703,82.875,59.062,144.89-1.875,25.312,3.234,52.453,13.875,76.875-9.75,1.922-19.688,4.734-29.203,8.766-30,12.656-56.812,37.359-63.047,80.859-5.203,36.234-18.422,54.047-30.797,62.578-12.609,8.719-26.156,9.047-34.312,6.984-5.484-1.406-11.25,1.266-13.734,6.375s-1.031,11.297,3.469,14.766c46.312,35.672,119.44,76.875,187.18,81.469,26.672,1.828,53.062-2.062,76.594-14.625-2.906,8.484-4.453,17.578-4.453,27.047,0,46.406,37.594,84,84,84s84-37.594,84-84-37.594-84-84-84c-9.75,0-19.125,1.688-27.844,4.734,11.297-20.016,19.969-44.812,25.453-75,.188-1.125.234-2.25.141-3.375,4.125.234,8.25.141,12.375-.234l-.028.003ZM635.997,540.002c0-33.141,26.859-60,60-60s60,26.859,60,60-26.859,60-60,60-60-26.859-60-60ZM758.627,144.741c-7.406-7.359-15.797-13.031-24.703-17.016l110.39-90.938c22.219-18.328,54.891-16.781,75.328,3.516,20.391,20.25,21.891,52.594,3.516,74.672l-91.594,109.88c-4.031-8.953-9.75-17.344-17.203-24.75l-55.734-55.364ZM651.187,169.163c13.312-18.469,35.062-26.859,55.969-24.281,12.562,1.547,24.75,7.125,34.547,16.875l55.734,55.359c9.797,9.75,15.375,21.844,16.922,34.312,2.625,20.672-5.766,42.234-24.422,55.453l-57.094,40.547c-23.672,16.828-56.109,14.156-76.688-6.281l-39.422-39.188c-20.531-20.391-23.203-52.547-6.328-75.984l40.782-56.812ZM451.827,358.823c4.781-33.516,24.703-52.078,48.609-62.156,22.781-9.609,48.891-11.25,67.219-9.609l101.16,100.5c-9.609,47.391-27.234,76.688-48.328,93.938-21.844,17.953-49.031,24.141-79.031,22.125-49.547-3.328-104.34-29.203-147.24-57.422,5.578-1.922,11.203-4.688,16.688-8.484,19.359-13.312,35.062-38.062,40.922-78.891h.001Z"/></svg>