<?xml version="1.0" encoding="UTF-8"?>
<svg id="Layer_1" data-name="Layer 1" xmlns="http://www.w3.org/2000/svg" viewBox="0 0 661.076 1048.328">
  <path d="M297.122,329.356v-25.23c0-4.969,4.031-9,9-9s9,4.031,9,9v23.184h13.84c4.969,0,9,4.031,9,9s-4.031,9-9,9l-15.879.004c-8.801,0-15.961-7.16-15.961-15.957h0ZM398.492,289.004c9.68,0,17.527-7.848,17.527-17.527s-7.848-17.527-17.527-17.527-17.527,7.848-17.527,17.527c.004,9.684,7.848,17.527,17.527,17.527ZM159.292,724.364c0,8.731,7.113,15.844,15.855,15.844s15.855-7.113,15.855-15.844-7.113-15.855-15.855-15.855-15.855,7.113-15.855,15.855ZM648.892,936.414c-10.535,13.137-26.32,20.637-42.984,20.637-1.641,0-3.281-.07-4.934-.223l-45.148-4.023,1.918,5.676c3.703,10.969-2.203,22.91-13.172,26.613v.012l-183.74,62.109c-2.207.738-4.477,1.113-6.742,1.113-3.188,0-6.359-.738-9.297-2.191-5.027-2.496-8.785-6.797-10.578-12.105l-12.836-37.977-177.34-.004c-2.141,0-4.055-.746-5.805-1.789-1.531,1.242-3.398,2.098-5.523,2.113h-.051c-4.945,0-8.973-3.996-9-8.941v-.004l-1.543-257.56-74.594-31.633,1.734,289.7c.027,4.98-3.98,9.023-8.949,9.059h-.051c-4.945,0-8.973-3.996-9-8.941l-1.785-297.46-22.125-9.383c-6.324-2.684-9.145-10.043-6.145-16.223,19.672-40.523,90.059-175.98,154.11-180.84,4.484-.34,8.66-.453,12.629-.422v213.85c-11.855,3.195-20.652,13.938-20.652,26.793,0,17.801,16.805,31.758,35.391,26.848,9.406-2.484,17.055-10.254,19.422-19.691,3.984-15.883-5.75-30.176-19.754-33.953v-66.281l-.008-147.59,38.617-.004,3.473,3.356h13.887v-46.465c0-.254.094-.477.117-.727-6.805-4.004-13.121-8.465-18.926-13.402h-65.137c-5.621,0-10.441-4.188-11.277-9.746-5.062-33.562-8.547-64.074-10.852-92.078-2.496-3.746-4.738-7.773-6.453-12.172-4.23-10.859-5.395-22.289-3.293-32.184,1.199-5.637,3.461-10.539,6.535-14.473-1.48-62.445,4.062-108.31,12.168-141.68,4.789-26.27,14.285-52.352,31.574-73.816C200.497,15.889,243.208-.603,299.594,1.245c1.441.051,2.836.367,4.125.922,71.691-8.25,125.18,7.078,159.05,45.621,32.832,37.375,40.688,89.297,40.277,132.16,2.598,24.367,3.809,52.805,2.988,85.859,3.082,3.934,5.348,8.836,6.551,14.473,2.098,9.902.926,21.332-3.293,32.191-1.754,4.504-4.055,8.629-6.629,12.445-2.406,27.949-6.027,58.395-11.293,91.875-.867,5.527-5.672,9.672-11.266,9.672h-64.188c-5.898,5.047-12.336,9.59-19.277,13.66.008.164.117.301.117.465v46.465h13.887l3.473-3.356h15.066v53.551c-6.699.535-12.746,2.82-17.547,6.375-6.574,4.867-10.824,11.938-10.824,19.906v54.152c0,17.426,7.875,33.129,20.449,44.133-4.148,1.055-8.508,1.617-13.008,1.617h-2.59c-1.238-3.422-4.441-5.898-8.289-5.898l-11.484.004c-4.914,0-8.894,3.981-8.894,8.894v7.461c0,4.914,3.984,8.894,8.894,8.894h11.48c3.481,0,6.418-2.051,7.879-4.965h3c10.09,0,19.641-2.227,28.113-6.176,8.484,3.949,18.035,6.176,28.125,6.176h2.992c1.461,2.914,4.398,4.965,7.879,4.965h11.48c4.914,0,8.894-3.981,8.894-8.894v-7.461c0-4.914-3.981-8.894-8.894-8.894h-11.48c-3.531,0-6.519,2.098-7.957,5.078-.129.27-.23.535-.332.82h-2.582c-4.5,0-8.859-.562-13.008-1.617,3.887-3.402,7.262-7.297,10.156-11.512,6.469-9.414,10.293-20.582,10.293-32.621v-54.152c0-13.781-12.492-25-28.359-26.277v-53.551h22.895c.043,0,.082.012.125.012,4.113-.047,8.492.086,13.168.441,64.055,4.852,134.44,140.31,154.11,180.84,3,6.18.18,13.543-6.144,16.223l-29.684,12.586,60.453,191.43v-.012c5.59,17.637,1.992,36.785-9.609,51.199l.01-.01ZM508.042,811.454l9.156,27.082,11.105.992-20.262-64.172v36.098ZM470.968,327.014c3.348-.055,6.633-1.926,8.539-3.281,5.344-3.801,10.09-10.289,13.008-17.805,2.93-7.508,3.832-15.492,2.461-21.91-1.078-5.062-3.469-8.66-6.574-9.867-2.316-.895-5.293-.41-8.418,1.133-2.055,17.898-4.965,35.25-9.016,51.73h0ZM164.168,326.999c-4.074-16.504-7.004-33.883-9.062-51.805-2.008-.988-3.953-1.52-5.711-1.52-.973,0-1.887.16-2.727.48-3.094,1.207-5.488,4.805-6.562,9.867-1.363,6.418-.469,14.402,2.453,21.91,2.93,7.516,7.672,14.004,13.008,17.805,3.02,2.141,6.004,3.227,8.602,3.262h0ZM317.998,443.719c102.45-5.242,137.27-80.648,146.15-197.62-47.957-26.797-82.297-73.844-94.008-100.15l-1.207-.059c-44.512,57.355-150.04,80.18-198.84,87.918,7.387,123.98,41.117,204.49,147.9,209.92l.005-.009ZM243.064,505.051l74.473,71.957,74.477-71.957h-4.258c-4.969,0-9-4.031-9-9v-47.062c-17.316,7.086-37.391,11.523-60.762,12.715-23.754-1.203-44.137-5.707-61.676-12.922v47.27c0,4.969-4.031,9-9,9h-4.254ZM284.498,830.751c3.953-7.492,12.207-12.203,21.066-11.184l18.121,2.144c-.086-1.312-.059-2.625.094-3.961.664-5.578,3.461-10.57,7.883-14.062,4.434-3.492,9.949-4.992,15.52-4.394l62.277,7.336c16.746,1.969,31.43,11.508,40.195,25.875l47.934,4.277-41.207-121.91c-.422-1.254-1.594-2.051-2.848-2.051-.316,0-.633.059-.949.164l-183.74,62.109c-1.566.527-2.41,2.227-1.883,3.797l17.537,51.86ZM540.678,964.251l-4.457-13.188-110.69-9.863c-10.16,5.672-21.422,7.969-32.707,6.644l-71.598-8.441,30.039,88.867c.348,1.031,1.102,1.535,1.516,1.734.41.211,1.254.492,2.293.152l183.73-62.109v.012c1.566-.539,2.41-2.238,1.871-3.809h.003ZM641.338,890.657v-.012l-59.934-189.79-68.809,29.18,36.926,116.95c.914,2.871.328,6-1.559,8.344-1.898,2.344-4.852,3.598-7.816,3.328l-96.867-8.637c-3.141-.281-5.906-2.18-7.289-5.016-5.566-11.379-16.266-19.031-28.629-20.484l-62.301-7.336c-1.031-.188-1.867.34-2.242.645-.383.293-1.031.949-1.16,2.039-.121,1.078.359,1.863.648,2.238.297.375.953,1.019,2.035,1.148l13.516,1.594c3.164.375,5.894,2.391,7.176,5.309,1.289,2.918.938,6.293-.922,8.883-1.91,2.66-5.695,4.852-8.949,4.512l-51.707-6.094c-1.676-.188-3.211,1.043-3.398,2.684-.129,1.078.352,1.875.648,2.25.293.375.953,1.019,2.027,1.148l46.516,5.484c4.926.586,8.453,5.039,7.887,9.973-.273,2.367-1.527,4.981-3.402,6.457-1.883,1.488-4.328,2.484-6.691,2.32l-55.723-6.562c-1.629-.199-3.211,1.031-3.402,2.684-.121,1.078.352,1.875.648,2.25.293.375.953,1.019,2.035,1.148l55.73,6.574c2.371.281,4.543,1.5,6.023,3.375,1.477,1.887,2.144,4.277,1.859,6.656-.605,4.91-5.234,9.258-10.09,8.719l-46.512-5.473c-1.074-.199-1.875.34-2.258.645-.375.293-1.023.949-1.152,2.027-.195,1.652,1.039,3.223,2.684,3.41l51.707,6.082c3.309.387,6.137,2.578,7.34,5.684,1.141,2.941.852,6.738-1.082,9.234-1.941,2.496-4.875,4.301-7.984,3.902l-35.613-4.195c-1.672-.199-3.211,1.031-3.402,2.684-.188,1.641,1.043,3.211,2.703,3.398l84.383,9.949c8.18,1.008,16.383-.973,23.719-5.602,1.441-.902,3.106-1.383,4.793-1.383.27,0,.527.012.797.035l178.32,15.891c12.445,1.043,24.492-4.043,32.297-13.758,7.809-9.715,10.234-22.605,6.473-34.488l.005-.005ZM236.578,253.957c-9.68,0-17.527,7.848-17.527,17.527s7.848,17.527,17.527,17.527,17.527-7.848,17.527-17.527-7.848-17.527-17.527-17.527h0ZM415.198,563.527v54.152c0,15.527,8.391,29.273,21.176,37.547,7.941-5.144,14.184-12.41,17.773-20.898,2.184-5.164,3.391-10.777,3.391-16.648v-54.152c0-6.574-7.746-12.141-16.91-12.141h-8.531c-5.867,0-11.125,2.301-14.168,5.676-1.703,1.887-2.731,4.102-2.731,6.465h0ZM361.585,384.797c0-4.969-4.031-9-9-9-4.016,0-7.414,2.625-8.574,6.258-3.012,1.781-12.477,4.457-26.48,4.457s-23.473-2.676-26.484-4.457c-1.16-3.633-4.559-6.258-8.574-6.258-4.969,0-9,4.031-9,9,0,14.539,22.758,19.715,44.055,19.715s44.059-5.18,44.059-19.715h-.002Z"/>
</svg>