<?xml version="1.0" encoding="UTF-8"?>
<svg id="Layer_1" data-name="Layer 1" xmlns="http://www.w3.org/2000/svg" viewBox="0 0 1144.362 749.153">
  <path d="M484.21,108.659c-11.23-5.457-23.973-6.195-35.754-2.046-11.84,4.121-21.338,12.606-26.767,23.885-11.21,23.256-1.396,51.28,21.849,62.5,83.409,40.209,137.29,126.143,137.29,218.916,0,134.316-109.284,243.58-243.586,243.58s-243.586-109.27-243.586-243.58c0-92.773,53.886-178.709,137.29-218.909,23.266-11.2,33.059-39.245,21.849-62.521-5.429-11.29-14.966-19.775-26.805-23.895-11.799-4.121-24.526-3.373-35.694,2.064C74.696,164.364,0,283.407,0,411.919c0,185.947,151.294,337.234,337.241,337.234s337.241-151.287,337.241-337.234c0-128.499-74.689-247.541-190.271-303.259h-.001Z"/>
  <path d="M337.24,272.035c25.803,0,46.807-20.993,46.807-46.817V46.825c0-25.821-21.004-46.825-46.807-46.825s-46.846,21.004-46.846,46.825v178.393c0,25.823,21.024,46.817,46.846,46.817Z"/>
  <path d="M917.955,409.221h3.19c7.439,0,13.82-5.315,15.944-12.754l26.574-110.546c2.124-8.505-3.19-17.006-11.691-19.135-8.505-2.124-17.006,3.19-19.135,11.691l-26.574,110.546c-2.128,9.567,3.187,18.068,11.691,20.197h0Z"/>
  <path d="M909.452,639.879c35.079,0,63.776-28.698,63.776-63.776s-28.698-63.776-63.776-63.776-63.776,28.698-63.776,63.776,28.698,63.776,63.776,63.776ZM909.452,544.214c18.068,0,31.888,14.882,31.888,31.888,0,18.068-14.882,31.888-31.888,31.888-18.068,0-31.888-14.882-31.888-31.888,0-18.068,13.82-31.888,31.888-31.888Z"/>
  <path d="M1144.362,208.325c0-3.19,0-6.377-1.062-9.567l-62.714-116.923c-3.19-5.315-8.505-8.505-13.82-8.505h-358.212c-1.062,0-2.124,0-2.124,1.062-6.377,2.124-10.629,8.505-10.629,14.882v613.316c0,8.505,7.439,15.944,15.944,15.944h380.533c8.505,0,15.944-7.439,15.944-15.944v-230.658l36.142-263.607ZM1057.202,105.22l45.708,85.035h-334.826l-32.95-85.035h322.068ZM727.691,173.249l14.882,38.265s0,1.062,1.062,1.062l-15.944,83.973v-123.3ZM1076.335,468.746v217.901h-348.644v-214.714l45.708-249.791h336.952l-34.016,246.604Z"/>
</svg>