<?xml version="1.0" encoding="UTF-8"?>
<svg id="Layer_1" data-name="Layer 1" xmlns="http://www.w3.org/2000/svg" viewBox="0 0 661.258 645.508">
  <defs>
    <style>
      .cls-1 {
        fill-rule: evenodd;
      }
    </style>
  </defs>
  <path class="cls-1" d="M275.518,488.067v55.105h-39.359c-32.512,0-59.309,24.688-62.629,56.332-9.352,3.148-16.09,11.98-16.09,22.387,0,13.039,10.578,23.617,23.613,23.617s23.617-10.578,23.617-23.617c0-10.105-6.375-18.75-15.32-22.117,3.121-23.051,22.91-40.855,46.809-40.855h39.359v40.695c-9.16,3.262-15.742,12-15.742,22.277,0,13.039,10.578,23.617,23.617,23.617s23.613-10.578,23.613-23.617c0-10.277-6.578-19.016-15.742-22.277v-40.695h39.359c23.898,0,43.691,17.805,46.809,40.855-8.945,3.367-15.32,12.012-15.32,22.117,0,13.039,10.582,23.617,23.617,23.617s23.617-10.578,23.617-23.617c0-10.406-6.738-19.238-16.094-22.387-3.32-31.645-30.117-56.332-62.629-56.332h-39.359v-55.105h109.15c13.762,0,24.672-10.719,24.672-23.613,0-6.41-2.691-12.266-7.086-16.547,2.379-6.992,7.086-22.781,7.086-38.559,0-14.168-3.856-28.148-14.734-37.219-7.18-5.984-17.555-10.012-32.496-10.012h-82.375c-4.816-52.523-13.43-106.15-20.09-143.1-.676-3.75-3.934-6.473-7.746-6.473h-133.82c-2.363,0-4.598,1.07-6.094,2.898-1.496,1.824-2.094,4.234-1.621,6.547,0,0,31.332,152.58,31.332,258.2,0,4.348,3.527,7.871,7.871,7.871l110.205.006ZM181.053,614.017c4.348,0,7.875,3.527,7.875,7.871s-3.527,7.875-7.875,7.875-7.871-3.527-7.871-7.875,3.527-7.871,7.871-7.871ZM385.733,614.017c4.344,0,7.871,3.527,7.871,7.871s-3.527,7.875-7.871,7.875-7.871-3.527-7.871-7.875,3.523-7.871,7.871-7.871ZM283.393,614.017c4.344,0,7.871,3.527,7.871,7.871s-3.527,7.875-7.871,7.875-7.875-3.527-7.875-7.875,3.527-7.871,7.875-7.871ZM503.813,291.267h-125.95v-23.613h86.59c4.348,0,7.875-3.527,7.875-7.871V102.343c0-4.348-3.527-7.871-7.875-7.871h-236.16c-4.348,0-7.871,3.523-7.871,7.871v86.59c0,4.348,3.523,7.875,7.871,7.875s7.871-3.527,7.871-7.875v-78.719h220.42v141.7h-149.57c-4.344,0-7.871,3.527-7.871,7.875s3.527,7.871,7.871,7.871h7.875v23.613c-4.348,0-7.875,3.527-7.875,7.875s3.527,7.871,7.875,7.871h330.62v15.742h-330.62c-4.348,0-7.875,3.527-7.875,7.875s3.527,7.871,7.875,7.871h245.1l38.371,260.93c.566,3.856,3.887,6.723,7.793,6.723h31.488c2.281,0,4.453-.992,5.949-2.723,1.496-1.734,2.176-4.031,1.844-6.297l-38.039-258.63h45.988c4.348,0,7.875-3.527,7.875-7.871v-31.488c0-4.348-3.527-7.875-7.875-7.875h-39.359V102.346c0-4.348-3.527-7.871-7.871-7.871h-94.465c-4.348,0-7.871,3.523-7.871,7.871l-.004,188.921ZM53.863,338.501L15.824,597.131c-.328,2.266.348,4.562,1.844,6.297,1.496,1.731,3.668,2.723,5.949,2.723h31.488c3.906,0,7.227-2.867,7.797-6.723l38.367-260.93h16.812c4.348,0,7.875-3.527,7.875-7.871s-3.527-7.875-7.875-7.875H15.741v-15.742h102.34c4.348,0,7.875-3.527,7.875-7.871s-3.527-7.875-7.875-7.875H7.871c-4.344,0-7.871,3.527-7.871,7.875v31.488c0,4.344,3.527,7.871,7.871,7.871l45.992.003ZM591.473,338.501h-15.57l37.047,251.91h15.57l-37.047-251.91ZM85.353,338.501h-15.57l-37.047,251.91h15.57l37.047-251.91ZM172.716,456.581c.207,5.34.348,10.582.41,15.746h110.27v-15.746h-110.68ZM299.146,472.327h101.28c4.805,0,8.93-3.387,8.93-7.871s-4.125-7.875-8.93-7.875h-101.28v15.746ZM384.669,378.241c6.5,8.66,8.941,19.82,8.941,31.109,0,11.684-2.582,23.379-4.879,31.488h11.695c1.117,0,2.223.078,3.309.203,2.156-6.594,5.621-19.145,5.621-31.691,0-9.445-1.812-19.082-9.07-25.129-3.746-3.117-8.863-5.18-15.617-5.981h0ZM296.817,377.862c1.461,19.035,2.328,37.707,2.328,55.105v7.871h73.164c2.156-6.644,5.559-19.066,5.559-31.488,0-9.445-1.812-19.082-9.07-25.129-4.91-4.094-12.172-6.359-22.418-6.359h-49.562ZM283.34,425.096h-112.4c.395,5.289.738,10.547,1.039,15.742h111.42v-7.871c0-2.598-.016-5.211-.062-7.871h.003ZM282.914,409.35c-2.426-61.684-13.414-133.35-21.855-181.05h-117.66c5.148,26.574,19.555,104.98,26.262,181.05h113.253ZM330.633,267.65v23.613h31.488v-23.613h-31.488ZM598.283,291.263V110.213h-78.723v181.05h78.723ZM267.653,188.923v-47.23h157.44v78.719h-125.95c-4.344,0-7.871,3.527-7.871,7.875s3.527,7.871,7.871,7.871h133.82c4.348,0,7.875-3.527,7.875-7.871v-94.465c0-4.348-3.527-7.875-7.875-7.875h-173.18c-4.348,0-7.871,3.527-7.871,7.875v55.102c0,4.348,3.523,7.875,7.871,7.875s7.871-3.527,7.871-7.875h-.001ZM78.723,23.613h-39.359c-4.344,0-7.871,3.527-7.871,7.875v157.44c0,4.348,3.527,7.875,7.871,7.875h94.465c4.344,0,7.871-3.527,7.871-7.875V31.488c0-4.348-3.527-7.875-7.871-7.875h-39.359V7.871c0-4.348-3.527-7.871-7.875-7.871s-7.871,3.523-7.871,7.871v15.742ZM47.235,181.053V39.353h78.723v141.7H47.235Z"/>
</svg>