<?xml version="1.0" encoding="UTF-8"?>
<svg id="Layer_1" data-name="Layer 1" xmlns="http://www.w3.org/2000/svg" viewBox="0 0 1132.175 710.602">
  <path d="M895.621,270.524l3.12-.667c7.275-1.555,12.404-8.085,12.927-15.804l2.887-113.658c.3-8.761-6.674-15.964-15.432-16.269-8.761-.3-15.964,6.673-16.269,15.432l-2.887,113.658c-.082,9.801,6.892,17.003,15.654,17.308h0Z"/>
  <path d="M953.311,541.517c30.352-12.022,40.713-58.389,23.026-103.044-17.687-44.655-56.988-71.352-87.34-59.33-30.352,12.022-40.713,58.389-23.026,103.044,17.687,44.655,56.988,71.352,87.34,59.33ZM905.075,419.736c15.634-6.192,35.095,8.016,43.67,29.665,9.11,23.001,3.202,45.694-11.513,51.522-15.634,6.192-35.095-8.016-43.67-29.665-9.11-23.001-4.121-45.33,11.513-51.522Z"/>
  <path d="M1096.033,312V81.342c0-8.505-7.439-15.944-15.944-15.944h-380.533c-8.505,0-15.944,7.439-15.944,15.944v613.316c0,6.377,4.252,12.758,10.629,14.882,0,1.062,1.062,1.062,2.124,1.062h3.19s355.022,0,355.022,0c5.315,0,10.63-3.19,13.82-8.505l62.714-116.923c1.062-3.19,1.062-6.377,1.062-9.567l-36.142-263.607ZM722.948,678.712l32.95-85.035h334.826s-45.708,85.035-45.708,85.035h-322.068ZM715.505,487.383l15.944,83.973c-1.062,0-1.062,1.062-1.062,1.062l-14.882,38.265v-123.3ZM1098.165,561.789h-336.952s-45.708-249.791-45.708-249.791V97.284h348.644v215.777s0,2.124,0,2.124l34.016,246.604Z"/>
  <path d="M328.026,688.143c-168.497,0-305.555-137.058-305.555-305.555-.281-94.593,43.506-183.884,118.447-241.58,14.156-10.982,34.49-8.398,45.473,5.73,10.954,14.156,8.37,34.49-5.758,45.445-4.887,3.82-5.786,10.87-1.994,15.757,3.82,4.915,10.87,5.814,15.757,2.022,23.93-18.593,28.283-53.028,9.718-76.959-18.565-23.958-53-28.312-76.959-9.746C46.708,185.188-.304,281.046.001,382.578.001,563.454,147.15,710.602,328.026,710.602c6.207,0,11.235-5.028,11.235-11.235s-5.028-11.235-11.235-11.235v.011Z"/>
  <path d="M528.909,123.243c-11.488-8.931-26.065-12.92-40.501-11.095-14.465,1.826-27.581,9.297-36.485,20.812-8.931,11.488-12.92,26.065-11.095,40.501,1.826,14.437,9.325,27.553,20.84,36.485,53.562,41.204,84.851,105.013,84.653,172.625,0,120.376-97.937,218.319-218.289,218.319-120.376-.028-218.289-97.937-218.289-218.319-.169-45.388,13.931-89.656,40.277-126.56,3.623-5.056,2.444-12.077-2.584-15.672-5.056-3.623-12.077-2.444-15.672,2.612-29.126,40.726-44.686,89.566-44.49,139.622,0,132.768,108.021,240.789,240.759,240.789,132.768-.028,240.759-108.021,240.759-240.789.225-74.539-34.294-144.925-93.359-190.397-14.128-10.954-16.712-31.289-5.758-45.445,10.982-14.128,31.317-16.712,45.473-5.73,61.848,48,102.934,117.932,114.762,195.347,11.827,77.409-6.488,156.417-51.202,220.704-44.714,64.287-112.377,108.974-189.079,124.846-2.921.59-5.477,2.331-7.134,4.831-1.629,2.472-2.219,5.505-1.601,8.426.59,2.921,2.331,5.505,4.803,7.134,2.5,1.629,5.533,2.219,8.454,1.629,82.376-16.964,155.093-64.91,203.124-133.948,48.057-69.038,67.744-153.883,55.022-237.026-12.723-83.131-56.904-158.215-123.384-209.697l-.002-.005Z"/>
  <path d="M328.026,348.076c30.277-.028,54.826-24.576,54.854-54.854,0-6.207-5.028-11.235-11.235-11.235s-11.235,5.028-11.235,11.235c0,17.891-14.493,32.384-32.384,32.384s-32.384-14.493-32.384-32.384V54.854c0-17.891,14.493-32.384,32.384-32.384s32.384,14.493,32.384,32.384v184.783c0,6.207,5.028,11.235,11.235,11.235s11.235-5.028,11.235-11.235V54.854c0-30.277-24.548-54.854-54.854-54.854s-54.854,24.576-54.854,54.854v238.368c.028,30.277,24.576,54.826,54.854,54.854Z"/>
</svg>