<?xml version="1.0" encoding="UTF-8"?>
<svg id="Layer_1" data-name="Layer 1" xmlns="http://www.w3.org/2000/svg" viewBox="0 0 744.11 855.485">
  <defs>
    <style>
      .cls-1 {
        fill: #ff2828;
        stroke: #000;
        stroke-miterlimit: 10;
      }
    </style>
  </defs>
  <circle class="cls-1" cx="404.945" cy="124.338" r="112.5"/>
  <path d="M493.05,36.274c19.695,19.695,32.824,45.953,35.82,75.215h167.24c26.426,0,48,21.574,48,48v468c0,20.207-9.883,29.691-22.176,41.969l-164.43,164.25c-12.363,12.352-21.324,21.777-41.504,21.777H48c-26.426,0-48-21.574-48-48v-468c0-21.117,10.566-30.344,23.473-43.234L192.543,127.361c8.598-10.012,22.457-15.871,35.562-15.871h52.996c3-29.262,16.129-55.52,35.82-75.215,48.367-48.367,127.75-48.367,176.12,0h.009ZM62.1,291.484h124v-6.949c.047-7.828,11.949-7.984,12,0v6.949h317.89c8.84,0,17.137,2.414,24.262,6.617l159.49-162.33c-1.188-.184-2.406-.277-3.641-.277h-167.07c-2.656,29.938-15.91,56.832-35.984,76.906-48.367,48.367-127.75,48.367-176.12,0-20.074-20.074-33.328-46.969-35.984-76.906h-52.836c-5.879,0-11.441,2.117-15.844,6l-17.625,17.605c1.984.93,3.453,2.93,3.469,5.438v24c-.047,7.828-11.949,7.984-12,0v-20.914l-124,123.87-.007-.008ZM563.99,793.394l124.04-123.9h-19.41c-7.828-.047-7.984-11.949,0-12h24c1.981.012,3.766.941,4.894,2.527l9.555-9.543c6.844-6.836,13.031-11.672,13.031-22.984V159.495c0-3.039-.578-5.953-1.625-8.641l-161.25,164.12c4.293,7.184,6.766,15.57,6.766,24.512v318.01h8.629c7.828.047,7.984,11.949,0,12h-8.629v123.9-.002ZM515.99,315.484H47.99c-13.176,0-24,10.824-24,24v468c0,13.176,10.824,24,24,24h468c13.176,0,24-10.824,24-24v-468c0-13.176-10.824-24-24-24h0ZM476.072,53.244c-39.043-39.043-103.14-39.043-142.18,0-18.191,18.191-29.445,43.328-29.445,71.094s11.254,52.898,29.445,71.094c39.043,39.043,103.14,39.043,142.18,0,39.18-39.18,39.145-103.04,0-142.18v-.008ZM198.102,224.534c-.051-7.984-11.953-7.828-12,0v24c.051,7.984,11.953,7.828,12,0v-24ZM198.102,344.534c-.051-7.984-11.953-7.828-12,0v24c.051,7.984,11.953,7.828,12,0v-24ZM198.102,404.534c-.051-7.984-11.953-7.828-12,0v24c.051,7.984,11.953,7.828,12,0v-24ZM198.102,464.534c-.051-7.984-11.953-7.828-12,0v24c.051,7.984,11.953,7.828,12,0v-24ZM198.102,524.534c-.051-7.984-11.953-7.828-12,0v24c.051,7.984,11.953,7.828,12,0v-24ZM198.102,584.534c-.051-7.984-11.953-7.828-12,0v24c.051,7.984,11.953,7.828,12,0v-24ZM201.403,641.124c-3.699-7.051-14.227-1.434-10.641,5.547,4.324,8.367,11.293,15.008,19.828,18.977,7.188,3.277,12.195-7.578,5.023-10.898-6.129-2.848-11.109-7.621-14.211-13.629v.003ZM248.622,657.495c-7.984.051-7.828,11.953,0,12h24c7.984-.051,7.828-11.953,0-12h-24ZM308.622,657.495c-7.984.051-7.828,11.953,0,12h24c7.984-.051,7.828-11.953,0-12h-24ZM368.622,657.495c-7.984.051-7.828,11.953,0,12h24c7.984-.051,7.828-11.953,0-12h-24ZM428.622,657.495c-7.984.051-7.828,11.953,0,12h24c7.984-.051,7.828-11.953,0-12h-24ZM488.622,657.495c-7.984.051-7.828,11.953,0,12h24c7.984-.051,7.828-11.953,0-12h-24ZM608.622,657.495c-7.984.051-7.828,11.953,0,12h24c7.984-.051,7.828-11.953,0-12h-24ZM191.782,674.069c5.66-5.66-2.922-14-8.457-8.512l-17.023,16.914c-5.66,5.66,2.922,14,8.457,8.512l17.023-16.914ZM38.612,809.339c-5.66,5.66,2.922,14,8.457,8.512l17.023-16.914c5.66-5.66-2.922-14-8.457-8.512l-17.023,16.914ZM81.174,767.05c-5.66,5.66,2.922,14,8.457,8.512l17.023-16.914c5.66-5.66-2.922-14-8.457-8.512l-17.023,16.914ZM123.736,724.761c-5.66,5.66,2.922,14,8.457,8.512l17.023-16.914c5.66-5.66-2.922-14-8.457-8.512l-17.023,16.914ZM449.116,75.261c-5.852-5.266,2.164-14.172,8.016-8.906,53.449,48.105,18.316,135.98-52.156,135.98-7.891,0-7.891-12,0-12,59.629,0,89.391-74.355,44.141-115.08v.006Z"/>
</svg>