<?xml version="1.0" encoding="UTF-8"?>
<svg id="Layer_1" data-name="Layer 1" xmlns="http://www.w3.org/2000/svg" viewBox="0 0 782.21 648.56">
  <defs>
    <style>
      .cls-1, .cls-2 {
        fill: none;
      }

      .cls-2 {
        stroke: #000;
        stroke-linecap: round;
        stroke-linejoin: bevel;
        stroke-width: 8px;
      }
    </style>
  </defs>
  <path d="M70.076,482.061c-3.586,0-6.906-.472-9.957-1.416-3.052-.944-5.821-2.374-8.305-4.294-2.486-1.919-4.704-4.294-6.654-7.126l6.984-8.022c3.082,4.405,6.04,7.456,8.872,9.155,2.831,1.699,6.197,2.548,10.098,2.548,2.391,0,4.561-.378,6.512-1.133,1.95-.755,3.492-1.793,4.625-3.114,1.133-1.321,1.699-2.832,1.699-4.53,0-1.133-.188-2.202-.566-3.209-.378-1.006-.96-1.919-1.746-2.737-.788-.817-1.793-1.572-3.02-2.265-1.227-.692-2.659-1.305-4.294-1.84-1.637-.534-3.524-.991-5.662-1.369-3.398-.692-6.356-1.604-8.872-2.737-2.517-1.133-4.625-2.548-6.323-4.247-1.699-1.699-2.958-3.634-3.775-5.804-.818-2.171-1.227-4.608-1.227-7.314,0-2.642.581-5.096,1.746-7.361,1.164-2.265,2.768-4.231,4.813-5.899,2.044-1.666,4.451-2.957,7.22-3.869,2.768-.911,5.757-1.369,8.966-1.369,3.398,0,6.512.441,9.344,1.321,2.831.882,5.347,2.187,7.55,3.917,2.201,1.731,4.026,3.855,5.474,6.371l-7.173,7.078c-1.259-2.076-2.675-3.822-4.247-5.238-1.574-1.415-3.303-2.485-5.191-3.209-1.887-.722-3.902-1.085-6.04-1.085-2.454,0-4.594.378-6.418,1.133-1.826.755-3.256,1.809-4.294,3.162-1.038,1.354-1.557,2.942-1.557,4.766,0,1.321.251,2.534.755,3.634.503,1.102,1.274,2.076,2.312,2.926s2.438,1.604,4.2,2.265c1.761.661,3.87,1.243,6.323,1.746,3.46.755,6.543,1.715,9.249,2.878,2.705,1.165,5.002,2.534,6.889,4.106,1.888,1.574,3.318,3.336,4.294,5.285.975,1.951,1.463,4.058,1.463,6.323,0,4.216-.976,7.866-2.926,10.948-1.951,3.083-4.719,5.459-8.306,7.126-3.586,1.666-7.866,2.501-12.835,2.501Z"/>
  <path d="M141.918,480.461v-66.065h10.004l24.067,39.167-4.813-.094,24.35-39.073h9.438v66.065h-10.193v-27.087c0-5.662.141-10.759.425-15.289.283-4.53.77-9.028,1.463-13.496l1.321,3.492-21.613,33.41h-6.229l-20.952-33.032,1.038-3.87c.692,4.216,1.18,8.541,1.463,12.977.283,4.436.425,9.706.425,15.808v27.087h-10.193Z"/>
  <path d="M273.471,480.461v-56.25h-18.498v-9.815h47.755v9.815h-19.064v56.25h-10.193Z"/>
  <path d="M358.182,476.909l-18.708-58.724h9.648l11.325,36.745c.336.895.642,1.944.923,3.146.279,1.203.531,2.42.755,3.649.223,1.231.433,2.378.629,3.44.196,1.063.378,1.929.545,2.601l-2.433-.084c.839-2.964,1.496-5.256,1.972-6.879.474-1.621.852-2.865,1.133-3.733.279-.867.531-1.607.755-2.223l10.57-26.51h8.138l10.234,26.51c.558,1.342,1.048,2.672,1.468,3.985.42,1.315.797,2.63,1.133,3.943.335,1.315.698,2.699,1.091,4.153l-2.181.587c.279-1.51.489-2.698.629-3.565.14-.867.265-1.58.378-2.139.111-.558.223-1.104.335-1.636.112-.531.294-1.216.545-2.055.252-.839.6-1.985,1.049-3.44l11.158-36.493h9.731l-18.708,58.724h-6.292l-15.52-36.745.755.336-14.933,36.409h-6.124Z"/>
  <path d="M476.207,480.737v-56.25h-18.499v-9.815h47.756v9.815h-19.064v56.25h-10.193Z"/>
  <path d="M565.877,481.772v-66.065h10.193v66.065h-10.193ZM570.407,425.522v-9.815h38.318v9.815h-38.318ZM570.407,453.647v-9.815h34.071v9.815h-34.071Z"/>
  <path d="M689.434,481.405c-3.586,0-6.906-.472-9.957-1.416-3.053-.944-5.821-2.374-8.305-4.294-2.487-1.919-4.704-4.294-6.654-7.126l6.984-8.022c3.082,4.405,6.039,7.456,8.871,9.155s6.197,2.548,10.099,2.548c2.391,0,4.561-.378,6.512-1.133,1.95-.755,3.492-1.793,4.625-3.114,1.133-1.321,1.699-2.832,1.699-4.53,0-1.133-.188-2.202-.566-3.209-.378-1.006-.96-1.919-1.746-2.737-.788-.817-1.793-1.572-3.02-2.265-1.227-.692-2.659-1.305-4.294-1.84-1.637-.534-3.525-.991-5.663-1.369-3.397-.692-6.356-1.604-8.871-2.737-2.518-1.133-4.625-2.548-6.324-4.247s-2.958-3.634-3.775-5.804c-.819-2.171-1.227-4.608-1.227-7.314,0-2.642.581-5.096,1.745-7.361,1.164-2.265,2.769-4.231,4.814-5.899,2.044-1.666,4.45-2.957,7.22-3.869,2.768-.911,5.757-1.369,8.966-1.369,3.397,0,6.512.441,9.343,1.321,2.832.882,5.347,2.187,7.55,3.917,2.202,1.731,4.026,3.855,5.474,6.371l-7.172,7.078c-1.26-2.076-2.675-3.822-4.247-5.238-1.573-1.415-3.303-2.485-5.191-3.209-1.887-.722-3.902-1.085-6.039-1.085-2.454,0-4.594.378-6.418,1.133-1.825.755-3.256,1.809-4.294,3.162-1.038,1.354-1.557,2.942-1.557,4.766,0,1.321.251,2.534.755,3.634.503,1.102,1.274,2.076,2.312,2.926s2.438,1.604,4.2,2.265c1.761.661,3.87,1.243,6.324,1.746,3.459.755,6.543,1.715,9.249,2.878,2.705,1.165,5.003,2.534,6.889,4.106,1.888,1.574,3.318,3.336,4.295,5.285.975,1.951,1.463,4.058,1.463,6.323,0,4.216-.977,7.866-2.926,10.948-1.951,3.083-4.718,5.459-8.305,7.126-3.586,1.666-7.866,2.501-12.835,2.501Z"/>
  <rect class="cls-2" x="25.646" y="402.102" width="91.101" height="91.101" rx="29" ry="29"/>
  <rect class="cls-2" x="127.89" y="402.102" width="91.101" height="91.101" rx="29" ry="29"/>
  <rect class="cls-2" x="229.696" y="402.102" width="91.101" height="91.101" rx="29" ry="29"/>
  <rect class="cls-2" x="333.359" y="402.102" width="91.101" height="91.101" rx="29" ry="29"/>
  <rect class="cls-2" x="436.035" y="402.102" width="91.101" height="91.101" rx="29" ry="29"/>
  <rect class="cls-2" x="539.485" y="402.102" width="91.101" height="91.101" rx="29" ry="29"/>
  <rect class="cls-2" x="643.694" y="402.102" width="91.101" height="91.101" rx="29" ry="29"/>
  <rect class="cls-1" x="32.251" y="512.56" width="642" height="136"/>
  <g>
    <path d="M69.586,609.331l-24.82-32.267-2.19-2.773-32.266-41.61h18.98l24.382,31.828,2.482,3.212,31.828,41.61h-18.396ZM10.457,609.331l30.222-39.42,8.906,10.657-21.316,28.763H10.457ZM57.031,572.247l-8.322-10.513,18.834-29.054h17.812l-28.324,39.566Z"/>
    <path d="M147.112,609.331l-24.82-32.267-2.19-2.773-32.266-41.61h18.98l24.382,31.828,2.482,3.212,31.828,41.61h-18.396ZM87.982,609.331l30.222-39.42,8.906,10.657-21.316,28.763h-17.812ZM134.556,572.247l-8.322-10.513,18.834-29.054h17.812l-28.324,39.566Z"/>
    <path d="M165.655,628.603l60.152-121.472h14.454l-60.006,121.472h-14.6Z"/>
    <path d="M300.412,609.331l-24.82-32.267-2.19-2.773-32.266-41.61h18.98l24.382,31.828,2.482,3.212,31.828,41.61h-18.396ZM241.282,609.331l30.222-39.42,8.906,10.657-21.316,28.763h-17.812ZM287.856,572.247l-8.322-10.513,18.834-29.054h17.812l-28.324,39.566Z"/>
    <path d="M377.937,609.331l-24.819-32.267-2.19-2.773-32.266-41.61h18.979l24.382,31.828,2.482,3.212,31.828,41.61h-18.396ZM318.807,609.331l30.222-39.42,8.906,10.657-21.315,28.763h-17.812ZM365.381,572.247l-8.322-10.513,18.834-29.054h17.812l-28.324,39.566Z"/>
    <path d="M396.48,628.603l60.152-121.472h14.454l-60.007,121.472h-14.6Z"/>
    <path d="M531.237,609.331l-24.819-32.267-2.19-2.773-32.266-41.61h18.979l24.382,31.828,2.482,3.212,31.828,41.61h-18.396ZM472.107,609.331l30.222-39.42,8.906,10.657-21.315,28.763h-17.812ZM518.681,572.247l-8.322-10.513,18.834-29.054h17.812l-28.324,39.566Z"/>
    <path d="M608.762,609.331l-24.819-32.267-2.19-2.773-32.266-41.61h18.979l24.382,31.828,2.482,3.212,31.828,41.61h-18.396ZM549.632,609.331l30.222-39.42,8.906,10.657-21.315,28.763h-17.812ZM596.207,572.247l-8.322-10.513,18.834-29.054h17.812l-28.324,39.566Z"/>
    <path d="M686.289,609.331l-24.819-32.267-2.19-2.773-32.266-41.61h18.979l24.382,31.828,2.482,3.212,31.828,41.61h-18.396ZM627.159,609.331l30.222-39.42,8.906,10.657-21.315,28.763h-17.812ZM673.733,572.247l-8.322-10.513,18.834-29.054h17.812l-28.324,39.566Z"/>
    <path d="M763.814,609.331l-24.819-32.267-2.19-2.773-32.266-41.61h18.979l24.382,31.828,2.482,3.212,31.828,41.61h-18.396ZM704.684,609.331l30.222-39.42,8.906,10.657-21.315,28.763h-17.812ZM751.258,572.247l-8.322-10.513,18.834-29.054h17.812l-28.324,39.566Z"/>
  </g>
  <g>
    <path d="M187.868,382.746c-35.992,0-68.118-8.292-96.388-24.885-28.281-16.583-50.592-39.256-66.945-67.997C8.171,261.123,0,228.296,0,191.373s8.171-69.75,24.535-98.491c16.353-28.741,38.665-51.403,66.945-67.997C119.75,8.302,151.876,0,187.868,0c35.51,0,67.405,8.302,95.687,24.885,28.27,16.594,50.581,39.256,66.945,67.997,16.353,28.741,24.535,61.579,24.535,98.491s-8.182,69.75-24.535,98.49c-16.364,28.741-38.676,51.414-66.945,67.997-28.281,16.594-60.177,24.885-95.687,24.885ZM187.868,316.852c21.961,0,41.589-5.488,58.884-16.474,17.284-10.975,30.844-25.937,40.658-44.864,9.814-18.927,14.48-40.307,14.02-64.141.46-24.294-4.206-45.916-14.02-64.843-9.814-18.927-23.374-33.757-40.658-44.513-17.295-10.745-36.923-16.123-58.884-16.123s-41.71,5.498-59.235,16.473c-17.525,10.986-31.194,25.937-41.008,44.864-9.814,18.927-14.491,40.308-14.02,64.142-.471,23.834,4.206,45.214,14.02,64.141,9.814,18.927,23.483,33.889,41.008,44.864,17.525,10.986,37.263,16.474,59.235,16.474Z"/>
    <path d="M431.81,375.736V7.711h72.203v75.708l-12.619,8.412c4.666-16.353,13.779-31.425,27.34-45.215,13.549-13.779,29.672-24.995,48.369-33.648,18.686-8.642,37.854-12.968,57.482-12.968,28.039,0,51.402,5.499,70.1,16.473,18.686,10.986,32.705,27.689,42.061,50.122,9.342,22.432,14.02,50.713,14.02,84.821v224.32h-72.203v-219.413c0-21.03-2.805-38.435-8.412-52.225-5.607-13.779-14.262-23.834-25.938-30.143-11.686-6.309-26.178-8.993-43.461-8.062-14.021,0-26.879,2.223-38.555,6.659-11.688,4.447-21.852,10.636-30.494,18.577-8.652,7.952-15.422,17.174-20.33,27.689-4.906,10.515-7.359,21.852-7.359,33.999v222.918h-72.203Z"/>
  </g>
</svg>