<?xml version="1.0" encoding="UTF-8"?>
<svg id="Layer_1" data-name="Layer 1" xmlns="http://www.w3.org/2000/svg" viewBox="0 0 1012.127 940.085">
  <path d="M304.64,264.929c-9.938,10.875-18.938,22.125-26.625,33.375-10.688,15.938-19.875,33.188-27,51.188-12.938,32.062-19.5,66.188-19.5,101.62,0,49.312,13.125,97.312,38.062,139.13,30.188,51.375,77.062,91.875,131.63,114.38,33.188,13.688,68.438,20.812,104.62,20.812,43.5,0,87-10.5,125.63-30.562,32.062-16.5,60.375-39,83.812-66.938,41.812-49.312,64.875-112.12,64.875-176.81,0-19.125-1.875-37.875-5.812-55.688v-.188c0-.188,0-.375-.188-.562-3-15-7.5-30.188-13.5-45.188-7.125-18-16.312-35.25-27-51.188-24-35.625-56.625-65.625-93.938-86.25,0,0-.188,0-.188-.188-.188-.188-.375-.375-.562-.375h-.375c-40.125-22.5-86.062-34.5-132.74-34.5-19.688,0-38.812,2.062-56.812,6-55.5,11.438-105.38,39.938-144.37,81.938l-.019-.007ZM506.01,706.669c-27.75,0-54.938-4.688-81-13.312,13.125-12,15.75-24.75,14.812-34.125,0-.75-.188-1.5-.375-2.25-6.938-20.625-9-38.25-8.062-41.25,14.438,0,27.562-6.188,34.312-16.125,5.625-8.438,11.438-13.875,15.562-14.625.938-.188,2.062-.188,3.75,1.125,9.938,7.125,24.188,6.375,39.188,5.625,12.562-.562,26.812-1.312,32.25,3.938.75.75,3.188,3.188,3.188,10.688,0,29.812,9.562,41.625,15.938,49.312,3,3.75,3.938,4.875,3.938,6.375,0,13.5,14.25,18.562,25.875,22.688l1.688.562c-32.062,13.875-65.812,21.375-101.06,21.375h-.002ZM757.07,405.539c2.812,14.812,4.5,30,4.5,45.562,0,58.312-20.25,114.75-56.625,159.94-2.438-.562-4.688-.938-7.125-1.312-12.188-1.875-19.5-3.188-21-23.25-3.562-45.75-10.688-77.062-21.75-95.438-3.562-5.812-4.5-14.25-2.438-22.5s6.75-15.188,12.562-18.75c1.5-.938,3.188-.562,7.875.938,5.062,1.5,12.75,3.938,19.875-1.125,8.438-5.812,12.188-18.938,13.688-48.188,7.875-2.625,35.062,1.688,50.062,3.938l.375.186ZM457.44,243.169c1.5-13.125,2.625-27.938,3-43.312,14.625-2.812,30-4.5,45.75-4.5,41.062,0,81.188,10.312,117.19,29.062-15.562,36-30.375,75.375-30.562,75.938-.375,1.125-.562,2.438-.562,3.562l2.062,54.75-26.438,48.188-20.062,18.562c-7.125,1.688-15.562,1.875-17.062.375-1.688-6.188-5.062-10.125-9.938-11.625-2.812-.938-5.438-.75-7.875-.188-4.312-14.812-13.125-42.188-32.812-53.062-1.875-1.125-3-1.688,2.062-13.688,3.188-7.688,6.75-16.312,4.125-24.75-4.125-14.25-8.812-30.562-29.25-41.625-3.375-3.375-1.312-23.25.375-37.688h-.004ZM441.315,203.981c-.375,12.938-1.5,25.688-2.625,37.125-3,28.125-5.25,48.375,8.812,56.062,13.875,7.688,16.688,17.812,20.438,30.75.75,2.25-1.875,8.25-3.562,12.375-3.938,9.562-11.25,27.562,6.375,37.125,14.062,7.688,21.375,33.188,24.562,44.062,1.688,6.188,5.062,10.125,9.938,11.625,2.812.938,5.438.75,8.062.188,3.938,9.188,13.312,12.375,23.812,12.375,6,0,12.188-1.125,17.812-2.812,1.312-.375,2.625-1.125,3.75-2.062l22.875-21.188c.75-.75,1.312-1.5,1.875-2.438l28.5-51.938c.75-1.5,1.125-3.188,1.125-4.875l-2.062-55.5c3-7.875,15.562-40.688,28.688-71.438,31.125,19.125,58.312,44.438,78.75,74.812,9.938,15,18.375,30.938,25.125,47.812,3.938,9.75,6.75,19.688,9.375,29.438-30.188-4.5-49.5-6.375-59.062,1.5-3.375,2.812-5.438,6.75-5.625,11.25-1.5,29.812-5.25,35.062-4.875,35.25-.938,0-3-.75-4.5-1.125-5.625-1.688-14.25-4.5-23.062.938-10.125,6.188-18,17.062-21.188,30.375s-1.5,26.438,4.5,36.562c9.375,15.562,15.75,45,19.125,87.188,2.438,31.125,19.5,37.125,32.25,39.562-18.188,19.125-38.812,35.062-61.688,47.625-4.875-3.375-10.875-5.625-17.062-7.875-4.5-1.688-12.188-4.312-13.312-5.062,0-8.438-4.312-13.688-8.062-18.375-5.25-6.375-11.625-14.25-11.625-37.312,0-10.312-3-18.562-9.188-24.375-11.25-10.688-29.062-9.938-46.125-9-10.688.562-22.875,1.125-27.562-2.25-5.438-3.938-11.812-5.438-18.188-4.125-9.562,1.688-18.75,9.375-27.562,22.5-3.188,4.688-10.688,7.875-18.75,7.875-5.625,0-10.5,2.438-13.875,6.938-9,12.562-1.688,41.062,3.75,57.75.188,8.625-5.812,16.5-17.062,23.812-45.75-19.875-85.312-53.438-112.69-95.812,4.312-1.875,8.625-3.562,13.125-5.438,26.812-10.688,57.375-22.875,57.375-49.5,0-13.125,6-15.188,23.25-18.938,15.938-3.562,37.5-8.25,46.125-33.938,15.75-47.438-1.875-65.062-16.125-79.312-3.188-3.188.188-21.938,2.25-33.188,3.75-21,8.062-44.625-.375-61.875-10.312-20.625-31.5-15.375-45.562-11.812-16.875,4.312-21.188,3.938-24.188-2.062-3.75-7.5-10.875-15.188-21.188-23.438,31.875-31.688,71.438-54.375,115.12-65.812l.007.003ZM330.315,301.856c10.312,20.625,31.5,15.375,45.562,12,16.875-4.125,21.188-3.938,24.188,2.062,5.812,11.625,2.062,32.062-1.312,50.062-3.938,21.375-7.312,39.75,3,49.875,13.312,13.312,23.812,23.812,11.625,60.188-4.875,14.438-15.375,17.812-32.25,21.562-15.938,3.562-37.875,8.438-37.875,37.125,0,13.875-23.25,23.25-45.562,32.062-5.438,2.25-10.688,4.312-15.75,6.562-20.438-37.125-31.5-79.312-31.5-122.44,0-32.812,6-64.688,18-94.5,6.75-16.688,15.188-32.812,25.125-47.812,5.625-8.438,12.188-16.688,19.312-24.75,10.688,8.25,15.562,14.25,17.438,18v.003Z"/>
  <path d="M493.45,507.929c1.688,15.562,20.812,21.188,37.125,21.188,1.5,0,2.812-.375,4.125-.938l27.938-13.875c3.188-1.5,5.25-4.875,5.25-8.438v-13.875c0-17.25-20.062-23.25-37.312-23.25h-13.875c-17.25,0-37.312,6.188-37.312,23.25.188,5.438,1.875,14.438,14.062,15.938h0ZM516.7,487.304h13.875c8.625,0,17.438,2.625,18.562,4.5v8.062l-20.625,10.312c-7.312-.375-15.188-2.438-16.5-4.5,0-5.062-1.5-13.312-11.25-15.75,3.562-1.312,9.75-2.625,15.938-2.625h0Z"/>
  <path d="M621.88,66.749c2.438,0,4.875-.938,6.562-2.812,3.75-3.75,3.75-9.562,0-13.312-67.5-67.5-177.37-67.5-245.06,0-3.75,3.75-3.75,9.562,0,13.312s9.562,3.75,13.312,0c60.188-60.188,158.26-60.188,218.44,0,1.875,1.875,4.312,2.812,6.75,2.812h-.005Z"/>
  <path d="M593.01,95.619c2.438,0,4.875-.938,6.562-2.812,3.75-3.75,3.75-9.562,0-13.312-51.562-51.562-135.56-51.562-187.13,0-3.75,3.75-3.75,9.562,0,13.312s9.562,3.75,13.312,0c44.25-44.25,116.25-44.25,160.5,0,1.875,1.875,4.312,2.812,6.75,2.812h.005Z"/>
  <path d="M563.95,124.689c2.438,0,4.875-.938,6.562-2.812,3.75-3.75,3.75-9.562,0-13.312-17.25-17.25-40.125-26.625-64.5-26.625s-47.25,9.562-64.5,26.812c-3.75,3.75-3.75,9.562,0,13.312s9.562,3.75,13.312,0c27.375-27.375,75.188-27.375,102.56,0,1.688,1.688,4.125,2.625,6.562,2.625h.003Z"/>
  <path d="M470.38,137.619c-3.75,3.75-3.75,9.562,0,13.312s9.562,3.75,13.312,0c12.375-12.375,32.438-12.375,44.625,0,1.875,1.875,4.312,2.812,6.562,2.812s4.875-.938,6.562-2.812c3.75-3.75,3.75-9.562,0-13.312-19.5-19.688-51.375-19.688-71.062,0Z"/>
  <path d="M94.07,785.799v-452.06h105c5.25,0,9.375-4.125,9.375-9.375s-4.125-9.375-9.375-9.375h-114.38c-5.25,0-9.375,4.125-9.375,9.375v470.81c0,5.25,4.125,9.375,9.375,9.375h842.63c5.25,0,9.375-4.125,9.375-9.375v-470.81c0-5.25-4.125-9.375-9.375-9.375h-114.38c-5.25,0-9.375,4.125-9.375,9.375s4.125,9.375,9.375,9.375h105v452.06H94.07Z"/>
  <path d="M1012.11,874.46v-29.812c0-5.25-4.125-9.375-9.375-9.375h-16.5V274.833c0-5.25-4.125-9.375-9.375-9.375h-201.37c-5.25,0-9.375,4.125-9.375,9.375s4.125,9.375,9.375,9.375h192v551.06H44.62V284.208h192c5.25,0,9.375-4.125,9.375-9.375s-4.125-9.375-9.375-9.375H35.25c-5.25,0-9.375,4.125-9.375,9.375v560.44H9.375c-5.25,0-9.375,4.125-9.375,9.375v29.812c0,36.188,29.438,65.625,65.625,65.625h880.69c36.375,0,65.812-29.438,65.812-65.625h-.017ZM612.17,854.022l-11.812,17.25h-188.44l-11.812-17.25h212.064ZM18.73,874.46v-20.438h358.5l21.938,31.875c1.688,2.625,4.688,4.125,7.688,4.125h198.19c3,0,6-1.5,7.688-4.125l21.938-31.875h358.5v20.438c0,25.875-21,46.875-46.875,46.875H65.606c-25.875,0-46.875-21-46.875-46.875h0Z"/>
</svg>