<?xml version="1.0" encoding="UTF-8"?>
<svg xmlns="http://www.w3.org/2000/svg" viewBox="0 0 764.942 1031.07">
  <defs>
    <style>
      .cls-1, .cls-2 {
        fill: #0072aa;
      }

      .cls-3 {
        fill: #fff;
      }

      .cls-3, .cls-4, .cls-2 {
        fill-rule: evenodd;
      }
    </style>
  </defs>
  <g id="Layer_1" data-name="Layer 1">
    <path class="cls-2" d="M226.754,570.52l139.88-139.88c3-2.434,7.125-2.941,10.629-1.312,3.504,1.629,5.77,5.113,5.84,8.977v188.38c-.078,4.516-2.863,8.543-7.059,10.211-16.598,4.508-34.328,9.348-51.422,14.023-21.398,5.867-39.621,19.941-50.699,39.164-11.082,19.223-14.133,42.043-8.484,63.5l38.074,145.02.004.023c4.34,16.172,16.977,28.805,33.152,33.137,16.18,4.332,33.438-.297,45.277-12.145,11.84-11.844,16.461-29.105,12.121-45.281l-28.086-104.83v.004c-.645-2.402-.309-4.965.934-7.117,1.246-2.152,3.293-3.723,5.695-4.367l110.46-29.598-6.125-42.723h.004c-.734-5.125,2.824-9.879,7.949-10.613,5.125-.734,9.879,2.828,10.613,7.953l26.445,184.54-.004-.004c2.781,19.41,12.469,37.168,27.285,50.008,14.816,12.844,33.766,19.914,53.371,19.914v.012c23.715-1.086,47.082-6.102,69.152-14.84,22.938-8.523,45.277-18.574,66.875-30.082,10.27-5.644,18.27-14.668,22.641-25.539,4.375-10.871,4.848-22.922,1.348-34.102-3.164-11.066-11.012-20.195-21.477-24.984-10.469-4.789-22.504-4.758-32.949.082l-43.848,20.332v24.75h.004c0,5.176-4.199,9.375-9.375,9.375s-9.375-4.199-9.375-9.375v-356.19l-105.59,105.59v-.004c-14.211,14.211-34.922,19.762-54.336,14.559-19.41-5.199-34.57-20.363-39.773-39.773-5.199-19.41.348-40.125,14.559-54.332l140.55-140.54v-.004c3.66-3.66,9.594-3.66,13.258,0,3.66,3.66,3.66,9.598,0,13.258l-140.55,140.55c-9.473,9.473-13.172,23.281-9.703,36.223s13.574,23.047,26.516,26.516c12.941,3.469,26.75-.234,36.223-9.707l121.12-121.13h.004c.539-.535,1.141-1.004,1.797-1.391l11.988-14.742h-.004c14.859-18.273,22.25-41.496,20.684-65-1.566-23.5-11.973-45.535-29.129-61.676-17.152-16.141-39.781-25.188-63.336-25.32-23.469,11.531-49.262,17.535-75.41,17.555-26.148.02-51.953-5.949-75.438-17.449-34.398,6.008-66.359,21.734-92.098,45.328l-14.066,12.891-159.15,159.15v.004c-9.473,9.473-13.176,23.281-9.707,36.223,3.469,12.938,13.574,23.047,26.516,26.516,12.941,3.469,26.75-.23,36.223-9.707l.003-.01Z"/>
    <path class="cls-1" d="M665.273,149.41c0,82.516-67.57,149.41-150.92,149.41s-150.92-66.891-150.92-149.41S431,0,514.354,0s150.92,66.891,150.92,149.41Z"/>
  </g>
  <g id="Layer_2" data-name="Layer 2">
    <polygon class="cls-3" points="506.803 620.482 567.803 718.36 513.803 751.36 511.803 878.08 285.467 1004.36 285.467 502.36 506.803 620.482"/>
    <polygon class="cls-3" points="289.242 516.76 64.807 629.882 12.807 731.76 65.807 760.76 64.807 892.76 289.242 1020.76 289.242 516.76"/>
    <path class="cls-4" d="M282.291,504.004c4.385-2.193,9.54-2.193,13.902,0l223.927,111.964c3.009,1.516,5.458,3.942,6.951,6.951l49.777,99.533c3.639,7.301,1.026,16.211-6.042,20.363l-42.079,24.748v123.553c0,5.645-3.079,10.87-8.001,13.599l-223.927,124.394c-4.712,2.612-10.403,2.612-15.115,0l-223.927-124.394c-4.922-2.729-8.001-7.954-8.001-13.599v-123.553l-42.079-24.748c-7.068-4.152-9.68-13.062-6.042-20.363l49.777-99.533c1.493-3.009,3.942-5.435,6.951-6.951l223.928-111.964ZM80.876,785.849v96.13l192.811,107.132v-187.258l-33.053,59.505c-2.029,3.662-5.458,6.345-9.494,7.464-4.059,1.096-8.374.513-11.99-1.609l-138.276-81.363ZM304.803,801.851v187.258l192.811-107.132v-96.13l-138.273,81.36c-3.615,2.123-7.931,2.706-11.99,1.609-4.035-1.12-7.464-3.802-9.494-7.464l-33.056-59.502ZM310.728,748.481l46.581,83.833,185.233-108.953-36.318-72.612-195.496,97.732ZM478.395,629.869l-173.588,86.819v-173.613l173.588,86.794ZM273.691,543.075v173.613l-173.588-86.819,173.588-86.794ZM72.275,650.744l-36.318,72.612,185.233,108.953,46.581-83.833-195.496-97.732Z"/>
  </g>
</svg>