<?xml version="1.0" encoding="UTF-8"?>
<svg id="Layer_1" data-name="Layer 1" xmlns="http://www.w3.org/2000/svg" viewBox="0 0 960.006 600.043">
  <path d="M960.006,300.036c0-66.797-22.688-127.92-59.719-177.79-.188-.422.094-.891-.141-1.312-.656-1.172-2.016-1.359-2.859-2.344-38.812-50.625-93.047-88.078-156-105.98-1.875-.984-3.422-1.453-5.531-1.734-24.328-6.375-49.453-10.875-75.75-10.875-67.828,0-129.71,23.438-180.05,61.547-25.922-19.641-54.984-34.688-86.484-45.094-3.188-2.156-6.797-3.328-10.641-3.281C356.3,5.484,328.878.047,299.909.047,165.569.047,52.929,89.438,14.859,211.407c-2.016,2.906-2.906,5.719-2.906,9.281-6.984,25.453-11.953,51.703-11.953,79.359,0,4.266,1.078,8.25,1.266,12.469-1.359,4.266-1.078,9.047,1.172,13.312.047.094.141.094.188.188,2.438,27.797,8.062,54.562,17.578,79.688.281.844-.188,1.734.234,2.531.188.375.609.516.797.844,9.75,24.891,22.922,47.812,38.625,68.953.141.281-.047.609.094.891,1.125,2.109,2.953,3.469,4.688,4.922,38.297,48.938,91.031,85.219,152.16,102.98,2.859,1.922,6.094,3.188,9.562,3.188.141,0,.234-.094.375-.094,23.578,5.953,47.812,10.125,73.219,10.125,67.547,0,129.28-23.25,179.48-61.125.562.328,1.219.328,1.781.609,26.062,19.5,55.359,34.359,86.953,44.625,2.438,1.266,4.641,3.094,7.5,3.094.469,0,.891-.281,1.312-.328,26.531,7.688,54,13.125,82.969,13.125,133.64,0,245.76-88.406,284.48-209.34,2.344-2.953,3.797-6.609,3.797-10.734,0-.281-.234-.516-.234-.797,7.031-25.359,12-51.562,12-79.125l.011-.011ZM522.286,525.746l401.9-214.45c-.844,19.734-3.984,38.766-8.953,57.188l-339.66,181.87c-18.797-6.375-36.656-14.391-53.297-24.609h.01ZM394.646,300.036c0-76.688,33.188-145.26,85.312-193.78,52.172,48.516,85.359,117.09,85.359,193.78s-33.188,145.26-85.312,193.78c-52.172-48.516-85.359-117.09-85.359-193.78ZM171.286,530.666l212.44-113.67c6.047,14.203,13.875,27.375,21.938,40.312l-180.1,96.141c-19.125-5.625-37.219-13.219-54.281-22.781l.003-.002ZM80.208,448.541c-8.625-12.75-15.844-26.531-22.172-40.734l307.69-164.68c-3.516,18.234-5.625,36.938-5.672,56.156L80.208,448.541ZM44.817,231.281L383.817,49.541c18.844,6.328,36.703,14.344,53.391,24.516L35.868,288.317c.844-19.688,3.984-38.672,8.953-57.047l-.004.011ZM37.364,326.859L418.884,123.229c-16.406,22.312-29.531,46.828-39.328,73.219L46.656,374.578c-4.547-15.422-7.594-31.312-9.281-47.719h-.011ZM789.004,69.599l-212.58,114c-6.094-14.391-14.016-27.703-22.172-40.875l180.1-96.141c19.219,5.672,37.453,13.359,54.656,23.016h-.004ZM879.754,151.537c8.578,12.609,15.656,26.25,21.984,40.312l-307.5,164.86c3.469-17.953,5.484-36.375,5.578-55.266l279.938-149.906ZM922.598,272.847l-380.86,203.21c16.172-22.125,29.062-46.453,38.719-72.609l332.76-178.4c4.594,15.469,7.688,31.359,9.375,47.812l.006-.013ZM857.254,124.207l-260.95,139.74c-1.969-15.984-5.016-31.453-9.375-46.594l234.98-126.05c12.75,9.938,24.562,20.859,35.344,32.906v-.002ZM659.994,34.676c6.609,0,12.797,1.453,19.266,1.969l-145.55,77.719c-8.438-10.594-16.922-21.047-26.672-30.422,43.312-30.75,95.906-49.266,152.95-49.266h.006ZM299.944,34.676c11.016,0,21.516,1.922,32.203,3.234L63.697,181.77C107.338,94.958,196.307,34.67,299.957,34.67l-.013.006ZM102.684,475.816l260.95-139.18c1.969,15.984,5.109,31.5,9.516,46.594l-234.89,125.72c-12.844-10.031-24.703-21-35.578-33.141l.002.007ZM280.524,563.425l145.6-77.719c8.438,10.594,16.922,21.094,26.719,30.469-43.312,30.75-95.906,49.219-152.95,49.219-6.609,0-12.844-1.5-19.359-1.969h-.01ZM659.974,565.393c-11.25,0-21.938-1.969-32.859-3.328l269.39-144.19c-43.594,87.047-132.71,147.52-236.53,147.52v-.002Z"/>
</svg>