<?xml version="1.0" encoding="UTF-8"?><svg id="Layer_1" xmlns="http://www.w3.org/2000/svg" viewBox="0 0 130.222 64"><defs><style>.cls-1{fill:#fff;stroke:#000;stroke-miterlimit:10;stroke-width:3px;}.cls-2{fill:none;}</style></defs><rect class="cls-1" x="33.944" y="1.5" width="61" height="61" rx="7" ry="7"/><rect class="cls-2" y="20.139" width="130.222" height="42.417"/><path d="M54.432,41.61v2.872h-16.087c-.022-.72.094-1.411.349-2.075.409-1.096,1.065-2.175,1.968-3.237.901-1.062,2.205-2.291,3.909-3.686,2.646-2.169,4.433-3.887,5.362-5.155.93-1.267,1.395-2.465,1.395-3.594,0-1.184-.424-2.183-1.27-2.997-.848-.813-1.951-1.22-3.312-1.22-1.438,0-2.59.432-3.453,1.295s-1.301,2.059-1.312,3.586l-3.071-.315c.21-2.291,1.002-4.037,2.374-5.238,1.372-1.201,3.215-1.801,5.528-1.801,2.335,0,4.184.647,5.545,1.942s2.042,2.9,2.042,4.814c0,.974-.199,1.932-.598,2.872-.398.941-1.06,1.932-1.983,2.972-.925,1.04-2.46,2.468-4.607,4.283-1.793,1.505-2.944,2.526-3.453,3.062-.509.537-.93,1.077-1.262,1.619h11.937Z"/><path d="M57.728,44.482v-17.631h2.689v2.507c1.295-1.937,3.165-2.905,5.612-2.905,1.062,0,2.039.191,2.931.573.891.382,1.558.883,2,1.502.442.62.753,1.356.93,2.208.11.554.166,1.522.166,2.905v10.841h-2.988v-10.725c0-1.217-.116-2.127-.349-2.731-.232-.603-.645-1.084-1.237-1.444-.592-.359-1.286-.54-2.083-.54-1.272,0-2.371.404-3.296,1.212-.924.808-1.386,2.341-1.386,4.599v9.629h-2.988Z"/><path d="M87.676,44.482v-2.225c-1.118,1.749-2.762,2.623-4.931,2.623-1.405,0-2.698-.388-3.876-1.162-1.18-.774-2.092-1.856-2.74-3.246-.646-1.389-.971-2.985-.971-4.789,0-1.76.293-3.356.88-4.79.587-1.433,1.467-2.532,2.64-3.295s2.484-1.146,3.935-1.146c1.062,0,2.009.224,2.839.672s1.505,1.032,2.025,1.751v-8.732h2.972v24.338h-2.772ZM78.23,35.684c0,2.258.476,3.945,1.428,5.063s2.075,1.677,3.37,1.677c1.306,0,2.416-.534,3.328-1.603.914-1.067,1.37-2.697,1.37-4.889,0-2.413-.465-4.184-1.395-5.312s-2.075-1.693-3.437-1.693c-1.328,0-2.438.542-3.328,1.627-.892,1.085-1.337,2.795-1.337,5.13Z"/></svg>