<?xml version="1.0" encoding="UTF-8"?>
<svg id="Layer_1" data-name="Layer 1" xmlns="http://www.w3.org/2000/svg" viewBox="0 0 959.999 779.943">
  <path d="M677.999,777.54l-240-102.9c-5.356-2.34-9.914-6.191-13.113-11.082-3.195-4.894-4.894-10.613-4.887-16.457v-168.78l-138,59.219c-3.789,1.637-7.875,2.477-12,2.461-4.125-.004-8.207-.84-12-2.461L18,434.699c-5.355-2.336-9.914-6.188-13.113-11.082C1.691,418.727-.008,413.004,0,407.16V135c.027-.48.027-.961,0-1.441v-.719c-.008-5.844,1.691-11.566,4.887-16.457,3.199-4.895,7.758-8.746,13.113-11.082L258,2.461C261.789.824,265.875-.015,270,0c4.125-.016,8.211.824,12,2.461l240,102.84c5.356,2.336,9.914,6.188,13.113,11.082,3.195,4.891,4.894,10.613,4.887,16.457v168.78l138-59.219v-.004c3.789-1.637,7.875-2.473,12-2.457,4.125-.016,8.211.82,12,2.457l240,102.84c5.355,2.34,9.914,6.191,13.113,11.086,3.195,4.891,4.895,10.609,4.887,16.457v274.32c.008,5.844-1.691,11.562-4.887,16.457-3.199,4.891-7.758,8.742-13.113,11.082l-240,102.9c-3.793,1.617-7.879,2.434-12,2.402-4.121.031-8.207-.785-12-2.402h0ZM719.999,495.54v208.98l180-77.16v-208.98l-180,77.16ZM479.999,627.54l180,77.102v-208.98l-180-77.16v209.038ZM299.999,255.54v208.98l120-51.48v-40.199c-.008-5.844,1.691-11.566,4.887-16.457,3.199-4.894,7.758-8.746,13.113-11.082l42-18v-148.98l-180,77.218ZM59.999,387.54l180,77.16v-209.04L59.999,178.558v208.982ZM526.199,373.02l163.86,70.262,163.86-70.262-163.86-70.199-163.86,70.199ZM106.199,133.02l163.86,70.262,163.86-70.262-163.86-70.199-163.86,70.199Z"/>
</svg>