<?xml version="1.0" encoding="UTF-8"?>
<svg id="Layer_1" data-name="Layer 1" xmlns="http://www.w3.org/2000/svg" viewBox="0 0 677.873 960.014">
  <path d="M14.574,960.014h198.71c7.219.047,13.5-4.969,15-12l110.3-547.78,110.3,547.78c1.5,7.031,7.781,12.047,15,12h198.71c4.219,0,8.297-1.734,11.156-4.828,2.906-3.094,4.406-7.266,4.078-11.484l-52.453-828-6.844-101.06c-.141-4.031-1.922-7.875-4.922-10.641s-6.938-4.172-11.016-3.984H74.594c-8.062,0-14.719,6.234-15.234,14.297l-6.844,101.06L.063,943.374v-.047c-.375,4.172.938,8.297,3.703,11.484,2.719,3.141,6.656,5.016,10.828,5.203h-.02ZM601.494,229.464h-34.922c-56.203-.234-103.73-41.766-111.47-97.453h140.16l6.232,97.453ZM353.944,30.724h234.56l4.781,70.312h-240l.659-70.312ZM88.634,30.724h234.56v70.312l-239.39.047,4.83-70.359ZM81.884,132.024h140.16c-7.734,55.688-55.266,97.219-111.47,97.453h-34.922l6.232-97.453ZM73.728,260.314h36c73.5.047,135.28-55.219,143.29-128.29h171.1c8.109,72.656,69.375,127.69,142.45,128.06h36l42.469,669.24h-168.61l-122.86-609.84c-.422-1.969-1.172-3.844-2.297-5.531l-1.547-1.922c-.703-.984-1.594-1.828-2.625-2.531-.984-.609-2.016-1.078-3.141-1.406l-2.391-.938v-.047c-1.078-.141-2.156-.141-3.234,0h-2.766c-1.922.375-3.703,1.172-5.297,2.297-.797.562-1.5,1.266-2.156,2.016l-2.062,2.062h.047c-1.125,1.688-1.875,3.516-2.297,5.484l-123.1,610.36H31.251l42.477-669.015Z"/>
</svg>