<?xml version="1.0" encoding="UTF-8"?>
<svg width="1200pt" height="1200pt" version="1.1" viewBox="0 0 1200 1200" xmlns="http://www.w3.org/2000/svg">
 <path d="m830.68 7.125c0-3.9844-3.1406-7.125-7.125-7.125h-447.14c-3.9844 0-7.125 3.1406-7.125 7.125v1185.7c0 3.9844 3.1406 7.125 7.125 7.125h150.84c3.7031 0 6.8438-2.8594 7.125-6.5625l65.578-768.66 65.438 768.66c0.28125 3.7031 3.4219 6.5625 7.125 6.5625h150.84c3.9844 0 7.125-3.1406 7.125-7.125l0.09375-1135.3v-50.484zm-125.21 57.469h41.062v25.359l-20.531 11.25-20.531-11.25zm-121.22 0h31.219v187.78h-3.7031c-15.094 0-27.516-12.422-27.516-27.516l0.046875-160.26zm86.672-14.25 0.09375-36.094h110.34v36.094zm-14.25 0h-111.94l0.046875-36.094h111.94v36.094zm-126.19 0h-110.16v-36.094h110.34v36.094zm285.89 0h-20.812l0.046875-36.094h20.812v36.094zm-410.29-36.094v36.094h-22.547l0.046874-36.094h22.547zm273.19 1171.5-72-845.39c-0.28125-3.7031-3.4219-6.5625-7.125-6.5625s-6.8438 2.8594-7.125 6.5625l-72.141 845.39h-137.29v-1121.2h22.547v12.281c0 3.9844 3.1406 7.125 7.125 7.125s7.125-3.1406 7.125-7.125v-12.281h110.34v12.281c0 3.9844 3.1406 7.125 7.125 7.125s7.125-3.1406 7.125-7.125v-12.281h25.219v160.26c0 23.109 18.656 41.766 41.766 41.766h10.828c3.9844 0 7.125-3.1406 7.125-7.125l0.046875-194.9h26.812v12.281c0 3.9844 3.1406 7.125 7.125 7.125s7.125-3.1406 7.125-7.125v-12.281h20.25v29.672c0 2.5781 1.4062 4.9688 3.7031 6.2812l27.656 15.094c0.98438 0.5625 2.2969 0.84375 3.4219 0.84375s2.4375-0.28125 3.4219-0.84375l27.656-15.094c2.2969-1.2656 3.7031-3.7031 3.7031-6.2812v-29.672h20.391v12.281c0 3.9844 3.1406 7.125 7.125 7.125s7.125-3.1406 7.125-7.125v-12.281h20.812v1121.2h-137.16z"/>
</svg>
