<?xml version="1.0" encoding="UTF-8"?>
<svg id="Layer_1" data-name="Layer 1" xmlns="http://www.w3.org/2000/svg" viewBox="0 0 1125.058 1125.017">
  <defs>
    <style>
      .cls-1 {
        fill-rule: evenodd;
      }
    </style>
  </defs>
  <path class="cls-1" d="M1124.976,924.327c0,9.375-7.594,17.062-16.969,17.062h-314.76l-314.16,181.36c-8.156,4.688-18.516,1.875-23.156-6.281L2.271,330.748c-4.688-8.109-1.875-18.469,6.188-23.156l188.63-108.89-13.734-51.281c-2.438-9.094,2.953-18.422,12.047-20.859l209.9-56.25V17.062c0-9.422,7.641-17.062,17.062-17.062h527.63c4.594,0,8.625,1.594,12.141,5.062l157.97,157.97c4.125,4.125,5.156,8.438,4.922,13.547v747.74l-.05.008ZM668.136,974.436l-220.87,59.156,29.578,51.234,191.26-110.44.032.05ZM397.856,948.045L206.226,232.685l-165.98,95.812,357.66,619.5-.05.048ZM659.886,941.389h-228.56l15.328,57.141,213.232-57.141ZM405.256,844.123l.047-738.56-184.64,49.5,184.64,689.06h-.047ZM439.334,907.311h651.66l.047-715.18h-141.1c-9.422,0-17.062-7.641-17.062-17.062l.047-141h-493.55v873.19l-.042.052ZM1066.854,158.051l-99.844-99.844v99.844h99.844Z"/>
</svg>