<?xml version="1.0" encoding="UTF-8"?>
<svg id="Layer_1" data-name="Layer 1" xmlns="http://www.w3.org/2000/svg" viewBox="0 0 1000.033 1133.305">
  <path d="M566.671,583.308h66.656c9.234,0,16.688,7.453,16.688,16.641s-7.453,16.688-16.688,16.688h-66.656c-9.188,0-16.641-7.5-16.641-16.688s7.453-16.641,16.641-16.641ZM1000.031,849.938v266.68c0,4.453-1.781,8.672-4.875,11.812-3.141,3.094-7.406,4.875-11.812,4.875h-150c-9.188,0-16.641-7.453-16.641-16.688,0-9.188,7.453-16.641,16.641-16.641h133.31l.047-116.67h-116.67c-15.75,21-40.453,33.328-66.703,33.328s-50.906-12.328-66.656-33.328h-99.984v116.67h166.64c9.234,0,16.688,7.453,16.688,16.641,0,9.234-7.453,16.688-16.688,16.688H16.688c-9.188,0-16.688-7.453-16.688-16.688v-233.29c0-46.031,37.312-83.344,83.344-83.344h128.34c19.266-40.594,60.094-66.516,105-66.656h133.31c4.453,0,8.672-1.781,11.812-4.922,3.094-3.094,4.875-7.359,4.875-11.766v-77.484c-30-14.109-49.406-44.016-50.016-77.203v-45.328h-16.641c-27.609,0-50.016-22.359-50.016-49.969v-34.5c-9.656-29.672-42.844-152.16,23.156-252.66v-.047c2.25-4.031,6.094-6.984,10.594-8.109s9.234-.328,13.125,2.203,6.562,6.562,7.312,11.156c.797,4.547-.375,9.234-3.188,12.938-44.156,67.5-36.984,147.52-27.328,193.31,14.391-7.078,30.562-9.75,46.5-7.641,7.312-18.609,25.031-31.078,45-31.688,72.281-2.297,134.21-52.406,151.5-122.68,2.016-7.453,8.906-12.562,16.641-12.328,7.734-.281,14.625,4.781,16.688,12.188,10.359,36.094,31.688,68.062,60.984,91.5,23.344,21,67.828,24.844,72.328,63,14.953-1.922,30.141.75,43.5,7.641,10.5-50.016,18-140.34-40.5-210.84-79.172-99.984-265.5-105.33-353.81-18.656-6.75,6.281-17.344,5.859-23.578-.891-6.281-6.75-5.859-17.344.891-23.578,61.031-53.391,141.89-78.281,222.37-68.531C660.835,29.162,705.272,4.318,753.794.521c48.516-3.844,96.234,13.734,130.74,48.094,31.453,31.172,49.078,73.734,48.797,118.03v383.29c1.172,40.312-129.52-1.312-150-12.984v25.359c-.562,33.141-19.969,63.047-49.969,77.156v77.156c0,4.406,1.734,8.672,4.875,11.766,3.141,3.141,7.359,4.922,11.766,4.922h133.36c64.406,0,116.67,52.219,116.67,116.62l-.002.009ZM700.031,716.628v-57.516c-7.312,4.172-42.844,26.344-50.016,29.156v61.688c-.047,21.141-13.406,39.938-33.328,47.016v86.344h99.984c15.75-21,40.453-33.375,66.656-33.375s50.953,12.375,66.703,33.375h116.67v-33.375c0-22.078-8.812-43.266-24.422-58.922-15.656-15.609-36.844-24.375-58.922-24.375h-133.36c-27.609,0-49.969-22.406-49.969-50.016h.004ZM583.361,698.816v51.141c0,9.188,7.453,16.688,16.641,16.688,9.234,0,16.688-7.5,16.688-16.688v-51.516c-11.062,1.781-22.312,1.781-33.328,0v.375ZM850.041,432.136v34.5c-.094,21.891-14.391,41.203-35.344,47.672,27.281,10.688,56.062,17.109,85.312,18.984V166.632c.141-35.344-13.922-69.281-39-94.172-25.406-25.359-59.953-39.375-95.859-38.859-35.859.469-70.031,15.375-94.781,41.344,54.844,11.672,104.44,40.922,141.14,83.344,85.688,103.5,49.031,240.66,38.531,273.52v.327ZM800.025,416.62h-16.688v66.656h16.688c4.406,0,8.672-1.734,11.766-4.875,3.141-3.141,4.922-7.359,4.922-11.766v-33.328c0-4.453-1.781-8.672-4.922-11.812-3.094-3.141-7.359-4.875-11.766-4.875ZM416.685,483.276v-66.656h-16.641c-9.234,0-16.688,7.453-16.688,16.688v33.328c0,4.406,1.781,8.625,4.875,11.766,3.141,3.141,7.359,4.875,11.812,4.875h16.642ZM474.341,605.096l83.344,50.016c26.391,15.797,59.297,15.797,85.688,0l83.344-50.016c14.766-9.328,23.625-25.688,23.297-43.172v-171.66c0-6.984-4.406-13.266-10.969-15.656-45.422-18.703-82.828-52.734-105.7-96.188-26.344,61.172-109.31,108.19-166.69,106.17h.047c-9.188,0-16.688,7.5-16.688,16.688v160.82c.094,17.484,9.328,33.703,24.328,42.656v.342ZM250.051,799.956h99.984c22.078,0,43.312,8.766,58.922,24.375,15.609,15.656,24.422,36.844,24.422,58.969h150v-86.672c-19.828-7.031-33.141-25.688-33.328-46.688v-61.641c-7.312-2.812-42.516-24.844-50.016-29.156v57.469c0,27.609-22.406,50.016-50.016,50.016h-133.31c-26.25,0-50.953,12.328-66.656,33.328h-.002ZM433.371,949.956h150v-33.328h-150v33.328ZM133.371,833.286v83.344c0,27.609,22.359,49.969,49.969,49.969h66.703c27.609,0,49.969-22.359,49.969-49.969v-83.344h-166.641ZM33.341,1033.306h366.71v-150c0-27.656-22.406-50.016-50.016-50.016h-16.688v83.344c0,22.078-8.766,43.266-24.375,58.922-15.656,15.609-36.844,24.375-58.922,24.375h-66.703c-45.984,0-83.297-37.266-83.297-83.297v-83.344h-16.688c-27.609,0-50.016,22.359-50.016,50.016l-.005,150ZM400.001,1099.962l.047-33.328H33.338v33.328h366.71-.047ZM583.321,983.292h-149.95v116.67h150l-.05-116.67ZM701.631,949.964h.047c-2.156-11.016-2.156-22.359,0-33.328h-84.984v33.328h84.937ZM783.334,883.308c-27.609,0-49.969,22.359-49.969,49.969s22.359,50.016,49.969,50.016,50.016-22.406,50.016-50.016-22.359-49.969-50.016-49.969ZM966.654,949.964l.047-33.328h-101.67c2.156,10.969,2.156,22.312,0,33.328h101.623ZM183.334,916.636h16.688v16.688-.047c0,9.234,7.453,16.688,16.688,16.688,9.188,0,16.641-7.453,16.641-16.688v-16.641h16.688c9.188,0,16.641-7.5,16.641-16.688s-7.453-16.641-16.641-16.641h-16.688v-16.688c0-9.188-7.453-16.688-16.641-16.688-9.234,0-16.688,7.5-16.688,16.688v16.688h-16.688c-9.188,0-16.641,7.453-16.641,16.641s7.453,16.688,16.641,16.688h0ZM795.144,921.464h.047c-3.141-3.188-7.406-4.922-11.859-4.922-4.406,0-8.672,1.734-11.812,4.922-1.453,1.594-2.672,3.469-3.516,5.484-2.109,5.109-1.5,10.969,1.547,15.562,3.094,4.641,8.25,7.406,13.781,7.453,6.938.188,13.266-3.938,15.891-10.359,2.625-6.375,1.031-13.734-4.031-18.469l-.048.328Z"/>
</svg>