<?xml version="1.0" encoding="UTF-8"?>
<svg id="Layer_1" data-name="Layer 1" xmlns="http://www.w3.org/2000/svg" viewBox="0 0 1023.937 951.896">
  <defs>
    <style>
      .cls-1 {
        fill: none;
        stroke: red;
        stroke-miterlimit: 10;
        stroke-width: 30px;
      }
    </style>
  </defs>
  <path d="M245.042,386.23c4.48-2.594,10.211-1.066,12.809,3.41,3.918,6.887,10.152,12.164,17.594,14.887,7.441,2.727,15.605,2.727,23.047,0,7.441-2.723,13.676-8,17.594-14.887,1.188-2.262,3.242-3.945,5.695-4.656s5.094-.391,7.305.887c2.211,1.277,3.805,3.406,4.414,5.887s.176,5.102-1.195,7.258c-6.125,10.691-15.836,18.875-27.41,23.102-11.578,4.227-24.273,4.227-35.852,0-11.574-4.227-21.285-12.41-27.41-23.102-2.582-4.473-1.055-10.191,3.41-12.785h0ZM1023.842,863.509c1.098,23.047-7.293,45.539-23.215,62.238-15.926,16.699-37.992,26.148-61.066,26.148H84.471c-23.09.027-45.184-9.41-61.125-26.113-15.945-16.703-24.348-39.211-23.25-62.273l10.914-229.18v-.004c1.316-26.75,11.391-52.324,28.668-72.789,17.277-20.461,40.805-34.68,66.957-40.461l105.34-23.211v-35.008c-46.352-26.758-74.934-76.191-75-129.71-9.656.047-18.953-3.648-25.941-10.312-6.984-6.664-11.117-15.777-11.523-25.426-.41-9.645,2.941-19.074,9.34-26.305v-97.332c.039-32.312,12.895-63.289,35.738-86.137,22.848-22.844,53.824-35.699,86.137-35.738h75c19.168,0,37.363,8.445,49.742,23.082,8.773,9.602,21.316,14.871,34.312,14.418h9.695c17.406,0,34.098,6.914,46.402,19.223,12.309,12.305,19.223,28.996,19.223,46.402v116.08c6.398,7.23,9.75,16.66,9.34,26.305-.406,9.648-4.539,18.762-11.523,25.426-6.988,6.664-16.285,10.359-25.941,10.312-.066,53.52-28.648,102.95-75,129.71v34.988l56.25,12.43v.004c32.086-25.004,72.91-35.996,113.21-30.488-28.02-13.93-50.367-37.113-63.262-65.625-.91-2.754-.496-5.773,1.121-8.176,1.617-2.406,4.258-3.93,7.148-4.125,65.887-4.387,78.039-73.125,76.594-129.88l-5.383-53.664v-24.375c-.055-78.297,74.945-142.05,166.95-142.05h41.117c92.043,0,166.88,63.75,166.88,142.07v23.398l-5.492,55.293c-1.367,56.137,10.781,124.8,76.668,129.19,2.895.191,5.539,1.711,7.16,4.117s2.039,5.43,1.125,8.184c-1.012,3.074-23.57,66.262-138.54,95.082l53.852,11.852v-.004c26.148,5.781,49.676,20,66.953,40.461,17.281,20.465,27.355,46.039,28.672,72.789l10.842,229.184h0ZM913.362,539.4l-65.926-14.512c-9.356,54.879-47.867,108.26-101.1,108.26h-18.75c-24.648-.586-47.895-11.57-63.992-30.242,2.559,12.781,3.504,25.832,2.812,38.848,8.211,6.445,13.352,16.035,14.172,26.441.824,10.41-2.75,20.684-9.848,28.34-7.102,7.656-17.078,11.988-27.52,11.949h-7.5c-12.328,28.105-33.852,51.184-61.031,65.438.695.355,1.352.75,2.043,1.125.52.055,1.035.156,1.539.301,1.234.516,2.34,1.297,3.242,2.289,13.262,7.555,25.188,17.242,35.309,28.668,14.246-5.992,30.336-5.836,44.465.43,14.133,6.262,25.051,18.082,30.176,32.664h214.26v-2.57c0-2.738,1.199-5.344,3.281-7.125,21.438-16.844,35-41.773,37.5-68.922,3.898-53.344-38.043-102.24-38.477-102.73v-.004c-3.398-3.902-2.992-9.824.91-13.227,3.906-3.402,9.828-2.996,13.23.91,1.875,2.211,47.438,55.07,43.125,116.25-.32,4.184-.875,8.348-1.672,12.469l36.789-10.742-6.113-128.55c-1.129-22.625-9.664-44.25-24.285-61.551s-34.52-29.32-56.641-34.207h.002ZM378.242,673.69c-.336-2.231-.695-4.461-.918-6.731-.414-4.352-.73-8.699-.73-13.125v-1.109c-6.016,1.398-10.957,5.672-13.211,11.422-2.254,5.754-1.531,12.246,1.934,17.359s9.227,8.191,15.402,8.231h.617c-.863-3.074-1.574-6.113-2.156-9.074-.336-2.285-.637-4.648-.938-6.973h0ZM437.812,743.815c16.148,13.266,35.586,21.922,56.25,25.047,1.594.242,3.188.469,4.781.637,2.586.281,5.176.508,7.781.617,2.606.113,5.344.133,7.988,0,1.633,0,3.242,0,4.875-.133v.004c9.379-.617,18.652-2.356,27.617-5.172h.246c33.543-10.52,60.504-35.691,73.293-68.438v-.695c2.582-6.684,4.551-13.586,5.887-20.625.094-.523.094-1.031.168-1.555,1.055-5.977,1.629-12.027,1.707-18.094.352-18.816-3.891-37.438-12.355-54.246-3.555-6.891-9.676-12.105-17.043-14.52-7.367-2.414-15.391-1.832-22.332,1.621l-13.539,6.789v-.004c-25.789,12.883-54.215,19.613-83.043,19.672h-54.73c-7.031-.129-13.871,2.309-19.234,6.856-5.363,4.551-8.883,10.898-9.902,17.855-.113,1.012-.094,2.102-.188,3.113.07.371.113.746.129,1.125-.504,5.734-.645,11.496-.43,17.25v.207c.238,4.121.715,8.231,1.426,12.297.93,5.801,2.316,11.52,4.141,17.102.242.77.508,1.539.77,2.305,7.07,19.91,19.426,37.52,35.738,50.945v.04h0ZM642.802,687.772c-.168.656-.227,1.312-.414,1.969l.828-.004c6.215.008,12.027-3.062,15.523-8.199,3.496-5.137,4.219-11.672,1.934-17.449s-7.285-10.047-13.352-11.398v1.125c0,.73-.148,1.461-.148,2.195,0,2.383-.336,4.762-.508,7.144-.301,4.199-.695,8.398-1.387,12.562-.262,1.648-.227,3.281-.543,4.93-.449,2.434-1.332,4.742-1.934,7.121v.004h.001ZM462.102,788.512h.004c10.59,17.398,29.488,28.016,49.855,28.016s39.266-10.617,49.855-28.016c-3.926-1.84-7.941-3.473-12.035-4.894l-.992.227c-3.262.918-6.449,2.062-9.824,2.719h-.004c-6.359,1.18-12.793,1.918-19.258,2.211-1.332,0-2.664.148-3.977.188s-2.344.168-3.488.168-2.117-.242-3.188-.262h.004c-6.324-.109-12.633-.648-18.883-1.613-.582-.094-1.18-.133-1.762-.242-1.164-.188-2.324-.227-3.469-.449-3.688-.777-7.328-1.746-10.91-2.906-4.059,1.406-8.039,3.027-11.926,4.856h-.003v-.003ZM644.802,520.852c7.691,46.441,39.961,93.543,82.785,93.543h18.75c42.824,0,75.094-47.102,82.781-93.543l-12.73-2.812c-4.293.582-8.289,1.293-12.77,1.875-2.973-1.211-5.543-3.227-7.422-5.828-1.879-2.598-2.992-5.672-3.211-8.871,0-.375.148-1.875.207-2.176v-30.938c-36.055,14.723-76.445,14.723-112.5,0v30.977-.004c.137.617.211,1.246.227,1.875-.59,2.277-.629,4.664-.113,6.957-.492,4.801-4.551,8.445-9.375,8.418h-.977c-5.023-.523-9.543-1.273-14.324-1.875l-11.328,2.402h0ZM868.212,333.142v-84.375c-.004-11.801-4.457-23.168-12.469-31.828-8.016-8.66-19.004-13.98-30.77-14.898-25.539,23.902-59.184,37.246-94.16,37.352h-78.227c-12.434,0-24.355,4.938-33.145,13.73-8.793,8.789-13.73,20.711-13.73,33.145v46.875c.008,23.289,6.211,46.156,17.973,66.258,11.766,20.098,28.664,36.707,48.965,48.117,2.164.285,4.156,1.328,5.625,2.945,40.66,20.5,89.051,18.414,127.79-5.516,38.742-23.93,62.277-66.27,62.145-111.8l.003-.006h0ZM583.212,482.522c.715.023,1.426.125,2.117.297,17.734,6.07,35.914,10.734,54.375,13.953.281.09.559.195.828.316,4.727.824,9.508,1.594,14.531,2.305l6.898-1.555v-34.988c-46.352-26.758-74.934-76.191-75-129.71v-46.875c0-17.406,6.914-34.098,19.223-46.402,12.305-12.309,28.996-19.223,46.402-19.223h78.227c31.449-.09,61.59-12.582,83.887-34.762,1.762-1.758,4.148-2.742,6.637-2.738,17.406,0,34.098,6.914,46.402,19.223,12.309,12.305,19.223,28.996,19.223,46.402v84.375c-.066,53.52-28.648,102.95-75,129.71v34.988l5.625,1.219c107.25-15.43,147.9-59.832,161.16-80.324-54.074-10.594-82.406-62.344-80.305-147.24l5.492-55.07v-22.5c-.094-67.969-66.523-123.28-148.22-123.28h-41.117c-81.734,0-148.26,55.312-148.26,123.32v23.398l5.383,53.438c2.195,85.539-26.25,137.25-80.137,147.94h-.004c22.66,30.801,54.883,53.23,91.633,63.789v-.006h0ZM602.993,508.135v-.004c7.887,5.68,15.219,12.09,21.898,19.145.992,1.07,1.875,2.231,2.812,3.32-1.141-5.32-2.012-10.699-2.606-16.105.008-.422.047-.844.113-1.258-7.82-1.574-15.242-3.242-22.273-5.102l.055.003h.001ZM511.962,497.147c-37.609-.156-73.57,15.418-99.188,42.953-4.789,5.144-9.176,10.648-13.125,16.465-1.727,3.055-3.637,5.926-5.625,8.812-12.027,20.828-18.25,44.5-18.02,68.551.75-.094,1.5-.168,2.27-.227,2.273-10.727,8.18-20.34,16.719-27.215,8.543-6.875,19.191-10.594,30.156-10.527h54.938c25.902-.035,51.445-6.066,74.625-17.625l13.5-6.769c11.387-5.676,24.551-6.633,36.637-2.664,12.086,3.973,22.117,12.547,27.918,23.871,6.488,12.863,10.855,26.691,12.938,40.949l2.062.207c.285-36.195-13.898-71.004-39.402-96.691-25.5-25.684-60.207-40.117-96.402-40.09h-.001ZM383.712,546.889c3.984-7.258,7.129-14.945,9.375-22.914l-32.512-7.164v.004c-.645,3.012-1.484,5.981-2.512,8.887-.449,1.445-.805,2.906-1.332,4.312-.883,2.211-1.988,4.293-3.074,6.414-1.086,2.117-2.062,4.106-3.281,6.055-1.012,1.594-2.137,3.094-3.281,4.613-1.641,2.231-3.406,4.367-5.289,6.394-1.086,1.18-2.211,2.289-3.375,3.375-2.223,2.078-4.57,4.019-7.031,5.812-1.18.844-2.324,1.707-3.543,2.492-2.703,1.695-5.508,3.215-8.402,4.555-1.273.602-2.477,1.258-3.75,1.781-3.152,1.219-6.383,2.219-9.672,3-1.238.32-2.418.75-3.75,1.012v.004c-4.672.922-9.418,1.398-14.176,1.422h-2.363c-4.766-.023-9.52-.5-14.195-1.422-1.238-.242-2.398-.695-3.637-.992v-.004c-3.312-.777-6.562-1.793-9.73-3.035-1.273-.508-2.457-1.144-3.75-1.742v-.004c-2.926-1.34-5.754-2.875-8.477-4.594-1.199-.77-2.344-1.613-3.488-2.457h.004c-2.477-1.793-4.84-3.738-7.07-5.828-1.164-1.086-2.289-2.195-3.375-3.356v-.004c-1.879-2.027-3.637-4.16-5.27-6.391-1.145-1.539-2.289-3.039-3.32-4.668-1.031-1.633-2.195-3.898-3.207-5.926h.004c-1.168-2.137-2.219-4.336-3.152-6.582-.469-1.238-.77-2.57-1.18-3.844-1.09-3.031-1.973-6.133-2.645-9.281l-32.531,7.164v-.004c6.547,22.773,20.309,42.801,39.219,57.078,18.906,14.273,41.941,22.027,65.633,22.086h2.773c35.852-.145,69.355-17.855,89.664-47.398,1.781-3.019,3.711-5.984,5.699-8.852h0v.002ZM455.712,295.639c0-4.973-1.977-9.742-5.492-13.258-3.516-3.516-8.285-5.492-13.258-5.492v37.5c4.973,0,9.742-1.977,13.258-5.492,3.516-3.516,5.492-8.285,5.492-13.258h0ZM127.592,173.759v85.707c3.055-.848,6.207-1.293,9.375-1.332h6.582c5.305-11.184,13.66-20.637,24.109-27.273,10.445-6.633,22.559-10.18,34.934-10.227h78.227c31.449-.09,61.59-12.582,83.887-34.762,1.762-1.758,4.148-2.742,6.637-2.738,17.406,0,34.098,6.914,46.402,19.223,12.309,12.305,19.223,28.996,19.223,46.402v9.375c3.168.039,6.32.484,9.375,1.332v-104.46c0-12.434-4.938-24.355-13.73-33.145-8.789-8.793-20.711-13.73-33.145-13.73h-9.695c-18.504.469-36.277-7.227-48.598-21.039-8.82-10.438-21.789-16.461-35.457-16.461h-75c-27.34.035-53.551,10.91-72.883,30.242s-30.207,45.543-30.242,72.883v.003h0ZM136.967,314.379v-28.125c0-3.141.25-6.273.75-9.375h-.75c-6.699,0-12.887,3.574-16.238,9.375-3.348,5.801-3.348,12.949,0,18.75,3.352,5.801,9.539,9.375,16.238,9.375ZM226.967,449.759c4.016,2.106,8.148,3.981,12.375,5.625.656.262,1.332.488,2.008.73,29.426,10.652,61.656,10.652,91.086,0,.676-.242,1.352-.469,2.008-.73,4.227-1.644,8.355-3.519,12.375-5.625,21.469-11,39.492-27.707,52.086-48.281,12.598-20.574,19.277-44.219,19.312-68.344v-84.375c-.004-11.801-4.457-23.168-12.469-31.828-8.016-8.66-19.004-13.98-30.77-14.898-25.539,23.902-59.184,37.246-94.16,37.352h-78.227c-9.633.039-19.02,3.043-26.883,8.605-7.863,5.562-13.824,13.414-17.066,22.48v.172c-.898,2.516-1.602,5.098-2.102,7.723-.504,2.602-.777,5.246-.824,7.895v46.875c.02,24.109,6.68,47.746,19.246,68.316,12.57,20.574,30.562,37.289,52.004,48.309h.001,0ZM233.698,473.216c-1.012-.395-2.062-.656-3.055-1.07v30.918c0,.582.148,1.106.168,1.648v.285c.238,7.176,1.871,14.238,4.801,20.793.113.262.281.488.414.75h-.004c1.301,2.805,2.832,5.496,4.578,8.043.805,1.144,1.781,2.156,2.68,3.242v.004c1.164,1.566,2.418,3.07,3.75,4.5,1.727,1.609,3.551,3.121,5.457,4.516.863.637,1.613,1.387,2.492,1.988,2.43,1.582,4.98,2.969,7.633,4.144.562.262,1.051.617,1.613.863,2.832,1.141,5.754,2.043,8.734,2.699.523.133,1.012.375,1.555.488h.004c3.629.73,7.32,1.102,11.023,1.106h2.363c3.703-.004,7.395-.375,11.023-1.106.523-.113.992-.336,1.52-.469,3-.652,5.934-1.562,8.777-2.719.523-.227.977-.562,1.48-.789,2.703-1.199,5.305-2.617,7.781-4.238.789-.523,1.461-1.219,2.23-1.781,2.016-1.449,3.934-3.035,5.738-4.742,1.273-1.258,2.344-2.699,3.488-4.07,1.145-1.367,2.117-2.383,3.039-3.75h-.004c1.613-2.379,3.031-4.887,4.238-7.5.227-.469.543-.898.75-1.387,2.914-6.531,4.539-13.566,4.781-20.719v-.148c0-.602.188-1.164.188-1.781v-30.789c-.992.414-2.043.676-3.055,1.07-3.43,1.312-6.898,2.57-10.445,3.637l-.695.168c-27.445,8.152-56.664,8.152-84.109,0l-.695-.168c-3.262-1.07-6.73-2.324-10.164-3.637h-.074.002ZM29.718,635.176l-7.031,147.96h76.781v-65.625c0-5.176,4.199-9.375,9.375-9.375s9.375,4.199,9.375,9.375v121.88h214.26c3.898-10.949,11.086-20.43,20.578-27.141,9.488-6.711,20.82-10.332,32.445-10.359,7.371.156,14.637,1.777,21.375,4.762,10.188-11.582,22.227-21.398,35.625-29.043.902-.977,2-1.75,3.227-2.269.488-.145.988-.246,1.5-.301.863-.449,1.668-.957,2.551-1.387h-.004c-27.59-13.75-49.402-36.844-61.555-65.176h-7.5c-10.441.039-20.418-4.293-27.52-11.949-7.098-7.656-10.672-17.93-9.848-28.34.82-10.406,5.961-19.996,14.172-26.441-.797-14.473.426-28.988,3.641-43.125-21.312,15.035-46.727,23.16-72.809,23.27h-2.773c-27.953-.102-55.102-9.344-77.312-26.312-22.211-16.973-38.262-40.738-45.707-67.68l-51.992,11.492c-22.113,4.902-42,16.934-56.609,34.238-14.605,17.309-23.125,38.934-24.242,61.555l-.002-.009h0ZM84.468,933.136h278.25l12.543-62.68c3.52-17.297,10.324-33.758,20.043-48.488-9.98-2.719-20.645-1.176-29.445,4.258-8.805,5.434-14.965,14.27-17.016,24.41-.891,4.367-4.73,7.5-9.188,7.5H108.845c-5.176,0-9.375-4.199-9.375-9.375v-46.875H21.79l-2.945,62.492c-.855,17.941,5.676,35.449,18.078,48.441,12.402,12.996,29.586,20.336,47.547,20.316h-.002ZM642.168,933.136l-11.773-59.008c-6.34-31.508-25.066-59.148-51.977-76.723-13.867,23.465-39.098,37.859-66.355,37.859s-52.488-14.395-66.355-37.859c-26.918,17.562-45.648,45.211-51.977,76.723l-11.867,59.008h54.168v-65.625c0-5.176,4.199-9.375,9.375-9.375s9.375,4.199,9.375,9.375v65.625h114.38v-65.625c0-5.176,4.199-9.375,9.375-9.375s9.375,4.199,9.375,9.375v65.625h54.256ZM1005.098,864.378l-3.75-81.41-44.043,12.883v-.004c-7.105,16.594-17.723,31.449-31.125,43.539h9.375c5.176,0,9.375,4.199,9.375,9.375s-4.199,9.375-9.375,9.375h-251.25c-4.457,0-8.297-3.133-9.188-7.5-1.727-8.457-6.32-16.062-13-21.527-6.68-5.465-15.043-8.457-23.676-8.473-3.301.043-6.578.531-9.75,1.445,9.703,14.691,16.488,31.117,19.988,48.375l12.543,62.68h278.34c17.961.02,35.145-7.32,47.547-20.316,12.402-12.992,18.934-30.5,18.078-48.441l-.089-.002h0ZM778.858,386.258c-4.477-2.59-10.211-1.062-12.805,3.414-3.922,6.887-10.156,12.16-17.598,14.887-7.438,2.727-15.605,2.727-23.047,0-7.441-2.727-13.672-8-17.594-14.887-1.184-2.266-3.242-3.945-5.695-4.66-2.453-.711-5.09-.391-7.305.891-2.211,1.277-3.805,3.402-4.414,5.883-.605,2.484-.176,5.105,1.195,7.262,6.129,10.691,15.836,18.875,27.414,23.102,11.574,4.227,24.273,4.227,35.848,0,11.574-4.227,21.285-12.41,27.414-23.102,1.254-2.148,1.602-4.707.969-7.113-.633-2.402-2.195-4.461-4.344-5.711l-.038.035h0ZM230.718,328.433c5.688.031,10.832-3.371,13.027-8.617,2.199-5.246,1.016-11.297-2.996-15.328-4.012-4.035-10.055-5.25-15.312-3.078-5.258,2.168-8.688,7.293-8.688,12.98,0,7.727,6.242,14.004,13.969,14.043h0ZM343.068,328.433c5.684.031,10.828-3.371,13.027-8.617,2.195-5.246,1.012-11.297-2.996-15.328-4.012-4.035-10.059-5.25-15.316-3.078-5.254,2.168-8.684,7.293-8.684,12.98,0,3.738,1.488,7.32,4.137,9.957,2.652,2.637,6.242,4.105,9.98,4.086h-.148ZM694.838,314.391c0-5.68-3.422-10.801-8.668-12.977-5.246-2.172-11.289-.969-15.305,3.047s-5.219,10.055-3.043,15.305c2.172,5.246,7.293,8.668,12.973,8.668,3.727,0,7.297-1.48,9.93-4.113,2.637-2.633,4.113-6.203,4.113-9.93h0ZM793.221,300.348c-5.68,0-10.801,3.422-12.977,8.668-2.172,5.25-.969,11.289,3.047,15.305s10.055,5.219,15.305,3.047c5.246-2.176,8.668-7.297,8.668-12.977,0-3.727-1.481-7.297-4.113-9.93-2.633-2.633-6.203-4.113-9.93-4.113h0ZM455.721,666.258c5.68,0,10.801-3.422,12.977-8.672,2.172-5.246.969-11.285-3.047-15.305-4.016-4.016-10.055-5.215-15.305-3.043-5.246,2.176-8.668,7.293-8.668,12.977,0,3.723,1.481,7.297,4.113,9.93,2.633,2.633,6.203,4.113,9.93,4.113h0ZM568.071,666.258c5.68,0,10.801-3.422,12.973-8.672,2.176-5.246.973-11.285-3.043-15.305-4.016-4.016-10.059-5.215-15.305-3.043-5.25,2.176-8.672,7.293-8.672,12.977,0,3.75,1.5,7.344,4.168,9.981,2.668,2.641,6.277,4.102,10.027,4.062h-.148ZM466.581,699.391l-.004-.004c6.121,10.695,15.828,18.879,27.398,23.105,11.574,4.231,24.27,4.231,35.84,0,11.574-4.227,21.277-12.41,27.398-23.105,2.152-4.418.523-9.746-3.731-12.211-4.25-2.465-9.684-1.227-12.449,2.836-3.918,6.898-10.152,12.184-17.602,14.918-7.449,2.731-15.625,2.731-23.07,0-7.449-2.734-13.688-8.019-17.602-14.918-2.766-4.062-8.199-5.301-12.453-2.836-4.25,2.465-5.879,7.793-3.731,12.211l.005.004h0Z"/>
  <ellipse class="cls-1" cx="285.783" cy="248.839" rx="227.788" ry="233.839"/>
  <ellipse class="cls-1" cx="741.359" cy="248.839" rx="227.788" ry="233.839"/>
</svg>