<?xml version="1.0" encoding="UTF-8"?>
<svg id="Layer_1" data-name="Layer 1" xmlns="http://www.w3.org/2000/svg" viewBox="0 0 1199.669 1086.049">
  <defs>
    <style>
      .cls-1 {
        fill-rule: evenodd;
      }
    </style>
  </defs>
  <path class="cls-1" d="M713.124,833.949h-456.84c-13.922,0-25.266-11.297-25.266-25.266v-134.34c0-13.922,11.344-25.219,25.266-25.219h456.84c13.922,0,25.266,11.344,25.266,25.219v134.34c0,13.922-11.344,25.266-25.266,25.266h0ZM262.984,802.027h443.48v-120.98h-443.48v120.98Z"/>
  <path class="cls-1" d="M755.464,992.599H213.964c-11.438,0-20.719-9.281-20.719-20.719v-68.953c0-11.438,9.281-20.719,20.719-20.719h541.5c11.438,0,20.719,9.281,20.719,20.719v68.953c0,11.438-9.281,20.719-20.719,20.719ZM225.174,960.677h519.1v-46.547H225.174v46.547Z"/>
  <path class="cls-1" d="M298.604,1085.999c-8.812,0-15.984-7.172-15.984-15.984v-93.328c0-8.812,7.172-15.984,15.984-15.984s15.984,7.172,15.984,15.984v93.328c0,8.812-7.172,15.984-15.984,15.984Z"/>
  <path class="cls-1" d="M670.894,1085.999c-8.812,0-15.984-7.172-15.984-15.984v-93.328c0-8.812,7.172-15.984,15.984-15.984s15.984,7.172,15.984,15.984v93.328c0,8.812-7.172,15.984-15.984,15.984Z"/>
  <path class="cls-1" d="M331.234,914.159c-8.812,0-15.984-7.172-15.984-15.984v-80.203c0-8.812,7.172-15.984,15.984-15.984s15.984,7.172,15.984,15.984v80.203c0,8.812-7.172,15.984-15.984,15.984Z"/>
  <path class="cls-1" d="M638.224,914.159c-8.812,0-15.984-7.172-15.984-15.984v-80.203c0-8.812,7.172-15.984,15.984-15.984s15.984,7.172,15.984,15.984v80.203c0,8.812-7.125,15.984-15.984,15.984Z"/>
  <path class="cls-1" d="M1078.684,808.129c-34.547,0-67.406-15.047-90.141-40.406-22.734,25.312-55.594,40.406-90.141,40.406-66.656,0-120.89-54.234-120.89-120.89,0-42.328,22.031-81.094,57.375-102.89-7.359-15.844-11.203-33.141-11.203-50.859,0-47.484,28.453-90.656,70.922-110.06-1.688-7.219-2.531-14.625-2.531-22.219,0-53.625,43.641-97.266,97.266-97.266s97.266,43.641,97.266,97.266c0,7.734-.891,15.375-2.672,22.781,42.188,19.641,69.562,61.875,69.562,109.5,0,17.719-3.844,34.969-11.203,50.859,35.344,21.797,57.375,60.562,57.375,102.89,0,66.656-54.234,120.89-120.89,120.89l-.095-.002ZM988.543,724.973c5.625,0,10.828,2.953,13.688,7.781,15.984,26.812,45.281,43.453,76.453,43.453,49.078,0,88.969-39.938,88.969-88.969,0-35.484-21.047-67.547-53.672-81.703-4.312-1.875-7.594-5.531-8.953-10.078-1.359-4.5-.656-9.375,1.922-13.312,9.469-14.484,14.484-31.266,14.484-48.656,0-39.094-25.031-73.219-62.297-84.891-4.312-1.359-7.828-4.5-9.75-8.578-1.875-4.125-1.922-8.812-.141-12.984,3.516-8.156,5.297-16.828,5.297-25.828,0-36.047-29.297-65.344-65.344-65.344s-65.344,29.297-65.344,65.344c0,8.859,1.734,17.438,5.156,25.5,1.781,4.172,1.688,8.906-.234,13.031s-5.531,7.219-9.844,8.531c-37.359,11.203-63.422,46.219-63.422,85.219,0,17.344,5.016,34.172,14.484,48.656,2.578,3.938,3.281,8.812,1.922,13.312s-4.641,8.203-8.953,10.078c-32.578,14.109-53.672,46.172-53.672,81.703,0,49.078,39.891,88.969,88.969,88.969,31.172,0,60.469-16.641,76.453-43.453,2.906-4.828,8.109-7.781,13.734-7.781h.095Z"/>
  <path class="cls-1" d="M988.524,1085.999c-8.812,0-15.984-7.172-15.984-15.984v-552.19c0-8.812,7.172-15.984,15.984-15.984s15.984,7.172,15.984,15.984v552.24c0,8.812-7.172,15.984-15.984,15.984v-.05Z"/>
  <path class="cls-1" d="M988.524,623.679c-4.078,0-8.203-1.547-11.297-4.688-6.234-6.234-6.188-16.359.047-22.594l54.047-53.859c6.234-6.234,16.359-6.188,22.594.047s6.188,16.359-.047,22.594l-54.047,53.859c-3.094,3.094-7.219,4.688-11.25,4.688l-.047-.047Z"/>
  <path class="cls-1" d="M988.524,707.629c-4.078,0-8.156-1.547-11.297-4.641l-54-53.859c-6.234-6.234-6.234-16.312-.047-22.594,6.234-6.234,16.312-6.234,22.594-.047l54,53.859c6.234,6.234,6.234,16.312.047,22.594-3.094,3.141-7.219,4.688-11.297,4.688Z"/>
  <path class="cls-1" d="M120.574,1041.399c-8.812,0-15.984-7.172-15.984-15.984V350.275c0-34.922,28.406-63.375,63.375-63.375h108.8c34.969,0,63.375,28.406,63.375,63.375v30.562c0,8.812-7.172,15.984-15.984,15.984s-15.984-7.172-15.984-15.984v-30.562c0-17.344-14.109-31.453-31.453-31.453h-108.8c-17.344,0-31.453,14.109-31.453,31.453v675.14c0,8.812-7.125,15.984-15.938,15.984h.046Z"/>
  <path class="cls-1" d="M324.154,544.219c-33.281,0-60.375-27.094-60.375-60.375,0-5.203.656-10.406,2.016-15.422,1.828-6.984,8.156-11.906,15.422-11.906h85.828c7.266,0,13.594,4.875,15.422,11.906,1.312,5.016,2.016,10.219,2.016,15.422,0,33.281-27.094,60.375-60.328,60.375h0ZM296.123,488.485c2.203,13.5,13.969,23.812,28.078,23.812s25.828-10.312,28.078-23.812h-56.156Z"/>
  <path class="cls-1" d="M422.124,488.479h-199.36c-8.812,0-15.984-7.172-15.984-15.984v-45.844c0-34.078,27.703-61.781,61.781-61.781h107.67c34.078,0,61.781,27.703,61.781,61.781v45.844c0,8.812-7.172,15.984-15.984,15.984h.096ZM238.754,456.557h167.39v-29.859c0-16.453-13.406-29.859-29.859-29.859h-107.72c-16.453,0-29.859,13.406-29.859,29.859v29.859h.048Z"/>
  <path class="cls-1" d="M162.624,1085.999h-83.203c-8.812,0-15.984-7.172-15.984-15.984v-44.531c0-8.812,7.172-15.984,15.984-15.984h83.203c8.812,0,15.984,7.172,15.984,15.984v44.531c0,8.812-7.125,15.984-15.938,15.984h-.046ZM95.405,1054.077h51.281v-12.609h-51.281v12.609Z"/>
  <path class="cls-1" d="M496.094,344.059c-7.641,0-14.25-5.391-15.656-12.938-10.828-56.625-38.297-69.094-49.594-71.859-8.578-2.062-13.828-10.688-11.766-19.266s10.734-13.875,19.266-11.766c12.797,3.094,38.906,13.641,57.469,49.078,12.422-24.422,34.359-50.391,72.562-58.172,8.672-1.734,17.062,3.797,18.844,12.469,1.781,8.625-3.797,17.062-12.469,18.844-53.438,10.875-62.438,76.875-62.812,79.688-.984,7.781-7.5,13.734-15.328,13.969h-.516v-.047Z"/>
  <path class="cls-1" d="M304.994,198.189c-7.641,0-14.25-5.438-15.656-12.984-10.828-56.625-38.297-69.094-49.594-71.859-8.578-2.062-13.828-10.688-11.766-19.266s10.734-13.828,19.266-11.766c12.797,3.094,38.906,13.641,57.469,49.078,12.422-24.422,34.359-50.391,72.562-58.172,8.672-1.734,17.062,3.797,18.844,12.469s-3.797,17.062-12.469,18.844c-53.812,10.969-62.719,78.938-62.812,79.641-.938,7.781-7.453,13.734-15.328,14.016h-.516Z"/>
  <path class="cls-1" d="M789.494,273.469c-55.547,0-100.73-45.188-100.73-100.73s45.188-100.73,100.73-100.73,100.73,45.188,100.73,100.73-45.188,100.73-100.73,100.73ZM789.494,103.919c-37.922,0-68.812,30.891-68.812,68.812s30.891,68.812,68.812,68.812,68.812-30.891,68.812-68.812-30.891-68.812-68.812-68.812h0Z"/>
  <path class="cls-1" d="M789.494,59.999c-8.812,0-15.984-7.125-15.984-15.984V15.984c0-8.812,7.172-15.984,15.984-15.984s15.984,7.172,15.984,15.984v28.031c0,8.812-7.125,15.984-15.984,15.984Z"/>
  <path class="cls-1" d="M880.474,97.689c-4.078,0-8.156-1.547-11.297-4.688-6.234-6.234-6.234-16.359,0-22.594l19.828-19.828c6.234-6.234,16.359-6.234,22.594,0s6.234,16.359,0,22.594l-19.828,19.828c-3.094,3.094-7.219,4.688-11.297,4.688Z"/>
  <path class="cls-1" d="M946.234,188.719h-28.031c-8.812,0-15.984-7.172-15.984-15.984s7.172-15.984,15.984-15.984h28.031c8.812,0,15.984,7.172,15.984,15.984s-7.125,15.984-15.984,15.984Z"/>
  <path class="cls-1" d="M900.304,299.529c-4.078,0-8.156-1.547-11.297-4.688l-19.828-19.828c-6.234-6.234-6.234-16.359,0-22.594s16.359-6.234,22.594,0l19.828,19.828c6.234,6.234,6.234,16.359,0,22.594-3.094,3.094-7.219,4.688-11.297,4.688Z"/>
  <path class="cls-1" d="M789.494,345.419c-8.812,0-15.984-7.125-15.984-15.984v-28.078c0-8.812,7.172-15.984,15.984-15.984s15.984,7.172,15.984,15.984v28.078c0,8.812-7.125,15.984-15.984,15.984Z"/>
  <path class="cls-1" d="M678.674,299.529c-4.078,0-8.156-1.547-11.297-4.688-6.234-6.234-6.234-16.359,0-22.594l19.828-19.828c6.234-6.234,16.359-6.234,22.594,0s6.234,16.359,0,22.594l-19.828,19.828c-3.141,3.094-7.219,4.688-11.297,4.688Z"/>
  <path class="cls-1" d="M660.814,188.719h-28.031c-8.812,0-15.984-7.172-15.984-15.984s7.172-15.984,15.984-15.984h28.031c8.812,0,15.984,7.172,15.984,15.984s-7.172,15.984-15.984,15.984Z"/>
  <path class="cls-1" d="M698.504,97.689c-4.078,0-8.156-1.547-11.297-4.688l-19.828-19.828c-6.234-6.234-6.234-16.359,0-22.594s16.359-6.234,22.594,0l19.828,19.828c6.234,6.234,6.234,16.359,0,22.594-3.141,3.094-7.219,4.688-11.297,4.688h0Z"/>
  <path class="cls-1" d="M1175.984,1085.999H15.984c-8.812,0-15.984-7.172-15.984-15.984s7.172-15.984,15.984-15.984h1160c8.812,0,15.984,7.172,15.984,15.984s-7.125,15.984-15.984,15.984Z"/>
</svg>