<?xml version="1.0" encoding="UTF-8"?>
<svg id="Layer_1" data-name="Layer 1" xmlns="http://www.w3.org/2000/svg" viewBox="0 0 1200.074 1150">
  <path d="M460.948,900.604l-46.301-46.301c-18.875-18.902-44-29.301-70.723-29.301h-137.85c-26.699,0-51.824,10.398-70.699,29.273l-46.352,46.324c-50,5.477-89.023,47.953-89.023,99.402v50c0,13.801,11.199,25,25,25h54.625c10.324,29.023,37.824,50,70.375,50s60.051-20.977,70.398-50h109.23c10.352,29.023,37.852,50,70.398,50s60.051-20.977,70.398-50h54.578c13.801,0,25-11.199,25-25v-50c0-51.449-39.023-93.926-89.051-99.398h-.003ZM299.998,875.002h43.926c13.352,0,25.926,5.199,35.375,14.648l10.348,10.352h-89.648v-25ZM170.728,889.627c9.449-9.426,22-14.625,35.348-14.625h43.926v25h-89.648l10.374-10.375ZM150.001,1075.007c-13.773,0-25-11.227-25-25s11.227-25,25-25,25,11.227,25,25-11.227,25-25,25ZM400.001,1075.007c-13.773,0-25-11.227-25-25s11.227-25,25-25,25,11.227,25,25-11.227,25-25,25ZM500.001,1025.007h-29.602c-10.352-29.023-37.852-50-70.398-50s-60.051,20.977-70.398,50h-109.2c-10.348-29.023-37.848-50-70.398-50s-60.051,20.977-70.398,50h-29.602v-25c0-27.574,22.426-50,50-50h350c27.574,0,50,22.426,50,50l-.004,25ZM25.001,275.007h54.625c10.324,29.023,37.824,50,70.375,50s60.051-20.977,70.398-50h109.23c10.352,29.023,37.852,50,70.398,50s60.051-20.977,70.398-50h54.578c13.801,0,25-11.199,25-25v-50c0-51.449-39.051-93.926-89.051-99.398l-46.301-46.301c-18.875-18.902-44-29.301-70.723-29.301h-137.85c-26.699,0-51.824,10.398-70.699,29.273l-46.324,46.328C39.028,106.081.004,148.557.004,200.006v50c0,13.801,11.176,25,25,25h-.003ZM150.001,275.007c-13.773,0-25-11.227-25-25s11.227-25,25-25,25,11.227,25,25-11.227,25-25,25ZM400.001,275.007c-13.773,0-25-11.227-25-25s11.227-25,25-25,25,11.227,25,25-11.227,25-25,25ZM300.001,75.007h43.926c13.352,0,25.926,5.199,35.375,14.648l10.348,10.352h-89.648v-25ZM170.731,89.632c9.449-9.426,22-14.625,35.348-14.625h43.926v25h-89.648l10.374-10.375ZM50.001,200.012c0-27.574,22.426-50,50-50h350c27.574,0,50,22.426,50,50v25h-29.602c-10.348-29.023-37.848-50-70.398-50s-60.051,20.977-70.398,50h-109.2c-10.348-29.023-37.848-50-70.398-50s-60.051,20.977-70.398,50h-29.602l-.004-25ZM1111.001,500.612l-46.352-46.324c-18.875-18.879-44-29.277-70.699-29.277h-137.85c-26.699,0-51.824,10.398-70.727,29.273l-46.301,46.324c-49.996,5.477-89.047,47.953-89.047,99.402v50c0,13.801,11.199,25,25,25h54.602c10.352,29.023,37.852,50,70.398,50s60.051-20.977,70.398-50h109.23c10.352,29.023,37.852,50,70.398,50s60.051-20.977,70.398-50h54.625c13.801,0,25-11.199,25-25v-50c-.023-51.449-39.07-93.926-89.07-99.398h-.003ZM950.021,475.01h43.926c13.352,0,25.926,5.199,35.352,14.625l10.371,10.375h-89.648v-25ZM820.721,489.658c9.449-9.449,22.027-14.648,35.375-14.648h43.926v25h-89.648l10.347-10.352ZM800.022,675.008c-13.773,0-25-11.227-25-25s11.227-25,25-25,25,11.227,25,25-11.227,25-25,25ZM1050.022,675.008c-13.773,0-25-11.227-25-25s11.227-25,25-25,25,11.227,25,25-11.227,25-25,25ZM1150.042,625.008h-29.625c-10.352-29.023-37.852-50-70.398-50s-60.051,20.977-70.398,50h-109.23c-10.352-29.023-37.852-50-70.398-50s-60.051,20.977-70.398,50h-29.578v-25c0-27.574,22.426-50,50-50h350c27.574,0,50,22.426,50,50v25h.025ZM1110.995,900.608l-46.352-46.324c-18.875-18.879-44-29.277-70.699-29.277h-137.85c-26.699,0-51.824,10.398-70.727,29.273l-46.301,46.324c-49.996,5.477-89.047,47.953-89.047,99.402v50c0,13.801,11.199,25,25,25h54.602c10.352,29.023,37.852,50,70.398,50s60.051-20.977,70.398-50h109.23c10.352,29.023,37.852,50,70.398,50s60.051-20.977,70.398-50h54.625c13.801,0,25-11.199,25-25v-50c-.023-51.449-39.07-93.926-89.07-99.398h-.003ZM950.015,875.006h43.926c13.352,0,25.926,5.199,35.352,14.625l10.371,10.375h-89.648v-25ZM820.715,889.654c9.449-9.449,22.027-14.648,35.375-14.648h43.926v25h-89.648l10.347-10.352ZM800.016,1075.004c-13.773,0-25-11.227-25-25s11.227-25,25-25,25,11.227,25,25-11.227,25-25,25ZM1050.016,1075.004c-13.773,0-25-11.227-25-25s11.227-25,25-25,25,11.227,25,25-11.227,25-25,25ZM1150.036,1025.004h-29.625c-10.352-29.023-37.852-50-70.398-50s-60.051,20.977-70.398,50h-109.23c-10.352-29.023-37.852-50-70.398-50s-60.051,20.977-70.398,50h-29.578v-25c0-27.574,22.426-50,50-50h350c27.574,0,50,22.426,50,50v25h.025ZM1110.989,100.604l-46.352-46.324c-18.875-18.879-44-29.277-70.699-29.277h-137.85c-26.699,0-51.824,10.398-70.727,29.273l-46.301,46.324c-49.996,5.477-89.047,47.953-89.047,99.402v50c0,13.801,11.199,25,25,25h54.602c10.352,29.023,37.852,50,70.398,50s60.051-20.977,70.398-50h109.23c10.352,29.023,37.852,50,70.398,50s60.051-20.977,70.398-50h54.625c13.801,0,25-11.199,25-25l.004-50c-.027-51.449-39.074-93.926-89.074-99.398h-.003ZM950.009,75.002h43.926c13.352,0,25.926,5.199,35.352,14.625l10.371,10.375h-89.648v-25ZM820.709,89.65c9.449-9.449,22.027-14.648,35.375-14.648h43.926v25h-89.648l10.347-10.352ZM800.01,275c-13.773,0-25-11.227-25-25s11.227-25,25-25,25,11.227,25,25-11.227,25-25,25ZM1050.01,275c-13.773,0-25-11.227-25-25s11.227-25,25-25,25,11.227,25,25-11.227,25-25,25ZM1150.03,225h-29.625c-10.348-29.023-37.848-50-70.398-50s-60.051,20.977-70.398,50h-109.23c-10.324-29.023-37.824-50-70.375-50s-60.051,20.977-70.398,50h-29.602v-25c0-27.574,22.426-50,50-50h350c27.574,0,50,22.426,50,50v25h.026ZM1175.007,800h-550v325c0,13.801-11.199,25-25,25s-25-11.199-25-25v-325H25.007C11.206,800,.007,788.801.007,775s11.199-25,25-25h550v-350H25.007C11.206,400,.007,388.801.007,375s11.199-25,25-25h550V25c0-13.801,11.199-25,25-25s25,11.199,25,25v325h550c13.801,0,25,11.199,25,25s-11.199,25-25,25h-550v350h550c13.801,0,25,11.199,25,25s-11.199,25-25,25Z"/>
</svg>