<?xml version="1.0" encoding="UTF-8"?>
<svg id="Layer_1" xmlns="http://www.w3.org/2000/svg" version="1.1" viewBox="0 0 1047.1 751.3">
  <!-- Generator: Adobe Illustrator 29.2.1, SVG Export Plug-In . SVG Version: 2.1.0 Build 116)  -->
  <defs>
    <style>
      .st0 {
        fill: #dcdfda;
      }

      .st0, .st1 {
        stroke: #ffe42c;
        stroke-miterlimit: 10;
      }

      .st1 {
        fill: #ffe42c;
      }
    </style>
  </defs>
  <circle class="st1" cx="413.5" cy="421.2" r="208"/>
  <polygon class="st0" points="611.5 332.1 524.5 382.1 461.5 515.1 405.3 545.1 297.5 479.1 209.5 518.1 155.5 565.1 84.5 586.1 84.5 683.1 138.5 733.1 921.5 727.1 1028.5 636.1 1028.5 550.1 972.5 454.1 860.5 440 780.5 343.1 611.5 332.1"/>
  <path d="M886.2,419.9c-6.4,0-12.7.4-18.9,1.1-43.5-86.8-145.5-137.2-241.5-115.9C480.7,58.5,105.7,230.6,199.4,501.4c-12.2,10.8-22.5,23.3-30.2,37.2-143.8-5.2-150.7,208.2-6.9,211.7,27.4-3.5,262.9,9.4,281.7-9.8.8,11.7,426.5,4.3,442.1,6.2,214.7-3.8,214.5-323.1,0-326.9h0ZM420.8,223c68.1,0,131.7,35.7,167.6,92.5-80.2,30.1-137.1,109.5-141.9,194.8-12.9,3.9-24.7,10.6-35.9,18-37.8-57.2-117.8-78.8-179.2-48.3-40.5-124.3,58.2-259.1,189.4-257h0ZM162.3,712.8c-99.6-3.6-84-152.5,14.4-135.6,8.7,1.6,17.3-3,20.8-11.2,7.1-17,19.3-32,35.2-43.3,47.5-35.8,122.4-19.2,150.7,33.1-33.9,47.5-27.9,116.7,14.6,156.9h-235.6ZM886.2,709.2h-404.1c-42.4.7-80.5-34.3-83.3-76.5-3.9-42.1,27.2-82.6,69.2-89.1,9-1.6,15.5-11,15.5-20.1,0-84,56.4-157.7,137.4-179.2,86.7-25,183.6,21.8,218.2,104.9,8.6,19.7,31.1,6.5,47.1,8.1,165.1,2.9,165.6,249,0,251.9h0Z"/>
  <path d="M420.7,114.5c10.4,0,18.7-8.4,18.7-18.8V18.8c0-10.4-8.4-18.8-18.8-18.8s-18.8,8.4-18.8,18.8v77c0,10.4,8.4,18.8,18.8,18.8h0Z"/>
  <path d="M177.3,204.4c16.9,17.4,44-9.6,26.5-26.5l-54.5-54.5c-7.3-7.3-19.2-7.3-26.5,0-7.3,7.3-7.3,19.2,0,26.5l54.5,54.5Z"/>
  <path d="M18.2,440h77c24.3.4,24.3-37.9,0-37.5H18.2c-24.3-.4-24.3,37.9,0,37.5Z"/>
  <path d="M650.8,209.9c11.7,3.4,59.3-54.3,67.7-60,17.4-16.9-9.6-44-26.5-26.5l-54.5,54.5c-12,11.2-2.8,32.6,13.3,32h0Z"/>
</svg>