<?xml version="1.0" encoding="UTF-8"?>
<svg id="Layer_1" data-name="Layer 1" xmlns="http://www.w3.org/2000/svg" viewBox="0 0 1124.899 980.39">
  <path d="M766.385,657.51l-12.188,6.656c-7.125-13.875-18.516-25.125-32.484-32.062-20.484-10.266-44.625-10.125-65.016.328l-107.2,54.422c-2.719-1.641-5.484-3.188-8.344-4.547l-162.28-78.281-.609-.281c-46.406-17.672-98.344-13.547-141.42,11.156-16.125,9.938-31.125,21.703-44.625,35.016-7.031,6.469-14.25,13.031-21.984,19.266v-.047c-2.859-2.156-6.047-3.891-9.422-5.062-8.484-3-17.766-2.438-25.828,1.5l-16.547,8.016c-1.688-1.078-3.516-2.016-5.344-2.812-9.891-4.031-21.047-3.703-30.656.891l-61.828,30h-.047c-18.094,8.953-25.641,30.75-16.969,48.984l99.984,209.16v-.047c6.141,12.703,18.984,20.719,33.047,20.625,5.203,0,10.359-1.078,15.141-3.141l39.094-16.641c12.609-5.578,20.766-18.047,20.812-31.828l40.078-19.5c10.359-4.969,17.438-14.859,18.891-26.25,2.859.516,5.906,1.266,9.188,2.062l137.48,72.281c20.719,10.594,43.641,15.938,66.891,15.703,28.969.047,57.422-7.266,82.781-21.281l.703-.422,267.19-174.66c32.391-19.312,43.359-60.984,24.703-93.75-18.75-32.672-60.422-44.062-93.188-25.453h-.004ZM670.76,660.088c11.672-6,25.5-6.094,37.219-.234,8.25,4.125,14.953,10.875,18.984,19.172l-146.06,79.688c3.047-16.734.047-34.031-8.438-48.75l98.294-49.876ZM178.71,932.058l-39.188,16.688h.047c-2.906,1.5-6.422.469-8.016-2.344l-99.984-209.16-.047.047c-1.359-2.859-.188-6.281,2.625-7.781l61.828-30c1.641-.75,3.516-.797,5.203-.141.656.188,1.172.656,1.453,1.266l77.297,222.52c1.359,3.844.797,8.062-1.219,8.906h0ZM238.194,881.433l-34.172,16.641-68.859-198.24,13.359-6.469c.656-.281,1.406-.328,2.062-.094.75.234,1.406.797,1.734,1.547l87.281,182.48c.703,1.5.094,3.328-1.406,4.125v.01ZM818.934,750.173l-.703.422-267.28,174.56c-36.75,20.484-81.047,22.219-119.3,4.734l-138.98-73.078h-.047c-.984-.516-2.062-.938-3.141-1.219-9.234-2.625-18.656-4.266-28.219-4.875l-74.297-155.39c9.516-7.406,17.953-15.141,26.25-22.734v.047c11.859-11.719,24.984-22.125,39.141-30.938,34.547-19.734,76.031-23.25,113.39-9.656l162.05,78.234c27.328,12.891,26.859,39.047,18.141,57.516-3.141,6.703-7.781,12.656-13.547,17.344l-3.891,2.109h.047c-2.672,1.406-5.531,2.25-8.531,2.531-1.406,0-2.672.094-3.75,0-1.266-.281-2.531-.703-3.75-1.266-1.312-.609-2.766-1.031-4.219-1.266l-93.75-44.859v.047c-3.516-1.688-7.5-1.969-11.25-.844l-44.484,13.734.047.047c-4.031,1.125-7.453,3.797-9.422,7.5-2.016,3.656-2.438,7.969-1.219,11.953,1.266,4.031,4.031,7.359,7.734,9.234,3.75,1.922,8.062,2.25,12.047.891l38.766-11.953,92.578,44.25c.281.094.516.234.797.328l-.047.047c3.797,1.5,7.734,2.531,11.812,2.906,13.453,2.109,27.234-1.312,38.109-9.516l231.24-126.32c17.953-10.406,40.922-4.312,51.375,13.641,10.406,18.094,4.312,41.203-13.688,51.844l-.01-.007ZM1101.454,321.413l-38.953-16.031c-12.703-5.016-27.141-2.062-36.891,7.5l-41.531-14.719c-8.438-3-17.719-2.438-25.734,1.453-2.016.984-3.891,2.156-5.672,3.469-1.594-2.391-3.281-5.016-5.016-7.922l-46.266-148.22c-17.438-50.531-57.797-89.766-108.8-105.75-.703-.188-1.453-.328-2.156-.422L486.035,2.005v.047c-36.047-9.047-72.656,12.656-82.078,48.656-9.375,36.188,11.719,73.359,47.672,83.719.516.188.984.281,1.5.375l19.688,3.844c-39.234,30.844-65.062,75.656-71.953,125.06-6.891,49.453,5.625,99.609,34.922,140.02s73.125,67.875,122.26,76.641c56.016,9.469,113.25-6.844,155.86-44.391,19.594,34.781,43.641,70.266,76.031,79.266,18.234,4.5,36.891,6.844,55.594,7.125,9.422.469,19.031.984,28.734,2.109h.047c1.688,12.562,10.219,23.156,22.172,27.469l17.203,6.094v.047c.422,1.969,1.031,3.938,1.781,5.812,4.031,9.844,12.047,17.531,22.031,21.141l64.172,22.781c9.141,3.188,19.172,2.625,27.891-1.594s15.375-11.766,18.469-20.906l75-217.64c6.141-18.703-3.328-38.953-21.562-46.266l-.015-.002ZM563.144,449.803c-68.016-12.234-120.79-66.328-131.29-134.68-10.547-68.297,23.531-135.79,84.75-167.9l84.984,16.547c-4.828,2.109-8.297,6.516-9.141,11.719l-2.203,13.5c-14.438.141-28.5,4.594-40.406,12.844-11.625,8.016-19.547,20.344-22.031,34.219-5.391,32.906,25.922,51.562,53.531,67.969,20.016,11.906,40.781,24.281,38.766,36.328v.047c-1.172,5.766-4.594,10.828-9.469,14.062-9.75,6.281-21.516,8.578-32.859,6.375-21.328-3.562-36-18.656-33.422-34.359,1.406-8.438-4.359-16.406-12.797-17.766-8.438-1.406-16.406,4.312-17.766,12.75-3.328,29.766,15.188,57.562,43.875,66l-2.203,13.594c-1.219,8.344,4.5,16.125,12.844,17.484s16.219-4.219,17.719-12.516l2.203-13.547v.047c14.438-.141,28.547-4.594,40.406-12.844,11.625-7.969,19.594-20.344,22.031-34.219,5.391-32.906-25.922-51.516-53.531-67.969-20.016-11.953-40.781-24.281-38.766-36.375h.047c1.125-5.766,4.547-10.828,9.469-14.062,9.703-6.281,21.516-8.531,32.859-6.328,5.203.844,10.219,2.484,14.906,4.828-4.547,14.297-3.703,29.719,2.344,43.453.281.609.562,1.219.938,1.828l70.922,121.45c2.719,4.688,5.672,9.984,8.766,15.797h-.047c-35.953,34.547-86.203,50.062-135.42,41.719l-.008.005ZM643.206,191.433c-3.844,2.25-7.406,4.969-10.688,8.016-3.75-2.109-7.688-3.891-11.719-5.391l2.203-13.594v.047c.797-4.875-.797-9.844-4.219-13.359l86.484,16.875c2.672.938,5.109,2.391,7.266,4.219,2.156,1.781,3.938,3.984,5.156,6.516l11.812,28.031-15.375-19.359c-17.109-21.562-47.672-26.719-70.922-12h.002ZM798.226,485.483c-26.625-7.406-51.234-53.016-69.188-86.25-4.359-8.109-8.531-15.797-12.422-22.5l-70.359-120.61c-6.094-14.062-.562-30.469,12.75-38.062,9.891-6.891,23.438-4.875,30.891,4.641l62.297,78.422h-.047c1.266,1.547,2.812,2.859,4.547,3.844l44.766,25.219c6.938,3.844,15.609,1.875,20.203-4.547,4.594-6.469,3.562-15.328-2.344-20.578l-34.312-30.375-38.672-91.828h-.047c-2.859-6.656-7.219-12.562-12.703-17.344-5.859-5.297-12.844-9.234-20.391-11.484l-1.125-.281-252.19-49.125c-19.594-5.953-31.031-26.203-25.969-46.031,2.484-9.609,8.719-17.766,17.344-22.688,8.391-4.922,18.422-6.234,27.797-3.656.703.188,1.406.328,2.109.375l304.26,38.766c40.359,13.406,72.281,44.719,86.391,84.797l46.828,149.86h.047c.328,1.078.75,2.109,1.312,3.047,4.594,8.438,10.078,16.359,16.406,23.578l-55.547,161.39c-11.719-1.5-22.922-2.062-33.75-2.625v.047c-16.5-.188-32.906-2.203-48.938-6.047l.055.046ZM905.106,518.905l63.656-184.97c.141-.375.281-.75.422-1.172l1.266-3.75h-.047c.234-.703.75-1.266,1.406-1.594.609-.281,1.312-.375,1.969-.141l35.578,12.609-89.109,187.78-13.406-4.781c-1.594-.609-2.344-2.391-1.734-3.984v.003ZM1093.736,357.645l-75,217.69c-.938,2.766-3.938,4.266-6.703,3.281l-64.125-22.734c-1.734-.656-3.141-2.016-3.891-3.75-.328-.609-.375-1.359-.188-2.016l100.17-210.84c1.641-3.516,4.828-6,6.656-5.25l39,16.031c3.141,1.031,4.969,4.406,4.078,7.594l.002-.006Z"/>
</svg>