<?xml version="1.0" encoding="UTF-8"?>
<svg id="Layer_1" xmlns="http://www.w3.org/2000/svg" version="1.1" viewBox="0 0 1124.9 980.4">
  <!-- Generator: Adobe Illustrator 29.2.1, SVG Export Plug-In . SVG Version: 2.1.0 Build 116)  -->
  <defs>
    <style>
      .st0 {
        fill: #ff1f1f;
      }
    </style>
  </defs>
  <path class="st0" d="M1114,333.9l-170.3-29s-74.8-252.9-181.8-252.9S478,18,478,18c0,0-60-9-60,38s26,69,58,69,88.3,15,88.3,15l165.2,40,7.5,49-92-30-14,63.5,166.2,254.4h88.8l123.4,87.1,104.6-270.1Z"/>
  <path d="M766.4,657.5l-12.2,6.7c-7.1-13.9-18.5-25.1-32.5-32.1-20.5-10.3-44.6-10.1-65,.3l-107.2,54.4c-2.7-1.6-5.5-3.2-8.3-4.5l-162.3-78.3-.6-.3c-46.4-17.7-98.3-13.5-141.4,11.2-16.1,9.9-31.1,21.7-44.6,35-7,6.5-14.2,13-22,19.3h0c-2.9-2.2-6-3.9-9.4-5.1-8.5-3-17.8-2.4-25.8,1.5l-16.5,8c-1.7-1.1-3.5-2-5.3-2.8-9.9-4-21-3.7-30.7.9l-61.8,30h0c-18.1,9-25.6,30.8-17,49l100,209.2h0c6.1,12.7,19,20.7,33,20.6,5.2,0,10.4-1.1,15.1-3.1l39.1-16.6c12.6-5.6,20.8-18,20.8-31.8l40.1-19.5c10.4-5,17.4-14.9,18.9-26.2,2.9.5,5.9,1.3,9.2,2.1l137.5,72.3c20.7,10.6,43.6,15.9,66.9,15.7,29,0,57.4-7.3,82.8-21.3l.7-.4,267.2-174.7c32.4-19.3,43.4-61,24.7-93.8-18.8-32.7-60.4-44.1-93.2-25.5h0ZM670.8,660.1c11.7-6,25.5-6.1,37.2-.2,8.2,4.1,15,10.9,19,19.2l-146.1,79.7c3-16.7,0-34-8.4-48.8l98.3-49.9h0ZM178.7,932.1l-39.2,16.7h0c-2.9,1.5-6.4.5-8-2.3l-100-209.2h0c-1.4-2.8-.2-6.2,2.6-7.7l61.8-30c1.6-.8,3.5-.8,5.2-.1.7.2,1.2.7,1.5,1.3l77.3,222.5c1.4,3.8.8,8.1-1.2,8.9h0ZM238.2,881.4l-34.2,16.6-68.9-198.2,13.4-6.5c.7-.3,1.4-.3,2.1,0,.8.2,1.4.8,1.7,1.5l87.3,182.5c.7,1.5,0,3.3-1.4,4.1h0s0,0,0,0ZM818.9,750.2l-.7.4-267.3,174.6c-36.8,20.5-81,22.2-119.3,4.7l-139-73.1h0c-1-.5-2.1-.9-3.1-1.2-9.2-2.6-18.7-4.3-28.2-4.9l-74.3-155.4c9.5-7.4,18-15.1,26.2-22.7h0c11.9-11.7,25-22.1,39.1-30.9,34.5-19.7,76-23.2,113.4-9.7l162,78.2c27.3,12.9,26.9,39,18.1,57.5-3.1,6.7-7.8,12.7-13.5,17.3l-3.9,2.1h0c-2.7,1.4-5.5,2.2-8.5,2.5-1.4,0-2.7,0-3.8,0-1.3-.3-2.5-.7-3.8-1.3-1.3-.6-2.8-1-4.2-1.3l-93.8-44.9h0c-3.5-1.6-7.5-1.9-11.2-.8l-44.5,13.7h0c-4,1.2-7.5,3.8-9.4,7.5-2,3.7-2.4,8-1.2,12,1.3,4,4,7.4,7.7,9.2,3.8,1.9,8.1,2.2,12,.9l38.8-12,92.6,44.2c.3,0,.5.2.8.3h0c3.8,1.5,7.7,2.6,11.8,3,13.5,2.1,27.2-1.3,38.1-9.5l231.2-126.3c18-10.4,40.9-4.3,51.4,13.6,10.4,18.1,4.3,41.2-13.7,51.8h0s0,0,0,0ZM1101.5,321.4l-39-16c-12.7-5-27.1-2.1-36.9,7.5l-41.5-14.7c-8.4-3-17.7-2.4-25.7,1.5-2,1-3.9,2.2-5.7,3.5-1.6-2.4-3.3-5-5-7.9l-46.3-148.2c-17.4-50.5-57.8-89.8-108.8-105.8-.7-.2-1.5-.3-2.2-.4L486,2h0c-36-9-72.7,12.7-82.1,48.7-9.4,36.2,11.7,73.4,47.7,83.7.5.2,1,.3,1.5.4l19.7,3.8c-39.2,30.8-65.1,75.7-72,125.1-6.9,49.5,5.6,99.6,34.9,140s73.1,67.9,122.3,76.6c56,9.5,113.2-6.8,155.9-44.4,19.6,34.8,43.6,70.3,76,79.3,18.2,4.5,36.9,6.8,55.6,7.1,9.4.5,19,1,28.7,2.1h0c1.7,12.6,10.2,23.2,22.2,27.5l17.2,6.1h0c.4,2,1,4,1.8,5.9,4,9.8,12,17.5,22,21.1l64.2,22.8c9.1,3.2,19.2,2.6,27.9-1.6,8.7-4.2,15.4-11.8,18.5-20.9l75-217.6c6.1-18.7-3.3-39-21.6-46.3h0s0,0,0,0ZM563.1,449.8c-68-12.2-120.8-66.3-131.3-134.7-10.5-68.3,23.5-135.8,84.8-167.9l85,16.5c-4.8,2.1-8.3,6.5-9.1,11.7l-2.2,13.5c-14.4.1-28.5,4.6-40.4,12.8-11.6,8-19.5,20.3-22,34.2-5.4,32.9,25.9,51.6,53.5,68,20,11.9,40.8,24.3,38.8,36.3h0c-1.2,5.8-4.6,10.9-9.5,14.1-9.8,6.3-21.5,8.6-32.9,6.4-21.3-3.6-36-18.7-33.4-34.4,1.4-8.4-4.4-16.4-12.8-17.8-8.4-1.4-16.4,4.3-17.8,12.8-3.3,29.8,15.2,57.6,43.9,66l-2.2,13.6c-1.2,8.3,4.5,16.1,12.8,17.5s16.2-4.2,17.7-12.5l2.2-13.5h0c14.4,0,28.5-4.5,40.4-12.8,11.6-8,19.6-20.3,22-34.2,5.4-32.9-25.9-51.5-53.5-68-20-12-40.8-24.3-38.8-36.4h0c1.1-5.8,4.5-10.8,9.5-14.1,9.7-6.3,21.5-8.5,32.9-6.3,5.2.8,10.2,2.5,14.9,4.8-4.5,14.3-3.7,29.7,2.3,43.5.3.6.6,1.2.9,1.8l70.9,121.5c2.7,4.7,5.7,10,8.8,15.8h0c-36,34.5-86.2,50.1-135.4,41.7h0s0,0,0,0ZM643.2,191.4c-3.8,2.2-7.4,5-10.7,8-3.8-2.1-7.7-3.9-11.7-5.4l2.2-13.6h0c.8-4.8-.8-9.8-4.2-13.3l86.5,16.9c2.7.9,5.1,2.4,7.3,4.2,2.2,1.8,3.9,4,5.2,6.5l11.8,28-15.4-19.4c-17.1-21.6-47.7-26.7-70.9-12h0,0ZM798.2,485.5c-26.6-7.4-51.2-53-69.2-86.2-4.4-8.1-8.5-15.8-12.4-22.5l-70.4-120.6c-6.1-14.1-.6-30.5,12.8-38.1,9.9-6.9,23.4-4.9,30.9,4.6l62.3,78.4h0c1.3,1.5,2.8,2.9,4.5,3.8l44.8,25.2c6.9,3.8,15.6,1.9,20.2-4.5,4.6-6.5,3.6-15.3-2.3-20.6l-34.3-30.4-38.7-91.8h0c-2.9-6.7-7.2-12.6-12.7-17.3-5.9-5.3-12.8-9.2-20.4-11.5l-1.1-.3-252.2-49.1c-19.6-6-31-26.2-26-46,2.5-9.6,8.7-17.8,17.3-22.7,8.4-4.9,18.4-6.2,27.8-3.7.7.2,1.4.3,2.1.4l304.3,38.8c40.4,13.4,72.3,44.7,86.4,84.8l46.8,149.9h0c.3,1.1.8,2.1,1.3,3,4.6,8.4,10.1,16.4,16.4,23.6l-55.5,161.4c-11.7-1.5-22.9-2.1-33.8-2.6h0c-16.5-.1-32.9-2.2-48.9-6h0s0,0,0,0ZM905.1,518.9l63.7-185c.1-.4.3-.8.4-1.2l1.3-3.8h0c.2-.7.8-1.3,1.4-1.6.6-.3,1.3-.4,2-.1l35.6,12.6-89.1,187.8-13.4-4.8c-1.6-.6-2.3-2.4-1.7-4h0s0,0,0,0ZM1093.7,357.6l-75,217.7c-.9,2.8-3.9,4.3-6.7,3.3l-64.1-22.7c-1.7-.7-3.1-2-3.9-3.8-.3-.6-.4-1.4-.2-2l100.2-210.8c1.6-3.5,4.8-6,6.7-5.2l39,16c3.1,1,5,4.4,4.1,7.6h0s0,0,0,0Z"/>
</svg>