<?xml version="1.0" encoding="UTF-8"?>
<svg id="Layer_1" data-name="Layer 1" xmlns="http://www.w3.org/2000/svg" viewBox="0 0 685.923 1063.123">
  <path d="M14.531,1063.123c-8.016,0-14.531-6.516-14.531-14.531,0-1.172.141-2.391.422-3.469l24.984-151.22c.234-2.062.938-4.125,2.109-6l53.391-85.547c-4.266-4.688-5.156-11.812-1.641-17.438l169.55-271.6c3.516-5.672,10.312-8.062,16.406-6.281L531.042,81.277c10.781-17.297,27.703-28.641,46.172-32.906,4.688-1.078,9.469-1.734,14.297-1.875l16.922-27.094c6-9.656,15.422-15.938,25.688-18.328s21.469-.844,31.031,5.156l1.369-1.185c9.609,6,15.938,15.422,18.328,25.688s.844,21.422-5.156,31.031l-16.969,27.141c1.969,4.406,3.516,9,4.594,13.734,2.906,12.656,2.578,26.062-1.453,38.859,6.281,13.406,10.031,26.297,11.297,38.578,1.5,14.719-.609,28.5-6.328,41.344-.234.609-.562,1.172-.938,1.734l-155.26,248.63c-4.219,6.797-13.172,8.906-19.969,4.641-6.797-4.219-8.906-13.172-4.641-19.969l3.797-6.141c-4.125-8.484-3.938-18.844,1.453-27.422,5.344-8.625,14.578-13.312,24-13.359l76.453-122.48c3.891-14.25,6.328-28.219,7.641-41.156l-211.26,338.39c4.266,4.688,5.156,11.812,1.641,17.438l-169.55,271.6c-3.516,5.672-10.312,8.062-16.406,6.281l-53.344,85.453-.844.844-.094.141-.047.047-.188.234-.047.094-.562.562v.047l-.047.094-1.875,1.875-.094.047v.047l-.281.281v.047l-.094.047-.188.188-.094.047-.281.281h-.047l-.891.891-.094.047-88.734,63.141M116.07,958.205l-39.609-24.75-24.609-15.375-16.078,97.219,80.297-57.141v.047ZM504.201,180.025l76.453,47.719,52.359-83.906c.234-.422.516-.844.797-1.312,6.281-10.406,7.828-22.406,5.25-33.422-2.578-11.016-9.234-21.094-19.359-27.703-.375-.234-.797-.469-1.172-.75l-.094-.094-.281-.188-.094-.094c-10.266-6-22.078-7.453-32.953-4.922-11.25,2.578-21.516,9.469-28.031,19.922l-52.828,84.656-.047.093ZM565.326,252.4l-76.453-47.719-197.39,316.13,76.453,47.719,197.39-316.13ZM361.565,598.71l-94.453-59.016-154.18,246.98,83.25,52.031,11.203,6.984,154.18-246.979ZM639.855,60.16c1.547,1.172,3.047,2.391,4.406,3.609l10.781-17.297c1.781-2.859,2.25-6.188,1.5-9.234-.703-3.047-2.578-5.812-5.344-7.547-2.859-1.781-6.188-2.25-9.234-1.5-3.047.703-5.812,2.578-7.547,5.344l-10.781,17.297c2.578,1.078,5.203,2.344,7.688,3.75l.188.094.141.094.375.188.281.188.375.188.281.188.188.094.141.094.188.094.281.188.188.094.141.094.188.094.141.094c.844.516,1.641,1.031,2.391,1.594l.188.094v.047l.281.234,1.828,1.219.047.047.422.281.281.281ZM647.309,175.85l-15.188,24.328c1.031,7.734,1.594,16.688,1.5,26.531l11.25-18.094c3.281-7.875,4.453-16.453,3.516-25.734-.234-2.297-.609-4.688-1.078-7.078v.047ZM137.589,937.48l45.422-72.75-76.453-47.719-45.422,72.75,76.453,47.719Z"/>
</svg>