<?xml version="1.0" encoding="UTF-8"?>
<svg id="Layer_1" data-name="Layer 1" xmlns="http://www.w3.org/2000/svg" viewBox="0 0 882.527 906.898">
  <path d="M728.711,33.344c17.062,0,35.25,9.188,54.422,24.047v.047c3.656,2.812,7.266,5.766,10.828,8.812,24.281,20.906,42.891,43.031,50.906,62.719,7.031,17.344,6.609,33.984-9.938,58.969-7.312,11.016-17.438,23.203-30.797,37.641l-.844-1.5c-.094-.234-.234-.469-.375-.703l-7.734-12.656c-.141-.188-.281-.422-.422-.656l-8.344-12.234c-.141-.234-.281-.422-.469-.656l-8.906-11.859c-.141-.188-.281-.422-.469-.609l-9.469-11.391c-.141-.234-.328-.422-.516-.609l-9.984-10.922c-.188-.234-.375-.422-.562-.609l-10.5-10.453c-.188-.188-.375-.375-.562-.516l-10.969-9.938c-.188-.188-.422-.375-.609-.516l-11.391-9.422c-.234-.141-.422-.328-.656-.469l-11.859-8.812c-.188-.188-.422-.328-.609-.469l-12.281-8.25c-.188-.141-.422-.281-.656-.422l-12.609-7.688c-.234-.141-.469-.234-.703-.375l-12.984-7.078c-.234-.094-.469-.234-.703-.328l-13.312-6.422c-.234-.141-.469-.234-.703-.328l-10.547-4.5h-.047c1.406-1.359,2.859-2.766,4.359-4.172,22.078-21.047,49.734-43.969,73.875-47.25,2.016-.281,4.078-.422,6.141-.422v-.002ZM619.351,111.25l9.281,3.469,12.844,5.438,12.609,6.094,12.281,6.703,11.953,7.219,11.578,7.828,11.203,8.344,10.828,8.906,10.406,9.375,9.938,9.891,9.422,10.359,8.953,10.781,8.438,11.203,7.875,11.625,7.312,11.953,5.625,10.312v.047c-10.453,10.5-22.172,22.125-35.297,35.062l-.047.094-2.438-3.891c-.141-.188-.281-.422-.422-.609l-8.297-12.094c-.141-.234-.281-.422-.422-.609l-8.812-11.719c-.141-.188-.328-.422-.469-.562l-9.328-11.391c-.141-.188-.281-.375-.469-.516l-9.797-10.969c-.141-.188-.328-.375-.469-.516l-10.312-10.547c-.141-.141-.328-.328-.516-.469l-10.688-10.078c-.188-.141-.375-.328-.516-.469l-11.156-9.609c-.188-.141-.375-.281-.562-.469l-11.531-9.047c-.188-.188-.375-.328-.562-.469l-11.906-8.578-.562-.422-12.281-8.062c-.188-.094-.375-.234-.609-.375l-12.562-7.5c-.234-.141-.422-.281-.656-.375l-12.891-6.984c-.188-.094-.422-.234-.609-.328l-13.219-6.422c-.234-.094-.422-.188-.656-.281l-6.938-3.047h-.047c1.312-1.5,2.625-2.906,3.891-4.312,13.219-14.766,22.781-25.453,30.562-33.984l.048.003ZM561.273,175.844l4.125,1.594,12.844,5.578,12.516,6.094,12.281,6.656,12,7.172,11.625,7.641,11.344,8.203,1.734,1.359-442.97,460.36-1.781-3.797c-.141-.328-.328-.656-.516-.984l-2.203-3.984c-.141-.328-.375-.656-.562-.984l-2.438-3.844c-.234-.328-.469-.609-.656-.938l-2.719-3.609c-.234-.328-.469-.609-.75-.938l-2.953-3.422c-.234-.281-.516-.562-.75-.844l-3.188-3.234c-.281-.281-.562-.562-.844-.797l-3.422-3c-.281-.281-.562-.516-.844-.75l-3.609-2.766c-.328-.234-.656-.469-.938-.656l-3.797-2.531c-.328-.234-.656-.422-.984-.609l-3.984-2.25-.984-.562-4.125-1.969c-.328-.141-.703-.328-1.031-.469l-4.266-1.688c-.328-.141-.703-.281-1.078-.375l-4.312-1.406c-.375-.094-.75-.234-1.125-.328l-3.609-.891h-.047c49.266-51.375,100.92-105.56,172.45-182.95,80.953-87.656,187.36-204.98,246.28-270.47,1.078-1.219,2.156-2.438,3.234-3.609l.052-.003ZM665.153,241.797l4.594,4.312,9.797,9.984,9.328,10.406,8.859,10.828,8.391,11.156,7.922,11.531,6.188,9.938-.047.047c-53.625,52.922-123.52,122.53-193.64,192.28l-2.766,2.719v.047c-.047.047-.141.094-.188.188l-244.82,252.74v.047l-.516-1.312c-.094-.328-.234-.656-.375-.984l-2.25-4.828c-.141-.328-.281-.609-.469-.938l-2.531-4.688c-.141-.281-.328-.609-.516-.891l-2.812-4.5c-.188-.328-.375-.609-.562-.891l-3.094-4.312c-.234-.281-.422-.562-.656-.844l-3.328-4.125c-.234-.281-.469-.516-.703-.797l-3.609-3.891-.75-.75-3.844-3.656c-.281-.234-.516-.469-.797-.703l-4.078-3.422c-.281-.234-.562-.422-.844-.656l-4.266-3.141c-.281-.188-.609-.422-.891-.609l-4.5-2.859c-.281-.188-.562-.375-.891-.562l-4.641-2.578c-.328-.141-.656-.328-.938-.469l-4.828-2.297-.984-.422-2.625-1.031,442.679-460.066ZM120.893,664.087l3.422.141,3.375.328v.047l3.375.562,3.281.844,3.234,1.031,3.188,1.266,3.094,1.5,2.953,1.688,2.859,1.875,2.672,2.062,2.578,2.25,2.391,2.438,2.203,2.578,2.016,2.719,1.828,2.906,1.688,2.953,1.406,3.094,1.219,3.188.984,3.234.797,3.328.516,3.328.375,3.984c.328,3.188,1.5,6.094,3.328,8.484l-.047.047c2.719,4.5,7.547,7.688,13.219,8.062l4.828.281v.047l4.219.516,4.172.797,4.172,1.078,4.031,1.312,3.984,1.594,3.844,1.828,3.75,2.109,3.609,2.297,3.422,2.531,3.281,2.719,3.094,2.953,2.906,3.141,2.672,3.281,2.484,3.469,2.25,3.609,2.016,3.75,1.781,3.844,1.547,3.984,1.266,4.078.328,1.266v.047l-124.64,49.922-2.672-4.781c-.094-.188-.234-.422-.328-.609l-2.953-4.734c-.094-.234-.234-.422-.375-.609l-3.094-4.641-.422-.562-3.328-4.5-.422-.562-3.469-4.359c-.188-.141-.328-.328-.469-.516l-3.656-4.219c-.188-.141-.328-.328-.469-.516l-3.844-4.031c-.188-.141-.328-.328-.516-.469l-3.984-3.891c-.188-.141-.375-.328-.516-.469l-4.172-3.703c-.188-.141-.375-.281-.516-.469l-4.359-3.516c-.141-.141-.328-.281-.516-.422l-4.453-3.328-.562-.422-3.938-2.672,40.406-110.25.234-.047v.047l3.421-.141ZM728.813.007c-3.562,0-7.125.234-10.734.703-36.516,4.969-71.672,36.469-92.391,56.156-17.578,16.734-28.688,29.156-61.781,66.094-8.531,9.469-18.703,20.859-30.703,34.219-58.828,65.344-165.14,182.63-246,270.1-80.766,87.422-136.13,145.13-191.48,202.87-1.594,1.688-2.859,3.656-3.656,5.812L1.037,884.492c-2.297,6.188-.703,13.125,4.031,17.672,3.188,3.094,7.359,4.734,11.625,4.734,2.062,0,4.172-.375,6.188-1.219l257.06-103.03c2.156-.891,4.125-2.203,5.766-3.891l261.74-270.24,2.578-2.625c73.125-72.75,146.02-145.26,200.34-198.89l9.188-9.047,8.484-8.391c44.672-44.062,76.594-75.938,94.688-103.27,21.516-32.438,24.938-60.656,12.984-89.906-10.922-26.906-34.172-53.156-60-75.375-3.891-3.375-7.969-6.75-12.141-9.984-20.484-15.891-46.266-31.031-74.766-31.031l.012.007Z"/>
</svg>