<?xml version="1.0" encoding="UTF-8"?>
<svg width="1200pt" height="1200pt" version="1.1" viewBox="0 0 1200 1200" xmlns="http://www.w3.org/2000/svg">
 <path d="m574.74 562.97c5.5312-33.609 3.2344-68.578-6.7031-101.11-1.1719-3.8438-4.1719-6.8438-8.0156-7.9688-3.8438-1.1719-7.9688-0.32812-11.062 2.2031-18.844 15.469-36.281 32.625-52.266 51-27.094-9.7031-57.609-9-84.188 1.9219-16.219-18.328-34.547-34.641-54.797-48.516-3-2.0625-6.7969-2.625-10.266-1.5938s-6.2812 3.6562-7.6406 7.0312c-12.938 32.391-15 68.438-6.1875 102.09-15.797 31.828-16.219 70.641-1.125 102.8-48.656 16.406-91.734 49.359-119.72 92.391-20.906 32.109-34.734 71.156-41.297 116.2-3.75-16.641 0.28125-36.703 4.6406-58.031 1.125-5.5312 2.25-11.062 3.2812-16.594 4.2188-23.156 8.7188-58.031-1.3125-92.953-10.734-37.406-37.125-67.875-70.641-81.516-17.578-7.125-37.688 1.3125-44.812 18.891-3.4688 8.5312-3.4219 17.859 0.1875 26.344 3.5625 8.4375 10.219 15.047 18.75 18.469 14.109 5.7188 25.5 19.5 30.469 36.75 4.5938 16.031 4.5 35.625-0.23438 61.594-0.89062 4.9688-1.9219 9.9375-3 15.281-5.625 27.516-11.953 58.734-4.125 88.547 6.2344 23.719 20.344 49.406 39.797 72.375 6.0469 7.125 14.062 15.281 24.609 19.5 0.046875 1.0312 0.09375 2.1562 0.1875 3.1875 2.0625 30.656 27.75 54.703 58.5 54.703h137.16c3.0938 0 6.0469-1.2188 8.2969-3.3281 16.781-16.078 18.938-44.156 4.7344-62.531-8.1094-10.5-20.578-16.688-33.516-17.812 5.8594-13.031 10.688-27.281 12.375-42.422 3.0938-27.422-5.3438-53.484-22.547-69.703-21.094-19.875-54.797-21.844-75.094-4.4531-5.0156 4.3125-5.625 11.906-1.3125 16.922 4.3125 5.0625 11.906 5.625 16.922 1.3125 10.875-9.3281 30.984-7.5938 43.031 3.75 11.766 11.062 17.391 29.531 15.141 49.5-2.2969 20.203-11.859 39.609-20.953 55.875-2.625 4.7812-1.7812 10.688 2.1562 14.484s9.8906 4.4531 14.578 1.5938c9.375-5.7188 23.484-3.0938 30.188 5.625 5.8125 7.5469 5.7656 19.312 0.46875 27.281h-131.63c-18.188 0-33.328-14.156-34.547-32.297-1.7812-26.672-3.1406-58.219 0-89.906 4.875-48.844 18.281-90.375 39.797-123.52 27.516-42.281 71.297-73.969 120.1-86.812 5.6719-1.5 9.0938-6.7969 8.6719-12.469-0.046874-0.65625 0.046876-1.2656-0.09375-1.9219v-0.28125c-0.09375-0.42188-0.375-0.70312-0.51562-1.0781-0.32813-0.9375-0.51563-1.875-1.0781-2.7188-18.891-28.969-19.688-68.344-2.0625-98.062 2.7656-4.6875 1.875-10.359-1.6875-14.156-5.3906-22.734-5.2969-46.547 0.84375-69.047 19.031 14.766 36.047 31.969 50.672 51.281 3.9844 5.25 11.531 6.3281 16.828 2.3438 4.5938-3.4688 5.7656-9.5156 3.4219-14.531 17.906-5.8125 37.5-6.0938 55.547-0.84375 0.1875 3.2812 1.5938 6.4688 4.3594 8.6719 5.1562 4.125 12.703 3.3281 16.875-1.875 13.641-17.016 28.734-33 45-47.625 4.0781 20.016 4.875 40.641 2.7188 60.938-0.09375 0.046875-0.1875 0.046875-0.23438 0.09375-5.5781 3.5625-7.2188 10.969-3.6562 16.594 19.641 30.844 20.719 72.938 2.8125 104.72-0.1875 0.32812-0.1875 0.65625-0.32812 0.98438-0.32813 0.75-0.5625 1.5469-0.75 2.3438-0.1875 0.75-0.28125 1.4531-0.32813 2.2031-0.046874 0.75 0.046876 1.5 0.1875 2.25 0.14063 0.79688 0.28125 1.5469 0.60938 2.3438 0.14062 0.32812 0.09375 0.70312 0.23437 1.0312 12.094 25.172 14.438 55.734 7.3125 96.188-4.2656 24.188-11.859 48.422-19.219 71.859-3.0938 9.9375-6.2344 19.875-9.1406 29.812-8.8125 30.375-18.328 70.359-13.406 110.25 0.75 6 5.8594 10.5 11.906 10.5h2.5312c6.0938 0 11.109 4.9688 11.109 11.109 0 6.0938-4.9688 11.109-11.109 11.109h-21.375c-6.6094 0-12 5.3438-12 12s5.3906 12 12 12h21.375c19.359 0 35.109-15.75 35.109-35.109 0-16.406-11.344-30.234-26.578-34.031-1.9688-32.531 6.0469-65.438 13.5-91.078 2.8594-9.8438 5.9062-19.594 9-29.344 7.5938-24.188 15.422-49.172 19.969-74.906 7.5469-42.938 5.25-76.547-7.0312-105.33 17.203-34.781 17.062-77.766-0.09375-112.59zm-412.13 390.05c-17.156-20.344-29.578-42.656-34.875-63-6.375-24.375-0.89062-51.469 4.5-78 1.0312-5.1562 2.1094-10.312 3.0469-15.422 5.4375-29.766 5.3438-52.781-0.32812-72.516-6.9844-24.281-23.625-43.875-44.484-52.406-2.5781-1.0312-4.5938-3-5.625-5.5781-1.0781-2.5781-1.0781-5.3906-0.046875-7.9688 2.1562-5.2969 8.2031-7.875 13.547-5.7188 26.719 10.875 47.906 35.531 56.625 65.906 8.625 30.094 4.5938 61.219 0.79688 81.984-0.98438 5.3438-2.0625 10.734-3.1875 16.172-4.9688 24.562-9.7031 47.766-4.125 69.938 2.9531 11.719 9.1875 23.859 19.078 37.734-0.375 11.719-0.28125 23.062 0.046875 34.078-1.7344-1.7344-3.4219-3.5625-4.9219-5.2969zm249.66-312.74c-6.9375 0-12.609-5.625-12.609-12.609 0-6.9375 5.625-12.609 12.609-12.609 6.9375 0 12.609 5.625 12.609 12.609 0 6.9375-5.625 12.609-12.609 12.609zm92.203 0c-6.9375 0-12.609-5.625-12.609-12.609 0-6.9375 5.625-12.609 12.609-12.609 6.9375 0 12.609 5.625 12.609 12.609 0 6.9375-5.625 12.609-12.609 12.609zm178.31-303.47c0-7.7344 6.2812-13.969 13.969-13.969 7.7344 0 13.969 6.2812 13.969 13.969 0 7.7344-6.2812 13.969-13.969 13.969-7.7344 0-13.969-6.2812-13.969-13.969zm114.8 0c0-7.7344 6.2812-13.969 13.969-13.969 7.7344 0 13.969 6.2812 13.969 13.969 0 7.7344-6.2812 13.969-13.969 13.969-7.7344 0-13.969-6.2812-13.969-13.969zm-342.47 327.32c-4.6406-4.875-13.172-13.453-12-19.547l0.65625-0.9375c5.9062-4.125 19.125-3.0938 27.047-3.4219 10.734 0.23438 11.25 6.0938 4.3125 15.328-6.2812 8.7656-12.328 15-19.969 8.5312zm271.55-286.82 0.9375-1.3125c14.062-12.844 73.266-12.516 49.078 20.062-7.5 9.9844-17.906 16.266-28.734 12.609-11.156-4.0781-26.438-19.031-21.281-31.359zm-232.6 632.95c0 19.359-15.75 35.109-35.109 35.109h-28.594c-11.953 0-23.391-5.7188-30.562-15.234-4.4531-5.9062-7.125-12.938-7.6406-20.25-1.2656-17.578-6.75-76.875-23.344-100.83-3.75-5.4375-2.3906-12.938 3.0469-16.688s12.938-2.4375 16.688 3.0469c19.453 28.125 25.734 88.219 27.516 112.73 0.1875 2.7188 1.1719 5.2969 2.8594 7.5 2.6719 3.5625 6.9844 5.6719 11.438 5.6719h28.594c6.0938 0 11.109-4.9688 11.109-11.109 0-5.4844-6.8906-11.109-13.641-11.109-6.6094 0-12-5.3438-12-12v-81.094c0-6.6562 5.3906-12 12-12s12 5.3438 12 12v71.062c14.578 4.9219 25.641 18.281 25.641 33.094zm-121.69-324.56c-3.2812 5.7656-1.2656 13.078 4.5 16.359 2.1094 1.2188 33 18.375 72.469 21.328v4.7344c-10.359 4.6406-17.625 14.953-17.625 27 0 16.312 13.312 29.625 29.625 29.625s29.625-13.312 29.625-29.625c0-12.047-7.2656-22.406-17.625-27v-4.875c19.781-1.7812 40.594-7.9219 60.375-21.75 5.4375-3.7969 6.75-11.297 2.9531-16.688-3.7969-5.4375-11.25-6.75-16.734-2.9531-57.469 40.219-130.45-0.1875-131.21-0.60937-5.7656-3.2812-13.078-1.2656-16.359 4.5zm88.969 75.047c-3.0938 0-5.625-2.5312-5.625-5.625s2.5312-5.625 5.625-5.625 5.625 2.5312 5.625 5.625-2.5312 5.625-5.625 5.625zm107.3-423.42c3.3281 0.75 6.7031 1.125 10.125 1.125 7.4531 0 15.047-1.875 22.312-5.2031 1.8281 34.453 15.375 68.344 38.672 94.031 28.547 31.453 70.969 50.156 113.48 50.156h1.7344c42.703 0 85.125-18.703 113.62-50.156 23.297-25.688 36.891-59.578 38.672-94.031 7.2656 3.375 14.859 5.2031 22.312 5.2031 3.4219 0 6.7969-0.375 10.125-1.125 19.688-4.5 36.141-23.016 40.922-46.078 3.6094-17.344 1.2656-36.938-6.9375-58.312-13.312-34.688-37.172-61.125-65.391-72.656-21.234-8.625-45.141-8.2031-65.625 1.125-4.5 2.0625-15.234 7.0781-22.266 15.281-42.047-18.609-90.562-18.656-132.61-0.046876-7.0312-8.2031-17.719-13.172-22.219-15.234-20.484-9.3281-44.438-9.75-65.625-1.125-28.219 11.484-52.031 37.969-65.344 72.609-8.2031 21.328-10.547 40.969-6.9375 58.312 4.7812 23.062 21.234 41.625 40.922 46.078zm284.02-154.08c7.4062-3.375 15.703-5.0625 24.047-5.0625 7.6875 0 15.469 1.4531 22.594 4.3594 22.125 9 41.062 30.516 52.031 59.016 6.5156 16.969 8.4844 32.062 5.8125 44.812-2.8594 13.828-12.234 25.172-22.781 27.562-10.172 2.25-22.828-3.2812-32.203-14.297-9.6094-11.25-15.422-25.922-21.891-42.188-6.0469-15.188-13.547-34.125-26.906-48.75-1.7344-1.875-4.0312-3.9375-6.5156-6.1406-2.7656-2.4375-8.5312-7.4531-8.9531-9.2344 0-0.046874 1.6406-4.0312 14.859-10.031zm-175.31 37.406c5.5312-4.8281 13.031-11.438 15.891-20.25 37.734-18.188 84.234-18.141 121.87 0.09375 2.9062 8.7656 10.359 15.375 15.844 20.156 1.7344 1.5 3.375 2.9062 4.5938 4.2188 9.6562 10.547 15.562 24.422 22.641 42.141 6.4688 16.266 13.219 33 24.844 47.062 3.3281 34.875-8.5781 70.969-32.25 97.078-24.047 26.531-59.812 42.281-96 42.281h-0.75c-36.562-0.1875-72.375-15.609-96.562-42.281-23.672-26.062-35.531-62.203-32.25-97.078 11.625-14.062 18.375-30.797 25.125-47.766 6.75-17.016 12.703-30.891 22.359-41.438 1.2188-1.3125 2.8594-2.7188 4.5938-4.2188zm-120.32 20.906c10.969-28.5 29.906-50.016 52.031-59.016 14.906-6.0938 32.344-5.8125 46.641 0.70313 12.656 5.7656 14.672 9.6562 14.812 9.6562-0.42188 2.25-6.1406 7.2188-8.9062 9.6562-2.4844 2.1562-4.7812 4.2188-6.5156 6.1406-13.406 14.625-20.906 33.562-27.234 49.5-6.1875 15.562-12 30.234-21.609 41.484-9.375 10.969-22.031 16.547-32.203 14.25-10.547-2.3906-19.922-13.734-22.781-27.562-2.6719-12.797-0.70312-27.844 5.8125-44.812zm92.812 209.21-3.6094 14.016c20.812 9.5156 42.938 15.328 65.766 17.297 6.6094 0.5625 11.484 6.375 10.922 12.984-0.5625 6.2344-5.7656 10.969-11.953 10.969-0.32812 0-0.70312 0-1.0312-0.046875-25.688-2.2031-50.625-8.8125-74.016-19.547-2.8594-1.3125-9.6094-4.4062-12.703-11.625-2.7188-6.3281-1.1719-12.375-0.32812-15.609l3.7031-14.438c1.6406-6.4219 8.2031-10.312 14.625-8.625 6.4219 1.6406 10.312 8.1562 8.625 14.625zm154.55 30.422c20.062-2.5312 39.469-8.0625 57.703-16.406l-3.6094-14.016c-1.6406-6.4219 2.25-12.938 8.625-14.625 6.4219-1.6875 12.938 2.25 14.625 8.625l3.7031 14.438c0.84375 3.2344 2.3906 9.2812-0.32812 15.609-3.0938 7.2188-9.8438 10.312-12.75 11.625-20.531 9.4688-42.422 15.703-64.969 18.562-0.51562 0.046875-1.0312 0.09375-1.5469 0.09375-5.9531 0-11.109-4.4062-11.906-10.5-0.84375-6.5625 3.7969-12.562 10.406-13.406zm-77.719 35.156c0 17.438 14.203 31.641 31.641 31.641s31.641-14.203 31.641-31.641-14.203-31.641-31.641-31.641-31.641 14.203-31.641 31.641zm39.281 0c0 4.2188-3.4219 7.6406-7.6406 7.6406s-7.6406-3.4219-7.6406-7.6406 3.4219-7.6406 7.6406-7.6406 7.6406 3.4219 7.6406 7.6406zm-69.703 516.98c0 6.6562-5.3906 12-12 12h-60.703c-13.031 0-24.469-9.375-29.859-24.469-6.375-17.906-3.5156-43.5 17.203-60.328 18.984-15.422 36.984-17.344 48.938-16.125 3.9375-26.344 1.3125-56.578-7.875-91.875-4.7812-18.234-10.828-36.609-16.734-54.375-5.5312-16.594-11.203-33.797-15.938-51.141-21.562-79.172-23.156-163.55-4.5938-243.98 1.5-6.4688 7.9688-10.5 14.391-9 6.4688 1.5 10.5 7.9219 9 14.391-17.672 76.594-16.172 156.94 4.3594 232.31 4.5469 16.688 10.125 33.562 15.562 49.875 6 18.141 12.234 36.891 17.203 55.875 11.625 44.531 13.5 82.219 5.8125 115.12-0.84375 3.5156-3.1875 6.4688-6.4219 8.0625s-7.0312 1.5938-10.312 0.09375c-0.5625-0.23437-17.719-7.2656-38.203 9.4219-11.625 9.4219-13.266 23.719-9.7031 33.656 1.9688 5.5781 5.1562 8.4844 7.2188 8.4844h60.703c6.6094 0 12 5.3438 12 12zm101.91 0c0 6.6562-5.3906 12-12 12h-60.703c-13.031 0-24.469-9.375-29.859-24.469-6.375-17.906-3.5156-43.5 17.203-60.328 17.672-14.391 34.5-17.062 46.406-16.312v-109.69c0-6.6562 5.3906-12 12-12s12 5.3438 12 12v124.31c0 4.125-2.1094 7.9219-5.5312 10.125-3.4688 2.2031-7.7812 2.4844-11.531 0.75-0.5625-0.23438-17.719-7.2656-38.25 9.4219-11.625 9.4219-13.266 23.719-9.7031 33.656 1.9688 5.5781 5.1562 8.4844 7.2188 8.4844h60.703c6.6094 0 12 5.3438 12 12zm322.64-477.24c8.625-4.6875 14.953-12.469 17.719-21.938s1.7344-19.406-3-28.031c-4.6875-8.625-12.516-14.953-21.938-17.719-9.4219-2.7656-19.406-1.7344-28.031 3-36.891 20.109-62.484 60.562-68.438 108.28-4.9688 40.172 3.75 78.797 12.984 111.28 2.0625 7.2188 4.1719 14.391 6.5156 22.219 6.9844 23.344 13.594 45.469 16.453 67.406 1.875 14.438 1.9688 29.062 0.5625 43.594-19.922-97.594-61.312-222-146.26-351.37-3.6562-5.5312-11.062-7.0781-16.594-3.4688-5.5312 3.6562-7.0781 11.062-3.4688 16.594 99.844 152.11 138.1 296.95 152.21 397.45 0 0.375 0.09375 0.70312 0.14062 1.0781 6.1406 44.109 7.6406 79.641 7.6875 103.36 0 3.6094-1.4062 7.0312-3.9375 9.5625s-5.9062 3.9375-9.5156 3.9375h-190.64c-6.9844 0-12.891-5.25-13.406-11.953-1.5469-19.688 2.7188-34.5 12.703-43.922 18.422-17.438 51.234-13.406 51.562-13.359 4.2656 0.5625 8.4844-1.1719 11.109-4.5469s3.2344-7.9219 1.5938-11.906c-23.766-57.75-27.844-103.97-11.766-133.6 14.391-26.578 40.078-31.781 41.297-32.016 6.4688-1.1719 10.828-7.3594 9.6562-13.875-1.1719-6.5156-7.3125-10.969-13.875-9.75-1.5469 0.28125-37.734 7.0312-57.891 43.688-18.469 33.562-17.156 79.875 3.8438 137.81-15.141 0.9375-36.234 5.25-51.938 20.062-15.562 14.672-22.359 36-20.25 63.328 1.5 19.125 17.906 34.078 37.312 34.078h190.64c10.031 0 19.453-3.8906 26.531-10.969s10.969-16.5 10.969-26.531c0-5.0625-0.09375-10.594-0.23438-16.641 0.70312-0.79688 1.5938-1.4062 2.25-2.25 42.562-55.969 61.828-128.06 52.781-197.81-3.6094-27.844-11.344-53.812-18.938-79.125-2.1094-7.0312-4.2188-14.109-6.2344-21.188-7.2188-25.359-14.109-54.984-10.734-82.031 2.9531-23.812 14.672-43.969 30.562-52.641zm-42.891 141.24c2.0625 7.2188 4.1719 14.344 6.375 21.703 7.2188 24.188 14.719 49.219 18.094 75.141 7.0781 54.75-5.0625 111.05-33.328 158.21-1.125-14.531-2.8125-30.562-5.1562-47.906 13.078-34.219 17.625-71.109 12.984-106.97-3.0938-23.906-9.9844-46.875-17.438-71.906-2.1094-7.0781-4.2188-14.156-6.2344-21.234-8.5781-30.188-16.734-65.859-12.281-101.77 5.0156-40.031 25.969-73.734 56.109-90.141 3-1.5938 6.5156-2.0156 9.7969-1.0312s6 3.1875 7.6406 6.1875 2.0156 6.4688 1.0312 9.7969c-0.98438 3.2812-3.1875 6-6.1875 7.6406-22.547 12.281-38.953 39.375-42.891 70.734-3.8906 31.359 3.6094 63.891 11.484 91.594z"/>
</svg>
