<?xml version="1.0" encoding="UTF-8"?>
<svg id="Layer_1" data-name="Layer 1" xmlns="http://www.w3.org/2000/svg" viewBox="0 0 564.662 980.629">
  <defs>
    <style>
      .cls-1 {
        fill-rule: evenodd;
      }
    </style>
  </defs>
  <path class="cls-1" d="M104.614,419.574c-9.252-27.014-13.182-54.244-8.231-78.536,4.456-21.815,15.936-41.062,36.916-55.451,3.868-2.847,7.705-5.26,11.511-7.302,3.992-2.104,8.015-3.837,12.068-5.199,8.076-2.661,16.462-2.445,23.981.278,7.52,2.723,14.11,7.891,18.597,15.131l37.442,60.061c4.239,6.807,6.065,14.42,5.539,21.877-.526,7.52-3.373,14.822-8.51,20.98l-19.958,23.919c-2.321,2.785-3.651,5.972-3.992,9.221-.34,3.28.34,6.684,2.073,9.84,12.13,22.372,29.644,44.992,49.819,65.136,20.145,20.145,42.764,37.658,65.136,49.819,3.156,1.702,6.56,2.383,9.84,2.073,3.249-.309,6.436-1.671,9.221-3.992l23.919-19.958c6.158-5.137,13.461-8.015,20.98-8.541,7.457-.526,15.1,1.3,21.877,5.539l60.061,37.442c7.241,4.518,12.439,11.109,15.131,18.628,2.723,7.52,2.971,15.905.278,23.981-1.362,4.085-3.094,8.107-5.199,12.099-2.011,3.806-4.456,7.643-7.302,11.511-14.389,20.98-33.636,32.46-55.451,36.916-24.291,4.951-51.521,1.021-78.536-8.231-48.086-16.431-99.264-51.8-142.377-94.9-43.104-43.104-78.476-94.28-94.9-142.377l.064.033ZM115.537,344.966c-4.177,20.547-.588,44.342,7.612,68.356,15.441,45.116,49.077,93.6,90.233,134.792,41.186,41.186,89.639,74.819,134.792,90.233,24.012,8.2,47.777,11.82,68.356,7.612,17.019-3.466,32.057-12.471,43.321-28.932l.186-.278c2.228-3.033,4.177-6.096,5.848-9.252,1.609-3.002,2.909-6.034,3.899-9.005,1.269-3.837,1.176-7.767-.062-11.202-1.269-3.466-3.682-6.529-7.086-8.664l-60.061-37.442c-3.218-2.011-6.777-2.878-10.243-2.63-3.435.248-6.838,1.578-9.716,3.992l-23.919,19.958c-5.848,4.889-12.718,7.705-19.866,8.417-7.086.712-14.389-.712-21.104-4.363-24.167-13.12-48.334-31.779-69.657-53.099s-39.979-45.518-53.099-69.657c-3.651-6.715-5.075-14.017-4.363-21.104.712-7.148,3.558-14.017,8.417-19.866l19.958-23.919c2.414-2.909,3.775-6.282,3.992-9.716.248-3.466-.619-7.024-2.63-10.243l-37.442-60.061c-2.135-3.404-5.199-5.848-8.664-7.086-3.435-1.238-7.364-1.331-11.202-.062-3.002.99-6.003,2.29-9.005,3.899-3.125,1.671-6.189,3.589-9.19,5.817l-.34.217c-16.462,11.263-25.466,26.271-28.932,43.321l-.032-.032Z"/>
  <path class="cls-1" d="M511.881,0c13.969,0,27.422,5.578,37.312,15.469,9.891,9.937,15.469,23.344,15.469,37.359v875.02c0,13.969-5.578,27.375-15.469,37.312-9.891,9.891-23.344,15.469-37.312,15.469H52.781c-13.969,0-27.422-5.578-37.312-15.469-9.891-9.938-15.469-23.344-15.469-37.312V52.828c0-14.016,5.578-27.422,15.469-37.359C25.36,5.578,38.813,0,52.781,0h459.1ZM511.881,12H52.781c-10.828,0-21.188,4.312-28.828,11.953s-11.953,18.047-11.953,28.875v875.02c0,10.781,4.312,21.188,11.953,28.828s18,11.953,28.828,11.953h459.1c10.781,0,21.188-4.312,28.828-11.953s11.953-18.047,11.953-28.828V52.828c0-10.828-4.312-21.234-11.953-28.875s-18.047-11.953-28.828-11.953h0ZM524.303,128.44v710.26c0,3.328-2.672,6-6,6H46.363c-3.328,0-6-2.672-6-6V128.44c0-3.328,2.672-6,6-6h471.94c3.328,0,6,2.672,6,6ZM512.303,134.44H52.363v698.26h459.94V134.44ZM356.443,57.706v9.562c0,5.953-4.828,10.781-10.781,10.781h-126.66c-5.953,0-10.781-4.828-10.781-10.781v-9.562c0-5.953,4.828-10.781,10.781-10.781h126.66c5.953,0,10.781,4.828,10.781,10.781h0ZM220.223,58.925v7.125h124.22v-7.125h-124.22ZM176.114,46.925c8.578,0,15.562,6.984,15.562,15.562s-6.984,15.562-15.562,15.562-15.562-6.984-15.562-15.562,6.984-15.562,15.562-15.562ZM176.114,58.925c-1.969,0-3.562,1.594-3.562,3.562s1.594,3.562,3.562,3.562,3.562-1.594,3.562-3.562-1.594-3.562-3.562-3.562ZM282.334,868.265c22.125,0,40.078,17.953,40.078,40.078s-17.953,40.125-40.078,40.125-40.078-18-40.078-40.125,17.953-40.078,40.078-40.078ZM282.334,880.265c-15.516,0-28.078,12.562-28.078,28.078s12.562,28.125,28.078,28.125,28.078-12.609,28.078-28.125-12.562-28.078-28.078-28.078Z"/>
</svg>