<?xml version="1.0" encoding="UTF-8"?><svg id="Layer_1" xmlns="http://www.w3.org/2000/svg" viewBox="0 0 946.916 956.936"><defs><style>.cls-1{fill-rule:evenodd;}</style></defs><path class="cls-1" d="M.187,277.48c-3.094-55.734,32.578-137.11,76.875-194.16,17.578-22.641,36.797-41.906,55.828-54.797,22.219-15.047,44.859-21.938,65.953-16.922,14.766,3.516,27.844,12.469,38.391,27.984l.328.469.047-.047.656.984,117.89,189.71c1.125,1.828,6.188,11.25,10.031,18.984h.047c3.047,6.141,5.719,12.281,6.422,15.891,8.953,47.672-21.422,88.078-54.281,131.86-8.484,11.297-17.203,22.875-24.938,34.266l-.047.047.047.047c-.703,1.078-1.406,2.297-1.828,3.516,15.141,26.156,29.531,47.344,45.188,67.031,16.219,20.438,34.266,39.75,56.156,61.641,21.891,21.891,41.203,39.938,61.641,56.156,19.688,15.656,40.922,30.047,67.031,45.188,1.219-.422,2.484-1.078,3.516-1.828.422-.281.844-.562,1.266-.797,10.969-7.547,22.125-15.891,33.047-24.094,43.781-32.906,84.188-63.234,131.86-54.281,3.609.656,9.703,3.328,15.891,6.422.422.234.797.422,1.219.656,7.453,3.75,16.031,8.344,17.766,9.422l189.71,117.89.984.656c.703.469,1.359.938,2.016,1.453,14.531,10.359,23.016,23.016,26.391,37.266,5.016,21.094-1.828,43.734-16.922,65.953-12.891,19.031-32.156,38.25-54.797,55.828-57.047,44.297-138.42,79.969-194.16,76.875-75.328-4.172-153.24-28.406-228.24-67.078-78.844-40.641-154.55-97.266-220.55-163.31-66-66-122.63-141.71-163.31-220.55C28.638,430.717,4.404,352.811.185,277.491l.002-.011ZM113.577,111.5c-38.578,49.734-69.797,118.5-67.312,163.45,3.797,68.578,26.203,140.16,62.016,209.63,38.344,74.344,92.109,146.11,154.97,208.97,62.953,62.906,134.68,116.62,209.02,154.97,69.422,35.812,141.05,58.219,209.63,62.062,44.953,2.484,113.77-28.734,163.45-67.312,19.031-14.766,34.828-30.328,44.859-45.141,7.875-11.625,11.812-21.938,10.031-29.484-.844-3.469-3.328-6.938-7.828-10.219l-.562-.328-.422-.281-189.71-117.89c-1.172-.703-7.828-4.266-13.969-7.359-.422-.188-.797-.328-1.219-.562-3.094-1.547-2.484-2.203-3.797-2.438-27.797-5.203-60.422,19.266-95.719,45.797-11.156,8.391-22.547,16.922-34.734,25.312-.375.281-.797.609-1.219.891-6,4.078-14.391,7.922-22.828,9.422-9,1.641-18.375.844-26.672-3.891-29.438-16.875-53.344-33.047-75.797-50.859s-42.891-36.844-65.625-59.578-41.719-43.172-59.578-65.625c-17.812-22.453-33.984-46.359-50.859-75.797-4.781-8.344-5.531-17.719-3.891-26.672,1.547-8.438,5.344-16.828,9.422-22.828l.047.047c8.625-12.703,17.484-24.469,26.156-36,26.531-35.297,51-67.875,45.797-95.672-.516-.656-1.031-1.406-1.453-2.156-.281-.375-.609-.938-.984-1.688l.047-.047-.047-.094c-3.188-6.422-7.125-13.875-7.875-15.094l-117.89-189.71-.281-.469.047-.047c-3.375-4.828-6.984-7.5-10.594-8.344-7.547-1.781-17.859,2.156-29.484,10.031-14.812,10.172-30.375,25.969-45.141,45v.003Z"/><path d="M522.18,301.444v-47.476h331.188v47.476h-331.188ZM543.915,141.284v-47.476h330.616v47.476h-330.616ZM562.22,400.4L630.859,0h51.479l-68.64,400.4h-51.479ZM714.371,400.4L783.012,0h51.479l-68.64,400.4h-51.48Z"/></svg>