<?xml version="1.0" encoding="UTF-8"?>
<svg width="1200pt" height="1200pt" version="1.1" viewBox="0 0 1200 1200" xmlns="http://www.w3.org/2000/svg">
 <path d="m120 1076.2h722.2c2.3984 0 4.8008-0.60156 7-1.3984 0.80078-0.19922 1.3984-0.60156 2-1 1.3984-0.80078 2.8008-1.6016 4-2.6016 0.60156-0.60156 1.1992-1.1992 1.8008-1.8008 1-1.1992 1.8008-2.3984 2.6016-3.8008 0.39844-0.80078 0.80078-1.6016 1.1992-2.3984 0.19922-0.39844 0.39844-0.60156 0.60156-1l237.8-788.6c3.1992-10.602-2.8008-21.801-13.398-25l-223.61-67.598v-37.199c0-11-9-20-20-20h-722.2c-11 0-20 9-20 20v912.2c0 11.199 9 20.199 20 20.199zm742.2-853.4 193 58.199-193 639.6zm-722.2-59h682.2v872.2h-682.2z"/>
 <path d="m766.2 200h-570.2c-11 0-20 9-20 20v668.4c0 11 9 20 20 20h570c11 0 20-9 20-20l0.003906-668.4c0.19922-11.199-8.8008-20-19.801-20zm-91.598 668.4h-387.2v-23c0-57.398 46.801-104.2 104.2-104.2h178.8c57.398 0 104.2 46.801 104.2 104.2zm71.598 0h-31.398v-23c0-79.602-64.602-144.2-144.2-144.2h-178.8c-79.602 0-144.2 64.602-144.2 144.2v23h-31.602v-628.4h530.2z"/>
 <path d="m481 664.2c72.398 0 131.4-59 131.4-131.4 0-72.398-59-131.4-131.4-131.4s-131.4 59-131.4 131.4c0 72.398 59 131.4 131.4 131.4zm0-222.8c50.398 0 91.398 41 91.398 91.398s-41 91.398-91.398 91.398-91.398-41-91.398-91.398 41-91.398 91.398-91.398z"/>
</svg>
