<?xml version="1.0" encoding="UTF-8"?>
<svg id="Layer_1" data-name="Layer 1" xmlns="http://www.w3.org/2000/svg" viewBox="0 0 1008 828">
  <path d="M984,0H24C10.781,0,0,10.781,0,24v780c0,13.219,10.781,24,24,24h960c13.219,0,24-10.781,24-24V24c0-13.219-10.781-24-24-24ZM960,780H48V48h912v732Z"/>
  <path d="M144,708h720c13.219,0,24-10.781,24-24V144c0-13.219-10.781-24-24-24H144c-13.219,0-24,10.781-24,24v540c0,13.219,10.781,24,24,24ZM840,168v389.29l-146.76-131.86c-27.375-24.609-69.234-25.312-97.453-1.547l-70.781,59.625-105.94-116.53c-13.547-14.859-32.156-23.531-52.312-24.234s-39.234,6.609-53.859,20.531l-144.94,138.37V168.175h672l.045-.175ZM840,660h-154.55l-128.16-141.14,69.469-58.453c9.938-8.391,24.703-8.156,34.453.609l178.78,160.78.008,38.204ZM389.76,660h-221.76v-92.156l178.08-170.06c5.156-4.922,12-7.547,18.938-7.219,7.078.234,13.688,3.234,18.469,8.531l237,260.86h-230.86l.133.044Z"/>
  <path d="M537.61,382.31c49.219,0,89.297-40.078,89.297-89.297s-40.078-89.297-89.297-89.297-89.297,40.078-89.297,89.297,40.078,89.297,89.297,89.297ZM537.61,251.62c22.781,0,41.297,18.469,41.297,41.297s-18.469,41.297-41.297,41.297-41.297-18.469-41.297-41.297,18.469-41.297,41.297-41.297Z"/>
</svg>