<?xml version="1.0" encoding="UTF-8"?>
<svg id="Layer_1" data-name="Layer 1" xmlns="http://www.w3.org/2000/svg" viewBox="0 0 1080.02 1077.005">
  <defs>
    <style>
      .cls-1 {
        fill: red;
      }

      .cls-1, .cls-2 {
        fill-rule: evenodd;
      }
    </style>
  </defs>
  <path class="cls-2" d="M909.201,602.396c3.516,0,6.938,1.406,9.422,3.891,2.484,2.531,3.891,5.906,3.938,9.469v347.11c-.141,63-51.188,114-114.19,114.14H114.19c-63-.141-114-51.141-114.19-114.14V268.645c.188-63,51.188-113.95,114.19-114.14h347.11c3.516,0,6.938,1.406,9.422,3.938,2.531,2.484,3.938,5.906,3.938,9.422v119.39c53.625,6.75,93.844,52.312,93.844,106.36s-40.219,99.609-93.844,106.36v102.42h114.98c3.516,0,6.938,1.406,9.422,3.938,2.531,2.484,3.938,5.906,3.938,9.422,0,44.438,36,80.438,80.438,80.438s80.438-36,80.438-80.438c0-3.516,1.406-6.938,3.891-9.422,2.531-2.531,5.906-3.938,9.469-3.938h131.966ZM605.361,13.366v131.9c0,3.562,1.406,6.984,3.938,9.469,2.484,2.531,5.906,3.938,9.422,3.938,44.438,0,80.438,36,80.438,80.438s-36,80.438-80.438,80.438c-7.359,0-13.359,5.953-13.359,13.359v128.39c0,3.562,1.406,6.938,3.938,9.469,2.484,2.484,5.906,3.891,9.422,3.891h115.83c6.75,53.625,52.312,93.797,106.36,93.797s99.609-40.172,106.36-93.797h119.39c3.516,0,6.938-1.406,9.469-3.938,2.484-2.484,3.891-5.906,3.891-9.469V114.14c-.188-63-51.188-114-114.19-114.14h-347.11c-7.359,0-13.359,5.953-13.359,13.359v.007ZM965.831,26.725h-333.71v106.03c53.625,6.703,93.844,52.312,93.844,106.36s-40.219,99.609-93.844,106.31v102.42h114.98v.047c3.516,0,6.938,1.406,9.422,3.891,2.531,2.531,3.938,5.906,3.938,9.469,0,44.438,36,80.438,80.438,80.438s80.438-36,80.438-80.438c0-3.562,1.406-6.938,3.891-9.469,2.531-2.484,5.906-3.891,9.469-3.891h118.55V114.151c-.141-48.234-39.188-87.281-87.422-87.422l.007-.005ZM474.621,629.115v114.98h.047c0,7.406-6,13.406-13.359,13.406-44.438,0-80.438,36-80.438,80.438s36,80.438,80.438,80.438c3.516,0,6.938,1.406,9.422,3.891,2.531,2.531,3.938,5.906,3.938,9.469v118.55h333.71c48.234-.141,87.281-39.188,87.422-87.422v-333.74h-105.98c-6.75,53.625-52.359,93.797-106.36,93.797s-99.609-40.172-106.36-93.797l-102.479-.009ZM26.781,602.396h106.03-.047c6.75-53.625,52.359-93.797,106.36-93.797s99.609,40.172,106.36,93.797h102.42v-114.98c0-7.406,6-13.359,13.406-13.359,44.391,0,80.438-36.047,80.438-80.438s-36.047-80.438-80.438-80.438c-7.406,0-13.406-6-13.406-13.406v-118.55H114.194c-48.234.141-87.281,39.188-87.422,87.422l.009,333.749ZM448.001,629.115h-115.08c-7.359,0-13.359-6-13.359-13.359,0-44.438-36-80.438-80.438-80.438s-80.438,36-80.438,80.438c0,7.359-6,13.359-13.359,13.359H26.777v333.74c.141,48.234,39.188,87.281,87.422,87.422h333.71v-106.03c-53.625-6.703-93.844-52.312-93.844-106.36s40.219-99.609,93.844-106.31l.092-102.462Z"/>
  <path class="cls-1" d="M510.259,57.996l.395-54.986,83.989,85.202-85.202,83.989.395-54.986-156.204-1.118.424-59.214,156.204,1.118v-.005s0,0,0,0Z"/>
</svg>