<?xml version="1.0" encoding="UTF-8"?>
<svg id="Layer_1" xmlns="http://www.w3.org/2000/svg" version="1.1" viewBox="0 0 1116.6 797.3">
  <!-- Generator: Adobe Illustrator 29.2.1, SVG Export Plug-In . SVG Version: 2.1.0 Build 116)  -->
  <path d="M26.9,3.6c-12.3,6.7-12.3,19-2.2,66.6,4.5,20.2,11.2,50.9,14.5,68.8,6.2,29.6,8.4,33.6,26.3,40.8,16.2,6.7,19,10.6,16.8,20.7-1.6,6.8-7.8,30.8-13.4,53.2-7.3,27.4-14.5,43.1-22.9,49.2C26.9,316.3,0,366.6,0,389.5s25.7,76.1,49.8,92.3c11.2,7.3,33,15.1,48.1,16.8,20.7,2.8,33,8.4,47.6,21.8,21.2,20.2,65.4,43.6,109.1,58.7l27.9,9.5v102.9l.6,102.9,49.3,1.6c28.5,1.1,52-1.1,56.5-4.5,3.9-2.8,15.1-27.4,25.7-54.3,10.6-27.4,19.5-44.7,20.7-39.7,1.1,5.6,5.1,29.7,8.4,53.2l6.7,43.6h117.5l6.8-36.4c3.3-20.2,8.4-58.2,10.6-85.6l3.9-48.7h26.3c14.5,0,38.6-1.7,53.1-3.9l26.9-3.3-3.3,35.8c-2.2,19.5-8.4,55.9-13.5,81.1q-12.8,63.8,50.9,63.8h53.2l14-18.4c7.8-10.1,18.5-28.5,24-40.9l9.5-21.8,5.6,33.6c3.3,18.5,8.4,36.9,10.6,40.3,3.4,5.1,21.3,7.3,56.5,7.3s54.2-2.2,58.2-7.3c2.8-3.3,7.3-35.8,9.5-71,2.2-35.2,11.2-104.1,20.2-153.3,18.5-100.1,20.7-174,7.8-232.7-9.5-44.2-10.1-50.3-2.2-50.3s23-14,44.2-31.4c42.5-34.1,69.4-69.9,75-100.1,7.3-36.9-19-56.5-33.6-25.2-28.5,63.2-38,73.9-40.3,46.5-.6-7.8-5.6-22.4-11.2-31.9-14-24.1-44.7-26.9-66-6.2-12.8,12.9-14.5,17.9-11.7,40.8,2.2,19.6,6.7,29.7,20.1,41.4,20.7,18.4,21.3,21.2,3.4,21.2s-16.2-5-21.8-15.7c-4.5-8.4-21.8-28.5-39.1-44.8-56.5-53.1-147.1-85-243.9-85h-44.8v-24c0-32.4-10.6-40.8-57-45.3-63.2-6.2-134.8,10.6-167.8,39.7-8.4,7.3-16.2,7.8-53.1,2.8-26.3-3.9-60.4-4.5-85.6-1.7-40.8,4.5-42.5,3.9-60.4-11.8C167.8,22.1,132,9.2,61.6.8,47.5-.9,31.9.2,26.9,3.6h0ZM109.1,48.9c30.8,7.8,57,20.7,61,29.6,3.3,9-60.4,75.5-72.7,75.5s-22.4-21.8-29.7-61.5c-3.9-20.1-7.8-40.8-9.5-46.4q-3.3-10.6,50.9,2.8h0ZM584.5,79.7c-2.2,9-7.3,34.7-11.7,57.6-4.5,22.9-12.9,48.1-18.5,55.9-15.7,21.8-54.8,40.8-91.7,44.2-37.5,3.9-50.9,15.1-39.7,32.4,12.3,19,94.5,5.6,132-21.8,19.6-13.5,43.6-54.8,52.6-87.8l6.1-25.7,44.2-1.6c85.6-3.4,175.1,24.6,226.5,70.5,37.5,33.6,59.3,71.1,72.7,124.7,10.6,40.3,11.8,57,9,114.1-1.7,36.9-9,91.2-15.1,120.2-6.1,29.1-14,85.6-16.8,125.9-2.8,39.8-5.1,73.3-5.6,73.9,0,1.1-12.3,1.6-26.8,1.6h-27.4l-6.7-53.7c-7.8-65.4-21.8-108.5-54.3-168.4-25.2-45.9-40.3-61.5-55.9-55.4-11.2,4.5-9.5,22.4,3.3,43.6,6.2,10.1,11.2,20.2,11.2,22.4,0,10.6-101.8,32.4-152.7,32.4h-26.3l1.1-40.8c1.7-39.2,1.1-40.3-11.7-40.3s-20.2,9.5-28.5,101.8c-3.3,39.2-9,91.2-12.3,114.7l-5.6,43.6h-53.1l-3.9-32.4c-5.6-50.9-26.3-147.7-35.2-167.3-10.6-22.9-24.6-28.5-34.7-13.4-19,29.1-143.7,4.5-220.4-43.1-24-15.1-25.2-19.6-9-36.4,23.5-24.6,33-45.3,33-73.3,0-53.2-39.7-105.7-83.9-113-20.7-3.3-22.4-5-22.4-22.4,0-27.4,19.6-75.5,41.4-100.7,10.6-12.3,32.4-29.6,48.7-38.6,28.5-15.7,34.7-16.8,103.4-18.5l73.3-2.2-.6,24.6c-.6,20.2,1.1,24,10.6,24s16.3-9.5,28-30.8c22.9-41.4,55.4-55.4,128.1-55.9h49.2l-3.9,15.1ZM1005.7,170.3c4.5,12.9,3.9,17.3-1.7,19.6-7.8,2.8-14-7.8-14-25.2s9.5-12.9,15.7,5.6h0ZM139.3,333.6c26.8,19,42,48.7,36.9,72.1-1.7,8.4-11.7,23.5-22.4,33.6-16.2,15.7-23.5,18.5-44.2,18.5-67.1,0-91.7-67.7-43.1-119.2,25.7-27.4,40.8-28.5,72.8-5h0ZM803.2,625c11.2,33.6,7.8,45.8-24,103.5-18.5,34.1-19.5,35.2-42,35.2s-22.4-.6-19-15.7c2.2-8.4,5.6-40.8,7.8-72.1,2.8-31.9,5.6-58.7,7.3-59.9,3.3-3.9,44.7-18.5,53.7-19.6,3.4,0,10.6,12.3,16.2,28.5h0ZM405.6,612.2c3.9,13.5-3.9,48.1-24.6,104.1l-16.2,44.8-23.5,1.6-24,1.7,3.9-17.9c1.7-9.5,3.3-46.4,3.3-81.1v-63.8h38.6c33,0,39.7,1.6,42.5,10.6h0Z"/>
  <path d="M285.8,245.8c-17.3,18.5-11.8,36.9,10.6,36.9s37.5-21.8,27.9-38.6c-7.8-15.7-22.9-14.5-38.6,1.7h0Z"/>
  <path d="M66,376.1c-11.2,2.8-19,24.6-13.4,38,3.9,10.1,26.3,11.2,35.8,1.7,17.3-17.3,1.1-44.8-22.4-39.7h0Z"/>
  <path d="M132,381.2c-10.6,10.1-10.6,11.2-3.3,25.2,7.3,12.8,32.4,14.5,36.9,2.2,3.9-9-11.2-36.4-20.1-36.4s-9,3.9-13.5,9h0Z"/>
</svg>