<?xml version="1.0" encoding="UTF-8"?>
<svg id="Layer_1" data-name="Layer 1" xmlns="http://www.w3.org/2000/svg" viewBox="0 0 1148.402 1092.004">
  <path d="M545.984,0c66.422,0,130.08,11.859,189,33.609,22.922,8.438,32.484,34.359,22.969,55.594l-193.4,432.14-.234.75c-1.125,3.656,1.453,7.547,5.438,7.734,59.812,3.141,186.05,9.938,297.24,17.391,55.594,3.75,107.58,7.641,145.69,11.297,18.984,1.828,34.875,3.609,46.078,5.391,5.484.844,10.453,1.781,14.297,2.812,1.781.516,4.312,1.266,6.703,2.578,1.172.562,3.375,1.828,5.484,4.031s5.719,7.172,5.156,14.344l-1.125,13.172c-27.516,275.81-260.26,491.16-543.28,491.16C244.45,1092.004,0,847.554,0,546.004S244.45.004,546,.004l-.016-.004ZM820.804,937.55c-78.469,56.625-174.84,89.953-278.95,89.953-20.719,0-41.109-1.312-61.078-3.891l-3.938,27.703c22.641,3.047,45.703,4.688,69.141,4.688,109.73,0,211.4-34.688,294.56-93.656l-19.735-24.797ZM119.934,826.36c72.844,110.48,187.5,190.97,321.42,218.86l3.891-27.516c-126.14-25.875-234.05-101.53-302.48-205.5l-22.831,14.156ZM485.744,987.99c18.375,2.297,37.125,3.516,56.109,3.516,95.625,0,184.18-30.422,256.5-82.125l-256.36-321.24-56.249,399.849ZM173.324,793.18c62.859,95.109,161.63,164.44,276.94,188.81l55.688-395.9-332.628,207.09ZM586.194,822.242c34.406,0,62.344,27.891,62.344,62.344s-27.938,62.297-62.344,62.297-62.344-27.891-62.344-62.297,27.938-62.344,62.344-62.344ZM1017.214,595.132c-12.047,128.29-74.812,241.78-168,320.26l19.969,25.078c101.06-82.875,169.74-203.86,184.03-340.97-8.672-1.359-20.906-2.812-36-4.359v-.009ZM694.664,846.992c4.734-7.781,14.719-10.875,23.109-6.891,8.391,4.031,12.281,13.734,9.234,22.312l-.703,1.688-27.188,56.953-.844,1.641c-4.781,7.781-14.719,10.875-23.109,6.844-8.438-3.984-12.328-13.688-9.234-22.266l.703-1.688,27.141-56.953.891-1.64ZM586.194,858.242c-14.531,0-26.344,11.766-26.344,26.344s11.812,26.297,26.344,26.297,26.344-11.766,26.344-26.297-11.812-26.344-26.344-26.344ZM420.824,853.976c9.094-.094,16.969,6.75,18,16.031s-5.156,17.672-14.062,19.594l-1.875.281-62.672,6.938-1.828.094c-9.141.094-17.016-6.75-18.047-16.031-1.031-9.234,5.156-17.625,14.109-19.547l1.828-.281,62.672-6.938,1.875-.141ZM826.714,887.257c85.781-72.562,143.53-177.19,154.64-295.4-33.516-2.859-73.969-5.812-116.77-8.719-109.45-7.312-233.58-14.016-294.28-17.203l256.41,321.322ZM260.934,778.037c7.172-5.953,17.625-5.438,24.141.938l1.219,1.359,40.453,48.422,1.125,1.453c5.109,7.547,3.75,17.906-3.375,23.906-7.172,5.953-17.625,5.438-24.141-.938l-1.219-1.359-40.453-48.422-1.125-1.453c-5.109-7.547-3.75-17.906,3.375-23.906ZM793.064,741.849c5.016-7.828,15.094-10.453,23.25-6.375l1.594.938,53.109,34.078,1.5,1.031c7.125,5.719,8.953,15.984,3.938,23.812s-15.141,10.5-23.297,6.375l-1.594-.938-53.109-34.031-1.5-1.078c-7.125-5.672-8.953-15.984-3.891-23.812h0ZM597.964,717.99c4.734-7.781,14.719-10.875,23.109-6.844,8.391,3.984,12.281,13.688,9.234,22.266l-.703,1.734-27.188,56.906-.844,1.641c-4.781,7.781-14.719,10.875-23.109,6.891-8.438-4.031-12.328-13.734-9.234-22.312l.703-1.688,27.141-56.953.891-1.641ZM408.864,677.115c34.406.047,62.344,27.938,62.344,62.344s-27.938,62.344-62.344,62.344-62.344-27.891-62.344-62.344,27.938-62.344,62.344-62.344ZM49.524,428.725c-8.859,37.688-13.547,76.922-13.547,117.28,0,90.703,23.719,175.87,65.203,249.66l22.922-14.25c-38.062-68.531-59.719-147.42-59.766-231.37.047-38.906,4.688-76.688,13.453-112.88l-28.265-8.44ZM408.864,713.115c-14.531,0-26.344,11.812-26.344,26.344s11.812,26.344,26.344,26.344,26.344-11.812,26.344-26.344-11.812-26.297-26.344-26.344ZM112.334,447.425c-7.828,32.953-12,67.312-12,102.61.047,76.969,19.734,149.29,54.375,212.29l328.5-204.56-283.64-84.375c17.625,8.953,29.766,27.281,29.766,48.422,0,29.953-24.328,54.281-54.281,54.281s-54.281-24.328-54.281-54.281,24.328-54.281,54.281-54.281c2.016,0,3.984.094,5.953.328l-68.673-20.434ZM747.444,596.535c34.406,0,62.344,27.891,62.344,62.344s-27.938,62.297-62.344,62.297-62.344-27.891-62.344-62.297,27.938-62.344,62.344-62.344ZM876.344,596.535c34.406,0,62.344,27.891,62.344,62.344s-27.938,62.297-62.344,62.297-62.344-27.891-62.344-62.297,27.938-62.344,62.344-62.344ZM215.364,572.347c34.406,0,62.344,27.891,62.344,62.344s-27.938,62.297-62.344,62.344c-34.406,0-62.344-27.938-62.344-62.344s27.938-62.344,62.344-62.344ZM747.444,632.535c-14.531,0-26.344,11.766-26.344,26.344s11.812,26.297,26.344,26.297,26.344-11.766,26.344-26.297-11.812-26.344-26.344-26.344ZM876.344,632.535c-14.531,0-26.344,11.766-26.344,26.344s11.812,26.297,26.344,26.297,26.344-11.766,26.344-26.297-11.812-26.344-26.344-26.344ZM215.364,608.347c-14.531,0-26.344,11.766-26.344,26.344s11.812,26.344,26.344,26.344c14.531-.047,26.344-11.812,26.344-26.344s-11.812-26.344-26.344-26.344ZM356.314,571.878c9.094-.094,16.969,6.75,18,15.984,1.031,9.281-5.156,17.672-14.062,19.594l-1.875.281-62.672,6.938-1.828.094c-9.141.094-17.016-6.75-18.047-15.984-1.031-9.281,5.156-17.672,14.109-19.594l1.828-.281,62.672-6.938,1.875-.094ZM175.054,503.534c-10.078,0-18.281,8.203-18.281,18.281s8.203,18.281,18.281,18.281,18.281-8.203,18.281-18.281-8.203-18.281-18.281-18.281ZM334.614,160.134c-99.844,53.203-176.81,143.58-212.48,252.66l383.11,114-170.63-366.66ZM541.854,108.572c-62.109,0-121.22,12.844-174.79,35.953l166.55,357.84,163.64-365.68c-48.281-18.188-100.69-28.125-155.39-28.125l-.01.012ZM914.374,73.463c7.734-8.953,20.297-12.703,31.875-8.812l2.484.984c79.969,35.016,133.18,99.281,164.34,167.63,31.031,68.062,40.781,141.66,32.531,197.58-2.062,14.109-13.688,23.953-26.859,25.031l-448.5,37.406-2.391.094c-23.391.234-38.016-25.781-25.688-45.703l1.359-1.922,236.34-325.08.281-.703c1.219-3,3.188-5.484,5.578-7.312l27.047-37.219,1.602-1.973ZM390.314,427.183c5.203-7.734,15.328-10.172,23.391-5.906l1.594.938,52.453,34.969,1.5,1.125c7.031,5.766,8.672,16.078,3.516,23.859-5.156,7.734-15.281,10.219-23.344,5.953l-1.594-.984-52.5-34.969-1.5-1.078c-7.031-5.812-8.672-16.125-3.516-23.906ZM680.334,456.292l368.11-30.703c.938-51.562-11.531-108.8-36.516-159.28-24.984-50.484-61.781-92.859-108.61-116.62l-222.984,306.603ZM333.224,363.058c4.875-7.734,14.906-10.641,23.25-6.469,8.297,4.172,12,13.969,8.766,22.5l-.75,1.641-28.219,56.438-.891,1.641c-4.875,7.688-14.906,10.594-23.25,6.422-8.344-4.172-12-13.922-8.766-22.453l.75-1.688,28.172-56.438.938-1.594ZM848.194,314.402c32.203,0,58.312,26.109,58.312,58.266s-26.109,58.312-58.312,58.312-58.312-26.109-58.312-58.312,26.109-58.266,58.312-58.266ZM924.741,120.242c52.875,28.5,92.859,76.359,119.48,130.13,26.812,54.234,40.688,115.69,40.266,172.22l26.203-2.156c5.812-47.906-2.953-112.03-30.375-172.26-27.703-60.797-73.828-116.3-141.37-147.47l-14.204,19.536ZM304.961,96.476c-116.53,62.578-205.92,169.18-245.95,297.56l28.594,8.484c38.625-119.02,122.72-217.5,231.79-275.06l-14.434-30.984ZM848.201,350.396c-12.328,0-22.312,9.984-22.312,22.266s9.984,22.312,22.312,22.312,22.312-9.984,22.312-22.312-9.984-22.266-22.312-22.266ZM981.841,315.146c4.641-7.828,14.578-11.062,23.062-7.172,8.438,3.938,12.422,13.547,9.469,22.219l-.703,1.688-24.141,52.406c-4.172,9-14.906,12.938-23.906,8.812-8.484-3.938-12.469-13.594-9.516-22.219l.703-1.688,24.188-52.406.844-1.641ZM247.631,334.693c8.906-2.062,18.047,2.906,21.094,11.719,2.953,8.812-1.266,18.375-9.562,22.172l-1.688.703-59.766,20.297-1.734.516c-8.906,2.016-18.094-2.953-21.094-11.766-3-8.859,1.266-18.375,9.562-22.172l1.688-.703,59.719-20.297,1.781-.469ZM545.891,249.896c29.953,0,54.281,24.281,54.281,54.281s-24.328,54.281-54.281,54.281-54.281-24.328-54.281-54.281,24.328-54.281,54.281-54.281ZM312.131,241.834c29.953,0,54.281,24.328,54.281,54.281s-24.328,54.281-54.281,54.281-54.281-24.328-54.281-54.281,24.328-54.281,54.281-54.281ZM545.891,285.896c-10.078,0-18.281,8.156-18.281,18.281s8.203,18.281,18.281,18.281,18.281-8.203,18.281-18.281-8.203-18.281-18.281-18.281ZM912.681,185.396c36.656,0,66.375,29.719,66.375,66.375s-29.719,66.375-66.375,66.375-66.375-29.719-66.375-66.375,29.719-66.375,66.375-66.375ZM312.121,277.834c-10.078,0-18.281,8.203-18.281,18.281s8.203,18.281,18.281,18.281,18.281-8.203,18.281-18.281-8.203-18.281-18.281-18.281ZM912.681,221.396c-16.781,0-30.375,13.594-30.375,30.375s13.594,30.375,30.375,30.375,30.375-13.594,30.375-30.375-13.594-30.375-30.375-30.375ZM465.261,137.021c34.406.047,62.344,27.938,62.344,62.344s-27.938,62.344-62.344,62.344-62.344-27.891-62.344-62.344,27.938-62.344,62.344-62.344h0ZM599.181,173.63c4.922-7.734,14.953-10.641,23.25-6.469,8.344,4.172,12.047,13.922,8.812,22.453l-.75,1.688-28.219,56.438-.891,1.594c-4.875,7.734-14.906,10.641-23.25,6.469s-12-13.969-8.766-22.453l.75-1.734,28.172-56.391.891-1.594ZM465.261,173.021c-14.531,0-26.344,11.812-26.344,26.344s11.812,26.344,26.344,26.344,26.344-11.766,26.344-26.344-11.812-26.297-26.344-26.344ZM545.98,36.001c-74.391,0-145.03,15.938-208.74,44.531l14.578,31.359c58.266-25.312,122.48-39.328,190.03-39.328,59.906,0,117.23,11.062,170.16,31.219l13.078-29.25c1.5-3.281-.234-6.281-2.531-7.172-55.031-20.25-114.47-31.359-176.58-31.359h.005Z"/>
</svg>