<?xml version="1.0" encoding="UTF-8"?>
<svg id="Layer_1" data-name="Layer 1" xmlns="http://www.w3.org/2000/svg" viewBox="0 0 974.707 1020.011">
  <path d="M853.19,0c-96.961-.137-191.23,38.93-259.35,110.37l-.012.012c-84.035,88.203-115.79,213.05-84.48,329.57-34.316,57.727-61.129,120.28-76.621,189.54-7.059-14.398-14.68-28.445-22.785-42.176,26.496-101.24-1.363-209.44-74.289-285.98l-.008-.008c-59.484-62.391-141.8-96.492-226.45-96.375-23.703.031-47.586,2.75-71.207,8.277l.691-.078c-5.836,1.23-11.234,3.996-15.648,8.008-4.41,4.008-7.676,9.121-9.461,14.812-32.578,104.94-5.52,219.28,70.594,299.14t.004.008c70.141,73.559,172.02,107.79,272.04,92.969,34.422,60.191,57.469,126.11,63.395,201.85v156.49h.004c0,8.906,3.539,17.449,9.836,23.746,6.297,6.297,14.84,9.836,23.746,9.836s17.449-3.539,23.746-9.836c6.297-6.297,9.836-14.84,9.836-23.746v-265.37c7.047-90.445,34.898-168.94,76.348-240.47,115.74,18.363,234.05-20.773,315.22-105.9h-.004s.004-.004.008-.004c87.16-91.449,118.12-222.31,80.824-342.45-1.785-5.688-5.051-10.801-9.461-14.812-4.414-4.012-9.816-6.773-15.648-8.008l.691.078C907.695,3.162,880.336.048,853.188.013l.002-.013ZM853.081,67.164c15.66.02,31.406,1.301,47.098,3.883,21.547,91.523-4.402,187.99-70.449,257.29-58.645,61.5-141.45,93.488-225.47,89.105,50.184-69.395,112.34-133.07,178.72-196.37,6.445-6.145,10.188-14.598,10.398-23.504.215-8.902-3.121-17.527-9.266-23.973-6.852-7.184-16.527-10.973-26.434-10.34-7.883.5-15.332,3.758-21.047,9.207-61.105,58.262-120.88,118.99-171.85,185.84-2.164-73.609,24.957-146.25,77.668-201.58,55.188-57.883,131.77-89.66,210.63-89.555l.002-.003ZM109.311,272.114c66.555-.09,131.17,26.727,177.72,75.555,41.223,43.273,63.887,99.055,65.512,156.41-42.164-53.539-90.57-102.53-139.86-149.52-5.715-5.445-13.164-8.707-21.043-9.207-9.906-.629-19.586,3.156-26.438,10.34-6.145,6.445-9.477,15.07-9.266,23.977.215,8.902,3.953,17.359,10.402,23.504,54.738,52.191,105.95,104.51,147.9,161.05-67.863,1.121-134.03-25.719-181.45-75.449l-.008-.008c-54.969-57.676-76.957-137.59-60.082-213.84,12.203-1.848,24.438-2.797,36.609-2.812h.003Z"/>
</svg>