<?xml version="1.0" encoding="UTF-8"?>
<svg id="Layer_1" data-name="Layer 1" xmlns="http://www.w3.org/2000/svg" viewBox="0 0 1200.011 886.24">
  <path d="M1199.03,692.61c-5.453-48.734-28.809-90.781-33.117-98.184-18.426-63.566-41.879-133.56-76.281-174.96-1.406-8.879-5.953-17.285-13.117-24.355,8.547-9.262,13.594-20.738,13.594-33.164,0-20.926-14.023-39.402-35.973-48.902,18.926-28.379,40.188-67.211,40.188-117.54,0-85.566-60.734-181.51-162.42-193.96-56.043-6.879-108.18,9.477-139.49,43.711-15.617,17.047-23.188,36.094-21.285,52.926-6.047,9.309-22.023,36.758-23.449,68.949-1.332,30.449,8.879,65.949,13.332,79.758l-39.711,38.641c-2.738,2.668-3.617,6.691-2.262,10.238.57,1.477,6.738,17.309,16.879,36.258,0,.023.023.047.047.07,13.309,24.855,33.449,55.02,56.805,65.141,15.117,6.547,32.711,8.617,48.973,8.617,9.332,0,18.188-.691,25.926-1.617-24.902,32.379-45.996,72.211-49.379,78.758-1.309,2.477-1.43,5.406-.383,8,1.691,4.094,3.523,8.094,5.453,12.023-8.902,11.332-35.188,41.996-73.996,64.113-3.953,2.262-8.262,4.477-12.855,6.641-4.832-4.356-12.57-10.93-21.688-17.047v-195.01c0-5.262-4.262-9.523-9.523-9.523h-145.8c-5.262,0-9.523,4.262-9.523,9.523v185.18l-67.352-76.543,2-2.094c3.215-3.356,3.523-8.547.762-12.285-22.164-29.762-48.02-54.973-76.922-75.16,17.977-14.477,27.547-31.57,29.762-45.832,4.715-30.355-13.426-58.02-20.809-67.781l7.617-42.926c3.906,4.594,7.668,9.355,11.262,14.285,1.953,2.617,5.117,4.094,8.355,3.855,3.238-.215,6.168-2.094,7.715-4.977,13.691-25.355,15.477-54.566,5.355-87.043l59.805,2.668c3.57.168,7-1.715,8.738-4.855,1.762-3.145,1.594-7.023-.43-10-3.215-4.785-80.637-117.16-200.87-125.82-110.52-7.977-196.08,29.734-228.94,100.9-25.262,54.641-8.453,110.59-2.262,127.52-3.832,6.094-6.762,12.902-8.617,20.188-4.023,15.785-2.57,32.047,4.117,45.781,6.93,14.285,18.617,24.141,32.926,27.809,8.762,2.238,17.785,1.953,26.523-.762,1.93,3.355,4.594,7.57,8,12.262-15.379,5.594-40.734,16.617-59.902,34.047-28.879,26.332-46.211,74.875-46.949,76.922-.93,2.691-.645,5.641.832,8.07,3.953,6.594,8.5,12.738,13.57,18.477-5.5,16.188-19.215,64.02-8.902,113.35,3.953,18.855,13.691,35.07,25.355,48.52-9.5,7.402-25.426,20.449-40.641,35.664-34.047,34.094-46.211,60.473-37.211,80.66,7.977,17.902,25.523,23.547,44.449,23.547,24.379,0,51.066-9.356,62.781-13.977,34.641,25.688,91.375,61.211,143.73,64.352,4.547.262,9.07.406,13.57.406,22.238,0,43.902-3.379,64.711-9.977v21.664c0,5.262,4.262,9.523,9.523,9.523h431.07c5.262,0,9.523-4.262,9.523-9.523v-129.71c0-5.262-4.262-9.523-9.523-9.523h-57.879v-29.785c24-4.641,49.879-11.617,73.926-22.117,56.473-24.664,93.492-62.379,106.78-77.422,2.762,1.594,5.57,3.144,8.477,4.617,1.356.715,2.856,1.07,4.356,1.07,2.144,0,4.309-.738,6.047-2.168l14.926-12.285,27.785,73.496-76.875,47.832c-4.285,2.668-5.738,8.215-3.332,12.641.117.191.57,1.047,1.406,2.453-46.855,33.211-67.02,69.188-58.379,104.38,15.285,62.043,138.23,74.949,237.87,74.949,34.234,0,65.734-1.523,89.137-3.094,16.641-1.145,29.688-15.094,29.688-31.785,0-12.215-6.785-23.141-17.715-28.523-9.641-4.762-18.238-9.547-25.5-14.215,25.211-6.356,41.641-13.453,42.496-13.832,1.906-.832,3.477-2.262,4.5-4.07,1.008-1.785,24.625-44.543,18.625-98.086l-.006-.025ZM800.34,379.75c-15.023-6.523-29.809-25.973-41.547-45.902,15.832-4.691,29.902-13.332,41.973-25.832,3.668-3.785,3.547-9.809-.238-13.477-3.762-3.645-9.809-3.547-13.453.238-10.879,11.285-23.285,18.477-37.711,21.902-4.191-8.238-7.668-15.879-10.215-21.977l39.449-38.355c2.668-2.594,3.57-6.523,2.309-10.047-.145-.43-15.715-44.117-14.191-78.352.832-19,7.93-36.496,13.855-48.02,24.738,33.664,92.422,75.211,125.06,94.066-1.953,1.691-3.785,3.5-5.5,5.477-3.43,3.977-2.977,10,1.023,13.426,4,3.43,10,2.977,13.426-1.023,6.617-7.691,16.57-12.117,27.285-12.117,19.117,0,34.641,14.141,34.641,31.523s-15.523,31.547-34.641,31.547c-3.285,0-6.547-.43-9.668-1.262-5.07-1.332-10.309,1.691-11.641,6.785-1.356,5.07,1.668,10.285,6.762,11.641,4.715,1.238,9.617,1.879,14.547,1.879,1.191,0,2.379-.047,3.547-.117,3.715,12.641,9.523,23.094,17.453,31.094-4.953,6.547-8.191,13.902-9.477,21.57-17.379.762-32.379,4.238-44.617,10.477-7.023,3.57-14.355,9.477-21.641,16.762-11.012,2.453-56.461,11.215-86.793-1.906h.003ZM569.02,476.434h126.75v69.664c-13.141-5.668-26.902-7.832-38.117-.953-6.785,4.168-11.309,10.168-13.285,17.453h-75.352l.004-86.164ZM366.7,501.055l40.809,34.758c1.785,1.523,3.977,2.262,6.168,2.262,2.523,0,5.023-.977,6.879-2.93l2.594-2.715,24.664,30.164h-34.141c-5.262,0-9.523,4.262-9.523,9.523v53.02c-12.355-8.594-31.117-18.809-54.066-22.523-.645-32.828,4.832-66.395,16.617-101.56h0ZM423.196,581.645h126.78v126.92h-126.78v-126.92ZM538.426,562.598h-66.02l-35.996-44.02,32.996-34.449,69.02,78.469ZM156.426,312.728c-1.047-.383-2.145-.57-3.238-.57-1.523,0-3.023.355-4.406,1.07-7.141,3.715-14.715,4.715-21.902,2.879-8.762-2.262-16.047-8.523-20.5-17.664-4.715-9.691-5.691-21.332-2.785-32.785,2.93-11.43,9.379-21.164,18.141-27.402,8.309-5.906,17.715-7.93,26.473-5.691,9.902,2.523,17.926,10.262,22.047,21.238.93,2.5,2.855,4.5,5.332,5.5,2.477,1,5.262.906,7.668-.238,42.996-20.379,71.949-49.641,88.09-89.113,13.664,18.309,20.285,37.926,20.141,59.59-.023,3.191,1.547,6.168,4.215,7.953,2.645,1.785,6,2.117,8.953.906,29.57-12.262,49.234-34.309,58.566-65.59,16.547,9.477,31.762,20.902,45.543,34.141l-10.855,61.141c-.5,2.832.309,5.738,2.168,7.902.238.285,23.688,27.832,19.309,56.066-4.594,29.641-50.879,67.828-139.39,59.949-32.617-2.93-60.711-13.617-83.496-31.785-24.902-19.902-34.449-42.02-34.523-42.211-1.02-2.449-3.02-4.379-5.543-5.285h-.007ZM109.645,394.201c15.5-14.117,36.402-23.688,50.426-29.023-1.57,12.738-1.332,30.449,7.5,46.02,15.191,26.809,60.641,40.641,65.758,42.141.883.262,1.785.383,2.668.383,3.215,0,6.285-1.617,8.047-4.453l24.855-39.379c3.094.43,6.238.809,9.402,1.094,1.691.145,3.355.262,5.023.383l34.523,42.258c1.809,2.215,4.523,3.477,7.355,3.477h.383c2.977-.117,5.738-1.617,7.453-4.07l35.285-50.711c8.477-2.879,16.117-6.285,22.977-10.07,27.641,18.262,52.496,41.281,73.926,68.711l-52.211,54.52-39.332-33.523c3.145-8.023,6.594-16.164,10.402-24.379,2.215-4.785.117-10.43-4.641-12.641-4.785-2.215-10.43-.145-12.641,4.641-24.688,53.355-36.426,103.02-35.809,151.44-35.855-.809-75.16,8.191-87.066,11.141-20.238-9.117-45.188-2.144-54.855,1.215-11.738-5.547-34.641-18.926-40.594-34.07-5.355-13.691-3.691-35.402-1.547-49.332,5.832,1.477,11.855,2.785,18.117,3.906.547.094,1.117.145,1.668.145,1.977,0,3.906-.594,5.523-1.762,2.094-1.477,3.5-3.738,3.879-6.285l10.215-65.188c.809-5.191-2.738-10.047-7.93-10.879-5.215-.809-10.07,2.738-10.879,7.953l-8.691,55.379c-41.594-9.094-71.613-27.262-89.398-54.094,4.707-11.902,19.445-46.043,40.207-64.945h0ZM74.004,593.021c-7.879-37.641.145-75.449,5.715-94.828,13.547,10.953,29.832,19.738,48.805,26.309-2.355,13.977-5.523,41.949,2.238,61.734,10.664,27.285,49.879,44.355,54.305,46.211,2.355,1,5.047,1,7.379,0,7.855-3.285,31.355-10.047,45.688-1.906,7.953,4.523,11,15.141,11.93,24.738-11.43-5.309-21.738-7.141-22.594-7.285-5.141-.883-10.07,2.594-10.953,7.785-.883,5.168,2.594,10.094,7.762,10.977,8.379,1.477,31.402,8.477,37.188,23.262,3.117,7.977,1.023,23.164-9.023,35.617-5.238,6.523-16.832,17-35.473,14.023-35.734-5.738-58.852-58.688-59.066-59.211-.953-2.215-2.715-4-4.906-4.977-.688-.312-68.16-30.738-78.992-82.449h-.002ZM90.238,730.841c-3.906-3.547-9.93-3.262-13.477.645-3.523,3.879-3.238,9.902.668,13.453.855.785,6.191,5.57,14.809,12.57-24.902,8.141-63.328,15.926-71.973-3.5-9.117-20.449,35.855-66.043,73.852-94.922,19.285,17.453,39.809,28.332,47.805,32.234,2.93,6.117,9.855,19.449,20.402,32.688-12.762,9.902-21.355,24.238-25.594,42.781-27.301-18.711-46.086-35.594-46.492-35.949h0ZM332.108,806.075c-24.5,8.641-50.379,12.215-77.137,10.594-33.758-2.023-70.664-19.785-100.99-38.617,2.762-18.453,9.762-31.641,21.309-39.996,10.141,9.43,22.402,17.188,36.57,19.977l45.094,28.762c1.57,1,3.332,1.477,5.117,1.477,1.977,0,3.93-.594,5.594-1.809,24.902-18.047,45.664-27.449,64.449-29.141l-.006,48.753ZM619.498,838.263h-124.66v-110.66h124.66v110.66ZM781.128,639.203c-40.594,17.738-87.234,24.902-119.23,27.785-13,1.191-24.477-8.023-26.188-20.926-1.691-12.523,6.715-24.355,19.117-26.949,4.762-.977,9.57-2.047,14.262-3.144,3.117-.738,5.668-3,6.762-6,1.094-3.023.617-6.379-1.309-8.953-3.762-5.07-14.047-21.926-12-32.641.594-3.047,2.168-5.215,5.07-7,12.332-7.57,43.309,13.715,60.328,30.473,2.785,2.738,6.953,3.5,10.5,1.953,7.379-3.238,14.238-6.641,20.355-10.141,36.332-20.688,61.996-47.734,74.637-62.805,12.023,18.688,27.355,34.688,45.832,47.902-13.668,14.996-47.926,48.496-98.137,70.445h0ZM944.878,557.707l26.309-21.617c4.07-3.332,4.668-9.332,1.309-13.402-3.332-4.07-9.332-4.641-13.402-1.309l-51.879,42.617c-32.496-18.047-55.449-43.043-69.949-76.188,11.879-22.188,38.047-66.375,61.59-90.945l.285-.285c6.406-6.641,12.594-11.832,18.262-14.715,9.832-5,22.238-7.809,36.855-8.43,1.953,7.43,5.715,14.309,10.93,20.309-9.641,8.879-15,19.977-15,31.641,0,21.164,16.926,38.926,41.688,46.664-3.832,13.094-7.832,36.285,1.715,59.566,13.809,33.688,62.949,62.449,65.02,63.664,1.477.855,3.117,1.285,4.785,1.285,1.332,0,2.691-.285,3.953-.855,2.809-1.285,4.809-3.856,5.406-6.879,1.215-6.406,11.715-63.234,4.668-88.734-3.832-13.879-11.402-24.879-17.977-32.379,11.379-5.523,20.285-13.426,25.5-22.809,26.047,38.355,45.332,95.59,61.02,149.11-51.402,31.734-108.71,46.734-170.46,44.664l-30.628-80.973ZM838.428,806.687c-8.117-33.07,21.117-63.02,50.211-83.805,6.715,9.594,16.215,21.926,28.285,34.496-21.047,29.332-26.641,60.52-16.664,93.043-33.742-9.547-56.902-23.711-61.832-43.734h0ZM1150.478,839.875c4.379,2.168,7.094,6.547,7.094,11.453,0,6.715-5.238,12.332-11.93,12.762-76.352,5.168-161.66,4.168-223.15-8.332-13.379-31.262-9.93-60.188,10.523-88.16l58.449,17.953c3.547,1.094,7.43,0,9.93-2.785.168-.191,16.977-18.832,41.664-17.785,20.164.883,33.641,15.785,47.926,31.57,3.309,3.668,6.738,7.453,10.238,11.023,12.547,12.828,33.711,24.637,49.258,32.301h-.001ZM1165.216,778.547c-5.832,2.309-19.715,7.43-38.234,12.023,13.832-36.785,18.023-77.781,12.402-122.18-.645-5.215-5.379-8.902-10.641-8.262-5.215.668-8.902,5.43-8.238,10.641,5.355,42.52,1.145,81.52-12.547,116.14-.953-1.047-1.879-2.07-2.855-3.144-13.215-14.617-27.949-30.855-49.402-36.094l11.141-37.902c1.5-5.047-1.383-10.332-6.43-11.809-5.047-1.5-10.355,1.383-11.832,6.43l-12.285,41.711c-21.402,1.523-37.258,13.047-44.617,19.594l-28.688-8.809,36.164-59.711c2.738-4.5,1.285-10.355-3.191-13.094-4.5-2.715-10.355-1.285-13.094,3.215l-38.664,63.805-9.641-2.953c-17.57-17.5-30.023-35.332-36.285-45.164l73.066-45.426c5.191.215,10.355.355,15.477.355,60.09,0,116.06-15.547,166.75-46.258,7.668,14.879,22.547,47.473,26.523,83.066,4.477,39.977-10.141,74.07-14.879,83.832v-.006Z"/>
  <path d="M859.12,209.85c-4.453-2.762-10.332-1.383-13.094,3.094-2.594,4.215-5.617,7.832-9.07,10.953-3.262-2.023-7.117-3.238-11.262-3.238-11.762,0-21.309,9.547-21.309,21.332s9.547,21.309,21.309,21.309,21.332-9.547,21.332-21.309c0-.547-.047-1.07-.07-1.594,5.93-4.809,11.07-10.617,15.262-17.426,2.785-4.477,1.379-10.359-3.098-13.121h0Z"/>
  <path d="M359.58,291.78c10.309,0,18.641-8.355,18.641-18.664s-8.332-18.664-18.641-18.664-18.664,8.355-18.664,18.664,8.355,18.664,18.664,18.664Z"/>
  <path d="M307.68,332.58c19.594,0,33.164-15.785,33.711-16.453,3.379-4,2.879-9.953-1.094-13.355-3.977-3.406-9.977-2.93-13.402,1.023-.094.094-8.547,9.738-19.215,9.738-10.547,0-18.977-9.477-19.188-9.738-3.406-3.977-9.379-4.477-13.379-1.07-4.023,3.379-4.523,9.402-1.145,13.402.57.672,14.117,16.453,33.711,16.453h0Z"/>
  <path d="M260.83,255.36c7.289,7.289,7.289,19.109,0,26.398-7.289,7.289-19.109,7.289-26.398,0-7.289-7.289-7.289-19.109,0-26.398,7.289-7.289,19.109-7.289,26.398,0Z"/>
</svg>