<?xml version="1.0" encoding="UTF-8"?>
<svg id="Layer_1" data-name="Layer 1" xmlns="http://www.w3.org/2000/svg" viewBox="0 0 1113.807 1166.158">
  <path d="M144.447,1130.529c38.242,3.957,76.484,0,114.73-1.32,48.793-1.32,98.902-11.867,141.1,14.504,26.375,17.145,50.109,29.012,81.758,18.461,31.648-10.551,52.746-36.922,63.297-67.254,2.637-6.594,3.957-13.188,6.594-19.781,5.273,18.461,11.867,36.922,22.418,52.746,36.922,60.66,85.715,32.969,134.5,5.273,36.922-21.098,80.441-11.867,121.32-10.551,42.199,0,85.715-2.637,127.91-7.91,59.34-7.91,118.68-18.461,141.1-83.078,22.418-65.934,22.418-146.38-23.734-201.76-23.734-29.012-54.066-48.793-79.121-76.484-19.781-21.098-36.922-46.152-50.109-72.527,15.824-39.559,26.375-83.078,31.648-126.59,19.781-166.15-22.418-360-158.24-468.13C702.258-6.169,541.378-27.262,404.238,37.347c-147.7,71.207-232.09,216.27-241.32,375.82-5.273,83.078-1.32,172.75,27.691,251.87-46.152,46.152-105.5,77.801-145.05,129.23C-.593,852.29-7.187,927.457,6,998.657c14.504,76.484,60.656,123.96,138.46,131.87l-.013.002ZM956.757,773.169c39.559,47.473,104.18,73.848,114.73,141.1,5.273,31.648,0,63.297-10.551,93.625-14.504,39.559-43.516,48.793-81.758,55.383-71.207,11.867-139.78,7.91-210.99,7.91-23.734,0-48.793,2.637-69.891,13.188-9.231,5.273-18.461,11.867-26.375,18.461-15.824,11.867-13.188,11.867-35.605,7.91-23.734-3.957-22.418-5.273-30.328-23.734-27.695-60.652-22.418-133.18-18.465-196.48,1.32-29.012,3.957-58.023,7.91-87.031,3.957-27.691,2.637-84.395,19.781-108.13,11.867-15.824,14.504-2.637,22.418,11.867,7.91,14.504,13.188,31.648,18.461,46.152,9.231,26.375,18.461,52.746,29.012,79.121,13.188,30.328,29.012,59.34,44.836,88.352,9.231,17.145,21.098,23.734,39.559,27.691,32.969,5.273,68.57,5.273,101.54,5.273,26.375,0,58.023,1.32,80.441-13.188,17.145-10.551,2.637-35.605-15.824-26.375-32.969,15.824-101.54,5.273-135.82,0-18.461-2.637-25.055-3.957-34.285-18.461-1.32-2.637-2.637-5.273-3.957-6.594,72.527-34.285,127.91-90.988,164.84-158.24,7.914,14.512,18.461,29.016,30.332,42.203l-.011-.004ZM380.487,124.379c108.13-75.164,246.59-83.074,361.32-17.141,135.82,77.801,175.38,220.22,180.66,367.91,5.273,139.78-54.066,300.66-191.21,358.68-13.188-29.012-23.734-60.66-34.285-90.988-10.551-27.691-19.781-65.934-42.199-85.715-40.879-38.242-79.121,6.594-88.352,47.473-1.32,5.273-2.637,10.551-3.957,15.824-5.273-22.418-13.188-43.516-26.375-59.34-35.605-44.836-89.672,7.91-109.45,42.199-19.781,35.605-29.012,75.164-38.242,113.41-1.32,5.273-2.637,11.867-3.957,18.461-40.879-38.242-75.164-79.121-105.5-126.59-39.559-64.617-52.746-134.5-54.066-209.67-1.316-146.37,30.332-286.15,155.61-374.5l.003-.013ZM85.107,831.199c34.285-46.152,85.715-76.484,129.23-113.41,34.285,64.617,87.031,138.46,159.56,162.2-6.594,17.145-15.824,32.969-29.012,38.242-44.836,19.781-118.68,9.231-135.82-42.199-6.594-19.781-36.922-11.867-30.328,7.91,19.781,71.207,108.13,93.625,174.07,80.441,102.86-19.781,84.395-203.08,131.87-272.97,10.551-15.824,23.734-32.969,39.559-11.867,9.231,10.551,10.551,34.285,11.867,47.473,3.957,36.922,0,75.164-2.637,112.09-5.273,71.207-9.231,149.01-29.012,218.9-5.273,18.461-13.188,43.516-31.648,52.746-19.781,9.23-34.285-3.957-50.109-14.504-29.012-19.781-59.34-22.418-94.945-22.418-35.605,1.32-71.207,2.637-106.81,3.957-36.922,1.32-79.121,5.273-112.09-10.551-76.48-36.926-65.93-178.03-23.73-236.05l-.015.01Z"/>
  <path d="M379.167,537.109c7.91,3.957,22.418,14.504,23.734,14.504-7.91,5.273-17.145,10.551-23.734,15.824-13.188,10.551-25.055,19.781-35.605,32.969-17.145,22.418,14.504,43.516,34.285,34.285,22.418-10.551,42.199-31.648,61.977-47.473,14.504-11.867,34.285-25.055,26.375-47.473-6.594-17.145-27.691-26.375-43.516-35.605-19.781-11.867-42.199-27.691-65.934-31.648-19.781-3.957-38.242,21.098-21.098,36.922,13.188,11.871,27.691,18.465,43.516,27.695h0Z"/>
  <path d="M693.017,584.589c21.098,17.145,40.879,39.559,65.934,51.43,19.781,9.231,50.109-11.867,34.285-34.285-10.551-13.188-22.418-22.418-35.605-32.969-6.594-5.273-14.504-10.551-23.734-15.824,7.91-5.273,15.824-10.551,23.734-14.504,14.504-9.231,30.328-17.145,43.516-29.012,17.145-15.824-1.32-40.879-21.098-36.922-22.418,5.273-43.516,18.461-63.297,30.328-15.824,9.231-39.559,19.781-46.152,38.242-7.91,19.777,7.914,31.648,22.418,43.516h0Z"/>
</svg>