<?xml version="1.0" encoding="UTF-8"?>
<svg id="Layer_1" data-name="Layer 1" xmlns="http://www.w3.org/2000/svg" viewBox="0 0 853.124 1152.933">
  <path d="M790.59,734.198l-3.375-1.125h-.141c-.047,0-.094-.047-.188-.094l-185.16-56.859-13.688-10.266c104.06-8.297,133.87-93.328,134.16-94.266,1.219-3.75.844-7.828-1.078-11.297-1.922-3.422-5.203-5.906-9.047-6.844-25.781-6.141-44.156-49.172-52.219-120.98,14.719-9.047,24.516-25.172,24.516-43.594v-37.5c0-23.812-16.312-43.734-38.297-49.641l52.922-52.922c3.516-3.516,4.875-8.578,3.703-13.359l-32.531-130.03c-4.266-17.156-16.875-30.797-33.703-36.422L431.015.516c-.609-.188-1.219-.094-1.828-.234-.844-.188-1.688-.281-2.578-.281-.984,0-1.922.141-2.859.328-.562.094-1.078,0-1.641.188l-205.5,68.484c-16.828,5.625-29.438,19.266-33.703,36.422l-32.531,130.03c-1.219,4.781.188,9.844,3.703,13.359l52.922,52.922c-21.938,5.906-38.25,25.828-38.25,49.641v37.5c0,18.469,9.797,34.547,24.422,43.641-8.062,71.812-26.438,114.84-52.219,120.98-3.844.938-7.125,3.375-9.047,6.844-1.922,3.422-2.297,7.547-1.078,11.297.328.984,30.281,86.438,134.02,94.406l-13.547,10.125-185.16,56.859c-.141.047-.281.141-.422.188l-3,.938c-37.5,11.672-62.719,45.844-62.719,85.031v319.69c0,7.781,6.281,14.062,14.062,14.062h825c7.781,0,14.062-6.281,14.062-14.062v-317.95c0-39.422-25.125-74.25-62.531-86.719l-.003-.004ZM602.57,705.792l166.18,51.047v13.031c0,7.547-3.469,14.438-9.562,18.938s-13.734,5.672-20.906,3.422l-154.5-48.797,18.789-37.641ZM690.086,574.632c-12.797,23.297-50.531,71.344-140.02,62.719l-18.844-14.156-10.266-18.891c59.766-31.828,101.53-92.859,106.45-163.92h5.203c8.672,71.906,27.891,117.14,57.469,134.26l.008-.012ZM583.306,250.632l9.234,46.172c-5.484-.938-11.062-1.594-16.594-2.391-5.578-.844-11.062-1.688-16.688-2.438-9.703-1.266-19.453-2.297-29.25-3.281-4.688-.469-9.375-1.031-14.109-1.453-11.625-.984-23.25-1.734-34.969-2.344-3.047-.141-6.047-.422-9.094-.562-30.047-1.312-60.234-1.312-90.281,0-2.953.141-5.859.375-8.812.516-11.812.609-23.578,1.359-35.344,2.344-4.688.422-9.281.938-13.922,1.406-9.891.984-19.781,2.062-29.531,3.328-5.531.703-10.969,1.594-16.5,2.391-5.625.844-11.297,1.5-16.875,2.438l9.234-46.172c102.8-21.562,210.71-21.562,313.5.047h0ZM384.366,142.072v-5.578l42.188-14.062,42.188,14.062v5.578c0,27.797-16.781,52.547-42.188,63.047-25.406-10.453-42.188-35.25-42.188-63.047ZM278.476,322.682c5.156-.797,10.266-1.688,15.422-2.391,10.5-1.406,21.094-2.531,31.734-3.562,3.938-.375,7.828-.938,11.812-1.266,12.797-1.125,25.688-1.922,38.578-2.578,1.875-.094,3.75-.281,5.672-.375,30.047-1.312,60.281-1.312,90.234,0,1.359.047,2.719.188,4.078.281,13.359.656,26.625,1.5,39.844,2.672,4.266.375,8.438.938,12.656,1.359,10.219,1.031,20.438,2.109,30.516,3.422,5.438.75,10.734,1.641,16.125,2.484,7.406,1.125,14.812,2.25,22.125,3.562l-1.312,6.703c-7.688,38.109-37.266,68.297-75.328,76.781-61.5,13.781-126.61,13.734-188.11,0-18.656-4.172-35.625-13.594-49.125-27.281-13.453-13.641-22.547-30.75-26.203-49.453l-1.312-6.75c7.453-1.266,15-2.438,22.594-3.609h0ZM263.382,402.323c17.297,17.484,39.094,29.578,63,34.969,32.766,7.312,66.469,11.016,100.22,11.016s67.406-3.703,100.22-11.062c6.844-1.547,13.406-3.75,19.781-6.328,2.062-.844,4.031-1.875,6.047-2.812,4.219-1.969,8.344-4.078,12.328-6.516,2.109-1.312,4.172-2.672,6.234-4.078,3.656-2.531,7.172-5.297,10.547-8.203,1.828-1.547,3.609-3.047,5.344-4.734,3.609-3.469,6.938-7.219,10.125-11.109.891-1.078,1.969-1.969,2.812-3.094v36c0,95.625-77.812,173.44-173.44,173.44s-173.44-77.812-173.44-173.44v-35.812c3.094,4.125,6.516,8.016,10.219,11.766l.002-.002ZM358.023,615.693c21.422,7.781,44.438,12.234,68.531,12.234s47.109-4.453,68.531-12.234l9.188,16.875-77.719,139.82-77.719-139.87,9.188-16.825ZM409.117,798.933l-53.719,53.672-79.781-159.56,52.734-39.516,80.766,145.404ZM426.555,821.245l36.938,36.938-10.406,41.625h-53.062l-10.406-41.625,36.936-36.938ZM443.993,798.933l80.766-145.36,8.109,6.047c1.5,2.016,3.469,3.562,5.953,4.453l38.672,29.016-79.781,159.56-53.719-53.716ZM656.253,351.373v37.5c0,12.938-10.5,23.438-23.438,23.438h-4.688v-84.375h4.688c12.938,0,23.438,10.5,23.438,23.438h0ZM179.623,234.563l30.562-122.29c1.969-7.828,7.688-14.016,15.328-16.547L426.563,28.695l201,66.984c7.641,2.578,13.406,8.766,15.328,16.594l30.562,122.29-53.906,53.906-10.453-52.359c-1.078-5.438-5.297-9.75-10.734-10.969-41.812-9.328-84.516-15.141-127.4-17.531,16.219-17.438,25.922-40.547,25.922-65.531v-15.703c0-6.047-3.891-11.438-9.609-13.359l-56.25-18.75c-2.906-.938-6-.938-8.906,0l-56.25,18.75c-5.719,1.922-9.609,7.312-9.609,13.359v15.703c0,24.984,9.703,48.094,25.922,65.484-42.891,2.391-85.594,8.203-127.4,17.531-5.438,1.219-9.656,5.531-10.734,10.969l-10.453,52.359-53.969-53.859ZM196.873,351.373c0-12.938,10.5-23.438,23.438-23.438h4.688v84.375h-4.688c-12.938,0-23.438-10.5-23.438-23.438v-37.499ZM163.029,574.633c29.578-17.062,48.797-62.344,57.516-134.21h5.203c4.922,71.062,46.688,132.1,106.45,163.92l-10.266,18.891-18.797,14.109c-89.531,9.234-127.31-39.328-140.11-62.719l.004.009ZM84.373,756.893l166.18-51.094,18.797,37.641-154.5,48.797c-7.172,2.25-14.812,1.031-20.906-3.422-6.094-4.5-9.562-11.391-9.562-18.938l-.008-12.984ZM357.373,1124.813h-198v-98.438c0-7.781-6.281-14.062-14.062-14.062s-14.062,6.281-14.062,14.062v98.438H28.129v-305.63c0-20.812,11.109-39.938,28.125-51.047v1.734c0,16.594,7.688,31.781,21.094,41.625,9,6.609,19.547,10.031,30.328,10.031,5.25,0,10.5-.797,15.703-2.438l158.76-50.156,56.859,113.77c2.016,4.031,5.859,6.891,10.312,7.594.75.094,1.5.141,2.25.141.984,0,1.922-.375,2.906-.562.656-.141,1.266-.141,1.875-.375,1.922-.703,3.703-1.688,5.203-3.188l4.922-4.922,8.391,33.656-17.484,209.767ZM385.592,1124.813l16.406-196.87h49.125l16.406,196.87h-81.937ZM824.992,1124.813h-103.12v-98.438c0-7.781-6.281-14.062-14.062-14.062s-14.062,6.281-14.062,14.062v98.438h-198l-17.484-209.81,8.391-33.656,4.922,4.922c1.5,1.5,3.281,2.484,5.203,3.188.609.234,1.266.234,1.922.375.984.234,1.875.609,2.859.609.75,0,1.5-.047,2.25-.188,4.453-.703,8.297-3.562,10.312-7.594l56.859-113.77,158.76,50.156c3.516,1.125,7.078,1.688,10.641,2.062.844.094,1.734.141,2.578.188s1.641.188,2.484.188c2.719,0,5.438-.234,8.156-.656.141,0,.281-.094.422-.094,3.375-.562,6.656-1.594,9.844-2.859.844-.328,1.641-.656,2.438-1.031,3.281-1.5,6.469-3.188,9.469-5.391,13.406-9.797,21.094-24.984,21.094-41.578v-1.594c17.297,11.531,28.125,31.125,28.125,52.641v303.892ZM290.622,951.373c0,7.781-6.281,14.062-14.062,14.062h-75c-7.781,0-14.062-6.281-14.062-14.062s6.281-14.062,14.062-14.062h75c7.781,0,14.062,6.281,14.062,14.062ZM674.762,900.514l-56.25-18.75c-2.906-.938-6-.938-8.906,0l-56.25,18.75c-5.719,1.922-9.609,7.312-9.609,13.359v15.703c0,41.531,26.484,78.234,65.859,91.406,1.453.469,2.953.703,4.453.703s3-.234,4.453-.703c39.375-13.172,65.859-49.875,65.859-91.406v-15.703c0-6.047-3.891-11.438-9.609-13.359h0ZM656.246,929.576c0,27.797-16.781,52.547-42.188,63.047-25.406-10.453-42.188-35.25-42.188-63.047v-5.578l42.188-14.062,42.188,14.062v5.578Z"/>
</svg>