<?xml version="1.0" encoding="UTF-8"?>
<svg id="Layer_1" data-name="Layer 1" xmlns="http://www.w3.org/2000/svg" viewBox="0 0 1145.223 468.936">
  <path d="M1141.873,318.749l-12.75-49.312c-3.938-15.188-17.625-25.875-33.375-25.875-14.812,0-27.75,9.375-32.438,23.438l-.562,1.875c-54.188-27.75-226.69-60-300-62.625l-102-90.938c-20.25-14.625-44.25-24.562-69.75-28.312-27-4.125-55.312-6.938-85.125-8.438v-3.562h9.375c3,0,5.812-1.5,7.688-3.938,1.688-2.438,2.25-5.625,1.312-8.438l-18.75-56.25c-1.312-3.75-4.875-6.375-8.812-6.375h-37.5c-4.125,0-7.688,2.625-8.812,6.375l-18.75,56.25c-.938,2.812-.562,6,1.312,8.438,1.688,2.438,4.688,3.938,7.688,3.938h9.375v2.25c-26.812,0-54.75.938-84,2.812-37.5,2.438-72.938,18.375-100.12,45l-86.438,85.312c-45.375,3-87.188,7.5-124.69,13.312-9.375,1.5-16.875,7.875-19.875,17.062l-27.75,83.625s-.562.188-.75.375c-4.125,3.562-6.375,8.625-6.375,13.875v39c0,8.25,5.438,15.562,13.312,17.812l124.69,35.625s1.688.375,2.625.375h42.375c15.188,22.5,40.875,37.5,70.125,37.5s54.938-15,70.125-37.5h459.75c15.188,22.5,40.875,37.5,70.125,37.5s54.938-15,70.125-37.5h54.188c4.5,11.062,15.375,18.75,28.125,18.75h56.438c12.375,0,22.875-7.688,27.562-18.75h7.5c3,0,6-1.5,7.688-4.125l24.75-35.812c14.625-21,19.312-47.438,12.938-72.562l-.567-.188ZM1042.686,356.249c-11.062-6-13.875-11.812-13.312-18.75h44.625c.938,6.188,1.312,12.75,1.5,19.5-2.062-.375-3.938-.75-6-.75h-26.813ZM465.745,18.749h24l12.562,37.5h-48.938l12.562-37.5h-.186ZM487.12,74.999v2.812c-6.188-.188-12.375-.375-18.75-.375v-2.25h18.75v-.188ZM67.12,290.809c-6.375,15-13.125,26.25-19.875,33.375l-19.688-2.812,13.312-40.125h19.875c3.375,0,5.25,2.25,5.812,3.188s1.875,3.375.562,6.375h.001ZM17.995,338.809l112.12,15.938c2.625.375,4.688,1.688,5.625,3.562,6.75,15.375,6.375,32.438-.938,52.125l-116.44-33-.367-38.625ZM252.745,449.999c-36.188,0-65.625-29.438-65.625-65.625s29.438-65.625,65.625-65.625,65.625,29.438,65.625,65.625-29.438,65.625-65.625,65.625ZM337.12,384.374v-157.88l321.56-1.125c1.125,2.062,2.25,3.938,3.75,5.812,7.875,9.375,21.188,13.875,40.5,13.875h6.562c2.25,0,4.125-.75,6-1.5l15.375,13.875v155.25h-399c3.188-8.812,5.25-18.188,5.25-28.125l.003-.182ZM582.561,142.684c16.125,2.438,31.312,8.438,42.938,16.5l33.938,30.375c-1.688,1.312-2.812,3.188-3.375,5.438-.938,4.125-1.312,8.062-1.312,11.625l-186.38.75v-73.688c40.875.75,78.75,3.75,114.19,9.188l.002-.187ZM708.561,225.934c-16.125.75-27.188-1.688-31.875-7.125-1.125-1.5-2.062-3.188-2.625-5.25s-.75-4.5-.562-7.312h22.688c9,0,16.125,7.312,16.125,16.125,0,1.875-1.688,3.562-3.562,3.75l-.188-.188ZM449.62,207.184l-121.5.375h-66.938l43.688-42.938c17.625-17.25,40.312-27.562,64.125-28.875,28.125-1.875,54.938-2.625,80.625-2.625v74.063ZM852.74,449.804c-36.188,0-65.625-29.438-65.625-65.625s29.438-65.625,65.625-65.625,65.625,29.438,65.625,65.625-29.438,65.625-65.625,65.625ZM852.74,299.804c-46.5,0-84.375,37.875-84.375,84.375,0,9.938,2.062,19.312,5.25,28.125h-24v-159.38c0-2.625-1.125-5.25-3.188-6.938l-17.25-15.562c.938-2.625,1.688-5.25,1.688-8.25,0-19.312-15.562-34.875-34.875-34.875h-10.688l-48.188-42.938c-14.812-10.5-32.812-17.438-51.75-20.25-38.25-6-79.688-8.812-124.12-9.188-.75,0-1.312-.375-2.25-.375s-1.312.188-2.062.375c-28.312,0-57.562.375-89.062,2.438-28.312,1.688-55.312,13.688-76.125,34.125l-60,59.25c-2.625,2.625-3.562,6.75-2.062,10.312s4.875,5.812,8.625,5.812l80.062-.375v105.38c-15.562-19.312-39-32.062-65.625-32.062-46.5,0-84.375,37.875-84.375,84.375,0,9.938,2.062,19.312,5.25,28.125h-20.062c7.312-22.312,7.5-43.125-.562-61.5-3.375-7.688-11.062-13.312-20.062-14.625l-64.125-9.188c5.438-7.875,10.688-17.438,15.562-29.062,3.375-7.875,2.438-16.875-2.25-24.188-4.875-7.312-12.75-11.625-21.562-11.625h-13.688l5.25-15.938c.75-2.25,2.625-3.938,5.062-4.312,37.688-5.812,80.25-10.312,126.38-13.312,2.25,0,4.312-1.125,6-2.625l88.875-87.75c23.812-23.438,55.125-37.688,88.125-39.75,32.25-2.062,62.625-3,91.688-2.625h.938c12.562,0,24.938.562,37.125.938,32.25,1.5,62.625,4.312,91.5,8.625,22.5,3.375,43.688,12,60.75,24.375l103.88,92.625c1.688,1.5,3.75,2.25,6,2.438,76.312,1.688,255.56,37.125,298.88,62.438,5.625,9.75,9.562,20.438,12.562,31.312h-48.75c-4.312,0-8.25,3-9.188,7.312-2.25,9.75-3,20.25,2.812,30.188h-10.125c-16.688,0-30.375,13.688-30.375,30.375v25.875h-42.75c3.188-8.812,5.25-18.188,5.25-28.125,0-46.5-37.875-84.375-84.375-84.375h.356ZM1061.43,431.054h-56.438c-6.375,0-11.625-5.25-11.625-11.625v-33c0-6.375,5.25-11.625,11.625-11.625h64.688c3.562,0,6.938,1.688,9.188,4.5s3,6.375,2.062,9.938l-8.25,33c-1.312,5.25-6,8.812-11.25,8.812ZM1113.555,380.616l-17.438,25.312,3-12c2.062-8.625.375-17.438-4.688-24.75.562-14.438-.375-27.938-2.625-40.688v-.375c0-.938-.188-1.875-.562-2.812-2.812-14.25-7.688-27.75-14.25-40.5l3.938-11.625c2.062-6.188,8.062-10.688,14.812-10.688,7.312,0,13.5,4.875,15.375,11.625l12.75,49.312c5.062,19.875,1.312,40.688-10.312,57.188h0Z"/>
  <path d="M852.693,356.249c-15.562,0-28.125,12.562-28.125,28.125s12.562,28.125,28.125,28.125,28.125-12.562,28.125-28.125-12.562-28.125-28.125-28.125ZM852.693,393.749c-5.25,0-9.375-4.125-9.375-9.375s4.125-9.375,9.375-9.375,9.375,4.125,9.375,9.375-4.125,9.375-9.375,9.375Z"/>
  <path d="M252.693,356.249c-15.562,0-28.125,12.562-28.125,28.125s12.562,28.125,28.125,28.125,28.125-12.562,28.125-28.125-12.562-28.125-28.125-28.125ZM252.693,393.749c-5.25,0-9.375-4.125-9.375-9.375s4.125-9.375,9.375-9.375,9.375,4.125,9.375,9.375-4.125,9.375-9.375,9.375Z"/>
  <path d="M541.823,301.689l-19.125-2.812-8.625-17.25c-3.188-6.375-13.688-6.375-16.875,0l-8.625,17.25-19.125,2.812c-3.562.562-6.375,3-7.5,6.375s0,7.125,2.438,9.562l13.875,13.5-3.188,18.938c-.562,3.562.75,7.125,3.75,9.188s6.75,2.438,9.938.75l17.062-9,17.062,9c1.312.75,2.812,1.125,4.312,1.125,1.875,0,3.938-.562,5.438-1.875,2.812-2.062,4.312-5.625,3.75-9.188l-3.188-18.938,13.875-13.5c2.625-2.438,3.562-6.188,2.438-9.562s-4.125-5.812-7.5-6.375h-.187ZM516.511,321.189c-2.25,2.25-3.188,5.25-2.625,8.25l.938,5.062-4.688-2.438c-1.312-.75-2.812-1.125-4.312-1.125s-3,.375-4.312,1.125l-4.688,2.438.938-5.062c.562-3-.562-6.188-2.625-8.25l-3.75-3.562,5.25-.75c3-.375,5.625-2.438,7.125-5.062l2.25-4.688,2.25,4.688c1.312,2.812,3.938,4.688,7.125,5.062l5.25.75-3.75,3.562h-.375Z"/>
  <path d="M578.013,265.309l-18.75-18.75c-2.062-2.062-4.875-3.188-7.688-2.625-2.812.375-5.438,2.062-6.938,4.5-4.688,7.875-13.875,7.125-16.688,6.75-6.375-.938-12-4.5-13.125-8.812-2.25-8.062-15.75-8.062-18,0-1.125,4.125-6.75,7.875-13.125,8.812-2.812.375-12,.938-16.688-6.75-1.5-2.438-4.125-4.125-6.938-4.5-2.812-.562-5.812.562-7.688,2.625l-18.75,18.75c-3.188,3.188-3.562,7.875-1.312,11.625,9.75,15.375,4.312,42-1.5,68.812-3.562,31.125,25.875,40.5,45.375,46.688,8.25,2.625,19.312,6.188,21.375,9.75,1.688,3,4.688,4.875,8.25,4.875s6.562-1.875,8.25-4.875c1.875-3.562,13.125-7.125,21.375-9.75,19.5-6.188,48.938-15.562,45.188-48-5.438-25.688-11.062-52.125-1.125-67.5,2.438-3.75,1.875-8.625-1.312-11.625h-.187ZM529.638,374.619c-8.812,2.812-17.438,5.625-23.812,9.938-6.375-4.312-15-7.125-23.812-9.938-24.188-7.688-33.938-13.125-32.625-26.25,5.625-26.438,11.25-53.625,2.25-74.812l6.938-6.938c7.312,5.812,17.25,8.25,27.562,6.938,7.688-1.125,14.438-4.125,19.5-8.438,5.062,4.312,12,7.5,19.5,8.438,10.5,1.5,20.25-1.125,27.562-6.938l6.938,6.938c-9,21.188-3.375,48.375,2.25,74.25,1.5,13.5-8.25,18.938-32.438,26.625l.188.187Z"/>
</svg>