<?xml version="1.0" encoding="UTF-8"?>
<svg id="Layer_1" data-name="Layer 1" xmlns="http://www.w3.org/2000/svg" viewBox="0 0 1032.019 970.201">
  <path d="M16.035,970.201h1000c8.812,0,15.984-7.172,15.984-16.031v-31.5c0-8.812-7.172-15.984-15.984-15.984h-38.438l-.047-501.71h29.25c13.078,0,23.719-10.641,23.719-23.719v-60.234c0-13.078-10.641-23.719-23.719-23.719h-125.63v-79.312c0-13.078-10.641-23.719-23.719-23.719h-79.312v-94.078c0-.047-.047-.094-.047-.141,0-.469-.141-.891-.281-1.312-.094-.328-.094-.703-.234-.984-.141-.328-.375-.562-.609-.891s-.422-.703-.703-.984c-.234-.188-.516-.328-.75-.516-.375-.281-.75-.562-1.219-.75-.047,0-.094-.047-.094-.094L518.072.352c-1.359-.469-2.812-.469-4.125,0l-256.13,94.219c-.047,0-.094.047-.094.094-.469.188-.844.469-1.219.75-.234.188-.516.281-.75.516-.281.281-.469.656-.703.984-.188.281-.422.562-.609.891-.141.328-.141.656-.234.984-.094.422-.234.844-.281,1.312,0,.047-.047.094-.047.141v94.078h-79.312c-13.078,0-23.719,10.641-23.719,23.719v79.312l-125.63-.047c-13.078,0-23.719,10.641-23.719,23.719v60.234c0,13.078,10.641,23.719,23.719,23.719h29.25v501.66l-38.484.047c-8.812,0-15.984,7.172-15.984,15.984v31.5c0,8.859,7.172,16.031,15.984,16.031l.051.003ZM1018.635,321.021v60.234c0,6.469-5.25,11.719-11.719,11.719h-313.22c6.281-26.531,3.703-54.516-7.641-83.672h320.81c6.469,0,11.766,5.25,11.766,11.719h.004ZM357.925,311.693c36.047-78.984,31.594-89.625,4.688-126.74l-2.297-3.188,52.359-52.359c38.812,16.406,72.703,16.312,103.41-.328,30.703,16.641,64.594,16.734,103.41.328l52.359,52.359-2.297,3.188c-26.906,37.125-31.359,47.719,4.594,126.52,36.469,89.766-16.734,165.56-158.06,225.32-141.32-59.766-194.53-135.56-158.16-225.1h-.006ZM869.235,217.99v79.312h-188.26c-24.562-55.125-25.031-69.891-11.578-91.031h188.11c6.422,0,11.719,5.25,11.719,11.719h.009ZM265.955,104.37L516.085,12.401l250.13,92.016v89.906h-88.547c.562-.75,1.078-1.5,1.641-2.297l5.297-7.359c1.688-2.391,1.406-5.672-.656-7.734l-58.875-58.875c-1.781-1.781-4.406-2.25-6.703-1.219-37.875,16.922-70.312,17.016-99.188.281-1.828-1.031-4.453-1.031-6.281,0-28.875,16.734-61.312,16.594-99.188-.281-2.25-1.031-4.922-.516-6.703,1.219l-58.875,58.875c-2.062,2.062-2.344,5.344-.656,7.734l5.297,7.359c.562.797,1.078,1.5,1.641,2.297h-88.547l.141-89.953h-.056ZM162.925,217.99c0-6.469,5.25-11.719,11.719-11.719h188.16c13.406,21.094,12.938,35.906-11.578,91.031h-188.29l-.011-79.312ZM13.535,381.25v-60.234c0-6.469,5.25-11.719,11.719-11.719h320.81c-11.344,29.109-13.922,57.094-7.641,83.672H25.293c-6.469,0-11.766-5.25-11.766-11.719h.008ZM66.551,404.969h275.58c18.891,55.219,76.453,103.97,171.52,143.76.75.328,1.781.469,2.625.469.797,0,1.594-.141,2.344-.469,95.016-39.797,152.58-88.547,171.47-143.76h275.63v501.66l-345.74.047v-272.16c0-13.5-10.969-24.469-24.469-24.469h-158.81c-13.5,0-24.469,10.969-24.469,24.469v272.16H66.572l-.021-501.707ZM607.951,906.679h-183.74v-272.16c0-6.891,5.578-12.469,12.469-12.469h158.81c6.891,0,12.469,5.578,12.469,12.469l-.008,272.16ZM12.081,922.663c0-2.203,1.781-3.984,3.984-3.984h1000c2.203,0,3.984,1.781,3.984,3.984v31.5c0,2.203-1.781,3.984-3.984,3.984l-1000,.047c-2.203,0-3.984-1.828-3.984-4.031v-31.5ZM208.061,667.473h-80.906c-13.078,0-23.719,10.641-23.719,23.719v80.859c0,13.078,10.641,23.719,23.719,23.719h80.906c13.078,0,23.719-10.641,23.719-23.719v-80.859c0-13.078-10.641-23.719-23.719-23.719ZM219.78,772.053c0,6.469-5.25,11.719-11.719,11.719h-80.906c-6.469,0-11.719-5.25-11.719-11.719v-80.859c0-6.469,5.25-11.719,11.719-11.719h80.906c6.469,0,11.719,5.25,11.719,11.719v80.859ZM355.2,667.473h-80.859c-13.078,0-23.719,10.641-23.719,23.719v80.859c0,13.078,10.641,23.719,23.719,23.719h80.859c13.078,0,23.719-10.641,23.719-23.719v-80.859c0-13.078-10.641-23.719-23.719-23.719ZM366.919,772.053c0,6.469-5.25,11.719-11.719,11.719h-80.859c-6.469,0-11.719-5.25-11.719-11.719v-80.859c0-6.469,5.25-11.719,11.719-11.719h80.859c6.469,0,11.719,5.25,11.719,11.719v80.859ZM208.059,521.743h-80.906c-13.078,0-23.719,10.641-23.719,23.719v80.906c0,13.078,10.641,23.719,23.719,23.719h80.906c13.078,0,23.719-10.641,23.719-23.719v-80.906c0-13.078-10.641-23.719-23.719-23.719ZM219.778,626.363c0,6.469-5.25,11.719-11.719,11.719h-80.906c-6.469,0-11.719-5.25-11.719-11.719v-80.906c0-6.469,5.25-11.719,11.719-11.719h80.906c6.469,0,11.719,5.25,11.719,11.719v80.906ZM355.198,521.743h-80.859c-13.078,0-23.719,10.641-23.719,23.719v80.906c0,13.078,10.641,23.719,23.719,23.719h80.859c13.078,0,23.719-10.641,23.719-23.719v-80.906c0-13.078-10.641-23.719-23.719-23.719ZM366.917,626.363c0,6.469-5.25,11.719-11.719,11.719h-80.859c-6.469,0-11.719-5.25-11.719-11.719v-80.906c0-6.469,5.25-11.719,11.719-11.719h80.859c6.469,0,11.719,5.25,11.719,11.719v80.906ZM676.947,795.763h80.859c13.078,0,23.719-10.641,23.719-23.719v-80.859c0-13.078-10.641-23.719-23.719-23.719h-80.859c-13.078,0-23.719,10.641-23.719,23.719v80.859c0,13.078,10.641,23.719,23.719,23.719ZM665.228,691.183c0-6.469,5.25-11.719,11.719-11.719h80.859c6.469,0,11.719,5.25,11.719,11.719v80.859c0,6.469-5.25,11.719-11.719,11.719h-80.859c-6.469,0-11.719-5.25-11.719-11.719v-80.859ZM824.088,795.763h80.906c13.078,0,23.719-10.641,23.719-23.719v-80.859c0-13.078-10.641-23.719-23.719-23.719h-80.906c-13.078,0-23.719,10.641-23.719,23.719v80.859c0,13.078,10.641,23.719,23.719,23.719ZM812.369,691.183c0-6.469,5.25-11.719,11.719-11.719h80.906c6.469,0,11.719,5.25,11.719,11.719v80.859c0,6.469-5.25,11.719-11.719,11.719h-80.906c-6.469,0-11.719-5.25-11.719-11.719v-80.859ZM676.949,650.074h80.859c13.078,0,23.719-10.641,23.719-23.719v-80.906c0-13.078-10.641-23.719-23.719-23.719h-80.859c-13.078,0-23.719,10.641-23.719,23.719v80.906c0,13.078,10.641,23.719,23.719,23.719ZM665.23,545.454c0-6.469,5.25-11.719,11.719-11.719h80.859c6.469,0,11.719,5.25,11.719,11.719v80.906c0,6.469-5.25,11.719-11.719,11.719h-80.859c-6.469,0-11.719-5.25-11.719-11.719v-80.906ZM824.09,650.074h80.906c13.078,0,23.719-10.641,23.719-23.719v-80.906c0-13.078-10.641-23.719-23.719-23.719h-80.906c-13.078,0-23.719,10.641-23.719,23.719v80.906c0,13.078,10.641,23.719,23.719,23.719ZM812.371,545.454c0-6.469,5.25-11.719,11.719-11.719h80.906c6.469,0,11.719,5.25,11.719,11.719v80.906c0,6.469-5.25,11.719-11.719,11.719h-80.906c-6.469,0-11.719-5.25-11.719-11.719v-80.906ZM456.971,354.164l-11.906,69.375c-.375,2.25.562,4.5,2.391,5.859,1.875,1.359,4.312,1.547,6.328.469l62.297-32.766,62.297,32.766c.891.469,1.828.703,2.812.703,1.219,0,2.484-.375,3.516-1.125,1.828-1.359,2.766-3.609,2.391-5.859l-11.906-69.375,50.438-49.125c1.641-1.594,2.203-3.984,1.5-6.141s-2.578-3.75-4.828-4.078l-69.656-10.125-31.172-63.141c-2.016-4.125-8.719-4.125-10.781,0l-31.172,63.141-69.656,10.125c-2.25.328-4.125,1.922-4.828,4.078s-.094,4.547,1.5,6.141l50.436,49.078ZM484.393,296.086c1.969-.281,3.656-1.5,4.5-3.281l27.188-55.078,27.188,55.078c.891,1.781,2.578,3,4.5,3.281l60.75,8.812-43.969,42.844c-1.406,1.406-2.062,3.375-1.688,5.344l10.359,60.516-54.328-28.594c-.891-.422-1.875-.656-2.812-.656s-1.922.234-2.812.703l-54.328,28.594,10.359-60.562c.328-1.969-.328-3.938-1.734-5.297l-43.969-42.844,60.797-8.86Z"/>
</svg>