<?xml version="1.0" encoding="UTF-8"?>
<svg id="Layer_1" data-name="Layer 1" xmlns="http://www.w3.org/2000/svg" viewBox="0 0 614.015 724.231">
  <defs>
    <style>
      .cls-1 {
        fill-rule: evenodd;
      }
    </style>
  </defs>
  <path class="cls-1" d="M102.337,716.355v-118.08c0-4.348-3.527-7.875-7.871-7.875s-7.871,3.527-7.871,7.875v118.08c0,4.348,3.523,7.871,7.871,7.871s7.871-3.523,7.871-7.871ZM173.153,169.616c-17.02,9.684-29.156,21.617-29.156,21.617-1.797,1.809-2.613,4.359-2.191,6.863.41,2.52,2.016,4.66,4.301,5.777,0,0,9.715,4.77,27.078,10.645v40.664c-13.902,6.078-23.613,19.965-23.613,36.086,0,24.957,18.246,46.918,39.359,53.484v1.621c0,25.535,16.562,53.434,39.973,74.707,4.805,4.359,9.871,8.438,15.133,12.168v10.551c-7.117,3.637-21.098,11.461-33.617,22.465l-37.234,14.895v-8.832c0-2.598-1.289-5.039-3.43-6.504-2.16-1.465-4.898-1.777-7.324-.816l-118.08,46.285c-3.008,1.199-4.992,4.094-4.992,7.336v12.219l-9.305,5.574c-1.699,1.023-2.961,2.66-3.512,4.566C-.016,632.85,0,716.358,0,716.358,0,720.705,3.527,724.229,7.871,724.229s7.871-3.523,7.871-7.871c0,0,.016-76.5,23.617-162.78v5.336c0,2.598,1.293,5.039,3.434,6.504,2.156,1.465,4.895,1.777,7.32.82l118.08-46.289c3.004-1.195,4.988-4.094,4.988-7.336v-14.484l17.113-6.852c-.234.473-.453.945-.676,1.418-20.246,44.902-24.277,89.113-24.277,89.113-.266,2.957,1.148,5.809,3.652,7.383,2.52,1.59,5.699,1.621,8.234.094,0,0,36.242-21.992,65.781-22.48.047,0,40.633,10.391,56.125,14.355v135.2c0,4.348,3.527,7.871,7.871,7.871s7.875-3.523,7.875-7.871v-135.2l56.062-14.355c29.555.473,65.844,22.48,65.844,22.48,2.535,1.527,5.715,1.496,8.234-.094,2.504-1.574,3.918-4.426,3.652-7.383,0,0-4.031-44.211-24.277-89.113-.223-.473-.441-.945-.676-1.418l17.113,6.852v14.484c0,3.242,1.984,6.141,4.988,7.336l118.08,46.289c2.426.957,5.164.645,7.32-.82,2.141-1.465,3.434-3.906,3.434-6.504v-5.32c23.602,86.262,23.617,162.76,23.617,162.76,0,4.348,3.527,7.871,7.871,7.871s7.871-3.523,7.871-7.871c0,0,.016-83.508-26.543-175.37-.551-1.906-1.812-3.543-3.512-4.566l-9.305-5.574v-12.219c0-3.242-1.984-6.137-4.992-7.336l-118.08-46.285c-2.426-.961-5.164-.648-7.324.816-2.141,1.465-3.43,3.906-3.43,6.504v8.832l-37.234-14.895c-12.52-11.004-26.5-18.828-33.617-22.465v-10.551c5.262-3.731,10.328-7.809,15.133-12.168,23.41-21.273,39.973-49.172,39.973-74.707v-1.621c21.113-6.566,39.359-28.527,39.359-53.484,0-16.121-9.711-30.008-23.613-36.086v-40.664c17.363-5.875,27.078-10.645,27.078-10.645,2.285-1.117,3.891-3.258,4.297-5.777.426-2.504-.391-5.055-2.188-6.863,0,0-12.137-11.934-29.156-21.617,4.551-3.324,9.84-8.473,15.145-14.453,14.973-16.941,30.734-40.59,30.734-40.59.863-1.289,1.32-2.801,1.32-4.359,0-6.363-3.715-13.586-10.77-20.656-12.656-12.691-36.637-26.23-56.332-36.875C376.955,28.92,310.069.631,310.069.631c-1.871-.805-3.981-.836-5.871-.113,0,0-43.879,16.754-88.059,40.621-19.379,10.469-54.52,29.473-73.871,45.406-5.602,4.598-9.965,9.035-12.609,12.973-2.582,3.859-3.715,7.512-3.715,10.691,0,1.559.457,3.07,1.32,4.359,0,0,15.762,23.648,30.734,40.59,5.305,5.98,10.594,11.129,15.145,14.453l.01.005ZM488.063,676.996c0-4.344-3.527-7.871-7.871-7.871h-110.21c-4.344,0-7.871,3.527-7.871,7.871v31.488c0,4.344,3.527,7.871,7.871,7.871h110.21c4.344,0,7.871-3.527,7.871-7.871v-31.488ZM236.153,684.867h-94.465c-4.344,0-7.871,3.527-7.871,7.871s3.527,7.875,7.871,7.875h94.465c4.348,0,7.875-3.527,7.875-7.875s-3.527-7.871-7.875-7.871ZM369.973,461.457v42.352c0,.328-.016.66-.062.992,0,0-3.039,24.023-16.453,45.293-1.273,2.031-2.644,4.031-4.125,5.984l18.691-4.785c.629-.176,1.289-.254,1.949-.254,21.211,0,45.832,10.062,60.883,17.367-2.754-15.887-8.738-42.43-20.828-69.227-7.902-17.555-27.566-30.75-40.055-37.723h0ZM244.023,461.457c-12.488,6.973-32.152,20.168-40.055,37.723-12.09,26.797-18.074,53.34-20.828,69.211,15.051-7.289,39.672-17.352,60.883-17.352.66,0,1.32.078,1.949.254l18.688,4.785c-1.477-1.953-2.848-3.953-4.125-5.984-13.41-21.27-16.449-45.293-16.449-45.293-.047-.332-.062-.664-.062-.992v-42.352ZM354.233,443.019c-15.777,8.504-32.277,13.555-47.234,13.555s-31.453-5.051-47.23-13.555c0,19.445,0,60.254.016,60.316.488,3.289,3.621,21.789,14.074,38.352,7.023,11.148,17.477,21.508,33.16,24.938,15.648-3.43,26.102-13.789,33.125-24.938,10.516-16.656,13.617-35.281,14.09-38.43v-60.238ZM401.463,527.421v-23.613c0-4.348-3.523-7.875-7.871-7.875s-7.871,3.527-7.871,7.875v23.613c0,4.348,3.527,7.875,7.871,7.875s7.871-3.527,7.871-7.875ZM228.283,527.421v-23.613c0-4.348-3.527-7.875-7.871-7.875s-7.871,3.527-7.871,7.875v23.613c0,4.348,3.523,7.875,7.871,7.875s7.871-3.527,7.871-7.875ZM389.063,228.161c-23.426,4.598-51.199,8-82.059,8s-58.629-3.402-82.055-8l-20.281,33.789v84.418c0,21.711,14.926,44.965,34.812,63.055,20.121,18.293,45.578,31.41,67.523,31.41s47.406-13.117,67.527-31.41c19.887-18.09,34.812-41.344,34.812-63.055v-84.418l-20.279-33.789ZM425.087,267.653v60.297c13.117-6.109,23.617-20.594,23.617-36.684,0-13.035-10.582-23.613-23.617-23.613ZM188.927,267.653c-13.035,0-23.617,10.578-23.617,23.613,0,16.09,10.5,30.574,23.617,36.684v-60.297ZM338.497,267.653v15.742c0,4.344,3.527,7.871,7.875,7.871s7.871-3.527,7.871-7.871v-15.742c0-4.348-3.527-7.875-7.871-7.875s-7.875,3.527-7.875,7.875h0ZM259.778,267.653v15.742c0,4.344,3.527,7.871,7.871,7.871s7.871-3.527,7.871-7.871v-15.742c0-4.348-3.523-7.875-7.871-7.875s-7.871,3.527-7.871,7.875h0ZM459.018,126.353c-.773-.25-1.59-.395-2.441-.395h-102.34c-4.344,0-7.871,3.527-7.871,7.875s3.527,7.871,7.871,7.871h92.59l12.191-15.352ZM259.778,141.704c4.344,0,7.871-3.527,7.871-7.871s-3.527-7.875-7.871-7.875h-102.34c-.852,0-1.668.145-2.441.395l12.188,15.352h92.593ZM338.497,94.47v-31.488h-62.977v31.488c0,21.336,14.109,38.652,31.488,38.652s31.488-17.316,31.488-38.652h.001Z"/>
  <path d="M440.725,592.909l-11.234-11.234c-.591-.591-1.534-.623-2.173-.08-1.838,1.566-6.824,5.162-14.015,4.954-7.911-.24-13.024-5.05-14.415-6.52-.607-.639-1.726-.639-2.333,0-1.374,1.47-6.504,6.281-14.415,6.52-7.207.208-12.193-3.388-14.015-4.954-.639-.543-1.582-.511-2.173.08l-11.234,11.234c-.352.352-.511.831-.463,1.326.064.479.336.927.751,1.167.096.064,9.636,6.105,5.098,23.668l-.32,1.215c-4.65,17.995-7.735,29.869,12.801,41.247,19.592,10.851,24.243,13.615,24.275,13.648.256.16.543.224.815.224s.575-.08.815-.224c.048-.032,4.682-2.797,24.275-13.648,20.536-11.362,17.467-23.252,12.801-41.247l-.32-1.215c-4.491-17.419,4.714-23.428,5.098-23.668.416-.256.703-.687.751-1.167.064-.479-.112-.975-.463-1.326h.097ZM432.239,619.869l.32,1.215c4.73,18.298,7.112,27.471-11.267,37.635-15.453,8.566-21.558,12.049-23.555,13.216-1.998-1.167-8.086-4.666-23.555-13.216-18.378-10.164-15.997-19.353-11.267-37.635l.32-1.215c3.995-15.501-1.95-23.205-4.97-25.969l8.949-8.949c2.701,2.014,7.943,5.002,15.038,4.794,7.559-.224,12.816-3.931,15.47-6.376,2.669,2.445,7.927,6.153,15.47,6.376,7.08.208,12.321-2.797,15.038-4.794l8.949,8.949c-3.02,2.765-8.966,10.483-4.97,25.969h.031Z"/>
  <path d="M422.553,615.553l-16.445-1.934-6.92-15.038c-.256-.559-.831-.927-1.454-.927s-1.199.368-1.454.927l-6.92,15.038-16.445,1.934c-.623.08-1.135.495-1.326,1.087s-.016,1.247.431,1.662l12.162,11.234-3.244,16.237c-.128.607.128,1.247.623,1.598.511.368,1.183.4,1.726.096l14.447-8.102,14.447,8.102c.24.144.511.208.783.208.336,0,.655-.096.943-.304.511-.368.751-.991.623-1.598l-3.244-16.237,12.162-11.234c.463-.416.623-1.071.431-1.662s-.719-1.023-1.326-1.087h0ZM408.458,627.795c-.416.384-.591.943-.479,1.486l2.733,13.711-12.193-6.84c-.24-.144-.511-.208-.783-.208s-.543.064-.783.208l-12.193,6.84,2.733-13.711c.112-.543-.08-1.103-.479-1.486l-10.276-9.477,13.888-1.63c.559-.064,1.039-.416,1.262-.927l5.849-12.705,5.849,12.705c.24.511.719.847,1.262.927l13.888,1.63-10.277,9.477Z"/>
</svg>