<?xml version="1.0" encoding="UTF-8"?>
<svg id="Layer_1" data-name="Layer 1" xmlns="http://www.w3.org/2000/svg" viewBox="0 0 975 1199.945">
  <path d="M934.845,833.154l10.547-17.062c5.438-8.812,2.719-20.344-6.094-25.781l-159.52-98.531c-8.812-5.438-20.391-2.766-25.781,6.094l-25.688,41.578-72-32.484v-6.469c38.531-37.125,63.562-85.594,71.766-137.95h21.984c51.703,0,93.75-42.047,93.75-93.75s-42.047-93.75-93.75-93.75v-27.844l123.37-88.125c4.5-3.188,7.359-8.203,7.781-13.734.422-5.484-1.547-10.875-5.438-14.812L650.823,5.484c-3.516-3.516-8.297-5.484-13.266-5.484h-300c-4.969,0-9.75,1.969-13.266,5.484L99.291,230.484c-3.891,3.891-5.859,9.281-5.438,14.812.469,5.484,3.328,10.5,7.781,13.734l123.37,88.125v27.844c-51.703,0-93.75,42.047-93.75,93.75s42.047,93.75,93.75,93.75h21.984c8.156,52.359,33.188,100.83,71.766,137.95v6.469l-72,32.484-25.688-41.578c-5.438-8.859-16.969-11.531-25.781-6.094l-159.52,98.531c-8.812,5.438-11.531,16.969-6.094,25.781l10.547,17.062c-24.656,14.812-40.219,41.578-40.219,70.781v277.31c0,10.359,8.391,18.75,18.75,18.75h937.5c10.359,0,18.75-8.391,18.75-18.75v-277.31c0-29.156-15.516-55.922-40.219-70.781l.064.05ZM776.035,733.545l127.64,78.797-29.531,47.859-127.64-78.797,29.531-47.859ZM530.405,974.995h-85.734l-20.531-59.812,63.375-31.688,63.375,31.688-20.531,59.812h.046ZM356.305,730.255c15.562,10.078,32.297,18.234,49.875,24.328l55.5,99.891-105.38,52.688.005-176.907ZM487.565,823.911l-31.875-57.375c10.547,1.406,21.188,2.25,31.875,2.25s21.375-.844,31.875-2.25l-31.875,57.375ZM513.44,854.473l55.5-99.891c17.719-6.141,34.453-14.297,49.875-24.328v176.9l-105.375-52.681ZM806.31,468.733c0,31.031-25.219,56.25-56.25,56.25h-18.75v-112.5h18.75c31.031,0,56.25,25.219,56.25,56.25ZM141.49,241.343L345.35,37.483h284.48l203.86,203.86-83.578,59.719v-1.078c0-10.359-8.391-18.75-18.75-18.75h-165.32c21.469-28.453,34.078-63.422,34.078-100.97v-30.281c0-7.688-4.688-14.578-11.812-17.391l-93.75-37.5c-4.453-1.781-9.469-1.781-13.922,0l-93.75,37.5c-7.125,2.859-11.812,9.75-11.812,17.391v30.281c0,37.547,12.562,72.516,34.078,100.97h-165.32c-10.359,0-18.75,8.391-18.75,18.75v1.078l-83.592-59.719ZM412.57,180.265v-17.578l75-30,75,30v17.578c0,51.047-29.203,96.609-75,118.03-45.797-21.422-75-66.984-75-118.03h0ZM262.57,318.735h186.14c9.938,6.703,20.391,12.797,31.875,17.391,2.25.891,4.594,1.359,6.938,1.359s4.734-.422,6.938-1.359c11.484-4.594,21.938-10.688,31.875-17.391h186.14v56.25h-450v-56.25h.095ZM673.57,412.485l-45,56.25h-282l-45-56.25h372ZM225.07,524.985c-31.031,0-56.25-25.219-56.25-56.25s25.219-56.25,56.25-56.25h18.75v112.5h-18.75ZM281.32,524.985v-77.766l41.625,51.984c3.562,4.453,8.953,7.031,14.625,7.031h300c5.672,0,11.062-2.578,14.625-7.031l41.625-51.984v77.766c0,113.91-92.203,206.21-206.21,206.21-114.66,0-206.29-92.766-206.29-206.21ZM199.101,733.535l29.531,47.859-127.64,78.797-29.531-47.859,127.64-78.797ZM37.571,903.925c0-16.125,8.906-30.562,22.547-38.625l18.844,30.562c3.516,5.766,9.703,8.906,15.984,8.906,3.375,0,6.75-.891,9.844-2.812l159.52-98.531c8.812-5.438,11.531-16.969,6.094-25.781l-3.75-6.047,52.125-23.531v189.42c0,6.516,3.375,12.516,8.859,15.938,5.438,3.328,12.328,3.797,18.234.844l44.391-22.172,21.328,62.062-50.484,168.32h-136.03v-131.26c0-10.359-8.391-18.75-18.75-18.75s-18.75,8.391-18.75,18.75v131.26H37.577l-.006-258.553ZM400.291,1162.485l45-150h84.609l45,150h-174.609ZM937.571,1162.485h-150v-131.26c0-10.359-8.391-18.75-18.75-18.75s-18.75,8.391-18.75,18.75v131.26h-136.03l-50.484-168.32,21.328-62.062,44.391,22.172c5.812,2.906,12.703,2.578,18.234-.844s8.859-9.469,8.859-15.938v-189.42l52.125,23.531-3.75,6.047c-5.438,8.812-2.719,20.344,6.094,25.781l159.52,98.531c3.094,1.922,6.469,2.812,9.844,2.812,6.281,0,12.422-3.141,15.984-8.906l18.844-30.562c13.688,8.062,22.547,22.547,22.547,38.625l-.006,258.553ZM393.831,599.985c0-10.359,8.391-18.75,18.75-18.75h150c10.359,0,18.75,8.391,18.75,18.75s-8.391,18.75-18.75,18.75h-150c-10.359,0-18.75-8.391-18.75-18.75ZM525.091,656.235c0,10.359-8.391,18.75-18.75,18.75h-37.5c-10.359,0-18.75-8.391-18.75-18.75s8.391-18.75,18.75-18.75h37.5c10.359,0,18.75,8.391,18.75,18.75Z"/>
</svg>