<?xml version="1.0" encoding="UTF-8"?>
<svg id="Layer_1" data-name="Layer 1" xmlns="http://www.w3.org/2000/svg" viewBox="0 0 1130.885 1200">
  <defs>
    <style>
      .cls-1 {
        fill: #85bb65;
      }
    </style>
  </defs>
  <path d="M564.125,541.979l-38.812-53.625c-23.484-32.484-61.547-51.844-101.81-51.844h-17.766c7.312-15.703,11.531-33.141,11.531-51.562,0-67.688-55.078-122.76-122.76-122.76s-122.76,55.078-122.76,122.76c0,18.422,4.219,35.859,11.531,51.562h-14.344c-40.312,0-78.328,19.359-101.81,51.844l-38.812,53.625c-25.875,35.812-34.547,80.766-23.812,123.37l28.312,112.73c2.953,11.625,9.609,21.562,18.609,28.875,3.375,20.062,16.078,72,60.328,107.81,11.109,9,24.094,14.391,37.734,16.219v187.97c0,44.719,36.375,81.047,81.047,81.047h3.422c25.172,0,47.438-11.766,62.297-29.812,14.859,18.047,37.125,29.812,62.297,29.812,44.672,0,81.047-36.328,81.047-81.047l-.047-188.63c12.797-1.688,25.078-6.656,35.906-14.906,45.656-35.062,59.625-87.328,63.328-106.64,9.984-7.359,17.578-18,20.859-30.75l28.312-112.64c10.734-42.656,2.062-87.609-23.812-123.42l-.015.012ZM294.495,299.689c47.016,0,85.266,38.25,85.266,85.266s-38.25,85.266-85.266,85.266-85.266-38.25-85.266-85.266c-.047-47.016,38.25-85.266,85.266-85.266h0ZM135.305,885.629c-24.703-20.016-36.797-47.391-42.562-66.75,6.797-.844,13.5-2.672,19.734-6.047,5.578-3.047,10.172-7.219,14.25-11.766,6.375,3.234,14.344,7.359,22.734,12.141v79.781c-5.109-1.453-9.891-3.891-14.156-7.359h0ZM149.414,770.509c-3.188-1.641-6.047-3.094-8.672-4.406,0-.422.188-.844.188-1.266,0-2.25-.188-4.359-.562-8.109l-15.891-109.36,24.984-31.453-.046,154.594ZM358.474,1162.479c-24,0-43.547-19.547-43.547-43.547v-241.36c0-10.359-8.391-18.75-18.75-18.75s-18.75,8.391-18.75,18.75v241.36c0,24-19.547,43.547-43.547,43.547h-3.422c-24,0-43.547-19.547-43.547-43.547v-340.45h215.06v340.45c.047,24-19.5,43.547-43.5,43.547h.003ZM467.884,647.369l-15.891,109.31c-.469,3.047-.609,6.047-.562,9-3.469,1.594-7.453,3.469-11.906,5.672v-159.74l28.359,35.758ZM452.603,885.679c-4.5,3.422-8.906,5.297-13.078,6.469v-78.562c9.516-5.25,18.516-9.609,25.5-12.891,4.219,4.781,9.188,8.953,15.094,12.234,5.625,3,11.531,4.641,17.531,5.578-6.094,19.172-18.891,47.109-45.047,67.172h0ZM551.556,656.229l-28.266,112.55c-2.719,10.547-15,16.594-25.312,11.156-6.469-3.562-9.938-10.547-8.859-17.812l17.062-117.38c.75-5.109-.656-10.312-3.891-14.344l-63.375-79.875c-3.984-5.016-9.984-7.125-15.938-6.75-.75-.094-1.453-.469-2.25-.469-10.359,0-18.75,8.391-18.75,18.75v178.87l-215.06.047v-178.87c0-7.969-5.062-15.047-12.609-17.672-7.547-2.578-15.938-.188-20.906,6.094l-63.375,79.875c-3.234,4.031-4.594,9.234-3.891,14.344l17.016,117.19c.094.984.234,1.922.234,2.906,0,6.234-3.469,12.047-9,15.047-4.734,2.625-10.312,2.859-15.281.703-5.016-2.156-8.672-6.469-9.984-11.719l-28.312-112.73c-8.016-31.828-1.547-65.438,17.812-92.25l38.812-53.625c16.453-22.734,43.125-36.328,71.438-36.328h41.391c22.031,20.812,51.609,33.703,84.234,33.703s62.203-12.891,84.234-33.703h44.766c28.312,0,54.984,13.547,71.438,36.328l38.812,53.625c19.359,26.859,25.875,60.469,17.812,92.344l-.002-.005Z"/>
  <path d="M1130.512,173.212c-3.328-36.891-28.781-67.969-64.312-78.469-15.469-35.438-51.844-57.094-90.422-53.719-4.875.422-9.703,1.266-14.438,2.531-12.938-21.703-34.406-36.891-59.203-41.812-24.75-4.969-50.438.797-70.688,15.844-32.297-15.844-70.969-10.734-97.969,13.031-35.719-5.484-71.203,11.109-89.812,42.094-4.969-.422-9.938-.375-14.906.047-25.594,2.438-48.891,15.703-64.031,36.469-36.75,5.812-66.141,33.469-74.156,69.797s7.031,73.828,37.922,94.547c.047,2.391.141,4.734.375,7.078h-.047c4.406,49.5,48.094,86.109,97.594,81.75,9.844-.891,19.5-3.469,28.5-7.547,30,32.672,79.406,38.297,116.02,13.266,18.656,17.859,44.156,26.719,69.844,24.375,13.828-1.266,27.188-5.719,38.953-13.078,14.484,9.422,31.406,14.484,48.703,14.484,2.672,0,5.391-.141,8.062-.375v.047c29.812-2.859,56.203-20.297,70.5-46.594,3-.094,5.203-.141,7.781-.328v-.047c47.812-4.594,83.625-45.891,81.375-93.891,24.188-18.984,37.125-48.891,34.359-79.5h-.005ZM1067.324,227.681h-.047c-6.75,3.938-10.359,11.719-8.906,19.406.281,1.594.562,3.188.703,4.781,2.766,29.156-18.562,55.078-47.672,57.938-4.359.375-8.766.188-13.031-.516-8.859-1.406-17.438,3.703-20.391,12.141-5.719,16.875-19.641,29.672-36.938,33.938-17.25,4.312-35.531-.469-48.516-12.703-6.984-6.562-17.859-6.656-24.984-.234-8.344,7.547-18.891,12.188-30.141,13.219-19.453,1.781-38.297-7.453-48.891-23.859-3.141-4.828-8.297-7.875-14.016-8.344s-11.297,1.781-15.141,6c-11.156,12.328-27.469,18.656-43.969,17.016-16.547-1.641-31.312-11.062-39.797-25.312-2.672-4.453-7.078-7.547-12.141-8.531-5.062-1.031-10.312.141-14.484,3.141-7.594,5.531-16.547,8.906-25.922,9.797-29.156,2.438-54.797-19.125-57.375-48.281-.328-3.891-.281-7.828.234-11.719.984-7.875-3.141-15.516-10.312-18.984-21.469-10.359-33.469-33.75-29.344-57.281,4.125-23.484,23.344-41.438,47.062-43.875l2.719-.094c6.375-.281,12.141-3.797,15.328-9.281,8.484-14.953,23.719-24.797,40.781-26.438,5.859-.516,11.766-.047,17.438,1.406,9,2.25,18.281-2.484,21.703-11.062,9.703-25.219,37.078-38.812,63-31.359,6.844,1.922,14.156-.188,18.844-5.484,17.766-20.156,47.859-23.484,69.609-7.781,7.453,5.391,17.766,4.453,24.094-2.203,12.75-13.266,31.453-18.891,49.359-14.859,17.953,4.031,32.438,17.156,38.25,34.594,1.734,5.062,5.578,9.141,10.547,11.109,4.969,2.016,10.547,1.781,15.328-.656,5.859-3,12.281-4.875,18.844-5.484,25.125-2.109,48.328,13.734,55.406,37.969,2.016,6.797,7.781,11.859,14.812,13.031,23.953,3.938,42.188,23.578,44.297,47.766,1.922,20.719-8.391,40.641-26.391,51.094l.051-.004Z"/>
  <path d="M457.459,399.9c7.312,0,14.438-2.156,20.578-6.094,13.5,4.219,28.219.609,38.25-9.375s13.688-24.703,9.516-38.25c6.656-10.406,7.828-23.391,3.141-34.781-4.688-11.438-14.625-19.875-26.672-22.594-8.719-9.094-21.422-13.266-33.844-11.156s-23.016,10.219-28.219,21.703c-12.75,6.469-20.812,19.547-20.812,33.844,0,4.922.938,9.75,2.812,14.297-1.875,4.547-2.812,9.422-2.812,14.297,0,21.047,17.062,38.062,38.062,38.109h0ZM449.162,339.291c-2.062-2.719-2.625-6.281-1.453-9.516,1.125-3.234,3.797-5.672,7.078-6.469,5.016-1.359,8.812-5.344,9.938-10.359.938-4.031,4.172-7.172,8.203-7.922,4.078-.75,8.203.984,10.5,4.453,2.438,3.609,6.422,5.906,10.781,6.094,4.219.188,7.922,2.906,9.281,6.891,1.406,3.984.188,8.391-3.047,11.109-5.25,4.594-6.281,12.328-2.391,18.141,2.719,4.125,2.156,9.609-1.359,13.078s-9,3.984-13.078,1.219c-5.859-3.984-13.734-2.906-18.328,2.438-1.922,2.344-4.781,3.703-7.828,3.703-3.891.047-7.5-2.156-9.234-5.625-1.781-3.516-1.406-7.688.938-10.828,3.609-4.875,3.609-11.531,0-16.406h0Z"/>
  <g id="Layer_2" data-name="Layer 2">
    <path class="cls-1" d="M679.864,116.702v.012c-9.879.062-17.859,8.092-17.859,17.984v142.528c0,9.892,7.98,17.922,17.859,17.984l252.812.012c9.879-.074,17.859-8.104,17.859-17.996v-142.528c0-9.892-7.98-17.922-17.859-17.996h-252.812Z"/>
  </g>
  <g id="Layer_1-2" data-name="Layer 1">
    <path d="M801.186,199.383v.012c-2.631-.894-4.915-1.837-6.876-2.867l-.025-.012c-.881-.447-1.675-.943-2.383-1.527-.41-.323-.732-.658-.98-1.005-.397-.558-.596-1.142-.596-1.762v-6.938c0-.087,0-.186.012-.285.05-.67.31-1.502.782-2.495.571-1.241,1.7-2.433,3.401-3.587,1.551-1.043,3.761-1.8,6.64-2.271l.025,22.737ZM732.666,198.105h.012c4.331,0,7.844,3.512,7.844,7.856s-3.512,7.844-7.856,7.844-7.844-3.512-7.844-7.844,3.512-7.856,7.844-7.856h0ZM879.849,198.105h.012c4.331,0,7.844,3.512,7.844,7.856s-3.512,7.844-7.844,7.844-7.856-3.512-7.856-7.844,3.512-7.856,7.844-7.856h0ZM732.679,187.965h-.012c-9.941,0-17.996,8.055-17.996,17.996s8.067,17.996,17.996,17.996,17.996-8.067,17.996-17.996-8.042-17.996-17.984-17.996h0ZM879.862,187.965h-.012c-9.941,0-17.996,8.055-17.996,17.996s8.067,17.996,18.009,17.996,17.996-8.067,17.996-17.996-8.055-17.996-17.996-17.996h0ZM811.355,213.184h.012c2.606.856,4.878,1.8,6.801,2.805l.112.062c.832.434,1.601.943,2.296,1.514h.012c.397.31.707.608.956.931l.012.012c.434.571.646,1.167.646,1.8v6.826c0,.112,0,.223-.012.347-.062.67-.347,1.539-.856,2.594-.571,1.229-1.7,2.408-3.388,3.549-1.502,1.043-3.699,1.8-6.603,2.259l.012-22.7h0ZM806.254,155.25c-2.805,0-5.064,2.271-5.064,5.064l-.012,6.094c-4.642.583-8.328,1.688-11.071,3.314-2.904,1.75-5.002,3.549-6.28,5.399l-.025.05c-1.154,1.564-1.998,3.065-2.544,4.493-.509,1.452-.844,2.668-.968,3.661v.012c-.112.993-.161,1.626-.161,1.899v6.988c0,1.253.236,2.656.72,4.22.447,1.452,1.316,2.941,2.631,4.48v.012c1.328,1.564,3.215,3.016,5.809,4.456l.087.05c3.624,1.825,7.571,3.376,11.84,4.667l-.025,25.79c-2.892-.472-5.113-1.229-6.665-2.271-1.688-1.142-2.817-2.321-3.388-3.537v-.012c-.484-1.005-.745-1.862-.794-2.544-.012-.099-.012-.186-.012-.285v-2.73c0-1.402-.521-2.606-1.539-3.636h-.012c-.993-.993-2.197-1.464-3.587-1.464h-.037c-1.378,0-2.544.496-3.525,1.502l-.012.012c-.993.993-1.489,2.184-1.489,3.587v2.793c0,.248.074.906.211,1.961l.012.05c.099.931.422,2.122.968,3.549l.012.037c.496,1.415,1.328,2.904,2.47,4.456l.025.05c1.278,1.849,3.401,3.661,6.342,5.411,2.706,1.638,6.392,2.743,11.046,3.314l-.025,5.461c0,2.805,2.271,5.076,5.076,5.076s5.076-2.271,5.076-5.076l-.025-5.461c4.667-.583,8.365-1.675,11.095-3.314,2.917-1.737,5.002-3.549,6.293-5.411l.025-.05c1.142-1.551,1.973-3.028,2.47-4.443.521-1.464.856-2.706.993-3.711.137-1.018.211-1.651.211-1.899l-.012-7c.012-1.241-.223-2.643-.707-4.195-.434-1.452-1.34-2.941-2.681-4.493l-.012-.012c-1.316-1.551-3.239-3.041-5.759-4.468h-.012c-3.624-1.837-7.571-3.388-11.865-4.679l.012-25.803c2.892.472,5.101,1.229,6.64,2.259l.025.012c1.638,1.142,2.755,2.346,3.363,3.599l.012.025c.472,1.043.745,1.899.794,2.582v2.879c0,1.415.484,2.619,1.489,3.649l.012.025c.993.968,2.184,1.452,3.574,1.452,1.402,0,2.606-.509,3.636-1.539.993-.993,1.489-2.184,1.489-3.587v-2.78c0-.261-.074-.906-.211-1.961-.137-.968-.472-2.184-.993-3.649v-.012c-.509-1.415-1.328-2.892-2.47-4.443l-.025-.037c-1.278-1.862-3.401-3.661-6.342-5.411l-.012-.012c-2.681-1.614-6.354-2.718-10.996-3.301l-.012-6.094c0-2.805-2.284-5.064-5.089-5.064h0,0ZM897.626,145.718v.012l.05.137.596,1.75.112.298.707,1.7.124.285.807,1.663.149.273.906,1.614.161.273.993,1.551.186.248,1.092,1.489.199.248,1.179,1.415.211.236,1.266,1.34.223.223,1.328,1.253.236.199,1.415,1.167.236.186,1.477,1.08.261.174,1.539.993.261.161,1.601.894.273.137,1.651.794.273.124,1.7.695.285.112,1.737.596.112.037v73.759l-.112.037-1.737.596-.285.099-1.7.695-.273.124-1.651.807-.273.137-1.601.894-.261.161-1.539.98-.261.174-1.477,1.08-.236.199-1.415,1.167-.236.199-1.328,1.253-.223.211-1.266,1.353-.211.223-1.191,1.427-.186.236-1.092,1.489-.186.261-.993,1.551-.161.261-.918,1.614-.137.285-.807,1.663-.124.273-.707,1.713-.112.298-.596,1.75-.05.149h-182.717l-.05-.149-.596-1.75-.112-.298-.707-1.713-.124-.273-.807-1.663-.149-.285-.906-1.614-.161-.261-.993-1.551-.186-.261-1.092-1.489-.199-.236-1.179-1.427-.211-.223-1.266-1.353-.223-.211-1.328-1.253-.236-.199-1.415-1.167-.236-.199-1.477-1.08-.261-.174-1.539-.98-.261-.161-1.601-.894-.273-.137-1.651-.807-.273-.124-1.7-.695-.285-.099-1.737-.596-.112-.037v-73.759l.112-.037,1.737-.596.285-.112,1.7-.695.273-.124,1.651-.794.273-.137,1.601-.894.261-.161,1.539-.993.261-.174,1.477-1.08.236-.186,1.415-1.167.236-.199,1.328-1.253.223-.223,1.266-1.34.211-.236,1.179-1.415.199-.248,1.092-1.489.186-.248.993-1.551.161-.273.906-1.614.149-.273.807-1.663.124-.285.707-1.7.112-.298.596-1.75.05-.149h182.717ZM710.678,135.591c-2.246,0-4.232,1.7-4.716,4.009l-.347,1.651-.41,1.489-.496,1.452-.583,1.427-.67,1.378-.757,1.353-.832,1.278-.918,1.241-.98,1.191-1.055,1.117-1.117,1.03-1.179.98-1.216.894-1.291.819-1.328.745-1.39.67-1.39.571-1.44.496-1.477.397-1.638.347c-2.532.534-4.033,2.83-4.033,5.349v80.945c0,2.532,1.502,4.828,4.033,5.362l1.638.335,1.477.41,1.44.484,1.39.583,1.39.658,1.328.745,1.291.832,1.216.894,1.179.98,1.117,1.03,1.055,1.117.98,1.179.918,1.241.832,1.291.757,1.34.67,1.39.583,1.427.496,1.452.41,1.477.347,1.663c.484,2.321,2.495,4.021,4.753,4.021l191.105.012c2.259-.012,4.269-1.713,4.753-4.033l.347-1.663.41-1.477.484-1.452.596-1.427.67-1.39.757-1.34.832-1.291.918-1.241.98-1.179,1.055-1.117,1.117-1.03,1.179-.98,1.216-.894,1.291-.832,1.328-.745,1.378-.658,1.402-.583,1.44-.484,1.477-.41,1.638-.335c2.532-.534,4.033-2.83,4.033-5.362v-80.945c0-2.52-1.502-4.816-4.033-5.349l-1.638-.347-1.477-.397-1.44-.496-1.39-.571-1.39-.67-1.328-.745-1.291-.819-1.216-.894-1.179-.98-1.117-1.03-1.055-1.117-.98-1.191-.918-1.241-.832-1.278-.757-1.353-.67-1.378-.583-1.427-.496-1.452-.41-1.489-.347-1.651c-.484-2.321-2.495-4.033-4.753-4.033l-191.142.024h0ZM932.539,126.853c4.331,0,7.844,3.512,7.844,7.844v142.528c0,4.331-3.512,7.831-7.831,7.844h-252.553c-4.331,0-7.844-3.512-7.844-7.844v-142.528c0-4.331,3.512-7.844,7.844-7.856l252.54.012ZM679.864,116.701v.012c-9.879.062-17.859,8.092-17.859,17.984v142.528c0,9.892,7.98,17.922,17.859,17.984l252.812.012c9.879-.074,17.859-8.104,17.859-17.996v-142.528c0-9.892-7.98-17.922-17.859-17.996h-252.812Z"/>
  </g>
</svg>