<?xml version="1.0" encoding="UTF-8"?>
<svg id="Layer_1" data-name="Layer 1" xmlns="http://www.w3.org/2000/svg" viewBox="0 0 1133.376 966.628">
  <path d="M1116.688,966.628H16.688c-9.188,0-16.688-7.453-16.688-16.688v-66.656c0-9.188,7.453-16.688,16.688-16.688h1100c9.188,0,16.688,7.453,16.688,16.688v66.656c0,9.234-7.453,16.688-16.688,16.688ZM33.388,933.3h1066.7v-33.328H33.388v33.328Z"/>
  <path d="M1049.988,900.028H83.328c-9.188,0-16.688-7.453-16.688-16.688V350.05c0-9.188,7.453-16.688,16.688-16.688,9.188,0,16.688,7.453,16.688,16.688v516.66h933.32V350.05c0-9.188,7.453-16.688,16.688-16.688,9.188,0,16.688,7.453,16.688,16.688v533.34c-.047,9.188-7.5,16.641-16.734,16.641l.01-.003Z"/>
  <path d="M699.998,900.028h-266.63c-9.188,0-16.688-7.453-16.688-16.688v-333.32c0-9.188,7.453-16.688,16.688-16.688h266.68c9.188,0,16.688,7.453,16.688,16.688v333.32c-.047,9.234-7.5,16.688-16.734,16.688h-.004ZM450.018,866.7h233.34v-300h-233.34v300Z"/>
  <path d="M566.688,900.028c-9.188,0-16.688-7.453-16.688-16.688v-333.32c0-9.188,7.453-16.688,16.688-16.688,9.188,0,16.688,7.453,16.688,16.688v333.32c0,9.234-7.5,16.688-16.688,16.688Z"/>
  <path d="M733.378,566.668h-333.37c-9.188,0-16.688-7.453-16.688-16.688v-66.656c0-9.188,7.453-16.688,16.688-16.688h333.32c9.188,0,16.688,7.453,16.688,16.688v66.656c0,9.234-7.453,16.688-16.641,16.688h.003ZM416.688,533.34h300v-33.328h-300v33.328Z"/>
  <path d="M616.708,750.008c-9.188,0-16.688-7.453-16.688-16.688v-16.641c0-9.188,7.453-16.688,16.688-16.688,9.188,0,16.688,7.453,16.688,16.688v16.688c-.047,9.188-7.5,16.641-16.688,16.641Z"/>
  <path d="M516.668,750.008c-9.188,0-16.688-7.453-16.688-16.688l.047-16.641c0-9.188,7.453-16.688,16.688-16.688,9.188,0,16.688,7.453,16.688,16.688v16.688c-.047,9.188-7.5,16.641-16.734,16.641h0Z"/>
  <path d="M1116.688,366.648H16.688c-9.188,0-16.688-7.453-16.688-16.688v-66.656c0-9.188,7.453-16.688,16.688-16.688h1100c9.188,0,16.688,7.453,16.688,16.688v66.656c0,9.234-7.453,16.688-16.688,16.688ZM33.388,333.32h1066.7v-33.328H33.388v33.328Z"/>
  <path d="M1116.688,300.008H16.688c-11.625,0-19.688-11.625-15.609-22.5L101.063,10.828c2.438-6.516,8.672-10.828,15.609-10.828h900c6.938,0,13.172,4.312,15.609,10.828l99.984,266.68c4.125,10.875-3.938,22.5-15.562,22.5h-.015ZM40.788,266.68h1051.9l-87.516-233.34H128.232l-87.444,233.34Z"/>
  <path d="M733.378,300.008h-333.37c-9.188,0-16.688-7.453-16.688-16.688l.047-199.97c0-9.188,7.453-16.688,16.688-16.688h333.32c9.188,0,16.688,7.453,16.688,16.688v200.02c-.047,9.188-7.5,16.641-16.688,16.641l.003-.003ZM416.688,266.68h300V99.99h-300v166.69Z"/>
  <path d="M556.288,229.688l-166.69-133.31c-7.172-5.766-8.344-16.219-2.625-23.438,5.766-7.172,16.219-8.344,23.438-2.625l156.28,125.02,156.24-125.02c7.172-5.766,17.672-4.594,23.438,2.625,5.766,7.172,4.594,17.672-2.625,23.438l-166.69,133.31c-6.047,4.875-14.672,4.875-20.766,0h0Z"/>
  <path d="M722.928,296.348l-125.02-99.984c-7.172-5.766-8.344-16.219-2.625-23.438,5.766-7.172,16.219-8.344,23.438-2.625l125.02,99.984c7.172,5.766,8.344,16.219,2.625,23.438-5.766,7.219-16.266,8.344-23.438,2.625Z"/>
  <path d="M400.048,300.008c-15.703,0-22.688-19.875-10.406-29.672l125.02-99.984c7.172-5.766,17.672-4.594,23.438,2.625,5.766,7.172,4.594,17.672-2.625,23.438l-125.02,99.984c-3.094,2.391-6.75,3.609-10.406,3.609h-.001Z"/>
  <path d="M966.668,816.648h-183.32c-9.188,0-16.688-7.453-16.688-16.688v-166.69c0-9.188,7.453-16.688,16.688-16.688l183.32.047c9.188,0,16.688,7.453,16.688,16.688v166.69c0,9.188-7.453,16.641-16.688,16.641h0ZM800.028,783.32h150v-133.31h-150v133.31Z"/>
  <path d="M350.028,816.648h-183.32c-9.188,0-16.688-7.453-16.688-16.688v-166.69c0-9.188,7.453-16.688,16.688-16.688h183.32c9.188,0,16.688,7.453,16.688,16.688v166.69c-.047,9.234-7.5,16.688-16.688,16.688ZM183.338,783.32h150v-133.31h-150v133.31Z"/>
  <path d="M966.668,733.308h-183.32c-9.188,0-16.688-7.453-16.688-16.688,0-9.188,7.453-16.688,16.688-16.688l183.32.047c9.188,0,16.688,7.453,16.688,16.688,0,9.188-7.453,16.641-16.688,16.641h0Z"/>
  <path d="M350.028,733.308h-183.32c-9.188,0-16.688-7.453-16.688-16.688,0-9.188,7.453-16.688,16.688-16.688h183.32c9.188,0,16.688,7.453,16.688,16.688-.047,9.234-7.5,16.688-16.688,16.688Z"/>
</svg>