<?xml version="1.0" encoding="UTF-8"?>
<svg id="Layer_1" data-name="Layer 1" xmlns="http://www.w3.org/2000/svg" viewBox="0 0 864.378 1055.926">
  <path d="M82.128,533.323l34.539-160.93-.254-.113c-36.539-15.973-68.203-43.188-89.449-79.199C5.703,257.08-2.828,216.217.817,176.52c3.641-39.715,19.488-78.309,46.969-109.84,27.453-31.562,63.539-52.555,102.36-61.613,38.82-9.027,80.449-6.164,119.03,9.965,38.621,16.145,69.93,43.797,90.75,77.824,19.418,31.691,29.766,68.953,28.516,107.61l174.79,55.586c9.766,3.117,18.398,7.668,25.84,13.664,7.441,5.969,13.734,13.438,18.863,22.336l245.78,425.7c10.984,18.949,13.195,40.621,7.953,60.223-5.242,19.629-18,37.289-36.938,48.23l-380.77,219.77c-18.68,10.348-39.812,12.375-58.977,7.242-19.617-5.242-37.277-18-48.203-36.938-78.535-143.21-169.37-283.52-246.5-427.03-4.719-8.461-7.797-17.191-9.227-26.207-1.504-9.523-1.203-19.234.922-29.07l.156-.652-.003.003ZM124.378,336.413l25.84-120.38,2.012-7.441c6.094-19.434,19.219-35.008,35.789-44.602,16.527-9.594,36.523-13.254,56.426-8.984l7.457,2.012,100.6,32.004c-.906-27.852-9.141-54.469-23.215-77.457-16.938-27.68-42.449-50.188-73.887-63.34-31.492-13.168-65.438-15.504-97.086-8.148-31.621,7.371-61.031,24.477-83.426,50.188-22.465,25.711-35.391,57.16-38.352,89.492-2.977,32.328,4.012,65.652,21.359,95.047,16.086,27.254,39.445,48.332,66.488,61.613l-.005-.002ZM227.408,385.749c-25.84,4.48-51.773,3.586-76.41-2.055l-33.875,157.88c-1.203,5.598-1.418,10.914-.637,15.859.75,4.789,2.422,9.512,4.977,14.16,85.055,136.08,166.31,287.69,247,427.72,6.008,9.781,15.406,16.398,25.797,19.176,10.359,2.777,21.742,1.785,31.777-3.559l380.7-219.8c10.348-5.981,17.336-15.66,20.211-26.434,2.879-10.773,1.688-22.648-4.266-32.969l-245.81-425.82c-2.805-4.875-6.266-8.973-10.305-12.219-4.039-3.246-8.773-5.738-14.16-7.457l-311.33-99.027-4.082-1.047c-10.941-2.34-21.926-.34-30.969,4.902-9.016,5.215-16.188,13.734-19.547,24.352l-1.121,4.152-26.816,125c17.957,4.152,36.781,5.215,55.66,2.805-1.332-10.219-.609-20.508,2-30.273,5.172-19.305,17.73-36.68,36.41-47.465l.27-.156c18.652-10.672,39.883-12.84,59.102-7.711,19.305,5.172,36.695,17.746,47.48,36.426l.609,1.148c10.277,18.453,12.289,39.316,7.227,58.195-5.16,19.316-17.746,36.695-36.426,47.48l-1.262.668c-18.426,10.219-39.246,12.219-58.098,7.188-17.418-4.664-33.266-15.363-44.109-31.109l.003-.011ZM302.713,300.483c-10.461-2.793-22.012-1.617-32.074,4.195-10.121,5.84-16.922,15.25-19.715,25.684-2.691,10.051-1.699,21.117,3.5,30.883l1.305,2.211c5.855,9.523,14.98,15.988,25.059,18.68,10.035,2.691,21.09,1.715,30.883-3.5l2.227-1.305c9.523-5.855,15.988-14.969,18.68-25.074,2.723-10.176,1.699-21.414-3.699-31.293l-.48-.781c-5.824-10.09-15.25-16.91-25.684-19.699h0ZM506.233,557.003c6.519,7.484,5.727,18.852-1.758,25.371-7.484,6.519-18.852,5.727-25.371-1.758-7.074-8.121-16.641-13.039-26.602-14.371-9.992-1.348-20.48.836-29.465,6.789-8.93,5.996-15.008,14.855-17.602,24.562-2.609,9.766-1.812,20.465,2.949,30.105,4.789,9.652,12.969,16.797,23.629,20.395,11.27,3.812,25.512,3.953,41.895-.512,23.555-6.406,44.984-5.883,62.844.172,19.898,6.746,35.207,20.195,44.305,38.566,8.773,17.746,10.262,37.359,5.473,55.262-3.699,13.777-11.113,26.574-21.77,36.723l12.586,21.828c4.918,8.574,1.969,19.547-6.606,24.465s-19.547,1.969-24.465-6.606l-12.43-21.543c-11.055,3.414-22.637,4.324-33.887,2.805-18.441-2.481-36-11.453-48.953-26.348-6.519-7.484-5.727-18.852,1.758-25.371s18.852-5.727,25.371,1.758c7.086,8.137,16.641,13.055,26.617,14.387,9.934,1.332,20.438-.863,29.426-6.848,8.957-5.969,15.039-14.824,17.633-24.52,2.609-9.766,1.812-20.465-2.949-30.09-4.789-9.668-12.969-16.809-23.641-20.422-11.254-3.812-25.512-3.953-41.895.512-23.543,6.406-44.957,5.894-62.844-.172-19.871-6.719-35.18-20.168-44.293-38.539-8.773-17.746-10.262-37.375-5.473-55.277,3.699-13.789,11.098-26.574,21.77-36.738l-12.602-21.828c-4.918-8.574-1.969-19.547,6.606-24.465,8.574-4.918,19.547-1.969,24.465,6.606l12.445,21.57c11.055-3.43,22.637-4.336,33.902-2.805,18.41,2.481,35.984,11.453,48.941,26.336h-.009Z"/>
</svg>