<?xml version="1.0" encoding="UTF-8"?>
<svg id="Layer_1" data-name="Layer 1" xmlns="http://www.w3.org/2000/svg" viewBox="0 0 975.021 843.187">
  <path d="M963.958,725.812L554.218,37.922C540.062,14.203,515.124,0,487.515,0s-52.547,14.156-66.703,37.922L11.072,725.812c-14.484,24.328-14.766,53.484-.797,78.094,13.969,24.61,39.234,39.281,67.5,39.281h819.47c28.266,0,53.531-14.672,67.5-39.281s13.688-53.812-.797-78.094h.01ZM933.02,785.859c-7.406,13.031-20.766,20.812-35.766,20.812H77.784c-15,0-28.359-7.781-35.766-20.812s-7.266-28.5.422-41.391L452.18,56.578c7.5-12.562,20.719-20.109,35.344-20.109s27.844,7.5,35.344,20.109l409.74,687.89c7.688,12.891,7.828,28.359.422,41.391h-.01ZM487.52,240.179c-37.828,0-68.578,30.75-68.578,68.578v173.86c0,37.828,30.75,68.578,68.578,68.578s68.578-30.75,68.578-68.578v-173.86c0-37.828-30.75-68.578-68.578-68.578ZM519.629,482.659c0,17.719-14.391,32.109-32.109,32.109s-32.109-14.391-32.109-32.109v-173.86c0-17.719,14.391-32.109,32.109-32.109s32.109,14.391,32.109,32.109v173.86ZM487.52,589.539c-37.828,0-68.578,30.75-68.578,68.578s30.75,68.578,68.578,68.578,68.578-30.75,68.578-68.578-30.75-68.578-68.578-68.578ZM487.52,690.229c-17.719,0-32.109-14.391-32.109-32.109s14.391-32.109,32.109-32.109,32.109,14.391,32.109,32.109-14.391,32.109-32.109,32.109Z"/>
</svg>