<?xml version="1.0" encoding="UTF-8"?>
<svg id="Layer_1" data-name="Layer 1" xmlns="http://www.w3.org/2000/svg" viewBox="0 0 1203.228 1027.202">
  <path d="M623.998,596.402c-3.602,0-6-1.199-8.398-3.602l-105.6-103.2H124.8C56.398,489.6,0,434.401,0,364.8V124.8C0,56.402,56.398,0,124.8,0h386.4c68.398,0,124.8,56.398,124.8,124.8v459.6c0,4.801-2.398,9.602-7.199,10.801-1.199,1.199-2.402,1.199-4.801,1.199h-.002ZM124.798,24.002c-55.199,0-100.8,45.602-100.8,100.8v240c0,56.398,45.602,100.8,100.8,100.8h390c3.602,0,6,1.199,8.398,3.602l88.801,86.398V124.801c0-56.398-45.602-100.8-100.8-100.8H124.798h0Z"/>
  <path d="M286.798,722.402c-3.602,0-7.199-2.398-9.602-4.801-3.602-6-2.398-13.199,3.602-16.801,1.199,0,78-52.801,153.6-171.6,3.602-6,10.801-7.199,16.801-3.602,6,3.602,7.199,10.801,3.602,16.801-79.203,122.4-158.41,175.2-160.8,177.6-2.398,1.203-4.801,2.402-7.199,2.402h-.003Z"/>
  <path d="M1187.998,722.402c-2.398,0-4.801-1.199-6-2.398-3.602-2.398-81.602-55.199-160.8-178.8-1.199-1.199-55.199-87.602-138-102-45.602-7.199-91.199,7.199-136.8,44.398-4.801,3.602-10.801,3.602-14.398,0-20.398-16.801-42-28.801-62.398-37.199-6-2.398-9.602-9.602-7.199-15.602,2.398-6,9.602-9.602,15.602-7.199,20.398,7.199,42,19.199,62.398,34.801,49.199-37.199,99.602-51.602,148.8-43.199,93.602,15.602,152.4,109.2,154.8,112.8,75.602,118.8,153.6,170.4,153.6,171.6,6,3.602,7.199,10.801,3.602,16.801-6.008,3.594-9.605,5.996-13.207,5.996h0Z"/>
  <path d="M350.398,728.402c-37.199,0-62.398-6-64.801-6-6-1.199-10.801-7.199-8.398-14.398,1.199-6,7.199-10.801,14.398-8.398,1.199,0,152.4,33.602,244.8-68.398,0-1.199,15.602-16.801,40.801-32.398,6-3.602,13.199-1.199,15.602,3.602,3.602,6,1.199,13.199-3.602,15.602-24,13.191-37.199,27.59-37.199,27.59-61.199,68.398-145.2,82.801-201.6,82.801v-.002Z"/>
  <path d="M1125.598,728.402c-57.602,0-140.4-14.402-201.6-82.801-3.602-3.602-76.801-82.801-181.2-34.801-3.602,1.199-7.199,1.199-9.602,0-20.398-9.602-40.801-14.398-61.199-15.602-6,0-12-6-10.801-12,0-6,6-12,12-10.801,21.602,1.199,44.398,6,66,15.602,117.6-50.398,202.8,40.801,202.8,42,91.199,102,243.6,69.602,244.8,68.398,6-1.199,13.199,2.398,14.398,8.398s-2.398,13.199-8.398,14.398c-4.801,1.207-31.199,7.207-67.199,7.207v.002Z"/>
  <path d="M737.998,705.602c-138,0-218.4-33.602-222-34.801-6-2.398-8.398-9.602-6-15.602,2.398-6,9.602-8.398,15.602-6,1.199,0,79.199,33.602,212.4,33.602,132,0,211.2-32.398,212.4-33.602,6-2.398,13.199,0,15.602,6,2.398,6,0,13.199-6,15.602-4.801,1.199-85.199,34.801-222,34.801h-.004Z"/>
  <path d="M737.998,1027.202c-64.801,0-126-12-180-36-56.398-25.199-106.8-67.199-146.4-121.2-61.199-86.398-130.8-150-132-150-4.801-4.801-4.801-12-1.199-16.801,4.801-4.801,12-4.801,16.801-1.199,1.199,1.199,72,66,134.4,153.6,37.199,51.602,84,90,136.8,112.8,51.602,22.801,109.2,33.602,171.6,33.602s120-12,171.6-33.602c52.801-22.801,99.602-62.398,136.8-112.8,63.602-87.602,134.4-153.6,134.4-153.6,4.801-4.801,12-3.602,16.801,1.199,4.801,4.801,3.602,12-1.199,16.801-1.199,1.199-69.602,64.801-132,150-39.602,54-90,96-146.4,121.2-54.008,24-115.21,36-180.01,36h.006Z"/>
  <path d="M728.398,837.602c-69.602,0-164.4-1.199-279.6-69.602-6-3.602-7.199-10.801-3.602-15.602,3.602-6,10.801-7.199,15.602-3.602,112.8,66,205.2,66,272.4,66h8.398c72,0,160.8-1.199,272.4-66,6-3.602,13.199-1.199,15.602,3.602,3.602,6,1.199,13.199-3.602,15.602-117.59,69.602-214.79,69.602-286.79,69.602h-10.809Z"/>
</svg>