<?xml version="1.0" encoding="UTF-8"?>
<svg id="Layer_1" data-name="Layer 1" xmlns="http://www.w3.org/2000/svg" viewBox="0 0 663.005 918.903">
  <path d="M539.063,210.147c-13.547.281-22.547,1.688-22.547,1.688l.281-.047-391.31,48.656c-.375,0-.75.094-1.078.141,0,0-12.281,2.016-23.953,10.453-11.719,8.438-24,26.016-24,48.844s12.328,40.406,24,48.844c11.719,8.438,23.953,10.453,23.953,10.453v-.047c1.594.281,3.281.422,4.922.328l271.22-11.953-36.516,125.02-138.98,68.344c-21.469,10.547-37.078,22.5-48.094,38.438-10.969,15.938-17.203,33.375-26.672,57.609l-54.891,140.11.047.047c-.234.562-.422,1.125-.609,1.688,0,0-5.438,16.594-2.156,36.609,3.281,20.016,19.734,45.891,51.422,54.375,33.469,8.953,61.641-9.375,75.562-26.812,12.656-15.844,18.094-31.922,19.031-34.875l54.047-138.42,114.66-55.5v94.828l.047-.047c0,5.297,1.781,10.406,5.062,14.484l110.06,136.92c2.531,4.219,10.219,15.844,23.578,25.688,16.453,12.094,46.594,19.969,74.859,3.609,14.484-8.344,24.703-20.766,29.438-33.703,4.781-12.938,4.594-25.5,2.859-35.953-3.422-20.906-13.5-36.328-13.5-36.328-.422-.656-.891-1.312-1.406-1.922l-84-107.44,22.641-164.44,72-208.87v-.047c.188-.516.281-.984.422-1.5v-.047c0-.094.047-.141.047-.234.234-.75.375-1.5.516-2.25,6.844-27.844,2.859-52.969-10.172-70.5-13.406-18.047-33-26.625-51.094-31.125-18.094-4.547-36.141-5.391-49.688-5.109l-.007-.006ZM541.126,256.553c10.688-.141,24.375.469,36.422,3.516,12.047,3,20.953,8.109,25.266,13.875,4.312,5.812,7.312,13.828,2.062,33.469v.047l-72.188,209.44c-.516,1.406-.844,2.906-1.078,4.359l-24.281,176.34v.047c-.844,6.141.844,12.422,4.688,17.344l88.922,113.72c.469.797,5.25,9.281,6.797,18.75.797,4.969.562,9.281-.609,12.469s-2.812,6-9.234,9.703c-13.547,7.828-17.344,4.406-24.375-.797s-11.812-12.984-11.812-12.984c-.609-1.125-1.359-2.203-2.156-3.234l-105.94-131.81v-123.52c0-7.922-4.078-15.328-10.828-19.547s-15.188-4.688-22.312-1.219l-155.95,75.469c-5.25,2.531-9.375,6.938-11.484,12.375l-57.469,147.19c-.188.469-.375.984-.516,1.5,0,0-3.938,11.578-11.484,21.094-7.547,9.469-12.891,14.906-27.516,10.969-16.406-4.406-16.547-9.469-17.812-17.203-1.219-7.453.562-14.812.703-15.328l54.375-138.79c9.609-24.516,15.516-39.281,21.703-48.234s12.75-14.484,30.469-23.203l148.08-72.844v-.047c5.812-2.859,10.172-8.016,12-14.25l48.375-165.71c2.109-7.125.609-14.859-3.984-20.719-4.594-5.859-11.766-9.141-19.172-8.812l-299.9,13.172c-.891-.375-2.109-.984-3.469-1.969-2.719-1.969-4.828-2.625-4.828-11.344s2.109-9.422,4.828-11.344c2.578-1.875,4.547-2.344,4.734-2.391l390.32-48.469c.094-.047.188-.047.281-.047,0,0,7.688-.891,18.328-1.031l.044-.002Z"/>
  <path d="M549.243.097c-11.625-.469-23.484.75-35.297,3.938-62.906,16.875-100.59,82.125-83.719,145.03s82.125,100.59,145.03,83.719,100.59-82.125,83.719-145.03C645.288,36.659,599.632,2.206,549.246.097h-.003ZM547.556,46.128c30.844,1.125,58.359,22.031,66.797,53.531,10.406,38.812-12.281,78.047-51.094,88.453s-78.047-12.281-88.453-51.094,12.281-78.047,51.094-88.453c7.266-1.969,14.578-2.719,21.656-2.484v.047Z"/>
  <path d="M23.113,72.417C10.363,72.417.004,82.729.004,95.479v794.16c0,12.75,10.359,23.062,23.109,23.062,6.094,0,12-2.438,16.312-6.75s6.75-10.219,6.75-16.312V95.479c0-12.75-10.312-23.062-23.062-23.062h0Z"/>
  <path d="M23.113,179.067C10.363,179.067.004,189.379.004,202.129s10.359,23.109,23.109,23.109h77.062v43.453c0,6.094,2.391,12,6.75,16.312,4.312,4.312,10.172,6.75,16.312,6.75s12-2.438,16.312-6.75c4.359-4.312,6.797-10.219,6.797-16.312v-66.562c0-12.75-10.359-23.062-23.109-23.062H23.113ZM123.233,335.067c-12.75,0-23.062,10.312-23.062,23.062v43.453H23.109c-12.75,0-23.109,10.359-23.109,23.109s10.359,23.062,23.109,23.062h100.12c12.75,0,23.109-10.312,23.109-23.062v-66.562c0-12.75-10.359-23.062-23.109-23.062h.004Z"/>
</svg>