<?xml version="1.0" encoding="UTF-8"?>
<svg id="Layer_1" data-name="Layer 1" xmlns="http://www.w3.org/2000/svg" viewBox="0 0 919.827 911.303">
  <path d="M487.477,168.806c-13.688-.141-26.766,4.594-37.875,11.25-14.766,8.812-27.609,21.188-39.609,34.969-24,27.609-44.578,61.688-59.25,87.188l-69.656,121.08.328-.516s-12.469,20.391-14.297,48.797,8.109,66.984,45.188,99.609c.891.75,1.828,1.5,2.859,2.109l168.74,107.53.609,167.48v.047c0,.609.047,1.266.094,1.922,0,0,1.031,14.438,9.328,29.25,8.297,14.812,27.891,31.781,54.891,31.781s46.594-16.969,54.891-31.781c8.297-14.812,9.328-29.25,9.328-29.25v-.047l13.266-153.47c1.312-15.422,3.938-31.922,1.172-50.672-2.766-18.703-12.375-38.719-30.797-55.828l-117.8-109.12,74.062-132.14,289.13-8.766v.047c11.109-.328,20.391-8.531,22.125-19.453l18.328-115.41v-.047c1.5-9.656-3.234-19.266-11.859-23.906-8.625-4.688-19.219-3.375-26.484,3.234l-43.312,39.375-215.95-13.078c-5.109-3.562-12.891-8.766-24.328-15.469-17.297-10.078-38.578-21.469-61.406-25.312l2.156.469c-4.641-1.266-9.281-1.828-13.828-1.875l-.045.002ZM486.587,214.931c1.031,0,1.922.141,2.766.375v-.047c.703.188,1.453.375,2.156.469,11.109,1.875,30.703,10.828,45.797,19.641s26.156,16.875,26.156,16.875c3.562,2.625,7.828,4.172,12.234,4.453l232.13,14.016c6.234.375,12.328-1.781,16.922-5.953l1.875-1.688-5.016,31.641-283.08,8.578v-.047c-8.109.281-15.516,4.734-19.453,11.812l-89.344,159.42c-5.203,9.281-3.375,20.953,4.453,28.219l131.11,121.5c12.094,11.203,15.047,18.797,16.5,28.688,1.453,9.891,0,23.016-1.5,39.891l-13.266,153.42s-.703,5.578-3.609,10.734-3.891,8.156-14.625,8.156-11.719-3-14.625-8.156c-2.719-4.875-3.469-9.75-3.516-10.312l-.656-178.55h.047c-.047-7.875-4.031-15.188-10.688-19.406l-177.52-113.11c-26.391-23.719-29.672-44.344-28.641-61.078,1.078-16.922,7.641-27.656,7.641-27.656.094-.188.188-.328.328-.516l69.656-121.08c14.156-24.609,33.984-56.812,54.094-79.922,10.078-11.578,20.25-20.766,28.406-25.641,6.141-3.656,10.219-4.781,13.312-4.781l-.044.054Z"/>
  <path d="M306.177,407.816c-9.281-.891-18.188,3.938-22.547,12.234l-110.16,208.92L28.68,787.131l.469-.516s-13.125,12.984-21.844,32.109c-4.359,9.562-8.062,21.234-7.172,34.734s7.594,28.453,19.828,39.188c23.203,20.438,53.156,18.094,71.203,10.359,18.094-7.734,29.812-19.828,29.812-19.828l-.656.656,177.79-163.87h-.047c1.266-1.172,2.391-2.438,3.328-3.844l81.656-117.66c3.469-5.016,4.828-11.25,3.75-17.25-1.078-6.047-4.547-11.391-9.562-14.859-10.5-7.266-24.844-4.688-32.109,5.766l-80.203,115.59-175.92,162.14-.656.656s-6.75,6.375-15.328,10.031c-8.531,3.656-13.312,5.578-22.547-2.578-3.984-3.516-4.078-4.828-4.266-7.594s.797-7.453,3.094-12.469c4.594-10.078,12.938-19.078,12.938-19.078.141-.141.328-.328.469-.516l146.81-160.36c1.359-1.453,2.484-3.047,3.422-4.828l111.56-211.55h-.047c5.953-11.297,1.641-25.266-9.656-31.172-2.672-1.453-5.625-2.297-8.625-2.578l.007.006Z"/>
  <path d="M571.017.046c-40.406,1.594-78.891,24.562-98.016,63.188-27.844,56.109-4.641,124.82,51.469,152.68,56.156,27.844,124.87,4.688,152.72-51.469,27.844-56.156,4.641-124.87-51.469-152.68-17.531-8.672-36.328-12.422-54.656-11.672l-.048-.047ZM572.517,45.984c10.922-.375,22.078,1.875,32.672,7.125,33.797,16.734,47.344,57.047,30.609,90.797-16.734,33.797-57.047,47.344-90.797,30.609s-47.344-57.047-30.609-90.797c11.531-23.203,34.125-36.891,58.125-37.734Z"/>
  <path d="M896.718,68.576c-12.75,0-23.062,10.312-23.062,23.062v796.55c0,12.75,10.312,23.109,23.062,23.109,6.141,0,12-2.438,16.359-6.797,4.312-4.312,6.75-10.172,6.75-16.312V91.639c0-12.75-10.359-23.062-23.109-23.062h0Z"/>
</svg>