<?xml version="1.0" encoding="UTF-8"?>
<svg id="Layer_1" data-name="Layer 1" xmlns="http://www.w3.org/2000/svg" viewBox="0 0 1195.542 1200.005">
  <path d="M722.665,1011.146v-145.18c12.562,32.203,51.188,53.438,57.188,23.344,2.766-13.688,74.625-272.39,98.109-357.71l317.58-352.31V0h-184.74l-310.26,373.5-172.82,65.109c-35.203,9.328-62.25,36.234-62.25,36.234,0,0-111.89,94.875-127.97,131.68-16.078,36.75-20.484,213.66-22.547,246.32-2.062,32.664,47.859,19.875,71.156-12.141,1.547-2.109,2.859-4.828,4.125-7.781v189.1c0,17.109,18.656,34.406,39.844,39.234l-430.08.047v39.984h946.87v98.719h39.984v-138.71h-303.84c22.688-5.344,39.656-25.734,39.656-50.156l-.005.007ZM413.805,693.286c24.703-32.297,92.016-72,130.13-81.562,48.609-12.141,91.594,1.031,91.594,1.031,0,0,58.688,13.641,72.141,62.438,6.516,23.625,8.719,57.375,9.422,80.531-8.438-16.969-25.641-28.734-45.703-28.734l-229.97.047c-13.922,0-27.703,6-37.547,18.234,2.156-24.141,4.547-44.953,9.938-51.984h-.004ZM682.675,778.645v232.45c0,6.422-5.062,11.625-11.297,11.625l-229.97.047c-5.156,0-9.328-3.188-11.25-5.203v-228c0-5.297.797-22.594,11.25-22.594h229.97c6.188.047,11.297,5.25,11.297,11.672v.003Z"/>
  <path d="M245.055,398.856l-25.406-30.891c-53.391,43.969-78.609,125.63-72.938,186.52l-53.438-.281,73.594,88.078,74.484-87.281-54.375-.281c-5.391-45.141,11.531-117.47,58.078-155.86v-.004Z"/>
</svg>