<?xml version="1.0" encoding="UTF-8"?>
<svg id="Layer_1" data-name="Layer 1" xmlns="http://www.w3.org/2000/svg" viewBox="0 0 1049.989 1050.912">
  <path d="M525.94,1050.912c-47.625,0-96-6.75-143.26-19.875C104.05,952.287-58.69,661.667,19.68,383.037c37.875-135,126.37-247.13,248.63-315.74C390.57-1.32,532.31-18.203,667.31,20.047c278.63,78.375,441.37,369,363,647.63-37.875,135-126.37,247.13-248.63,315.74-79.5,44.625-167.26,67.125-255.74,67.125v.37ZM524.44,75.542c-76.125,0-151.13,19.5-219.37,57.75-105,58.875-180.74,154.87-213,270.37-67.125,238.87,72.375,487.87,310.87,555.37,115.5,32.625,237.37,18.375,342-40.5,105-58.875,180.74-154.87,213-270.37,67.125-238.87-72.375-487.87-310.87-555.37-40.5-11.25-81.75-17.25-122.63-17.25ZM551.815,815.042c3.375-3.75,6-7.875,7.875-12.375s3-9.375,3-14.25c0-9.75-4.125-19.5-10.875-26.625-13.875-13.875-39.375-13.875-53.25,0-6.75,7.125-10.875,16.875-10.875,26.625,0,4.875.75,9.75,3,14.25,1.875,4.5,4.5,8.625,7.875,12.375,7.125,6.75,16.875,10.875,26.625,10.875s19.5-4.125,26.625-10.875ZM562.69,675.912v-72.75c0-28.125,19.125-52.875,46.5-59.625,60-15,102.38-68.25,103.5-130.13v-2.25c-1.125-102.38-84.75-185.26-187.5-185.26s-187.5,84-187.5,187.5c0,20.625,16.875,37.5,37.5,37.5s37.5-16.875,37.5-37.5c0-61.875,50.625-112.5,112.5-112.5s111.75,49.875,112.5,111c-.375,27.75-19.5,51.75-46.5,58.5-60.75,15.375-103.5,69.75-103.5,132.37v72.75c0,20.625,16.875,37.5,37.5,37.5s37.5-16.875,37.5-37.5v.395Z"/>
</svg>