<?xml version="1.0" encoding="UTF-8"?>
<svg id="Layer_1" data-name="Layer 1" xmlns="http://www.w3.org/2000/svg" viewBox="0 0 704.346 1079.95">
  <defs>
    <style>
      .cls-1 {
        fill-rule: evenodd;
      }
    </style>
  </defs>
  <path class="cls-1" d="M432.45,736.496c-.051,47.102-38.301,85.352-85.398,85.352s-85.398-38.25-85.398-85.352c-.449-24.602-.699-39.398-.699-44.852,0-55.148,9.148-100.45,27.551-136.2,18.199-35.5,54.648-75.602,109.5-120.25,54.898-44.398,87.699-73.551,98.398-87.449,16.602-21.852,24.852-46,24.852-72.199,0-36.199-14.602-67.398-44-93.148-29.148-26-68.551-38.949-118.15-38.949-47.852,0-87.699,13.648-120,40.75-32.105,27.348-54.207,68.797-66.258,124.6-5.398,42.75-41.898,75.801-86.098,75.801-47.898,0-86.75-38.801-86.75-86.699,0-3.75.199-7.352.648-10.949,5-79.949,38.949-147.55,102.05-203.35C165.8,27.75,248.698,0,351.148,0c107.95,0,193.8,28.25,257.55,84.5,63.75,56.25,95.648,121.6,95.648,196.55,0,41.199-11.602,80.602-35.051,117.5-23.449,36.852-73.352,87.25-150.1,151-39.602,32.801-64.199,59.449-73.801,79.449-9.547,20.051-13.844,55.801-12.945,107.5v-.003ZM347.052,885.746c53.648,0,97.102,43.5,97.102,97.102s-43.449,97.102-97.102,97.102-97.102-43.449-97.102-97.102,43.449-97.102,97.102-97.102h0Z"/>
</svg>