<?xml version="1.0" encoding="UTF-8"?>
<svg id="Layer_1" data-name="Layer 1" xmlns="http://www.w3.org/2000/svg" viewBox="0 0 1000.128 849.835">
  <path d="M876.888,197.999l17.438-19.594,3.047,2.719c4.734,4.219,10.688,6.281,16.594,6.281,6.891,0,13.734-2.812,18.703-8.391,9.141-10.312,8.203-26.109-2.109-35.297l-43.453-38.625c-10.312-9.188-26.109-8.25-35.297,2.062-9.141,10.312-8.203,26.109,2.109,35.297l3.047,2.719-19.031,21.469c-54.094-37.453-118.41-60.75-187.87-65.391v-51.281h50.016c13.828,0,24.984-11.203,24.984-24.984s-11.156-24.984-24.984-24.984h-150c-13.828,0-24.984,11.203-24.984,24.984s11.156,24.984,24.984,24.984h50.016v51.281c-143.11,9.516-264.52,99.281-319.03,224.9-1.969-.516-3.844-1.219-5.953-1.219H100.135c-13.828,0-24.984,11.203-24.984,24.984s11.156,24.984,24.984,24.984h163.97c-8.859,31.922-13.969,65.344-13.969,99.984s5.109,68.109,13.969,99.984H100.135c-13.828,0-24.984,11.203-24.984,24.984s11.156,24.984,24.984,24.984h174.98c2.109,0,3.984-.703,5.953-1.219,57.703,132.94,190.13,226.22,344.06,226.22,206.76,0,375-168.24,375-375,0-109.73-47.719-208.36-123.1-276.98l-.14.144ZM624.988,799.969c-179.21,0-324.98-145.78-324.98-324.98s145.78-324.98,324.98-324.98,324.98,145.78,324.98,324.98-145.78,324.98-324.98,324.98Z"/>
  <path d="M649.968,465.739v-140.76c0-13.781-11.203-24.984-25.031-24.984s-24.984,11.203-24.984,24.984v154.18c0,8.344,4.219,16.172,11.156,20.812l96.891,64.594c4.266,2.859,9.094,4.219,13.828,4.219,8.062,0,16.031-3.891,20.812-11.109,7.688-11.484,4.594-27.047-6.938-34.688l-85.734-57.188v-.06Z"/>
  <path d="M249.988,249.979c13.828,0,24.984-11.203,24.984-24.984s-11.156-24.984-24.984-24.984h-99.984c-13.828,0-24.984,11.203-24.984,24.984s11.156,24.984,24.984,24.984h99.984Z"/>
  <path d="M199.968,474.979c0-13.781-11.156-24.984-24.984-24.984H24.984c-13.828,0-24.984,11.203-24.984,24.984s11.156,24.984,24.984,24.984h150c13.828,0,24.984-11.203,24.984-24.984Z"/>
  <path d="M274.968,699.979h-99.984c-13.828,0-24.984,11.203-24.984,24.984s11.156,24.984,24.984,24.984h99.984c13.828,0,24.984-11.203,24.984-24.984s-11.156-24.984-24.984-24.984Z"/>
  <path d="M624.988,187.499c-158.53,0-287.48,128.95-287.48,287.48s128.95,287.48,287.48,287.48,287.48-128.95,287.48-287.48-128.95-287.48-287.48-287.48ZM624.988,712.499c-130.97,0-237.52-106.55-237.52-237.52s106.55-237.52,237.52-237.52,237.52,106.55,237.52,237.52-106.55,237.52-237.52,237.52Z"/>
</svg>