<?xml version="1.0" encoding="UTF-8"?>
<svg id="Layer_1" data-name="Layer 1" xmlns="http://www.w3.org/2000/svg" viewBox="0 0 918.994 584.926">
  <defs>
    <style>
      .cls-1 {
        fill: #f40000;
        fill-rule: evenodd;
      }
    </style>
  </defs>
  <path d="M654.618,280.609c.216.065.376.246.41.47v253.409c-.149.065-.319.065-.468,0l-106.208-59.819c-4.431-2.463-9.418-3.755-14.486-3.753h-73.776c-.227,0-.41-.183-.41-.41v-125.619c0-.227.183-.41.41-.41h73.776c5.068.002,10.055-1.29,14.486-3.753l106.266-60.112M654.62,251.287c-5.187-.021-10.286,1.334-14.778,3.929l-105.973,59.936h-73.776c-7.886,0-15.448,3.133-21.025,8.709-5.576,5.576-8.709,13.138-8.709,21.025v125.619c0,7.886,3.133,15.448,8.709,21.025,5.576,5.576,13.138,8.709,21.025,8.709h73.776l105.973,59.936c4.44,2.564,9.475,3.919,14.602,3.929,7.896,0,15.469-3.14,21.045-8.728,5.578-5.59,8.704-13.166,8.688-21.065v-253.233c.015-7.898-3.11-15.475-8.688-21.065-5.576-5.588-13.149-8.728-21.045-8.728l.175.002Z"/>
  <path d="M830.321,584.922c-4.001.004-7.831-1.628-10.599-4.519-2.768-2.888-4.236-6.783-4.062-10.781.176-3.998,1.976-7.751,4.984-10.389,28.985-25.22,50.128-58.226,60.928-95.099,10.8-36.873,10.8-76.069,0-112.942-10.8-36.873-31.944-69.877-60.928-95.099-3.95-3.448-5.761-8.74-4.75-13.882,1.01-5.143,4.687-9.358,9.646-11.055,4.959-1.697,10.448-.619,14.398,2.827,33.197,28.903,57.414,66.715,69.779,108.959,12.369,42.244,12.369,87.148,0,129.387-12.367,42.244-36.583,80.052-69.779,108.959-2.648,2.358-6.075,3.652-9.618,3.637v-.003Z"/>
  <path d="M778.948,546.509c-4.097.002-8.007-1.711-10.784-4.723-2.776-3.011-4.167-7.046-3.833-11.13.332-4.082,2.358-7.84,5.586-10.362,23.027-17.848,40.027-42.327,48.709-70.14,8.681-27.811,8.627-57.615-.157-85.393-8.784-27.779-25.872-52.195-48.964-69.96-4.19-3.205-6.353-8.403-5.672-13.634.681-5.233,4.103-9.703,8.972-11.729,4.872-2.027,10.454-1.3,14.644,1.905,27.813,21.429,48.393,50.861,58.973,84.343,10.578,33.477,10.649,69.393.199,102.914-10.448,33.519-30.913,63.035-58.641,84.567-2.558,2.085-5.735,3.259-9.031,3.343h-.002Z"/>
  <path d="M726.694,507.393c-4.309-.01-8.396-1.915-11.173-5.21-2.778-3.295-3.967-7.644-3.249-11.893.718-4.25,3.268-7.969,6.975-10.168,16.947-9.984,29.848-25.604,36.451-44.133,6.604-18.527,6.489-38.786-.323-57.238-6.813-18.453-19.89-33.926-36.949-43.717-4.5-2.638-7.258-7.466-7.247-12.682.011-5.214,2.793-10.03,7.302-12.647,4.511-2.617,10.072-2.642,14.606-.065,23.01,13.212,40.645,34.086,49.829,58.978,9.184,24.894,9.332,52.219.416,77.212-8.913,24.989-26.326,46.054-49.189,59.511-2.251,1.348-4.826,2.058-7.449,2.052h-.001Z"/>
  <path d="M220.324,282.925c.212.064.369.242.403.461v248.962c-.146.064-.313.064-.46,0l-104.344-58.769c-4.353-2.419-9.252-3.689-14.232-3.687H29.21c-.223,0-.403-.18-.403-.403v-123.415c0-.223.18-.403.403-.403h72.482c4.98.002,9.878-1.268,14.232-3.687l104.402-59.057M220.325,254.117c-5.096-.021-10.105,1.311-14.518,3.86l-104.113,58.884H29.212c-7.748,0-15.177,3.078-20.656,8.556-5.478,5.478-8.556,12.908-8.556,20.656v123.415c0,7.748,3.078,15.177,8.556,20.656,5.478,5.478,12.908,8.556,20.656,8.556h72.482l104.113,58.884c4.362,2.519,9.308,3.85,14.346,3.86,7.757,0,15.197-3.085,20.676-8.575,5.48-5.492,8.551-12.935,8.535-20.695v-248.789c.015-7.759-3.055-15.203-8.535-20.695-5.478-5.49-12.919-8.575-20.676-8.575l.172.002Z"/>
  <path d="M291.135,505.728c-4.233-.009-8.249-1.881-10.977-5.118-2.729-3.237-3.897-7.51-3.192-11.685.705-4.175,3.211-7.829,6.853-9.989,16.649-9.809,29.324-25.155,35.812-43.359,6.488-18.202,6.375-38.105-.317-56.234-6.694-18.129-19.541-33.33-36.301-42.95-4.421-2.592-7.131-7.335-7.12-12.459.011-5.122,2.744-9.854,7.174-12.426,4.432-2.571,9.895-2.596,14.35-.064,22.606,12.981,39.932,33.488,48.955,57.943,9.023,24.457,9.168,51.303.409,75.857-8.757,24.551-25.864,45.245-48.326,58.467-2.211,1.324-4.741,2.022-7.318,2.016h0Z"/>
  <path class="cls-1" d="M175.935,159.997l42.692-42.692c2.211-2.211,5.797-2.211,8.008,0l21.071,21.071c2.211,2.211,2.211,5.797,0,8.008l-88.324,88.324c-2.211,2.211-5.797,2.211-8.008,0l-88.324-88.324c-2.211-2.211-2.211-5.797,0-8.008l21.071-21.071c2.211-2.211,5.797-2.211,8.008,0l42.692,42.692V5.662c0-3.134,2.538-5.662,5.662-5.662h29.789c3.124,0,5.662,2.528,5.662,5.662v154.335Z"/>
</svg>