<?xml version="1.0" encoding="UTF-8"?>
<svg id="Layer_1" xmlns="http://www.w3.org/2000/svg" version="1.1" viewBox="0 0 1200 1200">
  <!-- Generator: Adobe Illustrator 29.2.1, SVG Export Plug-In . SVG Version: 2.1.0 Build 116)  -->
  <defs>
    <style>
      .st0 {
        fill: #42a3ff;
      }

      .st0, .st1, .st2 {
        fill-rule: evenodd;
      }

      .st2 {
        fill: #9ba8bc;
      }
    </style>
  </defs>
  <path class="st2" d="M645,85c-40-5-91.5,22-91.5,22l-91.5-78-82.1,5-61.9,33.4-37.4,70.6v19l-83,23-25.6,73-101,48-49,72,6,80,43,70.8,73,12.2,109.9,8.7,59.1,46.3h695.9l95.1-90-18.2-117-53.8-42.8-77-17.2-37.2,8-35.1-69-64.7-48-50-6s-34.5-41.1-35.9-70-47.1-49-87.1-54Z"/>
  <path class="st1" d="M963.8,615.1H361.2c-84.9,0-154-69.1-154-154s70.3-154.9,155.4-154v-2.2c0-55.8,45.4-101.2,101.2-101.2s5.2,0,7.9.3c8.6-76.9,74-136.8,153-136.8s138.3,54.4,151.5,126.3c71,2.1,130,51.6,145.4,119.4,13.7-3.9,27.8-5.9,42.3-5.9,84.9,0,154,69.1,154,154s-69.1,154-154,154h-.1ZM361.2,339c-67.3,0-122.1,54.8-122.1,122.1s54.8,122.1,122.1,122.1h602.6c67.3,0,122.1-54.8,122.1-122.1s-54.8-122.1-122.1-122.1-33.3,3.4-48.7,10.1c-4.7,2.1-10.1,1.7-14.5-.9s-7.3-7.2-7.8-12.2c-5.9-63-58.1-110.5-121.5-110.5s-5.4,0-8.2.3c-8.5.6-16.2-6-16.9-14.6-5.2-62.7-58.6-111.8-121.7-111.8s-122.1,54.8-122.1,122.1v1.5c0,5-2.3,9.7-6.3,12.8-4,3-9.1,4-14,2.7-6-1.7-12.3-2.5-18.6-2.5-38.2,0-69.2,31.1-69.2,69.2s.6,10.7,1.8,15.9c1.2,5.2-.2,10.5-3.8,14.4s-8.8,5.8-14,5c-5.7-.8-11.5-1.2-17.3-1.2h0Z"/>
  <path class="st1" d="M963.8,544.7H361.2c-8.8,0-16-7.2-16-16s7.2-16,16-16h602.6c28.5,0,51.8-23.2,51.8-51.8s-23.2-51.8-51.8-51.8-16-7.1-16-16,7.2-16,16-16c46.1,0,83.7,37.5,83.7,83.7s-37.5,83.7-83.7,83.7h0Z"/>
  <path class="st1" d="M248,555.7h-93.8C69.3,555.7.2,486.6.2,401.8s70.1-154.7,155.4-154v-2.2c0-55.8,45.4-101.2,101.2-101.2s5.2,0,7.9.3C273.2,67.9,338.6,8,417.7,8s117.9,37.1,142,94.5c2.9,6.9.6,14.9-5.5,19.2-32.1,22.7-51.3,59.6-51.6,98.8.1.8.2,1.6.2,2.5,0,8.8-7.2,16-16,16h-.2c-1.5,0-2.9-.2-4.3-.6-6-1.7-12.3-2.5-18.6-2.5-38.2,0-69.2,31.1-69.2,69.2s.5,9.2,1.4,13.7c.7,1.8,1.1,3.8,1.1,5.8,0,8.8-7.1,16-16,16h-.2c-.8,0-1.5,0-2.2-.1-5.7-.8-11.5-1.2-17.3-1.2-67.3,0-122.1,54.8-122.1,122.1s7.1,47.8,20.6,67.9c2.6,2.8,4.2,6.6,4.2,10.8,0,8.8-7.1,16-15.9,16h0ZM154.2,279.7c-67.3,0-122.1,54.8-122.1,122.1s54.8,122.1,122.1,122.1h66.3c-8.8-19.6-13.3-40.9-13.3-62.7,0-85.4,70.3-154.8,155.4-154v-2.2c0-55.8,45.4-101.2,101.2-101.2s5.3,0,7.9.3c4.4-38.9,23.5-74.8,53.4-100.2-21.2-39.2-62.1-64-107.4-64-67.3,0-122.1,54.8-122.1,122.1v1.5c0,5-2.3,9.7-6.3,12.8-4,3-9.1,4-14,2.7-6-1.7-12.3-2.5-18.6-2.5-38.2,0-69.2,31.1-69.2,69.2s.6,10.7,1.8,15.8-.2,10.5-3.8,14.4c-3.6,3.9-8.8,5.8-14,5-5.7-.8-11.6-1.2-17.4-1.2h0Z"/>
  <polygon class="st0" points="163 673 144 807.5 216 852 262.2 771 163 673"/>
  <polygon class="st0" points="398.9 718 379.9 852.4 451.9 897 498.1 816 398.9 718"/>
  <polygon class="st0" points="632.9 777.6 613.9 912.1 685.9 956.6 732.1 875.6 632.9 777.6"/>
  <polygon class="st0" points="909.7 714.9 890.7 849.3 962.7 893.9 1008.9 812.9 909.7 714.9"/>
  <polygon class="st0" points="842.6 970.6 823.6 1105.1 895.6 1149.6 941.8 1068.6 842.6 970.6"/>
  <polygon class="st0" points="520.8 1003.9 501.8 1138.4 573.8 1182.9 620.1 1101.9 520.8 1003.9"/>
  <polygon class="st0" points="1089.9 889.4 1070.9 1023.9 1142.9 1068.4 1189.1 987.4 1089.9 889.4"/>
  <polygon class="st0" points="272.9 948.7 253.9 1083.2 325.9 1127.7 372.1 1046.7 272.9 948.7"/>
  <path class="st1" d="M431.5,906c-34,0-63.9-23-72.7-55.9-5.8-21.8,5.2-68.2,19.1-122,2.4-9.2,4.4-17.1,5.7-22.7,1.3-5.8,5.7-10.4,11.5-11.9,5.7-1.5,11.8.3,15.8,4.6,3.9,4.3,9.6,10.1,16.2,16.9,38.7,39.9,71.2,74.7,77.1,96.5,10.6,40.1-13.3,81.3-53.4,92-6.3,1.7-12.8,2.5-19.3,2.5h0ZM407.7,740.8c-7.5,29.1-21.8,86.5-18,101.2,5,18.9,22.2,32.2,41.8,32.2s7.5-.5,11.1-1.5c23.1-6.1,36.8-29.9,30.7-52.9-3.9-14.7-44.8-57.4-65.7-79h0Z"/>
  <path class="st1" d="M553.1,1192c-34,0-63.9-23-72.7-55.9-5.8-21.8,5.2-68.2,19.1-122,2.4-9.2,4.4-17.1,5.7-22.7,1.3-5.8,5.7-10.4,11.5-11.9,5.7-1.5,11.8.2,15.8,4.6,3.9,4.3,9.6,10.1,16.2,16.9,38.7,39.9,71.2,74.7,77.1,96.5,10.6,40.1-13.3,81.3-53.4,92-6.3,1.7-12.8,2.5-19.3,2.5h0ZM529.2,1026.7c-7.5,29.1-21.8,86.5-18,101.2,5,18.9,22.2,32.2,41.8,32.2s7.5-.5,11.1-1.5c23.1-6.1,36.8-29.9,30.7-52.9-3.9-14.7-44.8-57.5-65.7-79h0Z"/>
  <path class="st1" d="M663.7,964c-34,0-63.9-23-72.7-55.9-5.8-21.8,5.2-68.2,19.1-122,2.4-9.2,4.4-17.1,5.7-22.7,1.3-5.8,5.7-10.4,11.5-11.9,5.7-1.5,11.9.3,15.8,4.6,3.9,4.3,9.6,10.1,16.2,16.9,38.7,39.9,71.2,74.7,77.1,96.5,10.6,40.1-13.3,81.3-53.4,92-6.3,1.7-12.8,2.5-19.3,2.5h0ZM639.9,798.8c-7.5,29.1-21.8,86.4-17.9,101.2,5,18.9,22.2,32.2,41.8,32.2s7.5-.5,11.1-1.5c23.1-6.1,36.8-29.9,30.7-52.9-3.9-14.7-44.8-57.4-65.7-79h0Z"/>
  <path class="st1" d="M874.5,1158.7c-34,0-63.9-23-72.7-55.9-5.8-21.8,5.2-68.2,19.1-122,2.4-9.2,4.4-17.1,5.7-22.7,1.3-5.8,5.8-10.4,11.5-11.9s11.8.3,15.8,4.6c3.9,4.3,9.6,10.1,16.2,16.9,38.8,39.9,71.3,74.7,77.1,96.6,10.6,40.1-13.3,81.3-53.4,92-6.3,1.7-12.8,2.5-19.3,2.5h0ZM850.7,993.5c-7.5,29.1-21.8,86.4-18,101.2,5,18.9,22.2,32.2,41.8,32.2s7.5-.5,11.2-1.5c23.1-6.1,36.8-29.9,30.7-52.9-3.9-14.7-44.8-57.4-65.7-79h0Z"/>
  <path class="st1" d="M941.4,903c-34,0-63.9-23-72.7-55.9-5.8-21.8,5.2-68.2,19.1-122.1,2.4-9.2,4.4-17.1,5.7-22.7,1.3-5.8,5.7-10.4,11.5-11.9,5.7-1.5,11.8.2,15.8,4.6,3.9,4.2,9.6,10,16.1,16.8,38.8,39.9,71.3,74.8,77.2,96.6,5.2,19.4,2.4,39.7-7.6,57s-26.3,29.8-45.8,34.9c-6.3,1.7-12.8,2.5-19.3,2.5h0ZM917.5,737.7c-7.5,29.1-21.8,86.5-18,101.2,5,18.9,22.2,32.2,41.8,32.2s7.5-.5,11.1-1.5c11.2-3,20.5-10.1,26.3-20.1,5.8-10,7.4-21.7,4.4-32.8-3.9-14.7-44.8-57.4-65.7-79h0Z"/>
  <path class="st1" d="M1124.5,1080.2c-34,0-63.9-23-72.7-55.9-5.8-21.8,5.2-68.2,19.1-122,2.4-9.2,4.4-17.1,5.7-22.7,1.3-5.8,5.8-10.4,11.5-11.9s11.9.2,15.8,4.6c3.9,4.3,9.6,10.1,16.2,16.9,38.7,39.9,71.2,74.7,77.1,96.5,5.2,19.4,2.4,39.7-7.7,57-10.1,17.3-26.3,29.8-45.8,34.9-6.3,1.7-12.8,2.5-19.3,2.5h0ZM1100.6,915c-7.5,29.1-21.8,86.5-18,101.2,5,18.9,22.2,32.2,41.8,32.2s7.5-.5,11.2-1.5c11.2-3,20.5-10.1,26.3-20.1,5.8-10,7.4-21.7,4.4-32.8-3.9-14.7-44.8-57.4-65.7-79h0Z"/>
  <path class="st1" d="M304.7,1136.8c-34,0-63.9-23-72.7-55.9-5.8-21.8,5.2-68.2,19.1-122.1,2.4-9.2,4.4-17.1,5.7-22.7,1.3-5.8,5.8-10.4,11.5-11.9s11.8.3,15.8,4.6c3.9,4.3,9.6,10.1,16.2,16.9,38.7,39.9,71.2,74.7,77.1,96.5,10.6,40.1-13.3,81.3-53.4,92-6.3,1.7-12.8,2.5-19.3,2.5h0ZM280.8,971.5c-7.5,29.1-21.8,86.5-18,101.2,5,18.9,22.2,32.2,41.8,32.2s7.5-.5,11.1-1.5c23.1-6.1,36.8-29.9,30.7-52.9-3.9-14.7-44.8-57.4-65.7-79h0Z"/>
  <path class="st1" d="M197.1,863.3c-34,0-63.9-23-72.7-55.9-5.8-21.8,5.2-68.2,19.1-122,2.4-9.2,4.4-17.1,5.7-22.7,1.3-5.8,5.7-10.4,11.5-11.9,5.7-1.5,11.8.2,15.8,4.6,3.9,4.3,9.6,10.1,16.2,16.9,38.7,39.9,71.2,74.7,77.1,96.5,5.2,19.4,2.4,39.7-7.6,57-10.1,17.3-26.3,29.8-45.8,34.9-6.3,1.7-12.8,2.5-19.3,2.5h0ZM173.2,698c-7.5,29.1-21.8,86.5-18,101.2,5,18.9,22.2,32.2,41.8,32.2s7.5-.5,11.1-1.5c11.2-3,20.5-10.1,26.3-20.1,5.8-10,7.4-21.7,4.4-32.8-3.9-14.7-44.8-57.5-65.7-79h0Z"/>
  <path class="st2" d="M-244,79"/>
</svg>