<?xml version="1.0" encoding="UTF-8"?>
<svg width="1200pt" height="1200pt" version="1.1" viewBox="0 0 1200 1200" xmlns="http://www.w3.org/2000/svg">
 <path d="m499.78 1092.1c-123.79-39.984-247.5-71.391-371.21-78.328-29.953-1.4062-53.484-26.109-53.484-56.109-0.09375-100.55-0.09375-383.48-0.09375-487.45 0-15.422 6.3281-30.188 17.484-40.781 11.156-10.641 26.25-16.219 41.578-15.422h0.1875c5.25 0.32812 10.547 0.65625 15.797 1.0781v-40.125c0-9 6.3281-16.734 15.188-18.422 48.516-9.2812 119.2-4.2188 209.68 14.109 26.297-19.547 58.453-31.547 93.141-33.047-22.031-27.656-35.203-62.672-35.203-100.69 0-89.391 72.562-161.95 161.9-161.95 89.391 0 161.95 72.562 161.95 161.95 0 37.969-13.078 72.938-35.016 100.55h3.0938c32.391 0 62.953 9.1875 88.875 25.312 71.625-16.359 144.1-25.734 217.69-25.312 10.266 0.046875 18.609 8.3906 18.609 18.703 0 0 0.1875 35.719 0.1875 59.484 4.9688-0.375 10.031-0.75 15-1.0781h0.1875c15.422-0.98438 30.609 4.5 41.953 15.141 11.297 10.594 17.719 25.406 17.719 40.922v488.48c0 29.156-22.312 53.484-51.234 56.016-124.69 11.672-249.42 42.422-374.02 79.734-0.42188 0.14062-0.79688 0.23438-1.2188 0.32812-30.938 9.2812-61.922 18.984-92.812 28.875-3.8438 1.2188-8.0625 1.1719-11.859-0.14062-30.891-10.828-61.781-21.375-92.672-31.359-0.51562-0.14062-0.9375-0.28125-1.4062-0.46875zm-333.05-638.02c-11.578-1.0781-23.016-1.9219-34.594-2.625-5.0625-0.23438-10.125 1.5938-13.828 5.1562-3.7031 3.5156-5.8125 8.4375-5.8125 13.594 0 103.97 0 386.9 0.046875 487.45 0 9.9375 7.875 18.188 17.812 18.656h0.1875c118.97 6.7031 238.03 35.25 357 72.562v-524.26c-46.359-14.812-93.422-28.172-141.74-39.516-12.188-2.8594-24.422-5.5781-36.656-8.1562-46.219-9.7031-93.656-17.531-142.4-22.875zm175.74-51.984c-63.516-11.672-115.5-15.609-154.97-11.062v27.422c44.391 4.7344 88.594 11.953 132.71 21.328 12.422 2.625 24.891 5.4375 37.406 8.4375 51.375 12.234 102.66 27.188 153.79 44.156 0.51562 0.14062 1.0312 0.32812 1.5 0.51562 27.844 9.2344 55.688 19.125 83.531 29.484 4.6406-2.7656 10.922-5.7656 18.516-8.8125 33.328-13.172 100.03-32.906 170.34-51.234 16.969-4.5 33.984-8.8125 50.953-12.891 2.0156-0.51562 4.125-1.0312 6.1406-1.5 12.656-3.0938 25.078-6.0469 37.219-8.8594 18.562-4.2656 36.281-8.1562 52.641-11.531 33.844-6.8906 62.203-11.391 80.344-12.656 0-12.375 0-27.891-0.09375-39.844-54.656 0.9375-108.75 7.4531-162.32 18.188-14.766 2.9531-29.531 6.2344-44.203 9.7969-66.984 16.312-133.22 38.625-199.13 64.406-3.9844 1.5469-8.3438 1.6875-12.516 0.42188-78.188-24.609-148.08-43.828-209.06-57.141-14.766-3.2344-29.016-6.0938-42.797-8.625zm167.68-27.141h-34.828c-15.703 0-30.891 2.8125-45 7.9688 51.141 12.234 107.58 28.031 169.03 47.203 51.047-19.828 102.33-37.547 154.03-52.031-9.1875-2.0625-18.797-3.1406-28.594-3.1406h-45.375c-24.656 15.141-53.578 23.859-84.656 23.859-30.938 0-59.953-8.7188-84.609-23.859zm157.87-37.5c31.031-22.641 51.188-59.25 51.188-100.55 0-68.719-55.734-124.45-124.45-124.45-68.672 0-124.45 55.734-124.45 124.45 0 41.297 20.203 77.906 51.234 100.55 20.578 15 45.891 23.859 73.219 23.859 27.422 0 52.734-8.8594 73.266-23.859zm44.438 714.52c119.34-34.828 238.55-63 357.74-74.203h0.1875c9.7031-0.84375 17.109-8.9531 17.109-18.656 0-99.094 0-383.63-0.046876-488.48 0-5.1562-2.1094-10.078-5.9062-13.594-3.75-3.5625-8.8125-5.3906-13.922-5.0625-11.156 0.75-22.219 1.6406-33.281 2.6719-48.75 4.5-96.516 11.719-143.58 21.234-12.234 2.4844-24.469 5.1094-36.609 7.9219-7.6875 1.7344-15.375 3.5625-22.969 5.4375-4.875 1.1719-9.7031 2.3906-14.531 3.6094-35.062 9-69.844 19.172-104.2 30.375zm-187.45 8.9531c25.031 8.2031 50.203 16.781 75.234 25.5 24.891-7.9219 49.875-15.703 74.766-23.25v-527.29c-22.875 8.0156-45.562 16.453-68.156 25.312-4.2188 1.6406-9.0469 1.6875-13.359 0.09375l-0.046875-0.046876c-22.734-8.3438-45.516-16.453-68.438-24.234z" fill-rule="evenodd"/>
</svg>
