<?xml version="1.0" encoding="UTF-8"?><svg id="Layer_1" xmlns="http://www.w3.org/2000/svg" viewBox="0 0 937.343 1050"><defs><style>.cls-1{fill:red;}</style></defs><polygon class="cls-1" points="363.593 220 363.593 594 468.671 594 468.671 884 537.593 944 617.593 891 646.593 757 745.593 760 794.593 1020 910.593 1011 901.593 29 482.593 34 468.671 226 363.593 220"/><path d="M843.593,1050c51.703,0,93.75-42.047,93.75-93.75V93.75c0-51.703-42.047-93.75-93.75-93.75h-300c-51.703,0-93.75,42.047-93.75,93.75v112.5h-142.78c-26.25,0-47.625,21.328-47.625,47.578v69.656c.328,13.688-12.281,25.594-25.875,24.469l-156.32-8.672c-20.156-.938-39.656,5.953-54.469,19.922-49.5,44.859-12.375,131.58,54.469,126.47l156.32-8.672c13.641-.984,26.156,10.734,25.875,24.469v69.656c0,26.25,21.328,47.578,47.625,47.578h274.03c10.359,0,18.75-8.391,18.75-18.75V224.954c0-10.359-8.391-18.75-18.75-18.75h-93.75v-112.5c0-31.031,25.219-56.25,56.25-56.25h300c31.031,0,56.25,25.219,56.25,56.25v862.5c-1.969,74.016-110.44,74.344-112.5,0v-131.26c-4.547-124.26-183.14-123.89-187.5,0v37.5c-1.875,73.969-110.53,74.344-112.5,0v-236.444c-.422-24.703-37.125-24.562-37.5,0v236.444c4.312,123.89,183.05,124.22,187.5,0v-37.5c0-31.031,25.219-56.25,56.25-56.25s56.25,25.219,56.25,56.25v131.26c0,51.703,42.047,93.75,93.75,93.75v.046ZM562.333,331.26h-38.953c-10.359,0-18.75,8.391-18.75,18.75s8.391,18.75,18.75,18.75h38.953v87.516h-38.953c-10.359,0-18.75,8.391-18.75,18.75s8.391,18.75,18.75,18.75h38.953v87.516h-255.28c-5.578,0-10.125-4.5-10.125-10.078v-69.656c.75-34.594-30.984-64.547-65.438-61.922l-156.32,8.672c-32.062,3.047-51.047-40.453-26.625-61.781,7.219-6.844,16.734-10.359,26.625-9.75l156.32,8.672c34.781,2.672,66.047-27.328,65.438-61.922v-69.656c0-5.578,4.547-10.078,10.125-10.078h38.953v252.1c.375,24.609,37.078,24.703,37.5,0v-252.1h178.82v87.516l.007-.049Z"/></svg>