<?xml version="1.0" encoding="UTF-8"?>
<svg width="1200pt" height="1200pt" version="1.1" viewBox="0 0 1200 1200" xmlns="http://www.w3.org/2000/svg">
 <path d="m52.781 259.69h505.22v396.24c-17.156-21.938-42.703-35.531-71.156-37.922 78.234-159.61-125.39-305.63-252-178.22-99.844 104.62-14.062 278.16 129.24 262.69-9.7031 34.922-2.625 73.219 21.141 102.47l39.375 48.469c29.531 36.375 83.297 68.625 133.31 82.219v24.469h-45.609l-315.84-314.39c-7.0781-6.9375-18.469-6.9375-25.453 0-6.9375 7.0781-6.9375 18.469 0 25.453l312.24 310.92-62.859 140.86c-4.0781 9.1406 0 19.688 9.1406 23.766 8.8594 4.0781 19.688 0 23.766-9.1406l63.234-141.61h41.297v134.29c0 9.9375 8.0625 18 18 18s18-8.0625 18-18v-134.29h304.55l52.781 140.63c8.7656 22.078 41.625 9.4688 33.703-12.703l-40.219-107.06 193.69 105.38c8.5312 4.6875 19.688 1.5469 24.375-7.2188 4.7812-8.7656 1.5469-19.688-7.2188-24.375l-236.16-128.53c-2.625-1.3125-5.5312-2.1562-8.625-2.1562h-317.06v-18l54.469 4.3125c27.141 2.0625 53.859-5.5312 75.938-21.609 32.297-1.5469 86.859-2.8594 127.08 1.7812 32.391 3.7031 117.61 40.922 167.63 66 31.688 16.453 73.219 2.7656 88.547-29.391 16.312-32.531 3.1406-72.234-29.391-88.547-8.0625-4.0781-27.469-13.547-52.078-24.703-47.297-83.625-118.92-149.53-158.29-156.14-40.219-8.8594-83.859 6.8438-123.37 30.234 0-4.3125-0.23437-8.7656-0.84375-13.078-9.4688-50.156-63.469-62.156-104.39-39.703-13.312 5.7656-26.062 12.469-38.156 20.297-2.3906-1.5469-4.9219-3-7.2188-4.5469l0.09375-427.13h505.22c7.3125 0 13.781-4.4531 16.688-11.156 2.8594-6.7031 1.2188-14.531-3.8438-19.547-91.312-91.547-400.92-177.61-535.92-177.61s-438.24 82.922-535.45 177.32c-11.391 10.547-3.2344 31.453 12.609 30.938zm339.61 220.78 11.297 12.938c3.9375 4.5469 3.4688 11.531-1.0781 15.469l-5.625 4.9219c-4.4531 3.9375-11.625 3.4688-15.469-1.0781l-11.297-12.938 22.219-19.312zm467.9 248.53c27 5.8594 64.312 39.609 106.69 95.766-39.609-15.234-75.375-27.469-108.23-30-11.391-10.781-22.547-8.625-37.453-2.625-17.297-0.70312-36-0.84375-56.391-0.60938-3.4688-10.547-8.3906-20.156-14.297-28.688 38.859-25.312 78.375-40.781 109.69-33.938zm-251.76 1.3125 3.4688-2.625c12.703-9.1406 26.391-16.781 41.297-23.156 5.3906-2.1562 10.781-4.4531 16.453-6.375 15.938-6.2344 35.625 1.4531 38.531 18.844 2.8594 18.141-7.4531 33.703-18.469 37.688-4.2188 1.4531-8.5312 3.2344-12.609 4.9219-15.703 6.8438-29.531 14.859-41.391 26.531-9.7031 10.688-20.391 23.859-34.219 27.844-50.531 14.297-124.08-39.234-162.61-66-19.453-13.453-39.938 15.234-20.859 29.297 49.078 34.078 128.39 91.219 194.76 70.922 18.141-5.0625 35.766-21.141 47.859-36.141 2.3906-2.3906 5.625-5.0625 8.3906-7.0781 6.6094-4.6875 14.062-8.7656 21.703-12 9.2344-3.7031 19.312-6.8438 27.141-13.453 7.4531 9.375 12.938 20.859 15.703 34.219 1.7812 8.5312 8.8594 14.766 18.141 14.391 44.531-1.0781 81.938 0 111 3.4688 50.531 5.8594 149.16 50.297 199.55 75.609 34.688 18.609 9.2344 70.078-26.859 53.625-35.156-17.625-135.94-64.453-179.63-69.609-41.625-4.9219-97.688-3.8438-138.71-1.6875-3.8438 0.23438-7.4531 1.5469-10.453 3.9375-15.703 12.844-35.297 19.078-55.219 17.391l-54.938-4.3125c-47.766-3.7031-113.53-38.297-143.63-75.469l-39.375-48.469c-22.219-27.375-23.156-66.469-2.2969-95.156 4.6875-6.4688 4.5469-15.141-0.23438-21.469-4.7812-6.375-13.219-8.7656-20.625-6-43.688 16.453-91.688 6.7031-125.29-25.312-99.234-99.703 16.922-256.45 140.63-191.76l-3 2.5312c-10.781-3.2344-23.062-1.2188-32.156 6.8438l-25.219 21.844c-9.1406 7.9219-12.938 19.781-11.156 30.938l-54.609 47.391c-7.4531 6.4688-8.2969 17.859-1.7812 25.453 6.6094 7.5469 17.859 8.2969 25.453 1.7812l50.625-44.062c18.375 22.922 53.297 21.938 72.703 0.70312 19.922-17.297 21.609-47.766 3.8438-67.219l4.4531-3.8438c42.938 45.141 44.625 115.31 2.625 162.37-5.2969 6-6 14.766-1.7812 21.469s12.469 9.9375 20.156 7.7812c27.938-7.9219 56.391-0.14062 72.609 19.688 11.297 13.922 26.297 27 43.219 38.625l-0.70312 0.70312s-0.375-0.14062-0.46875-0.23438c-20.297-9-45.375-24.234-74.531-45.375-19.312-13.547-40.078 14.859-21.141 29.156 31.547 22.922 58.078 38.859 81.234 49.219 5.8594 2.5312 14.062 5.8594 25.453 3.6094 7.5469-2.0625 11.625-7.2188 13.312-9.375l5.8594-5.7656c2.625-2.5312 5.5312-4.5469 8.2969-6.7031zm-166.08-506.63h-167.86c53.766-52.219 154.69-103.31 233.76-125.16-27.234 33.141-52.688 79.547-66 125.16zm267.24 0c-12.938-45.703-38.297-92.156-65.625-125.29 79.922 21.844 181.08 72.938 234 125.29zm336.47 0h-120.47c-25.453-34.312-70.312-68.391-121.22-97.078 91.922 25.688 183.84 60.938 241.69 97.078zm-374.16 0h-191.86c24.703-75.375 79.547-135.71 95.859-136.31 14.859 0.46875 71.391 60.469 96 136.31zm-324.14-96.75c-50.766 28.547-95.625 62.531-121.55 96.703h-119.62c58.453-35.859 149.86-71.062 241.22-96.703z"/>
</svg>
