<?xml version="1.0" encoding="UTF-8"?>
<svg id="Layer_1" data-name="Layer 1" xmlns="http://www.w3.org/2000/svg" viewBox="0 0 1112.923 1147.69">
  <defs>
    <style>
      .cls-1 {
        fill-rule: evenodd;
      }
    </style>
  </defs>
  <path class="cls-1" d="M418.123,183.704H123.702c-16.594,0-30.094,13.453-30.094,30.047v86.906h-18.984c-4.734,0-9.047,2.906-10.828,7.312L.937,462.469c-.141.375-.281.75-.422,1.125-.094.422-.234.844-.328,1.312-.047.375-.141.75-.141,1.125v.094c-.047.281-.047.609-.047.938v28.781c0,18.188,14.766,32.906,32.953,32.906h60.656v516.94h-47.062c-22.969,0-41.578,18.609-41.578,41.531v48.75c0,6.469,5.25,11.719,11.719,11.719h1079.5c6.469,0,11.719-5.25,11.719-11.719v-48.75c0-22.922-18.656-41.531-41.578-41.531h-47.109v-516.94h60.75c18.188,0,32.953-14.719,32.953-32.906v-29.156c-.047-1.5-.375-2.906-.938-4.219l-62.859-154.5c-1.781-4.406-6.094-7.312-10.828-7.312h-19.078v-86.906c0-16.594-13.453-30.047-30.047-30.047h-294.42c3.656-12.656,5.578-26.016,5.578-39.844C700.332,64.454,635.879,0,556.472,0s-143.9,64.453-143.9,143.86c0,13.828,1.922,27.188,5.578,39.844h-.027ZM1084.443,1124.254H28.443v-37.031c0-9.984,8.109-18.094,18.141-18.094h1019.8c9.984,0,18.141,8.109,18.141,18.094l-.082,37.031ZM677.282,521.014c-5.719,4.828-13.125,7.734-21.188,7.734h-199.31c-8.062,0-15.469-2.906-21.188-7.734-5.766,4.828-13.172,7.734-21.234,7.734h-169.5c-8.109,0-15.516-2.906-21.234-7.734-5.719,4.828-13.125,7.734-21.188,7.734h-85.406v516.94h69.844v-349.22c0-16.594,13.5-30.094,30.094-30.094h203.53c16.641,0,30.141,13.5,30.141,30.094v349.22h545.11v-516.94h-85.312c-8.062,0-15.469-2.906-21.188-7.734-5.719,4.828-13.125,7.734-21.234,7.734h-169.5c-8.062,0-15.469-2.906-21.234-7.734h-.003ZM329.842,1045.694h-119.53v-349.22c0-3.656,2.953-6.656,6.656-6.656h203.53c3.703,0,6.703,3,6.703,6.656v349.22h-97.359ZM978.032,678.094c0-6.469-5.25-11.719-11.719-11.719h-471.84c-6.469,0-11.719,5.25-11.719,11.719v322.87c0,6.469,5.25,11.719,11.719,11.719h471.84c6.469,0,11.719-5.25,11.719-11.719v-322.87ZM954.594,689.813v299.44h-448.4v-299.44h448.4ZM718.675,879.473v85.219c0,6.469,5.25,11.719,11.719,11.719s11.719-5.25,11.719-11.719v-85.219h108.66c6.469,0,11.719-5.25,11.719-11.719s-5.25-11.719-11.719-11.719h-240.74c-6.469,0-11.719,5.25-11.719,11.719s5.25,11.719,11.719,11.719h108.642ZM556.625,925.317h55.641v39.375c0,6.469,5.25,11.719,11.719,11.719s11.719-5.25,11.719-11.719v-51.094c0-6.469-5.25-11.719-11.719-11.719h-67.359v-105.56c0-6.469-5.25-11.719-11.719-11.719s-11.719,5.25-11.719,11.719v168.37c0,6.469,5.25,11.719,11.719,11.719s11.719-5.25,11.719-11.719v-39.372ZM904.155,901.879h-67.359c-6.469,0-11.719,5.25-11.719,11.719v51.094c0,6.469,5.25,11.719,11.719,11.719s11.719-5.25,11.719-11.719v-39.375h55.641v39.375c0,6.469,5.297,11.719,11.719,11.719,6.469,0,11.719-5.25,11.719-11.719v-168.37c0-6.469-5.25-11.719-11.719-11.719-6.422,0-11.719,5.25-11.719,11.719v105.557ZM390.415,848.723v38.062c0,6.469,5.25,11.719,11.719,11.719s11.719-5.25,11.719-11.719v-38.062c0-6.469-5.25-11.719-11.719-11.719s-11.719,5.25-11.719,11.719ZM23.435,478.783v17.062c0,5.25,4.266,9.469,9.516,9.469h169.5c5.25,0,9.469-4.219,9.469-9.469v-17.062H23.435ZM235.355,478.783v17.062c0,5.25,4.266,9.469,9.516,9.469h169.5c5.203,0,9.516-4.219,9.516-9.469v-17.062h-188.531ZM689.015,495.845c0,5.25,4.312,9.469,9.516,9.469h169.5c5.25,0,9.516-4.219,9.516-9.469v-17.062h-188.53v17.062ZM900.985,478.783v17.062c0,5.25,4.219,9.469,9.469,9.469h169.5c5.25,0,9.516-4.219,9.516-9.469v-17.062h-188.484ZM447.325,495.845c0,5.25,4.219,9.469,9.469,9.469h199.31c5.25,0,9.469-4.219,9.469-9.469v-17.062h-218.26l.012,17.062ZM269.145,324.105H82.535l-53.438,131.26h186.66l53.388-131.26ZM294.411,324.105l-53.344,131.26h186.66l53.344-131.26h-186.66ZM506.381,324.105l-53.391,131.26h206.9l-53.391-131.26h-100.118ZM631.821,324.105l53.344,131.26h186.66l-53.344-131.26h-186.66ZM843.74,324.105l53.391,131.26h186.66l-53.438-131.26h-186.613ZM427.161,207.155H123.691c-3.656,0-6.656,2.953-6.656,6.609v86.906h878.72v-86.906c0-3.656-2.953-6.609-6.609-6.609h-303.52c-23.438,47.719-72.516,80.625-129.19,80.625s-105.84-32.906-129.28-80.625h.006ZM556.441,23.445c66.469,0,120.42,53.953,120.42,120.42s-53.953,120.47-120.42,120.47-120.47-53.953-120.47-120.47,53.953-120.42,120.47-120.42h0ZM597.128,162.185v66.938c0,6.469,5.25,11.719,11.719,11.719s11.719-5.25,11.719-11.719v-66.938c15.188-6.375,27.234-24.656,27.234-47.484,0-28.406-18.656-49.828-38.953-49.828s-38.906,21.422-38.906,49.828c0,22.828,12,41.109,27.188,47.484h0ZM518.753,136.966v-60.375c0-6.469-5.25-11.719-11.719-11.719s-11.719,5.25-11.719,11.719v60.375c-4.125-3.422-6.75-8.578-6.75-14.344v-46.031c0-6.469-5.297-11.719-11.719-11.719-6.469,0-11.719,5.25-11.719,11.719v46.031c0,19.078,12.75,35.203,30.188,40.312v66.188c0,6.469,5.25,11.719,11.719,11.719s11.719-5.25,11.719-11.719v-66.188c17.484-5.109,30.281-21.234,30.281-40.312v-46.031c0-6.469-5.25-11.719-11.719-11.719s-11.719,5.25-11.719,11.719v46.031c0,5.766-2.625,10.922-6.844,14.344h0ZM608.847,88.31c3.891,0,7.125,2.672,9.703,6.281,3.703,5.109,5.812,12.281,5.812,20.109s-2.109,15-5.812,20.156c-2.578,3.609-5.812,6.234-9.703,6.234s-7.125-2.625-9.703-6.234c-3.703-5.156-5.766-12.328-5.766-20.156s2.062-15,5.766-20.109c2.578-3.609,5.812-6.281,9.703-6.281Z"/>
</svg>