<?xml version="1.0" encoding="UTF-8"?>
<svg id="Layer_1" data-name="Layer 1" xmlns="http://www.w3.org/2000/svg" viewBox="0 0 798.421 912.13">
  <path d="M73.081,86.681c12.463,0,22.628-10.125,22.628-22.628s-10.164-22.628-22.628-22.628-22.628,10.125-22.628,22.628,10.164,22.628,22.628,22.628ZM73.081,49.613c7.987,0,14.44,6.494,14.44,14.44s-6.494,14.44-14.44,14.44-14.44-6.494-14.44-14.44,6.453-14.44,14.44-14.44Z"/>
  <path d="M44.363,186.35c1.331,0,2.622-.242,3.792-.646v80.994c0,7.987,6.494,14.48,14.48,14.48,4.074,0,7.744-1.734,10.407-4.437,2.622,2.743,6.333,4.437,10.407,4.437,7.987,0,14.48-6.494,14.48-14.48v-80.953c1.211.362,2.461.646,3.831.646,6.171,0,11.213-4.396,11.859-10.004.041-.202.121-.403.121-.646v-62.722c0-11.577-10.286-21.015-22.911-21.015h-35.536c-12.625,0-22.911,9.438-22.911,21.015v62.722c0,.242.08.403.121.646.646,5.566,5.688,9.962,11.859,9.962v.002ZM40.571,122.741v-9.761c0-7.099,6.615-12.867,14.763-12.867h35.536c8.147,0,14.763,5.768,14.763,12.867v62.197c0,1.614-1.734,3.025-3.831,3.025-2.057,0-3.831-1.371-3.831-3.025v-47.878c-.001-2.258-1.816-4.074-4.076-4.074s-4.074,1.815-4.074,4.074v47.919c0,.121.041.242.041.362,0,.08-.041.121-.041.202v90.997c0,3.469-2.823,6.333-6.333,6.333-3.469,0-6.292-2.823-6.333-6.292v-91.078c0-2.258-1.815-4.074-4.074-4.074s-4.074,1.815-4.074,4.074v91.037c0,3.469-2.823,6.292-6.333,6.292-3.469,0-6.333-2.823-6.333-6.333v-90.997c.001-.041-.039-.121-.039-.161,0-.121.041-.242.041-.362v-47.919c0-2.258-1.815-4.074-4.074-4.074s-4.074,1.815-4.074,4.074v47.919c0,1.614-1.734,3.025-3.831,3.025s-3.831-1.371-3.831-3.025v-52.476h.038Z"/>
  <path d="M241.563,86.681c12.463,0,22.628-10.125,22.628-22.628s-10.125-22.628-22.628-22.628-22.628,10.125-22.628,22.628,10.165,22.628,22.628,22.628ZM241.563,49.613c7.946,0,14.44,6.494,14.44,14.44s-6.494,14.44-14.44,14.44-14.44-6.494-14.44-14.44,6.455-14.44,14.44-14.44Z"/>
  <path d="M181.422,165.819c5.445,3.187,12.988,1.452,15.973-3.711l10.407-17.949-13.835,67.481c-.242,1.211.08,2.461.847,3.388.767.968,1.937,1.493,3.187,1.493h18.716v50.137c0,8.026,6.494,14.52,14.48,14.52,3.993,0,7.705-1.694,10.366-4.437,2.622,2.743,6.333,4.437,10.446,4.437,8.026,0,14.52-6.494,14.52-14.52v-50.06h18.676c1.211,0,2.379-.565,3.187-1.493.767-.968,1.088-2.219.847-3.388l-13.956-67.643c3.631,6.292,7.261,12.625,10.931,18.918,3.146,5.284,10.326,6.897,16.014,3.59,3.792-2.219,6.171-6.212,6.171-10.407,0-1.815-.484-3.631-1.371-5.244-12.221-21.579-21.822-38.157-26.864-46.789-.928-1.614-3.105-5.365-7.421-8.188-3.872-2.541-8.429-3.913-13.27-3.913h-35.657c-5.083.08-9.519,1.411-13.27,3.954-3.59,2.461-5.566,5.404-6.333,6.494-4.477,6.696-15.488,25.936-27.468,47.797-.888,1.654-1.371,3.388-1.371,5.203,0,3.066,1.291,6.13,3.59,8.39.563.645,1.369,1.25,2.459,1.935v.003ZM183.802,154.162c13.714-25.089,23.475-41.788,27.065-47.192.565-.806,1.815-2.743,4.114-4.275,2.42-1.614,5.404-2.461,8.793-2.541h35.576c3.227,0,6.212.888,8.793,2.581,2.743,1.775,4.114,4.154,4.881,5.526,5.042,8.632,14.602,25.169,26.783,46.628.202.362.323.847.323,1.25,0,1.25-.847,2.581-2.097,3.307-1.815,1.088-4.034.726-4.84-.685-3.954-6.776-7.865-13.593-11.778-20.37-3.913-6.817-7.825-13.633-11.778-20.409-1.008-1.734-3.105-2.461-5.001-1.775-1.855.726-2.945,2.663-2.541,4.639l18.03,87.528h-17.748c-2.258,0-4.074,1.815-4.074,4.074v54.211c0,3.51-2.864,6.333-6.333,6.333-3.348,0-6.171-2.702-6.292-6.05v-54.453c-.001-2.258-1.897-4.074-4.156-4.074s-4.074,1.815-4.074,4.074v54.211c0,.161,0,.362.041.524-.282,3.227-3.066,5.809-6.333,5.809-3.469,0-6.292-2.864-6.292-6.333v-54.211c-.001-2.258-1.816-4.074-4.076-4.074h-17.789l17.869-87.205c.403-1.976-.685-3.913-2.541-4.639-1.855-.685-3.993.041-5.001,1.775l-22.951,39.69c-.767,1.331-3.267,1.614-4.68.806-.565-.362-.888-.605-1.049-.767-.726-.726-1.17-1.734-1.17-2.622-.038-.441.083-.844.324-1.288v-.002Z"/>
  <path d="M161.335,281.219c2.258,0,4.074-1.815,4.074-4.074V45.538c0-2.258-1.815-4.074-4.074-4.074s-4.074,1.815-4.074,4.074v231.606c0,2.258,1.816,4.074,4.074,4.074Z"/>
  <path d="M318.61,0H4.074C1.815,0,0,1.815,0,4.074v314.495c0,2.258,1.815,4.074,4.074,4.074h314.495c2.258,0,4.074-1.815,4.074-4.074V4.074c.039-2.26-1.775-4.074-4.035-4.074h0ZM314.496,314.495H8.189V8.188h306.348v306.307s-.04,0-.04,0Z"/>
  <path d="M171.462,576.442c0,13.223,10.755,23.978,23.978,23.978v23.978c0,13.223,10.755,23.978,23.978,23.978h47.955c13.223,0,23.978-10.755,23.978-23.978v-23.978c13.223,0,23.978-10.755,23.978-23.978v-23.978h23.978v-23.978h-23.978v-23.978c0-13.223-10.755-23.978-23.978-23.978h-95.911c-13.223,0-23.978,10.755-23.978,23.978v23.978h-23.978v23.978h23.978v23.978ZM267.373,624.397h-47.955v-23.978h47.955v23.978ZM195.44,504.509h95.911l.025,71.933h-95.936v-71.933Z"/>
  <path d="M740.192,873.471c-7.546-12.575-20.298-21.094-34.517-23.648v-197.106c44.11-15.659,75.833-57.697,75.833-107.117v-37.917c0-13.94-11.338-25.278-25.278-25.278h-176.944v-25.278h-25.278v25.278h-25.278v-101.111c0-13.94,11.338-25.278,25.278-25.278s25.278,11.338,25.278,25.278v25.278h25.278v-25.278c0-27.882-22.674-50.555-50.555-50.555s-50.555,22.674-50.555,50.555v101.111h-50.556c-13.94,0-25.278,11.338-25.278,25.278v37.917c0,49.418,31.723,91.458,75.833,107.117v197.106c-14.219,2.554-26.971,11.085-34.517,23.648l-23.191,38.66h29.475l15.377-25.637c4.55-7.57,12.855-12.273,21.675-12.273h184.575c8.821,0,17.126,4.703,21.676,12.273l15.378,25.637h29.515l-23.223-38.66ZM680.395,848.944h-151.666v-190.331c4.158.466,8.368.745,12.639.745h0s126.389,0,126.389,0c4.271,0,8.481-.279,12.639-.745v190.331ZM667.756,634.08h-126.389c-48.772,0-88.472-39.7-88.472-88.472v-37.917h303.333v37.917c0,48.773-39.7,88.472-88.472,88.472Z"/>
  <path d="M224.17,836.184l44.144-2.757c53.275-3.332,94.996-47.751,94.996-101.128,0-19.829-16.137-35.967-35.966-35.967h-193.848l-45.378-244.092c-2.111-11.402-12.134-19.662-23.845-19.662H27.886c-7.278,0-14.112,3.202-18.738,8.752-4.543,5.467-6.402,12.601-5.12,19.554l46.205,248.53v202.717h23.997v-143.861h256.166c-12.229,23.139-35.846,39.491-63.588,41.217l-108.066,6.749,1.499,23.93,39.695-2.483,16.541,74.448h24.572l-16.879-75.947ZM72.025,696.339l-44.141-239.779,36.651.047,44.574,239.732h-37.083ZM74.232,744.292v-23.978h253.108c6.619,0,11.989,5.37,11.989,11.989h.002c0,4.076-.407,8.067-1.019,11.989H74.232Z"/>
  <path d="M772.447,20.175h-363.638c-14.324,0-25.974,11.65-25.974,25.974v207.793c0,14.324,11.65,25.974,25.974,25.974h51.948v-25.974h-51.948V46.149h363.638v207.793h-155.845v25.974h155.845c14.324,0,25.974-11.65,25.974-25.974V46.149c0-14.324-11.65-25.974-25.974-25.974Z"/>
  <path d="M477.513,146.25l18.366-18.366,38.964,38.964-18.366,18.366-38.964-38.964Z"/>
  <path d="M529.454,94.295l18.366-18.366,103.897,103.897-18.366,18.366-103.897-103.897Z"/>
  <path d="M620.364,94.295l18.366-18.366,64.935,64.935-18.366,18.366-64.935-64.935Z"/>
</svg>