<?xml version="1.0" encoding="UTF-8"?>
<svg id="Layer_1" xmlns="http://www.w3.org/2000/svg" version="1.1" viewBox="0 0 1154.6 1028.7">
  <!-- Generator: Adobe Illustrator 29.2.1, SVG Export Plug-In . SVG Version: 2.1.0 Build 116)  -->
  <path d="M1151.9,538.2c-11.2-26.9-43.7-20.2-66.8-21.2-8.6-57.5-60.4-147.6-124.5-151-25.4-82-102-133.9-186.8-130.7-8.5-10.5-18.8-18.8-29.5-26.7-111.2-82.5-270.5-71.1-369.4,26.7-44.3,5.8-70.4,5.1-108.7,38-11.4-28.1-77.3-197-88.3-225.3C172,32.7,164.7-1.1,143.8,0c-12.1,3-18.9,12-15,24.6,11.8,38.1,29.2,75.4,43.9,112.5l64.9,167.8c-3,2.9-6.1,5.8-8.8,9-58.6-64.4-119-140.9-174.2-208.4C10.6,51.8-.9,96.3,8.7,109.7c.1.2,161.2,192.1,193.7,232.4-5.3,7.8-9.8,15.1-13,24-68.2,24-112.3,80.3-121.6,151-70.9.2-76.9,17.7-60,86.6,36.1,147.1,162.1,290.1,308.3,335.7-4.3,21.7-3.3,41.4,9.4,60.1,25.9,38.2,76.7,27.9,116.5,27.9h277.4c19.9,0,53.2,2.4,71.5-1.6,41.3-9.1,56.7-48.4,54.2-86.4,133.4-58.5,228.8-138.9,284.1-280,10.3-26.6,33.1-96,22.6-121.3h0ZM184.5,408.7c55.5-27.5,17.9-3.9,50.1-46.9,8-10.7,19-16.9,28.1-26.2,32.7-33.5,39-60.5,101.9-61.2,39.8-.4,20.3-.6,49.7-24.2,91.5-74,217.9-80.7,312-7.8,34.5,26.7,16.8,29.7,61.8,30.8,56.9,1.5,111.1,38.5,132.1,91.5,15.5,39.2,5.1,23.4,42.5,40.4,46.2,21,74.2,62.2,83,111.8H106.6c8.3-47.8,33.7-86.3,77.9-108.3h0ZM795.9,978.9c-19.6,15.9-51.5,9.6-75,9.6s-340.5,0-340.7,0c-27.2-1.6-30.3-20.4-28.1-44.2,1.2,0,453.7,0,453.9,0-.2,14-.1,23.7-10.1,34.6h0ZM861.1,889.9c-46.6,22.1-56.4,16.2-107.3,16.1h-383.5c-31.7.2-40.6-.9-69.8-13.8-135.6-60-242.7-187.4-262.8-336.5h1078.9c-11.2,104.4-88.5,255-255.5,334.2h0Z"/>
  <path d="M639.5,271.2c-30.3,1-37.3,39.8,11.2,38,29.2-6.9,24-42.2-11.2-38Z"/>
  <path d="M497.2,271.2c-30.7,16.2-7.1,44.5,26.4,38,31.1-17.6,9.8-42.3-26.4-38Z"/>
  <path d="M362.3,335.6c-27.9,5.6-25.5,42.9,15.8,38.1,27.7-8.2,25.1-40.5-15.8-38.1Z"/>
  <path d="M736.6,355.8c-25.1,6.4-26.8,41.2,15.8,38.8,25.6-7.5,26.6-41.4-15.8-38.8Z"/>
  <path d="M469.8,406.7c-27.4,6.3-27,41.4,15.3,38.5,27.6-7.7,23-41.1-15.3-38.5Z"/>
  <path d="M290.5,419.5c-22.7,6-21.1,44.1,22,38.3,23.1-9.2,24-40-22-38.3Z"/>
  <path d="M845.3,422.9c-24.8,2.2-32.1,39.8,14.5,38.6,25.5-4.4,30.2-43-14.5-38.6Z"/>
  <path d="M634.8,422.9c-29.5,4.8-22.9,45.1,15.8,38.6,24.6-7.4,26.4-39.9-15.8-38.6Z"/>
</svg>