<svg xmlns="http://www.w3.org/2000/svg" version="1.1" viewBox="-5.0 -10.0 110.0 135.0">
 <path d="m97.887 51.984c-0.93359-2.2422-3.6406-1.6797-5.5664-1.7656-0.71875-4.793-5.0352-12.301-10.375-12.586-2.1172-6.8359-8.4961-11.16-15.566-10.895-0.70703-0.875-1.5625-1.5625-2.4609-2.2266-9.2656-6.8711-22.543-5.9219-30.781 2.2266-3.6953 0.48438-5.8633 0.42578-9.0547 3.1641-0.95312-2.3398-6.4414-16.418-7.3555-18.773-0.5-1.2695-1.1055-4.0781-2.8516-3.9883-1.0078 0.24609-1.5781 1.0039-1.2539 2.0508 0.98438 3.1758 2.4297 6.2852 3.6562 9.375l5.4062 13.98c-0.25 0.24219-0.50781 0.48047-0.73438 0.74609-4.8828-5.3633-9.9141-11.742-14.516-17.371-3.6562-4.4688-4.6172-0.76172-3.8164 0.35547 0.011718 0.019531 13.43 16.008 16.145 19.367-0.44141 0.64844-0.8125 1.2578-1.082 1.9961-5.6875 2.0039-9.3555 6.6953-10.129 12.586-5.9102 0.015626-6.4102 1.4766-4.9961 7.2188 3.0117 12.258 13.512 24.172 25.688 27.977-0.35938 1.8047-0.27734 3.4492 0.78125 5.0117 2.1562 3.1875 6.3945 2.3281 9.7109 2.3281h23.117c1.6562 0.003906 4.4336 0.20312 5.9609-0.13281 3.4414-0.75781 4.7227-4.0352 4.5195-7.2031 11.117-4.875 19.07-11.578 23.672-23.336 0.85938-2.2188 2.7617-8.0039 1.8828-10.105zm-80.617-10.789c4.6211-2.293 1.4883-0.32422 4.1719-3.9062 0.66797-0.89062 1.5859-1.4062 2.3438-2.1836 2.7227-2.7891 3.2461-5.0391 8.4883-5.0977 3.3203-0.035156 1.6953-0.046874 4.1406-2.0195 7.6289-6.168 18.156-6.7266 26.004-0.64844 2.8711 2.2266 1.3984 2.4727 5.1523 2.5664 4.7383 0.12109 9.2617 3.207 11.012 7.625 1.2891 3.2656 0.42188 1.9492 3.5391 3.3672 3.8477 1.75 6.1875 5.1836 6.9141 9.3203h-78.258c0.69141-3.9844 2.8086-7.1953 6.4922-9.0234zm50.949 47.516c-1.6328 1.3242-4.293 0.79687-6.2539 0.79687-0.019532 0-28.371 0.003907-28.391 0.003907-2.2695-0.13672-2.5273-1.7031-2.3438-3.6875 0.097656-0.003907 37.809 0 37.828 0-0.015625 1.168-0.011719 1.9727-0.83984 2.8867zm5.4297-7.4141c-3.8867 1.8398-4.7031 1.3477-8.9414 1.3438l-31.957 0.007813c-2.6445 0.011718-3.3828-0.082032-5.8164-1.1562-11.301-5.0039-20.227-15.617-21.898-28.043h89.906c-0.93359 8.6992-7.375 21.254-21.293 27.848z"/>
 <path d="m55.18 29.738c-2.5273 0.085938-3.1094 3.3125 0.93359 3.1641 2.4375-0.57812 2-3.5156-0.93359-3.1641z"/>
 <path d="m43.324 29.738c-2.5547 1.3516-0.59375 3.7109 2.2031 3.1641 2.5898-1.4688 0.81641-3.5234-2.2031-3.1641z"/>
 <path d="m32.078 35.102c-2.3281 0.46875-2.1211 3.5781 1.3203 3.1758 2.3047-0.6875 2.0938-3.3789-1.3203-3.1758z"/>
 <path d="m63.277 36.789c-2.0938 0.53516-2.2344 3.4375 1.3164 3.2305 2.1328-0.62891 2.2188-3.4531-1.3164-3.2305z"/>
 <path d="m41.043 41.027c-2.2812 0.52734-2.2539 3.4531 1.2734 3.207 2.3008-0.64062 1.918-3.4258-1.2734-3.207z"/>
 <path d="m26.098 42.094c-1.8945 0.5-1.7578 3.6758 1.8359 3.1953 1.9258-0.76953 2-3.332-1.8359-3.1953z"/>
 <path d="m72.328 42.379c-2.0703 0.1875-2.6758 3.3203 1.2109 3.2188 2.1289-0.36719 2.5195-3.5859-1.2109-3.2188z"/>
 <path d="m54.793 42.379c-2.457 0.39844-1.9102 3.7617 1.3203 3.2188 2.0508-0.61719 2.2031-3.3242-1.3203-3.2188z"/>
<text x="0.0" y="117.5" font-size="5.0" font-weight="bold" font-family="Arbeit Regular, Helvetica, Arial-Unicode, Arial, Sans-serif" fill="#000000">Created by Icogenix</text><text x="0.0" y="122.5" font-size="5.0" font-weight="bold" font-family="Arbeit Regular, Helvetica, Arial-Unicode, Arial, Sans-serif" fill="#000000">from Noun Project</text></svg>