<?xml version="1.0" encoding="UTF-8"?>
<svg width="1200pt" height="1200pt" version="1.1" viewBox="0 0 1200 1200" xmlns="http://www.w3.org/2000/svg">
 <path d="m1174.6 623.81c-11.203-26.906-43.688-20.156-66.797-21.188-8.625-57.516-60.422-147.61-124.5-151.03-25.406-82.031-101.95-133.92-186.79-130.74-8.4844-10.5-18.75-18.75-29.531-26.719-111.19-82.453-270.52-71.062-369.37 26.719-44.344 5.8125-70.359 5.1094-108.66 37.969-11.438-28.078-77.297-197.02-88.266-225.28-6-15.234-13.266-48.938-34.219-47.859-12.094 2.9531-18.938 12.047-15.047 24.609 11.812 38.109 29.156 75.422 43.875 112.5l64.875 167.76c-3 2.9062-6.0938 5.7656-8.8125 8.9531-58.594-64.359-118.97-140.9-174.19-208.45-43.875-53.625-55.406-9.1406-45.797 4.2656 0.14063 0.23438 161.16 192.1 193.74 232.4-5.2969 7.7812-9.75 15.094-12.984 23.953-68.25 24.047-112.27 80.344-121.55 151.03-70.922 0.1875-76.922 17.719-59.953 86.625 36.141 147.1 162.14 290.06 308.26 335.72-4.3125 21.656-3.3281 41.391 9.375 60.141 25.875 38.25 76.734 27.938 116.53 27.938h277.4c19.875 0.046876 53.203 2.4375 71.531-1.5938 41.297-9.0938 56.672-48.422 54.234-86.438 133.4-58.5 228.84-138.94 284.06-280.03 10.312-26.625 33.141-96.047 22.594-121.26zm-967.4-129.47c55.453-27.516 17.859-3.8906 50.062-46.875 8.0156-10.688 19.031-16.875 28.125-26.203 32.672-33.469 38.953-60.469 101.86-61.172 39.844-0.42188 20.344-0.5625 49.688-24.234 91.547-74.016 217.87-80.719 312.05-7.7812 34.453 26.719 16.781 29.672 61.828 30.797 56.859 1.4531 111.14 38.484 132.14 91.5 15.469 39.188 5.0625 23.391 42.469 40.406 46.172 21 74.25 62.203 82.969 111.84h-939.1c8.2969-47.812 33.703-86.344 77.906-108.28zm611.39 570.19c-19.594 15.891-51.516 9.5625-75.047 9.5625-0.23438 0-340.45 0.046875-340.69 0.046875-27.234-1.6406-30.328-20.438-28.125-44.25 1.1719-0.046875 453.71 0 453.94 0-0.1875 14.016-0.14062 23.672-10.078 34.641zm65.156-88.969c-46.641 22.078-56.438 16.172-107.3 16.125l-383.48 0.09375c-31.734 0.14062-40.594-0.98438-69.797-13.875-135.61-60.047-242.72-187.4-262.78-336.52h1078.9c-11.203 104.39-88.5 255.05-255.52 334.18z"/>
 <path d="m662.16 356.86c-30.328 1.0312-37.312 39.75 11.203 37.969 29.25-6.9375 24-42.188-11.203-37.969z"/>
 <path d="m519.89 356.86c-30.656 16.219-7.125 44.531 26.438 37.969 31.078-17.625 9.7969-42.281-26.438-37.969z"/>
 <path d="m384.94 421.22c-27.938 5.625-25.453 42.938 15.844 38.109 27.656-8.25 25.125-40.547-15.844-38.109z"/>
 <path d="m759.32 441.47c-25.125 6.4219-26.812 41.25 15.797 38.766 25.594-7.5469 26.625-41.438-15.797-38.766z"/>
 <path d="m492.52 492.32c-27.375 6.3281-27.047 41.438 15.281 38.484 27.609-7.6875 23.016-41.109-15.281-38.484z"/>
 <path d="m313.18 505.13c-22.734 6-21.094 44.109 22.031 38.344 23.109-9.2344 24-39.984-22.031-38.344z"/>
 <path d="m867.94 508.55c-24.844 2.25-32.109 39.844 14.531 38.625 25.547-4.4062 30.234-43.031-14.531-38.625z"/>
 <path d="m657.52 508.55c-29.484 4.7812-22.922 45.141 15.844 38.625 24.609-7.4062 26.438-39.891-15.844-38.625z"/>
</svg>
