<?xml version="1.0" encoding="UTF-8"?>
<svg id="Layer_1" data-name="Layer 1" xmlns="http://www.w3.org/2000/svg" viewBox="0 0 960.008 959.997">
  <path d="M311.535,191.573c-7.359-.047-13.688-5.25-15.141-12.469-9.234-2.156-17.766-6.562-24.797-12.891-6.328-5.766-6.75-15.562-.938-21.844,5.766-6.328,15.562-6.75,21.891-.938,4.172,3.469,9.281,5.672,14.719,6.281,11.531,1.594,19.359-3.188,19.734-5.719.422-3.234-.234-5.203-19.969-11.344h-.188c-17.016-5.297-45.516-14.156-41.25-45.094h-.047c2.953-15.656,15.188-27.938,30.844-30.891,1.453-7.266,7.781-12.469,15.188-12.469,7.359,0,13.734,5.203,15.141,12.469,9.281,2.156,17.812,6.609,24.891,12.938,6.281,5.766,6.703,15.562.891,21.891-5.766,6.281-15.562,6.703-21.891.891-4.172-3.469-9.234-5.672-14.672-6.234-11.625-1.594-19.453,3.188-19.828,5.672-.422,3.234.234,5.203,19.828,11.297,17.297,5.344,45.891,14.25,41.625,45.188h.047c-3,15.656-15.234,27.891-30.891,30.891-1.5,7.219-7.828,12.375-15.188,12.375h0ZM311.535,235.776c-47.672,0-90.656-28.734-108.89-72.797-18.234-44.016-8.156-94.734,25.547-128.44s84.422-43.781,128.44-25.547c44.062,18.234,72.797,61.219,72.797,108.89-.047,65.062-52.828,117.84-117.89,117.89l-.004.004ZM311.535,204.838c35.156,0,66.844-21.188,80.297-53.672,13.5-32.484,6.047-69.844-18.797-94.734-24.844-24.844-62.25-32.297-94.734-18.844s-53.672,45.141-53.672,80.297c.047,47.953,38.906,86.859,86.906,86.953ZM846.755,103.118h-.188c-19.594-6.094-20.25-8.062-19.828-11.297.328-2.531,8.156-7.266,19.781-5.672,5.391.562,10.453,2.719,14.578,6.188,6.281,5.812,16.078,5.438,21.891-.844s5.438-16.078-.844-21.891c-7.031-6.375-15.609-10.828-24.891-12.984-1.406-7.219-7.781-12.422-15.141-12.422-7.406,0-13.734,5.203-15.188,12.422-15.656,3-27.891,15.234-30.891,30.891-4.219,30.891,24.234,39.797,41.25,45.094l.234.094.047-.047c6.328,1.594,12.422,4.031,18.141,7.172,1.875,1.312,2.156,1.688,1.828,4.125s-8.203,7.312-19.734,5.719v.047c-5.438-.609-10.547-2.766-14.719-6.281-6.328-5.766-16.125-5.344-21.891.938-5.812,6.281-5.391,16.078.938,21.891,7.031,6.281,15.562,10.734,24.797,12.891,1.453,7.219,7.781,12.375,15.188,12.375,7.359,0,13.688-5.156,15.141-12.375,15.656-3,27.938-15.281,30.891-30.938,4.266-30.891-24.328-39.797-41.438-45.094h.047ZM960.005,117.884c0,47.672-28.688,90.656-72.75,108.94-44.062,18.234-94.781,8.156-128.53-25.547-33.703-33.703-43.781-84.422-25.547-128.48S794.397,0,842.118,0c65.062.094,117.8,52.781,117.89,117.89l-.003-.006ZM929.067,117.884c0-35.203-21.188-66.891-53.672-80.391-32.531-13.453-69.938-6-94.781,18.891-24.891,24.844-32.344,62.25-18.844,94.781,13.453,32.484,45.141,53.672,80.344,53.672,48-.047,86.906-38.953,86.953-86.953h0ZM3.987,848.104c-10.359-42.469-.375-93.328,28.125-142.97,19.078-33.375,44.531-62.672,74.906-86.203-14.438-10.5-20.812-28.922-15.891-46.125,4.875-17.203,19.969-29.531,37.781-30.891-9.047-14.812-13.828-31.828-13.875-49.172v-7.312c0-5.016,2.438-9.703,6.516-12.609s9.328-3.656,14.062-2.016c22.688,7.828,48.047-4.125,64.219-18,5.766-4.922,14.297-4.922,20.109,0,16.219,13.828,41.625,25.828,64.312,18h-.047c4.734-1.594,9.984-.844,14.062,2.062,4.031,2.906,6.469,7.594,6.469,12.562v7.312c-.047,17.391-4.828,34.406-13.922,49.219,17.859,1.312,32.953,13.641,37.875,30.844,4.875,17.203-1.5,35.625-15.938,46.172,30.375,23.484,55.828,52.781,74.859,86.156,28.5,49.734,38.484,100.5,28.125,143.02-8.625,34.406-31.125,63.703-62.203,80.859-35.203,20.531-83.531,30.984-143.68,30.984s-108.47-10.406-143.72-30.984c-31.031-17.156-53.578-46.453-62.156-80.906l.012-.003ZM147.047,504.184c2.719,14.719,10.547,28.031,22.078,37.594h81.469c11.531-9.562,19.359-22.875,22.125-37.594-22.594.469-44.672-6.562-62.859-20.016-18.141,13.453-40.219,20.484-62.812,20.016h0ZM120.422,584.481c0,6.469,5.25,11.719,11.766,11.766h155.34c3.188.094,6.281-1.125,8.578-3.328,2.25-2.203,3.562-5.25,3.562-8.438s-1.312-6.234-3.562-8.438c-2.297-2.203-5.391-3.422-8.578-3.281h-155.34c-6.516,0-11.766,5.25-11.766,11.719h0ZM34.031,840.791c14.062,57.703,74.859,88.219,175.82,88.219s161.72-30.516,175.78-88.219c18.375-75.375-47.109-175.5-116.72-213.61h-118.08c-69.656,38.109-135.19,138.24-116.81,213.61h.01ZM160.921,775.213c13.781,8.438,28.734,14.766,44.438,18.703,35.344,10.969,45.984,16.969,43.734,33.281-1.734,12.562-22.172,24-48.656,20.391-12.047-1.406-23.391-6.375-32.625-14.203-6.281-5.812-16.078-5.391-21.891.891-5.812,6.328-5.391,16.125.891,21.891,13.406,11.766,29.906,19.359,47.531,21.844v4.547c0,8.531,6.938,15.469,15.469,15.469,8.578,0,15.469-6.938,15.469-15.469v-4.406c29.062-4.547,51.094-22.312,54.422-46.688l.047-.047c3.234-18.844-4.969-37.828-20.953-48.328-13.781-8.484-28.734-14.766-44.391-18.75-35.391-10.922-46.078-16.969-43.828-33.328,1.734-12.562,22.125-24,48.656-20.391,12.047,1.406,23.391,6.328,32.625,14.156,6.281,5.812,16.125,5.391,21.891-.891,5.812-6.281,5.391-16.078-.891-21.891-13.359-11.766-29.906-19.359-47.531-21.844v-4.547c0-8.531-6.938-15.469-15.469-15.469s-15.469,6.938-15.469,15.469v4.406c-29.062,4.547-51.094,22.266-54.469,46.688v.047c-3.281,18.891,4.969,37.922,21,48.469h0ZM442.551,944.473v-409.22.047c.188-10.125-3.844-19.828-11.109-26.812l-166.74-166.69c-10.734-10.641-16.688-25.219-16.5-40.312.281-22.828,14.156-43.312,35.25-52.078,21.094-8.719,45.422-4.078,61.781,11.859l126.89,126.84c57.891,57.656,151.5,57.656,209.44,0l126.84-126.84h-.047c22.359-21.656,57.938-21.375,79.922.609,21.984,21.984,22.266,57.562.609,79.922l-166.69,166.74c-7.266,6.984-11.297,16.688-11.109,26.766v409.22c0,8.531-6.938,15.469-15.469,15.469h-237.61c-4.125,0-8.062-1.641-10.969-4.547s-4.547-6.844-4.5-10.969l.01-.004ZM453.332,486.653c13.125,12.75,20.438,30.375,20.156,48.656v393.71h87.891v-228.24c.234-8.344,7.078-15.047,15.469-15.047s15.234,6.703,15.469,15.047v228.24h87.844v-393.71c-.234-18.281,7.031-35.859,20.109-48.656l166.78-166.78h.047c9.422-10.266,9.047-26.156-.844-36-9.844-9.844-25.734-10.125-36-.656l-126.84,126.74c-33.609,33.516-79.125,52.312-126.56,52.312s-93-18.797-126.61-52.312l-126.89-126.74c-4.734-4.828-11.25-7.547-18-7.453-14.297.328-25.781,11.859-26.156,26.156-.047,6.75,2.625,13.219,7.453,18l166.682,166.733ZM694.692,275.433c0,47.672-28.734,90.656-72.797,108.89-44.016,18.234-94.734,8.156-128.44-25.594-33.703-33.703-43.781-84.422-25.5-128.44,18.234-44.062,61.219-72.75,108.89-72.75,65.109.094,117.8,52.875,117.84,117.94l.007-.046ZM663.754,275.433c0-35.156-21.188-66.844-53.672-80.297s-69.891-6-94.734,18.844c-24.844,24.891-32.297,62.25-18.844,94.734,13.453,32.531,45.188,53.672,80.344,53.672,47.953-.047,86.812-38.906,86.906-86.906v-.047Z"/>
</svg>