<?xml version="1.0" encoding="UTF-8"?>
<svg id="Layer_1" data-name="Layer 1" xmlns="http://www.w3.org/2000/svg" viewBox="0 0 1013.462 974.074">
  <path d="M423.392,740.22l-88.594-22.547-74.039-132.26c-10.172-18.363-26.801-32.297-46.664-39.094,26.574-14.074,45.051-39.746,49.969-69.41,4.914-29.664-4.297-59.926-24.91-81.82-20.609-21.891-50.262-32.91-80.168-29.789-29.906,3.117-56.645,20.02-72.293,45.695-15.652,25.676-18.422,57.184-7.488,85.199,10.934,28.012,34.312,49.312,63.219,57.602-19.188,11.621-33.02,30.344-38.484,52.102l-10.078-19.242c-5.668-12.211-16.094-21.566-28.844-25.887-12.75-4.324-26.715-3.231-38.641,3.016-11.926,6.25-20.77,17.109-24.477,30.051-3.703,12.945-1.945,26.84,4.867,38.453l99.398,189.84c11.773,22.59,29.762,41.344,51.844,54.047v75.938h-57.656c-5.84.27-10.438,5.086-10.438,10.934s4.598,10.664,10.438,10.934h217.41c5.84-.27,10.438-5.086,10.438-10.934s-4.598-10.664-10.438-10.934h-137.81v-65.883c14.406,5.098,29.578,7.699,44.859,7.688h123.7c9.523.016,18.844-2.754,26.812-7.969v32.273c0,19.953,10.645,38.391,27.926,48.367,17.281,9.98,38.57,9.98,55.852,0,17.281-9.977,27.926-28.414,27.926-48.367v-96.094c.027-18.789-6.215-37.051-17.742-51.891-11.527-14.84-27.676-25.406-45.891-30.023l-.003.006ZM94.472,461.2c0-19.773,7.855-38.738,21.836-52.719s32.945-21.836,52.719-21.836,38.738,7.855,52.719,21.836c13.981,13.98,21.836,32.945,21.836,52.719s-7.855,38.738-21.836,52.719-32.945,21.836-52.719,21.836c-19.766-.023-38.715-7.887-52.691-21.863-13.977-13.977-21.84-32.926-21.863-52.691h0ZM348.512,872.08h-123.7c-20.465.035-40.547-5.547-58.055-16.145-17.508-10.598-31.77-25.801-41.227-43.949l-99.422-189.84c-4.41-8.457-4.102-18.602.82-26.773,4.918-8.172,13.734-13.195,23.273-13.258,2.781.004,5.547.43,8.203,1.266,6.922,2.144,12.695,6.973,16.031,13.406l67.969,129.82,19.898,38.016,11.531,22.008c4.852,9.316,12.176,17.121,21.168,22.559,8.988,5.434,19.301,8.293,29.809,8.262h123.7c6.777.012,13.309,2.539,18.332,7.09,5.02,4.547,8.176,10.801,8.855,17.543-.246.879-.371,1.785-.375,2.695v5.18c-1.211,6.223-4.547,11.836-9.438,15.871-4.895,4.035-11.035,6.246-17.375,6.254l.002-.004ZM465.162,918.228c-.441,11.84-7.012,22.602-17.348,28.398-10.332,5.797-22.941,5.797-33.273,0-10.336-5.797-16.906-16.559-17.348-28.398v-66.469c2.098-14.133-2.074-28.48-11.422-39.289-9.352-10.805-22.945-17-37.234-16.961h-123.73c-6.496.008-12.871-1.766-18.43-5.129-5.559-3.363-10.086-8.191-13.094-13.949l-53.906-102.8-9.234-17.625c-10.727-19.906-10.016-44.027,1.859-63.27,11.879-19.242,33.121-30.688,55.723-30.023,22.605.664,43.137,13.34,53.863,33.246l76.336,136.38c1.477,2.606,3.945,4.5,6.844,5.25l93.141,23.695c13.535,3.414,25.539,11.262,34.102,22.285,8.562,11.027,13.191,24.598,13.148,38.559l.003,96.1Z"/>
  <path d="M380.502,324.72c-15.672.02-30.699,6.258-41.777,17.344-11.078,11.086-17.301,26.117-17.309,41.789v97.805c.02,15.664,6.25,30.68,17.328,41.75,11.078,11.074,26.094,17.301,41.758,17.312h33.562c15.66-.02,30.672-6.246,41.742-17.32,11.074-11.07,17.301-26.082,17.32-41.742v-97.805c-.02-15.66-6.246-30.676-17.316-41.75-11.074-11.078-26.086-17.312-41.746-17.336l-33.562-.047ZM451.283,383.853v97.805c-.012,9.867-3.938,19.328-10.914,26.305s-16.438,10.902-26.305,10.914h-33.562c-9.867-.008-19.332-3.93-26.312-10.906-6.977-6.981-10.898-16.445-10.906-26.312v-97.805c.008-9.871,3.93-19.336,10.906-26.32,6.977-6.98,16.441-10.91,26.312-10.922h33.562c9.871.02,19.328,3.949,26.305,10.93s10.902,16.441,10.914,26.312h0Z"/>
  <path d="M949.732,740.22l-88.57-22.547-74.062-132.26c-10.164-18.363-26.785-32.293-46.641-39.094,26.578-14.078,45.062-39.754,49.98-69.426,4.918-29.672-4.297-59.938-24.914-81.84-20.613-21.898-50.27-32.918-80.188-29.801-29.914,3.121-56.656,20.023-72.312,45.707-15.652,25.68-18.426,57.195-7.492,85.215s34.32,49.328,63.23,57.621c-19.188,11.621-33.02,30.344-38.484,52.102l-10.078-19.242c-5.801-12-16.215-21.137-28.871-25.316-12.656-4.184-26.465-3.055-38.273,3.125-11.809,6.184-20.602,16.891-24.375,29.672-3.773,12.781-2.203,26.551,4.356,38.152l99.398,189.84c11.801,22.598,29.812,41.348,51.914,54.047v75.938h-57.562c-5.84.27-10.438,5.086-10.438,10.934s4.598,10.664,10.438,10.934h217.41c5.84-.27,10.438-5.086,10.438-10.934s-4.598-10.664-10.438-10.934h-137.81v-65.883c14.406,5.098,29.578,7.699,44.859,7.688h123.7c9.523.016,18.844-2.754,26.812-7.969v32.273c0,19.953,10.645,38.391,27.926,48.367,17.281,9.98,38.57,9.98,55.852,0,17.281-9.977,27.926-28.414,27.926-48.367v-96.094c.023-18.801-6.234-37.074-17.781-51.914-11.543-14.84-27.715-25.398-45.945-30l-.005.006ZM620.812,461.2c0-19.773,7.856-38.738,21.836-52.719s32.945-21.836,52.719-21.836,38.738,7.855,52.719,21.836c13.981,13.98,21.836,32.945,21.836,52.719s-7.856,38.738-21.836,52.719-32.945,21.836-52.719,21.836c-19.766-.023-38.715-7.887-52.691-21.863-13.977-13.977-21.84-32.926-21.863-52.691h-.001ZM874.852,872.08h-123.7c-20.465.035-40.547-5.547-58.055-16.145-17.508-10.598-31.77-25.801-41.227-43.949l-99.398-189.84c-4.418-8.461-4.102-18.613.828-26.789,4.934-8.172,13.766-13.18,23.312-13.219,4.996.008,9.894,1.375,14.172,3.961,4.273,2.586,7.762,6.289,10.086,10.711l36.328,69.422,51.562,98.438,11.531,22.008c4.852,9.293,12.156,17.074,21.125,22.5,8.969,5.426,19.254,8.289,29.734,8.273h123.7c6.781.012,13.316,2.543,18.336,7.098,5.023,4.555,8.18,10.812,8.852,17.559-.246.871-.371,1.769-.375,2.672v5.133c-1.199,6.234-4.527,11.859-9.422,15.902-4.894,4.047-11.043,6.266-17.391,6.269l.002-.004ZM991.522,918.228c-.441,11.84-7.012,22.602-17.348,28.398-10.332,5.797-22.941,5.797-33.273,0-10.336-5.797-16.906-16.559-17.348-28.398v-66.492c2.066-14.117-2.117-28.434-11.465-39.215-9.344-10.785-22.922-16.961-37.191-16.918h-123.75c-6.496.008-12.871-1.766-18.43-5.129-5.559-3.363-10.086-8.191-13.094-13.949l-63.07-120.47c-10.719-19.91-10-44.031,1.887-63.266,11.887-19.238,33.129-30.676,55.734-30,22.602.672,43.129,13.355,53.848,33.266l76.336,136.38c1.477,2.606,3.945,4.5,6.844,5.25l93.141,23.695c13.504,3.434,25.477,11.27,34.02,22.273,8.547,11.004,13.176,24.543,13.16,38.477v96.098Z"/>
  <path d="M940.332,324.72h-33.539c-15.672.02-30.699,6.258-41.777,17.344-11.078,11.086-17.301,26.117-17.309,41.789v97.805c.02,15.664,6.25,30.68,17.328,41.75,11.078,11.074,26.094,17.301,41.758,17.312h33.539c15.668-.02,30.688-6.254,41.758-17.336,11.074-11.082,17.297-26.105,17.305-41.773v-97.758c-.008-15.668-6.23-30.695-17.301-41.781-11.074-11.086-26.094-17.328-41.762-17.352h0ZM977.574,481.61c-.012,9.871-3.941,19.336-10.922,26.312-6.984,6.977-16.449,10.898-26.32,10.906h-33.539c-9.871-.008-19.336-3.93-26.32-10.906-6.981-6.977-10.91-16.441-10.922-26.312v-97.758c.012-9.875,3.941-19.34,10.922-26.32,6.981-6.98,16.445-10.91,26.32-10.922h33.539c9.875.012,19.34,3.941,26.32,10.922,6.98,6.98,10.91,16.445,10.922,26.32v97.758Z"/>
  <path d="M12.072,206.34h976.45c5.84-.27,10.438-5.086,10.438-10.934s-4.598-10.664-10.438-10.934h-251.88V10.922c0-6.031-4.891-10.922-10.922-10.922s-10.922,4.891-10.922,10.922v173.55h-391.41V10.922c0-6.031-4.891-10.922-10.922-10.922s-10.922,4.891-10.922,10.922v173.55H12.064c-5.84.27-10.438,5.086-10.438,10.934s4.598,10.664,10.438,10.934h.008Z"/>
</svg>