<?xml version="1.0" encoding="UTF-8"?>
<svg width="1200pt" height="1200pt" version="1.1" viewBox="0 0 1200 1200" xmlns="http://www.w3.org/2000/svg">
 <path d="m422.34 151.69c-0.98438 2.1562-1.5 4.5938-1.5938 7.0781v1.2656l0.046875 0.1875c0.09375 2.3438 0.65625 4.5938 1.5938 6.6094l0.046875 0.09375c0.60938 1.2188 1.3125 2.4844 2.1562 3.6562l106.03 139.03c-198.84 33.094-350.53 206.06-350.53 414.19 0 231.74 188.16 419.9 419.9 419.9 231.74 0 419.9-188.16 419.9-419.9 0-208.13-151.74-381.1-350.53-414.19l106.03-139.03c0.84375-1.1719 1.5938-2.3906 2.1562-3.6562l0.046875-0.09375c0.89062-2.0156 1.4531-4.2656 1.5938-6.6094l0.046875-1.2656v-0.1875c-0.09375-2.5312-0.60938-4.9219-1.5938-7.0781-0.84375-1.9688-2.0625-3.7969-3.6094-5.3906l-80.203-84.234c-3.5625-3.7031-8.4844-5.8125-13.594-5.8125h-160.5c-5.1094 0-10.031 2.1094-13.594 5.8125l-80.203 84.234c-1.5469 1.5938-2.7188 3.4688-3.6094 5.3906zm177.66 189.71c211.03 0 382.4 171.37 382.4 382.4s-171.37 382.4-382.4 382.4-382.4-171.37-382.4-382.4 171.37-382.4 382.4-382.4zm0 42.75c-187.45 0-339.66 152.21-339.66 339.66 0 187.5 152.21 339.66 339.66 339.66s339.66-152.16 339.66-339.66c0-187.45-152.21-339.66-339.66-339.66zm0 37.5c166.78 0 302.16 135.42 302.16 302.16 0 166.78-135.42 302.16-302.16 302.16-166.78 0-302.16-135.37-302.16-302.16 0-166.78 135.42-302.16 302.16-302.16zm0.46875-117.75 38.391-125.9h-77.719l38.391 125.9zm77.625-125.9-29.719 97.359 74.203-97.359h-44.531zm-156.14 0h-44.531l74.203 97.359-29.719-97.359zm150.28-84.234h-34.312l35.578 46.734h43.219l-44.531-46.734zm-144.37 0-44.531 46.734h43.219l35.578-46.734h-34.312zm45.844 46.734h52.641c-12.141-15.984-26.344-34.547-26.344-34.547l-26.344 34.547z" fill-rule="evenodd"/>
</svg>
