<?xml version="1.0" encoding="UTF-8"?>
<svg id="Layer_1" data-name="Layer 1" xmlns="http://www.w3.org/2000/svg" viewBox="0 0 834.007 1129.438">
  <path d="M17.578,0C7.828.047,0,7.969,0,17.719v1094c0,9.75,7.828,17.672,17.578,17.719h798.71c4.688,0,9.188-1.828,12.516-5.156s5.203-7.875,5.203-12.562V17.72c0-4.688-1.875-9.234-5.203-12.562S820.976.002,816.288.002l-798.71-.002ZM35.297,35.344h51.891v1058.8h-51.891V35.344ZM122.344,35.344h230.95v99.516-.047c.047,9.75,7.969,17.625,17.719,17.578h91.969-.047c9.75,0,17.578-7.875,17.625-17.578V35.344h230.95v1058.8h-230.95v-99.516c-.047-9.703-7.875-17.578-17.625-17.578h-91.969.047c-9.75-.047-17.672,7.828-17.719,17.578v99.516H122.344V35.344ZM388.604,35.344h56.672v81.797h-56.672V35.344ZM746.824,35.344h51.844v1058.8h-51.844V35.344ZM371.034,242.204c-9.75-.047-17.672,7.828-17.719,17.578v242.39c-.047,4.688,1.828,9.234,5.156,12.562,3.328,3.281,7.828,5.156,12.562,5.156h91.969-.047c4.688,0,9.188-1.875,12.516-5.203,3.281-3.328,5.156-7.828,5.109-12.516v-242.39c-.047-9.703-7.875-17.578-17.625-17.578h-91.922ZM388.612,277.501h56.672v207.1h-56.672v-207.1ZM371.034,609.561v-.047c-4.734,0-9.234,1.875-12.562,5.156-3.328,3.328-5.203,7.875-5.156,12.562v242.44c.047,9.75,7.969,17.625,17.719,17.578h91.969-.047c9.75,0,17.578-7.875,17.625-17.578v-242.44c.047-4.688-1.828-9.188-5.109-12.516-3.328-3.328-7.828-5.203-12.516-5.203l-91.923.048ZM388.612,644.858h56.672v207.1h-56.672v-207.1ZM388.612,1012.308h56.672v81.844h-56.672v-81.844Z"/>
</svg>