<?xml version="1.0" encoding="UTF-8"?>
<svg id="Layer_1" data-name="Layer 1" xmlns="http://www.w3.org/2000/svg" viewBox="0 0 1164.003 588.625">
  <defs>
    <style>
      .cls-1 {
        fill: red;
      }
    </style>
  </defs>
  <path d="M1162.226,582.547c.383-.672.758-1.309,1.008-2.062.266-.781.371-1.57.48-2.398.059-.504.289-.938.289-1.453,0-.254-.133-.469-.145-.719-.047-.793-.254-1.547-.469-2.316-.227-.805-.406-1.586-.781-2.293-.109-.227-.098-.469-.227-.684l-91.617-158.4V107.051h8.773c6.637,0,12-5.375,12-12v-40.598c0-6.625-5.363-12-12-12l-166.97.004c-6.637,0-12,5.375-12,12v40.598c0,6.625,5.363,12,12,12h8.785v46.871L835.795,6.016c-.121-.215-.324-.324-.457-.527-.289-.445-.613-.84-.961-1.246-.371-.434-.758-.805-1.176-1.176-.406-.359-.816-.684-1.262-.984-.203-.133-.301-.336-.516-.457-.227-.133-.469-.121-.707-.238-.445-.227-.898-.422-1.379-.59-.562-.203-1.117-.348-1.703-.457-.527-.109-1.031-.168-1.559-.203-.238-.012-.434-.133-.672-.133l-475.97-.004c-.48,0-.875.215-1.332.266-.852.098-1.668.227-2.484.504-.707.238-1.332.562-1.98.938-.684.383-1.309.77-1.922,1.297-.625.527-1.117,1.141-1.621,1.789-.301.383-.707.625-.961,1.055L1.703,570.478c-.145.238-.145.504-.266.758-.371.719-.59,1.477-.805,2.269-.215.781-.422,1.535-.48,2.328-.008.273-.152.512-.152.789,0,.492.227.898.277,1.379.098.816.215,1.621.48,2.398.254.742.59,1.379.961,2.039.371.672.758,1.285,1.262,1.883.539.637,1.152,1.141,1.812,1.644.383.289.625.707,1.043.949.312.191.66.254.984.422.348.168.695.312,1.055.445,1.344.492,2.723.828,4.106.828h562.623c1.414-.012,2.785-.348,4.106-.828.324-.121.637-.238.949-.383,1.223-.574,2.387-1.285,3.371-2.269.047-.047.086-.121.133-.18.672-.695,1.297-1.441,1.801-2.316l240.43-415.66,240.45,415.66c.504.863,1.117,1.621,1.777,2.305.059.059.098.133.156.191.984.984,2.148,1.703,3.371,2.269.301.156.613.266.938.383,1.32.48,2.699.816,4.117.828h75.812c1.379,0,2.746-.324,4.105-.828.348-.133.684-.254,1.02-.422.289-.145.602-.203.875-.359.434-.254.695-.66,1.078-.961.695-.516,1.32-1.008,1.883-1.656.496-.574.867-1.188,1.25-1.836h0ZM1083.148,564.621l-247.36-427.6c-.121-.203-.324-.312-.457-.516-.445-.684-1.019-1.246-1.621-1.836-.562-.562-1.106-1.117-1.754-1.547-.203-.133-.312-.359-.539-.48-.457-.266-.961-.289-1.43-.492-.758-.312-1.488-.613-2.293-.77-.805-.156-1.586-.18-2.387-.168-.707,0-1.379.012-2.102.145-.887.168-1.703.492-2.531.852-.422.191-.863.203-1.273.434-.203.121-.301.312-.492.434-.707.457-1.273,1.055-1.871,1.668-.562.562-1.117,1.094-1.535,1.754-.133.203-.336.312-.469.527l-247.36,427.59h-48.035L825.409,35.954l305.79,528.66-48.051.006ZM33.148,564.621L356.238,24.011h448.37l-312.71,540.61H33.148ZM924.558,66.451h142.98v16.598l-8.781-.004h-134.2v-16.594ZM945.343,107.045h101.41v263.69l-101.41-175.32v-88.37Z"/>
  <path d="M928.036,411.387c-11.578-46.727-51.625-90.312-102.6-90.312-60.719,0-106.09,61.848-106.09,117.17v138.38c0,6.637,5.363,12,12,12h188.2c6.637,0,12-5.363,12-12l.004-138.39c0-8.723-1.246-17.578-3.371-26.352-.074-.156-.062-.336-.133-.492l-.01-.004ZM907.54,438.231v46.129h-70.105v-56.258h69.434c.406,3.398.672,6.781.672,10.129h0ZM813.435,484.36h-70.094v-46.129c0-3.348.266-6.742.672-10.141h69.422v56.27ZM743.345,508.36h70.094v56.258h-70.094v-56.258ZM837.435,508.36h70.105v56.258h-70.105v-56.258ZM900.88,404.09h-63.445v-55.355c0-.898-.324-1.703-.516-2.555,29.52,5.168,53.055,29.578,63.961,57.91h0ZM813.954,346.176c-.191.852-.516,1.656-.516,2.555v55.355h-63.434c10.895-28.328,34.426-52.738,63.949-57.91h0Z"/>
  <path class="cls-1" d="M75.95,64.301c-12.577-7.119-22.253-4.292-29.053,8.431-3.375,6.349-6.923,12.723-10.764,19.49,90.586,49.525,179.825,98.335,270.558,147.921-10.274,18.632-20.109,36.553-31.239,56.901,58.511-1.375,114.916-2.675,173.282-3.978-30.795-49.834-60.292-97.809-91.334-148.136-7.974,15.641-16.096,29.885-22.649,44.936-4.548,10.614-10.257,11.085-19.376,6.094-77.696-42.636-155.314-85.131-232.955-127.673-2.206-1.223-4.143-2.643-6.35-3.866l-.119-.12Z"/>
</svg>