<?xml version="1.0" encoding="UTF-8"?>
<svg width="1200pt" height="1200pt" version="1.1" viewBox="0 0 1200 1200" xmlns="http://www.w3.org/2000/svg">
 <path d="m1151.6 563.89c-5.3711-34.148-37.441-57.461-71.602-52.078l-154.84 24.422s-31.758-177.37-31.992-178.35c-0.66406-2.6758-5.8398-47.812-59.375-47.684-0.44922 0-248.24-0.12891-248.24-0.12891-24.062 0-46.016 13.797-56.426 35.496l-73.047 152.08c-14.98 31.172-1.8359 68.582 29.316 83.547 8.75 4.1992 17.988 6.1914 27.07 6.1914 23.32 0 45.723-13.105 56.484-35.516l55.977-116.58h91.719l-250.47 390.9-152.23 106.7c-28.32 19.863-35.156 58.906-15.312 87.227 12.168 17.363 31.582 26.66 51.309 26.66 12.422 0 24.961-3.6719 35.898-11.367l162.62-114c6.8555-4.7656 12.656-10.938 17.09-18.027l85.938-137.11 77.91 81.641-87.871 165.61c-16.191 30.527-4.5703 68.438 25.977 84.668 9.3555 4.9219 19.395 7.2852 29.277 7.2852 22.441 0 44.141-12.051 55.391-33.242l109-205.49c12.637-23.848 8.5938-53.066-10-72.559l-130.37-136.66 77.637-118.58 14.141 79.66c5.9766 33.613 37.812 56.367 71.426 50.898l215.53-33.984c34.16-5.3945 57.461-37.457 52.07-71.617z"/>
 <path d="m1043 208.52c0 62.965-51.043 114.01-114.01 114.01s-114.01-51.047-114.01-114.01c0-62.965 51.043-114.01 114.01-114.01s114.01 51.043 114.01 114.01"/>
 <path d="m171.15 332.83h288.71c11.543 0 20.879-9.3477 20.879-20.867 0-11.523-9.3359-20.867-20.879-20.867l-288.71-0.003906c-11.543 0-20.879 9.3477-20.879 20.867 0 11.523 9.3359 20.871 20.879 20.871z"/>
 <path d="m399.41 178.83h288.71c11.543 0 20.859-9.3477 20.859-20.867 0-11.523-9.3164-20.867-20.859-20.867l-288.71-0.003906c-11.543 0-20.859 9.3477-20.859 20.867 0 11.527 9.3164 20.871 20.859 20.871z"/>
 <path d="m164.63 664.77c0 11.543 9.3359 20.879 20.879 20.879h288.71c11.523 0 20.859-9.3359 20.859-20.879 0-11.523-9.3359-20.859-20.859-20.859h-288.71c-11.543 0-20.879 9.3359-20.879 20.859z"/>
 <path d="m79.395 509.26h288.71c11.543 0 20.879-9.3477 20.879-20.867 0-11.523-9.3359-20.867-20.879-20.867l-288.71-0.003907c-11.523 0-20.859 9.3477-20.859 20.867 0 11.523 9.3359 20.871 20.859 20.871z"/>
 <path d="m378.12 813.63c0-11.543-9.3359-20.879-20.879-20.879h-288.71c-11.543 0-20.879 9.3359-20.879 20.879 0 11.523 9.3359 20.859 20.879 20.859h288.71c11.543 0 20.879-9.3359 20.879-20.859z"/>
</svg>
