<?xml version="1.0" encoding="UTF-8"?>
<svg id="Layer_1" data-name="Layer 1" xmlns="http://www.w3.org/2000/svg" viewBox="0 0 975 975">
  <path d="M312.52,337.5c0-20.203,12.188-38.438,30.844-46.172,18.703-7.781,40.219-3.469,54.516,10.828,14.297,14.297,18.562,35.812,10.828,54.469-7.734,18.703-25.969,30.891-46.219,30.891-27.609,0-49.969-22.406-49.969-50.016h0ZM612.52,387.516c20.203,0,38.438-12.188,46.172-30.891,7.734-18.656,3.469-40.172-10.828-54.469s-35.812-18.609-54.516-10.828c-18.656,7.734-30.844,25.969-30.844,46.172,0,13.266,5.25,25.969,14.625,35.344s22.125,14.672,35.391,14.672ZM975,487.5c0,129.28-51.375,253.31-142.78,344.72-91.406,91.406-215.44,142.78-344.72,142.78s-253.31-51.375-344.72-142.78C51.374,740.814,0,616.78,0,487.5S51.375,234.19,142.78,142.78C234.186,51.374,358.22,0,487.5,0c129.24.141,253.18,51.516,344.58,142.92,91.406,91.406,142.78,215.34,142.92,344.58ZM900,487.5c0-109.41-43.453-214.31-120.79-291.71-77.391-77.344-182.29-120.79-291.71-120.79s-214.31,43.453-291.71,120.79c-77.344,77.391-120.79,182.29-120.79,291.71s43.453,214.31,120.79,291.71c77.391,77.344,182.29,120.79,291.71,120.79,109.36-.141,214.22-43.641,291.52-120.98,77.344-77.297,120.84-182.16,120.98-291.52ZM668.02,612c-61.359-48.328-139.4-70.172-216.89-60.797-77.531,9.375-148.08,49.266-196.13,110.81-6.188,7.781-9,17.719-7.781,27.609s6.375,18.844,14.297,24.891c15.844,11.016,37.5,8.203,49.969-6.516,42.281-53.906,107.53-84.656,176.02-83.016,48.891.141,96.375,16.5,135,46.5,14.109,11.203,26.672,24.141,37.5,38.531,6.984,9.562,18.141,15.141,30,15,8.109-.047,15.984-2.672,22.5-7.5,16.547-12.422,19.922-35.953,7.5-52.5-14.859-19.969-32.344-37.781-51.984-53.016v.004Z"/>
</svg>