<?xml version="1.0" encoding="UTF-8"?>
<svg id="Layer_1" data-name="Layer 1" xmlns="http://www.w3.org/2000/svg" viewBox="0 0 1199.973 450.014">
  <path d="M290.284,22.979C281.323,7.663,269.565.01,257.811.01s-23.512,7.652-32.48,22.969L7.681,394.569c-17.934,30.625-3.394,55.445,32.477,55.445h435.31c35.871,0,50.41-24.82,32.48-55.445L290.284,22.979ZM40.634,412.509L257.694,41.929c.035-.066.078-.137.117-.203.035.062.078.137.113.203l217.07,370.58H40.634Z"/>
  <path d="M1192.294,394.559L974.634,22.969c-8.965-15.316-20.723-22.969-32.477-22.969s-23.512,7.652-32.48,22.969l-217.65,371.59c-17.934,30.625-3.394,55.445,32.477,55.445h435.31c35.871,0,50.41-24.82,32.48-55.445ZM724.984,412.504L942.044,41.924c.035-.066.078-.137.117-.203.035.062.078.137.113.203l217.07,370.58h-434.361Z"/>
  <path d="M506.244,206.259h168.75c10.355,0,18.75-8.394,18.75-18.75s-8.394-18.75-18.75-18.75h-168.75c-10.355,0-18.75,8.394-18.75,18.75s8.395,18.75,18.75,18.75Z"/>
  <path d="M693.744,262.509c0-10.355-8.394-18.75-18.75-18.75h-168.75c-10.355,0-18.75,8.394-18.75,18.75s8.395,18.75,18.75,18.75h168.75c10.355,0,18.75-8.394,18.75-18.75Z"/>
</svg>