<?xml version="1.0" encoding="UTF-8"?>
<svg id="Layer_1" data-name="Layer 1" xmlns="http://www.w3.org/2000/svg" viewBox="0 0 1102.67 944.335">
  <defs>
    <style>
      .cls-1, .cls-2 {
        fill: none;
      }

      .cls-3 {
        fill: #f8ff6e;
      }

      .cls-2 {
        stroke: #000;
        stroke-linecap: round;
        stroke-linejoin: round;
        stroke-width: 11px;
      }
    </style>
  </defs>
  <rect class="cls-3" x="921.225" y="590.931" width="153.433" height="260.781"/>
  <path d="M269.356,136.329c-28,0-50.668-14.396-50.668-32.178l.004-71.973c0-17.783,22.668-32.178,50.668-32.178s50.668,14.396,50.668,32.178v71.973c-.004,17.785-22.672,32.178-50.672,32.178h0Z"/>
  <path d="M829.356,136.329c-28,0-50.668-14.396-50.668-32.178l.004-71.973c0-17.783,22.668-32.178,50.668-32.178s50.668,14.396,50.668,32.178v71.973c1.328,17.785-22.672,32.178-50.672,32.178h0Z"/>
  <path d="M1009.326,54.999c36,0,65.332,29.332,65.332,65.332v732c0,36-29.332,65.332-65.332,65.332l-918.66.004c-36,0-65.332-29.332-65.332-65.332l-.004-732c0-36,29.332-65.332,65.332-65.332h78.668v34.668c0,54.668,44,98.668,98.668,98.668s98.668-44,98.668-98.668v-34.668h364v34.668c0,54.668,44,98.668,98.668,98.668s98.668-44,98.668-98.668v-34.668h81.328M1009.33,28.335h-105.33v61.332c0,40-32,72-72,72s-72-32-72-72V28.335h-418.67v61.332c0,40-32,72-72,72s-72-32-72-72V28.335h-105.33c-50.668,0-92,41.332-92,92v732c0,50.668,41.332,92,92,92h918.67c50.668,0,92-41.332,92-92V120.335c0-50.664-42.668-92-93.336-92h-.004,0Z"/>
  <g>
    <rect class="cls-1" x="13.336" y="187.764" width="1077.446" height="463"/>
    <path d="M304.387,554.51c-18.582,0-35.781-2.444-51.59-7.335-15.814-4.89-30.156-12.301-43.031-22.249-12.882-9.94-24.374-22.25-34.474-36.92l36.185-41.565c15.969,22.823,31.297,38.631,45.967,47.433s32.105,13.203,52.322,13.203c12.387,0,23.633-1.956,33.742-5.868,10.1-3.912,18.092-9.291,23.961-16.137,5.867-6.846,8.801-14.67,8.801-23.472,0-5.869-.977-11.409-2.934-16.627-1.955-5.21-4.975-9.94-9.047-14.181-4.08-4.232-9.291-8.145-15.646-11.736-6.357-3.583-13.777-6.762-22.25-9.535-8.48-2.766-18.262-5.135-29.34-7.091-17.604-3.583-32.932-8.312-45.967-14.181-13.043-5.868-23.961-13.203-32.762-22.005-8.803-8.802-15.328-18.827-19.561-30.074-4.24-11.247-6.357-23.877-6.357-37.897,0-13.692,3.01-26.406,9.046-38.142,6.029-11.736,14.342-21.921,24.94-30.562,10.59-8.634,23.059-15.32,37.408-20.049,14.342-4.722,29.828-7.09,46.455-7.09,17.604,0,33.74,2.285,48.41,6.846,14.67,4.569,27.705,11.331,39.121,20.293,11.406,8.97,20.857,19.972,28.361,33.007l-37.164,36.675c-6.525-10.758-13.859-19.804-22.006-27.139-8.152-7.335-17.113-12.875-26.895-16.626-9.779-3.744-20.217-5.624-31.295-5.624-12.715,0-23.801,1.956-33.252,5.868-9.459,3.912-16.871,9.375-22.25,16.382-5.379,7.014-8.068,15.243-8.068,24.694,0,6.846,1.299,13.126,3.912,18.827,2.605,5.708,6.602,10.758,11.98,15.159,5.379,4.401,12.629,8.313,21.76,11.736,9.123,3.423,20.049,6.441,32.764,9.046,17.924,3.912,33.9,8.886,47.922,14.915,14.012,6.036,25.916,13.126,35.697,21.271,9.779,8.153,17.191,17.283,22.248,27.385,5.051,10.108,7.58,21.026,7.58,32.763,0,21.845-5.059,40.755-15.158,56.724-10.109,15.977-24.451,28.286-43.033,36.92s-40.754,12.958-66.504,12.958Z"/>
    <path d="M589.96,554.51c-21.195,0-40.511-5.867-57.947-17.604-17.443-11.736-31.38-27.705-41.809-47.922-10.438-20.21-15.648-43.033-15.648-68.46,0-25.749,5.295-48.656,15.893-68.705,10.59-20.049,24.938-35.773,43.032-47.188,18.093-11.408,38.386-17.115,60.88-17.115,13.363,0,25.589,1.956,36.675,5.868,11.079,3.912,20.783,9.375,29.096,16.381,8.313,7.014,15.159,15.083,20.538,24.206,5.379,9.13,8.718,18.911,10.024,29.34l-11.247-3.912v-66.504h50.856v256.726h-50.856v-61.125l11.736-3.423c-1.956,8.802-5.952,17.359-11.98,25.672-6.036,8.313-13.692,15.732-22.983,22.25-9.291,6.525-19.56,11.736-30.807,15.648-11.247,3.911-23.067,5.867-35.452,5.867ZM603.163,508.055c15.319,0,28.851-3.743,40.587-11.246,11.735-7.496,20.942-17.849,27.628-31.052,6.678-13.204,10.024-28.279,10.024-45.233,0-16.626-3.347-31.457-10.024-44.5-6.686-13.035-15.893-23.304-27.628-30.807-11.736-7.496-25.268-11.247-40.587-11.247-14.999,0-28.286,3.751-39.854,11.247-11.576,7.503-20.706,17.772-27.385,30.807-6.686,13.042-10.024,27.874-10.024,44.5,0,16.954,3.339,32.029,10.024,45.233,6.679,13.203,15.809,23.556,27.385,31.052,11.567,7.503,24.854,11.246,39.854,11.246Z"/>
    <path d="M779.201,341.794v-48.9h163.325v48.9h-163.325ZM832.502,549.62V227.369h50.367v322.251h-50.367Z"/>
  </g>
  <rect class="cls-2" x="29.445" y="702.199" width="149.319" height="149.319"/>
  <path d="M104.367,685.526c-5.004,0-9.629-.658-13.892-1.975-4.263-1.317-8.114-3.308-11.587-5.991-3.456-2.683-6.551-5.991-9.283-9.941l9.744-11.192c4.296,6.156,8.427,10.402,12.377,12.772,3.95,2.37,8.641,3.555,14.089,3.555,3.341,0,6.37-.527,9.086-1.58,2.732-1.053,4.872-2.502,6.452-4.345s2.37-3.95,2.37-6.32c0-1.58-.263-3.078-.79-4.477-.527-1.399-1.35-2.683-2.436-3.819-1.103-1.136-2.502-2.189-4.214-3.16-1.712-.971-3.703-1.811-5.991-2.568s-4.921-1.383-7.9-1.909c-4.74-.971-8.872-2.238-12.377-3.819-3.506-1.58-6.452-3.555-8.822-5.925-2.37-2.37-4.131-5.069-5.267-8.098s-1.712-6.436-1.712-10.205c0-3.687.807-7.11,2.436-10.271s3.851-5.909,6.715-8.23c2.847-2.337,6.205-4.131,10.073-5.399,3.851-1.267,8.032-1.909,12.509-1.909,4.74,0,9.086.625,13.036,1.843,3.95,1.234,7.456,3.045,10.534,5.464,3.078,2.403,5.613,5.382,7.637,8.888l-10.007,9.876c-1.761-2.897-3.736-5.333-5.925-7.308-2.189-1.975-4.609-3.456-7.242-4.477-2.633-1.004-5.448-1.514-8.427-1.514-3.424,0-6.403.527-8.954,1.58-2.551,1.053-4.543,2.518-5.991,4.411-1.448,1.893-2.173,4.115-2.173,6.65,0,1.843.346,3.539,1.053,5.069s1.778,2.897,3.226,4.082c1.448,1.185,3.407,2.238,5.86,3.16s5.399,1.728,8.822,2.436c4.823,1.053,9.135,2.403,12.904,4.016,3.769,1.613,6.979,3.539,9.612,5.728,2.633,2.189,4.625,4.658,5.991,7.374,1.366,2.732,2.041,5.662,2.041,8.822,0,5.876-1.366,10.978-4.082,15.274-2.732,4.296-6.584,7.604-11.587,9.941-5.004,2.321-10.978,3.489-17.908,3.489Z"/>
  <rect class="cls-2" x="178.763" y="702.199" width="149.319" height="149.319"/>
  <path d="M209.443,684.209v-92.172h13.957l33.577,54.645-6.715-.132,33.972-54.513h13.167v92.172h-14.221v-37.79c0-7.9.198-15.011.593-21.331s1.07-12.608,2.041-18.829l1.843,4.872-30.153,46.613h-8.69l-29.232-46.086,1.448-5.399c.971,5.876,1.646,11.917,2.041,18.105.395,6.189.593,13.546.593,22.055v37.79s-14.221,0-14.221,0Z"/>
  <rect class="cls-2" x="328.082" y="702.199" width="149.319" height="149.319"/>
  <path d="M395.236,684.209v-78.478h-25.808v-13.694h66.627v13.694h-26.598v78.478s-14.221,0-14.221,0Z"/>
  <rect class="cls-2" x="477.4" y="702.199" width="149.319" height="149.319"/>
  <path d="M519.009,684.209l-29.363-92.172h15.143l17.776,57.673c.527,1.399,1.02,3.061,1.448,4.938.444,1.893.839,3.786,1.185,5.728s.675,3.736.988,5.399c.313,1.679.593,3.029.856,4.082l-3.819-.132c1.317-4.658,2.354-8.246,3.094-10.797.741-2.535,1.35-4.493,1.778-5.86.444-1.366.839-2.518,1.185-3.489l16.591-41.609h12.772l16.064,41.609c.889,2.107,1.662,4.197,2.321,6.255.658,2.057,1.251,4.131,1.761,6.189.527,2.057,1.103,4.23,1.712,6.518l-3.424.922c.428-2.37.774-4.23.988-5.596.23-1.366.412-2.485.593-3.358s.346-1.728.527-2.568c.181-.823.461-1.909.856-3.226.395-1.317.955-3.111,1.662-5.399l17.496-57.278h15.274l-29.347,92.172h-9.892l-24.343-57.673,1.185.527-23.438,57.147h-9.629Z"/>
  <rect class="cls-2" x="626.702" y="702.199" width="149.319" height="149.319"/>
  <path d="M693.873,684.209v-78.478h-25.808v-13.694h66.627v13.694h-26.598v78.478h-14.221Z"/>
  <rect class="cls-2" x="776.021" y="702.199" width="149.319" height="149.319"/>
  <path d="M823.967,684.209v-92.172h14.204v92.172h-14.204ZM830.287,605.732v-13.694h53.46v13.694h-53.46ZM830.287,644.97v-13.694h47.534v13.694h-47.534Z"/>
  <rect class="cls-2" x="925.339" y="702.199" width="149.319" height="149.319"/>
  <path d="M1000.262,685.526c-5.004,0-9.629-.658-13.892-1.975-4.263-1.317-8.114-3.308-11.587-5.991s-6.551-5.991-9.283-9.941l9.76-11.192c4.296,6.156,8.427,10.402,12.377,12.772,3.934,2.37,8.625,3.555,14.073,3.555,3.341,0,6.37-.527,9.085-1.58,2.732-1.053,4.888-2.502,6.469-4.345s2.37-3.95,2.37-6.32c0-1.58-.263-3.078-.79-4.477-.527-1.399-1.333-2.683-2.42-3.819-1.103-1.136-2.502-2.189-4.23-3.16-1.712-.971-3.703-1.811-5.975-2.568s-4.921-1.383-7.9-1.909c-4.74-.971-8.872-2.238-12.377-3.819-3.506-1.58-6.452-3.555-8.822-5.925s-4.131-5.069-5.251-8.098c-1.136-3.029-1.712-6.436-1.712-10.205,0-3.687.823-7.11,2.436-10.271,1.629-3.16,3.851-5.909,6.699-8.23,2.864-2.337,6.222-4.131,10.073-5.399,3.851-1.267,8.032-1.909,12.509-1.909,4.74,0,9.102.625,13.036,1.843,3.95,1.234,7.456,3.045,10.55,5.464,3.078,2.403,5.613,5.382,7.637,8.888l-10.007,9.876c-1.745-2.897-3.736-5.333-5.909-7.308-2.206-1.975-4.609-3.456-7.242-4.477-2.633-1.004-5.448-1.514-8.427-1.514-3.424,0-6.419.527-8.954,1.58-2.551,1.053-4.543,2.518-5.991,4.411-1.448,1.893-2.173,4.115-2.173,6.65,0,1.843.346,3.539,1.037,5.069.708,1.531,1.778,2.897,3.226,4.082,1.448,1.185,3.407,2.238,5.859,3.16,2.436.922,5.382,1.728,8.806,2.436,4.839,1.053,9.135,2.403,12.904,4.016,3.769,1.613,6.979,3.539,9.612,5.728s4.625,4.658,5.991,7.374c1.366,2.732,2.041,5.662,2.041,8.822,0,5.876-1.366,10.978-4.082,15.274s-6.584,7.604-11.587,9.941c-5.004,2.321-10.978,3.489-17.908,3.489h-.033Z"/>
  <path d="M1056.092,724.123c-3.736-3.736-9.793-3.736-13.513,0l-39.206,39.206-39.206-39.206c-3.736-3.736-9.793-3.736-13.513,0-3.72,3.736-3.736,9.793,0,13.513l39.206,39.206-39.206,39.206c-3.736,3.736-3.736,9.793,0,13.513,3.736,3.72,9.793,3.736,13.513,0l39.206-39.206,39.206,39.206c3.736,3.736,9.793,3.736,13.513,0,3.72-3.736,3.736-9.793,0-13.513l-39.206-39.206,39.206-39.206c3.736-3.736,3.736-9.793,0-13.513h0Z"/>
</svg>