<?xml version="1.0" encoding="UTF-8"?>
<svg id="Layer_1" xmlns="http://www.w3.org/2000/svg" version="1.1" viewBox="0 0 1056.2 654.6">
  <!-- Generator: Adobe Illustrator 29.2.1, SVG Export Plug-In . SVG Version: 2.1.0 Build 116)  -->
  <defs>
    <style>
      .st0 {
        fill: #f8ff6e;
      }

      .st1 {
        fill: none;
        stroke: #000;
        stroke-linecap: round;
        stroke-linejoin: round;
        stroke-width: 11px;
      }
    </style>
  </defs>
  <rect class="st0" x="897.3" y="388.5" width="153.4" height="260.8"/>
  <g>
    <path d="M280.4,352.1c-18.6,0-35.8-2.4-51.6-7.3-15.8-4.9-30.2-12.3-43-22.2-12.9-9.9-24.4-22.2-34.5-36.9l36.2-41.6c16,22.8,31.3,38.6,46,47.4s32.1,13.2,52.3,13.2,23.6-2,33.7-5.9c10.1-3.9,18.1-9.3,24-16.1,5.9-6.8,8.8-14.7,8.8-23.5s-1-11.4-2.9-16.6c-2-5.2-5-9.9-9-14.2-4.1-4.2-9.3-8.1-15.6-11.7-6.4-3.6-13.8-6.8-22.2-9.5-8.5-2.8-18.3-5.1-29.3-7.1-17.6-3.6-32.9-8.3-46-14.2-13-5.9-24-13.2-32.8-22-8.8-8.8-15.3-18.8-19.6-30.1-4.2-11.2-6.4-23.9-6.4-37.9s3-26.4,9-38.1c6-11.7,14.3-21.9,24.9-30.6,10.6-8.6,23.1-15.3,37.4-20,14.3-4.7,29.8-7.1,46.5-7.1s33.7,2.3,48.4,6.8c14.7,4.6,27.7,11.3,39.1,20.3,11.4,9,20.9,20,28.4,33l-37.2,36.7c-6.5-10.8-13.9-19.8-22-27.1-8.2-7.3-17.1-12.9-26.9-16.6-9.8-3.7-20.2-5.6-31.3-5.6s-23.8,2-33.3,5.9c-9.5,3.9-16.9,9.4-22.2,16.4-5.4,7-8.1,15.2-8.1,24.7s1.3,13.1,3.9,18.8c2.6,5.7,6.6,10.8,12,15.2,5.4,4.4,12.6,8.3,21.8,11.7,9.1,3.4,20,6.4,32.8,9,17.9,3.9,33.9,8.9,47.9,14.9,14,6,25.9,13.1,35.7,21.3,9.8,8.2,17.2,17.3,22.2,27.4,5.1,10.1,7.6,21,7.6,32.8,0,21.8-5.1,40.8-15.2,56.7-10.1,16-24.5,28.3-43,36.9s-40.8,13-66.5,13h0Z"/>
    <path d="M566,352.1c-21.2,0-40.5-5.9-57.9-17.6-17.4-11.7-31.4-27.7-41.8-47.9-10.4-20.2-15.6-43-15.6-68.5s5.3-48.7,15.9-68.7c10.6-20,24.9-35.8,43-47.2,18.1-11.4,38.4-17.1,60.9-17.1s25.6,2,36.7,5.9c11.1,3.9,20.8,9.4,29.1,16.4,8.3,7,15.2,15.1,20.5,24.2,5.4,9.1,8.7,18.9,10,29.3l-11.2-3.9v-66.5h50.9v256.7h-50.9v-61.1l11.7-3.4c-2,8.8-6,17.4-12,25.7-6,8.3-13.7,15.7-23,22.3-9.3,6.5-19.6,11.7-30.8,15.6-11.2,3.9-23.1,5.9-35.5,5.9h0ZM579.2,305.6c15.3,0,28.9-3.7,40.6-11.2,11.7-7.5,20.9-17.8,27.6-31.1,6.7-13.2,10-28.3,10-45.2s-3.3-31.5-10-44.5c-6.7-13-15.9-23.3-27.6-30.8-11.7-7.5-25.3-11.2-40.6-11.2s-28.3,3.8-39.9,11.2c-11.6,7.5-20.7,17.8-27.4,30.8-6.7,13-10,27.9-10,44.5s3.3,32,10,45.2c6.7,13.2,15.8,23.6,27.4,31.1,11.6,7.5,24.9,11.2,39.9,11.2Z"/>
    <path d="M755.3,139.4v-48.9h163.3v48.9h-163.3ZM808.6,347.2V24.9h50.4v322.3h-50.4Z"/>
  </g>
  <rect class="st1" x="5.5" y="499.8" width="149.3" height="149.3"/>
  <path d="M80.4,483.1c-5,0-9.6-.7-13.9-2-4.3-1.3-8.1-3.3-11.6-6-3.5-2.7-6.6-6-9.3-9.9l9.7-11.2c4.3,6.2,8.4,10.4,12.4,12.8s8.6,3.6,14.1,3.6,6.4-.5,9.1-1.6c2.7-1.1,4.9-2.5,6.5-4.3s2.4-4,2.4-6.3-.3-3.1-.8-4.5-1.3-2.7-2.4-3.8c-1.1-1.1-2.5-2.2-4.2-3.2-1.7-1-3.7-1.8-6-2.6s-4.9-1.4-7.9-1.9c-4.7-1-8.9-2.2-12.4-3.8-3.5-1.6-6.5-3.6-8.8-5.9-2.4-2.4-4.1-5.1-5.3-8.1s-1.7-6.4-1.7-10.2.8-7.1,2.4-10.3,3.9-5.9,6.7-8.2c2.8-2.3,6.2-4.1,10.1-5.4,3.9-1.3,8-1.9,12.5-1.9s9.1.6,13,1.8c3.9,1.2,7.5,3,10.5,5.5,3.1,2.4,5.6,5.4,7.6,8.9l-10,9.9c-1.8-2.9-3.7-5.3-5.9-7.3s-4.6-3.5-7.2-4.5c-2.6-1-5.4-1.5-8.4-1.5s-6.4.5-9,1.6c-2.6,1.1-4.5,2.5-6,4.4s-2.2,4.1-2.2,6.7.3,3.5,1.1,5.1,1.8,2.9,3.2,4.1,3.4,2.2,5.9,3.2,5.4,1.7,8.8,2.4c4.8,1.1,9.1,2.4,12.9,4s7,3.5,9.6,5.7,4.6,4.7,6,7.4c1.4,2.7,2,5.7,2,8.8,0,5.9-1.4,11-4.1,15.3-2.7,4.3-6.6,7.6-11.6,9.9-5,2.3-11,3.5-17.9,3.5h0Z"/>
  <rect class="st1" x="154.8" y="499.8" width="149.3" height="149.3"/>
  <path d="M185.5,481.8v-92.2h14l33.6,54.6h-6.7c0-.1,34-54.6,34-54.6h13.2v92.2h-14.2v-37.8c0-7.9.2-15,.6-21.3s1.1-12.6,2-18.8l1.8,4.9-30.2,46.6h-8.7l-29.2-46.1,1.4-5.4c1,5.9,1.6,11.9,2,18.1.4,6.2.6,13.5.6,22.1v37.8h-14.2,0Z"/>
  <rect class="st1" x="304.1" y="499.8" width="149.3" height="149.3"/>
  <path d="M371.3,481.8v-78.5h-25.8v-13.7h66.6v13.7h-26.6v78.5h-14.2Z"/>
  <rect class="st1" x="453.5" y="499.8" width="149.3" height="149.3"/>
  <path d="M495.1,481.8l-29.4-92.2h15.1l17.8,57.7c.5,1.4,1,3.1,1.4,4.9.4,1.9.8,3.8,1.2,5.7s.7,3.7,1,5.4c.3,1.7.6,3,.9,4.1h-3.8c1.3-4.8,2.4-8.4,3.1-10.9.7-2.5,1.3-4.5,1.8-5.9.4-1.4.8-2.5,1.2-3.5l16.6-41.6h12.8l16.1,41.6c.9,2.1,1.7,4.2,2.3,6.3.7,2.1,1.3,4.1,1.8,6.2.5,2.1,1.1,4.2,1.7,6.5l-3.4.9c.4-2.4.8-4.2,1-5.6.2-1.4.4-2.5.6-3.4s.3-1.7.5-2.6c.2-.8.5-1.9.9-3.2s1-3.1,1.7-5.4l17.5-57.3h15.3l-29.3,92.2h-9.9l-24.3-57.7,1.2.5-23.4,57.1h-9.6,0Z"/>
  <rect class="st1" x="602.8" y="499.8" width="149.3" height="149.3"/>
  <path d="M669.9,481.8v-78.5h-25.8v-13.7h66.6v13.7h-26.6v78.5h-14.2Z"/>
  <rect class="st1" x="752.1" y="499.8" width="149.3" height="149.3"/>
  <path d="M800,481.8v-92.2h14.2v92.2h-14.2ZM806.3,403.3v-13.7h53.5v13.7h-53.5ZM806.3,442.5v-13.7h47.5v13.7h-47.5Z"/>
  <rect class="st1" x="901.4" y="499.8" width="149.3" height="149.3"/>
  <path d="M976.3,483.1c-5,0-9.6-.7-13.9-2-4.3-1.3-8.1-3.3-11.6-6s-6.6-6-9.3-9.9l9.8-11.2c4.3,6.2,8.4,10.4,12.4,12.8,3.9,2.4,8.6,3.6,14.1,3.6s6.4-.5,9.1-1.6c2.7-1.1,4.9-2.5,6.5-4.3s2.4-4,2.4-6.3-.3-3.1-.8-4.5-1.3-2.7-2.4-3.8c-1.1-1.1-2.5-2.2-4.2-3.2-1.7-1-3.7-1.8-6-2.6s-4.9-1.4-7.9-1.9c-4.7-1-8.9-2.2-12.4-3.8-3.5-1.6-6.5-3.6-8.8-5.9s-4.1-5.1-5.3-8.1c-1.1-3-1.7-6.4-1.7-10.2s.8-7.1,2.4-10.3c1.6-3.2,3.9-5.9,6.7-8.2,2.9-2.3,6.2-4.1,10.1-5.4,3.9-1.3,8-1.9,12.5-1.9s9.1.6,13,1.8c4,1.2,7.5,3,10.6,5.5,3.1,2.4,5.6,5.4,7.6,8.9l-10,9.9c-1.7-2.9-3.7-5.3-5.9-7.3-2.2-2-4.6-3.5-7.2-4.5-2.6-1-5.4-1.5-8.4-1.5s-6.4.5-9,1.6c-2.6,1.1-4.5,2.5-6,4.4s-2.2,4.1-2.2,6.7.3,3.5,1,5.1c.7,1.5,1.8,2.9,3.2,4.1s3.4,2.2,5.9,3.2c2.4.9,5.4,1.7,8.8,2.4,4.8,1.1,9.1,2.4,12.9,4s7,3.5,9.6,5.7c2.6,2.2,4.6,4.7,6,7.4,1.4,2.7,2,5.7,2,8.8,0,5.9-1.4,11-4.1,15.3s-6.6,7.6-11.6,9.9c-5,2.3-11,3.5-17.9,3.5h0,0Z"/>
  <path d="M1032.1,521.7c-3.7-3.7-9.8-3.7-13.5,0l-39.2,39.2-39.2-39.2c-3.7-3.7-9.8-3.7-13.5,0s-3.7,9.8,0,13.5l39.2,39.2-39.2,39.2c-3.7,3.7-3.7,9.8,0,13.5s9.8,3.7,13.5,0l39.2-39.2,39.2,39.2c3.7,3.7,9.8,3.7,13.5,0s3.7-9.8,0-13.5l-39.2-39.2,39.2-39.2c3.7-3.7,3.7-9.8,0-13.5h0Z"/>
</svg>