<?xml version="1.0" encoding="UTF-8"?>
<svg id="Layer_1" xmlns="http://www.w3.org/2000/svg" version="1.1" viewBox="0 0 1140 474">
  <!-- Generator: Adobe Illustrator 29.2.1, SVG Export Plug-In . SVG Version: 2.1.0 Build 116)  -->
  <path d="M567.6,28.8c-7.2,8.4-7.2,20.4,0,28.8,48,48,74.4,111.6,74.4,181.2s-26.4,132-74.4,181.2c-7.2,8.4-7.2,20.4,0,28.8,3.6,3.6,9.6,6,14.4,6s10.8-2.4,14.4-6c56.4-56.4,86.4-129.6,86.4-208.8s-31.2-153.6-86.4-208.8c-8.4-10.8-20.4-10.8-28.8-2.4h0Z"/>
  <path d="M534,90c-8.4-8.4-20.4-8.4-28.8,0-7.2,7.2-7.2,20.4,0,28.8,31.2,31.2,49.2,74.4,49.2,118.8s-18,87.6-49.2,118.8c-8.4,7.2-8.4,20.4,0,28.8,3.6,3.6,9.6,6,14.4,6s9.6-2.4,14.4-6c38.4-38.4,61.2-92.4,61.2-146.4,0-56.4-21.6-109.2-61.2-148.8h0Z"/>
  <path d="M471.6,152.4c-7.2-7.2-20.4-7.2-28.8,0-8.4,8.4-8.4,20.4,0,28.8,15.6,15.6,24,36,24,57.6s-8.4,42-24,57.6c-8.4,8.4-7.2,20.4,0,28.8,3.6,3.6,9.6,6,14.4,6s10.8-2.4,14.4-6c22.8-22.8,34.8-52.8,34.8-85.2,1.2-34.8-12-64.8-34.8-87.6h0Z"/>
  <path d="M362.4,170.4c-1.2-1.2-1.2-2.4-1.2-3.6C352.8,73.2,276,1.2,181.2,1.2,81.6,0,0,81.6,0,181.2s26.4,115.2,72,154.8v92.4c0,18,13.2,32.4,31.2,33.6l138,12h2.4c8.4,0,16.8-3.6,22.8-8.4,7.2-6,10.8-15.6,10.8-25.2v-52.8h36c26.4,0,46.8-21.6,46.8-46.8v-50.4h8.4c14.4,0,26.4-7.2,33.6-20.4,7.2-12,6-27.6-1.2-38.4l-38.4-61.2ZM348,250.8c-14.4,0-25.2,10.8-25.2,25.2v64.8c0,3.6-3.6,7.2-7.2,7.2h-48c-15.6,0-27.6,12-27.6,27.6v58.8l-127.2-10.8v-86.4c0-12-4.8-22.8-14.4-31.2-36-30-57.6-78-57.6-123.6,0-78,63.6-141.6,141.6-141.6s134.4,55.2,140.4,128.4c1.2,7.2,2.4,14.4,7.2,21.6l40.8,60h-22.8Z"/>
  <path d="M958.8,0c-94.8,0-171.6,70.8-180,165.6v2.4l-40.8,62.4c-7.2,12-8.4,26.4-1.2,38.4s19.2,20.4,33.6,20.4h8.4v50.4c0,26.4,21.6,46.8,46.8,46.8h36v52.8c0,9.6,3.6,19.2,10.8,25.2,6,6,14.4,8.4,22.8,8.4h2.4l139.2-12c18-1.2,31.2-15.6,31.2-33.6v-93.6c44.4-38.4,72-96,72-153.6,0-98.4-81.6-180-181.2-180h0ZM1042.8,304.8c-9.6,8.4-14.4,19.2-14.4,31.2v86.4l-127.2,10.8v-58.8c0-15.6-12-27.6-27.6-27.6h-48c-3.6,0-7.2-3.6-7.2-7.2v-64.8c0-14.4-10.8-25.2-25.2-25.2h-20.4l39.6-61.2c3.6-6,6-13.2,6-20.4,6-73.2,67.2-128.4,140.4-128.4s141.6,63.6,141.6,141.6c0,45.6-22.8,93.6-57.6,123.6h0Z"/>
</svg>