<?xml version="1.0" encoding="UTF-8"?>
<svg id="Layer_1" data-name="Layer 1" xmlns="http://www.w3.org/2000/svg" viewBox="0 0 1183.568 1052.597">
  <path d="M591.741,313.593c-25.5,0-46.172,20.625-46.172,46.031s20.719,46.031,46.172,46.031,46.125-20.625,46.125-46.031-20.672-46.031-46.125-46.031ZM591.741,386.859c-15.094,0-27.422-12.234-27.422-27.281s12.281-27.281,27.422-27.281,27.375,12.234,27.375,27.281-12.281,27.281-27.375,27.281Z"/>
  <path d="M541.871,434.873h-114.84c-5.156,0-9.375,4.219-9.375,9.375v37.031c0,5.156,4.219,9.375,9.375,9.375h1.312v85.453c0,5.156,4.219,9.375,9.375,9.375h93.469c5.203,0,9.375-4.219,9.375-9.375v-85.453h1.312c5.156,0,9.375-4.219,9.375-9.375v-37.031c0-5.156-4.219-9.375-9.375-9.375h-.004ZM436.401,453.623h96.094v18.281h-96.094v-18.281ZM521.807,566.733h-74.719v-76.078h74.719v76.078Z"/>
  <path d="M756.461,434.873h-114.84c-5.156,0-9.375,4.219-9.375,9.375v37.031c0,5.156,4.219,9.375,9.375,9.375h1.312v85.453c0,5.156,4.172,9.375,9.375,9.375h93.469c5.156,0,9.375-4.219,9.375-9.375v-85.453h1.312c5.156,0,9.375-4.219,9.375-9.375v-37.031c0-5.156-4.219-9.375-9.375-9.375h-.004ZM650.991,453.623h96.094v18.281h-96.094v-18.281ZM736.397,566.733h-74.719v-76.078h74.719v76.078Z"/>
  <path d="M928.021,576.143v90.938c0,5.156,4.219,9.375,9.375,9.375h145.6c5.203,0,9.375-4.219,9.375-9.375v-90.938c4.734-.469,8.438-4.453,8.438-9.328v-37.125c0-5.156-4.219-9.375-9.375-9.375h-162.47c-5.203,0-9.375,4.219-9.375,9.375v37.125c0,4.875,3.656,8.859,8.438,9.328h-.005ZM946.771,576.19h54v81.516h-54v-81.516ZM1073.611,657.706h-54.094v-81.516h54.094v81.516ZM938.331,539.116h143.72v18.375l-71.906-.047h-71.859v-18.328h.045Z"/>
  <path d="M928.021,780.613v90.938c0,5.156,4.219,9.375,9.375,9.375h145.6c5.203,0,9.375-4.219,9.375-9.375v-90.938c4.734-.469,8.438-4.453,8.438-9.328v-37.125c0-5.156-4.219-9.375-9.375-9.375h-162.47c-5.203,0-9.375,4.219-9.375,9.375v37.125c0,4.922,3.656,8.859,8.438,9.328h-.005ZM946.771,780.707h54v81.516h-54v-81.516ZM1073.611,862.176h-54.094v-81.516h54.094v81.516ZM938.331,743.586h143.72v18.375h-143.72v-18.375Z"/>
  <path d="M254.611,520.373H92.051c-5.156,0-9.375,4.219-9.375,9.375v37.125c0,4.875,3.75,8.906,8.484,9.328v90.938c0,5.156,4.219,9.375,9.375,9.375l72.797-.047h72.75c5.156,0,9.375-4.219,9.375-9.375v-90.938c4.781-.422,8.531-4.406,8.531-9.328v-37.125c0-5.156-4.219-9.328-9.375-9.328h-.003ZM101.421,539.123h143.81v18.375l-71.906-.047h-71.906l.002-18.328ZM109.905,576.201h54.047v81.516h-54.047v-81.516ZM236.695,657.717h-54v-81.516h54v81.516Z"/>
  <path d="M254.611,724.833H92.051c-5.156,0-9.375,4.219-9.375,9.375v37.125c0,4.875,3.75,8.906,8.484,9.328v90.938c0,5.156,4.219,9.375,9.375,9.375h145.55c5.156,0,9.375-4.219,9.375-9.375v-90.938c4.781-.422,8.531-4.406,8.531-9.328v-37.125c0-5.156-4.219-9.375-9.375-9.375h-.006ZM101.421,743.583h143.81v18.375H101.421v-18.375ZM109.905,780.708h54.047v81.516h-54.047v-81.516ZM236.695,862.177h-54v-81.516h54v81.516Z"/>
  <path d="M1179.041,439.083c-.141-.141-.281-.281-.422-.375l-191.39-164.72-.891-.75c-10.594-9.094-19.031-16.312-36.328-16.312h-219.98l-128.86-110.91v-34.078h149.72c3.844,0,7.312-2.344,8.719-5.906s.562-7.594-2.25-10.266l-42.047-39.891,42.047-39.703c2.812-2.625,3.656-6.703,2.25-10.266s-4.875-5.906-8.719-5.906h-159.1c-5.156,0-9.375,4.219-9.375,9.375v136.69l-128.86,110.91h-81.938c-5.203,0-9.375,4.219-9.375,9.375s4.172,9.375,9.375,9.375l60.141-.047-196.74,169.31H26.378l182.21-156.79.656-.562c9.797-8.438,13.875-11.953,24.328-11.953h67.734c5.156,0,9.375-4.219,9.375-9.375s-4.219-9.375-9.375-9.375h-67.688c-17.391,0-25.875,7.312-36.562,16.5L5.056,438.673c-.094.094-.281.188-.375.328-4.453,4.266-5.859,10.594-3.656,16.078,2.156,5.25,7.031,8.672,12.516,8.672h20.156v509.58h-14.906c-5.156,0-9.375,4.219-9.375,9.375v60.516c0,5.156,4.219,9.375,9.375,9.375h1144.2c5.156,0,9.375-4.219,9.375-9.375v-60.516c0-5.156-4.219-9.375-9.375-9.375h-13.078l.047-509.58h20.156c5.438,0,10.266-3.375,12.422-8.625,2.203-5.484.797-11.812-3.516-16.031l.018-.011ZM601.171,18.713h126.19l-32.109,30.328c-1.875,1.781-2.906,4.219-2.953,6.844,0,2.578,1.078,5.016,2.906,6.797l32.156,30.562h-126.24l.05-74.531ZM591.796,162.713l328.03,282.28h-67.688l-254.11-224.81c-3.516-3.141-8.859-3.141-12.422,0l-254.21,224.81h-67.641l328.041-282.28ZM856.506,973.323h-77.203v-27.094h77.203v27.094ZM696.326,973.323v-122.48c0-57.469-46.875-104.25-104.53-104.25s-104.53,46.781-104.53,104.25v122.48h-64.219v-36.469c0-5.156-4.219-9.375-9.375-9.375h-7.875v-176.81h7.875c5.156,0,9.375-4.219,9.375-9.375v-36.469h22.594v10.312c0,5.156,4.219,9.375,9.375,9.375h102c5.203,0,9.375-4.219,9.375-9.375s-4.172-9.375-9.375-9.375h-92.625v-75.141h254.81v75.141h-92.016c-5.203,0-9.375,4.219-9.375,9.375s4.172,9.375,9.375,9.375h101.39c5.203,0,9.375-4.219,9.375-9.375v-10.312h22.641v36.469c0,5.156,4.219,9.375,9.375,9.375h7.969v176.81h-7.969c-5.156,0-9.375,4.219-9.375,9.375v36.469h-64.265ZM506.066,973.323v-122.48c0-43.969,33.469-80.344,76.359-85.031v207.47l-76.359.041ZM601.175,765.803c42.891,4.688,76.406,41.016,76.406,85.031v122.48h-76.406v-207.511ZM327.095,973.323v-27.094h77.203v27.094h-77.203ZM445.645,650.354v35.719h-139.18c-1.781,0-3.234-1.5-3.234-3.188v-29.297c0-1.781,1.453-3.188,3.234-3.188l139.18-.047ZM404.301,704.822v27.094h-69.281l-7.922.047v-27.094l77.203-.047ZM387.004,750.713v176.81h-42.656v-176.81h42.656ZM839.264,927.473h-42.609v-176.81h42.609l-.047,176.81h.047ZM856.514,731.953h-77.203v-27.094h77.156l.047,27.094ZM865.889,686.062h-127.97v-35.719h139.18c1.828,0,3.281,1.453,3.281,3.188v29.297c0,1.734-1.5,3.188-3.281,3.188l-11.21.047ZM737.969,631.593v-10.359c0-5.156-4.172-9.375-9.375-9.375h-273.56c-5.156,0-9.375,4.219-9.375,9.375v10.359h-101.3v-172.97l247.45-218.9,247.4,218.9v172.97h-101.24ZM52.469,463.734h273.14v167.86h-19.125c-12.094,0-21.984,9.844-21.984,21.938v29.297c0,12.094,9.891,21.938,21.984,21.938h1.875v36.469c0,5.156,4.219,9.375,9.375,9.375h7.875v176.81l-7.875.047c-5.156,0-9.375,4.219-9.375,9.375v36.469H52.469v-509.578ZM1153.669,1033.833H28.169v-41.766h1125.5v41.766ZM1131.263,973.317h-255.98v-36.469c0-5.156-4.172-9.375-9.375-9.375h-7.875v-176.81h7.875c5.203,0,9.375-4.219,9.375-9.375v-36.469h1.875c12.141,0,22.031-9.844,22.031-21.938v-29.297c0-12.094-9.891-21.938-22.031-21.938h-19.125v-167.86h273.24l-.01,509.531ZM948.633,444.997l-196.74-169.31h198.14c10.359,0,14.391,3.469,24.094,11.812l183.1,157.5-208.594-.002Z"/>
  <path d="M690.741,668.213c0-5.156-4.219-9.375-9.375-9.375h-179.29c-5.156,0-9.375,4.219-9.375,9.375s4.219,9.375,9.375,9.375h179.29c5.203,0,9.375-4.219,9.375-9.375Z"/>
</svg>