<?xml version="1.0" encoding="UTF-8"?>
<svg width="1200pt" height="1200pt" version="1.1" viewBox="0 0 1200 1200" xmlns="http://www.w3.org/2000/svg">
 <path d="m867.89 630c0 27.141-22.031 49.172-49.172 49.172s-49.172-22.031-49.172-49.172 22.031-49.172 49.172-49.172 49.172 22.031 49.172 49.172zm247.18 128.02c0.28125 13.875-2.625 26.578-9.1406 37.828-16.359 28.359-52.312 42.094-100.03 42.094-21.703 0-46.078-3.1875-72-8.7656-25.875 80.953-67.453 132.52-115.22 132.52s-89.344-51.562-115.22-132.52c-25.875 5.5781-50.25 8.7656-72 8.7656-47.766 0-83.672-13.734-100.03-42.094-23.859-41.297-0.046875-103.03 56.953-165.84-57.047-62.812-80.812-124.5-56.953-165.84 4.9688-8.5781 11.719-15.844 20.062-21.891 0.70312-19.688 16.781-35.484 36.656-35.484 12.375 0 23.25 6.1406 29.953 15.516 15.938-0.89063 33.562-0.14063 52.781 2.4375 10.547 1.4062 21.516 3.5625 32.625 5.9531 25.875-80.859 67.453-132.42 115.17-132.42s89.297 51.516 115.17 132.42c11.109-2.4375 22.031-4.5469 32.625-5.9531 69.844-9.4219 119.34 4.5469 139.45 39.375 23.859 41.297 0.046875 103.03-56.953 165.84 18.375 20.203 33.234 40.312 44.203 59.672 1.3125-0.14062 2.625-0.42188 4.0312-0.42188 20.297 0 36.797 16.453 36.797 36.797 0 13.781-7.6875 25.688-18.938 31.969zm-174.47-304.22c7.7344 29.156 13.594 61.406 17.156 95.906 28.172 20.391 53.203 41.625 74.531 62.906 50.391-56.016 69.609-107.39 52.828-136.45-14.719-25.5-56.812-35.531-115.45-27.609-9.4219 1.2656-19.219 3.0938-29.109 5.25zm-5.625 243.32c1.875-21.328 2.8594-43.734 2.8594-67.125 0-23.391-0.98438-45.797-2.8594-67.125-17.531-12.281-36.422-24.375-56.719-36.047-19.781-11.438-39.75-21.703-59.578-30.938-19.828 9.2344-39.797 19.5-59.578 30.938-20.25 11.719-39.188 23.766-56.719 36.047-1.875 21.328-2.8594 43.734-2.8594 67.125 0 23.391 0.98438 45.797 2.8594 67.125 17.531 12.281 36.422 24.375 56.719 36.047 20.25 11.719 40.172 22.031 59.578 31.078 19.406-9.0469 39.328-19.359 59.578-31.078s39.188-23.766 56.719-36.047zm-44.672 56.859c-14.391 8.2969-28.688 15.797-42.891 22.875 24.562 10.125 47.953 17.953 69.984 23.859 5.8594-21.938 10.688-46.125 14.203-72.281-13.219 8.7188-26.953 17.25-41.25 25.547zm-143.16 0c-14.297-8.25-28.031-16.781-41.25-25.547 3.4688 26.156 8.3438 50.344 14.203 72.281 22.031-5.9062 45.422-13.734 69.984-23.859-14.25-7.0781-28.547-14.578-42.891-22.875zm-71.578-123.98c0-16.5 0.51562-32.672 1.5-48.469-20.953 16.125-39.328 32.391-55.406 48.469 16.078 16.078 34.5 32.344 55.406 48.469-0.9375-15.797-1.5-31.969-1.5-48.469zm71.578-123.98c14.156-8.1562 28.406-15.656 42.703-22.781-23.812-9.75-47.203-17.859-69.75-23.906-5.8594 21.938-10.688 46.031-14.156 72.188 13.219-8.7188 26.953-17.25 41.25-25.547zm143.16 0c14.297 8.25 28.031 16.781 41.25 25.547-3.4688-26.156-8.2969-50.25-14.156-72.188-22.547 6.0469-45.984 14.109-69.75 23.906 14.25 7.125 28.5 14.578 42.656 22.781zm71.531 123.98c0 16.5-0.51562 32.672-1.5 48.469 20.953-16.125 39.328-32.391 55.406-48.469-16.078-16.078-34.5-32.344-55.406-48.469 0.9375 15.797 1.5 31.969 1.5 48.469zm-235.03-193.64c29.625 8.0156 60.609 19.266 91.875 33.234 31.312-13.969 62.25-25.219 91.875-33.234-23.297-71.812-58.266-114.05-91.875-114.05s-68.578 42.234-91.875 114.05zm-121.69 176.26c21.375-21.281 46.406-42.516 74.531-62.906 3.5625-34.547 9.4219-66.797 17.156-95.906-9.8906-2.1094-19.688-3.9375-29.109-5.25-15.609-2.1094-29.906-2.8594-42.984-2.4375-1.3125 19.125-17.062 34.266-36.516 34.266-11.531 0-21.656-5.3906-28.406-13.688-2.9531 2.8594-5.5781 6-7.5469 9.4688-16.781 29.062 2.4375 80.438 52.828 136.45zm91.734 193.69c-7.7812-29.156-13.594-61.453-17.203-96-28.172-20.391-53.203-41.625-74.578-62.906-50.391 56.016-69.609 107.39-52.828 136.45s70.875 38.109 144.56 22.453zm213.74 17.25c-29.203-7.875-60.094-18.75-91.922-32.953-31.828 14.25-62.719 25.125-91.922 32.953 23.297 71.859 58.312 114.14 91.922 114.14s68.625-42.281 91.922-114.09zm180.47-61.359c-17.391-2.9531-30.656-17.953-30.656-36.188 0-10.219 4.2188-19.5 10.969-26.156-9.6094-16.594-22.641-34.312-39.047-52.5-21.375 21.281-46.406 42.516-74.578 62.906-3.5625 34.594-9.4219 66.844-17.203 96 73.688 15.656 127.78 6.6094 144.61-22.453 3.6094-6.2344 5.5312-13.5 5.9062-21.656zm-442.78 104.95c-2.9531-5.9062-10.125-8.3438-16.125-5.3906-5.9062 2.9531-8.3438 10.172-5.3906 16.125l18.047 36.234c7.2656 14.578 6.4688 31.594-2.1094 45.422-8.5781 13.828-23.438 22.125-39.703 22.125l-466.22-0.046875c-16.312 0-31.125-8.25-39.703-22.125s-9.375-30.844-2.1094-45.422l193.13-387.94c0.84375-1.6406 1.2656-3.4688 1.2656-5.3438v-239.16h119.02c6.6562 0 12-5.3438 12-12s-5.3438-12-12-12h-139.69c-10.828 0-19.641-8.8125-19.641-19.641s8.8125-19.641 19.641-19.641h202.45c10.828 0 19.641 8.8125 19.641 19.641s-8.8125 19.641-19.641 19.641h-8.6719c-6.6562 0-12 5.3438-12 12v251.16c0 1.875 0.42188 3.7031 1.2656 5.3438l63 126.61c2.1094 4.2188 6.375 6.6562 10.781 6.6562 1.7812 0 3.6094-0.375 5.3438-1.2656 5.9531-2.9531 8.3438-10.172 5.3906-16.078l-61.781-124.08v-236.68c22.5-1.7344 40.312-20.391 40.312-43.312 0-24.047-19.594-43.641-43.641-43.641h-202.45c-24.047 0-43.641 19.594-43.641 43.641 0 22.922 17.812 41.578 40.312 43.312v236.68l-191.86 385.4c-10.969 22.078-9.7969 47.766 3.1875 68.719 12.984 20.953 35.438 33.469 60.094 33.469h466.26c24.656 0 47.156-12.516 60.094-33.469 12.984-20.953 14.156-46.688 3.1875-68.766l-18.047-36.281zm-398.95-131.39h244.64c6.6562 0 12-5.3438 12-12s-5.3438-12-12-12h-252.1c-4.5469 0-8.7188 2.5781-10.734 6.6562-35.672 71.672-103.59 208.03-104.91 210.66-2.0625 3.7031-2.0156 8.25 0.14063 11.906s6.0938 5.9062 10.359 5.9062h466.4c4.1719 0 8.0625-2.2031 10.219-5.7656s2.3438-8.0625 0.42188-11.766c-1.5-2.9531-36.844-75-36.844-75-2.9062-5.9531-10.078-8.4375-16.031-5.4844-5.9531 2.9062-8.3906 10.125-5.4844 16.031 14.25 29.062 23.016 46.969 28.453 57.984l-427.78 0.046876c11.156-22.312 36.281-72.75 93.234-187.18z"/>
</svg>
