<?xml version="1.0" encoding="UTF-8"?>
<svg id="Layer_1" data-name="Layer 1" xmlns="http://www.w3.org/2000/svg" viewBox="0 0 1133.375 1133.367">
  <path d="M929.623,1133.367c-50.531,0-77.062-13.031-100.5-24.469-21.844-10.688-40.734-19.969-80.953-19.969s-59.109,9.234-80.953,19.969c-23.438,11.484-50.016,24.469-100.5,24.469s-77.062-13.031-100.5-24.469c-21.844-10.688-40.734-19.969-80.953-19.969s-59.109,9.234-80.953,19.969c-23.438,11.484-50.016,24.469-100.5,24.469s-77.062-13.031-100.5-24.469c-21.844-10.688-40.734-19.969-80.953-19.969-12.281,0-22.219-9.938-22.219-22.219s9.938-22.219,22.219-22.219c50.531,0,77.062,13.031,100.5,24.469,21.844,10.688,40.734,19.969,80.953,19.969s59.109-9.234,80.953-19.969c23.438-11.484,50.016-24.469,100.5-24.469s77.062,13.031,100.5,24.469c21.844,10.688,40.734,19.969,80.953,19.969s59.109-9.234,80.953-19.969c23.438-11.484,50.016-24.469,100.5-24.469s77.062,13.031,100.5,24.469c21.844,10.688,40.734,19.969,80.953,19.969s59.109-9.234,80.953-19.969c23.438-11.484,50.016-24.469,100.5-24.469,12.281,0,22.219,9.938,22.219,22.219s-9.938,22.219-22.219,22.219c-40.219,0-59.109,9.234-80.953,19.969-23.391,11.484-49.969,24.469-100.5,24.469h0Z"/>
  <path d="M929.623,977.767c-50.531,0-77.062-13.031-100.5-24.469-21.844-10.688-40.734-19.969-80.953-19.969s-59.109,9.234-80.953,19.969c-23.438,11.484-50.016,24.469-100.5,24.469s-77.062-13.031-100.5-24.469c-21.844-10.688-40.734-19.969-80.953-19.969s-59.109,9.234-80.953,19.969c-23.438,11.484-50.016,24.469-100.5,24.469s-77.062-13.031-100.5-24.469c-21.844-10.688-40.734-19.969-80.953-19.969-12.281,0-22.219-9.938-22.219-22.219s9.938-22.219,22.219-22.219c50.531,0,77.062,13.031,100.5,24.469,21.844,10.688,40.734,19.969,80.953,19.969s59.109-9.234,80.953-19.969c23.438-11.484,50.016-24.469,100.5-24.469s77.062,13.031,100.5,24.469c21.844,10.688,40.734,19.969,80.953,19.969s59.109-9.234,80.953-19.969c23.438-11.484,50.016-24.469,100.5-24.469s77.062,13.031,100.5,24.469c21.844,10.688,40.734,19.969,80.953,19.969s59.109-9.234,80.953-19.969c23.438-11.484,50.016-24.469,100.5-24.469,12.281,0,22.219,9.938,22.219,22.219s-9.938,22.219-22.219,22.219c-40.219,0-59.109,9.234-80.953,19.969-23.391,11.438-49.969,24.469-100.5,24.469h0Z"/>
  <path d="M504.233,717.407c-24.891-12.188-59.062-28.547-119.06-28.547-60.844,0-95.062,16.781-120.05,29.016-19.641,9.609-31.5,15.422-61.406,15.422-29.531,0-40.359-5.203-63.656-16.547-33.047-120.24,57.938-239.02,182.21-239.02,124.26.047,215.48,118.97,181.97,239.68l-.008-.004Z"/>
  <path d="M322.223,433.357c-12.281,0-22.219-9.938-22.219-22.219v-44.438c0-12.281,9.938-22.219,22.219-22.219s22.219,9.938,22.219,22.219v44.438c0,12.281-9.938,22.219-22.219,22.219Z"/>
  <path d="M175.223,456.457l-22.219-38.484c-6.141-10.641-2.484-24.234,8.156-30.375s24.234-2.484,30.375,8.156l22.219,38.484c6.141,10.641,2.484,24.234-8.156,30.375-10.594,6.094-24.234,2.531-30.375-8.156Z"/>
  <path d="M89.813,558.137l-38.484-22.219c-10.641-6.141-14.25-19.734-8.156-30.375,6.141-10.641,19.734-14.25,30.375-8.156l38.484,22.219c10.641,6.141,14.25,19.734,8.156,30.375-6.188,10.688-19.781,14.297-30.375,8.156Z"/>
  <path d="M66.657,688.927H22.219c-12.281,0-22.219-9.938-22.219-22.219s9.938-22.219,22.219-22.219h44.438c12.281,0,22.219,9.938,22.219,22.219s-9.938,22.219-22.219,22.219Z"/>
  <path d="M622.223,688.927h-44.438c-12.281,0-22.219-9.938-22.219-22.219s9.938-22.219,22.219-22.219h44.438c12.281,0,22.219,9.938,22.219,22.219s-9.938,22.219-22.219,22.219Z"/>
  <path d="M524.303,583.357c-6.141-10.641-2.484-24.234,8.156-30.375l38.484-22.219c10.641-6.141,24.234-2.484,30.375,8.156s2.484,24.234-8.156,30.375l-38.484,22.219c-10.594,6.047-24.188,2.531-30.375-8.156Z"/>
  <path d="M438.893,464.617c-10.641-6.141-14.25-19.734-8.156-30.375l22.219-38.484c6.141-10.641,19.734-14.25,30.375-8.156,10.641,6.141,14.25,19.734,8.156,30.375l-22.219,38.484c-6.188,10.688-19.781,14.25-30.375,8.156h0Z"/>
  <path d="M818.623,544.447c-9.562,0-18.047-6.141-21.094-15.188-10.266-30.797-38.953-51.469-71.391-51.469-12.281,0-22.219-9.938-22.219-22.219s9.938-22.219,22.219-22.219c36.609,0,70.219,16.547,92.484,43.641,22.266-27.094,55.875-43.641,92.484-43.641,12.281,0,22.219,9.938,22.219,22.219s-9.938,22.219-22.219,22.219c-32.438,0-61.172,20.672-71.391,51.469-3.047,9.094-11.531,15.188-21.094,15.188h.002Z"/>
  <path d="M1018.673,655.587c-9.562,0-18.047-6.141-21.094-15.188-10.266-30.797-38.953-51.469-71.391-51.469-12.281,0-22.219-9.938-22.219-22.219s9.938-22.219,22.219-22.219c36.609,0,70.219,16.547,92.484,43.641,22.266-27.094,55.875-43.641,92.484-43.641,12.281,0,22.219,9.938,22.219,22.219s-9.938,22.219-22.219,22.219c-32.438,0-61.172,20.672-71.391,51.469-3.047,9.047-11.531,15.188-21.094,15.188h.002Z"/>
  <path d="M557.253,244.447h-162.28c-22.922,0-44.484-8.953-60.703-25.125-33.469-33.469-33.469-87.938,0-121.4,18.188-18.188,42.891-27.094,68.297-24.797,4.031-17.156,12.75-32.719,25.266-45.281,37.078-37.125,97.125-37.125,134.26,0,13.688,13.688,22.875,31.266,26.297,50.203,57.844,21.328,75.516,95.578,31.172,140.29-16.453,16.594-39.141,26.109-62.297,26.109h-.012Z"/>
  <path d="M937.033,311.107h-162.28c-47.438,0-85.875-38.391-85.875-85.875,0-50.297,43.078-90,93.469-85.5,9.703-41.156,46.688-73.078,92.391-73.078,46.922,0,85.406,33.797,93.422,78.047,57.844,21.328,75.516,95.578,31.172,140.29-16.453,16.594-39.141,26.109-62.297,26.109l-.002.007Z"/>
  <path d="M929.623,822.227c-50.531,0-77.062-13.031-100.5-24.469-21.844-10.688-40.734-19.969-80.953-19.969s-59.109,9.234-80.953,19.969c-23.438,11.484-50.016,24.469-100.5,24.469s-77.062-13.031-100.5-24.469c-21.844-10.688-40.734-19.969-80.953-19.969s-59.109,9.234-80.953,19.969c-23.438,11.484-50.016,24.469-100.5,24.469s-77.062-13.031-100.5-24.469c-21.844-10.688-40.734-19.969-80.953-19.969-12.281,0-22.219-9.938-22.219-22.219s9.938-22.219,22.219-22.219c50.531,0,77.062,13.031,100.5,24.469,21.844,10.688,40.734,19.969,80.953,19.969s59.109-9.234,80.953-19.969c23.438-11.484,50.016-24.469,100.5-24.469s77.062,13.031,100.5,24.469c21.844,10.688,40.734,19.969,80.953,19.969s59.109-9.234,80.953-19.969c23.438-11.484,50.016-24.469,100.5-24.469s77.062,13.031,100.5,24.469c21.844,10.688,40.734,19.969,80.953,19.969s59.109-9.234,80.953-19.969c23.438-11.484,50.016-24.469,100.5-24.469,12.281,0,22.219,9.938,22.219,22.219s-9.938,22.219-22.219,22.219c-40.219,0-59.109,9.234-80.953,19.969-23.391,11.484-49.969,24.469-100.5,24.469h0Z"/>
</svg>