<?xml version="1.0" encoding="UTF-8"?><svg xmlns="http://www.w3.org/2000/svg" viewBox="0 0 1147.042 1147.162"><defs><style>.cls-1{fill:#c9fcff;}.cls-2{fill:#ff9815;}.cls-3{fill:#fffc2a;}.cls-4{fill:#fdff94;}.cls-5{fill:#ffd4fe;}</style></defs><g id="Layer_1"><path d="M573.559,582.365H8.819c-4.875,0-8.812-3.938-8.812-8.812V68.712C.006,30.837,30.803.04,68.678.04h504.84c4.875,0,8.812,3.938,8.812,8.812v564.74c.047,4.828-3.891,8.766-8.766,8.766l-.006.006ZM17.669,564.74h547.08V17.66H68.719c-28.125,0-51.047,22.875-51.047,51.047l-.003,496.033Z"/><path d="M1138.259,582.365h-564.74c-4.875,0-8.812-3.938-8.812-8.812V8.812c0-4.875,3.938-8.812,8.812-8.812h504.84c37.875,0,68.672,30.797,68.672,68.672v504.84c.047,4.922-3.891,8.859-8.766,8.859l-.006-.006ZM582.319,564.74h547.08V68.71c0-28.172-22.922-51.047-51.047-51.047h-496.03l-.003,547.077Z"/><path d="M573.559,1147.155H68.719C30.844,1147.155.047,1116.358.047,1078.483l-.047-504.89c0-4.875,3.938-8.812,8.812-8.812h564.74c4.875,0,8.812,3.938,8.812,8.812v564.71c0,4.922-3.938,8.859-8.812,8.859l.006-.007ZM17.669,582.415v496.03c0,28.125,22.922,51.047,51.047,51.047h496.03v-547.08l-547.077.003Z"/><path d="M1078.359,1147.155h-504.84c-4.875,0-8.812-3.938-8.812-8.812v-564.74c0-4.875,3.938-8.812,8.812-8.812h564.71c4.875,0,8.812,3.938,8.812,8.812v504.84c.047,37.875-30.797,68.719-68.672,68.719l-.011-.006ZM582.329,1129.483h496.03c28.125,0,51.047-22.922,51.047-51.047v-496.03h-547.08l.003,547.077Z"/></g><g id="Layer_5"><path d="M291.189,451.265c-84.938,0-154.03-69.094-154.03-154.03s69.094-154.03,154.03-154.03,154.03,69.094,154.03,154.03c.047,84.891-69.094,154.03-154.03,154.03Z"/><path class="cls-3" d="M291.189,160.825c-75.188,0-136.4,61.172-136.4,136.4s61.172,136.4,136.4,136.4,136.4-61.172,136.4-136.4-61.172-136.4-136.4-136.4Z"/><path d="M291.189,116.195c-4.875,0-8.812-3.938-8.812-8.812v-30.75c0-4.875,3.938-8.812,8.812-8.812s8.812,3.938,8.812,8.812v30.797c0,4.828-3.938,8.766-8.812,8.766h0Z"/><path d="M291.189,526.635c-4.875,0-8.812-3.938-8.812-8.812v-30.797c0-4.875,3.938-8.812,8.812-8.812s8.812,3.938,8.812,8.812v30.797c0,4.828-3.938,8.812-8.812,8.812Z"/><path d="M196.299,141.655c-3.047,0-6-1.594-7.641-4.406l-15.375-26.672c-2.438-4.219-.984-9.609,3.234-12.047s9.609-.984,12.047,3.234l15.375,26.672c2.438,4.219.984,9.609-3.234,12.047-1.406.797-2.906,1.172-4.406,1.172h0Z"/><path d="M401.479,497.055c-3.047,0-6-1.594-7.641-4.406l-15.375-26.672c-2.438-4.219-.984-9.609,3.234-12.047s9.609-.984,12.047,3.234l15.375,26.672c2.438,4.219.984,9.609-3.234,12.047-1.359.797-2.906,1.172-4.406,1.172h0Z"/><path d="M126.799,211.115c-1.5,0-3-.375-4.406-1.172l-26.672-15.375c-4.219-2.438-5.672-7.828-3.234-12.047s7.828-5.672,12.047-3.234l26.672,15.375c4.219,2.438,5.672,7.828,3.234,12.047-1.594,2.812-4.594,4.406-7.641,4.406h0Z"/><path d="M482.249,416.335c-1.5,0-3-.375-4.406-1.172l-26.672-15.422c-4.219-2.438-5.672-7.828-3.234-12.047s7.828-5.672,12.047-3.234l26.672,15.375c4.219,2.438,5.672,7.828,3.234,12.047-1.641,2.859-4.594,4.453-7.641,4.453h0Z"/><path d="M101.379,306.035h-30.797c-4.875,0-8.812-3.938-8.812-8.812s3.938-8.812,8.812-8.812h30.797c4.875,0,8.812,3.938,8.812,8.812s-3.938,8.812-8.812,8.812Z"/><path d="M511.779,306.035h-30.797c-4.875,0-8.812-3.938-8.812-8.812s3.938-8.812,8.812-8.812h30.797c4.875,0,8.812,3.938,8.812,8.812s-3.938,8.812-8.812,8.812Z"/><path d="M100.169,416.335c-3.047,0-6-1.594-7.641-4.406-2.438-4.219-.984-9.609,3.234-12.047l26.672-15.375c4.219-2.438,9.609-1.031,12.047,3.234,2.438,4.219.984,9.609-3.234,12.047l-26.672,15.375c-1.406.797-2.906,1.172-4.406,1.172h0Z"/><path d="M455.579,211.115c-3.047,0-6-1.594-7.641-4.406-2.438-4.219-.984-9.609,3.234-12.047l26.672-15.375c4.219-2.438,9.609-1.031,12.047,3.234,2.438,4.219.984,9.609-3.234,12.047l-26.672,15.375c-1.359.797-2.906,1.172-4.406,1.172h0Z"/><path d="M180.879,497.055c-1.5,0-3-.375-4.406-1.172-4.219-2.438-5.672-7.828-3.234-12.047l15.375-26.672c2.438-4.219,7.828-5.672,12.047-3.234s5.672,7.828,3.234,12.047l-15.375,26.672c-1.641,2.812-4.594,4.406-7.641,4.406h0Z"/><path d="M386.109,141.655c-1.5,0-3-.375-4.406-1.172-4.219-2.438-5.672-7.828-3.234-12.047l15.375-26.672c2.438-4.219,7.828-5.672,12.047-3.234s5.672,7.828,3.234,12.047l-15.375,26.672c-1.641,2.812-4.594,4.406-7.641,4.406h0Z"/></g><g id="Layer_4"><path d="M856.399,520.585c-13.172,0-23.906-10.781-23.906-24.047v-24.656l-2.109,2.062c-8.812,9-24.984,9.094-33.984-.094-4.5-4.5-6.984-10.547-6.984-16.969s2.531-12.469,7.078-17.062l36.047-35.906v-68.906l-64.781,37.453-13.078,48.938c-1.641,6.234-5.672,11.438-11.297,14.625-5.578,3.188-12.047,4.031-18.281,2.344-6-1.5-11.484-5.719-14.484-11.25-3.141-5.203-4.078-11.953-2.391-18.141l.703-2.719-21.422,12.328c-5.672,3.234-12.188,4.078-18.422,2.391-6.141-1.688-11.203-5.625-14.297-11.156-3.188-5.531-4.031-12-2.391-18.188s5.672-11.391,11.25-14.625l21.141-12.234-2.625-.703c-6.188-1.641-11.438-5.672-14.672-11.297s-4.125-12.094-2.438-18.281c3.422-12.75,16.734-20.344,29.578-16.969l49.125,13.219,63.562-36.75-58.781-33.938-48.938,13.219c-12.891,3.422-26.062-4.219-29.438-17.016-1.688-6.141-.891-12.75,2.297-18.141,2.953-5.25,8.25-9.375,14.484-11.109l2.859-.797-21.375-12.281c-11.438-6.703-15.375-21.422-8.812-32.859,6.656-11.391,21.422-15.234,32.859-8.672l21.375,12.328-.75-2.812c-1.734-6.094-.891-12.656,2.344-18.281s8.484-9.562,14.766-11.156c12.656-3.375,25.875,4.219,29.297,17.016l13.078,49.219,59.766,34.453v-74.906l-35.906-35.719c-9.422-9.422-9.422-24.703,0-34.125,8.906-8.906,25.078-8.766,33.844,0l2.062,2.062v-24.656c0-13.266,10.734-24.047,23.906-24.047,13.266,0,24.047,10.781,24.047,24.047v24.516l1.922-1.922c4.594-4.594,10.359-7.5,17.25-7.078,6.469.047,12.469,2.578,16.922,7.125,9.328,9.328,9.328,24.656-.047,34.031l-36.047,35.906v73.406l58.781-33.938,13.078-48.938c1.641-6.234,5.578-11.484,11.156-14.719,5.531-3.234,12.047-4.078,18.281-2.438,6.234,1.734,11.531,5.719,14.625,11.016,3.234,5.344,4.125,12.094,2.391,18.328l-.75,2.812,21.375-12.375c5.484-3.234,11.953-4.078,18.188-2.438s11.438,5.672,14.672,11.25c6.516,11.484,2.484,26.156-8.953,32.719l-21.328,12.328,2.719.75c6.281,1.688,11.531,5.719,14.766,11.391,3.188,5.578,3.938,12.047,2.203,18.188-1.594,6.047-5.578,11.25-11.109,14.484-5.578,3.234-12.094,4.125-18.281,2.484l-49.125-13.312-59.766,34.594,64.781,37.312,48.984-13.172c6.234-1.641,12.75-.797,18.328,2.438s9.562,8.438,11.25,14.672c1.5,5.953.656,12.422-2.297,17.766-3.469,5.812-8.719,9.844-14.672,11.484l-2.812.75,21.328,12.328c5.578,3.234,9.562,8.391,11.25,14.625,1.641,6.141.797,12.562-2.438,18.094-6.562,11.484-21.328,15.422-32.859,8.812l-21.234-12.328.703,2.719c1.641,6.188.703,12.938-2.578,18.562-3.234,5.531-8.438,9.469-14.531,11.016-12.797,3.375-26.016-4.266-29.484-17.156l-13.078-49.078-63.562-36.656v67.828l35.906,35.766c4.547,4.547,7.078,10.594,7.078,17.062s-2.531,12.516-7.078,17.062c-9.047,9.047-24.844,8.953-33.844,0l-2.062-2.062v24.656c.141,13.312-10.641,24.094-23.906,24.094l-.002-.002Z"/><path class="cls-1" d="M841.305,441.882c1.125,0,2.297.234,3.375.703,3.281,1.359,5.438,4.594,5.438,8.156v45.844c0,3.516,2.812,6.422,6.281,6.422,3.516,0,6.422-2.859,6.422-6.422v-45.844c0-3.562,2.156-6.75,5.438-8.156,3.328-1.359,7.078-.609,9.609,1.875l17.109,17.016c2.344,2.344,6.469,2.438,8.906.047,1.219-1.219,1.922-2.859,1.922-4.594s-.656-3.328-1.922-4.547l-38.484-38.344c-1.641-1.641-2.578-3.891-2.578-6.234v-86.766c0-3.141,1.688-6.047,4.406-7.641,2.719-1.547,6.094-1.547,8.812,0l79.969,46.125c2.016,1.172,3.516,3.094,4.125,5.391l14.016,52.641c.938,3.469,4.5,5.625,7.969,4.641,1.594-.422,2.906-1.406,3.75-2.859.938-1.547,1.172-3.375.703-5.109l-6.141-23.297c-.891-3.469.328-7.125,3.188-9.281,2.812-2.156,6.703-2.391,9.797-.609l39.562,22.969c3.141,1.828,6.938.75,8.719-2.344l.047-.047c.844-1.453,1.078-3.094.656-4.688-.422-1.641-1.5-3-3-3.844l-39.75-23.016c-3.094-1.781-4.781-5.25-4.312-8.812.469-3.516,3-6.422,6.469-7.359l23.25-6.234c1.547-.422,3-1.594,3.984-3.234.609-1.172.891-3.094.516-4.641-.422-1.547-1.5-2.906-3-3.797s-3.281-1.125-4.922-.656l-52.453,14.109c-2.25.562-4.688.281-6.703-.891l-81.188-46.781c-2.719-1.547-4.406-4.5-4.406-7.641s1.688-6.047,4.406-7.641l76.172-44.062c2.016-1.172,4.453-1.5,6.75-.891l52.641,14.297c1.641.422,3.328.188,4.781-.656,1.5-.891,2.531-2.297,3-3.984s.281-3.328-.516-4.781c-.844-1.5-2.25-2.625-3.938-3.047l-23.297-6.281c-3.469-.938-6-3.844-6.469-7.359-.469-3.562,1.219-6.984,4.312-8.812l39.703-22.969c3.094-1.781,4.172-5.672,2.438-8.672-.844-1.453-2.203-2.484-3.891-2.953-1.641-.469-3.375-.188-4.781.609l-39.75,23.016c-3.094,1.781-6.938,1.547-9.75-.609s-4.078-5.812-3.188-9.234l6.141-23.391c.469-1.734.281-3.469-.516-4.781-.844-1.406-2.344-2.531-4.031-3-1.594-.422-3.328-.188-4.781.656s-2.484,2.25-2.953,3.984l-14.016,52.547c-.609,2.25-2.062,4.219-4.125,5.391l-75.188,43.359c-2.719,1.547-6.094,1.547-8.812,0-2.719-1.594-4.406-4.5-4.406-7.641v-92.344c0-2.344.938-4.594,2.578-6.234l38.625-38.484c2.531-2.531,2.531-6.609,0-9.141-1.219-1.266-3.094-2.109-4.547-1.922-1.734,0-3.375.703-4.641,1.922l-17.016,16.969c-2.531,2.531-6.328,3.281-9.609,1.922s-5.438-4.594-5.438-8.156v-45.844c0-3.516-2.859-6.422-6.422-6.422-3.469,0-6.281,2.859-6.281,6.422v45.844c0,3.562-2.156,6.75-5.438,8.156-3.234,1.359-7.078.656-9.609-1.875l-17.156-17.016c-2.203-2.203-6.609-2.297-8.906-.047-2.531,2.531-2.531,6.609,0,9.141l38.484,38.344c1.641,1.641,2.578,3.891,2.578,6.234v93.844c0,3.141-1.688,6.047-4.406,7.641-2.719,1.547-6.094,1.547-8.812,0l-76.172-43.922c-2.016-1.172-3.516-3.094-4.125-5.391l-14.016-52.781c-.891-3.422-4.219-5.391-7.828-4.5-1.734.422-3.094,1.453-3.938,2.906s-1.078,3.141-.609,4.781l6.188,23.391c.891,3.469-.328,7.078-3.188,9.234-2.812,2.203-6.656,2.438-9.75.656l-39.703-22.828c-3.141-1.781-6.984-.797-8.766,2.25-1.734,3-.656,6.938,2.391,8.719l39.656,22.828c3.094,1.781,4.781,5.25,4.359,8.766-.469,3.516-3,6.469-6.422,7.406l-23.25,6.375c-1.688.469-3.141,1.547-3.891,2.859-.844,1.406-1.031,3.188-.562,4.781.938,3.562,4.406,5.531,7.875,4.594l52.453-14.156c2.25-.609,4.688-.281,6.703.891l75.188,43.406c2.719,1.594,4.406,4.5,4.406,7.641s-1.688,6.047-4.406,7.641l-79.969,46.219c-2.062,1.172-4.453,1.453-6.703.891l-52.641-14.156c-3.469-.938-7.031,1.125-7.969,4.5-.422,1.641-.188,3.375.703,4.875.891,1.547,2.297,2.625,3.938,3.094l23.156,6.281c3.469.938,6,3.844,6.469,7.359s-1.266,6.984-4.312,8.766l-39.562,22.828c-1.5.891-2.578,2.25-3,3.844-.422,1.641-.188,3.375.703,4.922.797,1.453,2.109,2.438,3.656,2.859,1.688.469,3.422.234,4.969-.656l39.703-22.828c3.047-1.781,6.938-1.547,9.75.656,2.812,2.156,4.078,5.812,3.188,9.234l-6.141,23.25c-.469,1.594-.188,3.375.656,4.781.844,1.5,2.25,2.578,3.562,2.906,1.828.469,3.609.281,5.109-.609,1.5-.844,2.531-2.203,2.953-3.844l14.016-52.5c.609-2.25,2.062-4.219,4.125-5.391l81.188-46.922c2.719-1.547,6.094-1.547,8.812,0,2.719,1.594,4.406,4.5,4.406,7.641v87.844c0,2.344-.938,4.594-2.578,6.234l-38.625,38.484c-1.219,1.219-1.875,2.859-1.875,4.547,0,1.734.656,3.328,1.922,4.547,2.438,2.531,6.656,2.438,8.953.094l17.25-17.109c1.547-1.594,3.797-2.484,6.094-2.484h.001Z"/></g><g id="Layer_3"><path d="M855.839,992.955c-2.109,0-4.219-.75-5.906-2.297-43.688-39.516-108.28-40.781-114.14-39.75-3.281,1.266-6.656.328-9.094-2.25-2.484-2.578-2.719-6.469-1.312-9.75l15.094-35.156c-36.938-1.922-70.594-21.047-72.188-21.984-2.859-1.641-4.594-4.781-4.406-8.109s2.203-6.234,5.25-7.594l28.875-12.75-43.078-49.875c-2.484-2.906-2.859-7.078-.844-10.359,1.969-3.281,5.859-4.922,9.562-3.984l46.5,11.016-11.062-46.688c-1.031-4.453,1.5-9,5.859-10.406,4.359-1.453,9.094.703,10.875,4.922,10.969,25.875,42.375,36.469,59.484,40.359-7.875-34.875-36.938-65.484-37.266-65.812-2.438-2.531-3.141-6.328-1.781-9.562,1.406-3.234,4.594-5.391,8.109-5.391,19.875,0,35.766,4.312,46.453,8.438,3.938-38.578,52.781-83.297,59.156-89.016,3.328-2.953,8.391-3,11.766,0,6.375,5.672,55.359,50.438,59.344,89.016,10.641-4.125,26.531-8.438,46.453-8.438,3.516,0,6.75,2.109,8.109,5.344,1.406,3.234.703,7.031-1.734,9.562-.328.328-29.391,30.984-37.312,65.812,17.109-3.938,48.469-14.484,59.297-40.359,1.781-4.219,6.469-6.422,10.875-4.969,4.359,1.406,6.891,5.953,5.859,10.406l-11.062,46.688,46.688-11.062c3.75-.891,7.594.75,9.562,4.031s1.641,7.453-.891,10.359l-43.219,49.828,29.016,12.75c3.047,1.312,5.062,4.266,5.25,7.594s-1.547,6.469-4.406,8.109c-1.594.938-35.297,20.062-72.188,21.984l15.094,35.156c1.406,3.234.703,7.031-1.734,9.609-2.484,2.578-6.234,3.422-9.516,2.109-5.062-.75-69.609.516-113.48,39.984-1.688,1.688-3.797,2.484-5.906,2.484h-.006Z"/><path class="cls-2" d="M747.039,933.143c25.312,1.125,72.562,10.078,108.8,39.375,36.375-29.25,83.625-38.25,108.94-39.375l-14.953-34.875c-1.219-2.859-.844-6.141.938-8.625,1.781-2.531,4.781-3.844,7.875-3.656,21.75,1.781,44.438-5.391,59.344-11.531l-22.312-9.844c-2.578-1.125-4.453-3.422-5.062-6.141s.094-5.578,1.922-7.734l33.141-38.203-33.984,8.062c-3,.75-6.141-.188-8.25-2.344-2.156-2.156-3.047-5.297-2.344-8.25l5.766-24.281c-25.547,18.469-58.031,22.078-59.906,22.312-2.625.281-5.203-.609-7.078-2.438s-2.859-4.359-2.625-6.984c2.156-28.5,18.094-55.125,30.188-71.531-19.781,3.469-31.453,11.016-31.594,11.109-3.141,2.062-7.312,1.922-10.266-.422-3-2.344-4.172-6.281-2.906-9.844,7.312-20.906-22.734-59.203-46.734-82.172-23.906,22.969-53.859,61.312-46.547,82.172,1.266,3.562.047,7.547-2.906,9.891-3,2.344-7.172,2.484-10.266.375-.141-.094-11.859-7.594-31.594-11.109,12.094,16.406,27.984,43.031,30.141,71.531.188,2.625-.797,5.156-2.625,6.984-1.875,1.828-4.453,2.766-7.078,2.438-1.922-.188-34.5-3.844-60.141-22.406l5.766,24.375c.703,3-.188,6.094-2.344,8.25s-5.297,3.094-8.25,2.344l-33.891-8.016,33,38.25c1.828,2.109,2.531,4.969,1.922,7.688s-2.484,5.016-5.062,6.141l-22.172,9.797c14.906,6.141,37.641,13.406,59.391,11.578,3-.234,6.094,1.125,7.875,3.656,1.828,2.531,2.156,5.812.938,8.625l-15.054,34.828Z"/><path d="M855.929,1086.955c-4.875,0-8.812-3.938-8.812-8.812v-274.08c0-4.875,3.938-8.812,8.812-8.812s8.812,3.938,8.812,8.812v274.03c0,4.922-3.938,8.859-8.812,8.859v.003Z"/></g><g id="Layer_2"><path d="M291.189,1086.955c-40.219,0-62.906-22.781-67.688-67.781-35.156,28.406-67.266,28.406-95.719-.047-14.109-14.016-21.328-29.25-21.375-45.328-.047-16.172,6.891-32.719,21.094-50.25-44.719-4.781-67.359-27.469-67.359-67.688s22.641-63.094,67.406-67.875c-14.203-17.578-21.141-34.172-21.047-50.391.047-16.031,7.219-31.219,21.328-45.188,28.453-28.453,60.562-28.406,95.719-.047,4.781-44.859,27.469-67.594,67.688-67.594s62.906,22.688,67.688,67.5c17.484-14.25,33.984-21.188,50.156-21.234h.047c16.031,0,31.359,7.172,45.516,21.328,28.406,28.406,28.359,60.469.047,95.531,44.859,4.781,67.594,27.562,67.594,67.875s-22.688,62.906-67.547,67.688c13.5,16.641,20.391,32.391,21.047,47.812.703,16.922-6.375,32.953-21.141,47.719-14.156,14.156-29.484,21.328-45.562,21.328h-.047c-16.125,0-32.672-6.984-50.109-21.188-4.828,45.047-27.516,67.828-67.734,67.828l-.002.002Z"/><path class="cls-5" d="M231.423,991.33c1.125,0,2.297.234,3.375.656,3.281,1.359,5.438,4.594,5.438,8.156,0,61.312,27.234,69.141,50.953,69.141s51-7.875,51-69.141c0-3.562,2.156-6.797,5.438-8.156s7.125-.609,9.609,1.922c19.031,19.125,36.469,28.875,51.797,28.875h.047c11.344,0,22.172-5.297,33.047-16.172,16.734-16.734,30.422-41.531-12.75-84.703-2.531-2.531-3.281-6.328-1.922-9.609s4.594-5.438,8.156-5.438c61.125,0,68.953-27.234,68.953-51s-7.828-51.188-68.953-51.188c-3.562,0-6.797-2.156-8.156-5.438s-.609-7.078,1.922-9.609c43.172-43.172,29.484-67.922,12.75-84.703-10.875-10.875-21.703-16.172-33.047-16.172h-.047c-15.281,0-32.719,9.75-51.797,28.875-2.531,2.531-6.328,3.281-9.609,1.922s-5.438-4.594-5.438-8.156c0-61.125-27.234-68.953-51-68.953s-50.953,7.828-50.953,68.953c0,3.562-2.156,6.797-5.438,8.156-3.281,1.406-7.078.609-9.609-1.922-43.266-43.266-68.109-29.531-84.891-12.75-10.828,10.734-16.078,21.422-16.125,32.766-.047,15.328,9.609,32.812,28.641,51.938,2.531,2.531,3.234,6.328,1.875,9.609s-4.594,5.438-8.156,5.438c-60.938,0-68.766,27.328-68.766,51.188,0,23.719,7.828,51,68.766,51,3.562,0,6.797,2.156,8.156,5.438s.609,7.078-1.922,9.609c-19.078,19.078-28.734,36.516-28.734,51.844.047,11.344,5.297,22.078,16.172,32.859,16.828,16.828,41.672,30.562,84.938-12.703,1.734-1.641,3.984-2.531,6.281-2.531h0Z"/><path d="M291.189,949.395c-53.625,0-97.266-43.641-97.266-97.266s43.641-97.266,97.266-97.266,97.312,43.641,97.312,97.266-43.641,97.266-97.312,97.266Z"/><path class="cls-4" d="M291.189,772.445c-43.922,0-79.641,35.719-79.641,79.641s35.719,79.641,79.641,79.641,79.641-35.719,79.641-79.641-35.719-79.641-79.641-79.641Z"/></g></svg>