<?xml version="1.0" encoding="UTF-8"?><svg id="Layer_1" xmlns="http://www.w3.org/2000/svg" viewBox="0 0 1198.488 1204.201"><path d="M290.084,1106.747c-107.398,0-194.759-87.364-194.759-194.759s87.364-194.759,194.759-194.759,194.759,87.364,194.759,194.759c.059,107.338-87.364,194.759-194.759,194.759ZM290.084,739.508c-95.07,0-172.468,77.347-172.468,172.468s77.347,172.468,172.468,172.468,172.468-77.347,172.468-172.468-77.347-172.468-172.468-172.468Z"/><path d="M290.084,683.076c-6.164,0-11.143-4.979-11.143-11.143v-38.881c0-6.164,4.979-11.143,11.143-11.143s11.143,4.979,11.143,11.143v38.94c0,6.105-4.979,11.083-11.143,11.083h0Z"/><path d="M290.084,1202.047c-6.164,0-11.143-4.979-11.143-11.143v-38.94c0-6.164,4.979-11.143,11.143-11.143s11.143,4.979,11.143,11.143v38.94c0,6.105-4.979,11.143-11.143,11.143Z"/><path d="M170.102,715.269c-3.853,0-7.587-2.015-9.661-5.571l-19.441-33.725c-3.082-5.334-1.245-12.15,4.09-15.233,5.334-3.082,12.15-1.245,15.233,4.09l19.441,33.725c3.082,5.334,1.245,12.15-4.09,15.233-1.778,1.008-3.675,1.482-5.571,1.482h0Z"/><path d="M429.537,1164.645c-3.853,0-7.587-2.015-9.661-5.571l-19.441-33.725c-3.082-5.334-1.245-12.15,4.09-15.233s12.15-1.245,15.233,4.09l19.441,33.725c3.082,5.334,1.245,12.15-4.09,15.233-1.719,1.008-3.675,1.482-5.571,1.482h0Z"/><path d="M82.225,803.096c-1.897,0-3.793-.474-5.571-1.482l-33.725-19.441c-5.334-3.082-7.172-9.898-4.09-15.233s9.898-7.172,15.233-4.09l33.725,19.441c5.334,3.082,7.172,9.898,4.09,15.233-2.015,3.556-5.809,5.571-9.661,5.571h0Z"/><path d="M531.665,1062.581c-1.897,0-3.793-.474-5.571-1.482l-33.725-19.5c-5.334-3.082-7.172-9.898-4.09-15.233s9.898-7.172,15.233-4.09l33.725,19.441c5.334,3.082,7.172,9.898,4.09,15.233-2.074,3.616-5.809,5.631-9.661,5.631h0Z"/><path d="M50.083,923.115H11.143c-6.164,0-11.143-4.979-11.143-11.143s4.979-11.143,11.143-11.143h38.94c6.164,0,11.143,4.979,11.143,11.143s-4.979,11.143-11.143,11.143Z"/><path d="M569.003,923.115h-38.94c-6.164,0-11.143-4.979-11.143-11.143s4.979-11.143,11.143-11.143h38.94c6.164,0,11.143,4.979,11.143,11.143s-4.979,11.143-11.143,11.143Z"/><path d="M48.553,1062.581c-3.853,0-7.587-2.015-9.661-5.571-3.082-5.334-1.245-12.15,4.09-15.233l33.725-19.441c5.334-3.082,12.15-1.304,15.233,4.09,3.082,5.334,1.245,12.15-4.09,15.233l-33.725,19.441c-1.778,1.008-3.675,1.482-5.571,1.482h0Z"/><path d="M497.942,803.096c-3.853,0-7.587-2.015-9.661-5.571-3.082-5.334-1.245-12.15,4.09-15.233l33.725-19.441c5.334-3.082,12.15-1.304,15.233,4.09,3.082,5.334,1.245,12.15-4.09,15.233l-33.725,19.441c-1.719,1.008-3.675,1.482-5.571,1.482h0Z"/><path d="M150.605,1164.645c-1.897,0-3.793-.474-5.571-1.482-5.334-3.082-7.172-9.898-4.09-15.233l19.441-33.725c3.082-5.334,9.898-7.172,15.233-4.09,5.334,3.082,7.172,9.898,4.09,15.233l-19.441,33.725c-2.074,3.556-5.809,5.571-9.661,5.571h0Z"/><path d="M410.103,715.269c-1.897,0-3.793-.474-5.571-1.482-5.334-3.082-7.172-9.898-4.09-15.233l19.441-33.725c3.082-5.334,9.898-7.172,15.233-4.09s7.172,9.898,4.09,15.233l-19.441,33.725c-2.074,3.556-5.809,5.571-9.661,5.571h0Z"/><path d="M290.736,582.267c-16.655,0-30.227-13.632-30.227-30.406v-31.176l-2.667,2.608c-11.143,11.38-31.59,11.498-42.97-.119-5.69-5.69-8.831-13.336-8.831-21.456s3.2-15.766,8.95-21.574l45.579-45.4v-87.126l-81.911,47.357-16.536,61.878c-2.074,7.883-7.172,14.462-14.284,18.492-7.053,4.03-15.233,5.097-23.115,2.964-7.587-1.897-14.521-7.231-18.314-14.225-3.971-6.579-5.156-15.114-3.023-22.938l.889-3.438-27.087,15.588c-7.172,4.09-15.411,5.156-23.293,3.023-7.764-2.134-14.165-7.112-18.077-14.106-4.03-6.994-5.097-15.173-3.023-22.997,2.074-7.824,7.172-14.403,14.225-18.492l26.731-15.469-3.319-.889c-7.824-2.074-14.462-7.172-18.552-14.284-4.089-7.113-5.216-15.292-3.082-23.115,4.327-16.121,21.159-25.723,37.399-21.456l62.115,16.714,80.369-46.468-74.324-42.912-61.878,16.714c-16.3,4.327-32.953-5.334-37.222-21.515-2.134-7.764-1.126-16.121,2.904-22.938,3.734-6.638,10.432-11.854,18.314-14.046l3.615-1.008-27.027-15.528c-14.462-8.476-19.441-27.087-11.143-41.548,8.416-14.403,27.087-19.262,41.548-10.965l27.027,15.588-.948-3.556c-2.193-7.705-1.126-16.003,2.964-23.115,4.09-7.112,10.728-12.091,18.67-14.106,16.003-4.267,32.717,5.334,37.044,21.515l16.536,62.234,75.57,43.563v-94.713l-45.4-45.164c-11.913-11.913-11.913-31.235,0-43.148,11.261-11.261,31.709-11.083,42.793,0l2.608,2.608v-31.176c0-16.774,13.572-30.406,30.227-30.406,16.774,0,30.406,13.632,30.406,30.406v30.999l2.43-2.43c5.809-5.809,13.098-9.483,21.811-8.95,8.179.059,15.766,3.26,21.397,9.009,11.795,11.795,11.795,31.176-.059,43.03l-45.579,45.4v92.816l74.324-42.912,16.536-61.878c2.074-7.883,7.053-14.521,14.106-18.611,6.994-4.09,15.233-5.156,23.115-3.082,7.883,2.193,14.58,7.231,18.492,13.929,4.09,6.757,5.216,15.292,3.023,23.174l-.948,3.556,27.027-15.647c6.935-4.09,15.114-5.156,22.997-3.082s14.462,7.172,18.552,14.225c8.239,14.521,3.141,33.072-11.321,41.371l-26.968,15.588,3.438.948c7.942,2.134,14.58,7.231,18.67,14.403,4.03,7.053,4.979,15.233,2.786,22.997-2.015,7.646-7.053,14.225-14.047,18.314-7.053,4.09-15.292,5.216-23.115,3.141l-62.115-16.832-75.57,43.742,81.911,47.178,61.937-16.655c7.883-2.074,16.121-1.008,23.174,3.082,7.053,4.09,12.091,10.669,14.225,18.552,1.897,7.527.83,15.707-2.904,22.464-4.386,7.349-11.024,12.447-18.552,14.521l-3.556.948,26.968,15.588c7.053,4.09,12.091,10.609,14.225,18.492,2.074,7.764,1.008,15.884-3.082,22.878-8.298,14.521-26.968,19.5-41.548,11.143l-26.849-15.588.889,3.438c2.074,7.824.889,16.359-3.26,23.47-4.09,6.994-10.669,11.973-18.373,13.929-16.181,4.267-32.895-5.394-37.28-21.692l-16.536-62.055-80.369-46.349v85.763l45.4,45.223c5.749,5.749,8.95,13.395,8.95,21.574s-3.2,15.826-8.95,21.574c-11.439,11.439-31.413,11.321-42.793,0l-2.608-2.608v31.176c.178,16.832-13.455,30.465-30.227,30.465l-.002-.002ZM271.651,482.753c1.422,0,2.904.296,4.267.889,4.149,1.719,6.875,5.809,6.875,10.313v57.966c0,4.445,3.556,8.12,7.942,8.12,4.445,0,8.12-3.615,8.12-8.12v-57.966c0-4.505,2.726-8.535,6.875-10.313,4.208-1.719,8.95-.771,12.15,2.371l21.633,21.515c2.964,2.964,8.179,3.082,11.261.059,1.541-1.541,2.43-3.616,2.43-5.809s-.83-4.208-2.43-5.749l-48.66-48.483c-2.074-2.074-3.26-4.919-3.26-7.883v-109.709c0-3.971,2.134-7.646,5.571-9.661,3.438-1.956,7.705-1.956,11.143,0l101.115,58.322c2.549,1.482,4.445,3.912,5.216,6.816l17.722,66.561c1.185,4.386,5.69,7.112,10.076,5.868,2.015-.533,3.675-1.778,4.742-3.616,1.185-1.956,1.482-4.267.889-6.46l-7.764-29.457c-1.126-4.386.415-9.009,4.03-11.735,3.556-2.726,8.476-3.023,12.387-.771l50.023,29.043c3.971,2.311,8.772.948,11.024-2.964l.059-.059c1.067-1.837,1.363-3.912.83-5.927-.533-2.074-1.897-3.793-3.793-4.86l-50.261-29.102c-3.912-2.252-6.045-6.638-5.453-11.143.593-4.445,3.793-8.12,8.179-9.305l29.398-7.883c1.956-.533,3.793-2.015,5.038-4.09.771-1.482,1.126-3.912.652-5.868-.533-1.956-1.897-3.675-3.793-4.801s-4.149-1.422-6.223-.83l-66.323,17.84c-2.845.711-5.927.356-8.476-1.126l-102.656-59.151c-3.438-1.956-5.571-5.69-5.571-9.661s2.134-7.646,5.571-9.661l96.314-55.713c2.549-1.482,5.631-1.897,8.535-1.126l66.561,18.077c2.074.533,4.208.237,6.046-.83,1.897-1.126,3.201-2.904,3.793-5.038s.356-4.208-.652-6.045c-1.067-1.897-2.845-3.319-4.979-3.853l-29.457-7.942c-4.386-1.185-7.587-4.86-8.179-9.305-.593-4.505,1.541-8.831,5.453-11.143l50.201-29.043c3.912-2.252,5.275-7.172,3.082-10.965-1.067-1.837-2.786-3.141-4.919-3.734-2.074-.593-4.267-.237-6.046.771l-50.261,29.102c-3.912,2.252-8.772,1.956-12.328-.771-3.556-2.726-5.156-7.349-4.03-11.676l7.764-29.576c.593-2.193.356-4.386-.652-6.045-1.067-1.778-2.964-3.201-5.097-3.793-2.015-.533-4.208-.237-6.045.83s-3.141,2.845-3.734,5.038l-17.722,66.442c-.771,2.845-2.608,5.334-5.216,6.816l-95.07,54.824c-3.438,1.956-7.705,1.956-11.143,0-3.438-2.015-5.571-5.69-5.571-9.661v-116.762c0-2.964,1.185-5.809,3.26-7.883l48.838-48.66c3.2-3.201,3.2-8.357,0-11.558-1.541-1.6-3.912-2.667-5.749-2.43-2.193,0-4.267.889-5.868,2.43l-21.515,21.456c-3.2,3.201-8.001,4.149-12.15,2.43s-6.875-5.809-6.875-10.313v-57.966c0-4.445-3.615-8.12-8.12-8.12-4.386,0-7.942,3.615-7.942,8.12v57.966c0,4.505-2.726,8.535-6.875,10.313-4.09,1.719-8.95.83-12.15-2.371l-21.692-21.515c-2.786-2.786-8.357-2.904-11.261-.059-3.2,3.201-3.2,8.357,0,11.558l48.66,48.483c2.074,2.074,3.26,4.919,3.26,7.883v118.659c0,3.971-2.134,7.646-5.571,9.661-3.438,1.956-7.705,1.956-11.143,0l-96.314-55.536c-2.549-1.482-4.445-3.912-5.216-6.816l-17.722-66.738c-1.126-4.327-5.334-6.816-9.898-5.69-2.193.533-3.912,1.837-4.979,3.675s-1.363,3.971-.771,6.045l7.824,29.576c1.126,4.386-.415,8.95-4.03,11.676-3.556,2.786-8.416,3.082-12.328.83l-50.201-28.864c-3.971-2.252-8.831-1.008-11.083,2.845-2.193,3.793-.83,8.772,3.023,11.024l50.142,28.864c3.912,2.252,6.045,6.638,5.512,11.083-.593,4.445-3.793,8.179-8.12,9.365l-29.398,8.061c-2.134.593-3.971,1.956-4.919,3.616-1.067,1.778-1.304,4.03-.711,6.045,1.185,4.505,5.571,6.994,9.957,5.809l66.323-17.899c2.845-.771,5.927-.356,8.476,1.126l95.07,54.884c3.438,2.015,5.571,5.69,5.571,9.661s-2.134,7.646-5.571,9.661l-101.115,58.44c-2.608,1.482-5.631,1.837-8.476,1.126l-66.561-17.899c-4.386-1.185-8.89,1.422-10.076,5.69-.533,2.074-.237,4.267.889,6.164,1.126,1.956,2.904,3.319,4.979,3.912l29.279,7.942c4.386,1.185,7.587,4.86,8.179,9.305.593,4.445-1.6,8.831-5.453,11.083l-50.023,28.864c-1.897,1.126-3.26,2.845-3.793,4.86-.533,2.074-.237,4.267.889,6.223,1.008,1.837,2.667,3.082,4.623,3.616,2.134.593,4.327.296,6.283-.83l50.201-28.864c3.853-2.252,8.772-1.956,12.328.83,3.556,2.726,5.156,7.349,4.03,11.676l-7.764,29.398c-.593,2.015-.237,4.267.83,6.045,1.067,1.897,2.845,3.26,4.505,3.675,2.312.593,4.564.356,6.46-.771,1.897-1.067,3.2-2.786,3.734-4.86l17.722-66.382c.771-2.845,2.608-5.334,5.216-6.816l102.656-59.329c3.438-1.956,7.705-1.956,11.143,0,3.438,2.015,5.571,5.69,5.571,9.661v111.072c0,2.964-1.185,5.809-3.26,7.883l-48.838,48.66c-1.541,1.541-2.371,3.616-2.371,5.749,0,2.193.83,4.208,2.43,5.749,3.082,3.2,8.416,3.082,11.321.119l21.811-21.633c1.956-2.015,4.801-3.141,7.705-3.141v-.002Z"/><path d="M906.286,584.403c-50.854,0-79.54-28.805-85.586-85.704-44.452,35.917-85.053,35.917-121.029-.059-17.84-17.722-26.968-36.984-27.027-57.314-.059-20.448,8.713-41.371,26.672-63.537-56.544-6.045-85.17-34.732-85.17-85.586s28.628-79.778,85.23-85.823c-17.959-22.226-26.731-43.208-26.612-63.716.059-20.27,9.128-39.474,26.968-57.137,35.977-35.977,76.576-35.917,121.029-.059C826.805,28.747,855.492,0,906.346,0s79.54,28.687,85.586,85.349c22.107-18.018,42.97-26.791,63.418-26.849h.059c20.27,0,39.651,9.068,57.552,26.968,35.917,35.917,35.858,76.458.059,120.792,56.721,6.045,85.468,34.85,85.468,85.823s-28.687,79.54-85.408,85.586c17.07,21.041,25.783,40.956,26.612,60.455.889,21.397-8.061,41.667-26.731,60.337-17.899,17.899-37.28,26.968-57.61,26.968h-.059c-20.389,0-41.311-8.831-63.359-26.791-6.105,56.959-34.792,85.763-85.645,85.763l-.002.002ZM830.717,463.492c1.422,0,2.904.296,4.267.83,4.149,1.719,6.875,5.809,6.875,10.313,0,77.524,34.435,87.424,64.426,87.424s64.486-9.957,64.486-87.424c0-4.505,2.726-8.594,6.875-10.313,4.149-1.719,9.009-.771,12.15,2.43,24.063,24.182,46.112,36.51,65.493,36.51h.059c14.344,0,28.035-6.698,41.785-20.448,21.159-21.159,38.466-52.513-16.121-107.101-3.2-3.2-4.149-8.001-2.43-12.15,1.719-4.149,5.809-6.875,10.313-6.875,77.288,0,87.186-34.435,87.186-64.486s-9.898-64.723-87.186-64.723c-4.505,0-8.594-2.726-10.313-6.875-1.719-4.149-.771-8.95,2.43-12.15,54.588-54.588,37.28-85.882,16.121-107.101-13.751-13.751-27.442-20.448-41.785-20.448h-.059c-19.322,0-41.371,12.328-65.493,36.51-3.2,3.2-8.001,4.149-12.15,2.43s-6.875-5.809-6.875-10.313c0-77.288-34.435-87.186-64.486-87.186s-64.426,9.898-64.426,87.186c0,4.505-2.726,8.594-6.875,10.313-4.149,1.778-8.95.771-12.15-2.43-54.707-54.707-86.119-37.34-107.338-16.121-13.691,13.572-20.329,27.087-20.389,41.43-.059,19.381,12.15,41.488,36.214,65.672,3.201,3.2,4.09,8.001,2.371,12.15s-5.809,6.875-10.313,6.875c-77.052,0-86.949,34.554-86.949,64.723,0,29.991,9.898,64.486,86.949,64.486,4.505,0,8.594,2.726,10.313,6.875s.771,8.95-2.43,12.15c-24.123,24.123-36.332,46.172-36.332,65.553.059,14.344,6.698,27.916,20.448,41.548,21.278,21.278,52.691,38.643,107.398-16.062,2.193-2.074,5.038-3.2,7.942-3.2h-.001Z"/><path d="M906.286,410.469c-67.805,0-122.986-55.181-122.986-122.986s55.181-122.986,122.986-122.986,123.044,55.181,123.044,122.986-55.181,122.986-123.044,122.986ZM906.286,186.729c-55.536,0-100.7,45.164-100.7,100.7s45.164,100.7,100.7,100.7,100.7-45.164,100.7-100.7-45.164-100.7-100.7-100.7Z"/><path d="M906.181,1085.345c-2.667,0-5.334-.948-7.468-2.904-55.24-49.965-136.912-51.565-144.321-50.261-4.149,1.6-8.416.415-11.498-2.845-3.141-3.26-3.438-8.179-1.66-12.328l19.085-44.452c-46.705-2.43-89.261-26.612-91.276-27.797-3.615-2.074-5.809-6.045-5.571-10.254.237-4.208,2.786-7.883,6.638-9.602l36.51-16.121-54.469-63.063c-3.141-3.675-3.615-8.95-1.067-13.098,2.489-4.149,7.409-6.223,12.091-5.038l58.796,13.929-13.987-59.033c-1.304-5.631,1.897-11.38,7.409-13.158,5.512-1.837,11.498.889,13.751,6.223,13.869,32.717,53.58,46.112,75.213,51.031-9.957-44.097-46.705-82.8-47.12-83.214-3.082-3.2-3.971-8.001-2.252-12.091,1.778-4.09,5.809-6.816,10.254-6.816,25.13,0,45.223,5.453,58.736,10.669,4.979-48.779,66.738-105.323,74.798-112.554,4.208-3.734,10.609-3.793,14.877,0,8.061,7.172,69.997,63.775,75.036,112.554,13.455-5.216,33.546-10.669,58.736-10.669,4.445,0,8.535,2.667,10.254,6.757,1.778,4.09.889,8.89-2.193,12.091-.415.415-37.163,39.177-47.178,83.214,21.633-4.979,61.285-18.314,74.977-51.031,2.252-5.334,8.179-8.12,13.751-6.283,5.512,1.778,8.713,7.527,7.409,13.158l-13.987,59.033,59.033-13.987c4.742-1.126,9.602.948,12.091,5.097,2.489,4.149,2.074,9.424-1.126,13.098l-54.647,63.004,36.689,16.121c3.853,1.66,6.401,5.394,6.638,9.602.237,4.208-1.956,8.179-5.571,10.254-2.015,1.185-44.63,25.367-91.276,27.797l19.085,44.452c1.778,4.09.889,8.89-2.193,12.15-3.141,3.26-7.883,4.327-12.032,2.667-6.401-.948-88.015.652-143.487,50.557-2.134,2.134-4.801,3.141-7.468,3.141h-.008ZM768.612,1009.717c32.005,1.422,91.749,12.743,137.569,49.787,45.993-36.984,105.738-48.364,137.746-49.787l-18.907-44.097c-1.541-3.615-1.067-7.764,1.185-10.906,2.252-3.2,6.045-4.86,9.957-4.623,27.501,2.252,56.189-6.816,75.036-14.58l-28.212-12.447c-3.26-1.422-5.631-4.327-6.401-7.764s.119-7.053,2.43-9.78l41.904-48.305-42.97,10.194c-3.793.948-7.764-.237-10.432-2.964-2.726-2.726-3.853-6.698-2.964-10.432l7.29-30.702c-32.302,23.353-73.376,27.916-75.747,28.212-3.319.356-6.579-.771-8.95-3.082s-3.615-5.512-3.319-8.831c2.726-36.036,22.878-69.701,38.17-90.446-25.012,4.386-39.77,13.929-39.948,14.047-3.971,2.608-9.246,2.43-12.981-.533-3.793-2.964-5.275-7.942-3.675-12.447,9.246-26.434-28.745-74.858-59.092-103.9-30.227,29.043-68.101,77.524-58.855,103.9,1.6,4.505.059,9.542-3.675,12.506-3.793,2.964-9.068,3.141-12.981.474-.178-.119-14.995-9.602-39.948-14.047,15.292,20.744,35.384,54.409,38.111,90.446.237,3.319-1.008,6.52-3.319,8.831-2.371,2.312-5.631,3.497-8.95,3.082-2.43-.237-43.623-4.86-76.044-28.331l7.29,30.82c.889,3.793-.237,7.705-2.964,10.432s-6.698,3.912-10.432,2.964l-42.853-10.135,41.726,48.364c2.312,2.667,3.2,6.283,2.43,9.72-.77,3.438-3.141,6.342-6.401,7.764l-28.035,12.387c18.848,7.764,47.594,16.951,75.095,14.64,3.793-.296,7.705,1.422,9.957,4.623,2.312,3.2,2.726,7.349,1.185,10.906l-19.034,44.037Z"/><path d="M906.295,1204.201c-6.164,0-11.143-4.979-11.143-11.143v-346.553c0-6.164,4.979-11.143,11.143-11.143s11.143,4.979,11.143,11.143v346.49c0,6.223-4.979,11.202-11.143,11.202v.004Z"/></svg>