<?xml version="1.0" encoding="UTF-8"?>
<svg id="Layer_1" data-name="Layer 1" xmlns="http://www.w3.org/2000/svg" viewBox="0 0 1050.002 1000.021">
  <defs>
    <style>
      .cls-1 {
        fill: #fff;
      }

      .cls-2 {
        fill: #e90000;
      }
    </style>
  </defs>
  <path class="cls-2" d="M433.867,454.495l-137.51,149.43c-3.863,4.219-10.41,4.492-14.602.629s-4.465-10.41-.602-14.602l137.51-149.46"/>
  <g id="Layer_1-2" data-name="Layer 1">
    <path d="M865.498,473.018c1.219-13.031,2.016-26.203,2.016-39.375l.047.047c-.047-115.08-45.75-225.37-127.13-306.71C659.055,45.652,548.71-.05,433.69,0,318.66,0,208.32,45.75,126.98,127.13,45.652,208.458-.05,318.81,0,433.87c.047,115.03,45.75,225.37,127.13,306.71,81.379,81.336,191.72,126.98,306.74,126.98,35.578-.047,71.062-4.547,105.56-13.359,41.438,79.781,119.81,133.78,209.16,144.05,89.391,10.266,177.98-24.562,236.44-92.859,58.453-68.344,79.172-161.29,55.172-247.97-23.953-86.672-89.438-155.76-174.71-184.4l.006-.004h0ZM433.868,830.068c-105.09,0-205.92-41.719-280.26-116.02-74.297-74.297-116.06-175.08-116.11-280.18-.047-105.09,41.719-205.92,116.02-280.26,74.297-74.297,175.08-116.11,280.18-116.11,105.09-.047,205.92,41.672,280.22,116.02,74.344,74.297,116.11,175.08,116.16,280.18,0,9.938-.516,19.922-1.266,29.812v-.047c-10.453-1.875-21-3.188-31.594-3.844.609-8.531.984-17.203.984-25.969v.047c.047-107.67-47.578-209.86-130.03-279.1-82.453-69.234-191.29-98.484-297.37-79.781-106.03,18.656-198.37,83.297-252.24,176.53l-.188.234c-.047.094-.047.234-.094.328l-.047-.047c-31.922,55.219-48.75,117.94-48.656,181.74v.234c-.094,110.95,50.438,215.9,137.26,285,86.859,69.141,200.48,94.828,308.63,69.797,2.344,10.406,5.344,20.672,8.953,30.75-29.672,7.078-60.047,10.688-90.516,10.688l-.038-.003h.002ZM508.68,729.428c0,7.406.516,14.719,1.125,21.984v-.047c-18.797,4.547-37.969,7.359-57.234,8.484v-30.469c0-10.359-8.391-18.75-18.75-18.75s-18.75,8.391-18.75,18.75v30.469c-44.625-2.531-88.219-14.203-128.11-34.266l15.234-26.438c2.484-4.312,3.188-9.422,1.875-14.25-1.266-4.781-4.406-8.906-8.719-11.391s-9.422-3.141-14.25-1.875c-4.781,1.312-8.906,4.453-11.391,8.766l-15.188,26.344c-37.312-24.562-69.188-56.438-93.797-93.75l26.391-15.234v.047c8.953-5.203,12.047-16.688,6.844-25.641-5.156-8.953-16.594-12.047-25.594-6.844l-26.438,15.234c-20.062-39.891-31.734-83.484-34.266-128.11h30.469c10.359,0,18.75-8.391,18.75-18.75s-8.391-18.75-18.75-18.75h-30.469c2.484-44.578,14.156-88.219,34.312-128.06l26.391,15.234c9,5.156,20.438,2.109,25.641-6.891,5.156-8.953,2.109-20.438-6.891-25.594l-26.344-15.234c24.469-37.359,56.391-69.281,93.703-93.797l15.234,26.438v-.047c2.484,4.312,6.609,7.453,11.391,8.766,4.828,1.266,9.938.609,14.25-1.875s7.453-6.609,8.719-11.391c1.312-4.828.609-9.938-1.875-14.25l-15.281-26.438c39.938-20.109,83.531-31.781,128.16-34.312v30.516c0,10.359,8.391,18.75,18.75,18.75s18.75-8.391,18.75-18.75v-30.516c44.578,2.531,88.219,14.25,128.11,34.359l-15.234,26.438-.047-.047c-5.156,9-2.062,20.438,6.891,25.641,8.953,5.156,20.438,2.062,25.594-6.891l15.234-26.438h.047c37.359,24.516,69.281,56.438,93.75,93.797l-26.438,15.281h.047c-4.312,2.484-7.453,6.562-8.766,11.391-1.266,4.781-.609,9.891,1.875,14.203,5.203,9,16.641,12.047,25.641,6.891l26.484-15.281h-.047c20.156,39.891,31.875,83.484,34.359,128.11h-30.562c-10.359,0-18.75,8.391-18.75,18.75s8.391,18.75,18.75,18.75h30.562c-.141,2.438-.375,4.875-.562,7.266v.047c-68.109,5.016-131.81,35.625-178.31,85.594-46.5,50.016-72.422,115.73-72.516,184.03l-.004.047h0ZM452.58,393.758v-171.74c0-10.359-8.391-18.75-18.75-18.75s-18.75,8.391-18.75,18.75v171.74c-9.328,4.406-16.828,11.859-21.234,21.188h-101.25c-10.359,0-18.75,8.391-18.75,18.75s8.391,18.75,18.75,18.75h101.25c6.094,13.078,18.188,22.359,32.391,24.844,14.203,2.531,28.734-2.062,38.906-12.234s14.766-24.75,12.281-38.953c-2.531-14.203-11.766-26.25-24.844-32.344h0ZM433.83,440.492c-2.766,0-5.203-1.688-6.281-4.219-1.031-2.531-.469-5.438,1.453-7.359,1.969-1.922,4.875-2.531,7.406-1.453,2.531,1.031,4.172,3.516,4.172,6.234,0,3.75-3.047,6.797-6.75,6.797h0Z"/>
  </g>
  <g id="Layer_4" data-name="Layer 4">
    <path class="cls-1" d="M778.693,992.064c-69.144,0-135.52-27.469-184.369-76.379-48.909-48.909-76.379-115.222-76.379-184.369s27.469-135.464,76.379-184.369c48.909-48.901,115.222-76.379,184.369-76.379s135.464,27.469,184.369,76.379c48.909,48.909,76.379,115.222,76.379,184.369-.052,69.144-27.574,135.408-76.484,184.313-48.858,48.858-115.121,76.379-184.257,76.432l-.007.003Z"/>
  </g>
  <g id="Layer_2" data-name="Layer 2">
    <path d="M393.505,415.035h-101.25c-10.359,0-18.75,8.391-18.75,18.75s8.391,18.75,18.75,18.75h101.25"/>
  </g>
  <g>
    <path d="M616.136,800.88c-12.672,0-24.098-2.209-34.271-6.624-10.18-4.414-18.626-10.944-25.345-19.584l20.16-17.28c5.761,6.724,12.047,11.57,18.864,14.544,6.813,2.979,14.544,4.465,23.184,4.465,3.456,0,6.67-.433,9.648-1.297,2.975-.863,5.566-2.159,7.776-3.888,2.205-1.728,3.888-3.789,5.04-6.191,1.151-2.398,1.728-5.04,1.728-7.921,0-4.99-1.827-9.022-5.472-12.096-1.922-1.341-4.945-2.83-9.072-4.464-4.131-1.629-9.459-3.312-15.984-5.04-11.137-2.88-20.259-6.143-27.359-9.792-7.105-3.645-12.578-7.776-16.416-12.384-2.88-3.646-4.995-7.632-6.336-11.952-1.346-4.32-2.017-9.072-2.017-14.256,0-6.336,1.391-12.142,4.177-17.424,2.78-5.278,6.624-9.887,11.52-13.824,4.896-3.933,10.656-6.957,17.28-9.072,6.624-2.11,13.68-3.168,21.168-3.168,7.101,0,14.157.963,21.168,2.88,7.006,1.922,13.486,4.707,19.439,8.353,5.949,3.649,10.944,7.97,14.977,12.96l-16.992,18.72c-3.649-3.645-7.632-6.862-11.952-9.647-4.32-2.781-8.689-4.941-13.104-6.48-4.419-1.534-8.451-2.304-12.097-2.304-4.031,0-7.682.387-10.943,1.151-3.268.77-6.003,1.922-8.208,3.456-2.21,1.539-3.889,3.456-5.04,5.761-1.152,2.304-1.729,4.896-1.729,7.775.189,2.498.814,4.852,1.872,7.056,1.053,2.21,2.543,4.082,4.464,5.616,2.11,1.539,5.279,3.168,9.504,4.896,4.222,1.728,9.599,3.361,16.129,4.896,9.598,2.498,17.518,5.233,23.76,8.208,6.236,2.979,11.183,6.386,14.832,10.225,3.838,3.649,6.524,7.875,8.063,12.672,1.535,4.802,2.305,10.179,2.305,16.128,0,8.64-2.448,16.371-7.345,23.184-4.896,6.817-11.475,12.146-19.728,15.984-8.258,3.839-17.474,5.76-27.648,5.76Z"/>
    <path d="M774.245,800.88c-15.552,0-29.331-3.312-41.328-9.936-12.001-6.624-21.411-15.696-28.224-27.217-6.817-11.52-10.225-24.768-10.225-39.743,0-11.903,1.917-22.752,5.761-32.544,3.838-9.792,9.166-18.288,15.983-25.488,6.813-7.2,14.977-12.767,24.48-16.704,9.504-3.933,19.822-5.904,30.96-5.904,9.792,0,18.909,1.872,27.36,5.616,8.446,3.744,15.79,8.883,22.031,15.408,6.237,6.529,11.039,14.256,14.4,23.184,3.356,8.929,4.94,18.675,4.752,29.232l-.288,12.672h-123.552l-6.624-23.616h104.544l-4.32,4.896v-6.912c-.576-6.336-2.69-11.997-6.336-16.992-3.649-4.99-8.258-8.928-13.824-11.808-5.57-2.881-11.619-4.32-18.144-4.32-10.368,0-19.107,1.971-26.208,5.904-7.105,3.938-12.483,9.697-16.128,17.279-3.649,7.587-5.472,16.947-5.472,28.08,0,10.562,2.204,19.729,6.623,27.504,4.415,7.776,10.656,13.779,18.721,18,8.063,4.226,17.374,6.336,27.936,6.336,7.488,0,14.445-1.246,20.88-3.743,6.431-2.493,13.393-7.007,20.88-13.536l14.977,21.023c-4.608,4.608-10.225,8.641-16.848,12.097-6.624,3.455-13.636,6.191-21.024,8.208-7.394,2.016-14.643,3.023-21.744,3.023Z"/>
    <path d="M936.677,800.88c-14.018,0-26.546-3.456-37.584-10.368-11.043-6.912-19.777-16.316-26.208-28.224-6.435-11.902-9.648-25.245-9.648-40.032s3.214-28.125,9.648-40.032c6.431-11.902,15.165-21.312,26.208-28.224,11.038-6.912,23.566-10.368,37.584-10.368,13.438,0,25.677,2.736,36.72,8.208,11.039,5.473,19.44,12.915,25.2,22.32l-16.416,20.16c-3.073-4.415-7.011-8.447-11.808-12.097-4.802-3.645-9.892-6.524-15.265-8.64-5.377-2.11-10.562-3.168-15.552-3.168-9.216,0-17.424,2.259-24.624,6.768-7.2,4.514-12.915,10.706-17.136,18.576-4.226,7.875-6.336,16.704-6.336,26.496s2.205,18.576,6.624,26.353c4.414,7.775,10.269,13.968,17.567,18.575,7.295,4.608,15.359,6.912,24.192,6.912,5.184,0,10.224-.863,15.12-2.592,4.896-1.728,9.648-4.32,14.256-7.776,4.608-3.455,8.928-7.677,12.96-12.672l16.416,20.16c-6.146,8.641-14.931,15.746-26.352,21.312-11.426,5.566-23.283,8.352-35.568,8.352Z"/>
  </g>
</svg>