<?xml version="1.0" encoding="UTF-8"?>
<svg id="Layer_1" data-name="Layer 1" xmlns="http://www.w3.org/2000/svg" viewBox="0 0 1140.298 700.797">
  <path d="M1132.204,389.999c-4.801-4.801-62.402-63.602-153.6-126l57.602-98.398c9.602-15.602,3.602-36-12-44.398-15.602-8.398-36-3.602-44.398,12l-55.199,96c-37.199-21.602-78-42-122.4-58.801l26.398-100.8c4.801-18-6-34.801-22.801-39.602-16.801-4.801-34.801,6-39.602,22.801l-25.199,96c-43.199-12-88.801-20.398-136.8-22.801V32.398c0-18-14.398-32.398-32.398-32.398s-32.398,14.398-32.398,32.398v93.602c-46.801,2.398-92.398,10.801-136.8,22.801l-25.199-96c-4.801-18-22.801-27.602-39.602-22.801-18,4.801-27.602,22.801-22.801,39.602l26.398,100.8c-44.398,16.801-85.199,37.199-122.4,58.801l-55.199-96c-8.398-15.602-28.801-20.398-44.398-12-15.602,9.602-20.398,28.801-12,44.398l57.602,98.398C71.405,326.397,13.8,385.199,9,389.999c-12,12-12,32.398,0,44.398,10.801,12,254.4,266.4,561.6,266.4s550.8-255.6,561.6-266.4c10.797-12,10.797-31.199,0-44.398h.004ZM570.604,615.599c-111.6,0-202.8-91.199-202.8-202.8s91.199-202.8,202.8-202.8,202.8,91.199,202.8,202.8-91.199,202.8-202.8,202.8ZM378.604,225.599c-46.801,48-75.602,114-75.602,187.2,0,72,28.801,138,75.602,187.2-141.6-51.602-252-144-297.6-187.2,45.602-42,156-135.6,297.6-187.2ZM762.604,599.999c46.801-48,75.602-114,75.602-187.2s-28.801-138-75.602-186c140.4,51.602,252,144,297.6,187.2-45.602,42.004-156,134.4-297.6,186Z"/>
  <path d="M570.604,287.999c-16.801,0-33.602,3.602-48,9.602,10.801,8.398,16.801,21.602,16.801,37.199,0,26.398-21.602,48-48,48-14.398,0-27.602-7.199-37.199-16.801-6,14.398-9.602,31.199-9.602,48,0,69.602,56.398,124.8,124.8,124.8,69.602,0,124.8-56.398,124.8-124.8s-54-126-123.6-126h0Z"/>
</svg>