<?xml version="1.0" encoding="UTF-8"?>
<svg id="Layer_1" data-name="Layer 1" xmlns="http://www.w3.org/2000/svg" viewBox="0 0 841.285 1139.282">
  <path d="M145.358,319.682v-.002c-22.801,6-37.199,28.801-31.199,52.801l16.801,64.801c18,71.999,80.398,124.8,154.8,130.8,6,0,13.199,1.199,20.398,1.199l1.199,200.4,4.801,322.8c0,25.199,21.602,46.801,48,46.801h1.199c26.403-1.199,46.801-22.801,46.801-49.199l-4.801-303.6h20.398l90,316.8c6,21.602,25.204,34.801,45.602,34.801,4.801,0,8.398-1.199,13.199-2.398,26.403-7.199,40.801-33.602,33.602-58.801l-90-315.6-1.199-156c15.602,14.398,27.602,33.597,33.602,55.199l27.602,102c6,18,22.801,31.199,42,31.199,3.602,0,7.199,0,10.801-1.199,22.801-6,36-30,30-52.801l-27.602-102c-24-84-98.399-145.199-187.2-150-10.801-1.199-22.801-1.199-33.602-1.199-43.202,0-82.799-2.403-117.6-4.801-37.199-3.602-68.398-30-78-66l-16.801-64.801c-6-22.801-30-37.199-52.801-31.199h0Z"/>
  <path d="M409.358,268.083c53.02,0,96,42.98,96,96s-42.98,96-96,96-96-42.98-96-96,42.98-96,96-96Z"/>
  <path d="M7.358,253.683c-9.601,8.402-9.601,21.602-1.199,30l32.398,33.602c4.801,4.801,9.602,7.199,15.602,7.199,4.796,0,10.796-2.398,14.398-6,9.597-7.199,9.597-21.602,1.199-30l-32.398-33.602c-7.199-9.597-21.602-9.597-30-1.199h0Z"/>
  <path d="M111.757,197.283h0c-12,2.398-19.199,14.398-14.402,26.398l10.801,45.602c2.398,9.602,10.796,16.801,20.398,16.801,1.199,0,3.602-1.199,4.801-1.199,10.801-3.597,18-14.398,15.602-26.398l-10.801-45.602c-3.597-10.801-14.398-18-26.398-15.602h0Z"/>
  <path d="M231.758,271.683l13.199-45.597c3.602-10.796-2.398-22.796-14.398-26.398-10.796-3.602-22.796,2.398-26.398,14.398l-13.199,45.602c-3.602,10.796,2.398,22.796,14.398,26.398,2.398,1.199,3.602,1.199,6,1.199,9.597,0,18-6,20.398-15.602h0Z"/>
  <path d="M829.148,97.088c-3.693-3.693-94.977-97.088-210.006-97.088s-206.312,92.867-210.006,97.088l-12.137,12.664,12.137,12.664c3.693,3.693,94.977,97.088,210.006,97.088s206.312-92.867,210.006-97.088l12.137-12.664-12.137-12.664ZM449.766,109.75c16.357-13.719,45.378-36.408,82.314-52.765-6.331,12.664-10.026,26.91-10.026,41.685,0,29.548,13.719,55.931,35.352,73.344-48.544-15.83-87.59-45.378-107.641-62.263h.001ZM582.735,112.918c-17.413,0-31.132-14.246-31.132-31.132s14.246-31.132,31.132-31.132,31.132,14.246,31.132,31.132-13.719,31.132-31.132,31.132ZM671.38,175.181c23.744-17.413,39.047-44.85,39.047-76.51,0-16.357-4.222-31.132-11.08-44.85,40.101,16.357,72.288,41.158,89.173,55.931-21.108,18.468-64.374,50.655-117.139,65.429h0Z"/>
  <path d="M725.548,226.889c-50.43,0-91.43,41.024-91.43,91.43s41.002,91.43,91.43,91.43,91.43-41.024,91.43-91.43-41.024-91.43-91.43-91.43ZM725.548,401.091c-45.638,0-82.769-37.122-82.769-82.769s37.134-82.769,82.769-82.769,82.769,37.122,82.769,82.769-37.134,82.769-82.769,82.769Z"/>
  <path d="M725.548,211.914c-58.684,0-106.405,47.745-106.405,106.405s47.721,106.405,106.405,106.405,106.405-47.721,106.405-106.405-47.721-106.405-106.405-106.405h0ZM725.548,416.066c-53.901,0-97.745-43.853-97.745-97.745s43.846-97.745,97.745-97.745,97.745,43.846,97.745,97.745-43.846,97.745-97.745,97.745Z"/>
  <path d="M729.878,322.82v-46.821c0-2.391-1.94-4.33-4.33-4.33s-4.33,1.94-4.33,4.33v48.614c0,1.15.462,2.255,1.274,3.056l22.542,22.542c.834.834,1.962,1.274,3.056,1.274s2.221-.428,3.056-1.274c1.703-1.703,1.703-4.443,0-6.123l-21.268-21.267Z"/>
</svg>