<?xml version="1.0" encoding="UTF-8"?>
<svg id="Layer_1" data-name="Layer 1" xmlns="http://www.w3.org/2000/svg" viewBox="0 0 841.285 1139.282">
  <path d="M145.358,319.682v-.002c-22.801,6-37.199,28.801-31.199,52.801l16.801,64.801c18,71.999,80.398,124.8,154.8,130.8,6,0,13.199,1.199,20.398,1.199l1.199,200.4,4.801,322.8c0,25.199,21.602,46.801,48,46.801h1.199c26.403-1.199,46.801-22.801,46.801-49.199l-4.801-303.6h20.398l90,316.8c6,21.602,25.204,34.801,45.602,34.801,4.801,0,8.398-1.199,13.199-2.398,26.403-7.199,40.801-33.602,33.602-58.801l-90-315.6-1.199-156c15.602,14.398,27.602,33.597,33.602,55.199l27.602,102c6,18,22.801,31.199,42,31.199,3.602,0,7.199,0,10.801-1.199,22.801-6,36-30,30-52.801l-27.602-102c-24-84-98.399-145.199-187.2-150-10.801-1.199-22.801-1.199-33.602-1.199-43.202,0-82.799-2.403-117.6-4.801-37.199-3.602-68.398-30-78-66l-16.801-64.801c-6-22.801-30-37.199-52.801-31.199h0Z"/>
  <path d="M409.358,268.083c53.02,0,96,42.98,96,96s-42.98,96-96,96-96-42.98-96-96,42.98-96,96-96Z"/>
  <path d="M7.358,253.683c-9.601,8.402-9.601,21.602-1.199,30l32.398,33.602c4.801,4.801,9.602,7.199,15.602,7.199,4.796,0,10.796-2.398,14.398-6,9.597-7.199,9.597-21.602,1.199-30l-32.398-33.602c-7.199-9.597-21.602-9.597-30-1.199h0Z"/>
  <path d="M111.757,197.283h0c-12,2.398-19.199,14.398-14.402,26.398l10.801,45.602c2.398,9.602,10.796,16.801,20.398,16.801,1.199,0,3.602-1.199,4.801-1.199,10.801-3.597,18-14.398,15.602-26.398l-10.801-45.602c-3.597-10.801-14.398-18-26.398-15.602h0Z"/>
  <path d="M231.758,271.683l13.199-45.597c3.602-10.796-2.398-22.796-14.398-26.398-10.796-3.602-22.796,2.398-26.398,14.398l-13.199,45.602c-3.602,10.796,2.398,22.796,14.398,26.398,2.398,1.199,3.602,1.199,6,1.199,9.597,0,18-6,20.398-15.602h0Z"/>
  <path d="M829.148,97.088c-3.693-3.693-94.977-97.088-210.006-97.088s-206.312,92.867-210.006,97.088l-12.137,12.664,12.137,12.664c3.693,3.693,94.977,97.088,210.006,97.088s206.312-92.867,210.006-97.088l12.137-12.664-12.137-12.664ZM449.766,109.75c16.357-13.719,45.378-36.408,82.314-52.765-6.331,12.664-10.026,26.91-10.026,41.685,0,29.548,13.719,55.931,35.352,73.344-48.544-15.83-87.59-45.378-107.641-62.263h.001ZM582.735,112.918c-17.413,0-31.132-14.246-31.132-31.132s14.246-31.132,31.132-31.132,31.132,14.246,31.132,31.132-13.719,31.132-31.132,31.132ZM671.38,175.181c23.744-17.413,39.047-44.85,39.047-76.51,0-16.357-4.222-31.132-11.08-44.85,40.101,16.357,72.288,41.158,89.173,55.931-21.108,18.468-64.374,50.655-117.139,65.429h0Z"/>
  <path d="M737.187,186.616c-10.881.002-21.373,1.703-31.224,4.838-.606-.254-1.259-.387-1.916-.387h-22.623c-1.314,0-2.573.521-3.502,1.45s-1.452,2.19-1.452,3.504.523,2.573,1.452,3.502c.929.929,2.188,1.452,3.502,1.452h3.329c-9.597,5.692-18.202,12.888-25.467,21.278h-17.31c-2.737,0-4.955,2.217-4.955,4.953-.003,1.316.518,2.578,1.447,3.51.929.931,2.191,1.454,3.507,1.454h9.714c-4.443,6.592-8.134,13.726-10.972,21.278h-52.511c-1.316-.002-2.578.518-3.509,1.447-.933.931-1.455,2.191-1.455,3.507s.523,2.576,1.455,3.506c.931.929,2.193,1.45,3.509,1.449h49.335c-1.806,6.859-2.916,13.998-3.26,21.335-.064-.008-.129-.013-.193-.02h-66.369c-2.725-.005-4.943,2.191-4.964,4.917-.002,1.316.52,2.581,1.452,3.512.931.931,2.194,1.454,3.512,1.45h66.369c.064-.002.129-.005.193-.008.347,7.331,1.462,14.462,3.27,21.315h-19.206c-2.725,0-4.938,2.201-4.955,4.925,0,2.735,2.217,4.955,4.955,4.955h22.371c2.842,7.565,6.539,14.714,10.992,21.317h-44.112c-2.722.021-4.917,2.232-4.917,4.953.016,2.711,2.206,4.905,4.917,4.926h51.681c7.268,8.398,15.874,15.605,25.477,21.305h-34.63c-1.316,0-2.578.524-3.507,1.455-.929.931-1.45,2.193-1.447,3.509,0,1.314.521,2.575,1.45,3.502.929.929,2.19,1.452,3.504,1.452h53.925c.657,0,1.309-.133,1.916-.387,9.854,3.138,20.35,4.838,31.234,4.838,56.829,0,102.992-46.201,102.992-103.022,0-25.342-9.187-48.601-24.393-66.541-.854-.998-2.07-1.616-3.381-1.718-1.309-.102-2.606.321-3.604,1.175-2.067,1.765-2.326,4.864-.582,6.947,13.75,16.227,22.043,37.185,22.043,60.139,0,51.463-41.611,93.103-93.082,93.103-28.761,0-54.441-12.999-71.513-33.45-.003-.003-.008-.007-.01-.01-.182-.269-.39-.518-.62-.746-13.108-16.038-20.968-36.542-20.968-58.897s7.831-42.765,20.889-58.784c.302-.285.564-.608.785-.959,17.072-20.381,42.723-33.324,71.438-33.324,21.058,0,40.433,6.977,56.023,18.742,2.181,1.626,5.266,1.19,6.91-.977.798-1.046,1.147-2.367.97-3.669-.175-1.303-.862-2.483-1.909-3.278-17.241-13.011-38.74-20.725-61.985-20.727h-.014ZM650.121,191.068c-1.314,0-2.575.521-3.504,1.45s-1.45,2.19-1.45,3.504.521,2.573,1.45,3.502c.929.929,2.19,1.452,3.504,1.452h17.803c1.314,0,2.575-.523,3.504-1.452.929-.929,1.45-2.19,1.45-3.502,0-2.737-2.217-4.955-4.955-4.955h-17.803ZM737.195,210.526c-43.629,0-79.111,35.439-79.111,79.065,0,16.04,4.759,31.018,12.985,43.491.723,1.103,1.855,1.872,3.147,2.135,1.29.265,2.634.005,3.733-.723,1.1-.723,1.867-1.854,2.131-3.142.265-1.288.007-2.63-.718-3.728-7.198-10.913-11.361-23.965-11.361-38.035.002-38.268,30.921-69.185,69.193-69.185s69.193,30.916,69.193,69.185-30.921,69.193-69.193,69.193c-18.005,0-34.379-6.85-46.688-18.093-2.019-1.836-5.143-1.693-6.986.32-.892.972-1.36,2.262-1.298,3.581.062,1.318.647,2.558,1.627,3.443,14.06,12.842,32.821,20.658,53.342,20.658,43.629,0,79.073-35.478,79.073-79.103s-35.444-79.052-79.073-79.052l.004-.01ZM607.594,222.254c-2.722.021-4.917,2.232-4.917,4.953-.005,2.725,2.191,4.943,4.917,4.964h21.025c1.318.003,2.581-.52,3.512-1.45.933-.933,1.454-2.196,1.452-3.514,0-1.314-.524-2.576-1.455-3.506-.931-.929-2.193-1.45-3.509-1.447h-21.025ZM737.195,226.307c-1.316-.002-2.578.52-3.509,1.449-.933.929-1.455,2.191-1.455,3.506v47.972c-3.851,1.873-6.55,5.83-6.55,10.355,0,6.295,5.22,11.513,11.515,11.513,4.525,0,8.491-2.698,10.363-6.55h23c1.316,0,2.578-.523,3.507-1.454.929-.931,1.449-2.194,1.447-3.509-.021-2.722-2.234-4.915-4.955-4.917h-22.98c-1.144-2.375-3.091-4.313-5.467-5.458v-47.955c0-2.721-2.194-4.933-4.915-4.955v.003ZM588.203,315.861c-2.729-.005-4.948,2.196-4.964,4.925,0,1.316.523,2.578,1.455,3.507.931.929,2.193,1.449,3.509,1.447h13.788c2.737,0,4.955-2.219,4.955-4.955-.016-2.724-2.229-4.925-4.955-4.925h-13.788Z"/>
</svg>