<?xml version="1.0" encoding="UTF-8"?>
<svg id="Layer_1" data-name="Layer 1" xmlns="http://www.w3.org/2000/svg" viewBox="0 0 843.764 1139.998">
  <path d="M145.358,320.398v-.002c-22.801,6-37.199,28.801-31.199,52.801l16.801,64.801c18,71.999,80.398,124.8,154.8,130.8,6,0,13.199,1.199,20.398,1.199l1.199,200.4,4.801,322.8c0,25.199,21.602,46.801,48,46.801h1.199c26.403-1.199,46.801-22.801,46.801-49.199l-4.801-303.6h20.398l90,316.8c6,21.602,25.204,34.801,45.602,34.801,4.801,0,8.398-1.199,13.199-2.398,26.403-7.199,40.801-33.602,33.602-58.801l-90-315.6-1.199-156c15.602,14.398,27.602,33.597,33.602,55.199l27.602,102c6,18,22.801,31.199,42,31.199,3.602,0,7.199,0,10.801-1.199,22.801-6,36-30,30-52.801l-27.602-102c-24-84-98.399-145.199-187.2-150-10.801-1.199-22.801-1.199-33.602-1.199-43.202,0-82.799-2.403-117.6-4.801-37.199-3.602-68.398-30-78-66l-16.801-64.801c-6-22.801-30-37.199-52.801-31.199h0Z"/>
  <path d="M409.358,268.799c53.02,0,96,42.98,96,96s-42.98,96-96,96-96-42.98-96-96,42.98-96,96-96Z"/>
  <path d="M7.358,254.399c-9.601,8.402-9.601,21.602-1.199,30l32.398,33.602c4.801,4.801,9.602,7.199,15.602,7.199,4.796,0,10.796-2.398,14.398-6,9.597-7.199,9.597-21.602,1.199-30l-32.398-33.602c-7.199-9.597-21.602-9.597-30-1.199h0Z"/>
  <path d="M111.757,197.999h0c-12,2.398-19.199,14.398-14.402,26.398l10.801,45.602c2.398,9.602,10.796,16.801,20.398,16.801,1.199,0,3.602-1.199,4.801-1.199,10.801-3.597,18-14.398,15.602-26.398l-10.801-45.602c-3.597-10.801-14.398-18-26.398-15.602h0Z"/>
  <path d="M231.758,272.399l13.199-45.597c3.602-10.796-2.398-22.796-14.398-26.398-10.796-3.602-22.796,2.398-26.398,14.398l-13.199,45.602c-3.602,10.796,2.398,22.796,14.398,26.398,2.398,1.199,3.602,1.199,6,1.199,9.597,0,18-6,20.398-15.602h0Z"/>
  <path d="M531.362,0c-1.716.02-3.352.724-4.546,1.954-1.196,1.231-1.851,2.887-1.82,4.603v16.41h-23.597c-17.292,0-31.336,14.233-31.336,31.587v198.107c0,17.354,14.044,31.575,31.336,31.575h310.98c17.292,0,31.386-14.221,31.386-31.575V54.555c0-17.354-14.093-31.587-31.386-31.587h-23.596V6.558c.031-1.742-.646-3.422-1.874-4.657-1.227-1.235-2.904-1.921-4.645-1.901-1.716.02-3.353.724-4.548,1.954s-1.851,2.887-1.82,4.603v16.41h-32.205V6.558c.031-1.742-.644-3.422-1.873-4.657-1.228-1.235-2.904-1.921-4.646-1.901-1.716.02-3.352.724-4.548,1.954-1.195,1.231-1.85,2.887-1.82,4.603v16.41h-147.832V6.558c.031-1.742-.644-3.422-1.873-4.657-1.228-1.235-2.905-1.921-4.646-1.901-1.716.02-3.352.724-4.548,1.954-1.195,1.231-1.85,2.887-1.82,4.603v16.41h-32.203V6.558c.03-1.742-.646-3.422-1.874-4.657S533.106-.019,531.363,0h0ZM501.399,35.853h23.596v16.461h.001c.05,2.269,1.289,4.343,3.262,5.463,1.972,1.12,4.389,1.12,6.362,0,1.973-1.121,3.212-3.195,3.263-5.463v-16.461h32.205v16.461h-.001c.051,2.269,1.29,4.343,3.262,5.462,1.973,1.12,4.389,1.12,6.363,0,1.973-1.12,3.212-3.193,3.262-5.462v-16.461h147.832v16.461c.051,2.267,1.29,4.341,3.263,5.461,1.972,1.12,4.388,1.12,6.362,0,1.972-1.12,3.211-3.193,3.262-5.461v-16.461h32.205v16.461c.051,2.267,1.29,4.341,3.262,5.461,1.973,1.12,4.389,1.12,6.362,0,1.973-1.12,3.212-3.193,3.263-5.461v-16.461h23.596c10.315,0,18.499,8.202,18.499,18.7v35.237h-347.939s0-35.236,0-35.236c0-10.499,8.135-18.7,18.45-18.7h.011ZM482.95,102.691h347.939v149.969c0,10.499-8.184,18.688-18.499,18.688h-310.98c-10.315,0-18.45-8.19-18.45-18.688l-.01-149.969Z"/>
  <path d="M561.017,187.02c0,6.904,5.601,12.505,12.505,12.505h136.545l-45.362,45.362c-2.41,2.41-3.68,5.666-3.68,8.825s1.237,6.415,3.68,8.825c4.917,4.917,12.831,4.917,17.682,0l66.692-66.692c1.172-1.172,2.084-2.573,2.735-4.071,0-.098,0-.163.098-.163.586-1.433.912-2.931.912-4.592s-.326-3.159-.912-4.592c0-.098,0-.163-.098-.163-.651-1.596-1.596-2.931-2.735-4.071l-66.692-66.692c-4.917-4.917-12.831-4.917-17.682,0-4.917,4.917-4.917,12.831,0,17.682l45.362,45.362-136.545-.033c-6.904,0-12.505,5.601-12.505,12.505h0Z"/>
</svg>