<?xml version="1.0" encoding="UTF-8"?>
<svg id="Layer_1" data-name="Layer 1" xmlns="http://www.w3.org/2000/svg" viewBox="0 0 1195.305 976.246">
  <defs>
    <style>
      .cls-1 {
        fill: #ff0a0a;
        stroke: #000;
        stroke-miterlimit: 10;
      }
    </style>
  </defs>
  <polygon class="cls-1" points="126.653 708.118 199.656 708.118 262.653 668.118 342.709 671.118 373.653 703.118 486.653 708.118 515.653 736.118 676.653 702.118 711.653 717.118 719.653 759.118 699.992 786.118 398.653 962.118 222.653 913.118 110.653 910.118 101.653 936.118 13.653 942.066 13.653 679.064 87.158 664.118 110.653 679.978 126.653 708.118"/>
  <path d="M893.233,319.828c42.418.008,83.098-16.832,113.09-46.82,30-29.984,46.855-70.66,46.859-113.07.008-42.418-16.84-83.098-46.828-113.09C976.366,16.852,935.686,0,893.274,0c-42.414-.004-83.094,16.848-113.09,46.84-29.988,29.992-46.836,70.672-46.836,113.09.051,42.391,16.91,83.031,46.883,113.01,29.973,29.973,70.609,46.84,113,46.898l.002-.01ZM893.233,32.828c33.711-.008,66.043,13.379,89.883,37.211,23.84,23.832,37.238,56.16,37.242,89.871.004,33.711-13.383,66.043-37.219,89.879-23.832,23.84-56.16,37.234-89.871,37.238-33.711,0-66.043-13.387-89.879-37.223-23.836-23.836-37.23-56.168-37.23-89.879.039-33.691,13.438-65.996,37.258-89.82,23.824-23.828,56.125-37.234,89.816-37.277h0ZM910.288,193.368c0-4.523-1.797-8.859-4.996-12.055s-7.535-4.988-12.059-4.984c-15.82.055-30.727-7.422-40.137-20.145-9.41-12.719-12.203-29.16-7.519-44.273,4.684-15.113,16.281-27.094,31.234-32.266v-9.941c0-5.867,3.133-11.285,8.211-14.219,5.082-2.934,11.34-2.934,16.422,0s8.211,8.352,8.211,14.219v9.941c9.738,3.383,18.188,9.703,24.176,18.094s9.227,18.438,9.262,28.746c0,5.863-3.133,11.285-8.211,14.219-5.082,2.934-11.34,2.934-16.422,0s-8.211-8.355-8.211-14.219c-.004-4.516-1.801-8.848-4.996-12.039-3.195-3.191-7.527-4.98-12.043-4.977-4.516.004-8.848,1.801-12.039,4.996-3.188,3.195-4.981,7.527-4.977,12.043.004,4.516,1.801,8.848,4.996,12.035,3.195,3.191,7.527,4.984,12.043,4.98,15.824-.059,30.73,7.422,40.141,20.141,9.41,12.723,12.203,29.16,7.519,44.277-4.684,15.113-16.285,27.094-31.238,32.262v9.93c0,5.867-3.129,11.289-8.211,14.223-5.082,2.934-11.34,2.934-16.422,0-5.078-2.934-8.211-8.355-8.211-14.223v-9.93c-9.738-3.379-18.184-9.703-24.176-18.094-5.988-8.391-9.223-18.434-9.258-28.742,0-5.867,3.129-11.289,8.211-14.223,5.078-2.934,11.34-2.934,16.422,0,5.078,2.934,8.207,8.355,8.207,14.223,0,6.094,3.25,11.723,8.527,14.77,5.277,3.043,11.777,3.043,17.055,0,5.273-3.047,8.523-8.676,8.523-14.77h-.035ZM1169.648,326.888h-38.777c-6.809.008-13.332,2.715-18.145,7.523-4.812,4.812-7.52,11.34-7.523,18.145v3.473h-43.238c-15.367-18.301-37.844-29.141-61.73-29.773h-.43c-24.102.426-46.832,11.289-62.301,29.773h-57.941c-14.691.047-28.484,7.082-37.148,18.949l-73.934-20.992c-20.539-5.824-46.23-8.918-62.793,19.238l.004-.004c-6.481,11.016-7.492,24.414-2.742,36.277,4.301,10.961,12.191,20.137,22.383,26.035l198.53,116.74c3.945,2.312,8.68,2.875,13.062,1.551l102.04-30.859h67.176l-.004.004c1.426,5.477,4.629,10.328,9.102,13.797,4.473,3.469,9.969,5.359,15.633,5.375h38.777c6.805-.008,13.324-2.719,18.133-7.527,4.809-4.812,7.516-11.336,7.523-18.141v-163.92c-.004-6.805-2.707-13.328-7.52-18.141-4.809-4.812-11.332-7.52-18.137-7.527v.005ZM1036.538,490.128c-1.605-.004-3.207.23-4.75.695l-97.477,29.48-192.34-113.09c-3.742-2.144-6.676-5.461-8.352-9.438-1.211-2.543-1.078-5.527.355-7.957,3.512-5.977,5.836-9.914,25.555-4.309l73.855,20.969c.09.973.379,1.871.52,2.816.215,1.363.43,2.703.746,4.016l-.004.004c.402,1.566.883,3.109,1.441,4.621.453,1.262.898,2.527,1.453,3.715.684,1.449,1.449,2.856,2.285,4.219.668,1.125,1.262,2.25,2.059,3.309.957,1.32,1.981,2.582,3.07,3.793.848.961,1.641,1.945,2.527,2.828,1.207,1.109,2.473,2.152,3.789,3.133.984.77,1.922,1.59,2.969,2.273,1.469.93,2.992,1.773,4.559,2.527,1.047.531,2.047,1.148,3.133,1.606v-.004c1.832.707,3.711,1.289,5.621,1.746.973.266,1.883.645,2.867.848v-.004c2.992.609,6.039.918,9.094.922h135.4c5.867,0,11.289-3.129,14.223-8.211,2.934-5.078,2.934-11.34,0-16.418-2.934-5.082-8.356-8.211-14.223-8.211h-135.35c-3.66.109-7.211-1.266-9.84-3.816s-4.113-6.055-4.113-9.719,1.484-7.172,4.113-9.723c2.629-2.547,6.18-3.926,9.84-3.812h65.688c5.102-.004,9.914-2.379,13.02-6.43,9.461-13.953,24.961-22.609,41.801-23.344,16.539.773,31.734,9.344,40.949,23.102,3.102,4.141,7.969,6.578,13.137,6.582h51.02v101.28h-68.641ZM1162.498,509.288h-24.477v-149.58h24.48l-.003,149.58ZM642.948,687.988l-118.41,33.625c-11.109-18.625-31.176-30.055-52.863-30.113h-92.008c-22.008-27.898-55.332-44.508-90.859-45.281h-.629c-35.215,1.074-68.152,17.648-90,45.281h-78.215v-13.895c-.02-8.074-3.238-15.809-8.953-21.516-5.711-5.707-13.453-8.914-21.527-8.926H30.496c-8.078.008-15.824,3.215-21.539,8.922-5.715,5.707-8.934,13.445-8.957,21.52v249.3c.012,8.086,3.227,15.836,8.945,21.551,5.715,5.719,13.465,8.934,21.551,8.941h58.988c7.832-.027,15.352-3.074,21-8.5,5.645-5.43,8.98-12.828,9.316-20.652h110.7l156.38,47.293c1.539.473,3.141.711,4.75.707,2.926,0,5.801-.777,8.324-2.262l301.89-177.55v.004c13.824-7.981,24.531-20.414,30.379-35.27,6.289-15.617,4.984-33.266-3.539-47.785-17.48-29.887-43.148-37.465-85.742-25.391l.005-.004ZM87.158,924.578h-54.316v-244.6h54.316v244.6ZM701.638,749.468c-3.219,7.871-8.969,14.441-16.348,18.668l-295.75,173.93-151.88-45.93c-1.539-.469-3.141-.707-4.75-.707h-112.94v-171.08h86.109c5.168,0,10.035-2.434,13.137-6.57,15.582-23.176,41.266-37.551,69.168-38.715,28.359.871,54.562,15.336,70.41,38.867,3.109,4.051,7.93,6.422,13.035,6.418h99.789c10.266.215,19.66,5.812,24.73,14.738,5.074,8.926,5.074,19.863,0,28.793-5.07,8.926-14.465,14.523-24.73,14.738h-205.79c-5.867,0-11.289,3.129-14.219,8.211-2.934,5.078-2.934,11.34,0,16.422,2.93,5.078,8.352,8.207,14.219,8.207h205.89c16.406-.031,32.129-6.562,43.73-18.164,11.602-11.602,18.133-27.324,18.164-43.73v-.414l118.36-33.59c33.867-9.586,41.203-2.109,48.57,10.445l-.004.004c3.375,5.965,3.781,13.156,1.102,19.465l-.002-.005ZM147.758,600.788h486.23c4.356,0,8.531-1.731,11.613-4.809,3.078-3.078,4.809-7.258,4.809-11.613V134.596c0-4.355-1.731-8.535-4.809-11.613-3.082-3.078-7.258-4.809-11.613-4.809H147.758c-4.355,0-8.531,1.73-11.613,4.809-3.078,3.078-4.809,7.258-4.809,11.613v449.79c.004,4.352,1.734,8.523,4.812,11.602,3.082,3.078,7.258,4.805,11.609,4.805v-.005ZM473.078,150.998v144.38h-164.41v-144.38h164.41ZM164.158,150.998h111.69l.004,160.79c0,4.355,1.73,8.531,4.809,11.609,3.078,3.082,7.258,4.812,11.609,4.812h197.22c4.355,0,8.531-1.73,11.609-4.812,3.082-3.078,4.812-7.254,4.812-11.609v-160.79h111.7v416.97H164.141l.017-416.97ZM326.288,428.618h-110.21c-4.355,0-8.531,1.731-11.613,4.809-3.078,3.082-4.809,7.258-4.809,11.613v71.191c0,4.356,1.73,8.531,4.809,11.609,3.082,3.082,7.258,4.812,11.613,4.812h110.21c4.355,0,8.531-1.731,11.609-4.812,3.082-3.078,4.812-7.254,4.812-11.609v-71.219c-.008-4.348-1.742-8.519-4.82-11.594s-7.25-4.801-11.602-4.801h0ZM309.866,499.798h-77.395v-38.375h77.406l-.011,38.375Z"/>
</svg>