<?xml version="1.0" encoding="UTF-8"?>
<svg id="Layer_1" data-name="Layer 1" xmlns="http://www.w3.org/2000/svg" viewBox="0 0 1199.967 761.214">
  <path d="M1184.905,356.651L416.705,2.671c-20.082-10.043-42.68,10.043-35.145,30.125l102.93,348.95-102.93,346.45c-5.02,22.594,15.062,40.168,35.145,30.125l768.2-353.98c20.082-10.043,20.082-37.656,0-47.699v.009ZM1061.895,356.651h-532.22l-85.355-286.19,617.575,286.19ZM529.675,406.862h532.22l-617.57,283.68,85.35-283.68Z"/>
  <path d="M343.935,590.121c15.062,0,25.105-12.551,25.105-25.105,0-15.062-10.043-25.105-25.105-25.105H77.825c-12.551,0-25.105,10.043-25.105,25.105,0,12.551,12.551,25.105,25.105,25.105h266.11Z"/>
  <path d="M343.935,223.601c15.062,0,25.105-12.551,25.105-25.105,0-15.062-10.043-25.105-25.105-25.105H77.825c-12.551,0-25.105,10.043-25.105,25.105,0,12.551,12.551,25.105,25.105,25.105h266.11Z"/>
  <path d="M291.215,406.861c12.551,0,25.105-12.551,25.105-25.105,0-15.062-12.551-25.105-25.105-25.105H25.105c-15.062,0-25.105,10.043-25.105,25.105,0,12.551,10.043,25.105,25.105,25.105h266.11Z"/>
</svg>