<?xml version="1.0" encoding="UTF-8"?>
<svg id="Layer_1" data-name="Layer 1" xmlns="http://www.w3.org/2000/svg" viewBox="0 0 436.36 976.782">
  <defs>
    <style>
      .cls-1 {
        fill: #fd8aff;
      }
    </style>
  </defs>
  <path class="cls-1" d="M301.603,175.163c38.812,13.969,66.75,37.875,80.203,88.688,3.562,13.5,46.547,219,53.062,248.58,12.281,56.156-55.031,59.719-63.609,21.609-24.797-110.3-50.016-222.24-53.484-235.78-1.969-7.875-15.141-6.891-12.797,3.234,4.078,17.438,70.922,331.45,70.922,331.45l-75.469-.047s-.188,242.95-.094,304.13c.094,51.984-75.188,53.953-75,.188,0-.938.094-304.92.094-304.92l-16.031.188s.047,303.79.281,305.02c-.562,54.094-77.812,50.812-77.109-1.969.703-51.797.234-302.34.234-302.34l-71.672-.047s68.672-321.84,71.109-332.68c1.406-6.281-11.156-12.188-13.594-.422-1.828,8.906-47.531,210.89-53.578,234.05-11.719,44.953-78.844,32.766-62.531-26.812,6.609-24.094,55.406-236.16,55.406-236.16,13.5-51.094,22.453-72.656,69.328-92.859,45.984-19.734,131.02-18.656,174.32-3.094l.008-.007Z"/>
  <path class="cls-1" d="M286.423,71.953c0,39.703-31.266,71.953-69.844,71.953s-69.797-32.25-69.797-71.953S178.048,0,216.579,0s69.844,32.203,69.844,71.953h0Z"/>
</svg>