<?xml version="1.0" encoding="UTF-8"?>
<svg id="Layer_1" xmlns="http://www.w3.org/2000/svg" version="1.1" viewBox="0 0 1045.2 949.8">
  <!-- Generator: Adobe Illustrator 29.2.1, SVG Export Plug-In . SVG Version: 2.1.0 Build 116)  -->
  <path d="M261.5,11.7c-59.3,24.6-96.8,63.2-103.5,105.1-3.9,22.4-6.1,24-44.7,30.2-30.2,4.5-76.6,31.9-94.5,55.4-8.4,11.2-16.2,29.7-17.9,41.4-2.2,18.5-.6,24.6,14,40.8,15.1,17.3,20.2,19,47,19s36.9-2.2,45.3-4.5l15.7-4.5-4.5,26.9c-8.4,48.1-5,125.3,5.6,145.4,12.9,24,36.4,45.3,54.8,49.2,21.2,4.5,25.7,12.3,28.5,45.3,3.3,36.9,19.5,59.9,58.2,81.1,38.6,22.4,40.3,30.2,27.4,152.7-5.6,52.6-10,108-10.6,123.7l-.6,27.9h99.6l21.2-47.5c23.5-52,25.7-50.9,28.5,14l1.7,33.6h95.1l12.3-58.7c6.7-32.4,12.3-77.7,12.3-101.2.6-47.5,2.2-49.8,38.6-49.8,11.2-.6,30.8-3.9,43.1-8.4,16.8-6.1,22.9-6.1,26.3-1.1,8.4,12.9,5,121.4-5.1,161.7-12.8,52.6-9.5,57,42.5,59.3,21.8,1.1,43.6-.6,48.7-3.3,10.6-6.2,25.2-44.2,39.2-104.1,5.6-23.5,11.7-42.5,13.4-42.5s6.7,28,10.6,62.7c10.6,90.6,9,88.4,55.9,88.4s39.7-.6,47.5-15.7c19-36.9,26.3-142.1,15.1-219.3-4.5-30.2-4.5-30.8,15.1-47,26.3-22.4,45.8-65.5,45.8-102.4s1.7-30.2,16.2-40.3c21.3-15.7,39.8-54.3,39.8-83.9s-9.5-48.1-33.6-78.9c-11.2-14.5-14-22.4-10.6-30.8,14-35.2,0-91.2-29.7-118.6-16.2-15.1-49.8-29.7-68.8-29.7s-20.2-6.7-31.9-20.1c-9.5-10.6-24.6-23.5-33-28-25.7-12.8-69.3-19-98.4-14-22.4,4.5-33.6,2.8-68.8-9-34.7-11.8-48.1-13.5-78.8-10.6-33,2.8-38.1,2.2-47.6-8.4-12.8-14-43-30.2-67.1-35.2-9.5-2.2-23.5-10.1-30.8-17.9C421.5,13.5,391.9,2.8,340.4.6c-40.3-1.7-52.6,0-78.9,11.2h0ZM387.9,48.6c12.3,5.6,28.5,16.8,35.8,24.6,7.3,8.4,26.8,18.5,42.5,23.5,20.1,5.6,35.2,14.5,47,27.9,28,31.9,21.8,57.1-16.8,72.2-25.2,10.1-48.7,7.8-70.5-6.2-11.2-7.8-14-7.3-27.4,3.4-25.7,20.2-77.2,11.2-91.7-16.2-7.3-12.8-20.7-14-35.8-2.8-29.7,22.4-76.1-.6-76.1-37.5,0-67.7,120.3-122.5,193-89h0ZM672.1,155.5c19,10,27.4,11.2,68.2,7.8,41.4-3.4,49.2-2.2,72.7,9,16.2,7.8,30.8,20.7,39.8,34.7,13.4,21.2,15.1,21.8,35.8,18.4,30.2-5,54.3,8.4,67.7,38.1,13.5,29.6,13.5,35.8-.6,62.6-15.1,30.2-14.5,34.1,10.6,50.9,22.4,14.6,39.7,42,39.7,62.7s-11.2,40.8-35.8,58.2l-25.2,17.3,3.3,31.9c2.2,24.6.6,36.9-8.4,57.6-15.1,34.1-33.6,43.1-87.2,43.1h-42.5l-7.8,19c-16.2,39.1-53.2,47-103.5,22.4-28-14-30.8-14.5-47.5-6.7-27.4,13.4-80.6,22.9-103.5,18.5-11.2-1.7-29.7-11.2-40.8-20.2-11.2-9-22.4-16.2-24-16.2s-10.6,5.6-19.6,12.3c-12.3,8.9-24.6,11.7-48.7,11.7-40.8,0-64.4-11.7-83.3-41.4-9-14.5-22.4-25.7-37.5-32.4-27.4-12.3-39.1-24-48.1-50.3-9-27.4-8.4-28.5,13.4-28.5s56-12.3,72.2-26.8c12.8-11.2,87.8-103.5,113.5-139.3,10.1-14,20.7-33,22.9-42l4.5-16.8,16.2,13.5c29.6,24.6,59.9,38,87.3,38s53.1-15.1,60.9-44.8c7.8-29.1-2.2-52.5-38-91.2-22.9-24-28-33.6-30.2-55.9l-3.3-26.3h43.1c32.4,0,48.1,2.8,63.8,11.2h0ZM149,214.8c-16.2,33-42,48.1-77.2,45.8-32.4-2.2-35.2-14-10.1-40.8,12.8-14,30.2-23.5,57.6-33,45.9-15.1,49.8-11.8,29.6,28ZM237.4,221c12.8,1.7,28.5,0,34.7-3.4,8.4-4.5,12.8-4.5,15.7,0,12.3,20.2,84.5,34.7,108.5,21.8,7.8-4.5,15.7-2.8,30.2,6.1,17.3,10.1,19.6,13.4,16.2,29.1-5,28.5-33,77.2-66,114.7-16.8,19.5-38,46.4-47.5,59.9-25.7,36.9-42,47.5-73.8,47.5s-31.9-3.4-43.6-12.8l-15.1-13.5,15.7-5.6c30.2-11.8,25.7-40.8-6.1-40.8s-31.4,12.8-23.5,30.8c5.6,12.3,5.1,14-3.9,14-35.8,0-34.1-116.3,3.3-231,7.3-24,10.1-26.9,20.7-23.5,6.1,2.2,22.4,5.6,34.7,6.7h0ZM563,247.8c31.9,29.1,43.1,52.5,32.4,67.7-5.6,7.3-11.7,9-25.7,5.6-24-4.5-68.2-33-87.2-55.4l-15.1-17.9,19-6.8c10.6-4.5,23-10,27.4-12.8,14.5-8.4,20.2-6.1,49.2,19.6h0ZM881.8,695.3c5.6,4.5,12.3,122.5,9.5,153.8-5.6,55.4-7.8,61.5-22.9,61.5s-16.8-3.4-24.6-83.9c-3.4-32.4-9-71.6-12.3-87.3-8.4-39.7-1.1-53.2,28-48.7,11.2,1.7,21.2,3.9,22.4,4.5h0ZM379,726.1c21.3,5.6,22.9,7.3,22.9,25.7s-17.9,88.4-36.9,130.9c-13.5,29.6-16.8,33.6-30.8,33.6s-16.2-1.7-16.2-3.9,3.9-30.8,7.8-63.2c4.5-32.4,10.1-76.1,11.8-96.8,2.8-29.1,5.6-37.5,11.2-35.2,4.5,1.7,17.9,5.6,30.2,9h0ZM519.4,754c0,10.6-3.9,50.3-9,87.8l-9.5,68.8h-37.5v-38.1c0-20.7-3.9-55.4-8.4-76.6-12.3-59.3-11.8-66.6,10.1-73.3,13.4-3.9,22.4-3.4,35.8,3.4,15.1,7.3,18.4,11.7,18.4,27.9h0ZM749.3,742.9c9,0,16.2,2.8,16.2,6.7s-7.8,42-17.9,83.9l-17.9,77.2h-19c-17.9,0-19-1.1-15.1-15.7,1.7-8.4,5.1-48.1,6.8-89l2.8-73.8,14,5.6c7.3,2.8,21.3,5.1,30.2,5.1h0Z"/>
  <path d="M329.2,281.4c-14.5,17.9,7.3,45.3,26.9,33,19-12.3,12.3-41.4-10.1-41.4s-12.8,3.9-16.8,8.4h0Z"/>
</svg>