<?xml version="1.0" encoding="UTF-8"?>
<svg width="1200pt" height="1200pt" version="1.1" viewBox="0 0 1200 1200" xmlns="http://www.w3.org/2000/svg">
 <path d="m336.37 129.28c-59.297 24.609-96.75 63.188-103.5 105.14-3.8906 22.406-6.1406 24.047-44.719 30.234-30.234 4.4531-76.641 31.875-94.547 55.359-8.3906 11.203-16.219 29.672-17.906 41.391-2.25 18.469-0.5625 24.609 13.969 40.828 15.141 17.344 20.156 19.031 47.016 19.031 16.219 0 36.891-2.25 45.281-4.4531l15.703-4.5-4.5 26.859c-8.3906 48.094-5.0156 125.29 5.5781 145.45 12.891 24.047 36.375 45.281 54.844 49.219 21.234 4.4531 25.734 12.281 28.547 45.281 3.3281 36.938 19.547 59.859 58.172 81.141 38.578 22.359 40.266 30.188 27.375 152.68-5.5781 52.594-10.031 108-10.594 123.66l-0.5625 27.938h99.562l21.234-47.531c23.484-52.031 25.734-50.906 28.547 13.969l1.6875 33.562h95.062l12.328-58.734c6.7031-32.438 12.281-77.719 12.281-101.25 0.5625-47.531 2.25-49.781 38.625-49.781 11.156-0.5625 30.75-3.8906 43.078-8.3906 16.781-6.1406 22.922-6.1406 26.297-1.125 8.3906 12.891 5.0156 121.4-5.0625 161.68-12.844 52.594-9.5156 57.047 42.516 59.297 21.797 1.125 43.641-0.5625 48.656-3.3281 10.641-6.1875 25.172-44.203 39.188-104.06 5.5781-23.484 11.719-42.516 13.406-42.516 2.25 0 6.7031 27.984 10.641 62.672 10.594 90.609 8.9531 88.359 55.922 88.359 37.5 0 39.703-0.5625 47.531-15.656 19.031-36.938 26.297-142.08 15.141-219.28-4.5-30.188-4.5-30.75 15.094-46.969 26.297-22.406 45.844-65.484 45.844-102.38 0-25.734 1.6875-30.234 16.219-40.266 21.281-15.703 39.75-54.281 39.75-83.906 0-25.172-9.5156-48.141-33.562-78.891-11.203-14.531-14.016-22.359-10.641-30.75 13.969-35.25 0-91.172-29.672-118.59-16.219-15.094-49.781-29.672-68.766-29.672-9.5156 0-20.156-6.7031-31.922-20.109-9.4688-10.641-24.609-23.484-33-27.984-25.734-12.844-69.328-19.031-98.438-13.969-22.359 4.4531-33.562 2.7656-68.812-8.9531-34.688-11.766-48.094-13.453-78.844-10.641-33 2.8125-38.062 2.25-47.578-8.3906-12.844-13.969-43.031-30.188-67.125-35.25-9.4688-2.2031-23.484-10.078-30.75-17.906-24.609-26.812-54.234-37.453-105.7-39.703-40.312-1.6875-52.594 0-78.891 11.203zm126.42 36.891c12.328 5.625 28.547 16.781 35.812 24.609 7.2656 8.3906 26.812 18.469 42.516 23.531 20.109 5.5781 35.203 14.531 46.969 27.938 27.984 31.922 21.797 57.094-16.781 72.188-25.172 10.078-48.656 7.8281-70.5-6.1875-11.156-7.8281-13.969-7.2656-27.375 3.375-25.734 20.156-77.203 11.203-91.734-16.219-7.2656-12.844-20.719-13.969-35.812-2.8125-29.672 22.406-76.078-0.5625-76.078-37.453 0-67.688 120.28-122.53 192.98-88.969zm284.16 106.88c19.031 10.031 27.422 11.156 68.25 7.8281 41.391-3.375 49.219-2.25 72.703 8.9531 16.219 7.8281 30.797 20.672 39.75 34.688 13.406 21.234 15.094 21.797 35.766 18.422 30.234-5.0156 54.281 8.3906 67.688 38.062 13.453 29.625 13.453 35.812-0.5625 62.625-15.094 30.234-14.531 34.125 10.641 50.906 22.359 14.578 39.703 41.953 39.703 62.672 0 22.359-11.156 40.828-35.766 58.172l-25.172 17.344 3.3281 31.875c2.25 24.609 0.5625 36.938-8.3906 57.609-15.094 34.125-33.562 43.078-87.234 43.078h-42.516l-7.8281 19.031c-16.219 39.141-53.156 46.969-103.5 22.359-27.984-13.969-30.75-14.531-47.531-6.7031-27.422 13.406-80.578 22.922-103.5 18.469-11.203-1.6875-29.672-11.203-40.828-20.156-11.203-8.9531-22.406-16.219-24.047-16.219-1.6875 0-10.641 5.5781-19.594 12.328-12.328 8.9062-24.609 11.719-48.656 11.719-40.828 0-64.359-11.719-83.344-41.391-8.9531-14.531-22.406-25.734-37.5-32.438-27.422-12.328-39.141-24.047-48.094-50.344-8.9531-27.422-8.3906-28.547 13.406-28.547 22.406 0 55.969-12.281 72.188-26.812 12.844-11.203 87.797-103.5 113.53-139.31 10.078-13.969 20.719-33 22.922-41.953l4.5-16.781 16.219 13.453c29.625 24.609 59.859 38.016 87.281 38.016 32.438 0 53.109-15.094 60.938-44.766 7.8281-29.062-2.2031-52.547-38.016-91.172-22.922-24.047-27.984-33.562-30.234-55.922l-3.3281-26.297h43.078c32.438 0 48.094 2.8125 63.75 11.203zm-523.03 59.297c-16.219 33-41.953 48.094-77.156 45.844-32.438-2.25-35.25-13.969-10.078-40.828 12.844-13.969 30.188-23.484 57.609-33 45.891-15.094 49.781-11.766 29.625 27.984zm88.406 6.1406c12.844 1.6875 28.547 0 34.688-3.375 8.3906-4.4531 12.844-4.4531 15.656 0 12.281 20.156 84.469 34.688 108.52 21.844 7.8281-4.5 15.656-2.8125 30.188 6.1406 17.344 10.078 19.594 13.406 16.219 29.062-5.0156 28.547-33 77.203-66 114.7-16.781 19.547-38.016 46.406-47.531 59.859-25.734 36.891-41.953 47.531-73.828 47.531-21.281 0-31.875-3.375-43.641-12.844l-15.094-13.453 15.656-5.5781c30.188-11.766 25.734-40.828-6.1406-40.828-21.844 0-31.359 12.844-23.531 30.75 5.625 12.328 5.0625 13.969-3.8906 13.969-35.812 0-34.125-116.34 3.3281-231 7.3125-24.047 10.078-26.859 20.719-23.484 6.1406 2.2031 22.359 5.5781 34.688 6.7031zm325.55 26.859c31.875 29.062 43.078 52.547 32.438 67.688-5.5781 7.2656-11.719 8.9531-25.734 5.5781-24.047-4.5-68.25-33-87.234-55.359l-15.094-17.906 18.984-6.75c10.641-4.4531 22.969-10.031 27.422-12.844 14.531-8.3906 20.156-6.1406 49.219 19.594zm318.84 447.47c5.5781 4.5 12.328 122.53 9.5156 153.84-5.5781 55.359-7.8281 61.547-22.922 61.547-15.656 0-16.781-3.375-24.609-83.906-3.375-32.438-8.9531-71.625-12.328-87.281-8.3906-39.703-1.125-53.156 27.984-48.656 11.156 1.6875 21.234 3.8906 22.359 4.4531zm-502.87 30.797c21.281 5.5781 22.922 7.2656 22.922 25.734 0 25.172-17.906 88.359-36.891 130.87-13.453 29.625-16.781 33.562-30.797 33.562-8.9531 0-16.219-1.6875-16.219-3.9375 0-2.2031 3.9375-30.75 7.8281-63.188 4.5-32.438 10.078-76.078 11.766-96.75 2.8125-29.109 5.5781-37.5 11.203-35.25 4.4531 1.6875 17.906 5.5781 30.188 8.9531zm140.39 27.938c0 10.641-3.8906 50.344-8.9531 87.844l-9.4688 68.812h-37.5v-38.062c0-20.672-3.9375-55.359-8.3906-76.641-12.328-59.297-11.766-66.562 10.078-73.266 13.406-3.8906 22.359-3.375 35.812 3.375 15.094 7.2656 18.422 11.719 18.422 27.938zm229.92-11.156c8.9531 0 16.219 2.7656 16.219 6.7031 0 3.8906-7.8281 41.953-17.906 83.906l-17.906 77.203h-18.984c-17.906 0-19.031-1.125-15.141-15.656 1.6875-8.3906 5.0625-48.141 6.75-88.969l2.7656-73.828 13.969 5.5781c7.3125 2.8125 21.281 5.0625 30.234 5.0625z"/>
 <path d="m404.06 398.9c-14.531 17.906 7.2656 45.281 26.859 33 19.031-12.328 12.281-41.391-10.078-41.391-5.5781 0-12.844 3.8906-16.781 8.3906z"/>
</svg>
