<?xml version="1.0" encoding="UTF-8"?>
<svg id="Layer_1" xmlns="http://www.w3.org/2000/svg" version="1.1" viewBox="0 0 1001.3 1068.7">
  <!-- Generator: Adobe Illustrator 29.2.1, SVG Export Plug-In . SVG Version: 2.1.0 Build 116)  -->
  <path d="M1001,520.7c-47.5-291.8-146.5-342.1-162.3-348.4l-181.3-86.8c-.5-10.5.2-10.8-3.7-17.9l-33.8-49.4C611.7,8.4,605.8,1.5,502.7,0c-95.5-.3-117.7,9.8-121.4,18.3l-33.8,49.4c-3.8,7.2-3.1,7.4-3.7,17.9l-181.3,86.8c-15.8,6.2-114.8,56.5-162.3,348.4-5.9,19.9,50,58,175,78.2,8.2,1.3,16.4-3.1,19.8-10.7l28.4-62.2c.5,7.2,1,14.4,1.3,21.6,6.9,169.1-19.8,463.4-20.1,466.3-.9,9.4,5.4,18,14.6,20,6.4,1.4,157.6,34.7,281.3,34.7s274.9-33.3,281.3-34.7c9.2-2.1,15.5-10.6,14.6-20,0-1.7-30-327.2-18.8-487.9l28.4,62.2c3.5,7.6,11.7,12,19.8,10.7,123.5-18.5,165.4-57.6,169.8-62,4.2-4.3,6.2-10.3,5.2-16.2h0ZM608.2,67.5l11.7,17.1c.4,10.7,0,40.5-13.5,74.9-14-10.7-35.1-24.9-62.3-37.5,23.8-15.8,48.7-35,64.1-54.4h0ZM498.7,37.5c39.4-.4,72,2.2,82.9,4.1-12,15.5-45,41.5-80.9,63.2-36.4-22-69.8-48.4-81.4-63.1,12.4-2,36.1-4.2,79.4-4.2h0ZM381.5,84.6l11.7-17c15.4,19.4,40.3,38.6,64.1,54.4-27.2,12.7-48.3,26.8-62.3,37.5-13.4-34.2-13.8-64.1-13.4-74.9h0ZM167,559.7c-75.4-13-113.4-34-127.8-43.8,34-198.8,92.5-272.2,120.9-297,13.3,41.2,40.9,133.7,55.6,234.3l-48.7,106.5h0ZM243.6,1000.8c5.6-65.2,24.8-306.5,18.8-454.6-6-146.2-53-298.2-69.2-346.8l153.7-73.6c3.4,14.3,19.2,106,54.6,77.2.3-.3,28.9-28.5,78.4-50l1.9,878.1c-92.6-2.5-198.6-22.2-238.3-30.2h0ZM519.4,1031l-1.9-879.7c51.6,21.6,82,51.3,82.4,51.6,35.4,28.6,51-62.1,54.6-77.2l153.7,73.6c-16.2,48.6-63.2,200.6-69.2,346.9-6,148.1,13.2,389.4,18.8,454.6-39.7,8-145.6,27.8-238.4,30.2h0ZM834.4,559.7l-48.7-106.5c14.8-100.6,42.3-193,55.6-234.3,28.5,25,87,98.5,120.9,296.9-14.5,9.9-52.5,30.8-127.8,43.8h0Z"/>
  <path d="M674,320.2h-94.6c-10.4,0-18.8,8.4-18.8,18.8v94.6c0,7.5,4.5,14.3,11.4,17.3l47.3,20c4.7,2,9.9,2,14.6,0l47.3-20c6.9-2.9,11.4-9.8,11.4-17.2v-94.6c0-10.4-8.4-18.8-18.8-18.8h0ZM655.2,421.1l-28.5,12-28.5-12.1v-63.4h57.1v63.5Z"/>
  <path d="M426.1,320.2h-94.6c-10.4,0-18.8,8.4-18.8,18.8v94.6c0,7.5,4.5,14.3,11.4,17.3l47.3,20c4.7,2,9.9,2,14.6,0l47.3-20c6.9-2.9,11.4-9.8,11.4-17.2v-94.6c0-10.4-8.4-18.8-18.8-18.8h0ZM407.3,421.1l-28.5,12-28.5-12v-63.4h57.1v63.4Z"/>
</svg>