<?xml version="1.0" encoding="UTF-8"?>
<svg id="Layer_1" xmlns="http://www.w3.org/2000/svg" version="1.1" viewBox="0 0 975.1 504.2">
  <!-- Generator: Adobe Illustrator 29.2.1, SVG Export Plug-In . SVG Version: 2.1.0 Build 116)  -->
  <path d="M975.1,362.8c0-69.1-12.8-79.4-67.2-93.4-27.1-7-68.2-17.5-129.8-47.3l-183.4-86c-16.1-7.6-30.3-18.4-42-32.2-11.3-13.6-19.8-30-24.4-47.1C519.6,23.4,489.1,0,454.4,0h-18.5c-10.8,0-21,4.2-28.6,11.9-7.6,7.6-11.9,17.8-11.9,28.6s-3.8,28.1-11.2,40.3c-7.3,12.3-17.7,22.3-30.1,28.9-26.8,14.4-57.1,22-87.8,22h-39.4c-9.6,0-18.7-2.9-26.2-8.1-7.9-5.7-13.7-13.4-16.9-22.2-7.2-20.1-26.4-33.5-47.9-33.5h-21.4c-5.2,0-10.1,1-14.9,2.5v-20.7C99.6,22.4,77.2,0,49.8,0S23,5.7,13.6,15.6C4.2,25.5-.7,39,0,52.6c2.3,40.5,26,77,61.4,96-1.8,9-4.5,17.9-8.5,26.2-2.7,5.6-5.8,10.9-9.2,15.7-.1.1-.2.3-.4.5-17.8,24.7-27.2,53.8-27.2,84.3v32.4c0,20-2.9,39.5-8.7,58.1-2.5,8.3-3.9,16.6-4,24.9,0,.3,0,.7,0,1-.1,6.2.4,12.6,1.5,18.9.3,1.8.7,3.7,1,4.9l8.1,33.1c8,32.8,37.2,55.6,70.8,55.6h665.8c132,0,224.2-58.1,224.2-141.2s0-.2,0-.4h.2ZM100.1,128.2v-9.5c0-7.9,6.5-14.3,14.4-14.3h21.4c6.2,0,11.6,3.7,13.7,9.5,5.7,15.7,16,29.3,30.1,39.5,13.9,9.7,30.2,14.8,47.2,14.8h39.4c36.7,0,73-9.1,104.9-26.3,18.3-9.7,33.7-24.4,44.2-42.3,10.7-17.7,16.3-38.1,16.3-58.9s.4-2.1,1.2-3c.5-.5,1.5-1.2,3-1.2h18.5c18.2,0,34.2,12.2,38.9,29.8,1.5,5.4,3.2,10.8,5.2,16l-32.8,35.7c-6.8,7.4-6.3,18.9,1.1,25.7,3.5,3.2,7.9,4.8,12.3,4.8s9.8-2,13.4-5.9l24.2-26.3c2.7,3.8,5.3,7.6,8.3,11.2,10.2,12,21.8,22,34.6,30.4l-16.2,18.1c-6.7,7.5-6,19,1.5,25.7,3.5,3.1,7.8,4.6,12.1,4.6s10-2.1,13.5-6l22.2-24.8,49.3,23.1-13.7,15.2c-6.7,7.5-6.1,18.9,1.3,25.7,3.5,3.1,7.8,4.7,12.2,4.7s9.9-2,13.5-6l21.1-23.4,86.1,40.4c64.6,31.3,107.8,42.4,136.4,49.7,36,9.2,39.5,10.3,39.8,46.1-16.6,6.3-34.3,11.5-52.9,15.3-21.9,4.5-44.3,6.7-66.6,6.7H291.4c-25.4-98.1-100.6-175.2-197.8-202.9,3-9.8,4.9-19.7,5.8-29.8,0-.8.3-1.5.3-2.3v-2.7c.1-2.3.4-4.7.4-7h0ZM36.5,50.6c-.2-3.7,1.1-7.3,3.7-10s6-4.2,9.8-4.2c7.4,0,13.4,6,13.4,13.4v56c-15.6-13.9-25.5-33.8-26.8-55.3h0ZM52.6,307.7v-32.4c0-22.7,7-44.5,20.2-62.9.1-.2.3-.4.5-.7,1.8-2.6,3.6-5.3,5.2-8.1,84.1,22.1,150.3,86.2,175.1,169.2H43.3c6.1-21,9.3-42.8,9.3-65.2h0ZM750.9,468H85.1c-16.9,0-31.5-11.5-35.5-27.9l-7.5-30.9h777.1c24.7,0,49.5-2.5,73.9-7.5,13.7-2.9,27-6.3,39.9-10.4-19.9,46.3-89.2,76.6-182.1,76.6h0Z"/>
</svg>