<?xml version="1.0" encoding="UTF-8"?>
<svg id="Layer_1" data-name="Layer 1" xmlns="http://www.w3.org/2000/svg" viewBox="0 0 1049.74 1066.655">
  <path d="M1034.338,927.098c-27.609-34.688-70.453-94.781-79.312-119.62-10.219-28.688-15.609-83.859-17.297-123.24,21.844-21.703,34.922-52.078,33.703-84.844l-8.297-234.94c-1.312-37.688-21.141-71.391-51.609-91.312C1018.917,180.001,951.371-.698,808.687.002c-175.22,3.234-215.16,241.92-52.312,302.86-14.297,20.156-21.844,44.625-21,69.703l4.078,113.53-34.688-4.781c-28.547-4.453-55.547,10.547-68.391,35.391h-56.156c-8.156,0-15.375,5.531-17.391,13.453l-21.469,81.938h-24.938c6.375-12.469,24.938-48.609,31.078-60.375,2.391-4.547,2.625-9.938.703-14.766l-34.781-88.922,8.156-15.844c4.547-8.859,1.078-19.688-7.781-24.234s-19.688-1.078-24.234,7.781l-8.156,15.844-92.625,23.297c-5.062,1.219-9.234,4.547-11.625,9.234l-64.688,125.53c-1.312-36.375-6.703-72.703-16.781-108.14v-45.938c.375-11.859-12.375-21.141-23.531-17.156l-16.781,5.391-18.375-5.531c-7.078-3-22.078,4.078-28.922,5.625l-18.469-5.625c-7.078-3-22.078,4.078-28.922,5.625l-18.469-5.625c-7.078-3-22.078,4.078-28.922,5.625l-18.469-5.625c-11.156-3.703-23.531,5.531-23.156,17.297v45.938c-12.141,42.844-17.766,86.766-17.156,130.69H18.045c-11.391-.234-20.625,11.531-17.391,22.547l55.219,211.31c2.062,7.922,9.234,13.453,17.391,13.453h242.63l-181.92,91.922c-40.312-34.688-107.16-3.469-105.94,50.297,0,35.766,29.156,64.922,64.922,64.922,43.453.844,75.938-44.391,61.688-85.312l228.94-115.69,45.469,89.297c-41.859,38.859-12.844,112.45,45,111.7,94.781-4.922,80.531-143.06-13.219-128.53l-39.938-78.609h79.781c8.156,0,15.375-5.531,17.391-13.453,18.469-71.062,58.312-223.22,76.688-293.29h34.922c1.922,29.625,26.062,54.938,55.688,59.062,14.062,1.922,46.781,6.703,60.469,7.781,2.391,16.781,8.297,32.625,17.766,46.922-13.781,35.859-31.547,81.938-43.453,113.06-26.297,68.766-8.297,191.39-2.062,227.29,5.531,31.781,32.766,54.844,65.062,54.844,40.312.375,72.375-37.312,65.156-77.156-6.375-37.078-10.312-82.547-9.844-116.53,23.859,51.938,76.547,120,93.609,141.37,12.609,15.844,31.453,24.938,51.703,24.938,53.625,1.453,86.391-65.859,51.609-107.06l-1.042-.179ZM92.098,1030.548c-38.156-.938-38.156-56.859,0-57.844,38.156.938,38.156,56.859,0,57.844ZM502.118,1001.626c-.938,38.156-56.859,38.156-57.844,0,.938-38.156,56.859-38.156,57.844,0ZM531.649,648.096l-18.234,69.609h-74.531l15.234-69.609h77.531ZM228.649,589.174c-4.078,8.156-10.922,16.078-19.453,22.922h-76.547c-2.156-31.688,71.859-78.234,97.922-46.453,4.547,7.922.703,18.141-1.922,23.531h0ZM160.352,648.096h110.53v69.609h-95.156l-15.234-69.609h-.14ZM306.882,648.096h110.53l-15.234,69.609h-95.156v-69.609h-.14ZM482.432,468.196l25.688,65.531-93.938-48.375,68.297-17.156h-.047ZM391.494,514.18l106.45,54.844-22.219,43.078h-134.63l50.399-97.922ZM106.964,459.571c7.312,3.375,22.312-3.844,29.531-5.391l18.469,5.625c7.078,3,22.078-4.078,28.922-5.625l18.469,5.625c7.078,3,22.078-4.078,28.922-5.625,6.375,1.453,21.375,8.156,27.938,5.859v5.531H106.825v-5.859l.139-.141ZM102.746,501.571h160.92c9.234,36.234,13.453,73.453,12.844,110.53h-19.781c13.547-19.781,15.844-46.453,5.062-64.453-39-65.297-166.31-6.609-165.37,64.453h-6.609c-.609-37.078,3.609-74.297,12.844-110.53h.09ZM123.512,648.101l15.234,69.609H58.684l-18.234-69.609h83.062ZM86.434,823.321l-18.234-69.609h78.469l15.234,69.609h-75.609.14ZM183.512,753.712h87.234v69.609h-72l-15.234-69.609ZM306.882,823.321v-69.609h87.234l-15.234,69.609h-72ZM485.902,823.321h-70.219l15.234-69.609h73.078l-18.234,69.609h.141ZM728.662,581.501l-38.859-5.391c-8.391-1.312-15.609-5.766-20.391-12.469-15.234-20.531,5.391-51.375,29.766-46.688,45.375,6.375,96,13.547,139.55,8.859,19.781-1.547,31.219-19.922,27.234-39-6.375-35.062-16.781-61.922-35.062-102.47-4.219-9-14.859-12.938-23.859-8.766-9,4.219-12.938,14.859-8.766,23.859,16.453,36.469,25.781,60.609,31.781,91.219-16.312,1.312-35.391.703-54.609-.938l-4.219-118.31c-.844-24.844,10.547-48.938,30.469-64.312,12.609-9.141,6.703-30.609-8.766-32.062-147.37-23.859-133.69-234.37,15.609-238.78,66.141,0,120,53.859,120,120,0,43.312-23.531,83.531-61.453,104.77-13.781,7.078-11.297,29.156,3.703,33,31.922,9.375,54.141,37.453,56.062,70.312-6.141-14.391-12.938-37.453-32.766-28.922-9,4.078-12.938,14.766-8.859,23.859,17.391,38.062,40.781,94.453,42,143.06,0,6-.844,12-1.219,18-3.469,34.688-28.547,57.375-63.141,62.625-43.781,8.297-87.703,3.844-134.29-1.219l.084-.238ZM808.818,813.721c-15.469,40.453-3.141,141.37,2.859,176.76,2.766,16.312-8.156,31.781-24.469,34.688-16.547,2.766-31.922-8.391-34.688-24.469-11.391-66.141-18.141-160.45.234-208.31,12.938-33.703,32.766-85.312,47.062-122.16,2.297-6,1.219-12.844-2.766-17.766-7.219-8.859-12.141-19.078-14.859-29.859,30.375,1.453,59.391,1.688,88.781-4.547,24.844-5.062,47.062-14.766,64.078-32.625,6.234,45-18.703,87.703-65.156,95.297-6.375.938-11.625,5.297-13.922,11.297-14.156,36.844-33.938,88.312-46.922,122.06l-.233-.366ZM1001.338,991.661c-12.609,9.938-32.156,7.688-42.141-4.781-48.375-63.609-94.781-121.92-105.61-189.37,10.312-26.859,22.312-57.938,32.156-83.766,6-1.547,11.766-3.609,17.297-6,2.391,34.547,7.312,81.469,18,111.7,12.141,34.219,65.531,105.47,84.938,129.94,10.312,12.938,8.156,31.781-4.781,42.141l.141.136Z"/>
</svg>