<?xml version="1.0" encoding="UTF-8"?>
<svg id="Layer_1" data-name="Layer 1" xmlns="http://www.w3.org/2000/svg" viewBox="0 0 1260.022 1089.46">
  <defs>
    <style>
      .cls-1 {
        fill: #f40000;
        fill-rule: evenodd;
      }
    </style>
  </defs>
  <path d="M400.26,354.03c-94.824,0-171.98-79.414-171.98-177.02S305.44,0,400.26,0s171.98,79.414,171.98,177.01-77.16,177.02-171.98,177.02ZM400.26,47.99c-68.363,0-123.98,57.875-123.98,129.01s55.621,129.02,123.98,129.02,123.98-57.875,123.98-129.02-55.621-129.01-123.98-129.01Z"/>
  <path d="M545.31,1087.048h-286.3c-13.246,0-24-10.754-24-24v-295.31h-75.348c-12.562,0-23.004-9.695-23.941-22.223-1.57-21.312-14.34-210.36,24.938-281.87,44.16-80.305,130.6-124.52,243.38-124.52,141.43,0,208.37,67.715,239.63,124.51,39.312,71.594,25.211,260.71,23.461,282.04-1.008,12.457-11.41,22.055-23.914,22.055h-73.895v295.3c-.016,13.27-10.754,24.023-24.016,24.023l.005-.005ZM283.01,1039.048h238.3v-295.31c0-13.246,10.754-24,24-24h75.469c3.707-65.184,5.137-188.7-19.176-232.98-35.855-65.184-104.18-99.637-197.57-99.637-94.488,0-165.98,35.387-201.31,99.648-24.336,44.281-23.723,167.71-20.484,232.97h76.766c13.246,0,24,10.754,24,24l-.004,295.31h.009Z"/>
  <path d="M24,1077.96c-13.246,0-24-10.754-24-24V42.06c0-13.246,10.754-24,24-24s24,10.754,24,24v1011.9c0,13.25-10.75,23.988-24,23.988v.012Z"/>
  <path d="M167.64,117.16H30.37c-13.246,0-24-10.754-24-24s10.754-24,24-24h137.26c13.246,0,24,10.754,24,24s-10.742,24-23.988,24h-.002Z"/>
  <path d="M167.64,286.35H30.37c-13.246,0-24-10.754-24-24s10.754-24,24-24h137.26c13.246,0,24,10.754,24,24s-10.742,24-23.988,24h-.002Z"/>
  <path d="M167.64,449.14H30.37c-13.246,0-24-10.754-24-24s10.754-24,24-24h137.26c13.246,0,24,10.754,24,24s-10.742,24-23.988,24h-.002Z"/>
  <path d="M132.53,631.11H39.952c-13.246,0-24-10.754-24-24s10.754-24,24-24h92.578c13.246,0,24,10.754,24,24s-10.75,24-24,24Z"/>
  <path d="M177.23,822.62H39.95c-13.246,0-24-10.754-24-24s10.754-24,24-24h137.28c13.246,0,24,10.754,24,24s-10.762,24-24,24Z"/>
  <path d="M177.23,985.46H39.95c-13.246,0-24-10.754-24-24s10.754-24,24-24h137.28c13.246,0,24,10.754,24,24s-10.762,24-24,24Z"/>
  <path d="M1073.72,728.34c-70.487,0-127.837-55.6-127.837-123.927s57.343-123.845,127.837-123.845,127.844,55.557,127.844,123.845-57.351,123.927-127.844,123.927ZM1073.72,513.452c-51.218,0-92.899,40.801-92.899,90.96s41.674,91.042,92.899,91.042,92.906-40.843,92.906-91.042-41.68-90.96-92.906-90.96h0Z"/>
  <path d="M1173.003,1089.457h-195.988c-9.641,0-17.469-8.293-17.469-18.507v-107.247h-50.531c-8.684,0-16.053-6.765-17.284-15.88-.455-3.331-10.745-82.224,17.031-135.809,30.448-58.62,89.965-90.883,167.571-90.883,97.324,0,143.413,49.424,164.937,90.876,27.898,53.707,16.55,132.74,16.053,136.071-1.336,9.004-8.655,15.621-17.259,15.621h-49.587l.003,107.254c-.009,10.223-7.828,18.507-17.478,18.507v-.003ZM994.484,1052.443h161.05v-107.247c0-10.214,7.828-18.507,17.469-18.507h51.332c1.589-23.04,1.99-66.671-13.679-96.844-24.361-46.905-70.803-71.704-134.329-71.704-64.286,0-112.93,25.465-136.964,71.714-14.708,28.381-15.914,70.99-14.481,96.837h52.137c9.641,0,17.469,8.293,17.469,18.507l-.003,107.245Z"/>
  <path d="M724.615,1089.46c-13.246,0-24-10.754-24-24V42.06c0-13.246,10.754-24,24-24s24,10.754,24,24v1023.4c0,13.262-10.738,24-24,24Z"/>
  <path d="M869.895,117.77h-138.85c-13.246,0-24-10.754-24-24s10.754-24,24-24h138.84c13.262,0,24,10.754,24,24s-10.73,24-23.988,24h-.002Z"/>
  <path d="M869.895,288.85h-138.85c-13.246,0-24-10.754-24-24s10.754-24,24-24h138.84c13.262,0,24,10.754,24,24s-10.73,24-23.988,24h-.002Z"/>
  <path d="M869.895,453.52h-138.85c-13.246,0-24-10.754-24-24s10.754-24,24-24h138.84c13.262,0,24,10.754,24,24s-10.73,24-23.988,24h-.002Z"/>
  <path d="M876.345,637.54h-135.59c-13.262,0-24-10.754-24-24s10.738-24,24-24h135.59c13.246,0,24,10.754,24,24s-10.754,24-24,24Z"/>
  <path d="M840.835,831.23h-100.08c-13.262,0-24-10.754-24-24s10.738-24,24-24h100.08c13.246,0,24,10.754,24,24s-10.754,24-24,24h0Z"/>
  <path d="M879.585,995.86h-138.83c-13.262,0-24-10.754-24-24s10.738-24,24-24h138.83c13.246,0,24,10.754,24,24s-10.738,24-24,24h0Z"/>
  <path class="cls-1" d="M1095.304,347.834l42.692-42.692c2.211-2.211,5.797-2.211,8.008,0l21.071,21.071c2.211,2.211,2.211,5.797,0,8.008l-88.324,88.324c-2.211,2.211-5.797,2.211-8.008,0l-88.324-88.324c-2.211-2.211-2.211-5.797,0-8.008l21.071-21.071c2.211-2.211,5.797-2.211,8.008,0l42.692,42.692v-154.335c0-3.134,2.538-5.662,5.662-5.662h29.789c3.124,0,5.662,2.528,5.662,5.662v154.335Z"/>
</svg>