<?xml version="1.0" encoding="UTF-8"?>
<svg width="1200pt" height="1200pt" version="1.1" viewBox="0 0 1200 1200" xmlns="http://www.w3.org/2000/svg">
 <path d="m945.84 174.19v71.203h-691.74v-71.203zm-615.61 127.97c-3.7969 46.031-15.797 80.25-47.625 100.69-21.703 13.875-53.578 22.594-92.953 27.844l58.406-128.63zm680.16 128.63-0.09375-0.046874c-39.375-5.2969-71.25-14.016-92.953-27.891-31.828-20.438-43.828-54.703-47.625-100.78h82.172zm-438.74 29.906c0 15.609 12.703 28.312 28.359 28.312 15.609 0 28.312-12.703 28.312-28.359v-158.58l184.03 0.046876c4.3594 57.797 20.906 114.52 74.25 148.74 33.516 21.469 80.344 32.672 132.74 38.391l8.9531 498.71-307.92 35.016-92.578-471.71c-2.6719-13.5-14.531-22.875-27.797-22.875h-0.09375c-13.266-0.046875-25.078 9.375-27.703 22.875l-92.578 471.66-307.92-34.969 8.9062-498.71c52.406-5.7188 99.234-16.922 132.74-38.391 53.344-34.219 69.891-90.844 74.25-148.64l184.03-0.14063zm-345.74-343.18h-0.09375c-7.5469 0-14.719 2.9531-20.062 8.2969-5.2969 5.2969-8.2969 12.516-8.2969 20.016v127.87c0 0.89062 0.046875 1.7812 0.14062 2.6719l-70.266 154.55c-1.5938 3.5156-2.4844 7.3125-2.5312 11.203l-10.219 570.52c-0.23438 14.625 10.641 27.047 25.125 28.688l359.48 40.875c1.0781 0.09375 2.1562 0.14062 3.2344 0.14062 13.359 0 25.125-9.4219 27.75-22.875l69.844-355.64 69.797 355.69c2.625 13.406 14.391 22.828 27.75 22.828 1.0781 0 2.1562-0.046875 3.2344-0.14062l359.48-40.875c14.531-1.6406 25.406-14.062 25.125-28.688l-10.219-570.52c-0.046875-3.8906-0.9375-7.6875-2.5312-11.203l-70.266-154.5c0.09375-0.89062 0.14062-1.8281 0.14062-2.7188v-127.82c0-15.656-12.703-28.359-28.359-28.359z"/>
</svg>
