<?xml version="1.0" encoding="UTF-8"?>
<svg id="Layer_1" data-name="Layer 1" xmlns="http://www.w3.org/2000/svg" viewBox="0 0 1046.862 1125.013">
  <defs>
    <style>
      .cls-1 {
        fill: red;
        fill-rule: evenodd;
      }
    </style>
  </defs>
  <path d="M1024.769,707.959l-101.02-121.18c-7.641-9.188-17.484-15.984-28.547-19.922.234-2.156.328-4.312.328-6.516,0-36.094-29.391-65.484-65.484-65.484-9.984,0-19.594,2.203-28.359,6.422-15.422-15.141-36.328-23.859-58.219-23.859s-42.797,8.719-58.219,23.859c-8.766-4.219-18.375-6.422-28.359-6.422-36.094,0-65.484,29.391-65.484,65.484,0,2.203.094,4.359.328,6.516-11.062,3.938-20.859,10.734-28.547,19.922l-101.02,121.18c-27.891,33.469-29.484,79.641-4.031,114.98l119.06,165.1,20.438,124.74c1.172,7.172,7.359,12.234,14.391,12.234.797,0,1.594-.047,2.391-.188,7.969-1.312,13.359-8.812,12.047-16.781l-20.953-128.16c-.375-2.25-1.219-4.359-2.578-6.188l-121.08-167.86c-17.531-24.328-16.406-56.156,2.766-79.172l101.02-121.18c4.172-4.969,9.469-8.672,15.469-10.922,10.078,16.406,27.234,27.984,47.156,30.656-10.5,13.922-17.953,30-21.609,47.203l-72.797,87.281c-4.266,5.109-4.547,12.469-.609,17.906l58.312,80.859c2.766,3.797,7.172,6.047,11.859,6.047h240c4.688,0,9.094-2.25,11.859-6.047l58.312-80.859c3.891-5.391,3.656-12.797-.609-17.906l-72.75-87.281c-3.609-17.156-11.016-33.281-21.609-47.25,19.922-2.625,37.031-14.25,47.156-30.656,5.953,2.203,11.297,5.906,15.469,10.922l101.02,121.18c19.219,23.016,20.344,54.844,2.766,79.172l-121.08,167.86c-1.312,1.828-2.203,3.938-2.578,6.188l-20.953,128.16c-1.312,7.969,4.078,15.469,12.047,16.781.891.188,1.688.234,2.484.234,7.031,0,13.219-5.109,14.391-12.234l20.438-124.74,119.06-165.1c25.453-35.344,23.812-81.516-4.078-114.98h.007ZM796.399,624.24c5.391,3.891,10.406,8.344,14.812,13.406,10.969,12.469,18.281,27.656,21.094,43.922.703,4.031,1.125,8.25,1.266,12.422.047,1.031.047,2.109.047,3.141,0,9.422-1.453,18.75-4.312,27.656-12.047,37.359-46.5,62.484-85.781,62.484-49.688,0-90.094-40.406-90.094-90.094,0-29.016,14.062-56.109,37.266-72.938,14.719,12.141,33.422,19.078,52.875,19.078,19.453-.047,38.109-6.938,52.828-19.078h0ZM860.946,718.834l42.469,50.953-47.297,65.578h-225.05l-47.297-65.578,42.469-50.953c10.219,55.453,58.969,97.641,117.33,97.641,52.031,0,97.641-33.234,113.58-82.734,1.594-4.875,2.859-9.891,3.797-14.906h0ZM830.102,596.574c-8.156,0-15.844-2.625-22.266-7.641-3.141-2.438-7.078-3.516-11.016-2.953s-7.453,2.672-9.797,5.859c-10.078,13.875-26.344,22.172-43.453,22.172s-33.375-8.297-43.453-22.172c-2.344-3.188-5.859-5.344-9.797-5.859-.656-.094-1.359-.141-2.016-.141-3.234,0-6.422,1.078-9,3.094-6.422,5.016-14.109,7.641-22.266,7.641-19.969,0-36.234-16.266-36.234-36.234s16.266-36.234,36.234-36.234c8.156,0,15.844,2.625,22.266,7.641,3.141,2.438,7.078,3.516,11.016,2.953s7.453-2.672,9.797-5.859c10.078-13.875,26.344-22.172,43.453-22.172s33.375,8.297,43.453,22.172c2.344,3.188,5.859,5.344,9.797,5.859,3.938.562,7.922-.516,11.016-2.953,6.422-5.016,14.109-7.641,22.266-7.641,19.969,0,36.234,16.266,36.234,36.234.047,20.016-16.219,36.234-36.234,36.234h0ZM639.132,308.294c0,25.031,20.391,45.422,45.422,45.422s45.422-20.391,45.422-45.422-20.391-45.422-45.422-45.422-45.422,20.391-45.422,45.422ZM700.773,308.294c0,8.953-7.266,16.219-16.219,16.219s-16.219-7.266-16.219-16.219c0-8.906,7.266-16.219,16.219-16.219,8.906,0,16.219,7.266,16.219,16.219ZM818.473,344.856c-25.031,0-45.422,20.391-45.422,45.422s20.391,45.422,45.422,45.422,45.422-20.391,45.422-45.422-20.344-45.422-45.422-45.422ZM818.473,406.497c-8.953,0-16.219-7.266-16.219-16.219,0-8.906,7.266-16.219,16.219-16.219,8.906,0,16.219,7.266,16.219,16.219s-7.266,16.219-16.219,16.219ZM809.332,286.777c25.031,0,45.422-20.391,45.422-45.422s-20.391-45.422-45.422-45.422-45.422,20.391-45.422,45.422,20.391,45.422,45.422,45.422ZM809.332,225.136c8.953,0,16.219,7.266,16.219,16.219,0,8.906-7.266,16.219-16.219,16.219s-16.219-7.266-16.219-16.219c.047-8.953,7.312-16.219,16.219-16.219ZM324.462,222.37c-8.062,0-14.625,6.516-14.625,14.625v47.391c-34.641,17.391-59.906,48.422-69.844,85.734-16.266,3.328-28.5,17.766-28.5,34.969,0,19.688,16.031,35.719,35.719,35.719h246.66c19.688,0,35.719-16.031,35.719-35.719,0-17.203-12.234-31.641-28.5-34.969-9.891-37.312-35.156-68.391-69.844-85.734v-47.391c0-8.062-6.516-14.625-14.625-14.625h-1.922v-15C414.794,93.04,321.747,0,207.42,0S0,93.047,0,207.37v903c0,8.062,6.562,14.625,14.625,14.625h111.09c8.062,0,14.625-6.516,14.625-14.625v-208.31h27.609v16.875c0,18.516,15.094,33.609,33.609,33.609s33.609-15.094,33.609-33.609v-107.86c0-18.516-15.094-33.609-33.609-33.609s-33.609,15.094-33.609,33.609v16.875l-27.609-.047v-156.42c0-31.641-22.219-58.172-51.891-64.875V207.368c0-65.578,53.344-118.97,118.97-118.97s118.97,53.344,118.97,118.97v15l-1.927.002ZM197.102,811.08c0-2.391,2.016-4.359,4.359-4.359,2.391,0,4.359,2.016,4.359,4.359v107.86c0,2.391-2.016,4.359-4.359,4.359-2.391,0-4.359-2.016-4.359-4.359v-107.86ZM167.899,857.158v15.703h-27.562v-15.703h27.562ZM500.429,405.138c0,3.516-2.953,6.516-6.516,6.516h-246.66c-3.516,0-6.516-2.953-6.516-6.516,0-3.516,2.953-6.516,6.516-6.516h246.66c3.516.047,6.516,3,6.516,6.516ZM470.241,369.419h-199.36c10.031-27.703,31.594-50.719,59.156-62.156,5.484-2.25,9-7.594,9-13.5v-42.188h63.047v42.188c0,5.906,3.562,11.25,9,13.5,27.562,11.438,49.125,34.453,59.156,62.156h0ZM111.081,671.479v424.31H29.237v-461.58h44.578c20.578,0,37.266,16.688,37.266,37.266v.004ZM207.409,59.199c-81.703,0-148.18,66.469-148.18,148.18v397.6h-30V207.379C29.229,109.129,109.151,29.199,207.409,29.199s178.18,79.922,178.18,178.18v15h-29.953v-15c-.047-81.703-66.516-148.18-148.22-148.18h-.007ZM382.629,475.539v30.234c0,8.062-6.516,14.625-14.625,14.625-8.062,0-14.625-6.516-14.625-14.625v-30.234c0-8.062,6.516-14.625,14.625-14.625,8.062,0,14.625,6.562,14.625,14.625ZM382.629,551.477v30.234c0,8.062-6.516,14.625-14.625,14.625-8.062,0-14.625-6.516-14.625-14.625v-30.234c0-8.062,6.516-14.625,14.625-14.625,8.062,0,14.625,6.562,14.625,14.625ZM382.629,627.415v30.234c0,8.062-6.516,14.625-14.625,14.625-8.062,0-14.625-6.516-14.625-14.625v-30.234c0-8.062,6.516-14.625,14.625-14.625,8.062,0,14.625,6.562,14.625,14.625ZM382.629,703.353v30.234c0,8.062-6.516,14.625-14.625,14.625-8.062,0-14.625-6.516-14.625-14.625v-30.234c0-8.062,6.516-14.625,14.625-14.625,8.062,0,14.625,6.562,14.625,14.625ZM382.629,779.291v30.234c0,8.062-6.516,14.625-14.625,14.625-8.062,0-14.625-6.516-14.625-14.625v-30.234c0-8.062,6.516-14.625,14.625-14.625,8.062,0,14.625,6.562,14.625,14.625ZM282.269,475.551v30.234c0,8.062-6.516,14.625-14.625,14.625-8.062,0-14.625-6.516-14.625-14.625v-30.234c0-8.062,6.516-14.625,14.625-14.625s14.625,6.562,14.625,14.625ZM282.269,551.489v30.234c0,8.062-6.516,14.625-14.625,14.625-8.062,0-14.625-6.516-14.625-14.625v-30.234c0-8.062,6.516-14.625,14.625-14.625s14.625,6.562,14.625,14.625ZM282.269,627.427v30.234c0,8.062-6.516,14.625-14.625,14.625-8.062,0-14.625-6.516-14.625-14.625v-30.234c0-8.062,6.516-14.625,14.625-14.625s14.625,6.562,14.625,14.625ZM282.269,703.365v30.234c0,8.062-6.516,14.625-14.625,14.625-8.062,0-14.625-6.516-14.625-14.625v-30.234c0-8.062,6.516-14.625,14.625-14.625s14.625,6.562,14.625,14.625ZM282.269,779.303v30.234c0,8.062-6.516,14.625-14.625,14.625-8.062,0-14.625-6.516-14.625-14.625v-30.234c0-8.062,6.516-14.625,14.625-14.625s14.625,6.562,14.625,14.625ZM488.049,505.783c0,8.062-6.516,14.625-14.625,14.625-8.062,0-14.625-6.516-14.625-14.625v-30.234c0-8.062,6.516-14.625,14.625-14.625,8.062,0,14.625,6.516,14.625,14.625v30.234ZM488.049,581.721c0,8.062-6.516,14.625-14.625,14.625-8.062,0-14.625-6.516-14.625-14.625v-30.234c0-8.062,6.516-14.625,14.625-14.625,8.062,0,14.625,6.516,14.625,14.625v30.234ZM488.049,627.424v30.234c0,8.062-6.516,14.625-14.625,14.625-8.062,0-14.625-6.516-14.625-14.625v-30.234c0-8.062,6.516-14.625,14.625-14.625s14.625,6.562,14.625,14.625ZM946.489,405.894c0,25.031,20.391,45.422,45.422,45.422s45.422-20.391,45.422-45.422-20.391-45.422-45.422-45.422-45.422,20.344-45.422,45.422h0ZM1008.083,405.894c0,8.953-7.266,16.219-16.219,16.219s-16.219-7.266-16.219-16.219,7.266-16.219,16.219-16.219c9,0,16.219,7.266,16.219,16.219ZM969.083,306.285c25.031,0,45.422-20.391,45.422-45.422s-20.391-45.422-45.422-45.422-45.422,20.391-45.422,45.422,20.391,45.422,45.422,45.422ZM969.083,244.644c8.953,0,16.219,7.266,16.219,16.219s-7.266,16.219-16.219,16.219-16.219-7.266-16.219-16.219c.047-8.953,7.312-16.219,16.219-16.219ZM658.393,173.722c25.031,0,45.422-20.391,45.422-45.422s-20.391-45.422-45.422-45.422-45.422,20.391-45.422,45.422,20.391,45.422,45.422,45.422ZM658.393,112.081c8.953,0,16.219,7.266,16.219,16.219s-7.266,16.219-16.219,16.219-16.219-7.266-16.219-16.219c.047-8.953,7.312-16.219,16.219-16.219Z"/>
  <path class="cls-1" d="M681.076,302.586l51.9,96.6-228.4-68.7,68.7-228.4,51.9,96.6L899.475,51.086l55.9,104-274.3,147.5h0Z"/>
</svg>