<?xml version="1.0" encoding="UTF-8"?>
<svg id="Layer_1" xmlns="http://www.w3.org/2000/svg" version="1.1" viewBox="0 0 1029.1 1183">
  <!-- Generator: Adobe Illustrator 29.2.1, SVG Export Plug-In . SVG Version: 2.1.0 Build 116)  -->
  <path d="M232,1112.2l14.3-167.2c.8-9.9-6.5-18.6-16.4-19.5-10-.8-18.6,6.5-19.5,16.4l-15,174.9c-.4,4.9,1.2,9.8,4.5,13.5l14.8,16.7h-54c-1.5,0-2.7-.3-3.8-1.4-1.8-1.9-1.7-3.2-1.7-4.2l12.9-404.1c0-1.4,0-2.8-.3-4.1l-12.8-63.8c-2-9.8-11.4-16.1-21.2-14.1s-16.1,11.4-14.1,21.2l12.4,61.8-12.8,401.7c-.6,11.2,3.3,21.7,11.7,30.7,8.1,8.1,18.4,12.4,29.7,12.4h93.9c7.1,0,13.5-4.2,16.4-10.6,2.9-6.5,1.8-14-2.9-19.3l-36.1-40.9Z"/>
  <path d="M439.9,1150.4l-48.4-34.7-21-401.3c0-1.3-.3-2.5-.6-3.8l-45.7-170.1c-2.6-9.6-12.5-15.3-22.1-12.7s-15.3,12.5-12.7,22.1l45.2,168.2,21.3,408c.3,5.4,3,10.5,7.5,13.7l10,7.2h-51.2c-2.8,0-4.9-1.8-5.3-4.7l-55.5-380c-1.5-9.8-10.5-16.6-20.4-15.2-9.8,1.5-16.6,10.6-15.2,20.4l55.5,380c3,20.5,20.2,35.4,40.9,35.4h107.2c7.8,0,14.8-5.1,17.2-12.5,2.3-7.4-.3-15.5-6.7-20.1h0Z"/>
  <path d="M323,454.5c-2.3-6.8-8.3-11.5-15.5-12.2-93.6-8.3-194.3,36.6-214.9,56.8-7.1,6.9-7.2,18.3-.2,25.5s18.4,7.2,25.5.2c9.2-9.1,71.5-39.7,140.4-46.3-138.1,119.3-188.3,121.9-204.1,116.7-5.4-1.7-12.9-6.2-16.8-24.1-5.2-53.9,4-94.2,28.3-123.1,27.8-33,59.5-41.1,90.1-48.9,18.6-4.7,36.2-9.2,51.3-18.9,51.7-32.5,108.2-105.8,111-177.5,0-2.4.1-4.8,0-7.1,12.6,37,4.7,82.3-4,113.6-15.8,57.7-61.3,98.2-78.9,98-9.9-.3-18.3,7.4-18.6,17.3s7.4,18.3,17.3,18.6c41.6,1.5,96.7-57.8,114.9-124.4,30.6-109.6.3-190-81.1-214.9-8.3-2.6-17.4,1.3-21.3,9.1-3.9,7.8-1.7,17.3,5.3,22.6,21.2,15.8,31.5,37.9,30.4,65.8-.8,21.4-8,43.6-18.9,64.5-8.7-49.7-52.1-87.6-104.4-87.6s-105.8,47.4-105.8,105.8,21.8,74,54,92.2c-22.9,8.8-47,22.6-68.9,48.7C7.5,461.2-4.7,511.9,1.6,575.6c0,.6.1,1.2.3,1.8,7,34.2,26.2,47.2,41.1,52,6.4,2.1,13.3,3.1,20.8,3.1,53.5,0,137.1-52.4,254.3-159,5.3-4.7,7.2-12.2,4.9-19h0ZM158.7,214.3c38.7,0,70.1,31.3,70.1,69.8s-31.5,69.8-70.1,69.8-69.8-31.3-69.8-69.8,31.3-69.8,69.8-69.8Z"/>
  <path d="M650.5,172.9l-25.2,24.8c-7.1,7-7.2,18.4-.2,25.5,3.5,3.6,8.2,5.3,12.8,5.3s9.1-1.7,12.7-5.2l25.2-24.8c7.1-7,7.2-18.4.2-25.5-7-7-18.4-7.1-25.5-.1h0Z"/>
  <path d="M556.6,266.8l-25.2,24.8c-7.1,7-7.2,18.4-.2,25.5,3.5,3.6,8.2,5.3,12.8,5.3s9.1-1.7,12.7-5.2l25.2-24.8c7.1-7,7.2-18.4.2-25.5-7-7-18.4-7.1-25.5-.1h0Z"/>
  <path d="M645.3,122.2c-3.9-9.1-14.5-13.4-23.6-9.5l-32.7,13.9c-9.1,3.9-13.4,14.5-9.5,23.6,2.9,6.8,9.6,10.9,16.5,10.9s4.7-.5,7.1-1.5l32.7-13.9c9.1-3.9,13.4-14.5,9.5-23.6h0Z"/>
  <path d="M458.2,203.5c3,6.8,9.6,10.7,16.5,10.7s4.9-.5,7.3-1.5l32.3-14.3c9.1-4,13.2-14.7,9.2-23.8s-14.6-13.2-23.8-9.2l-32.3,14.3c-9,4-13.2,14.7-9.1,23.8h0Z"/>
  <path d="M566.2,91.1c.8,0,1.5,0,2.2-.1l35.1-4.4c9.8-1.3,16.8-10.3,15.6-20.1s-10.3-16.8-20.1-15.6l-35.1,4.4c-9.8,1.3-16.8,10.3-15.6,20.1,1.2,9.1,9,15.8,17.9,15.8h0Z"/>
  <path d="M434.5,107.8c.8,0,1.5,0,2.3-.1l34.7-4.4c9.8-1.3,16.8-10.3,15.6-20.2-1.3-9.8-10.3-16.8-20.2-15.6l-34.7,4.4c-9.8,1.3-16.8,10.3-15.6,20.2,1.2,9.1,9,15.7,17.9,15.7h0Z"/>
  <path d="M946.9,64.6h-175.4C750.6,25,710,0,664.8,0h-1.9c-5.9,0-11.4,3.1-14.7,8s-3.9,11.2-1.7,16.6c47.3,118.7,71.1,178.3,71.1,178.3,2.2,5.5,7,9.6,12.8,10.9,1.3.3,2.7.4,4,.4,4.5,0,8.9-1.7,12.2-4.8,30.1-27.8,43.6-69.2,37.1-108.8h163.3c25.5,0,46.3,20.8,46.3,46.3v291h-80.1v-51c0-9.9-8.1-18-18-18s-18,8.1-18,18v127.5c0,9.9,8.1,18,18,18s18-8.1,18-18v-40.5h80v691.2c0,9.9,8.1,18,18,18s18-8.1,18-18V146.9c0-45.3-36.9-82.3-82.3-82.3h0ZM739.3,160.5c-9.8-24.6-25.8-64.6-48-120.2,23.2,7.7,42.4,25.3,51.9,49,9.3,23.4,7.5,49.5-4,71.2h0Z"/>
  <path d="M352,510.5c-9.4,3.1-14.5,13.3-11.4,22.8,2.5,7.5,9.5,12.3,17.1,12.3s3.8-.3,5.7-.9c33.5-11.2,44.9-59.7,34.2-96.3-11.2-38.1-43.6-56.3-82.7-46.4-9.7,2.4-15.5,12.2-13,21.8,2.4,9.7,12.2,15.5,21.8,13,7.6-1.9,30.7-7.8,39.3,21.6,6.9,23.5-2,49-11,52h0Z"/>
  <path d="M421.5,291.7l-24.8,24.8c-7,7-7,18.4,0,25.5,3.5,3.5,8.1,5.2,12.8,5.2s9.2-1.7,12.8-5.2l24.8-24.8c7-7,7-18.4,0-25.5-7.1-7-18.5-7-25.5,0Z"/>
  <path d="M475.1,438.8l35-1.4c9.9-.4,17.7-8.8,17.3-18.7s-8.7-17.5-18.7-17.3l-35,1.4c-9.9.4-17.7,8.8-17.3,18.7.4,9.7,8.3,17.3,18,17.3h.8Z"/>
  <path d="M527.3,503.7l-34-9.2c-9.6-2.6-19.5,3.1-22.1,12.7s3.1,19.5,12.7,22.1l34,9.2c1.6.4,3.1.6,4.7.6,7.9,0,15.2-5.3,17.3-13.3,2.6-9.6-3-19.5-12.7-22.1h0Z"/>
</svg>