<?xml version="1.0" encoding="UTF-8"?>
<svg width="1200pt" height="1200pt" version="1.1" viewBox="0 0 1200 1200" xmlns="http://www.w3.org/2000/svg">
 <path d="m281.25 375c0-6.6992-3.5742-12.887-9.375-16.238-5.8008-3.3477-12.949-3.3477-18.75 0-5.8008 3.3516-9.375 9.5391-9.375 16.238v18.75c0 6.6992 3.5742 12.887 9.375 16.238 5.8008 3.3477 12.949 3.3477 18.75 0 5.8008-3.3516 9.375-9.5391 9.375-16.238z"/>
 <path d="m412.5 412.5c4.9727 0 9.7422-1.9766 13.258-5.4922 3.5156-3.5156 5.4922-8.2852 5.4922-13.258v-18.75c0-6.6992-3.5742-12.887-9.375-16.238-5.8008-3.3477-12.949-3.3477-18.75 0-5.8008 3.3516-9.375 9.5391-9.375 16.238v18.75c0 4.9727 1.9766 9.7422 5.4922 13.258 3.5156 3.5156 8.2852 5.4922 13.258 5.4922z"/>
 <path d="m388.26 519.51c4.5977-4.7656 6.3438-11.598 4.5938-17.984-1.75-6.3867-6.7383-11.375-13.125-13.125-6.3867-1.75-13.219-0.003907-17.984 4.5938-5.293 8.2617-14.43 13.254-24.242 13.254s-18.949-4.9922-24.242-13.254c-4.7656-4.5977-11.598-6.3438-17.984-4.5938-6.3867 1.75-11.375 6.7383-13.125 13.125-1.75 6.3867-0.003907 13.219 4.5938 17.984 12.961 14.59 31.262 23.332 50.758 24.242 19.496-0.91016 37.797-9.6523 50.758-24.242z"/>
 <path d="m1077.6 757.12-140.12-40.031v-39.113c5.6758-2.4844 11.219-5.2578 16.613-8.3047 30.766 27.656 70.699 42.918 112.07 42.824h40.07c5.543 0 10.805-2.4492 14.367-6.6992 3.5664-4.2461 5.0664-9.8516 4.1016-15.312l-37.105-210.3c13.957-15.75 20.559-36.691 18.156-57.602-2.4062-20.906-13.586-39.805-30.758-51.973 8.1172-10.879 12.012-24.328 10.969-37.855-0.9375-11.25-2.3242-22.707-4.1641-34.406h0.003906c-5.8594-36.492-20.988-70.871-43.934-99.844l-3.75-21.582c-6.8477-39.098-27.281-74.52-57.691-100.03-30.414-25.508-68.852-39.461-108.55-39.398h-5.3984c-19.891 0-38.969 7.9023-53.031 21.969-14.066 14.062-21.969 33.141-21.969 53.031v12.074c-37.066 12.66-70.004 35.141-95.301 65.043-25.301 29.902-42.016 66.105-48.363 104.76-2.1562 12.992-3.75 26.043-4.8555 38.773-0.99219 13.418 2.9023 26.738 10.969 37.5-15.5 11.086-26.168 27.688-29.816 46.391-3.6445 18.707 0.007813 38.098 10.211 54.191 10.203 16.098 26.184 27.672 44.656 32.355v2.6641c0.046875 36.457 10.711 72.113 30.688 102.61 19.98 30.5 48.406 54.516 81.812 69.121v39.113l-137.48 39.375c-22.078-36.027-56.816-62.508-97.406-74.25l-140.12-40.125v-39.113c33.406-14.605 61.832-38.621 81.812-69.121 19.977-30.496 30.641-66.152 30.688-102.61v-2.6641c21.016-5.3281 38.672-19.539 48.367-38.93 9.6992-19.391 10.477-42.043 2.1328-62.051-8.3477-20.012-24.988-35.398-45.586-42.156l23.852-83.492h-0.003906c6.4766-22.551 4.2344-46.715-6.2812-67.688l-3.2617-6.5234v-0.003906c-25.723-51.438-69.703-91.441-123.34-112.19-53.641-20.746-113.09-20.746-166.73 0-53.645 20.746-97.621 60.75-123.34 112.19l-3.3008 6.5273c-10.512 20.973-12.754 45.137-6.2812 67.688l23.852 83.492c-20.602 6.7578-37.242 22.148-45.582 42.16-8.3438 20.012-7.5625 42.664 2.1367 62.055 9.6992 19.391 27.359 33.598 48.375 38.922v2.6641c0.046875 36.457 10.711 72.113 30.688 102.61 19.98 30.5 48.406 54.516 81.812 69.121v39.113l-140.12 40.031c-35.199 10.184-66.148 31.5-88.215 60.75-22.062 29.254-34.051 64.871-34.168 101.51v336.86c0 4.9727 1.9766 9.7422 5.4922 13.258 3.5156 3.5156 8.2852 5.4922 13.258 5.4922h1162.5c4.9727 0 9.7422-1.9766 13.258-5.4922 3.5156-3.5156 5.4922-8.2852 5.4922-13.258v-261.86c-0.11719-36.641-12.105-72.258-34.168-101.51-22.066-29.25-53.016-50.566-88.215-60.75zm-552.62-433.33c11.582 6.7031 18.715 19.074 18.715 32.457s-7.1328 25.754-18.715 32.457zm525 75c11.582 6.7031 18.715 19.074 18.715 32.457s-7.1328 25.754-18.715 32.457zm0 104.79c1.1797-0.30078 2.3047-0.71094 3.4688-1.0859l30.43 172.5h-17.719c-29.184 0.046875-57.535-9.7305-80.492-27.75 20.18-17.535 36.363-39.199 47.457-63.523 11.094-24.32 16.84-50.742 16.855-77.477zm-63.02-352.5c-15.379-10.453-32-18.957-49.48-25.312v-13.273c-0.085938-6.5234-1.0391-13.004-2.832-19.273 22.895 13.527 41.137 33.695 52.312 57.824zm-161.98-38.586c0-13.398 7.1484-25.777 18.75-32.477 11.602-6.6992 25.898-6.6992 37.5 0 11.602 6.6992 18.75 19.078 18.75 32.477v3.3203c-12.383-2.1797-24.93-3.2891-37.5-3.3203h-3.2812c-11.461 0.050781-22.902 0.99219-34.219 2.8125zm-150 351.21c-11.582-6.7031-18.715-19.074-18.715-32.457s7.1328-25.754 18.715-32.457zm6.1484-113.61c-3.4961-3.7344-5.2422-8.7812-4.7969-13.875 0.99219-11.738 2.4922-23.773 4.4805-35.773v-0.003906c6.9883-42.191 28.785-80.512 61.48-108.09 32.691-27.57 74.141-42.59 116.91-42.363h3.2812c43.691 0.054688 85.953 15.562 119.31 43.781 33.355 28.215 55.656 67.324 62.957 110.4 1.707 10.801 2.9805 21.43 3.8438 31.727 0.44531 5.2422-1.3281 10.434-4.8945 14.301-3.5664 3.8711-8.5938 6.0625-13.855 6.043-13.008 0.039062-25.77-3.5625-36.836-10.402-11.062-6.8398-19.992-16.645-25.77-28.297l-12.883-25.934c-2.082-4.1797-5.6523-7.4336-10.012-9.1211-4.3555-1.6836-9.1836-1.6836-13.539 0-4.3594 1.6875-7.9297 4.9414-10.012 9.1211-9.6562 19.484-24.582 35.871-43.082 47.293-18.5 11.426-39.836 17.434-61.582 17.34h-120.99c-5.332 0.035156-10.426-2.2031-14.008-6.1484zm31.352 156.15v-112.5h103.65c46.188 0.15234 89.98-20.512 119.23-56.25 15.777 29.254 44.293 49.484 77.117 54.711v114.04c0 53.59-28.59 103.11-75 129.9-46.41 26.797-103.59 26.797-150 0-46.41-26.793-75-76.312-75-129.9zm187.5 183.75v22.5c0 13.398-7.1484 25.777-18.75 32.477-11.602 6.6992-25.898 6.6992-37.5 0-11.602-6.6992-18.75-19.078-18.75-32.477v-22.5c24.746 5.0508 50.254 5.0508 75 0zm-750-301.29c-11.582-6.7031-18.715-19.074-18.715-32.457s7.1328-25.754 18.715-32.457zm7.293-197.06c-3.8945-13.523-2.5547-28.016 3.75-40.594l3.2617-6.5234v-0.003906c21.551-43.098 58.395-76.613 103.33-93.992 44.941-17.383 94.746-17.383 139.69 0 44.941 17.379 81.785 50.895 103.33 93.992l3.2617 6.5234v0.003906c6.3047 12.578 7.6445 27.07 3.75 40.594l-19.5 68.289-52.312-65.398v-0.003906c-3.418-4.2773-8.5352-6.8438-14.004-7.0312-5.5078-0.27344-10.84 1.9844-14.477 6.1328-56.586 62.25-133.5 91.07-234.38 88.219zm30.207 239.61v-111.98c2.8516 0 5.7734 0.24219 8.5859 0.24219v0.003906c75.352 2.6445 149.39-20.184 210.17-64.801-6.9648 18.098-19.371 33.582-35.516 44.324l-6.1484 4.1055c-4.1367 2.7617-7.0078 7.0508-7.9844 11.93-0.97266 4.875 0.03125 9.9414 2.7891 14.078 2.7617 4.1367 7.0508 7.0078 11.93 7.9844 4.875 0.97266 9.9414-0.03125 14.078-2.7891l6.1484-4.1055v-0.003906c26.758-17.809 46.023-44.848 54.113-75.953l41.832 52.273v124.69c0 53.59-28.59 103.11-75 129.9-46.41 26.797-103.59 26.797-150 0-46.41-26.793-75-76.312-75-129.9zm187.5 183.75v22.5c0 13.398-7.1484 25.777-18.75 32.477-11.602 6.6992-25.898 6.6992-37.5 0-11.602-6.6992-18.75-19.078-18.75-32.477v-22.5c24.746 5.0508 50.254 5.0508 75 0zm-262.5 547.27h-75v-187.27h75zm412.5 0.22656h-375v-206.25c0-4.9727-1.9766-9.7422-5.4922-13.258-3.5156-3.5156-8.2852-5.4922-13.258-5.4922h-93.75v-93.113c0.074219-28.512 9.3945-56.227 26.559-78.992 17.164-22.766 41.246-39.352 68.637-47.27l141.71-40.48c13.672 21.648 37.488 34.773 63.094 34.773s49.422-13.125 63.094-34.773l141.71 40.48c29.469 8.5586 55.031 27.125 72.281 52.5-26.957 14.414-49.516 35.852-65.289 62.039-15.77 26.188-24.164 56.152-24.297 86.723zm112.5 0h-75v-112.27h75zm525 0h-75v-112.27h75zm0-149.77h-93.75c-4.9727 0-9.7422 1.9727-13.258 5.4883-3.5156 3.5195-5.4922 8.2891-5.4922 13.262v131.02h-375v-131.02c0-4.9727-1.9766-9.7422-5.4922-13.262-3.5156-3.5156-8.2852-5.4883-13.258-5.4883h-93.75v-93.34c0.089844-28.496 9.418-56.199 26.578-78.949 17.164-22.75 41.238-39.324 68.617-47.238l141.71-40.48c13.672 21.648 37.488 34.773 63.094 34.773s49.422-13.125 63.094-34.773l141.71 40.406c27.391 7.918 51.473 24.504 68.637 47.27 17.164 22.766 26.484 50.48 26.559 78.992z"/>
 <path d="m806.25 450c0-6.6992-3.5742-12.887-9.375-16.238-5.8008-3.3477-12.949-3.3477-18.75 0-5.8008 3.3516-9.375 9.5391-9.375 16.238v18.75c0 6.6992 3.5742 12.887 9.375 16.238 5.8008 3.3477 12.949 3.3477 18.75 0 5.8008-3.3516 9.375-9.5391 9.375-16.238z"/>
 <path d="m937.5 487.5c4.9727 0 9.7422-1.9766 13.258-5.4922 3.5156-3.5156 5.4922-8.2852 5.4922-13.258v-18.75c0-6.6992-3.5742-12.887-9.375-16.238-5.8008-3.3477-12.949-3.3477-18.75 0-5.8008 3.3516-9.375 9.5391-9.375 16.238v18.75c0 4.9727 1.9766 9.7422 5.4922 13.258 3.5156 3.5156 8.2852 5.4922 13.258 5.4922z"/>
 <path d="m913.26 594.51c4.5977-4.7656 6.3438-11.598 4.5938-17.984-1.75-6.3867-6.7383-11.375-13.125-13.125-6.3867-1.75-13.219-0.003907-17.984 4.5938-5.293 8.2617-14.43 13.254-24.242 13.254s-18.949-4.9922-24.242-13.254c-4.7656-4.5977-11.598-6.3438-17.984-4.5938-6.3867 1.75-11.375 6.7383-13.125 13.125-1.75 6.3867-0.003907 13.219 4.5938 17.984 12.406 15.309 31.055 24.199 50.758 24.199s38.352-8.8906 50.758-24.199z"/>
</svg>
