<?xml version="1.0" encoding="UTF-8"?>
<svg width="1200pt" height="1200pt" version="1.1" viewBox="0 0 1200 1200" xmlns="http://www.w3.org/2000/svg">
 <path d="m719.12 292.78c-17.113 12.066-41.859 8.0586-42.211 7.9922-5.1523-0.89453-10.105 2.5625-11 7.7344-0.92578 5.1797 2.543 10.125 7.7227 11.039 0.52344 0.09375 5.7617 0.98047 13.383 0.98047 11.621 0 28.754-2.0664 43.078-12.172 4.2969-3.0273 5.332-8.9727 2.2969-13.277-3.0234-4.2969-8.9648-5.3242-13.27-2.2969z"/>
 <path d="m509.9 320.52c7.6211 0 12.867-0.88672 13.383-0.98047 5.1719-0.91406 8.6094-5.8398 7.7148-11.012-0.89453-5.1602-5.8086-8.6562-10.992-7.7539-0.24609 0.046875-25.059 4.0938-42.199-7.9922-4.2969-3.0391-10.238-2-13.277 2.2969-3.0273 4.2969-2 10.238 2.2969 13.277 14.32 10.098 31.457 12.164 43.074 12.164z"/>
 <path d="m1033 1188c-1.2773-4.7227-31.336-116.34-50.801-161-4.3906-10.066-15-26.449-29.773-46.488 22.602-62.812-9.5898-149.29-43.926-178.74-21.723-18.648-22.848-24.801-25.859-41.219-1.3047-7.0664-2.9141-15.859-6.3984-27.543-13.277-44.477-74.145-54.84-77.297-55.336-61.781-6.2578-104.63-2.0391-133.98 5.2852v-27.859c62.105-22.707 111.07-72.145 131.66-106.51 5.543-9.2578 10.742-20.562 15.535-33.523 28-0.41016 54.336-20.773 65.781-51.98 14.562-39.676-0.78906-82.793-34.211-96.117-0.5625-0.23047-1.1914-0.39844-1.7695-0.60156 2.2969-25.773 3.5234-52.555 3.5234-79.496 0-131.64-64.695-285.37-247.04-285.37-45.992 0-84.477 9.8008-116.34 26.535-12.059-13.742-44.031-39.676-104.12-22.125-80.887 23.621-116.58 114.89-115.75 295.93 0.19922 44.574 3.7148 89.84 10.418 134.55 17.438 116.32 16.973 201.59-1.2773 233.94-1.9062 3.3828-1.5703 7.6016 0.86719 10.637 2.4375 3.0273 6.4375 4.2773 10.199 3.1523 2.2461-0.6875 44.305-13.859 63.219-47.047 10.324 18.41 31.316 40.078 73.984 51.965 0.39844 0.11328 0.80078 0.10547 1.2109 0.17187-33.57 13.191-67.801 41.965-78.84 85.887-7.582 30.113-24.754 51.477-42.926 74.105-13.695 17.047-27.867 34.676-37.059 56-16.953 39.391-10.105 79.695-6.8086 99.07 0.23828 1.4375 0.50391 2.9727 0.72266 4.2969-49.336 45.438-86.582 104.92-89.289 181.59-0.09375 2.582 0.86719 5.0859 2.6562 6.9414 1.7891 1.8555 4.2656 2.9141 6.8555 2.9141l779.8-0.019532c0.027344 0 0.058594 0.007813 0.085938 0.007813 0.007812 0 0.019531 0.007813 0.027344 0.007813h0.007812c0.046875 0 0.09375-0.019532 0.14453-0.019532h67.562c2.9609 0 5.7539-1.3828 7.5625-3.7344 1.8047-2.3438 2.4258-5.3906 1.6445-8.2578zm-236.52-491.45c0.51562 0.085938 51.641 8.7344 61.535 41.895 3.1914 10.688 4.6289 18.562 5.9062 25.523 3.6094 19.715 6.4961 30.184 32.191 52.238 27.383 23.484 53.945 91.992 42.039 145.43-38.371-49.391-94.867-113.39-147.12-162.76 12.152-3.4961 31.258-6.8086 52.172-2.0586 5.1719 1.1445 10.238-2.0586 11.398-7.1797 1.1602-5.1328-2.0586-10.23-7.1797-11.398-32.391-7.332-60.457 1.2188-72.383 5.9062-21.145-19.027-41.172-35.066-58.477-45.965-20.781-13.086-43.344-23.086-66.25-30.793 24.492-9.3281 69.492-18.617 146.16-10.844zm-150.55-7.8203c-9.6289 3.5039-17.133 7.2188-22.848 10.656-24.895-6.4766-49.508-10.629-72.125-13.246v-6.3984c1.8555 0.50391 3.6875 1.0586 5.6484 1.2852 1.6016 0.19141 3.1914 0.27734 4.7734 0.27734 9.5508 0 18.781-3.4102 26.391-9.8555 1.418-1.1992 2.6172-2.6094 3.875-3.9727 1.0781-0.007812 2.1523-0.027343 3.2383-0.058593l3.582-0.058594c16.352 0 32.23-2.3711 47.477-6.3711l-0.003906 27.742zm-76.176-213.1c2.9727-1.3906 5-4.2109 5.3984-7.4688l3.6953-30.391c4.2656-1.9805 9.0586-3.4492 14.316-4.0938l-4.8281 35.879c-0.44922 3.3047 0.875 6.6094 3.4766 8.6953 6.6211 5.3125 10.086 14.125 9.0273 23.012l-16.418 138.59c-0.80078 6.7891-3.9922 12.859-8.9727 17.066-4.7812 4.0586-10.688 5.9414-16.602 5.1992-12.484-1.4766-21.297-13.887-19.668-27.648l16.418-138.59c1.0508-8.875 6.4727-16.637 14.156-20.25zm32.309 172.51c0.50391-1.9922 1.0391-3.9805 1.2852-6.0664l16.418-138.57c1.6172-13.648-2.7812-26.848-11.887-36.316l4.2656-31.723c9.2383 3.0391 18.41 9.1055 27.516 18.191 3.7227 3.7148 9.7422 3.7148 13.469-0.019531 3.7148-3.7227 3.7148-9.7539-0.019531-13.469-15.039-15-30.875-23.41-47.211-25.438-0.19922-0.039062-0.35156-0.16016-0.55078-0.19141-0.21094-0.027344-0.39062 0.046875-0.58984 0.039063-3.1328-0.33203-6.2773-0.50391-9.4492-0.36328-30.695 1.5352-50.793 25.629-51.641 26.656-3.332 4.0664-2.7422 10.066 1.332 13.41 1.7695 1.4492 3.9062 2.1602 6.0273 2.1602 2.4961 0 4.875-1.1055 6.7148-2.9727l-0.92578 7.5898c-11.125 7.0664-18.523 18.895-20.152 32.59l-16.113 136.07c-47.371-22.211-85.801-60.582-103.98-90.906-17.266-28.82-31.199-81.211-39.078-141.98 10.609-13.469 48.285-64.812 63.086-131.99 10.762-48.879 41.238-109.1 82.727-125.81 21.887-8.8008 45.477-4.9609 70.137 11.477 3.1992 2.1328 7.3633 2.1328 10.562 0 24.668-16.438 48.258-20.277 70.137-11.477 41.477 16.715 71.965 76.934 82.727 125.81 14.789 67.184 52.051 118.51 62.523 131.96-7.875 60.793-21.809 113.19-39.086 142.02-25.016 41.707-95.16 107.43-178.24 109.32zm-244.08-253.34c0 0.058594 0.019531 0.11328 0.019531 0.17969 4.6211 37.305 11.484 71.594 20.113 100.14-17.457-3.418-33.742-17.98-41.316-38.602-10.496-28.602-1.3711-58.926 20.145-70.066 0.33203 2.8086 0.69531 5.5625 1.0391 8.3438zm502.1 61.715c-7.5703 20.602-23.914 35.105-41.305 38.574 8.6211-28.523 15.477-62.762 20.098-100.02 0.007812-0.085937 0.027343-0.17188 0.027343-0.25781 0.34375-2.7891 0.71484-5.543 1.0391-8.3633 21.512 11.133 30.645 41.457 20.141 70.066zm-33.633-169.64c0 27.504-1.3906 55.012-3.8945 81.477-14.676-22.113-36.84-61.098-47.086-107.63-12.191-55.402-46.059-119.99-94.211-139.38-26.418-10.656-54.172-7.3047-82.535 9.9258-28.363-17.238-56.105-20.582-82.535-9.9258-48.152 19.402-82.012 83.984-94.211 139.38-10.258 46.59-32.801 85.727-47.641 107.82-2.5156-26.523-3.9141-54.098-3.9141-81.668 0-27.258 6.3984-266.32 228-266.32 221.62 0.003906 228.02 239.07 228.02 266.32zm-415.57 379.27c-54.172-20.762-56.133-60-56.184-61.727-0.09375-5.1719-4.2969-9.3242-9.4688-9.3516h-0.058593c-5.1445 0-9.3633 4.0938-9.5234 9.2383-0.78125 26.391-22.066 43.383-38.801 52.695 14.742-54.508 5.8281-148.81-5.3633-223.43-6.5703-43.812-10.008-88.164-10.211-131.81-1.0312-221.79 57.742-264.63 102.05-277.57 47.145-13.754 71.953 3.1055 82.191 13.648-82.137 53.344-114.11 156.59-114.11 249.04 0 26.945 1.2305 53.727 3.5234 79.496-0.58203 0.21094-1.1992 0.37109-1.7539 0.60156-33.438 13.324-48.793 56.449-34.23 96.117 11.469 31.211 37.793 51.574 65.781 51.98 4.7891 12.953 9.9805 24.266 15.535 33.523 12.609 21.039 35.344 47.734 65.926 70.574-1.4492 8.418-0.125 17.609 2.0586 25.695-19.941-13.781-31.152-38.105-31.285-38.422-1.4102-3.125-4.3984-5.2578-7.8086-5.5625-3.4961-0.32422-6.7422 1.2305-8.6953 4.0391-11.246 16.164-11.074 43.801-9.5703 61.223zm20.695 12.094c-1.5352-8.8281-3.6953-29.211-1.2383-45.504 10.352 14.867 28.098 34.059 53 39.172 3.6562 0.73438 7.3242-0.65625 9.5352-3.6094 2.2109-2.9531 2.5352-6.9062 0.80859-10.152-2.9336-5.582-7.2461-16.438-8.6289-26.047 11.496 7.1719 23.875 13.637 37.02 19.086 1.9922 6.4375 5.3984 12.191 9.8281 16.961v16.039c-24.715-2.1523-45.992-2.7031-61-3.0859l-7.7812-0.21094c-10.219-0.27734-21.906 1.5156-33.934 5.332 1.9609-2.168 2.8945-5.082 2.3906-7.9805zm530.03 502.72c-55.602-96.668-262.49-198.47-271.43-202.83-4.7422-2.3125-10.438-0.34375-12.734 4.3828-2.3047 4.7227-0.34375 10.43 4.3828 12.734 1.8672 0.91406 161.93 79.641 237.06 160.66-18.383-6.7617-33.742-6.1602-47.914-5.5703-18.562 0.78125-34.629 1.4844-57.441-12.668-52.621-32.648-113.24-29.562-131.32-27.723-4.9922 0.28516-8.9609 4.4297-8.9609 9.5039 0 5.2656 4.2578 9.5234 9.5234 9.5234 0.3125 0 1.582-0.10547 1.8945-0.13281 15.875-1.6094 71.238-4.5039 118.82 25.012 27.82 17.258 49.383 16.324 68.297 15.516 17.906-0.76172 33.945-1.4102 55.66 11.602l-741.18 0.019532c16.953-211.11 332.36-282.25 335.6-282.94 5.1328-1.125 8.3984-6.1914 7.2773-11.332-0.97266-4.457-4.9141-7.4961-9.2969-7.4961-0.66797 0-1.3516 0.066406-2.0273 0.21094-8.8945 1.9336-144.88 32.555-245 114.5-3-19.211-6.2383-51.098 6.7031-81.184 8.1602-18.941 20.906-34.809 34.402-51.609 18.668-23.219 37.953-47.23 46.555-81.383 13.332-53.012 69.012-80.973 102.06-79.82l7.8945 0.19922c31.469 0.80859 91.375 2.3984 151.49 18.629 0.046875 0.007812 0.078125 0.046875 0.11328 0.058593 0.066407 0.019532 0.125 0 0.19141 0.019532 29.086 7.875 58.203 19.133 84.172 35.477 65.117 40.98 174.24 161.72 228.18 233.88 0.17969 0.21875 0.29688 0.46484 0.49609 0.67578 14.848 19.914 25.457 36.086 29.668 45.734 15.258 34.973 38.145 115.79 46.59 146.35z"/>
 <path d="m698.69 269.62v-66.793c0-5.2578-4.2578-9.5234-9.5234-9.5234h-180.84c-5.2656 0-9.5234 4.2656-9.5234 9.5234v66.793c0 5.2578 4.2578 9.5234 9.5234 9.5234h180.84c5.2656 0 9.5234-4.2578 9.5234-9.5234zm-19.047-9.5234h-161.8v-47.742h161.79z"/>
 <path d="m712.24 365.83c-3.5039 1.4844-7.457 2.125-11.285 2.2969-0.039062-0.10547-0.058593-0.21094-0.09375-0.30469 2.332-1.6289 4.5039-3.4961 6.332-5.8672 3.2109-4.1719 2.418-10.152-1.7539-13.352-4.1719-3.2109-10.145-2.4297-13.352 1.7539-1.8086 2.3633-4.1914 3.2773-6.7422 3.6172-1.4844-0.32422-3.0195-0.52344-4.6094-0.52344-11.809 0-21.391 9.582-21.391 21.391s9.582 21.391 21.391 21.391c7.1602 0 13.457-3.5508 17.344-8.9531 0.19922 0 0.39062 0.027344 0.60156 0.027344 7.0078 0 14.438-1.125 21.059-3.9727 4.8398-2.0664 7.0781-7.668 5-12.504-2.082-4.8398-7.7109-7.0781-12.5-5z"/>
 <path d="m509.73 353.44c-1.582 0-3.1133 0.19922-4.6094 0.52344-2.543-0.34375-4.9258-1.2578-6.7422-3.6172-3.1992-4.1602-9.1719-4.9531-13.352-1.7539-4.1719 3.1992-4.9609 9.1797-1.7539 13.352 1.8203 2.3711 4 4.2383 6.332 5.8672-0.027344 0.078125-0.046875 0.15234-0.078125 0.23047-4.0273-0.15234-8.0586-0.76172-11.172-2.1602-4.8398-2.1602-10.449 0.007813-12.582 4.8086-2.1523 4.8008 0.007812 10.438 4.8086 12.582 6.1797 2.7617 13.637 3.8672 20.828 3.8672 0.28516 0 0.55078-0.039063 0.82812-0.046875 3.8672 5.5039 10.246 9.125 17.484 9.125 11.809 0 21.391-9.582 21.391-21.391 0.007813-11.816-9.5625-21.387-21.383-21.387z"/>
 <path d="m544.17 623.93c0 10.543 8.5703 19.125 19.125 19.125 10.551 0 19.125-8.5703 19.125-19.125 0-6.2852-3.0859-11.828-7.7891-15.316l11.316-98.867c0.60156-5.2305-3.1523-9.9414-8.3828-10.543-5.1445-0.63672-9.9531 3.1523-10.535 8.3828l-11.305 98.812c-6.793 2.9297-11.555 9.6836-11.555 17.531z"/>
</svg>
