<?xml version="1.0" encoding="UTF-8"?>
<svg width="1200pt" height="1200pt" version="1.1" viewBox="0 0 1200 1200" xmlns="http://www.w3.org/2000/svg">
 <defs>
  <clipPath id="a">
   <path d="m222.14 222.14h755.71v755.71h-755.71z"/>
  </clipPath>
 </defs>
 <g clip-path="url(#a)">
  <path d="m793.11 505.71c13.602-21.004 27.395-53.5 27.395-98.906 0-24.844-11.051-45.879-16.184-54.285 0.28125-3.0234 0.44141-6.1406 0.44141-9.3516 0-42.574-23.902-73.777-61.906-93.867-34.512-18.262-81.211-27.145-130.18-27.145-100 0-217.27 62.379-217.27 193.88 0 41.848 7.6836 71.414 14.988 90.055-2.332-0.34375-4.7227-0.53516-7.1172-0.53516-29.566 0-55.105 27.492-55.105 62.977 0 0 0.85156 41.125 18.328 61.562 0.125 0.1875 0.28125 0.375 0.4375 0.56641-1.9492 5.1641-3.0195 10.734-3.0195 16.594 0 12.215 4.6289 23.332 12.246 31.707-18.48 19.555-27.992 44.559-27.992 74.754 0 62.852 51.578 113.96 115.25 113.96 25.004 0 48.148-7.8711 67.039-21.254 0.125-0.097656 0.22266-0.16016 0.34766-0.25391 2.0781 1.1641 4.1562 2.3008 6.2344 3.3711-0.31641 14.516-2.2969 64.047-15.051 108.22-2.4258 8.3438 2.3906 17.098 10.738 19.492 8.3438 2.4258 17.098-2.3945 19.488-10.738 11.211-38.762 14.738-81.27 15.871-104.23 11.871 3.5898 22.828 5.3867 31.992 5.3867 9.1641 0 20.121-1.7969 31.992-5.3867 1.1328 22.957 4.6602 65.465 15.871 104.23 2.3906 8.3438 11.145 13.164 19.492 10.738 8.3438-2.3945 13.16-11.148 10.734-19.492-12.75-44.176-14.734-93.707-15.051-108.22 2.0781-1.0703 4.1562-2.207 6.2344-3.3711 0.12891 0.09375 0.22266 0.15625 0.34766 0.25391 18.895 13.383 42.035 21.254 67.039 21.254 63.668 0 115.25-51.105 115.25-113.96 0-30.195-9.5078-55.199-27.992-74.754 7.6211-8.375 12.25-19.492 12.25-31.707 0-5.8594-1.0742-11.43-2.9922-16.594 0.15625-0.22266 0.3125-0.41016 0.47266-0.63281 17.41-20.465 18.262-61.496 18.262-61.496 0-35.484-25.535-62.977-55.105-62.977-1.2578 0-2.5195 0.0625-3.7773 0.16016zm116.63 353.01c-2.3633-1.1016-4.7852-2.1094-7.3047-2.957-32.055-11.023-60.488 3.3047-65.402 26.797-2.0781 9.918-0.03125 20.656 5.8555 30.637 7.2422 12.344 20.656 23.617 37.379 29.348 32.055 11.02 60.488-3.3086 65.398-26.797 0.97656-4.7227 0.19141-14.547 0.19141-14.547l-11.746-112.07 19.367 12.91c7.2109 4.8164 17.004 2.8633 21.82-4.3789 4.8164-7.2109 2.8633-17.004-4.3789-21.82l-47.23-31.488c-5.0703-3.4023-11.652-3.5273-16.879-0.37891-5.1953 3.1484-8.125 9.0391-7.4922 15.113zm-613.96 0.035156c-2.3633-1.1367-4.8516-2.1133-7.3711-2.9922-32.055-11.023-60.488 3.3047-65.398 26.797-2.0781 9.918-0.03125 20.656 5.8555 30.637 7.2422 12.344 20.656 23.617 37.375 29.348 32.059 11.02 60.492-3.3086 65.402-26.797 0.82031-3.9688 1.0078-8.0625 0.53516-12.188-0.03125-0.09375-15.586-147.74-15.586-147.74-0.91406-8.6602-8.6602-14.926-17.289-14.012-8.6562 0.91406-14.922 8.6602-14.012 17.285zm446-429.06c-23.68 10.328-45.438 12.785-45.438 12.785-0.60156 0.0625-1.1992 0.09375-1.7969 0.09375-55.672 0-80.137-8.4688-101.42-16.844-18.609-7.2734-34.355-14.645-71.762-14.645-28.75 0-43.863 19.273-52.242 37.945-8.5938 19.145-10.484 38.258-10.734 41.375v183.55c0 63.918 35.582 109.58 73.742 135.96 24.688 17.035 50.32 26.262 67.953 26.262 17.633 0 43.266-9.2266 67.953-26.262 38.164-26.387 73.746-72.047 73.746-135.96zm-141.7 170.32c-14.863 0-28.938 7.3711-40.086 20.973-13.57 16.625-22.891 43.266-22.891 73.492 0 30.23 9.3203 56.867 22.891 73.496 11.148 13.602 25.223 20.969 40.086 20.969 14.863 0 28.938-7.3672 40.086-20.969 13.57-16.629 22.891-43.266 22.891-73.496 0-30.227-9.3203-56.867-22.891-73.492-11.148-13.602-25.223-20.973-40.086-20.973zm28.719 119.53c-5.4492-6.1094-16.469-9.3203-28.719-9.3203s-23.27 3.2109-28.719 9.3203c2.6484 11.43 7.1484 21.316 13.008 28.496 4.5 5.5117 9.6953 9.4141 15.711 9.4141s11.211-3.9023 15.715-9.4141c5.8555-7.1797 10.359-17.066 13.004-28.496zm-217.65-88.043c8.6914 0 15.746 7.0547 15.746 15.746s-7.0547 15.742-15.746 15.742-15.742-7.0508-15.742-15.742 7.0508-15.746 15.742-15.746zm377.86 0c8.6914 0 15.746 7.0547 15.746 15.746s-7.0547 15.742-15.746 15.742c-8.6914 0-15.742-7.0508-15.742-15.742s7.0508-15.746 15.742-15.746zm-362.11-62.977c0-16.688-9.6992-31.488-23.617-31.488-13.855 0-23.523 14.676-23.617 31.457v0.19141c0.03125 1.8555 0.28516 11.711 2.7695 22.355 1.1992 5.1641 2.8047 10.613 5.4805 15.082 6.8633-3.9023 14.801-6.1094 23.238-6.1094 5.5117 0 10.832 0.94531 15.746 2.6797zm385.35 37.598c2.6758-4.4688 4.2812-9.918 5.4805-15.082 2.4844-10.645 2.7695-22.355 2.7695-22.355v-0.16016c0-16.688-9.6992-31.488-23.617-31.488s-23.613 14.801-23.613 31.488v34.168c4.9102-1.7344 10.23-2.6797 15.742-2.6797 8.4375 0 16.375 2.207 23.238 6.1094zm-250.87-83.098s-23.238 12.031-49.438 13.793c-0.03125 0-10.926-10.926-10.926-10.926-6.1719-6.1406-16.121-6.1406-22.293 0-6.1406 6.1719-6.1406 16.121 0 22.293l15.746 15.742c2.957 2.9297 6.957 4.5977 11.145 4.5977 36.023 0 70.188-17.477 70.188-17.477 7.7148-3.9648 10.77-13.477 6.8008-21.223-3.9648-7.7148-13.477-10.766-21.223-6.8008zm62.977 28.023s34.164 17.477 70.188 17.477c4.1875 0 8.1875-1.668 11.148-4.5977l15.742-15.742c6.1406-6.1719 6.1406-16.121 0-22.293-6.1719-6.1406-16.121-6.1406-22.293 0l-10.895 10.926c-26.23-1.7617-49.469-13.793-49.469-13.793-7.7461-3.9648-17.254-0.91406-21.223 6.8008-3.9688 7.7461-0.91406 17.258 6.8008 21.223zm-63.07-90.938s-26.609 13.949-55.672 13.949c-8.6914 0-15.742 7.0547-15.742 15.746 0 8.6914 7.0508 15.742 15.742 15.742 36.684 0 70.281-17.539 70.281-17.539 7.6836-4.0273 10.676-13.539 6.6445-21.254-4.0312-7.6836-13.539-10.672-21.254-6.6445zm62.977 27.898s33.598 17.539 70.281 17.539c8.6914 0 15.746-7.0508 15.746-15.742 0-8.6914-7.0547-15.746-15.746-15.746-29.062 0-55.672-13.949-55.672-13.949-7.7148-4.0273-17.223-1.0391-21.254 6.6445-4.0312 7.7148-1.0391 17.227 6.6445 21.254zm-328.55-117.36-7.3086-2.9609c-32.055-11.02-60.488 3.3086-65.398 26.797-2.0781 9.918-0.03125 20.656 5.8555 30.641 7.2422 12.34 20.656 23.613 37.375 29.344 32.059 11.023 60.492-3.3047 65.402-26.793 0.97656-4.7266 0.1875-14.551 0.1875-14.551l-11.742-112.07 19.363 12.91c7.2109 4.8203 17.004 2.8672 21.824-4.375 4.8164-7.2109 2.8633-17.004-4.3789-21.82l-47.23-31.488c-5.0703-3.4023-11.652-3.5273-16.879-0.37891-5.1953 3.1484-8.125 9.0352-7.4961 15.113zm614.02 0c-2.3633-1.1016-4.7852-2.1094-7.3047-2.9609-32.055-11.02-60.488 3.3086-65.402 26.797-2.0781 9.918-0.03125 20.656 5.8555 30.641 7.2422 12.34 20.656 23.613 37.379 29.344 32.055 11.023 60.488-3.3047 65.398-26.793 0.97656-4.7266 1.0391-9.6055 0.19141-14.551l-15.242-145.38c-0.87891-8.6602-8.6562-14.926-17.285-14.012-8.6602 0.87891-14.926 8.6562-14.012 17.285z" fill-rule="evenodd"/>
 </g>
</svg>
