<?xml version="1.0" encoding="UTF-8"?>
<svg id="Layer_1" data-name="Layer 1" xmlns="http://www.w3.org/2000/svg" viewBox="0 0 1031.472 1078.765">
  <path d="M973.074,378.32h-118.88v-21.141h19.922c6.609,0,12-5.344,12-12v-47.344c0-6.656-5.391-12-12-12h-120.14c-6.609,0-12,5.344-12,12v47.344c0,6.656,5.391,12,12,12h19.922v21.141h-217.5v-237.56C556.398,63.135,494.992,0,419.578,0s-136.82,63.141-136.82,140.76c0,6.656,5.391,12,12,12h55.453c6.609,0,12-5.344,12-12,0-33.844,25.734-61.312,57.422-61.312s57.422,27.516,57.422,61.312v237.56h-219.52v-26.531h19.922c6.609,0,12-5.344,12-12v-47.344c0-6.656-5.391-12-12-12h-120.14c-6.609,0-12,5.344-12,12v47.344c0,6.656,5.391,12,12,12h19.922v26.531H58.359c-32.156,0-58.359,26.156-58.359,58.359,0,27.422,19.078,50.344,44.625,56.531v93.188c0,98.344,77.719,178.31,173.26,178.31l189.71-.047v115.03c0,6.656,5.391,12,12,12h24.797v115.73c0,39.328,32.016,71.344,71.344,71.344s71.344-32.016,71.344-71.344v-115.73h24.797c6.609,0,12-5.344,12-12v-115.03h189.71c95.531,0,173.26-79.969,173.26-178.31v-93.188c25.547-6.188,44.625-29.109,44.625-56.531-.047-32.156-26.203-58.312-58.359-58.312h-.039ZM765.974,333.179v-23.344h96.094v23.344h-96.094ZM830.193,357.179v21.141h-32.297v-21.141h32.297ZM419.563,55.399c-41.016,0-75,31.969-80.625,73.312h-31.641c5.812-58.781,53.953-104.77,112.27-104.77,62.203,0,112.83,52.406,112.83,116.77v237.56h-31.453v-237.56c.047-47.016-36.516-85.312-81.375-85.312h-.006ZM169.303,327.789v-23.344h96.094v23.344h-96.094ZM233.522,351.789v26.531h-32.297v-26.531h32.297ZM563.052,1007.479c0,26.109-21.234,47.344-47.344,47.344s-47.344-21.234-47.344-47.344v-115.73h94.688v115.73ZM599.849,867.699h-168.28v-103.03h168.28v103.03ZM962.799,586.359c0,85.078-66.938,154.31-149.26,154.31H217.849c-82.312,0-149.26-69.234-149.26-154.31v-91.359h894.19l.02,91.359ZM973.065,470.999H58.345c-18.938,0-34.359-15.375-34.359-34.312s15.422-34.359,34.359-34.359h914.72c18.938,0,34.359,15.422,34.359,34.359-.047,18.938-15.422,34.312-34.359,34.312Z"/>
</svg>