<?xml version="1.0" encoding="UTF-8"?>
<svg width="1200pt" height="1200pt" version="1.1" viewBox="0 0 1200 1200" xmlns="http://www.w3.org/2000/svg">
 <path d="m1077.6 719.62-140.62-40.164c0.09375-1.5 0.44922-2.9258 0.44922-4.4609l0.003906-34.52c5.6719-2.4844 11.219-5.2578 16.609-8.3047 30.781 27.672 70.738 42.93 112.12 42.824h40.07c5.543-0.003906 10.797-2.457 14.355-6.707 3.5586-4.2461 5.0586-9.8477 4.0938-15.305l-37.105-210.28c13.969-15.75 20.574-36.695 18.176-57.605-2.4023-20.914-13.586-39.816-30.758-51.988 8.1055-10.891 12.004-24.34 10.969-37.875-0.95703-11.25-2.3242-22.688-4.1641-34.387h0.003906c-5.8555-36.5-20.98-70.887-43.934-99.863l-3.75-21.543c-6.832-39.109-27.258-74.543-57.672-100.06-30.418-25.512-68.867-39.461-108.57-39.387h-5.3984c-19.891 0-38.969 7.9023-53.031 21.969-14.066 14.062-21.969 33.141-21.969 53.031v12.074c-37.066 12.66-70.004 35.141-95.301 65.043-25.301 29.902-42.016 66.105-48.363 104.76-2.1172 12.824-3.75 25.875-4.8555 38.793-0.99609 13.414 2.8984 26.738 10.969 37.5-15.492 11.09-26.156 27.684-29.797 46.387-3.6445 18.699 0.011718 38.086 10.211 54.176 10.199 16.094 26.172 27.672 44.637 32.355v2.6641c0.046875 36.457 10.711 72.113 30.688 102.61 19.98 30.5 48.406 54.516 81.812 69.121v34.52c0 1.5391 0.35547 2.9609 0.44922 4.4609l-140.62 40.164c-16.84 4.8438-32.809 12.312-47.324 22.125-14.555-9.8008-30.555-17.27-47.418-22.125l-140.62-40.164c0.09375-1.5 0.44922-2.9258 0.44922-4.4609v-34.52c33.422-14.59 61.871-38.602 81.867-69.102 19.996-30.496 30.672-66.16 30.727-102.63v-2.6641c18.473-4.6836 34.453-16.258 44.656-32.355 10.203-16.094 13.855-35.484 10.211-54.191-3.6484-18.703-14.316-35.305-29.816-46.391 8.0664-10.762 11.961-24.082 10.969-37.5-1.1055-12.883-2.7383-25.93-4.8555-38.758v0.003906c-6.3438-38.656-23.059-74.863-48.355-104.77-25.301-29.906-58.238-52.387-95.309-65.051v-12.074c0-19.891-7.9023-38.969-21.969-53.031-14.062-14.066-33.141-21.969-53.031-21.969h-5.3984c-39.684-0.058594-78.113 13.898-108.52 39.406-30.398 25.508-50.812 60.93-57.648 100.02l-3.75 21.562c-22.992 28.961-38.164 63.34-44.062 99.844-1.875 11.719-3.2266 23.23-4.1797 34.426-1.0312 13.527 2.8633 26.973 10.969 37.855-17.148 12.199-28.301 31.113-30.668 52.027-2.3672 20.91 4.2695 41.84 18.254 57.566l-37.199 210.28c-0.96484 5.457 0.53516 11.059 4.0938 15.305 3.5586 4.25 8.8125 6.7031 14.355 6.707h40.07c41.367 0.09375 81.301-15.168 112.07-42.824 5.3945 3.0469 10.938 5.8203 16.613 8.3047v34.52c0 1.5391 0.35547 2.9609 0.44922 4.4609l-140.62 40.164c-35.188 10.191-66.125 31.512-88.176 60.766-22.055 29.254-34.035 64.863-34.148 101.5v299.36c0 4.9727 1.9766 9.7422 5.4922 13.258 3.5156 3.5156 8.2852 5.4922 13.258 5.4922h1162.5c4.9727 0 9.7422-1.9766 13.258-5.4922 3.5156-3.5156 5.4922-8.2852 5.4922-13.258v-299.36c-0.11719-36.641-12.105-72.258-34.168-101.51-22.066-29.25-53.016-50.566-88.215-60.75zm-11.438-82.125c-29.18 0.050781-57.535-9.7148-80.492-27.73 20.18-17.543 36.363-39.207 47.457-63.531 11.094-24.328 16.84-50.75 16.855-77.488v-2.6641c1.1797-0.30078 2.3047-0.71094 3.4688-1.0859l30.43 172.5zm-16.18-211.29v-64.914c11.582 6.7031 18.715 19.074 18.715 32.457s-7.1328 25.754-18.715 32.457zm-63.02-312.66c-15.387-10.438-32.008-18.926-49.48-25.277v-13.273c-0.085938-6.5234-1.0352-13.004-2.832-19.273 22.906 13.512 41.152 33.684 52.312 57.824zm-161.98-38.551c0-13.398 7.1484-25.777 18.75-32.477 11.602-6.6992 25.898-6.6992 37.5 0 11.602 6.6992 18.75 19.078 18.75 32.477v3.3203c-12.383-2.1797-24.93-3.2891-37.5-3.3203h-3.2812c-11.461 0.054688-22.902 0.98828-34.219 2.793zm-144.17 187.95c6.9883-42.191 28.785-80.512 61.48-108.09 32.691-27.57 74.141-42.59 116.91-42.363h3.2812c43.695 0.054688 85.961 15.562 119.32 43.777 33.359 28.219 55.664 67.324 62.969 110.4 1.6875 10.801 2.9609 21.43 3.75 31.727 0.44531 5.2422-1.332 10.434-4.8945 14.301-3.5664 3.8711-8.5938 6.0625-13.855 6.043-13.012 0.042969-25.777-3.5586-36.848-10.398-11.066-6.8398-20-16.645-25.777-28.301l-12.789-25.934c-2.082-4.1797-5.6523-7.4336-10.012-9.1211-4.3555-1.6836-9.1836-1.6836-13.539 0-4.3594 1.6875-7.9297 4.9414-10.012 9.1211-9.6562 19.484-24.582 35.871-43.082 47.293-18.5 11.426-39.836 17.434-61.582 17.34h-121.01c-5.3203 0.035156-10.406-2.1953-13.988-6.1328-3.4805-3.7344-5.2305-8.7656-4.8164-13.855 1.0312-11.887 2.5312-23.961 4.5-35.812zm-24.582 130.8c0.007812-13.391 7.1523-25.762 18.75-32.457v64.914c-11.598-6.6953-18.742-19.066-18.75-32.457zm56.25 75v-112.5h103.65c46.188 0.15234 89.98-20.512 119.23-56.25 15.762 29.27 44.285 49.504 77.117 54.711v114.04c0 53.59-28.59 103.11-75 129.9-46.41 26.797-103.59 26.797-150 0-46.41-26.793-75-76.312-75-129.9zm150 187.5c12.594 0.015625 25.156-1.2422 37.5-3.75v22.5c0 13.398-7.1484 25.777-18.75 32.477-11.602 6.6992-25.898 6.6992-37.5 0-11.602-6.6992-18.75-19.078-18.75-32.477v-22.5c12.344 2.5078 24.906 3.7656 37.5 3.75zm-204.82 99.375 141.73-40.48c13.672 21.648 37.488 34.773 63.094 34.773s49.422-13.125 63.094-34.773l141.73 40.48c27.387 7.9219 51.465 24.508 68.625 47.273 17.16 22.766 26.477 50.48 26.551 78.988v93.336l-93.75 0.003906c-4.9727 0-9.7422 1.9727-13.258 5.4883-3.5156 3.5195-5.4922 8.2891-5.4922 13.262v168.52h-375v-168.52c0-4.9727-1.9766-9.7422-5.4922-13.262-3.5156-3.5156-8.2852-5.4883-13.258-5.4883h-93.75v-93.34c0.074219-28.508 9.3906-56.223 26.551-78.988 17.16-22.766 41.238-39.352 68.625-47.273zm-170.18-286.88c0 53.59-28.59 103.11-75 129.9-46.41 26.797-103.59 26.797-150 0-46.41-26.793-75-76.312-75-129.9v-114.04c32.832-5.207 61.355-25.441 77.117-54.711 29.254 35.738 73.047 56.402 119.23 56.25h103.65zm-337.5-107.46v64.914c-11.582-6.7031-18.715-19.074-18.715-32.457s7.1328-25.754 18.715-32.457zm375 64.914v-64.914c11.582 6.7031 18.715 19.074 18.715 32.457s-7.1328 25.754-18.715 32.457zm-150-351.21v2.793c-11.316-1.8047-22.758-2.7383-34.219-2.793h-3.2812c-12.57 0.03125-25.117 1.1406-37.5 3.3203v-3.3203c0-13.398 7.1484-25.777 18.75-32.477 11.602-6.6992 25.898-6.6992 37.5 0 11.602 6.6992 18.75 19.078 18.75 32.477zm-109.67-19.273c-1.7969 6.2695-2.7461 12.75-2.832 19.273v13.273c-17.477 6.3516-34.098 14.848-49.48 25.297 11.152-24.152 29.398-44.328 52.312-57.844zm-110.1 210.94c7.3008-43.078 29.602-82.184 62.957-110.39 33.359-28.215 75.621-43.719 119.31-43.77h3.2812c42.766-0.22656 84.215 14.793 116.91 42.363 32.695 27.574 54.492 65.895 61.48 108.09 1.9688 11.852 3.4688 23.887 4.5 35.773v0.003906c0.42188 5.1016-1.3281 10.145-4.8164 13.891-3.582 3.9375-8.668 6.168-13.988 6.1328h-121.01c-21.715 0.058594-43.008-5.9648-61.473-17.387-18.465-11.426-33.363-27.789-43.004-47.246-2.082-4.1797-5.6523-7.4336-10.012-9.1211-4.3555-1.6836-9.1836-1.6836-13.539 0-4.3594 1.6875-7.9297 4.9414-10.012 9.1211l-12.957 25.93v0.003906c-5.7852 11.672-14.734 21.484-25.82 28.324-11.086 6.8438-23.871 10.438-36.898 10.375-5.2578 0.019531-10.281-2.1719-13.848-6.0352-3.5664-3.8672-5.3438-9.0508-4.9023-14.289 0.86328-10.312 2.1211-20.926 3.8438-31.762zm-21.41 370.84h-17.719l30.43-172.5c1.1641 0.375 2.2891 0.78906 3.4688 1.0859v2.6641c0.015625 26.738 5.7617 53.16 16.855 77.488 11.094 24.324 27.277 45.988 47.457 63.531-22.957 18.016-51.312 27.781-80.492 27.73zm203.68 18.75c12.594 0.015625 25.156-1.2422 37.5-3.75v22.5c0 13.398-7.1484 25.777-18.75 32.477-11.602 6.6992-25.898 6.6992-37.5 0-11.602-6.6992-18.75-19.078-18.75-32.477v-22.5c12.344 2.5078 24.906 3.7656 37.5 3.75zm-204.82 99.375 141.73-40.48c13.672 21.648 37.488 34.773 63.094 34.773s49.422-13.125 63.094-34.773l141.71 40.48c9.7031 2.8086 19.047 6.7344 27.844 11.699-28.93 31.145-45.051 72.055-45.148 114.56v280.61h-375v-168.52c0-4.9727-1.9766-9.7422-5.4922-13.262-3.5156-3.5156-8.2852-5.4883-13.258-5.4883h-93.75v-93.34c0.074219-28.508 9.3906-56.223 26.551-78.988 17.16-22.766 41.238-39.352 68.625-47.273zm-95.176 406.88v-149.77h75v149.77zm525 0v-149.77h75v149.77zm600 0h-75v-149.77h75z"/>
 <path d="m806.25 412.5c0-6.6992-3.5742-12.887-9.375-16.238-5.8008-3.3477-12.949-3.3477-18.75 0-5.8008 3.3516-9.375 9.5391-9.375 16.238v18.75c0 6.6992 3.5742 12.887 9.375 16.238 5.8008 3.3477 12.949 3.3477 18.75 0 5.8008-3.3516 9.375-9.5391 9.375-16.238z"/>
 <path d="m937.5 450c4.9727 0 9.7422-1.9766 13.258-5.4922 3.5156-3.5156 5.4922-8.2852 5.4922-13.258v-18.75c0-6.6992-3.5742-12.887-9.375-16.238-5.8008-3.3477-12.949-3.3477-18.75 0-5.8008 3.3516-9.375 9.5391-9.375 16.238v18.75c0 4.9727 1.9766 9.7422 5.4922 13.258 3.5156 3.5156 8.2852 5.4922 13.258 5.4922z"/>
 <path d="m913.26 557.01c4.5977-4.7656 6.3438-11.598 4.5938-17.984-1.75-6.3867-6.7383-11.375-13.125-13.125-6.3867-1.75-13.219-0.003907-17.984 4.5938-5.3203 8.2266-14.445 13.191-24.242 13.191s-18.922-4.9648-24.242-13.191c-4.7656-4.5977-11.598-6.3438-17.984-4.5938-6.3867 1.75-11.375 6.7383-13.125 13.125-1.75 6.3867-0.003907 13.219 4.5938 17.984 12.391 15.332 31.047 24.242 50.758 24.242s38.367-8.9102 50.758-24.242z"/>
 <path d="m412.5 393.75c-4.9727 0-9.7422 1.9766-13.258 5.4922-3.5156 3.5156-5.4922 8.2852-5.4922 13.258v18.75c0 6.6992 3.5742 12.887 9.375 16.238 5.8008 3.3477 12.949 3.3477 18.75 0 5.8008-3.3516 9.375-9.5391 9.375-16.238v-18.75c0-4.9727-1.9766-9.7422-5.4922-13.258-3.5156-3.5156-8.2852-5.4922-13.258-5.4922z"/>
 <path d="m281.25 412.5c0-6.6992-3.5742-12.887-9.375-16.238-5.8008-3.3477-12.949-3.3477-18.75 0-5.8008 3.3516-9.375 9.5391-9.375 16.238v18.75c0 6.6992 3.5742 12.887 9.375 16.238 5.8008 3.3477 12.949 3.3477 18.75 0 5.8008-3.3516 9.375-9.5391 9.375-16.238z"/>
 <path d="m361.74 530.49c-5.3203 8.2266-14.445 13.191-24.242 13.191s-18.922-4.9648-24.242-13.191c-4.7656-4.5977-11.598-6.3438-17.984-4.5938-6.3867 1.75-11.375 6.7383-13.125 13.125-1.75 6.3867-0.003907 13.219 4.5938 17.984 12.934 14.629 31.25 23.379 50.758 24.242 19.508-0.86328 37.824-9.6133 50.758-24.242 4.5977-4.7656 6.3438-11.598 4.5938-17.984-1.75-6.3867-6.7383-11.375-13.125-13.125-6.3867-1.75-13.219-0.003907-17.984 4.5938z"/>
</svg>
