<?xml version="1.0" encoding="UTF-8"?>
<svg id="Layer_1" data-name="Layer 1" xmlns="http://www.w3.org/2000/svg" viewBox="0 0 479.516 954.136">
  <path d="M405.33,599.386l-8.297-234.94c-1.078-29.297-13.688-57-34.312-77.156C492.661,203.524,434.018,1.07,278.487,0,119.347,1.547,63.797,210,200.018,290.63c-20.531,21.844-31.922,51.234-30.844,81.844l4.781,134.06c-17.391,4.078-35.625,6.938-51.609,9.234-41.156,6.609-59.391,41.391-56.062,73.547-33.609,2.391-60.703,30.141-61.453,64.219L.05,886.824c-1.453,35.531,29.156,67.312,64.688,67.312h1.312c35.625,0,65.297-29.062,66-64.688l3.469-169.31c87.844-2.625,151.55.469,179.63-5.531,54.234-11.625,92.062-60,90.141-115.45l.04.229ZM117.65,684.558c-9.703.141-17.531,7.922-17.766,17.625l-3.844,186.71c-.375,16.219-13.781,29.391-30.609,29.391-16.078,0-30-14.531-29.391-30.609l4.781-233.29c.375-16.219,13.781-29.391,30-29.391h10.219c10.781,12.938,27.234,21.938,49.547,22.312,6.141.234,18.703-2.062,24.938-2.859,47.156-8.156,80.859-13.781,126-37.547,13.453-7.922,24.234-16.312,33.609-26.531,2.531-2.859,4.547-5.156,7.219-8.859,5.062-6.375,10.688-19.078,13.922-26.531,3.234-6.609,4.547-13.078,6.469-19.547,1.688-5.531,2.391-10.078,3.375-15.234,2.062-10.078,2.766-18.375,3.938-27.609,4.078-49.312,2.062-88.547-2.531-141.37-.938-9.844-9.703-17.156-19.547-16.219s-17.156,9.703-16.219,19.547c4.312,50.062,6.234,87.844,2.531,134.16-.938,8.062-1.688,16.078-3.375,24.141-.844,4.312-1.219,7.688-2.625,12.375-1.219,3.844-2.625,10.547-4.453,14.297l-7.219,15.609-3.844,5.859c-1.453,1.922-3,3.609-4.547,5.391-6.469,6.938-14.625,13.312-24.469,19.078-39.234,20.625-71.625,25.922-113.39,33.234l-15.141,2.156c-16.312,2.625-32.859-9.375-33.703-25.922-1.078-16.453,10.453-31.453,25.922-33.609l13.547-1.922c18.844-2.766,41.859-7.453,58.688-12.469,21.703-7.219,45.141-12.469,50.156-35.297,1.078-3.141,1.453-5.859,1.922-8.766,1.453-6.234,2.062-13.219,2.766-19.547,3.375-42.938,1.453-76.547-2.531-123-.938-9.844-9.703-17.156-19.547-16.219s-17.156,9.703-16.219,19.547c3.703,43.453,5.625,75.938,2.531,115.78-.469,6.469-2.062,14.297-2.766,20.062-.469.938-.703,2.297-1.078,3.375-1.688.844-3.609,1.547-5.297,2.391l-4.453-123.94c-.938-28.078,13.453-54.703,37.781-69.469,12.938-7.312,10.688-27.938-3.469-32.391-126.84-46.078-96.141-230.86,39-233.39,132.14,1.922,166.22,181.92,43.781,231.61-6.469,2.531-10.922,8.625-11.391,15.609-.469,6.938,3.234,13.547,9.375,16.922,24.234,13.312,39.844,38.391,40.781,65.625l8.297,234.94c1.922,41.625-30.609,76.688-71.625,80.859-5.531,0-109.92,2.156-180.14,3l.094-.068Z"/>
  <path d="M479.25,924.676s-25.312-159.84-27.844-175.92v-289.69c-.375-23.766-35.625-23.625-36,0v273.14h-248.06c-23.625.375-23.625,35.625,0,36h36.469c-5.156,32.391-24.844,156.47-24.844,156.47-1.781,10.781,6.844,20.859,17.766,20.766,8.625,0,16.312-6.375,17.766-15.234,0,0,18.844-119.3,25.688-162.14h177.84l25.688,162.14c1.453,8.859,9,15.234,17.766,15.234,10.922,0,19.688-9.938,17.766-20.766h0Z"/>
</svg>