<?xml version="1.0" encoding="UTF-8"?>
<svg width="1200pt" height="1200pt" version="1.1" viewBox="0 0 1200 1200" xmlns="http://www.w3.org/2000/svg">
 <path d="m1134.4 780c-48.75-80.625-90-165-123.74-249.37-41.25-105-73.125-215.63-91.875-326.26 0-5.625-3.75-9.375-9.375-13.125v-45c0-33.75 1.875-46.875 0-58.125-16.875-41.25-174.37-50.625-307.5-50.625s-290.63 9.375-307.5 50.625c-3.75-3.75 0 101.25 0 103.12-3.75 1.875-7.5 7.5-7.5 11.25-20.625 112.5-50.625 221.26-91.875 326.26-33.75 86.25-75 170.63-123.74 249.37-35.625 67.5 20.625 106.88 71.25 140.63-7.5 22.5-1.875 46.875 15 61.875 75 65.625 155.63 91.875 202.5 101.25 3.75 7.5 11.25 13.125 18.75 16.875 48.75 28.125 127.5 61.875 226.87 61.875 99.371 0 140.63-11.25 226.87-61.875 7.5-3.75 13.125-11.25 18.75-16.875 46.875-9.375 127.5-35.625 202.5-101.25 18.75-15 24.375-39.375 15-61.875 48.75-33.75 108.75-73.125 71.25-140.63zm-806.26-581.26v-71.25c88.125 26.25 181.87 22.5 271.87 24.375 90 0 185.63 0 271.87-24.375v71.25c-22.5 11.25-123.74 26.25-271.87 26.25s-249.37-15-271.87-26.25zm525-103.12c-82.5 16.875-168.74 18.75-253.13 20.625-84.375 0-170.63-1.875-253.13-20.625 41.25-9.375 131.26-20.625 253.13-20.625s213.74 9.375 253.13 20.625zm241.87 753.74c-15 13.125-31.875 26.25-48.75 37.5-80.625-146.26-150-318.74-195-457.5l-28.125-78.75c-3.75-9.375-15-15-24.375-11.25s-15 15-11.25 24.375c9.375 28.125 18.75 54.375 28.125 78.75 46.875 146.26 125.63 335.63 211.87 489.37 3.75 7.5 1.875 18.75-3.75 24.375-61.875 52.5-125.63 76.875-168.74 88.125-67.5-211.87-116.25-429.37-142.5-650.63-3.75-24.375-39.375-20.625-37.5 3.75 18.75 165 50.625 330 93.75 489.37 15 54.375 30 106.88 46.875 161.26 1.875 7.5 0 16.875-7.5 22.5-84.375 48.75-166.87 56.25-208.13 56.25-91.875 0-165-30-208.13-56.25-7.5-3.75-11.25-13.125-7.5-22.5 16.875-52.5 33.75-106.88 46.875-161.26 43.125-159.37 75-324.37 93.75-489.37 0-9.375-5.625-18.75-16.875-20.625-11.25 0-18.75 5.625-20.625 16.875-26.25 221.26-75 438.74-142.5 650.63-43.125-11.25-108.75-35.625-168.74-88.125-7.5-5.625-7.5-15-3.75-24.375 84.375-150 165-341.26 210-487.5 9.375-26.25 18.75-52.5 28.125-80.625 3.75-9.375 0-20.625-11.25-24.375-9.375-3.75-20.625 0-24.375 11.25-58.125 174.37-123.74 358.13-223.13 536.26-28.125-22.5-78.75-45-56.25-88.125 48.75-82.5 91.875-166.87 125.63-255 39.375-101.25 69.375-204.37 90-311.26 50.625 24.375 176.26 30 285 30 108.74 0 234.37-5.625 285-30 20.625 106.88 50.625 210 90 311.26 35.625 88.125 76.875 174.37 125.63 255 9.375 16.875 7.5 37.5-7.5 50.625z"/>
</svg>
