<?xml version="1.0" encoding="UTF-8"?>
<svg id="Layer_1" data-name="Layer 1" xmlns="http://www.w3.org/2000/svg" viewBox="0 0 1115.914 972.939">
  <path d="M449.251,454.539c4.312-8.906,15.047-12.656,24-8.344,8.906,4.312,12.656,15.047,8.344,24-12.516,25.828-32.203,47.578-56.438,62.766-23.484,14.719-51.188,23.25-80.766,23.25-30.141,0-58.359-8.812-82.031-24l-.984-.703c-16.547-10.734-30.891-24.656-42.141-40.828-8.625,8.016-18.375,14.906-28.922,20.344-17.953,9.281-38.344,14.578-59.812,14.578-36,0-68.672-14.625-92.25-38.203l-.984-1.078C14.204,462.743,0,430.54,0,395.149c0-32.859,12.234-63,32.391-85.969,17.766-20.25,41.859-35.016,69.094-41.203,9.984-32.344,29.531-60.469,55.359-81,28.359-22.547,64.219-36,103.17-36,24.047,0,47.016,5.203,67.781,14.484,16.078,7.219,30.844,16.922,43.688,28.594,8.719-6.516,18.281-12,28.547-16.172,15.328-6.328,32.062-9.797,49.5-9.797,5.812,0,11.812.422,17.859,1.266,32.203,4.406,60.375,20.484,80.438,43.547,19.547,22.406,31.5,51.422,32.156,82.688,4.359.281,8.625.75,12.844,1.453,8.531-39.938,29.531-75.234,58.734-101.53,33.75-30.422,78.422-48.938,127.4-48.938,10.031,0,20.203.844,30.281,2.484,10.406,1.688,20.297,4.078,29.578,7.172,9.422,3.094,14.578,13.266,11.484,22.734-3.094,9.422-13.266,14.578-22.734,11.484-7.969-2.625-15.984-4.641-23.906-5.906-7.781-1.219-16.031-1.922-24.703-1.922-39.75,0-76.031,15-103.36,39.656-24.469,22.078-41.906,51.891-48.328,85.547,5.016,2.344,9.844,5.016,14.484,7.969,20.906,13.312,37.828,32.438,48.375,55.172,16.781,1.547,32.859,5.906,47.625,12.516,14.156,6.328,27.141,14.766,38.531,24.891,7.594-5.531,15.891-10.219,24.75-13.828,13.969-5.719,29.203-8.906,45.094-8.906,5.25,0,10.734.422,16.219,1.125,19.922,2.719,38.203,10.359,53.578,21.562,4.125-7.922,7.547-16.219,10.312-24.844,4.594-14.625,7.125-30.281,7.125-46.5,0-8.625-.656-16.875-1.922-24.703-1.266-7.922-3.281-15.938-5.906-23.953-3.094-9.422,2.016-19.594,11.484-22.734,9.422-3.094,19.594,2.016,22.734,11.484,3.047,9.281,5.484,19.172,7.172,29.578,1.594,10.125,2.484,20.25,2.484,30.281,0,19.922-3.094,39.234-8.812,57.328-4.5,14.25-10.641,27.844-18.234,40.5,13.5,18.609,21.703,41.109,22.594,65.203,26.906,2.062,51.516,13.219,70.594,30.516,21.188,19.219,35.531,46.078,38.438,76.5.375,4.172.609,8.016.609,11.438,0,32.766-13.312,62.438-34.781,83.953-21.469,21.562-51.234,34.875-84,34.875-25.594,0-49.406-8.156-68.859-22.031-10.922-7.781-20.484-17.344-28.219-28.312-9.422,11.391-20.672,21.281-33.281,29.203-21.328,13.406-46.547,21.141-73.453,21.141-27.375,0-52.922-8.016-74.484-21.797-14.859-9.469-27.75-21.703-38.016-36-7.453,6.703-15.797,12.469-24.797,17.109-16.359,8.484-34.922,13.266-54.469,13.266-6.938,0-14.109-.703-21.281-1.969-7.219-1.312-14.109-3.234-20.578-5.672-9.281-3.469-13.969-13.828-10.5-23.109s13.828-13.969,23.109-10.5c4.641,1.734,9.469,3.094,14.344,3.984,4.547.844,9.562,1.266,14.859,1.266,13.781,0,26.719-3.328,38.016-9.188,11.625-6,21.656-14.766,29.297-25.312,1.781-2.719,4.312-4.969,7.453-6.422,9-4.172,19.688-.234,23.859,8.766,8.25,17.859,21.516,32.953,38.016,43.5,15.844,10.125,34.781,16.031,55.172,16.031,20.016,0,38.672-5.672,54.328-15.516,16.031-9.984,29.109-24.375,37.547-41.391,1.922-4.594,5.719-8.344,10.734-10.078,9.375-3.234,19.641,1.781,22.875,11.203,5.672,16.453,16.406,30.609,30.281,40.5,13.5,9.609,30.094,15.281,48.047,15.281,22.875,0,43.594-9.281,58.547-24.234,15-14.953,24.234-35.672,24.234-58.547l-.328-8.062c-2.016-21.188-12-39.891-26.766-53.297-14.719-13.359-34.359-21.469-55.641-21.469l-7.547.281c-1.5.188-3.047.188-4.641-.047-9.844-1.312-16.688-10.359-15.375-20.203.469-3.562.703-7.406.703-11.391,0-20.203-7.359-39-19.641-53.438l-.75-.844c-12.75-14.672-30.656-24.891-51-27.703-3.469-.469-7.312-.703-11.438-.703-11.203,0-21.891,2.203-31.453,6.094-9.75,4.031-18.609,9.844-26.109,17.109l-1.359,1.312c-7.406,6.609-18.797,5.906-25.406-1.5-10.734-12.047-23.906-21.797-38.672-28.453-13.828-6.188-29.25-9.75-45.516-9.938h-1.359c-26.953,0-51.75,9.281-71.297,24.797-19.969,15.891-34.547,38.297-40.453,63.984-1.641,7.125-7.594,12.797-15.234,13.781-20.391,2.625-38.531,12.75-51.469,27.516-12.75,14.531-20.531,33.656-20.531,54.656,0,6.422.656,12.516,1.922,18.141,1.312,5.953,3.328,11.719,5.859,17.156,4.172,8.953.328,19.641-8.625,23.859-8.953,4.172-19.641.328-23.859-8.625-3.609-7.734-6.469-15.984-8.391-24.609-1.875-8.531-2.906-17.25-2.906-25.875,0-29.953,11.156-57.328,29.484-78.281,15.984-18.234,37.5-31.5,61.875-37.266,9.141-28.922,26.766-54.094,49.922-72.516,19.172-15.234,42.188-25.922,67.266-30.375-7.266-10.641-16.594-19.734-27.422-26.625-6.188-3.938-12.891-7.219-19.922-9.656l-.422-.141-.094-.047-.328-.094-.422-.141c-11.859-3.938-24.75-5.531-38.062-4.312-1.5.188-3.094.188-4.641,0-9.844-1.312-16.688-10.359-15.375-20.203.562-4.125.844-8.484.844-13.031,0-23.391-8.766-45.188-23.25-61.875-14.531-16.734-34.922-28.406-58.172-31.547-4.031-.516-8.391-.844-13.078-.844-12.797,0-24.938,2.484-35.859,6.984-11.156,4.594-21.281,11.297-29.859,19.594l-1.359,1.312c-7.406,6.609-18.797,5.906-25.406-1.5-12.141-13.641-27.094-24.703-43.875-32.25-16.125-7.219-34.125-11.25-53.156-11.25-30.562,0-58.641,10.547-80.812,28.125-22.641,18-39.188,43.406-45.844,72.516-1.641,7.125-7.594,12.797-15.234,13.781-23.297,3-43.969,14.578-58.734,31.406-14.578,16.594-23.438,38.438-23.438,62.344,0,25.688,10.219,48.984,26.766,65.953l.891.844c17.062,17.062,40.734,27.656,66.797,27.656,15.703,0,30.469-3.797,43.406-10.5,13.266-6.844,24.75-16.828,33.422-28.922,1.781-2.719,4.312-4.969,7.5-6.422,9-4.172,19.688-.234,23.859,8.766,9.234,20.016,23.953,36.938,42.188,48.844l.984.562c18,11.531,39.516,18.234,62.625,18.234,22.781,0,43.969-6.469,61.781-17.625,18.422-11.531,33.469-28.219,43.078-48l.007.093ZM132.751,915.039c-8.109,5.719-19.312,3.75-25.031-4.359s-3.75-19.312,4.359-25.031c30.234-21.328,56.391-1.312,84.516,20.203,5.672,4.312,11.438,8.766,17.203,12.703,5.766-3.938,11.531-8.344,17.203-12.703,28.125-21.516,54.328-41.531,84.516-20.203,8.109,5.719,10.078,16.922,4.359,25.031s-16.922,10.078-25.031,4.359c-8.719-6.141-24.797,6.141-42.047,19.359-9.516,7.266-19.359,14.812-29.766,20.812-5.391,3.188-12.328,3.516-18.141.188-10.547-6.047-20.438-13.641-30.094-21-17.25-13.219-33.328-25.5-42.047-19.359h0ZM751.361,930.227c-8.109,5.719-19.312,3.75-25.031-4.359s-3.75-19.312,4.359-25.031c30.234-21.328,56.391-1.312,84.516,20.203,5.672,4.312,11.438,8.766,17.203,12.703,5.766-3.938,11.531-8.344,17.203-12.703,28.125-21.516,54.328-41.531,84.516-20.203,8.109,5.719,10.078,16.922,4.359,25.031s-16.922,10.078-25.031,4.359c-8.719-6.141-24.797,6.141-42.047,19.359-9.516,7.266-19.359,14.812-29.766,20.812-5.391,3.188-12.328,3.516-18.141.188-10.547-6.047-20.438-13.641-30.094-21-17.25-13.219-33.328-25.5-42.047-19.359h0ZM534.571,839.618c-8.109,5.719-19.312,3.75-25.031-4.359s-3.75-19.312,4.359-25.031c30.234-21.328,56.391-1.312,84.516,20.203,5.672,4.312,11.438,8.766,17.203,12.703,5.766-3.938,11.531-8.344,17.203-12.703,28.125-21.516,54.328-41.531,84.516-20.203,8.109,5.719,10.078,16.922,4.359,25.031s-16.922,10.078-25.031,4.359c-8.719-6.141-24.797,6.141-42.047,19.359-9.516,7.266-19.359,14.812-29.766,20.812-5.391,3.188-12.328,3.516-18.141.188-10.547-6.047-20.438-13.641-30.094-21-17.25-13.219-33.328-25.5-42.047-19.359h0ZM622.321,154.878c7.031,7.031,7.031,18.422,0,25.453s-18.422,7.031-25.453,0l-56.203-56.203c-7.031-7.031-7.031-18.422,0-25.453s18.422-7.031,25.453,0l56.203,56.203ZM1018.461,354.988c-9.938,0-18-8.062-18-18s8.062-18,18-18h79.453c9.938,0,18,8.062,18,18s-8.062,18-18,18h-79.453ZM960.992,180.328c-7.031,7.031-18.422,7.031-25.453,0s-7.031-18.422,0-25.453l56.203-56.203c7.031-7.031,18.422-7.031,25.453,0s7.031,18.422,0,25.453l-56.203,56.203ZM796.972,97.453c0,9.938-8.062,18-18,18s-18-8.062-18-18V18c0-9.938,8.062-18,18-18s18,8.062,18,18v79.453ZM174.282,613.733c5.578,0,11.391.516,17.25,1.453l4.547.844c10.547-11.812,23.203-21.609,37.312-28.828l.938-.422c17.109-8.531,36.375-13.359,56.719-13.359,30.375,0,58.359,10.734,80.297,28.547,18.562,15.094,32.812,35.344,40.594,58.594,20.109,1.828,38.156,10.781,51.656,24.234,15.188,15.188,24.609,36.234,24.609,59.438s-9.422,44.203-24.609,59.438c-15.188,15.188-36.234,24.609-59.391,24.609-11.812,0-23.203-2.531-33.562-7.031-5.906-2.578-11.484-5.812-16.547-9.609-7.359,4.172-15.188,7.688-23.344,10.359-12.516,4.078-25.828,6.328-39.609,6.328-12.938,0-25.594-2.016-37.547-5.719-8.25-2.531-16.125-5.859-23.531-9.938-6.469,3.891-13.359,7.172-20.672,9.703-10.969,3.844-22.781,5.906-35.016,5.906-29.578,0-56.391-12-75.75-31.406-19.453-19.453-31.5-46.266-31.5-75.844s12-56.438,31.406-75.844l1.078-.984c19.312-18.797,45.703-30.422,74.766-30.422l-.093-.047ZM185.813,650.577c-3.516-.516-7.406-.844-11.531-.844-19.266,0-36.797,7.641-49.594,20.016l-.797.844c-12.891,12.891-20.859,30.703-20.859,50.391s7.969,37.547,20.812,50.438c12.891,12.844,30.703,20.812,50.438,20.812,8.156,0,16.031-1.406,23.297-3.891,7.453-2.531,14.438-6.375,20.672-11.25,6-4.688,14.578-5.25,21.234-.703,7.5,5.109,15.75,9.188,24.516,11.859,8.391,2.578,17.484,3.984,27,3.984,9.984,0,19.594-1.594,28.5-4.5,9.141-3,17.719-7.406,25.312-12.984,7.266-5.531,17.672-4.734,24,2.062,4.5,4.828,9.984,8.766,16.031,11.438,5.812,2.531,12.328,3.938,19.219,3.938,13.266,0,25.266-5.391,33.938-14.062s14.062-20.719,14.062-33.938-5.391-25.266-14.062-33.938-20.672-14.062-33.938-14.062l-4.828.188c-8.766.516-16.875-5.484-18.703-14.344-4.312-20.906-15.891-39.234-31.922-52.266-15.656-12.75-35.719-20.391-57.656-20.391-14.625,0-28.406,3.422-40.594,9.469l-.75.375c-12.656,6.469-23.625,15.656-31.969,26.812-4.359,6.75-12.844,9.938-20.766,7.266-3.562-1.172-7.312-2.156-11.109-2.766l.047.047ZM887.023,226.547c-6.984-7.031-6.938-18.375.094-25.406,7.031-6.984,18.375-6.938,25.406.094l2.203,2.203c6.984,7.031,6.938,18.375-.094,25.406-7.031,6.984-18.375,6.938-25.406-.094l-2.203-2.203Z"/>
</svg>