<?xml version="1.0" encoding="UTF-8"?>
<svg width="1200pt" height="1200pt" version="1.1" viewBox="0 0 1200 1200" xmlns="http://www.w3.org/2000/svg">
 <path d="m1066.1 784.08h-282.37c-12.375-44.625-50.531-77.391-96.938-82.547-19.922-57.703-94.219-51.234-119.06-4.5469l-124.55-4.4531c-21.844-0.70312-43.453 4.9219-62.062 15.938-31.781-190.22-304.45-172.78-310.55 21.375-0.375 48.609 21 88.922 52.781 116.39-19.781 15.469-33.844 37.078-37.453 64.922-0.375 5.0625 1.3125 9.9375 4.6875 13.688 3.375 3.7031 8.1562 5.7656 13.219 5.7656h225.37c10.219 0.23438 18.938-9.375 18-19.453-2.8594-22.922-12.938-41.531-27.609-56.062 4.0781-3.1406 8.1562-6.4688 12.141-10.078 15.375 42.609 55.453 73.781 103.22 75.469l234.94 8.2969h3.9375c18 0 35.766-4.3125 51.938-12.703h340.22c87.375-3.1406 87.375-128.86 0-132zm-937.92 110.62c24.703-54.703 151.92-54.938 176.86 0zm937.92-14.625h-344.76c-3.1406 0-6.2344 0.84375-8.8594 2.3906-12.609 7.2188-26.859 10.688-41.156 10.219l-234.94-8.2969c-42.844-1.5469-76.547-37.547-75.234-80.391 0.46875-9.9375-8.0625-18.703-18-18.609-6 0-11.859 3-15.234 8.3906-10.312 16.312-24.141 29.391-40.078 39-39-19.078-90-20.766-131.06-5.0625-84.375-58.453-60.938-212.63 69.703-217.92 66.141 0 120 53.859 120 120 0 4.6875-0.375 9.7031-1.2188 15.703-1.0781 8.0625 3.4688 15.844 10.922 18.938 7.4531 3.1406 16.219 0.84375 21.141-5.625 15.469-19.922 39.609-31.219 64.312-30.469l117.7 4.2188v6.7031l-17.297 2.7656c-26.625 2.5312-60.375 1.4531-100.45-3-9.8438-1.0781-18.844 6-19.922 15.844s6 18.703 15.844 19.922c43.078 4.7812 78.375 5.8594 108.47 3 5.625-0.60938 16.078-2.1562 21.609-3.4688 4.5469-1.2188 8.8594-2.2969 14.531-6.375 12.375-9.375 12.938-23.297 13.219-28.922 0-3.6094 0.14062-7.7812-0.23438-11.156 1.0781-33.469 55.781-50.531 59.859-3.375 0.46875 5.5312 0.375 12.141 0.23438 18-2.2969 50.297-27.703 78.375-69.938 89.156-5.8594 1.4531-10.219 2.2969-14.766 3.1406l-18.703 2.625c-44.062 3.9375-84.234 0.84375-121.08-3.1406h-0.14062c-9.8438-1.0781-18.703 6.1406-19.781 15.938-1.0781 9.8438 6.1406 18.703 15.938 19.781 25.922 2.7656 53.297 5.1562 83.062 5.1562 14.766 0 30.141-0.60938 46.078-2.0625l18.234-2.3906c7.0781-1.4531 11.625-2.1562 20.859-4.4531 16.219-4.9219 34.547-11.156 49.688-23.625 27.703-19.688 44.766-55.453 46.781-99.141v-5.0625c30.703 7.3125 55.312 33.375 59.625 65.531 1.2188 8.8594 8.8594 15.609 17.859 15.609h297c39.844 1.0781 39.234 59.062 0 60z"/>
 <path d="m169.92 450.61h30.609l-36.375 36.375c-5.1562 5.1562-6.7031 12.844-3.9375 19.547s9.375 11.156 16.688 11.156h91.078c23.625-0.375 23.625-35.625 0-36h-47.625l36.375-36.375c5.1562-5.1562 6.7031-12.844 3.9375-19.547s-9.375-11.156-16.688-11.156h-74.062c-23.625 0.375-23.625 35.625 0 36z"/>
 <path d="m238.22 305.29h30.609l-36.375 36.375c-5.1562 5.1562-6.7031 12.844-3.9375 19.547s9.375 11.156 16.688 11.156h91.078c23.625-0.375 23.625-35.625 0-36h-47.625l36.375-36.375c5.1562-5.1562 6.7031-12.844 3.9375-19.547s-9.375-11.156-16.688-11.156h-74.062c-23.625 0.375-23.625 35.625 0 36z"/>
</svg>
