<?xml version="1.0" encoding="UTF-8"?>
<svg id="Layer_1" data-name="Layer 1" xmlns="http://www.w3.org/2000/svg" viewBox="0 0 979.197 758.4">
  <defs>
    <style>
      .cls-1 {
        fill: #ff1717;
        fill-rule: evenodd;
      }
    </style>
  </defs>
  <path d="M758.4,379.2c0,210-169.2,379.2-379.2,379.2S0,589.2,0,379.2,169.2,0,379.2,0c208.8-.004,379.2,170.4,379.2,379.2h0Z"/>
  <path d="M794.401,656.402c0,50.398,42,92.398,92.398,92.398s92.398-42,92.398-92.398-42-92.398-92.398-92.398c-51.602,0-92.398,40.801-92.398,92.398ZM813.6,656.402c0-39.602,32.398-72,72-72s72,32.398,72,72-32.398,72-72,72-72-32.398-72-72h0Z"/>
  <path class="cls-1" d="M898.44,467.191l47.052-46.792c2.437-2.423,6.378-2.412,8.801.024l23.095,23.223c2.423,2.437,2.412,6.378-.024,8.801l-97.342,96.805c-2.437,2.423-6.378,2.412-8.801-.024l-96.805-97.342c-2.423-2.437-2.412-6.378.024-8.801l23.223-23.095c2.437-2.423,6.378-2.412,8.801.024l46.792,47.052.469-169.624c.01-3.444,2.806-6.215,6.24-6.206l32.74.091c3.434.009,6.215,2.796,6.206,6.24l-.47,169.624Z"/>
</svg>