<?xml version="1.0" encoding="UTF-8"?>
<svg id="Layer_1" xmlns="http://www.w3.org/2000/svg" version="1.1" viewBox="0 0 1101.8 1102.1">
  <!-- Generator: Adobe Illustrator 29.2.1, SVG Export Plug-In . SVG Version: 2.1.0 Build 116)  -->
  <defs>
    <style>
      .st0 {
        fill: #a7d4ff;
      }

      .st1 {
        fill: #d9e3eb;
      }
    </style>
  </defs>
  <polygon class="st1" points="634.8 23 521 57 451.1 187 363.9 177 265.8 251 179.5 263 121.8 361.1 34.6 397 25.8 500 80.2 543 932.8 543 1047.8 473 1082.8 352 1055.8 228 985.8 169 908.8 142 821.8 152 782.8 76 710.8 23 634.8 23"/>
  <path d="M882.7,127.7c-17,0-33.9,2-50.2,5.8C801,46.5,715-8.5,621.4,1.1c-91.1,9.3-162.7,77-178.8,164.8-15.9-5.9-33-9.2-50.6-9.2-55.8,0-106.6,32.3-130.9,81.9-6.4-1-13-1.5-19.7-1.5-62.1,0-115.2,44.2-128.1,103.4h-1c-62,0-112.4,50.4-112.4,112.4s50.4,112.4,112.4,112.4h770.4c120.7,0,218.9-98.2,218.9-219s-98.3-218.7-219-218.7h0ZM552.2,530.8H112.4c-42.8,0-77.8-34.9-77.8-77.8s34.9-77.8,77.8-77.8,9,.2,12.2,1c4.9,1,9.9-.2,13.8-3.2,3.9-3,6.5-7.6,6.8-12.5,3.9-49.7,46.2-88.6,96.1-88.6s17.2,1.1,25.2,3.4c8.7,2.6,18-2.2,21-10.8,15.9-43.7,57.8-73.2,104.2-73.2s77.2,21.7,96.8,56.7c4,7.2,12.5,10.5,20.3,8.1,14.4-4.5,29-6.8,43.1-6.8,77.8,0,141,63.2,141,140.7,0,77.5-63.1,140.9-140.9,140.9h0ZM882.7,530.8h-226c43.1-32,71.2-83.2,71.2-140.7,0-96.8-78.8-175.5-175.7-175.5s-27,1.6-40.5,4.9c-10-14.4-22.4-26.8-36.5-36.6,9.2-78,70.6-139.2,149.8-147.3,82.4-8.4,157.7,43.5,179.4,123.6,1.2,4.5,4.3,8.4,8.4,10.8s9,2.7,13.6,1.4c18-5.8,37-8.7,56.4-8.7,101.5,0,184.2,82.6,184.2,184.2s-82.6,184-184.3,184h0Z"/>
  <path class="st0" d="M237.4,769.6c-4.8-8.3-15.4-11.2-23.8-6.4l-26.4,15.3v-30.6c0-9.6-7.7-17.4-17.4-17.4s-17.4,7.7-17.4,17.4v30.6l-26.4-15.3c-8.3-4.8-18.8-2-23.8,6.4-4.8,8.3-2,18.8,6.4,23.8l26.4,15.3-26.4,15.3c-8.3,4.8-11.2,15.4-6.4,23.8,3.2,5.5,9,8.7,15,8.7s5.9-.8,8.7-2.3l26.4-15.3v30.4c0,9.6,7.7,17.4,17.4,17.4s17.4-7.7,17.4-17.4v-30.4l26.4,15.3c2.7,1.6,5.8,2.3,8.7,2.3,6,0,11.9-3,15-8.7,4.8-8.3,2-18.8-6.4-23.8l-26.4-15.3,26.4-15.3c8.4-4.9,11.2-15.6,6.5-23.8h0Z"/>
  <path class="st0" d="M518.7,985.2c-4.8-8.3-15.4-11.2-23.8-6.4l-26.4,15.2v-30.5c0-9.6-7.7-17.4-17.4-17.4s-17.4,7.7-17.4,17.4v30.5l-26.4-15.2c-8.3-4.8-18.8-2-23.8,6.4-4.8,8.3-2,18.8,6.4,23.8l26.3,15.2-26.3,15.2c-8.3,4.8-11.2,15.4-6.4,23.8,3.2,5.5,9,8.7,15,8.7s5.9-.8,8.7-2.3l26.4-15.2v30.5c0,9.6,7.7,17.4,17.4,17.4s17.4-7.7,17.4-17.4v-30.5l26.4,15.2c2.7,1.6,5.8,2.3,8.7,2.3,6,0,11.9-3.2,15-8.7,4.8-8.3,2-18.8-6.4-23.8l-26.3-15.2,26.3-15.2c8.3-4.8,11.2-15.4,6.5-23.8h0Z"/>
  <path class="st0" d="M736.6,755.8c-4.8-8.3-15.4-11.2-23.8-6.4l-26.4,15.3v-30.4c0-9.6-7.7-17.4-17.4-17.4s-17.4,7.7-17.4,17.4v30.4l-26.4-15.3c-8.3-4.8-18.8-2-23.8,6.4-4.8,8.3-2,18.8,6.4,23.8l26.4,15.3-26.4,15.3c-8.3,4.8-11.2,15.4-6.4,23.8,3.2,5.5,9,8.7,15,8.7s5.9-.8,8.7-2.3l26.4-15.3v30.6c0,9.6,7.7,17.4,17.4,17.4s17.4-7.7,17.4-17.4v-30.6l26.4,15.3c2.7,1.6,5.8,2.3,8.7,2.3,6,0,11.9-3,15-8.7,4.8-8.3,2-18.8-6.4-23.8l-26.4-15.3,26.4-15.3c8.4-4.8,11.2-15.4,6.5-23.8h0Z"/>
  <path class="st0" d="M1029.4,964.9c-4.8-8.3-15.4-11.2-23.8-6.4l-26.3,15.3v-30.4c0-9.6-7.7-17.4-17.4-17.4s-17.4,7.7-17.4,17.4v30.4l-26.4-15.3c-8.3-4.8-18.8-2-23.8,6.4-4.9,8.3-2,18.8,6.4,23.8l26.4,15.3-26.4,15.3c-8.3,4.8-11.2,15.4-6.4,23.8,3.2,5.5,9,8.7,15,8.7s5.9-.8,8.7-2.3l26.4-15.3v30.6c0,9.6,7.7,17.4,17.4,17.4s17.4-7.8,17.4-17.5v-30.6l26.4,15.3c2.7,1.6,5.8,2.3,8.7,2.3,6,0,11.9-3,15-8.7,4.8-8.3,2-18.8-6.4-23.8l-26.4-15.3,26.4-15.3c8.2-4.7,11.1-15.3,6.3-23.7h0Z"/>
  <path class="st0" d="M750.7,607.8c-.4-1-.8-2.1-1.6-3-.6-.8-1.4-1.8-2.2-2.6-.8-.8-1.6-1.6-2.6-2.2-.8-.6-2-1.1-3-1.6-1.1-.5-2.2-.8-3.3-1-2.3-.5-4.5-.5-6.8,0-1.1.2-2.2.5-3.2,1-1.1.5-2.1.8-3,1.6-.8.6-1.8,1.4-2.6,2.2s-1.5,1.7-2.1,2.6-1.2,2-1.6,3c-.5,1.1-.8,2.2-1,3.3-.2,1.1-.4,2.3-.4,3.3,0,4.6,1.8,9,5.2,12.4,1.6,1.6,3.4,3,5.6,3.7,2.1.8,4.3,1.4,6.6,1.4s4.5-.5,6.6-1.4c2.1-.8,4-2.1,5.6-3.7s3-3.6,3.8-5.6,1.2-4.4,1.2-6.8-.1-2.3-.4-3.3c-.2-1.1-.6-2.2-.9-3.3h0Z"/>
  <path class="st0" d="M443,820.8c-.6-.8-1.4-1.8-2.2-2.6-6.5-6.5-18-6.5-24.6,0-.8.8-1.5,1.7-2.1,2.6-.6,1-1.2,2-1.6,3-.5,1.1-.8,2.2-1,3.3-.2,1.2-.2,2.3-.2,3.4s.1,2.3.2,3.3c.2,1.1.5,2.2,1,3.3.5,1,1,2,1.6,3,.6.8,1.5,1.8,2.3,2.6,3.3,3.3,7.6,5.2,12.2,5.2s9-1.8,12.2-5.2c.8-.8,1.6-1.7,2.2-2.6.6-1,1.2-2,1.6-3,.5-1.1.8-2.2,1-3.3.2-1.1.4-2.3.4-3.3s-.1-2.3-.4-3.4c-.2-1.1-.5-2.2-1-3.3-.6-1-1.1-2-1.7-3h0Z"/>
  <path class="st0" d="M195.6,1038c-.5-1.1-1-2.1-1.6-3-.6-1-1.4-2-2.2-2.7-6.5-6.5-18-6.5-24.5,0-3.3,3.3-5,7.7-5,12.4s1.8,9,5,12.2c3.2,3.3,7.6,5,12.2,5s9-1.8,12.2-5c1.6-1.6,3-3.6,3.8-5.6s1.2-4.4,1.2-6.6-.1-2.3-.4-3.4c0-1.3-.5-2.3-.8-3.3h0Z"/>
  <path class="st0" d="M637,1060.2c-1.1.2-2.2.5-3.3,1-1,.5-2,1-3,1.6-.8.5-1.8,1.2-2.6,2.1-3.3,3.3-5.2,7.8-5.2,12.4s1.8,9,5.2,12.2c3.3,3.3,7.6,5.2,12.2,5.2s4.6-.5,6.8-1.2c2.1-.8,4-2.2,5.6-3.8,3.3-3.3,5-7.6,5-12.2s-2-9-5-12.4c-4.1-4.1-10.1-6-15.8-4.8h0Z"/>
  <path class="st0" d="M110,684.1c.8-.8,1.6-1.7,2.2-2.6.6-1,1.2-2,1.6-3,.5-1.1.8-2.2,1-3.3.2-1.1.4-2.3.4-3.3s-.1-2.3-.4-3.4c-.1-1.1-.5-2.2-1-3.3-.5-1-.8-2-1.6-3-.6-1-1.4-1.9-2.2-2.8-6.5-6.5-18-6.5-24.6,0-.8.8-1.6,1.7-2.2,2.6-.5,1-1.1,2-1.6,3-.5,1.1-.8,2.2-1,3.3-.2,1.2-.4,2.3-.4,3.4s.1,2.3.4,3.3c.2,1.1.5,2.2,1,3.3.4,1,.8,2,1.6,3,.6.8,1.4,1.8,2.2,2.6,1.6,1.6,3.6,3,5.6,3.7,2.1.8,4.4,1.4,6.8,1.4s4.5-.5,6.6-1.4c2.1-.6,4-1.9,5.6-3.5h0Z"/>
  <path class="st0" d="M396.7,721v-30.5l26.4,15.2c2.7,1.6,5.8,2.3,8.7,2.3,6,0,11.9-3.2,15-8.7,4.8-8.3,2-18.8-6.4-23.8l-26.3-15.2,26.4-15.2c8.3-4.8,11.2-15.4,6.4-23.8s-15.4-11.2-23.8-6.4l-26.4,15.2v-30.5c0-9.6-7.7-17.4-17.4-17.4s-17.4,7.7-17.4,17.4v30.5l-26.4-15.2c-8.3-4.8-18.8-2-23.8,6.4-4.8,8.3-2,18.8,6.4,23.8l26.3,15.2-26.3,15.2c-8.3,4.8-11.2,15.4-6.4,23.8,3.2,5.5,9,8.7,15,8.7s5.9-.8,8.7-2.3l26.4-15.2v30.5c0,9.6,7.7,17.4,17.4,17.4,9.7,0,17.4-7.8,17.4-17.3h0Z"/>
  <path class="st0" d="M912,726.4l26.1-15.2v30.2c0,9.6,7.7,17.4,17.4,17.4s17.4-7.7,17.4-17.4v-30.4l26.3,15.3c2.7,1.6,5.8,2.3,8.7,2.3,6,0,11.8-3,15-8.7,4.8-8.3,2-18.8-6.2-23.8l-26.4-15.3,26.4-15.3c8.3-4.8,11.2-15.4,6.2-23.8-4.8-8.3-15.4-11.2-23.8-6.2l-26.3,15.3v-30.6c0-9.6-7.7-17.4-17.4-17.4s-17.4,7.7-17.4,17.4v30.5l-26.1-15.2c-8.3-4.8-18.8-2-23.8,6.2-4.8,8.3-2,18.8,6.2,23.8l26.4,15.3-26.4,15.3c-8.3,4.8-11.2,15.4-6.2,23.8,3.2,5.5,9,8.7,15,8.7,3.1,0,6.1-.8,8.8-2.3h0Z"/>
  <path class="st0" d="M873,868c-.5-1.1-1-2.1-1.6-3-.6-1-1.4-1.8-2.2-2.6-4-4-9.9-5.9-15.6-4.8-1.2.2-2.3.6-3.3,1-1.1.5-2.1,1-3,1.6-1,.6-1.8,1.4-2.6,2.2-3.3,3.2-5,7.6-5,12.2s.5,4.5,1.2,6.6c.8,2.1,2.2,4,3.8,5.6s3.6,3,5.6,3.8,4.4,1.4,6.6,1.4c4.6,0,9-1.8,12.2-5.2,1.6-1.6,3-3.6,3.8-5.6s1.4-4.4,1.4-6.6-.2-2.3-.4-3.3c-.3-1.3-.5-2.4-1-3.4h0Z"/>
  <path class="st1" d="M734.8,631.8"/>
</svg>