<?xml version="1.0" encoding="UTF-8"?>
<svg id="Layer_1" data-name="Layer 1" xmlns="http://www.w3.org/2000/svg" viewBox="0 0 1079.992 604.784">
  <path d="M539.01,42.328c2.344-2.812,4.641-5.578,7.172-8.203,6.891-6.984,14.953-12.609,24.281-15.797,13.406-4.641,28.266-5.156,42.234-7.031,16.172-2.203,32.25-4.828,48.516-6.469,33.938-3.422,68.672-4.594,102.8-4.828,28.875,0,57.75,1.312,86.531,3.891,18.938,1.641,38.016,3.469,56.766,6.891,9.562,1.734,18.984,4.969,28.5,7.125,10.594,2.391,21.703,3.422,31.828,7.594,8.812,3.656,16.969,9.656,23.672,16.312,21.234,21.141,20.438,46.641,20.484,74.531l.094,43.172c17.578,2.344,32.203,7.828,45.188,20.344,16.406,15.797,22.312,35.625,22.547,57.844.234,18.328-.375,36.703-.469,55.031l.281,106.03.328,64.312c.047,12.141.797,24.891-.703,36.938-.891,6.938-3.328,13.219-8.391,18.188-10.641,10.453-27.703,8.391-41.297,8.062-.328,9-.75,18-.797,27-.047,13.688,3.516,32.438-7.031,43.359-6.188,6.469-14.906,7.641-23.391,7.594-10.547-.047-22.5-.188-30.281-8.391-.797-.844-1.547-1.734-2.203-2.672s-1.266-1.922-1.828-2.953-1.031-2.062-1.453-3.188c-.422-1.078-.75-2.156-1.031-3.281-3.328-13.547-1.125-42.328-.891-57.281-16.453-.422-33-.094-49.453-.141H367.303l-161.53.375c-28.875.094-57.984-.516-86.859.469-.422,14.906,1.875,43.969-1.453,56.766-.281,1.078-.609,2.156-1.031,3.234s-.891,2.109-1.453,3.094c-.562,1.031-1.172,1.969-1.828,2.906-.703.891-1.406,1.781-2.203,2.625-6.609,6.984-15.375,8.578-24.516,8.906-9.516.422-19.453-.281-26.719-7.266-3.656-3.516-6.141-7.969-7.5-12.797-2.391-8.484-1.406-17.906-1.406-26.625l-.188-30.516c-13.078.281-28.828,1.5-39.703-7.172-5.25-4.219-9.516-11.953-10.172-18.75-1.406-14.484-.328-34.547-.281-49.641l.094-97.781-.047-84.75c-.047-15.844-1.547-32.344.844-48.047.234-1.641.562-3.234.938-4.875.328-1.594.75-3.188,1.219-4.781.516-1.547,1.031-3.141,1.594-4.688.562-1.5,1.219-3.047,1.875-4.547.703-1.5,1.406-2.953,2.203-4.406s1.594-2.906,2.484-4.312c.891-1.359,1.828-2.719,2.766-4.078.984-1.312,2.016-2.625,3.047-3.891,12.75-15.422,29.766-23.25,49.5-25.266l-.094-44.016c-.094-28.406-.656-52.688,20.438-74.719,6.984-7.266,15.516-13.312,24.844-17.109,15.047-6.094,32.578-8.344,48.562-10.969,20.484-3.422,40.969-6.75,61.641-8.906,28.031-2.906,56.25-3.844,84.422-4.5,8.812-.422,18,.141,26.859.281,31.172.656,62.297,2.719,93.328,6.188,13.031,1.5,26.016,3.141,39,4.875,15.047,1.922,32.484,2.344,46.453,8.625,10.219,4.547,19.688,13.453,26.578,22.078l.002.002ZM758.43,21.75c-23.25.375-46.453,1.5-69.609,3.281-23.203,1.828-46.312,4.312-69.328,7.547-13.594,1.781-28.172,2.344-41.203,6.703-5.625,1.875-10.078,4.828-14.156,9.047-6.703,6.938-10.828,14.719-12.562,24.188-1.922,10.641-1.125,21.984-1.078,32.766v40.875l-.047,92.906c0,17.766-.328,35.578.141,53.297,0,1.219.047,2.438.141,3.656,11.484-.75,23.156-.469,34.641-.469l54.656.094,162.74.094h48.656c16.688,0,34.031-.891,50.391,2.859,12,2.766,24.844,8.766,33.844,17.297.422-15.891.562-31.781.422-47.672,0-18.891-1.547-39.562,3.75-57.844.422-1.5.891-3,1.453-4.5.516-1.5,1.078-2.953,1.734-4.406s1.312-2.859,2.062-4.266c.703-1.406,1.5-2.766,2.344-4.125.797-1.359,1.688-2.672,2.578-3.938.938-1.312,1.875-2.578,2.906-3.797.984-1.219,2.062-2.391,3.141-3.562,1.078-1.125,2.203-2.25,3.328-3.328,1.078-.984,2.203-1.969,3.281-2.906,1.125-.938,2.297-1.828,3.469-2.672,1.172-.891,2.391-1.688,3.609-2.484s2.484-1.547,3.75-2.297c1.266-.703,2.531-1.406,3.844-2.016,1.312-.656,2.625-1.266,3.984-1.828s2.719-1.078,4.078-1.594c1.406-.469,2.766-.891,4.172-1.312.375-15.141.516-30.328.422-45.469,0-12.141,1.125-24.75-2.016-36.562-2.062-7.734-5.719-14.25-11.25-20.016-16.734-17.297-28.734-14.906-49.734-20.062-12.516-3.047-24.891-6.656-37.641-8.906-14.719-2.672-29.719-3.891-44.625-5.156-22.734-1.875-45.469-3.047-68.25-3.516-6,0-12,0-18.047.094h.008ZM299.48,22.313c-46.266,1.688-91.875,5.766-137.48,13.734-13.406,2.344-27.422,4.125-40.078,9.234-1.734.703-3.422,1.453-5.062,2.344s-3.234,1.828-4.734,2.906c-1.547,1.031-3,2.203-4.406,3.375-1.406,1.219-2.766,2.531-3.984,3.891-6,6.375-10.125,13.781-12.328,22.219-3.562,13.359-2.344,27.984-2.297,41.719l.047,39.844c20.297,8.297,37.969,18.844,46.969,39.891,1.312,3.141,2.391,6.328,3.281,9.656.844,3.281,1.5,6.609,1.875,10.031,1.172,9.141.75,18.609.75,27.797l.047,42.375c.047,9.281-.141,18.703.703,27.938,9.188-8.719,18.422-15.703,30.703-19.594,19.641-6.234,45.188-4.078,66-4.125h55.781l233.16.094-.141-154.92.094-40.594c.047-9.375.844-19.312-.891-28.547-1.547-8.297-6-16.406-11.906-22.359-5.203-5.25-11.766-8.766-18.797-10.781-11.672-3.422-24.281-3.375-36.328-4.969-52.219-6.891-99.375-11.531-152.34-11.297-2.906,0-5.766,0-8.625.141l-.012-.003ZM142.5,405.893c-1.125,18.328-.328,37.125-.281,55.547.094,13.969-.703,28.594.422,42.516.422.234.891.562,1.359.75,6-1.219,13.266-.469,19.453-.422l35.531.094,137.34-.047,387.56-.094h114.66c32.578.094,65.109.375,97.641-.562l-.094-65.016c-.047-11.062.375-22.219-.094-33.234-61.922-.703-123.94,0-185.86.094l-274.82.141c-79.5-.609-159-.609-238.55-.047-31.359.094-62.906-.609-94.266.281h-.002ZM199.641,318.471c-16.312.656-31.266,6.422-42.562,18.609-11.578,12.562-15.375,28.078-14.531,44.766v.562c45.797.75,91.547-.094,137.34.141l599.11.094c19.031.047,38.062.469,57.094.375-.469-18.703-1.828-35.578-16.266-49.219-8.812-8.297-20.156-13.172-32.156-14.578-10.172-1.172-21-.516-31.266-.516h-56.297l-170.9-.422-283.4.422-93.656-.047c-16.922-.094-33.844-.984-50.719-.328-.609,0-1.219.047-1.781.141h-.01ZM1004.771,183.051c-.844.094-1.641.188-2.484.281-.844.141-1.688.234-2.531.422-.844.141-1.641.328-2.484.516-.797.188-1.641.422-2.438.656-.844.234-1.641.516-2.438.75-.797.281-1.594.609-2.391.891-.75.328-1.547.656-2.297,1.031-.797.375-1.547.75-2.297,1.125s-1.5.797-2.203,1.219c-.75.422-1.453.891-2.156,1.359s-1.406.938-2.109,1.453c-.656.469-1.359.984-2.016,1.547-.656.516-1.266,1.078-1.922,1.641-.609.562-1.266,1.125-1.828,1.734-.609.609-1.219,1.219-1.781,1.828s-1.125,1.266-1.688,1.922c-5.812,7.125-9.281,15.656-10.641,24.75-1.781,12.188-1.125,24.891-1.078,37.219l.094,48.938c-.188,63.891.094,127.78.844,191.72h51.797c9.188.141,37.406,2.016,44.062-1.734,1.5-3.281,1.875-7.031,2.062-10.594.469-11.531-.047-23.203-.094-34.781v-71.25c.281-33.891.328-67.781.141-101.72,0-17.625.516-35.484-.234-53.109-.234-5.344-.984-10.922-2.812-15.938-.328-.75-.609-1.547-.938-2.297-.328-.703-.656-1.453-.984-2.203-.375-.703-.75-1.453-1.125-2.156-.422-.703-.844-1.406-1.266-2.109s-.844-1.359-1.312-2.062c-.469-.656-.938-1.312-1.453-1.969-.469-.609-.984-1.266-1.547-1.875-.516-.609-1.031-1.219-1.594-1.828s-1.125-1.172-1.734-1.734c-.562-.562-1.172-1.125-1.781-1.641-.609-.562-1.266-1.078-1.875-1.547-.656-.516-1.312-1.031-1.969-1.5s-1.312-.891-2.016-1.359c-.703-.422-1.359-.844-2.109-1.266l-2.109-1.125c-.75-.375-1.5-.75-2.203-1.078-6.281-2.812-16.219-5.531-23.062-4.125h0ZM68.771,183.004c-14.438,2.062-26.719,7.828-35.719,19.641-5.531,7.312-8.672,15.656-9.75,24.75-1.922,17.016-.328,34.688-.281,51.844v104.16l-.047,79.219c0,11.812-1.5,24.562.094,36.234.188,1.172.422,2.203.797,3.328,4.828,2.906,43.641,2.719,50.672,1.547,15,0,30.234,1.172,45.234.141-.047-.141-.047-.281-.047-.469-.797-7.688-.188-16.031-.141-23.766l.188-45.422.047-147.74.094-33.984c.047-10.172.703-20.672-1.266-30.703-2.109-10.922-6.891-20.156-15.516-27.375-9.188-7.688-22.312-12.328-34.359-11.391v-.014ZM144.005,504.714c.844.469,1.406.609,2.391.75,5.484.656,11.672.234,17.25.328l38.344.328,137.95.094,426.42-.141h119.53c12.141-.047,24.141-.047,36.281-.469,4.406-.141,9.328.422,13.641-.422l.375-1.5c-32.531.938-65.062.656-97.641.562h-114.66l-387.56.094-137.34.047-35.531-.094c-6.188-.047-13.453-.797-19.453.422h.003ZM983.065,526.323c-.375,6.891-1.875,47.859,1.453,51.938,2.531,3.141,8.109,3.188,11.812,3.141,2.578,0,6.656-.094,8.719-1.781,3.984-11.062,2.484-40.312,1.688-52.5-7.875-.422-15.75-.328-23.672-.797h0ZM72.705,527.448c-.281,11.109-2.25,42.844,1.453,51.469,2.812,2.766,6.562,3.094,10.359,3.094,3.328,0,6.328,0,9.281-1.734.141-.094.328-.188.469-.281,3.938-7.078,2.109-42.516,2.062-52.641-7.875-.094-15.75-.188-23.625.094h0Z"/>
  <path d="M143.99,504.698c6-1.219,13.266-.469,19.406-.422l35.578.094,137.34-.047,387.56-.094h114.66c32.578.094,65.109.375,97.641-.562l-.375,1.5c-4.312.844-9.234.281-13.641.422-12.141.422-24.141.422-36.281.469h-119.53l-426.42.141-137.95-.094-38.344-.328c-5.578-.094-11.766.328-17.25-.328-.984-.141-1.547-.281-2.391-.75h-.003Z"/>
</svg>