<?xml version="1.0" encoding="UTF-8"?><svg id="Layer_1" xmlns="http://www.w3.org/2000/svg" viewBox="0 0 1162.938 1199.998"><defs><style>.cls-1{fill:none;stroke:red;stroke-miterlimit:10;stroke-width:30px;}</style></defs><path d="M922.497,1035.897c-6.375,0-12.562-.375-18.75-1.125-60.375-6.938-123.75-49.875-132-118.88-38.438-9.375-56.062-36.75-56.438-60.75-.375-23.625,16.125-51,53.812-58.875,5.062-1.125,9.938,2.25,10.875,7.125,1.125,5.062-2.25,9.938-7.125,10.875-24,5.062-39.375,21-39.188,40.5.188,16.688,13.125,38.25,48.188,44.438,4.125.75,7.312,4.312,7.688,8.438,3.938,63.188,61.5,102.56,116.25,108.75,54.75,6.375,122.81-18.375,149.44-106.69.938-3,3.375-5.438,6.375-6.188,23.25-6.562,39.938-21.375,44.438-39.562,4.312-17.438-2.625-36-19.688-52.125-3.75-3.562-3.75-9.375-.375-13.125,3.562-3.75,9.375-3.75,13.125-.375,21.75,20.625,30.75,46.125,24.938,69.938-5.812,23.25-25.125,42.188-52.5,51.375-27.75,86.062-91.875,116.25-149.06,116.25l-.005.006Z"/><path d="M770.997,814.497c-2.25,0-4.5-.938-6.188-2.438-26.812-24.75-29.25-89.25-28.125-149.25,0-4.688,2.438-9,6.375-11.625s8.812-3.188,13.312-1.312l32.812,12.938c40.5-62.812,121.31-87.562,198-60.375,65.438,23.25,130.12,89.062,114.94,204.19-.562,4.688-4.5,8.062-9.188,8.062h-189.94c-9.75,0-19.312-1.688-28.5-5.062-33.75-12.562-55.125-33-65.25-61.875-12,13.875-18.75,31.688-25.125,49.125-1.5,4.125-3,8.062-4.5,12.188-1.125,2.812-3.562,4.875-6.562,5.625-.75-.375-1.312-.188-2.062-.188v-.003ZM811.872,723.747c1.312,0,2.438.188,3.75.562,4.312,1.312,7.5,4.875,8.625,9.188,6.938,27.75,25.5,46.875,56.812,58.688,6.938,2.625,14.438,3.938,21.938,3.938h181.5c9.75-99.188-46.5-156-103.69-176.25-69.562-24.75-142.88-1.688-177.94,55.688-3.562,6-10.875,8.438-17.438,5.812l-30.562-12.188c-.562,29.25-.562,87,13.5,116.62,7.688-20.25,16.688-42.562,35.25-59.062,2.438-2.062,5.438-3,8.25-3l.005.004Z"/><path d="M1091.278,1199.997h-342.38c-10.312,0-18.75-8.438-18.75-18.75v-94.688c0-48,39-87,86.812-87h32.812c5.062,0,9.188,4.125,9.188,9.188s-4.125,9.188-9.188,9.188h-32.812c-37.688,0-68.438,30.75-68.438,68.625v94.688l342.75.375.562-95.062c0-37.875-30.75-68.625-68.625-68.625h-30.938c-5.062,0-9.188-4.125-9.188-9.188s4.125-9.188,9.188-9.188h30.938c48,0,87,39,87,87v94.688c0,10.312-8.438,18.75-18.938,18.75h.006Z"/><path d="M922.128,1084.297h-2.812c-33-1.312-69-26.625-73.875-72-.562-5.062,3.188-9.562,8.25-10.125,5.25-.562,9.562,3.188,10.125,8.25,3.938,36.75,31.875,54.562,56.25,55.5,23.062.938,51.75-13.5,60-57,.938-5.062,5.812-8.25,10.875-7.312s8.25,5.812,7.312,10.875c-10.312,53.062-46.875,71.812-76.125,71.812h0Z"/><path d="M992.678,890.057c-5.062,0-9.188-4.125-9.188-9.188v-28.875c0-5.062,4.125-9.188,9.188-9.188s9.188,4.125,9.188,9.188v28.875c0,5.062-4.125,9.188-9.188,9.188Z"/><path d="M848.997,890.057c-5.062,0-9.188-4.125-9.188-9.188v-28.875c0-5.062,4.125-9.188,9.188-9.188s9.188,4.125,9.188,9.188v28.875c0,5.062-4.125,9.188-9.188,9.188Z"/><path d="M920.258,968.807h-1.5c-20.812-.938-37.688-19.5-41.25-45-.75-5.062,2.812-9.75,7.875-10.312,5.062-.938,9.75,2.812,10.312,7.875,2.625,19.312,14.062,28.688,23.625,29.062,11.812,0,21.75-10.875,26.062-30,1.125-4.875,6-8.062,11.062-6.938s8.062,6,6.938,11.062c-7.312,32.625-26.812,44.25-43.125,44.25h.001Z"/><path d="M160.318,364.307c-4.688,0-9.375-.75-14.062-2.438-12.188-4.5-21.562-14.062-25.312-26.438-32.062-103.5-24.75-202.5,17.812-241.12,15.75-14.25,43.875-27.375,88.688-8.625,2.625.938,5.625.375,7.125-1.688C303.007-6.563,476.258-27.561,605.449,38.999c110.62,57.188,152.44,159,114.38,279.56-5.25,16.688-17.812,29.438-34.688,35.062s-35.625,3-50.25-7.312l-69-48.75,7.688,24.188c2.25,7.125.938,14.812-3.75,20.625-4.688,6-12,9-19.875,8.438-61.5-5.438-122.25-26.625-180.94-63l-.75,30.375c-.188,6.188-3.188,12-8.062,15.75-4.875,3.562-11.062,4.688-16.875,3-34.5-9.75-66.75-28.5-98.25-57.188-17.438,36-38.25,61.688-63.562,78-6.188,4.312-13.688,6.562-21.188,6.562l-.008-.002ZM186.006,94.867c-13.5,0-25.125,4.312-34.688,13.125-36.938,33.375-42.188,126.75-12.75,222,2.062,6.75,7.125,12,13.875,14.438,6.562,2.438,13.688,1.688,19.312-2.062,24.75-16.125,45-42.75,62.062-81.75,1.125-2.812,3.75-4.875,6.75-5.438s6,.375,8.25,2.438c32.062,31.5,64.875,51.562,99.75,61.5l1.5-1.312.75-33.562c.188-7.5,3.188-13.5,8.625-16.312,4.5-2.438,9.75-2.062,14.062.75,57.938,36.938,117.94,58.5,178.5,63.938,2.062.188,3.375-.938,3.75-1.5.562-.75,1.125-1.875.562-3.562l-12.375-38.625c-3.562-10.875,1.5-15.938,3.75-17.625,3.938-2.812,9.188-2.812,13.312,0l84.938,60c9.938,6.938,22.125,8.812,33.75,4.875,11.062-3.75,19.5-12.188,22.875-23.062,35.062-111.19-3.375-204.94-105.38-257.62C475.306-7.312,312.746,11.25,249.376,95.062c-6.75,8.812-18.562,12-29.062,7.5-12.562-5.062-24-7.688-34.312-7.688l.004-.007Z"/><path d="M415.497,675.187c-132.94,0-241.12-108.19-241.12-241.12v-88.312c0-5.062,4.125-9.188,9.188-9.188s9.188,4.125,9.188,9.188v88.312c0,122.81,99.938,222.75,222.75,222.75s222.75-99.938,222.75-222.75v-90.938c0-5.062,4.125-9.188,9.188-9.188s9.188,4.125,9.188,9.188v90.938c0,132.94-108.19,241.12-241.12,241.12h-.01Z"/><path d="M303.378,448.117c-5.062,0-9.188-4.125-9.188-9.188v-53.062c0-5.062,4.125-9.188,9.188-9.188s9.188,4.125,9.188,9.188v53.062c0,5.062-4.125,9.188-9.188,9.188Z"/><path d="M531.758,448.117c-5.062,0-9.188-4.125-9.188-9.188v-53.062c0-5.062,4.125-9.188,9.188-9.188s9.188,4.125,9.188,9.188v53.062c0,5.062-4.125,9.188-9.188,9.188Z"/><path d="M416.628,545.617c-19.688,0-39-8.438-54.188-23.812-3.562-3.562-3.562-9.375,0-13.125,3.562-3.562,9.562-3.562,13.125,0,11.812,11.812,26.25,18.375,41.062,18.375h.188c14.625,0,28.688-6.375,40.312-18.375,3.562-3.562,9.375-3.75,13.125-.188,3.562,3.562,3.75,9.375.188,13.125-15.375,15.75-33.75,24-53.812,24q.188,0,0,0h0Z"/><path d="M154.128,467.247c-32.812,0-55.125-18.562-63.375-40.5-10.5-27.75-.188-66.562,46.875-86.438,4.688-1.875,10.125.188,12.188,4.875s-.188,10.125-4.875,12.188c-36,15.188-44.438,42.562-36.75,62.812,7.688,20.625,33.938,36.75,73.312,23.625,4.875-1.688,10.125.938,11.625,5.812,1.688,4.875-.938,10.125-5.812,11.625-12,4.125-23.062,6-33.188,6h0Z"/><path d="M674.818,457.877c-9.562,0-19.688-1.688-30.375-5.438-4.875-1.688-7.312-6.938-5.625-11.812s6.938-7.312,11.812-5.625c36,12.75,62.25-3.75,71.625-24.562,8.062-18.375,5.062-46.312-30-65.062-4.5-2.438-6.188-8.062-3.75-12.562s8.062-6.188,12.562-3.75c43.312,23.062,50.25,61.312,38.062,88.875-10.125,22.312-33.75,39.938-64.312,39.938v-.002Z"/><path d="M822.188,1199.997H9.188c-5.062,0-9.188-4.125-9.188-9.188v-216.94c0-134.06,80.062-253.12,204.19-303.75.562-.375.938-.562,1.5-.75,32.25-12.938,66-20.625,100.5-22.875,7.125-.75,14.438-.75,21.75-.75h17.062c5.062,0,9.188,4.125,9.188,9.188s-4.125,9.188-9.188,9.188h-17.062c-6.75,0-13.312,0-20.25.75-32.25,2.062-63.75,9.188-93.75,21-.562.375-.938.562-1.5.75-117.75,47.438-193.88,160.12-193.88,287.25v207.75h803.81c5.062,0,9.188,4.125,9.188,9.188s-4.312,9.188-9.375,9.188l.005.002Z"/><path d="M755.997,788.247c-2.25,0-4.5-.938-6.375-2.625-.562-.562-1.125-1.312-1.5-2.062-33.562-43.125-78.188-76.688-129.19-97.312-28.875-11.812-59.062-18.938-90-21.188-9.188-.938-18-1.125-25.312-1.125h-17.812c-5.062,0-9.188-4.125-9.188-9.188s4.125-9.188,9.188-9.188h17.812c7.875,0,17.25.188,27,1.125,32.625,2.438,64.875,9.938,95.438,22.5,54.188,21.938,101.62,57.75,137.25,103.69.375.562.75,1.312,1.125,1.875,1.688,3.375,1.125,7.5-1.5,10.5-2.062,2.062-4.5,3-6.938,3l.002-.003Z"/><path d="M415.688,818.617c-3,0-5.812-1.5-7.5-3.938l-109.12-153.75c-3-4.125-2.062-9.938,2.25-12.938,4.125-3,9.938-1.875,12.938,2.25l101.81,143.25,106.31-143.06c3-4.125,8.812-4.875,12.938-1.875s4.875,8.812,1.875,12.938l-113.81,153.38c-1.875,2.438-4.688,3.75-7.688,3.75l-.003-.008Z"/><path d="M534.938,896.997c-1.875,0-3.562-.562-5.062-1.5l-114-75-108.75,75c-2.25,1.5-5.062,2.062-7.688,1.312s-4.875-2.625-6-5.062l-92.812-210c-2.062-4.688,0-10.125,4.688-12.188s10.125,0,12.188,4.688l88.312,199.69,104.62-72.188c3-2.25,7.125-2.25,10.312-.188l109.88,72.375,83.062-199.69c1.875-4.688,7.312-6.938,12-5.062s6.938,7.312,5.062,12l-87.375,210c-1.125,2.438-3.188,4.5-5.812,5.25-.75.562-1.688.562-2.625.562h0Z"/><path d="M415.688,988.117c-5.062,0-9.188-4.125-9.188-9.188v-169.5c0-5.062,4.125-9.188,9.188-9.188s9.188,4.125,9.188,9.188v169.5c.188,5.062-3.938,9.188-9.188,9.188Z"/><path d="M663.758,1199.997c-5.062,0-9.188-4.125-9.188-9.188v-186c0-5.062,4.125-9.188,9.188-9.188s9.188,4.125,9.188,9.188v186c0,5.062-4.125,9.188-9.188,9.188Z"/><path d="M175.688,1199.997c-5.062,0-9.188-4.125-9.188-9.188v-186c0-5.062,4.125-9.188,9.188-9.188s9.188,4.125,9.188,9.188v186c0,5.062-4.125,9.188-9.188,9.188Z"/><ellipse class="cls-1" cx="920.151" cy="796.123" rx="227.788" ry="233.839"/></svg>