<?xml version="1.0" encoding="UTF-8"?>
<svg xmlns="http://www.w3.org/2000/svg" version="1.1" viewBox="0 0 1162.9 1200">
  <!-- Generator: Adobe Illustrator 29.2.1, SVG Export Plug-In . SVG Version: 2.1.0 Build 116)  -->
  <defs>
    <style>
      .st0 {
        fill: red;
        fill-rule: evenodd;
      }
    </style>
  </defs>
  <g id="Layer_1">
    <path d="M922.5,1035.9c-6.4,0-12.6-.4-18.8-1.1-60.4-6.9-123.8-49.9-132-118.9-38.4-9.4-56.1-36.8-56.4-60.8-.4-23.6,16.1-51,53.8-58.9,5.1-1.1,9.9,2.2,10.9,7.1,1.1,5.1-2.2,9.9-7.1,10.9-24,5.1-39.4,21-39.2,40.5.2,16.7,13.1,38.2,48.2,44.4,4.1.8,7.3,4.3,7.7,8.4,3.9,63.2,61.5,102.6,116.2,108.8,54.8,6.4,122.8-18.4,149.4-106.7.9-3,3.4-5.4,6.4-6.2,23.2-6.6,39.9-21.4,44.4-39.6,4.3-17.4-2.6-36-19.7-52.1-3.8-3.6-3.8-9.4-.4-13.1,3.6-3.8,9.4-3.8,13.1-.4,21.8,20.6,30.8,46.1,24.9,69.9-5.8,23.2-25.1,42.2-52.5,51.4-27.8,86.1-91.9,116.2-149.1,116.2h0Z"/>
    <path d="M771,814.5c-2.2,0-4.5-.9-6.2-2.4-26.8-24.8-29.2-89.2-28.1-149.2,0-4.7,2.4-9,6.4-11.6s8.8-3.2,13.3-1.3l32.8,12.9c40.5-62.8,121.3-87.6,198-60.4,65.4,23.2,130.1,89.1,114.9,204.2-.6,4.7-4.5,8.1-9.2,8.1h-189.9c-9.8,0-19.3-1.7-28.5-5.1-33.8-12.6-55.1-33-65.2-61.9-12,13.9-18.8,31.7-25.1,49.1-1.5,4.1-3,8.1-4.5,12.2-1.1,2.8-3.6,4.9-6.6,5.6-.8-.4-1.3-.2-2.1-.2h0s0,0,0,0ZM811.9,723.7c1.3,0,2.4.2,3.8.6,4.3,1.3,7.5,4.9,8.6,9.2,6.9,27.8,25.5,46.9,56.8,58.7,6.9,2.6,14.4,3.9,21.9,3.9h181.5c9.8-99.2-46.5-156-103.7-176.2-69.6-24.8-142.9-1.7-177.9,55.7-3.6,6-10.9,8.4-17.4,5.8l-30.6-12.2c-.6,29.2-.6,87,13.5,116.6,7.7-20.2,16.7-42.6,35.2-59.1,2.4-2.1,5.4-3,8.2-3h0s0,0,0,0Z"/>
    <path d="M1091.3,1200h-342.4c-10.3,0-18.8-8.4-18.8-18.8v-94.7c0-48,39-87,86.8-87h32.8c5.1,0,9.2,4.1,9.2,9.2s-4.1,9.2-9.2,9.2h-32.8c-37.7,0-68.4,30.8-68.4,68.6v94.7l342.8.4.6-95.1c0-37.9-30.8-68.6-68.6-68.6h-30.9c-5.1,0-9.2-4.1-9.2-9.2s4.1-9.2,9.2-9.2h30.9c48,0,87,39,87,87v94.7c0,10.3-8.4,18.8-18.9,18.8h0Z"/>
    <path d="M922.1,1084.3h-2.8c-33-1.3-69-26.6-73.9-72-.6-5.1,3.2-9.6,8.2-10.1,5.2-.6,9.6,3.2,10.1,8.2,3.9,36.8,31.9,54.6,56.2,55.5,23.1.9,51.8-13.5,60-57,.9-5.1,5.8-8.2,10.9-7.3s8.2,5.8,7.3,10.9c-10.3,53.1-46.9,71.8-76.1,71.8h0Z"/>
    <path d="M992.7,890.1c-5.1,0-9.2-4.1-9.2-9.2v-28.9c0-5.1,4.1-9.2,9.2-9.2s9.2,4.1,9.2,9.2v28.9c0,5.1-4.1,9.2-9.2,9.2Z"/>
    <path d="M849,890.1c-5.1,0-9.2-4.1-9.2-9.2v-28.9c0-5.1,4.1-9.2,9.2-9.2s9.2,4.1,9.2,9.2v28.9c0,5.1-4.1,9.2-9.2,9.2Z"/>
    <path d="M920.3,968.8h-1.5c-20.8-.9-37.7-19.5-41.2-45-.8-5.1,2.8-9.8,7.9-10.3,5.1-.9,9.8,2.8,10.3,7.9,2.6,19.3,14.1,28.7,23.6,29.1,11.8,0,21.8-10.9,26.1-30,1.1-4.9,6-8.1,11.1-6.9s8.1,6,6.9,11.1c-7.3,32.6-26.8,44.2-43.1,44.2h0Z"/>
    <path d="M160.3,364.3c-4.7,0-9.4-.8-14.1-2.4-12.2-4.5-21.6-14.1-25.3-26.4-32.1-103.5-24.8-202.5,17.8-241.1,15.8-14.2,43.9-27.4,88.7-8.6,2.6.9,5.6.4,7.1-1.7C303-6.6,476.3-27.6,605.4,39c110.6,57.2,152.4,159,114.4,279.6-5.2,16.7-17.8,29.4-34.7,35.1s-35.6,3-50.2-7.3l-69-48.8,7.7,24.2c2.2,7.1.9,14.8-3.8,20.6-4.7,6-12,9-19.9,8.4-61.5-5.4-122.2-26.6-180.9-63l-.8,30.4c-.2,6.2-3.2,12-8.1,15.8-4.9,3.6-11.1,4.7-16.9,3-34.5-9.8-66.8-28.5-98.2-57.2-17.4,36-38.2,61.7-63.6,78-6.2,4.3-13.7,6.6-21.2,6.6h0s0,0,0,0ZM186,94.9c-13.5,0-25.1,4.3-34.7,13.1-36.9,33.4-42.2,126.8-12.8,222,2.1,6.8,7.1,12,13.9,14.4,6.6,2.4,13.7,1.7,19.3-2.1,24.8-16.1,45-42.8,62.1-81.8,1.1-2.8,3.8-4.9,6.8-5.4s6,.4,8.2,2.4c32.1,31.5,64.9,51.6,99.8,61.5l1.5-1.3.8-33.6c.2-7.5,3.2-13.5,8.6-16.3,4.5-2.4,9.8-2.1,14.1.8,57.9,36.9,117.9,58.5,178.5,63.9,2.1.2,3.4-.9,3.8-1.5.6-.8,1.1-1.9.6-3.6l-12.4-38.6c-3.6-10.9,1.5-15.9,3.8-17.6,3.9-2.8,9.2-2.8,13.3,0l84.9,60c9.9,6.9,22.1,8.8,33.8,4.9,11.1-3.8,19.5-12.2,22.9-23.1,35.1-111.2-3.4-204.9-105.4-257.6C475.3-7.3,312.7,11.2,249.4,95.1c-6.8,8.8-18.6,12-29.1,7.5-12.6-5.1-24-7.7-34.3-7.7h0s0,0,0,0Z"/>
    <path d="M415.5,675.2c-132.9,0-241.1-108.2-241.1-241.1v-88.3c0-5.1,4.1-9.2,9.2-9.2s9.2,4.1,9.2,9.2v88.3c0,122.8,99.9,222.8,222.8,222.8s222.8-99.9,222.8-222.8v-90.9c0-5.1,4.1-9.2,9.2-9.2s9.2,4.1,9.2,9.2v90.9c0,132.9-108.2,241.1-241.1,241.1h0Z"/>
    <path d="M303.4,448.1c-5.1,0-9.2-4.1-9.2-9.2v-53.1c0-5.1,4.1-9.2,9.2-9.2s9.2,4.1,9.2,9.2v53.1c0,5.1-4.1,9.2-9.2,9.2Z"/>
    <path d="M531.8,448.1c-5.1,0-9.2-4.1-9.2-9.2v-53.1c0-5.1,4.1-9.2,9.2-9.2s9.2,4.1,9.2,9.2v53.1c0,5.1-4.1,9.2-9.2,9.2Z"/>
    <path d="M416.6,545.6c-19.7,0-39-8.4-54.2-23.8-3.6-3.6-3.6-9.4,0-13.1,3.6-3.6,9.6-3.6,13.1,0,11.8,11.8,26.2,18.4,41.1,18.4h.2c14.6,0,28.7-6.4,40.3-18.4,3.6-3.6,9.4-3.8,13.1-.2,3.6,3.6,3.8,9.4.2,13.1-15.4,15.8-33.8,24-53.8,24q.1,0,0,0h0Z"/>
    <path d="M154.1,467.2c-32.8,0-55.1-18.6-63.4-40.5-10.5-27.8-.2-66.6,46.9-86.4,4.7-1.9,10.1.2,12.2,4.9s-.2,10.1-4.9,12.2c-36,15.2-44.4,42.6-36.8,62.8,7.7,20.6,33.9,36.8,73.3,23.6,4.9-1.7,10.1.9,11.6,5.8,1.7,4.9-.9,10.1-5.8,11.6-12,4.1-23.1,6-33.2,6h0Z"/>
    <path d="M674.8,457.9c-9.6,0-19.7-1.7-30.4-5.4-4.9-1.7-7.3-6.9-5.6-11.8s6.9-7.3,11.8-5.6c36,12.8,62.2-3.8,71.6-24.6,8.1-18.4,5.1-46.3-30-65.1-4.5-2.4-6.2-8.1-3.8-12.6s8.1-6.2,12.6-3.8c43.3,23.1,50.2,61.3,38.1,88.9-10.1,22.3-33.8,39.9-64.3,39.9h0s0,0,0,0Z"/>
    <path d="M822.2,1200H9.2c-5.1,0-9.2-4.1-9.2-9.2v-216.9c0-134.1,80.1-253.1,204.2-303.8.6-.4.9-.6,1.5-.8,32.2-12.9,66-20.6,100.5-22.9,7.1-.8,14.4-.8,21.8-.8h17.1c5.1,0,9.2,4.1,9.2,9.2s-4.1,9.2-9.2,9.2h-17.1c-6.8,0-13.3,0-20.2.8-32.2,2.1-63.8,9.2-93.8,21-.6.4-.9.6-1.5.8-117.8,47.4-193.9,160.1-193.9,287.2v207.7h803.8c5.1,0,9.2,4.1,9.2,9.2s-4.3,9.2-9.4,9.2h0s0,0,0,0Z"/>
    <path d="M756,788.2c-2.2,0-4.5-.9-6.4-2.6-.6-.6-1.1-1.3-1.5-2.1-33.6-43.1-78.2-76.7-129.2-97.3-28.9-11.8-59.1-18.9-90-21.2-9.2-.9-18-1.1-25.3-1.1h-17.8c-5.1,0-9.2-4.1-9.2-9.2s4.1-9.2,9.2-9.2h17.8c7.9,0,17.2.2,27,1.1,32.6,2.4,64.9,9.9,95.4,22.5,54.2,21.9,101.6,57.8,137.2,103.7.4.6.8,1.3,1.1,1.9,1.7,3.4,1.1,7.5-1.5,10.5-2.1,2.1-4.5,3-6.9,3h0s0,0,0,0Z"/>
    <path d="M415.7,818.6c-3,0-5.8-1.5-7.5-3.9l-109.1-153.8c-3-4.1-2.1-9.9,2.2-12.9,4.1-3,9.9-1.9,12.9,2.2l101.8,143.2,106.3-143.1c3-4.1,8.8-4.9,12.9-1.9s4.9,8.8,1.9,12.9l-113.8,153.4c-1.9,2.4-4.7,3.8-7.7,3.8h0s0,0,0,0Z"/>
    <path d="M534.9,897c-1.9,0-3.6-.6-5.1-1.5l-114-75-108.8,75c-2.2,1.5-5.1,2.1-7.7,1.3s-4.9-2.6-6-5.1l-92.8-210c-2.1-4.7,0-10.1,4.7-12.2s10.1,0,12.2,4.7l88.3,199.7,104.6-72.2c3-2.2,7.1-2.2,10.3-.2l109.9,72.4,83.1-199.7c1.9-4.7,7.3-6.9,12-5.1s6.9,7.3,5.1,12l-87.4,210c-1.1,2.4-3.2,4.5-5.8,5.2-.8.6-1.7.6-2.6.6h0Z"/>
    <path d="M415.7,988.1c-5.1,0-9.2-4.1-9.2-9.2v-169.5c0-5.1,4.1-9.2,9.2-9.2s9.2,4.1,9.2,9.2v169.5c.2,5.1-3.9,9.2-9.2,9.2Z"/>
    <path d="M663.8,1200c-5.1,0-9.2-4.1-9.2-9.2v-186c0-5.1,4.1-9.2,9.2-9.2s9.2,4.1,9.2,9.2v186c0,5.1-4.1,9.2-9.2,9.2Z"/>
    <path d="M175.7,1200c-5.1,0-9.2-4.1-9.2-9.2v-186c0-5.1,4.1-9.2,9.2-9.2s9.2,4.1,9.2,9.2v186c0,5.1-4.1,9.2-9.2,9.2Z"/>
  </g>
  <g id="Layer_2">
    <path class="st0" d="M988.1,411.5l110.1.3-169.8,169-169-169.8,110.1.3.7-312.9,118.6.3-.7,312.9h0s0,0,0,0Z"/>
  </g>
</svg>