<?xml version="1.0" encoding="UTF-8"?>
<svg id="Layer_1" xmlns="http://www.w3.org/2000/svg" version="1.1" viewBox="0 0 1071 984.9">
  <!-- Generator: Adobe Illustrator 29.2.1, SVG Export Plug-In . SVG Version: 2.1.0 Build 116)  -->
  <path d="M535.5,797.9h-45.9l-14.5-37.5c-1.4-3.8-6.5-6.4-12.4-6.4-5.9,0-10.9,2.7-12.2,6.5l-19.4,54-18.2-100.2h0c-.7-4.3-6.1-7.5-12.6-7.5-6.4,0-11.8,3.1-12.5,7.4l-26.8,139.6-32-217.8c-.6-4.4-6.1-7.7-12.6-7.7-6.6,0-12,3.4-12.5,7.8l-36.2,279-36.1-279c-.5-4.4-6-7.7-12.6-7.8-6.5,0-12,3.3-12.6,7.7l-32.1,217.8-26.7-139.7c-.8-4.2-6.2-7.4-12.6-7.4-6.4,0-11.9,3.2-12.5,7.4l-18.2,100.2-19.4-53.9h0c-1.4-3.8-6.4-6.4-12.2-6.5-5.8,0-10.9,2.6-12.4,6.4l-14.5,37.5H0v13.8h52c5.8,0,10.9-2.6,12.3-6.4l8.1-21,22.2,61.8c1.5,4,6.9,6.7,13.1,6.4,6.1-.2,11.1-3.4,11.9-7.4l16-87.2,27.5,144c.8,4.3,6.3,7.5,12.8,7.4,6.5,0,11.8-3.4,12.5-7.7l30.4-207.3,36.6,282.9h0c.6,4.3,6.1,7.7,12.6,7.7s12-3.3,12.6-7.7l36.6-282.9,30.5,207.3h0c.6,4.3,6,7.6,12.5,7.7,6.5,0,12-3.1,12.8-7.4l27.4-144,15.8,87.3c.8,4,5.8,7.2,11.9,7.4,6.1.2,11.6-2.5,13.1-6.4l22.2-61.8,8.1,21c1.4,3.8,6.5,6.4,12.3,6.4h52v-13.8c.1,0,.1,0,.1,0Z"/>
  <path d="M1071,797.9h-45.9l-14.5-37.5c-1.4-3.8-6.5-6.4-12.4-6.4-5.9,0-10.9,2.7-12.2,6.5l-19.4,54-18.2-100.2h0c-.7-4.3-6.1-7.5-12.6-7.5-6.4,0-11.8,3.1-12.5,7.4l-26.8,139.6-32-217.8c-.6-4.4-6.1-7.7-12.6-7.7-6.6,0-12,3.4-12.5,7.8l-36.2,279-36.1-279c-.5-4.4-6-7.7-12.6-7.8-6.5,0-12,3.3-12.6,7.7l-32.1,217.8-26.7-139.7c-.8-4.2-6.2-7.4-12.6-7.4-6.4,0-11.9,3.2-12.5,7.4l-18.2,100.2-19.4-53.9h0c-1.4-3.8-6.4-6.4-12.2-6.5-5.8,0-10.9,2.6-12.4,6.4l-14.5,37.5h-46v13.8h52c5.8,0,10.9-2.6,12.3-6.4l8.1-21,22.2,61.8c1.5,4,6.9,6.7,13.1,6.4,6.1-.2,11.1-3.4,11.9-7.4l16-87.2,27.5,144c.8,4.3,6.3,7.5,12.8,7.4,6.5,0,11.8-3.4,12.5-7.7l30.4-207.3,36.6,282.9h0c.6,4.3,6.1,7.7,12.6,7.7s12-3.3,12.6-7.7l36.6-282.9,30.5,207.3h0c.6,4.3,6,7.6,12.5,7.7,6.5,0,12-3.1,12.8-7.4l27.4-144,15.8,87.3c.8,4,5.8,7.2,11.9,7.4,6.1.2,11.6-2.5,13.1-6.4l22.2-61.8,8.1,21c1.4,3.8,6.5,6.4,12.3,6.4h52v-13.8c.1,0,.1,0,.1,0Z"/>
  <path d="M535.3,4.2l-241.3,148.4H82.3c-18.2,0-33,14.8-33,33v315c0,18.2,14.8,33,33,33h211.7l241.3,148.4c15.2,9.3,33,2.1,33-33V37.2c0-35.4-16.8-43.3-33-33h0Z"/>
  <path d="M707.4,482c67.3-66.1,67.3-198.3,0-271.3-44.1-46.4-87,5.8-64.9,30.1,58,62.6,58,153.1,0,212.2-24.4,25.5,20.9,77.7,64.9,29h0ZM825.7,577.1c119.4-146.1,119.4-315.4,1.2-452.2-55.7-63.8-105.5,3.5-55.7,52.2,90.5,95.1,90.5,247,0,343.2-48.7,52.2-1.2,111.3,54.5,56.8h0s0,0,0,0Z"/>
</svg>