<?xml version="1.0" encoding="UTF-8"?>
<svg id="Layer_1" data-name="Layer 1" xmlns="http://www.w3.org/2000/svg" viewBox="0 0 1073.898 1071.408">
  <path d="M357.966,884.412h-30.681l-9.709-37.493c-.959-3.761-4.375-6.389-8.27-6.351-3.914.038-7.272,2.725-8.174,6.524l-12.952,53.992-12.165-100.198.019-.019c-.48-4.26-4.106-7.483-8.404-7.445-4.279-.038-7.886,3.147-8.385,7.387l-17.883,139.572-21.394-217.78c-.403-4.356-4.068-7.675-8.423-7.656-4.394.019-8.04,3.377-8.385,7.752l-24.176,279.029-24.1-279.009c-.365-4.375-4.01-7.733-8.404-7.752-4.356-.019-8.021,3.3-8.423,7.656l-21.452,217.76-17.825-139.744c-.518-4.24-4.125-7.426-8.404-7.387-4.298-.038-7.924,3.185-8.385,7.445l-12.165,100.198-12.952-53.918v.019c-.921-3.799-4.298-6.466-8.174-6.505-3.895-.019-7.31,2.59-8.289,6.351l-9.69,37.493H0v13.757h34.768c3.876,0,7.253-2.61,8.212-6.37l5.43-20.953,14.832,61.822c.979,3.972,4.644,6.677,8.73,6.447,4.068-.23,7.407-3.358,7.924-7.407l10.668-87.209,18.362,143.98c.537,4.298,4.221,7.502,8.538,7.407,4.317-.058,7.905-3.358,8.328-7.656l20.301-207.342,24.445,282.942v-.019c.422,4.356,4.068,7.675,8.443,7.675s8.021-3.319,8.443-7.675l24.445-282.942,20.377,207.342v.019c.422,4.298,4.01,7.598,8.328,7.656,4.337.096,8.021-3.108,8.538-7.407l18.286-143.98,10.592,87.287c.518,4.049,3.857,7.176,7.924,7.407,4.087.23,7.752-2.475,8.73-6.447l14.832-61.822,5.43,20.953c.959,3.761,4.337,6.37,8.212,6.37h34.749l.097-13.756Z"/>
  <path d="M715.932,884.412h-30.681l-9.709-37.493c-.959-3.761-4.375-6.389-8.27-6.351-3.914.038-7.272,2.725-8.174,6.524l-12.952,53.992-12.165-100.198.019-.019c-.48-4.26-4.106-7.483-8.404-7.445-4.279-.038-7.886,3.147-8.385,7.387l-17.883,139.572-21.394-217.78c-.403-4.356-4.068-7.675-8.423-7.656-4.394.019-8.04,3.377-8.385,7.752l-24.176,279.029-24.1-279.009c-.365-4.375-4.01-7.733-8.404-7.752-4.356-.019-8.021,3.3-8.423,7.656l-21.452,217.76-17.825-139.744c-.518-4.24-4.125-7.426-8.404-7.387-4.298-.038-7.924,3.185-8.385,7.445l-12.165,100.198-12.952-53.918v.019c-.921-3.799-4.298-6.466-8.174-6.505-3.895-.019-7.31,2.59-8.289,6.351l-9.69,37.493h-30.72v13.757h34.768c3.876,0,7.253-2.61,8.212-6.37l5.43-20.953,14.832,61.822c.979,3.972,4.644,6.677,8.73,6.447,4.068-.23,7.407-3.358,7.924-7.407l10.668-87.209,18.362,143.98c.537,4.298,4.221,7.502,8.538,7.407,4.317-.058,7.905-3.358,8.328-7.656l20.301-207.342,24.445,282.942v-.019c.422,4.356,4.068,7.675,8.443,7.675s8.021-3.319,8.443-7.675l24.445-282.942,20.377,207.342v.019c.422,4.298,4.01,7.598,8.328,7.656,4.337.096,8.021-3.108,8.538-7.407l18.286-143.98,10.592,87.287c.518,4.049,3.857,7.176,7.924,7.407,4.087.23,7.752-2.475,8.73-6.447l14.832-61.822,5.43,20.953c.959,3.761,4.337,6.37,8.212,6.37h34.749l.097-13.756Z"/>
  <path d="M1073.898,884.412h-30.681l-9.709-37.493c-.959-3.761-4.375-6.389-8.27-6.351-3.914.038-7.272,2.725-8.174,6.524l-12.952,53.992-12.165-100.198.019-.019c-.48-4.26-4.106-7.483-8.404-7.445-4.279-.038-7.886,3.147-8.385,7.387l-17.883,139.572-21.394-217.78c-.403-4.356-4.068-7.675-8.423-7.656-4.394.019-8.04,3.377-8.385,7.752l-24.176,279.029-24.1-279.009c-.365-4.375-4.01-7.733-8.404-7.752-4.356-.019-8.021,3.3-8.423,7.656l-21.452,217.76-17.825-139.744c-.518-4.24-4.125-7.426-8.404-7.387-4.298-.038-7.924,3.185-8.385,7.445l-12.165,100.198-12.952-53.918v.019c-.921-3.799-4.298-6.466-8.174-6.505-3.895-.019-7.31,2.59-8.289,6.351l-9.69,37.493h-30.72v13.757h34.768c3.876,0,7.253-2.61,8.212-6.37l5.43-20.953,14.832,61.822c.979,3.972,4.644,6.677,8.73,6.447,4.068-.23,7.407-3.358,7.924-7.407l10.668-87.209,18.362,143.98c.537,4.298,4.221,7.502,8.538,7.407,4.317-.058,7.905-3.358,8.328-7.656l20.301-207.342,24.445,282.942v-.019c.422,4.356,4.068,7.675,8.443,7.675s8.021-3.319,8.443-7.675l24.445-282.942,20.377,207.342v.019c.422,4.298,4.01,7.598,8.328,7.656,4.337.096,8.021-3.108,8.538-7.407l18.286-143.98,10.592,87.287c.518,4.049,3.857,7.176,7.924,7.407,4.087.23,7.752-2.475,8.73-6.447l14.832-61.822,5.43,20.953c.959,3.761,4.337,6.37,8.212,6.37h34.749l.097-13.756Z"/>
  <path d="M535.312,4.192l-241.289,148.358H82.282c-18.205,0-32.968,14.759-32.968,32.968v315.022c0,18.209,14.762,32.968,32.968,32.968h211.75l241.28,148.358c15.158,9.325,32.968,2.074,32.968-32.968V37.16c0-35.377-16.813-43.288-32.968-32.968h0Z"/>
  <path d="M707.444,482.009c67.263-66.103,67.267-198.282.003-271.334-44.056-46.386-86.973,5.797-64.929,30.15,57.969,62.61,57.969,153.057,0,212.204-24.366,25.486,20.873,77.676,64.926,28.976v.003ZM825.721,577.098c119.439-146.104,119.439-315.406,1.174-452.235-55.66-63.77-105.526,3.483-55.666,52.183,90.459,95.08,90.451,246.983,0,343.225-48.707,52.179-1.163,111.325,54.493,56.823v.004Z"/>
</svg>