<?xml version="1.0" encoding="UTF-8"?>
<svg width="1200pt" height="1200pt" version="1.1" viewBox="0 0 1200 1200" xmlns="http://www.w3.org/2000/svg">
 <path d="m1002.1 733.8c-5.2812 2.375-10.176 5.5312-14.52 9.3594-4.125 2.8398-7.9102 6.1406-11.281 9.8398 0 10.199 3 22.32 4.1992 36 3.3477 27.875-0.53906 56.141-11.281 82.078-4.8008 12-10.441 23.281-13.68 32.879v0.003907c2.7773 5.2266 6.1172 10.137 9.9609 14.641 2.8242 4.2812 6.3086 8.0859 10.32 11.277 16.461-4.4102 31.09-13.949 41.762-27.238 15.156-17.945 24.867-39.848 27.992-63.125 3.125-23.281-0.46484-46.969-10.355-68.277-6.7383-15.707-18.348-28.832-33.117-37.438z"/>
 <path d="m1076.2 931.68c-11.359 20.254-23.859 39.844-37.441 58.68 1.9062 5.7148 5.0195 10.953 9.1211 15.359 5.1602 6.6016 9.8398 11.16 11.039 10.68 25.949-11.84 48.488-30.043 65.52-52.918 24.004-31.301 39.414-68.328 44.695-107.41 5.2852-39.09 0.25781-78.879-14.574-115.43-10.352-26.594-27.277-50.129-49.199-68.402-1.0781-0.83984-7.9219 3-15 8.6406-7.0781 5.6406-11.039 9.6016-10.68 10.559v0.003906c8.0078 21.84 14.777 44.117 20.281 66.719 13.277 58.836 4.75 120.5-24 173.52z"/>
 <path d="m969 534.48c-1.4766-2.5469-3.1211-4.9922-4.9219-7.3203-3.5195-4.4531-7.5469-8.4805-12-12-6.3594-4.9141-13.145-9.2539-20.277-12.961l-13.559-8.2812-0.003907 0.003906c-8.5625-5.7969-16.598-12.34-24-19.562-7.2812-7.3164-13.793-15.355-19.438-24-5.5156-8.625-10.215-17.742-14.039-27.238-3.7461-9.6211-6.5195-19.59-8.2812-29.762-0.875-5.043-1.4766-10.129-1.8008-15.238l-1.6797-19.559v-0.003906c-1.6797-27.355-6.3906-54.441-14.039-80.758-7.4023-27.113-18.25-53.168-32.281-77.52-7.1719-12.535-15.188-24.562-24-36-9.0312-11.211-18.859-21.758-29.398-31.562-42.074-37.707-93.297-63.734-148.56-75.48-6.582-1.8164-13.277-3.2188-20.039-4.1992l-20.16-3.4805c-13.441-2.1602-26.762-2.8789-40.199-4.3203-26.617-1.5859-53.305-1.5859-79.922 0-107.03 5.2969-208.87 47.73-288 120-37.418 35.344-67.512 77.711-88.559 124.68-24.168 54.348-36.051 113.36-34.809 172.82 1.2461 59.469 15.59 117.93 42.008 171.22 4.8008 9.8398 10.039 19.398 15.719 28.68l14.879 25.199h0.003906c34.496 60.91 53.801 129.24 56.281 199.2 1.9414 56.855-7.6523 113.52-28.203 166.56-2.0938 4.2891-2.3867 9.2422-0.80859 13.75 1.5781 4.5117 4.8945 8.1992 9.2109 10.25 4.2305 1.1055 8.7227 0.60156 12.602-1.418 3.8828-2.0156 6.875-5.4023 8.3984-9.5039 26.469-56.348 40.465-117.75 41.039-180 0.75781-77.609-17.801-154.19-54-222.84l-14.879-27.121c-4.6406-8-8.9609-16.48-12.961-25.441v0.003906c-21.5-46.43-32.633-96.977-32.633-148.14s11.133-101.71 32.633-148.14c18.641-39.41 44.812-74.797 77.039-104.16 68.816-61.254 156.61-96.973 248.64-101.16 23.992-1.1641 48.035-0.92188 72 0.71875 12 1.4414 24 1.9219 35.281 3.9609l17.398 3c5.8008 0.83984 11.535 2.082 17.16 3.7188 44.441 9.4688 85.617 30.449 119.4 60.844 8.1133 7.4609 15.691 15.48 22.684 24 6.7656 8.8594 12.938 18.16 18.477 27.84 11.371 19.668 20.164 40.723 26.16 62.637 6.5547 22.277 10.582 45.223 12 68.402l0.83984 8.6406c0 3 0.60156 5.2812 0.83984 9.4805 0.51953 7.4414 1.4414 14.852 2.7617 22.199 2.5625 14.527 6.5859 28.758 12 42.48 5.5547 13.711 12.426 26.852 20.52 39.238 8.2656 12.176 17.758 23.473 28.32 33.719 10.391 10.051 21.68 19.129 33.719 27.121l18.121 10.801c3.8047 1.9141 7.457 4.1211 10.922 6.5977l1.4414 1.3203h-0.003907c0.019532 0.35937 0.019532 0.72266 0 1.082 0.68359 1.4258 1.0508 2.9805 1.082 4.5586 0.011718 1.5742-0.31641 3.1289-0.96094 4.5625-0.96094 1.6797 0 1.6797-4.1992 5.3984-13.738 12.738-30.512 21.746-48.723 26.16-6.8242 1.9023-12.793 6.082-16.918 11.844-4.125 5.7617-6.1562 12.762-5.7617 19.836l3.7188 68.641-7.9219 1.6797c-10.559 2.0391-21.121 3.7188-31.68 4.8008-10.559 1.0781-21.121 1.6797-31.559 1.8008h-12 0.003906c-3.0352-0.22656-6.0859-0.22656-9.1211 0-13.027 1.6523-24.969 8.1172-33.48 18.117-8.2109 9.6055-12.758 21.805-12.84 34.441-0.039063 5.9492 0.89453 11.867 2.7617 17.52 1.1992 3.4805 2.3984 6.9609 3.9609 10.32h-0.003906c5.7539 13.355 13.887 25.555 24 36 19.137 19.578 43.172 33.668 69.602 40.801 5.5195 1.4414 11.039 2.8789 16.559 3.9609l-1.8008 7.9219c-0.71875 3.3594-1.3203 6.3594-1.8008 9.3594-0.96094 6-1.6797 12-2.0391 18l0.003906-0.003906c-0.55469 6.668-0.55469 13.371 0 20.039 0 2.0391 0 3.9609 0.96094 6.3594v1.3203l1.0781 3.6016v1.1992c0.59375 1.5234 1.0742 3.0898 1.4375 4.6797 2.8789 12.609 0.73047 25.84-5.9922 36.887s-17.484 19.039-30.008 22.273c-1.8477 0.5625-3.7305 1.0039-5.6367 1.3203l-6.6016 1.1992-13.078 2.1602c-8.7188 1.3594-17.359 2.4414-25.922 3.2383-17.16 1.6797-34.199 2.5195-50.879 2.5195v0.003906c-31.594 0.39453-63.137-2.6211-94.082-9-27.34-5.5391-53.844-14.617-78.84-27-21.742-10.598-41.508-24.844-58.438-42.121-2.9883-3.4922-7.1367-5.7852-11.684-6.4453-4.5469-0.66406-9.1797 0.34766-13.039 2.8477-3.3477 3.3125-5.2344 7.8281-5.2344 12.539 0 4.7109 1.8867 9.2266 5.2344 12.539 18.285 21.707 40.312 39.957 65.039 53.879 21.703 12.598 44.723 22.777 68.641 30.363-13.922 30.719-11.398 87.238 7.6797 108 5.8516 0.71875 11.75 0.96094 17.641 0.71875 5.1328 0.19922 10.27-0.042968 15.359-0.71875 16.559-18 20.641-63.359 12-95.039v-0.003906c22.82 3.8828 45.871 6.25 69 7.082 18.523 0.69141 37.066 0.45312 55.562-0.71875 9.4414-0.55859 19-1.4414 28.68-2.6406l14.52-1.9219 7.3203-1.0781c2.2812 0 4.9219-0.83984 8.1602-1.5586v-0.003906c25.504-5.5 47.852-20.742 62.277-42.48 15.199-22.598 20.688-50.355 15.242-77.039-0.63281-3.3672-1.4766-6.6953-2.5195-9.9609v-1.8008 0.003906c-0.26172-3.5586-0.26172-7.125 0-10.68 0-4.0781 0.96094-8.5195 1.8008-12.719 0-2.0391 0.83984-4.1992 1.3203-5.8789l1.9219-7.3203 2.0391-7.5586-0.003906-0.003906c1.4844-5.7578 1.9336-11.73 1.3203-17.641-1.2695-12.621-7.4805-24.227-17.277-32.281-5.0156-4.1211-10.812-7.1836-17.043-9l-9.7188-2.2812c-4.5586-0.83984-8.8789-2.2812-13.32-3.4805v0.003906c-16.23-4.4609-31.004-13.109-42.84-25.082-4.7109-5.125-8.5234-11.008-11.281-17.398h5.2812c12 0 24.961 0 37.441-1.5586 12.48-1.5586 24.961-2.7617 37.32-5.0391v-0.003907c12.977-2.3398 25.801-5.4648 38.398-9.3594 6.1758-1.9297 11.559-5.8203 15.324-11.082 3.7695-5.2617 5.7188-11.609 5.5547-18.078v-0.96094l-2.8789-69.602v0.003906c19.816-7.5312 37.902-19 53.16-33.723 3.2227-3.1562 6.2266-6.5234 9-10.078 3.0586-4.4336 5.6328-9.1797 7.6797-14.16 8.9648-19.668 8.9648-42.254 0-61.922-0.875-2.4102-1.8789-4.7734-3-7.0781zm-147 336v0z"/>
</svg>
