<svg xmlns="http://www.w3.org/2000/svg" data-name="Layer 1" viewBox="0 0 100 125" x="0px" y="0px"><title>Artboard 9</title><path d="M83.51,61.15a4.82,4.82,0,0,0-1.21.78,5.46,5.46,0,0,0-.94.82c0,.85.25,1.86.35,3a13.63,13.63,0,0,1-.94,6.84c-.4,1-.87,1.94-1.14,2.74a6.78,6.78,0,0,0,.83,1.22h0a4.05,4.05,0,0,0,.86.94,6.68,6.68,0,0,0,3.48-2.27,10.27,10.27,0,0,0,1.47-10.95A6.64,6.64,0,0,0,83.51,61.15Z"/><path d="M89.68,77.64a51.07,51.07,0,0,1-3.12,4.89,3.51,3.51,0,0,0,.76,1.28c.43.55.82.93.92.89a14.11,14.11,0,0,0,5.46-4.41,18.86,18.86,0,0,0,2.51-18.57,14.06,14.06,0,0,0-4.1-5.7c-.09-.07-.66.25-1.25.72s-.92.8-.89.88a51.6,51.6,0,0,1,1.69,5.56,20.75,20.75,0,0,1-2,14.46Z"/><path d="M80.75,44.54a5.58,5.58,0,0,0-.41-.61,6.09,6.09,0,0,0-1-1,11.24,11.24,0,0,0-1.69-1.08l-1.13-.69a14.49,14.49,0,0,1-2-1.63,12.6,12.6,0,0,1-1.62-2,13.75,13.75,0,0,1-1.17-2.27,12.93,12.93,0,0,1-.69-2.48,11.86,11.86,0,0,1-.15-1.27l-.14-1.63a30.9,30.9,0,0,0-1.17-6.73,27.39,27.39,0,0,0-2.69-6.46,26.4,26.4,0,0,0-2-3,25.08,25.08,0,0,0-2.45-2.63A26.94,26.94,0,0,0,50.06,4.77a13.56,13.56,0,0,0-1.67-.35l-1.68-.29c-1.12-.18-2.23-.24-3.35-.36a55.9,55.9,0,0,0-6.66,0,38.4,38.4,0,0,0-24,10A32.66,32.66,0,0,0,5.32,24.16a33.71,33.71,0,0,0,.6,28.67q.6,1.23,1.31,2.39l1.24,2.1a36.29,36.29,0,0,1,4.69,16.6A35.1,35.1,0,0,1,10.81,87.8a1.49,1.49,0,0,0,.7,2,1.47,1.47,0,0,0,1.75-.91,36.06,36.06,0,0,0,3.42-15,39,39,0,0,0-4.5-18.57l-1.24-2.26q-.58-1-1.08-2.12a29.38,29.38,0,0,1,0-24.69,27.86,27.86,0,0,1,6.42-8.68A33.45,33.45,0,0,1,37,9.14,51.33,51.33,0,0,1,43,9.2c1,.12,2,.16,2.94.33l1.45.25a10.46,10.46,0,0,1,1.43.31,21.61,21.61,0,0,1,9.95,5.07,19.72,19.72,0,0,1,1.89,2,21.07,21.07,0,0,1,1.54,2.32,22.07,22.07,0,0,1,2.18,5.22,25.78,25.78,0,0,1,1,5.7l.07.72c0,.25.05.44.07.79a17.25,17.25,0,0,0,.23,1.85,18.31,18.31,0,0,0,1,3.54,19.06,19.06,0,0,0,1.71,3.27,18,18,0,0,0,2.36,2.81,19.78,19.78,0,0,0,2.81,2.26l1.51.9a6.88,6.88,0,0,1,.91.55l.12.11,0,0a.83.83,0,0,1,0,.09.92.92,0,0,1,.09.38.91.91,0,0,1-.08.38c-.08.14,0,.14-.35.45a9.14,9.14,0,0,1-4.06,2.18h0a2.59,2.59,0,0,0-1.89,2.64l.31,5.72-.66.14c-.88.17-1.76.31-2.64.4s-1.76.14-2.63.15h-1a5.14,5.14,0,0,0-.76,0,4.39,4.39,0,0,0-2.79,1.51,4.46,4.46,0,0,0-1.07,2.87,4.56,4.56,0,0,0,.23,1.46c.1.29.2.58.33.86a10,10,0,0,0,2,3A12.76,12.76,0,0,0,67,72.83c.46.12.92.24,1.38.33v0l-.15.66c-.06.28-.11.53-.15.78-.08.5-.14,1-.17,1.5a10.14,10.14,0,0,0,0,1.67c0,.17,0,.33.08.53v.11l.09.3v0l0,.1a2.78,2.78,0,0,1,.12.39,4.14,4.14,0,0,1-3,4.93,3.75,3.75,0,0,1-.47.11l-.55.1-1.09.18q-1.09.17-2.16.27c-1.43.14-2.85.21-4.24.21a36.58,36.58,0,0,1-7.84-.75A26.78,26.78,0,0,1,42.28,82a17.64,17.64,0,0,1-4.87-3.51,1.58,1.58,0,0,0-2.06-.3,1.47,1.47,0,0,0,0,2.09,19.77,19.77,0,0,0,5.42,4.49,28.64,28.64,0,0,0,5.72,2.53c-1.16,2.56-.95,7.27.64,9a9,9,0,0,0,1.47.06,7.49,7.49,0,0,0,1.28-.06c1.38-1.5,1.72-5.28,1-7.92a43.65,43.65,0,0,0,5.75.59,46,46,0,0,0,4.63-.06q1.18-.07,2.39-.22l1.21-.16.61-.09c.19,0,.41-.07.68-.13a8.34,8.34,0,0,0,5.19-3.54,8.47,8.47,0,0,0,1.27-6.42,6.94,6.94,0,0,0-.21-.83l0-.05h0v-.1a6.09,6.09,0,0,1,0-.89c0-.34.08-.71.15-1.06,0-.17.07-.35.11-.49l.16-.61.17-.63a4.17,4.17,0,0,0,.11-1.47,4,4,0,0,0-1.44-2.69,4,4,0,0,0-1.42-.75l-.81-.19c-.38-.07-.74-.19-1.11-.29a8,8,0,0,1-3.57-2.09,5.16,5.16,0,0,1-.94-1.45h.44c1,0,2.08,0,3.12-.13s2.08-.23,3.11-.42a27.2,27.2,0,0,0,3.2-.78A2.48,2.48,0,0,0,75.42,61v-.08l-.24-5.8a13.06,13.06,0,0,0,4.43-2.81,8.43,8.43,0,0,0,.75-.84A6.28,6.28,0,0,0,81,50.29a6.22,6.22,0,0,0,0-5.16A6.13,6.13,0,0,0,80.75,44.54Zm-12.25,28v0S68.5,72.52,68.5,72.54Z"/><text x="0" y="115" fill="#000000" font-size="5px" font-weight="bold" font-family="'Helvetica Neue', Helvetica, Arial-Unicode, Arial, Sans-serif">Created by Gregor Cresnar</text><text x="0" y="120" fill="#000000" font-size="5px" font-weight="bold" font-family="'Helvetica Neue', Helvetica, Arial-Unicode, Arial, Sans-serif">from the Noun Project</text></svg>