<?xml version="1.0" encoding="UTF-8"?>
<svg width="1200pt" height="1200pt" version="1.1" viewBox="0 0 1200 1200" xmlns="http://www.w3.org/2000/svg">
 <path d="m219.6 792h99.602c9.6016 0 19.199-1.1992 27.602-4.8008 9.6016 14.398 22.801 26.398 36 34.801l172.8 110.4c13.199 8.3984 25.199 12 38.398 12 25.199 0 52.801-19.199 52.801-62.398l-0.003907-565.2c0-43.199-27.602-62.398-52.801-62.398-12 0-25.199 3.6016-38.398 12l-172.8 110.4c-13.199 8.3984-25.199 20.398-36 34.801-8.3984-2.3984-18-4.8008-27.602-4.8008h-99.602c-48 0-87.602 39.602-87.602 87.602v207.6c0.003906 50.395 39.605 89.996 87.605 89.996zm188.4-373.2 172.8-110.4c7.1992-4.8008 10.801-4.8008 12-4.8008 3.6016 0 4.8008 8.3984 4.8008 14.398v565.2c0 6-1.1992 14.398-4.8008 14.398-1.1992 0-6 0-12-4.8008l-172.8-111.6c-12-7.1992-22.801-20.398-30-36-7.1992-14.398-12-28.801-12-42v-206.4c0-13.199 4.8008-28.801 12-42 7.1992-15.602 18-28.801 30-36zm-228 78c0-21.602 18-39.602 39.602-39.602h99.602 6c-4.8008 13.199-7.1992 26.398-7.1992 39.602v207.6c0 13.199 2.3984 26.398 7.1992 39.602h-6-99.602c-21.602 0-39.602-18-39.602-39.602z"/>
 <path d="m764.4 758.4c4.8008 4.8008 10.801 7.1992 16.801 7.1992s12-2.3984 16.801-7.1992c87.602-87.602 87.602-229.2 0-315.6-9.6016-9.6016-24-9.6016-33.602 0-9.6016 9.6016-9.6016 24 0 33.602 68.398 68.398 68.398 180 0 248.4-9.5977 8.4023-9.5977 24.004 0 33.602z"/>
 <path d="m838.8 798c-9.6016 9.6016-9.6016 24 0 33.602 4.8008 4.8008 10.801 7.1992 16.801 7.1992s12-2.3984 16.801-7.1992c128.4-128.4 128.4-336 0-464.4-9.6016-9.6016-24-9.6016-33.602 0-9.6016 9.6016-9.6016 24 0 33.602 109.2 110.39 109.2 288 0 397.2z"/>
 <path d="m908.4 868.8c-9.6016 9.6016-9.6016 24 0 33.602 4.8008 4.8008 10.801 7.1992 16.801 7.1992s12-2.3984 16.801-7.1992c166.8-166.8 166.8-438 0-604.8-9.6016-9.6016-24-9.6016-33.602 0-9.6016 9.6016-9.6016 24 0 33.602 148.8 148.8 148.8 388.8 0 537.6z"/>
</svg>
