<?xml version="1.0" encoding="UTF-8"?><svg id="Layer_1" xmlns="http://www.w3.org/2000/svg" viewBox="0 0 1176.227 1167.106"><path d="M272.235,461.308c.676-9.414-.145-31.973-15.574-25.656-8.414,3.789-7.723,14.363-7.938,22.188-1.145,21.785,23.105,29.094,23.512,3.469h0Z"/><path d="M331.695,463.898c.676-9.414-.145-31.969-15.574-25.656-8.414,3.789-7.723,14.363-7.938,22.188-1.148,21.785,23.105,29.098,23.512,3.469h0Z"/><path d="M287.755,541.378c16.273-.184,38.172-7.812,44.27-24.195,2.301-6.191-5.473-11.027-10.609-8.18-26.051,23.281-48.301,18.906-74.34-1.625-5.355-3.824-12.461,3.637-8.977,8.957,10.504,16.035,30.68,25.258,49.656,25.043h0Z"/><path d="M574.505,53.238c-.836,1.539-2.449,2.496-4.199,2.496s-3.363-.957-4.199-2.496c-64.387-107.34-191.93-37.113-168.36,75.738,5.66,27.246,21.941,50.23,39.488,69.805,36.926,41.332,127.16,108.19,139.66,96.652,322.17-167.57,100.14-400.62-2.394-242.2l.005.005Z"/><path d="M785.835,491.658c3.957-8.555,5-28.695-4.148-34.211v.004c-2.816-1.547-6.184-1.73-9.152-.504-2.973,1.227-5.227,3.734-6.129,6.816-2.137,8.668-4.019,28.746,4.703,34.004,5.711,3.359,12.211-.898,14.727-6.109h0Z"/><path d="M839.895,519.848c-8.375,2.363-13.109,9.918-21.938,12.238-11.062,2.902-21.047-.566-31.664-3.344-3.297-.809-6.695.898-8.019,4.027-1.324,3.125-.184,6.75,2.691,8.559,12.371,7.488,27.211,9.758,41.254,6.301,10.84-2.668,24.742-9.473,25.57-21.742v-.004c-.012-1.941-.926-3.769-2.469-4.949-1.543-1.18-3.547-1.582-5.426-1.086h0Z"/><path d="M1137.715,437.978c-5.746-91.863-62.785-193.66-162.53-203.64-27.246-76.078-135.39-100.22-195.4-47.91-18.055,15.527-35.496,42.48-33.07,67.32.738,7.578,11.449,9.938,13.809,1.891,19.004-105.34,167.7-102.53,200.13-7.805,142.03,31.496,149.73,128.55,166.95,251.92,29.113,111.36,64.078,237.4-66.586,297.65-12.57,5.109-7.109,25.801,5.656,20.621,90.316-35.258,123.57-129.19,104.26-219.58-9.324-54.062-26.973-105.75-33.211-160.48l-.008.013Z"/><path d="M261.995,1030.078c-.836-7.32-10.203-13.414-16.957-9.508-12.48,6.48-11.785,23.797,3.543,24.887,7.516-.305,14.395-7.859,13.414-15.379h0ZM250.022,1029.281l-.031-.023c.66.281,1.188.52.031.023ZM250.456,1026.09l.039.016c-.719-.121-1.441-.238-2.16-.305l2.121.289Z"/><path d="M248.895,1128.578c5.281,2.457,11.52-1.527,13.074-6.816,1.336-4.27.266-8.934-2.797-12.195-3.066-3.262-7.648-4.621-11.996-3.559-12.34,2.984-11.453,22.262,1.719,22.57h0ZM253.696,1115.723c-.078-.098-.145-.199-.223-.297l.223.297Z"/><path d="M104.225,893.348c-6.012,86.949-6.863,174.37-10.41,261.48-.297,10.852,16.32,10.801,16.82.027,2.824-87.121,8.371-174.35,8.719-261.48-.168-9.879-14.262-9.594-15.129-.023v-.004Z"/><path d="M1079.915,1149.478c-9.996-45.406-27.938-87.879-41.613-132.14-23.438-66.48-1.68-136.62.539-204.68,4.477-55.766,2.922-94.496-58.199-112.93,44.113-23.387,55.945-86.617,25.02-125.27-13.199-17.293-31.527-28.227-43.094-46.344,18.238-14.781,25.344-45.48,9.426-65.535,43.258-57.121,15.945-151.05-40.094-190.36-48.531-34.945-121.71-38.41-161.9,10.379-73.844,18.93-106.02,119.57-53.199,176.14,4.953,20.934-3.769,42-14.609,59.785-13.262,23.27-26.363,46.578-33.586,72.605-17.629,63.523,9.894,111.36,44.398,135.99-31.059,32.336-11.691,89.52-12.031,130.21-11.824-19.621-22.613-39.68-33.949-59.688-5.461-12.762-15.414-25.387-25.164-31.305-38.176-18.863-116.86-1.996-117.42,49.23-17.402,13.582-22.82,40.254-6.789,57.762l.004.004c-12.438,23.914-26.66,46.859-42.547,68.641-8.48-52.496-19.777-104.5-33.84-155.78-4.441-15.879-7.602-33.539-18.918-46.207-10.559-11.824-26.922-19.871-41.176-26.238-19.441-8.68-39.016-17.023-58.41-25.781-17.539-7.922-33.027-17.145-38.922-36.59-4.223-13.945-1.883-28.398-3.621-42.379,17.141.285,36.672-1.398,49.801-10.32,42.766-32.242,40.801-160.25,37.359-211.13,25.352-4.703,48.551-16.574,65.082-39.387,8.469-11.684,17.656-27.055,8.176-40.891h.004c-4.262-6.07-10.988-9.945-18.375-10.594-6-.574-11.566-.695-17.062-1.199,24.305-13.945,36.695-43.645,2.879-52.117-36.453-6.867-66.414-28.254-100.56-41.184-62.227-19.598-148.74-.492-156.51,75.109-57.988,13.125-93.559,77.473-77.574,134.12,5.234,20.484,16.496,38.879,25.422,57.961-6.379,33.016,19.82,80.293,56.723,58.242v-.008c4.844,12.531,11.562,24.25,19.93,34.762,5.137,11.785,4.672,24.824,4.957,37.645,11.457,99.051-102.06,104.26-149.13,169.16-19.633,27.207-16.246,59.312-17.41,91.254-3.324,96.168-8.531,192.26-13.887,288.3-1.078,11.82,17.379,11.773,18.449.027-.027.305-.047.512-.062.672,9.453-91.652,11.176-184.04,15.176-276.07,3.016-34.191-5.262-72.137,19.336-100.06,10.645-12.668,24.883-21.527,38.461-30.691,20.117-13.777,40.727-26.98,60.48-41.258-55.492,188.24-10.363,143.91,77.039,229.59v-.004c36.004,35.531,58.18,82.723,62.551,133.12,2.73,30.27,2.766,60.926,2.879,91.078,0,12.34,19.168,12.391,19.18.027.039-43.441-.508-87.023-8.195-129.9-5.008-29.266-13.703-58.137-29.305-83.586,31.043-73.699,49.48-152.09,54.543-231.9,3.645,1.527,7.199,3.09,10.777,4.664,2.281,19.609,9.875,40.078,12.34,60.379,3.773,22.297,11.391,52.602,2.43,74.398-12.402,30.16-56.348,43.348-60.301,77.09-.652,5.562,6.793,7.422,10.27,4.269,12.555-13.344,24.402-27.395,38.684-39.121,12.773-11.762,25.242-25.105,29.93-42.309,6.035-22.137.457-47.637-3.145-69.793-3.102-19.367-7.402-37.922-12.086-57.074,18.75,9.109,42.238,17.133,54.531,34.734,24.844,65.133,32.027,135.79,47.008,203.55l-.004.012c-5.605,6.867-10.531,14.262-14.711,22.078-2.516,5.027,3.145,12.867,8.641,8.672,12.328-9.402,21.602-23.902,30.719-36.238h.004c12.738-17.02,24.547-34.719,35.371-53.02,12.25,22.254,29.059,41.68,49.316,57.004-18.484,28.309-36.965,56.625-55.441,84.941-7.223,11.102-14.355,26.512-25.242,34.613l.004.004c-5.871,4.254-12.816,6.785-20.051,7.309-7.234.527-14.469-.98-20.895-4.344-18.801-9.531-24.656-34.914-33.906-51.801-4.715-54.676-3.68-109.8-7.336-164.47.008-3.977-3.211-7.207-7.188-7.211-3.977-.008-7.207,3.211-7.211,7.188-1.836,95.836,5.52,192.16,15.492,287.47,1.234,10.305,17.449,10.707,16.484.023-2.352-26.074-4.719-52.137-6.855-78.219,9.566,17.016,27.348,27.773,46.855,28.363,19.512.59,37.91-9.078,48.488-25.484,25.758-39.328,52.004-78.961,76.004-119.19,1.394-1.691,1.898-3.945,1.363-6.07-1.738-8.344-3.066-16.75-4.613-25.125,7.113-15.383,18.742-28.445,25.977-44.027l.004.004c6.242-2.07,11.969-5.449,16.797-9.914,14.828,55.609,20.09,116.76,56.441,163.78,8.992,11.637,26.082,29.543,42.703,30.641-11.219,28.938-17.508,59.555-18.605,90.57-.371,12.016,18.047,11.961,18.621.027,1.938-40.508,13.977-78.762,32.188-114.8,16.98-33.602,38.762-67.172,20.383-104.81-17.258-35.336-33.738-78.109-2.703-110.95,24.172-25.586,61.695-27.688,84.289.344,3.262,4.047,10.801,3.719,14.121.02,23.188-29.793,61.832-25.297,85.441,1.352,29.785,33.727,11.594,75.492-5.215,110.73-17.629,36.961,4.227,70.91,20.898,103.77l-.008-.004c18.422,35.77,29.863,74.715,33.715,114.76.93,9.668,15.121,10.078,15.359.023,1.719-51.68-18.074-100.48-41.926-145.31-8.062-16.613-18.238-35.504-13.289-54.426,3.981-15.176,13.5-29.301,18.75-44.203,5.617-15.961,10.32-33.891,8.656-50.938-5.281-60.328-82.219-101.93-129.12-57.184-41.52-39.719-109.47-11.469-126.5,41.438-10.234,31.797,4.269,67.758,18.098,96.238,19.328,36.668-11.406,70.598-24.934,103.66-51.082,7.336-76.746-113.11-84.191-150.66-11.797-72.695-32.879-100.64-111.02-89.539,7.055-30.332,66.164-38.516,90.434-27.773,8.398,4.453,13.188,13.297,17.84,22.117,12.922,24.383,25.215,49.098,40.398,72.211,24.93,36.48,40.5,74.188,34.445,118.88-1,5.492,5.008,8.566,9.727,7.023l-.398.398c7.801-3.121,8.922-12.047,9.695-19.441,2.543-26.512-4.637-53.039-15.52-77.07-8.531-42.281-8.512-86.73-10.496-129.84.332-33.133,16.941-40.117,45.789-46.504,39.75-12.793,67.734-52.996,66.164-94.438,15.691,7.535,34.777,7.043,51.938,8.688,12.672,102.58,146.03,38.707,138.07,143.31-.164,28.023-2.66,55.891-5.598,83.734-21.316,131.62,16.004,167.76,47.762,285.55,2.777,12.023,21.07,6.961,18.43-5.039l.003.023ZM167.005,507.108c-3.023-9.719-16.98-6.812-16.965,2.113-4.812,10.539-18.547,7.199-25.242-.281-10.914-12.992-13.508-40.801-1.816-53.93,13.246-13.051,22.043,8.992,22.91,19.441.531,6.383,7.016,11.102,13.086,7.535,44.996-26.453,63.016-72.32,61.141-121.87,39.996,19.566,84.113,30.863,127.97,29.691,3.969,58.934,4.242,123.74-18.719,179.19-8.719,21.047-31.629,21.332-51.457,21.34-55.25,1.598-96.18-30.461-110.91-83.23h.002ZM176.884,863.578c-10.926-7.492-22.438-14.68-29.703-26.098-9.121-14.348-1.656-36,1.348-51.523,4.781-24.746,10.914-49.078,17.703-73.277,10.934,69.508,37.59,138.12,70.695,198.89h.008c-18.742-17.531-38.816-33.574-60.047-47.988l-.004-.004ZM181.943,692.888c15.281,13.75,28.676,25.82,45.816,37.105-7.938,6.894-11.762,17.805-12.457,29.281-1.023,17.668-2.121,35.324-2.836,53.008-14.297-38.789-22.848-79.047-30.523-119.39v-.004ZM251.619,718.868c-6.961,3.793-14.609-3.269-19.965-6.867-10.379-6.988-20.254-14.695-29.555-23.066-6.117-5.5-11.914-13.738-19.332-17.836,13.098-17.574,16.035-42.562,14.398-64.527h.004c20.395,13.715,43.234,23.387,67.281,28.488,1.441,16.902,6,33.52,17.488,45.996-10.164,12.219-17.73,27.855-30.32,37.812h.001ZM298.08,811.247c-2.879-12.664-6.336-25.223-9.934-37.68-4.516-15.664-8.934-35.406-21.207-45.082,10.16-10.246,21.809-22.203,28.969-35.66v-.004c6.09,3.887,12.465,7.301,19.07,10.219-5.121,36.27-9.074,72.344-16.898,108.21v-.003ZM547.79,823.563c24.754-3.121,61.383-2.16,72.594,23.836,2.602,17.387-24.465,22.043-38.859,22.879-11.348.66-11.504,18.301-.023,17.773,2.211-.102,4.461-.238,6.719-.414-7.988,16.434-15.867,27.723-24,44.793-13.453-13.68-25.109-29.016-34.688-45.645,2.543-6.359,10.559-14.746,4.281-21.164-17.867-14.66-6.633-38.789,13.98-42.059h-.004ZM767.9,707.983c-26.16,11.062-56.48.238-71-24.164-18.078-30.402-30.434-82.109,18.48-152.31,0,0,7.199-13.109,12.68-24.457v-.004c.633-1.324,2.078-2.059,3.523-1.801,1.445.262,2.543,1.453,2.676,2.918,2.777,29.492,16.355,96.207,82.18,105.41.004.004,7.379,70.77-48.539,94.414v-.006ZM935.45,519.953c2.535-13.117-18.203-13.711-19.922-.668-5.012,54.879-62,96.141-114.48,72.734-54.215-25.387-52.832-92.777-52.219-144.36,1.949-34.336,11.387-71.098,37.492-95.473,2.473,37.891,16.734,76.559,45.16,102.57-8.574,4.574-7.156,17.07-7.012,25.387.391,5.617.75,12,6.144,15.16,15.812,6.227,19.371-17.234,16.871-28.105h.004c22.773,15.055,49.949,22.016,77.156,19.766,4.781-.461,8.543-4.277,8.941-9.062,4.469-9.809,11.738-17.176,22.363-6.91,15.809,17.68.961,45.629-20.508,48.953l.009.009Z"/></svg>