<?xml version="1.0" encoding="UTF-8"?><svg id="Layer_2" xmlns="http://www.w3.org/2000/svg" viewBox="0 0 462.142 462.189"><defs><style>.cls-1{fill:#fdff94;}.cls-2{fill:#ffd4fe;}</style></defs><g id="Layer_2-2"><path d="M231.047,462.189c-40.219,0-62.906-22.781-67.688-67.781-35.156,28.406-67.266,28.406-95.719-.047-14.109-14.016-21.328-29.25-21.375-45.328-.047-16.172,6.891-32.719,21.094-50.25C22.64,294.002,0,271.314,0,231.095s22.641-63.094,67.406-67.875c-14.203-17.578-21.141-34.172-21.047-50.391.047-16.031,7.219-31.219,21.328-45.188,28.453-28.453,60.562-28.406,95.719-.047C168.187,22.735,190.875,0,231.094,0s62.906,22.688,67.688,67.5c17.484-14.25,33.984-21.188,50.156-21.234h.047c16.031,0,31.359,7.172,45.516,21.328,28.406,28.406,28.359,60.469.047,95.531,44.859,4.781,67.594,27.562,67.594,67.875s-22.688,62.906-67.547,67.688c13.5,16.641,20.391,32.391,21.047,47.812.703,16.922-6.375,32.953-21.141,47.719-14.156,14.156-29.484,21.328-45.562,21.328h-.047c-16.125,0-32.672-6.984-50.109-21.188-4.828,45.047-27.516,67.828-67.734,67.828l-.002.002Z"/><path class="cls-2" d="M171.281,366.564c1.125,0,2.297.234,3.375.656,3.281,1.359,5.438,4.594,5.438,8.156,0,61.312,27.234,69.141,50.953,69.141s51-7.875,51-69.141c0-3.562,2.156-6.797,5.438-8.156s7.125-.609,9.609,1.922c19.031,19.125,36.469,28.875,51.797,28.875h.047c11.344,0,22.172-5.297,33.047-16.172,16.734-16.734,30.422-41.531-12.75-84.703-2.531-2.531-3.281-6.328-1.922-9.609s4.594-5.438,8.156-5.438c61.125,0,68.953-27.234,68.953-51s-7.828-51.188-68.953-51.188c-3.562,0-6.797-2.156-8.156-5.438s-.609-7.078,1.922-9.609c43.172-43.172,29.484-67.922,12.75-84.703-10.875-10.875-21.703-16.172-33.047-16.172h-.047c-15.281,0-32.719,9.75-51.797,28.875-2.531,2.531-6.328,3.281-9.609,1.922s-5.438-4.594-5.438-8.156c0-61.125-27.234-68.953-51-68.953s-50.953,7.828-50.953,68.953c0,3.562-2.156,6.797-5.438,8.156-3.281,1.406-7.078.609-9.609-1.922-43.266-43.266-68.109-29.531-84.891-12.75-10.828,10.734-16.078,21.422-16.125,32.766-.047,15.328,9.609,32.812,28.641,51.938,2.531,2.531,3.234,6.328,1.875,9.609s-4.594,5.438-8.156,5.438c-60.938,0-68.766,27.328-68.766,51.188,0,23.719,7.828,51,68.766,51,3.562,0,6.797,2.156,8.156,5.438s.609,7.078-1.922,9.609c-19.078,19.078-28.734,36.516-28.734,51.844.047,11.344,5.297,22.078,16.172,32.859,16.828,16.828,41.672,30.562,84.938-12.703,1.734-1.641,3.984-2.531,6.281-2.531h0Z"/><path d="M231.047,324.629c-53.625,0-97.266-43.641-97.266-97.266s43.641-97.266,97.266-97.266,97.312,43.641,97.312,97.266-43.641,97.266-97.312,97.266Z"/><path class="cls-1" d="M231.047,147.679c-43.922,0-79.641,35.719-79.641,79.641s35.719,79.641,79.641,79.641,79.641-35.719,79.641-79.641-35.719-79.641-79.641-79.641Z"/></g></svg>