<?xml version="1.0" encoding="UTF-8"?>
<svg id="Layer_1" data-name="Layer 1" xmlns="http://www.w3.org/2000/svg" viewBox="0 0 1022.297 1199.937">
  <path d="M1022.154,181.496c0-.141.141-.234.141-.375,0-.375-.234-.609-.375-.938-.234-1.781-.844-3.375-1.688-4.781-.234-.469-.609-.938-.938-1.453-1.219-1.547-2.625-2.859-4.453-3.703-.141-.141-.234-.234-.375-.234l-.234-.141L633.942,1.111c-3.844-1.688-8.391-1.453-12,.703l-120.24,73.078c-.234.141-.234.375-.469.469-1.547,1.078-2.859,2.391-3.844,4.078-.141.234-.375.469-.469.703-.844,1.688-1.312,3.469-1.453,5.391l-2.766,120.94-114.09,69.562c-.234.141-.234.375-.469.469-1.688,1.078-3,2.531-3.938,4.219-.141.234-.375.375-.469.609-.844,1.688-1.312,3.469-1.453,5.531l-2.766,120.94-114.14,69.375-.375.375c-1.688,1.078-3.141,2.531-4.078,4.312-.141.234-.234.375-.375.609-.844,1.688-1.312,3.469-1.453,5.531l-2.766,120.94-114.14,69.375c-.141.141-.141.234-.234.234-1.688,1.219-3.141,2.625-4.219,4.453-.141.234-.234.375-.375.469-.844,1.688-1.453,3.469-1.453,5.531l-2.766,120.94-114.14,69.375c-.469.234-.609.703-1.078,1.078-1.219.844-2.156,1.922-2.859,3.141-.234.469-.703.703-.938,1.219-.844,1.547-1.312,3.375-1.453,5.297L.005,1017.878c-.141,5.297,2.859,9.938,7.688,12.141l380.53,168.84c1.688.703,3.469,1.078,5.297,1.078,2.297,0,4.688-.609,6.703-1.922l615.84-376.92c3.844-2.391,6.234-6.469,6.234-11.062V181.813c-.141-.094-.141-.234-.141-.328l-.002.011ZM629.624,27.516l351.37,155.86-95.625,56.156-348.98-155.26,93.235-56.756ZM521.014,105.75l352.22,156.84v100.45l-354.61-157.31,2.39-99.98ZM506.53,228.65l351.37,155.86-95.625,56.156-349.13-155.39,93.385-56.626ZM397.78,306.744l352.22,156.84v100.45l-354.47-157.31,2.25-99.98ZM383.296,429.644l351.37,155.86-95.625,56.156-349.03-155.39,93.285-56.626ZM274.686,507.878l352.22,156.84v100.45l-354.52-157.36,2.3-99.93ZM260.155,630.738l351.37,155.86-95.625,56.156-348.98-155.34,93.235-56.676ZM151.545,708.879l352.22,156.84v100.45l-354.61-157.36,2.39-99.93ZM137.014,831.739l351.28,155.9-95.625,56.156L43.689,888.405l93.325-56.666ZM26.014,1009.819l2.297-99.938,352.22,156.84v100.45L26.014,1009.819ZM406.454,1164.039v-98.297l116.77-68.531c.234-.141.375-.469.703-.703,1.453-.938,2.531-2.156,3.469-3.609.234-.375.609-.703.844-1.219.844-1.688,1.453-3.609,1.453-5.625v-121.4l116.77-68.531c.375-.141.375-.469.703-.703,1.453-.938,2.531-2.156,3.469-3.609.234-.375.609-.703.844-1.219.844-1.688,1.453-3.609,1.453-5.625v-121.31l116.77-68.531c.234-.141.375-.469.703-.703,1.453-.938,2.531-2.156,3.469-3.609.234-.375.609-.703.844-1.219.844-1.688,1.453-3.609,1.453-5.625v-121.31l116.77-68.531c.375-.141.375-.469.703-.703,1.453-.938,2.531-2.156,3.469-3.609.234-.375.609-.703.844-1.219.844-1.688,1.453-3.609,1.453-5.625v-121.45l97.312-57.141v598.45l-590.267,361.207Z"/>
</svg>