<?xml version="1.0" encoding="UTF-8"?>
<svg id="Layer_1" data-name="Layer 1" xmlns="http://www.w3.org/2000/svg" viewBox="0 0 1177.663 622.369">
  <path d="M1037.13,275.901c53.867,7.738,103.78-29.773,111.46-83.605,7.738-53.641-29.762-103.57-83.797-111.28-53.891-7.5-103.69,29.977-111.41,83.652-7.504,53.797,29.961,103.75,83.746,111.23v.003Z"/>
  <path d="M153.62,617.981L0,454.071v163.91h153.62Z"/>
  <path d="M909.76,597.241c12.625-8.879,20.941-23.52,20.941-40.117,0,0,.07-336.54.059-336.71.516-21.301-3.324-46.164-16.055-73.297-11.867-25.441-38.375-67.836-123.62-110.44-112.82-56.426-219.38-32.652-244.19-26.113-32.988,7.738-92.27,41.977-92.27,107.82l-.383,254.16-270.14,153.5c-23.629,13.414-31.883,43.441-18.469,67.043,9.059,15.949,25.68,24.887,42.805,24.887,8.23,0,16.57-2.074,24.227-6.434l309.05-175.6c13.5-7.68,22.57-21.254,24.504-36.648l15.875-126.96,61.523,70.691-182.21,184.17c-.73.73-30.574,31.465-2.363,66.602,1.031,1.273,2.113,2.305,3.18,3.422h-113.41v25.152h828.85v-25.152l-267.903.024ZM530.57,597.217l228.41-195.96c17.449-15.516,24.254-35.484,12.023-59.219l-73.645-147.97c6.887,1.766,13.883,3.84,20.902,6.527,51.469,19.754,100.88,57.996,114.06,69.961l.191.059-.012,286.5c0,16.598,8.281,31.234,20.902,40.117l-322.832-.015Z"/>
</svg>