<?xml version="1.0" encoding="UTF-8"?>
<svg id="Layer_1" data-name="Layer 1" xmlns="http://www.w3.org/2000/svg" viewBox="0 0 422.872 408.158">
  <path d="M333.712,408.139c4.246-.219,8.203-2.246,10.887-5.578,2.688-3.332,3.852-7.66,3.207-11.91l-19.059-125.98,90.008-94.727v.004c2.5-2.672,3.961-6.172,4.106-9.852.141-3.676-1.039-7.281-3.324-10.145-2.289-2.863-5.523-4.793-9.109-5.426l-124.6-20.566L224.807,8.02l-.004.004c-1.731-3.27-4.582-5.781-8.016-7.07-3.434-1.293-7.219-1.27-10.637.062-3.422,1.332-6.242,3.883-7.934,7.168l-57.977,113.35-127.8,22.992c-3.613.641-6.867,2.59-9.152,5.484-2.289,2.894-3.449,6.535-3.27,10.238.18,3.699,1.695,7.207,4.254,9.859l88.887,90.84-17.938,130.02c-.469,3.66.398,7.367,2.438,10.43,2.039,3.062,5.109,5.269,8.637,6.211,3.531.941,7.281.551,10.547-1.098l112.91-57.16,116.59,57.32v.004c2.297,1.106,4.832,1.609,7.371,1.457v.008ZM313.692,366.686l-97.535-48.09h-.004c-4.258-2.094-9.242-2.035-13.453.156l-93.691,47.77,14.895-108.81c.656-4.688-.883-9.414-4.164-12.793l-73.832-75.457,106.82-19.27v.004c4.602-.816,8.566-3.746,10.73-7.934l48.207-94.402,51.09,96.828c2.195,4.231,6.231,7.168,10.891,7.938l103.62,17.164-75.273,79.02v-.004c-3.328,3.414-4.871,8.215-4.164,12.953l15.855,104.93.008-.003Z"/>
</svg>