<?xml version="1.0" encoding="UTF-8"?>
<svg width="1200pt" height="1200pt" version="1.1" viewBox="0 0 1200 1200" xmlns="http://www.w3.org/2000/svg">
 <path d="m105.23 241.45c-0.70312-4.3125-1.2188-8.625-2.1562-12.844-2.1562-10.312 4.7812-17.156 14.859-14.625 23.625 5.7656 47.297 11.531 70.781 17.391 11.859 3 23.625 6.7031 35.625 9.375 17.297 3.7031 34.688 6.8438 52.078 10.078 16.312 3 32.625 5.8594 48.938 8.3906 12.469 1.9219 25.078 3.4688 37.688 5.0625 14.297 1.6875 28.688 3.2344 43.078 4.5469 16.312 1.5469 32.766 3.375 49.078 4.0781 24.703 0.9375 49.453 1.3125 74.156 1.3125 31.078 0 62.297-0.70312 93.375-1.0781 2.3906 0 3.375-0.70312 3.9375-3.2344 0.84375-3.375 2.2969-6.6094 4.2188-9.4688 2.2969-3.4688 6-4.2188 9.6094-2.5312 3.7031 1.6875 5.0625 4.6875 4.7812 8.8594-0.14062 3 0.14062 6.1406 0.60938 9.1406 0.60938 3.7031 3.375 5.1562 6.8438 6 5.2969 1.2188 10.312 3 15.703 3.9375 3.1406 0.46875 6.8438 0.60938 9.7031-0.46875 6.375-2.3906 12.141-1.5469 16.078 3.375 4.5469 5.5312 9.375 4.4531 15.141 3.4688 4.5469-0.84375 9.6094-0.84375 13.922 0.375 7.7812 2.1562 10.453 11.391 5.625 18-1.6875 2.1562-3.7031 4.0781-5.625 6-6.9375 6.4688-14.062 12.844-21.141 19.312-0.60938 0.60938-1.0781 1.2188-2.1562 2.625 3.7031-0.60938 6.375-1.3125 9.1406-1.5469 3.6094-0.23438 7.3125-0.60938 10.781 0s6.2344-0.14062 9.1406-1.9219c10.453-6.4688 21-12.703 31.547-18.938 1.4531-0.84375 3.2344-1.4531 4.9219-1.9219 7.9219-2.3906 15.141 2.8594 15.469 11.156v2.625c0 5.2969 1.7812 6.4688 6.8438 4.4531 1.4531-0.60938 3-1.4531 4.2188-2.3906 10.453-8.3906 21.375-7.2188 32.531-1.9219 3.1406 1.4531 6 3.4688 9.8438 5.7656 0.84375-1.0781 1.5469-2.625 2.7656-3.7031 4.4531-3.8438 11.297-2.0625 12.469 3.7031 1.9219 8.8594 6.375 16.312 11.859 23.297 4.4531 5.625 5.5312 12.234 6.8438 18.844 0.84375 4.2188 1.3125 8.3906 2.1562 12.609 0.23438 1.0781 1.2188 2.625 2.1562 2.8594 9.6094 2.0625 14.766 8.7656 17.766 17.297 2.8594 7.9219 5.2969 15.938 7.5469 24 1.9219 6.8438 0.23438 10.312-5.5312 14.531-1.3125 0.9375-2.3906 2.5312-2.8594 4.0781-0.9375 2.8594-1.6875 5.7656-2.1562 8.7656-0.23438 0.9375 0 2.2969 0.46875 3 0.375 0.375 1.9219 0.14062 2.7656-0.23438 4.2188-1.7812 8.8594-3.2344 12.469-5.8594 6-4.4531 11.297-9.7031 16.922-14.625 4.0781-3.4688 7.9219-7.3125 12.375-10.312 2.2969-1.5469 5.625-1.5469 8.3906-2.5312 1.2188-0.375 2.2969-1.3125 3.375-2.0625 0.14062 0 0.14062-0.23438 0.14062-0.375 2.7656-7.0781 2.7656-7.0781-2.8594-12.469-1.2188-1.0781-2.2969-2.2969-3.2344-3.6094-5.7656-7.5469-3.4688-15.938 5.5312-18.844 8.3906-2.7656 17.062-5.2969 25.781-6.6094 5.0625-0.70312 10.453 0.60938 15.609 1.6875 3.9375 0.84375 7.3125 0.375 10.781-1.5469 2.8594-1.6875 3.9375-3.7031 3.7031-7.0781-1.5469-21.703 9.1406-40.078 29.531-48.469 18.234-7.5469 37.078-14.156 55.547-20.859 2.8594-1.0781 4.4531-2.5312 5.5312-5.3906 1.5469-4.0781 3.6094-7.9219 6.1406-11.531 2.625-3.7031 4.0781-7.5469 4.0781-12.234 0-7.9219 0.23438-15.844 0.60938-23.766 0.23438-6.2344 1.6875-12.469 6.4688-16.781 2.625-2.3906 6.2344-4.0781 9.7031-5.0625 4.3125-1.2188 9-1.0781 13.312-2.0625 7.4531-1.6875 13.688 0.375 19.219 5.0625 7.4531 6.2344 11.062 14.766 13.688 23.766 0.46875 1.6875 1.6875 3.4688 3.1406 4.6875 4.2188 3.6094 8.5312 6.8438 12.844 10.219 2.2969 1.6875 4.4531 3.9375 7.0781 4.6875 7.5469 2.3906 9.8438 11.391 4.3125 16.781-4.5469 4.4531-7.9219 10.078-11.625 15.234-3.7031 5.0625-7.7812 9.4688-13.781 11.859-3.8438 1.5469-6.375 4.4531-7.6875 8.2969-1.6875 4.9219-4.7812 8.7656-9 11.766-4.6875 3.4688-8.3906 7.6875-9.7031 13.453 0.23438 1.6406 0.32812 4.0312 0.9375 6.0938 1.3125 4.3125 3.2344 8.3906 4.6875 12.703 0.70312 2.0625 1.5469 3 3.8438 3.375 7.4531 0.9375 11.859 5.625 14.156 12.375 2.3906 7.2188 1.3125 14.062-4.9219 18.609-10.312 7.5469-21.375 14.156-34.453 16.219 0 0.14062-0.14062 0.375 0 0.60938 5.0625 9.8438 4.4531 15.609-4.4531 22.312-7.3125 5.5312-15.703 9.8438-23.859 14.297-2.5312 1.3125-3 2.625-2.1562 4.9219 0.9375 2.625 1.9219 5.1562 2.625 7.7812 3.7031 14.062-2.5312 24.844-11.625 34.547-1.5469 1.6875-2.0625 2.7656-1.0781 4.7812 4.0781 9.375 3.7031 18.609-0.70312 27.609-3 6.1406-4.7812 12.469-6.7031 18.938-1.6875 5.7656-0.23438 9 3.1406 12.609 0.70312 0.84375 1.4531 1.7812 1.9219 2.7656 5.0625 9.375 10.078 18.703 14.859 28.219 3.1406 6.1406 2.7656 12.234-1.9219 17.531-3.2344 3.8438-6.9375 7.2188-10.219 11.062-1.0781 1.2188-2.1562 3.2344-2.0625 4.6875 0.70312 9.9375-2.3906 15.375-11.859 18.844-4.2188 1.5469-7.5469 3.6094-9.6094 7.7812-1.2188 2.3906-3.1406 4.5469-4.9219 6.6094-3.4688 3.9375-6.4688 8.1562-7.5469 13.688-0.9375 5.0625-4.3125 7.9219-9 9.8438-2.1562 0.84375-4.0781 2.7656-5.3906 4.6875-5.625 7.5469-9.1406 16.078-11.531 25.219-1.3125 5.2969-4.9219 8.7656-10.453 9.7031-3 0.46875-4.6875 2.1562-6.2344 4.7812-4.7812 8.0625-10.219 15.844-12.703 25.078-5.2969 19.547-3.7031 37.547 11.062 52.922 9.2344 9.6094 13.688 21.703 18 33.938 2.8594 8.1562 5.7656 16.312 9.1406 24.234 1.2188 2.8594 3.1406 5.8594 5.5312 7.9219 11.062 9.1406 13.688 21.234 12.844 34.547-0.70312 11.766-3.9375 23.062-8.5312 33.703-3.375 7.7812-11.859 10.312-20.859 6.4688-4.6875-2.0625-8.3906-5.1562-9.9375-10.078-1.2188-3.9375-3.7031-6.375-7.5469-7.6875-11.062-3.7031-17.859-11.062-20.297-22.688-0.375-1.7812-2.0625-4.2188-3.6094-4.6875-8.1562-2.5312-11.297-8.7656-12.703-16.219-0.70312-3.4688-2.1562-5.8594-5.1562-7.7812-6.8438-4.5469-10.219-11.297-10.312-19.453 0-4.4531 0.375-8.8594-0.14062-13.219-0.375-2.7656-1.2188-6.2344-3.1406-8.0625-6.9375-6.2344-14.531-11.859-21.938-17.625-2.7656-2.1562-5.1562-1.5469-7.3125 1.4531-1.7812 2.625-3.9375 5.1562-6.2344 7.5469-8.3906 8.625-16.781 8.8594-25.781 0.9375-4.2188-3.7031-8.5312-6.9375-13.922-8.5312-11.062-3.1406-21.469-1.2188-32.156 2.1562-3.6094 1.0781-7.5469 1.0781-11.391 1.0781-1.5469 0-3.375-1.2188-4.4531-2.5312-1.7812-2.1562-3.6094-2.625-6.2344-2.0625-3.2344 0.70312-6.7031 1.2188-9.9375 1.6875-2.625 0.375-3.4688 1.4531-2.1562 4.0781 2.0625 4.0781 4.0781 8.0625 5.5312 12.375 1.4531 4.2188 1.7812 8.625-0.375 12.844-1.7812 3.4688-4.6875 5.7656-8.7656 6.4688-3.6094 0.70312-6.9375 2.1562-10.547 2.7656-3.7031 0.60938-7.5469 0.375-11.391 0.9375-3.8438 0.60938-7.5469 1.4531-11.297 2.5312-4.2188 1.2188-8.2969 3.1406-12.469 4.3125-7.2188 2.0625-12.938-0.9375-15.609-7.9219-2.8594-7.5469-2.8594-7.6875-11.062-7.3125-9.7031 0.46875-19.078-0.375-28.453-3.9375-10.781-4.0781-22.688 1.4531-30.844 12.609-4.2188 5.8594-8.7656 11.625-13.922 16.688-6.7031 6.7031-15.234 10.547-24.703 11.859-6.2344 0.84375-10.547 4.7812-13.781 9.6094-8.7656 12.703-11.859 26.391-6 41.297 1.5469 3.9375 3 8.0625 4.2188 12.141 3.1406 10.688-4.4531 21.469-15.375 20.625-17.156-1.3125-33.609-5.625-48-15.844-10.922-7.6875-14.766-18.938-16.219-31.453-0.70312-6.2344-3.4688-10.781-7.2188-15.844-8.7656-11.625-17.156-23.625-23.625-36.609-4.9219-9.6094-11.156-15.469-21.375-17.766-9.7031-2.1562-7.2188-3.8438-12.469 4.2188-3.1406 4.6875-6.1406 9.4688-9.1406 14.297-4.7812 7.7812-13.078 10.688-21 5.8594-8.8594-5.2969-17.531-11.297-25.922-17.531-8.625-6.4688-12.234-16.078-13.312-26.531-0.70312-6.9375-3.6094-12.234-8.5312-17.062-8.5312-8.3906-17.859-16.453-22.922-27.703-2.0625-4.6875-4.9219-6.2344-9.7031-6.2344-6.8438-0.14062-13.781-0.9375-20.625-1.4531-1.3125-0.14062-2.625 0-4.4531 0 0.84375 5.2969-1.0781 9.375-5.5312 11.062-3.1406 1.2188-6.9375 0.9375-10.312 0.46875-15.703-2.2969-31.453-4.7812-47.156-7.2188-11.531-1.7812-22.312-6-32.156-12.141-20.297-12.609-40.547-25.078-60.609-38.062-8.3906-5.3906-17.062-8.0625-27-7.9219-8.625 0.14062-17.297-0.375-25.922-0.60938-9.375-0.375-14.062-4.3125-15.844-13.453-1.3125-6.375-2.2969-12.844-3.6094-19.219-0.9375-4.5469-3.8438-7.9219-8.1562-9.7031-7.6875-3.2344-12.375-8.625-13.688-17.062-0.23438-1.4531-1.6875-3.1406-3-3.9375-7.2188-4.0781-14.297-8.2969-21.703-11.766-10.453-4.9219-14.297-11.156-13.219-22.688 0.23438-1.4531 0.60938-3.375 0.84375-5.2031 0.46875-3.8438-0.375-7.2188-2.8594-10.219-4.2188-4.9219-6.8438-10.312-7.7812-16.781-0.46875-3.2344-1.7812-6.4688-3.375-9.4688-4.2188-8.1562-5.625-16.453-3.1406-25.453 0.23438-1.5469-0.375-3.9375-1.4531-5.0156-6.2344-6.375-8.7656-12.938-2.5312-21.938 0.46875-0.70312 0.23438-2.2969-0.23438-3.1406-2.1562-2.8594-5.1562-5.2969-6.7031-8.3906-4.3125-8.4375-8.1562-17.062-11.859-25.828-2.1562-5.2969-1.0781-10.547 1.9219-15.141 2.2969-3.375 2.1562-6.2344 0.60938-9.7031-5.1562-11.531-7.6875-23.531-2.3906-35.625 1.4531-3.375 3.6094-6.7031 6.1406-9.375 6.6094-6.6094 7.3125-14.531 5.3906-22.688-1.6875-7.4531-1.4531-14.391 1.7812-21.234 9.2344-20.156 18.375-40.453 27.844-60.609 4.9219-10.312 7.7812-20.859 7.6875-32.297-0.14062-7.4531 1.2188-14.531 4.3125-21.234 3.375-7.2188 1.4531-14.156 0.14062-21.375-1.3125-6.8438-2.5312-13.922-2.3906-20.766 0.14062-8.8594 5.7656-15.234 13.781-16.453 3.1406-0.46875 6.8438 0.23438 9.6094 1.7812 3.9375 2.2969 7.0781 6 10.781 8.625 3.2344 2.2969 6.9375 3.8438 10.547 5.7656 0.32812-0.60938 0.79688-1.125 1.1719-1.4531zm486.24 721.55c-0.14062-1.2188-0.14062-1.7812-0.375-2.2969-3.8438-9.8438-4.3125-19.922-3.6094-30.375 1.6875-21.703 17.156-41.859 38.062-48.234 9.4688-2.8594 17.297-7.7812 22.781-16.219 0.9375-1.5469 1.7812-3.375 1.9219-5.1562 1.2188-10.078 3.2344-12.375 13.078-14.531 6.1406-1.3125 10.688-6.4688 10.781-12.703 0.23438-5.8594 0.60938-11.859 0-17.625-0.375-3.4688-1.4531-7.4531-3.6094-9.8438-5.8594-6.7031-8.0625-14.297-8.2969-22.781-0.375-10.922-0.9375-21.844-1.5469-32.766-0.14062-1.2188-0.70312-2.7656-1.5469-3.4688-1.7812-1.5469-3.7031-2.8594-5.8594-3.7031-2.625-1.2188-5.625-2.7656-8.2969-2.5312-5.3906 0.46875-10.781 1.9219-16.219 3.2344-4.5469 1.2188-8.8594 0.84375-13.312-0.70312-1.9219-0.70312-4.3125-0.23438-6.375-0.14062-2.7656 0.23438-5.3906 1.0781-8.1562 1.2188-4.4531 0.14062-9-0.70312-13.453-0.46875-6.1406 0.375-11.531-0.84375-15.938-5.1562-2.5312-2.3906-5.3906-2.3906-8.7656-2.1562-3.375 0.375-6.9375 0.14062-10.219-0.9375-2.3906-0.84375-4.9219-2.8594-6.375-5.0625-3.6094-5.2969-8.0625-7.3125-14.391-6.375-1.9219 0.23438-4.3125-0.23438-6.1406-1.0781-5.2969-2.2969-5.8594-6.9375-5.8594-12 0.23438-14.062 0.375-28.078 0.70312-42.141 0.14062-3.1406-0.9375-4.0781-4.0781-4.2188-14.531-0.375-29.156-0.84375-43.688-1.5469-3.375-0.14062-4.2188 1.0781-4.3125 4.2188-1.6875 39.938-3.4688 80.062-5.1562 120-0.23438 6.375-2.8594 8.8594-9.375 8.5312-20.531-0.9375-41.156-1.9219-61.688-2.8594h-3.9375c1.2188 2.1562 1.7812 3.7031 2.7656 4.7812 7.0781 8.0625 14.062 15.938 21.234 23.766 3.8438 4.2188 6.8438 8.625 8.1562 14.156 0.70312 3 1.2188 6.1406 1.7812 9.2344 1.5469 8.2969 5.1562 15.141 12.938 19.219 2.5312 1.3125 4.6875 3.2344 7.0781 5.0625 3.6094 2.625 4.3125 2.5312 6.6094-1.4531 3.1406-5.0625 6.1406-10.078 9.2344-15.141 4.4531-6.8438 10.688-9.2344 18.469-7.3125 7.0781 1.7812 14.062 3.7031 21 5.7656 10.781 3.2344 17.859 9.8438 23.156 20.297 7.6875 14.859 15.469 29.859 27.703 41.859 2.8594 2.8594 4.3125 7.4531 5.7656 11.531 1.0781 3.1406 0.9375 6.7031 1.7812 9.9375 1.0781 4.2188 1.6875 9 4.0781 12.375 8.3438 10.172 19.641 13.172 31.5 15.797zm-545.26-399.94c-0.14062-0.14062 0.23438 0.23438 0.70312 0.46875 11.391 5.2969 13.078 12.469 5.5312 22.547-0.70312 0.9375-0.46875 3.2344 0 4.6875 1.6875 5.2969 3.6094 10.547 5.625 15.844 1.3125 3.375 2.3906 6.8438 4.5469 9.6094 4.3125 5.625 6.4688 11.766 6.1406 18.844-0.14062 2.2969-0.23438 4.5469-0.46875 6.7031-0.51562 3.9375 1.3125 6.2344 4.7812 8.0156 6.1406 3.1406 12 6.6094 18 9.9375 1.0781 0.60938 2.1562 1.4531 3.2344 1.7812 7.3125 2.5312 11.156 7.6875 12 15.375 0.375 3.1406 1.7812 4.7812 4.7812 6 8.0625 3.375 13.453 9 15.375 17.766 1.2188 5.5312 3 10.922 3.9375 16.453 0.46875 3 1.5469 3.9375 4.5469 3.9375 12.141-0.14062 24.375 0.14062 36.375 2.7656 0.84375 0.14062 2.3906-0.46875 2.7656-1.2188 3.1406-6.2344 6.375-12.469 8.7656-19.078 1.9219-5.0625 3.4688-9.9375 8.5312-12.844 2.2969-1.3125 2.0625-2.7656 1.2188-5.0625-1.7812-5.0625-3.7031-10.078-4.6875-15.375-0.60938-3-1.2188-5.1562-3.8438-6.7031-7.3125-4.2188-12.375-10.453-16.688-17.531-15.609-25.312-31.219-50.625-46.781-75.938-8.625-13.922-17.297-27.938-26.156-41.766-2.7656-4.4531-3.9375-8.625-2.1562-13.781 2.0625-6 3.6094-12.234 5.1562-18.469 4.0781-15.375 8.1562-30.844 12.141-46.219 0.46875-1.9219 0.23438-3.2344-2.0625-3.8438-19.453-5.3906-38.859-10.922-58.312-16.312-2.3906-0.60938-4.6875-1.2188-7.3125-1.9219-0.23438 2.625-0.46875 4.7812-0.60938 6.8438-0.46875 8.3906-2.7656 15.938-10.078 21.375-3.2344 2.3906-4.3125 6.2344-4.5469 10.312-0.89062 5.3438 1.7812 9.5156 4.1719 13.734 4.6875 8.2969 4.0781 16.453-1.2188 24.141-1.4531 2.0625-1.2188 3.4688-0.23438 5.5312 2.7656 5.7656 5.5312 11.531 8.0625 17.391 1.0781 2.7656 2.625 3.6094 5.5312 3.7031 5.8594 0.23438 11.766 0.70312 17.531 1.6875 7.0781 1.3125 10.219 6 9.1406 12.375-0.84375 5.1562-5.5312 7.9219-12.234 7.3125-2.2969-0.23438-4.4531-0.60938-6.7031-0.46875-0.70312 0-1.7812 1.0781-2.0625 1.7812-1.0312 3-1.5938 6.0938-2.4375 9.6094zm258.24-176.21c0.14062-0.46875 0.23438-1.9219 0.46875-3.375 1.0781-7.3125 4.6875-9.9375 12-8.8594 2.2969 0.375 4.4531 0.84375 6.7031 1.0781 15.141 1.6875 30.141 3.6094 45.234 5.0625 23.531 2.2969 46.922 4.3125 70.453 6.6094 2.5312 0.23438 3.8438-0.23438 4.0781-3.2344 1.3125-28.312 2.7656-56.625 4.3125-84.938 0.14062-2.625-0.23438-4.2188-3.375-4.4531-15.141-1.2188-30.234-2.3906-45.375-3.8438-14.859-1.4531-29.625-3-44.531-4.9219-15.844-2.0625-31.547-4.4531-47.297-6.9375-15.141-2.3906-30.141-5.0625-45.141-7.9219-9.9375-1.9219-9.4688-2.1562-11.156 7.4531-2.7656 15.375 0 28.547 12.469 39 5.3906 4.5469 7.0781 10.922 5.1562 17.766-1.0781 4.0781-2.625 8.1562-4.5469 11.859-1.2188 2.5312-0.9375 3.8438 1.2188 5.3906 4.7812 3.375 7.2188 8.0625 8.625 13.688 1.4531 5.625 3.1406 11.297 5.2969 16.781 1.3125 3.4688 4.3125 4.9219 8.1562 4.6875 5.5781-0.51562 11.109-0.60938 17.25-0.89062zm142.18 324s-0.09375 0 0 0c0.84375-19.453 1.6875-38.859 2.625-58.312 0.14062-3-0.70312-4.2188-3.8438-4.3125-7.7812-0.23438-15.609-0.70312-23.297-1.4531-26.156-2.1562-52.312-4.3125-78.375-6.7031-3.1406-0.23438-3.7031 0.60938-3.9375 3.4688-2.7656 27.141-5.625 54.141-8.625 81.234-1.6875 15.234-3.4688 30.469-5.2969 45.609-0.46875 3.6094 0.60938 4.9219 4.2188 5.2969 9 0.70312 18 1.4531 27 2.5312 2.5312 0.23438 3.6094-0.23438 4.4531-2.625 1.5469-4.4531 4.3125-6.2344 8.8594-5.8594 23.156 1.3125 46.312 2.625 69.469 4.3125 3.375 0.23438 4.0781-0.84375 4.2188-3.8438 0.60938-19.734 1.5938-39.516 2.5312-59.344zm-236.63-68.625c-0.14062 1.6875-0.23438 3.2344-0.375 4.7812-0.23438 5.2969-0.60938 10.453-0.84375 15.703-0.14062 2.625-0.60938 5.3906 0 8.0625 1.3125 5.625 3.6094 11.062 4.6875 16.547 1.2188 6.1406 0.70312 12.844-5.2969 16.078-4.6875 2.5312-6.7031 5.8594-7.6875 10.547-0.23438 1.3125-0.9375 2.625-1.5469 3.8438-1.0781 1.9219-0.9375 3.4688 0.60938 5.0625 3.9375 3.8438 4.4531 8.3906 1.7812 13.078-1.0781 2.0625-0.84375 3.2344 1.0781 4.3125 15.844 9.7031 31.688 19.312 47.531 29.156 15.141 9.4688 31.922 12.938 49.312 14.625 2.1562 0.23438 3.6094 0 3.9375-2.625 0.84375-6.8438 2.0625-13.688 2.8594-20.531 2.3906-20.062 4.6875-40.078 6.9375-60.234 2.1562-19.547 4.3125-39.141 6.6094-58.688 0.46875-3.7031-0.9375-4.6875-4.4531-5.1562-21.703-2.7656-43.547-5.625-65.297-8.5312-6.8438-0.9375-13.547-2.0625-20.297-3-1.0781 4.6875-1.7812 9.2344-3.2344 13.547-1.5469 4.7812-3.9375 6.1406-8.8594 5.5312-2.2969-0.5625-4.6875-1.4062-7.4531-2.1094zm-0.70312-22.312c0.375-1.5469 0.70312-2.7656 0.9375-4.0781 1.7812-10.781 3.6094-21.469 5.2969-32.297 3.7031-23.391 7.4531-46.781 11.156-70.219 1.7812-11.625 3.7031-23.297 5.5312-34.922 0.375-2.0625 0.375-3.6094-2.3906-4.0781-6.7031-1.3125-13.547-2.7656-20.297-4.2188-25.688-5.7656-51.375-11.625-77.062-17.531-2.1562-0.46875-3-0.14062-3.6094 2.2969-5.0625 19.781-10.312 39.609-15.609 59.297-0.84375 3-0.46875 5.2969 1.0781 7.7812 3.9375 6.2344 7.9219 12.609 11.766 18.844 20.531 33.234 41.062 66.375 61.547 99.609 0.70312 1.2188 1.9219 2.2969 3.4688 4.2188 0.375-3.6094 0.46875-6.1406 0.70312-8.5312 0.375-2.5312 0.70312-4.9219 1.3125-7.4531 1.4531-6.9375 6.7031-10.312 13.547-9 0.79688-0.09375 1.5469 0.046875 2.625 0.28125zm266.02-40.453s-0.09375 0 0 0c-0.14062-14.062 0-28.078-0.14062-42.234-0.14062-8.8594 0.60938-7.3125-7.7812-7.7812-25.781-1.4531-51.609-2.8594-77.391-4.4531-11.297-0.70312-22.547-1.7812-33.703-2.7656-2.0625-0.14062-3.4688-0.23438-3.8438 2.625-3.2344 30.375-6.6094 60.609-9.9375 90.938-0.23438 2.0625 0.375 2.625 2.2969 2.8594 14.391 1.4531 28.688 3.2344 43.078 4.2188 27.844 2.0625 55.547 3.6094 83.391 5.5312 3.4688 0.23438 4.2188-0.84375 4.2188-4.0781-0.28125-14.953-0.1875-29.859-0.1875-44.859zm-164.16-83.625c0.9375 0.23438 1.5469 0.46875 2.1562 0.60938 10.688 1.0781 21.469 2.3906 32.156 3.375 28.922 2.3906 57.703 4.7812 86.625 7.0781 5.3906 0.46875 5.5312 0.375 5.7656-4.9219 1.3125-29.062 2.625-58.219 3.8438-87.234 0.23438-5.7656 0.14062-5.625-5.5312-6.1406-20.156-1.6875-40.219-3.2344-60.375-5.1562-15.234-1.4531-30.469-3.375-45.609-4.9219-6.9375-0.70312-6.7031-0.60938-7.5469 6.375-2.0625 17.062-4.4531 34.078-6.6094 51.141-1.6406 13.031-3.1875 26.25-4.875 39.797zm-140.63-57.234c2.3906 0.46875 3-0.84375 3.4688-2.8594 2.5312-11.156 5.2969-22.219 7.5469-33.375 0.46875-2.3906 0.375-5.3906-0.70312-7.4531-4.0781-7.6875-3.375-14.766 1.6875-21.469 5.0625-6.8438 10.219-13.688 15.469-20.391 3.1406-4.0781 3.1406-5.1562-1.9219-6.6094-4.6875-1.3125-9.6094-1.7812-14.391-2.5312-10.453-1.3125-20.859-2.8594-31.312-3.6094-11.766-0.84375-23.531-0.9375-35.297-1.5469-13.219-0.60938-24-5.1562-29.062-18.609-0.84375-2.3906-2.625-2.2969-4.0781-0.70312-1.6875 1.7812-3.2344 3.8438-4.3125 6.1406-11.391 25.219-22.688 50.531-34.078 75.844-1.0781 2.3906-0.375 3.4688 1.9219 4.0781 7.0781 2.0625 14.156 4.2188 21.375 6.2344 27.141 7.3125 54.234 14.531 81.375 21.703 7.3125 1.7812 14.859 3.3281 22.312 5.1562zm400.69 192.47v-0.60938c23.531 0 46.922-0.14062 70.453 0.14062 3.6094 0 4.4531-1.0781 4.2188-4.5469-1.0781-16.312-1.9219-32.531-3.1406-48.844-0.14062-1.5469-1.5469-3.2344-2.8594-4.4531-2.3906-2.5312-5.3906-4.5469-7.5469-7.2188-1.6875-1.9219-3.2344-2.7656-5.7656-2.7656-19.547 0.14062-39.141 0-58.688 0-22.688 0-45.375 0.14062-68.156 0-3.375 0-4.2188 1.0781-4.2188 4.4531 0.23438 19.312 0.375 38.625 0.23438 57.938 0 3.375 1.0781 4.3125 4.3125 4.3125 23.719 0.51562 47.484 1.125 71.156 1.5938zm-279.52-143.53c0.14062-0.9375 0.375-2.625-2.5312-3-11.156-1.6875-22.312-3.6094-33.375-5.5312-2.5312-0.46875-3.375 0.23438-3.7031 2.625-0.84375 6.4688-1.7812 12.938-2.8594 19.312-5.1562 32.859-10.312 65.625-15.609 98.531-0.46875 3 0.23438 4.2188 3.375 4.6875 14.156 1.9219 28.312 4.2188 42.375 6.2344 12.844 1.7812 25.547 3.4688 38.391 5.1562 2.5312 0.375 4.4531 0.46875 4.7812-3.2344 3-29.625 6.1406-59.156 9.375-88.688 0.375-3-0.46875-4.0781-3.2344-4.4531-9.8438-0.9375-19.688-2.1562-29.531-3.1406-7.2188-0.70312-10.078-3.8438-9.375-11.156 0.51562-5.4375 1.2188-10.828 1.9219-17.344zm235.22-102.61c-19.688 0.14062-39.375 0.14062-59.156 0.14062-1.7812 0-3.6094-0.375-3.7031 2.3906-0.84375 19.781-1.7812 39.609-2.7656 59.391-0.14062 2.3906 0.70312 3.2344 3.2344 3.375 29.391 0.84375 58.688 1.9219 88.078 2.625 5.625 0.14062 10.781 1.0781 16.078 3.375 2.7656 1.2188 6.4688 1.9219 9.375 1.0781 5.3906-1.4531 10.219-0.375 14.859 1.9219 3.2344 1.6875 4.5469 0.70312 5.7656-2.5312 0.9375-2.5312 0.14062-3.6094-1.7812-4.7812-6.375-4.2188-6.8438-11.531-1.2188-16.453 1.2188-0.9375 2.1562-2.8594 2.1562-4.3125-0.14062-8.3906-0.60938-16.781-0.9375-25.219-0.14062-1.0781-0.60938-2.625-1.5469-3.2344-5.1562-3.375-5.8594-8.2969-5.1562-13.547 0.46875-3.4688-0.70312-4.3125-4.0781-4.3125-19.828 0.23438-39.516 0.09375-59.203 0.09375zm92.531 156.61c0-1.2188 0.14062-1.5469 0-1.6875-0.46875-0.70312-0.9375-1.4531-1.6875-2.0625-4.2188-4.2188-6.1406-9.2344-6.375-15.234-0.23438-3.375-1.3125-6.6094-2.2969-9.8438-1.6875-5.2969-4.0781-10.312-5.625-15.609-2.0625-7.0781-4.6875-13.453-12.469-16.078-0.23438-0.14062-0.46875-0.23438-0.60938-0.375-3-2.625-6.375-3.1406-10.219-2.625-6.7031 0.84375-13.219 0.46875-19.547-2.2969-2.3906-0.9375-5.0625-1.5469-7.6875-1.6875-29.859-1.0781-59.625-1.9219-89.531-3-2.8594-0.14062-3.6094 0.9375-3.7031 3.6094-0.23438 9.9375-0.70312 19.781-1.3125 29.625-0.14062 2.625 0.84375 3.4688 3.375 3.4688 8.3906-0.14062 16.781 0 25.219 0.14062 6 0.14062 8.3906 2.625 8.5312 8.625 0.14062 6.7031 0.375 13.547 0.14062 20.297-0.14062 3.7031 1.2188 4.5469 4.7812 4.5469 36.375-0.14062 72.703-0.14062 109.22-0.14062 3.1875 0.23438 6.4219 0.32812 9.7969 0.32812zm-393.14-276.71c-0.23438 0.60938-0.46875 1.3125-0.70312 2.0625-2.3906 13.453-4.6875 27-6.9375 40.453-1.3125 8.1562-2.625 16.312-3.8438 24.469-0.375 2.3906-0.14062 4.2188 2.625 5.5312 7.9219 3.7031 9.7031 11.297 4.4531 18.375-6.7031 9-13.547 18.141-20.531 27-1.5469 2.0625-1.6875 3.6094-0.46875 5.7656 2.5312 4.2188 2.7656 8.7656 1.5469 13.453-2.7656 11.062-5.3906 22.219-7.9219 33.375-1.9219 8.625-1.9219 8.7656 6.8438 10.453 29.297 5.625 58.688 11.297 87.938 16.781 5.2969 0.9375 5.3906 0.9375 6.1406-4.5469 1.6875-12.234 3.2344-24.375 4.7812-36.609 0.46875-4.2188 0.9375-8.3906 1.4531-13.078-4.7812 0.46875-9 0.9375-13.219 1.4531-15 1.5469-27.234-6.7031-30.938-21-0.70312-2.7656-1.3125-5.625-1.7812-8.5312-0.84375-5.7656-2.625-10.453-8.2969-13.688-7.9219-4.4531-9.4688-12.703-5.3906-20.859 1.4531-2.8594 3-5.7656 4.4531-8.7656 1.4531-3.2344 0.9375-5.7656-1.9219-8.2969-8.3906-7.3125-13.781-16.547-14.391-27.703-0.46875-9.9375 0.46875-20.062 1.3125-29.859 0.32812-5.5312 0.42188-6-5.2031-6.2344zm470.06 50.297c-3.7031-2.0625-6.6094-3.8438-9.6094-5.0625-2.3906-1.0781-5.0625-2.2969-7.5469-2.1562-8.8594 0.375-17.531-0.375-25.922-3.6094-3.8438-1.4531-7.7812-2.5312-11.766-3.8438-2.8594-1.0781-5.7656-2.3906-8.625-3.4688-1.6875-0.60938-3.6094-1.4531-5.2969-1.4531-7.7812 0.14062-15.609 0.70312-23.297 0.84375-3.1406 0.14062-3.7031 1.3125-3.2344 4.2188 2.8594 15.938 5.625 31.922 8.2969 47.859 1.9219 11.391 6.1406 22.688 1.4531 34.453-0.375 0.70312 0.23438 2.5312 0.84375 2.8594 4.9219 2.5312 5.1562 6.9375 5.2969 11.625 0.23438 11.297 0.60938 22.547 0.70312 33.844 0 2.7656 0.84375 3.8438 3.7031 3.4688s5.7656-0.46875 8.625-0.60938c16.312-1.0781 32.531-2.1562 48.844-3.375 3.7031-0.23438 7.3125-0.9375 10.922-1.4531 0.14062-0.375 0.375-0.70312 0.46875-1.0781-5.625-3.7031-11.062-8.1562-17.062-11.062-6.2344-3-8.8594-7.2188-8.625-13.922 0.14062-3.1406 0.14062-6.375-0.375-9.375-1.7812-10.312-0.46875-20.062 5.625-28.781 2.2969-3.375 3.1406-6.6094 2.625-10.547-1.0781-8.2969 1.4531-15.703 7.0781-21.844 3.6094-3.8438 7.3125-7.5469 11.062-11.391 2.0625-2.0625 3.8906-4.125 5.8125-6.1406zm-105 48.797c-3.7031-21.938-7.4531-43.078-11.062-64.312-0.46875-2.7656-2.2969-2.5312-4.2188-2.5312-34.453 0-69-0.14062-103.45-0.23438-3.375 0-4.5469 0.70312-4.6875 4.3125-0.70312 19.078-1.6875 38.062-2.625 57.141-0.23438 5.7656-0.23438 5.7656 5.5312 5.7656h115.92c1.5938-0.14062 2.9062-0.14062 4.5938-0.14062zm85.781 174.84c-9 0.375-18 0.70312-27.141 1.3125-1.2188 0.14062-2.8594 0.60937-3.4688 1.5469-1.2188 2.0625 1.9219 10.453 3.9375 12 7.0781 5.2969 12.609 11.625 13.078 21 1.0781 20.062 2.1562 40.078 3.1406 60.141 0.14062 2.625 0.84375 3.7031 3.7031 3.6094 11.062-0.70312 22.078-0.9375 33.141-1.6875 17.062-1.0781 34.078-2.3906 51-3.6094 1.4531-0.14063 3.1406-0.14063 4.4531-0.84375 2.5312-1.3125 5.0625-2.8594 6.8438-4.9219 0.46875-0.46875-1.5469-3.1406-2.3906-4.7812 0-0.14062-0.14062-0.23437-0.14062-0.375-2.8594-8.625-8.2969-15.375-15.141-21.141-4.3125-3.7031-6.7031-8.625-7.4531-14.391-0.23438-1.5469-1.5469-3.1406-2.7656-4.4531-2.3906-2.5312-5.1562-4.5469-7.3125-7.2188-2.3906-3-4.0781-6.6094-6.375-9.7031-6.1406-8.1562-12.234-16.219-16.312-25.688-0.46875-1.2188-2.7656-2.2969-4.0781-2.1562-8.9531 0.1875-17.812 0.79688-26.719 1.3594zm-25.547 183.14v-3.4688c-1.4531-21-2.8594-42-4.2188-63.141-0.14062-2.7656-1.5469-2.8594-3.7031-2.8594-33-0.14062-66-0.23438-99-0.375-2.0625 0-3 0.60938-3 2.7656-0.23438 15.703-0.60938 31.312-0.9375 47.062 0 2.0625 0.60938 3.1406 2.7656 3.1406 5.1562-0.14062 8.8594 2.5312 11.531 6.6094 2.3906 3.6094 5.2969 4.6875 9.375 3.8438 4.3125-0.9375 8.0625 0.375 11.625 2.7656 6.7031 4.4531 14.766 5.1562 22.547 6.2344 1.0781 0.14062 2.2969-0.23438 3.2344-0.70312 5.2969-3.1406 10.312-2.3906 15.844-0.375 2.8594 1.0781 6.6094 1.2188 9.4688 0.375 8.0156-2.4844 15.562-5.7188 24.469-1.875zm-572.06-468c0.46875 1.9219 0.9375 3.7031 1.4531 5.625 2.1562 7.4531 4.7812 15 2.1562 22.781-1.0781 3.2344-0.14062 5.0625 2.5312 6.8438 8.8594 6 17.062 12.844 21.469 23.062 0.46875 1.2188 2.3906 2.3906 3.8438 2.5312 8.7656 1.2188 17.766 3.2344 26.531 2.7656 18.469-0.75 36.328 2.3906 54.469 5.5312 2.8594 0.46875 3.7031-0.375 4.0781-3.1406 3.1406-18.609 6.1406-37.078 9.4688-55.547 0.70312-3.7031-0.375-5.1562-3.8438-6.1406-16.219-4.2188-32.391-8.7656-48.703-12.938-7.0781-1.7812-14.391-2.8594-21.703-4.4531-0.375 1.0781-0.70312 1.6875-0.70312 2.2969 0.14062 12.375-4.7812 23.531-9 34.688-2.1562 5.8594-5.8594 10.781-11.859 13.547-6.9375 3.2344-15.141 0-17.156-7.0781-0.84375-2.8594-0.70312-6.2344 0-9.2344 0.84375-3.4688 2.7656-6.7031 4.3125-9.9375 0.84375-1.7812 0.84375-3.375-1.4531-3.7031-5.8125-0.65625-11.203-2.9531-15.891-7.5zm772.45 137.63c-1.0781-6-1.7812-11.391-3.2344-16.453-0.60938-1.9219-2.7656-4.3125-4.6875-4.7812-7.6875-1.9219-15.375-3.375-23.156-4.6875-7.4531-1.3125-12.844 3.2344-18.703 6.4688-2.625 1.4531-3.9375 3.4688-4.5469 6.4688s-2.1562 5.8594-3 8.8594c-0.60938 2.2969-1.4531 4.9219-0.84375 7.2188 1.4531 6.7031 1.2188 13.453 0.14062 20.156-0.84375 5.1562-1.6875 10.453-1.3125 15.609 0.9375 12.703 3.7031 24.938 8.1562 36.938 1.6875 4.4531 4.2188 4.9219 7.9219 2.0625 1.7812-1.3125 4.0781-2.2969 6.2344-2.625 14.531-2.3906 29.156-4.6875 43.781-6.9375 4.2188-0.60938 6.7031-3.1406 8.3906-6.7031 1.6875-3.6094 2.8594-7.7812 5.3906-10.688 5.2969-6.1406 5.1562-12.375 2.2969-19.219-0.60938-1.5469-1.2188-3-1.7812-4.5469-2.3906-6-2.625-6-7.4531-1.9219-0.60938 0.46875-1.2188 0.9375-1.7812 1.4531-3.9375 2.5312-8.1562 2.3906-12.234 0.375-3.4688-1.6875-5.7656-4.7812-5.5312-8.7656 0.23438-2.7656 1.5469-5.3906 2.5312-8.1562 1.3594-3.75 2.4844-7.125 3.4219-10.125zm24 296.06c2.5312 10.922 4.9219 21.375 7.3125 31.922 2.0625 9.375 4.7812 18.375 10.922 26.156 2.625 3.2344 3.8438 7.9219 4.6875 12.141 2.0625 9.9375 3.4688 20.062 5.1562 30 0.375 2.3906 1.2188 3.4688 3.8438 3.2344 14.156-1.5469 28.453-2.7656 42.703-4.4531 4.5469-0.46875 9.8438-0.23438 12.234-5.625 0.14062-0.375 0.70312-0.84375 1.2188-0.9375 4.3125-0.70312 3.7031-3.8438 3.7031-6.9375 0.14062-4.9219-0.60938-10.453 1.2188-14.766 1.9219-4.4531 2.1562-7.7812-0.14062-11.766-0.375-0.46875-0.46875-1.2188-0.70312-1.7812-1.3125-3.8438-3.375-6.9375-7.0781-8.8594-1.3125-0.70312-2.3906-1.7812-3.4688-2.7656-8.0625-7.5469-15.844-15.375-24.141-22.781-3.6094-3.2344-7.7812-5.625-11.766-8.5312-2.1562-1.5469-4.3125-3.1406-6-5.0625-3.2344-3.4688-6.1406-7.3125-9.2344-10.922-0.84375-0.9375-2.5312-1.9219-3.7031-1.7812-8.7656 1.125-17.391 2.2969-26.766 3.5156zm-132-212.76c3.6094 6.375 3.8438 12.469 0.14062 18-2.625 3.7031-5.7656 7.2188-9.2344 10.312-2.0625 1.7812-3.375 3.4688-3.2344 6.2344 0.46875 6.6094-0.9375 12.844-4.2188 18.469-1.7812 3.2344-1.0781 5.5312 0.84375 8.2969 4.3125 6 8.1562 12.375 12.609 18.234 1.6875 2.2969 3.9375 4.5469 6.6094 5.7656 7.7812 3.4688 12 8.8594 11.531 17.531-0.23438 3.9375 1.5469 6.7031 4.2188 9.6094 4.7812 5.2969 9.1406 10.922 13.547 16.547 1.4531 1.7812 2.8594 3.6094 4.2188 5.3906 1.7812-1.6875 3.8438-3.2344 5.3906-5.1562 1.5469-2.0625 2.8594-4.4531 3.9375-6.8438 3.4688-8.1562 5.0625-16.547 4.4531-25.688-1.7812-25.688-3-51.375-4.6875-77.062-0.14062-2.5312-1.0781-5.1562-2.0625-7.5469-2.1562-4.7812-4.6875-9.4688-6.8438-14.297-0.9375-2.0625-2.0625-2.7656-4.3125-2.3906-6.8438 1.0781-13.688 2.0625-20.531 3-3.8438 0.375-7.6875 0.89062-12.375 1.5938zm-31.547-118.08c-6.7031 0.46875-12.234 0.70312-17.766 1.4531-0.9375 0.14062-1.9219 1.9219-2.2969 3.1406-1.2188 3.2344-1.0781 7.5469-3.2344 9.8438-5.8594 6.1406-4.9219 13.078-4.7812 20.531 0.14062 5.3906 0.23438 9.7031 6.375 11.297 0.9375 0.23438 1.7812 0.9375 2.5312 1.6875 6.4688 5.8594 12.938 11.766 19.312 17.859 4.3125 4.2188 6.1406 9.6094 6.9375 15.469 0.46875 3.375 2.0625 6.6094 3.4688 9.7031 2.8594 6.4688 7.0781 9.2344 15 7.4531 11.297-2.625 23.062-3.4688 34.547-5.0625 2.0625-0.23438 2.8594-0.9375 2.2969-3.2344-2.625-9.6094-3.2344-19.219-1.2188-29.062 0.84375-3.7031 1.0781-7.4531 1.5469-11.156 0.375-2.625-0.375-4.6875-2.8594-6.375-5.1562-3.375-7.2188-8.1562-5.1562-14.391 0.375-1.0781 0.14062-3-0.60938-3.8438-4.0781-4.3125-8.7656-8.0625-14.859-9-7.9219-1.3125-15.844-2.1562-23.766-3.375-6.6094-0.9375-11.156-4.6875-13.781-10.922-0.28125-0.9375-1.4531-1.7812-1.6875-2.0156zm-50.766 161.53c14.156-0.84375 28.312-1.6875 42.469-2.2969 8.2969-0.375 8.0625 0.375 7.4531-7.9219-0.70312-9.375 2.2969-16.781 11.391-20.859 0.375-0.14062 0.60938-0.375 0.9375-0.60938 2.0625-0.9375 2.3906-2.3906 0.9375-4.2188-1.7812-2.3906-3.7031-4.6875-5.625-7.0781-5.625-7.3125-11.531-14.531-16.922-22.078-1.6875-2.3906-3.1406-3.2344-6.1406-3.1406-24.844 1.9219-49.781 3.6094-74.625 5.2969-2.0625 0.14062-2.625 0.9375-3.1406 2.8594-0.70312 2.8594-2.0625 5.5312-2.8594 8.3906-0.46875 1.5469-0.84375 3.4688-0.375 4.7812 2.8594 7.4531 6.375 14.766 9 22.312s4.5469 15.375 6.6094 23.062c0.60938 2.2969 1.6875 2.625 3.7031 2.5312 9.0469-0.32812 18.188-0.70312 27.188-1.0312zm174 293.02c-0.46875-2.1562-1.0781-4.4531-1.4531-6.7031-0.9375-6 1.7812-9.8438 7.6875-10.547 12.844-1.4531 25.688-2.8594 38.531-4.2188 2.2969-0.23438 3-1.0781 2.5312-3.375-1.0781-5.2969-2.3906-10.547-2.8594-15.938-0.70312-7.6875-3.4688-14.062-8.2969-20.156-2.5312-3.2344-4.0781-7.5469-5.0625-11.625-3.8438-15-7.3125-30-10.688-45-0.70312-3.1406-1.7812-4.0781-4.9219-3.7031-11.531 1.2188-22.922 2.2969-34.453 3.1406-3.2344 0.23438-4.2188 1.3125-4.2188 4.5469-0.14062 36.938 3 73.688 6 110.53 0.14062 1.7812 0.60938 2.625 2.625 2.625 4.7344-0.046875 9.4219 0.1875 14.578 0.42188zm-108.47-69.469c0.14062-0.70312 0.375-1.2188 0.23438-1.6875-1.5469-6.7031 0.60938-12.469 3.7031-18.375 2.7656-5.1562 4.6875-10.781 7.0781-16.219 2.5312-5.7656 5.0625-11.391 7.4531-17.156 0.46875-0.9375 0.9375-2.1562 0.84375-3.2344-0.14062-5.1562 1.2188-9.9375 4.4531-14.062 1.0781-1.4531 1.3125-2.625-0.70312-3.6094-4.9219-2.3906-7.6875-5.7656-4.5469-11.859-2.5312 0-4.3125-0.14062-6.2344 0-21 1.2188-42.141 2.3906-63.141 3.6094-9.4688 0.46875-8.1562-0.84375-7.5469 8.5312 0 0.60938 0.14062 1.2188 0.14062 1.9219 1.0781 18.469 2.1562 37.078 3.2344 55.688 0.14062 2.8594 1.3125 4.9219 3.375 7.0781 2.2969 2.3906 3.9375 5.7656 4.7812 9 0.70312 3.2344 1.7812 4.0781 4.9219 3.8438 10.547-0.9375 21.234-1.7812 31.781-2.7656 3.3281-0.23438 6.6562-0.46875 10.172-0.70312zm172.78-77.906c0.375 0.60938 0.70312 1.0781 1.0781 1.6875 2.5312-1.2188 5.2969-1.9219 7.4531-3.4688 10.078-7.3125 21.141-12.375 33.375-14.859 7.4531-1.5469 15-2.8594 21.844 1.6875 4.9219 3.375 9.6094 3 15.141 1.6875 11.531-2.7656 22.547-2.7656 32.156 6.7031 5.0625 4.9219 12.141 7.7812 18.469 11.391 0.70313 0.375 2.5312-0.14062 3.1406-0.70312 3.8438-5.1562 7.3125-10.688 11.156-15.844 1.9219-2.3906 4.3125-4.5469 6.9375-6.2344 2.3906-1.6875 5.2969-2.7656 7.4531-3.8438-0.60937-4.7812-2.0625-9.375-1.4531-13.547 0.60937-4.2188 3.1406-8.0625 4.9219-12.141-0.14062 0-0.9375-0.23438-1.7812-0.375-4.7812-0.70312-7.9219-4.7812-6.4688-9.4688 0.70313-2.3906 2.3906-4.5469 3.8438-6.7031 0.84375-1.3125 1.9219-2.625 2.8594-3.9375-0.23438-0.46875-0.46875-0.9375-0.70313-1.3125-4.2188 0.84375-8.5312 1.4531-12.609 2.625-8.5312 2.5312-16.781 5.8594-25.453 8.0625-25.781 6.2344-51.703 12-77.625 17.766-2.5312 0.60938-3.2344 1.4531-3.1406 3.8438 0.23437 8.1562-2.0625 14.859-10.078 18.938-7.9219 3.9375-15.609 8.5312-23.297 12.938-2.7656 1.1719-4.9219 3.2344-7.2188 5.1094zm-112.45 152.21c3-0.70313 5.625-1.4531 8.3906-1.9219 2.1562-0.375 2.625-1.3125 2.3906-3.6094-1.3125-12.844-2.7656-25.688-3.4688-38.531-1.3125-24.141-2.1562-48.375-3.1406-72.469-0.14063-2.2969-0.60938-3.4688-3.2344-3.2344-7.0781 0.60938-14.297 0.9375-21.375 1.4531-0.84375 0.14062-2.1562 0.84375-2.2969 1.4531-1.3125 5.2969-4.5469 9.1406-8.625 12.469-1.0781 0.84375-1.4531 2.625-1.9219 3.9375-2.625 6.2344-5.2969 12.469-7.6875 18.703-0.60937 1.5469-0.84375 3.7031-0.375 5.2969 2.3906 9.2344 5.0625 18.375 7.4531 27.609 1.5469 5.8594 1.7812 12-3.2344 16.078-5.7656 4.6875-3.9375 10.922-5.625 17.062h4.3125c8.625-0.23437 17.297-0.46875 25.922-0.60937 7.0781-0.14063 9.4688 1.7812 11.062 8.625 0.75 2.25 0.98437 4.9219 1.4531 7.6875zm262.92-335.76c-3.1406-2.7656-5.3906-4.6875-7.5469-6.6094-7.0781-6.4688-10.078-14.156-7.2188-23.766 0.84375-2.625 1.7812-5.2969 2.1562-7.9219 0.23438-2.0625-0.14062-4.5469-1.2188-6.2344-0.60937-0.84375-3.4688-0.375-5.1562 0-3 0.60938-6 1.7812-9 2.5312-18.375 4.7812-36.609 9.6094-54.938 14.156-4.6875 1.2188-9.2344 2.0625-14.297-0.46875-2.1562-1.0781-6 0.46875-8.7656 1.5469-0.70312 0.23438-0.60937 3.375-0.375 5.1562 2.2969 13.219 4.7812 26.391 7.0781 39.609 0.46875 2.625 1.9219 2.8594 3.9375 2.5312 5.625-1.0781 11.297-2.1562 16.922-3.375 22.219-4.9219 44.391-9.9375 66.703-14.859 3.4688-0.75 7.0312-1.3594 11.719-2.2969zm-286.4 340.55h-2.5312c-9.8438 0.375-19.781 0.9375-29.625 1.2188-8.8594 0.23438-13.078-5.5312-10.547-14.062 1.4531-4.7812 2.8594-9.6094 4.0781-14.391 1.7812-7.2188 2.0625-14.766 6.9375-21.141 2.3906-3-2.2969-9.1406-6.1406-8.7656-13.688 0.84375-27.234 1.7812-40.922 2.625-2.5312 0.14062-3.2344 1.0781-3 3.4688 0.375 3.2344 0.60938 6.4688 0.60938 9.7031-0.14062 5.625 1.9219 10.312 4.7812 15.141 2.7656 4.4531 5.2969 9.6094 5.8594 14.766 1.2188 9.7031 1.0781 19.688 1.5469 28.922 7.4531 1.7812 15.469 3.9375 23.531 5.625 2.5312 0.60938 5.1562 0.46875 7.7812 0.23438 3.6094-0.23438 7.2188-0.9375 10.781-1.2188 9.375-0.60938 16.312 3 20.156 11.859 0.375 0.84375 1.6875 1.9219 2.2969 1.6875 5.0625-1.4531 9.8438-3.2344 14.859-4.9219-0.23438-1.7812-0.46875-3.4688-0.70312-5.0625-0.375-3.9375-1.6875-6.9375-5.3906-9.2344-2.2969-1.4531-3.9375-4.5469-4.6875-7.2188-0.65625-2.625 0.1875-5.7656 0.32812-9.2344zm307.55-385.31c0.23438-0.23438 0.60938-0.375 0.84375-0.60938-1.4531-9-3.375-18-4.2188-27-0.9375-9.1406-3.4688-17.625-7.4531-25.922-0.46875-0.9375-0.70312-1.9219-1.0781-2.7656-3.6094-10.453-7.0781-20.859-10.688-31.312-0.375-1.2188-2.3906-2.8594-2.8594-2.625-9.4688 3.8438-19.453 6.7031-23.625 17.859-1.9219 5.1562-2.3906 10.078-2.2969 15.375 0.14062 3.9375 0.46875 8.625-1.3125 11.766-6.7031 11.531-19.219 22.312-35.859 17.297-2.7656-0.84375-6.1406 0-9.1406 0.23438-3.9375 0.375-3.9375 2.8594-2.8594 5.8594 1.9219 5.2969 0.84375 10.078-2.2969 14.625-0.46875 0.60938-0.70312 1.4531-1.4531 2.7656 5.8594-1.4531 11.062-2.625 16.219-3.9375 16.078-4.2188 32.297-8.2969 48.234-12.938 6.2344-1.7812 10.688 0 15.141 3.8438 1.6875 1.4531 3.7031 2.8594 4.7812 4.7812 4.4531 7.7812 13.078 8.7188 19.922 12.703zm-208.31 44.625c-0.375 0.84375-0.46875 1.0781-0.46875 1.3125 1.7812 18.375 3.6094 36.703 5.5312 55.078 0.14062 1.3125 0.84375 3 1.7812 3.9375 4.2188 3.7031 9 6.1406 14.859 6.6094s11.625 1.5469 17.391 2.7656c3.2344 0.70312 5.0625 0.23438 6.1406-3.2344 3.9375-12.609 10.688-22.922 24-27.609 0.9375-0.375 1.9219-2.5312 1.7812-3.8438-0.60938-5.1562-1.3125-10.219-2.3906-15.234-0.375-1.5469-1.4531-3.2344-2.625-4.0781-6.2344-4.4531-7.5469-7.7812-5.1562-15.141 1.3125-4.2188 1.5469-8.2969-0.14062-12.844-4.2188 3.375-8.0625 6.4688-12 9.4688-5.3906 4.0781-11.062 8.1562-18.234 7.9219-8.8594-0.23438-17.766-0.84375-26.297-3.8438-1.4062-0.5625-2.7656-0.89062-4.1719-1.2656zm56.156 148.92c-0.23438-0.60938-0.375-1.2188-0.60938-1.7812-1.5469 0.14062-3.1406 0.23438-4.6875 0.375-23.859 3.375-47.625 7.0781-71.531 9.9375-21.469 2.5312-43.219 4.2188-64.781 6.375-0.9375 0.14062-2.3906 1.2188-2.5312 1.9219-0.60938 4.6875-1.4531 9.4688-1.2188 14.156 0.375 5.8594 1.0781 11.391-4.7812 16.219 2.1562 0 3.6094 0.14062 4.7812 0 30.469-3 60.844-6 91.312-9 5.3906-0.46875 9.6094-2.5312 12.609-7.4531 2.625-4.4531 6.375-8.3906 9.4688-12.609 3-3.9375 7.2188-5.8594 11.625-7.9219 7.0312-2.9062 13.594-6.75 20.344-10.219zm104.16 304.78c1.2188-2.8594 2.0625-4.7812 2.7656-6.7031 3.8438-10.547 3.6094-20.062-6.2344-27.703-4.7812-3.7031-7.9219-9-9.9375-14.766-2.7656-7.6875-5.8594-15.234-8.2969-23.062-3.9375-12.844-10.078-24.141-18.938-34.312-4.3125-4.9219-7.0781-11.391-10.453-17.297-0.375-0.60938-0.70312-1.2188-1.2188-1.9219-4.4531 1.6875-8.625 1.3125-12.703-1.0781-1.4531-0.84375-3.6094-0.84375-5.3906-0.60938-4.9219 0.46875-9.7031 1.3125-14.531 1.9219-3.6094 0.46875-7.3125 0.84375-11.625 1.3125 3 1.4531 5.3906 2.5312 7.5469 3.7031 11.766 6.6094 21.141 16.219 30 26.062 2.5312 2.7656 4.2188 6.9375 4.9219 10.688 0.9375 5.1562 0.84375 10.453 0.70312 15.703-0.14062 3.9375 0.60938 6.9375 3.9375 9.4688 5.3906 4.2188 8.7656 9.8438 10.312 16.547 0.375 1.6875 2.2969 3.6094 4.0781 4.4531 5.1562 2.5312 8.7656 6.375 10.688 11.625 1.0781 2.8594 1.5469 6.1406 2.625 9 0.46875 1.3125 1.6875 3.375 2.7656 3.6094 7.8281 1.3594 13.922 5.5781 18.984 13.359zm-112.22-347.48c-2.625-4.9219-4.7812-9.375-7.3125-13.547-0.9375-1.4531-2.7656-3-4.3125-3.375-9.375-1.6875-18.703-3.1406-28.219-4.5469-2.3906-0.375-5.5312-1.3125-7.2188-0.23438-2.0625 1.3125-3 4.4531-4.3125 6.8438-0.46875 0.9375-0.46875 2.2969-1.0781 3.2344-1.4531 2.3906-2.7656 4.9219-4.5469 7.0781s-3.9375 4.2188-6.2344 5.8594c-2.2969 1.5469-4.9219 3.9375-7.2188 3.7031-6.1406-0.60938-10.922 1.2188-15.609 4.6875-3 2.1562-6.7031 3.9375-10.547 1.9219-3.1406-1.5469-4.5469-0.70312-5.5312 2.2969-0.375 1.3125-1.3125 2.3906-1.6875 3.7031-1.4531 5.5312-2.7656 10.922-4.2188 16.922 5.2969-0.46875 9.375-0.70312 13.453-1.2188 23.531-2.8594 47.062-5.7656 70.453-8.7656 1.7812-0.23438 3.9375-1.5469 5.2969-3 5.8594-6.4688 11.625-13.078 17.391-19.688 0.51562-0.79688 1.2188-1.6406 1.4531-1.875zm72.984 145.78c0.84375-1.0781 1.4531-1.6875 1.7812-2.3906 2.8594-5.7656 7.0781-9.8438 13.547-11.625 1.5469-0.46875 3-2.5312 3.8438-4.2188 4.5469-8.1562 8.8594-16.547 13.547-24.703 1.5469-2.7656 0.70312-3.8438-1.7812-5.2969-6.4688-3.6094-12.938-6.9375-18.844-11.391-3.6094-2.625-6.4688-3.9375-10.922-2.5312-10.453 3.375-20.859 4.0781-30.703-2.2969-1.3125-0.84375-3.6094-1.4531-5.0625-0.9375-6.6094 2.0625-13.219 4.5469-19.688 7.0781-0.60938 0.23437-1.2188 2.1562-0.9375 2.625 2.5312 3.2344 4.9219 6.7031 7.9219 9.4688 4.0781 3.8438 8.7656 7.0781 13.078 10.688 6.2344 5.2969 12.375 10.547 18.469 15.938 2.3906 2.1562 4.6875 4.5469 6.7031 7.0781 3.0469 3.8906 5.8125 7.9688 9.0469 12.516zm-174.37-244.08v3.9375c1.4531 26.391 2.8594 52.781 4.3125 79.312 0.375 5.8594 1.9219 6.6094 6.8438 3.7031 0.60938-0.375 1.3125-0.84375 1.9219-1.3125 3.6094-2.8594 7.5469-4.0781 12.141-4.3125 1.2188-0.14063 3.1406-1.5469 3.2344-2.5312 0.70312-4.4531 3.2344-7.4531 6.6094-10.078 3.4688-2.625 4.7812-6 4.2188-10.547-1.2188-8.625-1.5469-17.531-2.5312-26.156-1.2188-10.781-2.5312-21.609-3.8438-32.531-0.23438-2.2969-0.84375-3.375-3.6094-2.7656-9.375 1.9688-18.844 4.8281-29.297 3.2812zm227.76 68.625c-0.84375-0.60937-1.3125-1.3125-1.9219-1.4531-4.4531-1.0781-7.3125-3.9375-10.219-7.3125-1.0781-1.2188-2.8594-2.0625-4.4531-2.5312-4.2188-1.2188-6.7031-3.9375-7.5469-8.0625-0.375-2.0625 0.375-4.2188 0.14062-6.2344-0.23438-1.5469-0.70312-3.8438-1.9219-4.4531-1.6875-0.84375-9.7031 5.7656-10.078 7.9219-0.70312 4.5469-3.375 7.6875-6.6094 10.547-1.2188 1.0781-2.2969 2.2969-3.375 3.4688-2.5312 2.7656-4.9219 5.5312-7.4531 8.1562-0.70312 0.84375-1.9219 1.4531-2.2969 2.3906-2.3906 5.7656-5.2969 11.391-6.8438 17.391-1.3125 4.9219-3.2344 8.8594-7.5469 11.531-3.1406 2.0625-4.5469 5.0625-5.625 9.7031 28.547-7.3125 56.531-14.297 84.375-21.375-4.0781-3.2344-9.8438-2.0625-12.375-7.0781-2.625-5.0156 0.84375-8.625 3.75-12.609zm96-305.26-0.70312 0.70312c-2.625 0.46875-5.1562 1.2188-7.7812 1.3125-3.2344 0.14062-4.3125 1.7812-4.3125 4.7812-0.14062 8.0625-0.46875 16.078-0.60938 24.141-0.14062 6.1406-1.4531 11.859-4.9219 17.062-1.5469 2.3906-4.6875 4.7812-4.5469 6.9375 0.14062 2.3906 3.4688 4.5469 4.9219 7.0781 3.375 6.1406 6.4688 12.469 9.4688 18.703 1.2188 2.625 2.625 3 4.9219 1.4531 3.8438-2.625 7.3125-5.5312 8.8594-10.312 3-8.7656 8.0625-15.609 17.859-17.391 1.5469-0.23438 3-1.6875 4.0781-2.8594 1.9219-2.0625 3.4688-4.2188 5.0625-6.4688 0.60938-0.9375 1.4531-2.7656 1.0781-3.2344-3.2344-3.7031-6.2344-8.1562-10.312-10.453-5.5312-3.1406-9.2344-6.8438-11.156-12.844-1.5469-4.7812-3.6094-9.6094-6.1406-14.062-0.84375-1.9219-3.75-3-5.7656-4.5469zm-188.63 332.26c3.4688-3.8438 6.7031-7.6875 10.078-11.391 0.60938-0.60938 1.4531-1.3125 1.5469-2.0625 0.60938-6.7031 4.6875-12 7.2188-18 2.7656-6.6094 6.7031-11.859 12.703-15.938 1.6875-1.2188 3.2344-3.2344 3.8438-5.2969 1.6875-5.1562 2.3906-10.688 6.9375-14.766-1.6875-0.14063-3 0.375-4.4531 0.375-5.625 0.14062-9 2.1562-9.8438 8.5312-0.60938 4.5469-6 8.2969-9.8438 7.7812-4.9219-0.60938-8.625-1.5469-9.4688-8.2969 0-0.23437-0.46875-0.46875-0.84375-0.70312-0.375 0.46875-0.84375 0.70312-1.0781 1.2188-3.1406 6.7031-8.2969 11.297-15.141 13.922-0.79688 0.23438-1.875 0.84375-2.25 1.6875-3.8438 7.6875-7.6875 15.469-11.391 23.297-1.2188 2.5312-0.46875 4.6875 1.4531 6.8438 5.625 6.7031 12.328 11.719 20.531 12.797zm-202.45-232.55c0.375 0.375 0.46875 0.60937 0.70312 0.70312 0.46875 0.14063 0.9375 0.14063 1.4531 0.23438 11.531 0.70312 22.688 2.8594 32.062 10.453 0.60938 0.46875 2.625 0 3.6094-0.60937 2.8594-1.9219 5.2969-4.6875 8.3906-6.1406 6.1406-3.1406 12.609-5.5312 18.938-8.2969 1.6875-0.70313 3.375-1.0781 5.0625-1.5469-2.7656-2.1562-5.3906-2.0625-7.6875-0.23437-8.0625 6.4688-17.391 7.3125-27 7.0781-8.2969-0.23437-14.391-3.8438-17.859-11.531-0.375-0.84375-1.0781-1.5469-1.5469-2.5312-5.5781 4.2656-10.734 8.25-16.125 12.422zm387.61 52.312c3.6094-0.60938 4.2188-2.2969 2.625-5.2969-2.3906-4.6875-4.3125-9.6094-6.8438-14.156-0.60938-1.0781-2.625-2.1562-3.7031-1.7812-11.391 3-22.688 6.2344-33.938 9.4688-2.7656 0.70313-2.1562 3-1.5469 4.5469 0.23438 0.84375 2.2969 1.6875 3.2344 1.4531 6.2344-1.3125 12.375-3.2344 18.609-4.4531 12.891-2.8594 16.969-2.0156 21.562 10.219zm-46.594-71.859c-5.0625 1.6875-9.1406 3.1406-13.312 4.4531-2.3906 0.70312-3 1.9219-2.1562 4.4531 3 8.8594 5.7656 17.859 8.625 26.766 0.14062 0.60937 0.84375 0.9375 1.6875 1.9219 1.6875-12.656 3.375-24.656 5.1562-37.594zm-216.32 479.76v0.9375c0.23438 0.23438 0.46875 0.46875 0.84375 0.60938 9.7031 1.6875 18.844 4.6875 26.859 10.688 0.70312 0.46875 2.7656 0.23438 3.4688-0.375 4.4531-4.0781 8.625-8.2969 12.844-12.375 0.46875 0.23438 0.14062-0.14062-0.14062 0-7.5469 1.5469-14.859-0.60938-22.312-1.0781-7.0781-0.70312-14.391 0.84375-21.562 1.5938zm231.94-444.61c6-1.6875 11.531-3.1406 17.531-4.7812-4.3125-9.4688-8.3906-18.469-12.375-27.469-0.23438 0.14062-0.46875 0.14062-0.70312 0.23438-1.4531 10.547-2.9062 20.953-4.4531 32.016zm-31.688 122.39c5.3906 2.3906 6.9375 1.6875 7.6875-3.4688 0.60938-3.9375-0.375-7.4531-3.1406-10.453-3.9375-4.4531-5.625-9.1406-1.9219-14.625 0.46875-0.70312-0.23438-2.8594-1.0781-3.4688-2.625-1.9219-5.5312-3.6094-8.2969-5.1562-1.3125-0.70312-2.8594-1.0781-4.3125-1.6875-0.23438 1.7812-0.9375 3.6094-0.70312 5.2969 0.14062 1.3125 1.0781 2.7656 2.0625 3.8438 1.5469 1.7812 3.375 3.375 4.9219 5.1562 6 7.2656 9.9375 14.859 4.7812 24.562zm41.156-75.094c-0.60938-0.14062-0.84375-0.23438-1.0781-0.14062-3.1406 0.70312-6.375 1.4531-9.4688 2.2969-7.0781 1.7812-7.0781 1.7812-6.6094 9.1406v1.5469c-0.14062 2.2969 0.70312 3 3 2.1562 5.5312-2.0625 11.062-4.0781 16.547-6.1406-0.79688-2.8594-1.6406-5.8594-2.3906-8.8594zm-48.562 90.703c-2.2969 0.14062-3.4688 0.23438-4.6875 0.375-5.2969 0.46875-5.3906 0.84375-4.0781 5.8594 1.4531 5.7656 2.7656 11.625 4.2188 17.531 0.23438 0.70312 0.9375 2.0625 1.2188 2.0625 2.3906-0.46875 4.9219-0.9375 6.9375-2.0625 0.46875-0.23438-0.23438-2.8594-0.46875-4.3125-0.14062-0.60938-0.46875-1.0781-0.84375-1.6875-3.2812-5.5312-6.8906-10.688-2.2969-17.766zm-29.672 12.609c-0.9375-11.391-2.7656-13.078-9.9375-9 3.2344 2.8594 6.2344 5.625 9.9375 9zm-103.69 82.688c-2.5312 2.2969-4.5469 4.2188-6.7031 6 0.23438 0.23438 0.375 0.60938 0.60938 0.84375 2.7656-0.70312 5.625-1.5469 8.8594-2.3906-0.9375-1.4531-1.6875-2.6719-2.7656-4.4531z"/>
</svg>
