<?xml version="1.0" encoding="UTF-8"?>
<svg width="1200pt" height="1200pt" version="1.1" viewBox="0 0 1200 1200" xmlns="http://www.w3.org/2000/svg">
 <path d="m349.6 102.8c-22.828 0-43.922 12.141-55.359 31.922l-250.36 433.31c-11.438 19.781-11.438 44.156 0 63.938l250.36 433.31c11.438 19.781 32.531 31.922 55.359 31.922h500.81c22.828 0 43.922-12.141 55.359-31.922l250.36-433.31c11.438-19.781 11.438-44.156 0-63.938l-250.36-433.31c-11.438-19.781-32.531-31.922-55.359-31.922zm0 35.297h500.81c10.312 0 19.734 5.4375 24.891 14.344l250.36 433.18c5.1562 8.9062 5.1562 19.875 0 28.781l-250.36 433.18c-5.1562 8.9062-14.578 14.344-24.891 14.344h-500.81c-10.312 0-19.688-5.4375-24.844-14.344l-250.26-433.18c-5.1562-8.9062-5.1562-19.875 0-28.781l250.26-433.18c5.1562-8.9062 14.531-14.344 24.844-14.344zm56.578 70.5c-20.109 0-38.812 10.734-48.891 28.125l-193.82 335.06c-10.078 17.391-10.078 39 0 56.438l193.82 335.06c10.078 17.391 28.781 28.125 48.891 28.125h387.71c20.109 0 38.766-10.734 48.844-28.125l193.87-335.06c10.078-17.391 10.078-39 0-56.438l-193.87-335.06c-10.078-17.391-28.734-28.125-48.844-28.125zm0 35.297h387.71c7.5938 0 14.438 4.0312 18.234 10.547l193.82 335.06c3.7969 6.5156 3.7969 14.484 0 21l-193.82 335.06c-3.7969 6.5156-10.641 10.547-18.234 10.547h-387.71c-7.5938 0-14.438-4.0312-18.234-10.547l-193.87-335.06c-3.7969-6.5156-3.7969-14.484 0-21l193.87-335.06c3.7969-6.5156 10.641-10.547 18.234-10.547zm193.87 48.75c-27.703 0-50.859 21.562-53.203 48.656-5.6719-2.1094-11.812-3.1875-18.188-3.1875-29.25 0-53.391 24.047-53.391 53.297v146.9c-8.7656-4.4531-18.609-6.9844-29.062-6.9844h-5.7188c-19.969 0-36.609 16.453-36.609 36.469v143.95c0 108.19 87.797 195.66 196.22 195.66 108.38 0 196.18-87.516 196.18-195.66v-234.1c0-29.25-24.047-53.297-53.297-53.297-6.3281 0-12.469 1.125-18.141 3.1875v-21.188c0-29.25-24.141-53.297-53.391-53.297-6.3281 0-12.375 1.1719-18 3.1875v-10.359c0-29.25-24.141-53.297-53.391-53.297zm0 35.297c10.359 0 18.094 7.7344 18.094 18v227.58l-0.046875-0.046875c0 8.5781 6.0938 15.938 14.531 17.438 1.0312 0.1875 2.0625 0.28125 3.0469 0.28125 0.70312 0 1.4062-0.046875 2.1094-0.09375 0.32812-0.046875 0.65625-0.09375 1.0312-0.14062 0.42188-0.09375 0.84375-0.1875 1.3125-0.28125 0.1875-0.046875 0.42188-0.14062 0.65625-0.1875 0.14062-0.046875 0.28125-0.09375 0.42188-0.14062 0.1875-0.046875 0.375-0.14062 0.60938-0.1875 0.1875-0.046875 0.32812-0.14062 0.46875-0.1875 0.1875-0.046875 0.32812-0.14062 0.46875-0.1875 0.1875-0.09375 0.375-0.1875 0.5625-0.23438 0.09375-0.09375 0.23438-0.14062 0.375-0.23438 0.1875-0.09375 0.42188-0.1875 0.60938-0.28125 0.09375-0.09375 0.23438-0.14062 0.32812-0.1875 0.1875-0.14062 0.42188-0.23438 0.60938-0.375 0.09375-0.046875 0.1875-0.14062 0.23438-0.1875l0.70312-0.42188c0.09375-0.046875 0.14062-0.09375 0.1875-0.14062l0.70312-0.5625c0.046875-0.046875 0.09375-0.046875 0.14062-0.09375 0.23438-0.1875 0.51562-0.42188 0.75-0.65625h0.046875c0.23438-0.28125 0.51562-0.51562 0.75-0.79688 0.23438-0.23438 0.46875-0.46875 0.65625-0.75 0.046875 0 0.046875-0.046875 0.09375-0.046875 0.1875-0.23438 0.32812-0.46875 0.51562-0.75l0.14062-0.14062c0.14062-0.23438 0.32812-0.46875 0.46875-0.70312 0.046875-0.09375 0.14062-0.14062 0.1875-0.23438 0.14062-0.23438 0.28125-0.42188 0.42188-0.60938 0.046875-0.14062 0.14062-0.23438 0.1875-0.375 0.046875-0.09375 0.14062-0.23438 0.1875-0.375 0.14062-0.1875 0.23438-0.375 0.32812-0.5625l0.28125-0.5625c0.09375-0.1875 0.14062-0.32812 0.1875-0.46875 0.09375-0.1875 0.14062-0.32812 0.23438-0.51562 0.046875-0.1875 0.14062-0.375 0.1875-0.5625 0.046875-0.14062 0.09375-0.28125 0.14062-0.375 0.046875-0.23438 0.14062-0.46875 0.1875-0.70312 0-0.09375 0.046875-0.23438 0.046875-0.32812 0.14062-0.60938 0.28125-1.2188 0.375-1.8281v-0.1875c0.09375-0.70312 0.14062-1.4062 0.14062-2.0625v-167.16c0-10.219 7.6406-17.953 18-17.953s18.094 7.7344 18.094 17.953v167.16c0 1.0312 0.09375 2.0625 0.28125 3.0469v0.046875c0 0.09375 0.046875 0.1875 0.046875 0.28125 0.1875 0.79688 0.375 1.6406 0.65625 2.4375 0.14062 0.375 0.32812 0.79688 0.46875 1.1719 0.1875 0.42188 0.375 0.89062 0.60938 1.3125 0.28125 0.46875 0.5625 0.98438 0.84375 1.4531 0.28125 0.42188 0.5625 0.79688 0.84375 1.1719 0.28125 0.32812 0.5625 0.65625 0.84375 0.9375 0.32812 0.42188 0.70312 0.75 1.0781 1.125s0.79688 0.70312 1.1719 1.0312c0.46875 0.32812 0.9375 0.65625 1.4062 0.9375l0.84375 0.5625c0.60938 0.32812 1.2656 0.60938 1.875 0.84375 0.32812 0.14062 0.60938 0.28125 0.89062 0.375 0.5625 0.1875 1.1719 0.32812 1.7344 0.46875 0.46875 0.09375 0.89062 0.1875 1.3125 0.28125 0.9375 0.14062 1.8281 0.23438 2.7656 0.23438 0.32812 0 0.65625-0.046875 0.98438-0.046875h0.046875l1.4062-0.14062c0.14062 0 0.32812-0.046875 0.51562-0.046875 0.046875-0.046875 0.09375-0.046875 0.14062-0.046875 0.28125-0.046875 0.5625-0.09375 0.84375-0.1875 0.046875 0 0.09375 0 0.14062-0.046875 0.28125-0.046875 0.5625-0.09375 0.84375-0.1875 0.046875 0 0.14062-0.046875 0.1875-0.046875 0.23438-0.09375 0.51562-0.1875 0.75-0.28125h0.046875c0.046875-0.046875 0.14062-0.046875 0.1875-0.046875 0.28125-0.09375 0.5625-0.23438 0.89062-0.32812 0-0.046875 0.046875-0.046875 0.09375-0.046875 0.23438-0.09375 0.46875-0.23438 0.70312-0.32812 0.046875-0.046875 0.14062-0.09375 0.23438-0.14062 0.51562-0.23438 0.98438-0.51562 1.4531-0.79688 0.14062-0.09375 0.23438-0.14062 0.32812-0.23438 0.1875-0.09375 0.375-0.23438 0.5625-0.32812 0.09375-0.09375 0.1875-0.1875 0.32812-0.23438 0.14062-0.14062 0.28125-0.23438 0.46875-0.375 0.09375-0.09375 0.1875-0.1875 0.32812-0.28125 0.14062-0.14062 0.28125-0.23438 0.375-0.375 0.14062-0.09375 0.23438-0.1875 0.32812-0.32812 0.14062-0.09375 0.28125-0.23438 0.42188-0.375 0.09375-0.09375 0.23438-0.23438 0.32812-0.375 0.14062-0.09375 0.23438-0.23438 0.32812-0.32812l0.42188-0.42188c0.09375-0.09375 0.1875-0.23438 0.23438-0.32812 0.14062-0.1875 0.23438-0.32812 0.375-0.46875 0.09375-0.09375 0.14062-0.23438 0.23438-0.32812 0.14062-0.1875 0.23438-0.375 0.32812-0.51562s0.14062-0.23438 0.23438-0.32812c0-0.046875 0.046875-0.09375 0.046875-0.09375 0.14062-0.28125 0.28125-0.51562 0.42188-0.75 0.09375-0.1875 0.1875-0.375 0.32812-0.5625v-0.09375c0.1875-0.28125 0.28125-0.60938 0.42188-0.9375 0.046875-0.046875 0.09375-0.09375 0.14062-0.1875l0.28125-0.70312c0-0.09375 0.046875-0.14062 0.046875-0.23438 0.09375-0.23438 0.1875-0.51562 0.28125-0.79688 0-0.046875 0.046875-0.09375 0.046875-0.14062 0.09375-0.28125 0.14062-0.5625 0.1875-0.79688 0.046875-0.09375 0.046875-0.14062 0.046875-0.1875 0.14062-0.60938 0.28125-1.2188 0.32812-1.875v-0.046875l0.14062-0.98438v-96.844c0-10.219 7.7812-18 18.141-18s18.094 7.7344 18.094 18v234.1c0 89.156-71.484 160.36-161.02 160.36-89.484 0-160.92-71.203-160.92-160.36l0.046875-30.094v-113.86c0-0.89062 0.32812-1.1719 1.3125-1.1719h5.7188c16.266 0 29.062 12.75 29.062 28.922l-0.046875 86.109c0 4.6875 1.8281 9.1875 5.1562 12.516 3.2812 3.2812 7.7812 5.1562 12.422 5.2031 4.7344 0 9.2344-1.8281 12.562-5.1562s5.2031-7.875 5.1562-12.562v-290.26c0-10.219 7.7344-18 18.094-18s18 7.7344 18 18v182.11c0 4.7344 1.875 9.2344 5.2031 12.562s7.8281 5.2031 12.516 5.1562c0.375 0 0.70312 0 1.0781-0.046875h0.046875c0.51562 0 0.98438-0.09375 1.5-0.14062 0.1875-0.046875 0.375-0.046875 0.51562-0.09375h0.14062c0.32812-0.09375 0.65625-0.14062 0.9375-0.23438 0.046875 0 0.09375 0 0.14062-0.046875 0.28125-0.046875 0.5625-0.14062 0.84375-0.23438 0.09375 0 0.14062-0.046875 0.23438-0.046875 0.28125-0.09375 0.51562-0.1875 0.79688-0.32812 0.09375 0 0.14062-0.046875 0.1875-0.046875 0.28125-0.09375 0.51562-0.23438 0.79688-0.32812 0.09375-0.046875 0.1875-0.09375 0.23438-0.14062 0.23438-0.09375 0.46875-0.23438 0.70312-0.32812 0.09375-0.09375 0.23438-0.14062 0.32812-0.1875 0.1875-0.09375 0.42188-0.23438 0.60938-0.32812 0.09375-0.09375 0.23438-0.14062 0.32812-0.23438 0.1875-0.09375 0.42188-0.23438 0.60938-0.375 0.09375-0.09375 0.23438-0.14062 0.32812-0.23438 0.1875-0.14062 0.375-0.28125 0.51562-0.42188 0.14062-0.09375 0.23438-0.1875 0.375-0.28125l0.42188-0.42188c0.14062-0.09375 0.28125-0.1875 0.42188-0.32812v-0.046875c0.14062-0.09375 0.28125-0.23438 0.42188-0.32812 0.09375-0.14062 0.23438-0.28125 0.375-0.42188 0 0 0.046875 0 0.046875-0.046875l0.32812-0.32812c0.375-0.42188 0.75-0.84375 1.0781-1.3125 0.09375-0.09375 0.1875-0.23438 0.23438-0.32812 0.14062-0.23438 0.28125-0.42188 0.42188-0.60938 0.046875-0.09375 0.14062-0.1875 0.1875-0.28125l0.14062-0.28125c0.09375-0.09375 0.1875-0.23438 0.28125-0.375 0.14062-0.32812 0.32812-0.65625 0.46875-0.98438l0.14062-0.28125c0.09375-0.23438 0.1875-0.51562 0.32812-0.75 0.046875-0.09375 0.09375-0.14062 0.14062-0.23438 0.09375-0.28125 0.14062-0.51562 0.23438-0.79688v-0.046875c0.046875-0.046875 0.046875-0.09375 0.09375-0.14062 0.09375-0.32812 0.1875-0.60938 0.23438-0.89062 0.046875-0.046875 0.046875-0.09375 0.046875-0.1875 0.09375-0.28125 0.14062-0.60938 0.1875-0.89062v-0.14062c0.09375-0.28125 0.14062-0.60938 0.23438-0.9375v-0.14062c0-0.32812 0.046875-0.65625 0.046875-0.98438v-0.046875c0-0.375 0.046875-0.70312 0.046875-1.0781v-227.58c0-10.219 7.7812-18 18.141-18z"/>
</svg>
