<?xml version="1.0" encoding="UTF-8"?>
<svg id="Layer_1" xmlns="http://www.w3.org/2000/svg" version="1.1" viewBox="0 0 1200 1200">
  <!-- Generator: Adobe Illustrator 29.2.1, SVG Export Plug-In . SVG Version: 2.1.0 Build 116)  -->
  <defs>
    <style>
      .st0 {
        fill: #ffff61;
      }

      .st1 {
        fill: #002986;
      }

      .st2 {
        fill: #656a69;
      }
    </style>
  </defs>
  <polygon class="st0" points="436 607 670 607 529 814 708 826 364 1162 436 971 282 961 436 607"/>
  <path class="st2" d="M963,328l-68-78-149.5-39h-20.5l-76-125L503,14l-97,11-146,78s-48,88-52,107S-16.9,268,37.6,488s520.4,102,721.4,119,281,8,281,8l122.5-68,15.5-137-66-77-82.2-27-66.8,22Z"/>
  <path d="M1200,465.3c0,92.3-74.9,167-167.2,167.1h-357.4l-122.4,170.6,162.5,6.3c2.3.6,4.6,1.1,6.9,1.7,1.4.7,2.7,1.6,3.8,2.6.7.4,1.4.9,2,1.4h0v.2c1.2,1.3,2.1,2.8,2.9,4.4.4.6.8,1.2,1.1,1.8.1.3,0,.8.2,1.1h0c.7,2,1,4,1,6.1v.2h0c-.1.9-.4,1.8-.7,2.8-.1,1.4-.5,2.7-.9,4-.9,2.1-2.3,4-3.9,5.7,0,0,0,.2-.2.3l-366.9,353.2c-1.4.9-2.7,1.7-4,2.6-2.7,1.6-5.8,2.5-9,2.6,0,0-.2,0-.3,0-2.4,0-4.8-.5-7.1-1.5h-.2c-1.5-.8-2.9-1.7-4.1-2.9-.6-.4-1.3-.8-1.9-1.3h0c0,0,0,0,0,0-2.9-2.8-4.5-6.5-4.7-10.5-.2-.9-.4-1.9-.5-2.8,0-2.5.6-4.9,1.5-7.2h0c0,0,83.2-188.7,83.2-188.7l-141.5-2c-.3,0-.5.2-.8.2-2.9,0-5.6-.6-8.2-1.9-4.1-2.1-7.3-5.6-9-9.8v-.2c-.1,0-.1,0-.1,0-.8-2.1-1.2-4.3-1.2-6.5s-.1-.5-.1-.8h0c0,0,0-.1,0-.1.1-1.2.4-2.4.8-3.6.2-1.4.6-2.8,1-4l157.6-323.9h-204.3c-55.2,0-108.1-22-147.1-61C22,532.5,0,479.5,0,424.4c-.1-6.3.2-12.6,1.2-18.9,4.2-48.1,25.2-93.2,59.3-127.5,34.1-34.2,79.1-55.4,127.2-59.9,7.3-30.8,19.9-60.1,37.4-86.5C275.1,52.8,360.7,3.7,453.9.2c93.3-3.5,182.3,39,238.1,113.8,19.1,25.2,33.8,53.4,43.7,83.5,57.3-10.2,116.3,3.7,163.2,38.2,28,20.2,50.9,46.8,66.9,77.4,21-9.7,43.9-14.8,67.1-15,92.3,0,167.1,74.9,167.2,167.2h0ZM629.3,632.4h-175.1l-152.7,313.5,141.2,2c5,0,9.8,2.2,13.2,5.8.8.9,1.5,2,2,3.1.7.9,1.3,1.9,1.9,3,.8,2.2,1.3,4.6,1.3,7h0c0,.6-.3,1.1-.3,1.6,0,2-.6,3.9-1.3,5.8l-56.1,127.5,266.6-256.6-152.6-5.9h-.8c-3.3-.2-6.5-1.3-9.2-3.1-.3-.2-.7,0-1-.3-.5-.3-.8-.9-1.2-1.3h0c-1.1-.9-2-1.9-2.8-3-.6-.8-1.2-1.7-1.6-2.7-1.1-2.2-1.7-4.6-1.9-7-.1-.7-.2-1.4-.3-2.1.1-.6.3-1.2.5-1.8.1-1.1.4-2.2.8-3.3.4-1.3,1-2.6,1.7-3.8.1-.4.4-.8.6-1.3l127.1-177.1ZM1162.5,465.3c0-71.5-58.1-129.5-129.6-129.6-23.4.5-46.3,7.2-66.4,19.3l-8.7,5.1c-21.8,16.3-37.1,39.8-43,66.5-1.1,4.9-4.2,9.2-8.6,11.8s-9.6,3.4-14.5,2.1c-4.9-1.3-9.1-4.5-11.6-9-2.5-4.4-3-9.7-1.6-14.5,8-33.6,27.1-63.5,54.2-84.8-13.2-26.1-32.3-48.7-55.9-65.9-42.8-31.7-97.8-42.2-149.3-28.4l-7.6,2.1c-35.5,10-63.4,37.7-73.6,73.2,59.1,23.6,98.5,80.1,100.1,143.7.1,5.1-1.8,9.9-5.3,13.5-3.6,3.6-8.4,5.7-13.5,5.7s-9.9-2.1-13.4-5.7c-3.6-3.6-5.5-8.5-5.3-13.5,0-67.2-61.3-121.8-136.6-121.8-75.3,0-136.5,54.7-136.5,121.8.1,5.1-1.8,9.9-5.3,13.5-3.5,3.6-8.4,5.7-13.5,5.7s-9.9-2.1-13.4-5.7c-3.5-3.6-5.4-8.5-5.3-13.5,0-87.8,78.1-159.3,174.1-159.3h0c12.9,0,25.8,1.5,38.4,4.2,12.6-43.8,45.5-78.8,88.5-94.2-8.5-25.5-21-49.5-37.2-71-48.5-65-125.9-101.9-206.9-98.9-81,3.1-155.3,45.9-198.7,114.4-13.3,20.8-23.2,43.6-29.2,67.5,33.5,5.3,92.7,23.1,120.9,83.5h0c4.1,9.3,0,20.3-9.2,24.6-9.2,4.3-20.2.4-24.8-8.7-29-62.2-108.1-64.1-110.8-64.1-86.6,2-157.7,69-164.9,155.3-.7,4.7-1,9.5-.8,14.2,0,94.2,76.4,170.5,170.5,170.6h824.8c71.6,0,129.6-58,129.7-129.6h0Z"/>
  <path class="st1" d="M171.5,669.2c3.5,3.5,5.5,8.3,5.5,13.3s-2,9.8-5.5,13.3l-47.3,47.4h0c-7.4,7.1-19,6.9-26.2-.3s-7.4-18.9-.2-26.2l47.4-47.3h0c7.3-7.4,19.2-7.4,26.5,0h0Z"/>
  <path class="st1" d="M253,748.6h0c5,0,9.8-1.9,13.3-5.4l47.4-47.4c7.3-7.3,7.3-19.2,0-26.5s-19.2-7.3-26.5,0l-47.4,47.3h0c-5.4,5.4-7,13.5-4.1,20.4,2.9,7,9.7,11.6,17.2,11.6h0Z"/>
  <path class="st1" d="M713.5,669.2l-47.4,47.3h0c-3.6,3.5-5.7,8.3-5.8,13.4,0,5.1,2,9.9,5.5,13.5,3.5,3.6,8.4,5.5,13.4,5.5,5.1,0,9.8-2.1,13.4-5.7l47.3-47.4c7.3-7.3,7.3-19.2,0-26.5s-19.2-7.3-26.5,0h0Z"/>
  <path class="st1" d="M855.6,669.2l-47.4,47.3h0c-3.6,3.5-5.7,8.3-5.8,13.4,0,5.1,2,9.9,5.5,13.5s8.4,5.5,13.4,5.5c5.1,0,9.8-2.1,13.4-5.7l47.3-47.4c7.3-7.3,7.3-19.2,0-26.5s-19.2-7.3-26.5,0h0Z"/>
  <path class="st1" d="M997.7,669.2l-47.3,47.4c-3.6,3.5-5.7,8.3-5.8,13.3,0,5.1,2,9.9,5.5,13.5s8.4,5.5,13.4,5.5c5.1,0,9.8-2.1,13.4-5.7l47.4-47.4c7.3-7.3,7.3-19.2,0-26.5s-19.2-7.3-26.5,0h0Z"/>
  <path class="st1" d="M145,811.4l-47.3,47.4c-7.1,7.4-7,19,.2,26.2s18.9,7.4,26.2.3l47.3-47.4h0c7.3-7.3,7.3-19.2,0-26.5s-19.2-7.3-26.5,0h0Z"/>
  <path class="st1" d="M855.6,811.4l-47.4,47.3h0c-7.1,7.4-7,19.1.3,26.3,7.2,7.2,18.9,7.4,26.2.3l47.3-47.4c7.3-7.3,7.3-19.2,0-26.5s-19.2-7.3-26.5,0h0Z"/>
  <path class="st1" d="M145,953.5l-47.3,47.3c-7.1,7.4-7,19,.2,26.3,7.2,7.2,18.9,7.4,26.2.3l47.3-47.4h0c7.3-7.3,7.3-19.2,0-26.5s-19.2-7.3-26.5,0h0Z"/>
  <path class="st1" d="M239.7,1048.3l-47.4,47.3c-7.3,7.3-7.3,19.2,0,26.5,7.3,7.4,19.2,7.4,26.5,0l47.4-47.3h0c7.1-7.4,7-19.1-.2-26.3s-18.9-7.4-26.2-.3h0Z"/>
  <path class="st1" d="M713.5,953.5l-47.4,47.3h0c-7.1,7.4-7,19,.3,26.2,7.2,7.2,18.9,7.4,26.2.3l47.3-47.4c3.5-3.5,5.5-8.3,5.5-13.3s-2-9.8-5.5-13.3c-3.5-3.5-8.3-5.5-13.3-5.5s-9.8,2-13.3,5.5h0Z"/>
</svg>