<?xml version="1.0" encoding="UTF-8"?>
<svg id="Layer_1" xmlns="http://www.w3.org/2000/svg" version="1.1" viewBox="0 0 1200 1121.3">
  <!-- Generator: Adobe Illustrator 29.2.1, SVG Export Plug-In . SVG Version: 2.1.0 Build 116)  -->
  <path d="M511.9,221.3c1.5,7.4,7.5,12.8,14.8,13.9v7.2c0,9.7,7.9,17.6,17.6,17.6s17.6-7.9,17.6-17.6v-7.1h65v7.1c0,9.7,7.9,17.6,17.6,17.6s17.6-7.9,17.6-17.6v-8.2c5.6-2.1,9.8-6.9,11.1-13.1l23.2-118.9h7.4c9.7,0,17.6-7.9,17.6-17.6s-7.9-17.6-17.6-17.6h-21.9c-8.4,0-15.7,6-17.2,14.2l-4.2,21.5h-151c-5.3,0-10.3,2.4-13.6,6.5s-4.7,9.5-3.6,14.6l19.8,97.5ZM653.4,138l-12.1,62.2h-97.8l-12.7-62.2h122.6Z"/>
  <path d="M1182.4,315.7h-293.7v-48.1h30.5c9.7,0,17.6-7.9,17.6-17.6v-75.5c0-9.7-7.9-17.6-17.6-17.6h-128.1v-75.3c0-45-36.7-81.6-81.8-81.6h-218.8c-45.1,0-81.8,36.6-81.8,81.6v75.3h-128.1c-9.7,0-17.6,7.9-17.6,17.6v75.5c0,9.7,7.9,17.6,17.6,17.6h30.5v48.1H17.6c-9.7,0-17.6,7.9-17.6,17.6v75.5c0,9.7,7.9,17.6,17.6,17.6h6.8v677.4c0,9.7,7.9,17.6,17.6,17.6h1116c9.7,0,17.6-7.9,17.6-17.6V426.2h6.8c9.7,0,17.6-7.9,17.6-17.6v-75.5c0-9.7-7.9-17.5-17.6-17.5h0ZM1164.8,350.8v40.3h-276.1v-40.4h276.1ZM853.7,1086.1h-71.2v-320.9c0-9.7-7.9-17.6-17.6-17.6h-330c-9.7,0-17.6,7.9-17.6,17.6v320.9h-71.1v-424h507.5v424ZM871.3,627H298.4v-40.2h603.3v40.2h-30.3ZM901.6,192.1v40.3h-110.5v-40.3h110.5ZM444,81.6c0-25.6,20.9-46.4,46.6-46.4h218.8c25.7,0,46.6,20.8,46.6,46.4v169.4c0,25.6-20.9,46.5-46.6,46.5h-218.8c-25.7,0-46.6-20.9-46.6-46.5V81.6ZM298.4,192.1h110.5v40.3h-110.5v-40.3ZM410.5,267.5c7.7,37.1,40.7,65.1,80.1,65.1h218.8c39.4,0,72.4-28,80.1-65.1h64.1v284h-507.2v-284h64.1ZM35.2,350.8h276.1v40.3H35.2v-40.3ZM59.6,814.7h132.1v183.4H59.6s0-183.4,0-183.4ZM59.6,509.5h132.1v183.4H59.6v-183.4ZM59.6,1033.3h149.7c9.7,0,17.6-7.9,17.6-17.6v-218.5c0-9.7-7.9-17.6-17.6-17.6H59.6v-51.6h149.7c9.7,0,17.6-7.9,17.6-17.6v-218.5c0-9.7-7.9-17.6-17.6-17.6H59.6v-48.1h251.7v125.3h-30.5c-9.7,0-17.6,7.9-17.6,17.6v75.4c0,9.7,7.9,17.6,17.6,17.6h30.3v424H59.6v-52.8ZM452.5,782.8h129.8v303.3h-129.8v-303.3ZM617.5,1086.1v-303.3h129.8v303.3h-129.8ZM1140.4,692.8h-132.1v-183.4h132.1v183.4ZM1140.4,998.1h-132.1v-183.4h132.1v183.4ZM1140.4,474.3h-149.7c-9.7,0-17.6,7.9-17.6,17.6v218.5c0,9.7,7.9,17.6,17.6,17.6h149.7v51.6h-149.7c-9.7,0-17.6,7.9-17.6,17.6v218.5c0,9.7,7.9,17.6,17.6,17.6h149.7v52.8h-251.5s0-423.9,0-423.9h30.3c9.7,0,17.6-7.9,17.6-17.6v-75.4c0-9.7-7.9-17.6-17.6-17.6h-30.5v-125.3h251.7v48.1Z"/>
  <path d="M462.6,515.4h274.9c38,0,68.9-30.8,68.9-68.7s-30.9-68.8-68.9-68.8h-274.9c-38,0-68.9,30.8-68.9,68.8,0,37.9,30.9,68.7,68.9,68.7ZM462.6,413.1h274.9c18.6,0,33.8,15.1,33.8,33.7s-15.1,33.6-33.8,33.6h-274.9c-18.6,0-33.8-15-33.8-33.6,0-18.6,15.1-33.7,33.8-33.7Z"/>
</svg>