<?xml version="1.0" encoding="UTF-8"?>
<svg width="1200pt" height="1200pt" version="1.1" viewBox="0 0 1200 1200" xmlns="http://www.w3.org/2000/svg">
 <path d="m1072.1 951.84-532.45-712.64c-1.4531-1.9219-3.7031-3.0469-6.0938-3.0469l-352.18-0.1875c-2.2969 0-4.5 1.0781-5.9531 2.8594-1.4531 1.8281-1.9688 4.1719-1.4531 6.4688l50.203 216.61c-55.828 12.047-97.781 61.734-97.781 121.13 0 65.25 112.31 298.87 117.09 308.81 1.2656 2.625 3.9375 4.3125 6.8438 4.3125s5.5781-1.6875 6.8438-4.3125c1.9219-4.0312 21.609-44.906 44.297-96.469l37.734 162.79c0.79688 3.4219 3.8906 5.9062 7.4062 5.9062h719.34c2.8594 0 5.5312-1.6406 6.7969-4.2188 1.3125-2.5781 1.0312-5.6719-0.70312-7.9688zm-881.11-700.64h30.141l58.734 211.55c-9.4688-2.3438-19.312-3.7031-29.484-3.7031-3.75 0-7.4062 0.23438-11.062 0.5625zm59.391 619.55c-24.844-52.781-108.7-234.84-108.7-287.76 0-59.953 48.75-108.7 108.7-108.7s108.7 48.75 108.7 108.7c0 52.875-83.859 234.94-108.7 287.76zm61.312-98.859c11.062-25.734 22.266-52.922 32.109-78.891l71.062 255.79h-62.156zm118.97 176.9-77.859-280.26c12.75-35.953 21.516-67.312 21.516-85.547 0-51.75-31.922-96.188-77.109-114.7l-60.234-216.94h247.69l492.05 697.4h-546zm564.61 0-492.05-697.45h26.531s521.06 697.45 521.06 697.45zm-550.08-571.82c1.4062-2.25 1.5469-5.0156 0.375-7.3594l-39.422-79.969c-1.2656-2.625-3.9375-4.2656-6.8438-4.2656h-34.594c-2.625 0-5.0625 1.3594-6.4688 3.6094s-1.5469 5.0156-0.375 7.3594l39.422 79.969c1.2656 2.625 3.9375 4.2656 6.8438 4.2656h34.594c2.625 0 5.0625-1.3594 6.4688-3.6094zm-36.328-11.625-31.922-64.734h17.625l31.922 64.734zm58.125 59.109h-34.594c-2.625 0-5.0625 1.3594-6.4688 3.6094s-1.5469 5.0156-0.375 7.3594l46.406 94.172c1.2656 2.625 3.9375 4.2656 6.8438 4.2656h34.594c2.625 0 5.0625-1.3594 6.4688-3.6094 1.3594-2.25 1.5469-5.0156 0.375-7.3594l-46.406-94.172c-1.2656-2.625-3.9375-4.2656-6.8438-4.2656zm16.594 94.172-38.906-78.938h17.625l38.906 78.938zm20.25 65.766c-1.4062 2.25-1.5469 5.0156-0.375 7.3594l53.344 108.14c1.2656 2.5781 3.9375 4.2656 6.8438 4.2656h34.594c2.625 0 5.0625-1.3594 6.4688-3.6094s1.5469-5.0156 0.375-7.3594l-53.344-108.14c-1.2656-2.625-3.9375-4.2656-6.8438-4.2656h-34.594c-2.625 0-5.0625 1.3594-6.4688 3.6094zm36.328 11.625 45.844 92.906h-17.625l-45.844-92.906zm51.984 168.74c-1.4062 2.25-1.5469 5.0156-0.375 7.3594l69.656 141.28c1.2656 2.625 3.9375 4.2656 6.8438 4.2656h34.594c2.625 0 5.0625-1.3594 6.4688-3.6094s1.5469-5.0156 0.375-7.3594l-69.656-141.28c-1.2656-2.625-3.9375-4.2656-6.8438-4.2656h-34.594c-2.625 0-5.0625 1.3594-6.4688 3.6094zm36.328 11.625 62.156 126.05h-17.625l-62.156-126.05zm-377.72-261.1c-34.641 0-62.812 28.172-62.812 62.812s28.172 62.812 62.812 62.812 62.812-28.172 62.812-62.812-28.172-62.812-62.812-62.812zm0 110.44c-26.25 0-47.625-21.375-47.625-47.625s21.375-47.625 47.625-47.625 47.625 21.375 47.625 47.625-21.375 47.625-47.625 47.625z"/>
</svg>
