<?xml version="1.0" encoding="UTF-8"?>
<svg id="Layer_1" data-name="Layer 1" xmlns="http://www.w3.org/2000/svg" viewBox="0 0 1099.171 1097.815">
  <defs>
    <style>
      .cls-1 {
        fill: #ff1414;
        fill-rule: evenodd;
      }
    </style>
  </defs>
  <path d="M176.675,468.558c39.609.094,75.375-23.766,90.562-60.328,15.188-36.609,6.844-78.75-21.188-106.73-27.984-28.031-70.125-36.375-106.73-21.188-36.562,15.188-60.422,50.953-60.328,90.562,0,53.953,43.734,97.688,97.688,97.688l-.004-.004ZM176.675,310.498c24.422-.094,46.5,14.578,55.922,37.125,9.375,22.547,4.266,48.562-12.984,65.859-17.25,17.344-43.219,22.5-65.812,13.172s-37.312-31.359-37.312-55.781c0-33.281,26.906-60.281,60.188-60.375h-.002ZM364.175,684.188c22.969,12.703,51.797,6.656,67.688-14.25,1.125-1.688,11.812-15.188,25.312-32.438,1.359.188,2.766.188,4.125,0h460.13c31.078,0,56.25-25.172,56.25-56.25V56.25c0-31.078-25.172-56.25-56.25-56.25H96.43c-31.078,0-56.25,25.172-56.25,56.25v455.63c-24.516,18.516-38.812,47.484-38.625,78.188L.055,811.878c-.656,13.969,4.594,27.562,14.438,37.5,9.469,9.562,22.359,14.953,35.812,15h221.26c27.797-.094,50.25-22.641,50.25-50.438v-159l40.875,28.125,1.485,1.123ZM77.675,57.188c0-10.359,8.391-18.75,18.75-18.75h825c4.969,0,9.75,1.969,13.266,5.484,3.516,3.516,5.484,8.297,5.484,13.266v525c0,4.969-1.969,9.75-5.484,13.266-3.516,3.516-8.297,5.484-13.266,5.484h-435.19c3.938-5.25,7.875-10.312,11.625-14.812,8.625-10.5,12.469-24.047,10.688-37.5-1.172-8.109-4.406-15.797-9.375-22.312l158.44-170.26c3.797-3.562,5.953-8.531,5.953-13.734,0-5.156-2.203-10.125-6-13.688-3.797-3.516-8.906-5.344-14.062-4.969-5.203.375-9.984,2.859-13.266,6.891l-164.63,176.81c-16.547-1.031-32.625,5.906-43.125,18.75l-39.75,48.188-73.875-54.375c-25.453-16.359-55.078-24.984-85.312-24.938H92.286c-4.781.141-9.562.609-14.25,1.5l-.361-439.302ZM302.675,616.878c-10.875,5.672-17.672,16.969-17.625,29.25v166.87c0,7.078-5.672,12.844-12.75,12.938H50.3c-3.422-.047-6.656-1.453-9-3.938-2.438-2.438-3.797-5.766-3.75-9.188l1.5-222.94c-.984-30.422,22.453-56.109,52.875-57.938h131.26c22.734-.375,45.094,5.672,64.5,17.438l76.5,56.25c13.969,10.406,33.656,7.922,44.625-5.625l42.562-50.625c3.609-4.641,9.984-6.047,15.188-3.375,2.719,1.688,4.547,4.5,4.875,7.688.375,3.281-.656,6.516-2.812,9l-67.312,85.5c-4.734,5.344-12.469,6.703-18.75,3.375l-47.062-32.25c-9.844-7.031-22.781-7.969-33.562-2.438l.739.007ZM171.415,150.938c0-10.359,8.391-18.75,18.75-18.75h656.26c10.359,0,18.75,8.391,18.75,18.75s-8.391,18.75-18.75,18.75H190.165c-10.359,0-18.75-8.391-18.75-18.75h0ZM865.155,263.438c0,4.969-1.969,9.75-5.484,13.266s-8.297,5.484-13.266,5.484h-483.74c-10.359,0-18.75-8.391-18.75-18.75s8.391-18.75,18.75-18.75h483.74c4.969,0,9.75,1.969,13.266,5.484s5.484,8.297,5.484,13.266h0ZM480.025,375.938c0,4.969-1.969,9.75-5.484,13.266s-8.297,5.484-13.266,5.484h-88.688c-10.359,0-18.75-8.391-18.75-18.75s8.391-18.75,18.75-18.75h88.688c4.969,0,9.75,1.969,13.266,5.484s5.484,8.297,5.484,13.266h0ZM847.525,375.938c0,4.969-1.969,9.75-5.484,13.266s-8.297,5.484-13.266,5.484h-132.37c-10.359,0-18.75-8.391-18.75-18.75s8.391-18.75,18.75-18.75h132.37c4.969,0,9.75,1.969,13.266,5.484s5.484,8.297,5.484,13.266h0ZM1000.155,785.438c.094-27.844-16.641-53.016-42.328-63.703-25.734-10.734-55.359-4.875-75.094,14.812-19.688,19.641-25.641,49.266-15,75s35.766,42.516,63.609,42.516c37.922,0,68.719-30.703,68.812-68.625h0ZM931.343,816.563c-12.703,0-24.094-7.641-28.969-19.359-4.828-11.719-2.109-25.219,6.891-34.172,9-8.906,22.5-11.578,34.172-6.656,11.719,4.922,19.312,16.359,19.219,29.062,0,17.203-13.922,31.125-31.125,31.125h-.188ZM793.903,747.938c.094-27.844-16.641-53.016-42.328-63.703-25.734-10.734-55.359-4.875-75.094,14.812-19.688,19.641-25.641,49.266-15,75s35.766,42.516,63.609,42.516c37.922,0,68.719-30.703,68.812-68.625h0ZM725.091,779.063c-12.703,0-24.094-7.641-28.969-19.359-4.828-11.719-2.109-25.219,6.891-34.172,9-8.906,22.5-11.578,34.172-6.656,11.719,4.922,19.312,16.359,19.219,29.062,0,17.203-13.922,31.125-31.125,31.125h-.188ZM587.651,785.438c.094-27.844-16.641-53.016-42.328-63.703-25.734-10.734-55.359-4.875-75.094,14.812-19.688,19.641-25.641,49.266-15,75s35.766,42.516,63.609,42.516c37.922,0,68.719-30.703,68.812-68.625h0ZM518.839,816.563c-12.703,0-24.094-7.641-28.969-19.359-4.828-11.719-2.109-25.219,6.891-34.172,9-8.906,22.5-11.578,34.172-6.656,11.719,4.922,19.312,16.359,19.219,29.062,0,17.203-13.922,31.125-31.125,31.125h-.188ZM1061.469,957.753c-.141-2.953-.609-5.906-1.312-8.812-11.438-55.125-59.953-94.734-116.25-94.875h-24.75c-27.422.094-53.906,9.703-75,27.188-20.391-39.984-61.594-65.016-106.5-64.688h-24.75c-44.625.094-85.453,25.219-105.56,65.062-21.094-17.578-47.578-27.281-75-27.562h-25.688c-58.312-.281-108.14,42-117.38,99.562-.094,1.266-.094,2.484,0,3.75-29.625,16.594-44.438,51.047-36.047,83.953,8.391,32.953,37.875,56.109,71.859,56.484h600c33.797-.422,63.188-23.391,71.672-56.156,8.484-32.719-5.953-67.078-35.297-83.906h.003ZM918.969,891.565h24.938c35.156.141,66.234,22.828,77.062,56.25h-179.06c10.734-33.609,42-56.344,77.25-56.25h-.19ZM712.709,854.065h24.938c35.203,0,66.422,22.734,77.25,56.25.328,1.031.844,1.969,1.5,2.812-6.234,10.922-10.641,22.734-13.125,35.062h-155.63c-2.625-11.859-7.125-23.25-13.312-33.75,9.609-35.531,41.766-60.234,78.562-60.375h-.183ZM506.449,891.565h24.938c35.156.141,66.234,22.828,77.062,56.25h-179.06c10.734-33.609,42-56.344,77.25-56.25h-.19ZM1025.079,1060.305H425.079c-20.719,0-37.5-16.781-37.5-37.5s16.781-37.5,37.5-37.5h600c20.719,0,37.5,16.781,37.5,37.5s-16.781,37.5-37.5,37.5Z"/>
  <path class="cls-1" d="M847.841,639.488l68.115-9.393c3.527-.486,6.782,1.98,7.269,5.507l4.636,33.619c.486,3.527-1.98,6.782-5.507,7.269l-140.918,19.432c-3.527.486-6.782-1.98-7.269-5.507l-19.432-140.918c-.486-3.527,1.98-6.782,5.507-7.269l33.619-4.636c3.527-.486,6.782,1.98,7.269,5.507l9.393,68.115,106.141-140.097c2.155-2.845,6.198-3.394,9.033-1.246l27.041,20.487c2.836,2.149,3.401,6.189,1.246,9.033l-106.142,140.096Z"/>
</svg>