<?xml version="1.0" encoding="UTF-8"?>
<svg width="1200pt" height="1200pt" version="1.1" viewBox="0 0 1200 1200" xmlns="http://www.w3.org/2000/svg">
 <path d="m798.41 199.49c0 55.934-45.344 101.28-101.28 101.28-55.938 0-101.28-45.348-101.28-101.28 0-55.938 45.344-101.28 101.28-101.28 55.934 0 101.28 45.344 101.28 101.28"/>
 <path d="m945.62 820.11c34.586-0.98438 61.824-29.832 60.84-64.441-0.55078-20.16-39-282.21-82.176-350.06-49.754-78.191-133.27-103.05-184.8-71.062-51.527 31.969-123.67 163.32-123.67 163.32l-113.98 8.9531c23.281-26.258 20.809-35.496 13.801-42.504-8.1367-8.1133-19.223-10.223-56.473 27.047-6.1914 6.1914-12.719 13.105-19.273 20.328l-23.832 1.8711c-14.832 1.1523-27.047 12.961-28.246 28.246-0.71875 9.0703 2.6406 17.449 8.4961 23.543-12.047 17.039-19.055 30.434-15.574 33.887 4.1758 4.1758 22.754-6.8867 44.855-23.617l210.82 16.559c10.656 0.79297 21.742-2.6641 30.191-10.512l2.4961-2.3281 66.938-62.281c39.961 64.105 75.121 144.19 90.504 181.01l-138.07 3.9102-3.3828 0.097656c-27.07 0.86328-49.703 22.055-51.77 49.68l-22.441 299.4c-1.8008 24.695 15.961 46.969 40.848 50.23 25.777 3.3828 49.465-14.785 52.824-40.586l32.352-246.53 205.13 5.832c1.1719 0.035156 2.4688 0.035156 3.5977 0.011719z"/>
 <path d="m1066.5 439.39c-14.711 0-26.641 11.93-26.641 26.641v371.4l-264.79 0.003906c-14.711 0-26.641 11.93-26.641 26.641v237.72h53.305v-211.08h238.13v211.08h53.305v-635.76c-0.023437-14.711-11.953-26.641-26.664-26.641z"/>
 <path d="m529.8 615.31h-390.94c-17.641 0-31.969 14.328-31.969 31.992v35.52c0 17.641 14.328 31.969 31.969 31.969h133.3v387h124.39v-387h133.27c17.664 0 31.992-14.328 31.992-31.969v-35.52c-0.023437-17.688-14.328-31.992-32.016-31.992z"/>
 <path d="m163.75 603.41h151.3c7.6562 0 13.895-6.2383 13.895-13.895s-6.2383-13.895-13.895-13.895h-15.793c-6.7422-23.566-3.4062-44.062-0.19141-55.559h15.984c7.6562 0 13.895-6.2148 13.895-13.895 0-7.6562-6.2383-13.895-13.895-13.895l-151.3-0.003906c-22.992 0-41.688 18.695-41.688 41.688v27.77c-0.003906 22.965 18.695 41.684 41.688 41.684zm-13.898-42h94.535v-11.566h-94.535v-15.887c0-7.6562 6.2383-13.895 13.895-13.895h116.14c-0.67188 2.9023-1.2969 6.168-1.8242 9.6484l-92.688-0.003906v11.566h91.535c-0.55078 10.176 0.070313 21.77 3.1211 34.344l-116.28 0.003907c-7.6562 0-13.895-6.2383-13.895-13.895z"/>
 <path d="m135.96 455.64c-7.6562 0-13.895 6.2383-13.895 13.895 0 7.6797 6.2383 13.895 13.895 13.895h151.3c22.992 0 41.688-18.695 41.688-41.664v-27.793c0-22.992-18.695-41.664-41.688-41.664l-151.3 0.003906c-7.6562 0-13.895 6.2148-13.895 13.871 0 7.6797 6.2383 13.895 13.895 13.895h15.961c3.2383 11.496 6.5742 31.992-0.16797 55.559zm38.137-34.32h91.535v-11.566h-92.688c-0.52734-3.4805-1.1523-6.7422-1.8242-9.6484h116.14c7.6562 0 13.895 6.2383 13.895 13.895v15.887h-94.559v11.566h94.535v0.33594c0 7.6562-6.2383 13.871-13.895 13.871l-116.26 0.003906c3.0469-12.574 3.6719-24.168 3.1211-34.344z"/>
</svg>
