<?xml version="1.0" encoding="UTF-8"?><svg id="Layer_2" xmlns="http://www.w3.org/2000/svg" viewBox="0 0 458.822 458.815"><defs><style>.cls-1{fill:#fffc2a;}</style></defs><g id="Layer_5"><path d="M229.42,383.445c-84.938,0-154.03-69.094-154.03-154.03S144.484,75.385,229.42,75.385s154.03,69.094,154.03,154.03c.047,84.891-69.094,154.03-154.03,154.03Z"/><path class="cls-1" d="M229.42,93.005c-75.188,0-136.4,61.172-136.4,136.4s61.172,136.4,136.4,136.4,136.4-61.172,136.4-136.4-61.172-136.4-136.4-136.4Z"/><path d="M229.42,48.375c-4.875,0-8.812-3.938-8.812-8.812V8.812c0-4.875,3.938-8.812,8.812-8.812s8.812,3.938,8.812,8.812v30.797c0,4.828-3.938,8.766-8.812,8.766h0Z"/><path d="M229.42,458.815c-4.875,0-8.812-3.938-8.812-8.812v-30.797c0-4.875,3.938-8.812,8.812-8.812s8.812,3.938,8.812,8.812v30.797c0,4.828-3.938,8.812-8.812,8.812Z"/><path d="M134.53,73.835c-3.047,0-6-1.594-7.641-4.406l-15.375-26.672c-2.438-4.219-.984-9.609,3.234-12.047s9.609-.984,12.047,3.234l15.375,26.672c2.438,4.219.984,9.609-3.234,12.047-1.406.797-2.906,1.172-4.406,1.172h0Z"/><path d="M339.71,429.235c-3.047,0-6-1.594-7.641-4.406l-15.375-26.672c-2.438-4.219-.984-9.609,3.234-12.047s9.609-.984,12.047,3.234l15.375,26.672c2.438,4.219.984,9.609-3.234,12.047-1.359.797-2.906,1.172-4.406,1.172h0Z"/><path d="M65.03,143.295c-1.5,0-3-.375-4.406-1.172l-26.672-15.375c-4.219-2.438-5.672-7.828-3.234-12.047s7.828-5.672,12.047-3.234l26.672,15.375c4.219,2.438,5.672,7.828,3.234,12.047-1.594,2.812-4.594,4.406-7.641,4.406h0Z"/><path d="M420.48,348.515c-1.5,0-3-.375-4.406-1.172l-26.672-15.422c-4.219-2.438-5.672-7.828-3.234-12.047s7.828-5.672,12.047-3.234l26.672,15.375c4.219,2.438,5.672,7.828,3.234,12.047-1.641,2.859-4.594,4.453-7.641,4.453h0Z"/><path d="M39.61,238.215H8.812c-4.875,0-8.812-3.938-8.812-8.812s3.938-8.812,8.812-8.812h30.797c4.875,0,8.812,3.938,8.812,8.812s-3.938,8.812-8.812,8.812Z"/><path d="M450.009,238.215h-30.797c-4.875,0-8.812-3.938-8.812-8.812s3.938-8.812,8.812-8.812h30.797c4.875,0,8.812,3.938,8.812,8.812s-3.938,8.812-8.812,8.812Z"/><path d="M38.4,348.515c-3.047,0-6-1.594-7.641-4.406-2.438-4.219-.984-9.609,3.234-12.047l26.672-15.375c4.219-2.438,9.609-1.031,12.047,3.234,2.438,4.219.984,9.609-3.234,12.047l-26.672,15.375c-1.406.797-2.906,1.172-4.406,1.172h0Z"/><path d="M393.809,143.295c-3.047,0-6-1.594-7.641-4.406-2.438-4.219-.984-9.609,3.234-12.047l26.672-15.375c4.219-2.438,9.609-1.031,12.047,3.234,2.438,4.219.984,9.609-3.234,12.047l-26.672,15.375c-1.359.797-2.906,1.172-4.406,1.172h0Z"/><path d="M119.11,429.235c-1.5,0-3-.375-4.406-1.172-4.219-2.438-5.672-7.828-3.234-12.047l15.375-26.672c2.438-4.219,7.828-5.672,12.047-3.234s5.672,7.828,3.234,12.047l-15.375,26.672c-1.641,2.812-4.594,4.406-7.641,4.406h0Z"/><path d="M324.339,73.835c-1.5,0-3-.375-4.406-1.172-4.219-2.438-5.672-7.828-3.234-12.047l15.375-26.672c2.438-4.219,7.828-5.672,12.047-3.234s5.672,7.828,3.234,12.047l-15.375,26.672c-1.641,2.812-4.594,4.406-7.641,4.406h0Z"/></g></svg>