<?xml version="1.0" encoding="UTF-8"?>
<svg width="1200pt" height="1200pt" version="1.1" viewBox="0 0 1200 1200" xmlns="http://www.w3.org/2000/svg">
 <path d="m1103.7 663.61c0.51562-3.3281 0.375-6.75-0.60938-10.172l-120-420c-0.14062-0.42188-0.32812-0.79688-0.46875-1.2188-0.28125-0.84375-0.60938-1.6875-0.98438-2.4844-0.32812-0.65625-0.65625-1.3125-1.0312-1.9219-0.42188-0.70312-0.84375-1.3594-1.3125-2.0156-0.46875-0.60938-0.98438-1.2188-1.5-1.7812s-1.0312-1.0781-1.5938-1.5938-1.1719-1.0312-1.8281-1.5c-0.60938-0.46875-1.2188-0.89062-1.8281-1.2656-0.70312-0.42188-1.3594-0.79688-2.1094-1.125-0.65625-0.32812-1.3125-0.60938-2.0156-0.89062-0.79688-0.28125-1.5938-0.5625-2.4375-0.75-0.65625-0.1875-1.3125-0.32812-1.9688-0.42188-0.9375-0.14062-1.8281-0.23438-2.8125-0.28125-0.42188 0-0.79688-0.14062-1.2188-0.14062-0.46875 0-0.89062 0.046875-1.3125 0.046875-0.23438 0-0.51562 0-0.75 0.046875-78.422 1.125-141.94 65.203-141.94 143.9 0 13.266 10.734 24 24 24s24-10.734 24-24c0-46.922 33.844-86.016 78.375-94.312l89.438 312.98c-7.0312-1.6875-14.297-2.6719-21.797-2.6719l-819.98-0.046875c-7.5 0-14.812 0.98438-21.797 2.6719l89.438-312.98c44.531 8.2969 78.375 47.391 78.375 94.312 0 13.266 10.734 24 24 24s24-10.734 24-24c0-78.703-63.516-142.82-141.98-143.9-0.1875 0-0.375 0-0.51562-0.046875-0.51562 0-0.98438-0.09375-1.4531-0.09375s-0.89062 0.09375-1.3594 0.14062c-0.84375 0.046875-1.6875 0.09375-2.5312 0.23438-0.79688 0.14062-1.5469 0.32812-2.2969 0.51562s-1.4531 0.42188-2.1562 0.65625c-0.75 0.28125-1.5 0.60938-2.25 0.98438-0.65625 0.32812-1.2656 0.65625-1.9219 1.0312-0.70312 0.42188-1.3594 0.89062-1.9688 1.3594s-1.1719 0.89062-1.7344 1.4062-1.125 1.0781-1.6406 1.6875c-0.51562 0.5625-0.98438 1.125-1.4531 1.7344-0.46875 0.65625-0.89062 1.3125-1.3125 2.0156-0.375 0.60938-0.75 1.2656-1.0312 1.9219-0.375 0.79688-0.70312 1.6406-0.98438 2.4844-0.14062 0.42188-0.375 0.79688-0.46875 1.2188l-120 420c-0.98438 3.4219-1.125 6.8906-0.60938 10.172-0.14062 2.1094-0.32812 4.2188-0.32812 6.4219v70.031c0 129.05 104.95 234 234 234 127.69 0 231.66-102.84 233.81-230.02h72.422c2.1562 127.18 106.12 230.02 233.81 230.02 129.05 0 234-104.95 234-234v-70.031c0-2.1562-0.1875-4.2656-0.32812-6.4219zm-773.68 235.4c-13.266 0-24-10.734-24-24s10.734-24 24-24c52.922 0 96-43.078 96-96 0-13.266 10.734-24 24-24s24 10.734 24 24c0 79.406-64.594 144-144 144zm306-229.03v26.016h-72v-26.016c0-16.734-4.4531-32.391-12.094-45.984h96.234c-7.6875 13.594-12.094 29.297-12.094 45.984zm234 229.03c-13.266 0-24-10.734-24-24s10.734-24 24-24c52.922 0 96-43.078 96-96 0-13.266 10.734-24 24-24s24 10.734 24 24c0 79.406-64.594 144-144 144z"/>
</svg>
