<?xml version="1.0" encoding="UTF-8"?>
<svg id="Layer_1" data-name="Layer 1" xmlns="http://www.w3.org/2000/svg" viewBox="0 0 958.878 701.365">
  <path d="M747.985,523.169c-56.391,52.781-108,52.781-163.22,0-68.391-64.781-139.22-64.781-207.61,0-55.219,52.781-108,52.781-163.22,0-68.391-64.781-139.22-64.781-207.61,0-6,6-7.219,15.609-1.219,22.781,6,6,15.609,7.219,22.781,1.219,56.391-52.781,108-52.781,163.22,0,68.391,64.781,139.22,64.781,207.61,0,56.391-52.781,108-52.781,163.22,0,33.609,32.391,68.391,48,103.22,48s69.609-15.609,103.22-48c56.391-52.781,108-52.781,163.22,0,6,6,16.781,6,22.781-1.219s6-16.781-1.219-22.781c-66-63.562-138-63.562-205.18,0h.006Z"/>
  <path d="M747.985,628.779c-56.391,52.781-108,52.781-163.22,0-68.391-64.781-139.22-64.781-207.61,0-55.219,52.781-108,52.781-163.22,0-68.391-64.781-139.22-64.781-207.61,0-6,6-7.219,16.781-1.219,22.781,6,6,15.609,7.219,22.781,1.219,56.391-52.781,108-52.781,163.22,0,68.391,64.781,139.22,64.781,207.61,0,56.391-52.781,108-52.781,163.22,0,33.609,32.391,68.391,48,103.22,48s69.609-15.609,103.22-48c56.391-52.781,108-52.781,163.22,0,6,6,16.781,6,22.781-1.219,6-6,6-16.781-1.219-22.781-66-63.609-138-63.609-205.18,0h.006Z"/>
  <path d="M5.156,417.609c-6,6-7.219,16.781-1.219,22.781,6,6,15.609,7.219,22.781,1.219,51.609-48,99.609-52.781,150-12,2.391,3.609,4.781,6,9.609,7.219,1.219,1.219,3.609,2.391,4.781,4.781,68.391,64.781,139.22,64.781,207.61,0,55.219-52.781,108-52.781,163.22,0,33.609,32.391,68.391,48,103.22,48,9.609,0,18-1.219,27.609-3.609,1.219,0,2.391,0,2.391-1.219,25.219-6,49.219-21.609,73.219-44.391,56.391-52.781,108-52.781,163.22,0,6,6,16.781,6,22.781-1.219,6-6,6-16.781,0-22.781-68.391-64.781-139.22-64.781-207.61,0-16.781,15.609-33.609,26.391-49.219,33.609L485.159,45.609C470.768,16.828,441.94,0,409.55,0H119.16C79.551,0,45.941,32.391,45.941,73.219v33.609c0,39.609,32.391,73.219,73.219,73.219h195.61c12,0,24,7.219,28.781,18l32.391,62.391,18,33.609-200.39,109.22c-61.172-49.266-125.95-43.266-188.39,14.344l-.006-.002ZM409.595,321.609l9.609,18c2.391,6,8.391,8.391,14.391,8.391,2.391,0,4.781,0,7.219-2.391,8.391-3.609,10.781-13.219,7.219-21.609l-19.266-33.609-56.391-108c-10.781-21.609-33.609-34.781-57.609-34.781H119.157c-22.781,0-40.781-18-40.781-40.781v-33.609c0-22.781,18-40.781,40.781-40.781h290.39c20.391,0,38.391,10.781,46.781,28.781l208.82,397.18c-26.391,0-54-13.219-81.609-39.609-68.391-64.781-139.22-64.781-207.61,0-54,50.391-103.22,52.781-156,6l189.666-103.182Z"/>
  <path d="M903.975,206.389c0-78-63.609-141.61-141.61-141.61s-141.61,63.609-141.61,141.61,63.609,141.61,141.61,141.61,141.61-63.609,141.61-141.61ZM653.155,206.389c0-60,49.219-109.22,109.22-109.22s109.22,49.219,109.22,109.22-49.219,109.22-109.22,109.22c-60,1.172-109.22-48-109.22-109.22h0Z"/>
</svg>