<?xml version="1.0" encoding="UTF-8"?>
<svg id="Layer_1" data-name="Layer 1" xmlns="http://www.w3.org/2000/svg" viewBox="0 0 849.498 494.069">
  <path d="M12.492,0C5.598,0,0,5.598,0,12.492v92.973c0,6.894,5.598,12.492,12.492,12.492h74.973v363.61c0,6.894,5.598,12.492,12.492,12.492h90.43c6.895,0,12.492-5.598,12.492-12.492l.004-363.6h443.74v363.61c0,6.894,5.598,12.492,12.492,12.492h90.422c6.894,0,12.492-5.598,12.492-12.492l.004-363.61h74.973c6.894,0,12.492-5.598,12.492-12.492V12.502c.008-6.902-5.59-12.492-12.484-12.492l-.004-.002M177.895,469.081h-65.438V117.971h65.438v351.11ZM737.055,469.081h-65.438V117.971h65.438v351.11ZM824.52,92.981h-72.227c-.875-.199-1.809-.324-2.75-.324l-90.43-.004c-.941,0-1.856.125-2.75.324l-463.23.004c-.883-.199-1.809-.324-2.75-.324l-90.43-.004c-.941,0-1.867.125-2.75.324l-72.223.004V24.997h799.54v67.984Z"/>
</svg>