<?xml version="1.0" encoding="UTF-8"?>
<svg id="Layer_1" data-name="Layer 1" xmlns="http://www.w3.org/2000/svg" viewBox="0 0 843.755 1139.998">
  <defs>
    <style>
      .cls-1 {
        fill: #fff;
      }

      .cls-2 {
        fill: #60f400;
      }
    </style>
  </defs>
  <path d="M145.358,320.398v-.002c-22.801,6-37.199,28.801-31.199,52.801l16.801,64.801c18,71.999,80.398,124.8,154.8,130.8,6,0,13.199,1.199,20.398,1.199l1.199,200.4,4.801,322.8c0,25.199,21.602,46.801,48,46.801h1.199c26.403-1.199,46.801-22.801,46.801-49.199l-4.801-303.6h20.398l90,316.8c6,21.602,25.204,34.801,45.602,34.801,4.801,0,8.398-1.199,13.199-2.398,26.403-7.199,40.801-33.602,33.602-58.801l-90-315.6-1.199-156c15.602,14.398,27.602,33.597,33.602,55.199l27.602,102c6,18,22.801,31.199,42,31.199,3.602,0,7.199,0,10.801-1.199,22.801-6,36-30,30-52.801l-27.602-102c-24-84-98.399-145.199-187.2-150-10.801-1.199-22.801-1.199-33.602-1.199-43.202,0-82.799-2.403-117.6-4.801-37.199-3.602-68.398-30-78-66l-16.801-64.801c-6-22.801-30-37.199-52.801-31.199h0Z"/>
  <path d="M409.358,268.799c53.02,0,96,42.98,96,96s-42.98,96-96,96-96-42.98-96-96,42.98-96,96-96Z"/>
  <path d="M7.358,254.399c-9.601,8.402-9.601,21.602-1.199,30l32.398,33.602c4.801,4.801,9.602,7.199,15.602,7.199,4.796,0,10.796-2.398,14.398-6,9.597-7.199,9.597-21.602,1.199-30l-32.398-33.602c-7.199-9.597-21.602-9.597-30-1.199h0Z"/>
  <path d="M111.757,197.999h0c-12,2.398-19.199,14.398-14.402,26.398l10.801,45.602c2.398,9.602,10.796,16.801,20.398,16.801,1.199,0,3.602-1.199,4.801-1.199,10.801-3.597,18-14.398,15.602-26.398l-10.801-45.602c-3.597-10.801-14.398-18-26.398-15.602h0Z"/>
  <path d="M231.758,272.399l13.199-45.597c3.602-10.796-2.398-22.796-14.398-26.398-10.796-3.602-22.796,2.398-26.398,14.398l-13.199,45.602c-3.602,10.796,2.398,22.796,14.398,26.398,2.398,1.199,3.602,1.199,6,1.199,9.597,0,18-6,20.398-15.602h0Z"/>
  <polygon class="cls-2" points="662.02 59 600 15 535 15 493 68 493 152 570 248.679 662.02 319.035 807 197.537 842.151 81.537 794 15 718 15 662.02 59"/>
  <path d="M843.748,105.216c0-64.942-32.998-105.216-86.076-105.216s-82.159,29.076-95.646,48.206c-13.486-19.129-42.658-48.206-95.646-48.206s-86.076,40.267-86.076,105.216c0,119.08,169.867,214.726,177.039,218.741,1.435.765,3.061,1.243,4.687,1.243s3.156-.383,4.687-1.243c7.269-4.017,177.039-99.757,177.039-218.741h-.008ZM662.015,304.537c-27.068-16.164-162.593-101.864-162.593-199.321,0-20.181,4.782-86.076,66.957-86.076s82.924,43.232,86.943,51.838c1.53,3.348,4.974,5.547,8.704,5.547s7.078-2.104,8.704-5.547c4.017-8.704,27.355-51.838,86.943-51.838s66.957,65.901,66.957,86.076c0,97.564-135.532,183.263-162.593,199.321h-.022Z"/>
  <polygon class="cls-1" points="684 161.838 684 104 645 104 641 161.838 587 162.6 587 197.537 643 199.365 645 248.679 684 248.679 684 199.365 737 199.365 737 161.838 684 161.838"/>
  <path d="M728.973,153.033h-38.258v-38.258c0-10.521-8.608-19.129-19.129-19.129h-19.129c-10.521,0-19.129,8.608-19.129,19.129v38.258h-38.258c-10.521,0-19.129,8.608-19.129,19.129v19.129c0,10.521,8.608,19.129,19.129,19.129h38.258v38.258c0,10.521,8.608,19.129,19.129,19.129h19.129c10.521,0,19.129-8.608,19.129-19.129v-38.258h38.258c10.521,0,19.129-8.608,19.129-19.129v-19.129c0-10.521-8.608-19.129-19.129-19.129ZM728.973,191.292h-47.823c-5.26,0-9.565,4.304-9.565,9.565v47.823h-19.129v-47.823c0-5.26-4.304-9.565-9.565-9.565h-47.823v-19.129h47.823c5.26,0,9.565-4.304,9.565-9.565v-47.823h19.129v47.823c0,5.26,4.304,9.565,9.565,9.565h47.823v19.129Z"/>
</svg>