<?xml version="1.0" encoding="UTF-8"?>
<svg id="Layer_1" xmlns="http://www.w3.org/2000/svg" version="1.1" viewBox="0 0 958.5 1050">
  <!-- Generator: Adobe Illustrator 29.2.1, SVG Export Plug-In . SVG Version: 2.1.0 Build 116)  -->
  <defs>
    <style>
      .st0 {
        fill-rule: evenodd;
      }
    </style>
  </defs>
  <path class="st0" d="M18.8,1050h921c10.4,0,18.8-8.4,18.8-18.8v-138.6c0-29.2-11.6-57.3-32.3-78s-36-26.4-57.8-30.4c31.9-24.7,52.5-63.3,52.5-106.7,0-74.3-60.4-134.6-134.7-134.6s-134.6,60.3-134.6,134.6,20.6,82,52.5,106.7c-21.8,4-42,14.6-57.8,30.4s-9.6,10.6-13.6,16.5c-3.9-5.9-8.4-11.4-13.5-16.5-15.9-15.8-36.1-26.4-57.8-30.4,31.9-24.7,52.5-63.3,52.5-106.7,0-74.3-60.3-134.6-134.6-134.6s-42.8,5.3-61.1,14.6v-45.5c0-2.1,0-4.2-.1-6.4l21.4,4.3c17.9,3.6,36.4-1,50.6-12.4l3.2-2.6h379.7c10.4,0,18.8-8.4,18.8-18.8V18.8c0-10.4-8.4-18.8-18.8-18.8H287c-10.4,0-18.8,8.4-18.8,18.8v125.3c-4.5-.6-9-.8-13.7-.8-63.6,0-115.3,51.6-115.3,115.3s16.3,67.7,41.9,88.9c-23.4,8.7-44.9,22.4-62.9,40.4-32.9,33-51.4,77.6-51.4,124.2v81.8c-18.3,22.9-29.2,52.1-29.2,83.7s20.6,82,52.5,106.7c-21.8,4-41.9,14.6-57.8,30.4S0,863.4,0,892.6v138.6c0,10.4,8.4,18.8,18.8,18.8h0ZM651.5,1012.5v-119.9c0-19.3,7.7-37.8,21.4-51.5,13.6-13.6,32.2-21.3,51.5-21.3h123.8c19.3,0,37.9,7.7,51.5,21.3s21.3,32.2,21.3,51.5v119.9h-269.5,0ZM614,892.6v119.9h-269.4v-119.9c0-19.3,7.6-37.8,21.3-51.5,13.6-13.6,32.2-21.3,51.5-21.3h123.8c19.3,0,37.8,7.7,51.5,21.3,13.7,13.6,21.3,32.2,21.3,51.5h0ZM307,892.6v119.9H37.5v-119.9c0-19.3,7.7-37.8,21.3-51.5s32.2-21.3,51.5-21.3h123.8c19.3,0,37.8,7.7,51.5,21.3,13.7,13.6,21.4,32.2,21.4,51.5h0ZM344.7,673.9h-37.8c0,1.2,0,2.4,0,3.6,0,43.4-20.6,82-52.5,106.7,21.8,4,42,14.6,57.8,30.4,5.1,5.1,9.6,10.6,13.6,16.5,3.9-5.9,8.4-11.4,13.5-16.5,15.9-15.8,36.1-26.4,57.8-30.4-31.9-24.7-52.5-63.3-52.5-106.7s0-2.4,0-3.6h0ZM786.2,580.4c53.6,0,97.2,43.5,97.2,97.1s-43.5,97.2-97.2,97.2-97.1-43.5-97.1-97.2,43.5-97.1,97.1-97.1ZM479.3,580.4c53.6,0,97.1,43.5,97.1,97.1s-43.5,97.2-97.1,97.2-97.1-43.5-97.1-97.2,43.5-97.1,97.1-97.1ZM172.3,580.4c53.6,0,97.1,43.5,97.1,97.1s-43.5,97.2-97.1,97.2-97.2-43.5-97.2-97.2,43.5-97.1,97.2-97.1ZM380.7,585.9v-73.9c0-8.9-.9-17.6-2.5-26.2-1.2-6.1.8-12.5,5.2-16.8,4.4-4.4,10.7-6.3,16.9-5.1l46.5,9.2c7,1.4,14.2-.4,19.8-4.8,29.5-23.7,94.3-75.6,135.3-108.5,5.3-4.2,8.5-10.5,9-17.2.5-6.7-1.9-13.4-6.6-18.2h0c-7.7-8.2-20.2-9.3-29.2-2.8-44.8,32.1-125.3,90-125.3,90-4.3,3.1-9.7,4.2-14.9,3.1,0,0-140.3-30.7-141-31-16.1-6.4-33.5-9.8-51.2-9.8h0c-36.7,0-71.8,14.5-97.7,40.5-25.9,25.9-40.5,61-40.5,97.6v49.3c19.9-11.7,43.1-18.4,67.9-18.4,60,0,110.8,39.3,128.2,93.5h50.5c6.1-19,16.4-36.2,29.7-50.5h0ZM254.5,180.8c43,0,77.8,34.8,77.8,77.8s-34.8,77.8-77.8,77.8-77.8-34.9-77.8-77.8,34.9-77.8,77.8-77.8h0ZM683.4,326.6h71.6c10.4,0,18.8-8.4,18.8-18.8s-8.4-18.8-18.8-18.8h-71.6c-10.3,0-18.8,8.4-18.8,18.8s8.4,18.8,18.8,18.8ZM683.4,239.1h71.6c10.4,0,18.8-8.4,18.8-18.8s-8.4-18.8-18.8-18.8h-71.6c-10.3,0-18.8,8.4-18.8,18.8s8.4,18.8,18.8,18.8ZM405,239.1h220.1c10.4,0,18.8-8.4,18.8-18.8s-8.4-18.8-18.8-18.8h-220.1c-10.4,0-18.8,8.4-18.8,18.8s8.4,18.8,18.8,18.8ZM405,151.6h350c10.4,0,18.8-8.4,18.8-18.8s-8.4-18.8-18.8-18.8h-350c-10.4,0-18.8,8.4-18.8,18.8s8.4,18.8,18.8,18.8Z"/>
</svg>