<?xml version="1.0" encoding="UTF-8"?>
<svg id="Layer_1" data-name="Layer 1" xmlns="http://www.w3.org/2000/svg" viewBox="0 0 1108.131 1087.507">
  <defs>
    <style>
      .cls-1 {
        fill: #ff1414;
        fill-rule: evenodd;
      }
    </style>
  </defs>
  <path d="M266.798,328.317c-49.828,0-94.734,30-113.81,76.031-19.078,46.031-8.531,99.047,26.719,134.26,35.203,35.25,88.219,45.797,134.26,26.719,46.031-19.078,76.031-63.984,76.031-113.81,0-32.672-12.984-63.984-36.094-87.094s-54.422-36.094-87.094-36.094l-.012-.012ZM266.798,533.447c-33.234,0-63.188-20.016-75.891-50.719-12.703-30.75-5.625-66.094,17.906-89.531,23.484-23.484,58.875-30.469,89.531-17.672,30.703,12.75,50.672,42.75,50.578,75.984-.094,45.281-36.844,81.938-82.125,81.938h0ZM1046.428.007H61.688C27.704.007.094,27.523,0,61.507v636.19c.141,26.719,17.484,50.25,42.938,58.312l-1.875,269.06c-.188,16.453,6.188,32.297,17.719,44.016,11.578,11.766,27.328,18.375,43.781,18.422h287.44c16.312,0,31.969-6.469,43.5-18s18-27.188,18-43.5v-212.63l58.875,40.5,1.875,1.125c28.078,15.469,63.281,8.156,82.875-17.25l61.875-78.562h389.44c33.984,0,61.594-27.516,61.688-61.5V61.5c-.094-33.984-27.703-61.5-61.688-61.5l-.015.007ZM561.738,813.747c-7.219,8.484-19.406,10.828-29.25,5.625l-61.312-42.375c-11.672-8.344-27.141-9.328-39.75-2.438-12.984,6.609-21.094,19.969-21,34.5v216.94c0,5.438-2.156,10.641-6,14.438-3.797,3.844-9,6-14.438,6H102.548c-5.438.047-10.641-2.109-14.438-6-3.891-3.938-6.094-9.281-6-14.812l1.875-289.69c-.984-20.203,6.188-39.984,19.828-54.938,13.641-14.953,32.672-23.859,52.922-24.75h170.81c30.281-.141,60,8.297,85.688,24.375l99.375,73.5c7.828,6.141,17.766,8.953,27.656,7.734,9.891-1.172,18.891-6.281,25.031-14.109l56.25-67.312c5.531-7.547,15.75-9.844,24-5.438,4.266,2.953,7.125,7.594,7.875,12.75.656,5.203-.938,10.453-4.312,14.438l-87.37,111.561ZM1067.998,697.687c0,5.438-2.156,10.688-6.047,14.531s-9.141,5.953-14.578,5.906h-359.44c5.672-10.875,7.828-23.25,6.188-35.438-1.125-8.766-4.125-17.25-8.812-24.75l178.31-213.94c7.266-8.719,6.094-21.609-2.625-28.875s-21.609-6.094-28.875,2.625l-180.94,216.19c-22.922-5.484-46.969,2.531-62.062,20.625l-53.812,65.625-98.625-72.938c-32.578-20.719-70.359-31.688-108.94-31.688h-171c-54.516,1.078-100.83,40.172-111,93.75-2.953-3.469-4.594-7.828-4.688-12.375V61.495c0-5.438,2.156-10.688,6.047-14.531s9.141-5.953,14.578-5.906h984.74c5.438-.047,10.688,2.062,14.578,5.906s6.047,9.094,6.047,14.531l.957,636.192ZM985.31,164.057c.047,5.438-2.062,10.688-5.906,14.578-3.844,3.891-9.094,6.047-14.531,6.047H184.683c-10.594-1.031-18.656-9.891-18.656-20.531s8.062-19.5,18.656-20.531h779.81c5.484-.094,10.781,2.016,14.672,5.859,3.938,3.844,6.141,9.094,6.141,14.578h.005ZM985.31,287.247c.047,5.438-2.062,10.688-5.906,14.578s-9.094,6.047-14.531,6.047h-472.31c-5.766.562-11.531-1.359-15.844-5.25-4.312-3.938-6.75-9.469-6.75-15.281s2.438-11.344,6.75-15.281c4.312-3.891,10.078-5.812,15.844-5.25h471.94c5.484-.094,10.781,2.016,14.672,5.859,3.938,3.844,6.141,9.094,6.141,14.578h-.005ZM718.12,410.437c.094,5.484-2.016,10.781-5.859,14.672-3.844,3.938-9.094,6.141-14.578,6.141h-205.13c-5.766.562-11.531-1.359-15.844-5.25-4.312-3.938-6.75-9.469-6.75-15.281s2.438-11.344,6.75-15.281c4.312-3.891,10.078-5.812,15.844-5.25h205.13c11.203,0,20.344,9.047,20.438,20.25h0Z"/>
  <path class="cls-1" d="M154.579,262.113l6.835-68.419c.354-3.543,3.514-6.129,7.057-5.775l33.769,3.374c3.543.354,6.129,3.514,5.775,7.057l-14.141,141.547c-.354,3.543-3.514,6.129-7.057,5.775l-141.547-14.141c-3.543-.354-6.129-3.514-5.775-7.057l3.374-33.769c.354-3.543,3.514-6.129,7.057-5.775l68.419,6.835L7.031,155.741c-2.26-2.762-1.847-6.821.907-9.074l26.255-21.485c2.753-2.253,6.814-1.855,9.074.907l111.312,136.025Z"/>
</svg>