<?xml version="1.0" encoding="UTF-8"?>
<svg width="1200pt" height="1200pt" version="1.1" viewBox="0 0 1200 1200" xmlns="http://www.w3.org/2000/svg">
 <path d="m1119.5 236.68h-1038.7c-11.391 0-20.672 9.2812-20.672 20.672v598.5c0 11.391 9.2812 20.672 20.672 20.672h82.5l-46.734 67.828c-2.3438 3.4688-2.625 7.9219-0.65625 11.625s5.7656 6 9.9844 6h21.562c3.8438 0 7.5469-1.5938 10.125-4.4062l53.391-58.125 16.547 19.125c2.625 3 6.375 4.7812 10.406 4.7812h21.469c4.0312 0 7.6406-2.0625 9.7031-5.4844 2.0625-3.4688 2.1562-7.6406 0.23438-11.156l-16.266-30.234h694.18l-16.312 30.281c-1.875 3.5156-1.7812 7.6875 0.28125 11.156 2.0625 3.4219 5.6719 5.4844 9.7031 5.4844h21.469c3.9844 0 7.7812-1.7344 10.359-4.7344l16.547-19.125 53.391 58.125c2.5781 2.8125 6.2812 4.4062 10.078 4.4062h21.562c4.2188 0 8.0156-2.2969 9.9844-6.0469 1.9688-3.7031 1.6875-8.2031-0.70312-11.672l-46.688-67.875h82.5c11.391 0 20.672-9.2812 20.672-20.672l0.046875-598.5c0-11.391-9.2812-20.625-20.672-20.625zm-973.74 707.63h-7.6406l46.641-67.828h23.297zm93.984-38.672-25.219-29.156h18.469l15.703 29.156zm720.79 0h-8.9062l15.703-29.156h18.469zm101.62 38.672h-7.5938l-62.297-67.828h23.297zm60.281-88.5c0 1.6406-1.3125 2.9531-2.9531 2.9531h-1038.7c-1.6406 0-2.9531-1.3125-2.9531-2.9531v-598.5c0-1.6406 1.3125-2.9531 2.9531-2.9531h1038.7c1.6406 0 2.9531 1.3125 2.9531 2.9531z"/>
 <path d="m95.578 841.03h1009.2v-568.97h-1009.2zm17.719-551.26h973.78v533.58l-973.78-0.046874z"/>
</svg>
