<?xml version="1.0" encoding="UTF-8"?>
<svg id="Layer_1" xmlns="http://www.w3.org/2000/svg" version="1.1" viewBox="0 0 534.4 1078.1">
  <!-- Generator: Adobe Illustrator 29.2.1, SVG Export Plug-In . SVG Version: 2.1.0 Build 116)  -->
  <path d="M257.8,0C327.7,0,384.4,56.7,384.4,126.6v469.1c78.3,44.2,131.3,128.3,131.3,224.6,0,142.3-115.5,257.8-257.8,257.8S0,962.6,0,820.3s52.9-180.4,131.3-224.6V126.6C131.3,56.7,187.9,0,257.8,0h0ZM257.8,28.1c-54.4,0-98.4,44.1-98.4,98.4v477.5c0,5.2-2.9,10-7.5,12.5-73.5,38.3-123.7,115.2-123.7,203.8,0,126.7,102.9,229.7,229.7,229.7s229.7-102.9,229.7-229.7-50.2-165.5-123.7-203.8c-4.6-2.4-7.5-7.2-7.5-12.5V126.6c0-54.4-44.1-98.4-98.4-98.4h0ZM257.8,75c13.7,0,26.8,5.4,36.5,15.1s15.1,22.8,15.1,36.5v518.3c75.8,22.3,131.3,92.4,131.3,175.4s-81.9,182.8-182.8,182.8-182.8-81.9-182.8-182.8,55.4-153.1,131.3-175.4V126.6c0-13.7,5.4-26.8,15.1-36.5s22.8-15.1,36.5-15.1h0ZM257.8,103.1c-6.2,0-12.2,2.5-16.6,6.9s-6.8,10.4-6.8,16.6v529.2c0,6.6-4.5,12.2-10.9,13.7-68.9,15.7-120.3,77.3-120.3,150.8s69.3,154.7,154.7,154.7,154.7-69.3,154.7-154.7-51.5-135.2-120.3-150.8c-6.4-1.5-11-7.1-11-13.7V126.6c0-6.2-2.5-12.2-6.8-16.6-4.4-4.4-10.4-6.9-16.6-6.9h0ZM445.3,103.1c-7.8,0-14.1-6.3-14.1-14.1s6.3-14.1,14.1-14.1h75c7.8,0,14.1,6.3,14.1,14.1s-6.3,14.1-14.1,14.1h-75ZM445.3,328.1c-7.8,0-14.1-6.3-14.1-14.1s6.3-14.1,14.1-14.1h75c7.8,0,14.1,6.3,14.1,14.1s-6.3,14.1-14.1,14.1h-75ZM445.3,215.6c-7.8,0-14.1-6.3-14.1-14.1s6.3-14.1,14.1-14.1h75c7.8,0,14.1,6.3,14.1,14.1s-6.3,14.1-14.1,14.1h-75ZM445.3,440.6c-7.8,0-14.1-6.3-14.1-14.1s6.3-14.1,14.1-14.1h75c7.8,0,14.1,6.3,14.1,14.1s-6.3,14.1-14.1,14.1h-75ZM445.3,553.1c-7.8,0-14.1-6.3-14.1-14.1s6.3-14.1,14.1-14.1h75c7.8,0,14.1,6.3,14.1,14.1s-6.3,14.1-14.1,14.1h-75Z"/>
</svg>