<?xml version="1.0" encoding="UTF-8"?>
<svg id="Layer_1" data-name="Layer 1" xmlns="http://www.w3.org/2000/svg" viewBox="0 0 1027.498 1076.574">
  <path d="M1015.07,65.531c-8.156-14.391-19.547-26.156-33.141-34.547-13.547-8.391-29.156-13.453-45.703-14.156l-166.31-8.391L603.696.141h-4.219c-1.453-.141-2.766-.141-4.219-.141-29.156,0-57.469,7.781-82.312,21.703-24.844,14.062-46.219,34.312-61.312,59.297l-66.234,109.31-289.4.047C43.078,190.357,0,233.435,0,286.357v216c0,52.922,43.078,96,96,96h42.141l-95.625,157.78c-7.922,13.078-12.609,27.609-13.688,42.234v91.078c-1.219,14.625,1.219,29.625,7.078,43.922,5.859,14.297,14.766,26.531,25.922,36.234,11.156,9.609,24.609,16.688,39.469,20.391l163.31,40.781,163.22,40.781c6.703,1.688,13.453,2.859,20.297,3.703s13.688,1.312,20.531,1.312c30.844,0,60.469-8.531,86.062-23.766,25.547-15.234,47.062-37.219,61.688-64.453l199.78-369.47,199.78-369.61c7.781-14.531,11.625-30.469,11.531-46.453v-90.938c-.141-15.938-4.219-31.781-12.375-46.312l-.052-.04ZM95.99,550.221c-26.531,0-48-21.469-48-48v-216c0-26.531,21.469-48,48-48h432c26.531,0,48,21.469,48,48v216c0,26.531-21.469,48-48,48h-120v96l-96-96H95.99ZM83.521,780.851l110.77-182.63h97.781l81.938,81.938c9.234,9.141,21.469,14.062,33.938,14.062,6.234,0,12.469-1.219,18.375-3.609,18-7.453,29.625-24.938,29.625-44.391v-48h72c52.922,0,96-43.078,96-96v-216c0-52.922-43.078-96-96-96h-86.531l51.234-84.469c10.922-18,26.156-32.391,43.781-42.375,17.766-9.938,37.922-15.469,58.781-15.469.938,0,2.062,0,3,.141h3l332.53,16.594c17.625.844,31.781,10.781,39.375,24.375,7.688,13.688,8.859,30.844.469,46.453l-199.78,369.47-199.78,369.61c-10.547,19.688-26.156,35.391-44.531,46.219-18.234,10.781-39.375,16.688-60.938,16.688-4.781,0-9.703-.234-14.531-.844-4.922-.609-9.703-1.453-14.625-2.766l-163.22-40.781-163.31-40.781c-15.609-3.844-27.141-14.859-32.625-28.312-5.531-13.312-5.062-29.297,3.234-43.078l.04-.045ZM961.781,258.751v13.078c0,8.297-2.156,16.547-6.234,23.766l-78.469,137.29c-2.391,4.078-7.547,3.844-9.938.844-.844-.938-1.312-2.297-1.312-3.844v-12.609c0-8.391,2.156-16.547,6.375-23.859l78.469-137.29c2.859-5.062,10.547-3.234,11.156,2.391v.234h-.047Z"/>
  <path d="M853.75,117.981c-.703,12.703-11.297,22.547-23.859,22.547-.469,0-.938,0-1.453-.141l-204-12c-13.312-.703-23.391-12.141-22.547-25.312.703-13.219,12.141-23.391,25.312-22.547l204,12c13.219.844,23.297,12.141,22.547,25.453h0Z"/>
  <path d="M409.52,875.301c-1.312,5.531-6.234,9.234-11.766,9.234-.844,0-1.781-.141-2.766-.375l-204-48c-6.375-1.547-10.453-7.922-8.859-14.391,1.547-6.469,8.062-10.453,14.391-9l204,48c6.469,1.547,10.453,8.062,9,14.531h0Z"/>
  <path d="M479.97,322.221c0,6.609-5.391,12-12,12H155.97c-6.609,0-12-5.391-12-12s5.391-12,12-12h312c6.609,0,12,5.391,12,12Z"/>
  <path d="M479.97,394.221c0,6.609-5.391,12-12,12H155.97c-6.609,0-12-5.391-12-12s5.391-12,12-12h312c6.609,0,12,5.391,12,12Z"/>
  <path d="M287.97,466.221c0,6.609-5.391,12-12,12h-120c-6.609,0-12-5.391-12-12s5.391-12,12-12h120c1.781,0,3.375.375,4.922,1.078,4.219,1.922,7.078,6.141,7.078,10.922h0Z"/>
</svg>