<?xml version="1.0" encoding="UTF-8"?>
<svg id="Layer_1" data-name="Layer 1" xmlns="http://www.w3.org/2000/svg" viewBox="0 0 1054.941 1200.001">
  <path d="M1000.821,376.35c-4.695.215-9.309.328-13.891.328-90.82.531-191.55-44.918-267.68-92.945-38.102-23.852-70.145-47.895-92.398-65.797-11.129-8.961-19.824-16.371-25.641-21.465-2.906-2.531-5.098-4.504-6.5-5.781-.699-.645-1.215-1.105-1.523-1.402l-.316-.285c-3.16-2.965-6.613-5.395-10.238-7.41-10.574-6.43-23.34-10.199-37.121-10.199h-8.481c-12.461,74.914-77.688,132.23-156.1,132.23s-143.62-57.312-156.08-132.23h-8.469c-8.645,0-16.867,1.52-24.426,4.207-.523.137-1.055.219-1.578.375-1.473.477-41.41,11.906-84.16,31.957-21.461,10.188-43.684,22.211-63.676,38.703-9.961,8.352-19.566,17.906-27.754,30.535-2.203,3.391-4.281,7.125-6.176,11.105C3.57,298.88-.016,311.427,0,325.298c-.012,8.387,1.355,17.234,4.113,25.59l-.004-.004c.008.012.008.027.012.039.02.047.031.102.047.148.039.102.09.195.129.297,6.461,19.199,18.746,34.148,32.836,46.02,21.617,17.973,48.727,31.344,85.316,44.477,36.582,12.984,82.777,25.148,141.86,36.855,3.391.68,6.781,1,10.117,1,24.148,0,45.742-17.035,50.629-41.641,5.551-27.996-12.656-55.188-40.648-60.73-74.207-14.645-124.08-29.938-153.06-43.09-8.457-3.785-15.02-7.379-19.871-10.422,2.648-2.074,5.75-4.289,9.27-6.453.812-.523,1.727-1.047,2.57-1.57,11.859-7.34,26.797-14.602,41.332-20.801l8.98,41.453c25.68,8.352,62.043,18.082,113.28,28.199,16.934,3.367,31.543,13.102,41.137,27.438,9.594,14.348,13.035,31.57,9.691,48.488-6,30.18-32.629,52.066-63.316,52.066-4.191,0-8.457-.418-12.621-1.266-20.512-4.062-39.523-8.211-57.309-12.453l1.75,8.105v633.09c0,44.121,35.77,79.867,79.867,79.867s79.879-35.742,79.879-79.867v-583.16h29.941v583.16c0,44.121,35.762,79.867,79.867,79.867s79.879-35.742,79.879-79.867V487.044l35.898-165.71c20.625,15.434,45.148,32.656,72.852,50.008,84.98,52.785,198.95,108.18,322.51,108.7,6.297,0,12.559-.156,18.773-.457,28.516-1.344,50.52-25.555,49.176-54.059-1.352-28.516-25.543-50.516-54.062-49.172v-.004Z"/>
  <path d="M526.251,145.35c0,80.273-65.078,145.35-145.35,145.35s-145.35-65.078-145.35-145.35S300.625,0,380.901,0s145.35,65.074,145.35,145.35Z"/>
</svg>