<?xml version="1.0" encoding="UTF-8"?>
<svg id="Layer_1" data-name="Layer 1" xmlns="http://www.w3.org/2000/svg" viewBox="0 0 832.374 1004.476">
  <path d="M301.604,199.514c38.812,13.969,66.75,37.875,80.203,88.688,3.562,13.5,46.547,219,53.062,248.58,12.281,56.156-55.031,59.719-63.609,21.609-24.797-110.3-50.016-222.24-53.484-235.78-1.969-7.875-15.141-6.891-12.797,3.234,4.078,17.438,70.922,331.45,70.922,331.45l-75.469-.047s-.188,242.95-.094,304.13c.094,51.984-75.188,53.953-75,.188,0-.938.094-304.92.094-304.92l-16.031.188s.047,303.79.281,305.02c-.562,54.094-77.812,50.812-77.109-1.969.703-51.797.234-302.34.234-302.34l-71.672-.047s68.672-321.84,71.109-332.68c1.406-6.281-11.156-12.188-13.594-.422-1.828,8.906-47.531,210.89-53.578,234.05-11.719,44.953-78.844,32.766-62.531-26.812,6.609-24.094,55.406-236.16,55.406-236.16,13.5-51.094,22.453-72.656,69.328-92.859,45.984-19.734,131.02-18.656,174.32-3.094l.008-.007h.001Z"/>
  <path d="M286.424,96.304c0,39.703-31.266,71.953-69.844,71.953s-69.797-32.25-69.797-71.953,31.266-71.953,69.797-71.953,69.844,32.203,69.844,71.953h0Z"/>
  <path d="M717.423,73.828c0,40.734-32.062,73.828-71.672,73.828s-71.625-33.094-71.625-73.828S606.188,0,645.751,0c39.562.047,71.672,33.047,71.672,73.828Z"/>
  <path d="M531.693,283.868c.094,9.75,0,236.53,0,246,0,52.641-72.562,55.594-72.984-1.219-.375-51.094-.047-277.13.047-280.6.938-34.781,29.297-50.953,43.359-56.203,16.828-6.281,66.609-27.75,145.31-27.984,80.812-.188,127.78,22.641,142.82,28.547,14.391,7.078,41.25,23.156,42.047,55.359.375,5.719-.703,250.03-.047,280.69-1.031,56.625-73.688,55.922-73.688.844,0-26.719.375-237.24.094-246-.141-4.172-15.891-6.422-16.266.281-.891,15.844-.234,682.03.281,674.9,1.031,59.156-86.672,61.688-87.75.234-.281-16.922,0-408.79.047-413.44.141-10.078-16.406-10.828-16.922.375-.094,1.828.281,408.61.188,412.69-2.203,64.359-90.75,58.688-90.188-.281.375-41.438.094-670.18-.047-673.97-.141-6.094-16.406-6.656-16.312-.234l.011.011h0Z"/>
</svg>