<?xml version="1.0" encoding="UTF-8"?>
<svg width="1200pt" height="1200pt" version="1.1" viewBox="0 0 1200 1200" xmlns="http://www.w3.org/2000/svg">
 <path d="m658.78 35.344c-268.6 0-486.94 216.74-489.61 484.64l-108.8 188.21c-25.641 44.391 7.3594 101.53 58.594 101.53h50.062v193.13c0 9.8906 8.3906 18.281 18.281 18.281h200.39v125.95h-0.046875c0 9.7031 7.9219 17.625 17.672 17.625s17.625-7.9219 17.625-17.625v-142.6c0-10.078-8.5781-18.656-18.656-18.656h-199.97v-193.78c-0.046875-2.1094-0.46875-4.1719-1.2188-6.1406-0.09375-0.28125-0.23438-0.60938-0.32812-0.89062-0.84375-1.8281-1.9688-3.5156-3.3281-4.9688l-0.79688-0.79688c-1.4531-1.3594-3.1406-2.4844-4.9688-3.2812-0.28125-0.14062-0.5625-0.23438-0.84375-0.375-1.9688-0.75-4.0781-1.1719-6.1875-1.2188h-67.688c-25.781 0-40.969-26.25-28.031-48.562l111-192.1c1.5469-2.6719 2.3438-5.7188 2.3438-8.8125 0-251.11 203.26-454.31 454.45-454.31 251.21 0 454.45 203.21 454.45 454.31 0 88.031-25.594 174.14-73.594 247.92-0.1875 0.23437-0.32812 0.51562-0.46875 0.79687l-108.19 187.36c-33.094 57.281-58.969 118.12-77.25 181.18l-0.046875-0.046874c-2.6719 9.375 2.6719 19.172 12.047 21.891s19.172-2.6719 21.891-12.047c17.484-60.281 42.234-118.5 73.922-173.34l108.09-187.13c51.516-79.359 78.984-171.94 78.984-266.58 0-270.19-219.47-489.61-489.74-489.61zm-41.156 148.92c-18.797 0-35.062 13.828-38.109 32.344l-5.4844 33.234c-19.359 5.5781-38.016 13.359-55.641 23.109l-27.375-19.641c-15.281-10.969-36.516-9.2344-49.828 4.0781l-43.969 44.016c-13.266 13.266-15.047 34.547-4.0781 49.828l19.781 27.562c-9.7031 17.578-17.438 36.141-23.016 55.453l-33.375 5.4844c-18.516 3.0469-32.344 19.312-32.344 38.109v62.203c0 18.797 13.828 35.062 32.344 38.109l33.188 5.4844c5.5781 19.359 13.359 38.016 23.109 55.641l-19.641 27.422c-10.969 15.281-9.1875 36.516 4.0781 49.828v-0.09375 0.046875l43.969 43.969c13.266 13.266 34.547 15.047 49.828 4.0781l27.375-19.641c17.625 9.75 36.281 17.484 55.641 23.062l5.4844 33.234c3.0469 18.516 19.312 32.344 38.109 32.344h62.203c18.797 0 35.062-13.828 38.109-32.344l5.4844-33.234c19.359-5.5781 38.016-13.359 55.641-23.109l27.375 19.641c15.281 10.969 36.562 9.1875 49.828-4.0781l43.969-43.969c13.266-13.266 15-34.547 4.0781-49.828l-19.641-27.375c9.75-17.625 17.484-36.328 23.109-55.688l33.188-5.4844c18.516-3.0469 32.344-19.312 32.344-38.109v-62.203c0-18.75-13.781-35.062-32.344-38.109l-33.094-5.4375c-5.5781-19.406-13.359-38.109-23.109-55.781l19.547-27.281c10.922-15.281 9.2344-36.516-4.0781-49.828l-43.969-44.016-0.14062 0.046875c-13.266-13.266-34.547-15-49.828-4.0781l-27.281 19.547c-17.672-9.75-36.328-17.531-55.734-23.109l-5.4375-33.141c-3.0469-18.516-19.312-32.344-38.109-32.344zm0 35.297h62.203c1.7344 0 3 1.0312 3.2812 2.7656l7.3125 44.391-0.046875-0.046875c1.1719 7.0312 6.4219 12.656 13.312 14.297 23.719 5.7188 46.406 15.141 67.266 27.891h-0.046875c6.0469 3.7031 13.734 3.4219 19.5-0.75l36.516-26.203c1.4062-1.0312 3.0469-0.89062 4.2656 0.32812l43.969 44.016c1.2188 1.2188 1.3594 2.8594 0.32812 4.3125l-26.203 36.516h0.046875c-4.125 5.7656-4.4062 13.453-0.70312 19.5 12.75 20.859 22.125 43.547 27.891 67.312h-0.046875c1.6875 6.8906 7.3125 12.094 14.297 13.266l44.344 7.3125c1.7344 0.28125 2.7656 1.5 2.7656 3.2812v62.203c0 1.7812-1.0312 3-2.7656 3.2812l-44.438 7.3125 0.046875 0.046875c-6.9844 1.125-12.656 6.375-14.297 13.219-5.7188 23.719-15.141 46.406-27.891 67.219-3.7031 6.0469-3.4219 13.734 0.75 19.5l26.25 36.656c1.0312 1.4531 0.89062 3.0469-0.32812 4.3125l-43.969 43.969c-1.2656 1.2656-2.8594 1.3594-4.2656 0.32812l-36.656-26.297c-5.7656-4.125-13.453-4.4062-19.5-0.70312-20.812 12.75-43.453 22.125-67.172 27.891v-0.046875c-6.8906 1.6875-12.094 7.3125-13.219 14.297l-7.3125 44.438c-0.28125 1.7344-1.5469 2.8125-3.2812 2.8125h-62.203c-1.7344 0-3-1.0781-3.2812-2.8125l-7.3125-44.438c-1.125-6.9844-6.375-12.609-13.266-14.25-23.719-5.7188-46.359-15.141-67.172-27.844l0.046875-0.046875c-6.0469-3.7031-13.734-3.4219-19.5 0.70312l-36.656 26.297c-1.4062 1.0312-3.0469 0.89062-4.2656-0.32812l-43.969-43.969c-1.2188-1.2656-1.3594-2.9062-0.32812-4.3125l26.297-36.656-0.046875-0.046875c4.125-5.7188 4.4062-13.406 0.70312-19.453-12.75-20.812-22.125-43.5-27.891-67.172l0.046875-0.046875c-1.6875-6.8906-7.3125-12.094-14.297-13.266l-44.438-7.3125c-1.7344-0.28125-2.8125-1.5469-2.8125-3.2812v-62.203c0-1.7344 1.0781-3 2.8125-3.2812l44.438-7.3125c6.9844-1.1719 12.609-6.375 14.297-13.266 5.7656-23.719 15.141-46.359 27.891-67.172h-0.046875c3.7031-6.0469 3.4219-13.734-0.70312-19.5l-26.297-36.656c-1.0312-1.4062-0.89062-3.0469 0.32812-4.3125l43.969-44.016c1.2188-1.2188 2.8594-1.3594 4.2656-0.32812l36.656 26.297c5.7656 4.125 13.453 4.4062 19.5 0.70312 20.812-12.75 43.453-22.125 67.172-27.891 6.8906-1.6406 12.094-7.2656 13.266-14.25l7.3125-44.438c0.28125-1.7344 1.5469-2.7656 3.2812-2.7656zm31.078 135.94c-84.516 0-153.37 68.906-153.37 153.47 0 84.516 68.859 153.47 153.37 153.47 84.516 0 153.37-68.906 153.37-153.47 0-84.516-68.859-153.47-153.37-153.47zm0 35.297c65.438 0 118.08 52.688 118.08 118.17s-52.688 118.17-118.08 118.17c-65.438 0-118.08-52.688-118.08-118.17s52.688-118.17 118.08-118.17z"/>
</svg>
