<?xml version="1.0" encoding="UTF-8"?><svg id="Layer_1" xmlns="http://www.w3.org/2000/svg" viewBox="0 0 1102.67 977.336"><defs><style>.cls-1{fill:#cac9c9;}.cls-2{fill:#ffc55d;}</style></defs><path d="M269.356,169.33c-28,0-50.668-17.881-50.668-39.967l.004-89.395c0-22.087,22.668-39.967,50.668-39.967s50.668,17.881,50.668,39.967v89.395c-.004,22.09-22.672,39.967-50.672,39.967h0Z"/><path d="M829.356,169.33c-28,0-50.668-17.881-50.668-39.967l.004-89.395c0-22.087,22.668-39.967,50.668-39.967s50.668,17.881,50.668,39.967v89.395c1.328,22.09-22.672,39.967-50.672,39.967h0Z"/><path d="M1009.326,88c36,0,65.332,29.332,65.332,65.332v732c0,36-29.332,65.332-65.332,65.332l-918.66.004c-36,0-65.332-29.332-65.332-65.332l-.004-732c0-36,29.332-65.332,65.332-65.332h78.668v34.668c0,54.668,44,98.668,98.668,98.668s98.668-44,98.668-98.668v-34.668h364v34.668c0,54.668,44,98.668,98.668,98.668s98.668-44,98.668-98.668v-34.668h81.328M1009.33,61.336h-105.33v61.332c0,40-32,72-72,72s-72-32-72-72v-61.332h-418.67v61.332c0,40-32,72-72,72s-72-32-72-72v-61.332h-105.33C41.332,61.336,0,102.668,0,153.336v732c0,50.668,41.332,92,92,92h918.67c50.668,0,92-41.332,92-92V153.336c0-50.664-42.668-92-93.336-92h-.004Z"/><path d="M58.696,361.147h979.966v27.035H58.696v-27.035Z"/><rect class="cls-2" x="640.386" y="234.26" width="108.589" height="108.589"/><rect class="cls-2" x="640.386" y="532.685" width="108.589" height="108.589"/><path d="M589.356,350.53h-76c-13.332,0-24-10.668-24-24v-76c0-13.332,10.668-24,24-24h76c13.332,0,24,10.668,24,24v76c0,13.336-10.664,24-24,24ZM513.356,239.87c-5.332,0-10.668,4-10.668,10.668v76c0,5.332,4,10.668,10.668,10.668h76c5.332,0,10.668-4,10.668-10.668v-76c0-5.332-4-10.668-10.668-10.668h-76Z"/><path d="M733.356,350.53h-76c-13.332,0-24-10.668-24-24v-76c0-13.332,10.668-24,24-24h76c13.332,0,24,10.668,24,24v76c0,13.336-10.664,24-24,24ZM657.356,239.87c-5.332,0-10.668,4-10.668,10.668v76c0,5.332,4,10.668,10.668,10.668h76c5.332,0,10.668-4,10.668-10.668v-76c0-5.332-4-10.668-10.668-10.668h-76Z"/><path d="M877.356,350.53h-76c-13.332,0-24-10.668-24-24v-76c0-13.332,10.668-24,24-24h76c13.332,0,24,10.668,24,24v76c0,13.336-10.664,24-24,24ZM801.356,239.87c-5.332,0-10.668,4-10.668,10.668v76c0,5.332,4,10.668,10.668,10.668h76c5.332,0,10.668-4,10.668-10.668v-76c0-5.332-4-10.668-10.668-10.668h-76Z"/><path d="M1021.326,350.53h-76c-13.332,0-24-10.668-24-24v-76c0-13.332,10.668-24,24-24h76c13.332,0,24,10.668,24,24v76c0,13.336-10.664,24-24,24ZM945.326,239.87c-5.332,0-10.668,4-10.668,10.668v76c0,5.332,4,10.668,10.668,10.668h76c5.332,0,10.668-4,10.668-10.668v-76c0-5.332-4-10.668-10.668-10.668h-76Z"/><path class="cls-1" d="M158.696,509.446h-76c-9.332,0-17.332-8-17.332-17.332v-76c0-9.332,8-17.332,17.332-17.332h76c9.332,0,17.332,8,17.332,17.332v76c0,9.332-8,17.332-17.332,17.332Z"/><path class="cls-1" d="M302.696,509.446h-76c-9.332,0-17.332-8-17.332-17.332v-76c0-9.332,8-17.332,17.332-17.332h76c9.332,0,17.332,8,17.332,17.332v76c-1.332,9.332-8,17.332-17.332,17.332Z"/><path class="cls-1" d="M446.696,509.446h-76c-9.332,0-17.332-8-17.332-17.332v-76c0-9.332,8-17.332,17.332-17.332h76c9.332,0,17.332,8,17.332,17.332v76c-1.332,9.332-8,17.332-17.332,17.332Z"/><path class="cls-1" d="M589.356,509.446h-76c-9.332,0-17.332-8-17.332-17.332v-76c0-9.332,8-17.332,17.332-17.332h76c9.332,0,17.332,8,17.332,17.332l.004,76c0,9.332-8,17.332-17.336,17.332Z"/><path class="cls-1" d="M733.356,509.446h-76c-9.332,0-17.332-8-17.332-17.332v-76c0-9.332,8-17.332,17.332-17.332h76c9.332,0,17.332,8,17.332,17.332l.004,76c0,9.332-8,17.332-17.336,17.332Z"/><path d="M158.696,645.907h-76c-13.332,0-24-10.668-24-24v-76c0-13.332,10.668-24,24-24h76c13.332,0,24,10.668,24,24v76c0,13.332-10.668,24-24,24ZM82.696,535.237c-5.332,0-10.668,4-10.668,10.668v76c0,5.332,5.332,10.668,10.668,10.668h76c5.332,0,10.668-4,10.668-10.668v-76c0-5.332-4-10.668-10.668-10.668h-76Z"/><path d="M302.696,645.907h-76c-13.332,0-24-10.668-24-24v-76c0-13.332,10.668-24,24-24h76c13.332,0,24,10.668,24,24v76c-1.336,13.332-12,24-24,24ZM226.696,535.237c-5.332,0-10.668,4-10.668,10.668v76c0,5.332,4,10.668,10.668,10.668h76c5.332,0,10.668-4,10.668-10.668v-76c0-5.332-4-10.668-10.668-10.668h-76Z"/><path d="M445.356,645.907h-76c-13.332,0-24-10.668-24-24v-76c0-13.332,10.668-24,24-24h76c13.332,0,24,10.668,24,24v76c0,13.332-10.664,24-24,24h0ZM370.692,535.237c-5.332,0-10.668,4-10.668,10.668v76c0,5.332,4,10.668,10.668,10.668h74.664c5.332,0,10.668-4,10.668-10.668v-76c0-5.332-4-10.668-10.668-10.668h-74.664Z"/><path d="M589.356,645.907h-76c-13.332,0-24-10.668-24-24v-76c0-13.332,10.668-24,24-24h76c13.332,0,24,10.668,24,24v76c0,13.332-10.664,24-24,24ZM513.356,535.237c-5.332,0-10.668,4-10.668,10.668v76c0,5.332,4,10.668,10.668,10.668h76c5.332,0,10.668-4,10.668-10.668v-76c0-5.332-4-10.668-10.668-10.668h-76Z"/><path d="M733.356,645.907h-76c-13.332,0-24-10.668-24-24v-76c0-13.332,10.668-24,24-24h76c13.332,0,24,10.668,24,24v76c0,13.332-10.664,24-24,24ZM657.356,535.237c-5.332,0-10.668,4-10.668,10.668v76c0,5.332,4,10.668,10.668,10.668h76c5.332,0,10.668-4,10.668-10.668v-76c0-5.332-4-10.668-10.668-10.668h-76Z"/><path d="M877.356,645.907h-76c-13.332,0-24-10.668-24-24v-76c0-13.332,10.668-24,24-24h76c13.332,0,24,10.668,24,24v76c0,13.332-10.664,24-24,24ZM801.356,535.237c-5.332,0-10.668,4-10.668,10.668v76c0,5.332,4,10.668,10.668,10.668h76c5.332,0,10.668-4,10.668-10.668v-76c0-5.332-4-10.668-10.668-10.668h-76Z"/><path d="M1021.326,645.907h-76c-13.332,0-24-10.668-24-24v-76c0-13.332,10.668-24,24-24h76c13.332,0,24,10.668,24,24v76c0,13.332-10.664,24-24,24ZM945.326,535.237c-5.332,0-10.668,4-10.668,10.668v76c0,5.332,4,10.668,10.668,10.668h76c5.332,0,10.668-4,10.668-10.668v-76c0-5.332-4-10.668-10.668-10.668h-76Z"/><path d="M877.356,516.114h-76c-13.332,0-24-10.668-24-24v-76c0-13.332,10.668-24,24-24h76c13.332,0,24,10.668,24,24v76c0,13.332-10.664,24-24,24ZM801.356,405.444c-5.332,0-10.668,4-10.668,10.668v76c0,5.332,4,10.668,10.668,10.668h76c5.332,0,10.668-4,10.668-10.668v-76c0-5.332-4-10.668-10.668-10.668h-76Z"/><path d="M1021.326,516.114h-76c-13.332,0-24-10.668-24-24v-76c0-13.332,10.668-24,24-24h76c13.332,0,24,10.668,24,24v76c0,13.332-10.664,24-24,24ZM945.326,405.444c-5.332,0-10.668,4-10.668,10.668v76c0,5.332,4,10.668,10.668,10.668h76c5.332,0,10.668-4,10.668-10.668v-76c0-5.332-4-10.668-10.668-10.668h-76Z"/><path d="M158.02,777.783h-76c-13.332,0-24-10.668-24-24v-76c0-13.332,10.668-24,24-24h76c13.332,0,24,10.668,24,24v76c0,13.332-10.668,24-24,24ZM82.02,667.113c-5.332,0-10.668,4-10.668,10.668v76c0,5.332,5.332,10.668,10.668,10.668h76c5.332,0,10.668-4,10.668-10.668v-76c0-5.332-4-10.668-10.668-10.668h-76Z"/><path d="M302.02,777.783h-76c-13.332,0-24-10.668-24-24v-76c0-13.332,10.668-24,24-24h76c13.332,0,24,10.668,24,24v76c-1.336,13.332-12,24-24,24ZM226.02,667.113c-5.332,0-10.668,4-10.668,10.668v76c0,5.332,4,10.668,10.668,10.668h76c5.332,0,10.668-4,10.668-10.668v-76c0-5.332-4-10.668-10.668-10.668h-76Z"/><path d="M444.68,777.783h-76c-13.332,0-24-10.668-24-24v-76c0-13.332,10.668-24,24-24h76c13.332,0,24,10.668,24,24v76c0,13.332-10.664,24-24,24h0ZM370.016,667.113c-5.332,0-10.668,4-10.668,10.668v76c0,5.332,4,10.668,10.668,10.668h74.664c5.332,0,10.668-4,10.668-10.668v-76c0-5.332-4-10.668-10.668-10.668h-74.664Z"/><path d="M588.68,777.783h-76c-13.332,0-24-10.668-24-24v-76c0-13.332,10.668-24,24-24h76c13.332,0,24,10.668,24,24v76c0,13.332-10.664,24-24,24ZM512.68,667.113c-5.332,0-10.668,4-10.668,10.668v76c0,5.332,4,10.668,10.668,10.668h76c5.332,0,10.668-4,10.668-10.668v-76c0-5.332-4-10.668-10.668-10.668h-76Z"/><path d="M732.68,777.783h-76c-13.332,0-24-10.668-24-24v-76c0-13.332,10.668-24,24-24h76c13.332,0,24,10.668,24,24v76c0,13.332-10.664,24-24,24ZM656.68,667.113c-5.332,0-10.668,4-10.668,10.668v76c0,5.332,4,10.668,10.668,10.668h76c5.332,0,10.668-4,10.668-10.668v-76c0-5.332-4-10.668-10.668-10.668h-76Z"/><path d="M876.68,777.783h-76c-13.332,0-24-10.668-24-24v-76c0-13.332,10.668-24,24-24h76c13.332,0,24,10.668,24,24v76c0,13.332-10.664,24-24,24ZM800.68,667.113c-5.332,0-10.668,4-10.668,10.668v76c0,5.332,4,10.668,10.668,10.668h76c5.332,0,10.668-4,10.668-10.668v-76c0-5.332-4-10.668-10.668-10.668h-76Z"/><path d="M1020.65,777.783h-76c-13.332,0-24-10.668-24-24v-76c0-13.332,10.668-24,24-24h76c13.332,0,24,10.668,24,24v76c0,13.332-10.664,24-24,24ZM944.65,667.113c-5.332,0-10.668,4-10.668,10.668v76c0,5.332,4,10.668,10.668,10.668h76c5.332,0,10.668-4,10.668-10.668v-76c0-5.332-4-10.668-10.668-10.668h-76Z"/><path d="M876.68,908.41h-76c-13.332,0-24-10.668-24-24v-76c0-13.332,10.668-24,24-24h76c13.332,0,24,10.668,24,24v76c0,13.332-10.664,24-24,24ZM800.68,797.74c-5.332,0-10.668,4-10.668,10.668v76c0,5.332,4,10.668,10.668,10.668h76c5.332,0,10.668-4,10.668-10.668v-76c0-5.332-4-10.668-10.668-10.668h-76Z"/><path d="M1020.65,908.41h-76c-13.332,0-24-10.668-24-24v-76c0-13.332,10.668-24,24-24h76c13.332,0,24,10.668,24,24v76c0,13.332-10.664,24-24,24ZM944.65,797.74c-5.332,0-10.668,4-10.668,10.668v76c0,5.332,4,10.668,10.668,10.668h76c5.332,0,10.668-4,10.668-10.668v-76c0-5.332-4-10.668-10.668-10.668h-76Z"/><path d="M158.696,907.16h-76c-13.332,0-24-8.168-24-21.5v-76c0-13.332,10.668-24,24-24h76c13.332,0,24,10.668,24,24v76c0,13.336-10.668,21.5-24,21.5ZM82.696,800.33c-5.336,0-10.668,4-10.668,9.332v76c0,5.332,4,10.668,10.668,10.668h76c5.332,0,10.668-4,10.668-10.668v-76c0-5.332-4-10.668-10.668-10.668l-76,.004v1.332Z"/><path d="M302.696,907.16h-76c-13.332,0-24-8.168-24-21.5v-76c0-13.332,10.668-24,24-24h76c13.332,0,24,10.668,24,24v76c-1.336,13.336-12,21.5-24,21.5ZM226.696,800.33c-5.332,0-10.668,4-10.668,10.668v76c0,5.332,4,10.668,10.668,10.668h76c5.332,0,10.668-4,10.668-10.668v-76c0-5.332-4-10.668-10.668-10.668h-76Z"/><path d="M445.356,907.16h-76c-13.332,0-24-8.168-24-21.5v-76c0-13.332,10.668-24,24-24h76c13.332,0,24,10.668,24,24v76c0,13.336-10.664,21.5-24,21.5h0ZM370.692,800.33c-5.332,0-10.668,4-10.668,10.668v76c0,5.332,4,10.668,10.668,10.668l74.664-.004c5.332,0,10.668-4,10.668-10.668v-76c0-5.332-4-10.668-10.668-10.668l-74.664.004Z"/><path d="M589.356,907.16h-76c-13.332,0-24-8.168-24-21.5v-76c0-13.332,10.668-24,24-24h76c13.332,0,24,10.668,24,24v76c0,13.336-10.664,21.5-24,21.5ZM513.356,800.33c-5.332,0-10.668,4-10.668,10.668v76c0,5.332,4,10.668,10.668,10.668h76c5.332,0,10.668-4,10.668-10.668v-76c0-5.332-4-10.668-10.668-10.668h-76Z"/><path d="M733.356,907.16h-76c-13.332,0-24-8.168-24-21.5v-76c0-13.332,10.668-24,24-24h76c13.332,0,24,10.668,24,24v76c0,13.336-10.664,21.5-24,21.5ZM657.356,800.33c-5.332,0-10.668,4-10.668,10.668v76c0,5.332,4,10.668,10.668,10.668h76c5.332,0,10.668-4,10.668-10.668v-76c0-5.332-4-10.668-10.668-10.668h-76Z"/><path d="M446.696,350.538h-76c-13.332,0-24-10.668-24-24v-76c0-13.332,10.668-24,24-24h76c13.332,0,24,10.668,24,24v76c0,13.336-10.664,24-24,24ZM370.696,239.878c-5.332,0-10.668,4-10.668,10.668v76c0,5.332,4,10.668,10.668,10.668h76c5.332,0,10.668-4,10.668-10.668v-76c0-5.332-4-10.668-10.668-10.668h-76Z"/><path d="M302.696,350.546h-76c-13.332,0-24-10.668-24-24v-76c0-13.332,10.668-24,24-24h76c13.332,0,24,10.668,24,24v76c0,13.336-10.664,24-24,24ZM226.696,239.886c-5.332,0-10.668,4-10.668,10.668v76c0,5.332,4,10.668,10.668,10.668h76c5.332,0,10.668-4,10.668-10.668v-76c0-5.332-4-10.668-10.668-10.668h-76Z"/><path d="M158.696,350.53h-76c-13.332,0-24-10.668-24-24v-76c0-13.332,10.668-24,24-24h76c13.332,0,24,10.668,24,24v76c0,13.336-10.664,24-24,24ZM82.696,239.87c-5.332,0-10.668,4-10.668,10.668v76c0,5.332,4,10.668,10.668,10.668h76c5.332,0,10.668-4,10.668-10.668v-76c0-5.332-4-10.668-10.668-10.668h-76Z"/><path d="M117.426,327c-3.8,0-7.317-.5-10.55-1.5-3.234-1-6.167-2.516-8.8-4.55-2.634-2.033-4.984-4.55-7.05-7.55l7.4-8.5c3.266,4.667,6.4,7.9,9.4,9.7,3,1.8,6.566,2.7,10.7,2.7,2.533,0,4.833-.4,6.9-1.2,2.066-.8,3.7-1.9,4.9-3.3,1.2-1.4,1.8-3,1.8-4.8,0-1.2-.2-2.333-.6-3.4-.4-1.066-1.017-2.033-1.85-2.9-.834-.866-1.9-1.666-3.2-2.4-1.3-.732-2.817-1.383-4.55-1.95-1.734-.566-3.734-1.05-6-1.45-3.6-.733-6.734-1.7-9.4-2.9-2.667-1.2-4.9-2.7-6.7-4.5-1.8-1.8-3.134-3.85-4-6.15-.867-2.3-1.3-4.883-1.3-7.75,0-2.8.616-5.4,1.85-7.8,1.233-2.4,2.933-4.482,5.1-6.25,2.166-1.766,4.715-3.133,7.65-4.1,2.933-.966,6.1-1.45,9.5-1.45,3.6,0,6.9.467,9.9,1.4,3,.935,5.666,2.317,8,4.15,2.333,1.834,4.266,4.084,5.8,6.75l-7.6,7.5c-1.334-2.2-2.834-4.05-4.5-5.55-1.667-1.5-3.5-2.633-5.5-3.4-2-.766-4.135-1.15-6.4-1.15-2.6,0-4.867.4-6.8,1.2-1.935.8-3.45,1.917-4.55,3.35-1.1,1.435-1.65,3.117-1.65,5.05,0,1.4.266,2.685.8,3.85.533,1.167,1.35,2.2,2.45,3.1,1.1.9,2.583,1.7,4.45,2.4,1.866.7,4.1,1.317,6.7,1.85,3.666.8,6.933,1.817,9.8,3.05,2.866,1.234,5.3,2.685,7.3,4.35,2,1.667,3.516,3.535,4.55,5.6,1.033,2.067,1.55,4.3,1.55,6.7,0,4.467-1.034,8.334-3.1,11.6-2.067,3.268-5,5.785-8.8,7.55s-8.334,2.65-13.6,2.65Z"/><path d="M231.828,326v-70h10.601l25.5,41.5-5.101-.1,25.801-41.4h10v70h-10.801v-28.7c0-6,.15-11.4.45-16.2.3-4.8.815-9.566,1.55-14.3l1.4,3.7-22.9,35.4h-6.6l-22.2-35,1.101-4.1c.732,4.467,1.25,9.05,1.55,13.75.3,4.7.45,10.285.45,16.75v28.7h-10.801Z"/><path d="M400.726,326v-59.6h-19.6v-10.4h50.6v10.4h-20.2v59.6h-10.8Z"/><path d="M529.242,326l-20.07-63h10.35l12.15,39.42c.36.96.689,2.085.99,3.375.3,1.291.57,2.596.81,3.915.239,1.32.464,2.551.675,3.689.21,1.141.405,2.07.585,2.79l-2.61-.09c.9-3.18,1.604-5.639,2.115-7.38.509-1.739.914-3.074,1.215-4.005.3-.93.57-1.725.81-2.385l11.34-28.44h8.73l10.98,28.44c.599,1.439,1.125,2.865,1.575,4.274.45,1.411.854,2.821,1.215,4.23.36,1.41.749,2.896,1.17,4.455l-2.34.63c.3-1.62.524-2.895.675-3.825.149-.93.284-1.694.405-2.295.119-.599.239-1.185.359-1.755.12-.569.315-1.305.585-2.205.271-.9.645-2.129,1.125-3.69l11.971-39.149h10.439l-20.069,63h-6.75l-16.651-39.42.81.359-16.02,39.061h-6.57Z"/><path d="M691.739,326v-59.6h-19.6v-10.4h50.6v10.4h-20.2v59.6h-10.8Z"/><path d="M820.827,326v-70h10.8v70h-10.8ZM825.627,266.399v-10.399h40.601v10.399h-40.601ZM825.627,296.2v-10.4h36.101v10.4h-36.101Z"/><path d="M984.127,327c-3.8,0-7.317-.5-10.55-1.5-3.234-1-6.168-2.516-8.801-4.55-2.634-2.033-4.984-4.55-7.049-7.55l7.399-8.5c3.266,4.667,6.399,7.9,9.399,9.7,3,1.8,6.566,2.7,10.701,2.7,2.532,0,4.832-.4,6.899-1.2,2.065-.8,3.7-1.9,4.899-3.3,1.201-1.4,1.801-3,1.801-4.8,0-1.2-.2-2.333-.6-3.4-.4-1.066-1.018-2.033-1.851-2.9-.835-.866-1.899-1.666-3.2-2.4-1.3-.732-2.816-1.383-4.55-1.95-1.734-.566-3.734-1.05-6-1.45-3.601-.733-6.734-1.7-9.399-2.9-2.668-1.2-4.9-2.7-6.701-4.5-1.799-1.8-3.134-3.85-4-6.15-.867-2.3-1.299-4.883-1.299-7.75,0-2.8.615-5.4,1.85-7.8,1.232-2.4,2.933-4.482,5.1-6.25,2.166-1.766,4.716-3.133,7.65-4.1,2.933-.966,6.1-1.45,9.5-1.45,3.6,0,6.9.467,9.9,1.4,3,.935,5.665,2.317,8,4.15,2.332,1.834,4.266,4.084,5.799,6.75l-7.6,7.5c-1.334-2.2-2.834-4.05-4.5-5.55-1.667-1.5-3.5-2.633-5.5-3.4-2-.766-4.135-1.15-6.4-1.15-2.6,0-4.867.4-6.799,1.2-1.936.8-3.451,1.917-4.551,3.35-1.1,1.435-1.65,3.117-1.65,5.05,0,1.4.266,2.685.801,3.85.533,1.167,1.35,2.2,2.449,3.1,1.101.9,2.584,1.7,4.451,2.4,1.865.7,4.1,1.317,6.699,1.85,3.666.8,6.934,1.817,9.801,3.05,2.865,1.234,5.299,2.685,7.299,4.35,2,1.667,3.516,3.535,4.551,5.6,1.033,2.067,1.55,4.3,1.55,6.7,0,4.467-1.034,8.334-3.101,11.6-2.066,3.268-5,5.785-8.799,7.55-3.801,1.766-8.335,2.65-13.601,2.65Z"/></svg>