<?xml version="1.0" encoding="UTF-8"?>
<svg id="Layer_1" data-name="Layer 1" xmlns="http://www.w3.org/2000/svg" viewBox="0 0 1102.67 944.335">
  <defs>
    <style>
      .cls-1, .cls-2 {
        fill: none;
      }

      .cls-3 {
        fill: #f8ff6e;
      }

      .cls-2 {
        stroke: #000;
        stroke-linecap: round;
        stroke-linejoin: round;
        stroke-width: 11px;
      }
    </style>
  </defs>
  <path d="M269.356,136.329c-28,0-50.668-14.396-50.668-32.178l.004-71.973c0-17.783,22.668-32.178,50.668-32.178s50.668,14.396,50.668,32.178v71.973c-.004,17.785-22.672,32.178-50.672,32.178h0Z"/>
  <path d="M829.356,136.329c-28,0-50.668-14.396-50.668-32.178l.004-71.973c0-17.783,22.668-32.178,50.668-32.178s50.668,14.396,50.668,32.178v71.973c1.328,17.785-22.672,32.178-50.672,32.178h0Z"/>
  <path d="M1009.326,54.999c36,0,65.332,29.332,65.332,65.332v732c0,36-29.332,65.332-65.332,65.332l-918.66.004c-36,0-65.332-29.332-65.332-65.332l-.004-732c0-36,29.332-65.332,65.332-65.332h78.668v34.668c0,54.668,44,98.668,98.668,98.668s98.668-44,98.668-98.668v-34.668h364v34.668c0,54.668,44,98.668,98.668,98.668s98.668-44,98.668-98.668v-34.668h81.328M1009.33,28.335h-105.33v61.332c0,40-32,72-72,72s-72-32-72-72V28.335h-418.67v61.332c0,40-32,72-72,72s-72-32-72-72V28.335h-105.33c-50.668,0-92,41.332-92,92v732c0,50.668,41.332,92,92,92h918.67c50.668,0,92-41.332,92-92V120.335c0-50.664-42.668-92-93.336-92h-.004,0Z"/>
  <g>
    <rect class="cls-1" x="13.336" y="187.764" width="1077.446" height="463"/>
    <path d="M230.794,549.62v-291.444h-95.844v-50.856h247.434v50.856h-98.777v291.444h-52.812Z"/>
    <path d="M434.701,549.62V187.76h50.367v157.947l-8.802,5.868c3.255-11.408,9.611-21.921,19.07-31.541,9.452-9.612,20.698-17.436,33.741-23.472,13.035-6.028,26.406-9.046,40.098-9.046,19.561,0,35.857,3.835,48.9,11.492,13.035,7.664,22.814,19.315,29.34,34.963,6.518,15.648,9.78,35.376,9.78,59.168v156.481h-50.367v-153.057c0-14.67-1.956-26.812-5.868-36.431-3.912-9.612-9.948-16.626-18.093-21.027-8.152-4.401-18.261-6.273-30.318-5.624-9.779,0-18.75,1.551-26.895,4.646-8.152,3.102-15.243,7.419-21.271,12.958-6.036,5.547-10.758,11.98-14.181,19.316-3.424,7.335-5.135,15.243-5.135,23.716v155.502h-50.367Z"/>
    <path d="M815.625,554.51c-18.261,0-34.153-4.24-47.677-12.714-13.532-8.474-23.961-20.37-31.296-35.697-7.335-15.319-11.003-33.572-11.003-54.768v-158.436h50.367v144.744c0,14.999,2.36,27.958,7.09,38.876,4.723,10.926,11.568,19.315,20.538,25.184,8.963,5.868,19.805,8.802,32.519,8.802,9.452,0,18.094-1.543,25.917-4.646,7.824-3.095,14.586-7.411,20.294-12.958,5.7-5.54,10.185-12.226,13.447-20.05,3.255-7.823,4.89-16.297,4.89-25.428v-154.524h50.367v256.726h-50.367v-53.79l8.803-5.868c-3.912,12.064-10.514,22.983-19.805,32.764-9.291,9.779-20.294,17.527-33.008,23.227-12.714,5.7-26.406,8.558-41.076,8.558Z"/>
  </g>
  <rect class="cls-3" x="624.661" y="590.721" width="153.433" height="260.781"/>
  <rect class="cls-2" x="29.445" y="702.199" width="149.319" height="149.319"/>
  <path d="M104.367,685.526c-5.004,0-9.629-.658-13.892-1.975-4.263-1.317-8.114-3.308-11.587-5.991-3.456-2.683-6.551-5.991-9.283-9.941l9.744-11.192c4.296,6.156,8.427,10.402,12.377,12.772,3.95,2.37,8.641,3.555,14.089,3.555,3.341,0,6.37-.527,9.086-1.58,2.732-1.053,4.872-2.502,6.452-4.345s2.37-3.95,2.37-6.32c0-1.58-.263-3.078-.79-4.477-.527-1.399-1.35-2.683-2.436-3.819-1.103-1.136-2.502-2.189-4.214-3.16-1.712-.971-3.703-1.811-5.991-2.568s-4.921-1.383-7.9-1.909c-4.74-.971-8.872-2.238-12.377-3.819-3.506-1.58-6.452-3.555-8.822-5.925-2.37-2.37-4.131-5.069-5.267-8.098s-1.712-6.436-1.712-10.205c0-3.687.807-7.11,2.436-10.271s3.851-5.909,6.715-8.23c2.847-2.337,6.205-4.131,10.073-5.399,3.851-1.267,8.032-1.909,12.509-1.909,4.74,0,9.086.625,13.036,1.843,3.95,1.234,7.456,3.045,10.534,5.464,3.078,2.403,5.613,5.382,7.637,8.888l-10.007,9.876c-1.761-2.897-3.736-5.333-5.925-7.308-2.189-1.975-4.609-3.456-7.242-4.477-2.633-1.004-5.448-1.514-8.427-1.514-3.424,0-6.403.527-8.954,1.58-2.551,1.053-4.543,2.518-5.991,4.411-1.448,1.893-2.173,4.115-2.173,6.65,0,1.843.346,3.539,1.053,5.069s1.778,2.897,3.226,4.082c1.448,1.185,3.407,2.238,5.86,3.16s5.399,1.728,8.822,2.436c4.823,1.053,9.135,2.403,12.904,4.016,3.769,1.613,6.979,3.539,9.612,5.728,2.633,2.189,4.625,4.658,5.991,7.374,1.366,2.732,2.041,5.662,2.041,8.822,0,5.876-1.366,10.978-4.082,15.274-2.732,4.296-6.584,7.604-11.587,9.941-5.004,2.321-10.978,3.489-17.908,3.489Z"/>
  <rect class="cls-2" x="178.763" y="702.199" width="149.319" height="149.319"/>
  <path d="M209.443,684.209v-92.172h13.957l33.577,54.645-6.715-.132,33.972-54.513h13.167v92.172h-14.221v-37.79c0-7.9.198-15.011.593-21.331s1.07-12.608,2.041-18.829l1.843,4.872-30.153,46.613h-8.69l-29.232-46.086,1.448-5.399c.971,5.876,1.646,11.917,2.041,18.105.395,6.189.593,13.546.593,22.055v37.79s-14.221,0-14.221,0Z"/>
  <rect class="cls-2" x="328.082" y="702.199" width="149.319" height="149.319"/>
  <path d="M395.236,684.209v-78.478h-25.808v-13.694h66.627v13.694h-26.598v78.478s-14.221,0-14.221,0Z"/>
  <rect class="cls-2" x="477.4" y="702.199" width="149.319" height="149.319"/>
  <path d="M519.009,684.209l-29.363-92.172h15.143l17.776,57.673c.527,1.399,1.02,3.061,1.448,4.938.444,1.893.839,3.786,1.185,5.728s.675,3.736.988,5.399c.313,1.679.593,3.029.856,4.082l-3.819-.132c1.317-4.658,2.354-8.246,3.094-10.797.741-2.535,1.35-4.493,1.778-5.86.444-1.366.839-2.518,1.185-3.489l16.591-41.609h12.772l16.064,41.609c.889,2.107,1.662,4.197,2.321,6.255.658,2.057,1.251,4.131,1.761,6.189.527,2.057,1.103,4.23,1.712,6.518l-3.424.922c.428-2.37.774-4.23.988-5.596.23-1.366.412-2.485.593-3.358s.346-1.728.527-2.568c.181-.823.461-1.909.856-3.226.395-1.317.955-3.111,1.662-5.399l17.496-57.278h15.274l-29.347,92.172h-9.892l-24.343-57.673,1.185.527-23.438,57.147h-9.629Z"/>
  <rect class="cls-2" x="626.702" y="702.199" width="149.319" height="149.319"/>
  <path d="M693.873,684.209v-78.478h-25.808v-13.694h66.627v13.694h-26.598v78.478h-14.221Z"/>
  <rect class="cls-2" x="776.021" y="702.199" width="149.319" height="149.319"/>
  <path d="M823.967,684.209v-92.172h14.204v92.172h-14.204ZM830.287,605.732v-13.694h53.46v13.694h-53.46ZM830.287,644.97v-13.694h47.534v13.694h-47.534Z"/>
  <rect class="cls-2" x="925.339" y="702.199" width="149.319" height="149.319"/>
  <path d="M1000.262,685.526c-5.004,0-9.629-.658-13.892-1.975-4.263-1.317-8.114-3.308-11.587-5.991s-6.551-5.991-9.283-9.941l9.76-11.192c4.296,6.156,8.427,10.402,12.377,12.772,3.934,2.37,8.625,3.555,14.073,3.555,3.341,0,6.37-.527,9.085-1.58,2.732-1.053,4.888-2.502,6.469-4.345s2.37-3.95,2.37-6.32c0-1.58-.263-3.078-.79-4.477-.527-1.399-1.333-2.683-2.42-3.819-1.103-1.136-2.502-2.189-4.23-3.16-1.712-.971-3.703-1.811-5.975-2.568s-4.921-1.383-7.9-1.909c-4.74-.971-8.872-2.238-12.377-3.819-3.506-1.58-6.452-3.555-8.822-5.925s-4.131-5.069-5.251-8.098c-1.136-3.029-1.712-6.436-1.712-10.205,0-3.687.823-7.11,2.436-10.271,1.629-3.16,3.851-5.909,6.699-8.23,2.864-2.337,6.222-4.131,10.073-5.399,3.851-1.267,8.032-1.909,12.509-1.909,4.74,0,9.102.625,13.036,1.843,3.95,1.234,7.456,3.045,10.55,5.464,3.078,2.403,5.613,5.382,7.637,8.888l-10.007,9.876c-1.745-2.897-3.736-5.333-5.909-7.308-2.206-1.975-4.609-3.456-7.242-4.477-2.633-1.004-5.448-1.514-8.427-1.514-3.424,0-6.419.527-8.954,1.58-2.551,1.053-4.543,2.518-5.991,4.411-1.448,1.893-2.173,4.115-2.173,6.65,0,1.843.346,3.539,1.037,5.069.708,1.531,1.778,2.897,3.226,4.082,1.448,1.185,3.407,2.238,5.859,3.16,2.436.922,5.382,1.728,8.806,2.436,4.839,1.053,9.135,2.403,12.904,4.016,3.769,1.613,6.979,3.539,9.612,5.728s4.625,4.658,5.991,7.374c1.366,2.732,2.041,5.662,2.041,8.822,0,5.876-1.366,10.978-4.082,15.274s-6.584,7.604-11.587,9.941c-5.004,2.321-10.978,3.489-17.908,3.489h-.033Z"/>
  <path d="M755.825,724.123c-3.736-3.736-9.793-3.736-13.513,0l-39.206,39.206-39.206-39.206c-3.736-3.736-9.793-3.736-13.513,0-3.72,3.736-3.736,9.793,0,13.513l39.206,39.206-39.206,39.206c-3.736,3.736-3.736,9.793,0,13.513,3.736,3.72,9.793,3.736,13.513,0l39.206-39.206,39.206,39.206c3.736,3.736,9.793,3.736,13.513,0,3.72-3.736,3.736-9.793,0-13.513l-39.206-39.206,39.206-39.206c3.736-3.736,3.736-9.793,0-13.513h0Z"/>
</svg>