<?xml version="1.0" encoding="UTF-8"?>
<svg id="Layer_1" data-name="Layer 1" xmlns="http://www.w3.org/2000/svg" viewBox="0 0 801.002 1199.905">
  <path d="M800.999,107.062c0-.328-.047-.656-.094-.984-.047-.562-.094-1.078-.188-1.641-.047-.328-.188-.656-.281-.984-.141-.516-.281-1.031-.469-1.5-.141-.328-.281-.656-.469-.984-.234-.469-.469-.938-.75-1.359-.188-.281-.375-.609-.609-.891-.328-.469-.703-.891-1.078-1.266-.141-.141-.234-.328-.422-.469-4.125-3.938-104.67-96.984-396.14-96.984C109.029.047,8.479,93.094,4.359,97.031c-.141.141-.281.328-.422.469-.375.422-.75.844-1.078,1.266-.234.281-.422.562-.609.844-.281.422-.516.891-.75,1.359-.141.328-.328.609-.422.938-.234.516-.375,1.078-.516,1.594-.094.281-.188.562-.234.844-.141.656-.188,1.312-.234,2.016,0,.188-.047.375-.047.562,0,.094-.047.188-.047.281v237.37c0,3.516,1.312,6.938,3.703,9.516l142.22,155.81c2.672,2.953,6.469,4.594,10.406,4.594.281,0,.609,0,.938-.047,4.266-.281,8.203-2.484,10.641-6l92.531-132.47c3.281,26.531,13.922,50.766,29.812,70.688l-39,176.02c0,.047-.047.094-.047.188l-49.5,223.31c-.047.094-.047.234-.094.328l-27.422,123.71c-1.031,4.688.375,9.609,3.797,13.031l212.53,212.53c2.766,2.766,6.375,4.125,9.984,4.125s7.219-1.359,9.984-4.125l212.58-212.58c3.422-3.422,4.828-8.344,3.797-13.031l-63-284.34c0-.094-.047-.141-.047-.234l-31.547-142.26c0-.047,0-.094-.047-.094l-21.422-96.703c15.891-19.875,26.531-44.109,29.766-70.641l92.531,132.47c2.438,3.516,6.375,5.719,10.641,6,.328,0,.609.047.938.047,3.938,0,7.734-1.641,10.406-4.594l142.22-155.81c2.391-2.578,3.703-6,3.703-9.516l-.004-237.432ZM488.439,281.342h-175.82c-20.719-5.578-230.81-64.547-281.26-169.78C58.781,91.64,164.619,28.265,400.499,28.265s341.76,63.375,369.14,83.297c-50.438,105.23-260.53,164.21-281.26,169.78h.06ZM154.879,477.892L28.269,339.152v-180.66c60.797,74.672,183.47,121.08,243.94,140.39-6.984,7.922-11.578,18-12.609,29.109l-104.67,149.9h-.051ZM487.089,470.111l15.844,71.531-263.16,263.16,38.156-172.18,133.18-133.18c28.5-2.109,54.656-12.75,75.984-29.344l-.004.013ZM289.329,581.341l24.656-111.19c17.109,13.312,37.359,22.781,59.438,27.094l-84.094,84.096ZM228.438,856.081l281.76-281.76,24.328,109.78-307.97,307.92-23.109-23.109,24.984-112.78.007-.051ZM566.078,826.456l-252.52,252.56-67.031-67.031,295.22-295.18,24.328,109.69.003-.039ZM400.518,1165.976l-66.984-66.984,239.76-239.81,24.328,109.73-197.11,197.11.006-.046ZM513.488,358.736c0,28.969-10.969,55.453-28.969,75.469l-.047.047c-19.688,21.844-47.719,35.953-79.031,37.312-.375,0-.75,0-1.125.047-1.266.047-2.484.094-3.75.094-62.297,0-112.97-50.672-112.97-112.97v-25.969c0-12.797,10.406-23.203,23.203-23.203h179.53c12.797,0,23.203,10.406,23.203,23.203v25.969h-.044ZM772.798,339.142l-126.61,138.74-104.67-149.9c-1.031-11.109-5.625-21.188-12.609-29.109,60.516-19.312,183.19-65.766,243.94-140.39v180.66h-.051Z"/>
</svg>