<?xml version="1.0" encoding="UTF-8"?>
<svg id="Layer_1" data-name="Layer 1" xmlns="http://www.w3.org/2000/svg" viewBox="0 0 1067.003 1113.411">
  <path d="M514.587,402.081c-24.738,27.457-55.762,56.199-94.516,85.73-11.582,7.805-23.82,15.613-36.707,23.555h-4.418c-13.414-8.07-25.902-16.141-37.613-24.207-66.648-50.836-110.35-99.207-138.53-142.65-15.742-24.273,9.957-54.129,36.32-42.215,69.164,31.258,165.84,63.824,249.88,51.594,26.816-3.898,43.715,28.066,25.578,48.195l.006-.002Z"/>
  <path d="M413.457,632.851c0,17.973-14.566,32.539-32.539,32.539s-32.535-14.566-32.535-32.539,14.566-32.535,32.535-32.535,32.539,14.566,32.539,32.535Z"/>
  <path d="M433.207,751.621c0,28.754-23.309,52.062-52.059,52.062s-52.059-23.309-52.059-52.062,23.309-52.059,52.059-52.059,52.059,23.309,52.059,52.059Z"/>
  <path d="M703.097,975.621c16.652-80.02,13.07-243.46-207.64-423.57,242.48-197.89,222.9-375.64,202.31-444.73,40.75-10.977,64.543-24.176,64.543-38.391C762.31,30.86,591.66,0,381.15,0,170.65.004,0,30.859,0,68.93c0,14.215,23.797,27.426,64.555,38.391-20.613,69.102-40.223,246.8,202.3,444.73C46.115,732.161,42.545,895.591,59.225,975.621,21.772,986.289.002,998.937.002,1012.512v31.969c0,38.07,170.65,68.93,381.16,68.93s381.16-30.859,381.16-68.93v-31.969c.004-13.574-21.766-26.219-59.207-36.887l-.018-.004ZM639.675,961.859c-16.551-2.758-34.488-5.254-53.543-7.461-15.332-18.941-53.02-46.523-136.56-96.648-27.758-16.652-60.207-24.062-92.371-20.398-7.031.801-12.703,1.973-15.645,3.512-103.73,61.121-148.24,92.645-165.29,113.54-19.082,2.199-37.016,4.691-53.578,7.461-13.348-64.98-10.152-212.22,212.84-381.03,8.996-6.801,14.352-17.594,14.332-28.879-.035-11.273-5.438-22.035-14.309-28.672C89.131,336.734,111.101,176.524,127.121,124.684h29.93c62.91,8.289,140.32,13.188,224.11,13.188s161.2-4.898,224.1-13.188h29.816c15.59,51.758,37.004,212.84-208.3,398.59-8.961,6.777-14.32,17.523-14.32,28.777s5.356,22.012,14.309,28.766c223.07,168.92,226.19,316.23,212.91,381.05v-.008Z"/>
  <path d="M842.554,313.232c-61.281,0-116.916,24.677-157.465,64.615-.456.368-.894.754-1.315,1.158-.403.421-.789.859-1.14,1.315-39.935,40.567-64.634,96.183-64.634,157.465s24.73,116.95,64.738,157.502c.316.403.666.807,1.035,1.175s.772.719,1.175,1.035c40.567,40.006,96.24,64.738,157.607,64.738s117.107-24.783,157.659-64.839c.351-.298.702-.596,1.017-.93.246-.246.491-.526.702-.789,40.201-40.567,65.053-96.359,65.053-157.887v-.474l.018.018v-.088c-.158-61.195-24.888-116.703-64.81-157.169-.018-.018-.035-.018-.035-.035-.298-.351-.614-.702-.93-1.035-.333-.333-.666-.631-1.017-.93-40.552-40.077-96.258-64.839-157.659-64.839v-.006ZM856.532,341.785c43.744,3.069,83.522,20.433,114.652,47.411l-11.401,11.348h.018c-2.648,2.631-4.139,6.227-4.139,9.945s1.491,7.314,4.139,9.962c2.631,2.648,6.209,4.122,9.945,4.122s7.314-1.473,9.945-4.122l11.348-11.401c26.993,31.149,44.32,70.912,47.411,114.671h-15.978v-.018c-3.736-.018-7.331,1.473-9.98,4.104-2.648,2.648-4.122,6.244-4.104,9.98.018,3.718,1.508,7.296,4.139,9.909,2.648,2.613,6.227,4.087,9.945,4.069h15.978c-3.069,43.778-20.381,83.537-47.392,114.69l-11.365-11.435v.018c-2.631-2.648-6.209-4.139-9.945-4.139s-7.314,1.491-9.945,4.139c-2.648,2.631-4.139,6.209-4.139,9.945s1.491,7.314,4.139,9.945l11.435,11.365c-31.149,26.993-70.927,44.32-114.69,47.392v-15.978h-.018c.018-3.718-1.456-7.296-4.069-9.945-2.613-2.631-6.191-4.122-9.909-4.139-3.736-.018-7.331,1.456-9.98,4.104-2.631,2.648-4.122,6.244-4.104,9.98v15.943c-43.725-3.087-83.488-20.381-114.634-47.355l11.365-11.365h.018c2.648-2.631,4.122-6.209,4.122-9.945s-1.473-7.314-4.122-9.945c-5.472-5.455-14.312-5.455-19.784,0l-11.435,11.435c-27.028-31.167-44.373-70.927-47.441-114.705h16.083c7.717-.035,13.961-6.261,13.979-13.979.018-3.718-1.438-7.296-4.069-9.927-2.613-2.648-6.174-4.139-9.909-4.157h-16.066c3.087-43.759,20.415-83.507,47.441-114.671l11.418,11.418c5.472,5.437,14.312,5.437,19.784,0,2.648-2.648,4.122-6.227,4.122-9.962s-1.473-7.314-4.122-9.945l-11.348-11.348c31.132-26.975,70.893-44.305,114.6-47.392v15.96c-.018,3.736,1.473,7.331,4.104,9.98,2.648,2.648,6.244,4.122,9.98,4.104,3.718-.018,7.296-1.508,9.909-4.139,2.613-2.648,4.087-6.227,4.069-9.945v-15.985ZM842.554,420.746c-3.736-.018-7.331,1.456-9.98,4.104-2.631,2.648-4.122,6.244-4.104,9.98v102.956c.018,3.841,1.579,7.507,4.367,10.138l50.76,48.372h-.018c2.701,2.578,6.314,3.964,10.05,3.876,3.736-.105,7.261-1.684,9.822-4.385,2.578-2.719,3.964-6.332,3.858-10.05-.088-3.736-1.666-7.261-4.385-9.822l-46.389-44.144v-96.939c0-3.718-1.456-7.296-4.069-9.945-2.631-2.631-6.191-4.122-9.909-4.139l-.003-.002Z"/>
</svg>