<?xml version="1.0" encoding="UTF-8"?><svg id="Layer_1" xmlns="http://www.w3.org/2000/svg" viewBox="0 0 1102.67 977.335"><defs><style>.cls-1{fill:#93ffbe;}.cls-2{fill:none;stroke:#ff1f1f;stroke-miterlimit:10;stroke-width:20px;}</style></defs><path d="M269.356,169.329c-28,0-50.668-17.881-50.668-39.967l.004-89.395c0-22.087,22.668-39.967,50.668-39.967s50.668,17.881,50.668,39.967v89.395c-.004,22.09-22.672,39.967-50.672,39.967h0Z"/><path d="M829.356,169.329c-28,0-50.668-17.881-50.668-39.967l.004-89.395c0-22.087,22.668-39.967,50.668-39.967s50.668,17.881,50.668,39.967v89.395c1.328,22.09-22.672,39.967-50.672,39.967h0Z"/><path d="M1009.326,87.999c36,0,65.332,29.332,65.332,65.332v732c0,36-29.332,65.332-65.332,65.332l-918.66.004c-36,0-65.332-29.332-65.332-65.332l-.004-732c0-36,29.332-65.332,65.332-65.332h78.668v34.668c0,54.668,44,98.668,98.668,98.668s98.668-44,98.668-98.668v-34.668h364v34.668c0,54.668,44,98.668,98.668,98.668s98.668-44,98.668-98.668v-34.668h81.328M1009.33,61.335h-105.33v61.332c0,40-32,72-72,72s-72-32-72-72v-61.332h-418.67v61.332c0,40-32,72-72,72s-72-32-72-72v-61.332h-105.33C41.332,61.335,0,102.667,0,153.335v732c0,50.668,41.332,92,92,92h918.67c50.668,0,92-41.332,92-92V153.335c0-50.664-42.668-92-93.336-92h-.004,0Z"/><rect class="cls-1" x="498.175" y="754.999" width="103.638" height="103.638"/><path d="M158.02,868.82h-76c-13.332,0-24-10.668-24-24v-76c0-13.332,10.668-24,24-24h76c13.332,0,24,10.668,24,24v76c0,13.332-10.668,24-24,24ZM82.02,758.15c-5.332,0-10.668,4-10.668,10.668v76c0,5.332,5.332,10.668,10.668,10.668h76c5.332,0,10.668-4,10.668-10.668v-76c0-5.332-4-10.668-10.668-10.668,0,0-76,0-76,0Z"/><path d="M302.02,868.82h-76c-13.332,0-24-10.668-24-24v-76c0-13.332,10.668-24,24-24h76c13.332,0,24,10.668,24,24v76c-1.336,13.332-12,24-24,24ZM226.02,758.15c-5.332,0-10.668,4-10.668,10.668v76c0,5.332,4,10.668,10.668,10.668h76c5.332,0,10.668-4,10.668-10.668v-76c0-5.332-4-10.668-10.668-10.668h-76Z"/><path d="M444.68,868.82h-76c-13.332,0-24-10.668-24-24v-76c0-13.332,10.668-24,24-24h76c13.332,0,24,10.668,24,24v76c0,13.332-10.664,24-24,24h0ZM370.016,758.15c-5.332,0-10.668,4-10.668,10.668v76c0,5.332,4,10.668,10.668,10.668h74.664c5.332,0,10.668-4,10.668-10.668v-76c0-5.332-4-10.668-10.668-10.668h-74.664Z"/><path d="M588.68,868.82h-76c-13.332,0-24-10.668-24-24v-76c0-13.332,10.668-24,24-24h76c13.332,0,24,10.668,24,24v76c0,13.332-10.664,24-24,24ZM512.68,758.15c-5.332,0-10.668,4-10.668,10.668v76c0,5.332,4,10.668,10.668,10.668h76c5.332,0,10.668-4,10.668-10.668v-76c0-5.332-4-10.668-10.668-10.668h-76Z"/><path d="M732.68,868.82h-76c-13.332,0-24-10.668-24-24v-76c0-13.332,10.668-24,24-24h76c13.332,0,24,10.668,24,24v76c0,13.332-10.664,24-24,24ZM656.68,758.15c-5.332,0-10.668,4-10.668,10.668v76c0,5.332,4,10.668,10.668,10.668h76c5.332,0,10.668-4,10.668-10.668v-76c0-5.332-4-10.668-10.668-10.668h-76Z"/><path d="M876.68,868.82h-76c-13.332,0-24-10.668-24-24v-76c0-13.332,10.668-24,24-24h76c13.332,0,24,10.668,24,24v76c0,13.332-10.664,24-24,24ZM800.68,758.15c-5.332,0-10.668,4-10.668,10.668v76c0,5.332,4,10.668,10.668,10.668h76c5.332,0,10.668-4,10.668-10.668v-76c0-5.332-4-10.668-10.668-10.668h-76Z"/><path d="M1020.65,868.82h-76c-13.332,0-24-10.668-24-24v-76c0-13.332,10.668-24,24-24h76c13.332,0,24,10.668,24,24v76c0,13.332-10.664,24-24,24ZM944.65,758.15c-5.332,0-10.668,4-10.668,10.668v76c0,5.332,4,10.668,10.668,10.668h76c5.332,0,10.668-4,10.668-10.668v-76c0-5.332-4-10.668-10.668-10.668h-76,0Z"/><circle class="cls-2" cx="549.994" cy="806.818" r="84.874"/><path d="M150.886,784.062l-22.759,22.759,22.757,22.759h0c1.023.988,1.606,2.345,1.618,3.767.012,1.422-.547,2.789-1.553,3.795-1.005,1.006-2.373,1.565-3.795,1.553s-2.779-.596-3.767-1.618l-22.759-22.759-22.759,22.759c-1.347,1.301-3.279,1.794-5.085,1.299-1.805-.495-3.216-1.906-3.711-3.711s0-3.738,1.299-5.085l22.759-22.759-22.759-22.759c-1.301-1.347-1.794-3.279-1.299-5.085s1.906-3.216,3.711-3.711,3.738,0,5.085,1.299l22.759,22.759,22.759-22.759c.988-1.023,2.345-1.606,3.767-1.618,1.422-.012,2.789.547,3.795,1.553,1.006,1.005,1.565,2.373,1.553,3.795-.012,1.422-.596,2.779-1.618,3.767h.002Z"/><path d="M293.54,784.06l-22.759,22.759,22.757,22.759h0c1.023.988,1.606,2.345,1.618,3.767.012,1.422-.547,2.789-1.553,3.795-1.005,1.006-2.373,1.565-3.795,1.553-1.422-.012-2.779-.596-3.767-1.618l-22.759-22.759-22.759,22.759c-1.347,1.301-3.279,1.794-5.085,1.299-1.805-.495-3.216-1.906-3.711-3.711s-.001-3.738,1.299-5.085l22.759-22.759-22.759-22.759c-1.301-1.347-1.794-3.279-1.299-5.085s1.906-3.216,3.711-3.711,3.738,0,5.085,1.299l22.759,22.759,22.759-22.759c.988-1.023,2.345-1.606,3.767-1.618,1.422-.012,2.789.547,3.795,1.553,1.006,1.005,1.565,2.373,1.553,3.795s-.596,2.779-1.618,3.767h.002Z"/><path d="M438.886,784.062l-22.759,22.759,22.757,22.759h0c1.023.988,1.606,2.345,1.618,3.767.012,1.422-.547,2.789-1.553,3.795-1.005,1.006-2.373,1.565-3.795,1.553-1.422-.012-2.779-.596-3.767-1.618l-22.759-22.759-22.759,22.759c-1.347,1.301-3.279,1.794-5.085,1.299-1.805-.495-3.216-1.906-3.711-3.711s-.001-3.738,1.299-5.085l22.759-22.759-22.759-22.759c-1.301-1.347-1.794-3.279-1.299-5.085s1.906-3.216,3.711-3.711,3.738,0,5.085,1.299l22.759,22.759,22.759-22.759c.988-1.023,2.345-1.606,3.767-1.618,1.422-.012,2.789.547,3.795,1.553,1.006,1.005,1.565,2.373,1.553,3.795s-.596,2.779-1.618,3.767h.002Z"/><path d="M543.772,137.356l13.814,1.974c2.761,1.185,4.341,2.763,4.341,5.13v104.979s13.024,1.974,13.024,1.974v-82.877c0-4.736,3.158-4.736,6.708-5.13l16.181,2.763c2.761,1.185,3.947,2.369,4.341,4.341v296.781s89.192-93.137,89.192-93.137c7.499-6.708,18.154-7.893,26.047-1.578l47.358,35.52c7.893,5.525,8.288,15.392,1.578,22.102l-202.855,210.749c-6.71,6.71-17.759,6.708-24.467,0l-202.855-210.749c-6.71-6.71-5.919-16.181,1.578-22.102l48.149-34.729c7.893-5.525,19.339-4.341,26.047,2.367l88.403,91.559V187.085c0-3.945,3.554-5.13,6.71-4.341l13.024,1.974c2.367,0,4.341,1.974,4.341,4.341v79.719s13.024,1.974,13.024,1.974v-127.872c0-3.945,3.552-4.341,6.71-4.341l-.394-1.179v-.004Z"/></svg>