<?xml version="1.0" encoding="UTF-8"?>
<svg id="Layer_1" data-name="Layer 1" xmlns="http://www.w3.org/2000/svg" viewBox="0 0 888.756 1013.398">
  <defs>
    <style>
      .cls-1 {
        fill: red;
        fill-rule: evenodd;
      }
    </style>
  </defs>
  <path d="M888.193,415.823s.562-1.688.562-2.438v-1.688c-1.125-193.87-173.26-392.06-277.5-409.31-65.25-10.875-94.875,17.625-118.69,40.5-17.625,16.875-28.5,26.438-48.188,26.438s-30.562-9.562-48.188-26.438c-23.812-22.875-53.25-51.375-118.69-40.5C173.06,19.826,0,219.128,0,413.578c0,.75.375,1.5.375,2.25,0,1.125,0,2.062.375,3.188,33.75,109.12,87.938,203.44,156.74,273.94,2.062,20.625,4.688,35.812,5.625,41.438,14.25,78.375,56.25,216.74,179.44,263.63,23.25,8.812,48.375,13.875,74.25,14.812,9,.375,18.188.562,27.375.562s18.188,0,27.375-.562c25.875-.938,51-5.812,74.25-14.812,123-46.875,165.19-185.26,179.44-263.63.938-5.625,3.562-20.812,5.625-41.438,68.625-70.312,122.81-164.81,156.74-273.94.375-1.125.188-2.25.375-3.188l.208-.005ZM639.563,413.76c-73.688-31.875-158.06,15.562-195,40.688-36.938-25.125-121.13-72.562-195-40.688-56.812,24.562-81.375,83.812-90.562,145.13-50.625-39.562-91.5-89.25-119.25-145.5,14.062-28.5,31.312-55.125,51.188-79.5h706.87c19.875,24.375,37.125,50.812,51.188,79.5-27.75,56.25-68.625,105.94-119.25,145.5-9.188-61.312-33.562-120.56-90.562-145.13h.378ZM763.303,296.38h-70.875v-55.312c25.5,16.125,49.312,34.5,70.875,55.312ZM654.923,296.38h-77.062v-106.88c26.812,7.875,52.5,18,77.062,30.375v76.505ZM540.363,296.38h-77.062v-125.63c26.25,1.125,51.938,3.938,77.062,9.188v116.443ZM425.803,296.38h-77.062v-116.44c25.125-5.25,50.812-8.062,77.062-9.188v125.628ZM311.243,296.38h-77.062v-76.5c24.562-12.375,50.25-22.5,77.062-30.375v106.875ZM196.683,296.38h-70.875c21.562-20.812,45.375-39.188,70.875-55.312v55.312ZM284.058,39.12c46.688-7.688,65.062,9.938,86.438,30.562,18,17.438,38.438,36.938,74.062,36.938s56.062-19.688,74.062-36.938c21.375-20.625,39.562-38.25,86.438-30.562,74.625,12.375,193.69,144.56,232.87,285.19-5.438-7.125-11.062-14.062-16.875-20.812-.562-.75-1.125-1.5-1.688-2.062-90.375-105-227.26-168.74-374.81-168.74s-284.63,63.75-375,168.74c-.562.562-1.125,1.312-1.688,2.062-5.812,6.75-11.438,13.688-16.875,20.812C90.181,183.68,209.253,51.5,283.863,39.12h.195ZM104.998,561.68c15.562,14.625,32.438,28.125,50.062,40.688-.562,10.312-.562,20.438-.562,30.188-17.812-21.75-34.312-45.375-49.5-70.875h0ZM532.868,962.94c-19.5,7.5-40.5,11.625-62.25,12.375-17.25.562-34.688.562-51.938,0-21.75-.75-42.75-4.875-62.25-12.375-105.94-40.312-143.06-164.81-155.81-235.31-.375-2.25-41.062-234.19,63.938-279.37,12.375-5.25,25.312-7.5,38.438-7.5,49.875,0,101.44,31.688,122.81,46.5v233.44c0,10.312,8.438,18.75,18.75,18.75s18.75-8.438,18.75-18.75v-233.44c27-18.75,102.38-64.312,161.26-39,105,45.375,64.312,277.13,63.938,279.37-12.75,70.5-50.062,195-155.81,235.31h.174ZM734.058,602.38c17.625-12.562,34.312-26.062,50.062-40.688-15.188,25.312-31.688,48.938-49.5,70.875,0-9.75,0-19.875-.562-30.188h0Z"/>
  <path class="cls-1" d="M197.305,794.197l-40.371-55.463,147.441,23.218-23.218,147.441-40.371-55.463-157.558,114.69-43.477-59.728,157.558-114.69-.004-.005h0Z"/>
</svg>