<?xml version="1.0" encoding="UTF-8"?>
<svg width="1200pt" height="1200pt" version="1.1" viewBox="0 0 1200 1200" xmlns="http://www.w3.org/2000/svg">
 <path d="m851.55 1200.4c-63.898 0-85.051-88.102-111.8-199.6-28.199-117.7-60.301-251.15-139.75-251.15s-111.5 133.5-139.75 251.15c-26.75 111.5-47.898 199.6-111.8 199.6-131.9 0-220-402.55-222.45-676.3-64.352-57.148-101-138.3-101-224.45 0-165.45 134.55-300 300-300 68.102 0 116 14.801 158.35 27.852 36.898 11.398 71.75 22.148 116.65 22.148 42.5 0 84-11.5 127.85-23.699 46.648-12.949 94.801-26.301 147.15-26.301 165.45 0 300 134.55 300 300 0 86.301-36.602 167.35-101.05 224.45-1.1016 141.25-23.898 303.1-61.352 435.4-31.051 109.85-84.199 240.9-161.05 240.9zm-251.55-500.85c118.9 0 155.85 153.85 188.4 289.55 15.449 64.25 38.648 161.3 63.25 161.3 71.25 0 172.5-329.95 172.5-637.9 0-7.4492 3.3008-14.551 9.1484-19.301 58.352-47.898 91.801-118.4 91.801-193.6 0-137.85-112.15-250-250-250-45.551 0-88.449 11.898-133.75 24.5-45.199 12.551-91.898 25.5-141.25 25.5-52.449 0-92.602-12.398-131.4-24.352-40.852-12.648-83.102-25.699-143.65-25.699-137.85 0-250 112.15-250 250 0 75.199 33.449 145.7 91.801 193.5 5.8008 4.75 9.1484 11.852 9.1484 19.352 0 139.6 22.199 301.65 59.5 433.35 45.648 161.45 92.5 204.5 112.95 204.5 24.5 0 47.801-96.949 63.199-161.25 32.5-135.6 69.449-289.45 188.35-289.45z"/>
 <path d="m798.45 251.1c-7.5 0-14.949-3.3516-19.801-9.8008-34.051-44.398-146.25-125.75-237.7-147.2-13.449-3.1016-21.801-16.602-18.648-30.051 3.1484-13.449 16.449-21.801 30.051-18.648 105.1 24.648 225.7 112.95 265.95 165.5 8.3984 10.949 6.3008 26.648-4.6484 35.051-4.5508 3.5-9.8984 5.1484-15.199 5.1484z"/>
</svg>
