<?xml version="1.0" encoding="UTF-8"?>
<svg width="1200pt" height="1200pt" version="1.1" viewBox="0 0 1200 1200" xmlns="http://www.w3.org/2000/svg">
 <path d="m863.76 488.4c0-33.961-23.398-68.398-68.039-68.398-37.801-0.12109-75.359 13.922-112.08 14.16-36.719-0.12109-74.281-14.281-112.08-14.16-44.641 0-68.039 34.441-68.039 68.398 0 52.199 19.199 82.922 30.719 101.28 2.7617 4.5586 6.3594 10.078 6.7188 11.641 0 2.2812-1.0781 9.1211-2.1602 15.602-4.4414 28.078-12.719 80.281 3.1211 116.16 13.559 30.84 45.602 51.48 71.281 45.961 16.559-3.4805 26.52-17.281 26.52-36.719 0-50.762 3.1211-86.762 44.039-86.762 40.922 0 44.039 36 44.039 86.762 0 19.559 9.8398 33.238 26.52 36.719 28.078 5.0391 57.359-15.84 71.281-45.961 15.84-35.879 7.5586-88.078 3.1211-116.16-1.0781-6.6016-2.1602-13.32-2.1602-15.238 0.35938-1.9219 3.8398-7.5586 6.7188-12 11.52-18.359 30.719-49.078 30.719-101.28zm-51 88.559c-6 9.6016-10.32 16.559-10.32 24.359 0 4.1992 0.96094 10.199 2.3984 19.441 4.0781 25.68 11.641 73.32-1.4414 102.72-10.199 23.16-33 34.559-44.281 32.16-2.0391-0.48047-7.4414-1.5586-7.4414-13.199 0-41.398 0-110.76-68.039-110.76-68.039 0-68.039 69.359-68.039 110.76 0 11.641-5.3984 12.84-7.4414 13.199-11.281 2.3984-34.078-9-44.281-32.16-12.961-29.398-5.3984-77.16-1.4414-102.72 1.4414-9.1211 2.3984-15.238 2.3984-19.441 0-7.8008-4.3203-14.762-10.32-24.359-10.801-17.281-27-43.32-27-88.559 0-22.078 13.559-44.398 44.039-44.398 36.719 0.12109 74.281 14.281 112.08 14.16 37.801 0.12109 75.359-13.922 112.08-14.16 30.359 0 44.039 22.32 44.039 44.398 0 45.359-16.32 71.398-27 88.559z"/>
 <path d="m1128 84h-864.6c-3.3594 0-6.6016 1.4414-8.8789 3.8398-71.879 78-233.88 264.12-185.76 309.6 38.281 36.121 106.92 44.16 134.52 45.961v120.48c0 3.2383 1.3203 6.2383 3.4805 8.5195 2.2812 2.2812 5.2812 3.4805 8.5195 3.4805h0.60156c31.922 0 120.24 7.3203 153.96 40.922 18.84 17.281 17.281 48.84 0 65.16-29.398 28.68-100.32 27-138.48 26.16-6.1211-0.12109-11.641-0.23828-16.199-0.23828-5.7617 0-10.68 4.0781-11.762 9.7188-1.3203 7.0781-32.52 175.44 26.398 246.48 17.52 21.121 40.801 31.801 69.48 31.801 23.52 0 50.281-1.4414 78.719-3 95.039-5.1602 213.36-11.762 265.44 37.559 18.961 17.879 28.078 41.879 28.078 73.441 0 6.6016 5.3984 12 12 12 6.6016 0 12-5.3984 12-12 0-37.922-12-68.52-35.641-90.961-59.641-56.398-178.44-49.801-283.32-44.039-28.078 1.5586-54.48 3-77.398 3-21.48 0-38.16-7.5586-51-23.039-44.281-53.398-28.559-180.48-22.922-216.84 46.922 0.96094 122.64 4.1992 161.28-32.879 26.762-25.199 28.441-73.078 0-99.359-39.48-39.359-127.32-46.441-159.6-47.641v-120.24c0-6.6016-5.2812-11.879-11.879-12-0.83984 0-89.281-1.3203-130.2-39.961-19.441-18.238 64.32-142.32 183.36-272.04h847.32v996c0 6.6016 5.3984 12 12 12 6.6016 0 12-5.3984 12-12v-1007.9c0-6.6016-5.3984-12-12-12z"/>
 <path d="m827.76 348v-84c0-6.6016-5.3984-12-12-12-6.6016 0-12 5.3984-12 12v84c0 6.6016 5.3984 12 12 12 6.6016 0 12-5.3984 12-12z"/>
 <path d="m1019.9 456h-84c-6.6016 0-12 5.3984-12 12s5.3984 12 12 12h84c6.6016 0 12-5.3984 12-12s-5.3984-12-12-12z"/>
 <path d="m980.4 303.48c-4.6797-4.6797-12.238-4.6797-17.039 0l-60 60c-11.16 10.801 6.1211 28.078 17.039 16.922l60-60c4.6797-4.6797 4.6797-12.238 0-16.922z"/>
</svg>
