<?xml version="1.0" encoding="UTF-8"?>
<svg id="Layer_1" data-name="Layer 1" xmlns="http://www.w3.org/2000/svg" viewBox="0 0 1021.474 995.289">
  <defs>
    <style>
      .cls-1 {
        fill-rule: evenodd;
      }
    </style>
  </defs>
  <path class="cls-1" d="M739.653,380.399c0-4.5,3.797-8.297,8.297-8.297h118.92c4.5,0,8.297,3.797,8.297,8.297v178.36c0,4.5-3.797,8.297-8.297,8.297h-118.92c-4.5,0-8.297-3.797-8.297-8.297v-178.36ZM747.996,597.999h118.92c21.656,0,39.234-17.578,39.234-39.234v-178.36c0-21.656-17.578-39.234-39.234-39.234h-118.92c-21.609,0-39.234,17.578-39.234,39.234v178.36c-.047,21.609,17.578,39.234,39.234,39.234ZM500.686,380.399c0-4.5,3.797-8.297,8.297-8.297h118.92c4.5,0,8.297,3.797,8.297,8.297v178.36c0,4.5-3.797,8.297-8.297,8.297h-118.92c-4.5,0-8.297-3.797-8.297-8.297v-178.36ZM508.983,597.999h118.92c21.656,0,39.234-17.578,39.234-39.234v-178.36c0-21.656-17.578-39.234-39.234-39.234h-118.92c-21.609,0-39.234,17.578-39.234,39.234v178.36c0,21.609,17.578,39.234,39.234,39.234ZM761.773,691.608c0,8.578-6.938,15.469-15.469,15.469h-116.72c-8.531,0-15.469-6.891-15.469-15.469,0-8.531,6.938-15.469,15.469-15.469h116.72c8.531-.047,15.469,6.938,15.469,15.469h0ZM852.429,721.561c-16.5,0-29.953-13.453-29.953-29.953s13.453-29.953,29.953-29.953,29.953,13.453,29.953,29.953-13.406,29.953-29.953,29.953ZM852.429,630.67c-33.609,0-60.891,27.328-60.891,60.938s27.328,60.938,60.891,60.938,60.938-27.328,60.938-60.938c-.047-33.609-27.375-60.938-60.938-60.938ZM523.409,661.654c16.547,0,29.953,13.453,29.953,29.953s-13.406,29.953-29.953,29.953-29.953-13.453-29.953-29.953,13.453-29.953,29.953-29.953ZM523.409,752.498c33.609,0,60.938-27.328,60.938-60.938s-27.328-60.938-60.938-60.938-60.938,27.328-60.938,60.938,27.375,60.938,60.938,60.938ZM887.069,964.318l-44.578-124.82h44.25l89.156,124.82h-88.828ZM535.549,925.318l12.141-33.938h280.5l12.094,33.938h-304.735ZM488.768,964.318h-88.828l89.156-124.82h44.25l-44.578,124.82ZM608.388,808.508l1.969-27.422c.703-9.516,4.359-14.531,5.859-15.516h143.39c1.453.984,5.156,6,5.859,15.516l1.969,27.422h-159.046ZM817.128,860.446h-258.42l7.5-21h243.42l7.5,21ZM437.258,772.087c0,20.109,16.359,36.422,36.469,36.422h103.69l2.109-29.672c1.828-25.641,17.062-44.25,36.234-44.25h144.32c19.172,0,34.453,18.609,36.234,44.25l2.156,29.672h103.64c20.109,0,36.469-16.359,36.469-36.422v-454.4c0-20.109-16.359-36.422-36.469-36.422l-428.39-.047c-20.109,0-36.469,16.359-36.469,36.422l.006,454.447ZM553.508,232.457c1.078-9.375,8.719-16.172,18.188-16.172h232.45c9.422,0,17.109,6.797,18.141,16.172l2.062,17.766-272.86.047,2.018-17.813ZM1018.608,970.777l-96.094-134.48c27.234-8.672,47.016-34.172,47.016-64.219l.047-454.4c0-37.172-30.234-67.406-67.406-67.406h-46.594l-2.484-21.328c-2.859-24.844-23.906-43.594-48.938-43.594h-232.45c-25.031,0-46.031,18.75-48.938,43.594l-2.484,21.328h-46.594c-37.172,0-67.406,30.234-67.406,67.406l.047,454.4c0,30.047,19.781,55.594,47.016,64.219l-96.047,134.48c-7.312,10.219.047,24.469,12.562,24.469h129.84c6.562,0,12.375-4.125,14.578-10.266l10.266-28.688h326.86l10.219,28.688c2.203,6.188,8.062,10.266,14.578,10.266h129.79c12.516,0,19.875-14.25,12.609-24.469h.008ZM130.088,515.957v330.28H30.994v-342.32h87.047c6.656,0,12.047,5.391,12.047,12.047v-.007ZM261.668,879.567v82.359c0,1.266-1.125,2.391-2.391,2.391H33.388c-1.266,0-2.391-1.125-2.391-2.391v-84.703h228.32c1.266,0,2.344,1.078,2.344,2.344h.007ZM516.568,30.937h359.34v40.688c0,5.906-4.781,10.688-10.688,10.688h-354.61c-5.859,0-10.688-4.781-10.688-10.688V30.937h16.646ZM331.088,30.937h137.9v40.688c0,22.969,18.656,41.625,41.625,41.625h354.61c22.969,0,41.625-18.656,41.625-41.625V15.469c0-8.578-6.938-15.469-15.469-15.469H325.119c-3.797,0-7.453,1.406-10.312,3.938L59.437,232.357c-3.281,2.906-5.156,7.125-5.156,11.531v229.03l-38.812.047c-8.531,0-15.469,6.938-15.469,15.469v473.48c0,18.375,14.953,33.375,33.328,33.375h225.94c18.375,0,33.328-14.953,33.328-33.375v-82.359c0-18.375-14.953-33.328-33.328-33.328h-98.25v-330.28c0-23.719-19.312-43.031-43.031-43.031h-32.766v-222.14L331.088,30.937Z"/>
</svg>