<?xml version="1.0" encoding="UTF-8"?>
<svg id="Layer_1" xmlns="http://www.w3.org/2000/svg" version="1.1" viewBox="0 0 948 348">
  <!-- Generator: Adobe Illustrator 29.2.1, SVG Export Plug-In . SVG Version: 2.1.0 Build 116)  -->
  <path d="M942.1,178.8c16.4,53-1.2,96.7-49.6,123.2-1.1.6-2.4.9-3.7.9H115.9c-4.2,0-7.6-3.4-7.6-7.6s3.4-7.6,7.6-7.6h770.9c51.3-29.1,50.5-72.8,40.7-104.4-25.4-81.9-138.8-174.5-205.6-167.7-.2,0-.5,0-.8,0H151.1c-4.2,0-7.6-3.5-7.6-7.7s3.4-7.6,7.6-7.6h569.7c73.9-7,193.7,89.5,221.3,178.4h0ZM114.5,15.6c4.2,0,7.6-3.4,7.6-7.6s-3.4-7.6-7.6-7.6H17.2c-4.2,0-7.6,3.4-7.6,7.6s3.4,7.6,7.6,7.6h97.4s0,0,0,0ZM721.1,138.9c16.5,18.7,39.3,30.2,64.5,30.2h104.4c1.4,0,2.7-.4,3.9-1.1,3.6-2.1,4.8-6.8,2.7-10.4-20.2-34.1-50.9-69.4-88.4-94.1-31.1-20.5-66.8-33.8-105.2-33.4-.2,0-.4,0-.6,0-4.2,0-7.6,3.4-7.6,7.6v29.7c0,27.8,10.1,53.1,26.4,71.5h0ZM151.1,68.1h-19.2c-7.6,0-14.5,3.1-19.5,8.1s-8.1,11.9-8.1,19.5v39.9c0,7.6,3.1,14.5,8.1,19.5s11.9,8.1,19.5,8.1h19.2c7.6,0,14.5-3.1,19.5-8.1s8.1-11.9,8.1-19.5v-39.9c0-7.6-3.1-14.5-8.1-19.5-5-5-11.9-8.1-19.5-8.1ZM505.2,163.1c7.6,0,14.5-3.1,19.5-8.1,5-5,8.1-11.9,8.1-19.5v-39.9c0-7.6-3.1-14.5-8.1-19.5s-11.9-8.1-19.5-8.1h-19.2c-7.6,0-14.5,3.1-19.5,8.1s-8.1,11.9-8.1,19.5v39.9c0,7.6,3.1,14.5,8.1,19.5s11.9,8.1,19.5,8.1h19.2ZM623.3,163.1c7.6,0,14.5-3.1,19.5-8.1,5-5,8.1-11.9,8.1-19.5v-39.9c0-7.6-3.1-14.5-8.1-19.5s-11.9-8.1-19.5-8.1h-19.2c-7.6,0-14.5,3.1-19.5,8.1-5,5-8.1,11.9-8.1,19.5v39.9c0,7.6,3.1,14.5,8.1,19.5,5,5,11.9,8.1,19.5,8.1h19.2ZM269.1,163.1c7.6,0,14.5-3.1,19.5-8.1s8.1-11.9,8.1-19.5v-39.9c0-7.6-3.1-14.5-8.1-19.5-5-5-11.9-8.1-19.5-8.1h-19.2c-7.6,0-14.5,3.1-19.5,8.1-5,5-8.1,11.9-8.1,19.5v39.9c0,7.6,3.1,14.5,8.1,19.5,5,5,11.9,8.1,19.5,8.1h19.2ZM387.2,163.1c7.6,0,14.5-3.1,19.5-8.1,5-5,8.1-11.9,8.1-19.5v-39.9c0-7.6-3.1-14.5-8.1-19.5s-11.9-8.1-19.5-8.1h-19.2c-7.6,0-14.5,3.1-19.5,8.1-5,5-8.1,11.9-8.1,19.5v39.9c0,7.6,3.1,14.5,8.1,19.5s11.9,8.1,19.5,8.1h19.2ZM811.9,223.6c-4.2,0-7.6,3.4-7.6,7.6s3.4,7.6,7.6,7.6h77.8c4.2,0,7.6-3.4,7.6-7.6s-3.4-7.6-7.6-7.6h-77.8ZM101.9,223.6h-45c-4.2,0-7.6,3.4-7.6,7.6s3.4,7.6,7.6,7.6h45c4.2,0,7.6-3.4,7.6-7.6s-3.4-7.6-7.6-7.6ZM775.4,238.8c4.2,0,7.6-3.4,7.6-7.6s-3.4-7.6-7.6-7.6H138.4c-4.2,0-7.6,3.4-7.6,7.6s3.4,7.6,7.6,7.6h637s0,0,0,0ZM0,183.9c0,4.2,3.4,7.6,7.6,7.6h79.6c4.2,0,7.6-3.4,7.6-7.6s-3.4-7.6-7.6-7.6H7.6c-4.2,0-7.6,3.4-7.6,7.6ZM93.2,62.5c4.2,0,7.6-3.4,7.6-7.6s-3.4-7.6-7.6-7.6h-39.8c-4.2,0-7.6,3.4-7.6,7.6s3.4,7.6,7.6,7.6h39.8ZM39.3,332.8c-4.2,0-7.6,3.4-7.6,7.6s3.4,7.6,7.6,7.6h880.7c4.2,0,7.6-3.4,7.6-7.6s-3.4-7.6-7.6-7.6h-87.8c1.5-1.1,3-2.3,4.4-3.6,5.2-5.2,9-12,10.5-19.5h-75c1.5,7.5,5.2,14.2,10.5,19.5,1.4,1.4,2.9,2.5,4.4,3.6h-92.2c1.5-1.1,3-2.3,4.4-3.6,5.2-5.2,9-12,10.5-19.5h-75c1.5,7.5,5.2,14.2,10.5,19.5,1.4,1.4,2.9,2.5,4.4,3.6h-138c1.5-1.1,3-2.3,4.4-3.6,5.2-5.2,9-12,10.5-19.5h-75c1.5,7.5,5.2,14.2,10.5,19.5s2.9,2.5,4.4,3.6h-92.2c1.5-1.1,3-2.3,4.4-3.6,5.2-5.2,9-12,10.5-19.5h-75c1.5,7.5,5.2,14.2,10.5,19.5,1.4,1.4,2.9,2.5,4.4,3.6h-138c1.5-1.1,3-2.3,4.4-3.6,5.2-5.2,9-12,10.5-19.5h-75c1.5,7.5,5.2,14.2,10.5,19.5s2.9,2.5,4.4,3.6H39.4s-.1,0-.1,0Z"/>
</svg>