<?xml version="1.0" encoding="UTF-8"?>
<svg width="1200pt" height="1200pt" version="1.1" viewBox="0 0 1200 1200" xmlns="http://www.w3.org/2000/svg">
 <path d="m709.92 1162.4h-305.82c-6.0469 0-11.578-3.4219-14.297-8.8125-2.7188-5.4375-2.1094-11.906 1.5-16.734 53.719-71.438 211.08-331.22-18.141-674.11-3.0938-4.5938-3.4219-10.5-1.125-15.516 2.2969-5.0156 7.1719-8.5312 12.703-9.1875 0 0 60.047-7.5469 130.13 62.859 4.2188-36.281 20.438-90 72.188-148.78 4.5-5.1094 11.766-6.7969 18.094-4.2188 6.3281 2.625 10.266 8.9531 9.8438 15.75-0.14062 2.4375-13.078 213.14 10.5 342.52 23.578-62.203 77.578-152.26 192.32-152.26 10.406 0 21.188 0.75 32.109 2.25 6.1875 0.84375 11.344 5.25 13.125 11.25s-0.09375 12.516-4.8281 16.594c-1.5938 1.4062-158.81 140.21-212.68 336.94-1.2656 5.1562-31.875 133.31 72.188 211.74 4.7812 2.7656 8.0156 7.9219 8.0156 13.875 0 8.8125-7.125 15.984-15.938 15.984zm-275.16-31.922h233.21c-84.047-90.703-54.609-212.06-53.156-217.78 43.125-157.5 145.87-276.52 195.32-326.81-140.58 6.2344-169.18 181.03-169.45 182.81-1.125 7.1719-6.8906 12.703-14.109 13.453-7.125 0.70312-14.016-3.4219-16.594-10.219-33.656-88.688-32.25-269.53-29.203-358.74-45.234 71.344-34.312 124.64-33.75 127.26 1.5938 7.3125-2.0625 14.812-8.8594 17.953-6.75 3.1875-14.812 1.2656-19.406-4.6875-38.578-50.156-75.141-70.453-99.703-78.656 192.37 313.13 79.641 557.53 15.656 655.36z" fill-rule="evenodd"/>
 <path d="m507.61 794.53c-22.125 0-42.797-8.8125-58.172-24.75-10.266-10.641-17.25-23.531-20.484-37.453-14.766 2.2031-30.094 0.375-44.062-5.6719-13.875-6-25.688-15.75-34.219-27.891-40.406 26.766-87.75 20.016-119.81-0.84375-32.203-20.953-57.562-61.922-48.797-110.2-26.109-6.75-47.25-26.25-56.016-51.844-28.547 4.1719-57.375-3-81.188-20.578-28.359-20.953-44.625-53.203-44.625-88.5 0-49.5 33.516-92.344 79.5-105.8-6.75-21.844-3.8438-45.75 8.8125-66.141 13.312-21.469 35.016-34.922 59.25-37.594 1.0312-23.25 12.047-44.672 31.219-59.484 18.188-14.062 40.875-19.547 62.719-15.938 7.6406-39.656 36-71.344 76.406-83.484 40.828-12.234 82.359-1.1719 110.62 28.219 15-12.938 34.266-20.062 54.703-19.5 22.5 0.5625 43.312 10.312 57.984 26.672 25.781-9.8438 54.516-5.7188 76.359 10.453 10.266-14.344 25.078-25.125 42.375-30.328 19.688-5.9062 40.688-4.0781 58.781 4.7812 22.594-28.219 57.516-43.5 94.406-40.688 37.406 2.9062 69.844 23.859 87.656 55.875 19.219-4.2656 39.281-1.3594 56.859 8.5781 17.578 9.8906 30.469 25.453 36.75 44.016 16.266-0.23438 32.484 4.6406 46.406 14.156s24.188 22.734 29.953 38.109c28.078-0.98438 54.844 12.609 70.594 37.266 15.141 23.719 16.922 52.172 5.7656 76.594 29.25 17.906 48.609 48.609 51.891 83.625 3.4688 36.844-11.531 72.281-39.609 95.344 10.547 33.797 4.2188 70.969-17.719 99.75-22.078 28.969-55.641 44.672-91.125 43.312-9.5156 23.156-26.484 42.234-48.891 54.516-22.828 12.562-48.703 16.594-73.922 11.625-11.672 14.625-28.219 24.844-46.781 28.688-15.562 3.2344-31.594 1.7344-46.078-4.0312-8.8594 18.469-23.953 32.25-43.406 39-29.156 10.125-63.141 3.0469-88.688-18.422-6.75-5.6719-7.5938-15.75-1.9219-22.5s15.75-7.6406 22.5-1.9219c16.734 14.062 39.375 19.031 57.656 12.703 15.281-5.2969 25.688-17.812 29.297-35.203 1.125-5.3438 4.875-9.75 9.9844-11.672 5.1094-1.9688 10.828-1.125 15.234 2.1562 11.156 8.3906 25.359 11.531 39 8.7188 13.688-2.8125 25.547-11.391 32.484-23.531 3.75-6.4688 11.484-9.5156 18.562-7.3125 20.438 6.2812 42 4.125 60.75-6.1875 18.75-10.266 32.203-27.281 37.828-47.812 2.1562-7.8281 9.8906-12.797 17.859-11.531 28.828 4.5 56.625-6.6562 74.25-29.812 17.766-23.297 21.234-53.062 9.3281-79.594-3.2344-7.2188-0.70312-15.75 5.9531-19.969 25.125-16.078 38.438-43.453 35.672-73.219-2.8125-29.766-20.953-54.188-48.562-65.297-4.6406-1.875-8.1562-5.8125-9.4219-10.688-1.3125-4.8281-0.23438-9.9844 2.8125-13.969 15.469-19.828 11.391-42 2.3906-56.109-8.9062-13.969-27.188-26.953-51.797-21.281-4.2188 0.98438-8.7656 0.1875-12.469-2.2969-3.6562-2.4375-6.1406-6.2812-6.8906-10.594-2.2031-13.078-9.5156-24.469-20.531-32.016s-24.281-10.219-37.406-7.5469c-4.2656 0.89062-8.8125-0.046875-12.422-2.625s-6-6.4688-6.6094-10.875c-2.1094-15.141-10.969-28.172-24.328-35.672-13.5-7.5469-29.25-8.3906-43.312-2.2969-3.9844 1.7344-8.4844 1.7812-12.469 0.09375s-7.1719-4.875-8.7188-8.9062c-11.203-28.5-36.188-46.969-66.844-49.312s-58.172 12.047-73.641 38.484c-2.3438 3.9844-6.2812 6.75-10.828 7.6406-4.5 0.89062-9.2344-0.28125-12.844-3.1406-12.609-9.9844-28.734-12.984-44.203-8.3438-15.422 4.6406-27.188 16.078-32.203 31.359-1.875 5.6719-6.75 9.7969-12.609 10.781-5.9062 0.9375-11.812-1.4531-15.375-6.2812-15.047-20.344-42.703-25.875-64.359-12.797-7.5 4.5469-17.25 2.1562-21.844-5.2969-8.8125-14.297-23.484-22.781-40.312-23.156-16.969-0.42188-31.922 7.2656-41.438 21.141-2.9531 4.3594-7.9219 6.9375-13.172 6.9375h-0.09375c-5.2969 0-10.219-2.6719-13.172-7.0781-23.625-35.203-61.922-38.719-87.516-31.078-26.672 8.0156-55.359 31.641-55.688 73.922-0.046875 5.4375-2.8594 10.453-7.4531 13.359s-10.359 3.2812-15.234 0.98438c-16.781-7.7812-35.578-5.625-50.391 5.8125-14.672 11.344-21.422 29.062-18.047 47.344 0.9375 4.9688-0.60938 10.125-4.0781 13.828s-8.4844 5.4844-13.547 4.9219c-19.312-2.3906-36.984 6.0938-47.203 22.641-7.9688 12.844-12.047 33.375 0.51562 52.453 3.0938 4.7344 3.4688 10.734 0.98438 15.797s-7.4531 8.4375-13.078 8.9062c-40.359 3.1875-71.906 37.453-71.906 78 0 25.031 11.531 47.953 31.641 62.812 20.25 14.953 45.562 19.312 69.516 12 4.5469-1.4062 9.4688-0.70312 13.453 1.9219s6.5625 6.8438 7.0781 11.578c2.7188 24.609 23.484 43.172 48.281 43.266 5.2031 0 10.031 2.5312 13.031 6.7969s3.7031 9.6562 1.9688 14.578c-15.281 42.656 7.1719 75.938 31.078 91.453 24.047 15.656 63.75 22.781 96.562-8.4844 3.9375-3.75 9.4688-5.2031 14.719-3.9844 5.25 1.2656 9.5156 5.0625 11.344 10.172 4.5938 12.891 14.062 23.016 26.672 28.406 12.609 5.4375 26.438 5.3906 38.953-0.14062 5.0156-2.25 10.875-1.6875 15.422 1.4062s7.1719 8.2969 6.9844 13.781c-0.46875 13.172 4.3594 25.641 13.547 35.25 9.2812 9.6562 21.797 15 35.156 15 8.8125 0 15.984 7.1719 15.984 15.984s-7.1719 15.938-15.984 15.938z" fill-rule="evenodd"/>
 <path d="m252.19 528.37c-4.2188 0-8.4375-1.6875-11.578-4.9688-50.062-52.734-26.906-122.63-7.6875-152.26 4.7812-7.4062 14.672-9.4688 22.078-4.6875s9.5156 14.672 4.7344 22.031c-1.7344 2.7188-41.062 65.438 4.0312 112.92 6.0938 6.4219 5.8125 16.5-0.60938 22.594-3.0938 2.9531-7.0312 4.4062-10.969 4.4062z" fill-rule="evenodd"/>
 <path d="m327.74 355.4c-6.1875 0-12.047-3.6094-14.672-9.6562-3.4688-8.1094 0.23438-17.484 8.3438-21 53.719-23.156 57.609-80.25 57.656-80.812 0.51563-8.8125 8.0625-15.609 16.875-15 8.8125 0.51562 15.516 8.0625 15 16.875-0.1875 3.1406-5.2969 77.484-76.875 108.28-2.0625 0.89062-4.1719 1.3125-6.2812 1.3125z" fill-rule="evenodd"/>
 <path d="m680.44 514.64c-6.4219 0-12.469-3.8906-14.906-10.219-3.1875-8.25 0.9375-17.484 9.1406-20.625 72.422-27.938 85.688-55.453 84.703-63.703 0.09375 0.70312 0.23438 1.0781 0.23438 1.0781l30.703-8.7656c2.625 9.1875 9.9375 57.188-104.16 101.16-1.875 0.70312-3.8438 1.0781-5.7656 1.0781z" fill-rule="evenodd"/>
 <path d="m975.66 482.76c-4.0781 0-8.1562-1.5469-11.297-4.6875-6.2344-6.2344-6.2344-16.359 0-22.594 33.422-33.422 13.781-73.781 13.594-74.203-3.9375-7.875-0.75-17.484 7.125-21.422s17.438-0.75 21.422 7.125c10.547 21.094 20.016 71.438-19.547 111.05-3.1406 3.1406-7.2188 4.6875-11.297 4.6875z" fill-rule="evenodd"/>
 <path d="m852.37 410.26c-4.5 0-9-1.9219-12.188-5.625-5.7188-6.7031-4.9219-16.781 1.8281-22.5 23.953-20.391 35.25-38.531 33.562-53.953-1.9688-17.859-21.234-36.234-58.969-56.109-34.734-18.328-57-40.219-66.094-65.062-3.0469-8.2969 1.2188-17.438 9.4688-20.484 8.2969-3.0469 17.438 1.2188 20.484 9.5156 4.3594 11.812 16.734 29.719 51.047 47.812 30.516 16.078 71.531 41.906 75.797 80.859 2.9531 27-11.625 53.719-44.578 81.797-3 2.5312-6.6562 3.7969-10.312 3.7969z" fill-rule="evenodd"/>
 <path d="m472.82 382.4c-4.0781 0-8.1562-1.5469-11.297-4.6875-6.2344-6.2344-6.2344-16.359 0-22.594 33-33 14.344-72.609 13.547-74.25-3.7969-7.9219-0.5625-17.438 7.3125-21.328s17.391-0.70312 21.328 7.125c10.547 21.094 20.016 71.438-19.547 111.05-3.0938 3.0938-7.2188 4.6875-11.297 4.6875z" fill-rule="evenodd"/>
 <path d="m637.45 313.03c-4.0781 0-8.1562-1.5469-11.297-4.6875-6.2344-6.2344-6.2344-16.359 0-22.594 33.375-33.422 13.781-73.781 13.594-74.203-3.9375-7.875-0.75-17.484 7.1719-21.422 7.875-3.9375 17.438-0.75 21.422 7.125 10.547 21.094 20.016 71.438-19.547 111.05-3.0938 3.1406-7.2188 4.6875-11.297 4.6875z" fill-rule="evenodd"/>
</svg>
