<?xml version="1.0" encoding="UTF-8"?>
<svg id="Layer_1" data-name="Layer 1" xmlns="http://www.w3.org/2000/svg" viewBox="0 0 1187.964 605.296">
  <path d="M1164.211,433.543c-.562-24.984,2.109-58.875-.047-90.984.047-2.156.047-4.359.188-6.375-1.359-10.875-1.172-28.875-8.625-38.438-4.453-12.422-10.688-23.297-20.203-30.984-36.797-44.578-114-20.906-162.14-31.969-49.547-35.156-179.86-210.47-237.42-226.55-37.031-14.438-155.68-4.969-195.37-7.5-31.031-.047-56.625,25.5-56.578,56.578v176.58l-420.94-.047c-21.562,0-39.469,17.812-39.422,39.422v160.55c-13.312,4.266-23.25,16.359-23.25,30.984-.328,26.953-5.484,68.062,32.953,69.141h95.25c16.547,39.375,52.969,70.359,110.06,71.344,57.047-.984,93.469-31.922,110.06-71.344h490.5c16.547,39.375,52.969,70.312,110.06,71.344,57.047-.984,93.469-31.922,110.06-71.344h95.25c18.141,0,32.953-14.812,33-32.953.328-24.375,4.219-59.953-23.391-67.453l.005-.002ZM1140.07,311.283c2.906,10.359,4.266,22.031,4.922,34.031.047,11.156-.375,22.219-.094,29.953-13.453-1.406-40.406,4.734-39.469-7.125.797-2.766-2.062-54.562,2.109-54.75,2.438-4.078,27.328-1.406,32.531-2.109h0ZM43.07,311.283h32.297c3.938.047,7.172,3.188,7.125,7.125v49.688c1.219,12.047-28.641,5.672-39.469,7.125l.047-63.938ZM122.148,514.303c-28.031.281-98.859,2.812-98.391-3.75-2.438-2.438-3.938-5.812-3.938-9.516,1.266-7.406-3.516-40.734,3.984-45.75-.094-2.297,9.375-3.422,22.266-3.938h60c6.281.094,11.578.188,16.078.234-4.969,20.531-4.969,42.141,0,62.719h0ZM165.789,555.741c-94.031-97.172,48.375-239.68,145.6-145.6,94.172,97.219-48.328,239.68-145.6,145.6ZM238.633,360.501c-57.094.984-93.469,31.922-110.06,71.344H43.073v-37.125c16.828.422,42.984,3,51.141-7.828,4.781-4.828,7.781-11.484,7.828-18.75-1.781-13.547,5.391-57.938-7.172-67.781-8.203-11.719-34.641-8.859-51.797-8.484v-18.562c0-5.531,2.25-10.5,5.859-14.156,3.562-3.609,8.578-5.812,14.109-5.812h420.98v178.5h-135.28c-16.594-39.375-52.969-70.359-110.11-71.344h.001ZM832.873,514.531h-477.79c5.016-20.719,5.016-42.469,0-63.188h477.74c-4.969,20.672-4.969,42.469.047,63.188h.003ZM876.467,555.734c-94.031-97.172,48.375-239.68,145.6-145.6,94.125,97.219-48.375,239.68-145.6,145.6ZM949.311,360.494c-57.094.984-93.469,31.922-110.06,71.344h-335.76V57.258c0-20.438,16.594-37.125,37.078-37.078h146.29c37.781-.562,64.453,11.203,96.938,45.281l163.97,174.24c10.875,11.531,25.031,17.766,40.969,17.766,36.609,1.922,106.88-9.938,133.03,23.109,3.797,3.094,6.797,7.031,9.516,11.25l-18.703-.047c-14.672,0-26.625,11.953-26.625,26.625,1.875,14.062-5.766,58.594,7.828,68.531,8.297,10.781,34.406,8.109,51.234,7.734-.469,14.109-.891,27.047-.094,37.172h-85.5c-16.594-39.375-53.016-70.359-110.11-71.344v-.004ZM1164.131,510.544c.234,6.562-70.312,4.031-98.344,3.75,4.922-20.578,4.969-42.188,0-62.719,4.453-.047,9.656-.094,15.844-.234h60.188c13.031.516,22.547,1.641,22.359,3.984,2.438,2.438,3.984,5.812,3.984,9.516-1.312,7.359,3.422,40.688-4.031,45.703h0ZM847.951,160.524c-9.984.703-26.344-1.078-39.609,1.359-35.391-34.266-77.672-99.656-117-95.297-32.859,2.484-112.78-7.547-123.1,9.797-6,6-9.75,14.344-9.75,23.438v124.4c0,18.188,15,33.234,33.234,33.234h226.82c10.828.938,22.453.422,33,0h18.141c2.719,0,5.109-1.125,6.891-2.906.703-.75.75-1.828,1.172-2.766.656-1.312,1.688-2.484,1.688-4.078v-55.734c0-17.25-14.156-31.453-31.5-31.453l.014.006ZM782.513,225.962c.094,4.734,1.125,8.531,2.484,12h-193.26c-7.594,0-13.781-6.094-13.734-13.734v-124.45c0-7.594,6.141-13.781,13.734-13.734h99.656c12.797,0,23.484,4.641,32.25,13.922l67.219,71.391c-12.094,11.719-7.266,39.984-8.344,54.609l-.006-.004ZM859.951,237.962h-45.938c-6.609,0-11.953-5.391-12-12,1.922-11.25-7.031-46.453,12-45.938,6.562,1.125,38.062-3.094,42.422,3.516,6.891,4.078,2.297,47.719,3.516,54.422h0ZM598.211,314.696h-30c-12.609.188-12.656-19.641,0-19.453h30c12.656-.188,12.656,19.641,0,19.453ZM949.311,432.676c-66,1.172-66,99.234,0,100.45,65.672-.328,65.625-100.08,0-100.45ZM927.561,504.676c-28.359-28.5,15-71.812,43.5-43.5,28.312,28.5-15.047,71.812-43.5,43.5ZM238.641,432.676c-66,1.172-66,99.234,0,100.45,65.719-.328,65.625-100.08,0-100.45ZM216.891,504.676c-28.359-28.5,15-71.812,43.5-43.5,28.359,28.453-15.047,71.812-43.5,43.5Z"/>
</svg>