<?xml version="1.0" encoding="UTF-8"?>
<svg id="Layer_1" data-name="Layer 1" xmlns="http://www.w3.org/2000/svg" viewBox="0 0 1146.862 427.437">
  <path d="M1143.931,267.687v-15.75c0-1.5-.375-3-.938-4.312l-37.5-77.25c-19.5-39.188-188.81-57.375-229.69-61.125-49.875-39.562-92.062-66.562-136.5-87.188-11.25-5.25-22.875-9.188-34.125-11.625-57-12.375-165.56-15.375-230.62,0-13.875,3.375-24.75,14.625-27.562,28.875l-13.875,69.562H47.062c-4.5,0-8.25,3.188-9.188,7.5l-8.25,40.688c-6.938,9.75-10.688,24.375-12.562,34.688-3,15.562-5.812,42.375,7.875,47.625h.562v.562h-5.438c-11.062,0-20.062,9-20.062,20.062,0,14.25,0,40.5,20.062,53.438,1.5.938,3.188,1.5,5.062,1.5h2.438l141.56,17.625c4.312,53.062,48.75,94.875,102.75,94.875s97.5-40.875,102.56-93l79.875,2.062,391.69,9.75c10.125,46.312,51.375,81.188,100.69,81.188s87.562-32.438,99.375-76.312l50.25,1.312h.188c3.375,0,6.375-1.688,8.062-4.5l8.438-14.25h15c3.188,0,6-1.5,7.688-4.125,11.812-17.25,14.062-37.688,7.688-62.25l.557.374ZM1109.993,223.437c-15.75-1.5-30-7.125-43.125-17.438l-2.812-5.25c12.938-1.125,25.5.562,37.312,4.5l8.625,18.188ZM465.373,43.247c1.5-7.125,6.75-12.75,13.5-14.438,62.438-15,167.25-12,222.19,0,9.938,2.25,20.062,5.625,30.188,10.312,43.688,20.438,85.312,47.062,134.81,86.625,1.5,1.125,3.188,1.875,5.062,2.062,83.438,7.5,206.06,28.5,217.31,51l2.25,4.875c-13.875-2.438-28.312-2.25-43.312.75-3,.562-5.438,2.438-6.562,5.25s-1.125,5.812.188,8.438l10.125,18.75c.562,1.125,1.312,2.062,2.25,2.812,18.938,15.562,40.688,23.25,64.688,23.25h1.125l5.812,11.438v3.75l-70.5-7.875c-18.375-40.875-58.875-66-107.62-66-44.25,0-81.375,20.062-102,54.938-16.312,27.562-19.688,60.375-9.562,88.688l-372.75-9.375c-12.188-72.188-16.688-144.19-12.562-198l15.375-77.062-.004-.188ZM947.063,221.557c-46.312,0-85.5,30.75-98.625,72.75,0-15.562,4.125-31.5,12.562-45.938,17.25-29.062,48.562-45.75,85.875-45.75,43.688,0,78.375,22.312,92.625,59.438,4.125,10.688,6,21.562,6,32.438-12.938-42.188-52.312-73.125-98.625-73.125l.188.187ZM430.873,127.807c-3.188,54,1.312,121.88,12.562,189.94l-49.5-1.312v-1.312c0-72.375-58.875-131.25-131.25-131.25s-127.88,55.688-130.88,125.44l-54-6.75c7.875-19.125,6.562-38.438-3.562-57.375-1.688-3-4.875-4.875-8.25-4.875h-21.562l.562-5.812c16.5-10.5,33.375-33.188,41.625-51,3.75-8.062,3.188-17.438-1.5-24.938-4.875-7.688-13.125-12.188-22.125-12.188h-11.812l3.75-18.75h375.94l.002.183ZM374.811,316.057c-4.312-52.875-48.75-94.5-102.75-94.5s-97.312,40.688-102.56,92.625l-19.125-2.438c1.875-60.375,51.562-108.94,112.31-108.94s112.5,50.438,112.5,112.5v.75l-.375.003ZM33.561,219.682c-.75-8.625.938-25.875,6.375-41.062,3.938-11.062,7.5-13.312,7.125-13.312h15.562c3.75,0,5.625,2.438,6.375,3.562.562.938,1.875,3.75.562,6.938-9.562,20.625-26.25,38.438-36,44.062v-.188ZM18.936,260.182s.562-1.312,1.312-1.312h39.938c5.438,12.562,5.438,24.938,0,37.5h-31.688c-7.875-6.562-9.562-18.938-9.562-36.188h0ZM272.246,408.872c-46.5,0-84.375-37.875-84.375-84.375s37.875-84.375,84.375-84.375,84.375,37.875,84.375,84.375-37.875,84.375-84.375,84.375ZM947.246,408.872c-46.5,0-84.375-37.875-84.375-84.375s37.875-84.375,84.375-84.375,84.375,37.875,84.375,84.375-37.875,84.375-84.375,84.375h0ZM1123.496,315.122h-15c-3.375,0-6.375,1.688-8.062,4.5l-8.438,14.062-35.062-.938c8.062-19.312,9.75-41.625,4.688-63.188l65.438,7.312c3.188,15.188,2.062,27.562-3.75,38.25h.187Z"/>
  <path d="M572.051,165.307c5.25,0,9.375-4.125,9.375-9.375s-4.125-9.375-9.375-9.375h-18.75c-5.25,0-9.375,4.125-9.375,9.375s4.125,9.375,9.375,9.375h18.75Z"/>
  <path d="M808.491,229.997c-7.312,9-13.5,18.75-17.625,28.5l-284.44-18.938c-5.062,0-9.562,3.562-9.938,8.812s3.562,9.562,8.812,9.938l291.19,19.312h.562c3.938,0,7.5-2.438,8.812-6.188,3.562-9.938,9.375-20.25,17.062-29.625,3.375-3.938,2.812-9.938-1.312-13.125-3.938-3.188-9.938-2.812-13.125,1.312h0Z"/>
  <path d="M272.051,277.807c-25.875,0-46.875,21-46.875,46.875s21,46.875,46.875,46.875,46.875-21,46.875-46.875-21-46.875-46.875-46.875ZM272.051,352.807c-15.562,0-28.125-12.562-28.125-28.125s12.562-28.125,28.125-28.125,28.125,12.562,28.125,28.125-12.562,28.125-28.125,28.125Z"/>
  <path d="M947.051,277.807c-25.875,0-46.875,21-46.875,46.875s21,46.875,46.875,46.875,46.875-21,46.875-46.875-21-46.875-46.875-46.875ZM947.051,352.807c-15.562,0-28.125-12.562-28.125-28.125s12.562-28.125,28.125-28.125,28.125,12.562,28.125,28.125-12.562,28.125-28.125,28.125Z"/>
  <path d="M478.121,127.807l271.88,7.688c10.5,7.688,25.312,14.25,45.75,19.5,1.875.562,3.938.75,5.812.75,5.25,0,10.125-1.688,14.438-5.062,5.812-4.5,9.188-11.25,9.188-18.75v-13.688c0-12.375-9.562-22.688-21.938-23.438l-11.625-.938c-65.25-49.688-159.38-71.25-272.81-62.062-17.438,1.312-31.875,13.875-36.188,31.125l-13.312,53.062c-.75,2.812,0,5.625,1.688,7.875s4.312,3.562,7.125,3.75l-.008.188ZM562.683,48.682c77.062-.75,142.69,14.25,193.5,44.062-6.938,1.875-12.75,6.938-15.75,14.062-1.312,3.188-1.5,6.375-1.5,9.375l-176.44-4.875v-62.625h.19ZM806.433,118.432v13.688c0,2.062-1.125,3.375-1.875,3.938s-2.062,1.312-4.125.938c-19.125-4.875-32.812-10.875-41.062-17.438-2.25-1.875-1.875-4.125-1.312-5.438.375-1.125,1.5-3.375,4.875-3.188l39,2.812c2.438,0,4.5,2.25,4.5,4.875v-.188ZM500.813,67.62c2.25-9.375,10.125-16.312,19.5-17.062,8.062-.562,15.75-.75,23.625-1.125v61.5l-53.625-1.5,10.5-41.813Z"/>
</svg>