<?xml version="1.0" encoding="UTF-8"?><svg id="Layer_1" xmlns="http://www.w3.org/2000/svg" viewBox="0 0 64 64"><defs><style>.cls-1{fill:#fff;stroke:#000;stroke-miterlimit:10;stroke-width:3px;}</style></defs><rect class="cls-1" x="1.5" y="1.5" width="61" height="61" rx="7" ry="7"/><path d="M50.703,37.479c-.244.11-.47.255-.671.432-.19.131-.365.284-.521.455,0,.471.139,1.031.194,1.663.155,1.288-.025,2.593-.521,3.791-.222.554-.482,1.075-.632,1.519.128.241.283.468.46.676h0c.13.198.291.374.477.521.76-.204,1.436-.644,1.929-1.258,1.429-1.692,1.747-4.06.815-6.07-.311-.726-.848-1.332-1.53-1.729Z"/><path d="M54.123,46.619c-.525.936-1.102,1.841-1.729,2.711.088.264.232.506.421.71.238.305.455.516.51.493,1.199-.547,2.24-1.388,3.027-2.444,2.256-2.942,2.785-6.858,1.391-10.293-.478-1.228-1.26-2.316-2.273-3.16-.05-.039-.366.139-.693.399s-.51.443-.493.488c.37,1.009.683,2.038.937,3.082.613,2.718.22,5.566-1.109,8.015h.011Z"/><path d="M49.173,28.272c-.068-.118-.144-.231-.227-.338-.163-.206-.349-.392-.554-.554-.294-.227-.607-.427-.937-.599l-.626-.382c-.396-.268-.767-.57-1.109-.904-.336-.338-.637-.709-.898-1.109-.255-.398-.472-.82-.649-1.258-.173-.444-.301-.905-.382-1.375-.04-.233-.068-.468-.083-.704l-.078-.904c-.078-1.264-.295-2.515-.649-3.73-.342-1.252-.843-2.456-1.491-3.581-.331-.579-.702-1.135-1.109-1.663-.417-.518-.871-1.005-1.358-1.458-1.943-1.742-4.309-2.944-6.862-3.487-.304-.084-.613-.149-.926-.194l-.931-.161c-.621-.1-1.236-.133-1.857-.2-1.229-.073-2.462-.073-3.692,0-4.944.245-9.648,2.205-13.303,5.543-1.729,1.632-3.119,3.589-4.091,5.759-2.26,5.083-2.138,10.908.333,15.892.222.455.464.896.726,1.325l.687,1.164c1.594,2.814,2.485,5.97,2.6,9.201.09,2.626-.353,5.243-1.303,7.694-.2.41-.03.904.38,1.105.003.001.006.003.008.004.405.106.824-.112.97-.504,1.223-2.603,1.869-5.439,1.896-8.315.035-3.585-.822-7.122-2.494-10.293l-.687-1.253c-.214-.37-.414-.761-.599-1.175-2.01-4.341-2.01-9.345,0-13.686.861-1.82,2.07-3.455,3.559-4.811,3.179-2.829,7.234-4.479,11.485-4.673,1.108-.054,2.219-.043,3.326.033.554.067,1.109.089,1.63.183l.804.139c.268.039.533.096.793.172,2.053.437,3.955,1.407,5.515,2.81.375.345.725.715,1.048,1.109.313.409.598.839.854,1.286.525.909.931,1.881,1.208,2.893.303,1.029.489,2.089.554,3.16l.039.399c0,.139.028.244.039.438.024.344.067.686.127,1.025.118.671.304,1.328.554,1.962.257.633.574,1.24.948,1.813.382.562.82,1.084,1.308,1.558.48.464,1.001.883,1.558,1.253l.837.499c.176.088.344.19.504.305l.067.061h0c0,.017,0,.033,0,.05.032.066.049.138.05.211,0,.073-.015.144-.044.211-.044.078,0,.078-.194.249-.635.588-1.409,1.004-2.25,1.208h0c-.65.181-1.085.79-1.048,1.463l.172,3.171-.366.078c-.488.094-.976.172-1.463.222s-.976.078-1.458.083h-.554c-.14-.01-.281-.01-.421,0-.602.076-1.153.375-1.547.837-.379.444-.589,1.007-.593,1.591-.002.275.041.548.127.809.055.161.111.321.183.477.266.617.641,1.18,1.109,1.663.884.904,1.994,1.555,3.215,1.885.255.067.51.133.765.183h0l-.083.366c-.033.155-.061.294-.083.432-.044.277-.078.554-.094.831-.025.308-.025.618,0,.926,0,.094,0,.183.044.294v.061l.05.166h0v.055c.027.07.05.143.067.216.277,1.211-.46,2.422-1.663,2.733-.085.026-.172.046-.261.061l-.305.055-.604.1c-.403.063-.802.113-1.197.15-.793.078-1.58.116-2.35.116-1.459.018-2.916-.121-4.346-.416-1.263-.256-2.487-.675-3.642-1.247-1.004-.49-1.917-1.148-2.699-1.946-.285-.334-.773-.405-1.142-.166-.32.317-.323.832-.006,1.152.002.002.004.004.006.006.845,1.003,1.862,1.846,3.004,2.489,1.003.582,2.066,1.052,3.171,1.402-.643,1.419-.527,4.03.355,4.989.27.033.543.044.815.033.237.009.474-.002.71-.033.765-.831.953-2.927.554-4.39,1.054.179,2.119.289,3.187.327.855.032,1.712.021,2.566-.033.436-.026.878-.067,1.325-.122l.671-.089.338-.05c.105,0,.227-.039.377-.072,1.178-.254,2.21-.958,2.877-1.962.702-1.044.956-2.326.704-3.559-.029-.156-.068-.309-.116-.46v-.028h0v-.055c-.012-.164-.012-.329,0-.493,0-.188.044-.394.083-.588,0-.094.039-.194.061-.272l.089-.338.094-.349c.069-.266.089-.542.061-.815-.059-.583-.346-1.119-.798-1.491-.232-.19-.499-.332-.787-.416l-.449-.105c-.211-.039-.41-.105-.615-.161-.75-.206-1.432-.606-1.979-1.158-.218-.237-.394-.508-.521-.804h.244c.554,0,1.153,0,1.729-.072s1.153-.127,1.724-.233c.599-.108,1.192-.253,1.774-.432.586-.183.98-.733.964-1.347v-.044l-.133-3.215c.915-.348,1.751-.878,2.456-1.558.149-.146.288-.301.416-.466.141-.205.26-.424.355-.654.414-.908.414-1.952,0-2.86-.04-.111-.087-.221-.139-.327ZM42.383,43.792h0s0-.011,0,0Z"/></svg>