<?xml version="1.0" encoding="UTF-8"?>
<svg id="Layer_1" data-name="Layer 1" xmlns="http://www.w3.org/2000/svg" viewBox="0 0 1127.918 1167.004">
  <defs>
    <style>
      .cls-1, .cls-2 {
        fill: #5f7fff;
      }

      .cls-3 {
        fill: red;
      }

      .cls-3, .cls-4, .cls-2 {
        fill-rule: evenodd;
      }
    </style>
  </defs>
  <path class="cls-4" d="M1026.983,753.034c0,48.988-39.711,88.699-88.699,88.699s-88.695-39.711-88.695-88.699,39.711-88.699,88.695-88.699,88.699,39.711,88.699,88.699Z"/>
  <path class="cls-4" d="M938.323,662.334c-50.059,0-90.699,40.641-90.699,90.699s40.641,90.699,90.699,90.699,90.699-40.641,90.699-90.699-40.641-90.699-90.699-90.699h0ZM938.323,666.338c47.848,0,86.695,38.848,86.695,86.695s-38.848,86.695-86.695,86.695-86.695-38.848-86.695-86.695,38.848-86.695,86.695-86.695Z"/>
  <path d="M751.023,1165.004h76.836v-122.32c0-7.332,12.945-7.332,12.945,0v122.32h195.04v-122.32c0-7.332,13.242-7.332,13.242,0v122.32h76.652l.18-144.27c0-100.81-89.801-155.78-187.6-155.78-97.797-.012-187.34,54.969-187.34,155.78l.047,144.27h-.002Z"/>
  <path class="cls-4" d="M749.023,1165.004c0,1.105.895,2,2,2h76.836c1.106,0,2-.895,2-2v-122.32c0-2.449,2.309-3.5,4.473-3.5s4.473,1.047,4.473,3.5v122.32c0,1.105.895,2,2,2h195.04c1.105,0,2-.895,2-2v-122.32c0-2.469,2.391-3.5,4.621-3.5s4.621,1.031,4.621,3.5v122.32c0,1.105.895,2,2,2h76.652c1.105,0,2-.895,2-2l.18-144.27c0-101.98-90.672-157.78-189.6-157.78-98.93-.012-189.34,55.801-189.34,157.78l.047,144.27h-.002ZM753.023,1163.004l-.047-142.27c0-99.645,88.672-153.79,185.34-153.78,96.668,0,185.6,54.133,185.6,153.78l-.176,142.27h-72.652v-120.32c0-4.867-4.227-7.5-8.621-7.5s-8.621,2.633-8.621,7.5v120.32h-191.04v-120.32c0-4.887-4.16-7.5-8.473-7.5s-8.473,2.617-8.473,7.5v120.32h-72.838Z"/>
  <path class="cls-4" d="M715.483,250.674c0,48.984-39.711,88.695-88.695,88.695s-88.699-39.711-88.699-88.695,39.711-88.699,88.699-88.699,88.695,39.711,88.695,88.699Z"/>
  <path class="cls-4" d="M626.783,159.974c-50.059,0-90.699,40.641-90.699,90.699s40.641,90.699,90.699,90.699,90.699-40.641,90.699-90.699-40.641-90.699-90.699-90.699ZM626.783,163.978c47.848,0,86.695,38.848,86.695,86.695s-38.848,86.695-86.695,86.695-86.695-38.848-86.695-86.695,38.848-86.695,86.695-86.695Z"/>
  <path d="M439.483,662.594h76.836v-122.32c0-7.332,12.945-7.332,12.945,0v122.32h195.04v-122.32c0-7.332,13.238-7.332,13.238,0v122.32h76.656l.18-144.27c0-100.81-89.801-155.78-187.6-155.78-97.797-.012-187.34,54.969-187.34,155.78l.047,144.27h-.002Z"/>
  <path class="cls-4" d="M437.473,662.594c0,1.106.895,2,2,2h76.836c1.106,0,2-.895,2-2v-122.32c0-2.449,2.309-3.5,4.469-3.5s4.469,1.047,4.469,3.5v122.32c0,1.106.895,2,2,2h195.04c1.106,0,2-.895,2-2v-122.32c0-2.469,2.391-3.5,4.617-3.5s4.617,1.031,4.617,3.5v122.32c0,1.106.895,2,2,2h76.656c1.106,0,2-.895,2-2l.18-144.27c0-101.98-90.672-157.78-189.6-157.78-98.93-.012-189.34,55.805-189.34,157.78l.047,144.27h.009ZM441.473,660.594l-.047-142.27c0-99.645,88.672-153.79,185.34-153.78,96.668,0,185.6,54.133,185.6,153.78l-.176,142.27h-72.656v-120.32c0-4.867-4.227-7.5-8.621-7.5s-8.621,2.633-8.621,7.5v120.32h-191.04v-120.32c0-4.887-4.16-7.5-8.473-7.5s-8.473,2.617-8.473,7.5v120.32h-72.834Z"/>
  <path class="cls-2" d="M278.053,250.674c0,48.984-39.711,88.695-88.699,88.695s-88.699-39.711-88.699-88.695,39.711-88.699,88.699-88.699,88.699,39.711,88.699,88.699Z"/>
  <path class="cls-4" d="M189.353,159.974c-50.059,0-90.699,40.641-90.699,90.699s40.641,90.699,90.699,90.699,90.699-40.641,90.699-90.699-40.641-90.699-90.699-90.699ZM189.353,163.978c47.848,0,86.695,38.848,86.695,86.695s-38.848,86.695-86.695,86.695-86.695-38.848-86.695-86.695,38.848-86.695,86.695-86.695Z"/>
  <path class="cls-1" d="M2.049,662.594h76.836v-122.32c0-7.332,12.945-7.332,12.945,0v122.32h195.04v-122.32c0-7.332,13.238-7.332,13.238,0v122.32h76.656l.18-144.27c0-100.81-89.801-155.78-187.6-155.78-97.797-.012-187.34,54.969-187.34,155.78l.047,144.27h-.002Z"/>
  <path class="cls-4" d="M.049,662.594c0,1.106.895,2,2,2h76.836c1.105,0,2-.895,2-2v-122.32c0-2.449,2.309-3.5,4.473-3.5s4.473,1.047,4.473,3.5v122.32c0,1.106.895,2,2,2h195.04c1.105,0,2-.895,2-2v-122.32c0-2.469,2.391-3.5,4.617-3.5s4.617,1.031,4.617,3.5v122.32c0,1.106.895,2,2,2h76.656c1.105,0,2-.895,2-2l.18-144.27c0-101.98-90.672-157.78-189.6-157.78-98.93-.012-189.34,55.805-189.34,157.78l.047,144.27h.002ZM4.049,660.594s-.047-141.94-.047-142.27c0-99.645,88.668-153.79,185.34-153.78,96.668,0,185.6,54.133,185.6,153.78l-.176,142.27h-72.656v-120.32c0-4.867-4.227-7.5-8.621-7.5s-8.621,2.633-8.621,7.5v120.32H93.828v-120.32c0-4.887-4.16-7.5-8.473-7.5s-8.473,2.617-8.473,7.5v120.32H4.049Z"/>
  <path class="cls-4" d="M201.473,123.834v-55.594c0-6.621-5.375-11.996-11.996-11.996s-12,5.375-12,11.996v55.594c0,6.621,5.375,12,12,12s11.996-5.375,11.996-12Z"/>
  <path class="cls-4" d="M189.473,80.238h437.43c6.621,0,12-5.375,12-12s-5.375-11.996-12-11.996H189.473c-6.621,0-12,5.375-12,11.996s5.375,12,12,12h0Z"/>
  <path class="cls-4" d="M614.903,68.242v55.594c0,6.621,5.375,12,11.996,12s12-5.375,12-12v-55.594c0-6.621-5.375-11.996-12-11.996s-11.996,5.375-11.996,11.996Z"/>
  <path class="cls-4" d="M396.193,12v56.238c0,6.621,5.375,12,11.996,12s11.996-5.375,11.996-12V12c0-6.621-5.375-12-11.996-12s-11.996,5.375-11.996,12Z"/>
  <path class="cls-4" d="M840.613,548.914h186.21c6.621,0,11.996-5.375,11.996-11.996s-5.375-12-11.996-12h-186.21c-6.621,0-12,5.375-12,12s5.375,11.996,12,11.996h0Z"/>
  <path class="cls-4" d="M926.533,536.914v87.961c0,6.621,5.375,11.996,12,11.996s11.996-5.375,11.996-11.996v-87.961c0-6.621-5.375-12-11.996-12s-12,5.375-12,12Z"/>
  <path class="cls-3" d="M371.393,906.734l-62.688,89.941-41.93-234.82,234.82-41.93-62.688,89.941,255.51,178.08-67.508,96.859-255.51-178.08-.006.009Z"/>
</svg>