<?xml version="1.0" encoding="UTF-8"?>
<svg id="Layer_1" data-name="Layer 1" xmlns="http://www.w3.org/2000/svg" viewBox="0 0 744.107 855.328">
  <defs>
    <style>
      .cls-1 {
        fill: red;
        stroke: #000;
        stroke-miterlimit: 10;
      }
    </style>
  </defs>
  <polygon class="cls-1" points="509.828 733.445 292.05 730.334 312.939 800.556 386.272 838.778 451.161 833.889 485.828 813.889 516.05 754.778 509.828 733.445"/>
  <path d="M718.48,39.357l-161.25,164.12c4.293,7.184,6.766,15.57,6.766,24.512v318.01h8.629c7.828.047,7.984,11.949,0,12h-8.629v123.9l124.04-123.9h-19.41c-7.828-.047-7.984-11.949,0-12h24c1.981.012,3.766.941,4.894,2.527l13.668-13.652c5.617-5.586,8.918-10.719,8.918-18.875V47.999c0-3.039-.578-5.953-1.625-8.641v-.002ZM478.95,743.987c-5.856,37.918-38.629,66-77.082,66-7.891,0-7.891-12,0-12,31.836,0,59.172-22.766,64.91-54h-164.74c13.902,116.89,185.75,116.89,199.66,0h-22.748ZM525.93,742.948c-13.016,149.23-233.77,150.1-248.03,1.039H48c-26.426,0-48-21.574-48-48V227.987c0-20.77,10.117-29.891,22.805-42.566L192.545,15.871c8.598-10.012,22.457-15.871,35.562-15.871h468c26.426,0,48,21.574,48,48v468c0,12.367-4.879,24.289-13.438,33.199-54.812,56.969-113.04,112.96-169.11,168.96-11.086,11.074-18.945,21.254-35.637,24.793l.008-.004ZM212.26,29.998l-17.625,17.605c1.984.93,3.453,2.93,3.469,5.438v24c-.047,7.828-11.949,7.984-12,0v-20.914l-124,123.87h124v-6.949c.047-7.828,11.949-7.984,12,0v6.949h317.89c8.84,0,17.137,2.414,24.262,6.617L699.746,24.284c-1.188-.184-2.406-.277-3.641-.277H228.105c-5.879,0-11.441,2.117-15.844,6v-.008ZM515.99,203.988H47.99c-13.176,0-24,10.824-24,24v468c0,13.176,10.824,24,24,24h466.41c14.023,0,25.594-9.457,25.594-24V227.988c0-13.176-10.824-24-24-24h-.004ZM198.1,113.039c-.051-7.984-11.953-7.828-12,0v24c.051,7.984,11.953,7.828,12,0v-24ZM198.1,233.039c-.051-7.984-11.953-7.828-12,0v24c.051,7.984,11.953,7.828,12,0v-24ZM198.1,293.039c-.051-7.984-11.953-7.828-12,0v24c.051,7.984,11.953,7.828,12,0v-24ZM198.1,353.039c-.051-7.984-11.953-7.828-12,0v24c.051,7.984,11.953,7.828,12,0v-24ZM198.1,413.039c-.051-7.984-11.953-7.828-12,0v24c.051,7.984,11.953,7.828,12,0v-24ZM198.1,473.039c-.051-7.984-11.953-7.828-12,0v24c.051,7.984,11.953,7.828,12,0v-24ZM201.401,529.629c-3.699-7.051-14.227-1.434-10.641,5.547,4.324,8.367,11.293,15.008,19.828,18.977,7.188,3.277,12.195-7.578,5.023-10.898-6.129-2.848-11.109-7.621-14.211-13.629v.003ZM248.62,546c-7.984.051-7.828,11.953,0,12h24c7.984-.051,7.828-11.953,0-12h-24ZM308.62,546c-7.984.051-7.828,11.953,0,12h24c7.984-.051,7.828-11.953,0-12h-24ZM368.62,546c-7.984.051-7.828,11.953,0,12h24c7.984-.051,7.828-11.953,0-12h-24ZM428.62,546c-7.984.051-7.828,11.953,0,12h24c7.984-.051,7.828-11.953,0-12h-24ZM488.62,546c-7.984.051-7.828,11.953,0,12h24c7.984-.051,7.828-11.953,0-12h-24ZM608.62,546c-7.984.051-7.828,11.953,0,12h24c7.984-.051,7.828-11.953,0-12h-24ZM191.78,562.574c5.66-5.66-2.922-14-8.457-8.512l-17.023,16.914c-5.66,5.66,2.922,14,8.457,8.512l17.023-16.914ZM38.61,697.844c-5.66,5.66,2.922,14,8.457,8.512l17.023-16.914c5.66-5.66-2.922-14-8.457-8.512l-17.023,16.914ZM81.172,655.555c-5.66,5.66,2.922,14,8.457,8.512l17.023-16.914c5.66-5.66-2.922-14-8.457-8.512l-17.023,16.914ZM123.734,613.266c-5.66,5.66,2.922,14,8.457,8.512l17.023-16.914c5.66-5.66-2.922-14-8.457-8.512l-17.023,16.914Z"/>
</svg>