<?xml version="1.0" encoding="UTF-8"?>
<svg id="Layer_1" data-name="Layer 1" xmlns="http://www.w3.org/2000/svg" viewBox="0 0 576.017 957.223">
  <path d="M575.35,806.606l-2.812-376.87c-.281-39.094-17.25-77.016-46.594-104.06l-23.016-21.094c-4.312-3.844-9.422-6.938-15.328-8.766l-108.19-33c-10.828-13.5-19.875-21.75-22.359-23.906-.516-.375-1.078-.609-1.594-.938-1.828-1.922-4.125-3.469-6.703-4.359-21.938-7.359-77.344-21.797-118.03,2.719-.281.188-.516.422-.797.609-.328.141-.703.234-1.031.422-9.938,6-18.562,14.484-26.109,24.188-.938.047-1.875,0-2.812.281l-111.38,33.984c-6.094,1.875-11.297,5.109-15.703,9.094l-22.641,20.766c-29.344,27-46.312,64.922-46.594,104.02l-.188,20.109c0,.141-.094.281-.094.422s.094.281.094.422L.75,809.519c0,.141-.094.281-.141.469,0,.281.094.516.094.797l-.703,93,98.906,9.75c4.5,14.391,17.484,25.547,33.75,27.094l175.5,15.797c1.312.516,2.766.797,4.219.797.797,0,1.594-.094,2.344-.234.094,0,.141-.094.234-.094l128.39-16.266c16.219-1.547,29.203-12.703,33.703-27.094l98.906-9.75-.656-89.625c.516-1.5.797-3.094.703-4.781.047-.984-.328-1.875-.656-2.766l.008-.007ZM444.71,791.278h-54.891c-11.953,0-21.469-8.859-21.703-20.156l-.375-19.969h73.266l3.703,40.125ZM472.179,827.887l79.312-4.922.094,9.844-78.469,4.875-.937-9.797ZM548.538,429.917l2.766,368.95-81.328,5.062-8.953-96.75c-3.703-39-1.688-78.609,5.953-117.75l47.438-241.31c21.469,22.125,33.938,51.516,34.125,81.797h0ZM460.272,312.587l-2.203,8.062-51.656-15.094c-1.875-3.844-3.797-7.594-5.766-11.156l59.625,18.188ZM379.366,360.118c-4.781.938-8.719,4.406-10.266,9-1.547,4.547-.562,9.656,2.578,13.219l11.859,13.828-89.766,91.312-.141-4.312c36.141-57.141,56.062-163.08,63.422-209.9,14.109,16.547,33.844,45.281,41.906,83.344l-19.593,3.509ZM217.736,385.29c3.422-3.891,4.312-9.281,2.344-14.062-1.922-4.781-6.328-7.969-10.828-8.344l-24-3.375c6.75-27.609,20.625-66.469,41.25-89.156,4.031,43.641,16.219,133.03,50.859,183.84l-2.531,7.172-71.25-60.562,14.156-15.513ZM291.705,312.446l11.531,9.188-11.25,11.484-12.047-10.031,11.766-10.641ZM309.517,349.524l10.5-10.734c-1.734,7.734-3.656,15.703-5.672,23.672l-4.828-12.938ZM260.533,338.086c.094.094.141.188.281.281l11.297,9.375-5.953,15.844c-2.109-8.531-3.984-17.062-5.625-25.5h0ZM290.439,367.148l12.75,34.406c-3.422,10.688-7.125,21.047-11.109,30.938-5.438-9.328-10.172-19.969-14.344-31.219l12.703-34.125ZM326.017,310.476c-1.125-1.734-2.438-3.328-4.078-4.641l-9.188-7.359,18.562-16.594c-1.5,8.484-3.281,18.188-5.297,28.594h0ZM260.205,308.554c-1.688,1.5-2.953,3.281-4.031,5.203-1.969-12.422-3.422-23.859-4.5-33.75l21.141,17.109-12.61,11.438ZM328.08,252.585l-34.266,30.656-39.188-31.688c24.797-8.812,54.938-3.75,73.453,1.031h0ZM177.34,306.679l-48.188,13.969-2.766-11.297,57.75-17.625c-2.438,5.016-4.734,9.984-6.797,14.953h0ZM61.79,348.163l47.438,241.31c7.641,39.141,9.656,78.797,5.953,117.8l-2.672,28.875c-.281.984-.609,1.969-.609,3.047,0,.422.188.75.234,1.125l-5.953,64.172-81.281-5.062,1.359-183.19,43.828-35.203c5.156-4.172,6-11.719,1.828-16.875-4.172-5.156-11.719-6-16.875-1.828l-28.547,22.969.094-11.484,35.812-25.875,1.172-.938c5.859-5.438,9.234-13.219,9.234-21.281v-57.844c0-16.359-13.641-29.625-30.375-29.625h-14.812l.047-8.344c.141-30.281,12.609-59.672,34.125-81.75h0ZM27.384,462.213h15c3.469,0,6.375,2.578,6.375,5.625v57.844c0,1.219-.422,2.438-1.219,3.328l-20.766,15,.61-81.797ZM24.666,823.473l79.266,4.922-.938,9.891-78.422-4.969.094-9.844ZM135.196,751.098l62.344-.375-.375,20.344c-.234,11.297-9.75,20.156-21.703,20.156h-43.969l3.703-40.125ZM24.426,857.368l76.406,4.828-2.531,27.094-74.062-7.312.187-24.61ZM121.27,901.196l7.969-85.969h46.219c25.125,0,45.234-19.172,45.703-43.688l.375-20.391c.094-6.281-2.25-12.234-6.703-16.781-4.5-4.594-10.781-7.219-17.297-7.219l-60.141.047,1.641-17.719c3.891-41.297,1.781-83.203-6.281-124.64l-48.75-247.92c-1.078-5.531,1.172-10.969,5.438-14.625l.938-.844c1.547-1.125,3.234-2.062,5.156-2.625l7.828-2.391,2.484,10.078c1.594,6.281,5.625,11.578,11.391,14.859,3.75,2.156,8.016,3.281,12.281,3.281,2.297,0,4.594-.328,6.797-.938l30.984-9.047c-4.453,14.578-7.031,26.391-8.109,31.781-.469,3.656.516,7.312,2.766,10.219s5.484,4.734,8.906,5.156l15.609,2.203-7.594,8.344c-2.672,2.672-4.078,6.375-3.891,10.172.188,3.797,1.969,7.359,4.781,9.703l89.016,75.609c.281.281.656.375.938.609l.141,4.406c.281,7.031,3.938,13.078,9.609,16.922l2.531,343.26,15.516,78.422-162.56-14.766c-8.25-.797-14.391-7.734-13.688-15.516l-.002.006ZM440.82,916.758l-118.78,15.047-16.031-80.203-2.484-341.02c1.594-.938,3.141-2.016,4.5-3.375l99.234-100.92c4.922-4.922,5.344-12.703.75-18.469l-6.328-7.359,11.812-2.156c7.078-1.594,11.812-8.156,10.922-15.844-1.547-10.125-3.938-19.641-6.75-28.641l33.703,9.844c2.203.609,4.453.938,6.75.938,4.266,0,8.531-1.125,12.328-3.281,5.719-3.281,9.75-8.578,11.391-15l1.5-6.188c.797.422,1.734.703,2.438,1.219l.891.797c4.266,3.656,6.562,9.094,5.484,14.672l-48.703,247.92c-8.062,41.391-10.219,83.344-6.281,124.6l1.641,17.719h-71.062c-6.469,0-12.797,2.625-17.297,7.219-4.453,4.5-6.844,10.5-6.703,16.781l.375,20.438c.516,24.469,20.578,43.688,45.703,43.688h56.906c.094,0,.141-.047.234-.047l7.969,85.969c.656,7.875-5.484,14.812-14.109,15.656l-.002-.003ZM477.851,889.336l-2.578-27.797,76.453-4.781.188,25.219-74.062,7.359ZM248.211,492.156c-.469-.562-1.125-.891-1.688-1.359-4.078-5.531-10.547-9.141-17.906-9.141h-63.234c-10.125,0-18.609,6.844-21.328,16.078-.797,1.969-1.219,3.984-.984,6.047v64.406c0,26.156,21.281,47.391,47.391,47.391h13.078c26.156,0,47.391-21.281,47.391-47.391v-64.219c0-.844-.141-1.594-.234-2.391.516-3.234-.234-6.656-2.484-9.422h-.001ZM212.867,505.656l-12.234,10.031c-2.766,2.25-6.938,2.297-9.75.047l-12.562-10.078h34.546ZM203.538,591.578h-13.078c-12.891,0-23.391-10.5-23.391-23.391v-40.781l8.812,7.078c5.766,4.594,12.797,6.938,19.828,6.938,7.125,0,14.297-2.391,20.109-7.125l11.109-9.094v43.031c0,12.844-10.5,23.344-23.391,23.344h.001ZM389.168,615.578c26.156,0,47.391-21.281,47.391-47.391v-64.219c0-.703-.141-1.406-.234-2.109.609-3.328-.047-6.891-2.391-9.703-.562-.703-1.359-1.125-2.062-1.688-4.078-5.344-10.453-8.812-17.672-8.812h-63.234c-10.359,0-18.984,7.125-21.516,16.688-.375,1.078-.516,2.156-.562,3.281-.094.797-.234,1.547-.234,2.344v64.219c0,26.156,21.281,47.391,47.391,47.391h13.124ZM398.637,505.658l-12.234,10.031c-2.766,2.25-6.938,2.297-9.75.047l-12.562-10.078h34.546ZM352.699,568.189v-40.875l8.953,7.172c5.766,4.594,12.797,6.938,19.828,6.938,7.125,0,14.297-2.391,20.109-7.125l10.969-9v42.938c0,12.891-10.5,23.391-23.391,23.391h-13.078c-12.891-.047-23.391-10.547-23.391-23.438h0ZM179.359,162.579c.141.094.328.094.516.188,11.109,19.031,39.891,47.578,112.59,47.578,83.531,0,106.12-36.984,112.17-54.844,26.297-18.234,38.297-38.109,35.625-59.156-5.203-41.016-66.984-71.812-117.89-90.469-20.531-7.5-42.938-7.828-63.094-.938-80.156,27.375-120.56,57.844-123.52,93.141-3.188,38.719,41.672,63.469,43.594,64.5h.009ZM194.781,121.798l190.55-.375.328,16.5c-.188.281-.469.469-.656.75l-189.56.047c-.141-.281-.188-.562-.328-.797l-.334-16.125ZM210.437,162.72h162c-11.062,11.344-33.703,23.625-80.016,23.625-45.375,0-69.328-12.047-81.984-23.625ZM267.062,27.67c14.953-5.109,31.688-4.875,47.062.75,61.312,22.453,99.562,48.938,102.33,70.922.844,6.516-1.688,13.312-7.312,20.25-.938-12.188-11.062-21.844-23.438-21.844l-190.92.047c-13.031,0-23.625,10.594-23.625,23.625v4.594c-6.656-7.078-12.234-16.078-11.438-25.922,1.172-13.734,16.641-41.438,107.34-72.422h.001ZM290.171,91.186c16.547,0,30-13.453,30-30s-13.453-30-30-30-30,13.453-30,30,13.5,30,30,30ZM290.171,55.186c3.328,0,6,2.672,6,6s-2.672,6-6,6-6-2.672-6-6,2.719-6,6-6Z"/>
</svg>