<?xml version="1.0" encoding="UTF-8"?>
<svg id="Layer_1" data-name="Layer 1" xmlns="http://www.w3.org/2000/svg" viewBox="0 0 1029.185 1079.859">
  <path d="M9.41,1079.859h1010.4c5.25,0,9.375-4.125,9.375-9.375v-42.188c0-5.25-4.125-9.375-9.375-9.375h-35.438v-32.812c0-5.25-4.125-9.375-9.375-9.375h-17.438v-358.5h24c3.188,0,6-1.5,7.688-4.125s2.062-5.812.938-8.812l-89.062-222.37c-1.5-3.562-4.875-5.812-8.625-5.812h-252.74l142.13-42.562c3.938-1.125,6.75-4.875,6.75-9v-124.5l151.31-48.188c.75-.188,1.312-.75,2.062-1.125.188-.188.562-.188.75-.375,1.312-1.125,2.438-2.438,3-4.125,0-.188.188-.188.375-.375.188-.375,0-.562.188-.938.188-.562.188-1.312.188-1.875s0-1.312-.188-1.875c0-.375,0-.562-.188-.938,0-.188-.188-.375-.375-.75-.188-.562-.562-1.125-.938-1.688s-.75-.938-1.125-1.312-.938-.75-1.312-1.125c-.562-.375-1.125-.75-1.688-.938-.188-.188-.375-.375-.75-.375L517.318.422c-1.875-.562-3.75-.562-5.625,0L89.062,134.862c-.188,0-.375.188-.75.375-.562.188-1.125.562-1.688.938s-.938.75-1.312,1.125-.75.938-1.125,1.312c-.375.562-.562,1.125-.938,1.688,0,.188-.188.375-.375.562-.188.375,0,.562-.188.938-.188.562-.188,1.312-.188,1.875s0,1.312.188,1.875c0,.375,0,.562.188.938,0,.188.188.375.375.75.188.562.562,1.125.938,1.688s.75.938,1.125,1.312.938.75,1.312,1.125c.562.375,1.125.75,1.688.938.188.188.375.375.75.375l99.562,31.688-2.062,103.12c-10.688,3.375-18.375,13.125-18.375,24.938,0,11.438,7.312,21,17.438,24.562l-.375,19.312c-3,1.125-5.25,3.562-5.812,6.938l-2.812,14.062h-40.125c-3.75,0-7.312,2.25-8.625,5.812l-89.25,222.19c-1.125,2.812-.75,6.188.938,8.812s4.688,4.125,7.688,4.125h24v358.5h-17.25c-5.25,0-9.375,4.125-9.375,9.375v32.812H9.375c-5.25,0-9.375,4.125-9.375,9.375v42.188c0,5.062,4.125,9.375,9.375,9.375h.035ZM886.35,395.859l81.375,203.63h-114.19l-253.13-203.63h285.945ZM614.48,787.919h-199.87c-5.25,0-9.375,4.125-9.375,9.375v176.81l-131.63-.938v-359.06l240.94-188.44,240.94,187.69v363.19l-131.63-.938v-178.31c0-5.062-4.125-9.375-9.375-9.375v-.005ZM605.105,806.669v168.74l-81.188-.562v-168.37h81.188v.192ZM505.167,806.669v168.19l-81.188-.562v-167.63l81.188.003ZM520.355,406.359c-3.375-2.625-8.25-2.625-11.625,0l-246.56,192.94h-56.625l251.81-205.31h.188l54.938-44.812,311.26,250.31h-55.5l-247.885-193.128ZM254.855,618.049v358.69H90.225v-358.5h164.62l.01-.19ZM774.225,618.049h164.62v358.69h-164.63l.01-358.69ZM769.913,318.419l-193.69,57.938-58.125-46.688c-3.375-2.812-8.438-2.812-11.812,0l-56.625,46.125-190.5-57.562v-111.75l252.56,80.438c.938.375,1.875.375,2.812.375s1.875-.188,2.812-.375l252.56-80.438.007,111.937ZM205.353,288.607l1.875-98.25,33.188,10.5v124.5c0,4.125,2.625,7.875,6.75,9l141.19,42.562h-176.06l-2.812-14.062c-.562-3-2.625-5.438-5.438-6.562l.375-20.062c9.375-3.938,16.125-13.312,16.125-24.188,0-10.312-6.375-19.312-15.188-23.438h-.005ZM122.853,143.867L514.543,19.177l391.69,124.69-391.69,124.5-272.81-86.812,228.74-27.938c7.5,10.125,26.25,14.812,43.875,14.812,22.875,0,47.438-7.688,47.438-24.75s-24.562-24.75-47.438-24.75c-18.375,0-37.688,5.062-44.625,15.75l-271.13,33-75.74-23.812ZM486.793,143.867c3.562-2.438,13.125-6,27.75-6s24.188,3.562,27.75,6c-3.562,2.438-13.125,6-27.75,6s-24.188-3.75-27.75-6ZM194.293,304.927c4.125,0,7.5,3.375,7.5,7.5s-3.375,7.5-7.5,7.5-7.312-3.375-7.312-7.5,3.188-7.5,7.312-7.5ZM199.543,409.177h-10.5l5.25-25.875,5.25,25.875ZM61.353,599.487l81.375-203.63h30l-4.312,21c-.562,2.812.188,5.625,1.875,7.875s4.5,3.375,7.312,3.375h33.562c2.812,0,5.438-1.312,7.312-3.375,1.875-2.25,2.438-5.062,1.875-7.875l-4.312-21h209.44l-249.74,203.44H61.36l-.007.19ZM63.415,995.487h350.44c.188,0,.375.188.562.188h200.06c.188,0,.375-.188.562-.188h350.44v23.438H63.42l-.005-23.438ZM18.79,1037.675h991.69v23.438H18.79v-23.438Z"/>
  <path d="M515.095,500.119c-49.5,0-90,40.312-90,90s40.312,90,90,90,90-40.312,90-90-40.5-90-90-90ZM515.095,661.179c-39.188,0-71.25-31.875-71.25-71.25s31.875-71.25,71.25-71.25,71.25,31.875,71.25,71.25c-.188,39.375-32.062,71.25-71.25,71.25Z"/>
  <path d="M515.095,538.169c-5.25,0-9.375,4.125-9.375,9.375v37.688l-11.438,18.562c-2.812,4.5-1.312,10.125,3,12.938,1.5.938,3.188,1.312,4.875,1.312,3.188,0,6.188-1.5,8.062-4.5l12.938-20.812c.938-1.5,1.312-3.188,1.312-4.875v-40.312c0-5.062-4.312-9.375-9.375-9.375h0Z"/>
  <path d="M112.345,677.859v54c0,5.25,4.125,9.375,9.375,9.375h101.44c5.25,0,9.375-4.125,9.375-9.375v-54c0-5.25-4.125-9.375-9.375-9.375h-101.44c-5.062,0-9.375,4.125-9.375,9.375ZM131.095,687.234h82.688v35.25h-82.688v-35.25Z"/>
  <path d="M223.165,767.119h-101.44c-5.25,0-9.375,4.125-9.375,9.375v54c0,5.25,4.125,9.375,9.375,9.375h101.44c5.25,0,9.375-4.125,9.375-9.375v-54c0-5.25-4.125-9.375-9.375-9.375ZM213.79,820.931h-82.688v-35.25h82.688v35.25Z"/>
  <path d="M907.165,668.489h-101.44c-5.25,0-9.375,4.125-9.375,9.375v54c0,5.25,4.125,9.375,9.375,9.375h101.44c5.25,0,9.375-4.125,9.375-9.375v-54c0-5.25-4.125-9.375-9.375-9.375ZM897.79,722.489h-82.688v-35.25h82.688v35.25Z"/>
  <path d="M907.165,767.119h-101.44c-5.25,0-9.375,4.125-9.375,9.375v54c0,5.25,4.125,9.375,9.375,9.375h101.44c5.25,0,9.375-4.125,9.375-9.375v-54c0-5.25-4.125-9.375-9.375-9.375ZM897.79,820.931h-82.688v-35.25h82.688v35.25Z"/>
</svg>