<?xml version="1.0" encoding="UTF-8"?>
<svg id="Layer_1" xmlns="http://www.w3.org/2000/svg" version="1.1" viewBox="0 0 1241.8 907.2">
  <!-- Generator: Adobe Illustrator 29.2.1, SVG Export Plug-In . SVG Version: 2.1.0 Build 116)  -->
  <g id="Layer_11" data-name="Layer_1">
    <path d="M399.4,907.2L750.6,0h142.6l348.6,907.2h-149l-207.4-546.9c-2.6-6-7.6-20.7-14.9-44.1s-15.8-49.2-25.3-77.8c-9.5-28.5-18.1-54.6-25.9-78.4-7.8-23.8-13-39.1-15.5-46l29.8-1.3c-5.2,14.7-11.5,33.3-18.8,55.7s-15.1,46.2-23.3,71.3c-8.2,25.1-16.2,48.6-24,70.6s-14.2,40.4-19.4,55.1l-206.1,541.7h-142.5ZM554.9,681.7l51.8-134.8h412.1l59.6,134.8h-523.6Z"/>
  </g>
  <g id="Layer_2">
    <path d="M377.6,586.8h85.1c10.5,0,20.5-4.1,28.1-11.4,7.5-7.2,12-17.1,12.5-27.6.5-10.5-3.1-20.7-10-28.6l-210.8-241.4c-7.7-8.9-18.9-14-30.7-14s-23,5.1-30.7,14L10.2,519.2c-6.9,7.9-10.5,18.1-10.1,28.6.4,10.5,4.9,20.4,12.5,27.7,7.6,7.3,17.7,11.3,28.2,11.3h85.1v125.9c0,6.1,2.4,11.9,6.7,16.2,4.3,4.3,10.1,6.7,16.2,6.7h206c6.1,0,11.9-2.4,16.2-6.7,4.3-4.3,6.7-10.1,6.7-16.2v-125.9s0,0,0,0ZM331.8,689.8h-160.2v-125.9c0-6.1-2.4-11.9-6.7-16.2-4.3-4.3-10.1-6.7-16.2-6.7H52l199.8-228.8,199.8,228.8h-96.8c-6.1,0-11.9,2.4-16.2,6.7-4.3,4.3-6.7,10.1-6.7,16.2v125.9h0Z"/>
    <path d="M354.7,781.3h-206c-6.1,0-11.9,2.4-16.2,6.7-4.3,4.3-6.7,10.1-6.7,16.2v80.1c0,6.1,2.4,11.9,6.7,16.2,4.3,4.3,10.1,6.7,16.2,6.7h206c6.1,0,11.9-2.4,16.2-6.7,4.3-4.3,6.7-10.1,6.7-16.2v-80.1c0-6.1-2.4-11.9-6.7-16.2-4.3-4.3-10.1-6.7-16.2-6.7h0ZM331.8,861.4h-160.2v-34.3h160.2v34.3Z"/>
  </g>
</svg>