<?xml version="1.0" encoding="UTF-8"?>
<svg id="Layer_1" data-name="Layer 1" xmlns="http://www.w3.org/2000/svg" viewBox="0 0 1078.169 665.631">
  <path d="M239.062,557.817c0,20.719-16.781,37.5-37.5,37.5s-37.5-16.781-37.5-37.5,16.781-37.5,37.5-37.5,37.5,16.781,37.5,37.5ZM876.562,520.317c-20.719,0-37.5,16.781-37.5,37.5s16.781,37.5,37.5,37.5,37.5-16.781,37.5-37.5-16.781-37.5-37.5-37.5ZM1063.122,15.057c9.703,9.703,15.047,22.641,15.047,36.422-.047,122.9-.047,506.34-.047,506.34,0,7.781-6.281,14.062-14.062,14.062h-80.719c-6.938,52.828-52.125,93.75-106.78,93.75s-99.844-40.922-106.78-93.75h-461.44c-6.938,52.828-52.125,93.75-106.78,93.75s-99.844-40.922-106.78-93.75h-61.969c-18.094,0-32.812-14.719-32.812-32.812v-137.68c0-23.766,9.281-46.172,26.062-62.953l49.875-49.875c11.531-66.234,33.703-130.69,63-185.53.422-1.219,1.125-2.203,1.875-3.234,17.203-31.641,36.75-60.094,58.031-83.578C208.171,5.907,221.812,0,236.202,0h790.5c13.781,0,26.719,5.344,36.422,15.047l-.002.01ZM106.222,281.267h189.1c33.609,0,60.938-27.328,60.938-60.938v-98.438h-195.37c-24.703,47.531-43.594,102.47-54.703,159.37l.035.006ZM281.252,557.827c0-43.922-35.766-79.688-79.688-79.688s-79.688,35.766-79.688,79.688,35.766,79.688,79.688,79.688,79.688-35.766,79.688-79.688h0ZM956.252,557.827c0-43.922-35.766-79.688-79.688-79.688s-79.688,35.766-79.688,79.688,35.766,79.688,79.688,79.688,79.688-35.766,79.688-79.688ZM1050.002,543.765v-159.37H426.562c-7.781,0-14.062-6.281-14.062-14.062s6.281-14.062,14.062-14.062h623.44v-178.13h-79.734c-7.781,0-14.062-6.281-14.062-14.062v-75c0-7.781,6.281-14.062,14.062-14.062h79.734v-23.531c0-6.281-2.438-12.141-6.797-16.547-4.406-4.406-10.266-6.844-16.547-6.844l-790.4.047c-6.469,0-12.516,2.531-16.547,6.984-15.375,16.969-29.719,36.891-42.938,58.641h193.55c7.781,0,14.062,6.281,14.062,14.062v112.5c0,49.125-39.938,89.062-89.062,89.062H94.883l-48.938,48.938c-11.344,11.344-17.859,27.047-17.859,43.078v29.859h42.188c7.781,0,14.062,6.281,14.062,14.062s-6.281,14.062-14.062,14.062H28.086v79.688c0,2.578,2.109,4.688,4.688,4.688h61.969c6.938-52.828,52.125-93.75,106.78-93.75s99.844,40.922,106.78,93.75h461.44c6.938-52.828,52.125-93.75,106.78-93.75s99.844,40.922,106.78,93.75h66.699ZM984.377,103.135v46.875h65.625v-46.875h-65.625ZM332.817,356.265h-56.25c-7.781,0-14.062,6.281-14.062,14.062s6.281,14.062,14.062,14.062h56.25c7.781,0,14.062-6.281,14.062-14.062s-6.281-14.062-14.062-14.062Z"/>
</svg>