<?xml version="1.0" encoding="UTF-8"?>
<svg id="Layer_1" data-name="Layer 1" xmlns="http://www.w3.org/2000/svg" viewBox="0 0 946.893 719.366">
  <path d="M103.425,238.556c.234.188.375.375.562.609l6.703,9.188-26.766,59.531c-2.016,4.453-.328,9.422,4.125,12.094,1.969,1.172,4.266,1.781,6.609,1.781.891,0,1.781-.094,2.672-.234l26.297-5.016c3.938-.75,6.141-2.859,7.266-4.453l16.641-23.672c.75.094,1.453.281,2.25.281,1.641,0,3.328-.234,4.969-.656,46.922-12.188,167.58-43.875,302.76-79.547l-48.188,174.61c-1.5,5.344,0,10.875,4.031,14.766,2.859,2.766,6.516,4.219,10.312,4.219,1.5,0,3.047-.234,4.547-.703l48.375-15.094c4.219-1.312,7.547-4.266,9.281-8.344l84.562-195.74c36.938-13.594,71.438-25.359,101.91-35.766,88.266-30.094,141.52-48.234,147.74-73.453,4.781-19.219.188-35.859-13.266-48.141-2.953-2.719-6.422-5.062-10.125-7.312-.328-.188-.609-.375-.938-.516-46.031-26.672-143.16-18.562-199.55,1.172-.047,0-.141.047-.188.047,0,0-.188.047-.188.094l-113.91,42.469-125.58-45.75c-4.172-1.547-8.625-1.172-12.516,1.031l-37.359,21.141c-4.828,2.766-7.688,7.734-7.594,13.312.094,5.578,3.094,10.453,8.016,13.031l69.703,36.469-203.81,75.984c-1.172.469-2.156.422-3.281-.141l-58.125-28.125c-5.016-2.438-10.406-2.625-15.609-.562l-35.203,13.969c-6.328,2.531-10.688,7.781-11.906,14.484-1.266,6.703.891,13.172,5.906,17.812l48.797,45.094.066.038ZM119.503,301.744l-17.672,3.375,28.172-62.672,37.641-9.047-48.094,68.344h-.047ZM472.003,371.728l-47.906,14.906,60.938-220.87,91.453-35.859-104.53,241.82.045.003ZM698.973,15.618c28.312-1.078,55.641,1.219,75.891,8.391-40.172,17.25-64.781,22.641-73.125,15.75-5.062-4.172-4.547-14.531-2.719-24.094l-.047-.047ZM314.413,50.212l36.891-20.906,108.75,39.609-64.172,23.953-81.469-42.656ZM66.253,175.272l35.203-13.969c1.219-.469,2.203-.422,3.375.141l58.125,28.125c4.875,2.344,10.172,2.625,15.234.703L601.29,32.492c21.891-7.641,51.844-13.547,82.125-15.938-2.484,16.594.328,28.078,8.578,34.922,5.062,4.172,11.766,6.328,20.672,6.328,17.203,0,42.656-8.109,79.734-24.938,1.453,1.031,3,2.016,4.219,3.141,9.328,8.484,12.188,19.359,8.766,33.234-4.266,17.156-66.188,38.25-137.9,62.719-26.812,9.141-56.766,19.406-88.688,30.984l11.906-27.516c2.391-5.578,1.219-12-3-16.359s-10.594-5.766-16.266-3.516l-92.062,36.094c-4.453,1.734-7.688,5.391-9,9.984l-8.25,29.812c-130.82,34.5-249.24,65.625-302.39,79.5l28.031-39.844c1.5-2.109,2.062-4.641,1.547-7.125-.516-2.578-2.109-4.828-4.5-6.328-2.906-1.828-6.609-2.391-10.219-1.547l-50.016,12.047c-2.953.703-5.109,2.438-6.562,4.641l-1.875-2.531c-.75-1.031-1.547-1.922-2.484-2.812l-48.797-45.094c-1.125-1.078-1.547-2.344-1.266-3.844.281-1.547,1.125-2.578,2.578-3.141l.083-.093ZM566.173,98.397c9.656,0,17.484-7.828,17.484-17.484s-7.828-17.484-17.484-17.484-17.484,7.828-17.484,17.484,7.828,17.484,17.484,17.484ZM566.173,78.616c1.266,0,2.297,1.031,2.297,2.297s-1.031,2.297-2.297,2.297-2.297-1.031-2.297-2.297,1.031-2.297,2.297-2.297ZM504.064,119.538c9.656,0,17.484-7.828,17.484-17.484s-7.828-17.484-17.484-17.484-17.484,7.828-17.484,17.484,7.828,17.484,17.484,17.484ZM504.064,99.757c1.266,0,2.297,1.031,2.297,2.297s-1.031,2.297-2.297,2.297-2.297-1.031-2.297-2.297,1.031-2.297,2.297-2.297ZM447.58,140.726c9.656,0,17.484-7.828,17.484-17.484s-7.828-17.484-17.484-17.484-17.484,7.828-17.484,17.484,7.828,17.484,17.484,17.484ZM447.58,120.945c1.266,0,2.297,1.031,2.297,2.297s-1.031,2.297-2.297,2.297-2.297-1.031-2.297-2.297,1.031-2.297,2.297-2.297ZM392.502,161.914c9.656,0,17.484-7.828,17.484-17.484s-7.828-17.484-17.484-17.484-17.484,7.828-17.484,17.484,7.828,17.484,17.484,17.484ZM392.502,142.133c1.266,0,2.297,1.031,2.297,2.297s-1.031,2.297-2.297,2.297-2.297-1.031-2.297-2.297,1.031-2.297,2.297-2.297ZM330.393,183.102c9.656,0,17.484-7.828,17.484-17.484s-7.828-17.484-17.484-17.484-17.484,7.828-17.484,17.484,7.828,17.484,17.484,17.484ZM330.393,163.321c1.266,0,2.297,1.031,2.297,2.297s-1.031,2.297-2.297,2.297-2.297-1.031-2.297-2.297,1.031-2.297,2.297-2.297ZM628.283,77.212c9.656,0,17.484-7.828,17.484-17.484s-7.828-17.484-17.484-17.484-17.484,7.828-17.484,17.484,7.828,17.484,17.484,17.484ZM628.283,57.431c1.266,0,2.297,1.031,2.297,2.297s-1.031,2.297-2.297,2.297-2.297-1.031-2.297-2.297,1.031-2.297,2.297-2.297ZM9.203,652.041c24.047-4.922,32.766,1.453,41.953,8.25,8.344,6.141,16.125,10.875,27.516,10.875,6.562,0,14.484-1.688,24.281-5.438.234-.094.516-.188.75-.281,1.688-.656,3.328-1.266,5.156-2.062,6.094-2.672,10.922-5.438,15.188-7.922,14.391-8.344,21-12.094,54.375,6.469.234.141.422.188.609.281.094.047.141.047.234.094,24,12.938,41.438,3,55.453-5.016,14.016-8.062,24.141-13.875,40.547-2.297,12.094,8.531,52.734,20.906,72.703-1.688,2.766-3.141,2.484-7.969-.656-10.734-3.141-2.766-7.969-2.484-10.734.656-11.719,13.266-39.094,6.469-49.875.844,22.219-30.844,51.188-85.688,51.188-129.19,0-2.953-1.734-5.672-4.453-6.891l-63.516-29.156v-77.391c0-3.375-2.25-6.375-5.531-7.312-8.906-2.531-17.953-4.5-27-6.141v-29.062c0-2.766-1.5-5.297-3.891-6.656-32.344-18-65.484-18-98.531-.047-2.438,1.312-3.984,3.891-3.984,6.656v29.016c-9.609,1.688-19.266,3.656-28.969,6.188-3.328.891-5.672,3.891-5.672,7.359v76.453l-65.625,30.094c-2.719,1.219-4.453,3.938-4.453,6.891,0,48.188,32.812,108.09,60.422,140.02-13.312,2.906-19.172-1.406-26.625-6.891-10.406-7.641-23.344-17.156-54-10.875-4.125.844-6.75,4.875-5.906,8.953.844,4.125,4.875,6.75,8.953,5.906l.093.044ZM322.563,519.721c-2.156,39.75-29.672,90.094-49.359,116.95-18.984-7.875-33.797.422-46.031,7.453-12.516,7.172-22.688,12.844-37.453,6.375v-191.72l132.84,60.984.003-.042ZM146.223,363.481c25.828-12.797,50.766-12.797,75.984-.047v22.031c-24.891-3.234-50.25-3.234-75.984,0v-21.984ZM111.582,407.309c49.172-12.141,97.312-12.188,143.16-.094v64.594l-69.469-31.875c-.422-.188-.891-.141-1.359-.234-.609-.141-1.219-.328-1.828-.328-.656,0-1.219.188-1.828.328-.469.094-.938.047-1.359.234l-67.359,30.938v-63.562h.043ZM41.691,519.669l132.84-60.984v184.08c-30.188-14.625-41.812-9.891-58.031-.516-4.125,2.391-8.344,4.828-13.641,7.125-.141.047-.234.094-.375.141-28.359-30-58.547-87.562-60.75-129.84l-.043-.006ZM349.751,674.689c3.141,2.766,3.422,7.594.656,10.734-19.969,22.594-60.609,10.219-72.703,1.688-16.406-11.578-26.531-5.766-40.547,2.297-14.203,8.156-31.828,18.281-56.297,4.641-33.375-18.609-39.938-14.812-54.375-6.469-4.266,2.484-9.094,5.25-15.188,7.922-12.703,5.531-22.312,7.781-30.188,7.781-11.438,0-19.172-4.734-27.516-10.875-9.188-6.75-17.906-13.172-41.953-8.25-4.125.844-8.109-1.828-8.953-5.906-.844-4.125,1.828-8.109,5.906-8.953,30.656-6.281,43.594,3.234,54,10.875,9.891,7.266,17.062,12.516,42.609,1.406,5.297-2.297,9.562-4.781,13.641-7.125,18.188-10.5,30.375-15.375,69.375,6.375,16.969,9.469,27.703,3.281,41.344-4.547,14.484-8.344,32.531-18.656,56.859-1.5,8.156,5.766,39.75,15.141,52.547.656,2.766-3.141,7.594-3.422,10.734-.656l.049-.093ZM227.831,538.849c12.891,0,23.391-12.141,23.391-27.094s-10.5-27.094-23.391-27.094-23.391,12.141-23.391,27.094,10.5,27.094,23.391,27.094ZM227.831,499.849c4.359,0,8.203,5.578,8.203,11.906s-3.844,11.906-8.203,11.906-8.203-5.578-8.203-11.906,3.844-11.906,8.203-11.906ZM939.021,534.537l-85.359-109.73c-2.578-3.281-6.422-5.203-10.594-5.203h-90.141c-.562,0-1.031.234-1.594.328-3.234-4.641-7.734-8.016-13.266-9.938-.797-.281-1.641-.422-2.484-.422h-332.39c-.375,0-.703.047-1.078.094-8.766,1.266-16.406,9.375-17.438,18.469-.047.281-.047.562-.047.844v219.98c0,14.625,10.688,25.688,24.844,25.688h45.234c3.703,25.219,25.312,44.719,51.562,44.719s47.812-19.5,51.562-44.719h183.89c1.969,0,3.797-.562,5.438-1.453,1.781.891,3.703,1.453,5.859,1.453h27.188c3.703,25.219,25.312,44.719,51.562,44.719s47.812-19.5,51.562-44.719h40.359c12.562,0,23.203-10.312,23.203-22.547v-94.547c0-10.688-6.188-21-7.734-22.969l-.137-.047ZM506.231,704.137c-20.438,0-37.125-16.641-37.125-37.125s16.641-37.125,37.125-37.125,37.125,16.641,37.125,37.125-16.641,37.125-37.125,37.125ZM739.521,586.017v72.938c0,.188,0,.328-.047.469h-181.69c-3.703-25.219-25.312-44.719-51.562-44.719s-47.812,19.5-51.562,44.719h-45.234c-4.641,0-9.609-3.281-9.609-10.453v-78.422h339.66v15.422l.044.046ZM739.521,433.067v122.29h-339.66v-125.86c.422-2.109,2.438-4.266,4.078-4.734h330.28c2.344,1.031,4.078,2.625,5.344,4.875v3.375l-.042.054ZM831.677,704.147c-20.438,0-37.125-16.641-37.125-37.125s16.641-37.125,37.125-37.125,37.125,16.641,37.125,37.125-16.641,37.125-37.125,37.125ZM931.568,617.053c0,.328-.328.656-.656.656h-9.984c-.328,0-.656-.328-.656-.656v-19.969c0-.328.328-.656.656-.656h9.984c.328,0,.656.328.656.656v19.969ZM931.568,581.334c-.234,0-.422-.141-.656-.141h-9.984c-8.766,0-15.891,7.125-15.891,15.891v19.969c0,8.766,7.125,15.891,15.891,15.891h9.984c.234,0,.422-.141.656-.141v19.266c0,3.469-3.281,7.359-7.969,7.359h-40.359c-3.703-25.219-25.312-44.719-51.562-44.719s-47.812,19.5-51.562,44.719h-25.406v-224.58h87.469l84.75,108.94c.75,1.078,4.641,7.875,4.641,13.734v23.859l-.002-.048ZM842.318,453.514c-3.422-4.5-8.391-6.938-14.062-6.938h-41.297c-9.75,0-17.672,7.922-17.672,17.672v61.547c0,9.75,7.922,17.672,17.672,17.672h88.172c6.75,0,12.797-3.75,15.797-9.797s2.344-13.172-1.781-18.516l-46.875-61.547.046-.094ZM877.334,526.826c-.469.938-1.172,1.359-2.203,1.359h-88.172c-1.312,0-2.438-1.125-2.438-2.438v-61.547c0-1.312,1.125-2.438,2.438-2.438h41.297c.891,0,1.406.281,1.969.984l46.875,61.547c.609.797.703,1.641.234,2.578v-.047ZM830.787,562.498c0,4.219-3.422,7.594-7.594,7.594h-23.203c-4.219,0-7.594-3.422-7.594-7.594,0-4.219,3.422-7.594,7.594-7.594h23.203c4.219,0,7.594,3.422,7.594,7.594ZM831.678,641.904c-13.828,0-25.078,11.25-25.078,25.078s11.25,25.078,25.078,25.078,25.078-11.25,25.078-25.078-11.25-25.078-25.078-25.078ZM831.678,676.873c-5.438,0-9.891-4.453-9.891-9.891s4.453-9.891,9.891-9.891,9.891,4.453,9.891,9.891-4.453,9.891-9.891,9.891ZM506.228,641.904c-13.828,0-25.078,11.25-25.078,25.078s11.25,25.078,25.078,25.078,25.078-11.25,25.078-25.078-11.25-25.078-25.078-25.078ZM506.228,676.873c-5.438,0-9.891-4.453-9.891-9.891s4.453-9.891,9.891-9.891,9.891,4.453,9.891,9.891-4.453,9.891-9.891,9.891Z"/>
</svg>