<?xml version="1.0" encoding="UTF-8"?>
<svg id="Layer_1" data-name="Layer 1" xmlns="http://www.w3.org/2000/svg" viewBox="0 0 1136.847 1112.743">
  <defs>
    <style>
      .cls-1 {
        fill-rule: evenodd;
      }
    </style>
  </defs>
  <path class="cls-1" d="M1079.031,1029.564H483.241c3.199-14.691,3.199-29.898,0-44.59h595.79c7.965,0,15.324,4.25,19.309,11.148,3.984,6.898,3.984,15.395,0,22.293-3.984,6.898-11.344,11.148-19.309,11.148h0ZM380.211,1077.212c-18.555.012-36.355-7.348-49.48-20.465-13.129-13.113-20.508-30.906-20.512-49.461-.004-18.555,7.367-36.352,20.484-49.473,13.121-13.121,30.918-20.488,49.473-20.484,18.559.004,36.352,7.383,49.465,20.508,13.113,13.129,20.477,30.926,20.461,49.484-.031,18.523-7.406,36.281-20.508,49.383-13.098,13.098-30.855,20.473-49.383,20.508ZM57.831,1029.564c-7.965,0-15.324-4.25-19.309-11.148-3.98-6.898-3.98-15.395,0-22.293,3.984-6.898,11.344-11.148,19.309-11.148h219.25c-3.199,14.691-3.199,29.898,0,44.59H57.831ZM1079.031,949.455H468.311c-19.461-29.738-52.609-47.66-88.148-47.66s-68.688,17.922-88.152,47.66H57.831c-20.656,0-39.742,11.02-50.07,28.906-10.328,17.891-10.328,39.93,0,57.816,10.328,17.887,29.414,28.906,50.07,28.906h234.18c19.465,29.738,52.609,47.66,88.152,47.66s68.688-17.922,88.148-47.66h610.72c20.656,0,39.742-11.02,50.07-28.906,10.328-17.887,10.328-39.926,0-57.816-10.328-17.887-29.414-28.906-50.07-28.906h0ZM714.511,440.165l-309.93,178.95c-1.367.781-3.043.785-4.41.004-1.367-.777-2.223-2.223-2.246-3.793v-357.93c-.094-1.598.781-3.094,2.223-3.789.664-.426,1.434-.664,2.223-.684.785.027,1.547.262,2.211.684l309.93,178.88c1.375.789,2.227,2.258,2.227,3.848s-.852,3.055-2.227,3.844v-.013ZM732.273,401.7l-309.93-178.93c-8.137-4.699-17.668-6.379-26.922-4.746-9.254,1.633-17.637,6.473-23.676,13.676-6.039,7.199-9.344,16.297-9.336,25.695v357.86c-.043,9.414,3.246,18.539,9.289,25.758,6.039,7.219,14.438,12.066,23.711,13.688,9.27,1.621,18.816-.09,26.949-4.832l309.91-178.93c12.363-7.145,19.98-20.34,19.98-34.617s-7.617-27.477-19.98-34.617l.005-.005ZM1101.323,754.98V117.69c-.023-21.773-8.68-42.648-24.07-58.051s-36.262-24.074-58.035-24.117H117.688c-21.773.043-42.641,8.719-58.031,24.121-15.387,15.398-24.047,36.273-24.074,58.047v637.29c.043,21.773,8.715,42.645,24.117,58.035s36.277,24.047,58.055,24.07h901.41c21.762-.035,42.625-8.699,58.016-24.09,15.391-15.387,24.051-36.25,24.09-58.016h.052ZM1019.218,0H117.688c-31.199.035-61.117,12.445-83.18,34.508S.035,86.488,0,117.688v637.29c.039,31.203,12.449,61.113,34.512,83.176,22.062,22.059,51.977,34.469,83.176,34.5h901.48c31.195-.039,61.105-12.449,83.164-34.512,22.059-22.059,34.473-51.965,34.512-83.164V117.688c-.039-31.199-12.445-61.109-34.508-83.172C1080.277,12.454,1050.367.039,1019.168,0h.05Z"/>
</svg>