<?xml version="1.0" encoding="UTF-8"?>
<svg id="Layer_1" xmlns="http://www.w3.org/2000/svg" version="1.1" viewBox="0 0 600 1087.5">
  <!-- Generator: Adobe Illustrator 29.2.1, SVG Export Plug-In . SVG Version: 2.1.0 Build 116)  -->
  <path d="M563,63.3c-6.5-8.1-18.3-9.4-26.3-2.9s-9.4,18.3-2.9,26.3c18.8,23.5,28.8,51.8,28.8,82,0,72.4-58.9,131.3-131.3,131.3s-131.3-58.9-131.3-131.3,58.9-131.3,131.3-131.3,45.8,6.1,65.6,17.5c9,5.2,20.4,2.2,25.6-6.8,5.2-9,2.2-20.4-6.8-25.6C490.1,7.8,460.9,0,431.2,0c-93,0-168.7,75.7-168.7,168.7s75.7,168.7,168.7,168.7,168.7-75.7,168.7-168.7-13.1-75.7-37-105.5h0Z"/>
  <path d="M412.5,75v75h-56.2c-10.4,0-18.8,8.4-18.8,18.8s8.4,18.8,18.8,18.8h75c10.4,0,18.8-8.4,18.8-18.8v-93.8c0-10.4-8.4-18.8-18.8-18.8s-18.8,8.4-18.8,18.8Z"/>
  <path d="M343.4,1013.5l-44.7-14.9-17.5-175.4c0-.2,0-.3,0-.5l-18.6-148.9v-70.5c16-2.9,30.7-8.2,43-16.5,20.9-14.2,32-35.5,32-61.8,0-47.8-36.6-112.3-104.2-138.4,18-17.1,29.2-41.2,29.2-67.9,0-51.7-42-93.8-93.8-93.8s-93.8,42-93.8,93.8,11.2,50.8,29.2,67.9C36.6,412.7,0,477.2,0,525s7.5,48.8,22.9,59.9c9.3,6.8,20.3,9.4,32.4,9.4,17.2,0,36.6-5.3,56.7-11.8,33.8,12.8,74.8,22.8,113,23.6v69c0,.8,0,1.5.1,2.3l18.8,149.8,18.8,187.3c.8,7.4,5.7,13.6,12.8,15.9l2.9.9-38.5,12.8-52.5-297.4c-1.6-9-9.4-15.5-18.5-15.5s-16.9,6.6-18.5,15.5l-53.5,303.2h-32.7l5.5-5.5c3.1-3.1,5-7.2,5.4-11.5l18.8-206,18.7-149.7c0-.8.1-1.5.1-2.3v-56.2c0-10.4-8.4-18.8-18.8-18.8s-18.8,8.4-18.8,18.8v55.1l-18.6,148.9c0,.2,0,.4,0,.7l-18.1,199.5-32.7,32.7c-5.3,5.3-6.9,13.4-4,20.4s9.8,11.6,17.3,11.6h93.8c9.1,0,16.9-6.6,18.5-15.5l37.8-214.1,37.8,214.1c.9,5.3,4.2,10,8.9,12.8,2.9,1.8,6.3,2.6,9.6,2.6s4-.3,5.9-.9l112.5-37.5c7.7-2.6,12.8-9.8,12.8-17.8s-5.2-15.2-12.8-17.8h0ZM112.5,318.8c0-31,25.2-56.2,56.2-56.2s56.2,25.2,56.2,56.2-25.2,56.2-56.2,56.2-56.2-25.2-56.2-56.2h0ZM262.4,504.8c-.7-8-6.3-14.7-14.2-16.7-78.7-19.7-155.9-.8-159.1,0-10,2.5-16.1,12.7-13.6,22.7,2.5,10,12.7,16.1,22.7,13.7.5,0,32-7.7,73.4-7.7h0l-65.9,28.3c-15.8,5.2-50.9,16.8-61,9.5-4.6-3.3-7.3-14.1-7.3-29.4,0-47,49.9-112.5,131.3-112.5s131.3,65.5,131.3,112.5-4.9,23.6-15.5,30.8c-22.8,15.4-68.7,16.4-118.6,4.2l85.2-36.5c7.4-3.2,12-10.7,11.3-18.8h0Z"/>
  <path d="M356.3,956.3c-10.4,0-18.8,8.4-18.8,18.8s8.4,18.8,18.8,18.8c20.7,0,37.5,16.8,37.5,37.5s8.4,18.8,18.8,18.8,18.8-8.4,18.8-18.8c0-41.3-33.7-75-75-75Z"/>
  <path d="M356.3,881.3c-10.4,0-18.8,8.4-18.8,18.8s8.4,18.8,18.8,18.8c62.1,0,112.5,50.4,112.5,112.5s8.4,18.8,18.8,18.8,18.8-8.4,18.8-18.8c0-82.7-67.3-150-150-150Z"/>
</svg>