<?xml version="1.0" encoding="UTF-8"?>
<svg width="1200pt" height="1200pt" version="1.1" viewBox="0 0 1200 1200" xmlns="http://www.w3.org/2000/svg">
 <path d="m862.97 119.53c-6.4688-8.0625-18.281-9.375-26.344-2.9062s-9.375 18.281-2.9062 26.344c18.797 23.484 28.781 51.844 28.781 82.031 0 72.375-58.875 131.26-131.26 131.26-72.383 0-131.26-58.875-131.26-131.26s58.875-131.26 131.26-131.26c23.062 0 45.75 6.0938 65.625 17.531 9 5.1562 20.438 2.1562 25.594-6.8438 5.1562-8.9531 2.1562-20.438-6.8438-25.594-25.547-14.766-54.75-22.594-84.375-22.594-93.047 0-168.74 75.703-168.74 168.74s75.703 168.74 168.74 168.74c93.039 0 168.74-75.703 168.74-168.74 0-38.203-13.125-75.703-37.031-105.47z"/>
 <path d="m712.5 131.26v75h-56.25c-10.359 0-18.75 8.3906-18.75 18.75 0 10.359 8.3906 18.75 18.75 18.75h75c10.359 0 18.75-8.3906 18.75-18.75v-93.75c0-10.359-8.3906-18.75-18.75-18.75s-18.75 8.3906-18.75 18.75z"/>
 <path d="m643.4 1069.7-44.719-14.906-17.531-175.4c0-0.1875 0-0.28125-0.046875-0.46875l-18.609-148.87v-70.5c16.031-2.9062 30.703-8.1562 43.031-16.5 20.906-14.156 31.969-35.531 31.969-61.828 0-47.812-36.562-112.31-104.2-138.37 18-17.062 29.203-41.203 29.203-67.875 0-51.703-42.047-93.75-93.75-93.75s-93.75 42.047-93.75 93.75c0 26.719 11.25 50.812 29.203 67.875-67.641 26.062-104.2 90.562-104.2 138.37 0 29.203 7.5 48.75 22.875 59.859 9.3281 6.75 20.344 9.375 32.438 9.375 17.156 0 36.562-5.2969 56.672-11.812 33.75 12.75 74.812 22.781 113.02 23.578v69c0 0.75 0.046875 1.5469 0.14062 2.3438l18.75 149.76 18.75 187.26c0.75 7.3594 5.7188 13.594 12.75 15.938l2.9062 0.9375-38.531 12.844-52.5-297.37c-1.5938-8.9531-9.375-15.469-18.469-15.469s-16.875 6.5625-18.469 15.469l-53.531 303.24h-32.719l5.4844-5.4844c3.0938-3.0938 5.0156-7.2188 5.4375-11.531l18.75-205.97 18.703-149.72c0.09375-0.75 0.14062-1.5469 0.14062-2.3438v-56.25c0-10.359-8.3906-18.75-18.75-18.75s-18.75 8.3906-18.75 18.75v55.078l-18.609 148.87c0 0.1875-0.046875 0.42188-0.09375 0.65625l-18.141 199.5-32.719 32.719c-5.3438 5.3438-6.9375 13.406-4.0312 20.438s9.75 11.578 17.344 11.578h93.75c9.0938 0 16.875-6.5625 18.469-15.469l37.781-214.13 37.781 214.13c0.9375 5.3438 4.2188 10.031 8.8594 12.844 2.9062 1.7812 6.2812 2.625 9.5625 2.625 1.9688 0 4.0312-0.32812 5.9062-0.9375l112.5-37.5c7.6875-2.5781 12.844-9.75 12.844-17.812s-5.1562-15.234-12.844-17.812zm-230.9-694.69c0-31.031 25.219-56.25 56.25-56.25 30.984 0 56.25 25.219 56.25 56.25 0 30.984-25.219 56.25-56.25 56.25-30.984 0-56.25-25.219-56.25-56.25zm149.9 186c-0.65625-8.0156-6.3281-14.719-14.156-16.688-78.656-19.688-155.86-0.84375-159.1 0-10.031 2.5312-16.125 12.656-13.641 22.688 2.5312 10.031 12.656 16.125 22.688 13.688 0.46875-0.09375 31.969-7.7344 73.406-7.7344h0.046876l-65.906 28.266c-15.75 5.25-50.906 16.781-61.031 9.4688-4.6406-3.3281-7.3125-14.062-7.3125-29.438 0-46.969 49.922-112.5 131.26-112.5 81.328 0 131.26 65.531 131.26 112.5 0 13.828-4.9219 23.625-15.516 30.75-22.781 15.422-68.719 16.406-118.59 4.2188l85.219-36.516c7.4062-3.1875 11.953-10.688 11.297-18.75z"/>
 <path d="m656.26 1012.5c-10.359 0-18.75 8.3906-18.75 18.75s8.3906 18.75 18.75 18.75c20.672 0 37.5 16.828 37.5 37.5 0 10.359 8.3906 18.75 18.75 18.75 10.359 0 18.75-8.3906 18.75-18.75 0-41.344-33.656-75-75-75z"/>
 <path d="m656.26 937.5c-10.359 0-18.75 8.3906-18.75 18.75s8.3906 18.75 18.75 18.75c62.062 0 112.5 50.438 112.5 112.5 0 10.359 8.3906 18.75 18.75 18.75 10.359 0 18.75-8.3906 18.75-18.75 0-82.688-67.312-150-150-150z"/>
</svg>
