<?xml version="1.0" encoding="UTF-8"?>
<svg width="1200pt" height="1200pt" version="1.1" viewBox="0 0 1200 1200" xmlns="http://www.w3.org/2000/svg">
 <path d="m810 302.4c-37.199 0-68.398-30-68.398-68.398s30-68.398 68.398-68.398c37.199 0 68.398 30 68.398 68.398s-31.199 68.398-68.398 68.398zm0-105.6c-20.398 0-38.398 16.801-38.398 38.398 0 21.602 16.801 38.398 38.398 38.398 20.398 0 38.398-16.801 38.398-38.398 0-21.598-18-38.398-38.398-38.398z"/>
 <path d="m794.4 63.602h30v58.801h-30z"/>
 <path d="m920.4 104.59 21.215 21.215-41.578 41.578-21.215-21.215z"/>
 <path d="m721.1 303.54 21.215 21.215-41.578 41.578-21.215-21.215z"/>
 <path d="m699.79 103.18 41.582 41.578-21.215 21.215-41.582-41.578z"/>
 <path d="m898.83 302.46 41.578 41.582-21.215 21.215-41.578-41.582z"/>
 <path d="m920.4 219.6h58.801v30h-58.801z"/>
 <path d="m639.6 219.6h58.801v30h-58.801z"/>
 <path d="m794.4 345.6h30v58.801h-30z"/>
 <path d="m794.4 63.602h30v58.801h-30z"/>
 <path d="m920.4 104.59 21.215 21.215-41.578 41.578-21.215-21.215z"/>
 <path d="m721.1 303.54 21.215 21.215-41.578 41.578-21.215-21.215z"/>
 <path d="m699.79 103.18 41.582 41.578-21.215 21.215-41.582-41.578z"/>
 <path d="m898.83 302.46 41.578 41.582-21.215 21.215-41.578-41.582z"/>
 <path d="m920.4 219.6h58.801v30h-58.801z"/>
 <path d="m639.6 219.6h58.801v30h-58.801z"/>
 <path d="m794.4 345.6h30v58.801h-30z"/>
 <path d="m1041.6 758.4c-12-15.602-28.801-26.398-46.801-31.199v-285.6h-30v96h-139.2c8.3984-10.801 12-25.199 9.6016-38.398-2.3984-14.398-9.6016-26.398-20.398-34.801-9.6016-7.1992-19.199-9.6016-31.199-9.6016-16.801 0-32.398 8.3984-42 21.602l-45.605 61.199h-21.602c-14.398-27.602-42-45.602-74.398-45.602s-60 18-74.398 45.602h-21.602l-45.602-62.398c-9.6016-13.199-25.199-21.602-42-21.602-10.801 0-21.602 3.6016-31.199 9.6016-10.801 8.3984-19.199 20.398-20.398 34.801-1.1992 14.398 1.1992 27.602 9.6016 38.398l-139.2-0.003906v-96h-30v286.8c-18 4.8008-34.801 15.602-46.801 31.199-18 22.801-26.398 55.199-22.801 86.398l19.199 150 14.398-2.3984c12-1.1992 24-2.3984 36-3.6016v146.4h30v-75.602h729.6v75.602h30l0.003906-146.39c12 1.1992 24 2.3984 36 3.6016l14.398 2.3984 19.199-150c3.6016-31.199-4.7969-63.602-22.797-86.402zm-76.801-190.8v157.2c-16.801-1.1992-32.398-3.6016-49.199-4.8008v-34.801c0-48-39.602-87.602-87.602-87.602h-46.801l22.801-31.199h160.8zm-205.2 60h68.398c31.199 0 57.602 25.199 57.602 57.602v31.199c-61.199-4.8008-122.4-8.3984-183.6-9.6016zm-159.6-105.6c28.801 0 52.801 24 52.801 52.801s-24 52.801-52.801 52.801-52.801-24-52.801-52.801 24-52.801 52.801-52.801zm-205.2-19.199c1.1992-6 3.6016-10.801 8.3984-14.398 9.6016-7.1992 24-4.8008 31.199 4.8008l124.8 171.6h80.398l124.8-171.6c7.1992-9.6016 21.602-12 31.199-4.8008 4.8008 3.6016 8.3984 8.3984 8.3984 14.398 1.1992 6 0 12-3.6016 16.801l-135.59 187.2c-21.602 0-43.199-1.1992-64.801-1.1992s-43.199 0-64.801 1.1992l-136.8-187.2c-3.5977-4.8008-4.7969-10.801-3.5977-16.801zm104.4 204c-61.199 1.1992-122.4 4.8008-183.6 9.6016v-31.199c0-31.199 25.199-57.602 57.602-57.602h69.602zm-103.2-139.2 22.801 31.199h-46.801c-48 0-87.602 39.602-87.602 87.602v33.598c-16.801 1.1992-32.398 2.3984-49.199 4.8008v-157.2zm568.8 463.2h-729.6v-44.398c121.2-13.199 243.6-19.199 364.8-19.199s243.6 7.1992 364.8 19.199zm69.598-189.6-15.602 120c-138-16.801-279.6-25.199-418.8-25.199s-280.8 8.3984-418.8 25.199l-15.602-121.2c-3.6016-24 2.3984-46.801 15.602-63.602 7.1992-8.3984 19.199-19.199 37.199-21.602 126-13.199 254.4-20.398 381.6-20.398 127.2 0 255.6 7.1992 381.6 20.398 18 2.3984 30 13.199 37.199 21.602 13.199 18 19.199 40.801 15.598 64.801z"/>
</svg>
