<?xml version="1.0" encoding="UTF-8"?>
<svg width="1200pt" height="1200pt" version="1.1" viewBox="0 0 1200 1200" xmlns="http://www.w3.org/2000/svg">
 <path d="m960.71 526.64c-10.828-15.609-28.875-26.438-48.094-28.875-146.68-16.781-173.11-37.266-195.98-113.02-1.2188-2.3906-2.3906-6-3.6094-10.828-1.2188-2.3906-1.2188-6-2.3906-8.4375 0-2.3906-1.2188-4.8281-2.3906-7.2188-7.2188-25.266-22.828-46.875-43.266-61.312 67.312-7.2188 120.24-66.141 120.24-134.68 0-74.531-61.312-135.89-135.89-135.89-74.578 0.046875-135.89 61.406-135.89 135.94 0 48.094 25.266 88.969 62.531 114.23-13.219 1.2188-25.266 2.3906-38.484 3.6094-105.8 15.609-174.32 52.922-212.81 119.02-36.094 62.531-42.094 143.11-45.703 227.26-1.2188 19.219 6 37.266 19.219 51.703s31.266 22.828 50.484 24.047h3.6094c38.484 0 69.75-31.266 72.141-68.531 4.8281-115.45 13.219-159.94 44.484-182.76-8.4375 63.75-14.438 128.68-18.047 192.37 0 0-1.2188 4.8281-2.3906 7.2188-13.219 43.266-25.266 101.02-37.266 181.55-27.656 76.969-67.312 135.89-94.969 174.32l-4.8281 7.2188c-2.3906 3.6094-4.8281 7.2188-7.2188 9.6094-3.6094 6-7.2188 10.828-10.828 16.828-12.047 18.047-15.609 40.875-10.828 61.312 4.8281 22.828 18.047 40.875 38.484 54.094 14.438 8.4375 28.875 13.219 45.703 13.219 28.875 0 55.312-14.438 70.922-38.484 1.2188-2.3906 3.6094-4.8281 4.8281-7.2188 2.3906-3.6094 4.8281-7.2188 7.2188-9.6094l1.2188-1.2188c25.266-36.094 80.578-114.23 119.02-220.03 9.6094 15.609 19.219 32.484 30.047 49.312 18.047 52.922 26.438 101.02 32.484 126.24l2.3906 9.6094c1.2188 8.4375 3.6094 15.609 3.6094 20.438v2.3906c9.6094 37.266 43.266 63.75 80.578 63.75 6 0 13.219 0 22.828-3.6094 20.438-6 38.484-19.219 49.312-38.484 10.828-19.219 14.438-42.094 9.6094-63.75 0-1.2188 0-3.6094-1.2188-4.8281-1.2188-4.8281-2.3906-12.047-3.6094-19.219-13.219-64.922-42.094-215.26-144.28-352.31 8.4375-34.875 15.609-69.75 21.656-105.8 54.094 39.656 125.06 55.312 217.64 66.141h8.3906c34.875 0 66.141-26.438 72.141-61.312 3.6562-19.125 0.046875-38.344-10.781-54zm-423.24-364.31c0-61.312 50.484-111.84 111.84-111.84 61.312 0 111.84 50.484 111.84 111.84 0 61.312-50.484 111.84-111.84 111.84-61.359-0.046876-111.84-50.531-111.84-111.84zm-108.19 936.66c-6 7.2188-9.6094 14.438-13.219 19.219-10.828 18.047-30.047 27.656-50.484 27.656-12.047 0-22.828-3.6094-32.484-9.6094-28.875-18.047-37.266-55.312-19.219-82.969 3.6094-7.2188 9.6094-14.438 16.828-25.266 26.438-38.484 73.359-103.41 103.41-189.98 4.8281-36.094 10.828-68.531 16.828-97.406 15.609 52.922 55.312 81.75 91.359 109.41 3.6094 2.3906 7.2188 12.047 9.6094 16.828-36.094 114.28-92.578 188.86-122.63 232.13zm517.03-520.64c-3.6094 24.047-24.047 40.875-48.094 40.875h-6c-110.62-13.219-185.16-37.266-235.69-93.797-7.2188 49.312-18.047 105.8-32.484 163.55 104.62 135.89 133.45 285 146.68 352.31 2.3906 9.6094 3.6094 18.047 4.8281 24.047 8.4375 32.484-10.828 62.531-43.266 70.922-4.8281 2.3906-9.6094 2.3906-14.438 2.3906-26.438 0-48.094-16.828-55.312-44.484-1.2188-8.4375-3.6094-19.219-6-31.266-6-31.266-15.609-79.359-33.656-132.28-19.219-31.266-37.266-61.312-54.094-88.969 0 0-6-9.6094-9.6094-12.047-54.094-39.656-107.02-74.531-86.578-177.94v-2.3906c3.6094-82.969 12.047-162.32 24.047-236.86-81.75 24.047-92.578 75.75-98.578 221.26-1.2188 25.266-22.828 45.703-48.094 45.703h-2.3906c-26.438-1.2188-46.875-24.047-45.703-50.484 7.2188-175.55 27.656-293.39 238.08-323.44 15.609-2.3906 31.266-3.6094 48.094-4.8281h7.2188c43.266 0 80.578 30.047 90.188 69.75 1.2188 0 1.2188 1.2188 1.2188 1.2188 2.3906 8.4375 4.8281 15.609 6 20.438 27.656 91.359 66.141 114.23 214.03 132.28 27.562 2.3438 45.609 26.391 39.609 54.047z"/>
</svg>
