<?xml version="1.0" encoding="UTF-8"?>
<svg id="Layer_1" data-name="Layer 1" xmlns="http://www.w3.org/2000/svg" viewBox="0 0 1169.753 1138.344">
  <defs>
    <style>
      .cls-1 {
        fill: #fff574;
        stroke: #000;
        stroke-miterlimit: 10;
      }
    </style>
  </defs>
  <polygon class="cls-1" points="1157.053 13.766 919.053 237.766 255.053 237.766 10.053 18.231 10.053 1044.766 254.053 812.766 909.131 808.766 1162.053 1039.766 1157.053 13.766"/>
  <path d="M1169.753,9.75v-3.656c0-1.219-1.219-1.219-1.219-2.438l-1.219-1.219s-1.219-1.219-2.438-1.219h-1.219c-1.219,0-2.438-1.219-3.656-1.219L9.703.047C8.484.047,7.266.047,6.047,1.266h-1.219c-1.172,0-1.172,1.219-2.391,1.219l-1.219,1.219c0,1.219-1.219,1.219-1.219,2.438v1122.5c0,4.828,3.656,9.703,9.703,9.703h1150.3c4.828,0,9.703-3.656,9.703-9.703l.047-1118.891ZM242.473,807.33L18.213,1019.49V30.38l224.26,210.89v566.06ZM254.567,819.471h38.766l-190.26,210.89H31.542l223.025-210.89ZM260.661,801.283V246.143h648.47v555.14H260.661ZM301.864,819.471h48.469l-145.45,210.89h-93.328l190.309-210.89ZM357.598,819.471h49.734l-94.547,210.89h-99.422l144.235-210.89ZM413.379,819.471h49.688l-55.734,210.89h-88.5l94.546-210.89ZM470.332,819.471h49.688l-16.969,210.89h-89.719l57-210.89ZM526.113,819.471h55.734v210.89h-71.531l15.797-210.89ZM587.894,819.471h55.734l16.969,210.89h-71.484l-1.219-210.89ZM665.472,1030.361l-16.969-210.89h49.734l55.734,210.89h-88.499ZM761.238,1030.361l-55.734-210.89h49.688l94.547,210.89h-88.501ZM855.785,1030.361l-94.547-210.89h49.688l145.45,210.89h-100.591ZM963.695,1030.361l-145.45-210.89h48.469l190.31,210.89h-93.329ZM1065.505,1030.361l-190.31-210.89h38.766l223.03,210.89h-71.486ZM926.105,807.331V241.271l224.26-210.89v987.89l-224.26-210.94ZM1136.995,18.231l-223.03,209.72H254.575L31.545,18.231h1105.45ZM18.195,1118.831v-70.312h1133.3v70.312H18.195Z"/>
</svg>