<?xml version="1.0" encoding="UTF-8"?>
<svg id="Layer_1" xmlns="http://www.w3.org/2000/svg" version="1.1" viewBox="0 0 642.3 1039.2">
  <!-- Generator: Adobe Illustrator 29.2.1, SVG Export Plug-In . SVG Version: 2.1.0 Build 116)  -->
  <defs>
    <style>
      .st0 {
        fill: #f0b424;
      }
    </style>
  </defs>
  <g id="Layer_3">
    <polygon class="st0" points="503.8 11 441.9 51.6 402 130.8 392.3 172.7 362.1 132.7 337.3 192.9 337.3 264 373.5 345.8 476.2 396.2 588.4 350.8 624.6 286.8 624.6 192.9 564.6 127.9 530.4 100.4 503.8 11"/>
    <path d="M598.4,145.3l-4.4-4.1c-7-6.5-27.9-25.9-35-33.2-22.9-25.8-35.4-58.3-37.1-97.6-.3-7.8-7.9-13.3-15.4-11.1-35.4,10.1-64.9,31.3-88.1,63.3l-2.2,3.2c-16.1,23.9-26,49.9-29.6,78l-.3,2.3-.2-.3c-4.7-6.3-8.9-13-12.3-20.2-4.1-8.5-15.8-9.3-21-1.5-32.8,49-40.6,103.5-23.3,162.3,25.6,75.3,88.9,120.9,161.3,117.9,79-3.3,149.5-66.6,151.5-149.5.3-50.9-12.4-78.8-43.9-109.6h0s0,0,0,0ZM579.5,160.7c28.4,27.3,38.8,49,38.6,93.8-1.7,69.2-61.4,122.8-128.3,125.6-61.5,2.6-115.1-36.1-137.2-101l-1-3.4c-11.6-42.1-8.5-81.2,9.4-117.5l1.7-3.4.7,1.1c7.2,10.4,15.9,19.8,25.8,28.3,8,6.8,20.3.9,20-9.6-1-36.6,8.6-69.1,28.9-98l2.2-2.9c16-21.1,35-36.3,57.2-45.7l1.4-.6.5,3.8c4.8,36.2,18.8,67.3,41.8,93.2l2.9,2.9c5.8,5.8,15,14.4,22.5,21.5l12.9,11.9h0Z"/>
  </g>
  <g id="Layer_11" data-name="Layer_1">
    <path d="M282,732V109.2C282,49.2,232.8,0,172.8,0S63.6,49.2,63.6,109.2v622.8C22.8,765.6,0,813.6,0,866.4c0,96,78,172.8,172.8,172.8s172.8-78,172.8-172.8c1.3-52.8-22.7-102-63.5-134.4h0ZM172.9,1011.6c-80.4,0-145.2-64.8-145.2-145.2s21.6-88.8,58.8-116.4l6-4.8V109.2c0-45.6,37.3-81.6,81.7-81.6s81.6,36,81.6,81.6v637.2l6,4.8c37.2,27.6,58.8,70.8,58.8,116.4-1.2,79.2-67.2,144-147.6,144h0Z"/>
    <circle class="st0" cx="172.8" cy="870" r="126.4"/>
    <rect class="st0" x="125.6" y="292.9" width="94.1" height="516"/>
    <path d="M73.1,148.8h104.7c2.1,0,4.1-1.2,4.1-2.4v-8.4c0-1.2-2.1-2.4-4.1-2.4h-104.7c-2.1,0-4.1,1.2-4.1,2.4v8.4s2.1,2.4,4.1,2.4Z"/>
    <path d="M73.1,214.8h104.7c2.1,0,4.1-1.2,4.1-2.4v-8.4c0-1.2-2.1-2.4-4.1-2.4h-104.7c-2.1,0-4.1,1.2-4.1,2.4v8.4c0,1.2,2.1,2.4,4.1,2.4Z"/>
    <path d="M73.1,280.8h104.7c2.1,0,4.1-1.2,4.1-2.4v-8.4c0-1.2-2.1-2.4-4.1-2.4h-104.7c-2.1,0-4.1,1.2-4.1,2.4v8.4c0,1.2,2.1,2.4,4.1,2.4Z"/>
    <path d="M73.1,348h104.7c2.1,0,4.1-1.2,4.1-2.4v-8.4c0-1.2-2.1-2.4-4.1-2.4h-104.7c-2.1,0-4.1,1.2-4.1,2.4v8.4c0,1.2,2.1,2.4,4.1,2.4Z"/>
    <path d="M73.1,414h104.7c2.1,0,4.1-1.2,4.1-2.4v-8.4c0-1.2-2.1-2.4-4.1-2.4h-104.7c-2.1,0-4.1,1.2-4.1,2.4v8.4c0,1.2,2.1,2.4,4.1,2.4Z"/>
    <path d="M73.1,480h104.7c2.1,0,4.1-1.2,4.1-2.4v-8.4c0-1.2-2.1-2.4-4.1-2.4h-104.7c-2.1,0-4.1,1.2-4.1,2.4v8.4c0,1.2,2.1,2.4,4.1,2.4Z"/>
    <path d="M73.1,547.2h104.7c2.1,0,4.1-1.2,4.1-2.4v-8.4c0-1.2-2.1-2.4-4.1-2.4h-104.7c-2.1,0-4.1,1.2-4.1,2.4v8.4c0,1.2,2.1,2.4,4.1,2.4Z"/>
    <path d="M73.1,613.2h104.7c2.1,0,4.1-1.2,4.1-2.4v-8.4c0-1.2-2.1-2.4-4.1-2.4h-104.7c-2.1,0-4.1,1.2-4.1,2.4v8.4c0,1.2,2.1,2.4,4.1,2.4Z"/>
    <path d="M183.9,676.8v-8.4c0-1.2-2.1-2.4-4.1-2.4h-104.7c-2.1,0-4.1,1.2-4.1,2.4v8.4c0,1.2,2.1,2.4,4.1,2.4h104.7s4.1,0,4.1-2.4Z"/>
  </g>
</svg>