<?xml version="1.0" encoding="UTF-8"?>
<svg width="1200pt" height="1200pt" version="1.1" viewBox="0 0 1200 1200" xmlns="http://www.w3.org/2000/svg">
 <path d="m991.31 443.76 44.719-37.547-12.094-14.438-12.141-14.438-50.203 42.094c-5.9531-4.0781-12.047-7.8281-18.234-11.203l28.406-60.938-34.219-15.938-29.016 62.203c-6.5625-1.9688-13.219-3.5156-19.969-4.6875v-67.828h-37.688v65.531c-127.64 6.8438-230.06 159.84-230.06 347.06 0 191.53 107.2 347.39 239.02 347.39s239.02-155.81 239.02-347.39c0-120.98-42.797-227.68-107.53-289.87zm-131.48 599.58c-111 0-201.28-138.94-201.28-309.66 0-170.76 90.281-309.66 201.28-309.66 97.359 0 178.78 106.88 197.34 248.34-21.281-36.938-60.234-61.781-104.95-61.781-67.406 0-122.06 56.297-122.06 125.72s54.656 125.72 122.06 125.72c43.969 0 82.406-24.047 103.92-60-20.297 137.95-100.59 241.31-196.31 241.31z"/>
 <path d="m348.71 386.58v-65.531h-37.688v67.875c-6.7031 1.1719-13.359 2.7188-19.922 4.7344l-29.062-62.297-34.172 15.938 28.5 61.078c-6.1875 3.375-12.234 7.125-18.141 11.203l-50.344-42.234-24.281 28.875 44.906 37.688c-64.641 62.25-107.39 168.84-107.39 289.74 0 191.53 107.25 347.39 239.02 347.39 131.81 0 239.02-155.81 239.02-347.39 0.046875-187.36-102.56-340.5-230.44-347.06zm83.859 475.45c43.969 0 82.406-24.047 103.88-60-20.297 137.95-100.59 241.26-196.31 241.26-111 0-201.28-138.94-201.28-309.66 0-170.76 90.281-309.66 201.28-309.66 97.359 0 178.78 106.88 197.34 248.34-21.281-36.938-60.234-61.734-104.91-61.734-67.406 0-122.06 56.297-122.06 125.72 0 69.469 54.656 125.72 122.06 125.72z"/>
 <path d="m154.18 206.86 15.656 10.5c2.9062-4.3125 7.8281-10.734 14.438-17.719 13.688-14.344 35.391-31.359 66.656-39.094 32.203-7.9688 60-2.5312 79.125 4.2656 9.0469 3.2344 16.359 6.7031 20.953 9.2812l18.375-32.906c-18.188-10.125-66.938-32.156-127.5-17.203-59.25 14.625-92.016 55.5-103.41 72.375l15.656 10.5z"/>
 <path d="m861.71 164.86c19.125-6.7969 46.922-12.234 79.125-4.2656 31.266 7.7344 52.969 24.703 66.656 39.094 6.6562 6.9844 11.578 13.406 14.484 17.719l31.312-21.047c-11.344-16.875-44.156-57.75-103.36-72.375-60.469-14.953-109.31 7.0781-127.5 17.203l18.328 32.953c4.5938-2.5781 11.859-6.0469 20.953-9.2812z"/>
</svg>
