<?xml version="1.0" encoding="UTF-8"?>
<svg width="1200pt" height="1200pt" version="1.1" viewBox="0 0 1200 1200" xmlns="http://www.w3.org/2000/svg">
 <path d="m320.76 717.47 62.391 203.72c5.5781 18.141 22.078 30.375 41.062 30.375h2.4375l22.547 162.47c2.0625 14.812 14.859 25.969 29.812 25.969h199.78c14.953 0 27.75-11.156 29.812-25.969l22.547-162.47h2.4375c18.984 0 35.484-12.188 41.062-30.375l37.781-123.32c0.60937-1.9219 0.75-3.8906 0.70312-5.8125 10.688-15.562 22.875-30 36.516-42.938 7.8281-7.4062 16.172-14.438 24.844-20.906 9.1875-6.7969 14.625-17.812 14.625-29.438v-29.062c0-8.2969-6.7031-15-15-15h-14.672c0.98438-4.9688 1.8281-9.9844 2.5781-15.047h12.562c16.594 0 30.094-13.5 30.094-30.094v-19.031c0-16.594-13.5-30.094-30.094-30.094h-12.844c-0.65625-4.3125-1.3594-8.5781-2.2031-12.891h14.625c8.2969 0 15-6.7031 15-15v-29.062c0-11.672-5.4844-22.641-14.625-29.438-8.6719-6.4219-17.062-13.453-24.891-20.906-12.328-11.719-23.484-24.609-33.422-38.438l-41.625-135.84c-5.5781-18.141-22.078-30.375-41.062-30.375l-2.3906-0.046875-22.5-162.47c-2.0625-14.812-14.859-25.969-29.812-25.969h-199.78c-14.953 0-27.75 11.156-29.812 25.969l-22.547 162.47h-2.4375c-18.984 0-35.484 12.188-41.062 30.375l-62.391 203.72c-16.922 36.938-25.547 76.406-25.547 117.47s8.625 80.531 25.5 117.47zm538.4-18.75c0 2.2031-0.9375 4.2188-2.5312 5.3438-8.7188 6.4688-17.109 13.547-25.031 20.906l2.625-8.5312c4.7344-10.359 8.8125-20.953 12.234-31.781h12.703zm15.562-108.23-0.09375 19.125h-15.094v-19.219zm-18.047-92.391c1.5469 1.1719 2.4844 3.1875 2.4844 5.3438v14.062h-12.703c-3.8438-12.188-8.4844-24.188-13.969-35.719-0.1875-1.5938-0.46875-3.2344-1.2656-4.7812-0.046874-0.09375-0.09375-0.1875-0.14062-0.28125 8.1094 7.5469 16.688 14.719 25.594 21.375zm-439.08-208.74c0.89063-2.9531 3.5625-4.9219 6.6562-4.9219h18.188c1.9219 0 3.75-0.375 5.4375-0.9375h182.9c8.2969 0 15-6.7031 15-15s-6.7031-15-15-15h-168.42l9.0938-65.578h10.078c7.6406 0 13.781-6.1875 13.781-13.781 0-7.6406-6.1875-13.781-13.781-13.781h-6.2344l8.8594-64.359h189.52l8.9062 64.312h-110.62c-7.6406 0-13.781 6.1875-13.781 13.781 0 7.6406 6.1875 13.781 13.781 13.781h114.42l9.0938 65.578h-19.781c-8.2969 0-15 6.7031-15 15s6.7031 15 15 15h34.219c1.7344 0.5625 3.5625 0.9375 5.4375 0.9375h18.188c3.0938 0 5.7188 1.9688 6.6562 4.9219l33.047 107.81c-51.234-49.312-120.1-77.812-194.34-77.812-34.734 0-68.672 6.2812-100.83 18.656-7.7344 2.9531-11.578 11.672-8.625 19.406 2.2969 5.9531 7.9688 9.6094 14.016 9.6094 1.7812 0 3.6094-0.32812 5.3906-1.0312 28.734-11.062 59.016-16.688 90.047-16.688 96.422 0 182.58 53.766 225.1 140.29 0.1875 1.5 0.42188 3 1.125 4.4062 7.2656 15.234 12.984 31.219 17.016 47.578-0.046875 1.4531 0.046875 2.9062 0.42188 4.4062 2.2031 9.5625 3.8438 19.359 4.9219 29.109 0.09375 0.98437 0.5625 1.8281 0.84375 2.7656 0.75 7.6875 1.1719 15.469 1.1719 23.25-0.046875 5.5781-0.32812 11.203-0.70312 16.734-0.375 1.2188-0.70312 2.5312-0.79688 3.8906-0.98438 11.531-2.8125 23.062-5.4375 34.312-0.32812 1.4531-0.42188 2.9531-0.42188 4.4062-4.0781 16.359-9.75 32.344-17.016 47.578-0.14062 0.32812-0.14062 0.65625-0.23438 0.98437-0.1875 0.28125-0.42188 0.46875-0.60938 0.79688-18.094 37.031-45.375 69.375-78.891 93.562-6.7031 4.8281-8.25 14.203-3.375 20.953 2.9062 4.0781 7.5 6.2344 12.188 6.2344 3.0469 0 6.0938-0.9375 8.7656-2.8125 10.828-7.8281 21-16.453 30.562-25.688l-33.281 108.56c-0.89062 2.9531-3.5625 4.9219-6.6562 4.9219h-18.141c-0.1875 0-0.32812 0.046876-0.51562 0.046876-0.70312 0.046874-1.3594 0.09375-2.0625 0.1875-0.51562 0.09375-1.0312 0.14062-1.5 0.23437-0.51562 0.14063-1.0312 0.28125-1.5 0.42188h-115.41c-8.2969 0-15 6.7031-15 15 0 8.2969 6.7031 15 15 15h101.02l-9.0938 65.578-26.391 0.09375c-7.6406 0-13.781 6.1875-13.781 13.781 0 7.6406 6.1875 13.781 13.781 13.781h22.594l-8.9062 64.359h-189.52l-8.9062-64.312h138.24c7.6406 0 13.781-6.1875 13.781-13.781 0-7.6406-6.1875-13.781-13.781-13.781h-142.03l-9.0938-65.578h31.688c8.2969 0 15-6.7031 15-15 0-8.2969-6.7031-15-15-15h-46.078c-0.51562-0.1875-0.98438-0.32812-1.5-0.42187-0.46875-0.09375-0.9375-0.1875-1.4531-0.23438-0.70312-0.09375-1.4062-0.1875-2.1094-0.23437-0.1875 0-0.32812-0.046876-0.46875-0.046876h-18.141c-3.0938 0-5.7188-1.9688-6.6562-4.9219l-33.047-107.81c51.234 49.312 120.1 77.812 194.34 77.812 39.938 0 78.562-8.25 114.75-24.469 7.5469-3.375 10.922-12.281 7.5469-19.828-3.375-7.5469-12.234-10.875-19.828-7.5469-32.297 14.484-66.75 21.844-102.47 21.844-92.344 0-175.22-49.359-219.37-129.56l-2.4375-8.0625c-0.1875-2.1094-0.70312-4.2188-1.6406-6.2344-16.031-33.469-24.141-69.375-24.141-106.78s8.1094-73.359 24.141-106.78c0.9375-2.0156 1.4531-4.125 1.6406-6.2344l2.4375-7.9688c21.281-38.578 52.172-70.875 90.141-93.797 7.0781-4.2656 9.375-13.5 5.1094-20.578-4.2656-7.0781-13.5-9.375-20.578-5.1094-18.094 10.922-34.688 23.766-49.734 38.203z"/>
 <path d="m546 916.5h-7.5c-8.2969 0-15 6.7031-15 15s6.7031 15 15 15h7.5c8.2969 0 15-6.7031 15-15 0-8.25-6.7031-15-15-15z"/>
 <path d="m527.48 160.31h-3.9844c-7.6406 0-13.781 6.1875-13.781 13.781 0 7.6406 6.1875 13.781 13.781 13.781h3.9844c7.6406 0 13.781-6.1875 13.781-13.781 0.046875-7.5938-6.1406-13.781-13.781-13.781z"/>
 <path d="m771.98 600c0 102.19-83.109 185.29-185.29 185.29-33.703 0-66.656-9.1406-95.344-26.391-6.2344-3.75-14.344-1.7344-18.141 4.5-3.75 6.2344-1.7344 14.344 4.5 18.141 32.812 19.734 70.5 30.141 108.94 30.141 116.72 0 211.69-94.969 211.69-211.69 0-50.719-18.234-99.75-51.281-138.14-4.7812-5.5312-13.078-6.1406-18.609-1.3594-5.5312 4.7344-6.1406 13.078-1.3594 18.609 28.969 33.562 44.906 76.5 44.906 120.89z"/>
 <path d="m374.95 600c0 58.219 23.156 112.45 65.109 152.76 2.5781 2.4375 5.8594 3.7031 9.1406 3.7031 3.4688 0 6.9375-1.3594 9.5156-4.0781 5.0625-5.25 4.875-13.641-0.375-18.656-36.75-35.297-57-82.781-57-133.69 0-102.19 83.109-185.29 185.29-185.29 41.391 0 80.531 13.359 113.2 38.578 5.7656 4.4531 14.062 3.375 18.516-2.3438 4.4531-5.7656 3.375-14.062-2.3438-18.516-37.312-28.875-82.078-44.109-129.37-44.109-116.72-0.046875-211.69 94.922-211.69 211.64z"/>
 <path d="m529.31 538.78c-6.0469-4.6406-14.719-3.4688-19.359 2.5781s-3.4688 14.719 2.5781 19.359l31.734 24.328c-1.6875 4.7344-2.7656 9.7031-2.7656 15 0 21.281 15.141 39.891 35.953 44.203 0.9375 0.1875 1.875 0.28125 2.8125 0.28125 6.4219 0 12.141-4.5 13.5-11.016 1.5469-7.4531-3.2344-14.766-10.734-16.312-8.1094-1.6875-13.969-8.9062-13.969-17.203 0-9.6562 7.875-17.531 17.531-17.531 4.9219 0 9.3281 2.0156 12.516 5.2969 0.046875 0.046875 0.046875 0.14062 0.09375 0.1875s0.046875 0.046875 0.09375 0.046875c2.9531 3.1406 4.8281 7.3594 4.8281 12.047 0 2.9062-0.70312 5.6719-2.0156 8.2031-3.5625 6.75-0.98438 15.094 5.7188 18.656s15.094 0.98438 18.656-5.7188c3.5156-6.5625 5.3438-13.828 5.3438-21.188 0-7.0312-1.7812-13.641-4.6406-19.594l67.453-64.406c5.5312-5.25 5.7188-14.016 0.46875-19.5-5.25-5.5312-14.016-5.7188-19.5-0.46875l-67.547 64.453c-6.375-3.4688-13.594-5.625-21.375-5.625-9.5625 0-18.422 3.0469-25.734 8.1562z"/>
 <path d="m460.92 588h-32.062c-6.6094 0-12 5.3906-12 12s5.3906 12 12 12h32.062c6.6094 0 12-5.3906 12-12s-5.3906-12-12-12z"/>
 <path d="m744.47 612c6.6094 0 12-5.3906 12-12s-5.3906-12-12-12h-32.062c-6.6094 0-12 5.3906-12 12s5.3906 12 12 12z"/>
 <path d="m574.69 725.76v32.062c0 6.6094 5.3906 12 12 12s12-5.3906 12-12v-32.062c0-6.6094-5.3906-12-12-12-6.6562 0-12 5.3438-12 12z"/>
 <path d="m598.69 474.24v-32.062c0-6.6094-5.3906-12-12-12s-12 5.3906-12 12v32.062c0 6.6094 5.3906 12 12 12s12-5.3438 12-12z"/>
</svg>
