<?xml version="1.0" encoding="UTF-8"?>
<svg id="Layer_1" data-name="Layer 1" xmlns="http://www.w3.org/2000/svg" viewBox="0 0 1049.996 1049.998">
  <defs>
    <style>
      .cls-1 {
        fill-rule: evenodd;
      }
    </style>
  </defs>
  <path class="cls-1" d="M0,731.262C0,713.543,12.328,698.684,28.875,694.793l33.328-8.391c38.344-9.562,78.891,1.641,106.83,29.625l14.766,14.766c25.688,25.641,66.281,28.5,95.297,6.75l7.125-5.344c52.641-39.469,124.92-39.469,177.56,0l17.438,13.125c25.969,19.406,61.594,19.406,87.562,0l17.438-13.125c52.641-39.469,124.92-39.469,177.56,0l7.125,5.344c29.016,21.75,69.609,18.891,95.297-6.75l14.766-14.766c27.938-27.984,68.484-39.188,106.83-29.625l33.328,8.391c16.547,3.891,28.828,18.75,28.828,36.469,0,20.719-16.781,37.5-37.453,37.5-5.344,0-10.359-1.078-14.906-3.094-7.781-1.688-17.766-3.938-27.984-6.469-12.797-3.188-26.297.516-35.625,9.844l-14.766,14.766c-52.031,52.031-134.44,57.938-193.31,13.734l-7.125-5.344c-25.969-19.406-61.594-19.406-87.562,0l-17.438,13.125c-52.641,39.469-124.92,39.469-177.56,0l-17.438-13.125c-25.969-19.406-61.594-19.406-87.562,0l-7.125,5.344c-58.875,44.203-141.28,38.297-193.31-13.734l-14.766-14.766c-9.328-9.328-22.828-13.031-35.625-9.844-10.219,2.531-20.203,4.781-27.984,6.469-4.547,2.016-9.609,3.094-14.906,3.094C16.789,768.762.008,751.981.008,731.262H0ZM42.422,974.682c-20.531,2.719-39.375-11.766-42.094-32.25-2.719-20.531,11.766-39.375,32.25-42.094l38.344-5.062c34.688-4.547,69.516,7.266,94.266,32.016l18.609,18.562c25.688,25.688,66.281,28.547,95.297,6.797l7.125-5.344c52.641-39.469,124.92-39.469,177.56,0l17.438,13.125c25.969,19.453,61.594,19.453,87.562,0l17.438-13.125c52.641-39.469,124.92-39.469,177.56,0l7.125,5.344c29.016,21.75,69.609,18.891,95.297-6.797l18.609-18.562c24.75-24.75,59.578-36.562,94.266-32.016l38.344,5.062c20.484,2.719,34.969,21.562,32.25,42.094-2.719,20.484-21.562,34.969-42.094,32.25l-38.297-5.016c-11.578-1.547-23.203,2.391-31.453,10.641l-18.609,18.609c-52.031,52.031-134.44,57.938-193.31,13.734l-7.125-5.344c-25.969-19.453-61.594-19.453-87.562,0l-17.438,13.125c-52.641,39.422-124.92,39.422-177.56,0l-17.438-13.125c-25.969-19.453-61.594-19.453-87.562,0l-7.125,5.344c-58.875,44.203-141.28,38.297-193.31-13.734l-18.609-18.609c-8.25-8.25-19.875-12.188-31.453-10.641l-38.301,5.016ZM548.632,8.402s78.469,63.562,141.24,157.6c43.5,65.203,78.891,144.74,78.891,227.76,0,134.53-109.22,243.74-243.74,243.74s-243.74-109.22-243.74-243.74c0-83.016,35.391-162.56,78.891-227.76C422.94,71.971,501.414,8.402,501.414,8.402c13.781-11.203,33.469-11.203,47.25,0h-.032ZM525.007,87.668c-25.312,23.812-66.703,66.375-102.47,119.95-35.672,53.438-66.281,118.08-66.281,186.14,0,93.141,75.609,168.74,168.74,168.74s168.74-75.609,168.74-168.74c0-68.062-30.609-132.71-66.281-186.14-35.766-53.578-77.109-96.141-102.47-119.95h.022Z"/>
</svg>