<?xml version="1.0" encoding="UTF-8"?>
<svg id="Layer_1" xmlns="http://www.w3.org/2000/svg" version="1.1" viewBox="0 0 1152.7 1140.7">
  <!-- Generator: Adobe Illustrator 29.2.1, SVG Export Plug-In . SVG Version: 2.1.0 Build 116)  -->
  <path d="M1045.2,524.4c0-7.2,1.2-13.2,1.2-20.4-.2-57.2-17.5-113.1-49.7-160.4-32.2-47.3-77.8-83.9-131-105-53.2-21.2-111.4-25.9-167.3-13.7-55.9,12.2-106.9,40.9-146.3,82.3-14.3-35.6-38.8-66.2-70.5-87.8-31.7-21.6-69.1-33.3-107.5-33.6-38.4-.3-75.9,10.9-108,32.1-32,21.2-57,51.4-71.7,86.8-14.8,35.4-18.6,74.4-11.1,112.1,7.5,37.6,26,72.2,53.2,99.2-2.3,11.9-3.5,23.9-3.6,36l-12,10.8c-36.5,36.7-57,86.3-57,138.1,0,51.8,20.6,101.4,57.1,138s86.1,57.3,137.9,57.5h602.4c43.8-.9,85.9-16.5,119.8-44.2,33.9-27.7,57.5-66,67-108.7,9.5-42.7,4.5-87.4-14.4-126.9-18.9-39.5-50.4-71.5-89.6-91l1.2-1.2ZM229.2,379.2c0-48.8,24.4-94.3,65-121.2,40.6-26.9,92.1-31.6,137-12.6,44.9,19.1,77.2,59.4,86,107.3l-6,9.6h0c-47.7-18.1-100.4-17.8-147.9.8-47.5,18.6-86.3,54.3-108.9,100-17-24.3-26.3-53.2-26.4-82.8l1.2-1.2ZM1065.6,805.2c-27.6,27.8-65.2,43.4-104.4,43.2H358.8c-38.8-.3-76-15.9-103.4-43.4-27.4-27.5-42.9-64.7-43.1-103.5-.2-38.8,14.9-76.2,42.1-103.9l16.8-14.4,10.8-8.4v-19.2c0-41.5,16.4-81.3,45.6-110.7,29.2-29.4,68.9-46.1,110.4-46.5,25-.3,49.7,5.5,72,16.8l22.8,12,10.8-22.8h0c24.5-51.1,66.3-91.7,118-114.8,51.7-23.1,109.9-27,164.2-11.2,54.3,15.9,101.3,50.5,132.5,97.8,31.2,47.3,44.5,104,37.7,160.2l-2.4,19.2,18,6h0c47.2,17.3,82.3,57.4,93.2,106.5,10.9,49-3.8,100.2-39.2,136v1.2Z"/>
  <path d="M323.7,1122.5l53.9-134.8,44.6,17.8-53.9,134.8-44.6-17.8Z"/>
  <path d="M467.2,1122l53.9-134.8,44.6,17.8-53.9,134.8-44.6-17.8Z"/>
  <path d="M610.6,1122.7l53.9-134.8,44.6,17.8-53.9,134.8-44.6-17.8Z"/>
  <path d="M755.3,1122.2l53.9-134.8,44.6,17.8-53.9,134.8-44.6-17.8Z"/>
  <path d="M898.8,1122.9l53.9-134.8,44.6,17.8-53.9,134.8-44.6-17.8Z"/>
  <path d="M349.2,0h48v134.2h-48V0Z"/>
  <path d="M0,349.2h134.4v48H0v-48Z"/>
  <path d="M526.2,186.5l95-95,33.9,33.9-95,95-33.9-33.9Z"/>
  <path d="M92.7,125.8l33.9-33.9,94.9,94.9-33.9,33.9-94.9-94.9Z"/>
</svg>