<?xml version="1.0" encoding="UTF-8"?>
<svg width="1200pt" height="1200pt" version="1.1" viewBox="0 0 1200 1200" xmlns="http://www.w3.org/2000/svg">
 <path d="m1106.3 0h-1012.5c-51.797 0-93.75 41.953-93.75 93.75v1012.5c0 24.844 9.8906 48.703 27.469 66.281 17.578 17.578 41.438 27.469 66.281 27.469h1012.5c24.844 0 48.703-9.8906 66.281-27.469 17.578-17.578 27.469-41.438 27.469-66.281v-1012.5c0-24.844-9.8906-48.703-27.469-66.281-17.578-17.578-41.438-27.469-66.281-27.469zm56.25 93.75v487.5h-543.74v-543.74h487.5c31.078 0 56.25 25.172 56.25 56.25zm-1068.7-56.25h487.5v543.74h-543.74v-487.5c0-31.078 25.172-56.25 56.25-56.25zm-56.25 1068.7v-487.5h543.74v543.74h-487.5c-31.078 0-56.25-25.172-56.25-56.25zm1068.7 56.25h-487.5v-543.74h543.74v487.5c0 31.078-25.172 56.25-56.25 56.25z"/>
 <path d="m309.37 434.81c50.719 0 96.469-30.562 115.88-77.438s8.7188-100.83-27.188-136.69c-35.859-35.906-89.812-46.594-136.69-27.188-46.879 19.406-77.438 65.156-77.438 115.88 0.09375 69.234 56.203 125.34 125.44 125.44zm0-213.37c35.578 0 67.641 21.422 81.234 54.281 13.641 32.859 6.0938 70.688-19.031 95.859-25.172 25.125-63 32.672-95.859 19.031-32.859-13.594-54.281-45.656-54.281-81.234 0-48.562 39.375-87.938 87.938-87.938z"/>
 <path d="m309.37 164.63c4.9688 0 9.75-1.9688 13.266-5.4844s5.4844-8.2969 5.4844-13.266v-42.75c0-10.359-8.3906-18.75-18.75-18.75s-18.75 8.3906-18.75 18.75v42.75c0 10.359 8.3906 18.75 18.75 18.75z"/>
 <path d="m425.06 212.44c4.9688 0.046875 9.7969-1.9219 13.312-5.4375l30.375-30.188c7.4062-7.4062 7.4062-19.406 0-26.812s-19.406-7.4062-26.812 0l-29.438 30.375c-6.8906 7.2656-6.8906 18.609 0 25.875 3.2344 3.6094 7.7344 5.8125 12.562 6.1875z"/>
 <path d="m454.13 309.37c0 4.9688 1.9688 9.75 5.4844 13.266s8.2969 5.4844 13.266 5.4844h42.75c10.359 0 18.75-8.3906 18.75-18.75s-8.3906-18.75-18.75-18.75h-42.75c-10.359 0-18.75 8.3906-18.75 18.75z"/>
 <path d="m438.37 412.5c-7.4062-4.6875-17.109-3.6094-23.297 2.5781s-7.2656 15.891-2.5781 23.297l29.438 30.375c3.5156 3.5156 8.3438 5.4844 13.312 5.4375 5.0625 0.09375 9.9375-1.875 13.5-5.4375 3.5625-3.5156 5.5312-8.2969 5.5312-13.312s-1.9688-9.7969-5.5312-13.312z"/>
 <path d="m309.37 454.13c-10.359 0-18.75 8.3906-18.75 18.75v42.75c0 10.359 8.3906 18.75 18.75 18.75s18.75-8.3906 18.75-18.75v-42.75c0-4.9688-1.9688-9.75-5.4844-13.266s-8.2969-5.4844-13.266-5.4844z"/>
 <path d="m180.37 412.5-30.375 29.438c-3.6094 3.5156-5.625 8.3438-5.625 13.406s2.0156 9.8906 5.625 13.406c3.5156 3.5156 8.3438 5.4844 13.312 5.4375 5.0625 0.09375 9.9375-1.875 13.5-5.4375l29.438-30.375c4.6875-7.4062 3.6094-17.109-2.5781-23.297s-15.891-7.2656-23.297-2.5781z"/>
 <path d="m103.12 328.13h42.75c10.359 0 18.75-8.3906 18.75-18.75s-8.3906-18.75-18.75-18.75h-42.75c-10.359 0-18.75 8.3906-18.75 18.75s8.3906 18.75 18.75 18.75z"/>
 <path d="m180.37 206.26c3.5156 3.5156 8.3438 5.4844 13.312 5.4375 4.7344-0.1875 9.1875-2.1094 12.562-5.4375 3.5625-3.5156 5.5312-8.2969 5.5312-13.312 0-5.0156-1.9688-9.7969-5.5312-13.312l-29.438-29.625c-7.4062-7.4062-19.406-7.4062-26.812 0s-7.4062 19.406 0 26.812z"/>
 <path d="m665.63 403.13c0 36.234 29.391 65.625 65.625 65.625h300c32.953 0.09375 60.891-24.234 65.25-56.906s-16.172-63.516-48-72.094c-0.70312-4.125-1.7344-8.2031-3-12.188 2.6719 0.1875 5.3906 0.1875 8.0625 0 13.5 0.09375 26.672-4.2656 37.5-12.375 11.766-8.9062 19.969-21.656 23.25-36 1.125-4.6875 1.6875-9.4688 1.6875-14.25-0.046875-4.5-0.51562-8.9531-1.5-13.312-5.2031-24.516-24.516-43.594-49.125-48.375-3.2812-7.6875-7.6406-14.906-12.938-21.375-3.2812-4.125-6.9844-7.875-11.062-11.25-15.891-13.547-36.141-20.859-57-20.625-31.781-0.046875-61.078 17.203-76.5 45-13.547 2.3438-26.016 8.9062-35.625 18.75-36.141-14.203-76.969-9.5156-108.98 12.469s-51.047 58.406-50.766 97.219c0 5.5312 0.375 11.016 1.125 16.5-28.359 7.9219-48 33.75-48 63.188zm254.63-171.74c7.6875 0 14.578-4.6875 17.438-11.812 5.8125-15.094 18.562-26.484 34.266-30.469 15.703-3.9844 32.344-0.09375 44.672 10.406 2.2969 2.0156 4.4531 4.2188 6.375 6.5625 4.875 5.9531 8.3438 12.938 10.125 20.438 2.3906 9.0938 11.109 15.047 20.438 13.875h1.3125c10.781 0.75 19.922 8.2969 22.688 18.75 0.1875 1.875 0.1875 3.75 0 5.625 0.28125 1.9219 0.28125 3.8906 0 5.8125-1.2188 5.8125-4.5938 10.969-9.375 14.438-9.5625 7.0312-22.828 6.0938-31.312-2.25-3.5156-3.375-8.25-5.2969-13.125-5.25-4.0781 0-8.0156 1.3125-11.25 3.75-0.75-0.65625-1.5469-1.2188-2.4375-1.6875l-2.4375-1.875c-4.4062-2.8594-9.0469-5.3906-13.875-7.5l-3.75-1.5c-3.9844-1.5469-8.0625-2.7656-12.188-3.75l-4.6875-1.125c-4.8281-0.89062-9.7031-1.3594-14.625-1.5h-15.938c-3.7969 0.51562-7.5938 1.3125-11.25 2.4375-3.0469-5.3438-6.5625-10.453-10.5-15.188-1.125-1.5-2.4375-2.8125-3.5625-4.125-2.8594-3.3281-5.9531-6.4219-9.1875-9.375-0.70312-0.84375-1.4531-1.6875-2.25-2.4375 4.5938-1.875 9.5156-2.625 14.438-2.25zm-189 143.63h5.625c6.0938 0.046875 11.859-2.9062 15.375-7.875 3.5156-4.9688 4.4531-11.297 2.4375-17.062-3.0938-8.5312-4.6875-17.531-4.6875-26.625 0.09375-43.969 35.719-79.594 79.688-79.688 13.688 0 27.094 3.5625 39 10.312 16.547 9.2812 29.25 24.188 35.812 42 1.875 5.0625 5.8125 9.0469 10.828 10.969 5.0156 1.9688 10.641 1.6406 15.422-0.84375 11.531-5.9531 24.844-7.6406 37.5-4.6875 11.062 2.2031 21.188 7.6875 29.062 15.75 9.8906 10.547 15.328 24.516 15.188 39 0 4.9688 1.9688 9.75 5.4844 13.266 3.5156 3.5156 8.2969 5.4844 13.266 5.4844 15.516 0 28.125 12.609 28.125 28.125s-12.609 28.125-28.125 28.125h-300c-15.516 0-28.125-12.609-28.125-28.125s12.609-28.125 28.125-28.125z"/>
 <path d="m457.13 712.5h-25.875c-10.359 0-18.75 8.3906-18.75 18.75s8.3906 18.75 18.75 18.75h25.125c22.078 0 39.938 17.859 39.938 39.938s-17.859 39.938-39.938 39.938h-96.375c-10.359 0-18.75 8.3906-18.75 18.75s8.3906 18.75 18.75 18.75h97.125c42.75 0 77.438-34.688 77.438-77.438s-34.688-77.438-77.438-77.438z"/>
 <path d="m350.63 913.87h-134.44c-10.359 0-18.75 8.3906-18.75 18.75s8.3906 18.75 18.75 18.75h134.44c22.078 0 39.938 17.859 39.938 39.938s-17.859 39.938-39.938 39.938h-42c-10.359 0-18.75 8.3906-18.75 18.75s8.3906 18.75 18.75 18.75h42c42.75 0 77.438-34.688 77.438-77.438s-34.688-77.438-77.438-77.438z"/>
 <path d="m159.56 913.87h-56.25c-10.359 0-18.75 8.3906-18.75 18.75s8.3906 18.75 18.75 18.75h56.25c10.359 0 18.75-8.3906 18.75-18.75s-8.3906-18.75-18.75-18.75z"/>
 <path d="m313.87 829.87h-36c-10.359 0-18.75 8.3906-18.75 18.75s8.3906 18.75 18.75 18.75h36c10.359 0 18.75-8.3906 18.75-18.75s-8.3906-18.75-18.75-18.75z"/>
 <path d="m226.5 829.87c-10.359 0-18.75 8.3906-18.75 18.75s8.3906 18.75 18.75 18.75h5.0625c10.359 0 18.75-8.3906 18.75-18.75s-8.3906-18.75-18.75-18.75z"/>
 <path d="m175.13 792h154.13c10.359 0 18.75-8.3906 18.75-18.75s-8.3906-18.75-18.75-18.75h-154.13c-10.359 0-18.75 8.3906-18.75 18.75s8.3906 18.75 18.75 18.75z"/>
 <path d="m1027.1 770.26c-5.7188-15.656-14.156-30.188-24.938-42.938-5.625-6.8438-11.906-13.125-18.75-18.75-33.984-28.641-79.172-40.219-122.76-31.406-43.547 8.7656-80.719 36.984-100.92 76.594-55.969 5.8125-97.594 54.422-94.734 110.62 2.9062 56.203 49.312 100.31 105.61 100.31 19.219-0.09375 38.062-5.3438 54.562-15.188 42.797 20.812 93 19.688 134.81-3 26.578 18.844 60.797 23.203 91.266 11.719 30.469-11.531 53.25-37.406 60.797-69.094 1.7344-7.3125 2.625-14.812 2.625-22.312 0.046875-7.0312-0.75-14.016-2.4375-20.812-9.2812-40.828-43.5-71.25-85.125-75.75zm49.312 111c-3.2812 13.969-11.484 26.25-23.062 34.688-23.953 17.391-56.859 15.281-78.375-5.0625-6.375-6.2344-16.266-7.0781-23.625-2.0625-35.156 23.672-80.766 24.984-117.19 3.375-6.6562-3.9844-15.094-3.4688-21.188 1.3125-17.484 13.641-40.5 17.906-61.734 11.484-21.234-6.4219-38.016-22.781-45-43.828-6.9844-21.047-3.3281-44.156 9.8438-62.016 13.172-17.859 34.219-28.172 56.391-27.703 7.6406 0.046876 14.531-4.5469 17.438-11.625 13.031-32.016 40.641-55.875 74.203-64.125 33.562-8.2969 69.047 0 95.484 22.312 4.7812 4.0781 9.2344 8.5312 13.312 13.312 10.312 12.328 17.719 26.812 21.75 42.375 3.2344 9.2812 12.562 15.047 22.312 13.688 28.406 0.046876 52.969 19.875 59.062 47.625 0.98438 4.125 1.4531 8.3438 1.5 12.562 0.14062 4.5938-0.23438 9.1875-1.125 13.688z"/>
 <path d="m763.31 1001.3c-14.625 18.75-32.062 44.625-32.062 61.312 2.1562 24.281 22.5 42.844 46.875 42.844s44.719-18.562 46.875-42.844c0-16.688-17.438-42.562-32.062-61.312-3.5625-4.5938-9-7.2656-14.812-7.2656s-11.25 2.6719-14.812 7.2656zm14.812 67.5c-5.4375 0-9.375-3.1875-9.375-5.25 2.1562-6.7031 5.2969-13.031 9.375-18.75 3.8906 5.8125 7.0312 12.141 9.375 18.75-1.6875 3.5625-5.4375 5.7188-9.375 5.25z"/>
 <path d="m875.81 1001.3c-14.625 18.75-32.062 44.625-32.062 61.312 2.1562 24.281 22.5 42.844 46.875 42.844s44.719-18.562 46.875-42.844c0-16.688-17.438-42.562-32.062-61.312-3.5625-4.5938-9-7.2656-14.812-7.2656s-11.25 2.6719-14.812 7.2656zm14.812 67.5c-5.4375 0-9.375-3.1875-9.375-5.25 2.1562-6.7031 5.2969-13.031 9.375-18.75 3.8906 5.8125 7.0312 12.141 9.375 18.75-1.6875 3.5625-5.4375 5.7188-9.375 5.25z"/>
 <path d="m988.31 1001.3c-14.625 18.75-32.062 44.625-32.062 61.312 2.1562 24.281 22.5 42.844 46.875 42.844s44.719-18.562 46.875-42.844c0-16.688-17.438-42.562-32.062-61.312-3.5625-4.5938-9-7.2656-14.812-7.2656s-11.25 2.6719-14.812 7.2656zm14.812 67.5c-5.4375 0-9.375-3.1875-9.375-5.25 2.1562-6.7031 5.2969-13.031 9.375-18.75 3.8906 5.8125 7.0312 12.141 9.375 18.75-1.6875 3.5625-5.4375 5.7188-9.375 5.25z"/>
</svg>
