<?xml version="1.0" encoding="UTF-8"?>
<svg id="Layer_1" data-name="Layer 1" xmlns="http://www.w3.org/2000/svg" viewBox="0 0 1200.05 1190.878">
  <path d="M79.266,0C35.719,0,0,35.578,0,79.125v890.16c0,43.547,35.766,79.172,79.266,79.172h286.55c10.453-.047,18.891-8.578,18.844-19.031,0-10.406-8.438-18.844-18.844-18.891H79.316c-23.203,0-41.391-18.047-41.391-41.25l-.047-723.47h1124.3v723.47c0,23.203-18.188,41.25-41.391,41.25h-193.13c-5.016-.047-9.844,1.969-13.406,5.484-3.562,3.562-5.578,8.391-5.578,13.406-.047,5.062,1.969,9.891,5.531,13.5,3.562,3.562,8.438,5.531,13.453,5.531h193.08c43.547,0,79.266-35.625,79.266-79.172l.047-890.16c0-43.547-35.766-79.125-79.266-79.125H79.266ZM79.266,37.875h1041.5c23.203,0,41.391,18.047,41.391,41.25v128.76H37.857V79.125c0-23.203,18.188-41.25,41.391-41.25h.018ZM137.25,97.266c-14.016,0-25.688,11.672-25.688,25.734s11.625,25.594,25.688,25.594,25.594-11.578,25.594-25.594-11.578-25.734-25.594-25.734ZM234.375,97.266c-14.016,0-25.688,11.672-25.688,25.734s11.625,25.594,25.688,25.594,25.594-11.578,25.594-25.594-11.578-25.734-25.594-25.734ZM331.5,97.266c-14.016,0-25.688,11.672-25.688,25.734s11.625,25.594,25.688,25.594,25.594-11.578,25.594-25.594-11.578-25.734-25.594-25.734ZM581.95,331.876c-8.578-.047-16.078,5.719-18.281,14.016l-30.094,112.12v.047c-1.312,4.828-.656,10.031,1.875,14.391s6.703,7.547,11.531,8.812c4.875,1.312,10.031.609,14.391-1.875,4.359-2.531,7.547-6.656,8.812-11.531l30.094-112.12c1.312-4.875.609-10.078-1.875-14.438-2.531-4.359-6.703-7.5-11.578-8.812-1.594-.422-3.234-.656-4.875-.656v.046ZM363.66,349.267v-.047c-3.328.047-6.609.891-9.469,2.578-9.047,5.25-12.094,16.828-6.844,25.875l58.031,100.55h-.047c2.531,4.359,6.656,7.547,11.531,8.859,4.828,1.312,10.031.656,14.391-1.875,4.359-2.484,7.594-6.656,8.906-11.531,1.266-4.922.562-10.125-1.969-14.484l-58.172-100.55c-3.375-5.812-9.609-9.422-16.359-9.422v.046ZM478.5,498.657c-33.75.891-64.969,28.078-65.016,65.25l.141.141-.703,495.42c-.047,41.484,46.688,68.344,82.641,47.672l127.55-73.266,76.219,131.29c14.25,24.516,46.172,33,70.734,18.891l103.31-59.438c24.562-14.109,33.234-46.078,19.031-70.594l-76.078-131.16,127.36-73.312c35.953-20.672,36-74.625,0-95.25l-431.63-247.18c-10.781-6.188-22.312-8.812-33.562-8.531l.004.068ZM239.48,529.595v-.047c-8.578.047-16.078,5.812-18.281,14.062-1.312,4.875-.609,10.078,1.875,14.438,2.531,4.359,6.703,7.5,11.578,8.812l112.12,30.047c10.078,2.719,20.484-3.281,23.203-13.406,1.312-4.875.609-10.031-1.922-14.391-2.484-4.359-6.656-7.547-11.531-8.859l-112.12-30.047v.047c-1.594-.469-3.281-.703-4.922-.703v.047ZM478.69,536.017c4.828,0,9.797,1.266,14.672,4.031l431.48,247.22c12.281,7.031,12.281,22.453,0,29.531l-143.86,82.781-.047-.094c-4.359,2.531-7.547,6.656-8.859,11.531-1.312,4.828-.656,10.031,1.875,14.391l85.594,147.66c3.938,6.797,1.828,14.766-5.016,18.703l-103.31,59.438c-6.891,3.938-15.234,1.734-19.172-5.016l-85.594-147.66-.047-.047c-5.25-9-16.828-12.047-25.875-6.844l-143.86,82.641c-12.281,7.078-25.875-.844-25.875-14.812l.703-495.56v-.094c.141-16.5,12.75-27.844,27.141-27.844l.05.043Z"/>
</svg>