<?xml version="1.0" encoding="UTF-8"?>
<svg id="Layer_1" xmlns="http://www.w3.org/2000/svg" version="1.1" viewBox="0 0 1056.2 669.3">
  <!-- Generator: Adobe Illustrator 29.2.1, SVG Export Plug-In . SVG Version: 2.1.0 Build 116)  -->
  <defs>
    <style>
      .st0 {
        fill: #f8ff6e;
      }

      .st1 {
        fill: none;
        stroke: #000;
        stroke-linecap: round;
        stroke-linejoin: round;
        stroke-width: 11px;
      }
    </style>
  </defs>
  <g>
    <path d="M113.2,361.9L4.2,19.6h56.2l66,214.2c2,5.2,3.7,11.3,5.4,18.3,1.6,7,3.1,14.1,4.4,21.3,1.3,7.2,2.5,13.9,3.7,20,1.1,6.2,2.2,11.2,3.2,15.2l-14.2-.5c4.9-17.3,8.7-30.6,11.5-40.1,2.8-9.5,5-16.7,6.6-21.8,1.6-5.1,3.1-9.4,4.4-13l61.6-154.5h47.4l59.7,154.5c3.3,7.8,6.1,15.6,8.6,23.2,2.4,7.7,4.6,15.3,6.6,23,2,7.7,4.1,15.7,6.4,24.2l-12.7,3.4c1.6-8.8,2.9-15.7,3.7-20.8.8-5,1.5-9.2,2.2-12.5.6-3.3,1.3-6.4,2-9.5.6-3.1,1.7-7.1,3.2-12s3.5-11.6,6.1-20L411,19.6h56.7l-109,342.3h-36.7l-90.5-214.2,4.4,2-87,212.2h-35.7,0Z"/>
    <path d="M622.2,366.8c-26.4,0-49.8-5.6-70.2-16.9-20.4-11.2-36.4-26.6-47.9-46.2-11.6-19.6-17.4-42.1-17.4-67.5s3.3-38.6,9.8-55.3c6.5-16.6,15.6-31.1,27.1-43.3,11.6-12.2,25.4-21.7,41.6-28.4,16.1-6.7,33.7-10,52.6-10s32.1,3.2,46.5,9.5c14.3,6.4,26.8,15.1,37.4,26.2,10.6,11.1,18.7,24.2,24.5,39.4,5.7,15.2,8.4,31.7,8.1,49.6l-.5,21.5h-209.8l-11.2-40.1h177.5l-7.3,8.3v-11.7c-1-10.8-4.6-20.4-10.8-28.9-6.2-8.5-14-15.2-23.5-20-9.5-4.9-19.7-7.3-30.8-7.3-17.6,0-32.4,3.3-44.5,10-12.1,6.7-21.2,16.5-27.4,29.3-6.2,12.9-9.3,28.8-9.3,47.7s3.7,33.5,11.2,46.7c7.5,13.2,18.1,23.4,31.8,30.6,13.7,7.2,29.5,10.8,47.4,10.8s24.5-2.1,35.5-6.4c10.9-4.2,22.7-11.9,35.5-23l25.4,35.7c-7.8,7.8-17.4,14.7-28.6,20.5-11.2,5.9-23.2,10.5-35.7,13.9-12.6,3.4-24.9,5.1-36.9,5.1h0Z"/>
    <path d="M896.1,366.8c-23.5,0-44.4-5.8-62.8-17.4-18.4-11.6-33-27.4-43.8-47.4s-16.1-42.9-16.1-68.7,5.3-48.7,15.9-68.7c10.6-20,25-35.9,43.3-47.4,18.3-11.6,39-17.4,62.1-17.4s25,2,36.9,6.1c11.9,4.1,22.6,9.6,32,16.6,9.5,7,16.9,14.7,22.2,23s8.1,16.7,8.1,25.2l-14.7,1V0h50.4v361.9h-50.4v-61.1h9.8c0,7.8-2.6,15.6-7.8,23.2-5.2,7.7-12.1,14.8-20.8,21.3-8.6,6.5-18.6,11.7-29.8,15.6-11.2,3.9-22.7,5.9-34.5,5.9h0ZM902.9,323.2c15.3,0,28.9-3.9,40.6-11.7,11.7-7.8,20.9-18.5,27.6-32,6.7-13.5,10-28.9,10-46.2s-3.3-32.7-10-46.2c-6.7-13.5-15.9-24.2-27.6-32-11.7-7.8-25.3-11.7-40.6-11.7s-28.9,3.9-40.6,11.7c-11.7,7.8-21,18.5-27.6,32-6.7,13.5-10,28.9-10,46.2s3.3,32.7,10,46.2c6.7,13.5,15.9,24.2,27.6,32,11.7,7.8,25.3,11.7,40.6,11.7Z"/>
  </g>
  <rect class="st0" x="451.4" y="403" width="153.4" height="260.8"/>
  <rect class="st1" x="5.5" y="514.4" width="149.3" height="149.3"/>
  <path d="M80.4,497.8c-5,0-9.6-.7-13.9-2-4.3-1.3-8.1-3.3-11.6-6-3.5-2.7-6.6-6-9.3-9.9l9.7-11.2c4.3,6.2,8.4,10.4,12.4,12.8s8.6,3.6,14.1,3.6,6.4-.5,9.1-1.6c2.7-1.1,4.9-2.5,6.5-4.3s2.4-4,2.4-6.3-.3-3.1-.8-4.5-1.3-2.7-2.4-3.8c-1.1-1.1-2.5-2.2-4.2-3.2-1.7-1-3.7-1.8-6-2.6s-4.9-1.4-7.9-1.9c-4.7-1-8.9-2.2-12.4-3.8-3.5-1.6-6.5-3.6-8.8-5.9-2.4-2.4-4.1-5.1-5.3-8.1s-1.7-6.4-1.7-10.2.8-7.1,2.4-10.3,3.9-5.9,6.7-8.2c2.8-2.3,6.2-4.1,10.1-5.4,3.9-1.3,8-1.9,12.5-1.9s9.1.6,13,1.8c3.9,1.2,7.5,3,10.5,5.5,3.1,2.4,5.6,5.4,7.6,8.9l-10,9.9c-1.8-2.9-3.7-5.3-5.9-7.3s-4.6-3.5-7.2-4.5c-2.6-1-5.4-1.5-8.4-1.5s-6.4.5-9,1.6c-2.6,1.1-4.5,2.5-6,4.4s-2.2,4.1-2.2,6.7.3,3.5,1.1,5.1,1.8,2.9,3.2,4.1,3.4,2.2,5.9,3.2,5.4,1.7,8.8,2.4c4.8,1.1,9.1,2.4,12.9,4s7,3.5,9.6,5.7,4.6,4.7,6,7.4c1.4,2.7,2,5.7,2,8.8,0,5.9-1.4,11-4.1,15.3-2.7,4.3-6.6,7.6-11.6,9.9-5,2.3-11,3.5-17.9,3.5h0Z"/>
  <rect class="st1" x="154.8" y="514.4" width="149.3" height="149.3"/>
  <path d="M185.5,496.4v-92.2h14l33.6,54.6h-6.7c0-.1,34-54.6,34-54.6h13.2v92.2h-14.2v-37.8c0-7.9.2-15,.6-21.3s1.1-12.6,2-18.8l1.8,4.9-30.2,46.6h-8.7l-29.2-46.1,1.4-5.4c1,5.9,1.6,11.9,2,18.1.4,6.2.6,13.5.6,22.1v37.8h-14.2,0Z"/>
  <rect class="st1" x="304.1" y="514.4" width="149.3" height="149.3"/>
  <path d="M371.3,496.4v-78.5h-25.8v-13.7h66.6v13.7h-26.6v78.5h-14.2Z"/>
  <rect class="st1" x="453.5" y="514.4" width="149.3" height="149.3"/>
  <path d="M495.1,496.4l-29.4-92.2h15.1l17.8,57.7c.5,1.4,1,3.1,1.4,4.9.4,1.9.8,3.8,1.2,5.7s.7,3.7,1,5.4c.3,1.7.6,3,.9,4.1h-3.8c1.3-4.8,2.4-8.4,3.1-10.9.7-2.5,1.3-4.5,1.8-5.9.4-1.4.8-2.5,1.2-3.5l16.6-41.6h12.8l16.1,41.6c.9,2.1,1.7,4.2,2.3,6.3.7,2.1,1.3,4.1,1.8,6.2.5,2.1,1.1,4.2,1.7,6.5l-3.4.9c.4-2.4.8-4.2,1-5.6.2-1.4.4-2.5.6-3.4s.3-1.7.5-2.6c.2-.8.5-1.9.9-3.2s1-3.1,1.7-5.4l17.5-57.3h15.3l-29.3,92.2h-9.9l-24.3-57.7,1.2.5-23.4,57.1h-9.6,0Z"/>
  <rect class="st1" x="602.8" y="514.4" width="149.3" height="149.3"/>
  <path d="M669.9,496.4v-78.5h-25.8v-13.7h66.6v13.7h-26.6v78.5h-14.2Z"/>
  <rect class="st1" x="752.1" y="514.4" width="149.3" height="149.3"/>
  <path d="M800,496.4v-92.2h14.2v92.2h-14.2ZM806.3,418v-13.7h53.5v13.7h-53.5ZM806.3,457.2v-13.7h47.5v13.7h-47.5Z"/>
  <rect class="st1" x="901.4" y="514.4" width="149.3" height="149.3"/>
  <path d="M976.3,497.8c-5,0-9.6-.7-13.9-2-4.3-1.3-8.1-3.3-11.6-6s-6.6-6-9.3-9.9l9.8-11.2c4.3,6.2,8.4,10.4,12.4,12.8,3.9,2.4,8.6,3.6,14.1,3.6s6.4-.5,9.1-1.6c2.7-1.1,4.9-2.5,6.5-4.3s2.4-4,2.4-6.3-.3-3.1-.8-4.5-1.3-2.7-2.4-3.8c-1.1-1.1-2.5-2.2-4.2-3.2-1.7-1-3.7-1.8-6-2.6s-4.9-1.4-7.9-1.9c-4.7-1-8.9-2.2-12.4-3.8-3.5-1.6-6.5-3.6-8.8-5.9s-4.1-5.1-5.3-8.1c-1.1-3-1.7-6.4-1.7-10.2s.8-7.1,2.4-10.3c1.6-3.2,3.9-5.9,6.7-8.2,2.9-2.3,6.2-4.1,10.1-5.4,3.9-1.3,8-1.9,12.5-1.9s9.1.6,13,1.8c4,1.2,7.5,3,10.6,5.5,3.1,2.4,5.6,5.4,7.6,8.9l-10,9.9c-1.7-2.9-3.7-5.3-5.9-7.3-2.2-2-4.6-3.5-7.2-4.5-2.6-1-5.4-1.5-8.4-1.5s-6.4.5-9,1.6c-2.6,1.1-4.5,2.5-6,4.4s-2.2,4.1-2.2,6.7.3,3.5,1,5.1c.7,1.5,1.8,2.9,3.2,4.1s3.4,2.2,5.9,3.2c2.4.9,5.4,1.7,8.8,2.4,4.8,1.1,9.1,2.4,12.9,4s7,3.5,9.6,5.7c2.6,2.2,4.6,4.7,6,7.4,1.4,2.7,2,5.7,2,8.8,0,5.9-1.4,11-4.1,15.3s-6.6,7.6-11.6,9.9c-5,2.3-11,3.5-17.9,3.5h0,0Z"/>
  <path d="M582.6,536.4c-3.7-3.7-9.8-3.7-13.5,0l-39.2,39.2-39.2-39.2c-3.7-3.7-9.8-3.7-13.5,0s-3.7,9.8,0,13.5l39.2,39.2-39.2,39.2c-3.7,3.7-3.7,9.8,0,13.5s9.8,3.7,13.5,0l39.2-39.2,39.2,39.2c3.7,3.7,9.8,3.7,13.5,0s3.7-9.8,0-13.5l-39.2-39.2,39.2-39.2c3.7-3.7,3.7-9.8,0-13.5h0Z"/>
</svg>