<?xml version="1.0" encoding="UTF-8"?>
<svg id="Layer_1" data-name="Layer 1" xmlns="http://www.w3.org/2000/svg" viewBox="0 0 1102.67 944.335">
  <defs>
    <style>
      .cls-1, .cls-2 {
        fill: none;
      }

      .cls-3 {
        fill: #f8ff6e;
      }

      .cls-2 {
        stroke: #000;
        stroke-linecap: round;
        stroke-linejoin: round;
        stroke-width: 11px;
      }
    </style>
  </defs>
  <path d="M269.356,136.329c-28,0-50.668-14.396-50.668-32.178l.004-71.973c0-17.783,22.668-32.178,50.668-32.178s50.668,14.396,50.668,32.178v71.973c-.004,17.785-22.672,32.178-50.672,32.178h0Z"/>
  <path d="M829.356,136.329c-28,0-50.668-14.396-50.668-32.178l.004-71.973c0-17.783,22.668-32.178,50.668-32.178s50.668,14.396,50.668,32.178v71.973c1.328,17.785-22.672,32.178-50.672,32.178h0Z"/>
  <path d="M1009.326,54.999c36,0,65.332,29.332,65.332,65.332v732c0,36-29.332,65.332-65.332,65.332l-918.66.004c-36,0-65.332-29.332-65.332-65.332l-.004-732c0-36,29.332-65.332,65.332-65.332h78.668v34.668c0,54.668,44,98.668,98.668,98.668s98.668-44,98.668-98.668v-34.668h364v34.668c0,54.668,44,98.668,98.668,98.668s98.668-44,98.668-98.668v-34.668h81.328M1009.33,28.335h-105.33v61.332c0,40-32,72-72,72s-72-32-72-72V28.335h-418.67v61.332c0,40-32,72-72,72s-72-32-72-72V28.335h-105.33c-50.668,0-92,41.332-92,92v732c0,50.668,41.332,92,92,92h918.67c50.668,0,92-41.332,92-92V120.335c0-50.664-42.668-92-93.336-92h-.004,0Z"/>
  <g>
    <rect class="cls-1" x="13.336" y="187.764" width="1077.446" height="463"/>
    <path d="M137.148,549.62L28.101,207.32h56.235l66.015,214.182c1.956,5.219,3.744,11.331,5.379,18.338,1.627,7.014,3.094,14.104,4.401,21.272,1.299,7.175,2.521,13.86,3.667,20.049,1.138,6.196,2.2,11.247,3.178,15.159l-14.181-.489c4.89-17.275,8.718-30.639,11.491-40.098,2.766-9.452,4.966-16.703,6.602-21.761,1.627-5.051,3.095-9.367,4.401-12.959l61.614-154.523h47.433l59.658,154.523c3.255,7.824,6.112,15.572,8.558,23.228,2.445,7.664,4.646,15.328,6.602,22.984,1.956,7.663,4.072,15.732,6.357,24.205l-12.715,3.424c1.628-8.803,2.851-15.725,3.668-20.783.81-5.05,1.543-9.207,2.2-12.469.649-3.256,1.299-6.434,1.956-9.537.649-3.095,1.712-7.091,3.179-11.98s3.499-11.567,6.112-20.049l65.037-212.715h56.724l-109.047,342.3h-36.675l-90.465-214.183,4.401,1.956-87.042,212.227h-35.697Z"/>
    <path d="M646.193,554.51c-26.405,0-49.802-5.623-70.171-16.87-20.378-11.247-36.354-26.65-47.922-46.211-11.576-19.56-17.36-42.054-17.36-67.482,0-20.21,3.255-38.631,9.78-55.257,6.518-16.626,15.564-31.051,27.14-43.276,11.568-12.225,25.428-21.676,41.565-28.362,16.137-6.678,33.656-10.024,52.567-10.024,16.626,0,32.105,3.178,46.455,9.535,14.341,6.357,26.811,15.083,37.408,26.162,10.59,11.086,18.742,24.206,24.45,39.365,5.699,15.159,8.389,31.708,8.068,49.633l-.489,21.517h-209.781l-11.247-40.099h177.508l-7.335,8.313v-11.736c-.979-10.758-4.569-20.37-10.759-28.851-6.196-8.474-14.021-15.159-23.472-20.049-9.459-4.89-19.729-7.335-30.807-7.335-17.604,0-32.442,3.347-44.499,10.025-12.064,6.686-21.195,16.465-27.385,29.34-6.196,12.882-9.29,28.774-9.29,47.678,0,17.933,3.743,33.496,11.246,46.7,7.496,13.203,18.094,23.396,31.785,30.562,13.692,7.175,29.501,10.758,47.434,10.758,12.714,0,24.526-2.116,35.452-6.356,10.919-4.233,22.738-11.896,35.452-22.983l25.429,35.697c-7.824,7.824-17.359,14.67-28.606,20.538-11.247,5.867-23.151,10.513-35.697,13.937-12.554,3.423-24.862,5.134-36.92,5.134Z"/>
    <path d="M920.033,554.51c-23.472,0-44.423-5.783-62.836-17.359-18.422-11.567-33.008-27.384-43.766-47.433s-16.138-42.949-16.138-68.706,5.295-48.655,15.893-68.704c10.59-20.049,25.016-35.857,43.276-47.433,18.254-11.568,38.952-17.359,62.104-17.359,12.714,0,25.016,2.04,36.92,6.112,11.896,4.08,22.57,9.62,32.029,16.626,9.451,7.014,16.87,14.67,22.249,22.983s8.068,16.71,8.068,25.183l-14.67.978v-171.639h50.367v361.86h-50.367v-61.125h9.78c0,7.824-2.613,15.571-7.824,23.228-5.219,7.663-12.148,14.754-20.782,21.271-8.642,6.525-18.582,11.736-29.829,15.648-11.247,3.911-22.738,5.867-34.475,5.867ZM926.879,510.989c15.32,0,28.852-3.912,40.588-11.736,11.735-7.824,20.942-18.498,27.628-32.029,6.678-13.524,10.024-28.928,10.024-46.211s-3.347-32.679-10.024-46.21c-6.686-13.524-15.893-24.206-27.628-32.03-11.736-7.824-25.268-11.736-40.588-11.736s-28.851,3.912-40.587,11.736c-11.735,7.824-20.95,18.506-27.628,32.03-6.686,13.531-10.024,28.935-10.024,46.21s3.339,32.688,10.024,46.211c6.678,13.531,15.893,24.205,27.628,32.029,11.736,7.824,25.261,11.736,40.587,11.736Z"/>
  </g>
  <rect class="cls-3" x="475.343" y="590.721" width="153.433" height="260.781"/>
  <rect class="cls-2" x="29.445" y="702.199" width="149.319" height="149.319"/>
  <path d="M104.367,685.526c-5.004,0-9.629-.658-13.892-1.975-4.263-1.317-8.114-3.308-11.587-5.991-3.456-2.683-6.551-5.991-9.283-9.941l9.744-11.192c4.296,6.156,8.427,10.402,12.377,12.772,3.95,2.37,8.641,3.555,14.089,3.555,3.341,0,6.37-.527,9.086-1.58,2.732-1.053,4.872-2.502,6.452-4.345s2.37-3.95,2.37-6.32c0-1.58-.263-3.078-.79-4.477-.527-1.399-1.35-2.683-2.436-3.819-1.103-1.136-2.502-2.189-4.214-3.16-1.712-.971-3.703-1.811-5.991-2.568s-4.921-1.383-7.9-1.909c-4.74-.971-8.872-2.238-12.377-3.819-3.506-1.58-6.452-3.555-8.822-5.925-2.37-2.37-4.131-5.069-5.267-8.098s-1.712-6.436-1.712-10.205c0-3.687.807-7.11,2.436-10.271s3.851-5.909,6.715-8.23c2.847-2.337,6.205-4.131,10.073-5.399,3.851-1.267,8.032-1.909,12.509-1.909,4.74,0,9.086.625,13.036,1.843,3.95,1.234,7.456,3.045,10.534,5.464,3.078,2.403,5.613,5.382,7.637,8.888l-10.007,9.876c-1.761-2.897-3.736-5.333-5.925-7.308-2.189-1.975-4.609-3.456-7.242-4.477-2.633-1.004-5.448-1.514-8.427-1.514-3.424,0-6.403.527-8.954,1.58-2.551,1.053-4.543,2.518-5.991,4.411-1.448,1.893-2.173,4.115-2.173,6.65,0,1.843.346,3.539,1.053,5.069s1.778,2.897,3.226,4.082c1.448,1.185,3.407,2.238,5.86,3.16s5.399,1.728,8.822,2.436c4.823,1.053,9.135,2.403,12.904,4.016,3.769,1.613,6.979,3.539,9.612,5.728,2.633,2.189,4.625,4.658,5.991,7.374,1.366,2.732,2.041,5.662,2.041,8.822,0,5.876-1.366,10.978-4.082,15.274-2.732,4.296-6.584,7.604-11.587,9.941-5.004,2.321-10.978,3.489-17.908,3.489Z"/>
  <rect class="cls-2" x="178.763" y="702.199" width="149.319" height="149.319"/>
  <path d="M209.443,684.209v-92.172h13.957l33.577,54.645-6.715-.132,33.972-54.513h13.167v92.172h-14.221v-37.79c0-7.9.198-15.011.593-21.331s1.07-12.608,2.041-18.829l1.843,4.872-30.153,46.613h-8.69l-29.232-46.086,1.448-5.399c.971,5.876,1.646,11.917,2.041,18.105.395,6.189.593,13.546.593,22.055v37.79s-14.221,0-14.221,0Z"/>
  <rect class="cls-2" x="328.082" y="702.199" width="149.319" height="149.319"/>
  <path d="M395.236,684.209v-78.478h-25.808v-13.694h66.627v13.694h-26.598v78.478s-14.221,0-14.221,0Z"/>
  <rect class="cls-2" x="477.4" y="702.199" width="149.319" height="149.319"/>
  <path d="M519.009,684.209l-29.363-92.172h15.143l17.776,57.673c.527,1.399,1.02,3.061,1.448,4.938.444,1.893.839,3.786,1.185,5.728s.675,3.736.988,5.399c.313,1.679.593,3.029.856,4.082l-3.819-.132c1.317-4.658,2.354-8.246,3.094-10.797.741-2.535,1.35-4.493,1.778-5.86.444-1.366.839-2.518,1.185-3.489l16.591-41.609h12.772l16.064,41.609c.889,2.107,1.662,4.197,2.321,6.255.658,2.057,1.251,4.131,1.761,6.189.527,2.057,1.103,4.23,1.712,6.518l-3.424.922c.428-2.37.774-4.23.988-5.596.23-1.366.412-2.485.593-3.358s.346-1.728.527-2.568c.181-.823.461-1.909.856-3.226.395-1.317.955-3.111,1.662-5.399l17.496-57.278h15.274l-29.347,92.172h-9.892l-24.343-57.673,1.185.527-23.438,57.147h-9.629Z"/>
  <rect class="cls-2" x="626.702" y="702.199" width="149.319" height="149.319"/>
  <path d="M693.873,684.209v-78.478h-25.808v-13.694h66.627v13.694h-26.598v78.478h-14.221Z"/>
  <rect class="cls-2" x="776.021" y="702.199" width="149.319" height="149.319"/>
  <path d="M823.967,684.209v-92.172h14.204v92.172h-14.204ZM830.287,605.732v-13.694h53.46v13.694h-53.46ZM830.287,644.97v-13.694h47.534v13.694h-47.534Z"/>
  <rect class="cls-2" x="925.339" y="702.199" width="149.319" height="149.319"/>
  <path d="M1000.262,685.526c-5.004,0-9.629-.658-13.892-1.975-4.263-1.317-8.114-3.308-11.587-5.991s-6.551-5.991-9.283-9.941l9.76-11.192c4.296,6.156,8.427,10.402,12.377,12.772,3.934,2.37,8.625,3.555,14.073,3.555,3.341,0,6.37-.527,9.085-1.58,2.732-1.053,4.888-2.502,6.469-4.345s2.37-3.95,2.37-6.32c0-1.58-.263-3.078-.79-4.477-.527-1.399-1.333-2.683-2.42-3.819-1.103-1.136-2.502-2.189-4.23-3.16-1.712-.971-3.703-1.811-5.975-2.568s-4.921-1.383-7.9-1.909c-4.74-.971-8.872-2.238-12.377-3.819-3.506-1.58-6.452-3.555-8.822-5.925s-4.131-5.069-5.251-8.098c-1.136-3.029-1.712-6.436-1.712-10.205,0-3.687.823-7.11,2.436-10.271,1.629-3.16,3.851-5.909,6.699-8.23,2.864-2.337,6.222-4.131,10.073-5.399,3.851-1.267,8.032-1.909,12.509-1.909,4.74,0,9.102.625,13.036,1.843,3.95,1.234,7.456,3.045,10.55,5.464,3.078,2.403,5.613,5.382,7.637,8.888l-10.007,9.876c-1.745-2.897-3.736-5.333-5.909-7.308-2.206-1.975-4.609-3.456-7.242-4.477-2.633-1.004-5.448-1.514-8.427-1.514-3.424,0-6.419.527-8.954,1.58-2.551,1.053-4.543,2.518-5.991,4.411-1.448,1.893-2.173,4.115-2.173,6.65,0,1.843.346,3.539,1.037,5.069.708,1.531,1.778,2.897,3.226,4.082,1.448,1.185,3.407,2.238,5.859,3.16,2.436.922,5.382,1.728,8.806,2.436,4.839,1.053,9.135,2.403,12.904,4.016,3.769,1.613,6.979,3.539,9.612,5.728s4.625,4.658,5.991,7.374c1.366,2.732,2.041,5.662,2.041,8.822,0,5.876-1.366,10.978-4.082,15.274s-6.584,7.604-11.587,9.941c-5.004,2.321-10.978,3.489-17.908,3.489h-.033Z"/>
  <path d="M606.507,724.123c-3.736-3.736-9.793-3.736-13.513,0l-39.206,39.206-39.206-39.206c-3.736-3.736-9.793-3.736-13.513,0-3.72,3.736-3.736,9.793,0,13.513l39.206,39.206-39.206,39.206c-3.736,3.736-3.736,9.793,0,13.513,3.736,3.72,9.793,3.736,13.513,0l39.206-39.206,39.206,39.206c3.736,3.736,9.793,3.736,13.513,0,3.72-3.736,3.736-9.793,0-13.513l-39.206-39.206,39.206-39.206c3.736-3.736,3.736-9.793,0-13.513h0Z"/>
</svg>