<?xml version="1.0" encoding="UTF-8"?>
<svg id="Layer_1" data-name="Layer 1" xmlns="http://www.w3.org/2000/svg" viewBox="0 0 1145.92 914.867">
  <path d="M274.706,731.424h86.816v18.207h-86.816v-18.207Z"/>
  <path d="M697.666,16.254h329.95l-271.79,69.336v745.27l1.375-.352,317.02-80.871h71.699v-18.207h-51.863l-.004-731.43h-412.66v345.12c5.18,2.086,10.586,3.836,16.266,5.277V16.257l.007-.004ZM834.716,212.464l196.5-50.129v35.652l-196.5,50.129v-35.652ZM785.755,411.914l24.395-8.133v154.47l-24.395,8.133v-154.47Z"/>
  <path d="M735.526,729.004h-37.855v-304.25c-5.519-.91-10.938-2.031-16.266-3.344v310.02h-95.664v18.207h149.79l-.005-20.633Z"/>
  <path d="M387.046,256.894c-13.418,9.039-25.762,21.836-35.789,37.164-4.723,7.359-8.953,15.32-12.105,23.855-3.422,9.266-5.582,19.203-5.66,29.816-.031,10.34,2.301,21.379,7.84,31.461,8.297,15.297,23.227,27.012,42.121,34.129,19.02,7.223,42.5,10.762,72.383,10.797,5.246-.008,10.68-.117,16.328-.344,13.398-.535,23.824-11.828,23.285-25.227-.539-13.391-11.836-23.816-25.227-23.281-5.043.199-9.832.305-14.383.305-34.609.113-54.957-6.059-64-11.957-4.617-2.941-6.641-5.461-7.906-7.719-1.219-2.277-1.855-4.676-1.879-8.16-.258-5.836,2.66-14.656,7.578-23.352l6.547.836c-5.246,8.641-8.273,17.414-8.059,22.234.023,2.898.473,4.293,1.164,5.574.734,1.297,2.059,3.07,5.812,5.461,4,2.605,19.977,11.008,59.797,11.008l.918-.008c4.469,0,9.223-.094,14.172-.297.41-.012.82-.023,1.227-.023,16.34,0,29.645,12.801,30.301,29.141.324,8.094-2.523,15.832-8.019,21.797-5.5,5.949-12.984,9.41-21.086,9.738-5.648.223-11.219.336-16.57.348h-.008c-27.266-.035-49.641-3.008-68.211-9.016v352.83c0,20.727,16.801,37.516,37.516,37.516s37.52-16.789,37.52-37.516v-273.91h14.062v273.92c0,20.727,16.801,37.516,37.516,37.516s37.52-16.789,37.52-37.516v-465.07c1.586,1.648,3.211,3.406,4.906,5.348,12.605,14.164,27.523,35.281,49.867,54.883,22.316,19.637,52.871,37.227,94.297,43.816,1.316.211,2.625.316,3.918.316,11.695,0,22-8.473,23.934-20.387,2.144-13.234-6.84-25.707-20.074-27.852-24.617-4.039-42.332-12.16-57.113-22.309-22.141-15.203-37.477-35.832-54.156-55.656-8.41-9.852-17.219-19.605-28.695-27.664-10.172-7.215-23.195-12.629-37.543-13.594-.918-.109-1.844-.184-2.789-.184h-2.004c-.074,0-.156-.008-.234-.008-.062,0-.117.008-.176.008h-18.578c-13.602,14.852-33.137,24.184-54.816,24.184-20.352,0-38.812-8.227-52.254-21.52-2.086,1.086-3.988,2.469-5.641,4.109-2.586,1.379-5.082,2.887-7.551,4.465l-.004-.006Z"/>
  <path d="M520.756,195.494c0,37.707-30.566,68.273-68.273,68.273s-68.273-30.566-68.273-68.273,30.566-68.273,68.273-68.273,68.273,30.566,68.273,68.273Z"/>
  <path d="M66.281,902.164c63.207-70.855,88.852-140.29,97.723-193.55,20.152,36.809,42.18,92.602,54.957,173.6,2.922,18.711,19.062,32.078,37.426,32.078,1.949,0,3.922-.152,5.906-.461,20.699-3.234,34.852-22.633,31.617-43.336-15.871-101.7-46.195-171.34-73.609-215.98-2.449-3.988-4.855-7.703-7.238-11.301-5.66-.348-11.066-2.25-15.734-5.586-32.438-23.129-56.469-50.363-71.434-80.945-12.07-24.586-18.18-50.988-18.156-78.461.074-36.285,10.609-62.605,13.828-69.805l.023-.047.145-.312c4.98-10.586,15.762-17.43,27.473-17.43,4.48,0,8.816.973,12.898,2.894,15.066,7.082,21.609,25.129,14.609,40.227-.277.645-.551,1.305-.895,2.215-.715,1.875-1.797,4.957-2.93,9.059-2.039,7.422-4.477,19.207-4.469,33.207.023,18.156,4.047,35.566,11.965,51.738.191.387.398.766.59,1.148,3.66-31.629,10.594-62.352,15.398-86.902,8.711-30.203-2.68-66.348-28.582-72.801-25.898-6.461-63.457,7.609-78.727,52.039-20.66,61.215-25.09,101.06-17.242,168.47,3.309,17.027,9.539,28.719,17.422,36.723.012.047.016.09.027.133.238.945,2.93,12.461,2.922,31.344-.262,39.609-10.883,110.57-82.613,191.62-13.922,15.656-12.504,39.633,3.148,53.547,7.227,6.422,16.227,9.578,25.184,9.578,10.465.012,20.875-4.285,28.367-12.715v.012Z"/>
  <path d="M216.75,223.374c36.715,8.551,59.547,45.242,50.996,81.957-8.551,36.715-45.242,59.547-81.957,50.996s-59.547-45.242-50.996-81.957c8.551-36.715,45.242-59.547,81.957-50.996Z"/>
  <path d="M162.36,478.284c-.008-14.148,2.359-26.367,4.684-34.812,1.164-4.227,2.305-7.5,3.098-9.602.398-1.043.711-1.801.895-2.227.09-.211.148-.344.168-.387,5.625-12.109.414-26.496-11.684-32.188-12.133-5.703-26.594-.496-32.301,11.637v-.008c-.875,2.012-13.328,28.562-13.41,67.59-.02,22.273,4.254,48.727,17.539,75.785,13.242,27.066,35.445,54.387,69.508,78.68,4.277,3.055,9.207,4.527,14.09,4.527,7.57,0,15.031-3.535,19.773-10.168,7.789-10.914,5.262-26.07-5.645-33.867-28.281-20.246-44.527-41.023-54.141-60.551-9.566-19.543-12.559-38.18-12.574-54.41h0Z"/>
</svg>