<?xml version="1.0" encoding="UTF-8"?>
<svg id="Layer_1" xmlns="http://www.w3.org/2000/svg" version="1.1" viewBox="0 0 1199.5 1012.7">
  <!-- Generator: Adobe Illustrator 29.2.1, SVG Export Plug-In . SVG Version: 2.1.0 Build 116)  -->
  <path d="M1192.3,533.6l-203-141.4,192.5-169.2c4.1-3.6,6.2-8.9,5.5-14.4-.5-5.3-3.6-10.3-8.4-13L842.2,3c-6.2-3.6-13.7-2.9-19.2,1.7l-94.7,79.6c-7.2,6-7.9,16.6-1.9,23.8,6,7.2,16.6,7.9,23.8,1.9l85.8-71.9,306,175.2-182.4,160.3-212.5-120.6c-8.2-4.6-18.2-1.9-23,6.2-4.6,8.2-1.9,18.2,6.2,23l193.1,109.3-322.5,156.2-324.2-157.2,192.8-110.1c8.2-4.6,10.8-14.9,6.2-23-4.6-8.2-14.9-10.8-23-6.2l-212.3,121.4L57.9,212.3,363.9,37.1l86.2,72.9c7.2,6,17.8,5,23.8-1.9,6-7.2,5-17.8-1.9-23.8L376.6,4c-5.3-4.6-13-5.3-19.2-1.7L20.7,194.8c-4.8,2.6-7.9,7.4-8.4,13-.5,5.3,1.4,10.8,5.5,14.4l192.5,169.2L7.2,532.7c-4.8,3.4-7.4,8.9-7.2,14.6.2,5.8,3.6,11,8.6,13.9l207.6,115.2c-.7,1.9-1.2,4.1-1.2,6.2v116.9c0,6.2,3.4,12,8.9,14.9l363.8,193.2c3.1,3.1,7.4,5,12,5s5.3-.7,7.9-1.9l367.9-195.6c5.5-2.9,8.9-8.6,8.9-14.9v-116.9c0-2.2-.5-4.3-1.2-6.2l207.6-115.2c5-2.9,8.4-8.2,8.6-13.9.2-5.8-2.4-11.3-7.2-14.4h0ZM48.5,544.9l192.2-133.9h.2s335.5,162.5,335.5,162.5l-200.4,153.4L48.5,544.9ZM583,967.1l-334.3-177.6v-95l120.7,67c2.6,1.4,5.3,2.2,8.2,2.2s7.2-1.2,10.3-3.4l195.1-149.3v356.2ZM950.9,790.2l-334.3,177.6v-356.2l195.1,149.3c2.9,2.4,6.5,3.4,10.3,3.4s5.5-.7,8.2-2.2l120.7-67v95ZM823.5,727.6l-200.4-153.4,335.5-162.5h.2l192.2,133.9-327.6,181.9Z"/>
  <path d="M600.7,279.2c3.1-2.9-7,6.2,0,0Z"/>
  <path d="M498.2,191.5c4.6,0,8.5-1.6,11.6-4.6,3.2-3.1,4.8-6.9,4.8-11.5,0-23.2,8.3-43.4,24.6-59.9,16.7-16.5,37-24.9,60.4-24.9s43.8,8.4,60.2,24.9c16.7,16.4,25.1,36.5,25.1,59.9s-8.5,43.9-25.1,60.4l-39.9,36.9v-.4l-2,2c-23,22.8-34.7,50.8-34.7,83.2s1.6,8.5,4.8,11.6c3.2,3.2,7.1,4.8,11.6,4.8s8.5-1.6,11.7-4.8c3.2-3.2,4.9-7.1,4.9-11.6,0-23.4,8.4-43.7,24.9-60.2l39.9-37.1v.4l2-2c23-22.7,34.7-50.7,34.7-83.2s-11.7-60.4-34.7-83.2c-22.7-22.8-50.8-34.4-83.5-34.4s-60.4,11.6-83.7,34.4c-22.8,23.2-34.4,51.2-34.4,83.2s1.7,8.4,4.9,11.5c3.2,3.1,7.2,4.6,11.7,4.6h0Z"/>
  <path d="M579.8,408.2c-5.4,5.2-8.1,11.8-8.1,19.8s2.7,14.6,8.1,20c5.1,5.4,11.6,8.1,19.8,8.1s14.6-2.7,20-8.1c5.4-5.4,8.1-12.1,8.1-20s-2.7-14.5-8.1-19.8c-5.4-5.4-12.1-8.1-20-8.1s-14.7,2.7-19.8,8.1Z"/>
</svg>