<?xml version="1.0" encoding="UTF-8"?>
<svg width="1200pt" height="1200pt" version="1.1" viewBox="0 0 1200 1200" xmlns="http://www.w3.org/2000/svg">
 <path d="m731.37 879.15c11.52 10.422 12.406 28.207 1.9805 39.723-10.422 11.52-28.207 12.406-39.723 1.9805-11.52-10.422-12.406-28.207-1.9805-39.723 10.422-11.52 28.207-12.406 39.723-1.9805"/>
 <path d="m403.25 869.77c11.52 10.422 12.406 28.207 1.9805 39.723-10.422 11.52-28.207 12.406-39.727 1.9805-11.516-10.422-12.402-28.207-1.9766-39.727 10.422-11.516 28.207-12.402 39.723-1.9766"/>
 <path d="m1015.8 839.19c8.9375-12.203 16.27-22.633 21.422-30.531v-0.003906c3.3867-5.2891 6.1172-10.973 8.1211-16.926 1.7422-5.2109 2.5859-10.676 2.4922-16.168 0.16406-3.8477-0.29297-7.6992-1.3555-11.398-1.793-0.33984-3.6133-0.49219-5.4375-0.45703-0.73047-0.003906-1.4609 0.03125-2.1875 0.10938-4.2539 8.8828-6.0938 18.727-5.3398 28.547-0.12109 14.867-6.0898 29.086-16.617 39.586s-24.766 16.434-39.633 16.516h-1.8047c-70.645 100.77-175.02 172.93-294.25 203.41-119.23 30.484-245.44 17.281-355.78-37.215-110.34-54.5-197.53-146.7-245.79-259.9-48.262-113.21-54.402-239.96-17.316-357.3 37.086-117.35 114.95-217.54 219.5-282.45 104.55-64.914 228.89-90.262 350.51-71.449 121.62 18.809 232.49 80.531 312.55 174 80.059 93.469 124.02 212.5 123.92 335.57 0 9.9062-0.34766 19.734-0.90234 29.504 12.527 1.2617 24.926 3.5547 37.074 6.8594 0.78516-12.031 1.3281-24.133 1.3281-36.363 0.17188-129.43-44.984-254.82-127.63-354.43-82.648-99.602-197.56-167.11-324.8-190.82-127.23-23.703-258.75-2.1016-371.72 61.059-112.97 63.156-200.25 163.88-246.7 284.69-46.441 120.8-49.113 254.06-7.5469 376.63 41.562 122.57 124.74 226.71 235.09 294.35 110.35 67.633 240.89 94.492 368.98 75.906 128.09-18.586 245.61-81.441 332.19-177.65 4.3477-10.496 9.4453-20.664 15.254-30.43 11.223-18.352 23.367-36.121 36.391-53.238z"/>
 <path d="m1030.3 581.54c0.55469-9.4062 0.91797-18.867 0.91797-28.41 0.19531-113.29-39.773-222.97-112.8-309.57-73.031-86.605-174.39-144.52-286.09-163.46-111.69-18.934-226.48 2.332-323.97 60.023-97.492 57.691-171.38 148.07-208.54 255.09-37.156 107.02-35.176 223.74 5.5859 329.44 40.766 105.7 117.68 193.52 217.07 247.88 99.395 54.355 214.84 71.715 325.82 49.004 110.99-22.715 210.33-84.031 280.38-173.06h-28.707c-6.0117-0.007813-11.984-0.98047-17.688-2.8789-39.172 44.199-86.852 80.055-140.19 105.42-53.34 25.371-111.24 39.73-170.25 42.23v-55.738c0-6.6992-3.5742-12.887-9.375-16.238-5.8008-3.3477-12.949-3.3477-18.75 0-5.8008 3.3516-9.375 9.5391-9.375 16.238v55.773c-110.21-4.8242-214.62-50.77-292.62-128.78-78.008-78.004-123.95-182.41-128.78-292.62h55.773c6.6992 0 12.887-3.5742 16.238-9.375 3.3477-5.8008 3.3477-12.949 0-18.75-3.3516-5.8008-9.5391-9.375-16.238-9.375h-55.773c4.8242-110.21 50.77-214.62 128.78-292.62 78.004-78.008 182.41-123.95 292.62-128.78v55.773c0 6.6992 3.5742 12.887 9.375 16.238 5.8008 3.3477 12.949 3.3477 18.75 0 5.8008-3.3516 9.375-9.5391 9.375-16.238v-55.773c110.21 4.8242 214.62 50.77 292.62 128.78 78.008 78.004 123.95 182.41 128.78 292.62h-55.773c-6.6992 0-12.887 3.5742-16.238 9.375-3.3477 5.8008-3.3477 12.949 0 18.75 3.3516 5.8008 9.5391 9.375 16.238 9.375h55.742c-0.23438 4.8359-0.51563 9.6562-0.875 14.457h0.003906c12.488-2.7031 25.191-4.3086 37.961-4.7969z"/>
 <path d="m918.87 372.9c11.52 10.422 12.406 28.207 1.9805 39.723-10.422 11.52-28.207 12.406-39.727 1.9805-11.516-10.422-12.402-28.207-1.9766-39.727 10.422-11.516 28.207-12.402 39.723-1.9766"/>
 <path d="m412.62 185.4c11.52 10.422 12.406 28.207 1.9805 39.723-10.422 11.52-28.207 12.406-39.723 1.9805-11.52-10.422-12.406-28.207-1.9805-39.723 10.422-11.52 28.207-12.406 39.723-1.9805"/>
 <path d="m225.12 691.65c11.52 10.422 12.406 28.207 1.9805 39.723-10.422 11.52-28.207 12.406-39.723 1.9805-11.52-10.422-12.406-28.207-1.9805-39.723 10.422-11.52 28.207-12.406 39.723-1.9805"/>
 <path d="m234.5 363.52c11.52 10.422 12.406 28.207 1.9805 39.723-10.422 11.52-28.207 12.402-39.727 1.9805-11.516-10.422-12.402-28.207-1.9766-39.727 10.422-11.516 28.207-12.402 39.723-1.9766"/>
 <path d="m740.75 194.77c11.52 10.422 12.406 28.207 1.9805 39.723-10.422 11.52-28.207 12.406-39.727 1.9805-11.516-10.422-12.402-28.207-1.9766-39.727 10.422-11.516 28.207-12.402 39.723-1.9766"/>
 <path d="m553.12 581.25c7.6289 0.027344 14.941-3.0586 20.246-8.5469 5.3047-5.4844 8.1406-12.895 7.8594-20.52s-3.6602-14.805-9.3555-19.883v-279.18c0-6.6992-3.5742-12.887-9.375-16.238-5.8008-3.3477-12.949-3.3477-18.75 0-5.8008 3.3516-9.375 9.5391-9.375 16.238v265.65l-119.61-81.215c-4.1133-2.8047-9.1719-3.8594-14.066-2.9336-4.8906 0.92969-9.2109 3.7695-12.008 7.8867-2.7969 4.1172-3.8438 9.1797-2.9023 14.07 0.9375 4.8906 3.7852 9.207 7.9102 11.992l131.8 89.492c1.1484 6.4922 4.5469 12.375 9.5977 16.613 5.0508 4.2383 11.434 6.5625 18.027 6.5703z"/>
 <path d="m1074.9 1083.3h-79.816 0.003906c-4.9727 0-9.7422 1.9766-13.258 5.4922-3.5195 3.5156-5.4922 8.2852-5.4922 13.258v79.211c0 4.9727 1.9727 9.7422 5.4922 13.258 3.5156 3.5156 8.2852 5.4922 13.258 5.4922h79.816-0.003906c4.9727 0 9.7422-1.9766 13.258-5.4922 3.5195-3.5156 5.4922-8.2852 5.4922-13.258v-79.211c0-4.9727-1.9727-9.7422-5.4922-13.258-3.5156-3.5156-8.2852-5.4922-13.258-5.4922zm-18.75 79.211h-42.316v-41.711h42.316z"/>
 <path d="m1124.9 637.1c-26.355-12.762-55.379-19.055-84.652-18.348-29.012-0.65234-57.664 6.5-82.965 20.711-24.074 14.258-43.367 35.352-55.434 60.598-13.332 28.574-20.355 59.684-20.602 91.215-0.007812 0.19141-0.007812 0.75-0.007812 0.94141 0 4.9727 1.9766 9.7422 5.4922 13.258 3.5156 3.5156 8.2852 5.4922 13.258 5.4922h77.215c4.9805-0.082032 9.7344-2.1094 13.238-5.6484 3.5039-3.5391 5.4805-8.3125 5.5117-13.293-1.0664-18.043 3.5469-35.965 13.184-51.254 7.4648-9.9297 19.449-15.41 31.844-14.562 12.102-0.94531 24.027 3.3594 32.738 11.816 8.5469 10.555 12.688 24.004 11.555 37.539 0.085938 9.6758-1.457 19.297-4.5586 28.461-3.0156 8.8438-7.1016 17.289-12.16 25.141-5.5195 8.4609-13.238 19.453-22.805 32.512-14.016 18.715-25.551 35.559-34.258 50.07-10.215 17.668-18.133 36.562-23.566 56.23-6.7539 24.488-10.023 49.805-9.707 75.203 0 4.9727 1.9766 9.7422 5.4922 13.258s8.2852 5.4922 13.258 5.4922h76.102c4.9727 0 9.7383-1.9766 13.258-5.4922 3.5156-3.5156 5.4922-8.2852 5.4922-13.258-0.30859-18.23 2.0586-36.41 7.0195-53.953 3.9961-13.867 9.8164-27.148 17.305-39.488 9.043-14.004 18.789-27.547 29.203-40.566 11.754-15.215 21.184-28.398 28.016-39.156 7.9375-12.789 14.246-26.52 18.789-40.867 5.4258-17.336 8.0703-35.422 7.8359-53.586 0.72656-28.949-5.7422-57.621-18.832-83.453-12.625-23.703-32.277-42.922-56.258-55.012zm31.621 180.39c-3.5781 11.375-8.5508 22.266-14.805 32.418-6.2266 9.8047-14.988 22.035-25.938 36.211v-0.003906c-11.18 13.996-21.641 28.551-31.34 43.609-9.2852 15.168-16.504 31.508-21.469 48.586-4.4258 15.02-7.1211 30.492-8.0352 46.125h-38.637c0.85547-15.555 3.4141-30.965 7.625-45.961 4.543-16.574 11.168-32.504 19.711-47.414 8.0586-13.422 18.867-29.195 32.246-47.051 10.078-13.762 18.184-25.312 24.078-34.34 6.7305-10.41 12.164-21.605 16.18-33.336 4.5078-13.238 6.7539-27.145 6.6367-41.133 1.1836-22.938-6.5742-45.438-21.645-62.77-15.723-16.164-37.625-24.801-60.148-23.719-24.172-0.81641-47.227 10.191-61.789 29.496-11.461 16.289-18.27 35.395-19.695 55.262h-39.484c1.7539-19.68 6.9805-38.895 15.434-56.754 8.7812-18.719 22.996-34.363 40.789-44.898 19.566-10.809 41.668-16.184 64.012-15.562 23.312-0.67969 46.449 4.1875 67.512 14.199 17.242 8.5898 31.355 22.367 40.355 39.395 10.176 20.508 15.113 43.215 14.375 66.094 0.19922 14.074-1.8125 28.094-5.9688 41.547z"/>
</svg>
