<?xml version="1.0" encoding="UTF-8"?>
<svg id="Layer_1" xmlns="http://www.w3.org/2000/svg" version="1.1" viewBox="0 0 740.4 1124.9">
  <!-- Generator: Adobe Illustrator 29.2.1, SVG Export Plug-In . SVG Version: 2.1.0 Build 116)  -->
  <path d="M733.7,293.7c-17.5-81.9-63-156.4-128.3-209.8C539.3,29.8,455.7,0,370.1,0s-167.7,29.3-233.5,82.5C71.8,134.9,25.9,208.3,7.6,289.1c-35,154.4,57.7,304.8,139.5,437.5,25,40.5,48.6,78.8,68.4,116.4l145.9,276.7c1.7,3.2,5.1,5.2,8.7,5.2s7-2,8.7-5.2l145.9-276.7c19.7-37.4,43.2-75.6,68.2-116,81.3-131.7,173.3-281.1,140.8-433.3h0ZM576.2,716.7c-25.1,40.7-48.8,79.2-68.8,117.1l-137.2,260.3-137.2-260.3c-20.1-38.2-43.9-76.7-69.1-117.6C80.1,580.5-6.5,440,26.8,293.5,63.4,132.3,204.6,19.6,370.1,19.6s309.8,116.9,344.3,278.1c30.9,144.5-55.1,284-138.3,418.9h0ZM370.1,75.5c-163.3,0-296.2,132.9-296.2,296.2s132.9,296.2,296.2,296.2,296.2-132.9,296.2-296.2S533.5,75.5,370.1,75.5ZM370.1,648.3c-152.5,0-276.6-124.1-276.6-276.6S217.7,95.1,370.1,95.1s276.6,124.1,276.6,276.6-124.1,276.6-276.6,276.6ZM364.6,177.6c-18.6,0-37,4.8-53.4,13.9s-30.2,22.3-40,38.1c-10.8,17.3-5.4,40.1,11.9,50.9s40.1,5.4,50.9-11.9c3.3-5.3,7.8-9.7,13.2-12.6,5.2-2.9,11.2-4.4,17.5-4.4,9.6,0,18.7,3.8,25.5,10.5,6.8,6.8,10.5,15.8,10.5,25.5s-1.9,13.7-5.5,19.4c-3.7,5.9-9,10.5-15.3,13.4-15.8,7.4-29,18.9-38.2,33.3-9.2,14.5-14.1,31.4-14.1,48.7v27.2c0,20.4,16.6,37,37,37s37-16.6,37-37v-27.2c0-3.5.8-6.7,2.3-9,1.6-2.5,4.1-4.6,7.2-6.1,19-8.9,35-22.9,46.2-40.6,11.3-17.7,17.2-38.2,17.2-59s-11.4-57-32.2-77.8c-20.8-20.9-48.4-32.3-77.8-32.3h0ZM440.8,336c-9.3,14.5-22.4,26.1-38,33.4-6.5,3-11.9,7.6-15.5,13.3-3.5,5.5-5.4,12.3-5.4,19.6v27.2c0,9.6-7.8,17.3-17.3,17.3s-17.3-7.8-17.3-17.3v-27.2c0-13.6,3.8-26.8,11-38.2,7.1-11.2,17.5-20.2,29.9-26,9.7-4.5,17.8-11.7,23.5-20.7,5.6-8.8,8.6-19.1,8.6-29.9s-5.8-28.8-16.3-39.4c-10.5-10.5-24.5-16.3-39.4-16.3s-18.9,2.4-27.1,6.9c-8.2,4.6-15.3,11.3-20.3,19.5-5,8.1-15.7,10.6-23.8,5.5-8.1-5-10.6-15.7-5.5-23.8,8.1-13,19.5-23.8,32.9-31.3,13.5-7.5,28.6-11.4,43.8-11.4,24.1,0,46.8,9.4,63.9,26.5s26.5,39.8,26.5,63.9c0,17.2-4.9,33.9-14.2,48.5h0ZM364.6,491.1c-20.4,0-37,16.6-37,37v.8c0,20.4,16.6,37,37,37s37-16.6,37-37v-.8c0-20.4-16.6-37-37-37ZM382,528.9c0,9.6-7.8,17.3-17.3,17.3s-17.3-7.8-17.3-17.3v-.8c0-9.6,7.8-17.3,17.3-17.3s17.3,7.8,17.3,17.3v.8Z"/>
</svg>