<?xml version="1.0" encoding="UTF-8"?>
<svg id="Layer_1" data-name="Layer 1" xmlns="http://www.w3.org/2000/svg" viewBox="0 0 965.045 955.204">
  <path d="M925.443,752.403h-116.4c-21.602,0-39.602-18-39.602-39.602v-116.4c0-21.602,18-39.602,39.602-39.602h116.4c21.602,0,39.602,18,39.602,39.602v116.4c0,21.602-18,39.602-39.602,39.602ZM809.043,590.403c-3.602,0-6,2.398-6,6v116.4c0,3.602,2.398,6,6,6h116.4c3.602,0,6-2.398,6-6v-116.4c0-3.602-2.398-6-6-6h-116.4Z"/>
  <path d="M54.243,930.003c-8.398,0-16.801-2.398-24-8.398-8.398-6-14.398-15.602-15.602-26.398L.243,780.007c-2.398-21.602,13.199-42,34.801-44.398l115.2-14.398c10.801-1.199,21.602,1.199,30,8.398,8.398,6,14.398,15.602,15.602,26.398l14.398,115.2c1.199,10.801-1.199,21.602-8.398,30-6,8.398-15.602,14.398-26.398,15.602l-115.2,14.398c-2.402-1.199-3.605-1.199-6.004-1.199v-.005ZM153.845,753.603l-115.2,14.398c-3.602,0-6,3.602-4.801,7.199l14.398,115.2c0,2.398,1.199,3.602,2.398,3.602s2.398,1.199,4.801,1.199l115.2-14.398c2.398,0,3.602-1.199,3.602-2.398s1.199-2.398,1.199-4.801l-14.398-115.2c0-2.398-1.199-3.602-2.398-3.602s-2.402-1.199-4.801-1.199h0Z"/>
  <path d="M711.843,951.603c-6,0-12-1.199-18-4.801l-103.2-52.801c-9.602-4.801-16.801-13.199-20.398-22.801-3.602-9.602-2.398-21.602,2.398-31.199l52.801-103.2c4.801-9.602,13.199-16.801,22.801-20.398,10.801-3.602,21.602-2.398,31.199,2.398l103.2,52.801c9.602,4.801,16.801,13.199,20.398,22.801,3.602,9.602,2.398,21.602-2.398,31.199l-52.801,103.2c-4.801,9.602-13.199,16.801-22.801,20.398-4.801,2.402-9.602,2.402-13.199,2.402h0ZM660.241,750.003h-2.398c-1.199,0-2.398,1.199-3.602,3.602l-52.801,103.2c-1.199,2.398-1.199,3.602,0,4.801,0,1.199,1.199,2.398,3.602,3.602l103.2,52.801c2.398,1.199,3.602,1.199,4.801,0,1.199,0,2.398-1.199,3.602-3.602l52.801-103.2c1.199-2.398,1.199-3.602,0-4.801,0-1.199-1.199-2.398-3.602-3.602l-103.2-52.801h-2.402Z"/>
  <path d="M585.843,658.803c2.398-8.398,3.602-16.801,3.602-25.199,0-19.199-6-39.602-18-58.801-18-28.801-45.602-45.602-82.801-50.398-6-1.199-12-1.199-18-1.199-26.398,0-51.602,8.398-73.199,26.398-30,26.398-44.398,60-44.398,98.398,2.398,14.398,10.801,21.602,27.602,21.602h3.602c13.199,0,21.602-7.199,22.801-20.398,7.199-38.398,25.199-61.199,52.801-67.199,4.801-1.199,10.801-1.199,15.602-1.199,20.398,0,36,9.602,48,27.602,4.801,8.398,6,15.602,6,25.199l-2.41,14.395c-2.398,12-8.398,22.801-18,30l-40.801,32.398c-19.199,14.398-30,36-30,67.199v63.602h61.199v-70.801c0-10.801,6-20.398,16.801-28.801l24-18c26.398-20.398,40.801-40.797,45.602-64.797h-.002Z"/>
  <path d="M507.843,920.403c0,19.223-15.582,34.801-34.801,34.801s-34.801-15.578-34.801-34.801,15.582-34.797,34.801-34.797,34.801,15.578,34.801,34.797Z"/>
  <path d="M575.043,163.203l-62.398-130.8h-156l-37.199,122.4v141.6c0,15.602,6,27.602,16.801,36,7.199,6,16.801,8.398,27.602,8.398,4.801,0,10.801-1.199,15.602-2.398,3.602,8.398,12,16.801,21.602,20.398,4.801,2.398,10.801,3.602,15.602,3.602,7.199,0,14.398-2.398,20.398-7.199,4.801,6,10.801,12,18,14.398,4.801,1.199,9.602,2.398,13.199,2.398,6,0,12-1.199,18-4.801v88.801c0,25.199,26.398,43.199,44.398,43.199,19.199,0,44.398-15.602,44.398-43.199l-.005-292.797ZM558.242,457.203c0,20.398-20.398,26.398-27.602,26.398-9.602,0-27.602-12-27.602-26.398l.004-159.6c0-4.801-3.602-8.398-8.398-8.398s-8.398,3.602-8.398,8.398v49.199c-6,6-12,9.602-18,9.602-2.398,0-4.801,0-7.199-1.199-8.398-3.602-14.398-10.801-14.398-18v-50.398c0-4.801-3.602-8.398-8.398-8.398s-8.398,3.602-8.398,8.398v52.796s-1.199,0-1.199,1.199c-4.801,4.801-8.398,6-13.199,6-3.602,0-7.199-1.199-8.398-2.398-8.398-3.602-14.398-10.801-14.398-16.801l-.016-51.602c0-4.801-3.602-8.398-8.398-8.398s-8.398,3.602-8.398,8.398v46.801c-4.801,1.199-8.398,1.199-12,1.199-7.199,0-12-1.199-16.801-4.801-6-4.801-9.602-13.199-9.602-22.801v-138l33.602-109.2h132l56.398,117.6v290.4l-1.2.004Z"/>
  <path d="M425.043,716.403c3.602-9.602,2.398-21.602-2.398-31.199l-3.602-7.199c-7.199,8.398-18,14.398-30,15.602l3.602,7.199c1.199,2.398,0,3.602,0,4.801-.004,1.199-1.203,2.398-3.602,2.398l-104.4,50.398c-2.398,1.199-3.602,0-4.801,0s-2.398-1.199-3.602-3.602l-50.398-104.4c-1.199-2.398,0-3.602,0-4.801s1.199-2.398,3.602-3.602l104.4-50.398c1.199,0,2.398-1.199,2.398-1.199h3.598c3.602-10.801,9.602-20.398,15.602-30-1.199-1.199-3.602-1.199-4.801-2.398-9.602-3.602-21.602-2.398-31.199,2.398l-104.4,50.398c-9.602,4.801-16.801,13.199-20.398,22.801-3.602,9.602-2.398,21.602,2.398,31.199l50.398,104.4c4.801,9.602,13.199,16.801,22.801,20.398,4.801,1.199,8.398,2.398,13.199,2.398,6,0,12-1.199,18-3.602l104.4-50.398c8.402-3.594,15.602-11.992,19.203-21.594h0Z"/>
  <path d="M312.243,315.603l-100.8,148.8c-10.801,16.801-32.398,10.801-38.398,6-7.199-4.801-15.602-25.199-7.199-37.199l88.801-132c2.398-3.602,1.199-9.602-2.398-12-3.602-2.398-9.602-1.199-12,2.398l-27.602,40.801c-10.801,2.398-20.398,0-25.199-8.398-4.801-7.199-6-16.801-1.199-22.801l28.801-42c2.398-3.602,1.199-9.602-2.398-12-3.602-2.398-9.602-1.199-12,2.398l-28.801,42c0,1.199-1.199,1.199-1.199,2.398h-1.199c-10.801,2.398-18-6-20.398-9.602-4.801-7.199-6-16.801-2.398-21.602l28.801-42c2.398-3.602,1.199-9.602-2.398-12-3.602-2.398-9.602-1.199-12,2.398l-26.398,38.398h-1.199c-12-3.602-19.199-10.801-21.602-19.199-2.398-7.199-1.199-15.602,4.801-24l76.801-114,88.801-70.801,56.398,37.199,4.801-16.801L281.046,0l-99.602,80.398-79.199,117.6c-8.398,13.199-10.801,26.398-7.199,39.602,4.801,13.199,15.602,24,32.398,30-1.199,9.602,1.199,20.398,7.199,28.801,3.602,4.801,7.199,8.398,10.801,10.801,6,3.602,13.199,6,20.398,6,0,7.199,2.398,15.602,7.199,22.801,2.398,3.602,6,7.199,9.602,9.602,4.801,3.602,10.801,4.801,18,6l-50.398,74.398c-14.398,20.398-2.398,51.602,12,61.199,15.602,10.801,45.602,12,61.199-10.801l94.801-141.6c-1.199-7.199-4.801-13.199-6-19.199l-.002.002Z"/>
  <path d="M837.843,368.403l-112.8-271.2L617.043,1.203l-90,37.199,7.199,15.602,79.199-33.602,97.199,86.398,111.6,267.6c8.398,19.199-8.398,32.398-15.602,34.801-8.398,3.602-30-1.199-36-14.398l-61.199-147.6c-2.398-4.801-7.199-6-10.801-4.801-4.801,2.398-6,7.199-4.801,10.801l19.199,45.602c-3.602,10.801-10.801,16.801-20.398,16.801-8.398,0-16.801-4.801-19.199-10.801l-19.199-46.801c-2.398-4.801-7.199-6-10.801-4.801-4.801,2.398-6,7.199-4.801,10.801l19.199,46.801c0,1.199,1.199,1.199,1.199,2.398,0,0,0,1.199-1.199,1.199-4.801,10.801-14.398,12-19.199,12-8.398,0-16.801-4.801-19.199-10.801l-19.199-46.801c-2.398-4.801-7.199-6-10.801-4.801-1.199,0-2.398,1.199-2.398,2.398v13.199l15.602,38.398h-1.199c-4.801,3.602-9.602,6-15.602,7.199v16.801c8.398-1.199,16.801-4.801,25.199-10.801,7.199,6,16.801,10.801,27.602,10.801,6,0,10.801-1.199,15.602-2.398,7.199-2.398,12-7.199,16.801-14.398,6,3.602,14.398,6,22.801,6,4.801,0,9.602-1.199,13.199-2.398,6-2.398,10.801-6,14.398-12l34.801,82.801c9.602,22.801,42,30,57.602,22.801,16.793-3.598,34.793-27.598,23.996-54h0Z"/>
</svg>