<?xml version="1.0" encoding="UTF-8"?>
<svg id="Layer_1" data-name="Layer 1" xmlns="http://www.w3.org/2000/svg" viewBox="0 0 1140 937.447">
  <defs>
    <style>
      .cls-1 {
        fill-rule: evenodd;
      }
    </style>
  </defs>
  <path class="cls-1" d="M1000.783,0h121.92c9.516,0,17.297,7.734,17.297,17.25v902.9c0,9.562-7.781,17.297-17.297,17.297H17.203c-9.516,0-17.203-7.734-17.203-17.297V17.29C0,7.775,7.688.04,17.203.04L17.247,0h122.02M283.735,0h572.58M890.863,0h75.422M983.582,34.547H34.602v798.14h88.641v-85.828c0-37.125,30.234-67.406,67.406-67.406h180.42c37.078,0,67.406,30.281,67.406,67.406v85.828h270.61v-44.531c0-9.562,7.688-17.297,17.297-17.297h285.14c9.516,0,17.297,7.734,17.297,17.297v44.531h76.547l.047-798.14h-121.831ZM173.808,0h75.422M157.73,793.97v38.719h246.24v-38.719h-246.24ZM403.97,759.423c0-13.828,1.312-24.75-9.609-35.766-6.047-5.953-14.25-9.656-23.25-9.656h-180.42c-18.047,0-32.906,14.812-32.906,32.859v12.562h246.24-.055ZM994.36,805.454h-250.74v27.234h250.74v-27.234ZM1105.45,867.235l-1070.9.047v35.625h1070.9v-35.672Z"/>
</svg>