<?xml version="1.0" encoding="UTF-8"?>
<svg width="1200pt" height="1200pt" version="1.1" viewBox="0 0 1200 1200" xmlns="http://www.w3.org/2000/svg">
 <path d="m950.4 729.6c-13.199-114-97.199-202.8-204-230.4 67.199-46.801 111.6-124.8 111.6-212.4 0-141.6-115.2-258-258-258-141.6 0-258 115.2-258 258 0 87.602 44.398 165.6 111.6 212.4-106.8 26.398-190.8 116.4-204 231.6l-27.602 355.2c-1.1992 19.199 10.801 37.199 30 42 110.4 27.602 228 42 348 42s237.6-14.398 348-42c19.199-4.8008 32.398-22.801 30-42zm-350.4-619.2c98.398 0 177.6 79.199 177.6 177.6 0 98.398-79.199 177.6-177.6 177.6-98.398 0-177.6-79.199-177.6-177.6 0-98.398 79.203-177.6 177.6-177.6zm-295.2 948 25.199-319.2c12-96 93.602-168 189.6-168h162c97.199 0 177.6 72 189.6 166.8l25.199 320.4c-189.6 42-403.2 42-591.6 0z"/>
 <path d="m644.4 985.2c0 21.871-17.727 39.602-39.598 39.602-21.871 0-39.602-17.73-39.602-39.602 0-21.871 17.73-39.598 39.602-39.598 21.871 0 39.598 17.727 39.598 39.598"/>
 <path d="m601.2 651.6c-75.602 0-114 51.602-121.2 105.6-1.1992 10.801 7.1992 20.398 18 20.398h28.801c8.3984 0 16.801-6 18-15.602 3.6016-20.398 15.602-45.602 57.602-45.602 31.199 0 44.398 16.801 49.199 26.398 7.1992 14.398 6 31.199-2.3984 44.398-9.6016 12-18 18-27.602 25.199-24 16.801-43.199 34.801-46.801 84-1.1992 10.801 7.1992 19.199 18 19.199h28.801c9.6016 0 16.801-7.1992 18-16.801 1.1992-21.602 7.1992-25.199 20.398-33.602 10.801-8.3984 26.398-19.199 42-39.602 24-32.398 26.398-74.398 8.3984-111.6-21.598-39.59-61.199-62.387-109.2-62.387z"/>
</svg>
