<?xml version="1.0" encoding="UTF-8"?>
<svg id="Layer_1" xmlns="http://www.w3.org/2000/svg" version="1.1" viewBox="0 0 1125 1125">
  <!-- Generator: Adobe Illustrator 29.2.1, SVG Export Plug-In . SVG Version: 2.1.0 Build 116)  -->
  <path d="M491,81.8c-225.7,0-409.3,183.6-409.3,409.3s183.6,409.3,409.3,409.3,409.3-183.6,409.3-409.3S716.7,81.8,491,81.8ZM491,880.6c-214.8,0-389.6-174.8-389.6-389.6S276.2,101.5,491,101.5s389.6,174.8,389.6,389.6c0,214.8-174.7,389.6-389.6,389.6h0ZM1109.3,1033.4l-191.1-191.1c-3.8-3.8-10.1-3.8-13.9,0l-11.1,11.1-36-35.7c77.5-86.9,124.7-201.3,124.7-326.6C982,220.3,761.8,0,491,0S0,220.3,0,491s220.3,491,491,491,240.2-47.4,327.1-125.2l35.9,35.7-11.8,11.8c-1.8,1.8-2.9,4.4-2.9,6.9s1,5.1,2.9,6.9l191.1,191.1c10.5,10.5,24.3,15.8,38,15.8s27.5-5.2,38-15.7,15.7-23.6,15.7-38c0-14.4-5.5-27.9-15.7-38h0ZM19.6,491C19.6,231.1,231,19.7,491,19.7s471.4,211.5,471.4,471.4-211.5,471.3-471.4,471.3S19.6,750.9,19.6,491ZM832.5,843.4c3.8-3.7,7.6-7.5,11.3-11.4l35.4,35.2-11.3,11.3-35.4-35.2ZM1095.4,1095.4c-13.3,13.3-34.9,13.3-48.2,0l-184.1-184.1,48.1-48.1,184.1,184.1c6.4,6.4,9.9,15,9.9,24.1,0,9.1-3.5,17.6-9.9,24h0ZM485.4,296c-18.7,0-37.2,4.8-53.6,14s-30.3,22.4-40.2,38.2c-5.2,8.4-6.9,18.3-4.6,28s8.1,17.9,16.5,23.1c8.4,5.2,18.3,6.9,28,4.6s17.9-8.1,23.1-16.5c3.3-5.3,7.9-9.7,13.3-12.7,5.2-2.9,11.3-4.5,17.6-4.5,9.7,0,18.8,3.8,25.6,10.6s10.6,15.9,10.6,25.6-1.9,13.8-5.5,19.5c-3.8,5.9-9,10.5-15.3,13.5-15.9,7.4-29.2,19-38.3,33.4-9.3,14.5-14.2,31.5-14.2,48.9v27.3c0,20.5,16.6,37.1,37.1,37.1s37.1-16.6,37.1-37.1v-27.3c0-3.6.8-6.7,2.3-9.1,1.6-2.5,4.1-4.6,7.3-6.1,19-8.9,35.1-23,46.4-40.8,11.3-17.8,17.3-38.3,17.3-59.2s-11.5-57.2-32.3-78.1-48.7-32.4-78.2-32.4h0ZM562,455.2c-9.3,14.6-22.5,26.2-38.2,33.5-6.5,3-11.9,7.7-15.5,13.4-3.5,5.6-5.4,12.4-5.4,19.7v27.3c0,9.6-7.8,17.5-17.5,17.5s-17.5-7.8-17.5-17.5v-27.3c0-13.7,3.8-27,11.1-38.3,7.2-11.2,17.6-20.3,30-26.2,9.7-4.5,17.9-11.7,23.6-20.8,5.6-8.9,8.6-19.2,8.6-30s-5.8-29-16.4-39.5-24.6-16.4-39.5-16.4-19,2.4-27.2,6.9c-8.3,4.6-15.3,11.3-20.4,19.5-2.5,3.9-6.3,6.7-10.8,7.8-4.5,1-9.2.3-13.2-2.2-3.9-2.5-6.7-6.3-7.8-10.8-1-4.5-.3-9.2,2.2-13.2,8.1-13,19.5-24,33.1-31.5,13.5-7.5,28.7-11.5,44.1-11.5,24.2,0,47.1,9.5,64.2,26.6,17.2,17.2,26.6,39.9,26.6,64.2,0,17.2-4.8,34-14.2,48.7h0ZM485.4,611c-20.5,0-37.1,16.6-37.1,37.1v.8c0,20.5,16.6,37.1,37.1,37.1s37.1-16.6,37.1-37.1v-.8c0-20.5-16.6-37.1-37.1-37.1ZM502.9,648.9c0,9.6-7.8,17.5-17.5,17.5s-17.5-7.8-17.5-17.5v-.8c0-9.6,7.8-17.5,17.5-17.5s17.5,7.8,17.5,17.5v.8Z"/>
</svg>