<?xml version="1.0" encoding="UTF-8"?>
<svg id="Layer_1" data-name="Layer 1" xmlns="http://www.w3.org/2000/svg" viewBox="0 0 1419.636 1200.002">
  <defs>
    <style>
      .cls-1 {
        fill-rule: evenodd;
      }
    </style>
  </defs>
  <path d="M462.666,740.84c21.289,0,39.129-16.605,40.383-38.117,2.027-35.082,2.977-67.281,2.988-96.918-.211-152.7-24.594-237.22-57.859-288.04-16.625-25.223-36.059-41.406-54.023-50.367-17-8.559-31.953-10.613-41.117-10.781-.754-.047-1.508-.109-2.273-.109l-195.46-.004c-.773,0-1.527.07-2.293.109-9.168.176-24.129,2.211-41.121,10.777-27.215,13.5-56.547,43.016-77.09,95.32C14.016,415.218.071,491.14,0,605.79c0,29.633.965,61.855,3.027,96.949,1.27,21.492,19.098,38.094,40.359,38.094.805,0,1.609-.023,2.422-.07,22.312-1.316,39.336-20.465,38.043-42.781-1.984-33.645-2.898-64.297-2.898-92.191-.16-122.54,17.703-191.37,35.254-227.28v758.94c0,34.555,28.016,62.551,62.551,62.551s62.559-27.992,62.559-62.551v-456.71h23.449v456.71c0,34.555,28.016,62.551,62.551,62.551s62.559-27.992,62.559-62.551l-.004-758.69c3,6.152,6.019,13.199,9,21.426,14.258,39.535,26.25,104.39,26.211,205.61,0,27.902-.906,58.562-2.852,92.211-1.301,22.316,15.734,41.461,38.051,42.758.801.055,1.602.074,2.391.074h-.007Z"/>
  <path d="M366.866,113.84c0,62.871-50.965,113.84-113.84,113.84s-113.84-50.965-113.84-113.84S190.155,0,253.026,0s113.84,50.965,113.84,113.84Z"/>
  <path d="M1325.317,1031.563h-94.32v-503.16c0-79.078-32.039-150.24-83.641-201.84-51.602-51.602-123-83.641-201.84-83.641-157.56,0-285.48,127.56-285.48,285.48v503.04h-94.32v53.16h-94.32v106.2h948.24v-106.2h-94.32v-53.039ZM1059.877,841.603h-228.72c-6.84,0-12.719-5.641-12.719-12.719,0-6.84,5.879-12.719,12.719-12.719h228.84c7.078,0,12.719,5.879,12.719,12.719-.121,7.078-5.641,12.719-12.84,12.719h.001ZM1059.877,754.724h-228.72c-6.84,0-12.719-5.879-12.719-12.719,0-7.078,5.879-12.719,12.719-12.719h228.84c7.078,0,12.719,5.641,12.719,12.719-.121,6.84-5.641,12.719-12.84,12.719h.001ZM1059.877,667.482h-228.72c-6.84,0-12.719-5.879-12.719-12.719,0-7.078,5.879-12.719,12.719-12.719h228.84c7.078,0,12.719,5.641,12.719,12.719-.121,6.84-5.641,12.719-12.84,12.719h.001ZM1059.877,580.244h-228.72c-6.84,0-12.719-5.879-12.719-12.719,0-7.078,5.879-12.719,12.719-12.719h228.84c7.078,0,12.719,5.641,12.719,12.719-.121,6.957-5.641,12.719-12.84,12.719h.001ZM1167.397,1031.564h-25.441l.004-503.16c0-108.6-87.961-196.56-196.56-196.56s-196.56,87.961-196.56,196.56v503.04h-25.441l-.004-503.04c0-122.52,99.602-221.88,221.88-221.88s221.88,99.359,221.88,221.88l.004,503.16h.238Z"/>
  <path class="cls-1" d="M936.739,83.82c-36.236,0-65.707,29.471-65.707,65.707s29.471,65.707,65.707,65.707,65.707-29.471,65.707-65.707-29.471-65.707-65.707-65.707ZM936.739,220.485c-39.13,0-70.956-31.838-70.956-70.956s31.827-70.956,70.956-70.956,70.956,31.827,70.956,70.956-31.838,70.956-70.956,70.956Z"/>
  <path class="cls-1" d="M936.739,240.645c-50.237,0-91.114-40.865-91.114-91.114,0-18.815,5.686-36.872,16.451-52.227,10.52-15.003,25.087-26.375,42.133-32.901,1.352-.511,2.875.16,3.397,1.512s-.16,2.875-1.512,3.397c-33.019,12.628-55.21,44.87-55.21,80.222,0,47.339,38.514,85.853,85.864,85.853s85.853-38.514,85.853-85.853c0-35.352-22.19-67.592-55.21-80.222-1.352-.522-2.034-2.034-1.512-3.397.522-1.352,2.034-2.034,3.397-1.512,17.047,6.527,31.615,17.899,42.133,32.901,10.765,15.354,16.451,33.414,16.451,52.227,0,50.237-40.865,91.114-91.114,91.114h-.006Z"/>
  <path class="cls-1" d="M907.754,64.228h57.979v-12.469c0-1.757-1.427-3.184-3.184-3.184h-51.612c-1.746,0-3.184,1.427-3.184,3.184v12.469ZM968.35,69.477h-63.226c-1.448,0-2.63-1.182-2.63-2.63v-15.099c0-4.643,3.791-8.433,8.433-8.433h51.612c4.653,0,8.433,3.791,8.433,8.433v15.099c0,1.448-1.182,2.63-2.63,2.63h.008Z"/>
  <path class="cls-1" d="M957.937,48.588c-.458,0-.916-.117-1.342-.362-1.246-.735-1.661-2.353-.916-3.599l13.949-23.531-12.692-15.823h-40.386l-12.692,15.823,13.949,23.531c.735,1.246.33,2.864-.916,3.599s-2.864.33-3.599-.916l-14.875-25.096c-.554-.937-.479-2.13.202-2.981l14.63-18.229c.5-.628,1.256-.98,2.044-.98h42.9c.799,0,1.544.362,2.044.99l14.63,18.229c.681.852.767,2.044.202,2.981l-14.875,25.096c-.49.831-1.363,1.288-2.257,1.288l-.002-.021Z"/>
  <path class="cls-1" d="M972.814,23.49h-72.151c-1.448,0-2.63-1.182-2.63-2.63s1.182-2.63,2.63-2.63h72.151c1.459,0,2.63,1.182,2.63,2.63s-1.171,2.63-2.63,2.63Z"/>
  <path class="cls-1" d="M949.167,23.49c-.841,0-1.661-.405-2.172-1.139l-12.426-18.24c-.82-1.203-.511-2.832.692-3.652s2.832-.5,3.652.692l12.426,18.229c.82,1.203.511,2.832-.692,3.652-.458.309-.969.458-1.48.458h0Z"/>
  <path class="cls-1" d="M936.739,48.588c-.394,0-.788-.085-1.161-.277-1.299-.639-1.831-2.215-1.193-3.514l21.455-43.327c.639-1.299,2.215-1.831,3.514-1.193s1.831,2.215,1.193,3.514l-21.445,43.327c-.458.926-1.395,1.459-2.353,1.459l-.011.011Z"/>
  <path class="cls-1" d="M924.312,23.49c-.511,0-1.022-.149-1.48-.458-1.193-.82-1.512-2.449-.692-3.652l12.426-18.229c.82-1.203,2.449-1.512,3.652-.692s1.512,2.449.692,3.652l-12.426,18.24c-.511.745-1.331,1.139-2.172,1.139h0Z"/>
  <path class="cls-1" d="M936.739,48.588c-.969,0-1.895-.532-2.364-1.459l-21.445-43.327c-.65-1.299-.106-2.875,1.182-3.514,1.299-.65,2.875-.117,3.514,1.193l21.455,43.327c.639,1.299.106,2.875-1.193,3.525-.373.181-.777.277-1.161.277l.011-.021Z"/>
  <path class="cls-1" d="M476.327,83.82c-36.236,0-65.707,29.471-65.707,65.707s29.471,65.707,65.707,65.707,65.707-29.471,65.707-65.707-29.471-65.707-65.707-65.707ZM476.327,220.485c-39.13,0-70.956-31.838-70.956-70.956s31.827-70.956,70.956-70.956,70.956,31.827,70.956,70.956-31.838,70.956-70.956,70.956Z"/>
  <path class="cls-1" d="M476.327,240.645c-50.237,0-91.114-40.865-91.114-91.114,0-18.815,5.686-36.872,16.451-52.227,10.52-15.003,25.087-26.375,42.133-32.901,1.352-.511,2.875.16,3.397,1.512s-.16,2.875-1.512,3.397c-33.019,12.628-55.21,44.87-55.21,80.222,0,47.339,38.514,85.853,85.864,85.853s85.853-38.514,85.853-85.853c0-35.352-22.19-67.592-55.21-80.222-1.352-.522-2.034-2.034-1.512-3.397.522-1.352,2.034-2.034,3.397-1.512,17.047,6.527,31.615,17.899,42.133,32.901,10.765,15.354,16.451,33.414,16.451,52.227,0,50.237-40.865,91.114-91.114,91.114h-.006Z"/>
  <path class="cls-1" d="M447.342,64.228h57.979v-12.469c0-1.757-1.427-3.184-3.184-3.184h-51.612c-1.746,0-3.184,1.427-3.184,3.184v12.469ZM507.938,69.477h-63.226c-1.448,0-2.63-1.182-2.63-2.63v-15.099c0-4.643,3.791-8.433,8.433-8.433h51.612c4.653,0,8.433,3.791,8.433,8.433v15.099c0,1.448-1.182,2.63-2.63,2.63h.008Z"/>
  <path class="cls-1" d="M497.525,48.588c-.458,0-.916-.117-1.342-.362-1.246-.735-1.661-2.353-.916-3.599l13.949-23.531-12.692-15.823h-40.386l-12.692,15.823,13.949,23.531c.735,1.246.33,2.864-.916,3.599s-2.864.33-3.599-.916l-14.875-25.096c-.554-.937-.479-2.13.202-2.981l14.63-18.229c.5-.628,1.256-.98,2.044-.98h42.9c.799,0,1.544.362,2.044.99l14.63,18.229c.681.852.767,2.044.202,2.981l-14.875,25.096c-.49.831-1.363,1.288-2.257,1.288l-.002-.021Z"/>
  <path class="cls-1" d="M512.401,23.49h-72.151c-1.448,0-2.63-1.182-2.63-2.63s1.182-2.63,2.63-2.63h72.151c1.459,0,2.63,1.182,2.63,2.63s-1.171,2.63-2.63,2.63Z"/>
  <path class="cls-1" d="M488.755,23.49c-.841,0-1.661-.405-2.172-1.139l-12.426-18.24c-.82-1.203-.511-2.832.692-3.652s2.832-.5,3.652.692l12.426,18.229c.82,1.203.511,2.832-.692,3.652-.458.309-.969.458-1.48.458h0Z"/>
  <path class="cls-1" d="M476.327,48.588c-.394,0-.788-.085-1.161-.277-1.299-.639-1.831-2.215-1.193-3.514L495.429,1.47c.639-1.299,2.215-1.831,3.514-1.193s1.831,2.215,1.193,3.514l-21.445,43.327c-.458.926-1.395,1.459-2.353,1.459l-.011.011Z"/>
  <path class="cls-1" d="M463.9,23.49c-.511,0-1.022-.149-1.48-.458-1.193-.82-1.512-2.449-.692-3.652l12.426-18.229c.82-1.203,2.449-1.512,3.652-.692s1.512,2.449.692,3.652l-12.426,18.24c-.511.745-1.331,1.139-2.172,1.139h0Z"/>
  <path class="cls-1" d="M476.327,48.588c-.969,0-1.895-.532-2.364-1.459l-21.445-43.327c-.65-1.299-.106-2.875,1.182-3.514,1.299-.65,2.875-.117,3.514,1.193l21.455,43.327c.639,1.299.106,2.875-1.193,3.525-.373.181-.777.277-1.161.277l.011-.021Z"/>
</svg>