<?xml version="1.0" encoding="UTF-8"?>
<svg id="Layer_1" data-name="Layer 1" xmlns="http://www.w3.org/2000/svg" viewBox="0 0 1200.011 993.524">
  <path d="M588.739,0c229.38,3.117,421.12,81.211,580.08,238.31,32.93,32.555,40.453,71.672,19.383,98.648-21.492,27.516-64.195,30.586-102.73,6.469-11.008-7.086-21.277-15.262-30.656-24.398-253.24-241.45-641.65-249.3-905.53-17.859-25.547,22.406-53.461,37.711-88.453,35.32-24.469-1.664-44.156-12.164-55.172-34.945-11.297-23.438-4.547-44.789,10.195-64.125,6.645-8.305,14.051-15.973,22.125-22.898C196.441,72.352,383.141,3.542,588.741.002l-.002-.002Z"/>
  <path d="M605.049,266.72c158.02,3.188,288.7,63.023,404.93,158.74,14.578,12,24.914,28.289,31.828,46.055,8.789,22.547,10.242,45.234-6.727,64.781-17.391,19.992-40.664,23.32-65.227,17.812-26.391-5.906-46.711-22.219-66.469-39.844-157.57-141.05-391.27-150.8-557.81-23.438-14.93,11.414-28.617,24.445-42.773,36.844-21.727,19.008-46.148,30.867-75.844,28.5-38.672-3.07-61.125-35.719-50.508-72.844,5.559-18.988,16.324-36.039,31.078-49.219,113.79-104.53,245.98-165.16,397.52-167.39l.002.003Z"/>
  <path d="M634.529,544.62c40.508.734,80.469,9.519,117.55,25.852,37.078,16.328,70.539,39.871,98.43,69.258,19.898,20.789,33.633,44.227,25.781,75-9.938,39.211-57.094,57.586-89.93,27.164-102.19-94.688-244.34-95.391-352.69-5.414-30.234,25.102-49.641,27.164-73.805,7.805-24.164-19.359-30.023-52.125-13.945-82.031,8.672-16.125,21.352-28.828,35.414-40.312,62.062-50.531,142.1-77.484,253.2-77.32l-.005-.002Z"/>
  <path d="M709.299,894.66c-.023,26.395-10.594,51.688-29.355,70.25-18.762,18.566-44.164,28.867-70.559,28.609-56.953-.281-100.97-44.883-100.03-101.44.961-58.758,45.516-103.12,102.61-101.95,55.031,1.031,97.805,46.922,97.336,104.53h-.002Z"/>
</svg>