<?xml version="1.0" encoding="UTF-8"?>
<svg id="Layer_1" xmlns="http://www.w3.org/2000/svg" version="1.1" viewBox="0 0 1059.1 626.8">
  <!-- Generator: Adobe Illustrator 29.2.1, SVG Export Plug-In . SVG Version: 2.1.0 Build 116)  -->
  <path d="M690.6,249.8H71c-6.4,0-12.4-3.4-15.6-9-3.2-5.6-3.2-12.4,0-18,3.2-5.6,9.2-9,15.6-9h619.6c84,0,125.4-29,125.4-88.9h0c0-31.8-16.9-61.1-44.5-77s-61.4-15.9-88.9,0-44.5,45.2-44.5,77-3.4,12.4-9,15.6c-5.6,3.2-12.4,3.2-18,0-5.6-3.2-9-9.2-9-15.6,0-44.6,23.8-85.9,62.5-108.2,38.7-22.3,86.3-22.3,124.9,0,38.6,22.3,62.5,63.6,62.5,108.2s-21,124.9-161.4,124.9h0Z"/>
  <path d="M900.7,626.8c-42,0-82.3-16.7-112-46.4-29.7-29.7-46.4-70-46.4-112,0-6.4,3.4-12.4,9-15.6,5.6-3.2,12.4-3.2,18,0,5.6,3.2,9,9.2,9,15.6-1,33.1,11.4,65.2,34.4,89,23.1,23.8,54.8,37.2,87.9,37.2s64.8-13.4,87.9-37.2c23.1-23.8,35.5-55.9,34.4-89,0-77.6-57.8-122.3-158.8-122.3H104.5c-6.4,0-12.4-3.4-15.6-9-3.2-5.6-3.2-12.4,0-18,3.2-5.6,9.2-9,15.6-9h760.2c180,0,194.4,121.2,194.4,158.3,0,42-16.7,82.3-46.4,112-29.7,29.7-70,46.4-112,46.4h0Z"/>
  <path d="M587.3,618.7c-18.8,0-37.2-5-53.4-14.5s-29.7-23-39-39.3c-2.8-5.5-2.6-12.2.6-17.5,3.2-5.3,9-8.6,15.2-8.7,6.2,0,12.1,3.1,15.4,8.3,10.2,18.4,28.1,31.2,48.8,35,20.7,3.8,42-1.8,58.1-15.4,16.1-13.5,25.3-33.6,25.1-54.6,0-38.5-7.8-70.6-103.4-70.6H35.5c-6.4,0-12.4-3.4-15.6-9-3.2-5.6-3.2-12.4,0-18,3.2-5.6,9.2-9,15.6-9h518.9c97.7,0,139.4,31.9,139.4,106.6,0,28.3-11.3,55.3-31.2,75.3s-47.1,31.2-75.3,31.2h0Z"/>
  <path d="M522.7,152.9H18c-6.4,0-12.4-3.4-15.6-9-3.2-5.6-3.2-12.4,0-18,3.2-5.6,9.2-9,15.6-9h504.7c6.4,0,12.4,3.4,15.6,9,3.2,5.6,3.2,12.4,0,18-3.2,5.6-9.2,9-15.6,9Z"/>
  <path d="M391,538.4H75.8c-6.4,0-12.4-3.4-15.6-9-3.2-5.6-3.2-12.4,0-18,3.2-5.6,9.2-9,15.6-9h315.1c6.4,0,12.4,3.4,15.6,9,3.2,5.6,3.2,12.4,0,18-3.2,5.6-9.2,9-15.6,9Z"/>
</svg>