<?xml version="1.0" encoding="UTF-8"?>
<svg id="Layer_1" data-name="Layer 1" xmlns="http://www.w3.org/2000/svg" viewBox="0 0 975.048 977.628">
  <path d="M957.654,0H17.344C7.782,0,0,7.734,0,17.344v942.94c0,9.562,7.781,17.344,17.344,17.344h940.36c9.562,0,17.344-7.734,17.344-17.344l-.047-942.94c0-9.562-7.781-17.344-17.344-17.344h-.003ZM940.31,942.94H34.63V34.68h905.68v908.26ZM86.62,908.299h801.71c9.562,0,17.344-7.734,17.344-17.344V87.935c0-9.562-7.781-17.344-17.344-17.344l-801.71.047c-9.562,0-17.344,7.734-17.344,17.344v803.02c0,9.562,7.781,17.344,17.344,17.344v-.047ZM470.15,455.439V105.279h34.641v350.16c0,9.562,7.781,17.344,17.344,17.344h348.84v34.641h-348.84c-9.562,0-17.344,7.734-17.344,17.344v348.89h-34.641v-348.89c0-9.562-7.781-17.344-17.344-17.344H103.966v-34.641h348.84c9.562,0,17.344-7.734,17.344-17.344ZM103.96,542.064h331.55v331.55H103.96v-331.55ZM539.48,873.614v-331.55h331.55v331.55h-331.55ZM871.03,438.094h-331.55V105.284h331.55v332.81ZM435.51,105.284v332.81H103.96V105.284h331.55ZM154.3,224.254c-6.75-6.75-6.75-17.719,0-24.516l45.891-45.938c6.75-6.75,17.719-6.75,24.516,0,6.75,6.75,6.75,17.719,0,24.516l-45.891,45.938c-6.75,6.797-17.719,6.75-24.516,0ZM180.409,290.676l110.72-110.72c6.75-6.75,17.719-6.75,24.516,0,6.75,6.75,6.75,17.719,0,24.516l-110.72,110.72c-6.75,6.75-17.719,6.75-24.516,0-6.75-6.75-6.75-17.719,0-24.516ZM610.019,655.456c-3.375,3.375-7.828,5.062-12.234,5.062-4.453,0-8.859-1.688-12.234-5.062-6.75-6.75-6.75-17.719,0-24.516l45.938-45.938c6.75-6.75,17.719-6.75,24.516,0,6.75,6.75,6.75,17.719,0,24.516l-45.938,45.938h-.048ZM746.839,611.159c6.75,6.75,6.75,17.719,0,24.516l-110.72,110.72c-3.375,3.375-7.828,5.062-12.234,5.062-4.453,0-8.859-1.688-12.234-5.062-6.75-6.75-6.75-17.719,0-24.516l110.72-110.72c6.75-6.75,17.719-6.75,24.516,0h-.048Z"/>
</svg>