<?xml version="1.0" encoding="UTF-8"?><svg id="Layer_2" xmlns="http://www.w3.org/2000/svg" viewBox="0 0 408.601 458.812"><defs><style>.cls-1{fill:#c9fcff;}</style></defs><g id="Layer_4"><path d="M204.816,458.811c-13.172,0-23.906-10.781-23.906-24.047v-24.656l-2.109,2.062c-8.812,9-24.984,9.094-33.984-.094-4.5-4.5-6.984-10.547-6.984-16.969s2.531-12.469,7.078-17.062l36.047-35.906v-68.906l-64.781,37.453-13.078,48.938c-1.641,6.234-5.672,11.438-11.297,14.625-5.578,3.188-12.047,4.031-18.281,2.344-6-1.5-11.484-5.719-14.484-11.25-3.141-5.203-4.078-11.953-2.391-18.141l.703-2.719-21.422,12.328c-5.672,3.234-12.188,4.078-18.422,2.391-6.141-1.688-11.203-5.625-14.297-11.156-3.188-5.531-4.031-12-2.391-18.188s5.672-11.391,11.25-14.625l21.141-12.234-2.625-.703c-6.188-1.641-11.438-5.672-14.672-11.297s-4.125-12.094-2.438-18.281c3.422-12.75,16.734-20.344,29.578-16.969l49.125,13.219,63.562-36.75-58.781-33.938-48.938,13.219c-12.891,3.422-26.062-4.219-29.438-17.016-1.688-6.141-.891-12.75,2.297-18.141,2.953-5.25,8.25-9.375,14.484-11.109l2.859-.797-21.375-12.281c-11.438-6.703-15.375-21.422-8.812-32.859,6.656-11.391,21.422-15.234,32.859-8.672l21.375,12.328-.75-2.812c-1.734-6.094-.891-12.656,2.344-18.281s8.484-9.562,14.766-11.156c12.656-3.375,25.875,4.219,29.297,17.016l13.078,49.219,59.766,34.453v-74.906l-35.906-35.719c-9.422-9.422-9.422-24.703,0-34.125,8.906-8.906,25.078-8.766,33.844,0l2.062,2.062v-24.656c0-13.266,10.734-24.047,23.906-24.047,13.266,0,24.047,10.781,24.047,24.047v24.516l1.922-1.922c4.594-4.594,10.359-7.5,17.25-7.078,6.469.047,12.469,2.578,16.922,7.125,9.328,9.328,9.328,24.656-.047,34.031l-36.047,35.906v73.406l58.781-33.938,13.078-48.938c1.641-6.234,5.578-11.484,11.156-14.719,5.531-3.234,12.047-4.078,18.281-2.438,6.234,1.734,11.531,5.719,14.625,11.016,3.234,5.344,4.125,12.094,2.391,18.328l-.75,2.812,21.375-12.375c5.484-3.234,11.953-4.078,18.188-2.438s11.438,5.672,14.672,11.25c6.516,11.484,2.484,26.156-8.953,32.719l-21.328,12.328,2.719.75c6.281,1.688,11.531,5.719,14.766,11.391,3.188,5.578,3.938,12.047,2.203,18.188-1.594,6.047-5.578,11.25-11.109,14.484-5.578,3.234-12.094,4.125-18.281,2.484l-49.125-13.312-59.766,34.594,64.781,37.312,48.984-13.172c6.234-1.641,12.75-.797,18.328,2.438s9.562,8.438,11.25,14.672c1.5,5.953.656,12.422-2.297,17.766-3.469,5.812-8.719,9.844-14.672,11.484l-2.812.75,21.328,12.328c5.578,3.234,9.562,8.391,11.25,14.625,1.641,6.141.797,12.562-2.438,18.094-6.562,11.484-21.328,15.422-32.859,8.812l-21.234-12.328.703,2.719c1.641,6.188.703,12.938-2.578,18.562-3.234,5.531-8.438,9.469-14.531,11.016-12.797,3.375-26.016-4.266-29.484-17.156l-13.078-49.078-63.562-36.656v67.828l35.906,35.766c4.547,4.547,7.078,10.594,7.078,17.062s-2.531,12.516-7.078,17.062c-9.047,9.047-24.844,8.953-33.844,0l-2.062-2.062v24.656c.141,13.312-10.641,24.094-23.906,24.094l-.002-.002Z"/><path class="cls-1" d="M189.722,380.108c1.125,0,2.297.234,3.375.703,3.281,1.359,5.438,4.594,5.438,8.156v45.844c0,3.516,2.812,6.422,6.281,6.422,3.516,0,6.422-2.859,6.422-6.422v-45.844c0-3.562,2.156-6.75,5.438-8.156,3.328-1.359,7.078-.609,9.609,1.875l17.109,17.016c2.344,2.344,6.469,2.438,8.906.047,1.219-1.219,1.922-2.859,1.922-4.594s-.656-3.328-1.922-4.547l-38.484-38.344c-1.641-1.641-2.578-3.891-2.578-6.234v-86.766c0-3.141,1.688-6.047,4.406-7.641,2.719-1.547,6.094-1.547,8.812,0l79.969,46.125c2.016,1.172,3.516,3.094,4.125,5.391l14.016,52.641c.938,3.469,4.5,5.625,7.969,4.641,1.594-.422,2.906-1.406,3.75-2.859.938-1.547,1.172-3.375.703-5.109l-6.141-23.297c-.891-3.469.328-7.125,3.188-9.281,2.812-2.156,6.703-2.391,9.797-.609l39.562,22.969c3.141,1.828,6.938.75,8.719-2.344l.047-.047c.844-1.453,1.078-3.094.656-4.688-.422-1.641-1.5-3-3-3.844l-39.75-23.016c-3.094-1.781-4.781-5.25-4.312-8.812.469-3.516,3-6.422,6.469-7.359l23.25-6.234c1.547-.422,3-1.594,3.984-3.234.609-1.172.891-3.094.516-4.641-.422-1.547-1.5-2.906-3-3.797s-3.281-1.125-4.922-.656l-52.453,14.109c-2.25.562-4.688.281-6.703-.891l-81.188-46.781c-2.719-1.547-4.406-4.5-4.406-7.641s1.688-6.047,4.406-7.641l76.172-44.062c2.016-1.172,4.453-1.5,6.75-.891l52.641,14.297c1.641.422,3.328.188,4.781-.656,1.5-.891,2.531-2.297,3-3.984s.281-3.328-.516-4.781c-.844-1.5-2.25-2.625-3.938-3.047l-23.297-6.281c-3.469-.938-6-3.844-6.469-7.359-.469-3.562,1.219-6.984,4.312-8.812l39.703-22.969c3.094-1.781,4.172-5.672,2.438-8.672-.844-1.453-2.203-2.484-3.891-2.953-1.641-.469-3.375-.188-4.781.609l-39.75,23.016c-3.094,1.781-6.938,1.547-9.75-.609s-4.078-5.812-3.188-9.234l6.141-23.391c.469-1.734.281-3.469-.516-4.781-.844-1.406-2.344-2.531-4.031-3-1.594-.422-3.328-.188-4.781.656s-2.484,2.25-2.953,3.984l-14.016,52.547c-.609,2.25-2.062,4.219-4.125,5.391l-75.188,43.359c-2.719,1.547-6.094,1.547-8.812,0-2.719-1.594-4.406-4.5-4.406-7.641v-92.344c0-2.344.938-4.594,2.578-6.234l38.625-38.484c2.531-2.531,2.531-6.609,0-9.141-1.219-1.266-3.094-2.109-4.547-1.922-1.734,0-3.375.703-4.641,1.922l-17.016,16.969c-2.531,2.531-6.328,3.281-9.609,1.922s-5.438-4.594-5.438-8.156V24.139c0-3.516-2.859-6.422-6.422-6.422-3.469,0-6.281,2.859-6.281,6.422v45.844c0,3.562-2.156,6.75-5.438,8.156-3.234,1.359-7.078.656-9.609-1.875l-17.156-17.016c-2.203-2.203-6.609-2.297-8.906-.047-2.531,2.531-2.531,6.609,0,9.141l38.484,38.344c1.641,1.641,2.578,3.891,2.578,6.234v93.844c0,3.141-1.688,6.047-4.406,7.641-2.719,1.547-6.094,1.547-8.812,0l-76.172-43.922c-2.016-1.172-3.516-3.094-4.125-5.391l-14.016-52.781c-.891-3.422-4.219-5.391-7.828-4.5-1.734.422-3.094,1.453-3.938,2.906s-1.078,3.141-.609,4.781l6.188,23.391c.891,3.469-.328,7.078-3.188,9.234-2.812,2.203-6.656,2.438-9.75.656l-39.703-22.828c-3.141-1.781-6.984-.797-8.766,2.25-1.734,3-.656,6.938,2.391,8.719l39.656,22.828c3.094,1.781,4.781,5.25,4.359,8.766-.469,3.516-3,6.469-6.422,7.406l-23.25,6.375c-1.688.469-3.141,1.547-3.891,2.859-.844,1.406-1.031,3.188-.562,4.781.938,3.562,4.406,5.531,7.875,4.594l52.453-14.156c2.25-.609,4.688-.281,6.703.891l75.188,43.406c2.719,1.594,4.406,4.5,4.406,7.641s-1.688,6.047-4.406,7.641l-79.969,46.219c-2.062,1.172-4.453,1.453-6.703.891l-52.641-14.156c-3.469-.938-7.031,1.125-7.969,4.5-.422,1.641-.188,3.375.703,4.875.891,1.547,2.297,2.625,3.938,3.094l23.156,6.281c3.469.938,6,3.844,6.469,7.359s-1.266,6.984-4.312,8.766l-39.562,22.828c-1.5.891-2.578,2.25-3,3.844-.422,1.641-.188,3.375.703,4.922.797,1.453,2.109,2.438,3.656,2.859,1.688.469,3.422.234,4.969-.656l39.703-22.828c3.047-1.781,6.938-1.547,9.75.656,2.812,2.156,4.078,5.812,3.188,9.234l-6.141,23.25c-.469,1.594-.188,3.375.656,4.781.844,1.5,2.25,2.578,3.562,2.906,1.828.469,3.609.281,5.109-.609,1.5-.844,2.531-2.203,2.953-3.844l14.016-52.5c.609-2.25,2.062-4.219,4.125-5.391l81.188-46.922c2.719-1.547,6.094-1.547,8.812,0,2.719,1.594,4.406,4.5,4.406,7.641v87.844c0,2.344-.938,4.594-2.578,6.234l-38.625,38.484c-1.219,1.219-1.875,2.859-1.875,4.547,0,1.734.656,3.328,1.922,4.547,2.438,2.531,6.656,2.438,8.953.094l17.25-17.109c1.547-1.594,3.797-2.484,6.094-2.484h.001Z"/></g></svg>