<?xml version="1.0" encoding="UTF-8"?>
<svg id="Layer_1" data-name="Layer 1" xmlns="http://www.w3.org/2000/svg" viewBox="0 0 403.509 1115.821">
  <defs>
    <style>
      .cls-1 {
        fill: #f8b4cc;
      }
    </style>
  </defs>
  <polygon class="cls-1" points="317.806 356.68 214.419 398.491 77.53 365.491 33.419 443.491 13.419 652.491 128.419 669.18 317.806 669.177 398.419 654.491 353.303 392.119 317.806 356.68"/>
  <path d="M235.919,249.931c0,13.941-14.988,24.859-34.133,24.859s-34.125-10.922-34.125-24.859c0-5.301,4.297-9.598,9.598-9.598s9.598,4.293,9.598,9.598c0,1.082,4.98,5.668,14.93,5.668s14.934-4.582,14.934-5.668c0-5.301,4.297-9.598,9.598-9.598s9.602,4.293,9.602,9.598h0ZM265.43,196.078c0-9.539-5.891-16.73-13.695-16.73s-13.691,7.191-13.691,16.73,5.883,16.734,13.691,16.734c7.805-.004,13.695-7.195,13.695-16.734h0ZM151.815,179.359c-7.805,0-13.695,7.191-13.695,16.73s5.891,16.734,13.695,16.734,13.695-7.195,13.695-16.734c-.004-9.539-5.891-16.73-13.695-16.73ZM377.725,434.409l25.703,221.39c.398,3.398-.68,6.809-2.957,9.363-.871.98-1.984,1.637-3.102,2.273l.762,6.363c1.406,11.742-2.285,23.531-10.133,32.367-7.84,8.848-19.113,13.91-30.926,13.91h-23.027l.023,311.44c0,4.016-.633,7.785-1.555,11.379,23.137,8.125,39.875,29.961,39.875,55.84,0,9.527-7.559,17.086-16.848,17.086h-127.02c-9.289,0-16.84-7.559-16.84-16.84v-21.152c0-10.828,4.531-20.59,11.754-27.59-2.59-5.488-4.172-11.812-4.172-18.723l-7.359-244.55c-.172-5.519-4.621-9.844-10.141-9.844s-9.973,4.324-10.141,9.844l-7.363,244.91c.004,6.758-1.566,12.977-4.133,18.395,7.199,7,11.711,16.746,11.711,27.555v21.152c0,9.281-7.551,16.84-16.84,16.84H47.966c-9.289,0-16.848-7.559-16.848-16.84,0-26.074,16.742-47.953,39.883-56.082-.926-3.598-1.559-7.367-1.559-11.383l.004-311.44h-23.012c-11.812,0-23.086-5.062-30.926-13.91-7.844-8.836-11.535-20.625-10.129-32.367l.762-6.363c-1.113-.637-2.231-1.297-3.102-2.273-2.277-2.555-3.359-5.965-2.957-9.363l25.688-221.33c5.051-25.574,17.133-48.383,33.828-66.465l-.004-124.48c-6.984-6.688-12.055-15.852-13.695-26.406-1.875-12.117,1.02-24.363,7.957-33.605.133-.18.309-.309.441-.484-2.699-10.52-4.281-21.441-4.281-32.719v-22.047C50.017,57.537,111.814,0,187.777,0h27.945c75.961,0,137.76,57.535,137.76,128.26v22.047c0,11.277-1.582,22.199-4.281,32.719.137.176.309.309.441.484,6.938,9.238,9.832,21.484,7.957,33.605-1.641,10.555-6.711,19.715-13.695,26.402v124.42c16.648,17.957,28.68,40.504,33.664,65.516.062.312.113.637.148.957h.008ZM330.463,197.919c-1.082-1.438-2.781-3.078-5.09-4.184-1.168,12.445-3.781,24.934-7.566,37.102,7.602-.594,14.609-7.938,16.082-17.402.898-5.766-.355-11.422-3.426-15.516h0ZM302.147,178.478c0-6.773-.551-13.551-1.672-20.543-39.027-3-74.359-20.074-98.719-47.82-24.359,27.75-59.691,44.82-98.715,47.82-1.117,6.988-1.672,13.77-1.672,20.543,0,61.875,43.852,133.8,100.39,133.8s100.39-71.922,100.39-133.8h-.002ZM201.767,336.278c-10.852,0-21.219-2.133-31.109-5.68v15.23c9.73,1.383,20.293,2.172,31.109,2.172s21.375-.789,31.102-2.172v-15.23c-9.891,3.547-20.254,5.68-31.102,5.68ZM94.587,253.887c-1.07.238-2.098.609-3.195.754-1.559.199-3.117.297-4.66.297-1.059,0-2.082-.223-3.129-.316v92.973c7.715-5.066,15.859-9.492,24.578-12.746,9.234-3.453,19.398-2.812,28.609,1.789,2.84,1.418,6.219,2.691,9.859,3.875v-22.242c-21.973-14.98-39.938-38.023-52.062-64.383h0ZM107.196,361.587c23.672,14.059,57.906,22.266,94.562,22.266s70.902-8.207,94.574-22.266c-3.074-1.527-6.152-3.043-9.383-4.246-2.93-1.098-6.305-.809-9.512.773-17.707,8.828-45.289,13.891-75.672,13.891s-57.98-5.062-75.68-13.887c-3.203-1.602-6.578-1.875-9.512-.777-3.23,1.203-6.309,2.723-9.379,4.246h.001ZM319.916,347.587v-92.965c-1.047.09-2.07.316-3.129.316-1.543,0-3.094-.094-4.652-.297-1.098-.145-2.129-.512-3.199-.754-12.129,26.359-30.09,49.406-52.074,64.387l.004,22.238c3.641-1.184,7.023-2.461,9.859-3.875,9.223-4.594,19.383-5.227,28.609-1.789,8.723,3.254,16.867,7.68,24.582,12.738h0ZM74.026,150.307c0,6.539.734,12.91,1.859,19.156.684-.145,1.34-.375,2.035-.48.531-8.281,1.512-16.68,3.414-25.207,1.211-5.414,5.969-9.293,11.52-9.387,37.535-.609,71.613-16.355,93.48-43.203,7.602-9.332,23.25-9.324,30.836,0,21.867,26.848,55.941,42.59,93.48,43.203,5.547.094,10.305,3.973,11.52,9.387,1.902,8.523,2.883,16.922,3.414,25.203.695.105,1.352.332,2.035.48,1.129-6.25,1.859-12.617,1.859-19.156v-22.047c0-57.484-51.035-104.26-113.76-104.26h-27.945c-62.727,0-113.76,46.77-113.76,104.26l.012,22.051ZM69.627,213.436c1.473,9.469,8.547,16.852,16.09,17.422-3.789-12.176-6.406-24.668-7.574-37.117-2.309,1.105-4.004,2.746-5.09,4.184-3.07,4.09-4.324,9.746-3.426,15.512h0ZM71.369,682.796c-2.07-.582-4.023-1.504-5.531-3.094-2.262-2.391-3.445-5.602-3.27-8.894l.086-1.629H30.108l-.898,7.477c-.598,4.992.914,9.82,4.254,13.582,3.34,3.762,7.953,5.836,12.98,5.836h24.137l.789-13.277ZM167.834,1077.826c0-4.387-2.062-8.195-5.152-10.855-2.836,1.031-5.797,1.75-8.945,1.75h-53.754c-5.547,0-10.633-1.859-15.07-4.891-14.59,2.34-26.246,13.582-29.109,27.988h112.03v-13.992ZM235.893,786.236l7.363,244.91c.008,8.555,4.231,13.57,6.535,13.57h53.746c2.301,0,6.535-5.016,6.535-13.207v-316.56l-1.891-31.5H95.352l-1.926,32.215.023,315.84c0,8.191,4.23,13.207,6.535,13.207h53.754c2.301,0,6.527-5.016,6.527-13.207l7.363-245.27c.562-18.574,15.559-33.117,34.133-33.117s33.566,14.543,34.129,33.117v.002ZM318.612,1063.826c-4.441,3.031-9.523,4.891-15.074,4.891h-53.746c-3.148,0-6.109-.719-8.949-1.754-3.094,2.66-5.16,6.469-5.16,10.859v13.992h112c-2.926-14.469-14.543-25.648-29.074-27.988h.003ZM374.307,676.656l-.898-7.477h-32.543l.086,1.629c.176,3.293-1.008,6.504-3.27,8.894-1.504,1.582-3.449,2.508-5.512,3.09l.793,13.281h24.113c5.027,0,9.641-2.074,12.98-5.836,3.34-3.762,4.848-8.59,4.25-13.582h0ZM378.034,645.179l-24.094-207.5c-4.984-24.496-18.043-46.129-36.059-61.703-27.617,19.961-70.48,31.879-116.12,31.879s-88.5-11.914-116.12-31.879c-18.152,15.684-31.27,37.508-36.172,62.219l-23.992,206.99h38.469l7.762-144.12c.359-6.613,6.082-11.668,12.629-11.336,6.395.344,11.234,5.664,11.242,11.984,0,.223.105.418.094.645l-8.461,157.1h229.1l-8.453-157.1c-.012-.227.094-.418.094-.645.008-6.32,4.855-11.641,11.242-11.984,6.551-.367,12.27,4.723,12.629,11.336l7.754,144.12,38.457-.006Z"/>
</svg>