<?xml version="1.0" encoding="UTF-8"?>
<svg id="Layer_1" data-name="Layer 1" xmlns="http://www.w3.org/2000/svg" viewBox="0 0 885 470.406">
  <defs>
    <style>
      .cls-1 {
        fill: none;
        stroke: #d40000;
        stroke-miterlimit: 10;
        stroke-width: 15px;
      }
    </style>
  </defs>
  <g>
    <path d="M118.533,346.608l-57.996-170.1,33.696-.324,41.472,127.332-7.452-.648,45.036-99.468h20.088l45.36,99.792-8.748.648,41.796-127.333h33.696l-57.348,170.1h-23.004l-47.304-108.216,7.452.972-44.064,107.244h-22.68Z"/>
    <path d="M397.817,349.849c-16.635,0-31.484-3.832-44.55-11.502-13.072-7.665-23.384-18.145-30.942-31.428-7.563-13.285-11.34-28.457-11.34-45.522s3.777-32.238,11.34-45.522c7.559-13.284,17.871-23.758,30.942-31.428,13.066-7.665,27.915-11.502,44.55-11.502,16.413,0,31.154,3.837,44.226,11.502,13.066,7.67,23.379,18.144,30.942,31.428,7.559,13.284,11.34,28.461,11.34,45.522s-3.781,32.237-11.34,45.522c-7.563,13.283-17.876,23.763-30.942,31.428-13.071,7.67-27.812,11.502-44.226,11.502ZM397.817,319.393c10.15,0,19.223-2.536,27.216-7.614,7.989-5.072,14.256-11.988,18.792-20.736s6.692-18.629,6.48-29.646c.212-11.229-1.944-21.222-6.48-29.97s-10.803-15.603-18.792-20.574c-7.993-4.966-17.065-7.452-27.216-7.452s-19.278,2.542-27.378,7.614c-8.1,5.078-14.418,11.988-18.954,20.736s-6.698,18.63-6.48,29.646c-.218,11.016,1.944,20.897,6.48,29.646s10.854,15.664,18.954,20.736c8.1,5.078,17.223,7.614,27.378,7.614Z"/>
    <path d="M510.89,346.608v-170.1h33.696v53.46l-3.24-12.96c2.374-8.206,6.424-15.658,12.149-22.356,5.721-6.692,12.312-11.988,19.765-15.876s15.172-5.832,23.166-5.832c3.67,0,7.179.324,10.529.972,3.347.648,5.994,1.407,7.938,2.268l-8.748,36.288c-2.592-1.078-5.457-1.995-8.586-2.754-3.134-.754-6.212-1.134-9.234-1.134-5.832,0-11.396,1.134-16.686,3.402-5.296,2.268-9.938,5.402-13.932,9.396-4,4-7.185,8.642-9.559,13.932-2.379,5.295-3.563,11.072-3.563,17.334v93.96h-33.696Z"/>
    <path d="M695.574,349.849c-15.552,0-29.434-3.832-41.634-11.502-12.206-7.665-21.87-18.145-28.998-31.428-7.128-13.285-10.692-28.457-10.692-45.522s3.509-32.238,10.53-45.522c7.017-13.284,16.574-23.758,28.674-31.428,12.095-7.665,25.809-11.502,41.147-11.502,8.425,0,16.575,1.352,24.463,4.05,7.882,2.703,14.954,6.374,21.222,11.016,6.263,4.647,11.178,9.72,14.742,15.228,3.563,5.508,5.346,11.072,5.346,16.686l-9.72.648v-113.724h33.372v239.76h-33.372v-40.5h6.479c0,5.184-1.731,10.317-5.184,15.391-3.458,5.077-8.05,9.775-13.771,14.094-5.726,4.323-12.312,7.775-19.764,10.367s-15.066,3.889-22.842,3.889ZM700.11,321.013c10.15,0,19.115-2.592,26.892-7.776s13.876-12.257,18.306-21.222c4.425-8.961,6.643-19.167,6.643-30.618s-2.218-21.652-6.643-30.618c-4.43-8.96-10.529-16.038-18.306-21.222-7.776-5.184-16.741-7.776-26.892-7.776s-19.116,2.592-26.893,7.776c-7.775,5.184-13.881,12.261-18.306,21.222-4.43,8.966-6.642,19.172-6.642,30.618s2.212,21.657,6.642,30.618c4.425,8.965,10.53,16.037,18.306,21.222,7.776,5.185,16.737,7.776,26.893,7.776Z"/>
  </g>
  <ellipse class="cls-1" cx="442.5" cy="235.203" rx="435" ry="227.703"/>
</svg>