<?xml version="1.0" encoding="UTF-8"?>
<svg id="Layer_1" data-name="Layer 1" xmlns="http://www.w3.org/2000/svg" viewBox="0 0 971.264 850.349">
  <path d="M299.941,388.856c26.203,0,47.438-21.234,47.438-47.438s-21.234-47.438-47.438-47.438-47.438,21.234-47.438,47.438c-.047,26.25,21.188,47.438,47.438,47.438Z"/>
  <path d="M539.611,782.216l-55.359-84.234,15.094-145.18c1.312-7.875,1.641-16.594.375-26.484-6.844-53.297-43.359-116.3-84.797-134.29-37.406-16.266-70.875-9.375-109.12,31.781,0,0-11.766,17.625-17.625,30.891-4.922,11.156-36.75,85.312-36.75,85.312l-44.859,50.016s-23.156,19.266-14.203,37.969l-142.82,123.74c-22.172-33-38.297-69.891-48-110.77-4.688,48.656-.234,93.047,34.641,141.32,36.844,48.234,90.797,66.516,115.22,68.062-36-23.344-66.047-50.859-90.141-82.312l145.74-126.37c16.125,5.953,32.625-11.953,32.625-11.953l49.781-48.094,54.609-76.922c34.406,9.797,39.234,66.938,39.234,66.938l-67.078,93.562s-6.188,9.703-7.5,25.547c-1.312,15.797-12.984,146.9-12.984,146.9,1.219,3.656,48.234,14.625,57.281-16.5l14.531-118.36s27.75-30.516,51.609-55.828c3.188,22.5,6.75,47.859,7.922,55.922,2.203,15.422,6.469,26.391,17.484,41.859,11.062,15.422,68.203,98.766,68.203,98.766.047,0,44.531-23.812,26.906-61.312l-.019.024Z"/>
  <path d="M971.264,253.126h-13.547l-13.266-97.828c-.75-5.484-5.766-9.328-11.25-8.578-5.016.656-8.672,4.969-8.672,9.891,0,.469.047.891.094,1.359,0,0,8.625,63.797,10.969,81.094-14.391.141-44.344.422-44.344.422-5.484.047-9.891,4.5-9.891,9.984v.094c0,1.266.328,2.438.75,3.516h-19.734c3-2.391.656-9.75-.047-14.484-.797-5.438-5.906-9.234-11.344-8.438l-67.359,10.031c-5.391.797-11.062,8.156-8.297,12.891h-68.812v27.703h100.31v227.76h163.82l-.094-227.72h.656l.057-27.697Z"/>
  <path d="M679.244,373.916h-164.9c-2.438-15.281-27.516-171.32-27.516-171.32-.891-5.438-6-9.188-11.438-8.297s-9.141,6-8.297,11.438l28.875,179.72c.75,4.875,4.969,8.391,9.844,8.391h81.562v99.984l-45.094-.141c-5.531,0-9.984,4.453-10.031,9.984,0,5.531,4.453,10.031,9.984,10.031l105.66.328c5.531,0,9.984-4.453,10.031-9.984,0-5.531-4.453-10.031-9.984-10.031l-40.547-.141v-100.03h71.859c5.531,0,9.984-4.453,9.984-9.984,0-5.438-4.453-9.938-9.984-9.938l-.008-.011Z"/>
  <path d="M882.764,218.956c5.203,1.828,10.922-.938,12.75-6.141l51.375-146.81c1.828-5.203-.938-10.922-6.141-12.75s-10.922.938-12.75,6.141l-51.375,146.81c-1.828,5.203.891,10.922,6.141,12.75h0Z"/>
  <path d="M623.504,84.376c23.297,0,42.188-18.891,42.188-42.188S646.801,0,623.504,0s-42.188,18.891-42.188,42.188,18.844,42.188,42.188,42.188Z"/>
  <path d="M731.964,304.306c-23.156-7.641-86.438-19.125-86.438-19.125l8.531-90.234c16.453,11.484,45.984,31.969,57.047,38.438,13.594,7.969,18.797,7.594,24.75,6.656,32.297-4.922,82.125-15.047,82.125-15.047,25.5-2.391,8.672-27.047-23.25-24.375l-62.391-4.312-57.844-57.234c-27.75-35.016-56.109-44.438-86.812-41.344l.469.75c-44.016,4.078-44.25,47.672-44.25,47.672l-.141,154.55.703,18.281c.703,18.281,10.594,36.422,46.312,40.125,19.781,2.062,120.28.234,120.28.234,0,0,18.891,123.37,22.219,136.6,5.25,20.719,58.125,17.531,58.125,17.531,0,0-20.531-133.26-25.078-170.48-3.609-29.531-34.359-38.672-34.359-38.672l.002-.014Z"/>
</svg>