<?xml version="1.0" encoding="UTF-8"?>
<svg id="Layer_1" data-name="Layer 1" xmlns="http://www.w3.org/2000/svg" viewBox="0 0 1051.81 941.441">
  <path d="M1023.921,380.877c-17.953-3.609-36.188-5.812-54.094-8.016-27.328-3.609-54.375-5.812-76.734-25.125-30.375-26.484-61.031-52.734-92.484-77.859-11.297-8.812-9.938-13.266-.281-22.078,35.906-32.016,70.969-65.156,102.42-101.86,40.875-48.047,17.672-125.06-43.641-141.94-35.062-9.656-67.359-2.203-91.922,26.484-31.453,36.984-67.922,68.766-100.22,104.39-16.031,17.672-17.391,17.391-37.266,4.969-29.531-18.234-58.547-37.547-92.203-49.125-51.891-17.391-99.141-12.984-141.37,24.562-17.391,15.188-33.703,31.219-50.25,46.922-52.734,49.406-105.47,98.297-158.21,147.42-22.641,21-38.109,46.406-45.281,76.219-14.062,57.422-27.891,114.56-41.156,172.03-9.094,40.594-6.609,78.422,27.328,108.23,6.094,5.25.562,7.734-2.203,10.781-11.297,10.781-22.359,21.797-29.25,35.906-31.219,62.953-62.391,125.63-93.328,188.58-2.766,5.812-4.688,11.859-3.328,18.516,4.406,19.594,23.766,27.609,43.078,16.547,27.609-16.031,56.344-29.531,84.75-43.641,48.047-23.203,100.5-40.031,134.72-85.031,4.125-5.531,7.453-4.969,10.781,1.641,4.125,8.812,9.094,17.672,14.625,25.969,32.859,49.125,91.125,64.312,137.21,35.625,9.656-6.094,18.234-19.875,26.766-19.594,8.812.562,17.953,12.984,27.891,18.234,71.766,38.906,148.55-5.812,147.98-77.859,15.75,7.453,29.812,14.625,45,19.312,43.641,12.984,88.641,11.859,133.36,11.062,8.578,0,17.391,0,25.969-1.641,25.688-4.688,47.766-17.109,69.562-30.094,17.672-10.781,35.906-16.828,56.859-15.469,16.828,1.125,33.938,0,50.812-2.203,29.812-4.125,41.953-16.547,41.953-45.844l.047-311.53c0-19.312-8.25-30.328-27.891-34.5l.002.01ZM777.921,90.157c8.016-8.016,14.625-17.672,22.078-26.25,12.422-14.062,30.938-19.312,46.641-13.828,16.266,6.094,28.734,24.281,28.734,43.641,1.359,7.734-2.203,14.906-8.297,21-10.781,11.344-21.797,22.078-32.578,33.422-3.609,3.609-6.609,5.531-11.062.844-14.625-15.188-31.219-28.453-45-44.438-4.359-5.297-6.047-8.578-.516-14.391h0ZM726.593,142.048c8.297-8.297,11.859-8.016,19.312.281,12.141,13.828,25.688,26.484,39.469,38.391,7.734,6.609,6.328,9.938,0,16.547-55.219,59.344-117.05,112.36-172.26,172.03-45.844,49.406-93.328,97.172-137.48,148.26-2.766,3.328-5.25,6.891-10.781,6.891-37.547-.281-74.812-.281-115.97-.281,4.688-4.969,6.609-7.453,8.812-9.656,123.14-124.26,246.28-248.21,368.9-372.47l-.003.008ZM332.563,468.108c-2.484-11.297,2.203-31.734,11.859-39.75,34.219-29.531,70.406-56.344,106.31-83.672,2.484-1.641,4.688-3.047,6.609-1.922-41.672,41.719-83.344,83.672-124.78,125.34l.002.004ZM148.433,560.639c12.422-52.172,25.688-103.83,37.828-156,4.688-19.875,13.266-37.266,27.047-51.375,70.688-71.25,144.94-138.89,219.79-205.97,17.953-16.031,27.891-18.234,52.172-17.391,25.969-.562,51.094,10.219,75.375,22.922,16.828,8.812,32.578,19.594,49.125,29.25,5.812,3.328,5.531,5.812,1.359,10.219-36.188,35.906-72.047,71.766-108.23,107.95-3.844,4.125-6.891,4.969-12.703,1.125-27.891-18.797-35.344-18.234-63.234,2.484-33.422,25.125-66.281,50.25-99.656,75.375-29.25,21.797-39.469,53.297-44.438,87.516-2.484,17.953-5.531,35.906-8.297,53.859-1.125,7.172-4.969,12.984-9.656,17.953-29.531,30.656-59.344,61.312-90.281,90.562-5.531,5.25-8.016,4.969-14.062-.281-23.203-19.922-17.953-43.922-12.141-68.203l.002.005ZM155.604,827.079c-3.047,1.641-6.328,3.844-9.375,5.25-22.641,10.781-45.281,21.281-67.641,32.016-3.328-2.766-1.922-4.969-.562-7.453,10.781-21.516,21.516-43.078,31.734-64.594,3.328-7.172,6.094-8.812,12.422-2.766,12.141,11.344,25.125,21.516,37.547,32.297-1.359,1.641-2.766,3.562-4.125,5.25h0ZM232.104,771.626c-2.812,3.094-5.531,6.281-8.016,9.656-3.75,5.062-7.5,10.406-12.891,13.547-20.016,11.766-55.359-41.203-67.594-54.047-1.688-1.781-3.516-3.844-3.375-6.328.094-2.25,1.781-4.078,3.328-5.672,15.75-16.078,31.547-32.109,47.297-48.188,14.344-14.625,26.391-37.453,36.891-10.734,10.312,26.25,29.203,39.609,48.281,58.219-12.609,15.844-29.812,28.172-43.922,43.547h0ZM391.944,835.095c-18.797,5.25-37.547,3.844-52.172-10.781-20.156-20.438-34.219-43.922-30.094-74.25.562-4.125.562-9.094,7.734-7.453,24.281,5.531,49.125,3.609,73.734,3.844,28.875.328,19.406,19.922,23.203,43.453,1.312,8.109,3.141,16.359,1.641,24.422-2.297,12.094-13.125,17.812-24.047,20.766h0ZM575.834,812.689c-10.781,17.672-33.984,27.328-54.375,22.922-33.938-7.453-62.391-41.156-62.391-75.375-2.203-10.219,3.609-14.625,14.344-14.625,27.609-.281,54.938-.562,82.547-.844,5.812,0,10.5,3.047,14.062,7.172,12.141,14.109,14.906,45.562,5.812,60.75h0ZM992.174,726.58c-18.516,0-36.703.844-54.938,1.641-23.484.844-44.719,9.094-63.516,22.641-25.125,17.953-52.172,26.25-83.391,24.562-27.328-1.359-54.938-.844-82.266-5.25-35.344-5.531-64.875-22.922-91.406-46.125-19.875-17.109-41.953-26.25-68.484-26.25-69.281.281-138.61.281-207.89,0-35.625,0-65.156-22.922-74.812-56.859-7.172-25.125,6.094-54.938,29.531-65.719,3.844-1.641,8.812-1.125,13.547-1.359h349.82c8.812,0,17.391-.562,24.844-5.531,10.219-6.891,12.422-17.391,9.656-27.891s-10.219-16.312-22.359-16.312c-39.469.281-78.984,0-118.45,0l-17.109.047c71.531-78.703,140.81-153.79,214.82-224.48,6.094-6.094,9.375-4.969,15.469,0,33.141,28.453,67.078,55.781,99.938,84.469,26.25,22.922,57.703,31.453,91.125,35.625,13.266,1.359,26.25,3.844,39.469,5.25,5.812.562,6.891,3.609,7.172,8.016.281,5.25.281,10.781.562,16.312,0,88.359.281,176.44.844,264.52-.047,9.656-2.812,12.703-12.188,12.703l.012-.009Z"/>
</svg>