<?xml version="1.0" encoding="UTF-8"?>
<svg width="1200pt" height="1200pt" version="1.1" viewBox="0 0 1200 1200" xmlns="http://www.w3.org/2000/svg">
 <path d="m1035.7 456.98h-138.37c-13.078 0-23.719 10.641-23.719 23.719v45.047c-96.516-3.2812-140.06-26.859-177.61-51.703l85.875-85.875c4.4531-4.4531 6.9375-10.5 6.9375-16.781s-2.4844-12.328-6.9375-16.781l-72-72c-8.9062-8.9062-24.656-8.9062-33.562 0l-128.48 128.48c-15.375-1.8281-31.641-2.7656-49.5-2.7656-93.703 0-165.84 74.953-257.21 169.82-19.125 19.828-38.859 40.359-60.141 61.641l-0.09375 0.09375c-0.51562 0.51562-0.9375 1.125-1.4062 1.6875-0.51562 0.65625-1.125 1.2188-1.5938 1.9219 0 0 0 0.046875-0.046875 0.046875-0.046875 0.046875-0.09375 0.14062-0.14062 0.1875-19.172 29.016-15.281 67.875 9.3281 92.531 6.1875 6.1875 13.359 11.016 20.953 14.531l-26.766 26.766c-2.6719 2.6719-4.6875 5.9531-5.8125 9.5625l-33.844 105.84c-2.7188 8.4375-0.46875 17.719 5.8125 24 4.5 4.5 10.594 6.9375 16.781 6.9375 2.3906 0 4.8281-0.375 7.2188-1.125l105.84-33.844c3.6094-1.1719 6.8906-3.1406 9.5625-5.8125l88.406-88.406c4.2188 1.2656 8.625 2.1562 13.172 2.7656h0.046875c0.70312 0.09375 1.3594 0.23438 2.0625 0.32812 0.9375 0.09375 1.8281 0.14062 2.7656 0.14062h0.046875c130.03 0 173.95 17.109 212.72 32.25 28.688 11.203 55.828 21.75 107.95 21.75 37.453 0 62.672-8.2969 87.094-16.312 21.422-7.0312 41.906-13.781 72.516-16.078v32.719c0 13.078 10.641 23.719 23.719 23.719h138.37c13.078 0 23.719-10.641 23.719-23.719v-371.63c0-13.078-10.641-23.719-23.719-23.719zm-342.61-123.98 38.438 38.438-89.484 89.484-181.87 181.82h-66.938c-0.89062 0-1.8281 0.046875-2.7188 0.14062-3 0.32812-5.9531 0.89062-8.8594 1.5l311.48-311.48zm-472.4 369.84c-8.3906-8.3906-9.8906-21.375-4.0312-31.5 20.766-20.812 40.031-40.828 58.688-60.188 86.766-90.141 149.48-155.29 223.03-155.29 1.6406 0 3.1406 0.046875 4.7344 0.09375l-250.97 250.97c-10.125 5.8594-23.109 4.3125-31.453-4.0312zm36.703 142.78-56.484 18.047 18.047-56.484 98.953-98.953c-0.70312 4.0312-1.125 8.1094-1.125 12.281 0 17.953 6.6562 34.594 17.812 47.906l-77.25 77.25zm528.89-54.984c-22.781 7.5-42.422 13.969-72.281 13.969-43.219 0-64.219-8.1562-90.75-18.516-40.359-15.75-90.562-35.25-228.05-35.438-17.672-2.3438-30.891-15.188-30.891-30.188 0-14.859 13.031-27.656 30.469-30.188h236.72c13.078 0 23.719-10.641 23.719-23.719 0-13.078-10.641-23.719-23.719-23.719h-104.16l134.53-134.53c43.453 29.297 93.984 61.172 211.78 64.969v198.84c-38.484 2.5312-64.219 10.969-87.328 18.562zm225.71 38.016h-90.938v-324.19h90.938z"/>
</svg>
