<?xml version="1.0" encoding="UTF-8"?>
<svg id="Layer_1" data-name="Layer 1" xmlns="http://www.w3.org/2000/svg" viewBox="0 0 990.701 956.258">
  <path d="M646.48,792.51c.211,2.602.398,5.215.398,7.871v136.25c0,7.199-2.113,13.863-5.574,19.625h71.199v-66.055c0-13.445-4.824-26.461-13.586-36.66l-52.437-61.031Z"/>
  <path d="M710,738.77c-3.027-2.461-4.211-6.547-2.981-10.246l4.516-13.543-41.312-13.508c-11.184-3.656-20.199-12.043-24.652-22.934-7.371-18.023-26.625-28.148-45.652-24l-12.586,2.742c5.059,16.945,8.879,36.488,10.555,58.789,7.949,4.57,15.195,10.203,21.535,16.746v-.562l93.715,109.07c11.688,13.602,18.113,30.941,18.113,48.879v66.055h149.48c10.355,0,18.75-8.395,18.75-18.75v-57.918c-13.949-2.93-27.27-9.012-38.641-18.254l-150.84-122.566Z"/>
  <path d="M473.26,324.26c-2.223,4.93-3.523,10.359-3.523,16.121,0,21.746,17.629,39.375,39.375,39.375,8.055,0,15.531-2.441,21.77-6.59,30.793,40.895,79.605,67.461,134.74,67.461,54.781,0,103.32-26.219,134.14-66.66,5.941,3.602,12.84,5.789,20.297,5.789,21.746,0,39.375-17.629,39.375-39.375,0-7.73-2.309-14.887-6.156-20.973,11.324-6.914,18.953-19.277,18.953-33.516,0-21.746-17.629-39.375-39.375-39.375-.199,0-.387.055-.586.059-2.57-17.059-7.664-33.246-14.941-48.23,41.336-3.379,75.828-35.598,80.527-78.359,5.332-48.496-29.66-92.133-78.16-97.461-48.496-5.332-92.133,29.664-97.461,78.16-.453,4.129-.512,8.199-.398,12.238-17.609-6.23-36.477-9.797-56.219-9.797-85.859,0-156.59,64.176-167.21,147.14-5.043-2.348-10.609-3.754-16.539-3.754-21.746,0-39.375,17.629-39.375,39.375,0,18.781,13.172,34.434,30.766,38.367v.005ZM665.62,421.877c-50.262,0-94.723-24.934-121.95-62.992-11.926-16.668-20.625-35.793-24.926-56.551-.133-.648-.203-1.316-.328-1.969-1.785-9.234-2.793-18.742-2.793-28.488,0-1.816.207-3.582.273-5.387h.039c8.305-.387,16.367-1.453,24.125-3.234-.727,3.707-1.129,7.531-1.129,11.449,0,32.617,26.441,59.062,59.062,59.062,30.438,0,55.48-23.031,58.695-52.617h19.98c4.5,28.152,28.828,49.691,58.25,49.691,32.621,0,59.062-26.441,59.062-59.062,0-7.832-1.559-15.289-4.324-22.129,7.656,1.215,15.664,1.934,24.047,2.043.137,0,.27.012.406.012.887,6.617,1.512,13.316,1.512,20.172,0,10.23-1.043,20.219-3.004,29.879-1.039,5.117-2.34,10.133-3.887,15.047-5,15.891-12.691,30.555-22.355,43.684-27.328,37.145-71.211,61.391-120.75,61.391h-.006ZM775.23,271.777c0,22.227-18.082,40.312-40.312,40.312s-40.312-18.082-40.312-40.312,18.082-40.312,40.312-40.312c.848,0,1.641.199,2.473.25,10.008.621,19.07,4.758,25.793,11.383,7.422,7.316,12.047,17.461,12.047,28.68h0ZM666.26,162.687c9.07,14.477,24.855,35.676,48.09,53.777-19.633,7.305-34.289,24.711-37.684,45.93h-20.914c-4.211-19.867-18.426-35.988-37.109-42.973,19.844-18.219,35.785-38.883,47.617-56.734ZM562.44,256.113c6.746-12.848,20.07-21.727,35.559-21.727.758,0,1.465.184,2.211.223,21.184,1.176,38.102,18.617,38.102,40.09,0,22.227-18.082,40.312-40.312,40.312s-40.312-18.082-40.312-40.312c0-6.738,1.816-13,4.754-18.586h-.002Z"/>
  <path d="M598.86,739.28c-5.742-4.633-12.137-8.488-19.043-11.367-.285-7.082-.754-13.934-1.469-20.449-7.617-69.242-37.738-106.94-50.957-120.41-3.688-3.758-8.711-5.805-13.973-5.805H213.018c-15.656,0-24.848,17.238-16.465,30.461,12.555,19.809,25.961,50.078,31.164,92.176.27,2.18.496,4.418.719,6.66.383,3.863.742,7.742.98,11.797-4.117.441-8.105,1.266-12.008,2.316-2.242.605-4.434,1.309-6.59,2.102-29.527,10.863-50.656,38.914-51.32,72.051l-.02.027h.02c-.012.523-.121,1.016-.121,1.539v136.24c0,1.355.137,2.68.398,3.957.383,1.863,1.102,3.578,1.969,5.207.918,1.727,2.008,3.344,3.379,4.715s2.988,2.461,4.715,3.379c1.629.867,3.348,1.59,5.207,1.969,1.281.266,2.602.402,3.957.402h429.5c1.356,0,2.676-.137,3.953-.398,2.301-.473,4.426-1.395,6.356-2.594.211-.133.453-.219.66-.359,1.043-.707,2.016-1.508,2.906-2.395,2.664-2.664,4.566-6.09,5.348-9.922.266-1.281.402-2.605.402-3.957v-136.25c0-12.988-3.207-25.211-8.793-36-5.035-9.731-12.016-18.273-20.473-25.098l-.002.005ZM212.29,600.39c.207-.375.363-.391.73-.391h300.4c.152,0,.43.023.586.184,11.953,12.18,37.137,44.316,44.965,103.42.773,5.856,1.441,11.883,1.844,18.277h-103.87l-85.051-.004h-123.61c-.367-6.5-.973-12.707-1.691-18.75-.547-4.602-1.262-8.949-1.98-13.289-6.656-40.043-20.215-69.207-32.227-88.16-.164-.254-.434-.68-.102-1.285l.006-.002Z"/>
  <path d="M393.75,300c0-5.184-4.199-9.375-9.375-9.375h-18.75v-93.75h-93.75v93.75h-28.125V84.375h-93.75v206.25h-28.125V75.005c0-10.355-8.395-18.75-18.75-18.75h-56.25c-10.355,0-18.75,8.395-18.75,18.75v215.62H9.375c-5.176,0-9.375,4.191-9.375,9.375s4.199,9.375,9.375,9.375h375c5.176,0,9.375-4.191,9.375-9.375ZM46.87,121.88c0-10.355,8.395-18.75,18.75-18.75h18.75c10.355,0,18.75,8.395,18.75,18.75v75c0,10.355-8.395,18.75-18.75,18.75h-18.75c-10.355,0-18.75-8.395-18.75-18.75v-75Z"/>
  <path d="M271.88,150h93.75v28.125h-93.75v-28.125Z"/>
  <path d="M365.62,103.13c0-10.355-8.395-18.75-18.75-18.75h-56.25c-10.355,0-18.75,8.395-18.75,18.75v28.125h93.75v-28.125Z"/>
  <path d="M243.75,18.75c0-10.355-8.395-18.75-18.75-18.75h-56.25c-10.355,0-18.75,8.395-18.75,18.75v46.875h93.75V18.75Z"/>
  <path d="M65.62,121.87h18.75v75h-18.75v-75Z"/>
  <path d="M988.3,772.16l-58.684-222.38c-13.652-51.715-60.117-87.969-113.43-88.918l.02.09c-1.195-.047-2.367-.18-3.574-.18h-58.117c-11.023,0-21.492,4.852-28.617,13.266l-35.023,41.359c-15.516,18.32-44.012,17.547-58.508-1.59l-28.922-38.176c-7.09-9.359-18.152-14.855-29.891-14.855h-38.621c-52.035,0-101.73,21.625-137.2,59.699l-39.156,42.031h154.88c10.41,0,20.125,4.055,27.352,11.418,4.309,4.391,10.027,10.871,16.195,19.57l15.992-11.441c12.73-9.109,27.992-14.008,43.645-14.008h50.539c13.914,0,27.336,5.156,37.668,14.473l43.957,39.637c1.402-.082,2.812.086,4.133.641l109.94,46.043,6.137,2.57c4.773,2.004,7.027,7.5,5.027,12.277-2.004,4.769-7.5,7.012-12.27,5.027l-106.76-44.715-28.117,84.312,145.8,118.47c7.973,6.477,17.152,11.055,26.816,13.641,16.125,4.312,33.613,3.082,49.172-4.117,31.922-14.762,48.574-50.137,39.605-84.141l.013-.003ZM617.47,553.97h-16.117c-14.059,0-25.492-11.434-25.492-25.496v-2.078c0-3.719-3.027-6.746-6.746-6.746-10.922,0-20.184-6.938-23.805-16.605-1.039-2.777-1.688-5.746-1.688-8.883v-14.391c0-5.184,4.199-9.375,9.375-9.375,3.91,0,7.25,2.398,8.652,5.805.453,1.102.723,2.305.723,3.57v14.391c0,3.719,3.027,6.738,6.742,6.738,1.906,0,3.75.246,5.539.645,9.66,2.156,17.266,9.781,19.359,19.465.375,1.738.598,3.535.598,5.387v2.078c0,3.719,3.027,6.746,6.742,6.746h16.121c5.176,0,9.375,4.191,9.375,9.375-.004,5.18-4.199,9.375-9.379,9.375h0ZM776.59,494.158c0,14.055-11.441,25.488-25.496,25.488-3.719,0-6.742,3.031-6.742,6.746v2.078c0,14.062-11.434,25.496-25.492,25.496h-16.121c-5.176,0-9.375-4.191-9.375-9.375s4.199-9.375,9.375-9.375h16.121c3.719,0,6.742-3.031,6.742-6.746v-2.078c0-1.852.223-3.648.598-5.391,2.094-9.684,9.695-17.309,19.359-19.465,1.789-.398,3.629-.645,5.535-.645,3.723,0,6.746-3.019,6.746-6.738v-14.395c0-5.184,4.199-9.375,9.375-9.375s9.375,4.191,9.375,9.375v14.4Z"/>
</svg>