<?xml version="1.0" encoding="UTF-8"?>
<svg id="Layer_1" data-name="Layer 1" xmlns="http://www.w3.org/2000/svg" viewBox="0 0 666.627 1134.677">
  <path d="M661.248,290.199C622.49,12.319,286.089-98.421,90.818,102.969-95.362,313.119,19.31,620.429,301.938,648.329c.078,20.699.152,41.395.223,62.09h-.004c-8.836.547-17.539,2.422-25.816,5.559-29.172,10.973-56.082,27.207-79.391,47.902-83.703,96.039-94.773,230.72-133.38,347.69-2.691,7.516-7.77,19.141,3.016,22.395,16.477,10.164,33.477-91.672,39.551-105.55,23.406-84.5,41.859-173.98,97.176-243.9,25.719-26.328,62.961-49.688,98.93-55.34,1.656,67.883,3.492,37.059-44.043,79.18-18.414,10.625-8.269,28.945,5.809,19.703,5.363-4.945,15.641-13.152,18.344-15.23,43.711-31.641,90.938-60.625,145.02-66.363,14.898-2.859,31.922,11.688,31.887,22.914.75,16.008-10.328,29.773-20.816,40.762v-.008c-4.699,4.816-9.824,9.195-15.312,13.086-6.859,3.922-5.598,15.25,2.238,17.137,25.52,3.918,45.488,36.348,28.68,58.809-3.848,9.027-29.125,21.668-24.535,33.742,2.484,6.769,10.41,4.973,15.684,7.762,23.215,12.227,21.988,43.75,1.875,58.527-23.418,22.723-52.191,38.734-77.969,58.398-13.82,13.25-23.391,30.32-32.32,47.07-3.418,6.512-9.523,16.172-.863,21.277,4.207,2.223,10.539,1.348,12.828-3.363,9.988-19.105,19.602-40.125,36.598-54.035,31.18-22.641,67.75-41.797,89.887-74.238,13.402-23.332,3.797-56.164-19.477-69.297,34.32-26.531,28.684-76.828-9.141-96.762,12.555-11.594,23.773-25.445,29.125-41.887,8.394-23.082-6.191-48.422-28.715-56.25-23.875-6.707-49.094,1.719-71.789,9.356.094-25.598-.434-86.039-.434-90.664h-.008c25.207-2.129,50.141-6.754,74.43-13.816,159.05-44.266,239.74-184.14,212.02-344.78l.002-.005ZM356.238,682.879c.141,21.398.406,42.797.145,64.195-10.094,4.457-19.973,9.406-29.602,14.641-1.863,1.016-3.703,2.066-5.555,3.109-.148-11.863-.164-23.73-.23-35.59-.145-26.484-.246-52.969-.305-79.453,40.16,2.914,35.75-10.969,35.547,33.098h0ZM630.308,455.439c-83.984,215.28-415.57,230.92-550.82,57.277C-34.482,371.626,21.508,139.056,181.038,57.246c271.25-139.04,537.54,117.72,449.28,398.2l-.01-.007ZM501.848,174.799c-13.469-13.145-26.867-26.363-40.188-39.656-3.477-3.469-9.832-3.734-13.258,0-31.523,29.5-64.477,57.434-95.789,87.164-6.695,6.359-13.305,12.805-19.824,19.336-14.656-15.898-30.125-31.09-45.5-46.273-20.531-20.27-41.25-40.344-62.16-60.227-7.219-6.934-15.266,1.125-20.836,6.172-24.43,21.398-48.844,43.117-70.215,67.633-3.277,3.918-3.801,9.375,0,13.258,14.164,14.465,87.859,82.195,108.55,103.62-36.086,35.387-75.047,67.984-107.82,106.62-3.25,3.789-3.875,9.527,0,13.258,8.965,8.625,17.391,17.801,26.102,26.68,10.602,9,52.684,58.102,65,44.922,28.898-32.07,101.07-100.52,105.92-104.92,33.914,33.199,64.59,69.66,100.2,101.13,4.098,3.648,9.102,3.332,13.258,0,21.375-17.641,40.125-38.355,57.832-59.605,4.32-6.25,14.266-13.734,9.484-22.027-9.625-12.52-73.23-79.488-93.453-102.15l90.828-82.461c49.531-42.766,32.027-28.246-8.121-72.48l-.01.006ZM399.348,322.419c-3.922,3.559-3.215,9.602,0,13.258,29.82,34.023,62.23,65.645,92.047,99.664,2.293,5.68-9.25,12.398-12.289,18.008-12.555,14.512-25.988,28.242-40.223,41.113-26.609-24.488-50.699-51.441-75.863-77.391-9.406-6.707-25.441-34.875-37.586-24.152-37.312,33.699-73.645,68.574-107.73,105.55-7.688-5.055-16.102-12.875-25.277-21.324-13.152-12.406-25.535-25.582-38.156-38.52,25.477-28.602,53.941-54.145,81.801-80.398,6.848-9.25,37.66-27.078,26.297-38.785-34.309-36.77-73.156-68.922-108.86-104.29,20.152-21.664,42.125-41.566,64.469-60.918,27.516,26.34,99.43,98.176,107.91,107.67,3.344,3.75,9.875,3.473,13.258,0,30.32-31.133,63.125-59.641,95.41-88.691,19.762-14.477,14.734-26.656,33.059-5.75,16.375,16.145,32.766,32.277,49.535,48.016l-117.802,106.94Z"/>
</svg>