<?xml version="1.0" encoding="UTF-8"?>
<svg width="1200pt" height="1200pt" version="1.1" viewBox="0 0 1200 1200" xmlns="http://www.w3.org/2000/svg">
 <path d="m969.6 145.2h-60v-36c0-44.398-36-79.199-79.199-79.199-44.398 0-79.199 36-79.199 79.199v36h-301.2v-36c0-44.398-36-79.199-79.199-79.199-44.398 0-79.199 36-79.199 79.199v36h-60c-62.398 0-112.8 50.398-112.8 112.8v799.2c0 62.398 50.398 112.8 112.8 112.8h738c62.398 0 112.8-50.398 112.8-112.8l-0.003906-799.2c0-62.398-50.398-112.8-112.8-112.8zm-804 812.4c18 13.199 40.801 21.602 66 21.602h738c24 0 46.801-8.3984 64.801-20.398v3.6016c0 36-28.801 64.801-64.801 64.801l-738-0.007812c-36 0-66-28.801-66-64.801zm868.8-92.402c0 36-28.801 64.801-64.801 64.801h-738c-36 0-66-28.801-66-64.801v-500.4h868.8zm-236.4-756c0-18 14.398-31.199 31.199-31.199s31.199 14.398 31.199 31.199v74.398c0 18-14.398 31.199-31.199 31.199s-31.199-14.398-31.199-31.199zm-458.4 0c0-18 14.398-31.199 31.199-31.199s31.199 14.398 31.199 31.199v74.398c0 18-14.398 31.199-31.199 31.199s-31.199-14.398-31.199-31.199zm-108 84h61.199c4.8008 39.602 38.398 70.801 79.199 70.801s74.398-31.199 79.199-70.801h301.2c4.8008 39.602 38.398 70.801 79.199 70.801 40.801 0 74.398-31.199 79.199-70.801h61.199c36 0 64.801 28.801 64.801 64.801v58.801h-871.2v-58.801c0-36 28.797-64.801 66-64.801zm738 928.8h-738c-36 0-66-28.801-66-64.801v-3.6016c18 13.199 40.801 21.602 66 21.602h738c24 0 46.801-8.3984 64.801-20.398v3.6016c-0.003906 34.797-28.801 63.598-64.801 63.598z"/>
 <path d="m301.2 686.4h3.6016c20.398 0 37.199-16.801 37.199-37.199v-3.6016c0-20.398-16.801-37.199-37.199-37.199h-3.6016c-20.398 0-37.199 16.801-37.199 37.199v3.6016c0 21.602 16.801 37.199 37.199 37.199z"/>
 <path d="m450 686.4h3.6016c20.398 0 37.199-16.801 37.199-37.199v-3.6016c0-20.398-16.801-37.199-37.199-37.199h-3.6016c-20.398 0-37.199 16.801-37.199 37.199v3.6016c0 21.602 16.801 37.199 37.199 37.199z"/>
 <path d="m598.8 686.4h3.6016c20.398 0 37.199-16.801 37.199-37.199v-3.6016c0-20.398-16.801-37.199-37.199-37.199h-3.6016c-20.398 0-37.199 16.801-37.199 37.199v3.6016c0 21.602 16.797 37.199 37.199 37.199z"/>
 <path d="m301.2 537.6h3.6016c20.398 0 37.199-16.801 37.199-37.199v-3.6016c0-20.398-16.801-37.199-37.199-37.199h-3.6016c-20.398 0-37.199 16.801-37.199 37.199v3.6016c0 20.398 16.801 37.199 37.199 37.199z"/>
 <path d="m450 537.6h3.6016c20.398 0 37.199-16.801 37.199-37.199v-3.6016c0-20.398-16.801-37.199-37.199-37.199h-3.6016c-20.398 0-37.199 16.801-37.199 37.199v3.6016c0 20.398 16.801 37.199 37.199 37.199z"/>
 <path d="m598.8 537.6h3.6016c20.398 0 37.199-16.801 37.199-37.199v-3.6016c0-20.398-16.801-37.199-37.199-37.199h-3.6016c-20.398 0-37.199 16.801-37.199 37.199v3.6016c0 20.398 16.797 37.199 37.199 37.199z"/>
 <path d="m747.6 686.4h3.6016c20.398 0 37.199-16.801 37.199-37.199v-3.6016c0-20.398-16.801-37.199-37.199-37.199h-3.6016c-20.398 0-37.199 16.801-37.199 37.199v3.6016c-0.003906 21.602 16.797 37.199 37.199 37.199z"/>
 <path d="m896.4 686.4h3.6016c20.398 0 37.199-16.801 37.199-37.199v-3.6016c0-20.398-16.801-37.199-37.199-37.199h-3.6016c-20.398 0-37.199 16.801-37.199 37.199v3.6016c0 21.602 16.801 37.199 37.199 37.199z"/>
 <path d="m747.6 537.6h3.6016c20.398 0 37.199-16.801 37.199-37.199v-3.6016c0-20.398-16.801-37.199-37.199-37.199h-3.6016c-20.398 0-37.199 16.801-37.199 37.199v3.6016c-0.003906 20.398 16.797 37.199 37.199 37.199z"/>
 <path d="m896.4 537.6h3.6016c20.398 0 37.199-16.801 37.199-37.199v-3.6016c0-20.398-16.801-37.199-37.199-37.199h-3.6016c-20.398 0-37.199 16.801-37.199 37.199v3.6016c0 20.398 16.801 37.199 37.199 37.199z"/>
 <path d="m301.2 836.4h3.6016c20.398 0 37.199-16.801 37.199-37.199v-3.6016c0-20.398-16.801-37.199-37.199-37.199h-3.6016c-20.398 0-37.199 16.801-37.199 37.199v3.6016c0 20.402 16.801 37.199 37.199 37.199z"/>
 <path d="m450 836.4h3.6016c20.398 0 37.199-16.801 37.199-37.199v-3.6016c0-20.398-16.801-37.199-37.199-37.199h-3.6016c-20.398 0-37.199 16.801-37.199 37.199v3.6016c0 20.402 16.801 37.199 37.199 37.199z"/>
 <path d="m598.8 836.4h3.6016c20.398 0 37.199-16.801 37.199-37.199v-3.6016c0-20.398-16.801-37.199-37.199-37.199h-3.6016c-20.398 0-37.199 16.801-37.199 37.199v3.6016c0 20.402 16.797 37.199 37.199 37.199z"/>
 <path d="m747.6 836.4h3.6016c20.398 0 37.199-16.801 37.199-37.199v-3.6016c0-20.398-16.801-37.199-37.199-37.199h-3.6016c-20.398 0-37.199 16.801-37.199 37.199v3.6016c-0.003906 20.402 16.797 37.199 37.199 37.199z"/>
 <path d="m896.4 836.4h3.6016c20.398 0 37.199-16.801 37.199-37.199v-3.6016c0-20.398-16.801-37.199-37.199-37.199h-3.6016c-20.398 0-37.199 16.801-37.199 37.199v3.6016c0 20.402 16.801 37.199 37.199 37.199z"/>
</svg>
