<?xml version="1.0" encoding="UTF-8"?>
<svg id="Layer_1" data-name="Layer 1" xmlns="http://www.w3.org/2000/svg" viewBox="0 0 1138.174 1070.084">
  <defs>
    <style>
      .cls-1 {
        fill: #0db200;
        fill-rule: evenodd;
      }
    </style>
  </defs>
  <path d="M1073.45,0h-490c-35.688,0-64.73,29.051-64.73,64.738v326c0,35.688,29.039,64.719,64.73,64.719h28.906v122.2c0,6.996,4.004,13.352,10.297,16.391,2.512,1.207,5.203,1.793,7.883,1.793,4.051,0,8.062-1.348,11.355-3.977l170.66-136.4h260.9c35.688,0,64.719-29.031,64.719-64.719l.004-326C1138.174,29.057,1109.147.011,1073.455.011l-.005-.011ZM1101.805,390.73c0,15.645-12.723,28.355-28.355,28.355h-267.28c-4.129,0-8.133,1.402-11.355,3.977l-146.1,116.78v-102.57c0-10.051-8.141-18.184-18.184-18.184h-47.086c-15.645,0-28.367-12.711-28.367-28.355l.004-326c0-15.641,12.723-28.371,28.363-28.371h490c15.637,0,28.355,12.73,28.355,28.371l.005,325.997Z"/>
  <path d="M513.09,681H142.18C63.782,681,0,744.777,0,823.17v228.73c0,10.051,8.141,18.184,18.184,18.184h619.1c10.039,0,18.184-8.133,18.184-18.184l-.008-228.73c0-78.391-63.867-142.17-142.36-142.17h-.01ZM619.09,1033.71h-140.46v-154.92c0-5.027-4.066-9.09-9.09-9.09s-9.09,4.066-9.09,9.09v154.92H194.76v-154.92c0-5.027-4.066-9.09-9.09-9.09s-9.09,4.066-9.09,9.09l-.004,154.92H36.357v-210.55c0-58.344,47.469-105.8,105.82-105.8h370.91c58.449,0,106,47.461,106,105.8l.003,210.55Z"/>
  <path d="M327.81,288.636c-105.37,0-191.1,85.637-191.1,190.91s85.723,190.91,191.1,190.91,190.91-85.637,190.91-190.91-85.645-190.91-190.91-190.91h0ZM327.81,634.086c-85.316,0-154.73-69.336-154.73-154.55s69.418-154.55,154.73-154.55,154.55,69.336,154.55,154.55-69.328,154.55-154.55,154.55Z"/>
  <path class="cls-1" d="M789.944,301.431l-118.545-120.603c-6.509-6.627-15.384-10.397-24.668-10.5-9.284-.103-18.232,3.478-24.887,9.951-6.707,6.524-10.529,15.457-10.632,24.807-.095,9.358,3.537,18.364,10.097,25.028l143.741,146.069v.007c6.604,6.714,15.633,10.493,25.048,10.493s18.452-3.778,25.056-10.493l247.729-251.646h.007c6.473-6.656,10.053-15.603,9.958-24.887-.103-9.292-3.873-18.159-10.493-24.675-6.627-6.553-15.596-10.207-24.917-10.156l.04-.002-.007-.007c-9.35.007-18.32,3.734-24.917,10.368"/>
</svg>