<?xml version="1.0" encoding="UTF-8"?><svg id="Layer_1" xmlns="http://www.w3.org/2000/svg" viewBox="0 0 1102.67 977.335"><defs><style>.cls-1{fill:#93ffbe;}.cls-2{fill:none;stroke:#ff1f1f;stroke-miterlimit:10;stroke-width:20px;}</style></defs><path d="M269.356,169.329c-28,0-50.668-17.881-50.668-39.967l.004-89.395c0-22.087,22.668-39.967,50.668-39.967s50.668,17.881,50.668,39.967v89.395c-.004,22.09-22.672,39.967-50.672,39.967h0Z"/><path d="M829.356,169.329c-28,0-50.668-17.881-50.668-39.967l.004-89.395c0-22.087,22.668-39.967,50.668-39.967s50.668,17.881,50.668,39.967v89.395c1.328,22.09-22.672,39.967-50.672,39.967h0Z"/><path d="M1009.326,87.999c36,0,65.332,29.332,65.332,65.332v732c0,36-29.332,65.332-65.332,65.332l-918.66.004c-36,0-65.332-29.332-65.332-65.332l-.004-732c0-36,29.332-65.332,65.332-65.332h78.668v34.668c0,54.668,44,98.668,98.668,98.668s98.668-44,98.668-98.668v-34.668h364v34.668c0,54.668,44,98.668,98.668,98.668s98.668-44,98.668-98.668v-34.668h81.328M1009.33,61.335h-105.33v61.332c0,40-32,72-72,72s-72-32-72-72v-61.332h-418.67v61.332c0,40-32,72-72,72s-72-32-72-72v-61.332h-105.33C41.332,61.335,0,102.667,0,153.335v732c0,50.668,41.332,92,92,92h918.67c50.668,0,92-41.332,92-92V153.335c0-50.664-42.668-92-93.336-92h-.004,0Z"/><rect class="cls-1" x="498.175" y="754.999" width="103.638" height="103.638"/><path d="M158.02,868.82h-76c-13.332,0-24-10.668-24-24v-76c0-13.332,10.668-24,24-24h76c13.332,0,24,10.668,24,24v76c0,13.332-10.668,24-24,24ZM82.02,758.15c-5.332,0-10.668,4-10.668,10.668v76c0,5.332,5.332,10.668,10.668,10.668h76c5.332,0,10.668-4,10.668-10.668v-76c0-5.332-4-10.668-10.668-10.668,0,0-76,0-76,0Z"/><path d="M302.02,868.82h-76c-13.332,0-24-10.668-24-24v-76c0-13.332,10.668-24,24-24h76c13.332,0,24,10.668,24,24v76c-1.336,13.332-12,24-24,24ZM226.02,758.15c-5.332,0-10.668,4-10.668,10.668v76c0,5.332,4,10.668,10.668,10.668h76c5.332,0,10.668-4,10.668-10.668v-76c0-5.332-4-10.668-10.668-10.668h-76Z"/><path d="M444.68,868.82h-76c-13.332,0-24-10.668-24-24v-76c0-13.332,10.668-24,24-24h76c13.332,0,24,10.668,24,24v76c0,13.332-10.664,24-24,24h0ZM370.016,758.15c-5.332,0-10.668,4-10.668,10.668v76c0,5.332,4,10.668,10.668,10.668h74.664c5.332,0,10.668-4,10.668-10.668v-76c0-5.332-4-10.668-10.668-10.668h-74.664Z"/><path d="M588.68,868.82h-76c-13.332,0-24-10.668-24-24v-76c0-13.332,10.668-24,24-24h76c13.332,0,24,10.668,24,24v76c0,13.332-10.664,24-24,24ZM512.68,758.15c-5.332,0-10.668,4-10.668,10.668v76c0,5.332,4,10.668,10.668,10.668h76c5.332,0,10.668-4,10.668-10.668v-76c0-5.332-4-10.668-10.668-10.668h-76Z"/><path d="M732.68,868.82h-76c-13.332,0-24-10.668-24-24v-76c0-13.332,10.668-24,24-24h76c13.332,0,24,10.668,24,24v76c0,13.332-10.664,24-24,24ZM656.68,758.15c-5.332,0-10.668,4-10.668,10.668v76c0,5.332,4,10.668,10.668,10.668h76c5.332,0,10.668-4,10.668-10.668v-76c0-5.332-4-10.668-10.668-10.668h-76Z"/><path d="M876.68,868.82h-76c-13.332,0-24-10.668-24-24v-76c0-13.332,10.668-24,24-24h76c13.332,0,24,10.668,24,24v76c0,13.332-10.664,24-24,24ZM800.68,758.15c-5.332,0-10.668,4-10.668,10.668v76c0,5.332,4,10.668,10.668,10.668h76c5.332,0,10.668-4,10.668-10.668v-76c0-5.332-4-10.668-10.668-10.668h-76Z"/><path d="M1020.65,868.82h-76c-13.332,0-24-10.668-24-24v-76c0-13.332,10.668-24,24-24h76c13.332,0,24,10.668,24,24v76c0,13.332-10.664,24-24,24ZM944.65,758.15c-5.332,0-10.668,4-10.668,10.668v76c0,5.332,4,10.668,10.668,10.668h76c5.332,0,10.668-4,10.668-10.668v-76c0-5.332-4-10.668-10.668-10.668h-76,0Z"/><circle class="cls-2" cx="406.68" cy="806.818" r="84.874"/><path d="M150.886,784.062l-22.759,22.759,22.757,22.759h0c1.023.988,1.606,2.345,1.618,3.767.012,1.422-.547,2.789-1.553,3.795-1.005,1.006-2.373,1.565-3.795,1.553s-2.779-.596-3.767-1.618l-22.759-22.759-22.759,22.759c-1.347,1.301-3.279,1.794-5.085,1.299-1.805-.495-3.216-1.906-3.711-3.711s0-3.738,1.299-5.085l22.759-22.759-22.759-22.759c-1.301-1.347-1.794-3.279-1.299-5.085s1.906-3.216,3.711-3.711,3.738,0,5.085,1.299l22.759,22.759,22.759-22.759c.988-1.023,2.345-1.606,3.767-1.618,1.422-.012,2.789.547,3.795,1.553,1.006,1.005,1.565,2.373,1.553,3.795-.012,1.422-.596,2.779-1.618,3.767h.002Z"/><path d="M293.54,784.06l-22.759,22.759,22.757,22.759h0c1.023.988,1.606,2.345,1.618,3.767.012,1.422-.547,2.789-1.553,3.795-1.005,1.006-2.373,1.565-3.795,1.553-1.422-.012-2.779-.596-3.767-1.618l-22.759-22.759-22.759,22.759c-1.347,1.301-3.279,1.794-5.085,1.299-1.805-.495-3.216-1.906-3.711-3.711s-.001-3.738,1.299-5.085l22.759-22.759-22.759-22.759c-1.301-1.347-1.794-3.279-1.299-5.085s1.906-3.216,3.711-3.711,3.738,0,5.085,1.299l22.759,22.759,22.759-22.759c.988-1.023,2.345-1.606,3.767-1.618,1.422-.012,2.789.547,3.795,1.553,1.006,1.005,1.565,2.373,1.553,3.795s-.596,2.779-1.618,3.767h.002Z"/><path d="M438.886,784.062l-22.759,22.759,22.757,22.759h0c1.023.988,1.606,2.345,1.618,3.767.012,1.422-.547,2.789-1.553,3.795-1.005,1.006-2.373,1.565-3.795,1.553-1.422-.012-2.779-.596-3.767-1.618l-22.759-22.759-22.759,22.759c-1.347,1.301-3.279,1.794-5.085,1.299-1.805-.495-3.216-1.906-3.711-3.711s-.001-3.738,1.299-5.085l22.759-22.759-22.759-22.759c-1.301-1.347-1.794-3.279-1.299-5.085s1.906-3.216,3.711-3.711,3.738,0,5.085,1.299l22.759,22.759,22.759-22.759c.988-1.023,2.345-1.606,3.767-1.618,1.422-.012,2.789.547,3.795,1.553,1.006,1.005,1.565,2.373,1.553,3.795s-.596,2.779-1.618,3.767h.002Z"/><path d="M805.646,457.104l-1.974,13.814c-1.185,2.761-2.763,4.341-5.13,4.341h-104.979l-1.974,13.024h82.877c4.736,0,4.736,3.158,5.13,6.708l-2.763,16.181c-1.185,2.761-2.369,3.947-4.341,4.341h-296.781l93.137,89.192c6.708,7.499,7.893,18.154,1.578,26.047l-35.52,47.358c-5.525,7.893-15.392,8.288-22.102,1.578l-210.749-202.855c-6.71-6.71-6.708-17.759,0-24.467l210.749-202.855c6.71-6.71,16.181-5.919,22.102,1.578l34.729,48.149c5.525,7.893,4.341,19.339-2.367,26.047l-91.559,88.403h280.207c3.945,0,5.13,3.554,4.341,6.71l-1.974,13.024c0,2.367-1.974,4.341-4.341,4.341h-79.719l-1.974,13.024h127.872c3.945,0,4.341,3.552,4.341,6.71l1.179-.394h.004Z"/></svg>