<?xml version="1.0" encoding="UTF-8"?>
<svg id="Layer_1" data-name="Layer 1" xmlns="http://www.w3.org/2000/svg" viewBox="0 0 675.891 984.897">
  <path d="M234.308,773.44c-5.062,6.703-12.75,11.578-22.641,14.109-12.422,4.406-23.203,4.406-32.109,0-.609-.281-1.078-.75-1.641-1.078-.609,1.547-1.266,3.094-2.109,4.5,9.094,6.281,21.375,10.594,38.297,13.031,3.328.703,17.391.703,33.75.703,22.875,0,43.453-5.672,61.359-16.688-11.25-.422-19.172-1.031-24.75-1.875-5.297-.75-10.125-2.625-14.156-5.203-10.312,2.953-19.641,2.625-27.703-1.359-3.094-1.547-5.766-3.703-8.297-6.141h0Z"/>
  <path d="M157.378,764.67s-22.359-73.359-22.359-73.641c-3.797-8.578-8.156-9.984-11.953-10.312,0,0-10.406,1.031-10.594,1.078-5.578,1.688-9.188,4.688-12.047,10.266-1.359,2.484-2.625,5.906-2.625,9.984,0,1.922.281,3.938.984,6.094,2.109,8.203,9.703,31.078,22.547,67.875,2.766,7.734,7.688,14.391,24.469,11.25,0,0,5.531-1.734,6.234-2.016,5.531-2.203,8.016-4.969,8.016-9.422,0-1.5-.281-3.234-.844-5.156l-1.829-6.001Z"/>
  <path d="M483.538,129.37c0,71.438-57.938,129.37-129.42,129.37s-129.37-57.938-129.37-129.37S282.686,0,354.118,0s129.42,57.938,129.42,129.37h0Z"/>
  <path d="M279.388,762.7c2.438,2.391,5.625,3.281,7.922,3.609,8.438,1.266,24.094,2.016,51.422,2.391l8.766.703,35.203.328c3.422.188,7.125-2.016,11.156-6.891,5.812-6.516,9.375-14.906,10.594-24.797.234-2.156.375-4.219.375-6.234,0-7.875-1.875-14.625-5.859-20.953-5.719-9.375-11.109-10.828-14.812-11.109,0,0-18.984-.328-19.266-.328-1.031.047-27.281,1.031-27.375,1.031l-50.016,3.328s-.562.094-.75.094l-.656.281-.375.094c-3.656,1.078-6.844,3.75-9.656,7.781-4.078,6.375-6.141,12.703-6.516,20.297-.188,1.406-.281,2.859-.281,4.359,0,5.25,1.172,10.734,3.422,16.172,2.344,4.781,4.219,7.641,6.703,9.844h0Z"/>
  <path d="M100.468,692.05c-1.359,2.484-2.625,5.906-2.625,9.984,0,1.922.281,3.938.984,6.094,2.109,8.203,9.703,31.078,22.547,67.875,2.766,7.734,7.688,14.391,24.469,11.25,0,0,5.531-1.734,6.234-2.016,5.531-2.203,8.016-4.969,8.016-9.422,0-1.5-.281-3.234-.844-5.156l-1.875-6s-22.359-73.359-22.359-73.641c-3.797-8.578-8.156-9.984-11.953-10.312,0,0-10.406,1.031-10.594,1.078-5.531,1.688-9.141,4.688-12,10.266h0Z"/>
  <path d="M259.468,701.05c3.375-4.922,7.406-8.438,11.719-11.297-1.406-5.203-2.906-10.688-2.906-10.688,0,0-13.875-50.812-13.828-50.719,0,0-1.969-7.359-1.969-7.547-6.375-17.906-14.953-19.219-25.969-15.609-19.125,6.094-19.406,16.875-17.203,26.672l.188,1.641.047.609s-.141-1.547.047-.328c10.078,40.453,20.25,76.969,30.984,111.66,1.781,5.812,5.062,13.312,10.781,16.172,1.125.562,2.531.609,3.844.844-.234-.469-.562-.984-.797-1.453-3.422-8.344-5.156-16.547-5.156-24.094,0-2.109.141-4.219.422-6.188.469-10.219,3.703-20.062,9.797-29.672v-.003Z"/>
  <path d="M219.728,744.65l-29.297-97.406-2.859-6.188c-.047-.094-.047-.188-.047-.234-.094-.141-.234-.234-.328-.375-.328-.516-.703-1.031-1.031-1.547-3.469-4.875-8.672-8.391-20.484-4.734-15.516,4.734-17.859,12.047-17.203,19.453.047.75.141,1.5.234,2.203.047.375-.047.703-.047,1.078.047.141.141.281.188.422,0,0,.422,2.156.375,2.062l20.625,68.062s8.953,27.891,8.906,27.844c2.438,7.547,5.719,12.328,9.703,14.297,3.891,1.922,9.469,1.594,17.438-1.172,6.797-1.734,11.297-4.453,13.406-8.016,2.016-3.609,2.156-9.047.422-15.75h0Z"/>
  <path d="M339.578,557.86c-34.688,0-62.859,27.328-62.859,60.984s28.219,60.984,62.859,60.984,62.906-27.328,62.906-60.984-28.219-60.984-62.906-60.984Z"/>
  <path d="M675.728,442.45c-.703-78.375-90.656-113.48-130.22-127.4-45.938-16.172-80.391-25.594-184.92-27-137.58-1.875-182.11,18.516-226.69,30.562-44.531,18.047-92.109,41.578-105.47,115.41-.234,3.234-20.484,99.797-26.953,215.53-11.672,68.344,48.234,103.22,98.062,124.78-11.391-32.812-18.047-52.922-19.969-60.516-3.281-10.078-2.156-21.094,3.141-30.984,5.25-10.219,13.406-17.016,24.188-20.203l-.797.047.938-.094,17.531-1.734c1.5.094,3.094.375,4.734.75l-.328-2.156c-.047-.188-.141-.328-.188-.516-1.5-9.609-.844-25.219,14.484-36.141-1.125-2.016-1.734-3.141-1.734-3.141,0,0,2.438-90.094,4.547-106.41.328-8.484,16.5-10.828,16.266.375-.094,3.469-.234,44.391-.375,100.88,10.359-2.719,19.688-2.016,27.469,1.875,3-14.016,13.5-24.703,30.891-30.188,10.312-3.328,27-5.438,39.984,8.906,10.406-33.094,42-57.188,79.219-57.188,45.703,0,82.922,36.328,82.922,80.953,0,25.078-11.719,47.484-30.094,62.344,9.328,2.578,17.297,8.906,23.625,19.172,5.906,9.516,8.812,19.828,8.812,31.453,0,2.766-.188,5.625-.516,8.531-1.734,14.109-6.938,26.156-15.281,35.531-10.078,12.094-20.484,14.203-27,13.828l-35.391-.328-5.812-.469c-25.641,23.672-56.906,35.766-93,35.766-22.594,0-32.812-.047-37.312-1.078-21-3-36.984-9.047-48.844-18.141-.141,81.422-.188,154.5-.141,179.44l383.95-1.453-.844-474.14c-.047-5.531,4.453-9.984,9.984-9.984,5.531-.047,9.984,4.453,10.031,9.984l.844,474.19,109.22.609s1.734-463.22,1.031-541.64l.005-.013Z"/>
</svg>