<?xml version="1.0" encoding="UTF-8"?>
<svg id="Layer_1" data-name="Layer 1" xmlns="http://www.w3.org/2000/svg" viewBox="0 0 1054.941 1200.001">
  <path d="M54.12,376.354c-28.519-1.344-52.71,20.656-54.062,49.172-1.344,28.504,20.66,52.715,49.176,54.059,6.214.301,12.476.457,18.773.457,123.56-.52,237.53-55.915,322.51-108.7,27.704-17.352,52.227-34.574,72.852-50.008l35.898,165.71v633.09c0,44.125,35.77,79.867,79.879,79.867s79.867-35.746,79.867-79.867v-583.16h29.941v583.16c0,44.125,35.777,79.867,79.879,79.867,44.097,0,79.867-35.746,79.867-79.867V487.044s1.75-8.105,1.75-8.105c-17.786,4.242-36.797,8.391-57.309,12.453-4.164.848-8.43,1.266-12.621,1.266-30.687,0-57.316-21.886-63.316-52.066-3.344-16.918.098-34.14,9.691-48.488,9.594-14.336,24.203-24.071,41.137-27.438,51.237-10.117,87.6-19.847,113.28-28.199l8.98-41.453c14.535,6.199,29.473,13.461,41.332,20.801.844.523,1.758,1.047,2.57,1.57,3.52,2.164,6.621,4.379,9.27,6.453-4.851,3.043-11.414,6.637-19.871,10.422-28.98,13.152-78.853,28.445-153.06,43.09-27.992,5.542-46.199,32.734-40.648,60.73,4.887,24.606,26.481,41.641,50.629,41.641,3.336,0,6.726-.32,10.117-1,59.083-11.707,105.278-23.871,141.86-36.855,36.589-13.133,63.699-26.504,85.316-44.477,14.09-11.872,26.375-26.821,32.836-46.02.039-.102.09-.195.129-.297.016-.047.027-.102.047-.148.004-.012.004-.027.012-.039l-.004.004c2.758-8.356,4.125-17.203,4.113-25.59.016-13.871-3.57-26.418-8.613-37.023-1.895-3.98-3.973-7.714-6.176-11.105-8.188-12.629-17.793-22.183-27.754-30.535-19.992-16.492-42.215-28.515-63.676-38.703-42.75-20.051-82.687-31.48-84.16-31.957-.523-.156-1.055-.238-1.578-.375-7.559-2.688-15.781-4.207-24.426-4.207h-8.469c-12.46,74.918-77.685,132.23-156.08,132.23-78.412,0-143.639-57.316-156.1-132.23h-8.481c-13.781,0-26.547,3.769-37.121,10.199-3.625,2.016-7.078,4.445-10.238,7.41l-.316.285c-.309.297-.824.758-1.523,1.402-1.402,1.277-3.594,3.25-6.5,5.781-5.817,5.094-14.512,12.504-25.641,21.465-22.253,17.902-54.296,41.945-92.398,65.797-76.13,48.027-176.86,93.476-267.68,92.945-4.582,0-9.196-.113-13.891-.328v.004Z"/>
  <path d="M674.04,0c80.276,0,145.35,65.073,145.35,145.35,0,80.272-65.073,145.35-145.35,145.35-80.272,0-145.35-65.077-145.35-145.35C528.69,65.074,593.767,0,674.04,0Z"/>
</svg>