<?xml version="1.0" encoding="UTF-8"?>
<svg id="Layer_1" data-name="Layer 1" xmlns="http://www.w3.org/2000/svg" viewBox="0 0 997.92 857.749">
  <path d="M114.188,649.031c0,10.781,9.328,23.297,21.375,23.297s21.375-12.516,21.375-23.297c0-3.797-1.547-16.195-21.375-16.195s-21.375,12.398-21.375,16.195h0ZM135.563,644.836c9.375,0,9.375,3.164,9.375,4.195,0,4.734-4.734,11.297-9.375,11.297s-9.375-6.562-9.375-11.297c0-1.031,0-4.195,9.375-4.195ZM160.524,615.633c10.5,0,19.031-8.555,19.031-19.055s-8.531-19.031-19.031-19.031-19.055,8.531-19.055,19.031,8.555,19.055,19.055,19.055ZM160.524,589.547c3.867,0,7.031,3.164,7.031,7.031,0,3.891-3.164,7.055-7.031,7.055-3.891,0-7.055-3.164-7.055-7.055,0-3.867,3.164-7.031,7.055-7.031ZM109.126,615.563c10.5,0,19.031-8.531,19.031-19.031s-8.531-19.031-19.031-19.031-19.031,8.531-19.031,19.031,8.531,19.031,19.031,19.031ZM109.126,589.501c3.867,0,7.031,3.164,7.031,7.031s-3.164,7.031-7.031,7.031-7.031-3.164-7.031-7.031,3.164-7.031,7.031-7.031ZM528.256,154.271c11.977,0,21.727-9.75,21.727-21.727s-9.75-21.715-21.727-21.715-21.703,9.738-21.703,21.715,9.727,21.727,21.703,21.727ZM528.256,122.83c5.367,0,9.727,4.359,9.727,9.715s-4.359,9.727-9.727,9.727-9.703-4.359-9.703-9.727,4.359-9.715,9.703-9.715ZM469.24,154.283c11.977,0,21.703-9.738,21.703-21.715s-9.727-21.727-21.703-21.727-21.727,9.75-21.727,21.727,9.75,21.715,21.727,21.715ZM469.24,122.842c5.344,0,9.703,4.359,9.703,9.727s-4.359,9.715-9.703,9.715-9.727-4.359-9.727-9.715,4.359-9.727,9.727-9.727ZM507.959,225.322c-2.457-2.531-2.394-6.578.137-9.031,2.531-2.457,6.578-2.395,9.031.137,2.457,2.531,2.394,6.574-.137,9.031-2.527,2.457-6.574,2.395-9.031-.137ZM489.537,216.427c2.457,2.531,2.394,6.574-.137,9.031s-6.578,2.395-9.031-.137c-2.457-2.531-2.394-6.578.137-9.031,2.527-2.457,6.574-2.395,9.031.137ZM864.277,499.837c10.594,0,19.219-8.625,19.219-19.242s-8.625-19.242-19.219-19.242-19.242,8.625-19.242,19.242,8.625,19.242,19.242,19.242ZM864.277,473.353c3.984,0,7.219,3.258,7.219,7.242s-3.234,7.242-7.219,7.242-7.242-3.258-7.242-7.242,3.258-7.242,7.242-7.242ZM747.327,480.595c0,10.617,8.625,19.242,19.242,19.242s19.219-8.625,19.219-19.242-8.625-19.242-19.219-19.242-19.242,8.625-19.242,19.242ZM766.569,473.353c3.984,0,7.219,3.258,7.219,7.242s-3.234,7.242-7.219,7.242-7.242-3.258-7.242-7.242,3.258-7.242,7.242-7.242ZM991.919,642.053h-64.375c-.871-29.266-8.008-56.812-20.855-80.516,37.41-15.648,89.488-65.645,90.527-92.242,2.133-54.668-61.312-89.121-83.719-96.879-16.34-5.68-29.887,4.535-37.156,13.598-16.645-11.379-39.531-13.926-60.93-13.926-.207,0-.422.02-.633.02v-18.324l50.086-64.637c1.129-.316,2.266-.223,3.398-.672,4.875,14.227,18.094,24.152,33.516,24.152s28.641-9.926,33.516-24.141c3.914,1.547,7.805,2.309,11.766,2.309,19.828,0,35.953-16.125,35.953-35.941,0-2.906-.375-5.812-1.102-8.672,9.797-6.656,15.703-17.508,15.703-29.391s-5.906-22.746-15.703-29.402c.727-2.859,1.102-5.754,1.102-8.66,0-19.828-16.125-35.953-35.953-35.953-3.961,0-7.852.762-11.766,2.309-4.875-14.215-18.094-24.141-33.516-24.141-3.644,0-7.137.723-10.539,1.789-1.434-1.195-2.699-2.543-4.297-3.57,1.078-3.879,1.641-7.863,1.641-11.895,0-24.551-19.969-44.52-44.508-44.52-5.461,0-10.805,1.172-16.195,3.562-5.555-18.539-22.359-31.652-42.07-31.652s-36.516,13.113-42.047,31.652c-5.391-2.391-10.734-3.562-16.195-3.562-24.562,0-44.531,19.969-44.531,44.52,0,4.008.562,7.992,1.664,11.906-3.004,1.926-5.672,4.211-8.082,6.703-1.445-.18-2.867-.504-4.34-.504-15.422,0-28.641,9.926-33.516,24.152-3.914-1.559-7.805-2.32-11.766-2.32-19.828,0-35.953,16.125-35.953,35.941,0,2.918.375,5.824,1.078,8.672-9.773,6.656-15.68,17.508-15.68,29.391s5.906,22.734,15.68,29.402c-.703,2.836-1.078,5.742-1.078,8.66,0,19.828,16.125,35.953,35.953,35.953,3.961,0,7.852-.762,11.766-2.32,4.875,14.215,18.094,24.141,33.516,24.141s28.641-9.926,33.516-24.129c2.75,1.086,5.504,1.301,8.262,1.621l45.223,59.551v28.633c-1.715.934-3.188,2.199-4.789,3.297-7.246-9.055-20.723-19.289-37.141-13.602-22.383,7.758-85.852,42.188-83.742,96.879.094,2.34.977,5.07,1.812,7.773-11.73-4.539-24.359-7.281-37.672-7.281-19.094,0-36.773,5.508-52.219,14.453l-21.613-232.61c13.492-6.484,22.523-17.812,22.523-30.766,0-5.172-1.469-10.074-4.047-14.535,12.586-20.793,29.016-59.578,27.391-90.969-.039-.75-.305-1.457-.379-2.203,22.156-4.195,34.84-17.34,38.934-29.414,3.492-10.324,1.805-20.32-4.406-26.109-7.43-6.914-19.148-8.602-30.656-4.336-8.801,3.277-18.469,10.766-23.629,22.742-5.875-5.328-12.754-9.711-20.344-13.023l7.387-22.504c.125.004.227.07.352.07,11.18,0,20.273-9.105,20.273-20.285s-9.094-20.297-20.273-20.297-20.297,9.105-20.297,20.297c0,6.762,3.547,12.473,8.656,16.16l-7.441,22.668c-6.176-1.613-12.535-2.75-19.141-2.75s-13.016,1.184-19.246,2.871l-7.477-22.781c5.109-3.688,8.652-9.398,8.652-16.16C480.749,9.114,471.655.008,460.452.008s-20.273,9.105-20.273,20.297,9.094,20.285,20.273,20.285c.125,0,.227-.066.352-.07l7.457,22.723c-7.559,3.371-14.43,7.801-20.32,13.16-5.125-12.16-14.844-19.789-23.723-23.094-11.484-4.23-23.203-2.602-30.656,4.348-6.211,5.777-7.898,15.773-4.406,26.086,4.094,12.086,16.781,25.234,38.941,29.426-.074.746-.348,1.453-.387,2.203-1.703,32.996,15.793,71.48,26.816,90.027-2.941,4.715-4.715,9.918-4.715,15.465,0,13.531,9.906,25.234,24.422,31.543l-21.574,232.21c-15.598-9.191-33.535-14.832-52.91-14.832-57.891,0-105,47.109-105,105v67.266h-31.617v-137.2l50.086-64.648c1.129-.316,2.266-.223,3.398-.672,4.875,14.203,18.094,24.141,33.516,24.141s28.641-9.914,33.516-24.117c3.914,1.547,7.805,2.297,11.766,2.297,19.828,0,35.953-16.125,35.953-35.941,0-2.906-.375-5.812-1.102-8.672,9.797-6.656,15.703-17.508,15.703-29.391s-5.906-22.746-15.703-29.402c.727-2.859,1.102-5.754,1.102-8.66,0-19.828-16.125-35.953-35.953-35.953-3.961,0-7.852.762-11.766,2.309-4.875-14.203-18.094-24.129-33.516-24.129-3.641,0-7.141.719-10.535,1.781-1.434-1.195-2.703-2.547-4.301-3.574,1.078-3.879,1.641-7.863,1.641-11.895,0-24.551-19.969-44.52-44.508-44.52-5.461,0-10.805,1.172-16.195,3.562-3.801-12.676-13.082-22.445-24.742-27.59-.809-9.035-3.211-17.281-5.656-24.508-1.383-4.125-2.695-7.934-3.375-11.414-.492-2.602-.328-6.879-.164-11.016.211-5.566.422-11.332-.633-16.348-3.305-15.691-17.016-33.949-44.672-33.949h-.398c-8.418.047-25.895,4.484-31.98,12.848-9.172.113-33.422,1.746-58.77,15.195-48.727,25.852-44.297,58.652-44.086,60.047.258,1.688,1.242,3.188,2.672,4.125.984.633,2.109.961,3.258.961.539,0,1.078-.07,1.594-.223.234-.059,23.648-6.48,54.422-10.664,18.738-2.551,33.48-1.922,41.883-1.102-.824,1.238-1.664,2.445-2.672,3.762-3.375,4.453-7.195,9.516-9.703,18.773-2.32,8.504-2.09,16.523-.34,24.16-12.82,7.82-21.48,21.812-21.48,37.902,0,4.008.562,7.992,1.664,11.906-3.004,1.926-5.672,4.211-8.082,6.703-1.445-.18-2.867-.504-4.34-.504-15.422,0-28.641,9.926-33.516,24.152-3.914-1.559-7.805-2.32-11.766-2.32-19.828,0-35.953,16.125-35.953,35.941,0,2.93.375,5.824,1.078,8.672-9.773,6.656-15.68,17.52-15.68,29.391s5.906,22.734,15.68,29.402c-.703,2.848-1.078,5.742-1.078,8.672,0,19.816,16.125,35.941,35.953,35.941,3.961,0,7.852-.773,11.766-2.32,4.875,14.203,18.094,24.141,33.516,24.141s28.641-9.914,33.516-24.117c2.75,1.086,5.504,1.297,8.262,1.613l45.223,59.535v14.883c-10.039,7.191-21.504,14.398-31.992,20.414l6.234-21.469c.914-3.164-.914-6.492-4.102-7.43-3-.914-6.492.914-7.43,4.102l-8.57,29.523c-8.039-2.227-16.832-3.742-26.961-3.742-10.219,0-18.969,1.473-26.949,3.644l-8.582-29.496c-.938-3.164-4.289-5.016-7.453-4.078-3.164.938-4.992,4.266-4.078,7.453l6.258,21.445c-21.859-12.504-48.141-30.164-55.852-42.102l20.742-14.289c2.742-1.875,3.422-5.625,1.547-8.344s-5.625-3.375-8.344-1.547l-17.707,12.195c-2.625-18.773,1.871-43.152,1.934-43.414.609-3.258-1.547-6.398-4.781-7.008-3.609-.891-6.398,1.547-7.031,4.758-.258,1.453-6.633,35.742.188,57.492.125.398.543.844.699,1.25.062.109,0,.242.074.348.062.09.172.121.238.207,7.699,18.289,46.055,41.703,65.109,52.414-3.262,2.098-6.074,4.527-8.578,7.223-5.777-4.711-11.598-5.769-15.867-5.422-21.328,1.195-40.758,31.312-42.914,34.734-1.594,2.555-1.055,5.883,1.266,7.805,5.32,4.406,15.797,9.633,28.57,9.633,6.324,0,13.219-1.297,20.324-4.606,2.359,8.879,6.152,17.859,9.98,26.73,1.953,4.516,3.863,9.082,5.613,13.617l-83.219-.008c-3.305,0-6,2.695-6,6v203.7c0,3.305,2.695,6,6,6h985.92c3.305,0,6-2.695,6-6v-203.7c0-3.305-2.695-6-6-6v.004ZM537.039,12.003c4.57,0,8.273,3.727,8.273,8.297s-3.703,8.285-8.273,8.285-8.297-3.715-8.297-8.285,3.727-8.297,8.297-8.297ZM452.172,20.312c0-4.57,3.703-8.297,8.273-8.297s8.297,3.727,8.297,8.297-3.727,8.285-8.297,8.285-8.273-3.715-8.273-8.285ZM915.542,642.052h-48.203c-1.715-3.727-3.93-7.926-6.93-13.289-5.227-9.375-11.156-20.016-12.094-26.906-1.066-7.977-1.844-18.074-1.312-27.586,1.699,1.582,3.422,3.137,5.18,4.289,7.547,4.945,17.367,6.281,25.711,6.281,9.188,0,16.57-1.617,17.156-1.734,2.297-.516,4.102-2.344,4.57-4.664.469-2.32-.469-4.688-2.391-6.07-2.465-1.777-5.305-3.918-8.18-6.133,1.973-.133,4.016-.398,6.188-.891,12.527,22.352,19.418,48.672,20.305,76.703h0ZM859.706,551.56c1.031,2.602,2.086,5.273,3.773,7.758,2.391,3.492,8.578,8.836,14.484,13.523h-.07c-6.727,0-14.062-.984-19.125-4.312-6.023-3.961-12.516-12.703-12.586-19.453-.023-1.805.609-3.305,1.875-4.453,1.102-1.008,2.555-1.594,3.844-1.594.141,0,.281,0,.398.023,3.867.398,5.039,2.531,7.406,8.508h0ZM909.558,383.76c25.43,8.801,77.391,41.191,75.656,85.066-.891,23.25-67.383,85.641-98.297,85.641-10.906,0-16.277-8.383-18.633-13.75l.188-.125c15.188-9.984,27.164-17.859,34.289-39.164,3.727-11.203,1.969-22.453-.047-35.461-1.359-8.742-2.766-17.789-2.766-28.172,0-6.207-.754-11.559-1.723-16.664,2.711-3.742,7.93-9.305,12.551-9.562,5.344.422,23.625,15.656,39.516,34.102,1.195,1.383,2.859,2.086,4.547,2.086,1.383,0,2.789-.469,3.914-1.453,2.508-2.156,2.789-5.953.633-8.461-7.805-9.047-34.078-38.273-48.703-38.273-.188,0-.398.012-.586.023-6.434.363-11.992,4.188-16.07,8.102-2.309-5.312-5.133-9.981-8.609-13.84,4.031-5.152,12.902-14.031,24.141-10.094h0ZM887.949,437.795c0,11.297,1.547,21.234,2.906,30.023,1.852,11.93,3.328,21.375.516,29.812-5.789,17.367-15.211,23.555-29.484,32.93l-3.176,2.106c-1.574-.648-3.102-1.348-5.144-1.566-4.805-.398-9.844,1.266-13.594,4.641-3.797,3.469-5.859,8.25-5.789,13.477.035,3.66,1.172,7.285,2.699,10.812-3.211,13.84-2.121,31.055-.473,43.426,1.242,9.164,7.477,20.344,13.523,31.148,3.398,6.094,8.531,15.281,8.648,17.32-1.195,3.609-12.164,10.266-17.18,9.094-6.422-3.141-32.32-41.602-37.547-60-1.125-3.984-1.969-9.188-2.93-14.859-1.457-8.887-3.289-18.715-6.332-27.418,1.199-3.121,2.012-6.316,2.047-9.519.07-5.227-1.992-10.008-5.789-13.477-3.773-3.398-9-5.016-13.594-4.641-2.035.215-3.555.914-5.125,1.559l-3.195-2.121c-14.273-9.375-23.695-15.562-29.484-32.906-2.812-8.438-1.336-17.859.516-29.812,1.383-8.766,2.93-18.703,2.93-30.023,0-44.578,28.992-53.707,72.516-53.707,43.543-.004,72.535,9.125,72.535,53.703h0ZM698.699,547.535c7.606,5.227,16.441,10.484,25.367,14.172-12.789,23.66-19.922,51.121-20.785,80.348h-.539v-67.266c0-9.488-1.672-18.508-4.043-27.254h0ZM735.582,565.512c2.129.457,4.172.586,6.211.711-2.879,2.223-5.731,4.371-8.207,6.148-1.898,1.383-2.836,3.773-2.367,6.07.469,2.32,2.273,4.148,4.57,4.664.586.117,7.969,1.734,17.156,1.734,8.32,0,18.141-1.336,25.688-6.281,2.531-1.656,5.012-3.906,7.359-6.418,1.219,5.328,2.242,10.793,3.094,15.98,1.031,6.164,1.992,11.836,3.234,16.172,2.312,8.176,10.152,23.605,19.039,37.758h-96.074c.91-27.707,7.961-54.453,20.297-76.539h0ZM772.07,568.527c-5.086,3.328-12.422,4.312-19.148,4.312h-.047c5.883-4.688,12.07-10.031,14.461-13.547,1.688-2.461,2.766-5.156,3.797-7.758,2.367-5.953,3.539-8.086,7.383-8.484,1.195-.258,3.023.469,4.242,1.57,1.266,1.148,1.898,2.648,1.875,4.453-.07,6.75-6.562,15.516-12.562,19.453h0ZM925.16,154.597c.211,2.086,1.5,3.902,3.375,4.816,1.852.855,4.078.738,5.859-.375,4.5-2.906,8.508-4.266,12.656-4.266,13.219,0,23.953,10.746,23.953,23.953,0,3.047-.633,6.105-1.875,9.094-1.195,2.93.07,6.293,2.906,7.688,8.367,4.102,13.57,12.258,13.57,21.281s-5.203,17.168-13.57,21.27c-2.836,1.395-4.102,4.758-2.906,7.688,1.242,2.988,1.875,6.059,1.875,9.105,0,13.207-10.734,23.941-23.953,23.941-4.148,0-8.156-1.359-12.656-4.266-1.758-1.125-3.984-1.242-5.859-.375-1.875.914-3.164,2.73-3.375,4.816-1.242,12.34-11.297,21.656-23.391,21.656s-22.148-9.316-23.391-21.656c-.211-2.086-1.5-3.902-3.375-4.805-1.875-.914-4.102-.773-5.859.363-4.5,2.906-8.531,4.266-12.656,4.266-13.219,0-23.953-10.734-23.953-23.941,0-2.277.691-4.496,1.363-6.707,3.371.934,6.746,1.562,10.168,1.562,24.539,0,44.508-19.969,44.508-44.52,0-4.031-.562-8.016-1.664-11.906,12.75-8.18,20.461-21.949,20.461-37.055,0-8.371-2.559-16.207-6.828-23.031.426-.023.797-.254,1.227-.254,12.094,0,22.148,9.316,23.391,21.656h0ZM814.77,266.167c2.234-2.027,4.457-4.07,6.25-6.527.734,5.441,2.566,10.523,5.461,14.914l-11.711,14.465v-22.852ZM694.65,127.307c2.836-1.395,4.102-4.758,2.883-7.688-1.664-4.031-2.508-8.191-2.508-12.363,0-17.93,14.602-32.52,32.531-32.52,5.602,0,11.227,1.887,17.227,5.754,1.758,1.148,4.031,1.289,5.859.363,1.875-.902,3.164-2.73,3.375-4.805,1.664-16.758,15.328-29.402,31.781-29.402s30.117,12.645,31.805,29.414c.211,2.074,1.5,3.891,3.375,4.793,1.852.902,4.078.762,5.859-.363,6.07-3.926,11.555-5.754,17.227-5.754,17.93,0,32.508,14.59,32.508,32.52,0,4.207-.844,8.367-2.484,12.363-1.219,2.93.047,6.293,2.883,7.688,11.344,5.566,18.398,16.641,18.398,28.91s-7.055,23.332-18.398,28.922c-2.836,1.395-4.102,4.758-2.883,7.676,1.641,3.996,2.484,8.156,2.484,12.363,0,17.93-14.578,32.52-32.508,32.52-5.672,0-11.156-1.828-17.227-5.754-1.734-1.125-3.961-1.254-5.859-.363-1.875.902-3.164,2.719-3.375,4.793-1.688,16.77-15.375,29.402-31.805,29.402s-30.117-12.633-31.781-29.391c-.211-2.074-1.5-3.902-3.375-4.805-.82-.398-1.711-.598-2.602-.598-1.125,0-2.273.328-3.258.961-6,3.867-11.625,5.754-17.227,5.754-17.93,0-32.531-14.59-32.531-32.52,0-4.172.844-8.332,2.508-12.363,1.219-2.918-.047-6.281-2.883-7.676-11.367-5.59-18.422-16.676-18.422-28.922s7.055-23.344,18.422-28.91h0ZM753.189,262.357c1.93,2.223,3.754,4.562,6.078,6.352v20.66l-10.387-12.828c2.375-4.281,3.863-9.062,4.309-14.184h0ZM704.892,278.951c-1.758-1.102-3.984-1.242-5.859-.375-1.875.914-3.164,2.73-3.375,4.816-1.242,12.34-11.297,21.645-23.391,21.645s-22.148-9.305-23.391-21.645c-.211-2.086-1.5-3.902-3.375-4.805-1.875-.914-4.102-.773-5.859.363-4.5,2.906-8.531,4.266-12.656,4.266-13.219,0-23.953-10.746-23.953-23.953,0-3.082.609-6.141,1.852-9.094,1.195-2.93-.07-6.281-2.906-7.676-8.344-4.125-13.547-12.281-13.547-21.293s5.18-17.168,13.547-21.281c2.836-1.395,4.102-4.746,2.906-7.664-1.242-2.977-1.852-6.035-1.852-9.117,0-13.207,10.734-23.941,23.953-23.941,4.125,0,8.156,1.359,12.656,4.266,1.781,1.16,4.008,1.277,5.859.363,1.875-.902,3.164-2.719,3.375-4.805,1.106-10.977,9.316-19.168,19.602-20.93-2.59,5.621-4.25,11.695-4.25,18.129,0,15.094,7.711,28.875,20.461,37.055-1.102,3.914-1.664,7.898-1.664,11.906,0,24.551,19.969,44.52,44.531,44.52,4.055,0,8.047-.871,12.035-2.184-.059.891-.324,1.77.035,2.652,1.242,2.988,1.875,6.047,1.875,9.094,0,13.207-10.734,23.953-23.953,23.953-4.148,0-8.156-1.359-12.656-4.266h0ZM770.048,348.431l-41.781-55.027c4.84-1.523,9.215-3.996,12.938-7.277l19.398,23.961c1.172,1.441,2.883,2.227,4.664,2.227.68,0,1.336-.117,1.992-.34,2.414-.855,4.008-3.117,4.008-5.66v-31.098c4.562,1.621,9.434,2.562,14.531,2.562,6.082,0,11.688-1.598,16.969-3.867v32.062c0,2.543,1.594,4.805,4.008,5.66.656.223,1.312.34,1.992.34,1.781,0,3.492-.785,4.664-2.227l21.379-26.418c4.152,3.164,8.93,5.535,14.211,6.656l-44.988,58.059c-.82,1.055-1.266,2.344-1.266,3.68v20.723c-10.812.559-21.633,1.938-31.5,5.109v-25.492c0-1.312-.422-2.59-1.219-3.633h0ZM645.598,468.821c-1.711-43.898,50.25-76.266,75.68-85.066,11.32-3.977,20.129,4.898,24.141,10.086-3.461,3.848-6.285,8.496-8.59,13.789-4.07-3.891-9.609-7.684-15.996-8.043-15.07-.961-41.391,29.062-49.312,38.25-2.156,2.508-1.875,6.305.633,8.461,1.125.984,2.531,1.453,3.914,1.453,1.688,0,3.352-.703,4.547-2.086,15.75-18.281,34.031-34.102,39.375-34.102h.164c4.781.27,9.922,6.027,12.465,9.457-.977,5.133-1.731,10.523-1.731,16.77,0,10.383-1.406,19.43-2.789,28.172-2.016,13.031-3.773,24.258-.047,35.461,7.125,21.305,19.102,29.18,34.289,39.141l.188.125c-2.367,5.348-7.758,13.773-18.609,13.773-11.977,0-32.531-10.828-53.648-28.242-8.789-16.66-21.691-30.664-37.656-40.535-4.328-6.801-6.879-12.789-7.016-16.863h-.002ZM523.258,374.376c-10.75-2.059-19.129-12.5-19.129-25.637,0-11.18,5.988-20.457,14.484-24.324l4.645,49.961ZM577.465,64.546c7.125-2.672,14.156-1.957,18.281,1.875,2.602,2.402,3.094,7.945,1.219,13.465-1.488,4.375-8.062,18.031-29.988,21.895-1.801-5.348-4.531-10.355-7.891-15.059,2.742-11.969,10.867-19.379,18.379-22.176h0ZM400.515,79.886c-1.875-5.508-1.383-11.039,1.219-13.441,4.102-3.82,11.133-4.547,18.281-1.887,7.578,2.816,15.797,10.324,18.457,22.488-3.34,4.633-6.062,9.547-7.875,14.762-22.004-3.836-28.594-17.527-30.082-21.922h0ZM498.812,68.378c30.094,0,57.656,22.242,58.969,47.59,1.383,26.855-12.512,61.117-23.648,80.793-8.859-7.551-21.637-12.414-36-12.414-13.922,0-26.391,4.535-35.215,11.68-11.191-19.941-24.605-53.414-23.215-80.035,1.289-24.926,29.461-47.613,59.109-47.613h0ZM461.804,220.858c0-13.289,16.641-24.516,36.328-24.516s36.305,11.227,36.305,24.516-16.617,24.516-36.305,24.516-36.328-11.227-36.328-24.516ZM484.382,272.866c6.465,2.988,10.75,8.223,10.75,13.91,0,6.555-5.543,12.27-13.43,14.898l2.68-28.808ZM470.46,422.686c2.309-2.566,5.684-5.32,10.211-5.32,10.195,0,18.82,14.109,18.82,30.797s-8.625,30.773-18.82,30.773c-5.477,0-10.727-4.293-14.379-11.363l4.168-44.887ZM464.702,484.635c4.738,3.965,10.18,6.305,15.965,6.305,17.273,0,30.82-18.797,30.82-42.773s-13.547-42.797-30.82-42.797c-3.019,0-5.949.746-8.777,1.891l8.664-93.262c15.332-3.055,26.574-13.812,26.574-27.223,0-11.77-8.809-21.656-21.633-25.98l.441-4.746c3.918.777,7.953,1.32,12.191,1.32,4.934,0,9.606-.727,14.094-1.77l5.273,56.738c-14.66,4.617-25.367,18.891-25.367,36.391,0,20.312,14.293,36.824,32.297,38.207l9.742,104.85c-16.305,12.523-28.672,29.598-35.426,49.441-6.656-19.562-18.785-36.406-34.75-48.883l.711-7.709ZM373.514,305.635c.211,2.086,1.5,3.902,3.375,4.816,1.852.891,4.102.738,5.859-.375,4.5-2.906,8.508-4.266,12.656-4.266,13.219,0,23.953,10.746,23.953,23.953,0,3.047-.633,6.106-1.875,9.094-1.195,2.93.07,6.293,2.906,7.688,8.367,4.102,13.57,12.258,13.57,21.281s-5.203,17.168-13.57,21.27c-2.836,1.394-4.102,4.758-2.906,7.688,1.242,2.988,1.875,6.059,1.875,9.106,0,13.207-10.734,23.941-23.953,23.941-4.148,0-8.156-1.359-12.656-4.266-1.734-1.125-3.984-1.266-5.859-.375-1.875.914-3.164,2.742-3.375,4.805-1.242,12.352-11.297,21.656-23.391,21.656s-22.148-9.305-23.391-21.656c-.211-2.062-1.5-3.891-3.375-4.805-1.852-.914-4.102-.773-5.859.375-4.5,2.906-8.531,4.266-12.656,4.266-13.219,0-23.953-10.734-23.953-23.941,0-2.277.691-4.488,1.363-6.703,3.379.934,6.758,1.57,10.168,1.57,24.539,0,44.508-19.98,44.508-44.531,0-4.031-.562-8.016-1.641-11.895,12.727-8.18,20.438-21.949,20.438-37.066,0-8.367-2.555-16.199-6.824-23.02.426-.023.793-.25,1.223-.25,12.094-.004,22.148,9.301,23.391,21.641h0ZM263.124,417.205c2.234-2.027,4.457-4.07,6.25-6.527.738,5.441,2.566,10.531,5.465,14.922l-11.715,14.469v-22.864ZM111.464,131.155c23.883-12.668,47.438-13.781,54.445-13.816,1.547,1.699,4.195,5.402,5.602,11.789.605,2.75.664,6.547.543,10.582-34.586.797-72.75,8.781-95.008,23.48,4.273-9.156,13.68-21.027,34.418-32.035h0ZM122.081,162.925c-10.891,1.477-20.727,3.199-29.086,4.844,19.023-9.129,47.574-15.23,78.137-16.027-.445,3.73-.945,7.332-1.449,10.316-8.461-1.02-25.359-2.156-47.602.867h0ZM164.784,199.394c1.898-7.031,4.711-10.746,7.711-14.684,2.883-3.809,5.859-7.758,7.781-14.109l-.18-.055c.059-.188.281-.277.32-.473.609-2.988,5.883-29.566,2.812-43.523-1.66-7.566-4.648-12.516-7.199-15.707,3.938-2.762,13.324-6.285,20.629-6.324h.305c20.484,0,30.469,12.598,32.953,24.41.75,3.562.562,8.578.375,13.43-.188,5.039-.375,9.785.398,13.734.75,3.949,2.18,8.297,3.773,12.984,1.801,5.336,3.422,11.285,4.473,17.41-1.621-.184-3.105-.793-4.773-.793-19.711,0-36.516,13.113-42.047,31.652-5.391-2.391-10.734-3.562-16.195-3.562-4.137,0-8.062.75-11.867,1.809-.801-5.105-.836-10.445.73-16.199h0ZM143.011,278.355c2.836-1.395,4.102-4.758,2.883-7.688-1.664-4.031-2.508-8.191-2.508-12.363,0-17.93,14.602-32.52,32.531-32.52,5.602,0,11.227,1.887,17.227,5.766,1.758,1.137,3.984,1.289,5.859.363,1.875-.902,3.164-2.719,3.375-4.805,1.664-16.77,15.328-29.414,31.781-29.414s30.117,12.645,31.805,29.426c.211,2.074,1.5,3.891,3.375,4.805,1.875.879,4.078.738,5.859-.375,6-3.879,11.625-5.766,17.227-5.766,17.93,0,32.508,14.59,32.508,32.52,0,4.207-.844,8.367-2.484,12.363-1.219,2.93.047,6.293,2.883,7.688,11.344,5.566,18.398,16.641,18.398,28.91s-7.055,23.344-18.398,28.91c-2.836,1.394-4.102,4.758-2.883,7.688,1.641,3.996,2.484,8.156,2.484,12.363,0,17.941-14.578,32.531-32.508,32.531-5.672,0-11.133-1.828-17.227-5.766-1.758-1.125-3.961-1.254-5.859-.363-1.875.902-3.164,2.719-3.375,4.793-1.688,16.77-15.375,29.402-31.805,29.402s-30.117-12.633-31.781-29.391c-.211-2.074-1.5-3.902-3.375-4.805-.82-.398-1.711-.598-2.602-.598-1.125,0-2.273.328-3.258.961-6.094,3.938-11.555,5.766-17.227,5.766-17.93,0-32.531-14.59-32.531-32.531,0-4.172.844-8.332,2.508-12.363,1.219-2.93-.047-6.293-2.883-7.688-11.367-5.566-18.422-16.652-18.422-28.91s7.055-23.344,18.422-28.91h0ZM201.554,413.405c1.93,2.223,3.754,4.562,6.074,6.352v20.648l-10.383-12.816c2.375-4.281,3.863-9.062,4.309-14.184h0ZM153.253,429.999c-1.734-1.102-3.984-1.289-5.859-.375s-3.164,2.742-3.375,4.805c-1.242,12.352-11.297,21.656-23.391,21.656s-22.148-9.305-23.391-21.656c-.211-2.062-1.5-3.891-3.375-4.805s-4.102-.773-5.859.375c-4.5,2.906-8.531,4.266-12.656,4.266-13.219,0-23.953-10.734-23.953-23.941,0-3.094.609-6.152,1.852-9.106,1.195-2.93-.07-6.281-2.906-7.676-8.344-4.125-13.547-12.281-13.547-21.293s5.18-17.168,13.547-21.281c2.836-1.394,4.102-4.746,2.906-7.676-1.242-2.953-1.852-6.012-1.852-9.106,0-13.207,10.734-23.941,23.953-23.941,4.125,0,8.156,1.359,12.656,4.266,1.781,1.148,4.008,1.266,5.859.363,1.875-.902,3.164-2.719,3.375-4.805,1.105-10.977,9.316-19.168,19.602-20.93-2.59,5.621-4.25,11.695-4.25,18.129,0,15.105,7.711,28.887,20.461,37.055-1.102,3.914-1.664,7.898-1.664,11.906,0,24.551,19.969,44.531,44.531,44.531,4.039,0,8.039-.875,12.035-2.191-.059.891-.324,1.769.035,2.648,1.242,2.988,1.875,6.059,1.875,9.106,0,13.207-10.734,23.941-23.953,23.941-4.148,0-8.156-1.359-12.656-4.266h0ZM218.409,499.468l-41.781-55.016c4.84-1.527,9.215-4,12.938-7.277l19.398,23.949c1.172,1.43,2.883,2.227,4.664,2.227.68,0,1.336-.117,1.992-.352,2.414-.844,4.008-3.117,4.008-5.648v-31.086c4.562,1.621,9.434,2.562,14.531,2.562,6.082,0,11.688-1.598,16.969-3.867v32.062c0,2.531,1.594,4.805,4.008,5.648.656.234,1.312.352,1.992.352,1.781,0,3.492-.797,4.664-2.227l21.383-26.414c4.148,3.164,8.926,5.531,14.207,6.648l-44.988,58.059c-.82,1.055-1.266,2.344-1.266,3.68v139.27h-31.5v-36.016c11.223-.812,20.449-5.305,25.289-9.312,2.32-1.922,2.859-5.25,1.266-7.805-1.578-2.508-12.477-19.266-26.555-28.559v-34.25c11.434-8.715,20.84-17.941,24.301-26.137.066-.086.176-.117.242-.211.074-.105.008-.242.074-.352.156-.402.574-.848.699-1.242,6.82-21.75.445-56.039.188-57.492-.633-3.234-3.773-5.344-7.031-4.781-3.258.633-5.391,3.773-4.781,7.031.062.285,4.582,24.629,1.938,43.418l-17.711-12.199c-2.695-1.805-6.445-1.195-8.344,1.547-1.875,2.719-1.195,6.469,1.547,8.344l20.742,14.285c-2.41,3.731-6.496,7.973-11.859,12.492v-7.703c-.004-1.305-.426-2.57-1.223-3.625v-.003ZM232.659,590.359c-6.547,3.406-19.445,7.324-34.469-1.117.441-6.812-.656-13.48-3.727-19.93,3.316-2.848,6.25-3.144,8.102-3.164,10.688.586,23.297,14.883,30.094,24.211h0ZM196.018,601.742c3.965,1.844,7.836,2.961,11.609,3.672v36.629h-27.18c1.746-4.519,3.648-9.07,5.594-13.57,3.828-8.871,7.617-17.852,9.977-26.73h0ZM207.627,534.66v20.457c-1.457-.344-2.898-.859-4.383-.941-4.004-.164-9.992.801-15.844,5.469-2.52-2.688-5.359-5.121-8.668-7.227,7.629-4.293,18.102-10.457,28.895-17.758h0ZM36.977,590.336c6.703-9.164,19.453-23.625,30.07-24.234,1.996.055,4.859.371,8.125,3.168-3.07,6.449-4.168,13.113-3.727,19.93-14.977,8.414-27.855,4.519-34.469,1.137h0ZM87.461,571.375c9.586-14.859,31.031-17.977,47.344-17.977,11.293,0,21.035,1.578,28.977,4.516.277.109.543.23.832.297,7.855,3.051,13.859,7.481,17.559,13.211,9.234,14.32,1.289,32.766-7.148,52.289-5.508,12.703-11.18,25.875-12.211,38.648-.75,9.375-14.109,17.906-28.008,17.906-13.898-.023-27.234-8.578-27.984-17.953v-.023c-1.031-12.75-6.703-25.922-12.211-38.625-8.438-19.523-16.383-37.969-7.148-52.289h-.001ZM11.992,654.039h81.199c.812,3.148,1.438,6.242,1.676,9.211,1.383,17.32,21.773,28.992,39.938,29.016,18.188,0,38.578-11.625,39.961-28.945.242-2.992.871-6.109,1.691-9.281h118.29v191.7H11.998l-.005-191.701ZM306.742,574.773c0-51.281,41.719-93,93-93s93,41.719,93,93v270.96h-15.164v-268.85c0-42.797-34.828-77.625-77.625-77.625s-77.625,34.828-77.625,77.625v268.85h-15.586v-270.96ZM465.582,754.143h-33.328v-234.04c19.801,11.309,33.328,32.387,33.328,56.777v177.263ZM420.254,754.143h-41.016v-239.21c6.551-2.199,13.438-3.672,20.719-3.672,7.129,0,13.867,1.43,20.297,3.539v239.343ZM367.238,754.143h-32.906v-177.26c0-24.219,13.336-45.18,32.906-56.551v233.811ZM334.332,766.143h32.906v79.594h-32.906v-79.594ZM379.238,766.143h41.016v79.594h-41.016v-79.594ZM432.254,766.143h33.328v79.594h-33.328v-79.594ZM629.134,766.143h33.117v79.594h-33.117v-79.594ZM617.134,845.737h-41.016v-79.594h41.016v79.594ZM662.251,754.143h-33.117v-233.92c19.684,11.344,33.117,32.359,33.117,56.664v177.256ZM617.134,754.143h-41.016v-239.28c6.492-2.156,13.301-3.606,20.508-3.606s14.016,1.453,20.508,3.606v239.28ZM564.118,754.143h-33.117v-177.26c0-24.305,13.434-45.32,33.117-56.664v233.924ZM531.001,766.143h33.117v79.594h-33.117v-79.594ZM690.751,845.737h-16.5v-268.85c0-42.797-34.828-77.625-77.625-77.625s-77.625,34.828-77.625,77.625v268.85h-14.25v-270.96c0-51.281,41.719-93,93-93s93,41.719,93,93v270.96ZM985.921,845.737h-283.17v-191.7h116.63c7.152,9.883,14.168,17.43,18.934,18.516,1.266.305,2.625.445,4.008.445,11.18,0,24.867-9.023,27.656-17.273.176-.52.062-1.141.145-1.688h115.8l-.002,191.699ZM200.811,142.927c8.484,0,15.398-6.914,15.398-15.41s-6.914-15.41-15.398-15.41-15.422,6.914-15.422,15.41,6.914,15.41,15.422,15.41ZM200.811,124.107c1.875,0,3.398,1.535,3.398,3.41,0,3.762-6.797,3.715-6.82,0,0-1.875,1.523-3.41,3.422-3.41ZM743.221,693.487c-3.305,0-6,2.695-6,6v50.414c0,3.305,2.695,6,6,6h144.38c3.305,0,6-2.695,6-6v-50.414c0-3.305-2.695-6-6-6h-144.38ZM881.601,743.901h-132.38v-38.414h132.38v38.414Z"/>
</svg>