<?xml version="1.0" encoding="UTF-8"?>
<svg id="Layer_1" data-name="Layer 1" xmlns="http://www.w3.org/2000/svg" viewBox="0 0 24.708 35.999">
  <defs>
    <style>
      .cls-1 {
        fill: none;
        stroke: #000;
        stroke-linecap: round;
        stroke-width: 2.5px;
      }
    </style>
  </defs>
  <path class="cls-1" d="M3.603,4.711c1.054-.997,2.371-1.823,3.952-2.478,1.581-.655,3.24-.983,4.978-.983,1.88,0,3.475.306,4.786.919,1.31.612,2.307,1.503,2.991,2.67.684,1.168,1.025,2.578,1.025,4.23,0,1.196-.199,2.386-.598,3.568s-.99,2.379-1.773,3.589c-.783,1.211-1.787,2.457-3.012,3.739l-10.084,10.725-2.083,2.179c-.114.114-.207.256-.278.427-.071.171-.107.328-.107.47,0,.256.1.484.299.684s.484.299.855.299h16.664"/>
</svg>