<?xml version="1.0" encoding="UTF-8"?>
<svg id="Layer_1" data-name="Layer 1" xmlns="http://www.w3.org/2000/svg" viewBox="0 0 24.708 35.998">
  <defs>
    <style>
      .cls-1 {
        fill: none;
        stroke: #000;
        stroke-linecap: round;
        stroke-linejoin: round;
        stroke-width: 2.5px;
      }
    </style>
  </defs>
  <path class="cls-1" d="M2.623,5.041c1.171-1.202,2.612-2.134,4.323-2.797,1.711-.663,3.475-.994,5.293-.994,1.972,0,3.66.324,5.062.971,1.402.647,2.481,1.58,3.236,2.797.755,1.217,1.133,2.674,1.133,4.369,0,1.356-.254,2.597-.763,3.722-.509,1.125-1.233,2.08-2.173,2.866-.94.786-4.071,1.942-11.185,1.687l7.114-.144c2.281.401,4.764,1.014,6.013,2.478,1.248,1.464,1.872,3.305,1.872,5.524,0,1.849-.408,3.452-1.225,4.808-.817,1.356-1.988,2.404-3.513,3.144-1.526.74-3.352,1.11-5.478,1.11-1.911,0-3.768-.3-5.571-.901-1.803-.601-3.367-1.487-4.692-2.658"/>
</svg>