<?xml version="1.0" encoding="UTF-8"?>
<svg id="_4" data-name="4" xmlns="http://www.w3.org/2000/svg" viewBox="0 0 20.969 35.501">
  <defs>
    <style>
      .cls-1 {
        fill: none;
        stroke: #000;
        stroke-linecap: round;
        stroke-linejoin: round;
        stroke-width: 2.5px;
      }
    </style>
  </defs>
  <path class="cls-1" d="M17.956,2.85s-.402-.299-.877-.569c-1.288-.733-2.69-.98-4.062-1.024-2.319-.074-4.324.51-6.014,1.753-1.691,1.243-3.011,3.146-3.959,5.71-.949,2.564-1.485,5.772-1.608,9.624l-.185,6.463c0,1.854.394,3.489,1.181,4.906.787,1.417,1.871,2.527,3.253,3.332,1.382.805,2.982,1.207,4.801,1.207s3.419-.402,4.801-1.207c1.382-.805,2.466-1.915,3.253-3.332.787-1.417,1.181-3.052,1.181-4.906s-.394-3.489-1.181-4.906-1.871-2.527-3.253-3.332c-1.382-.805-2.982-1.207-4.801-1.207s-2.963.325-4.624,1.022c0,0-4.426,1.959-4.611,7.924"/>
</svg>