<?xml version="1.0" encoding="UTF-8"?>
<svg id="_8" data-name="8" xmlns="http://www.w3.org/2000/svg" viewBox="0 0 21.331 35.902">
  <defs>
    <style>
      .cls-1 {
        fill: none;
        stroke: #d40065;
        stroke-linecap: round;
        stroke-width: 2.5px;
      }
    </style>
  </defs>
  <path id="_2" data-name="2" class="cls-1" d="M10.684,34.62c-1.871.036-3.57-.228-5.01-.896s-2.528-1.639-3.266-2.916c-.738-1.277-1.133-3.256-1.156-4.447s.223-2.289.562-3.189.947-1.707,1.736-2.418c.79-.611,1.759-1.226,2.908-1.745s2.478-.942,4.072-1.47l.294-.103c1.594-.528,2.807-.851,4.043-1.471,1.147-.618,2.116-1.233,2.904-1.944.699-.709,1.221-1.414,1.561-2.216s.508-1.4.484-2.592-.223-2.28-.688-3.264-1.106-1.866-1.922-2.545c-.817-.779-1.807-1.256-2.974-1.631-1.166-.375-2.596-.545-3.843-.521" vector-effect="non-scaling-stroke"/>
  <path id="_1" data-name=" 1" class="cls-1" d="M10.757,1.281c-1.248-.015-2.676.166-3.84.549-1.163.383-2.15.868-2.961,1.653-.811.685-1.445,1.572-1.903,2.559s-.649,2.078-.663,3.269.157,1.79.504,2.588.873,1.5,1.578,2.204c.794.705,1.767,1.312,2.918,1.922,1.241.611,2.573,1.024,4.171,1.54l.178.002c1.598.516,2.93.929,4.083,1.44s2.126,1.118,2.921,1.724c.794.705,1.408,1.507,1.754,2.405s.6,1.994.585,3.185-.395,3.173-1.124,4.456c-.729,1.282-1.81,2.262-3.244,2.94s-3.131.955-5.003.933" vector-effect="non-scaling-stroke"/>
</svg>