<?xml version="1.0" encoding="UTF-8"?>
<svg id="e" xmlns="http://www.w3.org/2000/svg" viewBox="0 0 16.331 18.383">
  <defs>
    <style>
      .cls-1 {
        fill: none;
        stroke: #000;
        stroke-linecap: round;
        stroke-width: 2.5px;
      }
    </style>
  </defs>
  <g id="_1" data-name="1">
    <path id="_0" data-name="0" class="cls-1" d="M14.31,14.927c-.49.451-1.015.838-1.574,1.162s-1.167.578-1.824.765c-.657.186-1.358.279-2.103.279-1.49,0-2.804-.343-3.941-1.029-1.137-.686-2.025-1.637-2.662-2.853-.637-1.216-.956-2.598-.956-4.147,0-1.157.176-2.216.529-3.177.353-.961.848-1.789,1.485-2.485.637-.696,1.397-1.235,2.28-1.618.882-.382,1.853-.574,2.912-.574.98,0,1.882.162,2.706.485.824.324,1.534.794,2.132,1.412.598.618,1.054,1.358,1.368,2.221.314.863.451,1.833.412,2.912l-.029.765c-4.598.02-9.197.039-13.795.059"/>
  </g>
</svg>