<?xml version="1.0" encoding="UTF-8"?>
<svg id="s" xmlns="http://www.w3.org/2000/svg" version="1.1" viewBox="0 0 13.2 18.4">
  <!-- Generator: Adobe Illustrator 29.2.1, SVG Export Plug-In . SVG Version: 2.1.0 Build 116)  -->
  <defs>
    <style>
      .st0 {
        fill: none;
        stroke: #d40065;
        stroke-linecap: round;
        stroke-width: 2.5px;
      }
    </style>
  </defs>
  <path class="st0" d="M11.9,3.6c-.4-.5-.9-.9-1.5-1.3s-1.1-.6-1.7-.8c-.6-.2-1.3-.3-1.9-.3s-1.4,0-2,.3c-.6.2-1.1.4-1.5.8-.4.3-.8.8-1,1.2s-.4,1-.4,1.6,0,.9.3,1.2c.2.4.5.7.8,1,.4.3.9.6,1.6.9.6.3,1.4.5,2.2.7h.1c.8.2,1.6.4,2.2.7.6.2,1.1.5,1.6.8.4.3.8.7,1,1.1s.3.9.3,1.5-.2,1.5-.6,2.1-1,1.1-1.7,1.4c-.8.3-1.6.5-2.7.5s-2.4-.2-3.4-.7-1.8-1.1-2.3-1.9" vector-effect="non-scaling-stroke"/>
</svg>