<?xml version="1.0" encoding="UTF-8"?><svg id="Layer_1" xmlns="http://www.w3.org/2000/svg" viewBox="0 0 1082.352 838.759"><path d="M19.15,651.093L226.736,114.893h84.26l206.054,536.2h-88.09l-122.56-323.252c-1.532-3.567-4.477-12.256-8.81-26.044-4.345-13.788-9.323-29.108-14.937-45.96-5.626-16.852-10.725-32.292-15.32-46.343-4.596-14.039-7.66-23.1-9.192-27.193l17.618-.766c-3.063,8.689-6.774,19.665-11.106,32.938-4.345,13.286-8.941,27.325-13.788,42.13-4.859,14.817-9.575,28.725-14.171,41.747-4.597,13.022-8.426,23.878-11.49,32.555l-121.794,320.188H19.15ZM111.07,517.809l30.64-79.664h243.588l35.236,79.664H111.07Z"/><path d="M807.36,658.753c-33.201,0-63.458-9.192-90.771-27.576-27.325-18.384-49.156-43.398-65.493-75.067-16.35-31.657-24.512-67.408-24.512-107.24,0-40.335,8.294-76.217,24.895-107.624,16.589-31.406,39.066-56.038,67.408-73.919,28.342-17.869,60.131-26.81,95.367-26.81,20.933,0,40.083,3.064,57.449,9.192,17.355,6.128,32.556,14.686,45.577,25.661,13.022,10.987,23.746,23.626,32.172,37.917,8.427,14.303,13.657,29.623,15.703,45.96l-17.618-6.128v-104.176h79.664v402.15h-79.664v-95.75l18.385-5.361c-3.064,13.787-9.324,27.192-18.768,40.215-9.455,13.021-21.447,24.644-36.002,34.853-14.554,10.222-30.64,18.384-48.258,24.512-17.618,6.129-36.134,9.192-55.535,9.192ZM828.043,585.983c23.997,0,45.193-5.865,63.577-17.618,18.385-11.741,32.807-27.959,43.279-48.642,10.461-20.682,15.703-44.296,15.703-70.854,0-26.044-5.242-49.276-15.703-69.707-10.473-20.418-24.895-36.504-43.279-48.258-18.384-11.741-39.58-17.618-63.577-17.618-23.495,0-44.309,5.877-62.43,17.618-18.133,11.753-32.435,27.839-42.896,48.258-10.473,20.431-15.703,43.663-15.703,69.707,0,26.559,5.23,50.173,15.703,70.854,10.461,20.683,24.763,36.9,42.896,48.642,18.121,11.753,38.935,17.618,62.43,17.618Z"/></svg>