<?xml version="1.0" encoding="UTF-8"?><svg id="Layer_1" xmlns="http://www.w3.org/2000/svg" viewBox="0 0 534.929 360.096"><path d="M87.792,290.533c-16.124,0-30.818-4.465-44.082-13.393-13.27-8.928-23.872-21.076-31.806-36.456C3.964,225.31,0,207.949,0,188.604c0-19.588,4.028-37.014,12.09-52.266,8.056-15.252,18.972-27.214,32.736-35.898,13.764-8.678,29.202-13.02,46.314-13.02,10.166,0,19.466,1.488,27.9,4.464,8.428,2.976,15.81,7.132,22.134,12.462,6.324,5.336,11.532,11.474,15.624,18.414,4.092,6.946,6.632,14.386,7.626,22.32l-8.556-2.976v-50.592h38.688v195.3h-38.688v-46.5l8.928-2.604c-1.488,6.695-4.528,13.205-9.114,19.529-4.592,6.324-10.416,11.969-17.484,16.926-7.068,4.965-14.88,8.928-23.436,11.904s-17.548,4.465-26.97,4.465ZM97.836,255.192c11.654,0,21.948-2.849,30.876-8.556,8.928-5.702,15.932-13.578,21.018-23.622,5.08-10.044,7.626-21.513,7.626-34.41,0-12.648-2.546-23.93-7.626-33.852-5.086-9.916-12.09-17.728-21.018-23.436-8.928-5.702-19.222-8.556-30.876-8.556-11.41,0-21.518,2.854-30.318,8.556-8.806,5.708-15.751,13.52-20.832,23.436-5.086,9.922-7.626,21.204-7.626,33.852,0,12.897,2.54,24.366,7.626,34.41,5.081,10.044,12.026,17.92,20.832,23.622,8.8,5.707,18.908,8.556,30.318,8.556Z"/><path d="M329.59,290.533c-17.855,0-33.794-4.4-47.802-13.207-14.014-8.8-25.11-20.832-33.294-36.084-8.184-15.252-12.276-32.672-12.276-52.266s4.028-37.014,12.09-52.266c8.056-15.252,19.03-27.278,32.921-36.084,13.887-8.8,29.633-13.206,47.244-13.206,9.672,0,19.03,1.552,28.086,4.65,9.051,3.104,17.171,7.318,24.366,12.648,7.19,5.336,12.834,11.16,16.926,17.484,4.093,6.324,6.139,12.712,6.139,19.158l-11.16.744V11.532h38.315v275.28h-38.315v-46.5h7.439c0,5.952-1.987,11.846-5.951,17.67-3.971,5.83-9.242,11.225-15.811,16.182-6.574,4.965-14.136,8.928-22.692,11.904-8.556,2.977-17.298,4.465-26.226,4.465ZM334.798,257.423c11.654,0,21.948-2.975,30.876-8.928,8.928-5.951,15.932-14.072,21.018-24.365,5.081-10.289,7.627-22.006,7.627-35.154s-2.546-24.86-7.627-35.154c-5.086-10.288-12.09-18.414-21.018-24.366s-19.222-8.928-30.876-8.928-21.948,2.976-30.876,8.928-15.938,14.078-21.018,24.366c-5.086,10.294-7.626,22.012-7.626,35.154s2.54,24.865,7.626,35.154c5.08,10.293,12.09,18.414,21.018,24.365,8.928,5.953,19.216,8.928,30.876,8.928Z"/><path d="M460.529,360.096l-14.508-29.388c9.672,0,17.67-1.674,23.994-5.022s11.096-8.312,14.322-14.88c3.22-6.574,4.836-14.694,4.836-24.366V91.512h38.315v204.228c0,12.648-2.79,23.809-8.369,33.48-5.58,9.672-13.393,17.234-23.437,22.691-10.044,5.453-21.762,8.185-35.154,8.185ZM509.261,48.36c-8.184,0-14.508-2.104-18.972-6.324-4.465-4.214-6.696-10.166-6.696-17.856,0-7.19,2.29-13.02,6.882-17.484,4.586-4.464,10.846-6.696,18.786-6.696,8.184,0,14.508,2.11,18.972,6.324,4.464,4.22,6.696,10.172,6.696,17.856,0,7.196-2.296,13.02-6.882,17.484-4.592,4.464-10.853,6.696-18.786,6.696Z"/></svg>