<?xml version="1.0" encoding="UTF-8"?>
<svg id="Layer_1" data-name="Layer 1" xmlns="http://www.w3.org/2000/svg" viewBox="0 0 850.136 339.5">
  <path d="M96.6,262.5c-7.935,0-15.81-1.285-23.625-3.85-7.82-2.565-14.935-6.005-21.35-10.325-6.42-4.314-11.785-9.1-16.1-14.35-4.32-5.25-7.175-10.555-8.575-15.926l9.1-4.899v44.8H0V0h36.05v117.25l-5.6-3.15c1.165-5.365,3.73-10.555,7.7-15.575,3.965-5.015,9.04-9.565,15.225-13.65,6.18-4.08,12.89-7.35,20.125-9.8,7.229-2.45,14.58-3.675,22.05-3.675,16.565,0,31.265,4.085,44.1,12.25,12.83,8.17,22.979,19.425,30.45,33.775,7.465,14.35,11.2,30.746,11.2,49.176s-3.675,34.885-11.025,49.35c-7.35,14.471-17.445,25.846-30.275,34.125-12.835,8.285-27.3,12.425-43.4,12.425ZM90.65,229.601c10.729,0,20.3-2.74,28.7-8.226,8.4-5.479,15.05-12.95,19.95-22.399,4.9-9.45,7.35-20.24,7.35-32.375,0-11.9-2.396-22.576-7.175-32.025-4.785-9.45-11.375-16.855-19.775-22.225-8.4-5.365-18.085-8.05-29.05-8.05s-20.65,2.686-29.05,8.05c-8.4,5.37-15.05,12.775-19.95,22.225-4.9,9.45-7.35,20.125-7.35,32.025,0,12.135,2.45,22.925,7.35,32.375,4.9,9.449,11.55,16.92,19.95,22.399,8.4,5.485,18.08,8.226,29.05,8.226Z"/>
  <path d="M275.096,262.5c-17.035,0-32.26-4.2-45.675-12.6-13.42-8.4-24.035-19.83-31.85-34.3-7.82-14.465-11.725-30.68-11.725-48.65s3.905-34.18,11.725-48.65c7.815-14.465,18.43-25.9,31.85-34.3,13.415-8.4,28.64-12.6,45.675-12.6,16.33,0,31.205,3.325,44.625,9.975,13.415,6.65,23.625,15.695,30.625,27.125l-19.95,24.5c-3.735-5.365-8.52-10.265-14.35-14.7-5.835-4.43-12.021-7.93-18.55-10.5-6.535-2.564-12.835-3.85-18.9-3.85-11.2,0-21.175,2.745-29.925,8.225-8.75,5.485-15.695,13.01-20.825,22.575-5.135,9.57-7.7,20.3-7.7,32.2s2.68,22.575,8.05,32.025c5.365,9.449,12.479,16.975,21.35,22.574,8.865,5.601,18.665,8.4,29.4,8.4,6.3,0,12.425-1.05,18.375-3.15,5.95-2.1,11.725-5.25,17.325-9.449,5.6-4.2,10.85-9.33,15.75-15.4l19.95,24.5c-7.47,10.5-18.146,19.135-32.025,25.9-13.885,6.765-28.295,10.149-43.225,10.149Z"/>
  <path d="M437.493,262.5c-16.801,0-31.796-4.14-44.976-12.425-13.185-8.279-23.625-19.6-31.325-33.95-7.7-14.35-11.55-30.739-11.55-49.175s3.79-34.825,11.375-49.175c7.58-14.35,17.905-25.665,30.975-33.95,13.065-8.28,27.879-12.425,44.45-12.425,9.1,0,17.904,1.46,26.426,4.375,8.515,2.92,16.154,6.885,22.925,11.9,6.765,5.021,12.074,10.5,15.925,16.45,3.85,5.95,5.774,11.96,5.774,18.025l-10.5.7V0h36.051v259h-36.051v-43.75h7c0,5.601-1.87,11.146-5.6,16.625-3.735,5.485-8.695,10.561-14.875,15.226-6.186,4.67-13.3,8.399-21.351,11.199-8.049,2.801-16.274,4.2-24.674,4.2ZM442.393,231.351c10.965,0,20.649-2.801,29.05-8.4s14.99-13.24,19.775-22.925c4.779-9.68,7.175-20.705,7.175-33.075s-2.396-23.39-7.175-33.075c-4.785-9.68-11.375-17.325-19.775-22.925-8.4-5.6-18.085-8.4-29.05-8.4s-20.649,2.8-29.05,8.4c-8.4,5.6-14.996,13.245-19.775,22.925-4.785,9.685-7.175,20.71-7.175,33.075s2.39,23.396,7.175,33.075c4.78,9.685,11.375,17.325,19.775,22.925s18.08,8.4,29.05,8.4Z"/>
  <path d="M549.839,111.65v-33.25h109.2v33.25h-109.2ZM579.239,259V54.6c0-10.5,2.329-19.83,7-28,4.664-8.165,11.079-14.58,19.25-19.25,8.164-4.665,17.614-7,28.35-7,7.465,0,14.465,1.4,21,4.2,6.529,2.8,11.779,6.535,15.75,11.2l-12.25,27.65c-3.035-2.8-6.36-5.075-9.975-6.825-3.621-1.75-7.061-2.625-10.325-2.625-4.9,0-9.046.76-12.425,2.275-3.386,1.52-5.896,3.85-7.525,7-1.635,3.15-2.45,6.945-2.45,11.375v204.4h-36.399Z"/>
  <path d="M755.636,339.5c-13.07,0-26.075-2.045-39.025-6.125-12.95-4.084-23.396-9.395-31.325-15.924l13.301-28c4.664,3.5,10.149,6.59,16.449,9.273,6.301,2.68,12.95,4.781,19.95,6.301,7,1.516,13.88,2.275,20.65,2.275,12.829,0,23.564-2.1,32.2-6.301,8.629-4.199,15.164-10.385,19.6-18.549,4.43-8.172,6.65-18.321,6.65-30.451v-35.35l3.85,2.45c-1.17,7.234-4.96,14.175-11.375,20.824-6.42,6.65-14.41,12.075-23.975,16.275-9.57,4.2-19.371,6.3-29.4,6.3-17.5,0-33.075-4.14-46.725-12.425-13.65-8.279-24.445-19.6-32.375-33.95-7.936-14.35-11.9-30.739-11.9-49.175s3.904-34.825,11.725-49.175c7.815-14.35,18.551-25.665,32.2-33.95,13.65-8.28,28.99-12.425,46.025-12.425,7,0,13.765.875,20.3,2.625,6.529,1.75,12.6,4.2,18.2,7.35,5.6,3.15,10.614,6.595,15.05,10.325,4.43,3.735,8.05,7.7,10.85,11.9,2.801,4.2,4.551,8.17,5.25,11.9l-7.699,2.8v-43.05h36.05v172.55c0,14.7-2.16,27.706-6.476,39.026-4.32,11.314-10.56,20.879-18.725,28.699-8.17,7.814-18.085,13.766-29.75,17.85-11.67,4.08-24.85,6.125-39.55,6.125ZM757.035,229.25c11.43,0,21.58-2.68,30.45-8.05,8.865-5.365,15.75-12.715,20.65-22.05,4.899-9.33,7.35-20.065,7.35-32.2s-2.51-22.925-7.524-32.375c-5.021-9.45-11.9-16.855-20.65-22.225-8.75-5.365-18.846-8.05-30.275-8.05-11.199,0-21.175,2.746-29.925,8.225-8.75,5.485-15.635,12.95-20.649,22.4-5.021,9.45-7.525,20.125-7.525,32.025s2.505,22.575,7.525,32.025c5.015,9.449,11.899,16.859,20.649,22.225,8.75,5.37,18.726,8.05,29.925,8.05Z"/>
</svg>