<?xml version="1.0" encoding="UTF-8"?>
<svg id="Layer_1" data-name="Layer 1" xmlns="http://www.w3.org/2000/svg" viewBox="0 0 9.935 51.191">
  <path d="M4.968,51.191c-1.584,0-2.808-.468-3.672-1.403-.864-.937-1.296-2.269-1.296-3.996,0-1.584.456-2.88,1.368-3.889.911-1.008,2.112-1.512,3.6-1.512,1.584,0,2.807.468,3.672,1.404.863.936,1.295,2.268,1.295,3.996,0,1.584-.455,2.88-1.367,3.888s-2.113,1.512-3.6,1.512ZM3.024,33.048c-.336-3.024-.637-6.156-.9-9.396-.264-3.24-.468-6.444-.612-9.612s-.216-6.167-.216-9V0h7.776v5.04c0,2.977-.072,6.096-.217,9.36-.143,3.265-.348,6.492-.611,9.684-.264,3.193-.564,6.181-.9,8.964H3.024Z"/>
</svg>