<?xml version="1.0" encoding="UTF-8"?>
<svg id="Layer_1" data-name="Layer 1" xmlns="http://www.w3.org/2000/svg" viewBox="0 0 31.557 46.364">
  <path d="M14.338,46.364c-2.948,0-5.489-.251-7.622-.754-2.133-.502-3.785-1.317-4.958-2.445-1.172-1.128-1.759-2.642-1.759-4.539v-.134c0-1.341.318-2.457.955-3.351.636-.894,1.496-1.597,2.579-2.11,1.083-.514,2.295-.859,3.635-1.038l-.033-.201c-1.832-.312-3.183-.854-4.054-1.625s-1.306-1.77-1.306-2.998v-.033c0-.849.195-1.575.586-2.178.391-.604.982-1.083,1.775-1.44.792-.357,1.803-.581,3.032-.67v-.67l6.231,1.574-2.546-.067c-1.519.022-2.568.207-3.149.553-.581.347-.871.866-.871,1.558v.034c0,.736.413,1.295,1.24,1.675.826.38,2.233.682,4.221.904l7.939.804c3.462.357,5.985,1.189,7.571,2.496s2.379,3.232,2.379,5.778v.168c0,2.032-.604,3.696-1.81,4.991s-2.915,2.239-5.126,2.831-4.857.888-7.939.888h-.971ZM14.874,24.019c-4.444,0-7.855-.972-10.234-2.914-2.379-1.943-3.568-4.724-3.568-8.342v-.837c0-2.255.463-4.221,1.39-5.896.926-1.675,2.406-2.987,4.439-3.936,2.032-.949,4.69-1.468,7.973-1.558l16.683-.536v4.288l-9.85-.335-.033.235c1.541.313,2.803.849,3.785,1.608.983.759,1.715,1.708,2.195,2.847.479,1.139.72,2.468.72,3.987v.737c0,3.462-1.139,6.103-3.417,7.922-2.278,1.821-5.64,2.73-10.083,2.73ZM14.64,42.042h.771c2.01,0,3.735-.151,5.175-.452,1.44-.302,2.552-.776,3.333-1.424.782-.648,1.173-1.508,1.173-2.58v-.134c0-1.251-.452-2.206-1.356-2.864-.904-.659-2.451-1.089-4.64-1.29l-9.246-.837,1.541-.067c-1.251.18-2.351.469-3.3.871s-1.692.933-2.228,1.592c-.536.658-.804,1.479-.804,2.462v.067c0,1.139.391,2.054,1.172,2.746s1.887,1.184,3.317,1.475c1.429.29,3.126.436,5.092.436ZM14.807,20c1.876,0,3.434-.273,4.673-.821,1.239-.547,2.178-1.373,2.814-2.479s.954-2.462.954-4.07v-.804c0-1.563-.307-2.892-.921-3.986s-1.536-1.926-2.764-2.496c-1.229-.57-2.77-.854-4.623-.854h-.201c-2.01,0-3.646.307-4.908.921-1.262.614-2.178,1.474-2.747,2.58-.569,1.105-.854,2.395-.854,3.869v.771c0,1.608.318,2.959.955,4.053.636,1.094,1.591,1.921,2.864,2.479,1.273.559,2.858.838,4.757.838Z"/>
</svg>