<?xml version="1.0" encoding="UTF-8"?><svg id="Layer_1" xmlns="http://www.w3.org/2000/svg" viewBox="0 0 134.729 98.548"><path d="M6.3,76.499V29.249h9.36v10.08l-1.71,1.08c.479-1.56,1.244-3.06,2.295-4.5,1.049-1.44,2.34-2.714,3.87-3.825,1.53-1.109,3.179-1.994,4.95-2.655,1.769-.66,3.584-.99,5.445-.99,2.7,0,5.07.45,7.11,1.35,2.039.9,3.719,2.25,5.04,4.05,1.319,1.8,2.279,4.05,2.88,6.75l-1.44-.36.63-1.53c.66-1.38,1.575-2.685,2.745-3.915,1.17-1.229,2.504-2.325,4.005-3.285,1.499-.959,3.09-1.71,4.77-2.25s3.33-.81,4.951-.81c3.539,0,6.463.72,8.773,2.16,2.311,1.44,4.051,3.631,5.221,6.57,1.17,2.94,1.756,6.601,1.756,10.98v28.35h-9.361v-27.81c0-2.7-.346-4.905-1.035-6.615s-1.725-2.984-3.104-3.825c-1.381-.839-3.15-1.26-5.311-1.26-1.68,0-3.256.285-4.725.855-1.471.571-2.745,1.365-3.825,2.385-1.08,1.021-1.921,2.205-2.52,3.555-.6,1.35-.9,2.835-.9,4.455v28.259h-9.36v-27.99c0-2.459-.36-4.545-1.08-6.255s-1.771-3.015-3.15-3.915c-1.381-.9-3.06-1.35-5.04-1.35-1.681,0-3.24.285-4.68.855-1.44.571-2.7,1.35-3.78,2.34-1.08.99-1.921,2.16-2.52,3.51-.601,1.35-.9,2.806-.9,4.365v28.439H6.3Z"/><path d="M96.84,97.199l9.54-22.05.09,7.38-23.58-53.28h10.8l14.76,34.74c.3.601.66,1.516,1.08,2.745.419,1.23.779,2.445,1.08,3.645l-2.34.54c.479-1.26.945-2.52,1.395-3.779.45-1.261.885-2.521,1.306-3.78l12.33-34.11h10.979l-19.439,47.25-8.011,20.7h-9.989Z"/></svg>