<?xml version="1.0" encoding="UTF-8"?><svg id="Layer_1" xmlns="http://www.w3.org/2000/svg" viewBox="0 0 188.857 39.384"><path d="M0,38.665V.864h7.416v7.776l-1.296.864c.479-1.68,1.416-3.228,2.809-4.644,1.392-1.415,3.047-2.567,4.968-3.456,1.919-.888,3.888-1.332,5.904-1.332,2.88,0,5.279.564,7.199,1.692,1.92,1.128,3.359,2.844,4.32,5.148.96,2.304,1.44,5.208,1.44,8.711v23.041h-7.416v-22.537c0-2.159-.288-3.947-.864-5.363-.576-1.416-1.465-2.448-2.664-3.096-1.2-.648-2.688-.923-4.464-.828-1.44,0-2.761.229-3.96.684-1.2.457-2.244,1.092-3.132,1.908-.889.817-1.584,1.764-2.088,2.844-.505,1.08-.757,2.244-.757,3.492v22.896H0Z"/><path d="M57.382,39.384c-3.12,0-5.964-.864-8.531-2.593-2.568-1.728-4.621-4.078-6.156-7.056-1.537-2.976-2.304-6.336-2.304-10.079,0-3.792.779-7.165,2.34-10.117,1.559-2.952,3.672-5.267,6.336-6.948C51.731.913,54.719.072,58.031.072c1.968,0,3.768.288,5.4.864,1.631.576,3.06,1.38,4.283,2.412,1.225,1.033,2.232,2.221,3.024,3.564.792,1.344,1.283,2.784,1.476,4.32l-1.655-.576V.864h7.487v37.8h-7.487v-9l1.728-.504c-.288,1.295-.876,2.555-1.764,3.779-.889,1.225-2.017,2.316-3.384,3.275-1.368.961-2.881,1.729-4.536,2.305-1.656.576-3.396.864-5.221.864ZM59.327,32.543c2.256,0,4.248-.551,5.977-1.655,1.728-1.104,3.083-2.628,4.067-4.572.983-1.944,1.477-4.163,1.477-6.659,0-2.449-.493-4.633-1.477-6.553-.984-1.919-2.34-3.431-4.067-4.536-1.729-1.104-3.721-1.656-5.977-1.656-2.208,0-4.165.552-5.868,1.656-1.704,1.105-3.049,2.617-4.031,4.536-.984,1.92-1.477,4.104-1.477,6.553,0,2.496.492,4.715,1.477,6.659.982,1.944,2.327,3.469,4.031,4.572,1.703,1.104,3.66,1.655,5.868,1.655Z"/><path d="M88.271,38.665V.864h7.488v8.064l-1.368.864c.384-1.248.995-2.448,1.836-3.6.839-1.152,1.872-2.171,3.096-3.06,1.225-.887,2.544-1.595,3.96-2.124,1.415-.528,2.868-.792,4.356-.792,2.16,0,4.056.36,5.688,1.08,1.632.72,2.976,1.8,4.032,3.24,1.056,1.44,1.823,3.24,2.304,5.4l-1.151-.288.504-1.224c.527-1.104,1.26-2.147,2.196-3.132.936-.983,2.003-1.859,3.203-2.628,1.199-.767,2.472-1.368,3.816-1.8,1.343-.432,2.664-.648,3.96-.648,2.832,0,5.172.576,7.021,1.728,1.847,1.152,3.239,2.905,4.176,5.256.936,2.352,1.403,5.281,1.403,8.784v22.681h-7.487v-22.248c0-2.16-.277-3.924-.828-5.292-.553-1.368-1.381-2.387-2.484-3.06-1.104-.671-2.52-1.008-4.248-1.008-1.344,0-2.604.229-3.779.684-1.177.457-2.196,1.092-3.061,1.908-.864.817-1.537,1.764-2.016,2.844-.48,1.081-.721,2.268-.721,3.564v22.608h-7.487v-22.393c0-1.968-.288-3.636-.864-5.004s-1.416-2.412-2.52-3.132c-1.105-.72-2.448-1.08-4.032-1.08-1.345,0-2.592.229-3.744.684-1.152.457-2.16,1.08-3.024,1.872-.863.792-1.536,1.728-2.016,2.808-.48,1.081-.72,2.245-.72,3.493v22.752h-7.488Z"/><path d="M172.366,39.384c-3.889,0-7.333-.828-10.332-2.484-3.001-1.655-5.353-3.924-7.057-6.804-1.704-2.881-2.556-6.191-2.556-9.936,0-2.977.479-5.688,1.44-8.137.959-2.448,2.291-4.572,3.996-6.372,1.703-1.8,3.743-3.191,6.119-4.176,2.376-.983,4.956-1.476,7.74-1.476,2.448,0,4.728.468,6.84,1.404,2.112.936,3.948,2.221,5.509,3.852,1.559,1.633,2.759,3.564,3.6,5.796.839,2.231,1.235,4.669,1.188,7.308l-.071,3.168h-30.889l-1.655-5.904h26.136l-1.08,1.225v-1.729c-.144-1.584-.673-2.999-1.584-4.248-.912-1.248-2.064-2.232-3.456-2.952-1.393-.72-2.904-1.08-4.536-1.08-2.592,0-4.776.493-6.552,1.476-1.776.984-3.121,2.424-4.032,4.32-.912,1.896-1.368,4.237-1.368,7.021,0,2.64.552,4.932,1.656,6.875,1.104,1.944,2.664,3.445,4.68,4.5,2.017,1.057,4.344,1.584,6.984,1.584,1.872,0,3.611-.312,5.22-.936,1.608-.623,3.349-1.752,5.221-3.385l3.743,5.257c-1.151,1.151-2.556,2.159-4.212,3.024-1.655.863-3.408,1.547-5.256,2.051s-3.66.757-5.436.757Z"/></svg>