<?xml version="1.0" encoding="UTF-8"?>
<svg id="Layer_1" data-name="Layer 1" xmlns="http://www.w3.org/2000/svg" viewBox="0 0 24.778 40.064">
  <path d="M10.031,40.064c-2.06,0-3.858-.388-5.394-1.165-1.538-.777-2.83-1.743-3.878-2.901l2.711-3.091c.794.942,1.763,1.681,2.901,2.224s2.305.814,3.497.814c1.844,0,3.543-.543,5.096-1.628,1.555-1.083,2.802-2.899,3.741-5.447.94-2.55,1.41-5.974,1.41-10.276,0-3.179-.335-5.864-1.004-8.05s-1.652-3.85-2.954-4.988-2.874-1.707-4.717-1.707c-1.266,0-2.405.362-3.415,1.083-1.013.724-1.827,1.719-2.44,2.983-.615,1.266-.922,2.764-.922,4.5,0,1.663.263,3.117.785,4.364.525,1.246,1.328,2.206,2.413,2.874,1.083.668,2.42,1.002,4.011,1.002,1.266,0,2.63-.424,4.094-1.273s2.863-2.268,4.203-4.255l.216,3.958c-.796,1.048-1.727,1.97-2.793,2.764-1.066.796-2.151,1.401-3.252,1.816-1.103.417-2.215.624-3.336.624-2.204,0-4.139-.443-5.8-1.328-1.663-.887-2.947-2.215-3.85-3.986-.904-1.769-1.357-3.958-1.357-6.559,0-2.495.525-4.672,1.573-6.534,1.048-1.86,2.431-3.307,4.147-4.337s3.605-1.544,5.665-1.544c1.917,0,3.686.388,5.314,1.165,1.626.779,3.036,1.944,4.229,3.497,1.191,1.555,2.131,3.479,2.819,5.775.686,2.294,1.03,5.014,1.03,8.158,0,3.869-.408,7.167-1.22,9.896-.814,2.729-1.908,4.95-3.28,6.667-1.374,1.719-2.947,2.965-4.717,3.741-1.771.777-3.616,1.165-5.531,1.165Z"/>
</svg>