<?xml version="1.0" encoding="UTF-8"?><svg id="Layer_1" xmlns="http://www.w3.org/2000/svg" viewBox="0 0 955.207 486.937"><path d="M87.36,449.087V67.392l24.864,18.816-92.736,49.056L0,72.096,125.664,4.896h34.944v444.192h-73.248ZM12.768,482.015v-69.888h224.448v69.888H12.768Z"/><path d="M340.032,482.015l-22.176-55.104,143.808-161.952c7.612-8.064,15.562-17.356,23.857-27.888,8.284-10.521,16.232-21.389,23.855-32.592,7.612-11.193,13.776-22.281,18.48-33.264,4.704-10.973,7.056-21.389,7.056-31.248,0-14.333-2.804-26.544-8.4-36.624-5.606-10.08-13.671-17.808-24.191-23.184-10.531-5.376-23.185-8.064-37.968-8.064-12.999,0-25.768,3.812-38.305,11.424-12.547,7.623-23.971,18.375-34.271,32.256-10.311,13.892-18.375,30.02-24.192,48.384l-55.776-34.944c7.612-25.977,19.152-48.269,34.608-66.864,15.456-18.585,34.041-32.812,55.776-42.672,21.725-9.849,45.36-14.784,70.896-14.784,26.429,0,49.949,5.492,70.561,16.464,20.601,10.983,36.729,26.208,48.384,45.696,11.645,19.488,17.472,42,17.472,67.536,0,10.311-1.123,20.832-3.359,31.584-2.247,10.752-5.828,21.84-10.752,33.264-4.936,11.424-11.204,23.3-18.816,35.616-7.623,12.327-16.695,25.2-27.216,38.64-10.531,13.44-22.513,27.552-35.952,42.336l-106.849,116.256-13.44-20.16h231.168v69.888h-284.256Z"/><path d="M747.832,472.335c-20.344-9.73-36.699-23.84-49.055-42.328-12.361-18.482-20.18-40.738-23.461-66.773h68.25c1.969,13.566,6.234,24.723,12.797,33.469,6.562,8.752,15.037,15.258,25.43,19.523,10.387,4.266,22.584,6.398,36.586,6.398,22.092,0,39.262-5.906,51.516-17.719,12.248-11.812,18.375-28.434,18.375-49.875v-14.438c0-23.84-5.799-42.271-17.391-55.289-11.598-13.012-28.004-19.523-49.219-19.523h-33.797v-63.656h33.797c18.59,0,33.027-5.578,43.312-16.734,10.279-11.156,15.422-26.906,15.422-47.25v-14.766c0-18.811-5.414-33.356-16.242-43.641-10.828-10.279-26.199-15.422-46.102-15.422-11.377,0-21.549,2.133-30.516,6.398-8.973,4.266-16.57,10.828-22.805,19.688s-10.777,19.964-13.617,33.305h-67.922c4.373-26.029,12.633-48.342,24.773-66.938,12.141-18.59,27.506-32.7,46.102-42.328,18.59-9.623,39.918-14.438,63.984-14.438,41.123,0,72.951,10.828,95.484,32.484,22.527,21.656,33.797,52.172,33.797,91.547v7.875c0,23.846-6.455,44.625-19.359,62.344-12.91,17.719-31.172,30.628-54.797,38.719,26.029,5.691,46.209,18.488,60.539,38.391,14.324,19.908,21.492,45.281,21.492,76.125v7.875c0,27.783-5.363,51.516-16.078,71.203-10.721,19.688-26.307,34.674-46.758,44.953-20.457,10.285-45.117,15.422-73.992,15.422-26.691,0-50.203-4.87-70.547-14.602Z"/></svg>