<?xml version="1.0" encoding="UTF-8"?>
<svg id="Layer_1" data-name="Layer 1" xmlns="http://www.w3.org/2000/svg" viewBox="0 0 46.132 53.8">
  <path d="M13.888,30.575c-2.651,0-5.021-.662-7.112-1.987-2.091-1.325-3.743-3.137-4.956-5.433-1.214-2.295-1.82-4.917-1.82-7.867s.597-5.572,1.792-7.868c1.194-2.296,2.828-4.106,4.9-5.432,2.072-1.325,4.414-1.988,7.028-1.988,1.456,0,2.846.243,4.172.728,1.325.486,2.52,1.12,3.584,1.904,1.064.784,1.904,1.652,2.52,2.604.616.952.924,1.914.924,2.884l-1.68.112V.56h5.768v41.776h-5.768v-19.32h1.12c0,.896-.299,1.783-.896,2.66-.598.878-1.4,1.689-2.408,2.436-1.008.747-2.128,1.345-3.36,1.792M14.504,25.256c1.754,0,3.304-.429,4.648-1.288,1.344-.858,2.398-2.034,3.164-3.528.765-1.492,1.148-3.21,1.148-5.152s-.383-3.668-1.148-5.18c-.766-1.512-1.82-2.697-3.164-3.556-1.344-.858-2.894-1.288-4.648-1.288s-3.304.439-4.648,1.316c-1.344.877-2.399,2.072-3.164,3.584-.766,1.512-1.148,3.22-1.148,5.124s.382,3.612,1.148,5.125c.765,1.512,1.82,2.697,3.164,3.555,1.344.859,2.893,1.288,4.648,1.288Z"/>
  <path d="M28.96,41.254c-.034,1.311.202,2.487.706,3.527.505,1.041,1.227,1.865,2.169,2.474.941.609,2.049.93,3.324.963.637.016,1.242-.029,1.811-.139.57-.11,1.143-.334,1.718-.674.576-.338,1.182-.82,1.818-1.441.637-.621,1.34-1.454,2.111-2.498l3.515,3.865c-.557.978-1.218,1.874-1.983,2.686-.765.814-1.625,1.509-2.579,2.086-.953.579-1.984,1.012-3.09,1.302-1.105.29-2.261.42-3.465.389-1.806-.047-3.436-.39-4.89-1.029-1.454-.64-2.707-1.506-3.761-2.596-1.053-1.089-1.852-2.36-2.4-3.809-.548-1.45-.799-3.024-.755-4.724"/>
</svg>