<?xml version="1.0" encoding="UTF-8"?>
<svg id="Layer_1" data-name="Layer 1" xmlns="http://www.w3.org/2000/svg" viewBox="0 0 6.896 10.09">
  <path d="M6.867,4.658c0,.824-.131,1.534-.393,2.13s-.629,1.062-1.102,1.397l1.523,1.195-.768.709-1.799-1.43c-.281.07-.578.105-.891.105-.672,0-1.268-.165-1.787-.495s-.923-.801-1.21-1.412S.008,5.539,0,4.734v-.615c0-.82.143-1.545.428-2.174S1.116.835,1.638.501s1.118-.501,1.79-.501c.688,0,1.292.166,1.813.498s.923.81,1.204,1.433.422,1.351.422,2.183v.545ZM5.742,4.107c0-1.004-.2-1.778-.601-2.323s-.972-.817-1.714-.817c-.707,0-1.265.271-1.673.812s-.618,1.292-.63,2.253v.627c0,.977.204,1.746.612,2.309s.976.844,1.702.844,1.289-.265,1.688-.794.604-1.288.615-2.276v-.633Z"/>
</svg>