<?xml version="1.0" encoding="UTF-8"?>
<svg id="Layer_1" data-name="Layer 1" xmlns="http://www.w3.org/2000/svg" viewBox="0 0 875.752 174.29">
  <path d="M0,132.964v-17.968h20.304V25.155H0V7.188h60.013v17.968h-20.304v89.841h20.304v17.968H0Z"/>
  <path d="M158.837,134.761c-7.788,0-14.885-2.156-21.292-6.469-6.41-4.312-11.53-10.18-15.363-17.608-3.835-7.426-5.75-15.812-5.75-25.155,0-9.462,1.946-17.879,5.84-25.245,3.891-7.367,9.164-13.145,15.812-17.34,6.648-4.191,14.105-6.288,22.37-6.288,4.91,0,9.402.719,13.476,2.156,4.071,1.438,7.637,3.444,10.691,6.019,3.055,2.578,5.57,5.542,7.547,8.895,1.977,3.355,3.203,6.948,3.683,10.781l-4.132-1.438v-24.437h18.687v94.332h-18.687v-22.46l4.312-1.258c-.719,3.234-2.187,6.379-4.402,9.434-2.218,3.054-5.031,5.78-8.445,8.175-3.414,2.397-7.187,4.312-11.32,5.75-4.132,1.438-8.476,2.156-13.027,2.156ZM163.688,117.691c5.629,0,10.601-1.376,14.914-4.133,4.312-2.755,7.695-6.559,10.152-11.41,2.454-4.852,3.684-10.391,3.684-16.62,0-6.109-1.23-11.559-3.684-16.352-2.457-4.789-5.84-8.562-10.152-11.319-4.312-2.754-9.285-4.133-14.914-4.133-5.511,0-10.394,1.379-14.644,4.133-4.253,2.757-7.608,6.53-10.062,11.319-2.457,4.793-3.684,10.242-3.684,16.352,0,6.229,1.227,11.769,3.684,16.62,2.454,4.852,5.809,8.655,10.062,11.41,4.25,2.757,9.133,4.133,14.644,4.133Z"/>
  <path d="M229.091,132.964V38.632h18.687v20.124l-3.414,2.156c.958-3.114,2.484-6.109,4.582-8.984,2.094-2.875,4.671-5.418,7.726-7.637,3.055-2.215,6.348-3.98,9.882-5.3,3.532-1.317,7.156-1.977,10.871-1.977,5.391,0,10.121.898,14.195,2.695,4.071,1.796,7.426,4.491,10.062,8.085,2.633,3.594,4.551,8.086,5.75,13.477l-2.875-.719,1.258-3.055c1.317-2.754,3.145-5.359,5.48-7.816,2.336-2.453,5-4.641,7.996-6.559,2.993-1.914,6.168-3.413,9.523-4.491,3.353-1.078,6.648-1.617,9.883-1.617,7.065,0,12.905,1.438,17.519,4.312,4.609,2.875,8.086,7.249,10.422,13.117,2.336,5.87,3.504,13.179,3.504,21.921v56.6h-18.688v-55.521c0-5.391-.689-9.793-2.066-13.206-1.379-3.414-3.445-5.958-6.199-7.637-2.757-1.676-6.289-2.516-10.601-2.516-3.355,0-6.5.57-9.433,1.707-2.937,1.14-5.48,2.726-7.637,4.762-2.156,2.038-3.835,4.402-5.031,7.097-1.199,2.695-1.797,5.66-1.797,8.895v56.42h-18.687v-55.881c0-4.91-.719-9.074-2.156-12.487-1.438-3.414-3.535-6.02-6.289-7.816-2.757-1.797-6.109-2.695-10.062-2.695-3.355,0-6.469.57-9.343,1.707-2.875,1.14-5.391,2.695-7.547,4.672s-3.835,4.312-5.031,7.007c-1.199,2.695-1.796,5.602-1.796,8.715v56.779h-18.687Z"/>
  <path d="M473.815,174.29c-6.71,0-13.387-1.05-20.034-3.144-6.648-2.098-12.011-4.824-16.082-8.176l6.828-14.375c2.395,1.797,5.211,3.384,8.445,4.762,3.234,1.376,6.647,2.454,10.241,3.234,3.594.777,7.126,1.168,10.602,1.168,6.586,0,12.098-1.078,16.53-3.234,4.431-2.156,7.785-5.331,10.062-9.522,2.274-4.195,3.414-9.405,3.414-15.633v-18.147l1.977,1.258c-.602,3.714-2.547,7.277-5.84,10.69-3.296,3.414-7.397,6.199-12.309,8.355-4.913,2.156-9.944,3.234-15.093,3.234-8.984,0-16.979-2.125-23.987-6.379-7.008-4.25-12.55-10.062-16.621-17.429-4.073-7.367-6.108-15.781-6.108-25.245s2.004-17.879,6.019-25.245c4.013-7.367,9.523-13.176,16.531-17.43,7.008-4.25,14.883-6.378,23.628-6.378,3.594,0,7.066.449,10.422,1.348,3.352.898,6.468,2.156,9.343,3.772,2.875,1.617,5.449,3.387,7.727,5.301,2.274,1.918,4.133,3.953,5.57,6.109s2.336,4.194,2.695,6.109l-3.953,1.438v-22.101h18.507v88.582c0,7.547-1.109,14.223-3.324,20.034-2.218,5.81-5.421,10.72-9.612,14.734-4.195,4.012-9.285,7.066-15.273,9.164-5.991,2.094-12.757,3.144-20.304,3.144ZM474.534,117.691c5.867,0,11.078-1.376,15.632-4.133,4.551-2.755,8.086-6.527,10.602-11.32,2.516-4.789,3.773-10.301,3.773-16.53s-1.289-11.77-3.863-16.621c-2.577-4.851-6.109-8.652-10.602-11.409-4.492-2.754-9.675-4.133-15.542-4.133-5.75,0-10.871,1.409-15.363,4.223-4.491,2.815-8.026,6.648-10.601,11.499-2.577,4.852-3.863,10.332-3.863,16.441s1.286,11.589,3.863,16.44c2.574,4.852,6.109,8.655,10.601,11.41,4.492,2.757,9.613,4.133,15.363,4.133Z"/>
  <path d="M583.777,134.761c-9.226,0-17.46-2.125-24.706-6.379-7.249-4.25-12.968-10.062-17.16-17.429-4.194-7.367-6.288-15.781-6.288-25.245s2.094-17.879,6.288-25.245c4.192-7.367,9.911-13.176,17.16-17.43,7.246-4.25,15.48-6.378,24.706-6.378,9.102,0,17.277,2.128,24.526,6.378,7.246,4.254,12.965,10.062,17.159,17.43,4.192,7.366,6.289,15.783,6.289,25.245s-2.097,17.878-6.289,25.245c-4.194,7.367-9.913,13.179-17.159,17.429-7.249,4.254-15.425,6.379-24.526,6.379ZM583.777,117.871c5.629,0,10.66-1.407,15.093-4.223,4.431-2.813,7.906-6.648,10.422-11.5s3.712-10.331,3.594-16.44c.118-6.228-1.078-11.77-3.594-16.621-2.516-4.851-5.991-8.652-10.422-11.409-4.433-2.754-9.464-4.133-15.093-4.133s-10.691,1.409-15.184,4.223c-4.491,2.815-7.995,6.648-10.511,11.499-2.516,4.852-3.715,10.332-3.594,16.441-.121,6.109,1.078,11.589,3.594,16.44s6.02,8.687,10.511,11.5c4.492,2.815,9.552,4.223,15.184,4.223Z"/>
  <path d="M687.452,134.761c-9.226,0-17.46-2.125-24.706-6.379-7.249-4.25-12.968-10.062-17.16-17.429-4.194-7.367-6.288-15.781-6.288-25.245s2.094-17.879,6.288-25.245c4.192-7.367,9.911-13.176,17.16-17.43,7.246-4.25,15.48-6.378,24.706-6.378,9.102,0,17.277,2.128,24.526,6.378,7.246,4.254,12.965,10.062,17.159,17.43,4.192,7.366,6.289,15.783,6.289,25.245s-2.097,17.878-6.289,25.245c-4.194,7.367-9.913,13.179-17.159,17.429-7.249,4.254-15.425,6.379-24.526,6.379ZM687.452,117.871c5.629,0,10.66-1.407,15.093-4.223,4.431-2.813,7.906-6.648,10.422-11.5s3.712-10.331,3.594-16.44c.118-6.228-1.078-11.77-3.594-16.621-2.516-4.851-5.991-8.652-10.422-11.409-4.433-2.754-9.464-4.133-15.093-4.133s-10.691,1.409-15.184,4.223c-4.491,2.815-7.995,6.648-10.511,11.499-2.516,4.852-3.715,10.332-3.594,16.441-.121,6.109,1.078,11.589,3.594,16.44s6.02,8.687,10.511,11.5c4.492,2.815,9.552,4.223,15.184,4.223Z"/>
  <path d="M788.071,134.761c-8.625,0-16.323-2.125-23.089-6.379-6.769-4.25-12.129-10.062-16.081-17.429-3.953-7.367-5.93-15.781-5.93-25.245s1.945-17.879,5.84-25.245c3.891-7.367,9.191-13.176,15.901-17.43,6.707-4.25,14.312-6.378,22.819-6.378,4.672,0,9.191.749,13.566,2.246,4.371,1.499,8.293,3.534,11.769,6.108,3.473,2.578,6.199,5.391,8.176,8.445s2.965,6.14,2.965,9.254l-5.391.359V0h18.507v132.964h-18.507v-22.46h3.594c0,2.875-.961,5.722-2.875,8.535-1.918,2.815-4.464,5.421-7.637,7.815-3.175,2.397-6.828,4.312-10.96,5.75-4.133,1.438-8.355,2.156-12.668,2.156ZM790.586,118.77c5.629,0,10.602-1.438,14.913-4.312,4.312-2.875,7.695-6.797,10.152-11.77,2.454-4.969,3.684-10.629,3.684-16.979s-1.229-12.008-3.684-16.98c-2.457-4.969-5.84-8.894-10.152-11.769-4.312-2.875-9.284-4.312-14.913-4.312s-10.602,1.438-14.914,4.312c-4.312,2.875-7.697,6.8-10.151,11.769-2.457,4.973-3.684,10.633-3.684,16.98s1.227,12.011,3.684,16.979c2.454,4.973,5.84,8.895,10.151,11.77,4.312,2.875,9.282,4.312,14.914,4.312Z"/>
  <path d="M863.354,134.94c-3.953,0-7.008-1.168-9.163-3.504-2.156-2.336-3.234-5.66-3.234-9.973,0-3.952,1.137-7.187,3.414-9.702,2.273-2.516,5.27-3.773,8.983-3.773,3.953,0,7.008,1.168,9.164,3.504s3.234,5.66,3.234,9.972c0,3.953-1.14,7.188-3.414,9.703-2.277,2.516-5.272,3.773-8.984,3.773Z"/>
</svg>