<?xml version="1.0" encoding="UTF-8"?><svg id="Layer_1" xmlns="http://www.w3.org/2000/svg" viewBox="0 0 1006.887 684"><path d="M251.712,684c-20.677,0-41.197-3.349-61.56-10.032-20.377-6.684-38.917-15.646-55.632-26.904-16.729-11.242-30.709-23.711-41.952-37.392-11.257-13.681-18.696-27.503-22.344-41.496l23.712-12.769v116.736H0V0h93.936v305.52l-14.592-8.208c3.036-13.979,9.719-27.502,20.064-40.584,10.332-13.067,23.556-24.923,39.672-35.568,16.103-10.63,33.587-19.152,52.44-25.536,18.838-6.384,37.99-9.576,57.456-9.576,43.163,0,81.467,10.645,114.912,31.92,33.431,21.29,59.879,50.616,79.345,88.008,19.451,37.392,29.184,80.113,29.184,128.136s-9.576,90.9-28.729,128.592c-19.151,37.705-45.457,67.346-78.888,88.92-33.444,21.588-71.136,32.376-113.088,32.376ZM236.208,598.272c27.958,0,52.896-7.14,74.784-21.433,21.888-14.278,39.216-33.744,51.983-58.368,12.769-24.624,19.152-52.739,19.152-84.359,0-31.008-6.241-58.824-18.696-83.448-12.469-24.624-29.64-43.918-51.527-57.912-21.888-13.979-47.125-20.976-75.696-20.976s-53.808,6.997-75.696,20.976c-21.888,13.994-39.216,33.288-51.984,57.912s-19.152,52.44-19.152,83.448c0,31.62,6.384,59.735,19.152,84.359s30.096,44.09,51.984,58.368c21.888,14.293,47.111,21.433,75.696,21.433Z"/><path d="M797.99,684c-49.247,0-92.881-10.488-130.871-31.464-38.005-20.977-67.802-49.704-89.376-86.184-21.589-36.48-32.376-78.433-32.376-125.856,0-37.691,6.07-72.048,18.239-103.056,12.155-31.008,29.027-57.912,50.616-80.712,21.574-22.8,47.424-40.427,77.521-52.896,30.096-12.455,62.771-18.696,98.04-18.696,31.008,0,59.878,5.928,86.64,17.784,26.747,11.856,50.003,28.129,69.768,48.792,19.751,20.677,34.955,45.144,45.601,73.416,10.63,28.271,15.646,59.138,15.048,92.568l-.912,40.127h-391.248l-20.976-74.783h331.056l-13.68,15.504v-21.889c-1.824-20.063-8.521-37.99-20.064-53.808-11.557-15.803-26.148-28.272-43.776-37.392-17.641-9.12-36.793-13.68-57.455-13.68-32.832,0-60.506,6.242-82.992,18.696-22.501,12.469-39.53,30.709-51.072,54.721-11.557,24.025-17.328,53.665-17.328,88.92,0,33.444,6.982,62.472,20.977,87.096,13.979,24.624,33.743,43.633,59.279,57,25.536,13.381,55.02,20.064,88.464,20.064,23.712,0,45.743-3.947,66.12-11.856,20.363-7.895,42.408-22.188,66.12-42.864l47.424,66.576c-14.592,14.592-32.376,27.359-53.352,38.304-20.977,10.944-43.178,19.608-66.576,25.992-23.413,6.384-46.369,9.576-68.856,9.576Z"/></svg>