<?xml version="1.0" encoding="UTF-8"?><svg id="Layer_1" xmlns="http://www.w3.org/2000/svg" viewBox="0 0 146.299 76.648"><path d="M1.96,29.75v-7h23.38v7H1.96ZM9.59,59.499V13.37h7.21v46.129h-7.21Z"/><path d="M41.09,60.199c-3.594,0-6.802-.828-9.625-2.485-2.824-1.655-5.052-3.92-6.685-6.79-1.634-2.869-2.45-6.147-2.45-9.835s.816-6.964,2.45-9.834c1.633-2.87,3.861-5.133,6.685-6.79,2.823-1.656,6.031-2.485,9.625-2.485,3.546,0,6.731.829,9.555,2.485,2.823,1.657,5.051,3.92,6.685,6.79,1.633,2.87,2.45,6.149,2.45,9.834s-.817,6.966-2.45,9.835c-1.634,2.87-3.862,5.135-6.685,6.79-2.824,1.657-6.009,2.485-9.555,2.485ZM41.09,53.619c2.193,0,4.153-.548,5.88-1.645,1.726-1.097,3.08-2.591,4.06-4.48s1.446-4.024,1.4-6.405c.046-2.426-.42-4.585-1.4-6.474-.98-1.89-2.334-3.371-4.06-4.445-1.727-1.073-3.687-1.61-5.88-1.61s-4.165.549-5.915,1.645c-1.75,1.097-3.115,2.59-4.095,4.48-.98,1.89-1.447,4.024-1.4,6.404-.047,2.381.42,4.516,1.4,6.405s2.345,3.384,4.095,4.48,3.721,1.645,5.915,1.645Z"/><path d="M92.54,60.199c-1.587,0-3.162-.257-4.726-.77-1.563-.514-2.986-1.201-4.27-2.065-1.284-.863-2.357-1.82-3.221-2.87s-1.435-2.11-1.715-3.185l1.82-.98v8.96h-7.21V7.7h7.21v23.45l-1.12-.63c.233-1.073.746-2.111,1.54-3.115.793-1.003,1.808-1.913,3.045-2.73,1.236-.816,2.578-1.47,4.025-1.96,1.445-.49,2.916-.735,4.41-.735,3.312,0,6.253.817,8.819,2.45,2.566,1.634,4.597,3.885,6.09,6.755s2.24,6.148,2.24,9.835-.734,6.977-2.205,9.87c-1.47,2.894-3.489,5.169-6.055,6.824-2.567,1.657-5.46,2.485-8.68,2.485ZM91.35,53.619c2.146,0,4.061-.548,5.74-1.645s3.01-2.591,3.99-4.48c.979-1.89,1.47-4.048,1.47-6.475,0-2.38-.479-4.516-1.436-6.405-.957-1.89-2.274-3.371-3.954-4.445-1.681-1.073-3.617-1.61-5.811-1.61s-4.13.537-5.81,1.61c-1.681,1.074-3.011,2.555-3.99,4.445-.98,1.889-1.47,4.025-1.47,6.405,0,2.427.489,4.585,1.47,6.475.979,1.89,2.31,3.384,3.99,4.48,1.68,1.097,3.615,1.645,5.81,1.645Z"/><path d="M127.47,60.199c-3.78,0-7.13-.805-10.046-2.415-2.917-1.61-5.203-3.814-6.859-6.615-1.657-2.8-2.485-6.02-2.485-9.66,0-2.893.466-5.529,1.4-7.909.933-2.38,2.228-4.445,3.885-6.195,1.656-1.75,3.64-3.103,5.95-4.06,2.31-.956,4.817-1.435,7.524-1.435,2.381,0,4.597.455,6.65,1.365,2.053.91,3.838,2.159,5.355,3.745,1.516,1.587,2.683,3.465,3.5,5.635.815,2.17,1.2,4.539,1.154,7.104l-.069,3.08h-30.03l-1.61-5.739h25.41l-1.05,1.189v-1.68c-.14-1.54-.654-2.916-1.54-4.13-.887-1.213-2.007-2.17-3.36-2.87-1.354-.7-2.824-1.05-4.41-1.05-2.52,0-4.644.479-6.369,1.435-1.728.957-3.034,2.357-3.921,4.2-.887,1.844-1.329,4.119-1.329,6.825,0,2.566.535,4.795,1.609,6.685,1.073,1.891,2.59,3.35,4.55,4.375,1.96,1.027,4.224,1.54,6.79,1.54,1.82,0,3.512-.303,5.075-.91,1.563-.605,3.255-1.703,5.075-3.29l3.64,5.11c-1.12,1.12-2.484,2.1-4.095,2.94-1.61.84-3.314,1.505-5.11,1.994-1.797.49-3.559.735-5.284.735Z"/></svg>