<?xml version="1.0" encoding="UTF-8"?>
<svg id="Layer_1" data-name="Layer 1" xmlns="http://www.w3.org/2000/svg" viewBox="0 0 1663.773 654">
  <path d="M193.584,645.28L0,187.48h96.792l139.52,342.696-16.568,7.849,149.112-350.544h92.432l-203.176,457.8h-64.528Z"/>
  <path d="M683.646,654c-47.088,0-88.808-10.027-125.132-30.084-36.338-20.056-64.828-47.524-85.456-82.404-20.642-34.88-30.956-74.991-30.956-120.336,0-36.038,5.805-68.888,17.44-98.536,11.622-29.648,27.754-55.372,48.395-77.172,20.629-21.8,45.344-38.654,74.12-50.576,28.776-11.908,60.019-17.876,93.74-17.876,29.647,0,57.252,5.668,82.84,17.004,25.574,11.336,47.811,26.896,66.708,46.652,18.884,19.77,33.422,43.164,43.6,70.196,10.165,27.032,14.961,56.544,14.389,88.508l-.872,38.368h-374.088l-20.056-71.504h316.536l-13.08,14.824v-20.929c-1.744-19.184-8.147-36.324-19.184-51.447-11.05-15.111-25.002-27.033-41.856-35.752-16.867-8.72-35.18-13.08-54.936-13.08-31.393,0-57.852,5.968-79.353,17.876-21.514,11.922-37.795,29.362-48.832,52.32-11.05,22.972-16.567,51.312-16.567,85.021,0,31.978,6.676,59.731,20.056,83.275,13.366,23.544,32.264,41.72,56.68,54.5,24.416,12.794,52.606,19.185,84.584,19.185,22.673,0,43.736-3.774,63.221-11.336,19.47-7.549,40.548-21.215,63.22-40.984l45.344,63.656c-13.952,13.952-30.956,26.16-51.012,36.624s-41.284,18.748-63.656,24.853c-22.386,6.104-44.336,9.155-65.836,9.155Z"/>
  <path d="M920.829,645.28V187.48h90.688v143.88l-8.72-34.88c6.391-22.086,17.29-42.142,32.7-60.168,15.396-18.013,33.136-32.264,53.191-42.728,20.057-10.464,40.835-15.696,62.349-15.696,9.878,0,19.32.872,28.34,2.616,9.006,1.744,16.132,3.788,21.364,6.104l-23.544,97.664c-6.977-2.902-14.688-5.369-23.108-7.412-8.434-2.03-16.718-3.052-24.852-3.052-15.696,0-30.67,3.052-44.908,9.156-14.252,6.104-26.746,14.538-37.496,25.288-10.764,10.764-19.334,23.258-25.724,37.496-6.404,14.252-9.593,29.798-9.593,46.652v252.88h-90.688Z"/>
  <path d="M1452.749,654c-19.77,0-39.39-3.201-58.86-9.592-19.483-6.39-37.21-14.96-53.191-25.725-15.996-10.75-29.362-22.672-40.112-35.752-10.764-13.08-17.876-26.296-21.364-39.676l22.672-12.208v111.616h-89.815V0h89.815v292.12l-13.951-7.848c2.901-13.366,9.292-26.296,19.184-38.804,9.878-12.494,22.522-23.83,37.932-34.008,15.396-10.165,32.114-18.312,50.141-24.416,18.012-6.104,36.324-9.156,54.936-9.156,41.271,0,77.895,10.178,109.872,30.52,31.964,20.356,57.252,48.396,75.864,84.148,18.598,35.752,27.904,76.601,27.904,122.517s-9.156,86.914-27.469,122.952c-18.312,36.052-43.464,64.392-75.428,85.02-31.978,20.643-68.016,30.956-108.128,30.956ZM1437.925,572.032c26.732,0,50.576-6.826,71.504-20.492,20.929-13.652,37.496-32.264,49.704-55.808s18.312-50.427,18.312-80.66c0-29.648-5.968-56.244-17.876-79.788-11.922-23.544-28.341-41.993-49.269-55.373-20.928-13.366-45.058-20.056-72.376-20.056s-51.448,6.689-72.376,20.056c-20.928,13.38-37.496,31.829-49.704,55.373s-18.312,50.14-18.312,79.788c0,30.233,6.104,57.116,18.312,80.66s28.776,42.155,49.704,55.808c20.928,13.666,45.044,20.492,72.376,20.492Z"/>
</svg>