<?xml version="1.0" encoding="UTF-8"?>
<svg id="Layer_1" data-name="Layer 1" xmlns="http://www.w3.org/2000/svg" viewBox="0 0 818.646 273.35">
  <path d="M82.6,273.35c-15.17,0-28.995-4.2-41.475-12.6-12.485-8.4-22.46-19.83-29.925-34.3-7.47-14.465-11.2-30.801-11.2-49,0-18.43,3.79-34.826,11.375-49.176,7.58-14.35,17.85-25.604,30.8-33.775,12.95-8.165,27.475-12.25,43.575-12.25,9.565,0,18.315,1.4,26.25,4.2,7.93,2.8,14.875,6.71,20.825,11.725,5.95,5.02,10.85,10.795,14.7,17.325,3.85,6.535,6.24,13.535,7.175,21l-8.05-2.8v-47.6h36.4v183.75h-36.4v-43.75l8.4-2.45c-1.4,6.301-4.26,12.426-8.575,18.375-4.32,5.95-9.8,11.261-16.45,15.926-6.65,4.67-14,8.399-22.05,11.199-8.05,2.801-16.51,4.2-25.375,4.2ZM92.05,240.1c10.965,0,20.65-2.68,29.05-8.05,8.4-5.365,14.99-12.775,19.775-22.225,4.78-9.45,7.175-20.24,7.175-32.375,0-11.9-2.396-22.516-7.175-31.851-4.785-9.33-11.375-16.68-19.775-22.05-8.4-5.365-18.085-8.05-29.05-8.05-10.735,0-20.246,2.685-28.525,8.05-8.285,5.37-14.82,12.72-19.6,22.05-4.785,9.335-7.175,19.95-7.175,31.851,0,12.135,2.39,22.925,7.175,32.375,4.78,9.449,11.315,16.859,19.6,22.225,8.279,5.37,17.79,8.05,28.525,8.05Z"/>
  <path d="M295.749,273.35c-18.9,0-35.646-4.024-50.225-12.075-14.585-8.05-26.021-19.074-34.3-33.074-8.285-14-12.425-30.101-12.425-48.301,0-14.465,2.33-27.65,7-39.55,4.665-11.9,11.14-22.225,19.425-30.975,8.28-8.75,18.2-15.515,29.75-20.3,11.55-4.78,24.09-7.175,37.625-7.175,11.9,0,22.98,2.275,33.25,6.825,10.265,4.55,19.19,10.795,26.775,18.725,7.58,7.935,13.415,17.325,17.5,28.175,4.08,10.85,6.004,22.695,5.775,35.525l-.35,15.4h-150.15l-8.05-28.7h127.05l-5.25,5.95v-8.4c-.7-7.7-3.271-14.58-7.7-20.65-4.435-6.065-10.035-10.85-16.8-14.35-6.771-3.5-14.121-5.25-22.05-5.25-12.6,0-23.22,2.396-31.85,7.175-8.635,4.785-15.17,11.785-19.6,21-4.435,9.22-6.65,20.595-6.65,34.125,0,12.835,2.68,23.975,8.05,33.425,5.365,9.45,12.95,16.745,22.75,21.875,9.8,5.135,21.115,7.7,33.95,7.7,9.1,0,17.555-1.516,25.375-4.551,7.814-3.029,16.275-8.515,25.375-16.449l18.2,25.55c-5.6,5.6-12.425,10.5-20.475,14.7-8.05,4.199-16.57,7.524-25.55,9.975-8.985,2.45-17.795,3.675-26.425,3.675Z"/>
  <path d="M415.099,45.5c-7.7,0-13.65-1.979-17.851-5.95-4.2-3.965-6.3-9.565-6.3-16.8,0-6.765,2.155-12.25,6.475-16.45,4.315-4.2,10.205-6.3,17.675-6.3,7.699,0,13.649,1.985,17.85,5.95,4.2,3.97,6.3,9.57,6.3,16.8,0,6.771-2.16,12.25-6.475,16.45-4.32,4.2-10.21,6.3-17.675,6.3ZM397.598,269.85V86.1h36.05v183.75h-36.05Z"/>
  <path d="M548.099,273.35c-17.971,0-34.01-4.14-48.125-12.425-14.121-8.279-25.26-19.6-33.426-33.95-8.17-14.35-12.25-30.739-12.25-49.175s4.08-34.825,12.25-49.175c8.166-14.35,19.305-25.665,33.426-33.95,14.115-8.28,30.154-12.425,48.125-12.425,17.729,0,33.654,4.146,47.775,12.425,14.113,8.285,25.254,19.6,33.424,33.95,8.166,14.35,12.25,30.746,12.25,49.175s-4.084,34.825-12.25,49.175c-8.17,14.351-19.311,25.671-33.424,33.95-14.121,8.285-30.047,12.425-47.775,12.425ZM548.099,240.451c10.965,0,20.764-2.74,29.4-8.226,8.629-5.479,15.398-12.95,20.299-22.399,4.9-9.45,7.23-20.125,7-32.025.23-12.13-2.1-22.925-7-32.375-4.9-9.45-11.67-16.855-20.299-22.225-8.637-5.365-18.436-8.05-29.4-8.05s-20.826,2.746-29.576,8.225c-8.75,5.485-15.574,12.95-20.475,22.4-4.9,9.45-7.234,20.125-7,32.025-.234,11.9,2.1,22.575,7,32.025,4.9,9.449,11.725,16.92,20.475,22.399,8.75,5.485,18.605,8.226,29.576,8.226Z"/>
  <path d="M721.695,273.35c-13.07,0-24.445-3.035-34.125-9.1-9.685-6.065-17.149-14.58-22.399-25.55-5.25-10.965-7.875-24.03-7.875-39.2v-113.4h36.05v103.601c0,10.734,1.689,20.01,5.075,27.824,3.38,7.82,8.279,13.825,14.7,18.025,6.414,4.2,14.175,6.3,23.274,6.3,6.765,0,12.95-1.104,18.55-3.325,5.601-2.215,10.44-5.305,14.525-9.274,4.08-3.965,7.29-8.75,9.625-14.351,2.33-5.6,3.5-11.664,3.5-18.199v-110.601h36.05v183.75h-36.05v-38.5l6.3-4.2c-2.8,8.636-7.524,16.45-14.175,23.45s-14.525,12.546-23.625,16.625c-9.1,4.08-18.9,6.125-29.4,6.125Z"/>
</svg>