<?xml version="1.0" encoding="UTF-8"?>
<svg id="Layer_1" xmlns="http://www.w3.org/2000/svg" version="1.1" viewBox="0 0 995 406">
  <!-- Generator: Adobe Illustrator 29.2.1, SVG Export Plug-In . SVG Version: 2.1.0 Build 116)  -->
  <defs>
    <style>
      .st0 {
        fill: none;
      }
    </style>
  </defs>
  <rect class="st0" y="0" width="995" height="406"/>
  <path d="M110.1,405.5L12.1,117.8l57-.5,70.1,215.4-12.6-1.1,76.2-168.2h34l76.7,168.8-14.8,1.1,70.7-215.4h57l-97,287.7h-38.9l-80-183,12.6,1.6-74.5,181.4h-38.4Z"/>
  <path d="M477.9,405.5V0h56.4v177l-9.9,6.6c3.6-12.8,10.8-24.6,21.4-35.3,10.6-10.8,23.2-19.5,37.8-26.3,14.6-6.8,29.6-10.1,44.9-10.1,21.9,0,40.2,4.3,54.8,12.9,14.6,8.6,25.6,21.6,32.9,39.2,7.3,17.5,11,39.6,11,66.3v175.4h-56.4v-171.5c0-16.4-2.2-30-6.6-40.8-4.4-10.8-11.1-18.6-20.3-23.6-9.1-4.9-20.5-7-34-6.3-11,0-21,1.7-30.1,5.2-9.1,3.5-17.1,8.3-23.8,14.5-6.8,6.2-12.1,13.4-15.9,21.6s-5.8,17.1-5.8,26.6v174.3h-56.4Z"/>
  <path d="M793.5,276.7v-55.9h157.8v55.9h-157.8Z"/>
</svg>