<?xml version="1.0" encoding="UTF-8"?><svg id="Layer_1" xmlns="http://www.w3.org/2000/svg" viewBox="0 0 591.108 285.324"><path d="M57.66,285.324l39.432-91.14.372,30.504L0,4.464h44.64l61.008,143.592c1.238,2.481,2.726,6.267,4.464,11.347,1.732,5.086,3.22,10.107,4.464,15.065l-9.672,2.231c1.982-5.207,3.906-10.416,5.766-15.623,1.86-5.209,3.656-10.416,5.394-15.625L167.028,4.464h45.384l-80.352,195.3-33.108,85.56h-41.292Z"/><path d="M328.476,203.485c-20.088,0-37.887-4.279-53.383-12.834-15.501-8.557-27.655-20.275-36.456-35.154-8.806-14.881-13.206-31.992-13.206-51.336,0-15.375,2.476-29.389,7.44-42.037,4.958-12.648,11.84-23.622,20.646-32.922,8.8-9.3,19.343-16.49,31.621-21.576,12.275-5.08,25.604-7.626,39.99-7.626,12.646,0,24.424,2.418,35.34,7.254,10.91,4.836,20.396,11.474,28.457,19.902,8.057,8.434,14.258,18.414,18.6,29.946,4.338,11.532,6.383,24.122,6.139,37.758l-.371,16.368h-159.589l-8.556-30.504h135.035l-5.58,6.324v-8.928c-.744-8.184-3.475-15.496-8.184-21.948-4.713-6.446-10.666-11.532-17.855-15.252-7.195-3.72-15.008-5.58-23.436-5.58-13.393,0-24.68,2.546-33.854,7.626-9.178,5.086-16.123,12.526-20.832,22.32-4.713,9.8-7.066,21.89-7.066,36.27,0,13.642,2.848,25.481,8.555,35.526,5.703,10.043,13.764,17.797,24.18,23.25,10.416,5.457,22.443,8.184,36.084,8.184,9.674,0,18.658-1.609,26.971-4.836,8.307-3.221,17.299-9.051,26.971-17.484l19.344,27.156c-5.953,5.952-13.207,11.16-21.762,15.624-8.557,4.464-17.613,7.998-27.156,10.603-9.551,2.604-18.914,3.906-28.086,3.906Z"/><path d="M520.427,203.485c-16.368,0-31.126-2.854-44.268-8.557-13.148-5.702-24.059-14.137-32.736-25.296l26.04-22.32c7.44,8.685,15.561,14.944,24.366,18.786,8.8,3.848,18.786,5.766,29.946,5.766,4.464,0,8.613-.558,12.462-1.674,3.842-1.115,7.189-2.789,10.044-5.021,2.848-2.232,5.021-4.895,6.51-7.998,1.488-3.098,2.232-6.51,2.232-10.23,0-6.445-2.36-11.654-7.068-15.624-2.482-1.731-6.388-3.655-11.718-5.766-5.336-2.104-12.218-4.278-20.646-6.511-14.386-3.719-26.168-7.934-35.34-12.647-9.178-4.708-16.246-10.044-21.204-15.996-3.72-4.708-6.452-9.858-8.184-15.438-1.738-5.58-2.604-11.718-2.604-18.414,0-8.184,1.796-15.682,5.395-22.506,3.592-6.818,8.556-12.77,14.88-17.856,6.324-5.08,13.764-8.986,22.319-11.718,8.557-2.726,17.671-4.092,27.343-4.092,9.172,0,18.286,1.244,27.342,3.72,9.05,2.482,17.42,6.08,25.109,10.788,7.685,4.714,14.137,10.294,19.345,16.74l-21.948,24.18c-4.714-4.708-9.858-8.864-15.438-12.462-5.579-3.592-11.224-6.382-16.926-8.37-5.708-1.982-10.916-2.976-15.624-2.976-5.208,0-9.922.5-14.136,1.488-4.22.994-7.754,2.482-10.602,4.464-2.854,1.988-5.022,4.464-6.511,7.44-1.487,2.976-2.231,6.324-2.231,10.044.244,3.226,1.052,6.266,2.418,9.114,1.36,2.854,3.284,5.272,5.766,7.254,2.727,1.988,6.818,4.092,12.276,6.324,5.452,2.232,12.397,4.342,20.832,6.324,12.397,3.226,22.628,6.76,30.689,10.602,8.057,3.848,14.444,8.248,19.158,13.206,4.958,4.714,8.429,10.172,10.416,16.367,1.982,6.203,2.977,13.148,2.977,20.832,0,11.16-3.162,21.146-9.486,29.946-6.324,8.806-14.822,15.688-25.482,20.646-10.666,4.959-22.569,7.441-35.712,7.441Z"/></svg>