<?xml version="1.0" encoding="UTF-8"?><svg id="Layer_1" xmlns="http://www.w3.org/2000/svg" viewBox="0 0 123.408 55.151"><path d="M11.16,55.151l7.633-17.639.071,5.904L0,.792h8.64l11.808,27.792c.24.479.528,1.212.864,2.195.335.984.623,1.957.864,2.916l-1.872.432c.384-1.008.756-2.016,1.116-3.023.359-1.008.707-2.016,1.044-3.024L32.329.792h8.783l-15.552,37.8-6.408,16.559h-7.992Z"/><path d="M62.928,39.312c-3.696,0-6.996-.853-9.899-2.556-2.905-1.703-5.196-4.033-6.876-6.984-1.681-2.952-2.521-6.324-2.521-10.116s.84-7.164,2.521-10.116c1.68-2.952,3.971-5.28,6.876-6.984,2.903-1.703,6.203-2.556,9.899-2.556,3.647,0,6.924.853,9.828,2.556,2.903,1.705,5.195,4.032,6.876,6.984,1.68,2.952,2.521,6.325,2.521,10.116s-.841,7.164-2.521,10.116c-1.681,2.951-3.973,5.281-6.876,6.984-2.904,1.703-6.181,2.556-9.828,2.556ZM62.928,32.543c2.256,0,4.271-.563,6.048-1.691,1.775-1.127,3.168-2.664,4.177-4.608,1.008-1.944,1.487-4.14,1.439-6.588.048-2.495-.432-4.716-1.439-6.66-1.009-1.944-2.401-3.467-4.177-4.572-1.776-1.104-3.792-1.656-6.048-1.656s-4.284.565-6.084,1.692c-1.8,1.128-3.204,2.664-4.212,4.608-1.008,1.944-1.488,4.14-1.439,6.588-.049,2.448.432,4.644,1.439,6.588s2.412,3.481,4.212,4.608c1.8,1.128,3.827,1.691,6.084,1.691Z"/><path d="M103.463,39.312c-2.688,0-5.028-.624-7.02-1.872-1.992-1.248-3.528-3-4.608-5.256s-1.62-4.943-1.62-8.064V.792h7.416v21.312c0,2.208.348,4.116,1.044,5.724.695,1.608,1.704,2.845,3.024,3.708,1.319.864,2.916,1.297,4.788,1.297,1.392,0,2.664-.229,3.816-.685,1.151-.456,2.147-1.091,2.987-1.908.84-.815,1.5-1.8,1.98-2.952.479-1.152.72-2.399.72-3.744V.792h7.416v37.8h-7.416v-7.92l1.296-.865c-.576,1.777-1.548,3.385-2.916,4.824-1.368,1.44-2.988,2.581-4.859,3.42-1.872.84-3.889,1.261-6.049,1.261Z"/></svg>