<?xml version="1.0" encoding="UTF-8"?>
<svg id="Layer_1" data-name="Layer 1" xmlns="http://www.w3.org/2000/svg" viewBox="0 0 5.385 8.766">
  <path d="M5.385,5.01c0,1.27-.217,2.213-.65,2.83-.434.617-1.112.926-2.034.926-.91,0-1.584-.302-2.021-.905S.016,6.355,0,5.156v-1.447C0,2.455.217,1.523.65.914s1.113-.914,2.039-.914c.918,0,1.594.294,2.028.882.434.588.656,1.495.668,2.722v1.406ZM4.301,3.527c0-.918-.129-1.587-.387-2.007s-.666-.63-1.225-.63c-.555,0-.959.209-1.213.627s-.385,1.061-.393,1.928v1.734c0,.922.134,1.603.401,2.042s.673.659,1.216.659c.535,0,.933-.207,1.192-.621s.396-1.066.407-1.957v-1.775Z"/>
  <rect x="-1.075" y="4.014" width="7.518" height=".729" transform="translate(-2.43 4.853) rotate(-63.792)"/>
</svg>